<svg xmlns="http://www.w3.org/2000/svg" xmlns:xlink="http://www.w3.org/1999/xlink" width="1000" zoomAndPan="magnify" viewBox="0 0 750 749.999995" height="1000" preserveAspectRatio="xMidYMid meet" version="1.0"><defs><g/></defs><rect x="-75" width="900" fill="#ffffff" y="-74.999999" height="899.999994" fill-opacity="1"/><rect x="-75" width="900" fill="#ffffff" y="-74.999999" height="899.999994" fill-opacity="1"/><rect x="-75" width="900" fill="#ffffff" y="-74.999999" height="899.999994" fill-opacity="1"/><g fill="#000000" fill-opacity="1"><g transform="translate(189.435932, 488.330567)"><g><path d="M 167.78125 -44.71875 L 141.8125 -44.71875 L 141.8125 0 L 97.25 0 L 97.25 -44.71875 L 5.171875 -44.71875 L 5.171875 -76.4375 L 99.75 -215.75 L 141.8125 -215.75 L 141.8125 -80.125 L 167.78125 -80.125 Z M 97.25 -80.125 L 97.25 -116.71875 C 97.25 -122.820312 97.492188 -131.675781 97.984375 -143.28125 C 98.472656 -154.894531 98.867188 -161.632812 99.171875 -163.5 L 97.984375 -163.5 C 94.347656 -155.4375 89.96875 -147.566406 84.84375 -139.890625 L 45.296875 -80.125 Z M 97.25 -80.125 "/></g></g><g transform="translate(361.9404, 488.330567)"><g><path d="M 175.90625 0 L 130.890625 0 L 130.890625 -96.359375 C 130.890625 -108.265625 128.773438 -117.191406 124.546875 -123.140625 C 120.316406 -129.097656 113.578125 -132.078125 104.328125 -132.078125 C 91.734375 -132.078125 82.632812 -127.867188 77.03125 -119.453125 C 71.425781 -111.046875 68.625 -97.101562 68.625 -77.625 L 68.625 0 L 23.609375 0 L 23.609375 -164.984375 L 58 -164.984375 L 64.046875 -143.875 L 66.546875 -143.875 C 71.566406 -151.84375 78.476562 -157.867188 87.28125 -161.953125 C 96.09375 -166.035156 106.101562 -168.078125 117.3125 -168.078125 C 136.5 -168.078125 151.0625 -162.882812 161 -152.5 C 170.9375 -142.125 175.90625 -127.148438 175.90625 -107.578125 Z M 175.90625 0 "/></g></g></g></svg>