<svg xmlns="http://www.w3.org/2000/svg" xmlns:xlink="http://www.w3.org/1999/xlink" width="1000" zoomAndPan="magnify" viewBox="0 0 750 749.999995" height="1000" preserveAspectRatio="xMidYMid meet" version="1.0"><rect x="-75" width="900" fill="#ffffff" y="-74.999999" height="899.999994" fill-opacity="1"/><rect x="-75" width="900" fill="#ffffff" y="-74.999999" height="899.999994" fill-opacity="1"/><path fill="#000000" d="M 367.503906 207.089844 L 365.171875 207.996094 C 363.496094 208.601562 361.101562 209.203125 357.992188 209.808594 C 354.878906 210.414062 351.410156 210.835938 347.578125 211.078125 L 344.167969 211.078125 L 344.167969 202.738281 L 347.578125 202.738281 C 353.203125 202.496094 358.410156 201.589844 363.195312 200.015625 C 367.984375 198.445312 371.335938 196.996094 373.25 195.664062 C 375.164062 194.335938 376.839844 193.007812 378.277344 191.675781 C 378.515625 191.3125 379.234375 191.132812 380.429688 191.132812 C 381.507812 191.132812 382.523438 191.496094 383.484375 192.21875 L 383.484375 246.4375 L 383.664062 300.835938 C 384.5 301.683594 385.21875 302.226562 385.816406 302.46875 C 386.414062 302.710938 387.851562 302.953125 390.125 303.195312 C 392.398438 303.433594 396.109375 303.554688 401.253906 303.554688 L 405.921875 303.554688 L 405.921875 311.898438 L 403.949219 311.898438 C 401.433594 311.535156 391.921875 311.355469 375.40625 311.355469 C 359.128906 311.355469 349.734375 311.535156 347.21875 311.898438 L 345.066406 311.898438 L 345.066406 303.554688 L 349.734375 303.554688 C 352.367188 303.554688 354.640625 303.554688 356.554688 303.554688 C 358.46875 303.554688 359.964844 303.496094 361.042969 303.375 C 362.121094 303.253906 363.078125 303.074219 363.914062 302.832031 C 364.753906 302.589844 365.230469 302.46875 365.351562 302.46875 C 365.472656 302.46875 365.828125 302.167969 366.429688 301.5625 C 367.027344 300.957031 367.386719 300.714844 367.503906 300.835938 Z M 367.503906 207.089844 " fill-opacity="1" fill-rule="nonzero"/><path fill="#000000" d="M 348.835938 481.078125 C 345.605469 481.078125 343.03125 479.988281 341.117188 477.8125 C 339.199219 475.636719 338.242188 472.976562 338.242188 469.835938 C 338.242188 461.253906 341.414062 453.816406 347.757812 447.53125 C 354.101562 441.246094 362 438.101562 371.453125 438.101562 C 382.347656 438.101562 391.441406 441.488281 398.742188 448.257812 C 406.042969 455.027344 409.753906 463.789062 409.871094 474.550781 C 409.871094 479.746094 408.675781 484.703125 406.28125 489.417969 C 403.886719 494.132812 401.015625 498.242188 397.664062 501.75 C 394.3125 505.253906 389.527344 509.726562 383.304688 515.167969 C 378.996094 518.914062 373.011719 524.476562 365.351562 531.847656 L 354.757812 542.003906 L 368.402344 542.183594 C 387.191406 542.183594 397.1875 541.882812 398.382812 541.277344 C 399.222656 541.035156 400.65625 535.65625 402.691406 525.140625 L 402.691406 524.597656 L 409.871094 524.597656 L 409.871094 525.140625 C 409.753906 525.503906 408.976562 531.003906 407.539062 541.640625 C 406.101562 552.277344 405.203125 557.839844 404.847656 558.324219 L 404.847656 558.867188 L 338.242188 558.867188 L 338.242188 553.246094 C 338.242188 552.398438 338.601562 551.492188 339.320312 550.527344 C 340.039062 549.558594 341.832031 547.445312 344.707031 544.179688 C 348.175781 540.3125 351.167969 536.925781 353.683594 534.027344 C 354.757812 532.816406 356.792969 530.582031 359.785156 527.316406 C 362.777344 524.050781 364.8125 521.816406 365.890625 520.605469 C 366.96875 519.398438 368.703125 517.402344 371.097656 514.625 C 373.488281 511.84375 375.164062 509.789062 376.121094 508.457031 C 377.078125 507.128906 378.457031 505.316406 380.25 503.019531 C 382.046875 500.722656 383.304688 498.789062 384.019531 497.214844 C 384.738281 495.644531 385.636719 493.890625 386.714844 491.957031 C 387.792969 490.023438 388.570312 488.089844 389.046875 486.15625 C 389.527344 484.21875 389.945312 482.40625 390.304688 480.714844 C 390.664062 479.023438 390.84375 477.027344 390.84375 474.730469 C 390.84375 467.113281 388.808594 460.527344 384.738281 454.964844 C 380.671875 449.40625 374.867188 446.625 367.324219 446.625 C 363.375 446.625 359.90625 447.652344 356.914062 449.707031 C 353.921875 451.761719 351.828125 453.757812 350.628906 455.691406 C 349.433594 457.625 348.835938 458.773438 348.835938 459.136719 C 348.835938 459.257812 349.132812 459.316406 349.734375 459.316406 C 351.886719 459.316406 354.101562 460.164062 356.375 461.855469 C 358.648438 463.550781 359.785156 466.328125 359.785156 470.199219 C 359.785156 473.21875 358.828125 475.757812 356.914062 477.8125 C 355 479.867188 352.304688 480.957031 348.835938 481.078125 Z M 348.835938 481.078125 " fill-opacity="1" fill-rule="nonzero"/><path fill="#000000" d="M 311.316406 394.582031 L 436.980469 394.582031 L 436.980469 383.703125 L 311.316406 383.703125 Z M 311.316406 394.582031 " fill-opacity="1" fill-rule="nonzero"/></svg>