<svg xmlns="http://www.w3.org/2000/svg" xmlns:xlink="http://www.w3.org/1999/xlink" width="1000" zoomAndPan="magnify" viewBox="0 0 750 749.999995" height="1000" preserveAspectRatio="xMidYMid meet" version="1.0"><defs><clipPath id="1a55f5ac8b"><path d="M 158 201.75 L 227 201.75 L 227 315 L 158 315 Z M 158 201.75 " clip-rule="nonzero"/></clipPath><clipPath id="37095e5be5"><path d="M 157 431 L 228 431 L 228 548.25 L 157 548.25 Z M 157 431 " clip-rule="nonzero"/></clipPath><clipPath id="910afe1a83"><path d="M 523 201.75 L 595 201.75 L 595 319 L 523 319 Z M 523 201.75 " clip-rule="nonzero"/></clipPath></defs><rect x="-75" width="900" fill="#ffffff" y="-74.999999" height="899.999994" fill-opacity="1"/><rect x="-75" width="900" fill="#ffffff" y="-74.999999" height="899.999994" fill-opacity="1"/><g clip-path="url(#1a55f5ac8b)"><path fill="#000000" d="M 168.578125 241.808594 C 165.523438 241.808594 163.09375 240.792969 161.285156 238.765625 C 159.476562 236.738281 158.570312 234.257812 158.570312 231.328125 C 158.570312 223.328125 161.566406 216.398438 167.558594 210.539062 C 173.550781 204.679688 181.011719 201.75 189.945312 201.75 C 200.230469 201.75 208.824219 204.90625 215.71875 211.214844 C 222.617188 217.527344 226.121094 225.695312 226.234375 235.722656 C 226.234375 240.570312 225.105469 245.1875 222.84375 249.582031 C 220.582031 253.980469 217.867188 257.808594 214.703125 261.078125 C 211.539062 264.34375 207.015625 268.515625 201.136719 273.585938 C 197.066406 277.078125 191.414062 282.261719 184.179688 289.136719 L 174.171875 298.601562 L 187.0625 298.769531 C 204.8125 298.769531 214.25 298.488281 215.382812 297.925781 C 216.171875 297.699219 217.53125 292.683594 219.453125 282.882812 L 219.453125 282.375 L 226.234375 282.375 L 226.234375 282.882812 C 226.121094 283.21875 225.386719 288.347656 224.03125 298.261719 C 222.671875 308.179688 221.824219 313.363281 221.484375 313.8125 L 221.484375 314.320312 L 158.570312 314.320312 L 158.570312 309.082031 C 158.570312 308.292969 158.910156 307.445312 159.589844 306.546875 C 160.265625 305.644531 161.964844 303.671875 164.675781 300.628906 C 167.953125 297.023438 170.78125 293.867188 173.15625 291.164062 C 174.171875 290.035156 176.09375 287.953125 178.921875 284.910156 C 181.746094 281.867188 183.667969 279.78125 184.6875 278.65625 C 185.703125 277.527344 187.34375 275.671875 189.605469 273.078125 C 191.867188 270.488281 193.449219 268.570312 194.351562 267.332031 C 195.257812 266.09375 196.558594 264.402344 198.253906 262.261719 C 199.949219 260.121094 201.136719 258.316406 201.816406 256.851562 C 202.492188 255.386719 203.339844 253.753906 204.359375 251.949219 C 205.375 250.148438 206.109375 248.34375 206.5625 246.542969 C 207.015625 244.738281 207.410156 243.046875 207.75 241.472656 C 208.089844 239.894531 208.257812 238.035156 208.257812 235.894531 C 208.257812 228.792969 206.335938 222.652344 202.492188 217.46875 C 198.648438 212.285156 193.167969 209.695312 186.042969 209.695312 C 182.3125 209.695312 179.035156 210.652344 176.207031 212.566406 C 173.382812 214.484375 171.402344 216.34375 170.273438 218.144531 C 169.140625 219.949219 168.578125 221.019531 168.578125 221.355469 C 168.578125 221.46875 168.859375 221.527344 169.425781 221.527344 C 171.460938 221.527344 173.550781 222.316406 175.699219 223.890625 C 177.847656 225.46875 178.921875 228.0625 178.921875 231.667969 C 178.921875 234.484375 178.015625 236.851562 176.207031 238.765625 C 174.398438 240.683594 171.855469 241.695312 168.578125 241.808594 Z M 168.578125 241.808594 " fill-opacity="1" fill-rule="nonzero"/></g><g clip-path="url(#37095e5be5)"><path fill="#000000" d="M 161.964844 474.046875 C 161.964844 474.046875 161.964844 469.710938 161.964844 461.035156 C 161.964844 452.355469 165.015625 445.371094 171.121094 440.074219 C 177.226562 434.777344 184.234375 432.074219 192.148438 431.960938 C 200.175781 431.960938 207.296875 434.328125 213.515625 439.058594 C 219.734375 443.792969 222.84375 449.933594 222.84375 457.484375 C 222.84375 460.863281 222.222656 464.019531 220.976562 466.949219 C 219.734375 469.878906 218.265625 472.246094 216.570312 474.046875 C 214.871094 475.851562 213.121094 477.429688 211.3125 478.78125 C 209.503906 480.132812 208.03125 481.148438 206.902344 481.824219 C 205.773438 482.5 205.148438 482.949219 205.035156 483.175781 L 207.410156 484.695312 C 208.992188 485.824219 210.578125 486.949219 212.160156 488.078125 C 213.742188 489.203125 214.644531 489.824219 214.871094 489.9375 C 223.351562 496.585938 227.589844 504.980469 227.589844 515.121094 C 227.589844 524.023438 224.3125 531.742188 217.753906 538.277344 C 211.199219 544.8125 202.71875 548.136719 192.316406 548.25 C 182.144531 548.25 173.777344 545.375 167.21875 539.628906 C 160.664062 533.882812 157.382812 526.785156 157.382812 518.332031 C 157.382812 506.164062 164.675781 496.019531 179.261719 487.910156 L 176.207031 485.710938 C 173.832031 484.246094 172.308594 483.121094 171.628906 482.332031 C 165.183594 476.808594 161.964844 469.710938 161.964844 461.035156 Z M 198.59375 479.289062 L 199.609375 478.613281 C 200.289062 478.160156 200.796875 477.824219 201.136719 477.597656 C 201.476562 477.371094 202.039062 476.976562 202.832031 476.414062 C 203.625 475.851562 204.300781 475.289062 204.867188 474.722656 C 205.433594 474.160156 206.054688 473.484375 206.734375 472.695312 C 207.410156 471.90625 208.03125 471.175781 208.597656 470.5 C 209.164062 469.824219 209.730469 468.921875 210.292969 467.792969 C 210.859375 466.667969 211.367188 465.710938 211.820312 464.921875 C 212.273438 464.132812 212.554688 463.003906 212.667969 461.539062 C 212.78125 460.074219 212.894531 458.835938 213.007812 457.820312 C 213.007812 452.976562 211.367188 448.863281 208.089844 445.484375 C 204.8125 442.101562 201.023438 439.960938 196.726562 439.058594 C 195.9375 438.949219 194.070312 438.890625 191.132812 438.890625 C 186.496094 438.890625 182.144531 440.355469 178.074219 443.285156 C 174.003906 446.214844 171.910156 449.878906 171.796875 454.273438 C 171.796875 456.863281 172.535156 459.230469 174.003906 461.371094 C 175.472656 463.511719 176.941406 465.144531 178.414062 466.273438 C 179.882812 467.398438 182.707031 469.203125 186.890625 471.683594 C 187.683594 472.246094 188.304688 472.640625 188.757812 472.863281 Z M 192.488281 540.980469 C 199.042969 540.980469 204.699219 539.066406 209.445312 535.234375 C 214.195312 531.402344 216.570312 526.785156 216.570312 521.375 C 216.570312 519.460938 216.285156 517.65625 215.71875 515.964844 C 215.15625 514.277344 214.476562 512.867188 213.683594 511.742188 C 212.894531 510.613281 211.652344 509.375 209.953125 508.023438 C 208.257812 506.671875 206.957031 505.65625 206.054688 504.980469 C 205.148438 504.304688 203.511719 503.234375 201.136719 501.769531 C 198.761719 500.304688 197.234375 499.34375 196.558594 498.894531 C 194.976562 497.878906 193.277344 496.808594 191.46875 495.683594 C 189.660156 494.554688 188.191406 493.597656 187.0625 492.808594 L 185.703125 491.964844 C 185.027344 491.964844 183.386719 492.921875 180.785156 494.839844 C 178.1875 496.753906 175.472656 499.851562 172.648438 504.132812 C 169.820312 508.417969 168.351562 513.035156 168.238281 517.996094 C 168.238281 524.644531 170.667969 530.109375 175.53125 534.390625 C 180.390625 538.671875 186.042969 540.871094 192.488281 540.980469 Z M 192.488281 540.980469 " fill-opacity="1" fill-rule="nonzero"/></g><path fill="#000000" d="M 133.132812 391.394531 L 251.839844 391.394531 L 251.839844 381.253906 L 133.132812 381.253906 Z M 133.132812 391.394531 " fill-opacity="1" fill-rule="nonzero"/><path fill="#000000" d="M 416.710938 423.679688 C 416.710938 425.933594 415.523438 427.058594 413.148438 427.058594 C 412.582031 427.058594 411.339844 426.15625 409.417969 424.355469 C 407.496094 422.550781 402.183594 417.3125 393.476562 408.636719 L 375.839844 391.058594 L 358.035156 408.804688 C 346.050781 420.523438 339.886719 426.496094 339.550781 426.722656 C 339.097656 426.945312 338.703125 427.058594 338.363281 427.058594 C 337.457031 427.058594 336.667969 426.722656 335.988281 426.046875 C 335.308594 425.371094 334.914062 424.582031 334.800781 423.679688 C 334.800781 422.890625 335.59375 421.652344 337.175781 419.960938 C 338.757812 418.269531 344.070312 412.917969 353.117188 403.902344 L 370.753906 386.324219 L 353.117188 368.746094 C 343.957031 359.617188 338.644531 354.265625 337.175781 352.6875 C 335.707031 351.109375 334.914062 349.871094 334.800781 348.96875 C 334.800781 347.957031 335.140625 347.167969 335.820312 346.605469 C 336.496094 346.039062 337.34375 345.757812 338.363281 345.757812 C 338.925781 345.757812 339.324219 345.816406 339.550781 345.929688 C 339.886719 346.152344 346.050781 352.125 358.035156 363.84375 L 375.839844 381.59375 L 393.476562 364.011719 C 402.183594 355.335938 407.496094 350.097656 409.417969 348.292969 C 411.339844 346.492188 412.582031 345.589844 413.148438 345.589844 C 415.523438 345.589844 416.710938 346.714844 416.710938 348.96875 C 416.710938 349.757812 416.144531 350.773438 415.011719 352.011719 C 413.882812 353.253906 408.34375 358.773438 398.394531 368.578125 L 380.757812 386.324219 L 398.394531 404.070312 C 407.890625 413.539062 413.316406 419.003906 414.675781 420.46875 C 416.03125 421.933594 416.710938 423.003906 416.710938 423.679688 Z M 416.710938 423.679688 " fill-opacity="1" fill-rule="nonzero"/><g clip-path="url(#910afe1a83)"><path fill="#000000" d="M 523.917969 261.414062 C 523.917969 243.046875 528.496094 228.511719 537.65625 217.808594 C 546.8125 207.101562 556.988281 201.75 568.179688 201.75 C 575.980469 201.75 581.578125 203.777344 584.96875 207.835938 C 588.359375 211.890625 590.054688 216.398438 590.054688 221.355469 C 590.054688 224.175781 589.265625 226.425781 587.683594 228.117188 C 586.097656 229.808594 583.894531 230.652344 581.070312 230.652344 C 578.46875 230.652344 576.320312 229.863281 574.625 228.285156 C 572.929688 226.710938 572.082031 224.511719 572.082031 221.695312 C 572.082031 216.738281 574.738281 213.75 580.050781 212.738281 C 577.5625 210.257812 574.058594 208.847656 569.535156 208.511719 C 561.511719 208.511719 554.894531 211.890625 549.695312 218.652344 C 544.382812 226.089844 541.726562 237.46875 541.726562 252.796875 L 541.894531 253.472656 C 542.460938 252.796875 542.914062 252.0625 543.25 251.273438 C 547.886719 244.511719 553.933594 241.132812 561.398438 241.132812 L 562.074219 241.132812 C 567.277344 241.132812 571.855469 242.203125 575.8125 244.34375 C 578.523438 245.921875 581.238281 248.175781 583.953125 251.105469 C 586.664062 254.035156 588.871094 257.246094 590.566406 260.738281 C 592.9375 266.261719 594.125 272.289062 594.125 278.824219 L 594.125 281.867188 C 594.125 284.460938 593.84375 286.882812 593.277344 289.136719 C 592.035156 295.785156 588.417969 302.261719 582.425781 308.574219 C 576.433594 314.882812 568.859375 318.039062 559.699219 318.039062 C 556.535156 318.039062 553.484375 317.589844 550.542969 316.6875 C 547.605469 315.785156 544.4375 314.09375 541.046875 311.617188 C 537.65625 309.136719 534.773438 305.8125 532.398438 301.644531 C 530.023438 297.472656 527.988281 292.007812 526.292969 285.25 C 524.597656 278.488281 523.804688 270.542969 523.917969 261.414062 Z M 560.378906 247.21875 C 556.988281 247.21875 554.046875 248.175781 551.5625 250.089844 C 549.074219 252.007812 547.152344 254.542969 545.796875 257.695312 C 544.4375 260.851562 543.476562 264.0625 542.914062 267.332031 C 542.347656 270.597656 542.007812 274.09375 541.894531 277.8125 C 541.894531 287.164062 542.574219 293.867188 543.929688 297.925781 C 545.285156 301.980469 547.433594 305.25 550.375 307.726562 C 553.085938 309.757812 556.082031 310.769531 559.363281 310.769531 C 565.128906 310.769531 569.535156 308.628906 572.589844 304.347656 C 574.058594 302.320312 575.078125 299.785156 575.640625 296.742188 C 576.207031 293.699219 576.488281 287.785156 576.488281 278.996094 C 576.488281 269.980469 576.207031 263.949219 575.640625 260.910156 C 575.078125 257.867188 574.058594 255.332031 572.589844 253.300781 C 569.535156 249.246094 565.46875 247.21875 560.378906 247.21875 Z M 560.378906 247.21875 " fill-opacity="1" fill-rule="nonzero"/></g><path fill="#000000" d="M 595.144531 544.53125 C 593.109375 544.195312 585.816406 544.023438 573.269531 544.023438 C 560.152344 544.023438 552.578125 544.195312 550.542969 544.53125 L 549.015625 544.53125 L 549.015625 536.757812 L 554.273438 536.757812 C 556.535156 536.757812 558.0625 536.757812 558.851562 536.757812 C 559.644531 536.757812 560.605469 536.644531 561.734375 536.417969 C 562.867188 536.191406 563.65625 535.910156 564.109375 535.574219 C 564.5625 535.234375 564.957031 534.785156 565.296875 534.222656 C 565.410156 533.996094 565.46875 530.953125 565.46875 525.09375 L 565.46875 516.640625 L 521.546875 516.640625 L 521.546875 508.867188 L 547.152344 469.824219 C 564.449219 443.679688 573.210938 430.550781 573.4375 430.441406 C 573.664062 430.214844 574.851562 430.101562 577 430.101562 L 580.050781 430.101562 L 581.070312 431.117188 L 581.070312 508.867188 L 596.671875 508.867188 L 596.671875 516.640625 L 581.070312 516.640625 L 581.070312 525.261719 C 581.070312 529.882812 581.070312 532.585938 581.070312 533.375 C 581.070312 534.164062 581.40625 534.839844 582.085938 535.402344 C 582.992188 536.191406 586.210938 536.644531 591.753906 536.757812 L 596.671875 536.757812 L 596.671875 544.53125 Z M 566.484375 508.867188 L 566.484375 452.414062 L 529.347656 508.699219 L 547.832031 508.867188 Z M 566.484375 508.867188 " fill-opacity="1" fill-rule="nonzero"/><path fill="#000000" d="M 499.839844 391.394531 L 618.546875 391.394531 L 618.546875 381.253906 L 499.839844 381.253906 Z M 499.839844 391.394531 " fill-opacity="1" fill-rule="nonzero"/></svg>