<svg xmlns="http://www.w3.org/2000/svg" xmlns:xlink="http://www.w3.org/1999/xlink" width="1000" zoomAndPan="magnify" viewBox="0 0 750 749.999995" height="1000" preserveAspectRatio="xMidYMid meet" version="1.0"><defs><clipPath id="ddaccce413"><path d="M 157 201.75 L 228 201.75 L 228 319 L 157 319 Z M 157 201.75 " clip-rule="nonzero"/></clipPath><clipPath id="98cd7a7407"><path d="M 158 431 L 227 431 L 227 548.25 L 158 548.25 Z M 158 431 " clip-rule="nonzero"/></clipPath><clipPath id="a9d431a4a8"><path d="M 525 201.75 L 593 201.75 L 593 319 L 525 319 Z M 525 201.75 " clip-rule="nonzero"/></clipPath><clipPath id="43d58b2fea"><path d="M 523 431 L 595 431 L 595 548.25 L 523 548.25 Z M 523 431 " clip-rule="nonzero"/></clipPath></defs><rect x="-75" width="900" fill="#ffffff" y="-74.999999" height="899.999994" fill-opacity="1"/><rect x="-75" width="900" fill="#ffffff" y="-74.999999" height="899.999994" fill-opacity="1"/><g clip-path="url(#ddaccce413)"><path fill="#000000" d="M 171.628906 236.0625 C 168.578125 236.0625 166.203125 235.105469 164.507812 233.1875 C 162.8125 231.273438 161.90625 228.792969 161.792969 225.75 C 161.792969 219.554688 164.507812 214.03125 169.933594 209.1875 C 175.359375 204.339844 181.917969 201.917969 189.605469 201.917969 C 193.5625 201.917969 196.050781 201.976562 197.066406 202.089844 C 205.433594 203.441406 211.820312 206.425781 216.230469 211.046875 C 220.636719 215.667969 222.898438 220.679688 223.011719 226.089844 C 223.011719 231.949219 221.089844 237.640625 217.246094 243.160156 C 213.402344 248.683594 208.089844 252.683594 201.304688 255.160156 L 200.796875 255.5 C 200.796875 255.613281 201.304688 255.78125 202.324219 256.007812 C 203.339844 256.230469 204.980469 256.738281 207.242188 257.527344 C 209.503906 258.316406 211.652344 259.5 213.683594 261.078125 C 222.957031 267.050781 227.589844 274.9375 227.589844 284.742188 C 227.589844 293.644531 224.085938 301.417969 217.078125 308.066406 C 210.066406 314.714844 201.191406 318.039062 190.453125 318.039062 C 181.410156 318.039062 173.609375 315.617188 167.050781 310.769531 C 160.492188 305.925781 157.214844 299.785156 157.214844 292.347656 C 157.214844 289.191406 158.230469 286.65625 160.265625 284.742188 C 162.300781 282.824219 164.847656 281.8125 167.898438 281.699219 C 171.0625 281.699219 173.664062 282.710938 175.699219 284.742188 C 177.734375 286.769531 178.75 289.304688 178.75 292.347656 C 178.75 293.585938 178.582031 294.714844 178.242188 295.726562 C 177.902344 296.742188 177.507812 297.644531 177.054688 298.433594 C 176.601562 299.222656 175.980469 299.898438 175.191406 300.460938 C 174.398438 301.023438 173.71875 301.472656 173.15625 301.8125 C 172.589844 302.152344 172.023438 302.375 171.460938 302.488281 C 170.894531 302.601562 170.441406 302.769531 170.101562 302.996094 L 169.425781 303.164062 C 175.191406 308.234375 182.199219 310.769531 190.453125 310.769531 C 196.671875 310.769531 201.363281 307.785156 204.527344 301.8125 C 206.449219 298.09375 207.410156 292.402344 207.410156 284.742188 L 207.410156 281.359375 C 207.410156 270.65625 203.792969 263.5 196.558594 259.894531 C 194.863281 259.21875 191.414062 258.824219 186.214844 258.710938 L 179.089844 258.542969 L 178.582031 258.203125 C 178.355469 257.867188 178.242188 256.964844 178.242188 255.5 C 178.242188 253.472656 178.695312 252.457031 179.597656 252.457031 C 182.765625 252.457031 186.042969 252.175781 189.433594 251.613281 C 193.277344 251.046875 196.785156 248.683594 199.949219 244.511719 C 203.113281 240.34375 204.699219 234.035156 204.699219 225.582031 L 204.699219 224.230469 C 204.699219 217.808594 202.71875 213.355469 198.761719 210.878906 C 196.273438 209.300781 193.617188 208.511719 190.792969 208.511719 C 187.175781 208.511719 183.839844 209.128906 180.785156 210.371094 C 177.734375 211.609375 175.585938 212.90625 174.34375 214.257812 C 173.097656 215.609375 172.476562 216.285156 172.476562 216.285156 L 172.984375 216.285156 C 173.324219 216.398438 173.777344 216.511719 174.34375 216.625 C 174.90625 216.738281 175.472656 217.019531 176.039062 217.46875 C 176.601562 217.921875 177.28125 218.3125 178.074219 218.652344 C 178.863281 218.992188 179.429688 219.609375 179.769531 220.511719 C 180.109375 221.414062 180.558594 222.257812 181.125 223.046875 C 181.691406 223.835938 181.859375 224.960938 181.632812 226.425781 C 181.632812 228.90625 180.84375 231.105469 179.261719 233.019531 C 177.675781 234.933594 175.132812 235.949219 171.628906 236.0625 Z M 171.628906 236.0625 " fill-opacity="1" fill-rule="nonzero"/></g><g clip-path="url(#98cd7a7407)"><path fill="#000000" d="M 177.902344 517.996094 C 177.902344 520.699219 177 522.953125 175.191406 524.753906 C 173.382812 526.558594 171.175781 527.460938 168.578125 527.460938 L 167.390625 527.460938 C 172.589844 536.363281 179.488281 540.8125 188.078125 540.8125 C 195.992188 540.8125 201.757812 537.433594 205.375 530.671875 C 207.523438 526.953125 208.597656 519.742188 208.597656 509.035156 C 208.597656 497.429688 207.070312 489.597656 204.019531 485.542969 C 201.078125 481.824219 197.800781 479.964844 194.183594 479.964844 L 193.167969 479.964844 C 184.347656 479.964844 177.675781 483.796875 173.15625 491.457031 C 172.703125 492.246094 172.308594 492.699219 171.96875 492.808594 C 171.628906 492.921875 170.78125 493.035156 169.425781 493.148438 C 167.503906 493.148438 166.429688 492.808594 166.203125 492.132812 C 165.976562 491.683594 165.863281 481.824219 165.863281 462.554688 L 165.863281 440.75 C 165.863281 435.117188 166.144531 432.300781 166.710938 432.300781 C 166.9375 432.074219 167.164062 431.960938 167.390625 431.960938 C 167.503906 431.960938 168.691406 432.410156 170.949219 433.3125 C 173.210938 434.214844 176.320312 435.117188 180.277344 436.019531 C 184.234375 436.917969 188.472656 437.371094 192.996094 437.371094 C 201.023438 437.371094 208.710938 435.792969 216.058594 432.636719 C 216.964844 432.1875 217.699219 431.960938 218.265625 431.960938 C 219.167969 431.960938 219.621094 432.976562 219.621094 435.003906 L 219.621094 437.199219 C 210.351562 448.132812 198.761719 453.597656 184.855469 453.597656 C 181.351562 453.597656 178.1875 453.257812 175.359375 452.582031 L 173.664062 452.246094 L 173.664062 481.316406 C 175.8125 479.738281 177.507812 478.5 178.75 477.597656 C 179.996094 476.695312 182.03125 475.792969 184.855469 474.894531 C 187.683594 473.992188 190.566406 473.542969 193.503906 473.542969 C 202.664062 473.542969 210.40625 477.203125 216.738281 484.527344 C 223.070312 491.851562 226.234375 500.527344 226.234375 510.558594 C 226.234375 520.925781 222.617188 529.769531 215.382812 537.09375 C 208.144531 544.417969 199.328125 548.136719 188.925781 548.25 C 179.769531 548.25 172.421875 545.207031 166.878906 539.121094 C 161.339844 533.039062 158.570312 526.164062 158.570312 518.5 C 158.570312 515.796875 159.191406 513.65625 160.4375 512.078125 C 161.679688 510.5 162.980469 509.488281 164.335938 509.035156 C 165.695312 508.585938 166.992188 508.359375 168.238281 508.359375 C 171.0625 508.359375 173.382812 509.316406 175.191406 511.234375 C 177 513.148438 177.902344 515.402344 177.902344 517.996094 Z M 177.902344 517.996094 " fill-opacity="1" fill-rule="nonzero"/></g><path fill="#000000" d="M 133.132812 391.394531 L 251.839844 391.394531 L 251.839844 381.253906 L 133.132812 381.253906 Z M 133.132812 391.394531 " fill-opacity="1" fill-rule="nonzero"/><path fill="#000000" d="M 416.710938 423.679688 C 416.710938 425.933594 415.523438 427.058594 413.148438 427.058594 C 412.582031 427.058594 411.339844 426.15625 409.417969 424.355469 C 407.496094 422.550781 402.183594 417.3125 393.476562 408.636719 L 375.839844 391.058594 L 358.035156 408.804688 C 346.050781 420.523438 339.886719 426.496094 339.550781 426.722656 C 339.097656 426.945312 338.703125 427.058594 338.363281 427.058594 C 337.457031 427.058594 336.667969 426.722656 335.988281 426.046875 C 335.308594 425.371094 334.914062 424.582031 334.800781 423.679688 C 334.800781 422.890625 335.59375 421.652344 337.175781 419.960938 C 338.757812 418.269531 344.070312 412.917969 353.117188 403.902344 L 370.753906 386.324219 L 353.117188 368.746094 C 343.957031 359.617188 338.644531 354.265625 337.175781 352.6875 C 335.707031 351.109375 334.914062 349.871094 334.800781 348.96875 C 334.800781 347.957031 335.140625 347.167969 335.820312 346.605469 C 336.496094 346.039062 337.34375 345.757812 338.363281 345.757812 C 338.925781 345.757812 339.324219 345.816406 339.550781 345.929688 C 339.886719 346.152344 346.050781 352.125 358.035156 363.84375 L 375.839844 381.59375 L 393.476562 364.011719 C 402.183594 355.335938 407.496094 350.097656 409.417969 348.292969 C 411.339844 346.492188 412.582031 345.589844 413.148438 345.589844 C 415.523438 345.589844 416.710938 346.714844 416.710938 348.96875 C 416.710938 349.757812 416.144531 350.773438 415.011719 352.011719 C 413.882812 353.253906 408.34375 358.773438 398.394531 368.578125 L 380.757812 386.324219 L 398.394531 404.070312 C 407.890625 413.539062 413.316406 419.003906 414.675781 420.46875 C 416.03125 421.933594 416.710938 423.003906 416.710938 423.679688 Z M 416.710938 423.679688 " fill-opacity="1" fill-rule="nonzero"/><g clip-path="url(#a9d431a4a8)"><path fill="#000000" d="M 544.609375 287.785156 C 544.609375 290.488281 543.703125 292.742188 541.894531 294.542969 C 540.085938 296.347656 537.882812 297.25 535.28125 297.25 L 534.09375 297.25 C 539.292969 306.152344 546.191406 310.601562 554.78125 310.601562 C 562.695312 310.601562 568.460938 307.222656 572.082031 300.460938 C 574.230469 296.742188 575.300781 289.53125 575.300781 278.824219 C 575.300781 267.21875 573.777344 259.386719 570.722656 255.332031 C 567.785156 251.613281 564.507812 249.753906 560.886719 249.753906 L 559.871094 249.753906 C 551.050781 249.753906 544.382812 253.585938 539.859375 261.246094 C 539.40625 262.035156 539.011719 262.484375 538.671875 262.597656 C 538.332031 262.710938 537.484375 262.824219 536.128906 262.9375 C 534.207031 262.9375 533.132812 262.597656 532.90625 261.921875 C 532.679688 261.472656 532.566406 251.613281 532.566406 232.34375 L 532.566406 210.539062 C 532.566406 204.90625 532.851562 202.089844 533.414062 202.089844 C 533.640625 201.863281 533.867188 201.75 534.09375 201.75 C 534.207031 201.75 535.394531 202.199219 537.65625 203.101562 C 539.917969 204.003906 543.027344 204.90625 546.980469 205.804688 C 550.9375 206.707031 555.179688 207.160156 559.699219 207.160156 C 567.726562 207.160156 575.414062 205.582031 582.765625 202.425781 C 583.667969 201.976562 584.402344 201.75 584.96875 201.75 C 585.875 201.75 586.324219 202.765625 586.324219 204.792969 L 586.324219 206.988281 C 577.054688 217.921875 565.46875 223.386719 551.5625 223.386719 C 548.054688 223.386719 544.890625 223.046875 542.066406 222.371094 L 540.367188 222.03125 L 540.367188 251.105469 C 542.515625 249.527344 544.210938 248.289062 545.457031 247.386719 C 546.699219 246.484375 548.734375 245.582031 551.5625 244.683594 C 554.386719 243.78125 557.269531 243.328125 560.210938 243.328125 C 569.367188 243.328125 577.113281 246.992188 583.441406 254.316406 C 589.773438 261.640625 592.9375 270.316406 592.9375 280.347656 C 592.9375 290.714844 589.320312 299.558594 582.085938 306.882812 C 574.851562 314.207031 566.03125 317.925781 555.632812 318.039062 C 546.472656 318.039062 539.125 314.996094 533.585938 308.910156 C 528.046875 302.828125 525.277344 295.953125 525.277344 288.289062 C 525.277344 285.585938 525.898438 283.445312 527.140625 281.867188 C 528.386719 280.289062 529.683594 279.277344 531.042969 278.824219 C 532.398438 278.375 533.699219 278.148438 534.941406 278.148438 C 537.769531 278.148438 540.085938 279.105469 541.894531 281.023438 C 543.703125 282.9375 544.609375 285.191406 544.609375 287.785156 Z M 544.609375 287.785156 " fill-opacity="1" fill-rule="nonzero"/></g><g clip-path="url(#43d58b2fea)"><path fill="#000000" d="M 523.917969 491.625 C 523.917969 473.257812 528.496094 458.722656 537.65625 448.019531 C 546.8125 437.3125 556.988281 431.960938 568.179688 431.960938 C 575.980469 431.960938 581.578125 433.988281 584.96875 438.046875 C 588.359375 442.101562 590.054688 446.609375 590.054688 451.566406 C 590.054688 454.386719 589.265625 456.640625 587.683594 458.328125 C 586.097656 460.019531 583.894531 460.863281 581.070312 460.863281 C 578.46875 460.863281 576.320312 460.074219 574.625 458.5 C 572.929688 456.921875 572.082031 454.722656 572.082031 451.90625 C 572.082031 446.949219 574.738281 443.960938 580.050781 442.949219 C 577.5625 440.46875 574.058594 439.058594 569.535156 438.722656 C 561.511719 438.722656 554.894531 442.101562 549.695312 448.863281 C 544.382812 456.300781 541.726562 467.683594 541.726562 483.007812 L 541.894531 483.683594 C 542.460938 483.007812 542.914062 482.273438 543.25 481.484375 C 547.886719 474.722656 553.933594 471.34375 561.398438 471.34375 L 562.074219 471.34375 C 567.277344 471.34375 571.855469 472.414062 575.8125 474.554688 C 578.523438 476.132812 581.238281 478.386719 583.953125 481.316406 C 586.664062 484.246094 588.871094 487.457031 590.566406 490.949219 C 592.9375 496.472656 594.125 502.5 594.125 509.035156 L 594.125 512.078125 C 594.125 514.671875 593.84375 517.09375 593.277344 519.347656 C 592.035156 525.996094 588.417969 532.472656 582.425781 538.785156 C 576.433594 545.09375 568.859375 548.25 559.699219 548.25 C 556.535156 548.25 553.484375 547.800781 550.542969 546.898438 C 547.605469 545.996094 544.4375 544.304688 541.046875 541.828125 C 537.65625 539.347656 534.773438 536.023438 532.398438 531.855469 C 530.023438 527.683594 527.988281 522.21875 526.292969 515.460938 C 524.597656 508.699219 523.804688 500.753906 523.917969 491.625 Z M 560.378906 477.429688 C 556.988281 477.429688 554.046875 478.386719 551.5625 480.300781 C 549.074219 482.21875 547.152344 484.753906 545.796875 487.910156 C 544.4375 491.0625 543.476562 494.273438 542.914062 497.542969 C 542.347656 500.808594 542.007812 504.304688 541.894531 508.023438 C 541.894531 517.375 542.574219 524.078125 543.929688 528.136719 C 545.285156 532.191406 547.433594 535.460938 550.375 537.941406 C 553.085938 539.96875 556.082031 540.980469 559.363281 540.980469 C 565.128906 540.980469 569.535156 538.839844 572.589844 534.558594 C 574.058594 532.53125 575.078125 529.996094 575.640625 526.953125 C 576.207031 523.910156 576.488281 517.996094 576.488281 509.207031 C 576.488281 500.191406 576.207031 494.164062 575.640625 491.121094 C 575.078125 488.078125 574.058594 485.542969 572.589844 483.511719 C 569.535156 479.457031 565.46875 477.429688 560.378906 477.429688 Z M 560.378906 477.429688 " fill-opacity="1" fill-rule="nonzero"/></g><path fill="#000000" d="M 499.839844 391.394531 L 618.546875 391.394531 L 618.546875 381.253906 L 499.839844 381.253906 Z M 499.839844 391.394531 " fill-opacity="1" fill-rule="nonzero"/></svg>