<svg xmlns="http://www.w3.org/2000/svg" xmlns:xlink="http://www.w3.org/1999/xlink" width="1000" zoomAndPan="magnify" viewBox="0 0 750 749.999995" height="1000" preserveAspectRatio="xMidYMid meet" version="1.0"><defs><clipPath id="55ac51deaa"><path d="M 117 204.308594 L 192 204.308594 L 192 317 L 117 317 Z M 117 204.308594 " clip-rule="nonzero"/></clipPath><clipPath id="37a2e1298b"><path d="M 120 431 L 189 431 L 189 545.691406 L 120 545.691406 Z M 120 431 " clip-rule="nonzero"/></clipPath><clipPath id="c3de1b6694"><path d="M 561 431 L 631 431 L 631 545.691406 L 561 545.691406 Z M 561 431 " clip-rule="nonzero"/></clipPath></defs><rect x="-75" width="900" fill="#ffffff" y="-74.999999" height="899.999994" fill-opacity="1"/><rect x="-75" width="900" fill="#ffffff" y="-74.999999" height="899.999994" fill-opacity="1"/><g clip-path="url(#55ac51deaa)"><path fill="#000000" d="M 189.769531 316.445312 C 187.777344 316.117188 180.644531 315.949219 168.371094 315.949219 C 155.542969 315.949219 148.132812 316.117188 146.144531 316.445312 L 144.652344 316.445312 L 144.652344 308.828125 L 149.792969 308.828125 C 152.003906 308.828125 153.496094 308.828125 154.269531 308.828125 C 155.046875 308.828125 155.984375 308.71875 157.089844 308.496094 C 158.195312 308.277344 158.972656 308 159.414062 307.667969 C 159.855469 307.335938 160.242188 306.894531 160.574219 306.34375 C 160.683594 306.121094 160.742188 303.140625 160.742188 297.398438 L 160.742188 289.117188 L 117.78125 289.117188 L 117.78125 281.496094 L 142.828125 243.234375 C 159.746094 217.617188 168.316406 204.753906 168.535156 204.640625 C 168.757812 204.421875 169.917969 204.308594 172.019531 204.308594 L 175.003906 204.308594 L 176 205.304688 L 176 281.496094 L 191.261719 281.496094 L 191.261719 289.117188 L 176 289.117188 L 176 297.5625 C 176 302.09375 176 304.742188 176 305.515625 C 176 306.289062 176.332031 306.949219 176.996094 307.503906 C 177.878906 308.277344 181.03125 308.71875 186.449219 308.828125 L 191.261719 308.828125 L 191.261719 316.445312 Z M 161.734375 281.496094 L 161.734375 226.175781 L 125.410156 281.332031 L 143.488281 281.496094 Z M 161.734375 281.496094 " fill-opacity="1" fill-rule="nonzero"/></g><g clip-path="url(#37a2e1298b)"><path fill="#000000" d="M 134.199219 465.355469 C 131.214844 465.355469 128.894531 464.417969 127.234375 462.539062 C 125.574219 460.664062 124.691406 458.234375 124.582031 455.25 C 124.582031 449.179688 127.234375 443.765625 132.542969 439.019531 C 137.851562 434.269531 144.265625 431.898438 151.785156 431.898438 C 155.652344 431.898438 158.085938 431.953125 159.082031 432.0625 C 167.265625 433.386719 173.511719 436.3125 177.824219 440.839844 C 182.136719 445.367188 184.351562 450.28125 184.460938 455.582031 C 184.460938 461.324219 182.582031 466.902344 178.820312 472.3125 C 175.0625 477.722656 169.863281 481.644531 163.230469 484.074219 L 162.730469 484.402344 C 162.730469 484.515625 163.230469 484.679688 164.222656 484.902344 C 165.21875 485.121094 166.824219 485.617188 169.035156 486.390625 C 171.246094 487.164062 173.347656 488.324219 175.335938 489.871094 C 184.40625 495.722656 188.9375 503.453125 188.9375 513.058594 C 188.9375 521.78125 185.511719 529.402344 178.65625 535.917969 C 171.796875 542.433594 163.117188 545.691406 152.613281 545.691406 C 143.765625 545.691406 136.136719 543.316406 129.722656 538.566406 C 123.308594 533.820312 120.101562 527.800781 120.101562 520.511719 C 120.101562 517.421875 121.097656 514.9375 123.085938 513.058594 C 125.078125 511.183594 127.566406 510.1875 130.550781 510.078125 C 133.648438 510.078125 136.191406 511.070312 138.183594 513.058594 C 140.171875 515.046875 141.167969 517.53125 141.167969 520.511719 C 141.167969 521.726562 141 522.832031 140.667969 523.824219 C 140.339844 524.820312 139.949219 525.703125 139.507812 526.476562 C 139.066406 527.25 138.457031 527.910156 137.683594 528.464844 C 136.910156 529.015625 136.246094 529.457031 135.695312 529.789062 C 135.140625 530.121094 134.585938 530.339844 134.035156 530.449219 C 133.480469 530.5625 133.039062 530.726562 132.707031 530.949219 L 132.042969 531.113281 C 137.683594 536.082031 144.539062 538.566406 152.613281 538.566406 C 158.695312 538.566406 163.285156 535.640625 166.378906 529.789062 C 168.261719 526.144531 169.199219 520.566406 169.199219 513.058594 L 169.199219 509.746094 C 169.199219 499.257812 165.660156 492.242188 158.585938 488.710938 C 156.925781 488.046875 153.550781 487.660156 148.464844 487.550781 L 141.5 487.386719 L 141 487.054688 C 140.78125 486.722656 140.667969 485.839844 140.667969 484.402344 C 140.667969 482.417969 141.113281 481.421875 141.996094 481.421875 C 145.09375 481.421875 148.300781 481.144531 151.617188 480.59375 C 155.378906 480.042969 158.804688 477.722656 161.902344 473.636719 C 164.996094 469.550781 166.546875 463.367188 166.546875 455.085938 L 166.546875 453.761719 C 166.546875 447.464844 164.609375 443.105469 160.742188 440.675781 C 158.308594 439.128906 155.710938 438.355469 152.945312 438.355469 C 149.40625 438.355469 146.144531 438.964844 143.15625 440.179688 C 140.171875 441.394531 138.070312 442.664062 136.855469 443.988281 C 135.636719 445.3125 135.03125 445.976562 135.03125 445.976562 L 135.527344 445.976562 C 135.859375 446.085938 136.300781 446.195312 136.855469 446.308594 C 137.40625 446.417969 137.960938 446.695312 138.511719 447.136719 C 139.066406 447.578125 139.730469 447.964844 140.503906 448.292969 C 141.277344 448.625 141.832031 449.234375 142.164062 450.117188 C 142.496094 451 142.9375 451.828125 143.488281 452.601562 C 144.042969 453.375 144.207031 454.476562 143.988281 455.914062 C 143.988281 458.34375 143.214844 460.496094 141.664062 462.375 C 140.117188 464.25 137.628906 465.246094 134.199219 465.355469 Z M 134.199219 465.355469 " fill-opacity="1" fill-rule="nonzero"/></g><path fill="#000000" d="M 96.546875 391.976562 L 212.660156 391.976562 L 212.660156 382.039062 L 96.546875 382.039062 Z M 96.546875 391.976562 " fill-opacity="1" fill-rule="nonzero"/><path fill="#000000" d="M 373.921875 423.613281 C 373.921875 425.824219 372.761719 426.925781 370.4375 426.925781 C 369.882812 426.925781 368.667969 426.042969 366.789062 424.277344 C 364.910156 422.511719 359.710938 417.375 351.195312 408.871094 L 333.945312 391.648438 L 316.527344 409.039062 C 304.808594 420.523438 298.78125 426.375 298.449219 426.597656 C 298.007812 426.816406 297.621094 426.925781 297.289062 426.925781 C 296.402344 426.925781 295.628906 426.597656 294.964844 425.933594 C 294.300781 425.269531 293.914062 424.5 293.804688 423.613281 C 293.804688 422.839844 294.578125 421.628906 296.125 419.96875 C 297.675781 418.3125 302.871094 413.070312 311.71875 404.234375 L 328.96875 387.007812 L 311.71875 369.78125 C 302.761719 360.839844 297.5625 355.59375 296.125 354.046875 C 294.6875 352.5 293.914062 351.285156 293.804688 350.402344 C 293.804688 349.410156 294.136719 348.636719 294.800781 348.082031 C 295.460938 347.53125 296.292969 347.253906 297.289062 347.253906 C 297.839844 347.253906 298.226562 347.3125 298.449219 347.421875 C 298.78125 347.640625 304.808594 353.496094 316.527344 364.980469 L 333.945312 382.371094 L 351.195312 365.144531 C 359.710938 356.640625 364.910156 351.507812 366.789062 349.742188 C 368.667969 347.972656 369.882812 347.089844 370.4375 347.089844 C 372.761719 347.089844 373.921875 348.195312 373.921875 350.402344 C 373.921875 351.175781 373.367188 352.167969 372.261719 353.382812 C 371.15625 354.597656 365.738281 360.011719 356.007812 369.617188 L 338.753906 387.007812 L 356.007812 404.402344 C 365.296875 413.675781 370.601562 419.03125 371.929688 420.46875 C 373.257812 421.902344 373.921875 422.953125 373.921875 423.613281 Z M 373.921875 423.613281 " fill-opacity="1" fill-rule="nonzero"/><path fill="#000000" d="M 520.253906 264.601562 C 520.253906 246.601562 524.734375 232.359375 533.691406 221.867188 C 542.648438 211.378906 552.601562 206.132812 563.546875 206.132812 C 571.175781 206.132812 576.652344 208.121094 579.96875 212.09375 C 583.285156 216.070312 584.945312 220.488281 584.945312 225.347656 C 584.945312 228.105469 584.171875 230.316406 582.621094 231.972656 C 581.074219 233.628906 578.917969 234.457031 576.152344 234.457031 C 573.609375 234.457031 571.507812 233.683594 569.851562 232.136719 C 568.191406 230.589844 567.363281 228.4375 567.363281 225.675781 C 567.363281 220.820312 569.960938 217.894531 575.160156 216.898438 C 572.726562 214.46875 569.296875 213.089844 564.875 212.757812 C 557.023438 212.757812 550.554688 216.070312 545.46875 222.695312 C 540.269531 229.984375 537.671875 241.136719 537.671875 256.15625 L 537.835938 256.816406 C 538.390625 256.15625 538.832031 255.4375 539.164062 254.664062 C 543.699219 248.039062 549.613281 244.726562 556.914062 244.726562 L 557.574219 244.726562 C 562.664062 244.726562 567.140625 245.773438 571.011719 247.875 C 573.664062 249.417969 576.320312 251.628906 578.972656 254.5 C 581.628906 257.371094 583.785156 260.515625 585.441406 263.941406 C 587.765625 269.351562 588.925781 275.257812 588.925781 281.664062 L 588.925781 284.644531 C 588.925781 287.183594 588.648438 289.558594 588.097656 291.765625 C 586.878906 298.28125 583.339844 304.632812 577.480469 310.816406 C 571.621094 317 564.210938 320.089844 555.253906 320.089844 C 552.15625 320.089844 549.171875 319.648438 546.296875 318.765625 C 543.421875 317.882812 540.324219 316.226562 537.007812 313.796875 C 533.691406 311.367188 530.871094 308.109375 528.546875 304.023438 C 526.226562 299.9375 524.234375 294.582031 522.578125 287.957031 C 520.917969 281.332031 520.144531 273.546875 520.253906 264.601562 Z M 555.917969 250.6875 C 552.601562 250.6875 549.722656 251.628906 547.292969 253.503906 C 544.859375 255.382812 542.980469 257.867188 541.652344 260.957031 C 540.324219 264.050781 539.386719 267.199219 538.832031 270.398438 C 538.277344 273.601562 537.949219 277.023438 537.835938 280.667969 C 537.835938 289.835938 538.5 296.40625 539.828125 300.378906 C 541.15625 304.355469 543.253906 307.558594 546.128906 309.988281 C 548.785156 311.976562 551.714844 312.96875 554.921875 312.96875 C 560.5625 312.96875 564.875 310.871094 567.859375 306.675781 C 569.296875 304.6875 570.292969 302.203125 570.84375 299.222656 C 571.398438 296.238281 571.675781 290.441406 571.675781 281.828125 C 571.675781 272.996094 571.398438 267.085938 570.84375 264.105469 C 570.292969 261.125 569.296875 258.640625 567.859375 256.652344 C 564.875 252.675781 560.894531 250.6875 555.917969 250.6875 Z M 555.917969 250.6875 " fill-opacity="1" fill-rule="nonzero"/><path fill="#000000" d="M 507.148438 446.308594 L 504.992188 447.136719 C 503.445312 447.6875 501.234375 448.238281 498.359375 448.792969 C 495.484375 449.34375 492.277344 449.730469 488.738281 449.949219 L 485.585938 449.949219 L 485.585938 442.332031 L 488.738281 442.332031 C 493.9375 442.109375 498.746094 441.28125 503.167969 439.847656 C 507.59375 438.410156 510.6875 437.085938 512.457031 435.871094 C 514.226562 434.65625 515.777344 433.441406 517.101562 432.226562 C 517.324219 431.898438 517.988281 431.730469 519.09375 431.730469 C 520.089844 431.730469 521.027344 432.0625 521.914062 432.726562 L 521.914062 482.25 L 522.078125 531.941406 C 522.851562 532.714844 523.515625 533.210938 524.070312 533.433594 C 524.621094 533.652344 525.949219 533.875 528.050781 534.09375 C 530.152344 534.316406 533.578125 534.425781 538.335938 534.425781 L 542.648438 534.425781 L 542.648438 542.046875 L 540.824219 542.046875 C 538.5 541.714844 529.710938 541.546875 514.449219 541.546875 C 499.410156 541.546875 490.730469 541.714844 488.40625 542.046875 L 486.417969 542.046875 L 486.417969 534.425781 L 490.730469 534.425781 C 493.160156 534.425781 495.261719 534.425781 497.03125 534.425781 C 498.800781 534.425781 500.183594 534.371094 501.179688 534.261719 C 502.175781 534.148438 503.058594 533.984375 503.832031 533.765625 C 504.605469 533.542969 505.050781 533.433594 505.160156 533.433594 C 505.269531 533.433594 505.601562 533.15625 506.15625 532.605469 C 506.707031 532.050781 507.039062 531.832031 507.148438 531.941406 Z M 507.148438 446.308594 " fill-opacity="1" fill-rule="nonzero"/><g clip-path="url(#c3de1b6694)"><path fill="#000000" d="M 561.722656 490.199219 C 561.722656 472.203125 566.203125 457.957031 575.160156 447.464844 C 584.117188 436.976562 594.066406 431.730469 605.015625 431.730469 C 612.644531 431.730469 618.121094 433.71875 621.4375 437.695312 C 624.753906 441.667969 626.414062 446.085938 626.414062 450.945312 C 626.414062 453.707031 625.640625 455.914062 624.089844 457.570312 C 622.542969 459.226562 620.386719 460.054688 617.621094 460.054688 C 615.078125 460.054688 612.976562 459.28125 611.320312 457.734375 C 609.660156 456.191406 608.832031 454.035156 608.832031 451.277344 C 608.832031 446.417969 611.429688 443.492188 616.625 442.496094 C 614.195312 440.066406 610.765625 438.6875 606.34375 438.355469 C 598.492188 438.355469 592.023438 441.667969 586.933594 448.292969 C 581.738281 455.582031 579.140625 466.734375 579.140625 481.753906 L 579.304688 482.417969 C 579.859375 481.753906 580.300781 481.035156 580.632812 480.261719 C 585.167969 473.636719 591.082031 470.324219 598.378906 470.324219 L 599.042969 470.324219 C 604.132812 470.324219 608.609375 471.375 612.480469 473.472656 C 615.132812 475.015625 617.789062 477.226562 620.441406 480.097656 C 623.097656 482.96875 625.253906 486.117188 626.910156 489.539062 C 629.234375 494.949219 630.394531 500.855469 630.394531 507.261719 L 630.394531 510.242188 C 630.394531 512.78125 630.117188 515.15625 629.566406 517.367188 C 628.347656 523.878906 624.808594 530.230469 618.949219 536.414062 C 613.089844 542.597656 605.679688 545.691406 596.722656 545.691406 C 593.625 545.691406 590.640625 545.246094 587.765625 544.363281 C 584.890625 543.480469 581.792969 541.824219 578.476562 539.394531 C 575.160156 536.964844 572.339844 533.707031 570.015625 529.621094 C 567.695312 525.535156 565.703125 520.179688 564.042969 513.554688 C 562.386719 506.929688 561.613281 499.144531 561.722656 490.199219 Z M 597.386719 476.289062 C 594.066406 476.289062 591.191406 477.226562 588.761719 479.101562 C 586.328125 480.980469 584.445312 483.464844 583.121094 486.558594 C 581.792969 489.648438 580.851562 492.796875 580.300781 496 C 579.746094 499.199219 579.414062 502.625 579.304688 506.269531 C 579.304688 515.433594 579.96875 522.003906 581.296875 525.980469 C 582.621094 529.953125 584.722656 533.15625 587.597656 535.585938 C 590.253906 537.574219 593.183594 538.566406 596.390625 538.566406 C 602.03125 538.566406 606.34375 536.46875 609.328125 532.273438 C 610.765625 530.285156 611.761719 527.800781 612.3125 524.820312 C 612.867188 521.835938 613.144531 516.039062 613.144531 507.425781 C 613.144531 498.59375 612.867188 492.6875 612.3125 489.703125 C 611.761719 486.722656 610.765625 484.238281 609.328125 482.25 C 606.34375 478.273438 602.363281 476.289062 597.386719 476.289062 Z M 597.386719 476.289062 " fill-opacity="1" fill-rule="nonzero"/></g><path fill="#000000" d="M 455.230469 391.976562 L 654.28125 391.976562 L 654.28125 382.039062 L 455.230469 382.039062 Z M 455.230469 391.976562 " fill-opacity="1" fill-rule="nonzero"/></svg>