<svg xmlns="http://www.w3.org/2000/svg" xmlns:xlink="http://www.w3.org/1999/xlink" width="1000" zoomAndPan="magnify" viewBox="0 0 750 749.999995" height="1000" preserveAspectRatio="xMidYMid meet" version="1.0"><defs><clipPath id="4e5e279c5c"><path d="M 158 201.75 L 227 201.75 L 227 319 L 158 319 Z M 158 201.75 " clip-rule="nonzero"/></clipPath><clipPath id="592fb3af30"><path d="M 525 201.75 L 593 201.75 L 593 315 L 525 315 Z M 525 201.75 " clip-rule="nonzero"/></clipPath><clipPath id="c776c614f6"><path d="M 525 431 L 593 431 L 593 548.25 L 525 548.25 Z M 525 431 " clip-rule="nonzero"/></clipPath></defs><rect x="-75" width="900" fill="#ffffff" y="-74.999999" height="899.999994" fill-opacity="1"/><rect x="-75" width="900" fill="#ffffff" y="-74.999999" height="899.999994" fill-opacity="1"/><g clip-path="url(#4e5e279c5c)"><path fill="#000000" d="M 177.902344 287.785156 C 177.902344 290.488281 177 292.742188 175.191406 294.542969 C 173.382812 296.347656 171.175781 297.25 168.578125 297.25 L 167.390625 297.25 C 172.589844 306.152344 179.488281 310.601562 188.078125 310.601562 C 195.992188 310.601562 201.757812 307.222656 205.375 300.460938 C 207.523438 296.742188 208.597656 289.53125 208.597656 278.824219 C 208.597656 267.21875 207.070312 259.386719 204.019531 255.332031 C 201.078125 251.613281 197.800781 249.753906 194.183594 249.753906 L 193.167969 249.753906 C 184.347656 249.753906 177.675781 253.585938 173.15625 261.246094 C 172.703125 262.035156 172.308594 262.484375 171.96875 262.597656 C 171.628906 262.710938 170.78125 262.824219 169.425781 262.9375 C 167.503906 262.9375 166.429688 262.597656 166.203125 261.921875 C 165.976562 261.472656 165.863281 251.613281 165.863281 232.34375 L 165.863281 210.539062 C 165.863281 204.90625 166.144531 202.089844 166.710938 202.089844 C 166.9375 201.863281 167.164062 201.75 167.390625 201.75 C 167.503906 201.75 168.691406 202.199219 170.949219 203.101562 C 173.210938 204.003906 176.320312 204.90625 180.277344 205.804688 C 184.234375 206.707031 188.472656 207.160156 192.996094 207.160156 C 201.023438 207.160156 208.710938 205.582031 216.058594 202.425781 C 216.964844 201.976562 217.699219 201.75 218.265625 201.75 C 219.167969 201.75 219.621094 202.765625 219.621094 204.792969 L 219.621094 206.988281 C 210.351562 217.921875 198.761719 223.386719 184.855469 223.386719 C 181.351562 223.386719 178.1875 223.046875 175.359375 222.371094 L 173.664062 222.03125 L 173.664062 251.105469 C 175.8125 249.527344 177.507812 248.289062 178.75 247.386719 C 179.996094 246.484375 182.03125 245.582031 184.855469 244.683594 C 187.683594 243.78125 190.566406 243.328125 193.503906 243.328125 C 202.664062 243.328125 210.40625 246.992188 216.738281 254.316406 C 223.070312 261.640625 226.234375 270.316406 226.234375 280.347656 C 226.234375 290.714844 222.617188 299.558594 215.382812 306.882812 C 208.144531 314.207031 199.328125 317.925781 188.925781 318.039062 C 179.769531 318.039062 172.421875 314.996094 166.878906 308.910156 C 161.339844 302.828125 158.570312 295.953125 158.570312 288.289062 C 158.570312 285.585938 159.191406 283.445312 160.4375 281.867188 C 161.679688 280.289062 162.980469 279.277344 164.335938 278.824219 C 165.695312 278.375 166.992188 278.148438 168.238281 278.148438 C 171.0625 278.148438 173.382812 279.105469 175.191406 281.023438 C 177 282.9375 177.902344 285.191406 177.902344 287.785156 Z M 177.902344 287.785156 " fill-opacity="1" fill-rule="nonzero"/></g><path fill="#000000" d="M 228.4375 544.53125 C 226.402344 544.195312 219.113281 544.023438 206.5625 544.023438 C 193.449219 544.023438 185.875 544.195312 183.839844 544.53125 L 182.3125 544.53125 L 182.3125 536.757812 L 187.570312 536.757812 C 189.832031 536.757812 191.355469 536.757812 192.148438 536.757812 C 192.941406 536.757812 193.902344 536.644531 195.03125 536.417969 C 196.160156 536.191406 196.953125 535.910156 197.40625 535.574219 C 197.859375 535.234375 198.253906 534.785156 198.59375 534.222656 C 198.707031 533.996094 198.761719 530.953125 198.761719 525.09375 L 198.761719 516.640625 L 154.839844 516.640625 L 154.839844 508.867188 L 180.449219 469.824219 C 197.746094 443.679688 206.507812 430.550781 206.734375 430.441406 C 206.957031 430.214844 208.144531 430.101562 210.292969 430.101562 L 213.347656 430.101562 L 214.363281 431.117188 L 214.363281 508.867188 L 229.964844 508.867188 L 229.964844 516.640625 L 214.363281 516.640625 L 214.363281 525.261719 C 214.363281 529.882812 214.363281 532.585938 214.363281 533.375 C 214.363281 534.164062 214.703125 534.839844 215.382812 535.402344 C 216.285156 536.191406 219.507812 536.644531 225.046875 536.757812 L 229.964844 536.757812 L 229.964844 544.53125 Z M 199.78125 508.867188 L 199.78125 452.414062 L 162.640625 508.699219 L 181.125 508.867188 Z M 199.78125 508.867188 " fill-opacity="1" fill-rule="nonzero"/><path fill="#000000" d="M 133.132812 391.394531 L 251.839844 391.394531 L 251.839844 381.253906 L 133.132812 381.253906 Z M 133.132812 391.394531 " fill-opacity="1" fill-rule="nonzero"/><path fill="#000000" d="M 416.710938 423.679688 C 416.710938 425.933594 415.523438 427.058594 413.148438 427.058594 C 412.582031 427.058594 411.339844 426.15625 409.417969 424.355469 C 407.496094 422.550781 402.183594 417.3125 393.476562 408.636719 L 375.839844 391.058594 L 358.035156 408.804688 C 346.050781 420.523438 339.886719 426.496094 339.550781 426.722656 C 339.097656 426.945312 338.703125 427.058594 338.363281 427.058594 C 337.457031 427.058594 336.667969 426.722656 335.988281 426.046875 C 335.308594 425.371094 334.914062 424.582031 334.800781 423.679688 C 334.800781 422.890625 335.59375 421.652344 337.175781 419.960938 C 338.757812 418.269531 344.070312 412.917969 353.117188 403.902344 L 370.753906 386.324219 L 353.117188 368.746094 C 343.957031 359.617188 338.644531 354.265625 337.175781 352.6875 C 335.707031 351.109375 334.914062 349.871094 334.800781 348.96875 C 334.800781 347.957031 335.140625 347.167969 335.820312 346.605469 C 336.496094 346.039062 337.34375 345.757812 338.363281 345.757812 C 338.925781 345.757812 339.324219 345.816406 339.550781 345.929688 C 339.886719 346.152344 346.050781 352.125 358.035156 363.84375 L 375.839844 381.59375 L 393.476562 364.011719 C 402.183594 355.335938 407.496094 350.097656 409.417969 348.292969 C 411.339844 346.492188 412.582031 345.589844 413.148438 345.589844 C 415.523438 345.589844 416.710938 346.714844 416.710938 348.96875 C 416.710938 349.757812 416.144531 350.773438 415.011719 352.011719 C 413.882812 353.253906 408.34375 358.773438 398.394531 368.578125 L 380.757812 386.324219 L 398.394531 404.070312 C 407.890625 413.539062 413.316406 419.003906 414.675781 420.46875 C 416.03125 421.933594 416.710938 423.003906 416.710938 423.679688 Z M 416.710938 423.679688 " fill-opacity="1" fill-rule="nonzero"/><g clip-path="url(#592fb3af30)"><path fill="#000000" d="M 535.28125 241.808594 C 532.230469 241.808594 529.796875 240.792969 527.988281 238.765625 C 526.179688 236.738281 525.277344 234.257812 525.277344 231.328125 C 525.277344 223.328125 528.273438 216.398438 534.265625 210.539062 C 540.253906 204.679688 547.71875 201.75 556.648438 201.75 C 566.9375 201.75 575.527344 204.90625 582.425781 211.214844 C 589.320312 217.527344 592.824219 225.695312 592.9375 235.722656 C 592.9375 240.570312 591.808594 245.1875 589.546875 249.582031 C 587.285156 253.980469 584.574219 257.808594 581.40625 261.078125 C 578.242188 264.34375 573.71875 268.515625 567.839844 273.585938 C 563.769531 277.078125 558.117188 282.261719 550.882812 289.136719 L 540.878906 298.601562 L 553.765625 298.769531 C 571.515625 298.769531 580.957031 298.488281 582.085938 297.925781 C 582.878906 297.699219 584.234375 292.683594 586.15625 282.882812 L 586.15625 282.375 L 592.9375 282.375 L 592.9375 282.882812 C 592.824219 283.21875 592.089844 288.347656 590.734375 298.261719 C 589.378906 308.179688 588.53125 313.363281 588.191406 313.8125 L 588.191406 314.320312 L 525.277344 314.320312 L 525.277344 309.082031 C 525.277344 308.292969 525.613281 307.445312 526.292969 306.546875 C 526.972656 305.644531 528.667969 303.671875 531.378906 300.628906 C 534.660156 297.023438 537.484375 293.867188 539.859375 291.164062 C 540.878906 290.035156 542.800781 287.953125 545.625 284.910156 C 548.453125 281.867188 550.375 279.78125 551.390625 278.65625 C 552.410156 277.527344 554.046875 275.671875 556.308594 273.078125 C 558.570312 270.488281 560.152344 268.570312 561.058594 267.332031 C 561.960938 266.09375 563.261719 264.402344 564.957031 262.261719 C 566.652344 260.121094 567.839844 258.316406 568.519531 256.851562 C 569.199219 255.386719 570.046875 253.753906 571.0625 251.949219 C 572.082031 250.148438 572.816406 248.34375 573.269531 246.542969 C 573.71875 244.738281 574.117188 243.046875 574.453125 241.472656 C 574.792969 239.894531 574.964844 238.035156 574.964844 235.894531 C 574.964844 228.792969 573.042969 222.652344 569.199219 217.46875 C 565.355469 212.285156 559.871094 209.695312 552.75 209.695312 C 549.015625 209.695312 545.738281 210.652344 542.914062 212.566406 C 540.085938 214.484375 538.109375 216.34375 536.976562 218.144531 C 535.847656 219.949219 535.28125 221.019531 535.28125 221.355469 C 535.28125 221.46875 535.5625 221.527344 536.128906 221.527344 C 538.164062 221.527344 540.253906 222.316406 542.402344 223.890625 C 544.550781 225.46875 545.625 228.0625 545.625 231.667969 C 545.625 234.484375 544.722656 236.851562 542.914062 238.765625 C 541.101562 240.683594 538.558594 241.695312 535.28125 241.808594 Z M 535.28125 241.808594 " fill-opacity="1" fill-rule="nonzero"/></g><g clip-path="url(#c776c614f6)"><path fill="#000000" d="M 544.609375 517.996094 C 544.609375 520.699219 543.703125 522.953125 541.894531 524.753906 C 540.085938 526.558594 537.882812 527.460938 535.28125 527.460938 L 534.09375 527.460938 C 539.292969 536.363281 546.191406 540.8125 554.78125 540.8125 C 562.695312 540.8125 568.460938 537.433594 572.082031 530.671875 C 574.230469 526.953125 575.300781 519.742188 575.300781 509.035156 C 575.300781 497.429688 573.777344 489.597656 570.722656 485.542969 C 567.785156 481.824219 564.507812 479.964844 560.886719 479.964844 L 559.871094 479.964844 C 551.050781 479.964844 544.382812 483.796875 539.859375 491.457031 C 539.40625 492.246094 539.011719 492.699219 538.671875 492.808594 C 538.332031 492.921875 537.484375 493.035156 536.128906 493.148438 C 534.207031 493.148438 533.132812 492.808594 532.90625 492.132812 C 532.679688 491.683594 532.566406 481.824219 532.566406 462.554688 L 532.566406 440.75 C 532.566406 435.117188 532.851562 432.300781 533.414062 432.300781 C 533.640625 432.074219 533.867188 431.960938 534.09375 431.960938 C 534.207031 431.960938 535.394531 432.410156 537.65625 433.3125 C 539.917969 434.214844 543.027344 435.117188 546.980469 436.019531 C 550.9375 436.917969 555.179688 437.371094 559.699219 437.371094 C 567.726562 437.371094 575.414062 435.792969 582.765625 432.636719 C 583.667969 432.1875 584.402344 431.960938 584.96875 431.960938 C 585.875 431.960938 586.324219 432.976562 586.324219 435.003906 L 586.324219 437.199219 C 577.054688 448.132812 565.46875 453.597656 551.5625 453.597656 C 548.054688 453.597656 544.890625 453.257812 542.066406 452.582031 L 540.367188 452.246094 L 540.367188 481.316406 C 542.515625 479.738281 544.210938 478.5 545.457031 477.597656 C 546.699219 476.695312 548.734375 475.792969 551.5625 474.894531 C 554.386719 473.992188 557.269531 473.542969 560.210938 473.542969 C 569.367188 473.542969 577.113281 477.203125 583.441406 484.527344 C 589.773438 491.851562 592.9375 500.527344 592.9375 510.558594 C 592.9375 520.925781 589.320312 529.769531 582.085938 537.09375 C 574.851562 544.417969 566.03125 548.136719 555.632812 548.25 C 546.472656 548.25 539.125 545.207031 533.585938 539.121094 C 528.046875 533.039062 525.277344 526.164062 525.277344 518.5 C 525.277344 515.796875 525.898438 513.65625 527.140625 512.078125 C 528.386719 510.5 529.683594 509.488281 531.042969 509.035156 C 532.398438 508.585938 533.699219 508.359375 534.941406 508.359375 C 537.769531 508.359375 540.085938 509.316406 541.894531 511.234375 C 543.703125 513.148438 544.609375 515.402344 544.609375 517.996094 Z M 544.609375 517.996094 " fill-opacity="1" fill-rule="nonzero"/></g><path fill="#000000" d="M 499.839844 391.394531 L 618.546875 391.394531 L 618.546875 381.253906 L 499.839844 381.253906 Z M 499.839844 391.394531 " fill-opacity="1" fill-rule="nonzero"/></svg>