<svg xmlns="http://www.w3.org/2000/svg" xmlns:xlink="http://www.w3.org/1999/xlink" width="1000" zoomAndPan="magnify" viewBox="0 0 750 749.999995" height="1000" preserveAspectRatio="xMidYMid meet" version="1.0"><defs><clipPath id="7c4bff88f8"><path d="M 158 432 L 229 432 L 229 548.25 L 158 548.25 Z M 158 432 " clip-rule="nonzero"/></clipPath><clipPath id="2003f3682d"><path d="M 520 201.75 L 596 201.75 L 596 316 L 520 316 Z M 520 201.75 " clip-rule="nonzero"/></clipPath><clipPath id="badc16738f"><path d="M 523 432 L 594 432 L 594 548.25 L 523 548.25 Z M 523 432 " clip-rule="nonzero"/></clipPath></defs><rect x="-75" width="900" fill="#ffffff" y="-74.999999" height="899.999994" fill-opacity="1"/><rect x="-75" width="900" fill="#ffffff" y="-74.999999" height="899.999994" fill-opacity="1"/><path fill="#000000" d="M 172.71875 237.726562 C 169.683594 237.726562 167.320312 236.777344 165.632812 234.871094 C 163.949219 232.964844 163.046875 230.5 162.9375 227.472656 C 162.9375 221.308594 165.632812 215.816406 171.03125 210.996094 C 176.429688 206.175781 182.953125 203.765625 190.597656 203.765625 C 194.535156 203.765625 197.007812 203.824219 198.019531 203.9375 C 206.34375 205.28125 212.695312 208.25 217.082031 212.847656 C 221.464844 217.441406 223.714844 222.429688 223.828125 227.808594 C 223.828125 233.636719 221.917969 239.296875 218.09375 244.789062 C 214.269531 250.28125 208.984375 254.261719 202.238281 256.726562 L 201.730469 257.0625 C 201.730469 257.175781 202.238281 257.34375 203.25 257.566406 C 204.261719 257.789062 205.890625 258.296875 208.140625 259.078125 C 210.390625 259.863281 212.527344 261.042969 214.550781 262.609375 C 223.773438 268.550781 228.382812 276.394531 228.382812 286.148438 C 228.382812 295 224.894531 302.734375 217.925781 309.347656 C 210.953125 315.960938 202.125 319.265625 191.441406 319.265625 C 182.445312 319.265625 174.6875 316.859375 168.164062 312.039062 C 161.640625 307.21875 158.382812 301.109375 158.382812 293.710938 C 158.382812 290.574219 159.394531 288.054688 161.417969 286.148438 C 163.441406 284.242188 165.972656 283.234375 169.007812 283.121094 C 172.15625 283.121094 174.742188 284.128906 176.765625 286.148438 C 178.792969 288.164062 179.804688 290.6875 179.804688 293.710938 C 179.804688 294.945312 179.636719 296.066406 179.296875 297.074219 C 178.960938 298.085938 178.566406 298.980469 178.117188 299.765625 C 177.667969 300.550781 177.046875 301.222656 176.261719 301.78125 C 175.472656 302.34375 174.800781 302.792969 174.238281 303.128906 C 173.675781 303.464844 173.113281 303.6875 172.550781 303.800781 C 171.988281 303.914062 171.539062 304.082031 171.199219 304.304688 L 170.527344 304.472656 C 176.261719 309.515625 183.234375 312.039062 191.441406 312.039062 C 197.628906 312.039062 202.292969 309.066406 205.441406 303.128906 C 207.355469 299.429688 208.308594 293.769531 208.308594 286.148438 L 208.308594 282.785156 C 208.308594 272.136719 204.710938 265.019531 197.515625 261.433594 C 195.828125 260.761719 192.398438 260.367188 187.226562 260.257812 L 180.140625 260.089844 L 179.636719 259.753906 C 179.410156 259.414062 179.296875 258.519531 179.296875 257.0625 C 179.296875 255.042969 179.746094 254.035156 180.648438 254.035156 C 183.796875 254.035156 187.054688 253.753906 190.429688 253.195312 C 194.253906 252.636719 197.738281 250.28125 200.886719 246.132812 C 204.035156 241.988281 205.609375 235.710938 205.609375 227.304688 L 205.609375 225.960938 C 205.609375 219.570312 203.644531 215.144531 199.707031 212.679688 C 197.234375 211.109375 194.589844 210.324219 191.78125 210.324219 C 188.179688 210.324219 184.863281 210.941406 181.828125 212.171875 C 178.792969 213.40625 176.65625 214.695312 175.417969 216.039062 C 174.179688 217.386719 173.5625 218.058594 173.5625 218.058594 L 174.070312 218.058594 C 174.40625 218.171875 174.855469 218.28125 175.417969 218.394531 C 175.980469 218.507812 176.542969 218.785156 177.105469 219.234375 C 177.667969 219.683594 178.339844 220.074219 179.128906 220.410156 C 179.914062 220.746094 180.476562 221.363281 180.816406 222.261719 C 181.152344 223.15625 181.601562 224 182.164062 224.78125 C 182.726562 225.566406 182.894531 226.6875 182.671875 228.144531 C 182.671875 230.609375 181.882812 232.796875 180.308594 234.703125 C 178.734375 236.605469 176.203125 237.617188 172.71875 237.726562 Z M 172.71875 237.726562 " fill-opacity="1" fill-rule="nonzero"/><g clip-path="url(#7c4bff88f8)"><path fill="#000000" d="M 163.105469 474.445312 C 163.105469 474.445312 163.105469 470.128906 163.105469 461.5 C 163.105469 452.867188 166.140625 445.917969 172.214844 440.652344 C 178.285156 435.382812 185.257812 432.695312 193.128906 432.582031 C 201.113281 432.582031 208.199219 434.9375 214.382812 439.644531 C 220.566406 444.351562 223.660156 450.457031 223.660156 457.96875 C 223.660156 461.332031 223.042969 464.46875 221.804688 467.382812 C 220.566406 470.296875 219.105469 472.652344 217.417969 474.445312 C 215.730469 476.238281 213.988281 477.808594 212.191406 479.152344 C 210.390625 480.496094 208.929688 481.503906 207.804688 482.179688 C 206.679688 482.851562 206.0625 483.296875 205.949219 483.523438 L 208.308594 485.035156 C 209.882812 486.15625 211.457031 487.277344 213.03125 488.398438 C 214.605469 489.519531 215.507812 490.136719 215.730469 490.246094 C 224.164062 496.859375 228.382812 505.210938 228.382812 515.296875 C 228.382812 524.152344 225.121094 531.828125 218.597656 538.332031 C 212.078125 544.832031 203.644531 548.136719 193.296875 548.25 C 183.175781 548.25 174.855469 545.390625 168.332031 539.675781 C 161.8125 533.960938 158.550781 526.898438 158.550781 518.492188 C 158.550781 506.386719 165.804688 496.300781 180.308594 488.230469 L 177.273438 486.042969 C 174.910156 484.585938 173.394531 483.46875 172.71875 482.683594 C 166.308594 477.191406 163.105469 470.128906 163.105469 461.5 Z M 199.539062 479.65625 L 200.550781 478.984375 C 201.226562 478.535156 201.730469 478.199219 202.070312 477.976562 C 202.40625 477.75 202.96875 477.359375 203.753906 476.796875 C 204.542969 476.238281 205.21875 475.675781 205.78125 475.117188 C 206.34375 474.554688 206.960938 473.882812 207.636719 473.097656 C 208.308594 472.316406 208.929688 471.585938 209.492188 470.914062 C 210.054688 470.242188 210.613281 469.34375 211.175781 468.222656 C 211.738281 467.101562 212.246094 466.148438 212.695312 465.367188 C 213.144531 464.582031 213.425781 463.460938 213.539062 462.003906 C 213.652344 460.546875 213.765625 459.3125 213.875 458.304688 C 213.875 453.484375 212.246094 449.394531 208.984375 446.03125 C 205.722656 442.667969 201.957031 440.539062 197.683594 439.644531 C 196.894531 439.53125 195.039062 439.476562 192.117188 439.476562 C 187.507812 439.476562 183.175781 440.933594 179.128906 443.847656 C 175.082031 446.761719 173 450.402344 172.886719 454.773438 C 172.886719 457.351562 173.617188 459.707031 175.082031 461.835938 C 176.542969 463.964844 178.003906 465.589844 179.464844 466.710938 C 180.929688 467.832031 183.738281 469.625 187.898438 472.089844 C 188.6875 472.652344 189.304688 473.042969 189.753906 473.265625 Z M 193.464844 541.019531 C 199.988281 541.019531 205.609375 539.117188 210.335938 535.304688 C 215.058594 531.492188 217.417969 526.898438 217.417969 521.519531 C 217.417969 519.613281 217.136719 517.820312 216.574219 516.136719 C 216.011719 514.457031 215.339844 513.054688 214.550781 511.9375 C 213.765625 510.816406 212.527344 509.582031 210.839844 508.238281 C 209.152344 506.890625 207.859375 505.882812 206.960938 505.210938 C 206.0625 504.539062 204.429688 503.472656 202.070312 502.015625 C 199.707031 500.558594 198.1875 499.605469 197.515625 499.160156 C 195.941406 498.148438 194.253906 497.085938 192.453125 495.964844 C 190.65625 494.84375 189.191406 493.890625 188.070312 493.105469 L 186.71875 492.265625 C 186.042969 492.265625 184.414062 493.21875 181.828125 495.125 C 179.242188 497.027344 176.542969 500.109375 173.730469 504.371094 C 170.917969 508.628906 169.457031 513.222656 169.34375 518.15625 C 169.34375 524.769531 171.761719 530.203125 176.597656 534.464844 C 181.433594 538.722656 187.054688 540.910156 193.464844 541.019531 Z M 193.464844 541.019531 " fill-opacity="1" fill-rule="nonzero"/></g><path fill="#000000" d="M 134.429688 392.234375 L 252.503906 392.234375 L 252.503906 382.144531 L 134.429688 382.144531 Z M 134.429688 392.234375 " fill-opacity="1" fill-rule="nonzero"/><path fill="#000000" d="M 416.492188 424.34375 C 416.492188 426.585938 415.308594 427.707031 412.949219 427.707031 C 412.386719 427.707031 411.148438 426.808594 409.238281 425.015625 C 407.328125 423.222656 402.042969 418.011719 393.382812 409.382812 L 375.839844 391.894531 L 358.128906 409.550781 C 346.210938 421.207031 340.082031 427.144531 339.742188 427.371094 C 339.292969 427.59375 338.898438 427.707031 338.5625 427.707031 C 337.664062 427.707031 336.875 427.371094 336.199219 426.699219 C 335.527344 426.023438 335.132812 425.242188 335.019531 424.34375 C 335.019531 423.558594 335.808594 422.328125 337.382812 420.644531 C 338.957031 418.964844 344.242188 413.640625 353.238281 404.671875 L 370.78125 387.1875 L 353.238281 369.703125 C 344.128906 360.625 338.84375 355.300781 337.382812 353.734375 C 335.917969 352.164062 335.132812 350.929688 335.019531 350.035156 C 335.019531 349.023438 335.359375 348.242188 336.03125 347.679688 C 336.707031 347.121094 337.550781 346.839844 338.5625 346.839844 C 339.125 346.839844 339.519531 346.894531 339.742188 347.007812 C 340.082031 347.230469 346.210938 353.171875 358.128906 364.828125 L 375.839844 382.480469 L 393.382812 364.996094 C 402.042969 356.367188 407.328125 351.15625 409.238281 349.363281 C 411.148438 347.566406 412.386719 346.671875 412.949219 346.671875 C 415.308594 346.671875 416.492188 347.792969 416.492188 350.035156 C 416.492188 350.820312 415.929688 351.828125 414.804688 353.058594 C 413.679688 354.292969 408.167969 359.785156 398.273438 369.535156 L 380.730469 387.1875 L 398.273438 404.839844 C 407.71875 414.257812 413.117188 419.691406 414.46875 421.148438 C 415.816406 422.605469 416.492188 423.671875 416.492188 424.34375 Z M 416.492188 424.34375 " fill-opacity="1" fill-rule="nonzero"/><g clip-path="url(#2003f3682d)"><path fill="#000000" d="M 593.972656 315.570312 C 591.949219 315.234375 584.695312 315.0625 572.214844 315.0625 C 559.167969 315.0625 551.636719 315.234375 549.609375 315.570312 L 548.09375 315.570312 L 548.09375 307.835938 L 553.320312 307.835938 C 555.570312 307.835938 557.089844 307.835938 557.875 307.835938 C 558.664062 307.835938 559.621094 307.722656 560.742188 307.5 C 561.867188 307.273438 562.65625 306.996094 563.105469 306.660156 C 563.554688 306.320312 563.949219 305.875 564.285156 305.3125 C 564.398438 305.089844 564.453125 302.0625 564.453125 296.234375 L 564.453125 287.828125 L 520.765625 287.828125 L 520.765625 280.09375 L 546.238281 241.257812 C 563.441406 215.253906 572.15625 202.199219 572.382812 202.085938 C 572.609375 201.863281 573.789062 201.75 575.925781 201.75 L 578.960938 201.75 L 579.972656 202.757812 L 579.972656 280.09375 L 595.492188 280.09375 L 595.492188 287.828125 L 579.972656 287.828125 L 579.972656 296.402344 C 579.972656 301 579.972656 303.6875 579.972656 304.472656 C 579.972656 305.257812 580.308594 305.929688 580.984375 306.488281 C 581.882812 307.273438 585.089844 307.722656 590.601562 307.835938 L 595.492188 307.835938 L 595.492188 315.570312 Z M 565.46875 280.09375 L 565.46875 223.941406 L 528.527344 279.925781 L 546.914062 280.09375 Z M 565.46875 280.09375 " fill-opacity="1" fill-rule="nonzero"/></g><g clip-path="url(#badc16738f)"><path fill="#000000" d="M 537.464844 466.710938 C 534.429688 466.710938 532.070312 465.757812 530.382812 463.851562 C 528.695312 461.945312 527.796875 459.480469 527.683594 456.457031 C 527.683594 450.289062 530.382812 444.796875 535.78125 439.980469 C 541.175781 435.160156 547.699219 432.75 555.347656 432.75 C 559.28125 432.75 561.757812 432.804688 562.769531 432.917969 C 571.089844 434.261719 577.441406 437.234375 581.828125 441.828125 C 586.214844 446.425781 588.464844 451.410156 588.574219 456.792969 C 588.574219 462.621094 586.664062 468.28125 582.839844 473.773438 C 579.015625 479.265625 573.730469 483.242188 566.984375 485.707031 L 566.480469 486.042969 C 566.480469 486.15625 566.984375 486.324219 567.996094 486.550781 C 569.007812 486.773438 570.640625 487.277344 572.886719 488.0625 C 575.136719 488.847656 577.273438 490.023438 579.296875 491.59375 C 588.519531 497.53125 593.128906 505.378906 593.128906 515.128906 C 593.128906 523.984375 589.644531 531.71875 582.671875 538.332031 C 575.699219 544.945312 566.871094 548.25 556.191406 548.25 C 547.195312 548.25 539.433594 545.839844 532.914062 541.019531 C 526.390625 536.203125 523.128906 530.09375 523.128906 522.695312 C 523.128906 519.558594 524.140625 517.035156 526.164062 515.128906 C 528.1875 513.222656 530.71875 512.214844 533.753906 512.105469 C 536.902344 512.105469 539.492188 513.113281 541.515625 515.128906 C 543.539062 517.148438 544.550781 519.667969 544.550781 522.695312 C 544.550781 523.929688 544.382812 525.050781 544.042969 526.058594 C 543.707031 527.066406 543.3125 527.964844 542.863281 528.746094 C 542.414062 529.53125 541.796875 530.203125 541.007812 530.765625 C 540.222656 531.324219 539.546875 531.773438 538.984375 532.109375 C 538.421875 532.445312 537.859375 532.671875 537.296875 532.78125 C 536.734375 532.894531 536.285156 533.0625 535.949219 533.289062 L 535.273438 533.457031 C 541.007812 538.5 547.980469 541.019531 556.191406 541.019531 C 562.375 541.019531 567.042969 538.050781 570.191406 532.109375 C 572.101562 528.410156 573.058594 522.75 573.058594 515.128906 L 573.058594 511.765625 C 573.058594 501.121094 569.457031 494.003906 562.261719 490.414062 C 560.574219 489.742188 557.144531 489.351562 551.972656 489.238281 L 544.886719 489.070312 L 544.382812 488.734375 C 544.15625 488.398438 544.042969 487.5 544.042969 486.042969 C 544.042969 484.027344 544.496094 483.019531 545.394531 483.019531 C 548.542969 483.019531 551.804688 482.738281 555.175781 482.179688 C 559 481.617188 562.488281 479.265625 565.636719 475.117188 C 568.785156 470.96875 570.359375 464.691406 570.359375 456.289062 L 570.359375 454.941406 C 570.359375 448.554688 568.390625 444.125 564.453125 441.660156 C 561.980469 440.089844 559.339844 439.308594 556.527344 439.308594 C 552.929688 439.308594 549.609375 439.921875 546.574219 441.15625 C 543.539062 442.390625 541.402344 443.679688 540.164062 445.023438 C 538.929688 446.367188 538.308594 447.039062 538.308594 447.039062 L 538.816406 447.039062 C 539.152344 447.152344 539.601562 447.265625 540.164062 447.375 C 540.726562 447.488281 541.289062 447.769531 541.851562 448.21875 C 542.414062 448.664062 543.089844 449.058594 543.875 449.394531 C 544.664062 449.730469 545.226562 450.347656 545.5625 451.242188 C 545.898438 452.140625 546.351562 452.980469 546.914062 453.765625 C 547.472656 454.550781 547.644531 455.671875 547.417969 457.128906 C 547.417969 459.59375 546.632812 461.777344 545.058594 463.683594 C 543.484375 465.589844 540.953125 466.597656 537.464844 466.710938 Z M 537.464844 466.710938 " fill-opacity="1" fill-rule="nonzero"/></g><path fill="#000000" d="M 499.175781 392.234375 L 617.25 392.234375 L 617.25 382.144531 L 499.175781 382.144531 Z M 499.175781 392.234375 " fill-opacity="1" fill-rule="nonzero"/></svg>