<svg xmlns="http://www.w3.org/2000/svg" xmlns:xlink="http://www.w3.org/1999/xlink" width="1000" zoomAndPan="magnify" viewBox="0 0 750 749.999995" height="1000" preserveAspectRatio="xMidYMid meet" version="1.0"><defs><clipPath id="bd6f1988ab"><path d="M 118 204.308594 L 188 204.308594 L 188 319 L 118 319 Z M 118 204.308594 " clip-rule="nonzero"/></clipPath><clipPath id="0c5e12fc3a"><path d="M 522 204.308594 L 589 204.308594 L 589 319 L 522 319 Z M 522 204.308594 " clip-rule="nonzero"/></clipPath><clipPath id="0a6b9fed23"><path d="M 564 431 L 631 431 L 631 545.691406 L 564 545.691406 Z M 564 431 " clip-rule="nonzero"/></clipPath></defs><rect x="-75" width="900" fill="#ffffff" y="-74.999999" height="899.999994" fill-opacity="1"/><rect x="-75" width="900" fill="#ffffff" y="-74.999999" height="899.999994" fill-opacity="1"/><g clip-path="url(#bd6f1988ab)"><path fill="#000000" d="M 170.429688 267.425781 C 165.09375 275.859375 158.421875 280.078125 150.417969 280.078125 C 141.746094 280.078125 134.628906 276.804688 129.070312 270.253906 C 123.511719 263.703125 120.175781 256.710938 119.066406 249.273438 C 118.84375 247.496094 118.730469 245.277344 118.730469 242.613281 L 118.730469 241.277344 C 118.730469 230.953125 122.566406 221.960938 130.238281 214.300781 C 136.910156 207.640625 144.246094 204.308594 152.25 204.308594 C 152.472656 204.308594 152.808594 204.308594 153.25 204.308594 C 153.695312 204.308594 154.140625 204.367188 154.585938 204.476562 L 155.253906 204.476562 C 156.585938 204.476562 157.976562 204.589844 159.421875 204.808594 C 160.867188 205.03125 162.925781 205.699219 165.59375 206.808594 C 168.261719 207.917969 170.871094 209.695312 173.429688 212.136719 C 175.988281 214.578125 178.378906 217.855469 180.601562 221.960938 C 185.382812 231.730469 187.773438 244.277344 187.773438 259.597656 C 187.773438 275.140625 184.4375 288.296875 177.765625 299.0625 C 173.875 305.28125 169.207031 310.109375 163.757812 313.550781 C 158.308594 316.992188 152.527344 318.769531 146.414062 318.878906 C 139.632812 318.878906 134.074219 317.269531 129.738281 314.050781 C 125.402344 310.832031 123.179688 306.058594 123.066406 299.730469 C 122.957031 293.402344 125.902344 290.292969 131.90625 290.40625 C 134.351562 290.40625 136.410156 291.183594 138.074219 292.734375 C 139.742188 294.289062 140.578125 296.453125 140.578125 299.230469 C 140.578125 301.230469 140.078125 302.949219 139.078125 304.394531 C 138.074219 305.835938 137.1875 306.722656 136.410156 307.058594 C 135.628906 307.390625 134.90625 307.667969 134.242188 307.890625 L 133.574219 308.054688 C 133.574219 308.277344 133.960938 308.613281 134.742188 309.054688 C 135.519531 309.5 136.964844 310.054688 139.078125 310.722656 C 141.1875 311.386719 143.523438 311.664062 146.082031 311.554688 L 147.082031 311.554688 C 153.75 311.554688 159.367188 308 163.925781 300.894531 C 168.261719 294.679688 170.429688 283.910156 170.429688 268.589844 Z M 152.417969 273.917969 C 157.753906 273.917969 162.035156 271.199219 165.257812 265.757812 C 168.484375 260.320312 170.148438 252.9375 170.261719 243.609375 C 170.261719 234.953125 169.816406 228.734375 168.925781 224.960938 C 168.703125 223.847656 168.371094 222.738281 167.925781 221.628906 C 167.480469 220.519531 166.703125 219.074219 165.59375 217.300781 C 164.480469 215.523438 162.8125 214.023438 160.589844 212.804688 C 158.367188 211.582031 155.753906 211.027344 152.75 211.136719 C 148.527344 211.136719 144.914062 212.636719 141.910156 215.632812 C 139.578125 218.078125 138.074219 220.964844 137.410156 224.292969 C 136.742188 227.625 136.351562 233.453125 136.242188 241.777344 C 136.242188 250.992188 136.519531 257.210938 137.074219 260.429688 C 137.632812 263.648438 138.742188 266.257812 140.410156 268.257812 C 143.191406 272.03125 147.191406 273.917969 152.417969 273.917969 Z M 152.417969 273.917969 " fill-opacity="1" fill-rule="nonzero"/></g><path fill="#000000" d="M 129.90625 470.585938 C 126.902344 470.585938 124.511719 469.585938 122.734375 467.589844 C 120.957031 465.589844 120.066406 463.148438 120.066406 460.261719 C 120.066406 452.378906 123.011719 445.550781 128.902344 439.777344 C 134.796875 434.007812 142.132812 431.121094 150.917969 431.121094 C 161.035156 431.121094 169.484375 434.226562 176.265625 440.445312 C 183.046875 446.660156 186.492188 454.710938 186.605469 464.589844 C 186.605469 469.363281 185.492188 473.917969 183.269531 478.246094 C 181.046875 482.574219 178.378906 486.351562 175.265625 489.570312 C 172.152344 492.789062 167.703125 496.898438 161.921875 501.894531 C 157.921875 505.335938 152.363281 510.441406 145.246094 517.214844 L 135.40625 526.539062 L 148.082031 526.707031 C 165.535156 526.707031 174.820312 526.429688 175.929688 525.871094 C 176.710938 525.652344 178.042969 520.710938 179.933594 511.050781 L 179.933594 510.550781 L 186.605469 510.550781 L 186.605469 511.050781 C 186.492188 511.386719 185.769531 516.4375 184.4375 526.207031 C 183.101562 535.976562 182.269531 541.082031 181.933594 541.527344 L 181.933594 542.027344 L 120.066406 542.027344 L 120.066406 536.863281 C 120.066406 536.085938 120.398438 535.253906 121.066406 534.367188 C 121.734375 533.476562 123.402344 531.535156 126.070312 528.539062 C 129.292969 524.984375 132.074219 521.875 134.40625 519.210938 C 135.40625 518.101562 137.296875 516.046875 140.078125 513.050781 C 142.855469 510.054688 144.746094 508 145.746094 506.890625 C 146.746094 505.777344 148.359375 503.945312 150.582031 501.394531 C 152.808594 498.839844 154.363281 496.953125 155.253906 495.730469 C 156.140625 494.511719 157.421875 492.84375 159.089844 490.734375 C 160.757812 488.625 161.921875 486.851562 162.589844 485.40625 C 163.257812 483.964844 164.089844 482.355469 165.09375 480.578125 C 166.09375 478.800781 166.816406 477.023438 167.257812 475.25 C 167.703125 473.472656 168.09375 471.808594 168.425781 470.253906 C 168.761719 468.699219 168.925781 466.867188 168.925781 464.757812 C 168.925781 457.761719 167.039062 451.714844 163.257812 446.605469 C 159.476562 441.5 154.085938 438.945312 147.082031 438.945312 C 143.414062 438.945312 140.1875 439.890625 137.410156 441.777344 C 134.628906 443.664062 132.683594 445.496094 131.574219 447.273438 C 130.460938 449.046875 129.90625 450.101562 129.90625 450.4375 C 129.90625 450.546875 130.183594 450.601562 130.738281 450.601562 C 132.738281 450.601562 134.796875 451.378906 136.910156 452.933594 C 139.019531 454.488281 140.078125 457.042969 140.078125 460.59375 C 140.078125 463.371094 139.1875 465.703125 137.410156 467.589844 C 135.628906 469.476562 133.128906 470.476562 129.90625 470.585938 Z M 129.90625 470.585938 " fill-opacity="1" fill-rule="nonzero"/><path fill="#000000" d="M 95.050781 391.152344 L 211.785156 391.152344 L 211.785156 381.160156 L 95.050781 381.160156 Z M 95.050781 391.152344 " fill-opacity="1" fill-rule="nonzero"/><path fill="#000000" d="M 373.914062 422.960938 C 373.914062 425.179688 372.746094 426.289062 370.410156 426.289062 C 369.855469 426.289062 368.632812 425.402344 366.742188 423.625 C 364.851562 421.847656 359.625 416.6875 351.066406 408.140625 L 333.722656 390.820312 L 316.210938 408.304688 C 304.429688 419.851562 298.367188 425.734375 298.035156 425.957031 C 297.589844 426.179688 297.203125 426.289062 296.867188 426.289062 C 295.980469 426.289062 295.199219 425.957031 294.535156 425.289062 C 293.867188 424.625 293.476562 423.847656 293.367188 422.960938 C 293.367188 422.183594 294.144531 420.960938 295.699219 419.296875 C 297.257812 417.628906 302.484375 412.359375 311.375 403.476562 L 328.71875 386.15625 L 311.375 368.839844 C 302.371094 359.847656 297.144531 354.574219 295.699219 353.019531 C 294.253906 351.464844 293.476562 350.242188 293.367188 349.355469 C 293.367188 348.355469 293.699219 347.578125 294.367188 347.023438 C 295.035156 346.46875 295.867188 346.191406 296.867188 346.191406 C 297.425781 346.191406 297.8125 346.246094 298.035156 346.359375 C 298.367188 346.578125 304.429688 352.464844 316.210938 364.007812 L 333.722656 381.496094 L 351.066406 364.175781 C 359.625 355.628906 364.851562 350.464844 366.742188 348.6875 C 368.632812 346.914062 369.855469 346.023438 370.410156 346.023438 C 372.746094 346.023438 373.914062 347.132812 373.914062 349.355469 C 373.914062 350.132812 373.355469 351.132812 372.246094 352.351562 C 371.132812 353.574219 365.6875 359.011719 355.902344 368.671875 L 338.558594 386.15625 L 355.902344 403.640625 C 365.242188 412.96875 370.578125 418.351562 371.910156 419.796875 C 373.246094 421.238281 373.914062 422.292969 373.914062 422.960938 Z M 373.914062 422.960938 " fill-opacity="1" fill-rule="nonzero"/><g clip-path="url(#0c5e12fc3a)"><path fill="#000000" d="M 541.375 289.074219 C 541.375 291.738281 540.488281 293.957031 538.707031 295.734375 C 536.929688 297.507812 534.761719 298.398438 532.203125 298.398438 L 531.039062 298.398438 C 536.152344 307.167969 542.933594 311.554688 551.382812 311.554688 C 559.164062 311.554688 564.835938 308.222656 568.390625 301.5625 C 570.503906 297.898438 571.5625 290.792969 571.5625 280.246094 C 571.5625 268.8125 570.058594 261.097656 567.058594 257.097656 C 564.167969 253.4375 560.945312 251.605469 557.386719 251.605469 L 556.386719 251.605469 C 547.714844 251.605469 541.15625 255.378906 536.707031 262.925781 C 536.261719 263.703125 535.875 264.148438 535.539062 264.261719 C 535.207031 264.371094 534.371094 264.480469 533.039062 264.59375 C 531.148438 264.59375 530.09375 264.261719 529.871094 263.59375 C 529.648438 263.148438 529.535156 253.4375 529.535156 234.453125 L 529.535156 212.96875 C 529.535156 207.417969 529.8125 204.644531 530.371094 204.644531 C 530.59375 204.421875 530.816406 204.308594 531.039062 204.308594 C 531.148438 204.308594 532.316406 204.753906 534.539062 205.640625 C 536.761719 206.53125 539.820312 207.417969 543.710938 208.308594 C 547.601562 209.195312 551.773438 209.640625 556.21875 209.640625 C 564.113281 209.640625 571.671875 208.085938 578.898438 204.976562 C 579.789062 204.53125 580.511719 204.308594 581.066406 204.308594 C 581.957031 204.308594 582.402344 205.308594 582.402344 207.308594 L 582.402344 209.472656 C 573.285156 220.242188 561.886719 225.625 548.214844 225.625 C 544.765625 225.625 541.65625 225.292969 538.875 224.625 L 537.207031 224.292969 L 537.207031 252.9375 C 539.320312 251.382812 540.988281 250.160156 542.210938 249.273438 C 543.433594 248.382812 545.433594 247.496094 548.214844 246.609375 C 550.992188 245.71875 553.828125 245.277344 556.71875 245.277344 C 565.722656 245.277344 573.339844 248.882812 579.566406 256.101562 C 585.792969 263.316406 588.902344 271.863281 588.902344 281.746094 C 588.902344 291.957031 585.347656 300.671875 578.230469 307.890625 C 571.117188 315.105469 562.445312 318.769531 552.214844 318.878906 C 543.210938 318.878906 535.984375 315.882812 530.535156 309.886719 C 525.089844 303.894531 522.367188 297.121094 522.367188 289.570312 C 522.367188 286.90625 522.976562 284.796875 524.199219 283.242188 C 525.421875 281.691406 526.703125 280.691406 528.035156 280.246094 C 529.371094 279.800781 530.648438 279.582031 531.871094 279.582031 C 534.652344 279.582031 536.929688 280.523438 538.707031 282.410156 C 540.488281 284.296875 541.375 286.519531 541.375 289.074219 Z M 541.375 289.074219 " fill-opacity="1" fill-rule="nonzero"/></g><path fill="#000000" d="M 549.382812 542.027344 C 547.378906 541.691406 540.210938 541.527344 527.867188 541.527344 C 514.972656 541.527344 507.523438 541.691406 505.523438 542.027344 L 504.023438 542.027344 L 504.023438 534.367188 L 509.191406 534.367188 C 511.414062 534.367188 512.914062 534.367188 513.695312 534.367188 C 514.472656 534.367188 515.417969 534.253906 516.527344 534.03125 C 517.640625 533.8125 518.417969 533.53125 518.863281 533.199219 C 519.308594 532.867188 519.699219 532.421875 520.03125 531.867188 C 520.140625 531.644531 520.199219 528.648438 520.199219 522.875 L 520.199219 514.550781 L 477.007812 514.550781 L 477.007812 506.890625 L 502.1875 468.421875 C 519.195312 442.664062 527.8125 429.730469 528.035156 429.621094 C 528.257812 429.398438 529.425781 429.289062 531.539062 429.289062 L 534.539062 429.289062 L 535.539062 430.285156 L 535.539062 506.890625 L 550.882812 506.890625 L 550.882812 514.550781 L 535.539062 514.550781 L 535.539062 523.042969 C 535.539062 527.59375 535.539062 530.257812 535.539062 531.035156 C 535.539062 531.8125 535.875 532.480469 536.539062 533.035156 C 537.429688 533.8125 540.597656 534.253906 546.046875 534.367188 L 550.882812 534.367188 L 550.882812 542.027344 Z M 521.199219 506.890625 L 521.199219 451.269531 L 484.675781 506.722656 L 502.855469 506.890625 Z M 521.199219 506.890625 " fill-opacity="1" fill-rule="nonzero"/><g clip-path="url(#0a6b9fed23)"><path fill="#000000" d="M 583.066406 515.882812 C 583.066406 518.546875 582.179688 520.765625 580.398438 522.542969 C 578.621094 524.320312 576.453125 525.207031 573.894531 525.207031 L 572.726562 525.207031 C 577.84375 533.976562 584.625 538.363281 593.074219 538.363281 C 600.855469 538.363281 606.527344 535.03125 610.082031 528.371094 C 612.195312 524.707031 613.25 517.601562 613.25 507.054688 C 613.25 495.621094 611.75 487.90625 608.75 483.910156 C 605.859375 480.246094 602.632812 478.414062 599.078125 478.414062 L 598.078125 478.414062 C 589.40625 478.414062 582.84375 482.1875 578.398438 489.738281 C 577.953125 490.515625 577.5625 490.957031 577.230469 491.070312 C 576.898438 491.179688 576.0625 491.289062 574.730469 491.402344 C 572.839844 491.402344 571.785156 491.070312 571.5625 490.402344 C 571.339844 489.957031 571.226562 480.246094 571.226562 461.261719 L 571.226562 439.777344 C 571.226562 434.226562 571.503906 431.453125 572.0625 431.453125 C 572.285156 431.230469 572.503906 431.121094 572.726562 431.121094 C 572.839844 431.121094 574.007812 431.5625 576.230469 432.453125 C 578.453125 433.339844 581.511719 434.226562 585.402344 435.117188 C 589.292969 436.003906 593.460938 436.449219 597.910156 436.449219 C 605.804688 436.449219 613.363281 434.894531 620.589844 431.785156 C 621.480469 431.339844 622.203125 431.121094 622.757812 431.121094 C 623.648438 431.121094 624.089844 432.117188 624.089844 434.117188 L 624.089844 436.28125 C 614.976562 447.050781 603.578125 452.433594 589.90625 452.433594 C 586.457031 452.433594 583.34375 452.101562 580.566406 451.4375 L 578.898438 451.101562 L 578.898438 479.746094 C 581.011719 478.191406 582.679688 476.96875 583.902344 476.082031 C 585.125 475.195312 587.125 474.304688 589.90625 473.417969 C 592.683594 472.527344 595.519531 472.085938 598.410156 472.085938 C 607.414062 472.085938 615.03125 475.691406 621.257812 482.910156 C 627.480469 490.125 630.59375 498.671875 630.59375 508.554688 C 630.59375 518.769531 627.039062 527.484375 619.921875 534.699219 C 612.808594 541.914062 604.136719 545.578125 593.90625 545.691406 C 584.902344 545.691406 577.675781 542.691406 572.226562 536.695312 C 566.78125 530.703125 564.054688 523.929688 564.054688 516.382812 C 564.054688 513.714844 564.667969 511.605469 565.890625 510.054688 C 567.113281 508.5 568.390625 507.5 569.726562 507.054688 C 571.0625 506.613281 572.339844 506.390625 573.5625 506.390625 C 576.339844 506.390625 578.621094 507.332031 580.398438 509.21875 C 582.179688 511.109375 583.066406 513.328125 583.066406 515.882812 Z M 583.066406 515.882812 " fill-opacity="1" fill-rule="nonzero"/></g><path fill="#000000" d="M 455.660156 391.152344 L 655.777344 391.152344 L 655.777344 381.160156 L 455.660156 381.160156 Z M 455.660156 391.152344 " fill-opacity="1" fill-rule="nonzero"/></svg>