<svg xmlns="http://www.w3.org/2000/svg" xmlns:xlink="http://www.w3.org/1999/xlink" width="1000" zoomAndPan="magnify" viewBox="0 0 750 749.999995" height="1000" preserveAspectRatio="xMidYMid meet" version="1.0"><defs><clipPath id="60bd36bbb1"><path d="M 163 204.308594 L 235 204.308594 L 235 320 L 163 320 Z M 163 204.308594 " clip-rule="nonzero"/></clipPath><clipPath id="361ab646a3"><path d="M 561 431 L 631 431 L 631 545.691406 L 561 545.691406 Z M 561 431 " clip-rule="nonzero"/></clipPath></defs><rect x="-75" width="900" fill="#ffffff" y="-74.999999" height="899.999994" fill-opacity="1"/><rect x="-75" width="900" fill="#ffffff" y="-74.999999" height="899.999994" fill-opacity="1"/><g clip-path="url(#60bd36bbb1)"><path fill="#000000" d="M 163.625 240.4375 C 163.734375 240.214844 164.675781 234.195312 166.445312 222.375 L 169.101562 204.640625 C 169.101562 204.421875 170.207031 204.308594 172.417969 204.308594 L 175.738281 204.308594 L 175.738281 204.972656 C 175.738281 206.078125 176.566406 207.015625 178.226562 207.789062 C 179.886719 208.5625 182.761719 209.0625 186.855469 209.28125 C 190.949219 209.503906 200.300781 209.613281 214.902344 209.613281 L 234.984375 209.613281 L 234.984375 216.078125 L 223.699219 231.488281 C 222.703125 232.8125 221.042969 235.023438 218.71875 238.117188 C 216.398438 241.210938 214.902344 243.253906 214.238281 244.25 C 213.574219 245.242188 212.414062 247.011719 210.753906 249.550781 C 209.09375 252.09375 207.988281 254.082031 207.433594 255.515625 C 206.882812 256.953125 206.109375 258.996094 205.113281 261.648438 C 204.117188 264.300781 203.398438 266.839844 202.953125 269.273438 C 202.511719 271.703125 202.070312 274.683594 201.625 278.21875 C 201.183594 281.757812 200.851562 285.511719 200.632812 289.488281 C 200.410156 293.464844 200.242188 297.996094 200.132812 303.078125 C 200.132812 304.625 200.132812 306.171875 200.132812 307.71875 C 200.132812 309.265625 200.078125 310.589844 199.96875 311.695312 L 199.96875 313.1875 C 199.523438 315.066406 198.472656 316.667969 196.8125 317.992188 C 195.15625 319.320312 193.273438 319.980469 191.171875 319.980469 C 189.953125 319.980469 188.792969 319.816406 187.6875 319.484375 C 186.582031 319.152344 185.417969 318.101562 184.203125 316.335938 C 182.984375 314.566406 182.375 312.359375 182.375 309.707031 C 182.375 292.25 187.742188 274.132812 198.472656 255.351562 C 200.6875 251.816406 205.332031 245.132812 212.414062 235.300781 L 220.046875 224.859375 L 204.613281 224.859375 C 185.363281 224.859375 175.242188 225.191406 174.246094 225.855469 C 173.582031 226.183594 172.972656 227.511719 172.417969 229.832031 C 171.867188 232.152344 171.3125 234.527344 170.757812 236.957031 L 170.261719 240.4375 L 170.261719 240.933594 L 163.625 240.933594 Z M 163.625 240.4375 " fill-opacity="1" fill-rule="nonzero"/></g><path fill="#000000" d="M 148.355469 446.257812 L 146.199219 447.085938 C 144.648438 447.640625 142.4375 448.191406 139.558594 448.746094 C 136.683594 449.296875 133.476562 449.683594 129.933594 449.90625 L 126.78125 449.90625 L 126.78125 442.28125 L 129.933594 442.28125 C 135.132812 442.0625 139.949219 441.230469 144.371094 439.796875 C 148.796875 438.359375 151.894531 437.035156 153.667969 435.820312 C 155.4375 434.601562 156.984375 433.386719 158.3125 432.171875 C 158.535156 431.839844 159.199219 431.675781 160.304688 431.675781 C 161.300781 431.675781 162.242188 432.007812 163.125 432.667969 L 163.125 482.21875 L 163.292969 531.933594 C 164.066406 532.707031 164.730469 533.207031 165.28125 533.425781 C 165.835938 533.648438 167.164062 533.867188 169.265625 534.089844 C 171.367188 534.308594 174.796875 534.421875 179.554688 534.421875 L 183.871094 534.421875 L 183.871094 542.042969 L 182.042969 542.042969 C 179.722656 541.710938 170.925781 541.546875 155.65625 541.546875 C 140.609375 541.546875 131.925781 541.710938 129.601562 542.042969 L 127.613281 542.042969 L 127.613281 534.421875 L 131.925781 534.421875 C 134.359375 534.421875 136.460938 534.421875 138.234375 534.421875 C 140.003906 534.421875 141.386719 534.367188 142.382812 534.253906 C 143.378906 534.144531 144.261719 533.980469 145.035156 533.757812 C 145.8125 533.535156 146.253906 533.425781 146.363281 533.425781 C 146.476562 533.425781 146.808594 533.148438 147.359375 532.597656 C 147.914062 532.046875 148.246094 531.824219 148.355469 531.933594 Z M 148.355469 446.257812 " fill-opacity="1" fill-rule="nonzero"/><path fill="#000000" d="M 272.65625 542.042969 C 270.664062 541.710938 263.527344 541.546875 251.246094 541.546875 C 238.414062 541.546875 231 541.710938 229.007812 542.042969 L 227.515625 542.042969 L 227.515625 534.421875 L 232.660156 534.421875 C 234.871094 534.421875 236.367188 534.421875 237.140625 534.421875 C 237.914062 534.421875 238.855469 534.308594 239.960938 534.089844 C 241.070312 533.867188 241.84375 533.59375 242.285156 533.261719 C 242.726562 532.929688 243.117188 532.488281 243.449219 531.933594 C 243.558594 531.714844 243.613281 528.730469 243.613281 522.984375 L 243.613281 514.699219 L 200.632812 514.699219 L 200.632812 507.078125 L 225.691406 468.796875 C 242.617188 443.164062 251.191406 430.292969 251.414062 430.183594 C 251.632812 429.964844 252.796875 429.851562 254.898438 429.851562 L 257.886719 429.851562 L 258.882812 430.847656 L 258.882812 507.078125 L 274.148438 507.078125 L 274.148438 514.699219 L 258.882812 514.699219 L 258.882812 523.152344 C 258.882812 527.679688 258.882812 530.332031 258.882812 531.105469 C 258.882812 531.878906 259.214844 532.542969 259.875 533.09375 C 260.761719 533.867188 263.914062 534.308594 269.335938 534.421875 L 274.148438 534.421875 L 274.148438 542.042969 Z M 244.609375 507.078125 L 244.609375 451.726562 L 208.265625 506.910156 L 226.355469 507.078125 Z M 244.609375 507.078125 " fill-opacity="1" fill-rule="nonzero"/><path fill="#000000" d="M 96.414062 391.902344 L 295.558594 391.902344 L 295.558594 381.960938 L 96.414062 381.960938 Z M 96.414062 391.902344 " fill-opacity="1" fill-rule="nonzero"/><path fill="#000000" d="M 456.898438 423.554688 C 456.898438 425.765625 455.734375 426.871094 453.410156 426.871094 C 452.859375 426.871094 451.640625 425.984375 449.761719 424.21875 C 447.878906 422.449219 442.679688 417.3125 434.160156 408.804688 L 416.902344 391.570312 L 399.476562 408.972656 C 387.75 420.460938 381.71875 426.316406 381.386719 426.539062 C 380.945312 426.757812 380.558594 426.871094 380.226562 426.871094 C 379.339844 426.871094 378.566406 426.539062 377.902344 425.875 C 377.238281 425.210938 376.851562 424.4375 376.742188 423.554688 C 376.742188 422.78125 377.515625 421.566406 379.066406 419.910156 C 380.613281 418.253906 385.8125 413.003906 394.664062 404.167969 L 411.921875 386.933594 L 394.664062 369.695312 C 385.703125 360.75 380.503906 355.5 379.066406 353.953125 C 377.625 352.40625 376.851562 351.191406 376.742188 350.308594 C 376.742188 349.3125 377.074219 348.539062 377.738281 347.988281 C 378.402344 347.433594 379.230469 347.160156 380.226562 347.160156 C 380.78125 347.160156 381.167969 347.214844 381.386719 347.324219 C 381.71875 347.546875 387.75 353.402344 399.476562 364.890625 L 416.902344 382.292969 L 434.160156 365.058594 C 442.679688 356.550781 447.878906 351.414062 449.761719 349.644531 C 451.640625 347.878906 452.859375 346.992188 453.410156 346.992188 C 455.734375 346.992188 456.898438 348.097656 456.898438 350.308594 C 456.898438 351.082031 456.34375 352.074219 455.238281 353.289062 C 454.132812 354.507812 448.710938 359.917969 438.972656 369.53125 L 421.714844 386.933594 L 438.972656 404.332031 C 448.265625 413.613281 453.578125 418.96875 454.90625 420.40625 C 456.234375 421.84375 456.898438 422.890625 456.898438 423.554688 Z M 456.898438 423.554688 " fill-opacity="1" fill-rule="nonzero"/><path fill="#000000" d="M 575.917969 239.609375 C 572.933594 239.609375 570.609375 238.667969 568.949219 236.792969 C 567.289062 234.914062 566.40625 232.480469 566.292969 229.5 C 566.292969 223.421875 568.949219 218.007812 574.257812 213.257812 C 579.570312 208.507812 585.988281 206.132812 593.511719 206.132812 C 597.382812 206.132812 599.816406 206.1875 600.8125 206.300781 C 609 207.625 615.25 210.550781 619.566406 215.082031 C 623.878906 219.613281 626.09375 224.527344 626.203125 229.832031 C 626.203125 235.574219 624.324219 241.15625 620.5625 246.570312 C 616.800781 251.980469 611.597656 255.902344 604.960938 258.335938 L 604.464844 258.664062 C 604.464844 258.777344 604.960938 258.941406 605.957031 259.164062 C 606.953125 259.382812 608.558594 259.882812 610.769531 260.65625 C 612.980469 261.429688 615.085938 262.585938 617.074219 264.132812 C 626.148438 269.988281 630.683594 277.722656 630.683594 287.335938 C 630.683594 296.0625 627.253906 303.6875 620.394531 310.203125 C 613.535156 316.722656 604.851562 319.980469 594.339844 319.980469 C 585.488281 319.980469 577.855469 317.605469 571.4375 312.855469 C 565.023438 308.105469 561.8125 302.085938 561.8125 294.792969 C 561.8125 291.699219 562.808594 289.214844 564.800781 287.335938 C 566.792969 285.457031 569.28125 284.460938 572.269531 284.351562 C 575.367188 284.351562 577.910156 285.347656 579.902344 287.335938 C 581.894531 289.324219 582.890625 291.808594 582.890625 294.792969 C 582.890625 296.007812 582.722656 297.113281 582.390625 298.105469 C 582.058594 299.101562 581.671875 299.984375 581.230469 300.757812 C 580.789062 301.53125 580.179688 302.195312 579.402344 302.746094 C 578.628906 303.300781 577.964844 303.742188 577.414062 304.074219 C 576.859375 304.402344 576.304688 304.625 575.753906 304.734375 C 575.199219 304.847656 574.757812 305.011719 574.425781 305.234375 L 573.761719 305.398438 C 579.402344 310.371094 586.261719 312.855469 594.339844 312.855469 C 600.425781 312.855469 605.015625 309.929688 608.113281 304.074219 C 609.996094 300.425781 610.933594 294.847656 610.933594 287.335938 L 610.933594 284.019531 C 610.933594 273.523438 607.394531 266.511719 600.3125 262.972656 C 598.65625 262.3125 595.28125 261.925781 590.191406 261.816406 L 583.222656 261.648438 L 582.722656 261.316406 C 582.503906 260.984375 582.390625 260.101562 582.390625 258.664062 C 582.390625 256.675781 582.832031 255.683594 583.71875 255.683594 C 586.816406 255.683594 590.023438 255.40625 593.34375 254.855469 C 597.105469 254.300781 600.535156 251.980469 603.632812 247.894531 C 606.730469 243.804688 608.28125 237.621094 608.28125 229.332031 L 608.28125 228.007812 C 608.28125 221.710938 606.34375 217.347656 602.472656 214.917969 C 600.039062 213.371094 597.4375 212.597656 594.671875 212.597656 C 591.132812 212.597656 587.867188 213.203125 584.878906 214.417969 C 581.894531 215.632812 579.792969 216.90625 578.574219 218.230469 C 577.359375 219.554688 576.75 220.21875 576.75 220.21875 L 577.246094 220.21875 C 577.578125 220.328125 578.019531 220.441406 578.574219 220.550781 C 579.128906 220.660156 579.679688 220.9375 580.234375 221.378906 C 580.789062 221.820312 581.449219 222.207031 582.226562 222.539062 C 583 222.871094 583.554688 223.476562 583.886719 224.363281 C 584.21875 225.246094 584.660156 226.074219 585.210938 226.847656 C 585.765625 227.621094 585.933594 228.726562 585.710938 230.164062 C 585.710938 232.59375 584.9375 234.746094 583.386719 236.625 C 581.839844 238.503906 579.347656 239.496094 575.917969 239.609375 Z M 575.917969 239.609375 " fill-opacity="1" fill-rule="nonzero"/><g clip-path="url(#361ab646a3)"><path fill="#000000" d="M 575.917969 465.316406 C 572.933594 465.316406 570.609375 464.378906 568.949219 462.5 C 567.289062 460.621094 566.40625 458.191406 566.292969 455.207031 C 566.292969 449.132812 568.949219 443.71875 574.257812 438.96875 C 579.570312 434.214844 585.988281 431.839844 593.511719 431.839844 C 597.382812 431.839844 599.816406 431.898438 600.8125 432.007812 C 609 433.332031 615.25 436.261719 619.566406 440.789062 C 623.878906 445.320312 626.09375 450.234375 626.203125 455.539062 C 626.203125 461.285156 624.324219 466.863281 620.5625 472.277344 C 616.800781 477.691406 611.597656 481.613281 604.960938 484.042969 L 604.464844 484.375 C 604.464844 484.484375 604.960938 484.648438 605.957031 484.871094 C 606.953125 485.09375 608.558594 485.589844 610.769531 486.363281 C 612.980469 487.136719 615.085938 488.296875 617.074219 489.84375 C 626.148438 495.699219 630.683594 503.429688 630.683594 513.042969 C 630.683594 521.769531 627.253906 529.394531 620.394531 535.914062 C 613.535156 542.429688 604.851562 545.691406 594.339844 545.691406 C 585.488281 545.691406 577.855469 543.3125 571.4375 538.5625 C 565.023438 533.8125 561.8125 527.792969 561.8125 520.5 C 561.8125 517.40625 562.808594 514.921875 564.800781 513.042969 C 566.792969 511.164062 569.28125 510.171875 572.269531 510.058594 C 575.367188 510.058594 577.910156 511.054688 579.902344 513.042969 C 581.894531 515.03125 582.890625 517.519531 582.890625 520.5 C 582.890625 521.714844 582.722656 522.820312 582.390625 523.816406 C 582.058594 524.808594 581.671875 525.691406 581.230469 526.464844 C 580.789062 527.238281 580.179688 527.902344 579.402344 528.453125 C 578.628906 529.007812 577.964844 529.449219 577.414062 529.78125 C 576.859375 530.113281 576.304688 530.332031 575.753906 530.445312 C 575.199219 530.554688 574.757812 530.71875 574.425781 530.941406 L 573.761719 531.105469 C 579.402344 536.078125 586.261719 538.5625 594.339844 538.5625 C 600.425781 538.5625 605.015625 535.636719 608.113281 529.78125 C 609.996094 526.136719 610.933594 520.554688 610.933594 513.042969 L 610.933594 509.730469 C 610.933594 499.234375 607.394531 492.21875 600.3125 488.683594 C 598.65625 488.019531 595.28125 487.632812 590.191406 487.523438 L 583.222656 487.355469 L 582.722656 487.027344 C 582.503906 486.695312 582.390625 485.808594 582.390625 484.375 C 582.390625 482.386719 582.832031 481.390625 583.71875 481.390625 C 586.816406 481.390625 590.023438 481.113281 593.34375 480.5625 C 597.105469 480.011719 600.535156 477.691406 603.632812 473.601562 C 606.730469 469.515625 608.28125 463.328125 608.28125 455.042969 L 608.28125 453.714844 C 608.28125 447.417969 606.34375 443.054688 602.472656 440.625 C 600.039062 439.078125 597.4375 438.304688 594.671875 438.304688 C 591.132812 438.304688 587.867188 438.910156 584.878906 440.128906 C 581.894531 441.34375 579.792969 442.613281 578.574219 443.9375 C 577.359375 445.265625 576.75 445.925781 576.75 445.925781 L 577.246094 445.925781 C 577.578125 446.039062 578.019531 446.148438 578.574219 446.257812 C 579.128906 446.371094 579.679688 446.644531 580.234375 447.085938 C 580.789062 447.53125 581.449219 447.914062 582.226562 448.246094 C 583 448.578125 583.554688 449.1875 583.886719 450.070312 C 584.21875 450.953125 584.660156 451.78125 585.210938 452.554688 C 585.765625 453.328125 585.933594 454.433594 585.710938 455.871094 C 585.710938 458.300781 584.9375 460.457031 583.386719 462.332031 C 581.839844 464.210938 579.347656 465.207031 575.917969 465.316406 Z M 575.917969 465.316406 " fill-opacity="1" fill-rule="nonzero"/></g><path fill="#000000" d="M 538.246094 391.902344 L 654.414062 391.902344 L 654.414062 381.960938 L 538.246094 381.960938 Z M 538.246094 391.902344 " fill-opacity="1" fill-rule="nonzero"/></svg>