<svg xmlns="http://www.w3.org/2000/svg" xmlns:xlink="http://www.w3.org/1999/xlink" width="1000" zoomAndPan="magnify" viewBox="0 0 750 749.999995" height="1000" preserveAspectRatio="xMidYMid meet" version="1.0"><rect x="-75" width="900" fill="#ffffff" y="-74.999999" height="899.999994" fill-opacity="1"/><rect x="-75" width="900" fill="#ffffff" y="-74.999999" height="899.999994" fill-opacity="1"/><path fill="#000000" d="M 296.617188 333.574219 C 296.617188 333.574219 296.617188 322.382812 296.617188 300 C 296.617188 277.617188 304.496094 259.59375 320.253906 245.929688 C 336.011719 232.265625 354.105469 225.289062 374.535156 225 C 395.253906 225 413.636719 231.105469 429.6875 243.3125 C 445.738281 255.523438 453.761719 271.367188 453.761719 290.84375 C 453.761719 299.5625 452.160156 307.703125 448.949219 315.261719 C 445.738281 322.820312 441.945312 328.925781 437.566406 333.574219 C 433.191406 338.226562 428.667969 342.296875 423.996094 345.785156 C 419.328125 349.273438 415.535156 351.890625 412.617188 353.632812 C 409.699219 355.378906 408.09375 356.539062 407.800781 357.121094 L 413.929688 361.046875 C 418.015625 363.953125 422.101562 366.859375 426.1875 369.765625 C 430.273438 372.675781 432.605469 374.273438 433.191406 374.5625 C 455.078125 391.714844 466.019531 413.371094 466.019531 439.535156 C 466.019531 462.5 457.558594 482.414062 440.632812 499.273438 C 423.707031 516.132812 401.820312 524.710938 374.972656 525 C 348.707031 525 327.113281 517.585938 310.1875 502.761719 C 293.261719 487.9375 284.796875 469.621094 284.796875 447.820312 C 284.796875 416.425781 303.621094 390.261719 341.265625 369.332031 L 333.386719 363.664062 C 327.257812 359.882812 323.320312 356.976562 321.566406 354.941406 C 304.933594 340.699219 296.617188 322.382812 296.617188 300 Z M 391.167969 347.09375 L 393.792969 345.347656 C 395.542969 344.1875 396.859375 343.3125 397.734375 342.734375 C 398.609375 342.152344 400.066406 341.132812 402.109375 339.679688 C 404.152344 338.226562 405.90625 336.773438 407.363281 335.320312 C 408.824219 333.867188 410.425781 332.121094 412.179688 330.085938 C 413.929688 328.050781 415.535156 326.164062 416.992188 324.417969 C 418.453125 322.675781 419.910156 320.347656 421.371094 317.441406 C 422.832031 314.535156 424.144531 312.0625 425.3125 310.027344 C 426.476562 307.996094 427.207031 305.085938 427.5 301.308594 C 427.792969 297.527344 428.082031 294.332031 428.375 291.714844 C 428.375 279.214844 424.144531 268.605469 415.679688 259.882812 C 407.21875 251.164062 397.441406 245.640625 386.351562 243.3125 C 384.308594 243.023438 379.496094 242.878906 371.90625 242.878906 C 359.941406 242.878906 348.707031 246.65625 338.203125 254.214844 C 327.695312 261.773438 322.296875 271.222656 322.003906 282.558594 C 322.003906 289.246094 323.902344 295.347656 327.695312 300.871094 C 331.488281 306.394531 335.285156 310.609375 339.078125 313.515625 C 342.871094 316.425781 350.167969 321.074219 360.964844 327.472656 C 363.007812 328.925781 364.613281 329.941406 365.777344 330.523438 Z M 375.410156 506.25 C 392.335938 506.25 406.925781 501.308594 419.183594 491.425781 C 431.4375 481.539062 437.566406 469.621094 437.566406 455.667969 C 437.566406 450.726562 436.835938 446.074219 435.378906 441.714844 C 433.917969 437.355469 432.167969 433.722656 430.125 430.8125 C 428.082031 427.90625 424.871094 424.710938 420.496094 421.222656 C 416.117188 417.734375 412.761719 415.117188 410.425781 413.371094 C 408.09375 411.628906 403.863281 408.867188 397.734375 405.085938 C 391.605469 401.308594 387.664062 398.835938 385.914062 397.675781 C 381.828125 395.058594 377.453125 392.296875 372.78125 389.390625 C 368.113281 386.484375 364.320312 384.011719 361.402344 381.976562 L 357.898438 379.796875 C 356.148438 379.796875 351.917969 382.265625 345.207031 387.210938 C 338.492188 392.152344 331.488281 400.144531 324.195312 411.191406 C 316.898438 422.238281 313.105469 434.15625 312.8125 446.949219 C 312.8125 464.097656 319.085938 478.199219 331.636719 489.246094 C 344.183594 500.289062 358.773438 505.960938 375.410156 506.25 Z M 375.410156 506.25 " fill-opacity="1" fill-rule="nonzero"/></svg>