<svg xmlns="http://www.w3.org/2000/svg" xmlns:xlink="http://www.w3.org/1999/xlink" width="1000" zoomAndPan="magnify" viewBox="0 0 750 749.999995" height="1000" preserveAspectRatio="xMidYMid meet" version="1.0"><rect x="-75" width="900" fill="#ffffff" y="-74.999999" height="899.999994" fill-opacity="1"/><rect x="-75" width="900" fill="#ffffff" y="-74.999999" height="899.999994" fill-opacity="1"/><path fill="#000000" d="M 161.730469 245.558594 C 161.730469 245.558594 161.730469 241.214844 161.730469 232.527344 C 161.730469 223.84375 164.789062 216.847656 170.898438 211.546875 C 177.011719 206.246094 184.027344 203.535156 191.949219 203.425781 C 199.984375 203.425781 207.117188 205.792969 213.339844 210.53125 C 219.566406 215.269531 222.675781 221.417969 222.675781 228.972656 C 222.675781 232.359375 222.054688 235.515625 220.808594 238.449219 C 219.566406 241.382812 218.09375 243.75 216.394531 245.558594 C 214.699219 247.363281 212.945312 248.941406 211.132812 250.292969 C 209.324219 251.648438 207.851562 252.664062 206.71875 253.339844 C 205.589844 254.015625 204.964844 254.46875 204.851562 254.695312 L 207.230469 256.214844 C 208.8125 257.34375 210.398438 258.472656 211.984375 259.601562 C 213.566406 260.730469 214.472656 261.347656 214.699219 261.460938 C 223.1875 268.117188 227.429688 276.523438 227.429688 286.675781 C 227.429688 295.585938 224.148438 303.3125 217.585938 309.855469 C 211.019531 316.398438 202.53125 319.726562 192.121094 319.839844 C 181.933594 319.839844 173.558594 316.960938 166.996094 311.207031 C 160.429688 305.457031 157.148438 298.347656 157.148438 289.890625 C 157.148438 277.707031 164.449219 267.554688 179.046875 259.433594 L 175.992188 257.230469 C 173.617188 255.765625 172.085938 254.636719 171.410156 253.847656 C 164.957031 248.320312 161.730469 241.214844 161.730469 232.527344 Z M 198.402344 250.800781 L 199.417969 250.125 C 200.097656 249.675781 200.609375 249.335938 200.949219 249.109375 C 201.289062 248.882812 201.851562 248.488281 202.644531 247.925781 C 203.4375 247.363281 204.117188 246.796875 204.683594 246.234375 C 205.25 245.667969 205.871094 244.992188 206.550781 244.203125 C 207.230469 243.414062 207.851562 242.679688 208.417969 242.003906 C 208.984375 241.328125 209.550781 240.425781 210.113281 239.296875 C 210.679688 238.167969 211.191406 237.210938 211.644531 236.417969 C 212.09375 235.628906 212.378906 234.5 212.492188 233.035156 C 212.605469 231.570312 212.71875 230.328125 212.832031 229.3125 C 212.832031 224.460938 211.191406 220.34375 207.90625 216.960938 C 204.625 213.578125 200.835938 211.433594 196.535156 210.53125 C 195.742188 210.417969 193.875 210.363281 190.929688 210.363281 C 186.292969 210.363281 181.933594 211.828125 177.859375 214.761719 C 173.785156 217.695312 171.691406 221.359375 171.578125 225.757812 C 171.578125 228.355469 172.3125 230.722656 173.785156 232.867188 C 175.257812 235.007812 176.726562 236.644531 178.199219 237.773438 C 179.671875 238.902344 182.5 240.707031 186.6875 243.1875 C 187.480469 243.75 188.101562 244.148438 188.554688 244.371094 Z M 192.289062 312.5625 C 198.855469 312.5625 204.511719 310.644531 209.265625 306.808594 C 214.019531 302.972656 216.394531 298.347656 216.394531 292.933594 C 216.394531 291.015625 216.113281 289.210938 215.546875 287.519531 C 214.980469 285.828125 214.300781 284.417969 213.511719 283.289062 C 212.71875 282.160156 211.472656 280.921875 209.777344 279.566406 C 208.078125 278.214844 206.777344 277.199219 205.871094 276.523438 C 204.964844 275.84375 203.324219 274.773438 200.949219 273.304688 C 198.570312 271.839844 197.042969 270.882812 196.363281 270.429688 C 194.78125 269.414062 193.082031 268.34375 191.269531 267.214844 C 189.460938 266.085938 187.988281 265.128906 186.855469 264.339844 L 185.5 263.492188 C 184.820312 263.492188 183.179688 264.453125 180.574219 266.371094 C 177.972656 268.285156 175.257812 271.390625 172.425781 275.675781 C 169.597656 279.960938 168.125 284.585938 168.011719 289.550781 C 168.011719 296.207031 170.445312 301.675781 175.3125 305.964844 C 180.179688 310.25 185.839844 312.449219 192.289062 312.5625 Z M 192.289062 312.5625 " fill-opacity="1" fill-rule="nonzero"/><path fill="#000000" d="M 228.28125 546.574219 C 226.242188 546.238281 218.941406 546.066406 206.378906 546.066406 C 193.25 546.066406 185.667969 546.238281 183.632812 546.574219 L 182.105469 546.574219 L 182.105469 538.792969 L 187.367188 538.792969 C 189.628906 538.792969 191.15625 538.792969 191.949219 538.792969 C 192.742188 538.792969 193.703125 538.679688 194.835938 538.453125 C 195.96875 538.226562 196.761719 537.945312 197.214844 537.609375 C 197.664062 537.269531 198.0625 536.816406 198.402344 536.253906 C 198.515625 536.027344 198.570312 532.984375 198.570312 527.117188 L 198.570312 518.65625 L 154.601562 518.65625 L 154.601562 510.875 L 180.238281 471.785156 C 197.550781 445.617188 206.324219 432.472656 206.550781 432.359375 C 206.777344 432.136719 207.964844 432.023438 210.113281 432.023438 L 213.171875 432.023438 L 214.1875 433.039062 L 214.1875 510.875 L 229.808594 510.875 L 229.808594 518.65625 L 214.1875 518.65625 L 214.1875 527.285156 C 214.1875 531.910156 214.1875 534.617188 214.1875 535.40625 C 214.1875 536.199219 214.527344 536.875 215.207031 537.4375 C 216.113281 538.226562 219.339844 538.679688 224.882812 538.792969 L 229.808594 538.792969 L 229.808594 546.574219 Z M 199.589844 510.875 L 199.589844 454.359375 L 162.410156 510.703125 L 180.914062 510.875 Z M 199.589844 510.875 " fill-opacity="1" fill-rule="nonzero"/><path fill="#000000" d="M 132.871094 393.273438 L 251.707031 393.273438 L 251.707031 383.121094 L 132.871094 383.121094 Z M 132.871094 393.273438 " fill-opacity="1" fill-rule="nonzero"/><path fill="#000000" d="M 416.753906 425.59375 C 416.753906 427.847656 415.566406 428.976562 413.1875 428.976562 C 412.621094 428.976562 411.378906 428.074219 409.453125 426.269531 C 407.53125 424.464844 402.210938 419.21875 393.496094 410.535156 L 375.839844 392.9375 L 358.015625 410.703125 C 346.019531 422.433594 339.851562 428.414062 339.511719 428.636719 C 339.058594 428.863281 338.660156 428.976562 338.320312 428.976562 C 337.417969 428.976562 336.625 428.636719 335.945312 427.960938 C 335.265625 427.285156 334.871094 426.496094 334.757812 425.59375 C 334.757812 424.804688 335.550781 423.5625 337.132812 421.871094 C 338.71875 420.179688 344.039062 414.820312 353.089844 405.796875 L 370.746094 388.199219 L 353.089844 370.601562 C 343.925781 361.464844 338.605469 356.105469 337.132812 354.527344 C 335.664062 352.945312 334.871094 351.707031 334.757812 350.804688 C 334.757812 349.789062 335.097656 349 335.773438 348.433594 C 336.453125 347.871094 337.304688 347.589844 338.320312 347.589844 C 338.886719 347.589844 339.285156 347.644531 339.511719 347.757812 C 339.851562 347.984375 346.019531 353.960938 358.015625 365.695312 L 375.839844 383.460938 L 393.496094 365.863281 C 402.210938 357.175781 407.53125 351.929688 409.453125 350.125 C 411.378906 348.320312 412.621094 347.417969 413.1875 347.417969 C 415.566406 347.417969 416.753906 348.546875 416.753906 350.804688 C 416.753906 351.59375 416.1875 352.609375 415.054688 353.847656 C 413.925781 355.089844 408.378906 360.617188 398.417969 370.429688 L 380.761719 388.199219 L 398.417969 405.964844 C 407.925781 415.441406 413.359375 420.910156 414.714844 422.378906 C 416.074219 423.84375 416.753906 424.917969 416.753906 425.59375 Z M 416.753906 425.59375 " fill-opacity="1" fill-rule="nonzero"/><path fill="#000000" d="M 528.832031 245.558594 C 528.832031 245.558594 528.832031 241.214844 528.832031 232.527344 C 528.832031 223.84375 531.886719 216.847656 538 211.546875 C 544.113281 206.246094 551.128906 203.535156 559.050781 203.425781 C 567.085938 203.425781 574.214844 205.792969 580.441406 210.53125 C 586.664062 215.269531 589.777344 221.417969 589.777344 228.972656 C 589.777344 232.359375 589.15625 235.515625 587.910156 238.449219 C 586.664062 241.382812 585.195312 243.75 583.496094 245.558594 C 581.800781 247.363281 580.046875 248.941406 578.234375 250.292969 C 576.421875 251.648438 574.953125 252.664062 573.820312 253.339844 C 572.6875 254.015625 572.066406 254.46875 571.953125 254.695312 L 574.328125 256.214844 C 575.914062 257.34375 577.5 258.472656 579.082031 259.601562 C 580.667969 260.730469 581.574219 261.347656 581.800781 261.460938 C 590.289062 268.117188 594.53125 276.523438 594.53125 286.675781 C 594.53125 295.585938 591.25 303.3125 584.683594 309.855469 C 578.121094 316.398438 569.632812 319.726562 559.21875 319.839844 C 549.035156 319.839844 540.660156 316.960938 534.09375 311.207031 C 527.53125 305.457031 524.25 298.347656 524.25 289.890625 C 524.25 277.707031 531.546875 267.554688 546.148438 259.433594 L 543.09375 257.230469 C 540.714844 255.765625 539.1875 254.636719 538.507812 253.847656 C 532.058594 248.320312 528.832031 241.214844 528.832031 232.527344 Z M 565.5 250.800781 L 566.519531 250.125 C 567.199219 249.675781 567.707031 249.335938 568.046875 249.109375 C 568.386719 248.882812 568.953125 248.488281 569.746094 247.925781 C 570.539062 247.363281 571.21875 246.796875 571.78125 246.234375 C 572.347656 245.667969 572.972656 244.992188 573.652344 244.203125 C 574.328125 243.414062 574.953125 242.679688 575.519531 242.003906 C 576.082031 241.328125 576.648438 240.425781 577.214844 239.296875 C 577.78125 238.167969 578.289062 237.210938 578.742188 236.417969 C 579.195312 235.628906 579.480469 234.5 579.59375 233.035156 C 579.707031 231.570312 579.820312 230.328125 579.933594 229.3125 C 579.933594 224.460938 578.289062 220.34375 575.007812 216.960938 C 571.726562 213.578125 567.933594 211.433594 563.632812 210.53125 C 562.84375 210.417969 560.976562 210.363281 558.03125 210.363281 C 553.390625 210.363281 549.035156 211.828125 544.960938 214.761719 C 540.886719 217.695312 538.792969 221.359375 538.679688 225.757812 C 538.679688 228.355469 539.414062 230.722656 540.886719 232.867188 C 542.355469 235.007812 543.828125 236.644531 545.300781 237.773438 C 546.769531 238.902344 549.601562 240.707031 553.789062 243.1875 C 554.582031 243.75 555.203125 244.148438 555.65625 244.371094 Z M 559.390625 312.5625 C 565.953125 312.5625 571.613281 310.644531 576.367188 306.808594 C 581.121094 302.972656 583.496094 298.347656 583.496094 292.933594 C 583.496094 291.015625 583.214844 289.210938 582.648438 287.519531 C 582.082031 285.828125 581.402344 284.417969 580.609375 283.289062 C 579.820312 282.160156 578.574219 280.921875 576.875 279.566406 C 575.179688 278.214844 573.875 277.199219 572.972656 276.523438 C 572.066406 275.84375 570.425781 274.773438 568.046875 273.304688 C 565.671875 271.839844 564.144531 270.882812 563.464844 270.429688 C 561.878906 269.414062 560.183594 268.34375 558.371094 267.214844 C 556.5625 266.085938 555.089844 265.128906 553.957031 264.339844 L 552.601562 263.492188 C 551.921875 263.492188 550.28125 264.453125 547.675781 266.371094 C 545.074219 268.285156 542.355469 271.390625 539.527344 275.675781 C 536.699219 279.960938 535.226562 284.585938 535.113281 289.550781 C 535.113281 296.207031 537.546875 301.675781 542.414062 305.964844 C 547.28125 310.25 552.9375 312.449219 559.390625 312.5625 Z M 559.390625 312.5625 " fill-opacity="1" fill-rule="nonzero"/><path fill="#000000" d="M 535.453125 473.984375 C 532.398438 473.984375 529.964844 472.972656 528.152344 470.941406 C 526.34375 468.910156 525.4375 466.429688 525.4375 463.496094 C 525.4375 455.484375 528.4375 448.546875 534.433594 442.683594 C 540.433594 436.816406 547.902344 433.882812 556.84375 433.882812 C 567.144531 433.882812 575.746094 437.042969 582.648438 443.359375 C 589.550781 449.675781 593.058594 457.855469 593.171875 467.894531 C 593.171875 472.746094 592.042969 477.371094 589.777344 481.769531 C 587.515625 486.167969 584.796875 490.003906 581.628906 493.277344 C 578.460938 496.546875 573.933594 500.722656 568.046875 505.796875 C 563.972656 509.292969 558.316406 514.484375 551.070312 521.363281 L 541.054688 530.839844 L 553.957031 531.007812 C 571.726562 531.007812 581.175781 530.726562 582.308594 530.164062 C 583.101562 529.9375 584.457031 524.917969 586.382812 515.101562 L 586.382812 514.597656 L 593.171875 514.597656 L 593.171875 515.101562 C 593.058594 515.441406 592.324219 520.574219 590.964844 530.5 C 589.609375 540.429688 588.757812 545.617188 588.421875 546.066406 L 588.421875 546.574219 L 525.4375 546.574219 L 525.4375 541.332031 C 525.4375 540.539062 525.777344 539.695312 526.457031 538.792969 C 527.136719 537.890625 528.832031 535.914062 531.546875 532.871094 C 534.832031 529.261719 537.660156 526.101562 540.035156 523.394531 C 541.054688 522.265625 542.980469 520.179688 545.808594 517.132812 C 548.636719 514.089844 550.5625 512 551.582031 510.875 C 552.601562 509.746094 554.242188 507.882812 556.503906 505.289062 C 558.769531 502.695312 560.351562 500.777344 561.257812 499.535156 C 562.164062 498.296875 563.464844 496.601562 565.164062 494.460938 C 566.859375 492.316406 568.046875 490.511719 568.726562 489.046875 C 569.40625 487.578125 570.253906 485.945312 571.273438 484.136719 C 572.292969 482.332031 573.027344 480.527344 573.480469 478.722656 C 573.933594 476.917969 574.328125 475.226562 574.667969 473.648438 C 575.007812 472.070312 575.179688 470.207031 575.179688 468.0625 C 575.179688 460.957031 573.253906 454.808594 569.40625 449.621094 C 565.558594 444.429688 560.070312 441.835938 552.9375 441.835938 C 549.203125 441.835938 545.921875 442.796875 543.09375 444.714844 C 540.261719 446.632812 538.28125 448.492188 537.152344 450.296875 C 536.019531 452.101562 535.453125 453.171875 535.453125 453.511719 C 535.453125 453.625 535.734375 453.679688 536.300781 453.679688 C 538.339844 453.679688 540.433594 454.472656 542.582031 456.050781 C 544.734375 457.628906 545.808594 460.222656 545.808594 463.832031 C 545.808594 466.652344 544.902344 469.023438 543.09375 470.941406 C 541.28125 472.859375 538.734375 473.875 535.453125 473.984375 Z M 535.453125 473.984375 " fill-opacity="1" fill-rule="nonzero"/><path fill="#000000" d="M 499.972656 393.273438 L 618.808594 393.273438 L 618.808594 383.121094 L 499.972656 383.121094 Z M 499.972656 393.273438 " fill-opacity="1" fill-rule="nonzero"/></svg>