<svg xmlns="http://www.w3.org/2000/svg" xmlns:xlink="http://www.w3.org/1999/xlink" width="1000" zoomAndPan="magnify" viewBox="0 0 750 749.999995" height="1000" preserveAspectRatio="xMidYMid meet" version="1.0"><defs><clipPath id="19050931a2"><path d="M 125 204.308594 L 183 204.308594 L 183 316 L 125 316 Z M 125 204.308594 " clip-rule="nonzero"/></clipPath><clipPath id="974fa2dce9"><path d="M 202 204.308594 L 272 204.308594 L 272 319 L 202 319 Z M 202 204.308594 " clip-rule="nonzero"/></clipPath><clipPath id="352f03d0ac"><path d="M 564 204.308594 L 631 204.308594 L 631 319 L 564 319 Z M 564 204.308594 " clip-rule="nonzero"/></clipPath><clipPath id="1f711f0f93"><path d="M 564 431 L 631 431 L 631 545.691406 L 564 545.691406 Z M 564 431 " clip-rule="nonzero"/></clipPath></defs><rect x="-75" width="900" fill="#ffffff" y="-74.999999" height="899.999994" fill-opacity="1"/><rect x="-75" width="900" fill="#ffffff" y="-74.999999" height="899.999994" fill-opacity="1"/><g clip-path="url(#19050931a2)"><path fill="#000000" d="M 147.25 218.964844 L 145.082031 219.796875 C 143.523438 220.351562 141.300781 220.90625 138.410156 221.460938 C 135.519531 222.019531 132.296875 222.40625 128.738281 222.628906 L 125.570312 222.628906 L 125.570312 214.96875 L 128.738281 214.96875 C 133.960938 214.746094 138.796875 213.914062 143.246094 212.46875 C 147.691406 211.027344 150.804688 209.695312 152.585938 208.472656 C 154.363281 207.253906 155.917969 206.03125 157.253906 204.808594 C 157.476562 204.476562 158.144531 204.308594 159.253906 204.308594 C 160.253906 204.308594 161.199219 204.644531 162.089844 205.308594 L 162.089844 255.101562 L 162.257812 305.058594 C 163.035156 305.835938 163.703125 306.335938 164.257812 306.558594 C 164.8125 306.78125 166.148438 307 168.261719 307.222656 C 170.371094 307.445312 173.820312 307.558594 178.601562 307.558594 L 182.933594 307.558594 L 182.933594 315.21875 L 181.101562 315.21875 C 178.765625 314.882812 169.929688 314.71875 154.585938 314.71875 C 139.464844 314.71875 130.738281 314.882812 128.402344 315.21875 L 126.402344 315.21875 L 126.402344 307.558594 L 130.738281 307.558594 C 133.183594 307.558594 135.296875 307.558594 137.074219 307.558594 C 138.855469 307.558594 140.242188 307.5 141.246094 307.390625 C 142.246094 307.277344 143.132812 307.113281 143.914062 306.890625 C 144.691406 306.667969 145.136719 306.558594 145.246094 306.558594 C 145.359375 306.558594 145.691406 306.28125 146.246094 305.726562 C 146.804688 305.167969 147.136719 304.949219 147.25 305.058594 Z M 147.25 218.964844 " fill-opacity="1" fill-rule="nonzero"/></g><g clip-path="url(#974fa2dce9)"><path fill="#000000" d="M 202.113281 263.09375 C 202.113281 245 206.617188 230.675781 215.621094 220.128906 C 224.625 209.582031 234.632812 204.308594 245.636719 204.308594 C 253.308594 204.308594 258.8125 206.308594 262.148438 210.304688 C 265.484375 214.300781 267.152344 218.742188 267.152344 223.628906 C 267.152344 226.402344 266.371094 228.625 264.816406 230.289062 C 263.261719 231.953125 261.09375 232.785156 258.3125 232.785156 C 255.753906 232.785156 253.644531 232.007812 251.976562 230.453125 C 250.308594 228.902344 249.472656 226.734375 249.472656 223.960938 C 249.472656 219.074219 252.085938 216.132812 257.3125 215.132812 C 254.867188 212.691406 251.417969 211.304688 246.972656 210.972656 C 239.078125 210.972656 232.574219 214.300781 227.460938 220.964844 C 222.234375 228.289062 219.625 239.503906 219.625 254.601562 L 219.789062 255.265625 C 220.347656 254.601562 220.789062 253.878906 221.125 253.101562 C 225.683594 246.441406 231.628906 243.109375 238.96875 243.109375 L 239.636719 243.109375 C 244.75 243.109375 249.25 244.164062 253.144531 246.273438 C 255.8125 247.828125 258.480469 250.050781 261.148438 252.9375 C 263.816406 255.824219 265.984375 258.988281 267.652344 262.429688 C 269.984375 267.867188 271.152344 273.808594 271.152344 280.246094 L 271.152344 283.242188 C 271.152344 285.796875 270.875 288.183594 270.320312 290.40625 C 269.097656 296.953125 265.539062 303.339844 259.648438 309.554688 C 253.753906 315.773438 246.304688 318.878906 237.300781 318.878906 C 234.1875 318.878906 231.1875 318.4375 228.296875 317.546875 C 225.40625 316.660156 222.292969 314.996094 218.957031 312.550781 C 215.621094 310.109375 212.785156 306.835938 210.453125 302.726562 C 208.117188 298.621094 206.117188 293.234375 204.449219 286.574219 C 202.78125 279.914062 202.003906 272.085938 202.113281 263.09375 Z M 237.96875 249.105469 C 234.632812 249.105469 231.742188 250.050781 229.296875 251.9375 C 226.851562 253.824219 224.960938 256.320312 223.625 259.429688 C 222.292969 262.539062 221.347656 265.703125 220.789062 268.921875 C 220.234375 272.140625 219.902344 275.582031 219.789062 279.246094 C 219.789062 288.460938 220.457031 295.066406 221.792969 299.0625 C 223.125 303.058594 225.238281 306.28125 228.128906 308.722656 C 230.796875 310.722656 233.742188 311.71875 236.96875 311.71875 C 242.636719 311.71875 246.972656 309.609375 249.972656 305.390625 C 251.417969 303.394531 252.421875 300.894531 252.976562 297.898438 C 253.53125 294.902344 253.808594 289.074219 253.808594 280.414062 C 253.808594 271.53125 253.53125 265.59375 252.976562 262.59375 C 252.421875 259.597656 251.417969 257.097656 249.972656 255.101562 C 246.972656 251.105469 242.96875 249.105469 237.96875 249.105469 Z M 237.96875 249.105469 " fill-opacity="1" fill-rule="nonzero"/></g><path fill="#000000" d="M 171.59375 470.585938 C 168.59375 470.585938 166.203125 469.585938 164.425781 467.589844 C 162.644531 465.589844 161.757812 463.148438 161.757812 460.261719 C 161.757812 452.378906 164.703125 445.550781 170.59375 439.777344 C 176.488281 434.007812 183.824219 431.121094 192.609375 431.121094 C 202.726562 431.121094 211.175781 434.226562 217.957031 440.445312 C 224.738281 446.660156 228.183594 454.710938 228.296875 464.589844 C 228.296875 469.363281 227.183594 473.917969 224.960938 478.246094 C 222.738281 482.574219 220.066406 486.351562 216.957031 489.570312 C 213.84375 492.789062 209.394531 496.898438 203.613281 501.894531 C 199.613281 505.335938 194.054688 510.441406 186.9375 517.214844 L 177.097656 526.539062 L 189.773438 526.707031 C 207.226562 526.707031 216.511719 526.429688 217.621094 525.871094 C 218.402344 525.652344 219.734375 520.710938 221.625 511.050781 L 221.625 510.550781 L 228.296875 510.550781 L 228.296875 511.050781 C 228.183594 511.386719 227.460938 516.4375 226.128906 526.207031 C 224.792969 535.976562 223.960938 541.082031 223.625 541.527344 L 223.625 542.027344 L 161.757812 542.027344 L 161.757812 536.863281 C 161.757812 536.085938 162.089844 535.253906 162.757812 534.367188 C 163.425781 533.476562 165.09375 531.535156 167.761719 528.539062 C 170.984375 524.984375 173.761719 521.875 176.097656 519.210938 C 177.097656 518.101562 178.988281 516.046875 181.769531 513.050781 C 184.546875 510.054688 186.4375 508 187.4375 506.890625 C 188.4375 505.777344 190.050781 503.945312 192.273438 501.394531 C 194.496094 498.839844 196.054688 496.953125 196.945312 495.730469 C 197.832031 494.511719 199.113281 492.84375 200.777344 490.734375 C 202.445312 488.625 203.613281 486.851562 204.28125 485.40625 C 204.949219 483.964844 205.78125 482.355469 206.78125 480.578125 C 207.785156 478.800781 208.507812 477.023438 208.949219 475.25 C 209.394531 473.472656 209.785156 471.808594 210.117188 470.253906 C 210.453125 468.699219 210.617188 466.867188 210.617188 464.757812 C 210.617188 457.761719 208.726562 451.714844 204.949219 446.605469 C 201.167969 441.5 195.777344 438.945312 188.773438 438.945312 C 185.101562 438.945312 181.878906 439.890625 179.101562 441.777344 C 176.320312 443.664062 174.375 445.496094 173.261719 447.273438 C 172.152344 449.046875 171.59375 450.101562 171.59375 450.4375 C 171.59375 450.546875 171.875 450.601562 172.429688 450.601562 C 174.429688 450.601562 176.488281 451.378906 178.601562 452.933594 C 180.710938 454.488281 181.769531 457.042969 181.769531 460.59375 C 181.769531 463.371094 180.878906 465.703125 179.101562 467.589844 C 177.320312 469.476562 174.820312 470.476562 171.59375 470.585938 Z M 171.59375 470.585938 " fill-opacity="1" fill-rule="nonzero"/><path fill="#000000" d="M 95.050781 391.152344 L 295.167969 391.152344 L 295.167969 381.160156 L 95.050781 381.160156 Z M 95.050781 391.152344 " fill-opacity="1" fill-rule="nonzero"/><path fill="#000000" d="M 457.292969 422.960938 C 457.292969 425.179688 456.128906 426.289062 453.792969 426.289062 C 453.238281 426.289062 452.015625 425.402344 450.125 423.625 C 448.234375 421.847656 443.007812 416.6875 434.449219 408.140625 L 417.105469 390.820312 L 399.59375 408.304688 C 387.808594 419.851562 381.75 425.734375 381.417969 425.957031 C 380.972656 426.179688 380.582031 426.289062 380.25 426.289062 C 379.359375 426.289062 378.582031 425.957031 377.914062 425.289062 C 377.25 424.625 376.859375 423.847656 376.746094 422.960938 C 376.746094 422.183594 377.527344 420.960938 379.082031 419.296875 C 380.640625 417.628906 385.863281 412.359375 394.757812 403.476562 L 412.101562 386.15625 L 394.757812 368.839844 C 385.753906 359.847656 380.527344 354.574219 379.082031 353.019531 C 377.636719 351.464844 376.859375 350.242188 376.746094 349.355469 C 376.746094 348.355469 377.082031 347.578125 377.75 347.023438 C 378.414062 346.46875 379.25 346.191406 380.25 346.191406 C 380.804688 346.191406 381.195312 346.246094 381.417969 346.359375 C 381.75 346.578125 387.808594 352.464844 399.59375 364.007812 L 417.105469 381.496094 L 434.449219 364.175781 C 443.007812 355.628906 448.234375 350.464844 450.125 348.6875 C 452.015625 346.914062 453.238281 346.023438 453.792969 346.023438 C 456.128906 346.023438 457.292969 347.132812 457.292969 349.355469 C 457.292969 350.132812 456.738281 351.132812 455.625 352.351562 C 454.515625 353.574219 449.066406 359.011719 439.285156 368.671875 L 421.941406 386.15625 L 439.285156 403.640625 C 448.621094 412.96875 453.960938 418.351562 455.292969 419.796875 C 456.628906 421.238281 457.292969 422.292969 457.292969 422.960938 Z M 457.292969 422.960938 " fill-opacity="1" fill-rule="nonzero"/><g clip-path="url(#352f03d0ac)"><path fill="#000000" d="M 583.066406 289.074219 C 583.066406 291.738281 582.179688 293.957031 580.398438 295.734375 C 578.621094 297.507812 576.453125 298.398438 573.894531 298.398438 L 572.726562 298.398438 C 577.84375 307.167969 584.625 311.554688 593.074219 311.554688 C 600.855469 311.554688 606.527344 308.222656 610.082031 301.5625 C 612.195312 297.898438 613.25 290.792969 613.25 280.246094 C 613.25 268.8125 611.75 261.097656 608.75 257.097656 C 605.859375 253.4375 602.632812 251.605469 599.078125 251.605469 L 598.078125 251.605469 C 589.40625 251.605469 582.84375 255.378906 578.398438 262.925781 C 577.953125 263.703125 577.5625 264.148438 577.230469 264.261719 C 576.898438 264.371094 576.0625 264.480469 574.730469 264.59375 C 572.839844 264.59375 571.785156 264.261719 571.5625 263.59375 C 571.339844 263.148438 571.226562 253.4375 571.226562 234.453125 L 571.226562 212.96875 C 571.226562 207.417969 571.503906 204.644531 572.0625 204.644531 C 572.285156 204.421875 572.503906 204.308594 572.726562 204.308594 C 572.839844 204.308594 574.007812 204.753906 576.230469 205.640625 C 578.453125 206.53125 581.511719 207.417969 585.402344 208.308594 C 589.292969 209.195312 593.460938 209.640625 597.910156 209.640625 C 605.804688 209.640625 613.363281 208.085938 620.589844 204.976562 C 621.480469 204.53125 622.203125 204.308594 622.757812 204.308594 C 623.648438 204.308594 624.089844 205.308594 624.089844 207.308594 L 624.089844 209.472656 C 614.976562 220.242188 603.578125 225.625 589.90625 225.625 C 586.457031 225.625 583.34375 225.292969 580.566406 224.625 L 578.898438 224.292969 L 578.898438 252.9375 C 581.011719 251.382812 582.679688 250.160156 583.902344 249.273438 C 585.125 248.382812 587.125 247.496094 589.90625 246.609375 C 592.683594 245.71875 595.519531 245.277344 598.410156 245.277344 C 607.414062 245.277344 615.03125 248.882812 621.257812 256.101562 C 627.480469 263.316406 630.59375 271.863281 630.59375 281.746094 C 630.59375 291.957031 627.039062 300.671875 619.921875 307.890625 C 612.808594 315.105469 604.136719 318.769531 593.90625 318.878906 C 584.902344 318.878906 577.675781 315.882812 572.226562 309.886719 C 566.78125 303.894531 564.054688 297.121094 564.054688 289.570312 C 564.054688 286.90625 564.667969 284.796875 565.890625 283.242188 C 567.113281 281.691406 568.390625 280.691406 569.726562 280.246094 C 571.0625 279.800781 572.339844 279.582031 573.5625 279.582031 C 576.339844 279.582031 578.621094 280.523438 580.398438 282.410156 C 582.179688 284.296875 583.066406 286.519531 583.066406 289.074219 Z M 583.066406 289.074219 " fill-opacity="1" fill-rule="nonzero"/></g><g clip-path="url(#1f711f0f93)"><path fill="#000000" d="M 583.066406 515.882812 C 583.066406 518.546875 582.179688 520.765625 580.398438 522.542969 C 578.621094 524.320312 576.453125 525.207031 573.894531 525.207031 L 572.726562 525.207031 C 577.84375 533.976562 584.625 538.363281 593.074219 538.363281 C 600.855469 538.363281 606.527344 535.03125 610.082031 528.371094 C 612.195312 524.707031 613.25 517.601562 613.25 507.054688 C 613.25 495.621094 611.75 487.90625 608.75 483.910156 C 605.859375 480.246094 602.632812 478.414062 599.078125 478.414062 L 598.078125 478.414062 C 589.40625 478.414062 582.84375 482.1875 578.398438 489.738281 C 577.953125 490.515625 577.5625 490.957031 577.230469 491.070312 C 576.898438 491.179688 576.0625 491.289062 574.730469 491.402344 C 572.839844 491.402344 571.785156 491.070312 571.5625 490.402344 C 571.339844 489.957031 571.226562 480.246094 571.226562 461.261719 L 571.226562 439.777344 C 571.226562 434.226562 571.503906 431.453125 572.0625 431.453125 C 572.285156 431.230469 572.503906 431.121094 572.726562 431.121094 C 572.839844 431.121094 574.007812 431.5625 576.230469 432.453125 C 578.453125 433.339844 581.511719 434.226562 585.402344 435.117188 C 589.292969 436.003906 593.460938 436.449219 597.910156 436.449219 C 605.804688 436.449219 613.363281 434.894531 620.589844 431.785156 C 621.480469 431.339844 622.203125 431.121094 622.757812 431.121094 C 623.648438 431.121094 624.089844 432.117188 624.089844 434.117188 L 624.089844 436.28125 C 614.976562 447.050781 603.578125 452.433594 589.90625 452.433594 C 586.457031 452.433594 583.34375 452.101562 580.566406 451.4375 L 578.898438 451.101562 L 578.898438 479.746094 C 581.011719 478.191406 582.679688 476.96875 583.902344 476.082031 C 585.125 475.195312 587.125 474.304688 589.90625 473.417969 C 592.683594 472.527344 595.519531 472.085938 598.410156 472.085938 C 607.414062 472.085938 615.03125 475.691406 621.257812 482.910156 C 627.480469 490.125 630.59375 498.671875 630.59375 508.554688 C 630.59375 518.769531 627.039062 527.484375 619.921875 534.699219 C 612.808594 541.914062 604.136719 545.578125 593.90625 545.691406 C 584.902344 545.691406 577.675781 542.691406 572.226562 536.695312 C 566.78125 530.703125 564.054688 523.929688 564.054688 516.382812 C 564.054688 513.714844 564.667969 511.605469 565.890625 510.054688 C 567.113281 508.5 568.390625 507.5 569.726562 507.054688 C 571.0625 506.613281 572.339844 506.390625 573.5625 506.390625 C 576.339844 506.390625 578.621094 507.332031 580.398438 509.21875 C 582.179688 511.109375 583.066406 513.328125 583.066406 515.882812 Z M 583.066406 515.882812 " fill-opacity="1" fill-rule="nonzero"/></g><path fill="#000000" d="M 539.042969 391.152344 L 655.777344 391.152344 L 655.777344 381.160156 L 539.042969 381.160156 Z M 539.042969 391.152344 " fill-opacity="1" fill-rule="nonzero"/></svg>