<svg xmlns="http://www.w3.org/2000/svg" xmlns:xlink="http://www.w3.org/1999/xlink" width="1000" zoomAndPan="magnify" viewBox="0 0 750 749.999995" height="1000" preserveAspectRatio="xMidYMid meet" version="1.0"><defs><clipPath id="22bcb09577"><path d="M 125 204.308594 L 183 204.308594 L 183 316 L 125 316 Z M 125 204.308594 " clip-rule="nonzero"/></clipPath><clipPath id="9d9215fd88"><path d="M 202 204.308594 L 272 204.308594 L 272 319 L 202 319 Z M 202 204.308594 " clip-rule="nonzero"/></clipPath><clipPath id="d235d26fe9"><path d="M 202 431 L 272 431 L 272 545.691406 L 202 545.691406 Z M 202 431 " clip-rule="nonzero"/></clipPath><clipPath id="b1763ec679"><path d="M 562 204.308594 L 632 204.308594 L 632 319 L 562 319 Z M 562 204.308594 " clip-rule="nonzero"/></clipPath></defs><rect x="-75" width="900" fill="#ffffff" y="-74.999999" height="899.999994" fill-opacity="1"/><rect x="-75" width="900" fill="#ffffff" y="-74.999999" height="899.999994" fill-opacity="1"/><g clip-path="url(#22bcb09577)"><path fill="#000000" d="M 147.25 218.964844 L 145.082031 219.796875 C 143.523438 220.351562 141.300781 220.90625 138.410156 221.460938 C 135.519531 222.019531 132.296875 222.40625 128.738281 222.628906 L 125.570312 222.628906 L 125.570312 214.96875 L 128.738281 214.96875 C 133.960938 214.746094 138.796875 213.914062 143.246094 212.46875 C 147.691406 211.027344 150.804688 209.695312 152.585938 208.472656 C 154.363281 207.253906 155.917969 206.03125 157.253906 204.808594 C 157.476562 204.476562 158.144531 204.308594 159.253906 204.308594 C 160.253906 204.308594 161.199219 204.644531 162.089844 205.308594 L 162.089844 255.101562 L 162.257812 305.058594 C 163.035156 305.835938 163.703125 306.335938 164.257812 306.558594 C 164.8125 306.78125 166.148438 307 168.261719 307.222656 C 170.371094 307.445312 173.820312 307.558594 178.601562 307.558594 L 182.933594 307.558594 L 182.933594 315.21875 L 181.101562 315.21875 C 178.765625 314.882812 169.929688 314.71875 154.585938 314.71875 C 139.464844 314.71875 130.738281 314.882812 128.402344 315.21875 L 126.402344 315.21875 L 126.402344 307.558594 L 130.738281 307.558594 C 133.183594 307.558594 135.296875 307.558594 137.074219 307.558594 C 138.855469 307.558594 140.242188 307.5 141.246094 307.390625 C 142.246094 307.277344 143.132812 307.113281 143.914062 306.890625 C 144.691406 306.667969 145.136719 306.558594 145.246094 306.558594 C 145.359375 306.558594 145.691406 306.28125 146.246094 305.726562 C 146.804688 305.167969 147.136719 304.949219 147.25 305.058594 Z M 147.25 218.964844 " fill-opacity="1" fill-rule="nonzero"/></g><g clip-path="url(#9d9215fd88)"><path fill="#000000" d="M 216.289062 238.113281 C 213.285156 238.113281 210.953125 237.171875 209.285156 235.285156 C 207.617188 233.398438 206.726562 230.953125 206.617188 227.957031 C 206.617188 221.851562 209.285156 216.410156 214.621094 211.636719 C 219.957031 206.863281 226.40625 204.476562 233.964844 204.476562 C 237.855469 204.476562 240.300781 204.53125 241.300781 204.644531 C 249.53125 205.976562 255.8125 208.917969 260.148438 213.46875 C 264.484375 218.019531 266.707031 222.960938 266.816406 228.289062 C 266.816406 234.0625 264.925781 239.667969 261.148438 245.109375 C 257.367188 250.550781 252.140625 254.492188 245.472656 256.933594 L 244.972656 257.265625 C 244.972656 257.375 245.472656 257.542969 246.472656 257.765625 C 247.472656 257.988281 249.085938 258.488281 251.308594 259.265625 C 253.53125 260.042969 255.644531 261.207031 257.644531 262.761719 C 266.761719 268.644531 271.320312 276.417969 271.320312 286.074219 C 271.320312 294.84375 267.875 302.503906 260.980469 309.054688 C 254.085938 315.605469 245.359375 318.878906 234.800781 318.878906 C 225.90625 318.878906 218.234375 316.492188 211.785156 311.71875 C 205.335938 306.945312 202.113281 300.894531 202.113281 293.570312 C 202.113281 290.460938 203.113281 287.960938 205.113281 286.074219 C 207.117188 284.1875 209.617188 283.1875 212.621094 283.078125 C 215.730469 283.078125 218.289062 284.078125 220.289062 286.074219 C 222.292969 288.074219 223.292969 290.570312 223.292969 293.570312 C 223.292969 294.789062 223.125 295.898438 222.792969 296.898438 C 222.457031 297.898438 222.070312 298.785156 221.625 299.5625 C 221.179688 300.339844 220.570312 301.007812 219.789062 301.5625 C 219.011719 302.117188 218.34375 302.5625 217.789062 302.894531 C 217.234375 303.226562 216.675781 303.449219 216.121094 303.558594 C 215.566406 303.671875 215.121094 303.835938 214.789062 304.058594 L 214.121094 304.226562 C 219.789062 309.222656 226.683594 311.71875 234.800781 311.71875 C 240.914062 311.71875 245.527344 308.777344 248.640625 302.894531 C 250.53125 299.230469 251.476562 293.625 251.476562 286.074219 L 251.476562 282.746094 C 251.476562 272.199219 247.917969 265.148438 240.800781 261.59375 C 239.132812 260.929688 235.742188 260.539062 230.628906 260.429688 L 223.625 260.261719 L 223.125 259.929688 C 222.902344 259.597656 222.792969 258.710938 222.792969 257.265625 C 222.792969 255.265625 223.238281 254.269531 224.125 254.269531 C 227.238281 254.269531 230.464844 253.992188 233.796875 253.4375 C 237.578125 252.878906 241.023438 250.550781 244.136719 246.441406 C 247.25 242.332031 248.808594 236.117188 248.808594 227.789062 L 248.808594 226.457031 C 248.808594 220.128906 246.863281 215.746094 242.96875 213.304688 C 240.523438 211.75 237.910156 210.972656 235.132812 210.972656 C 231.574219 210.972656 228.296875 211.582031 225.292969 212.804688 C 222.292969 214.023438 220.179688 215.300781 218.957031 216.632812 C 217.734375 217.964844 217.121094 218.632812 217.121094 218.632812 L 217.621094 218.632812 C 217.957031 218.742188 218.402344 218.855469 218.957031 218.964844 C 219.511719 219.074219 220.066406 219.351562 220.625 219.796875 C 221.179688 220.242188 221.847656 220.628906 222.625 220.964844 C 223.402344 221.296875 223.960938 221.90625 224.292969 222.792969 C 224.625 223.683594 225.070312 224.515625 225.625 225.292969 C 226.183594 226.070312 226.347656 227.179688 226.128906 228.625 C 226.128906 231.066406 225.347656 233.230469 223.792969 235.117188 C 222.234375 237.003906 219.734375 238.003906 216.289062 238.113281 Z M 216.289062 238.113281 " fill-opacity="1" fill-rule="nonzero"/></g><path fill="#000000" d="M 147.25 445.773438 L 145.082031 446.605469 C 143.523438 447.160156 141.300781 447.714844 138.410156 448.273438 C 135.519531 448.828125 132.296875 449.214844 128.738281 449.4375 L 125.570312 449.4375 L 125.570312 441.777344 L 128.738281 441.777344 C 133.960938 441.554688 138.796875 440.722656 143.246094 439.277344 C 147.691406 437.835938 150.804688 436.503906 152.585938 435.28125 C 154.363281 434.0625 155.917969 432.839844 157.253906 431.617188 C 157.476562 431.285156 158.144531 431.121094 159.253906 431.121094 C 160.253906 431.121094 161.199219 431.453125 162.089844 432.117188 L 162.089844 481.910156 L 162.257812 531.867188 C 163.035156 532.644531 163.703125 533.144531 164.257812 533.367188 C 164.8125 533.589844 166.148438 533.8125 168.261719 534.03125 C 170.371094 534.253906 173.820312 534.367188 178.601562 534.367188 L 182.933594 534.367188 L 182.933594 542.027344 L 181.101562 542.027344 C 178.765625 541.691406 169.929688 541.527344 154.585938 541.527344 C 139.464844 541.527344 130.738281 541.691406 128.402344 542.027344 L 126.402344 542.027344 L 126.402344 534.367188 L 130.738281 534.367188 C 133.183594 534.367188 135.296875 534.367188 137.074219 534.367188 C 138.855469 534.367188 140.242188 534.308594 141.246094 534.199219 C 142.246094 534.089844 143.132812 533.921875 143.914062 533.699219 C 144.691406 533.476562 145.136719 533.367188 145.246094 533.367188 C 145.359375 533.367188 145.691406 533.089844 146.246094 532.535156 C 146.804688 531.980469 147.136719 531.757812 147.25 531.867188 Z M 147.25 445.773438 " fill-opacity="1" fill-rule="nonzero"/><g clip-path="url(#d235d26fe9)"><path fill="#000000" d="M 216.289062 464.925781 C 213.285156 464.925781 210.953125 463.980469 209.285156 462.09375 C 207.617188 460.207031 206.726562 457.761719 206.617188 454.765625 C 206.617188 448.660156 209.285156 443.21875 214.621094 438.445312 C 219.957031 433.671875 226.40625 431.285156 233.964844 431.285156 C 237.855469 431.285156 240.300781 431.339844 241.300781 431.453125 C 249.53125 432.785156 255.8125 435.726562 260.148438 440.277344 C 264.484375 444.832031 266.707031 449.769531 266.816406 455.097656 C 266.816406 460.871094 264.925781 466.480469 261.148438 471.917969 C 257.367188 477.359375 252.140625 481.300781 245.472656 483.742188 L 244.972656 484.074219 C 244.972656 484.1875 245.472656 484.351562 246.472656 484.574219 C 247.472656 484.796875 249.085938 485.296875 251.308594 486.074219 C 253.53125 486.851562 255.644531 488.015625 257.644531 489.570312 C 266.761719 495.453125 271.320312 503.226562 271.320312 512.882812 C 271.320312 521.65625 267.875 529.316406 260.980469 535.863281 C 254.085938 542.414062 245.359375 545.691406 234.800781 545.691406 C 225.90625 545.691406 218.234375 543.304688 211.785156 538.527344 C 205.335938 533.753906 202.113281 527.703125 202.113281 520.378906 C 202.113281 517.269531 203.113281 514.769531 205.113281 512.882812 C 207.117188 510.996094 209.617188 509.996094 212.621094 509.886719 C 215.730469 509.886719 218.289062 510.886719 220.289062 512.882812 C 222.292969 514.882812 223.292969 517.378906 223.292969 520.378906 C 223.292969 521.597656 223.125 522.707031 222.792969 523.707031 C 222.457031 524.707031 222.070312 525.59375 221.625 526.371094 C 221.179688 527.148438 220.570312 527.816406 219.789062 528.371094 C 219.011719 528.925781 218.34375 529.371094 217.789062 529.703125 C 217.234375 530.035156 216.675781 530.257812 216.121094 530.371094 C 215.566406 530.480469 215.121094 530.648438 214.789062 530.867188 L 214.121094 531.035156 C 219.789062 536.03125 226.683594 538.527344 234.800781 538.527344 C 240.914062 538.527344 245.527344 535.585938 248.640625 529.703125 C 250.53125 526.039062 251.476562 520.433594 251.476562 512.882812 L 251.476562 509.554688 C 251.476562 499.007812 247.917969 491.957031 240.800781 488.40625 C 239.132812 487.738281 235.742188 487.351562 230.628906 487.238281 L 223.625 487.074219 L 223.125 486.738281 C 222.902344 486.40625 222.792969 485.519531 222.792969 484.074219 C 222.792969 482.078125 223.238281 481.078125 224.125 481.078125 C 227.238281 481.078125 230.464844 480.800781 233.796875 480.246094 C 237.578125 479.691406 241.023438 477.359375 244.136719 473.25 C 247.25 469.144531 248.808594 462.925781 248.808594 454.601562 L 248.808594 453.265625 C 248.808594 446.9375 246.863281 442.554688 242.96875 440.113281 C 240.523438 438.558594 237.910156 437.78125 235.132812 437.78125 C 231.574219 437.78125 228.296875 438.390625 225.292969 439.613281 C 222.292969 440.832031 220.179688 442.109375 218.957031 443.441406 C 217.734375 444.773438 217.121094 445.441406 217.121094 445.441406 L 217.621094 445.441406 C 217.957031 445.550781 218.402344 445.664062 218.957031 445.773438 C 219.511719 445.886719 220.066406 446.164062 220.625 446.605469 C 221.179688 447.050781 221.847656 447.4375 222.625 447.773438 C 223.402344 448.105469 223.960938 448.714844 224.292969 449.605469 C 224.625 450.492188 225.070312 451.324219 225.625 452.101562 C 226.183594 452.878906 226.347656 453.988281 226.128906 455.433594 C 226.128906 457.875 225.347656 460.039062 223.792969 461.925781 C 222.234375 463.8125 219.734375 464.8125 216.289062 464.925781 Z M 216.289062 464.925781 " fill-opacity="1" fill-rule="nonzero"/></g><path fill="#000000" d="M 95.050781 391.152344 L 295.167969 391.152344 L 295.167969 381.160156 L 95.050781 381.160156 Z M 95.050781 391.152344 " fill-opacity="1" fill-rule="nonzero"/><path fill="#000000" d="M 457.292969 422.960938 C 457.292969 425.179688 456.128906 426.289062 453.792969 426.289062 C 453.238281 426.289062 452.015625 425.402344 450.125 423.625 C 448.234375 421.847656 443.007812 416.6875 434.449219 408.140625 L 417.105469 390.820312 L 399.59375 408.304688 C 387.808594 419.851562 381.75 425.734375 381.417969 425.957031 C 380.972656 426.179688 380.582031 426.289062 380.25 426.289062 C 379.359375 426.289062 378.582031 425.957031 377.914062 425.289062 C 377.25 424.625 376.859375 423.847656 376.746094 422.960938 C 376.746094 422.183594 377.527344 420.960938 379.082031 419.296875 C 380.640625 417.628906 385.863281 412.359375 394.757812 403.476562 L 412.101562 386.15625 L 394.757812 368.839844 C 385.753906 359.847656 380.527344 354.574219 379.082031 353.019531 C 377.636719 351.464844 376.859375 350.242188 376.746094 349.355469 C 376.746094 348.355469 377.082031 347.578125 377.75 347.023438 C 378.414062 346.46875 379.25 346.191406 380.25 346.191406 C 380.804688 346.191406 381.195312 346.246094 381.417969 346.359375 C 381.75 346.578125 387.808594 352.464844 399.59375 364.007812 L 417.105469 381.496094 L 434.449219 364.175781 C 443.007812 355.628906 448.234375 350.464844 450.125 348.6875 C 452.015625 346.914062 453.238281 346.023438 453.792969 346.023438 C 456.128906 346.023438 457.292969 347.132812 457.292969 349.355469 C 457.292969 350.132812 456.738281 351.132812 455.625 352.351562 C 454.515625 353.574219 449.066406 359.011719 439.285156 368.671875 L 421.941406 386.15625 L 439.285156 403.640625 C 448.621094 412.96875 453.960938 418.351562 455.292969 419.796875 C 456.628906 421.238281 457.292969 422.292969 457.292969 422.960938 Z M 457.292969 422.960938 " fill-opacity="1" fill-rule="nonzero"/><g clip-path="url(#b1763ec679)"><path fill="#000000" d="M 567.390625 245.777344 C 567.390625 245.777344 567.390625 241.5 567.390625 232.953125 C 567.390625 224.40625 570.394531 217.519531 576.398438 212.304688 C 582.402344 207.085938 589.292969 204.421875 597.074219 204.308594 C 604.96875 204.308594 611.972656 206.640625 618.085938 211.304688 C 624.203125 215.96875 627.261719 222.019531 627.261719 229.457031 C 627.261719 232.785156 626.648438 235.894531 625.425781 238.78125 C 624.203125 241.667969 622.757812 244 621.089844 245.777344 C 619.421875 247.550781 617.699219 249.105469 615.917969 250.4375 C 614.140625 251.769531 612.695312 252.769531 611.585938 253.4375 C 610.472656 254.101562 609.859375 254.546875 609.75 254.769531 L 612.085938 256.265625 C 613.640625 257.375 615.199219 258.488281 616.753906 259.597656 C 618.308594 260.707031 619.199219 261.316406 619.421875 261.429688 C 627.761719 267.980469 631.929688 276.25 631.929688 286.242188 C 631.929688 295.011719 628.707031 302.617188 622.257812 309.054688 C 615.808594 315.496094 607.46875 318.769531 597.242188 318.878906 C 587.238281 318.878906 579.007812 316.050781 572.5625 310.386719 C 566.113281 304.726562 562.890625 297.730469 562.890625 289.40625 C 562.890625 277.414062 570.058594 267.425781 584.402344 259.429688 L 581.398438 257.265625 C 579.066406 255.824219 577.5625 254.710938 576.898438 253.933594 C 570.558594 248.496094 567.390625 241.5 567.390625 232.953125 Z M 603.414062 250.9375 L 604.414062 250.273438 C 605.082031 249.828125 605.582031 249.496094 605.914062 249.273438 C 606.246094 249.050781 606.804688 248.660156 607.582031 248.105469 C 608.359375 247.550781 609.027344 246.996094 609.582031 246.441406 C 610.140625 245.886719 610.75 245.21875 611.417969 244.441406 C 612.085938 243.667969 612.695312 242.945312 613.25 242.277344 C 613.808594 241.613281 614.363281 240.722656 614.917969 239.613281 C 615.476562 238.503906 615.976562 237.558594 616.421875 236.78125 C 616.863281 236.007812 617.144531 234.894531 617.253906 233.453125 C 617.363281 232.007812 617.476562 230.789062 617.585938 229.789062 C 617.585938 225.015625 615.976562 220.964844 612.75 217.632812 C 609.527344 214.300781 605.804688 212.191406 601.578125 211.304688 C 600.800781 211.195312 598.964844 211.136719 596.074219 211.136719 C 591.515625 211.136719 587.238281 212.582031 583.234375 215.46875 C 579.230469 218.355469 577.175781 221.960938 577.0625 226.292969 C 577.0625 228.84375 577.785156 231.175781 579.230469 233.285156 C 580.675781 235.394531 582.121094 237.003906 583.566406 238.113281 C 585.011719 239.226562 587.792969 241 591.90625 243.445312 C 592.683594 244 593.296875 244.386719 593.742188 244.609375 Z M 597.410156 311.71875 C 603.855469 311.71875 609.417969 309.832031 614.085938 306.058594 C 618.753906 302.285156 621.089844 297.730469 621.089844 292.402344 C 621.089844 290.515625 620.8125 288.738281 620.253906 287.074219 C 619.699219 285.410156 619.03125 284.019531 618.253906 282.910156 C 617.476562 281.800781 616.253906 280.578125 614.585938 279.246094 C 612.917969 277.914062 611.640625 276.914062 610.75 276.25 C 609.859375 275.582031 608.25 274.527344 605.914062 273.085938 C 603.578125 271.640625 602.078125 270.699219 601.410156 270.253906 C 599.855469 269.253906 598.1875 268.199219 596.410156 267.089844 C 594.628906 265.980469 593.183594 265.035156 592.074219 264.261719 L 590.738281 263.425781 C 590.070312 263.425781 588.460938 264.371094 585.902344 266.257812 C 583.34375 268.144531 580.675781 271.199219 577.898438 275.417969 C 575.117188 279.636719 573.671875 284.1875 573.5625 289.074219 C 573.5625 295.621094 575.953125 301.007812 580.734375 305.226562 C 585.511719 309.445312 591.070312 311.609375 597.410156 311.71875 Z M 597.410156 311.71875 " fill-opacity="1" fill-rule="nonzero"/></g><path fill="#000000" d="M 591.238281 445.773438 L 589.070312 446.605469 C 587.515625 447.160156 585.292969 447.714844 582.402344 448.273438 C 579.511719 448.828125 576.285156 449.214844 572.726562 449.4375 L 569.558594 449.4375 L 569.558594 441.777344 L 572.726562 441.777344 C 577.953125 441.554688 582.789062 440.722656 587.238281 439.277344 C 591.683594 437.835938 594.796875 436.503906 596.574219 435.28125 C 598.355469 434.0625 599.910156 432.839844 601.246094 431.617188 C 601.46875 431.285156 602.132812 431.121094 603.246094 431.121094 C 604.246094 431.121094 605.191406 431.453125 606.082031 432.117188 L 606.082031 481.910156 L 606.246094 531.867188 C 607.027344 532.644531 607.691406 533.144531 608.25 533.367188 C 608.804688 533.589844 610.140625 533.8125 612.25 534.03125 C 614.363281 534.253906 617.808594 534.367188 622.589844 534.367188 L 626.925781 534.367188 L 626.925781 542.027344 L 625.09375 542.027344 C 622.757812 541.691406 613.917969 541.527344 598.578125 541.527344 C 583.457031 541.527344 574.730469 541.691406 572.394531 542.027344 L 570.394531 542.027344 L 570.394531 534.367188 L 574.730469 534.367188 C 577.175781 534.367188 579.289062 534.367188 581.066406 534.367188 C 582.84375 534.367188 584.234375 534.308594 585.234375 534.199219 C 586.234375 534.089844 587.125 533.921875 587.902344 533.699219 C 588.683594 533.476562 589.125 533.367188 589.238281 533.367188 C 589.347656 533.367188 589.683594 533.089844 590.238281 532.535156 C 590.792969 531.980469 591.128906 531.757812 591.238281 531.867188 Z M 591.238281 445.773438 " fill-opacity="1" fill-rule="nonzero"/><path fill="#000000" d="M 539.042969 391.152344 L 655.777344 391.152344 L 655.777344 381.160156 L 539.042969 381.160156 Z M 539.042969 391.152344 " fill-opacity="1" fill-rule="nonzero"/></svg>