<svg xmlns="http://www.w3.org/2000/svg" xmlns:xlink="http://www.w3.org/1999/xlink" width="1000" zoomAndPan="magnify" viewBox="0 0 750 749.999995" height="1000" preserveAspectRatio="xMidYMid meet" version="1.0"><defs><clipPath id="2a639ab21c"><path d="M 120 204.308594 L 187 204.308594 L 187 316 L 120 316 Z M 120 204.308594 " clip-rule="nonzero"/></clipPath><clipPath id="cb707aad57"><path d="M 203 204.308594 L 270 204.308594 L 270 319 L 203 319 Z M 203 204.308594 " clip-rule="nonzero"/></clipPath><clipPath id="f6eea1bbf0"><path d="M 161 431 L 229 431 L 229 545.691406 L 161 545.691406 Z M 161 431 " clip-rule="nonzero"/></clipPath><clipPath id="6c21bd89bd"><path d="M 562 204.308594 L 632 204.308594 L 632 319 L 562 319 Z M 562 204.308594 " clip-rule="nonzero"/></clipPath><clipPath id="7958d17b1f"><path d="M 564 431 L 631 431 L 631 545.691406 L 564 545.691406 Z M 564 431 " clip-rule="nonzero"/></clipPath></defs><rect x="-75" width="900" fill="#ffffff" y="-74.999999" height="899.999994" fill-opacity="1"/><rect x="-75" width="900" fill="#ffffff" y="-74.999999" height="899.999994" fill-opacity="1"/><g clip-path="url(#2a639ab21c)"><path fill="#000000" d="M 129.90625 243.777344 C 126.902344 243.777344 124.511719 242.777344 122.734375 240.78125 C 120.957031 238.78125 120.066406 236.339844 120.066406 233.453125 C 120.066406 225.570312 123.011719 218.742188 128.902344 212.96875 C 134.796875 207.195312 142.132812 204.308594 150.917969 204.308594 C 161.035156 204.308594 169.484375 207.417969 176.265625 213.636719 C 183.046875 219.851562 186.492188 227.902344 186.605469 237.78125 C 186.605469 242.554688 185.492188 247.109375 183.269531 251.4375 C 181.046875 255.765625 178.378906 259.542969 175.265625 262.761719 C 172.152344 265.980469 167.703125 270.089844 161.921875 275.085938 C 157.921875 278.527344 152.363281 283.632812 145.246094 290.40625 L 135.40625 299.730469 L 148.082031 299.898438 C 165.535156 299.898438 174.820312 299.617188 175.929688 299.0625 C 176.710938 298.84375 178.042969 293.902344 179.933594 284.242188 L 179.933594 283.742188 L 186.605469 283.742188 L 186.605469 284.242188 C 186.492188 284.574219 185.769531 289.628906 184.4375 299.398438 C 183.101562 309.167969 182.269531 314.273438 181.933594 314.71875 L 181.933594 315.21875 L 120.066406 315.21875 L 120.066406 310.054688 C 120.066406 309.277344 120.398438 308.445312 121.066406 307.558594 C 121.734375 306.667969 123.402344 304.726562 126.070312 301.726562 C 129.292969 298.175781 132.074219 295.066406 134.40625 292.402344 C 135.40625 291.292969 137.296875 289.238281 140.078125 286.242188 C 142.855469 283.242188 144.746094 281.191406 145.746094 280.078125 C 146.746094 278.96875 148.359375 277.136719 150.582031 274.585938 C 152.808594 272.03125 154.363281 270.144531 155.253906 268.921875 C 156.140625 267.703125 157.421875 266.035156 159.089844 263.925781 C 160.757812 261.816406 161.921875 260.042969 162.589844 258.597656 C 163.257812 257.15625 164.089844 255.546875 165.09375 253.769531 C 166.09375 251.992188 166.816406 250.214844 167.257812 248.441406 C 167.703125 246.664062 168.09375 245 168.425781 243.445312 C 168.761719 241.890625 168.925781 240.058594 168.925781 237.949219 C 168.925781 230.953125 167.039062 224.902344 163.257812 219.796875 C 159.476562 214.691406 154.085938 212.136719 147.082031 212.136719 C 143.414062 212.136719 140.1875 213.082031 137.410156 214.96875 C 134.628906 216.855469 132.683594 218.6875 131.574219 220.464844 C 130.460938 222.238281 129.90625 223.292969 129.90625 223.628906 C 129.90625 223.738281 130.183594 223.792969 130.738281 223.792969 C 132.738281 223.792969 134.796875 224.570312 136.910156 226.125 C 139.019531 227.679688 140.078125 230.234375 140.078125 233.785156 C 140.078125 236.5625 139.1875 238.890625 137.410156 240.78125 C 135.628906 242.667969 133.128906 243.667969 129.90625 243.777344 Z M 129.90625 243.777344 " fill-opacity="1" fill-rule="nonzero"/></g><g clip-path="url(#cb707aad57)"><path fill="#000000" d="M 222.457031 289.074219 C 222.457031 291.738281 221.570312 293.957031 219.789062 295.734375 C 218.011719 297.507812 215.84375 298.398438 213.285156 298.398438 L 212.117188 298.398438 C 217.234375 307.167969 224.015625 311.554688 232.464844 311.554688 C 240.246094 311.554688 245.917969 308.222656 249.472656 301.5625 C 251.585938 297.898438 252.644531 290.792969 252.644531 280.246094 C 252.644531 268.8125 251.140625 261.097656 248.140625 257.097656 C 245.25 253.4375 242.023438 251.605469 238.46875 251.605469 L 237.46875 251.605469 C 228.796875 251.605469 222.234375 255.378906 217.789062 262.925781 C 217.34375 263.703125 216.957031 264.148438 216.621094 264.261719 C 216.289062 264.371094 215.453125 264.480469 214.121094 264.59375 C 212.230469 264.59375 211.175781 264.261719 210.953125 263.59375 C 210.730469 263.148438 210.617188 253.4375 210.617188 234.453125 L 210.617188 212.96875 C 210.617188 207.417969 210.894531 204.644531 211.453125 204.644531 C 211.675781 204.421875 211.898438 204.308594 212.117188 204.308594 C 212.230469 204.308594 213.398438 204.753906 215.621094 205.640625 C 217.84375 206.53125 220.902344 207.417969 224.792969 208.308594 C 228.683594 209.195312 232.851562 209.640625 237.300781 209.640625 C 245.195312 209.640625 252.753906 208.085938 259.980469 204.976562 C 260.871094 204.53125 261.59375 204.308594 262.148438 204.308594 C 263.039062 204.308594 263.480469 205.308594 263.480469 207.308594 L 263.480469 209.472656 C 254.367188 220.242188 242.96875 225.625 229.296875 225.625 C 225.847656 225.625 222.738281 225.292969 219.957031 224.625 L 218.289062 224.292969 L 218.289062 252.9375 C 220.402344 251.382812 222.070312 250.160156 223.292969 249.273438 C 224.515625 248.382812 226.515625 247.496094 229.296875 246.609375 C 232.074219 245.71875 234.910156 245.277344 237.800781 245.277344 C 246.804688 245.277344 254.421875 248.882812 260.648438 256.101562 C 266.875 263.316406 269.984375 271.863281 269.984375 281.746094 C 269.984375 291.957031 266.429688 300.671875 259.3125 307.890625 C 252.199219 315.105469 243.527344 318.769531 233.296875 318.878906 C 224.292969 318.878906 217.066406 315.882812 211.617188 309.886719 C 206.171875 303.894531 203.449219 297.121094 203.449219 289.570312 C 203.449219 286.90625 204.058594 284.796875 205.28125 283.242188 C 206.503906 281.691406 207.785156 280.691406 209.117188 280.246094 C 210.453125 279.800781 211.730469 279.582031 212.953125 279.582031 C 215.730469 279.582031 218.011719 280.523438 219.789062 282.410156 C 221.570312 284.296875 222.457031 286.519531 222.457031 289.074219 Z M 222.457031 289.074219 " fill-opacity="1" fill-rule="nonzero"/></g><g clip-path="url(#f6eea1bbf0)"><path fill="#000000" d="M 180.765625 515.882812 C 180.765625 518.546875 179.878906 520.765625 178.097656 522.542969 C 176.320312 524.320312 174.152344 525.207031 171.59375 525.207031 L 170.429688 525.207031 C 175.542969 533.976562 182.324219 538.363281 190.773438 538.363281 C 198.554688 538.363281 204.226562 535.03125 207.785156 528.371094 C 209.894531 524.707031 210.953125 517.601562 210.953125 507.054688 C 210.953125 495.621094 209.449219 487.90625 206.449219 483.910156 C 203.558594 480.246094 200.335938 478.414062 196.777344 478.414062 L 195.777344 478.414062 C 187.105469 478.414062 180.546875 482.1875 176.097656 489.738281 C 175.652344 490.515625 175.265625 490.957031 174.929688 491.070312 C 174.597656 491.179688 173.761719 491.289062 172.429688 491.402344 C 170.539062 491.402344 169.484375 491.070312 169.261719 490.402344 C 169.039062 489.957031 168.925781 480.246094 168.925781 461.261719 L 168.925781 439.777344 C 168.925781 434.226562 169.207031 431.453125 169.761719 431.453125 C 169.984375 431.230469 170.207031 431.121094 170.429688 431.121094 C 170.539062 431.121094 171.707031 431.5625 173.929688 432.453125 C 176.152344 433.339844 179.210938 434.226562 183.101562 435.117188 C 186.992188 436.003906 191.164062 436.449219 195.609375 436.449219 C 203.503906 436.449219 211.0625 434.894531 218.289062 431.785156 C 219.179688 431.339844 219.902344 431.121094 220.457031 431.121094 C 221.347656 431.121094 221.792969 432.117188 221.792969 434.117188 L 221.792969 436.28125 C 212.675781 447.050781 201.28125 452.433594 187.605469 452.433594 C 184.160156 452.433594 181.046875 452.101562 178.265625 451.4375 L 176.597656 451.101562 L 176.597656 479.746094 C 178.710938 478.191406 180.378906 476.96875 181.601562 476.082031 C 182.824219 475.195312 184.824219 474.304688 187.605469 473.417969 C 190.382812 472.527344 193.21875 472.085938 196.109375 472.085938 C 205.113281 472.085938 212.730469 475.691406 218.957031 482.910156 C 225.183594 490.125 228.296875 498.671875 228.296875 508.554688 C 228.296875 518.769531 224.738281 527.484375 217.621094 534.699219 C 210.507812 541.914062 201.835938 545.578125 191.605469 545.691406 C 182.601562 545.691406 175.375 542.691406 169.929688 536.695312 C 164.480469 530.703125 161.757812 523.929688 161.757812 516.382812 C 161.757812 513.714844 162.367188 511.605469 163.589844 510.054688 C 164.8125 508.5 166.09375 507.5 167.425781 507.054688 C 168.761719 506.613281 170.039062 506.390625 171.261719 506.390625 C 174.042969 506.390625 176.320312 507.332031 178.097656 509.21875 C 179.878906 511.109375 180.765625 513.328125 180.765625 515.882812 Z M 180.765625 515.882812 " fill-opacity="1" fill-rule="nonzero"/></g><path fill="#000000" d="M 95.050781 391.152344 L 295.167969 391.152344 L 295.167969 381.160156 L 95.050781 381.160156 Z M 95.050781 391.152344 " fill-opacity="1" fill-rule="nonzero"/><path fill="#000000" d="M 457.292969 422.960938 C 457.292969 425.179688 456.128906 426.289062 453.792969 426.289062 C 453.238281 426.289062 452.015625 425.402344 450.125 423.625 C 448.234375 421.847656 443.007812 416.6875 434.449219 408.140625 L 417.105469 390.820312 L 399.59375 408.304688 C 387.808594 419.851562 381.75 425.734375 381.417969 425.957031 C 380.972656 426.179688 380.582031 426.289062 380.25 426.289062 C 379.359375 426.289062 378.582031 425.957031 377.914062 425.289062 C 377.25 424.625 376.859375 423.847656 376.746094 422.960938 C 376.746094 422.183594 377.527344 420.960938 379.082031 419.296875 C 380.640625 417.628906 385.863281 412.359375 394.757812 403.476562 L 412.101562 386.15625 L 394.757812 368.839844 C 385.753906 359.847656 380.527344 354.574219 379.082031 353.019531 C 377.636719 351.464844 376.859375 350.242188 376.746094 349.355469 C 376.746094 348.355469 377.082031 347.578125 377.75 347.023438 C 378.414062 346.46875 379.25 346.191406 380.25 346.191406 C 380.804688 346.191406 381.195312 346.246094 381.417969 346.359375 C 381.75 346.578125 387.808594 352.464844 399.59375 364.007812 L 417.105469 381.496094 L 434.449219 364.175781 C 443.007812 355.628906 448.234375 350.464844 450.125 348.6875 C 452.015625 346.914062 453.238281 346.023438 453.792969 346.023438 C 456.128906 346.023438 457.292969 347.132812 457.292969 349.355469 C 457.292969 350.132812 456.738281 351.132812 455.625 352.351562 C 454.515625 353.574219 449.066406 359.011719 439.285156 368.671875 L 421.941406 386.15625 L 439.285156 403.640625 C 448.621094 412.96875 453.960938 418.351562 455.292969 419.796875 C 456.628906 421.238281 457.292969 422.292969 457.292969 422.960938 Z M 457.292969 422.960938 " fill-opacity="1" fill-rule="nonzero"/><g clip-path="url(#6c21bd89bd)"><path fill="#000000" d="M 567.390625 245.777344 C 567.390625 245.777344 567.390625 241.5 567.390625 232.953125 C 567.390625 224.40625 570.394531 217.519531 576.398438 212.304688 C 582.402344 207.085938 589.292969 204.421875 597.074219 204.308594 C 604.96875 204.308594 611.972656 206.640625 618.085938 211.304688 C 624.203125 215.96875 627.261719 222.019531 627.261719 229.457031 C 627.261719 232.785156 626.648438 235.894531 625.425781 238.78125 C 624.203125 241.667969 622.757812 244 621.089844 245.777344 C 619.421875 247.550781 617.699219 249.105469 615.917969 250.4375 C 614.140625 251.769531 612.695312 252.769531 611.585938 253.4375 C 610.472656 254.101562 609.859375 254.546875 609.75 254.769531 L 612.085938 256.265625 C 613.640625 257.375 615.199219 258.488281 616.753906 259.597656 C 618.308594 260.707031 619.199219 261.316406 619.421875 261.429688 C 627.761719 267.980469 631.929688 276.25 631.929688 286.242188 C 631.929688 295.011719 628.707031 302.617188 622.257812 309.054688 C 615.808594 315.496094 607.46875 318.769531 597.242188 318.878906 C 587.238281 318.878906 579.007812 316.050781 572.5625 310.386719 C 566.113281 304.726562 562.890625 297.730469 562.890625 289.40625 C 562.890625 277.414062 570.058594 267.425781 584.402344 259.429688 L 581.398438 257.265625 C 579.066406 255.824219 577.5625 254.710938 576.898438 253.933594 C 570.558594 248.496094 567.390625 241.5 567.390625 232.953125 Z M 603.414062 250.9375 L 604.414062 250.273438 C 605.082031 249.828125 605.582031 249.496094 605.914062 249.273438 C 606.246094 249.050781 606.804688 248.660156 607.582031 248.105469 C 608.359375 247.550781 609.027344 246.996094 609.582031 246.441406 C 610.140625 245.886719 610.75 245.21875 611.417969 244.441406 C 612.085938 243.667969 612.695312 242.945312 613.25 242.277344 C 613.808594 241.613281 614.363281 240.722656 614.917969 239.613281 C 615.476562 238.503906 615.976562 237.558594 616.421875 236.78125 C 616.863281 236.007812 617.144531 234.894531 617.253906 233.453125 C 617.363281 232.007812 617.476562 230.789062 617.585938 229.789062 C 617.585938 225.015625 615.976562 220.964844 612.75 217.632812 C 609.527344 214.300781 605.804688 212.191406 601.578125 211.304688 C 600.800781 211.195312 598.964844 211.136719 596.074219 211.136719 C 591.515625 211.136719 587.238281 212.582031 583.234375 215.46875 C 579.230469 218.355469 577.175781 221.960938 577.0625 226.292969 C 577.0625 228.84375 577.785156 231.175781 579.230469 233.285156 C 580.675781 235.394531 582.121094 237.003906 583.566406 238.113281 C 585.011719 239.226562 587.792969 241 591.90625 243.445312 C 592.683594 244 593.296875 244.386719 593.742188 244.609375 Z M 597.410156 311.71875 C 603.855469 311.71875 609.417969 309.832031 614.085938 306.058594 C 618.753906 302.285156 621.089844 297.730469 621.089844 292.402344 C 621.089844 290.515625 620.8125 288.738281 620.253906 287.074219 C 619.699219 285.410156 619.03125 284.019531 618.253906 282.910156 C 617.476562 281.800781 616.253906 280.578125 614.585938 279.246094 C 612.917969 277.914062 611.640625 276.914062 610.75 276.25 C 609.859375 275.582031 608.25 274.527344 605.914062 273.085938 C 603.578125 271.640625 602.078125 270.699219 601.410156 270.253906 C 599.855469 269.253906 598.1875 268.199219 596.410156 267.089844 C 594.628906 265.980469 593.183594 265.035156 592.074219 264.261719 L 590.738281 263.425781 C 590.070312 263.425781 588.460938 264.371094 585.902344 266.257812 C 583.34375 268.144531 580.675781 271.199219 577.898438 275.417969 C 575.117188 279.636719 573.671875 284.1875 573.5625 289.074219 C 573.5625 295.621094 575.953125 301.007812 580.734375 305.226562 C 585.511719 309.445312 591.070312 311.609375 597.410156 311.71875 Z M 597.410156 311.71875 " fill-opacity="1" fill-rule="nonzero"/></g><g clip-path="url(#7958d17b1f)"><path fill="#000000" d="M 583.066406 515.882812 C 583.066406 518.546875 582.179688 520.765625 580.398438 522.542969 C 578.621094 524.320312 576.453125 525.207031 573.894531 525.207031 L 572.726562 525.207031 C 577.84375 533.976562 584.625 538.363281 593.074219 538.363281 C 600.855469 538.363281 606.527344 535.03125 610.082031 528.371094 C 612.195312 524.707031 613.25 517.601562 613.25 507.054688 C 613.25 495.621094 611.75 487.90625 608.75 483.910156 C 605.859375 480.246094 602.632812 478.414062 599.078125 478.414062 L 598.078125 478.414062 C 589.40625 478.414062 582.84375 482.1875 578.398438 489.738281 C 577.953125 490.515625 577.5625 490.957031 577.230469 491.070312 C 576.898438 491.179688 576.0625 491.289062 574.730469 491.402344 C 572.839844 491.402344 571.785156 491.070312 571.5625 490.402344 C 571.339844 489.957031 571.226562 480.246094 571.226562 461.261719 L 571.226562 439.777344 C 571.226562 434.226562 571.503906 431.453125 572.0625 431.453125 C 572.285156 431.230469 572.503906 431.121094 572.726562 431.121094 C 572.839844 431.121094 574.007812 431.5625 576.230469 432.453125 C 578.453125 433.339844 581.511719 434.226562 585.402344 435.117188 C 589.292969 436.003906 593.460938 436.449219 597.910156 436.449219 C 605.804688 436.449219 613.363281 434.894531 620.589844 431.785156 C 621.480469 431.339844 622.203125 431.121094 622.757812 431.121094 C 623.648438 431.121094 624.089844 432.117188 624.089844 434.117188 L 624.089844 436.28125 C 614.976562 447.050781 603.578125 452.433594 589.90625 452.433594 C 586.457031 452.433594 583.34375 452.101562 580.566406 451.4375 L 578.898438 451.101562 L 578.898438 479.746094 C 581.011719 478.191406 582.679688 476.96875 583.902344 476.082031 C 585.125 475.195312 587.125 474.304688 589.90625 473.417969 C 592.683594 472.527344 595.519531 472.085938 598.410156 472.085938 C 607.414062 472.085938 615.03125 475.691406 621.257812 482.910156 C 627.480469 490.125 630.59375 498.671875 630.59375 508.554688 C 630.59375 518.769531 627.039062 527.484375 619.921875 534.699219 C 612.808594 541.914062 604.136719 545.578125 593.90625 545.691406 C 584.902344 545.691406 577.675781 542.691406 572.226562 536.695312 C 566.78125 530.703125 564.054688 523.929688 564.054688 516.382812 C 564.054688 513.714844 564.667969 511.605469 565.890625 510.054688 C 567.113281 508.5 568.390625 507.5 569.726562 507.054688 C 571.0625 506.613281 572.339844 506.390625 573.5625 506.390625 C 576.339844 506.390625 578.621094 507.332031 580.398438 509.21875 C 582.179688 511.109375 583.066406 513.328125 583.066406 515.882812 Z M 583.066406 515.882812 " fill-opacity="1" fill-rule="nonzero"/></g><path fill="#000000" d="M 539.042969 391.152344 L 655.777344 391.152344 L 655.777344 381.160156 L 539.042969 381.160156 Z M 539.042969 391.152344 " fill-opacity="1" fill-rule="nonzero"/></svg>