<svg xmlns="http://www.w3.org/2000/svg" xmlns:xlink="http://www.w3.org/1999/xlink" width="1000" zoomAndPan="magnify" viewBox="0 0 750 749.999995" height="1000" preserveAspectRatio="xMidYMid meet" version="1.0"><rect x="-75" width="900" fill="#ffffff" y="-74.999999" height="899.999994" fill-opacity="1"/><rect x="-75" width="900" fill="#ffffff" y="-74.999999" height="899.999994" fill-opacity="1"/><path fill="#000000" d="M 138.328125 237.957031 L 136.425781 238.691406 C 135.0625 239.175781 133.113281 239.664062 130.578125 240.152344 C 128.042969 240.640625 125.214844 240.980469 122.09375 241.175781 L 119.316406 241.175781 L 119.316406 234.449219 L 122.09375 234.449219 C 126.675781 234.253906 130.917969 233.523438 134.820312 232.253906 C 138.71875 230.988281 141.449219 229.816406 143.007812 228.746094 C 144.570312 227.671875 145.933594 226.597656 147.105469 225.527344 C 147.300781 225.234375 147.882812 225.085938 148.859375 225.085938 C 149.738281 225.085938 150.566406 225.378906 151.34375 225.964844 L 151.34375 269.695312 L 151.492188 313.574219 C 152.175781 314.253906 152.757812 314.695312 153.246094 314.890625 C 153.734375 315.082031 154.90625 315.277344 156.757812 315.472656 C 158.609375 315.667969 161.632812 315.765625 165.824219 315.765625 L 169.628906 315.765625 L 169.628906 322.496094 L 168.019531 322.496094 C 165.972656 322.203125 158.21875 322.054688 144.765625 322.054688 C 131.503906 322.054688 123.847656 322.203125 121.800781 322.496094 L 120.046875 322.496094 L 120.046875 315.765625 L 123.847656 315.765625 C 125.996094 315.765625 127.847656 315.765625 129.40625 315.765625 C 130.96875 315.765625 132.1875 315.71875 133.0625 315.621094 C 133.941406 315.523438 134.722656 315.375 135.402344 315.179688 C 136.085938 314.988281 136.476562 314.890625 136.574219 314.890625 C 136.671875 314.890625 136.964844 314.644531 137.453125 314.15625 C 137.9375 313.671875 138.230469 313.476562 138.328125 313.574219 Z M 138.328125 237.957031 " fill-opacity="1" fill-rule="nonzero"/><path fill="#000000" d="M 186.445312 276.714844 C 186.445312 260.824219 190.394531 248.246094 198.292969 238.980469 C 206.191406 229.71875 214.96875 225.085938 224.621094 225.085938 C 231.347656 225.085938 236.175781 226.84375 239.097656 230.351562 C 242.023438 233.863281 243.488281 237.761719 243.488281 242.054688 C 243.488281 244.492188 242.804688 246.441406 241.4375 247.902344 C 240.074219 249.367188 238.171875 250.097656 235.734375 250.097656 C 233.492188 250.097656 231.640625 249.414062 230.175781 248.050781 C 228.714844 246.683594 227.984375 244.785156 227.984375 242.347656 C 227.984375 238.054688 230.273438 235.472656 234.859375 234.59375 C 232.710938 232.449219 229.691406 231.230469 225.789062 230.9375 C 218.867188 230.9375 213.164062 233.863281 208.679688 239.714844 C 204.09375 246.148438 201.804688 255.996094 201.804688 269.257812 L 201.949219 269.84375 C 202.4375 269.257812 202.828125 268.625 203.121094 267.941406 C 207.117188 262.089844 212.335938 259.164062 218.769531 259.164062 L 219.355469 259.164062 C 223.839844 259.164062 227.789062 260.089844 231.203125 261.945312 C 233.542969 263.308594 235.882812 265.257812 238.222656 267.792969 C 240.5625 270.328125 242.464844 273.109375 243.925781 276.132812 C 245.972656 280.910156 246.996094 286.125 246.996094 291.78125 L 246.996094 294.414062 C 246.996094 296.65625 246.753906 298.75 246.265625 300.703125 C 245.191406 306.453125 242.074219 312.0625 236.90625 317.519531 C 231.738281 322.980469 225.203125 325.710938 217.308594 325.710938 C 214.578125 325.710938 211.945312 325.320312 209.410156 324.542969 C 206.875 323.761719 204.144531 322.300781 201.21875 320.152344 C 198.292969 318.007812 195.808594 315.132812 193.757812 311.523438 C 191.710938 307.917969 189.957031 303.1875 188.496094 297.339844 C 187.03125 291.488281 186.347656 284.613281 186.445312 276.714844 Z M 217.890625 264.429688 C 214.96875 264.429688 212.433594 265.257812 210.285156 266.917969 C 208.140625 268.574219 206.484375 270.769531 205.3125 273.5 C 204.144531 276.230469 203.316406 279.007812 202.828125 281.835938 C 202.339844 284.664062 202.046875 287.683594 201.949219 290.902344 C 201.949219 298.996094 202.535156 304.796875 203.707031 308.308594 C 204.875 311.816406 206.726562 314.644531 209.261719 316.789062 C 211.601562 318.546875 214.1875 319.421875 217.015625 319.421875 C 221.988281 319.421875 225.789062 317.570312 228.421875 313.863281 C 229.691406 312.109375 230.566406 309.917969 231.054688 307.285156 C 231.542969 304.652344 231.785156 299.53125 231.785156 291.925781 C 231.785156 284.125 231.542969 278.910156 231.054688 276.277344 C 230.566406 273.644531 229.691406 271.449219 228.421875 269.695312 C 225.789062 266.1875 222.28125 264.429688 217.890625 264.429688 Z M 217.890625 264.429688 " fill-opacity="1" fill-rule="nonzero"/><path fill="#000000" d="M 159.683594 458.949219 C 157.050781 458.949219 154.953125 458.074219 153.394531 456.316406 C 151.832031 454.5625 151.054688 452.417969 151.054688 449.882812 C 151.054688 442.960938 153.636719 436.964844 158.804688 431.894531 C 163.972656 426.824219 170.40625 424.289062 178.109375 424.289062 C 186.984375 424.289062 194.394531 427.019531 200.339844 432.480469 C 206.289062 437.9375 209.3125 445.007812 209.410156 453.6875 C 209.410156 457.878906 208.433594 461.875 206.484375 465.679688 C 204.535156 469.480469 202.195312 472.796875 199.464844 475.625 C 196.734375 478.453125 192.832031 482.058594 187.761719 486.445312 C 184.253906 489.46875 179.378906 493.953125 173.136719 499.902344 L 164.507812 508.09375 L 175.625 508.238281 C 190.933594 508.238281 199.074219 507.996094 200.046875 507.507812 C 200.730469 507.3125 201.902344 502.972656 203.558594 494.492188 L 203.558594 494.050781 L 209.410156 494.050781 L 209.410156 494.492188 C 209.3125 494.785156 208.679688 499.21875 207.507812 507.800781 C 206.335938 516.378906 205.605469 520.867188 205.3125 521.253906 L 205.3125 521.695312 L 151.054688 521.695312 L 151.054688 517.160156 C 151.054688 516.476562 151.34375 515.746094 151.929688 514.96875 C 152.515625 514.1875 153.976562 512.480469 156.316406 509.847656 C 159.144531 506.726562 161.582031 503.996094 163.632812 501.65625 C 164.507812 500.683594 166.167969 498.878906 168.605469 496.246094 C 171.042969 493.613281 172.699219 491.808594 173.578125 490.835938 C 174.453125 489.859375 175.867188 488.25 177.816406 486.007812 C 179.769531 483.765625 181.132812 482.109375 181.914062 481.035156 C 182.691406 479.964844 183.8125 478.5 185.277344 476.648438 C 186.738281 474.796875 187.761719 473.234375 188.347656 471.96875 C 188.933594 470.699219 189.664062 469.285156 190.542969 467.726562 C 191.417969 466.167969 192.054688 464.605469 192.445312 463.046875 C 192.832031 461.484375 193.175781 460.023438 193.46875 458.660156 C 193.757812 457.292969 193.90625 455.683594 193.90625 453.832031 C 193.90625 447.6875 192.25 442.375 188.933594 437.890625 C 185.617188 433.40625 180.890625 431.164062 174.746094 431.164062 C 171.527344 431.164062 168.703125 431.992188 166.261719 433.648438 C 163.824219 435.304688 162.121094 436.914062 161.144531 438.476562 C 160.167969 440.035156 159.683594 440.960938 159.683594 441.253906 C 159.683594 441.351562 159.925781 441.398438 160.414062 441.398438 C 162.167969 441.398438 163.972656 442.082031 165.824219 443.449219 C 167.675781 444.8125 168.605469 447.054688 168.605469 450.175781 C 168.605469 452.613281 167.824219 454.660156 166.261719 456.316406 C 164.703125 457.976562 162.507812 458.851562 159.683594 458.949219 Z M 159.683594 458.949219 " fill-opacity="1" fill-rule="nonzero"/><path fill="#000000" d="M 92.550781 389.1875 L 268.058594 389.1875 L 268.058594 380.410156 L 92.550781 380.410156 Z M 92.550781 389.1875 " fill-opacity="1" fill-rule="nonzero"/><path fill="#000000" d="M 410.246094 417.121094 C 410.246094 419.070312 409.222656 420.046875 407.175781 420.046875 C 406.6875 420.046875 405.617188 419.265625 403.957031 417.707031 C 402.300781 416.148438 397.71875 411.613281 390.210938 404.105469 L 375 388.894531 L 359.644531 404.25 C 349.308594 414.390625 343.992188 419.558594 343.703125 419.753906 C 343.3125 419.949219 342.96875 420.046875 342.675781 420.046875 C 341.898438 420.046875 341.214844 419.753906 340.628906 419.167969 C 340.042969 418.585938 339.703125 417.902344 339.605469 417.121094 C 339.605469 416.4375 340.289062 415.367188 341.652344 413.902344 C 343.019531 412.441406 347.601562 407.808594 355.402344 400.011719 L 370.613281 384.800781 L 355.402344 369.589844 C 347.503906 361.691406 342.921875 357.058594 341.652344 355.695312 C 340.386719 354.328125 339.703125 353.257812 339.605469 352.476562 C 339.605469 351.597656 339.898438 350.917969 340.484375 350.429688 C 341.070312 349.941406 341.800781 349.699219 342.675781 349.699219 C 343.164062 349.699219 343.507812 349.746094 343.703125 349.84375 C 343.992188 350.039062 349.308594 355.207031 359.644531 365.347656 L 375 380.703125 L 390.210938 365.492188 C 397.71875 357.984375 402.300781 353.453125 403.957031 351.890625 C 405.617188 350.332031 406.6875 349.550781 407.175781 349.550781 C 409.222656 349.550781 410.246094 350.527344 410.246094 352.476562 C 410.246094 353.160156 409.761719 354.035156 408.785156 355.109375 C 407.808594 356.183594 403.03125 360.960938 394.453125 369.441406 L 379.242188 384.800781 L 394.453125 400.15625 C 402.640625 408.347656 407.324219 413.074219 408.492188 414.34375 C 409.664062 415.609375 410.246094 416.535156 410.246094 417.121094 Z M 410.246094 417.121094 " fill-opacity="1" fill-rule="nonzero"/><path fill="#000000" d="M 527.71875 237.957031 L 525.820312 238.691406 C 524.453125 239.175781 522.503906 239.664062 519.96875 240.152344 C 517.433594 240.640625 514.605469 240.980469 511.484375 241.175781 L 508.707031 241.175781 L 508.707031 234.449219 L 511.484375 234.449219 C 516.070312 234.253906 520.308594 233.523438 524.210938 232.253906 C 528.109375 230.988281 530.839844 229.816406 532.402344 228.746094 C 533.960938 227.671875 535.324219 226.597656 536.496094 225.527344 C 536.691406 225.234375 537.277344 225.085938 538.25 225.085938 C 539.128906 225.085938 539.957031 225.378906 540.738281 225.964844 L 540.738281 269.695312 L 540.882812 313.574219 C 541.566406 314.253906 542.152344 314.695312 542.636719 314.890625 C 543.125 315.082031 544.296875 315.277344 546.148438 315.472656 C 548 315.667969 551.023438 315.765625 555.214844 315.765625 L 559.019531 315.765625 L 559.019531 322.496094 L 557.410156 322.496094 C 555.363281 322.203125 547.609375 322.054688 534.15625 322.054688 C 520.894531 322.054688 513.242188 322.203125 511.195312 322.496094 L 509.4375 322.496094 L 509.4375 315.765625 L 513.242188 315.765625 C 515.386719 315.765625 517.238281 315.765625 518.796875 315.765625 C 520.359375 315.765625 521.578125 315.71875 522.457031 315.621094 C 523.332031 315.523438 524.113281 315.375 524.796875 315.179688 C 525.476562 314.988281 525.867188 314.890625 525.964844 314.890625 C 526.0625 314.890625 526.355469 314.644531 526.84375 314.15625 C 527.332031 313.671875 527.621094 313.476562 527.71875 313.574219 Z M 527.71875 237.957031 " fill-opacity="1" fill-rule="nonzero"/><path fill="#000000" d="M 588.269531 254.777344 C 585.636719 254.777344 583.589844 253.949219 582.128906 252.292969 C 580.664062 250.632812 579.886719 248.488281 579.789062 245.855469 C 579.789062 240.492188 582.128906 235.714844 586.808594 231.523438 C 591.488281 227.332031 597.144531 225.234375 603.773438 225.234375 C 607.1875 225.234375 609.332031 225.28125 610.207031 225.378906 C 617.425781 226.550781 622.933594 229.132812 626.734375 233.132812 C 630.539062 237.128906 632.488281 241.46875 632.585938 246.148438 C 632.585938 251.21875 630.929688 256.144531 627.613281 260.921875 C 624.296875 265.699219 619.714844 269.160156 613.863281 271.304688 L 613.425781 271.597656 C 613.425781 271.695312 613.863281 271.839844 614.742188 272.035156 C 615.621094 272.230469 617.035156 272.667969 618.984375 273.351562 C 620.933594 274.035156 622.785156 275.058594 624.542969 276.421875 C 632.535156 281.589844 636.535156 288.417969 636.535156 296.898438 C 636.535156 304.601562 633.511719 311.328125 627.46875 317.082031 C 621.421875 322.835938 613.765625 325.710938 604.503906 325.710938 C 596.703125 325.710938 589.976562 323.617188 584.320312 319.421875 C 578.667969 315.230469 575.839844 309.917969 575.839844 303.480469 C 575.839844 300.75 576.714844 298.558594 578.472656 296.898438 C 580.226562 295.242188 582.421875 294.363281 585.050781 294.265625 C 587.78125 294.265625 590.023438 295.144531 591.78125 296.898438 C 593.535156 298.65625 594.414062 300.847656 594.414062 303.480469 C 594.414062 304.554688 594.265625 305.527344 593.972656 306.40625 C 593.683594 307.285156 593.339844 308.0625 592.949219 308.746094 C 592.558594 309.429688 592.023438 310.011719 591.339844 310.5 C 590.660156 310.988281 590.074219 311.378906 589.585938 311.671875 C 589.097656 311.964844 588.613281 312.160156 588.125 312.257812 C 587.636719 312.355469 587.246094 312.5 586.953125 312.695312 L 586.367188 312.839844 C 591.339844 317.230469 597.386719 319.421875 604.503906 319.421875 C 609.867188 319.421875 613.914062 316.839844 616.644531 311.671875 C 618.300781 308.453125 619.128906 303.53125 619.128906 296.898438 L 619.128906 293.972656 C 619.128906 284.710938 616.011719 278.519531 609.769531 275.398438 C 608.308594 274.816406 605.332031 274.472656 600.847656 274.375 L 594.707031 274.230469 L 594.265625 273.9375 C 594.070312 273.644531 593.972656 272.863281 593.972656 271.597656 C 593.972656 269.84375 594.363281 268.964844 595.144531 268.964844 C 597.875 268.964844 600.703125 268.722656 603.628906 268.234375 C 606.941406 267.746094 609.964844 265.699219 612.695312 262.089844 C 615.425781 258.484375 616.789062 253.023438 616.789062 245.710938 L 616.789062 244.539062 C 616.789062 238.980469 615.082031 235.128906 611.671875 232.984375 C 609.527344 231.621094 607.234375 230.9375 604.796875 230.9375 C 601.675781 230.9375 598.800781 231.472656 596.167969 232.546875 C 593.535156 233.621094 591.683594 234.742188 590.609375 235.910156 C 589.539062 237.082031 589 237.664062 589 237.664062 L 589.441406 237.664062 C 589.734375 237.761719 590.121094 237.859375 590.609375 237.957031 C 591.097656 238.054688 591.585938 238.300781 592.074219 238.691406 C 592.558594 239.078125 593.144531 239.421875 593.828125 239.714844 C 594.511719 240.003906 594.996094 240.542969 595.289062 241.320312 C 595.582031 242.101562 595.972656 242.832031 596.460938 243.515625 C 596.949219 244.199219 597.09375 245.171875 596.898438 246.441406 C 596.898438 248.585938 596.21875 250.488281 594.851562 252.144531 C 593.488281 253.800781 591.292969 254.679688 588.269531 254.777344 Z M 588.269531 254.777344 " fill-opacity="1" fill-rule="nonzero"/><path fill="#000000" d="M 527.71875 437.160156 L 525.820312 437.890625 C 524.453125 438.378906 522.503906 438.863281 519.96875 439.351562 C 517.433594 439.839844 514.605469 440.179688 511.484375 440.375 L 508.707031 440.375 L 508.707031 433.648438 L 511.484375 433.648438 C 516.070312 433.453125 520.308594 432.722656 524.210938 431.453125 C 528.109375 430.1875 530.839844 429.015625 532.402344 427.945312 C 533.960938 426.871094 535.324219 425.800781 536.496094 424.726562 C 536.691406 424.433594 537.277344 424.289062 538.25 424.289062 C 539.128906 424.289062 539.957031 424.582031 540.738281 425.164062 L 540.738281 468.894531 L 540.882812 512.773438 C 541.566406 513.457031 542.152344 513.894531 542.636719 514.089844 C 543.125 514.285156 544.296875 514.480469 546.148438 514.675781 C 548 514.871094 551.023438 514.96875 555.214844 514.96875 L 559.019531 514.96875 L 559.019531 521.695312 L 557.410156 521.695312 C 555.363281 521.402344 547.609375 521.253906 534.15625 521.253906 C 520.894531 521.253906 513.242188 521.402344 511.195312 521.695312 L 509.4375 521.695312 L 509.4375 514.96875 L 513.242188 514.96875 C 515.386719 514.96875 517.238281 514.96875 518.796875 514.96875 C 520.359375 514.96875 521.578125 514.917969 522.457031 514.820312 C 523.332031 514.722656 524.113281 514.578125 524.796875 514.382812 C 525.476562 514.1875 525.867188 514.089844 525.964844 514.089844 C 526.0625 514.089844 526.355469 513.84375 526.84375 513.359375 C 527.332031 512.871094 527.621094 512.675781 527.71875 512.773438 Z M 527.71875 437.160156 " fill-opacity="1" fill-rule="nonzero"/><path fill="#000000" d="M 588.269531 453.976562 C 585.636719 453.976562 583.589844 453.148438 582.128906 451.492188 C 580.664062 449.835938 579.886719 447.6875 579.789062 445.054688 C 579.789062 439.695312 582.128906 434.917969 586.808594 430.722656 C 591.488281 426.53125 597.144531 424.433594 603.773438 424.433594 C 607.1875 424.433594 609.332031 424.484375 610.207031 424.582031 C 617.425781 425.75 622.933594 428.335938 626.734375 432.332031 C 630.539062 436.328125 632.488281 440.667969 632.585938 445.347656 C 632.585938 450.417969 630.929688 455.34375 627.613281 460.121094 C 624.296875 464.898438 619.714844 468.359375 613.863281 470.503906 L 613.425781 470.796875 C 613.425781 470.894531 613.863281 471.042969 614.742188 471.238281 C 615.621094 471.429688 617.035156 471.871094 618.984375 472.550781 C 620.933594 473.234375 622.785156 474.257812 624.542969 475.625 C 632.535156 480.792969 636.535156 487.617188 636.535156 496.101562 C 636.535156 503.800781 633.511719 510.53125 627.46875 516.28125 C 621.421875 522.035156 613.765625 524.914062 604.503906 524.914062 C 596.703125 524.914062 589.976562 522.816406 584.320312 518.625 C 578.667969 514.429688 575.839844 509.117188 575.839844 502.679688 C 575.839844 499.953125 576.714844 497.757812 578.472656 496.101562 C 580.226562 494.441406 582.421875 493.566406 585.050781 493.46875 C 587.78125 493.46875 590.023438 494.34375 591.78125 496.101562 C 593.535156 497.855469 594.414062 500.046875 594.414062 502.679688 C 594.414062 503.753906 594.265625 504.730469 593.972656 505.605469 C 593.683594 506.484375 593.339844 507.265625 592.949219 507.945312 C 592.558594 508.628906 592.023438 509.214844 591.339844 509.703125 C 590.660156 510.1875 590.074219 510.578125 589.585938 510.871094 C 589.097656 511.164062 588.613281 511.359375 588.125 511.457031 C 587.636719 511.554688 587.246094 511.699219 586.953125 511.894531 L 586.367188 512.042969 C 591.339844 516.429688 597.386719 518.625 604.503906 518.625 C 609.867188 518.625 613.914062 516.039062 616.644531 510.871094 C 618.300781 507.652344 619.128906 502.730469 619.128906 496.101562 L 619.128906 493.175781 C 619.128906 483.910156 616.011719 477.71875 609.769531 474.601562 C 608.308594 474.015625 605.332031 473.675781 600.847656 473.578125 L 594.707031 473.429688 L 594.265625 473.136719 C 594.070312 472.84375 593.972656 472.066406 593.972656 470.796875 C 593.972656 469.042969 594.363281 468.164062 595.144531 468.164062 C 597.875 468.164062 600.703125 467.921875 603.628906 467.433594 C 606.941406 466.945312 609.964844 464.898438 612.695312 461.289062 C 615.425781 457.683594 616.789062 452.222656 616.789062 444.910156 L 616.789062 443.738281 C 616.789062 438.183594 615.082031 434.332031 611.671875 432.1875 C 609.527344 430.820312 607.234375 430.136719 604.796875 430.136719 C 601.675781 430.136719 598.800781 430.675781 596.167969 431.746094 C 593.535156 432.820312 591.683594 433.941406 590.609375 435.109375 C 589.539062 436.28125 589 436.867188 589 436.867188 L 589.441406 436.867188 C 589.734375 436.964844 590.121094 437.0625 590.609375 437.160156 C 591.097656 437.257812 591.585938 437.5 592.074219 437.890625 C 592.558594 438.28125 593.144531 438.621094 593.828125 438.914062 C 594.511719 439.207031 594.996094 439.742188 595.289062 440.523438 C 595.582031 441.300781 595.972656 442.035156 596.460938 442.714844 C 596.949219 443.398438 597.09375 444.375 596.898438 445.640625 C 596.898438 447.785156 596.21875 449.6875 594.851562 451.34375 C 593.488281 453.003906 591.292969 453.878906 588.269531 453.976562 Z M 588.269531 453.976562 " fill-opacity="1" fill-rule="nonzero"/><path fill="#000000" d="M 481.941406 389.1875 L 657.449219 389.1875 L 657.449219 380.410156 L 481.941406 380.410156 Z M 481.941406 389.1875 " fill-opacity="1" fill-rule="nonzero"/></svg>