<svg xmlns="http://www.w3.org/2000/svg" xmlns:xlink="http://www.w3.org/1999/xlink" width="1000" zoomAndPan="magnify" viewBox="0 0 750 749.999995" height="1000" preserveAspectRatio="xMidYMid meet" version="1.0"><defs><clipPath id="f1fc56e419"><path d="M 122 430 L 194 430 L 194 545.691406 L 122 545.691406 Z M 122 430 " clip-rule="nonzero"/></clipPath><clipPath id="be873ef125"><path d="M 559 204.308594 L 633 204.308594 L 633 317 L 559 317 Z M 559 204.308594 " clip-rule="nonzero"/></clipPath></defs><rect x="-75" width="900" fill="#ffffff" y="-74.999999" height="899.999994" fill-opacity="1"/><rect x="-75" width="900" fill="#ffffff" y="-74.999999" height="899.999994" fill-opacity="1"/><path fill="#000000" d="M 124.746094 247.375 C 124.746094 247.375 124.746094 243.125 124.746094 234.621094 C 124.746094 226.121094 127.730469 219.273438 133.703125 214.082031 C 139.675781 208.894531 146.53125 206.242188 154.269531 206.132812 C 162.121094 206.132812 169.089844 208.453125 175.171875 213.089844 C 181.253906 217.726562 184.292969 223.746094 184.292969 231.144531 C 184.292969 234.457031 183.6875 237.546875 182.46875 240.417969 C 181.253906 243.289062 179.816406 245.609375 178.15625 247.375 C 176.5 249.144531 174.785156 250.6875 173.015625 252.015625 C 171.246094 253.339844 169.808594 254.332031 168.703125 254.996094 C 167.597656 255.65625 166.988281 256.101562 166.878906 256.320312 L 169.199219 257.8125 C 170.75 258.914062 172.296875 260.019531 173.84375 261.125 C 175.394531 262.226562 176.277344 262.835938 176.5 262.945312 C 184.792969 269.460938 188.9375 277.6875 188.9375 287.625 C 188.9375 296.351562 185.730469 303.914062 179.316406 310.320312 C 172.90625 316.722656 164.609375 319.980469 154.4375 320.089844 C 144.484375 320.089844 136.300781 317.273438 129.886719 311.644531 C 123.472656 306.011719 120.265625 299.054688 120.265625 290.773438 C 120.265625 278.847656 127.398438 268.910156 141.664062 260.957031 L 138.679688 258.804688 C 136.355469 257.371094 134.863281 256.265625 134.199219 255.492188 C 127.898438 250.082031 124.746094 243.125 124.746094 234.621094 Z M 160.574219 252.511719 L 161.570312 251.847656 C 162.234375 251.40625 162.730469 251.074219 163.0625 250.855469 C 163.394531 250.632812 163.949219 250.246094 164.722656 249.695312 C 165.496094 249.144531 166.160156 248.589844 166.710938 248.039062 C 167.265625 247.488281 167.875 246.824219 168.535156 246.050781 C 169.199219 245.277344 169.808594 244.558594 170.359375 243.898438 C 170.914062 243.234375 171.46875 242.351562 172.019531 241.246094 C 172.574219 240.144531 173.070312 239.203125 173.511719 238.433594 C 173.957031 237.660156 174.230469 236.554688 174.34375 235.117188 C 174.453125 233.683594 174.5625 232.46875 174.675781 231.476562 C 174.675781 226.726562 173.070312 222.695312 169.863281 219.382812 C 166.65625 216.070312 162.953125 213.972656 158.75 213.089844 C 157.976562 212.980469 156.152344 212.921875 153.277344 212.921875 C 148.742188 212.921875 144.484375 214.359375 140.503906 217.230469 C 136.523438 220.101562 134.476562 223.691406 134.367188 227.996094 C 134.367188 230.535156 135.085938 232.855469 136.523438 234.953125 C 137.960938 237.050781 139.398438 238.652344 140.835938 239.757812 C 142.273438 240.859375 145.039062 242.628906 149.128906 245.058594 C 149.902344 245.609375 150.511719 245.996094 150.953125 246.214844 Z M 154.601562 312.96875 C 161.015625 312.96875 166.546875 311.089844 171.191406 307.335938 C 175.835938 303.582031 178.15625 299.054688 178.15625 293.753906 C 178.15625 291.878906 177.878906 290.109375 177.328125 288.453125 C 176.773438 286.796875 176.113281 285.417969 175.335938 284.3125 C 174.5625 283.210938 173.347656 281.996094 171.6875 280.667969 C 170.03125 279.34375 168.757812 278.351562 167.875 277.6875 C 166.988281 277.023438 165.386719 275.976562 163.0625 274.539062 C 160.742188 273.105469 159.246094 272.167969 158.585938 271.726562 C 157.035156 270.730469 155.378906 269.683594 153.609375 268.578125 C 151.839844 267.472656 150.402344 266.535156 149.296875 265.761719 L 147.96875 264.933594 C 147.304688 264.933594 145.703125 265.871094 143.15625 267.75 C 140.613281 269.625 137.960938 272.664062 135.195312 276.859375 C 132.429688 281.054688 130.992188 285.582031 130.882812 290.441406 C 130.882812 296.957031 133.261719 302.3125 138.015625 306.507812 C 142.769531 310.703125 148.300781 312.859375 154.601562 312.96875 Z M 154.601562 312.96875 " fill-opacity="1" fill-rule="nonzero"/><g clip-path="url(#f1fc56e419)"><path fill="#000000" d="M 122.257812 466.183594 C 122.367188 465.960938 123.308594 459.945312 125.078125 448.128906 L 127.730469 430.40625 C 127.730469 430.183594 128.835938 430.074219 131.050781 430.074219 L 134.367188 430.074219 L 134.367188 430.738281 C 134.367188 431.839844 135.195312 432.78125 136.855469 433.554688 C 138.511719 434.324219 141.386719 434.824219 145.480469 435.042969 C 149.570312 435.265625 158.914062 435.375 173.511719 435.375 L 193.582031 435.375 L 193.582031 441.835938 L 182.304688 457.238281 C 181.308594 458.5625 179.648438 460.773438 177.328125 463.863281 C 175.003906 466.957031 173.511719 469 172.847656 469.992188 C 172.1875 470.988281 171.023438 472.753906 169.367188 475.292969 C 167.707031 477.832031 166.601562 479.820312 166.046875 481.257812 C 165.496094 482.691406 164.722656 484.734375 163.726562 487.386719 C 162.730469 490.035156 162.011719 492.574219 161.570312 495.003906 C 161.128906 497.433594 160.683594 500.414062 160.242188 503.949219 C 159.800781 507.484375 159.46875 511.238281 159.246094 515.210938 C 159.027344 519.1875 158.859375 523.714844 158.75 528.792969 C 158.75 530.339844 158.75 531.886719 158.75 533.433594 C 158.75 534.976562 158.695312 536.304688 158.585938 537.40625 L 158.585938 538.898438 C 158.140625 540.777344 157.089844 542.375 155.433594 543.703125 C 153.773438 545.027344 151.894531 545.691406 149.792969 545.691406 C 148.578125 545.691406 147.414062 545.523438 146.308594 545.191406 C 145.203125 544.863281 144.042969 543.8125 142.828125 542.046875 C 141.609375 540.277344 141 538.070312 141 535.421875 C 141 517.972656 146.363281 499.863281 157.089844 481.089844 C 159.304688 477.558594 163.949219 470.875 171.023438 461.046875 L 178.65625 450.613281 L 163.230469 450.613281 C 143.988281 450.613281 133.867188 450.945312 132.875 451.609375 C 132.210938 451.9375 131.601562 453.265625 131.050781 455.582031 C 130.496094 457.902344 129.945312 460.277344 129.390625 462.707031 L 128.894531 466.183594 L 128.894531 466.679688 L 122.257812 466.679688 Z M 122.257812 466.183594 " fill-opacity="1" fill-rule="nonzero"/></g><path fill="#000000" d="M 96.546875 391.976562 L 212.660156 391.976562 L 212.660156 382.039062 L 96.546875 382.039062 Z M 96.546875 391.976562 " fill-opacity="1" fill-rule="nonzero"/><path fill="#000000" d="M 373.921875 423.613281 C 373.921875 425.824219 372.761719 426.925781 370.4375 426.925781 C 369.882812 426.925781 368.667969 426.042969 366.789062 424.277344 C 364.910156 422.511719 359.710938 417.375 351.195312 408.871094 L 333.945312 391.648438 L 316.527344 409.039062 C 304.808594 420.523438 298.78125 426.375 298.449219 426.597656 C 298.007812 426.816406 297.621094 426.925781 297.289062 426.925781 C 296.402344 426.925781 295.628906 426.597656 294.964844 425.933594 C 294.300781 425.269531 293.914062 424.5 293.804688 423.613281 C 293.804688 422.839844 294.578125 421.628906 296.125 419.96875 C 297.675781 418.3125 302.871094 413.070312 311.71875 404.234375 L 328.96875 387.007812 L 311.71875 369.78125 C 302.761719 360.839844 297.5625 355.59375 296.125 354.046875 C 294.6875 352.5 293.914062 351.285156 293.804688 350.402344 C 293.804688 349.410156 294.136719 348.636719 294.800781 348.082031 C 295.460938 347.53125 296.292969 347.253906 297.289062 347.253906 C 297.839844 347.253906 298.226562 347.3125 298.449219 347.421875 C 298.78125 347.640625 304.808594 353.496094 316.527344 364.980469 L 333.945312 382.371094 L 351.195312 365.144531 C 359.710938 356.640625 364.910156 351.507812 366.789062 349.742188 C 368.667969 347.972656 369.882812 347.089844 370.4375 347.089844 C 372.761719 347.089844 373.921875 348.195312 373.921875 350.402344 C 373.921875 351.175781 373.367188 352.167969 372.261719 353.382812 C 371.15625 354.597656 365.738281 360.011719 356.007812 369.617188 L 338.753906 387.007812 L 356.007812 404.402344 C 365.296875 413.675781 370.601562 419.03125 371.929688 420.46875 C 373.257812 421.902344 373.921875 422.953125 373.921875 423.613281 Z M 373.921875 423.613281 " fill-opacity="1" fill-rule="nonzero"/><path fill="#000000" d="M 507.148438 220.707031 L 504.992188 221.535156 C 503.445312 222.089844 501.234375 222.640625 498.359375 223.191406 C 495.484375 223.746094 492.277344 224.132812 488.738281 224.351562 L 485.585938 224.351562 L 485.585938 216.734375 L 488.738281 216.734375 C 493.9375 216.511719 498.746094 215.683594 503.167969 214.25 C 507.59375 212.8125 510.6875 211.488281 512.457031 210.273438 C 514.226562 209.058594 515.777344 207.84375 517.101562 206.628906 C 517.324219 206.296875 517.988281 206.132812 519.09375 206.132812 C 520.089844 206.132812 521.027344 206.464844 521.914062 207.125 L 521.914062 256.652344 L 522.078125 306.34375 C 522.851562 307.117188 523.515625 307.613281 524.070312 307.832031 C 524.621094 308.054688 525.949219 308.277344 528.050781 308.496094 C 530.152344 308.71875 533.578125 308.828125 538.335938 308.828125 L 542.648438 308.828125 L 542.648438 316.445312 L 540.824219 316.445312 C 538.5 316.117188 529.710938 315.949219 514.449219 315.949219 C 499.410156 315.949219 490.730469 316.117188 488.40625 316.445312 L 486.417969 316.445312 L 486.417969 308.828125 L 490.730469 308.828125 C 493.160156 308.828125 495.261719 308.828125 497.03125 308.828125 C 498.800781 308.828125 500.183594 308.773438 501.179688 308.660156 C 502.175781 308.550781 503.058594 308.386719 503.832031 308.164062 C 504.605469 307.945312 505.050781 307.832031 505.160156 307.832031 C 505.269531 307.832031 505.601562 307.558594 506.15625 307.003906 C 506.707031 306.453125 507.039062 306.234375 507.148438 306.34375 Z M 507.148438 220.707031 " fill-opacity="1" fill-rule="nonzero"/><g clip-path="url(#be873ef125)"><path fill="#000000" d="M 631.390625 316.445312 C 629.398438 316.117188 622.265625 315.949219 609.992188 315.949219 C 597.164062 315.949219 589.753906 316.117188 587.765625 316.445312 L 586.273438 316.445312 L 586.273438 308.828125 L 591.414062 308.828125 C 593.625 308.828125 595.117188 308.828125 595.890625 308.828125 C 596.667969 308.828125 597.605469 308.71875 598.710938 308.496094 C 599.816406 308.277344 600.59375 308 601.035156 307.667969 C 601.476562 307.335938 601.863281 306.894531 602.195312 306.34375 C 602.304688 306.121094 602.363281 303.140625 602.363281 297.398438 L 602.363281 289.117188 L 559.402344 289.117188 L 559.402344 281.496094 L 584.445312 243.234375 C 601.367188 217.617188 609.9375 204.753906 610.15625 204.640625 C 610.378906 204.421875 611.539062 204.308594 613.640625 204.308594 L 616.625 204.308594 L 617.621094 205.304688 L 617.621094 281.496094 L 632.882812 281.496094 L 632.882812 289.117188 L 617.621094 289.117188 L 617.621094 297.5625 C 617.621094 302.09375 617.621094 304.742188 617.621094 305.515625 C 617.621094 306.289062 617.953125 306.949219 618.617188 307.503906 C 619.5 308.277344 622.652344 308.71875 628.070312 308.828125 L 632.882812 308.828125 L 632.882812 316.445312 Z M 603.355469 281.496094 L 603.355469 226.175781 L 567.03125 281.332031 L 585.109375 281.496094 Z M 603.355469 281.496094 " fill-opacity="1" fill-rule="nonzero"/></g><path fill="#000000" d="M 531.367188 470.988281 C 528.382812 470.988281 526.003906 469.992188 524.234375 468.003906 C 522.464844 466.019531 521.582031 463.589844 521.582031 460.71875 C 521.582031 452.878906 524.511719 446.085938 530.371094 440.34375 C 536.234375 434.601562 543.53125 431.730469 552.269531 431.730469 C 562.332031 431.730469 570.734375 434.824219 577.480469 441.007812 C 584.226562 447.191406 587.652344 455.195312 587.765625 465.023438 C 587.765625 469.773438 586.660156 474.300781 584.449219 478.605469 C 582.234375 482.914062 579.582031 486.667969 576.484375 489.871094 C 573.390625 493.070312 568.964844 497.15625 563.214844 502.125 C 559.234375 505.550781 553.707031 510.628906 546.628906 517.367188 L 536.839844 526.640625 L 549.449219 526.808594 C 566.808594 526.808594 576.042969 526.53125 577.148438 525.980469 C 577.921875 525.757812 579.25 520.84375 581.128906 511.238281 L 581.128906 510.738281 L 587.765625 510.738281 L 587.765625 511.238281 C 587.652344 511.566406 586.933594 516.59375 585.609375 526.308594 C 584.28125 536.027344 583.453125 541.105469 583.121094 541.546875 L 583.121094 542.046875 L 521.582031 542.046875 L 521.582031 536.910156 C 521.582031 536.136719 521.914062 535.308594 522.578125 534.425781 C 523.238281 533.542969 524.898438 531.609375 527.554688 528.628906 C 530.757812 525.09375 533.523438 522.003906 535.847656 519.351562 C 536.839844 518.25 538.722656 516.207031 541.484375 513.226562 C 544.25 510.242188 546.128906 508.199219 547.125 507.097656 C 548.121094 505.992188 549.722656 504.167969 551.9375 501.628906 C 554.148438 499.089844 555.695312 497.214844 556.582031 496 C 557.464844 494.785156 558.738281 493.128906 560.394531 491.027344 C 562.054688 488.929688 563.214844 487.164062 563.878906 485.730469 C 564.542969 484.292969 565.371094 482.691406 566.367188 480.925781 C 567.363281 479.160156 568.082031 477.390625 568.523438 475.625 C 568.964844 473.859375 569.351562 472.203125 569.683594 470.65625 C 570.015625 469.109375 570.183594 467.289062 570.183594 465.191406 C 570.183594 458.234375 568.300781 452.214844 564.542969 447.136719 C 560.78125 442.054688 555.417969 439.515625 548.453125 439.515625 C 544.804688 439.515625 541.597656 440.453125 538.832031 442.332031 C 536.066406 444.207031 534.132812 446.03125 533.027344 447.796875 C 531.921875 449.566406 531.367188 450.613281 531.367188 450.945312 C 531.367188 451.054688 531.644531 451.109375 532.195312 451.109375 C 534.1875 451.109375 536.234375 451.882812 538.335938 453.429688 C 540.4375 454.976562 541.484375 457.515625 541.484375 461.046875 C 541.484375 463.808594 540.601562 466.128906 538.832031 468.003906 C 537.0625 469.882812 534.574219 470.875 531.367188 470.988281 Z M 531.367188 470.988281 " fill-opacity="1" fill-rule="nonzero"/><path fill="#000000" d="M 455.230469 391.976562 L 654.28125 391.976562 L 654.28125 382.039062 L 455.230469 382.039062 Z M 455.230469 391.976562 " fill-opacity="1" fill-rule="nonzero"/></svg>