<svg xmlns="http://www.w3.org/2000/svg" xmlns:xlink="http://www.w3.org/1999/xlink" width="1000" zoomAndPan="magnify" viewBox="0 0 750 749.999995" height="1000" preserveAspectRatio="xMidYMid meet" version="1.0"><defs><clipPath id="410ee5309c"><path d="M 118 204.308594 L 188 204.308594 L 188 319 L 118 319 Z M 118 204.308594 " clip-rule="nonzero"/></clipPath><clipPath id="9b5d957812"><path d="M 118 431 L 188 431 L 188 545.691406 L 118 545.691406 Z M 118 431 " clip-rule="nonzero"/></clipPath><clipPath id="0f24614073"><path d="M 486 204.308594 L 544 204.308594 L 544 316 L 486 316 Z M 486 204.308594 " clip-rule="nonzero"/></clipPath><clipPath id="ff6a689e81"><path d="M 562 204.308594 L 632 204.308594 L 632 319 L 562 319 Z M 562 204.308594 " clip-rule="nonzero"/></clipPath><clipPath id="3b824e9dfa"><path d="M 521 431 L 591 431 L 591 545.691406 L 521 545.691406 Z M 521 431 " clip-rule="nonzero"/></clipPath></defs><rect x="-75" width="900" fill="#ffffff" y="-74.999999" height="899.999994" fill-opacity="1"/><rect x="-75" width="900" fill="#ffffff" y="-74.999999" height="899.999994" fill-opacity="1"/><g clip-path="url(#410ee5309c)"><path fill="#000000" d="M 123.402344 245.777344 C 123.402344 245.777344 123.402344 241.5 123.402344 232.953125 C 123.402344 224.40625 126.402344 217.519531 132.40625 212.304688 C 138.410156 207.085938 145.300781 204.421875 153.085938 204.308594 C 160.976562 204.308594 167.980469 206.640625 174.097656 211.304688 C 180.210938 215.96875 183.269531 222.019531 183.269531 229.457031 C 183.269531 232.785156 182.65625 235.894531 181.433594 238.78125 C 180.210938 241.667969 178.765625 244 177.097656 245.777344 C 175.429688 247.550781 173.707031 249.105469 171.929688 250.4375 C 170.148438 251.769531 168.703125 252.769531 167.59375 253.4375 C 166.480469 254.101562 165.871094 254.546875 165.757812 254.769531 L 168.09375 256.265625 C 169.648438 257.375 171.207031 258.488281 172.761719 259.597656 C 174.320312 260.707031 175.207031 261.316406 175.429688 261.429688 C 183.769531 267.980469 187.9375 276.25 187.9375 286.242188 C 187.9375 295.011719 184.714844 302.617188 178.265625 309.054688 C 171.816406 315.496094 163.480469 318.769531 153.25 318.878906 C 143.246094 318.878906 135.019531 316.050781 128.570312 310.386719 C 122.121094 304.726562 118.898438 297.730469 118.898438 289.40625 C 118.898438 277.414062 126.070312 267.425781 140.410156 259.429688 L 137.410156 257.265625 C 135.074219 255.824219 133.574219 254.710938 132.90625 253.933594 C 126.570312 248.496094 123.402344 241.5 123.402344 232.953125 Z M 159.421875 250.9375 L 160.421875 250.273438 C 161.089844 249.828125 161.589844 249.496094 161.921875 249.273438 C 162.257812 249.050781 162.8125 248.660156 163.589844 248.105469 C 164.371094 247.550781 165.035156 246.996094 165.59375 246.441406 C 166.148438 245.886719 166.757812 245.21875 167.425781 244.441406 C 168.09375 243.667969 168.703125 242.945312 169.261719 242.277344 C 169.816406 241.613281 170.371094 240.722656 170.929688 239.613281 C 171.484375 238.503906 171.984375 237.558594 172.429688 236.78125 C 172.875 236.007812 173.152344 234.894531 173.261719 233.453125 C 173.375 232.007812 173.484375 230.789062 173.597656 229.789062 C 173.597656 225.015625 171.984375 220.964844 168.761719 217.632812 C 165.535156 214.300781 161.8125 212.191406 157.585938 211.304688 C 156.808594 211.195312 154.976562 211.136719 152.085938 211.136719 C 147.527344 211.136719 143.246094 212.582031 139.242188 215.46875 C 135.242188 218.355469 133.183594 221.960938 133.074219 226.292969 C 133.074219 228.84375 133.796875 231.175781 135.242188 233.285156 C 136.6875 235.394531 138.132812 237.003906 139.578125 238.113281 C 141.023438 239.226562 143.800781 241 147.914062 243.445312 C 148.695312 244 149.304688 244.386719 149.75 244.609375 Z M 153.417969 311.71875 C 159.867188 311.71875 165.425781 309.832031 170.09375 306.058594 C 174.765625 302.285156 177.097656 297.730469 177.097656 292.402344 C 177.097656 290.515625 176.820312 288.738281 176.265625 287.074219 C 175.710938 285.410156 175.042969 284.019531 174.265625 282.910156 C 173.484375 281.800781 172.261719 280.578125 170.59375 279.246094 C 168.925781 277.914062 167.648438 276.914062 166.757812 276.25 C 165.871094 275.582031 164.257812 274.527344 161.921875 273.085938 C 159.589844 271.640625 158.085938 270.699219 157.421875 270.253906 C 155.863281 269.253906 154.195312 268.199219 152.417969 267.089844 C 150.640625 265.980469 149.195312 265.035156 148.082031 264.261719 L 146.746094 263.425781 C 146.082031 263.425781 144.46875 264.371094 141.910156 266.257812 C 139.355469 268.144531 136.6875 271.199219 133.90625 275.417969 C 131.128906 279.636719 129.683594 284.1875 129.570312 289.074219 C 129.570312 295.621094 131.960938 301.007812 136.742188 305.226562 C 141.523438 309.445312 147.082031 311.609375 153.417969 311.71875 Z M 153.417969 311.71875 " fill-opacity="1" fill-rule="nonzero"/></g><g clip-path="url(#9b5d957812)"><path fill="#000000" d="M 118.730469 489.902344 C 118.730469 471.808594 123.234375 457.484375 132.238281 446.9375 C 141.246094 436.394531 151.25 431.121094 162.257812 431.121094 C 169.929688 431.121094 175.429688 433.117188 178.765625 437.113281 C 182.101562 441.109375 183.769531 445.550781 183.769531 450.4375 C 183.769531 453.210938 182.992188 455.433594 181.433594 457.097656 C 179.878906 458.761719 177.710938 459.59375 174.929688 459.59375 C 172.375 459.59375 170.261719 458.816406 168.59375 457.265625 C 166.925781 455.710938 166.09375 453.546875 166.09375 450.769531 C 166.09375 445.886719 168.703125 442.941406 173.929688 441.945312 C 171.484375 439.5 168.039062 438.113281 163.589844 437.78125 C 155.699219 437.78125 149.195312 441.109375 144.078125 447.773438 C 138.855469 455.097656 136.242188 466.3125 136.242188 481.410156 L 136.410156 482.078125 C 136.964844 481.410156 137.410156 480.6875 137.742188 479.910156 C 142.300781 473.25 148.25 469.921875 155.585938 469.921875 L 156.253906 469.921875 C 161.367188 469.921875 165.871094 470.976562 169.761719 473.085938 C 172.429688 474.636719 175.097656 476.859375 177.765625 479.746094 C 180.433594 482.632812 182.601562 485.796875 184.269531 489.238281 C 186.605469 494.675781 187.773438 500.617188 187.773438 507.054688 L 187.773438 510.054688 C 187.773438 512.605469 187.492188 514.992188 186.9375 517.214844 C 185.714844 523.761719 182.15625 530.148438 176.265625 536.363281 C 170.371094 542.582031 162.925781 545.691406 153.917969 545.691406 C 150.804688 545.691406 147.804688 545.246094 144.914062 544.355469 C 142.023438 543.46875 138.910156 541.804688 135.574219 539.363281 C 132.238281 536.917969 129.40625 533.644531 127.070312 529.535156 C 124.734375 525.429688 122.734375 520.042969 121.066406 513.382812 C 119.398438 506.722656 118.621094 498.894531 118.730469 489.902344 Z M 154.585938 475.914062 C 151.25 475.914062 148.359375 476.859375 145.914062 478.746094 C 143.46875 480.632812 141.578125 483.132812 140.242188 486.238281 C 138.910156 489.347656 137.964844 492.511719 137.410156 495.730469 C 136.851562 498.953125 136.519531 502.394531 136.410156 506.054688 C 136.410156 515.269531 137.074219 521.875 138.410156 525.871094 C 139.742188 529.871094 141.855469 533.089844 144.746094 535.53125 C 147.414062 537.53125 150.359375 538.527344 153.585938 538.527344 C 159.253906 538.527344 163.589844 536.417969 166.59375 532.199219 C 168.039062 530.203125 169.039062 527.703125 169.59375 524.707031 C 170.148438 521.710938 170.429688 515.882812 170.429688 507.222656 C 170.429688 498.339844 170.148438 492.402344 169.59375 489.402344 C 169.039062 486.40625 168.039062 483.910156 166.59375 481.910156 C 163.589844 477.914062 159.589844 475.914062 154.585938 475.914062 Z M 154.585938 475.914062 " fill-opacity="1" fill-rule="nonzero"/></g><path fill="#000000" d="M 95.050781 391.152344 L 211.785156 391.152344 L 211.785156 381.160156 L 95.050781 381.160156 Z M 95.050781 391.152344 " fill-opacity="1" fill-rule="nonzero"/><path fill="#000000" d="M 373.914062 422.960938 C 373.914062 425.179688 372.746094 426.289062 370.410156 426.289062 C 369.855469 426.289062 368.632812 425.402344 366.742188 423.625 C 364.851562 421.847656 359.625 416.6875 351.066406 408.140625 L 333.722656 390.820312 L 316.210938 408.304688 C 304.429688 419.851562 298.367188 425.734375 298.035156 425.957031 C 297.589844 426.179688 297.203125 426.289062 296.867188 426.289062 C 295.980469 426.289062 295.199219 425.957031 294.535156 425.289062 C 293.867188 424.625 293.476562 423.847656 293.367188 422.960938 C 293.367188 422.183594 294.144531 420.960938 295.699219 419.296875 C 297.257812 417.628906 302.484375 412.359375 311.375 403.476562 L 328.71875 386.15625 L 311.375 368.839844 C 302.371094 359.847656 297.144531 354.574219 295.699219 353.019531 C 294.253906 351.464844 293.476562 350.242188 293.367188 349.355469 C 293.367188 348.355469 293.699219 347.578125 294.367188 347.023438 C 295.035156 346.46875 295.867188 346.191406 296.867188 346.191406 C 297.425781 346.191406 297.8125 346.246094 298.035156 346.359375 C 298.367188 346.578125 304.429688 352.464844 316.210938 364.007812 L 333.722656 381.496094 L 351.066406 364.175781 C 359.625 355.628906 364.851562 350.464844 366.742188 348.6875 C 368.632812 346.914062 369.855469 346.023438 370.410156 346.023438 C 372.746094 346.023438 373.914062 347.132812 373.914062 349.355469 C 373.914062 350.132812 373.355469 351.132812 372.246094 352.351562 C 371.132812 353.574219 365.6875 359.011719 355.902344 368.671875 L 338.558594 386.15625 L 355.902344 403.640625 C 365.242188 412.96875 370.578125 418.351562 371.910156 419.796875 C 373.246094 421.238281 373.914062 422.292969 373.914062 422.960938 Z M 373.914062 422.960938 " fill-opacity="1" fill-rule="nonzero"/><g clip-path="url(#0f24614073)"><path fill="#000000" d="M 507.855469 218.964844 L 505.6875 219.796875 C 504.132812 220.351562 501.910156 220.90625 499.019531 221.460938 C 496.128906 222.019531 492.902344 222.40625 489.347656 222.628906 L 486.179688 222.628906 L 486.179688 214.96875 L 489.347656 214.96875 C 494.570312 214.746094 499.40625 213.914062 503.855469 212.46875 C 508.300781 211.027344 511.414062 209.695312 513.195312 208.472656 C 514.972656 207.253906 516.527344 206.03125 517.863281 204.808594 C 518.085938 204.476562 518.753906 204.308594 519.863281 204.308594 C 520.863281 204.308594 521.808594 204.644531 522.699219 205.308594 L 522.699219 255.101562 L 522.867188 305.058594 C 523.644531 305.835938 524.3125 306.335938 524.867188 306.558594 C 525.421875 306.78125 526.757812 307 528.871094 307.222656 C 530.980469 307.445312 534.429688 307.558594 539.207031 307.558594 L 543.542969 307.558594 L 543.542969 315.21875 L 541.710938 315.21875 C 539.375 314.882812 530.535156 314.71875 515.195312 314.71875 C 500.074219 314.71875 491.347656 314.882812 489.011719 315.21875 L 487.011719 315.21875 L 487.011719 307.558594 L 491.347656 307.558594 C 493.792969 307.558594 495.90625 307.558594 497.683594 307.558594 C 499.464844 307.558594 500.851562 307.5 501.855469 307.390625 C 502.855469 307.277344 503.742188 307.113281 504.523438 306.890625 C 505.300781 306.667969 505.746094 306.558594 505.855469 306.558594 C 505.96875 306.558594 506.300781 306.28125 506.855469 305.726562 C 507.414062 305.167969 507.746094 304.949219 507.855469 305.058594 Z M 507.855469 218.964844 " fill-opacity="1" fill-rule="nonzero"/></g><g clip-path="url(#ff6a689e81)"><path fill="#000000" d="M 567.390625 245.777344 C 567.390625 245.777344 567.390625 241.5 567.390625 232.953125 C 567.390625 224.40625 570.394531 217.519531 576.398438 212.304688 C 582.402344 207.085938 589.292969 204.421875 597.074219 204.308594 C 604.96875 204.308594 611.972656 206.640625 618.085938 211.304688 C 624.203125 215.96875 627.261719 222.019531 627.261719 229.457031 C 627.261719 232.785156 626.648438 235.894531 625.425781 238.78125 C 624.203125 241.667969 622.757812 244 621.089844 245.777344 C 619.421875 247.550781 617.699219 249.105469 615.917969 250.4375 C 614.140625 251.769531 612.695312 252.769531 611.585938 253.4375 C 610.472656 254.101562 609.859375 254.546875 609.75 254.769531 L 612.085938 256.265625 C 613.640625 257.375 615.199219 258.488281 616.753906 259.597656 C 618.308594 260.707031 619.199219 261.316406 619.421875 261.429688 C 627.761719 267.980469 631.929688 276.25 631.929688 286.242188 C 631.929688 295.011719 628.707031 302.617188 622.257812 309.054688 C 615.808594 315.496094 607.46875 318.769531 597.242188 318.878906 C 587.238281 318.878906 579.007812 316.050781 572.5625 310.386719 C 566.113281 304.726562 562.890625 297.730469 562.890625 289.40625 C 562.890625 277.414062 570.058594 267.425781 584.402344 259.429688 L 581.398438 257.265625 C 579.066406 255.824219 577.5625 254.710938 576.898438 253.933594 C 570.558594 248.496094 567.390625 241.5 567.390625 232.953125 Z M 603.414062 250.9375 L 604.414062 250.273438 C 605.082031 249.828125 605.582031 249.496094 605.914062 249.273438 C 606.246094 249.050781 606.804688 248.660156 607.582031 248.105469 C 608.359375 247.550781 609.027344 246.996094 609.582031 246.441406 C 610.140625 245.886719 610.75 245.21875 611.417969 244.441406 C 612.085938 243.667969 612.695312 242.945312 613.25 242.277344 C 613.808594 241.613281 614.363281 240.722656 614.917969 239.613281 C 615.476562 238.503906 615.976562 237.558594 616.421875 236.78125 C 616.863281 236.007812 617.144531 234.894531 617.253906 233.453125 C 617.363281 232.007812 617.476562 230.789062 617.585938 229.789062 C 617.585938 225.015625 615.976562 220.964844 612.75 217.632812 C 609.527344 214.300781 605.804688 212.191406 601.578125 211.304688 C 600.800781 211.195312 598.964844 211.136719 596.074219 211.136719 C 591.515625 211.136719 587.238281 212.582031 583.234375 215.46875 C 579.230469 218.355469 577.175781 221.960938 577.0625 226.292969 C 577.0625 228.84375 577.785156 231.175781 579.230469 233.285156 C 580.675781 235.394531 582.121094 237.003906 583.566406 238.113281 C 585.011719 239.226562 587.792969 241 591.90625 243.445312 C 592.683594 244 593.296875 244.386719 593.742188 244.609375 Z M 597.410156 311.71875 C 603.855469 311.71875 609.417969 309.832031 614.085938 306.058594 C 618.753906 302.285156 621.089844 297.730469 621.089844 292.402344 C 621.089844 290.515625 620.8125 288.738281 620.253906 287.074219 C 619.699219 285.410156 619.03125 284.019531 618.253906 282.910156 C 617.476562 281.800781 616.253906 280.578125 614.585938 279.246094 C 612.917969 277.914062 611.640625 276.914062 610.75 276.25 C 609.859375 275.582031 608.25 274.527344 605.914062 273.085938 C 603.578125 271.640625 602.078125 270.699219 601.410156 270.253906 C 599.855469 269.253906 598.1875 268.199219 596.410156 267.089844 C 594.628906 265.980469 593.183594 265.035156 592.074219 264.261719 L 590.738281 263.425781 C 590.070312 263.425781 588.460938 264.371094 585.902344 266.257812 C 583.34375 268.144531 580.675781 271.199219 577.898438 275.417969 C 575.117188 279.636719 573.671875 284.1875 573.5625 289.074219 C 573.5625 295.621094 575.953125 301.007812 580.734375 305.226562 C 585.511719 309.445312 591.070312 311.609375 597.410156 311.71875 Z M 597.410156 311.71875 " fill-opacity="1" fill-rule="nonzero"/></g><g clip-path="url(#3b824e9dfa)"><path fill="#000000" d="M 535.207031 464.925781 C 532.203125 464.925781 529.871094 463.980469 528.203125 462.09375 C 526.535156 460.207031 525.644531 457.761719 525.535156 454.765625 C 525.535156 448.660156 528.203125 443.21875 533.539062 438.445312 C 538.875 433.671875 545.324219 431.285156 552.882812 431.285156 C 556.773438 431.285156 559.21875 431.339844 560.222656 431.453125 C 568.449219 432.785156 574.730469 435.726562 579.066406 440.277344 C 583.402344 444.832031 585.625 449.769531 585.734375 455.097656 C 585.734375 460.871094 583.847656 466.480469 580.066406 471.917969 C 576.285156 477.359375 571.0625 481.300781 564.390625 483.742188 L 563.890625 484.074219 C 563.890625 484.1875 564.390625 484.351562 565.390625 484.574219 C 566.390625 484.796875 568.003906 485.296875 570.226562 486.074219 C 572.449219 486.851562 574.5625 488.015625 576.5625 489.570312 C 585.679688 495.453125 590.238281 503.226562 590.238281 512.882812 C 590.238281 521.65625 586.792969 529.316406 579.898438 535.863281 C 573.007812 542.414062 564.277344 545.691406 553.71875 545.691406 C 544.824219 545.691406 537.152344 543.304688 530.703125 538.527344 C 524.253906 533.753906 521.03125 527.703125 521.03125 520.378906 C 521.03125 517.269531 522.03125 514.769531 524.035156 512.882812 C 526.035156 510.996094 528.535156 509.996094 531.539062 509.886719 C 534.652344 509.886719 537.207031 510.886719 539.207031 512.882812 C 541.210938 514.882812 542.210938 517.378906 542.210938 520.378906 C 542.210938 521.597656 542.042969 522.707031 541.710938 523.707031 C 541.375 524.707031 540.988281 525.59375 540.542969 526.371094 C 540.097656 527.148438 539.488281 527.816406 538.707031 528.371094 C 537.929688 528.925781 537.261719 529.371094 536.707031 529.703125 C 536.152344 530.035156 535.59375 530.257812 535.039062 530.371094 C 534.484375 530.480469 534.039062 530.648438 533.707031 530.867188 L 533.039062 531.035156 C 538.707031 536.03125 545.601562 538.527344 553.71875 538.527344 C 559.832031 538.527344 564.445312 535.585938 567.558594 529.703125 C 569.449219 526.039062 570.394531 520.433594 570.394531 512.882812 L 570.394531 509.554688 C 570.394531 499.007812 566.835938 491.957031 559.71875 488.40625 C 558.054688 487.738281 554.664062 487.351562 549.546875 487.238281 L 542.542969 487.074219 L 542.042969 486.738281 C 541.820312 486.40625 541.710938 485.519531 541.710938 484.074219 C 541.710938 482.078125 542.15625 481.078125 543.042969 481.078125 C 546.15625 481.078125 549.382812 480.800781 552.714844 480.246094 C 556.496094 479.691406 559.941406 477.359375 563.054688 473.25 C 566.167969 469.144531 567.726562 462.925781 567.726562 454.601562 L 567.726562 453.265625 C 567.726562 446.9375 565.78125 442.554688 561.886719 440.113281 C 559.441406 438.558594 556.832031 437.78125 554.050781 437.78125 C 550.492188 437.78125 547.214844 438.390625 544.210938 439.613281 C 541.210938 440.832031 539.097656 442.109375 537.875 443.441406 C 536.652344 444.773438 536.039062 445.441406 536.039062 445.441406 L 536.539062 445.441406 C 536.875 445.550781 537.320312 445.664062 537.875 445.773438 C 538.429688 445.886719 538.988281 446.164062 539.542969 446.605469 C 540.097656 447.050781 540.765625 447.4375 541.542969 447.773438 C 542.320312 448.105469 542.878906 448.714844 543.210938 449.605469 C 543.542969 450.492188 543.988281 451.324219 544.546875 452.101562 C 545.101562 452.878906 545.269531 453.988281 545.046875 455.433594 C 545.046875 457.875 544.265625 460.039062 542.710938 461.925781 C 541.15625 463.8125 538.652344 464.8125 535.207031 464.925781 Z M 535.207031 464.925781 " fill-opacity="1" fill-rule="nonzero"/></g><path fill="#000000" d="M 455.660156 391.152344 L 655.777344 391.152344 L 655.777344 381.160156 L 455.660156 381.160156 Z M 455.660156 391.152344 " fill-opacity="1" fill-rule="nonzero"/></svg>