<svg xmlns="http://www.w3.org/2000/svg" xmlns:xlink="http://www.w3.org/1999/xlink" width="1000" zoomAndPan="magnify" viewBox="0 0 750 749.999995" height="1000" preserveAspectRatio="xMidYMid meet" version="1.0"><rect x="-75" width="900" fill="#ffffff" y="-74.999999" height="899.999994" fill-opacity="1"/><rect x="-75" width="900" fill="#ffffff" y="-74.999999" height="899.999994" fill-opacity="1"/><path fill="#000000" d="M 468.265625 522.691406 C 463.007812 521.820312 444.175781 521.382812 411.761719 521.382812 C 377.890625 521.382812 358.328125 521.820312 353.070312 522.691406 L 349.128906 522.691406 L 349.128906 502.621094 L 362.707031 502.621094 C 368.546875 502.621094 372.488281 502.621094 374.53125 502.621094 C 376.578125 502.621094 379.058594 502.332031 381.980469 501.75 C 384.898438 501.167969 386.941406 500.441406 388.109375 499.566406 C 389.277344 498.695312 390.300781 497.53125 391.175781 496.078125 C 391.46875 495.496094 391.613281 487.640625 391.613281 472.515625 L 391.613281 450.699219 L 278.171875 450.699219 L 278.171875 430.628906 L 344.3125 329.839844 C 388.988281 262.359375 411.617188 228.472656 412.199219 228.179688 C 412.785156 227.597656 415.851562 227.308594 421.398438 227.308594 L 429.28125 227.308594 L 431.910156 229.925781 L 431.910156 430.628906 L 472.207031 430.628906 L 472.207031 450.699219 L 431.910156 450.699219 L 431.910156 472.953125 C 431.910156 484.878906 431.910156 491.859375 431.910156 493.894531 C 431.910156 495.929688 432.785156 497.675781 434.539062 499.132812 C 436.875 501.167969 445.195312 502.332031 459.503906 502.621094 L 472.207031 502.621094 L 472.207031 522.691406 Z M 394.242188 430.628906 L 394.242188 284.902344 L 298.320312 430.195312 L 346.0625 430.628906 Z M 394.242188 430.628906 " fill-opacity="1" fill-rule="nonzero"/></svg>