<svg xmlns="http://www.w3.org/2000/svg" xmlns:xlink="http://www.w3.org/1999/xlink" width="1000" zoomAndPan="magnify" viewBox="0 0 750 749.999995" height="1000" preserveAspectRatio="xMidYMid meet" version="1.0"><defs><clipPath id="107ea17326"><path d="M 157 201.75 L 228 201.75 L 228 319 L 157 319 Z M 157 201.75 " clip-rule="nonzero"/></clipPath><clipPath id="6b25b46a92"><path d="M 157 431 L 228 431 L 228 548.25 L 157 548.25 Z M 157 431 " clip-rule="nonzero"/></clipPath><clipPath id="0a2735d219"><path d="M 523 201.75 L 595 201.75 L 595 319 L 523 319 Z M 523 201.75 " clip-rule="nonzero"/></clipPath></defs><rect x="-75" width="900" fill="#ffffff" y="-74.999999" height="899.999994" fill-opacity="1"/><rect x="-75" width="900" fill="#ffffff" y="-74.999999" height="899.999994" fill-opacity="1"/><g clip-path="url(#107ea17326)"><path fill="#000000" d="M 161.964844 243.835938 C 161.964844 243.835938 161.964844 239.5 161.964844 230.820312 C 161.964844 222.144531 165.015625 215.160156 171.121094 209.863281 C 177.226562 204.566406 184.234375 201.863281 192.148438 201.75 C 200.175781 201.75 207.296875 204.117188 213.515625 208.847656 C 219.734375 213.582031 222.84375 219.722656 222.84375 227.273438 C 222.84375 230.652344 222.222656 233.808594 220.976562 236.738281 C 219.734375 239.667969 218.265625 242.035156 216.570312 243.835938 C 214.871094 245.640625 213.121094 247.21875 211.3125 248.570312 C 209.503906 249.921875 208.03125 250.9375 206.902344 251.613281 C 205.773438 252.289062 205.148438 252.738281 205.035156 252.964844 L 207.410156 254.484375 C 208.992188 255.613281 210.578125 256.738281 212.160156 257.867188 C 213.742188 258.992188 214.644531 259.613281 214.871094 259.726562 C 223.351562 266.375 227.589844 274.769531 227.589844 284.910156 C 227.589844 293.8125 224.3125 301.53125 217.753906 308.066406 C 211.199219 314.601562 202.71875 317.925781 192.316406 318.039062 C 182.144531 318.039062 173.777344 315.164062 167.21875 309.417969 C 160.664062 303.671875 157.382812 296.574219 157.382812 288.121094 C 157.382812 275.953125 164.675781 265.808594 179.261719 257.695312 L 176.207031 255.5 C 173.832031 254.035156 172.308594 252.90625 171.628906 252.121094 C 165.183594 246.597656 161.964844 239.5 161.964844 230.820312 Z M 198.59375 249.078125 L 199.609375 248.402344 C 200.289062 247.949219 200.796875 247.613281 201.136719 247.386719 C 201.476562 247.160156 202.039062 246.765625 202.832031 246.203125 C 203.625 245.640625 204.300781 245.078125 204.867188 244.511719 C 205.433594 243.949219 206.054688 243.273438 206.734375 242.484375 C 207.410156 241.695312 208.03125 240.964844 208.597656 240.289062 C 209.164062 239.613281 209.730469 238.710938 210.292969 237.582031 C 210.859375 236.457031 211.367188 235.5 211.820312 234.710938 C 212.273438 233.921875 212.554688 232.792969 212.667969 231.328125 C 212.78125 229.863281 212.894531 228.625 213.007812 227.609375 C 213.007812 222.765625 211.367188 218.652344 208.089844 215.273438 C 204.8125 211.890625 201.023438 209.75 196.726562 208.847656 C 195.9375 208.738281 194.070312 208.679688 191.132812 208.679688 C 186.496094 208.679688 182.144531 210.144531 178.074219 213.074219 C 174.003906 216.003906 171.910156 219.667969 171.796875 224.0625 C 171.796875 226.652344 172.535156 229.019531 174.003906 231.160156 C 175.472656 233.300781 176.941406 234.933594 178.414062 236.0625 C 179.882812 237.1875 182.707031 238.992188 186.890625 241.472656 C 187.683594 242.035156 188.304688 242.429688 188.757812 242.652344 Z M 192.488281 310.769531 C 199.042969 310.769531 204.699219 308.855469 209.445312 305.023438 C 214.195312 301.191406 216.570312 296.574219 216.570312 291.164062 C 216.570312 289.25 216.285156 287.445312 215.71875 285.753906 C 215.15625 284.066406 214.476562 282.65625 213.683594 281.53125 C 212.894531 280.402344 211.652344 279.164062 209.953125 277.8125 C 208.257812 276.457031 206.957031 275.445312 206.054688 274.769531 C 205.148438 274.09375 203.511719 273.023438 201.136719 271.558594 C 198.761719 270.09375 197.234375 269.132812 196.558594 268.683594 C 194.976562 267.667969 193.277344 266.597656 191.46875 265.472656 C 189.660156 264.34375 188.191406 263.386719 187.0625 262.597656 L 185.703125 261.753906 C 185.027344 261.753906 183.386719 262.710938 180.785156 264.628906 C 178.1875 266.542969 175.472656 269.640625 172.648438 273.921875 C 169.820312 278.207031 168.351562 282.824219 168.238281 287.785156 C 168.238281 294.433594 170.667969 299.898438 175.53125 304.179688 C 180.390625 308.460938 186.042969 310.65625 192.488281 310.769531 Z M 192.488281 310.769531 " fill-opacity="1" fill-rule="nonzero"/></g><g clip-path="url(#6b25b46a92)"><path fill="#000000" d="M 157.214844 491.625 C 157.214844 473.257812 161.792969 458.722656 170.949219 448.019531 C 180.109375 437.3125 190.28125 431.960938 201.476562 431.960938 C 209.277344 431.960938 214.871094 433.988281 218.265625 438.046875 C 221.65625 442.101562 223.351562 446.609375 223.351562 451.566406 C 223.351562 454.386719 222.558594 456.640625 220.976562 458.328125 C 219.394531 460.019531 217.191406 460.863281 214.363281 460.863281 C 211.761719 460.863281 209.617188 460.074219 207.917969 458.5 C 206.222656 456.921875 205.375 454.722656 205.375 451.90625 C 205.375 446.949219 208.03125 443.960938 213.347656 442.949219 C 210.859375 440.46875 207.355469 439.058594 202.832031 438.722656 C 194.804688 438.722656 188.191406 442.101562 182.992188 448.863281 C 177.675781 456.300781 175.019531 467.683594 175.019531 483.007812 L 175.191406 483.683594 C 175.753906 483.007812 176.207031 482.273438 176.546875 481.484375 C 181.183594 474.722656 187.230469 471.34375 194.691406 471.34375 L 195.371094 471.34375 C 200.570312 471.34375 205.148438 472.414062 209.105469 474.554688 C 211.820312 476.132812 214.535156 478.386719 217.246094 481.316406 C 219.960938 484.246094 222.164062 487.457031 223.859375 490.949219 C 226.234375 496.472656 227.421875 502.5 227.421875 509.035156 L 227.421875 512.078125 C 227.421875 514.671875 227.140625 517.09375 226.574219 519.347656 C 225.332031 525.996094 221.710938 532.472656 215.71875 538.785156 C 209.730469 545.09375 202.152344 548.25 192.996094 548.25 C 189.832031 548.25 186.777344 547.800781 183.839844 546.898438 C 180.898438 545.996094 177.734375 544.304688 174.34375 541.828125 C 170.949219 539.347656 168.066406 536.023438 165.695312 531.855469 C 163.320312 527.683594 161.285156 522.21875 159.589844 515.460938 C 157.894531 508.699219 157.101562 500.753906 157.214844 491.625 Z M 193.675781 477.429688 C 190.28125 477.429688 187.34375 478.386719 184.855469 480.300781 C 182.371094 482.21875 180.449219 484.753906 179.089844 487.910156 C 177.734375 491.0625 176.773438 494.273438 176.207031 497.542969 C 175.640625 500.808594 175.304688 504.304688 175.191406 508.023438 C 175.191406 517.375 175.867188 524.078125 177.226562 528.136719 C 178.582031 532.191406 180.730469 535.460938 183.667969 537.941406 C 186.382812 539.96875 189.378906 540.980469 192.65625 540.980469 C 198.421875 540.980469 202.832031 538.839844 205.882812 534.558594 C 207.355469 532.53125 208.371094 529.996094 208.9375 526.953125 C 209.503906 523.910156 209.785156 517.996094 209.785156 509.207031 C 209.785156 500.191406 209.503906 494.164062 208.9375 491.121094 C 208.371094 488.078125 207.355469 485.542969 205.882812 483.511719 C 202.832031 479.457031 198.761719 477.429688 193.675781 477.429688 Z M 193.675781 477.429688 " fill-opacity="1" fill-rule="nonzero"/></g><path fill="#000000" d="M 133.132812 391.394531 L 251.839844 391.394531 L 251.839844 381.253906 L 133.132812 381.253906 Z M 133.132812 391.394531 " fill-opacity="1" fill-rule="nonzero"/><path fill="#000000" d="M 416.710938 423.679688 C 416.710938 425.933594 415.523438 427.058594 413.148438 427.058594 C 412.582031 427.058594 411.339844 426.15625 409.417969 424.355469 C 407.496094 422.550781 402.183594 417.3125 393.476562 408.636719 L 375.839844 391.058594 L 358.035156 408.804688 C 346.050781 420.523438 339.886719 426.496094 339.550781 426.722656 C 339.097656 426.945312 338.703125 427.058594 338.363281 427.058594 C 337.457031 427.058594 336.667969 426.722656 335.988281 426.046875 C 335.308594 425.371094 334.914062 424.582031 334.800781 423.679688 C 334.800781 422.890625 335.59375 421.652344 337.175781 419.960938 C 338.757812 418.269531 344.070312 412.917969 353.117188 403.902344 L 370.753906 386.324219 L 353.117188 368.746094 C 343.957031 359.617188 338.644531 354.265625 337.175781 352.6875 C 335.707031 351.109375 334.914062 349.871094 334.800781 348.96875 C 334.800781 347.957031 335.140625 347.167969 335.820312 346.605469 C 336.496094 346.039062 337.34375 345.757812 338.363281 345.757812 C 338.925781 345.757812 339.324219 345.816406 339.550781 345.929688 C 339.886719 346.152344 346.050781 352.125 358.035156 363.84375 L 375.839844 381.59375 L 393.476562 364.011719 C 402.183594 355.335938 407.496094 350.097656 409.417969 348.292969 C 411.339844 346.492188 412.582031 345.589844 413.148438 345.589844 C 415.523438 345.589844 416.710938 346.714844 416.710938 348.96875 C 416.710938 349.757812 416.144531 350.773438 415.011719 352.011719 C 413.882812 353.253906 408.34375 358.773438 398.394531 368.578125 L 380.757812 386.324219 L 398.394531 404.070312 C 407.890625 413.539062 413.316406 419.003906 414.675781 420.46875 C 416.03125 421.933594 416.710938 423.003906 416.710938 423.679688 Z M 416.710938 423.679688 " fill-opacity="1" fill-rule="nonzero"/><g clip-path="url(#0a2735d219)"><path fill="#000000" d="M 523.917969 261.414062 C 523.917969 243.046875 528.496094 228.511719 537.65625 217.808594 C 546.8125 207.101562 556.988281 201.75 568.179688 201.75 C 575.980469 201.75 581.578125 203.777344 584.96875 207.835938 C 588.359375 211.890625 590.054688 216.398438 590.054688 221.355469 C 590.054688 224.175781 589.265625 226.425781 587.683594 228.117188 C 586.097656 229.808594 583.894531 230.652344 581.070312 230.652344 C 578.46875 230.652344 576.320312 229.863281 574.625 228.285156 C 572.929688 226.710938 572.082031 224.511719 572.082031 221.695312 C 572.082031 216.738281 574.738281 213.75 580.050781 212.738281 C 577.5625 210.257812 574.058594 208.847656 569.535156 208.511719 C 561.511719 208.511719 554.894531 211.890625 549.695312 218.652344 C 544.382812 226.089844 541.726562 237.46875 541.726562 252.796875 L 541.894531 253.472656 C 542.460938 252.796875 542.914062 252.0625 543.25 251.273438 C 547.886719 244.511719 553.933594 241.132812 561.398438 241.132812 L 562.074219 241.132812 C 567.277344 241.132812 571.855469 242.203125 575.8125 244.34375 C 578.523438 245.921875 581.238281 248.175781 583.953125 251.105469 C 586.664062 254.035156 588.871094 257.246094 590.566406 260.738281 C 592.9375 266.261719 594.125 272.289062 594.125 278.824219 L 594.125 281.867188 C 594.125 284.460938 593.84375 286.882812 593.277344 289.136719 C 592.035156 295.785156 588.417969 302.261719 582.425781 308.574219 C 576.433594 314.882812 568.859375 318.039062 559.699219 318.039062 C 556.535156 318.039062 553.484375 317.589844 550.542969 316.6875 C 547.605469 315.785156 544.4375 314.09375 541.046875 311.617188 C 537.65625 309.136719 534.773438 305.8125 532.398438 301.644531 C 530.023438 297.472656 527.988281 292.007812 526.292969 285.25 C 524.597656 278.488281 523.804688 270.542969 523.917969 261.414062 Z M 560.378906 247.21875 C 556.988281 247.21875 554.046875 248.175781 551.5625 250.089844 C 549.074219 252.007812 547.152344 254.542969 545.796875 257.695312 C 544.4375 260.851562 543.476562 264.0625 542.914062 267.332031 C 542.347656 270.597656 542.007812 274.09375 541.894531 277.8125 C 541.894531 287.164062 542.574219 293.867188 543.929688 297.925781 C 545.285156 301.980469 547.433594 305.25 550.375 307.726562 C 553.085938 309.757812 556.082031 310.769531 559.363281 310.769531 C 565.128906 310.769531 569.535156 308.628906 572.589844 304.347656 C 574.058594 302.320312 575.078125 299.785156 575.640625 296.742188 C 576.207031 293.699219 576.488281 287.785156 576.488281 278.996094 C 576.488281 269.980469 576.207031 263.949219 575.640625 260.910156 C 575.078125 257.867188 574.058594 255.332031 572.589844 253.300781 C 569.535156 249.246094 565.46875 247.21875 560.378906 247.21875 Z M 560.378906 247.21875 " fill-opacity="1" fill-rule="nonzero"/></g><path fill="#000000" d="M 535.28125 472.019531 C 532.230469 472.019531 529.796875 471.003906 527.988281 468.976562 C 526.179688 466.949219 525.277344 464.46875 525.277344 461.539062 C 525.277344 453.539062 528.273438 446.609375 534.265625 440.75 C 540.253906 434.890625 547.71875 431.960938 556.648438 431.960938 C 566.9375 431.960938 575.527344 435.117188 582.425781 441.425781 C 589.320312 447.738281 592.824219 455.90625 592.9375 465.933594 C 592.9375 470.78125 591.808594 475.402344 589.546875 479.796875 C 587.285156 484.191406 584.574219 488.019531 581.40625 491.289062 C 578.242188 494.554688 573.71875 498.726562 567.839844 503.796875 C 563.769531 507.289062 558.117188 512.472656 550.882812 519.347656 L 540.878906 528.8125 L 553.765625 528.980469 C 571.515625 528.980469 580.957031 528.699219 582.085938 528.136719 C 582.878906 527.910156 584.234375 522.894531 586.15625 513.09375 L 586.15625 512.585938 L 592.9375 512.585938 L 592.9375 513.09375 C 592.824219 513.429688 592.089844 518.558594 590.734375 528.472656 C 589.378906 538.390625 588.53125 543.574219 588.191406 544.023438 L 588.191406 544.53125 L 525.277344 544.53125 L 525.277344 539.292969 C 525.277344 538.503906 525.613281 537.65625 526.292969 536.757812 C 526.972656 535.855469 528.667969 533.882812 531.378906 530.839844 C 534.660156 527.234375 537.484375 524.078125 539.859375 521.375 C 540.878906 520.25 542.800781 518.164062 545.625 515.121094 C 548.453125 512.078125 550.375 509.996094 551.390625 508.867188 C 552.410156 507.742188 554.046875 505.882812 556.308594 503.289062 C 558.570312 500.699219 560.152344 498.78125 561.058594 497.542969 C 561.960938 496.304688 563.261719 494.613281 564.957031 492.472656 C 566.652344 490.332031 567.839844 488.527344 568.519531 487.0625 C 569.199219 485.597656 570.046875 483.964844 571.0625 482.160156 C 572.082031 480.359375 572.816406 478.554688 573.269531 476.753906 C 573.71875 474.949219 574.117188 473.257812 574.453125 471.683594 C 574.792969 470.105469 574.964844 468.246094 574.964844 466.105469 C 574.964844 459.003906 573.042969 452.863281 569.199219 447.679688 C 565.355469 442.496094 559.871094 439.90625 552.75 439.90625 C 549.015625 439.90625 545.738281 440.863281 542.914062 442.777344 C 540.085938 444.695312 538.109375 446.554688 536.976562 448.355469 C 535.847656 450.160156 535.28125 451.230469 535.28125 451.566406 C 535.28125 451.679688 535.5625 451.738281 536.128906 451.738281 C 538.164062 451.738281 540.253906 452.527344 542.402344 454.101562 C 544.550781 455.679688 545.625 458.273438 545.625 461.878906 C 545.625 464.695312 544.722656 467.0625 542.914062 468.976562 C 541.101562 470.894531 538.558594 471.90625 535.28125 472.019531 Z M 535.28125 472.019531 " fill-opacity="1" fill-rule="nonzero"/><path fill="#000000" d="M 499.839844 391.394531 L 618.546875 391.394531 L 618.546875 381.253906 L 499.839844 381.253906 Z M 499.839844 391.394531 " fill-opacity="1" fill-rule="nonzero"/></svg>