<svg xmlns="http://www.w3.org/2000/svg" xmlns:xlink="http://www.w3.org/1999/xlink" width="1000" zoomAndPan="magnify" viewBox="0 0 750 749.999995" height="1000" preserveAspectRatio="xMidYMid meet" version="1.0"><defs><clipPath id="e28f16d8a0"><path d="M 160 201.75 L 234 201.75 L 234 320 L 160 320 Z M 160 201.75 " clip-rule="nonzero"/></clipPath><clipPath id="1cee11ea3c"><path d="M 160 430 L 234 430 L 234 548.25 L 160 548.25 Z M 160 430 " clip-rule="nonzero"/></clipPath><clipPath id="384c5eb84c"><path d="M 520 201.75 L 596 201.75 L 596 316 L 520 316 Z M 520 201.75 " clip-rule="nonzero"/></clipPath></defs><rect x="-75" width="900" fill="#ffffff" y="-74.999999" height="899.999994" fill-opacity="1"/><rect x="-75" width="900" fill="#ffffff" y="-74.999999" height="899.999994" fill-opacity="1"/><g clip-path="url(#e28f16d8a0)"><path fill="#000000" d="M 160.574219 238.570312 C 160.6875 238.34375 161.640625 232.234375 163.441406 220.242188 L 166.140625 202.253906 C 166.140625 202.03125 167.265625 201.917969 169.515625 201.917969 L 172.886719 201.917969 L 172.886719 202.589844 C 172.886719 203.710938 173.730469 204.664062 175.417969 205.449219 C 177.105469 206.234375 180.027344 206.738281 184.1875 206.960938 C 188.351562 207.1875 197.851562 207.296875 212.695312 207.296875 L 233.105469 207.296875 L 233.105469 213.855469 L 221.636719 229.488281 C 220.625 230.835938 218.9375 233.078125 216.574219 236.214844 C 214.214844 239.351562 212.695312 241.425781 212.019531 242.4375 C 211.347656 243.445312 210.164062 245.238281 208.480469 247.816406 C 206.792969 250.394531 205.667969 252.410156 205.105469 253.867188 C 204.542969 255.324219 203.753906 257.398438 202.742188 260.089844 C 201.730469 262.777344 201 265.355469 200.550781 267.820312 C 200.101562 270.289062 199.652344 273.3125 199.203125 276.902344 C 198.75 280.488281 198.414062 284.296875 198.1875 288.332031 C 197.964844 292.367188 197.796875 296.964844 197.683594 302.117188 C 197.683594 303.6875 197.683594 305.257812 197.683594 306.828125 C 197.683594 308.394531 197.628906 309.742188 197.515625 310.863281 L 197.515625 312.375 C 197.066406 314.28125 195.996094 315.90625 194.308594 317.25 C 192.621094 318.59375 190.710938 319.265625 188.574219 319.265625 C 187.335938 319.265625 186.15625 319.097656 185.03125 318.761719 C 183.90625 318.425781 182.726562 317.363281 181.488281 315.570312 C 180.253906 313.777344 179.636719 311.535156 179.636719 308.84375 C 179.636719 291.136719 185.089844 272.753906 195.996094 253.699219 C 198.246094 250.113281 202.96875 243.332031 210.164062 233.355469 L 217.925781 222.765625 L 202.238281 222.765625 C 182.671875 222.765625 172.382812 223.101562 171.371094 223.773438 C 170.695312 224.109375 170.078125 225.457031 169.515625 227.808594 C 168.953125 230.164062 168.390625 232.574219 167.828125 235.039062 L 167.320312 238.570312 L 167.320312 239.074219 L 160.574219 239.074219 Z M 160.574219 238.570312 " fill-opacity="1" fill-rule="nonzero"/></g><g clip-path="url(#1cee11ea3c)"><path fill="#000000" d="M 160.574219 467.550781 C 160.6875 467.328125 161.640625 461.21875 163.441406 449.226562 L 166.140625 431.238281 C 166.140625 431.011719 167.265625 430.902344 169.515625 430.902344 L 172.886719 430.902344 L 172.886719 431.574219 C 172.886719 432.695312 173.730469 433.648438 175.417969 434.429688 C 177.105469 435.214844 180.027344 435.71875 184.1875 435.945312 C 188.351562 436.167969 197.851562 436.28125 212.695312 436.28125 L 233.105469 436.28125 L 233.105469 442.835938 L 221.636719 458.472656 C 220.625 459.816406 218.9375 462.058594 216.574219 465.199219 C 214.214844 468.335938 212.695312 470.410156 212.019531 471.417969 C 211.347656 472.425781 210.164062 474.21875 208.480469 476.796875 C 206.792969 479.375 205.667969 481.394531 205.105469 482.851562 C 204.542969 484.308594 203.753906 486.382812 202.742188 489.070312 C 201.730469 491.761719 201 494.339844 200.550781 496.804688 C 200.101562 499.269531 199.652344 502.296875 199.203125 505.882812 C 198.75 509.46875 198.414062 513.28125 198.1875 517.316406 C 197.964844 521.351562 197.796875 525.945312 197.683594 531.101562 C 197.683594 532.671875 197.683594 534.238281 197.683594 535.808594 C 197.683594 537.378906 197.628906 538.722656 197.515625 539.84375 L 197.515625 541.355469 C 197.066406 543.261719 195.996094 544.886719 194.308594 546.234375 C 192.621094 547.578125 190.710938 548.25 188.574219 548.25 C 187.335938 548.25 186.15625 548.082031 185.03125 547.746094 C 183.90625 547.410156 182.726562 546.34375 181.488281 544.550781 C 180.253906 542.757812 179.636719 540.515625 179.636719 537.828125 C 179.636719 520.117188 185.089844 501.734375 195.996094 482.683594 C 198.246094 479.097656 202.96875 472.316406 210.164062 462.339844 L 217.925781 451.746094 L 202.238281 451.746094 C 182.671875 451.746094 172.382812 452.085938 171.371094 452.757812 C 170.695312 453.09375 170.078125 454.4375 169.515625 456.792969 C 168.953125 459.144531 168.390625 461.554688 167.828125 464.019531 L 167.320312 467.550781 L 167.320312 468.054688 L 160.574219 468.054688 Z M 160.574219 467.550781 " fill-opacity="1" fill-rule="nonzero"/></g><path fill="#000000" d="M 134.429688 392.234375 L 252.503906 392.234375 L 252.503906 382.144531 L 134.429688 382.144531 Z M 134.429688 392.234375 " fill-opacity="1" fill-rule="nonzero"/><path fill="#000000" d="M 416.492188 424.34375 C 416.492188 426.585938 415.308594 427.707031 412.949219 427.707031 C 412.386719 427.707031 411.148438 426.808594 409.238281 425.015625 C 407.328125 423.222656 402.042969 418.011719 393.382812 409.382812 L 375.839844 391.894531 L 358.128906 409.550781 C 346.210938 421.207031 340.082031 427.144531 339.742188 427.371094 C 339.292969 427.59375 338.898438 427.707031 338.5625 427.707031 C 337.664062 427.707031 336.875 427.371094 336.199219 426.699219 C 335.527344 426.023438 335.132812 425.242188 335.019531 424.34375 C 335.019531 423.558594 335.808594 422.328125 337.382812 420.644531 C 338.957031 418.964844 344.242188 413.640625 353.238281 404.671875 L 370.78125 387.1875 L 353.238281 369.703125 C 344.128906 360.625 338.84375 355.300781 337.382812 353.734375 C 335.917969 352.164062 335.132812 350.929688 335.019531 350.035156 C 335.019531 349.023438 335.359375 348.242188 336.03125 347.679688 C 336.707031 347.121094 337.550781 346.839844 338.5625 346.839844 C 339.125 346.839844 339.519531 346.894531 339.742188 347.007812 C 340.082031 347.230469 346.210938 353.171875 358.128906 364.828125 L 375.839844 382.480469 L 393.382812 364.996094 C 402.042969 356.367188 407.328125 351.15625 409.238281 349.363281 C 411.148438 347.566406 412.386719 346.671875 412.949219 346.671875 C 415.308594 346.671875 416.492188 347.792969 416.492188 350.035156 C 416.492188 350.820312 415.929688 351.828125 414.804688 353.058594 C 413.679688 354.292969 408.167969 359.785156 398.273438 369.535156 L 380.730469 387.1875 L 398.273438 404.839844 C 407.71875 414.257812 413.117188 419.691406 414.46875 421.148438 C 415.816406 422.605469 416.492188 423.671875 416.492188 424.34375 Z M 416.492188 424.34375 " fill-opacity="1" fill-rule="nonzero"/><g clip-path="url(#384c5eb84c)"><path fill="#000000" d="M 593.972656 315.570312 C 591.949219 315.234375 584.695312 315.0625 572.214844 315.0625 C 559.167969 315.0625 551.636719 315.234375 549.609375 315.570312 L 548.09375 315.570312 L 548.09375 307.835938 L 553.320312 307.835938 C 555.570312 307.835938 557.089844 307.835938 557.875 307.835938 C 558.664062 307.835938 559.621094 307.722656 560.742188 307.5 C 561.867188 307.273438 562.65625 306.996094 563.105469 306.660156 C 563.554688 306.320312 563.949219 305.875 564.285156 305.3125 C 564.398438 305.089844 564.453125 302.0625 564.453125 296.234375 L 564.453125 287.828125 L 520.765625 287.828125 L 520.765625 280.09375 L 546.238281 241.257812 C 563.441406 215.253906 572.15625 202.199219 572.382812 202.085938 C 572.609375 201.863281 573.789062 201.75 575.925781 201.75 L 578.960938 201.75 L 579.972656 202.757812 L 579.972656 280.09375 L 595.492188 280.09375 L 595.492188 287.828125 L 579.972656 287.828125 L 579.972656 296.402344 C 579.972656 301 579.972656 303.6875 579.972656 304.472656 C 579.972656 305.257812 580.308594 305.929688 580.984375 306.488281 C 581.882812 307.273438 585.089844 307.722656 590.601562 307.835938 L 595.492188 307.835938 L 595.492188 315.570312 Z M 565.46875 280.09375 L 565.46875 223.941406 L 528.527344 279.925781 L 546.914062 280.09375 Z M 565.46875 280.09375 " fill-opacity="1" fill-rule="nonzero"/></g><path fill="#000000" d="M 551.972656 447.375 L 549.78125 448.21875 C 548.207031 448.777344 545.957031 449.339844 543.03125 449.898438 C 540.109375 450.457031 536.847656 450.851562 533.25 451.074219 L 530.042969 451.074219 L 530.042969 443.339844 L 533.25 443.339844 C 538.535156 443.117188 543.425781 442.277344 547.925781 440.820312 C 552.421875 439.363281 555.570312 438.019531 557.371094 436.785156 C 559.167969 435.550781 560.742188 434.320312 562.09375 433.085938 C 562.316406 432.75 562.992188 432.582031 564.117188 432.582031 C 565.128906 432.582031 566.085938 432.917969 566.984375 433.589844 L 566.984375 483.859375 L 567.152344 534.296875 C 567.941406 535.082031 568.617188 535.585938 569.175781 535.808594 C 569.738281 536.03125 571.089844 536.257812 573.226562 536.480469 C 575.363281 536.707031 578.847656 536.816406 583.683594 536.816406 L 588.070312 536.816406 L 588.070312 544.550781 L 586.214844 544.550781 C 583.851562 544.214844 574.914062 544.046875 559.394531 544.046875 C 544.101562 544.046875 535.273438 544.214844 532.914062 544.550781 L 530.886719 544.550781 L 530.886719 536.816406 L 535.273438 536.816406 C 537.746094 536.816406 539.882812 536.816406 541.683594 536.816406 C 543.484375 536.816406 544.886719 536.761719 545.898438 536.648438 C 546.914062 536.539062 547.8125 536.371094 548.597656 536.144531 C 549.386719 535.921875 549.835938 535.808594 549.949219 535.808594 C 550.0625 535.808594 550.398438 535.527344 550.960938 534.96875 C 551.523438 534.40625 551.859375 534.183594 551.972656 534.296875 Z M 551.972656 447.375 " fill-opacity="1" fill-rule="nonzero"/><path fill="#000000" d="M 499.175781 392.234375 L 617.25 392.234375 L 617.25 382.144531 L 499.175781 382.144531 Z M 499.175781 392.234375 " fill-opacity="1" fill-rule="nonzero"/></svg>