<svg xmlns="http://www.w3.org/2000/svg" xmlns:xlink="http://www.w3.org/1999/xlink" width="1000" zoomAndPan="magnify" viewBox="0 0 750 749.999995" height="1000" preserveAspectRatio="xMidYMid meet" version="1.0"><defs><clipPath id="5405e84346"><path d="M 160 430 L 234 430 L 234 548.25 L 160 548.25 Z M 160 430 " clip-rule="nonzero"/></clipPath><clipPath id="9b8c414452"><path d="M 525 201.75 L 598 201.75 L 598 320 L 525 320 Z M 525 201.75 " clip-rule="nonzero"/></clipPath></defs><rect x="-75" width="900" fill="#ffffff" y="-74.999999" height="899.999994" fill-opacity="1"/><rect x="-75" width="900" fill="#ffffff" y="-74.999999" height="899.999994" fill-opacity="1"/><path fill="#000000" d="M 163 245.316406 C 163 245.316406 163 240.996094 163 232.363281 C 163 223.730469 166.039062 216.777344 172.113281 211.503906 C 178.1875 206.234375 185.164062 203.542969 193.039062 203.433594 C 201.027344 203.433594 208.117188 205.785156 214.304688 210.496094 C 220.492188 215.207031 223.585938 221.316406 223.585938 228.832031 C 223.585938 232.195312 222.96875 235.335938 221.730469 238.25 C 220.492188 241.164062 219.027344 243.519531 217.339844 245.316406 C 215.652344 247.109375 213.910156 248.679688 212.109375 250.023438 C 210.308594 251.371094 208.847656 252.378906 207.722656 253.050781 C 206.597656 253.726562 205.976562 254.171875 205.867188 254.398438 L 208.230469 255.910156 C 209.804688 257.03125 211.378906 258.15625 212.953125 259.277344 C 214.527344 260.398438 215.429688 261.015625 215.652344 261.125 C 224.09375 267.742188 228.3125 276.097656 228.3125 286.1875 C 228.3125 295.046875 225.046875 302.726562 218.523438 309.230469 C 211.996094 315.734375 203.558594 319.042969 193.210938 319.15625 C 183.082031 319.15625 174.757812 316.296875 168.234375 310.578125 C 161.707031 304.859375 158.445312 297.792969 158.445312 289.382812 C 158.445312 277.273438 165.703125 267.179688 180.214844 259.109375 L 177.175781 256.921875 C 174.8125 255.464844 173.296875 254.339844 172.621094 253.558594 C 166.207031 248.0625 163 240.996094 163 232.363281 Z M 199.453125 250.527344 L 200.464844 249.855469 C 201.140625 249.40625 201.648438 249.070312 201.984375 248.847656 C 202.320312 248.621094 202.882812 248.230469 203.671875 247.667969 C 204.460938 247.109375 205.132812 246.546875 205.695312 245.988281 C 206.257812 245.425781 206.878906 244.753906 207.554688 243.96875 C 208.230469 243.183594 208.847656 242.457031 209.410156 241.78125 C 209.972656 241.109375 210.535156 240.210938 211.097656 239.089844 C 211.660156 237.96875 212.167969 237.015625 212.617188 236.230469 C 213.066406 235.445312 213.347656 234.324219 213.460938 232.867188 C 213.574219 231.410156 213.683594 230.175781 213.796875 229.167969 C 213.796875 224.34375 212.167969 220.253906 208.902344 216.886719 C 205.640625 213.523438 201.871094 211.394531 197.597656 210.496094 C 196.808594 210.382812 194.953125 210.328125 192.027344 210.328125 C 187.414062 210.328125 183.082031 211.785156 179.035156 214.703125 C 174.984375 217.617188 172.902344 221.261719 172.789062 225.636719 C 172.789062 228.214844 173.519531 230.570312 174.984375 232.699219 C 176.445312 234.832031 177.90625 236.457031 179.371094 237.578125 C 180.832031 238.699219 183.644531 240.492188 187.808594 242.960938 C 188.597656 243.519531 189.214844 243.914062 189.664062 244.136719 Z M 193.378906 311.921875 C 199.902344 311.921875 205.527344 310.015625 210.253906 306.203125 C 214.980469 302.390625 217.339844 297.792969 217.339844 292.410156 C 217.339844 290.503906 217.058594 288.710938 216.496094 287.03125 C 215.933594 285.347656 215.261719 283.945312 214.472656 282.824219 C 213.683594 281.703125 212.449219 280.46875 210.761719 279.125 C 209.074219 277.777344 207.777344 276.769531 206.878906 276.097656 C 205.976562 275.421875 204.347656 274.359375 201.984375 272.898438 C 199.621094 271.441406 198.101562 270.488281 197.429688 270.039062 C 195.851562 269.03125 194.164062 267.964844 192.363281 266.84375 C 190.566406 265.722656 189.101562 264.769531 187.976562 263.984375 L 186.628906 263.144531 C 185.953125 263.144531 184.320312 264.097656 181.734375 266.003906 C 179.144531 267.910156 176.445312 270.992188 173.632812 275.253906 C 170.820312 279.515625 169.359375 284.113281 169.246094 289.046875 C 169.246094 295.664062 171.664062 301.101562 176.5 305.363281 C 181.339844 309.625 186.964844 311.8125 193.378906 311.921875 Z M 193.378906 311.921875 " fill-opacity="1" fill-rule="nonzero"/><g clip-path="url(#5405e84346)"><path fill="#000000" d="M 160.46875 467.511719 C 160.582031 467.289062 161.539062 461.175781 163.339844 449.179688 L 166.039062 431.179688 C 166.039062 430.957031 167.164062 430.84375 169.414062 430.84375 L 172.789062 430.84375 L 172.789062 431.515625 C 172.789062 432.636719 173.632812 433.589844 175.320312 434.375 C 177.007812 435.160156 179.933594 435.664062 184.097656 435.890625 C 188.257812 436.113281 197.765625 436.226562 212.617188 436.226562 L 233.035156 436.226562 L 233.035156 442.785156 L 221.558594 458.429688 C 220.546875 459.773438 218.859375 462.015625 216.496094 465.15625 C 214.136719 468.296875 212.617188 470.371094 211.941406 471.378906 C 211.265625 472.390625 210.085938 474.183594 208.398438 476.761719 C 206.710938 479.34375 205.585938 481.359375 205.023438 482.820312 C 204.460938 484.277344 203.671875 486.351562 202.660156 489.042969 C 201.648438 491.734375 200.914062 494.3125 200.464844 496.78125 C 200.015625 499.246094 199.566406 502.273438 199.117188 505.863281 C 198.664062 509.449219 198.328125 513.261719 198.101562 517.300781 C 197.878906 521.335938 197.710938 525.933594 197.597656 531.09375 C 197.597656 532.664062 197.597656 534.234375 197.597656 535.804688 C 197.597656 537.371094 197.539062 538.71875 197.429688 539.839844 L 197.429688 541.355469 C 196.976562 543.261719 195.910156 544.886719 194.222656 546.230469 C 192.535156 547.578125 190.621094 548.25 188.484375 548.25 C 187.246094 548.25 186.066406 548.082031 184.941406 547.746094 C 183.816406 547.410156 182.632812 546.34375 181.394531 544.550781 C 180.160156 542.753906 179.539062 540.511719 179.539062 537.820312 C 179.539062 520.105469 184.996094 501.714844 195.910156 482.652344 C 198.160156 479.0625 202.882812 472.277344 210.085938 462.296875 L 217.847656 451.699219 L 202.152344 451.699219 C 182.578125 451.699219 172.28125 452.039062 171.269531 452.710938 C 170.59375 453.046875 169.976562 454.390625 169.414062 456.746094 C 168.851562 459.101562 168.289062 461.511719 167.726562 463.980469 L 167.21875 467.511719 L 167.21875 468.015625 L 160.46875 468.015625 Z M 160.46875 467.511719 " fill-opacity="1" fill-rule="nonzero"/></g><path fill="#000000" d="M 134.3125 392.15625 L 252.445312 392.15625 L 252.445312 382.066406 L 134.3125 382.066406 Z M 134.3125 392.15625 " fill-opacity="1" fill-rule="nonzero"/><path fill="#000000" d="M 416.511719 424.285156 C 416.511719 426.527344 415.328125 427.648438 412.96875 427.648438 C 412.40625 427.648438 411.167969 426.75 409.253906 424.957031 C 407.339844 423.164062 402.054688 417.949219 393.390625 409.3125 L 375.839844 391.820312 L 358.121094 409.480469 C 346.195312 421.144531 340.0625 427.085938 339.726562 427.3125 C 339.277344 427.535156 338.882812 427.648438 338.542969 427.648438 C 337.644531 427.648438 336.855469 427.3125 336.179688 426.636719 C 335.507812 425.964844 335.113281 425.179688 335 424.285156 C 335 423.5 335.789062 422.265625 337.363281 420.582031 C 338.9375 418.902344 344.226562 413.574219 353.226562 404.605469 L 370.777344 387.109375 L 353.226562 369.617188 C 344.113281 360.535156 338.824219 355.207031 337.363281 353.636719 C 335.898438 352.066406 335.113281 350.835938 335 349.9375 C 335 348.929688 335.335938 348.144531 336.011719 347.582031 C 336.6875 347.023438 337.53125 346.742188 338.542969 346.742188 C 339.105469 346.742188 339.5 346.796875 339.726562 346.910156 C 340.0625 347.132812 346.195312 353.078125 358.121094 364.738281 L 375.839844 382.402344 L 393.390625 364.90625 C 402.054688 356.273438 407.339844 351.058594 409.253906 349.265625 C 411.167969 347.46875 412.40625 346.574219 412.96875 346.574219 C 415.328125 346.574219 416.511719 347.695312 416.511719 349.9375 C 416.511719 350.722656 415.949219 351.730469 414.824219 352.964844 C 413.699219 354.199219 408.183594 359.695312 398.285156 369.449219 L 380.734375 387.109375 L 398.285156 404.773438 C 407.734375 414.191406 413.136719 419.628906 414.484375 421.085938 C 415.835938 422.546875 416.511719 423.609375 416.511719 424.285156 Z M 416.511719 424.285156 " fill-opacity="1" fill-rule="nonzero"/><g clip-path="url(#9b8c414452)"><path fill="#000000" d="M 525.394531 238.417969 C 525.507812 238.195312 526.464844 232.082031 528.261719 220.085938 L 530.964844 202.085938 C 530.964844 201.863281 532.089844 201.75 534.339844 201.75 L 537.714844 201.75 L 537.714844 202.421875 C 537.714844 203.542969 538.558594 204.496094 540.246094 205.28125 C 541.933594 206.066406 544.859375 206.570312 549.019531 206.796875 C 553.183594 207.019531 562.691406 207.132812 577.539062 207.132812 L 597.960938 207.132812 L 597.960938 213.691406 L 586.484375 229.335938 C 585.472656 230.679688 583.785156 232.921875 581.421875 236.0625 C 579.058594 239.203125 577.539062 241.277344 576.867188 242.289062 C 576.191406 243.296875 575.007812 245.089844 573.320312 247.667969 C 571.632812 250.25 570.507812 252.265625 569.945312 253.726562 C 569.382812 255.183594 568.597656 257.257812 567.585938 259.949219 C 566.570312 262.640625 565.839844 265.21875 565.390625 267.6875 C 564.941406 270.152344 564.488281 273.179688 564.039062 276.769531 C 563.589844 280.355469 563.253906 284.167969 563.027344 288.207031 C 562.800781 292.242188 562.632812 296.839844 562.519531 302 C 562.519531 303.570312 562.519531 305.140625 562.519531 306.710938 C 562.519531 308.277344 562.464844 309.625 562.351562 310.746094 L 562.351562 312.261719 C 561.902344 314.167969 560.832031 315.792969 559.144531 317.136719 C 557.457031 318.484375 555.546875 319.15625 553.410156 319.15625 C 552.171875 319.15625 550.988281 318.988281 549.863281 318.652344 C 548.738281 318.316406 547.558594 317.25 546.320312 315.457031 C 545.082031 313.660156 544.464844 311.417969 544.464844 308.726562 C 544.464844 291.011719 549.921875 272.621094 560.832031 253.558594 C 563.082031 249.96875 567.808594 243.183594 575.007812 233.203125 L 582.773438 222.605469 L 567.078125 222.605469 C 547.5 222.605469 537.207031 222.945312 536.195312 223.617188 C 535.519531 223.953125 534.902344 225.296875 534.339844 227.652344 C 533.777344 230.007812 533.214844 232.417969 532.652344 234.886719 L 532.144531 238.417969 L 532.144531 238.921875 L 525.394531 238.921875 Z M 525.394531 238.417969 " fill-opacity="1" fill-rule="nonzero"/></g><path fill="#000000" d="M 534.507812 472.390625 C 531.46875 472.390625 529.050781 471.378906 527.25 469.363281 C 525.449219 467.34375 524.550781 464.875 524.550781 461.960938 C 524.550781 454 527.53125 447.101562 533.496094 441.273438 C 539.457031 435.441406 546.882812 432.527344 555.769531 432.527344 C 566.007812 432.527344 574.558594 435.664062 581.421875 441.945312 C 588.285156 448.226562 591.773438 456.355469 591.886719 466.335938 C 591.886719 471.15625 590.761719 475.753906 588.511719 480.128906 C 586.261719 484.5 583.558594 488.3125 580.410156 491.566406 C 577.257812 494.816406 572.757812 498.964844 566.910156 504.011719 C 562.859375 507.488281 557.234375 512.648438 550.03125 519.488281 L 540.078125 528.90625 L 552.902344 529.074219 C 570.566406 529.074219 579.960938 528.792969 581.085938 528.234375 C 581.871094 528.007812 583.222656 523.019531 585.136719 513.261719 L 585.136719 512.757812 L 591.886719 512.757812 L 591.886719 513.261719 C 591.773438 513.601562 591.042969 518.703125 589.691406 528.570312 C 588.339844 538.4375 587.496094 543.597656 587.160156 544.042969 L 587.160156 544.550781 L 524.550781 544.550781 L 524.550781 539.335938 C 524.550781 538.550781 524.886719 537.710938 525.5625 536.8125 C 526.238281 535.914062 527.925781 533.953125 530.625 530.925781 C 533.886719 527.335938 536.699219 524.195312 539.0625 521.503906 C 540.078125 520.382812 541.988281 518.308594 544.800781 515.28125 C 547.613281 512.253906 549.527344 510.179688 550.539062 509.058594 C 551.550781 507.9375 553.183594 506.085938 555.433594 503.507812 C 557.683594 500.929688 559.257812 499.023438 560.160156 497.789062 C 561.058594 496.554688 562.351562 494.875 564.039062 492.742188 C 565.726562 490.613281 566.910156 488.816406 567.585938 487.359375 C 568.257812 485.902344 569.101562 484.277344 570.117188 482.480469 C 571.128906 480.6875 571.859375 478.894531 572.308594 477.101562 C 572.757812 475.304688 573.152344 473.625 573.492188 472.054688 C 573.828125 470.484375 573.996094 468.632812 573.996094 466.503906 C 573.996094 459.4375 572.085938 453.328125 568.257812 448.167969 C 564.433594 443.011719 558.976562 440.429688 551.890625 440.429688 C 548.175781 440.429688 544.914062 441.382812 542.101562 443.289062 C 539.289062 445.195312 537.320312 447.046875 536.195312 448.839844 C 535.070312 450.636719 534.507812 451.699219 534.507812 452.039062 C 534.507812 452.148438 534.789062 452.207031 535.351562 452.207031 C 537.375 452.207031 539.457031 452.992188 541.59375 454.558594 C 543.734375 456.128906 544.800781 458.710938 544.800781 462.296875 C 544.800781 465.101562 543.902344 467.457031 542.101562 469.363281 C 540.300781 471.269531 537.769531 472.277344 534.507812 472.390625 Z M 534.507812 472.390625 " fill-opacity="1" fill-rule="nonzero"/><path fill="#000000" d="M 499.238281 392.15625 L 617.367188 392.15625 L 617.367188 382.066406 L 499.238281 382.066406 Z M 499.238281 392.15625 " fill-opacity="1" fill-rule="nonzero"/></svg>