<svg xmlns="http://www.w3.org/2000/svg" xmlns:xlink="http://www.w3.org/1999/xlink" width="1000" zoomAndPan="magnify" viewBox="0 0 750 749.999995" height="1000" preserveAspectRatio="xMidYMid meet" version="1.0"><defs><clipPath id="ed53996fe6"><path d="M 118 204.308594 L 188 204.308594 L 188 319 L 118 319 Z M 118 204.308594 " clip-rule="nonzero"/></clipPath><clipPath id="e6535c7d43"><path d="M 118 431 L 188 431 L 188 545.691406 L 118 545.691406 Z M 118 431 " clip-rule="nonzero"/></clipPath><clipPath id="7829c4ea6a"><path d="M 486 204.308594 L 544 204.308594 L 544 316 L 486 316 Z M 486 204.308594 " clip-rule="nonzero"/></clipPath><clipPath id="1a97a2f0c6"><path d="M 564 204.308594 L 631 204.308594 L 631 319 L 564 319 Z M 564 204.308594 " clip-rule="nonzero"/></clipPath><clipPath id="f13133386d"><path d="M 522 431 L 589 431 L 589 545.691406 L 522 545.691406 Z M 522 431 " clip-rule="nonzero"/></clipPath></defs><rect x="-75" width="900" fill="#ffffff" y="-74.999999" height="899.999994" fill-opacity="1"/><rect x="-75" width="900" fill="#ffffff" y="-74.999999" height="899.999994" fill-opacity="1"/><g clip-path="url(#ed53996fe6)"><path fill="#000000" d="M 123.402344 245.777344 C 123.402344 245.777344 123.402344 241.5 123.402344 232.953125 C 123.402344 224.40625 126.402344 217.519531 132.40625 212.304688 C 138.410156 207.085938 145.300781 204.421875 153.085938 204.308594 C 160.976562 204.308594 167.980469 206.640625 174.097656 211.304688 C 180.210938 215.96875 183.269531 222.019531 183.269531 229.457031 C 183.269531 232.785156 182.65625 235.894531 181.433594 238.78125 C 180.210938 241.667969 178.765625 244 177.097656 245.777344 C 175.429688 247.550781 173.707031 249.105469 171.929688 250.4375 C 170.148438 251.769531 168.703125 252.769531 167.59375 253.4375 C 166.480469 254.101562 165.871094 254.546875 165.757812 254.769531 L 168.09375 256.265625 C 169.648438 257.375 171.207031 258.488281 172.761719 259.597656 C 174.320312 260.707031 175.207031 261.316406 175.429688 261.429688 C 183.769531 267.980469 187.9375 276.25 187.9375 286.242188 C 187.9375 295.011719 184.714844 302.617188 178.265625 309.054688 C 171.816406 315.496094 163.480469 318.769531 153.25 318.878906 C 143.246094 318.878906 135.019531 316.050781 128.570312 310.386719 C 122.121094 304.726562 118.898438 297.730469 118.898438 289.40625 C 118.898438 277.414062 126.070312 267.425781 140.410156 259.429688 L 137.410156 257.265625 C 135.074219 255.824219 133.574219 254.710938 132.90625 253.933594 C 126.570312 248.496094 123.402344 241.5 123.402344 232.953125 Z M 159.421875 250.9375 L 160.421875 250.273438 C 161.089844 249.828125 161.589844 249.496094 161.921875 249.273438 C 162.257812 249.050781 162.8125 248.660156 163.589844 248.105469 C 164.371094 247.550781 165.035156 246.996094 165.59375 246.441406 C 166.148438 245.886719 166.757812 245.21875 167.425781 244.441406 C 168.09375 243.667969 168.703125 242.945312 169.261719 242.277344 C 169.816406 241.613281 170.371094 240.722656 170.929688 239.613281 C 171.484375 238.503906 171.984375 237.558594 172.429688 236.78125 C 172.875 236.007812 173.152344 234.894531 173.261719 233.453125 C 173.375 232.007812 173.484375 230.789062 173.597656 229.789062 C 173.597656 225.015625 171.984375 220.964844 168.761719 217.632812 C 165.535156 214.300781 161.8125 212.191406 157.585938 211.304688 C 156.808594 211.195312 154.976562 211.136719 152.085938 211.136719 C 147.527344 211.136719 143.246094 212.582031 139.242188 215.46875 C 135.242188 218.355469 133.183594 221.960938 133.074219 226.292969 C 133.074219 228.84375 133.796875 231.175781 135.242188 233.285156 C 136.6875 235.394531 138.132812 237.003906 139.578125 238.113281 C 141.023438 239.226562 143.800781 241 147.914062 243.445312 C 148.695312 244 149.304688 244.386719 149.75 244.609375 Z M 153.417969 311.71875 C 159.867188 311.71875 165.425781 309.832031 170.09375 306.058594 C 174.765625 302.285156 177.097656 297.730469 177.097656 292.402344 C 177.097656 290.515625 176.820312 288.738281 176.265625 287.074219 C 175.710938 285.410156 175.042969 284.019531 174.265625 282.910156 C 173.484375 281.800781 172.261719 280.578125 170.59375 279.246094 C 168.925781 277.914062 167.648438 276.914062 166.757812 276.25 C 165.871094 275.582031 164.257812 274.527344 161.921875 273.085938 C 159.589844 271.640625 158.085938 270.699219 157.421875 270.253906 C 155.863281 269.253906 154.195312 268.199219 152.417969 267.089844 C 150.640625 265.980469 149.195312 265.035156 148.082031 264.261719 L 146.746094 263.425781 C 146.082031 263.425781 144.46875 264.371094 141.910156 266.257812 C 139.355469 268.144531 136.6875 271.199219 133.90625 275.417969 C 131.128906 279.636719 129.683594 284.1875 129.570312 289.074219 C 129.570312 295.621094 131.960938 301.007812 136.742188 305.226562 C 141.523438 309.445312 147.082031 311.609375 153.417969 311.71875 Z M 153.417969 311.71875 " fill-opacity="1" fill-rule="nonzero"/></g><g clip-path="url(#e6535c7d43)"><path fill="#000000" d="M 118.730469 489.902344 C 118.730469 471.808594 123.234375 457.484375 132.238281 446.9375 C 141.246094 436.394531 151.25 431.121094 162.257812 431.121094 C 169.929688 431.121094 175.429688 433.117188 178.765625 437.113281 C 182.101562 441.109375 183.769531 445.550781 183.769531 450.4375 C 183.769531 453.210938 182.992188 455.433594 181.433594 457.097656 C 179.878906 458.761719 177.710938 459.59375 174.929688 459.59375 C 172.375 459.59375 170.261719 458.816406 168.59375 457.265625 C 166.925781 455.710938 166.09375 453.546875 166.09375 450.769531 C 166.09375 445.886719 168.703125 442.941406 173.929688 441.945312 C 171.484375 439.5 168.039062 438.113281 163.589844 437.78125 C 155.699219 437.78125 149.195312 441.109375 144.078125 447.773438 C 138.855469 455.097656 136.242188 466.3125 136.242188 481.410156 L 136.410156 482.078125 C 136.964844 481.410156 137.410156 480.6875 137.742188 479.910156 C 142.300781 473.25 148.25 469.921875 155.585938 469.921875 L 156.253906 469.921875 C 161.367188 469.921875 165.871094 470.976562 169.761719 473.085938 C 172.429688 474.636719 175.097656 476.859375 177.765625 479.746094 C 180.433594 482.632812 182.601562 485.796875 184.269531 489.238281 C 186.605469 494.675781 187.773438 500.617188 187.773438 507.054688 L 187.773438 510.054688 C 187.773438 512.605469 187.492188 514.992188 186.9375 517.214844 C 185.714844 523.761719 182.15625 530.148438 176.265625 536.363281 C 170.371094 542.582031 162.925781 545.691406 153.917969 545.691406 C 150.804688 545.691406 147.804688 545.246094 144.914062 544.355469 C 142.023438 543.46875 138.910156 541.804688 135.574219 539.363281 C 132.238281 536.917969 129.40625 533.644531 127.070312 529.535156 C 124.734375 525.429688 122.734375 520.042969 121.066406 513.382812 C 119.398438 506.722656 118.621094 498.894531 118.730469 489.902344 Z M 154.585938 475.914062 C 151.25 475.914062 148.359375 476.859375 145.914062 478.746094 C 143.46875 480.632812 141.578125 483.132812 140.242188 486.238281 C 138.910156 489.347656 137.964844 492.511719 137.410156 495.730469 C 136.851562 498.953125 136.519531 502.394531 136.410156 506.054688 C 136.410156 515.269531 137.074219 521.875 138.410156 525.871094 C 139.742188 529.871094 141.855469 533.089844 144.746094 535.53125 C 147.414062 537.53125 150.359375 538.527344 153.585938 538.527344 C 159.253906 538.527344 163.589844 536.417969 166.59375 532.199219 C 168.039062 530.203125 169.039062 527.703125 169.59375 524.707031 C 170.148438 521.710938 170.429688 515.882812 170.429688 507.222656 C 170.429688 498.339844 170.148438 492.402344 169.59375 489.402344 C 169.039062 486.40625 168.039062 483.910156 166.59375 481.910156 C 163.589844 477.914062 159.589844 475.914062 154.585938 475.914062 Z M 154.585938 475.914062 " fill-opacity="1" fill-rule="nonzero"/></g><path fill="#000000" d="M 95.050781 391.152344 L 211.785156 391.152344 L 211.785156 381.160156 L 95.050781 381.160156 Z M 95.050781 391.152344 " fill-opacity="1" fill-rule="nonzero"/><path fill="#000000" d="M 373.914062 422.960938 C 373.914062 425.179688 372.746094 426.289062 370.410156 426.289062 C 369.855469 426.289062 368.632812 425.402344 366.742188 423.625 C 364.851562 421.847656 359.625 416.6875 351.066406 408.140625 L 333.722656 390.820312 L 316.210938 408.304688 C 304.429688 419.851562 298.367188 425.734375 298.035156 425.957031 C 297.589844 426.179688 297.203125 426.289062 296.867188 426.289062 C 295.980469 426.289062 295.199219 425.957031 294.535156 425.289062 C 293.867188 424.625 293.476562 423.847656 293.367188 422.960938 C 293.367188 422.183594 294.144531 420.960938 295.699219 419.296875 C 297.257812 417.628906 302.484375 412.359375 311.375 403.476562 L 328.71875 386.15625 L 311.375 368.839844 C 302.371094 359.847656 297.144531 354.574219 295.699219 353.019531 C 294.253906 351.464844 293.476562 350.242188 293.367188 349.355469 C 293.367188 348.355469 293.699219 347.578125 294.367188 347.023438 C 295.035156 346.46875 295.867188 346.191406 296.867188 346.191406 C 297.425781 346.191406 297.8125 346.246094 298.035156 346.359375 C 298.367188 346.578125 304.429688 352.464844 316.210938 364.007812 L 333.722656 381.496094 L 351.066406 364.175781 C 359.625 355.628906 364.851562 350.464844 366.742188 348.6875 C 368.632812 346.914062 369.855469 346.023438 370.410156 346.023438 C 372.746094 346.023438 373.914062 347.132812 373.914062 349.355469 C 373.914062 350.132812 373.355469 351.132812 372.246094 352.351562 C 371.132812 353.574219 365.6875 359.011719 355.902344 368.671875 L 338.558594 386.15625 L 355.902344 403.640625 C 365.242188 412.96875 370.578125 418.351562 371.910156 419.796875 C 373.246094 421.238281 373.914062 422.292969 373.914062 422.960938 Z M 373.914062 422.960938 " fill-opacity="1" fill-rule="nonzero"/><g clip-path="url(#7829c4ea6a)"><path fill="#000000" d="M 507.855469 218.964844 L 505.6875 219.796875 C 504.132812 220.351562 501.910156 220.90625 499.019531 221.460938 C 496.128906 222.019531 492.902344 222.40625 489.347656 222.628906 L 486.179688 222.628906 L 486.179688 214.96875 L 489.347656 214.96875 C 494.570312 214.746094 499.40625 213.914062 503.855469 212.46875 C 508.300781 211.027344 511.414062 209.695312 513.195312 208.472656 C 514.972656 207.253906 516.527344 206.03125 517.863281 204.808594 C 518.085938 204.476562 518.753906 204.308594 519.863281 204.308594 C 520.863281 204.308594 521.808594 204.644531 522.699219 205.308594 L 522.699219 255.101562 L 522.867188 305.058594 C 523.644531 305.835938 524.3125 306.335938 524.867188 306.558594 C 525.421875 306.78125 526.757812 307 528.871094 307.222656 C 530.980469 307.445312 534.429688 307.558594 539.207031 307.558594 L 543.542969 307.558594 L 543.542969 315.21875 L 541.710938 315.21875 C 539.375 314.882812 530.535156 314.71875 515.195312 314.71875 C 500.074219 314.71875 491.347656 314.882812 489.011719 315.21875 L 487.011719 315.21875 L 487.011719 307.558594 L 491.347656 307.558594 C 493.792969 307.558594 495.90625 307.558594 497.683594 307.558594 C 499.464844 307.558594 500.851562 307.5 501.855469 307.390625 C 502.855469 307.277344 503.742188 307.113281 504.523438 306.890625 C 505.300781 306.667969 505.746094 306.558594 505.855469 306.558594 C 505.96875 306.558594 506.300781 306.28125 506.855469 305.726562 C 507.414062 305.167969 507.746094 304.949219 507.855469 305.058594 Z M 507.855469 218.964844 " fill-opacity="1" fill-rule="nonzero"/></g><g clip-path="url(#1a97a2f0c6)"><path fill="#000000" d="M 583.066406 289.074219 C 583.066406 291.738281 582.179688 293.957031 580.398438 295.734375 C 578.621094 297.507812 576.453125 298.398438 573.894531 298.398438 L 572.726562 298.398438 C 577.84375 307.167969 584.625 311.554688 593.074219 311.554688 C 600.855469 311.554688 606.527344 308.222656 610.082031 301.5625 C 612.195312 297.898438 613.25 290.792969 613.25 280.246094 C 613.25 268.8125 611.75 261.097656 608.75 257.097656 C 605.859375 253.4375 602.632812 251.605469 599.078125 251.605469 L 598.078125 251.605469 C 589.40625 251.605469 582.84375 255.378906 578.398438 262.925781 C 577.953125 263.703125 577.5625 264.148438 577.230469 264.261719 C 576.898438 264.371094 576.0625 264.480469 574.730469 264.59375 C 572.839844 264.59375 571.785156 264.261719 571.5625 263.59375 C 571.339844 263.148438 571.226562 253.4375 571.226562 234.453125 L 571.226562 212.96875 C 571.226562 207.417969 571.503906 204.644531 572.0625 204.644531 C 572.285156 204.421875 572.503906 204.308594 572.726562 204.308594 C 572.839844 204.308594 574.007812 204.753906 576.230469 205.640625 C 578.453125 206.53125 581.511719 207.417969 585.402344 208.308594 C 589.292969 209.195312 593.460938 209.640625 597.910156 209.640625 C 605.804688 209.640625 613.363281 208.085938 620.589844 204.976562 C 621.480469 204.53125 622.203125 204.308594 622.757812 204.308594 C 623.648438 204.308594 624.089844 205.308594 624.089844 207.308594 L 624.089844 209.472656 C 614.976562 220.242188 603.578125 225.625 589.90625 225.625 C 586.457031 225.625 583.34375 225.292969 580.566406 224.625 L 578.898438 224.292969 L 578.898438 252.9375 C 581.011719 251.382812 582.679688 250.160156 583.902344 249.273438 C 585.125 248.382812 587.125 247.496094 589.90625 246.609375 C 592.683594 245.71875 595.519531 245.277344 598.410156 245.277344 C 607.414062 245.277344 615.03125 248.882812 621.257812 256.101562 C 627.480469 263.316406 630.59375 271.863281 630.59375 281.746094 C 630.59375 291.957031 627.039062 300.671875 619.921875 307.890625 C 612.808594 315.105469 604.136719 318.769531 593.90625 318.878906 C 584.902344 318.878906 577.675781 315.882812 572.226562 309.886719 C 566.78125 303.894531 564.054688 297.121094 564.054688 289.570312 C 564.054688 286.90625 564.667969 284.796875 565.890625 283.242188 C 567.113281 281.691406 568.390625 280.691406 569.726562 280.246094 C 571.0625 279.800781 572.339844 279.582031 573.5625 279.582031 C 576.339844 279.582031 578.621094 280.523438 580.398438 282.410156 C 582.179688 284.296875 583.066406 286.519531 583.066406 289.074219 Z M 583.066406 289.074219 " fill-opacity="1" fill-rule="nonzero"/></g><g clip-path="url(#f13133386d)"><path fill="#000000" d="M 541.375 515.882812 C 541.375 518.546875 540.488281 520.765625 538.707031 522.542969 C 536.929688 524.320312 534.761719 525.207031 532.203125 525.207031 L 531.039062 525.207031 C 536.152344 533.976562 542.933594 538.363281 551.382812 538.363281 C 559.164062 538.363281 564.835938 535.03125 568.390625 528.371094 C 570.503906 524.707031 571.5625 517.601562 571.5625 507.054688 C 571.5625 495.621094 570.058594 487.90625 567.058594 483.910156 C 564.167969 480.246094 560.945312 478.414062 557.386719 478.414062 L 556.386719 478.414062 C 547.714844 478.414062 541.15625 482.1875 536.707031 489.738281 C 536.261719 490.515625 535.875 490.957031 535.539062 491.070312 C 535.207031 491.179688 534.371094 491.289062 533.039062 491.402344 C 531.148438 491.402344 530.09375 491.070312 529.871094 490.402344 C 529.648438 489.957031 529.535156 480.246094 529.535156 461.261719 L 529.535156 439.777344 C 529.535156 434.226562 529.8125 431.453125 530.371094 431.453125 C 530.59375 431.230469 530.816406 431.121094 531.039062 431.121094 C 531.148438 431.121094 532.316406 431.5625 534.539062 432.453125 C 536.761719 433.339844 539.820312 434.226562 543.710938 435.117188 C 547.601562 436.003906 551.773438 436.449219 556.21875 436.449219 C 564.113281 436.449219 571.671875 434.894531 578.898438 431.785156 C 579.789062 431.339844 580.511719 431.121094 581.066406 431.121094 C 581.957031 431.121094 582.402344 432.117188 582.402344 434.117188 L 582.402344 436.28125 C 573.285156 447.050781 561.886719 452.433594 548.214844 452.433594 C 544.765625 452.433594 541.65625 452.101562 538.875 451.4375 L 537.207031 451.101562 L 537.207031 479.746094 C 539.320312 478.191406 540.988281 476.96875 542.210938 476.082031 C 543.433594 475.195312 545.433594 474.304688 548.214844 473.417969 C 550.992188 472.527344 553.828125 472.085938 556.71875 472.085938 C 565.722656 472.085938 573.339844 475.691406 579.566406 482.910156 C 585.792969 490.125 588.902344 498.671875 588.902344 508.554688 C 588.902344 518.769531 585.347656 527.484375 578.230469 534.699219 C 571.117188 541.914062 562.445312 545.578125 552.214844 545.691406 C 543.210938 545.691406 535.984375 542.691406 530.535156 536.695312 C 525.089844 530.703125 522.367188 523.929688 522.367188 516.382812 C 522.367188 513.714844 522.976562 511.605469 524.199219 510.054688 C 525.421875 508.5 526.703125 507.5 528.035156 507.054688 C 529.371094 506.613281 530.648438 506.390625 531.871094 506.390625 C 534.652344 506.390625 536.929688 507.332031 538.707031 509.21875 C 540.488281 511.109375 541.375 513.328125 541.375 515.882812 Z M 541.375 515.882812 " fill-opacity="1" fill-rule="nonzero"/></g><path fill="#000000" d="M 455.660156 391.152344 L 655.777344 391.152344 L 655.777344 381.160156 L 455.660156 381.160156 Z M 455.660156 391.152344 " fill-opacity="1" fill-rule="nonzero"/></svg>