<svg xmlns="http://www.w3.org/2000/svg" xmlns:xlink="http://www.w3.org/1999/xlink" width="1000" zoomAndPan="magnify" viewBox="0 0 750 749.999995" height="1000" preserveAspectRatio="xMidYMid meet" version="1.0"><defs><clipPath id="e3495cda02"><path d="M 157 201.75 L 228 201.75 L 228 319 L 157 319 Z M 157 201.75 " clip-rule="nonzero"/></clipPath><clipPath id="a0e8a161e0"><path d="M 157 432 L 228 432 L 228 548.25 L 157 548.25 Z M 157 432 " clip-rule="nonzero"/></clipPath><clipPath id="eaa7241c0c"><path d="M 523 201.75 L 595 201.75 L 595 319 L 523 319 Z M 523 201.75 " clip-rule="nonzero"/></clipPath><clipPath id="bcec379197"><path d="M 523 431 L 595 431 L 595 548.25 L 523 548.25 Z M 523 431 " clip-rule="nonzero"/></clipPath></defs><rect x="-75" width="900" fill="#ffffff" y="-74.999999" height="899.999994" fill-opacity="1"/><rect x="-75" width="900" fill="#ffffff" y="-74.999999" height="899.999994" fill-opacity="1"/><g clip-path="url(#e3495cda02)"><path fill="#000000" d="M 161.964844 243.835938 C 161.964844 243.835938 161.964844 239.5 161.964844 230.820312 C 161.964844 222.144531 165.015625 215.160156 171.121094 209.863281 C 177.226562 204.566406 184.234375 201.863281 192.148438 201.75 C 200.175781 201.75 207.296875 204.117188 213.515625 208.847656 C 219.734375 213.582031 222.84375 219.722656 222.84375 227.273438 C 222.84375 230.652344 222.222656 233.808594 220.976562 236.738281 C 219.734375 239.667969 218.265625 242.035156 216.570312 243.835938 C 214.871094 245.640625 213.121094 247.21875 211.3125 248.570312 C 209.503906 249.921875 208.03125 250.9375 206.902344 251.613281 C 205.773438 252.289062 205.148438 252.738281 205.035156 252.964844 L 207.410156 254.484375 C 208.992188 255.613281 210.578125 256.738281 212.160156 257.867188 C 213.742188 258.992188 214.644531 259.613281 214.871094 259.726562 C 223.351562 266.375 227.589844 274.769531 227.589844 284.910156 C 227.589844 293.8125 224.3125 301.53125 217.753906 308.066406 C 211.199219 314.601562 202.71875 317.925781 192.316406 318.039062 C 182.144531 318.039062 173.777344 315.164062 167.21875 309.417969 C 160.664062 303.671875 157.382812 296.574219 157.382812 288.121094 C 157.382812 275.953125 164.675781 265.808594 179.261719 257.695312 L 176.207031 255.5 C 173.832031 254.035156 172.308594 252.90625 171.628906 252.121094 C 165.183594 246.597656 161.964844 239.5 161.964844 230.820312 Z M 198.59375 249.078125 L 199.609375 248.402344 C 200.289062 247.949219 200.796875 247.613281 201.136719 247.386719 C 201.476562 247.160156 202.039062 246.765625 202.832031 246.203125 C 203.625 245.640625 204.300781 245.078125 204.867188 244.511719 C 205.433594 243.949219 206.054688 243.273438 206.734375 242.484375 C 207.410156 241.695312 208.03125 240.964844 208.597656 240.289062 C 209.164062 239.613281 209.730469 238.710938 210.292969 237.582031 C 210.859375 236.457031 211.367188 235.5 211.820312 234.710938 C 212.273438 233.921875 212.554688 232.792969 212.667969 231.328125 C 212.78125 229.863281 212.894531 228.625 213.007812 227.609375 C 213.007812 222.765625 211.367188 218.652344 208.089844 215.273438 C 204.8125 211.890625 201.023438 209.75 196.726562 208.847656 C 195.9375 208.738281 194.070312 208.679688 191.132812 208.679688 C 186.496094 208.679688 182.144531 210.144531 178.074219 213.074219 C 174.003906 216.003906 171.910156 219.667969 171.796875 224.0625 C 171.796875 226.652344 172.535156 229.019531 174.003906 231.160156 C 175.472656 233.300781 176.941406 234.933594 178.414062 236.0625 C 179.882812 237.1875 182.707031 238.992188 186.890625 241.472656 C 187.683594 242.035156 188.304688 242.429688 188.757812 242.652344 Z M 192.488281 310.769531 C 199.042969 310.769531 204.699219 308.855469 209.445312 305.023438 C 214.195312 301.191406 216.570312 296.574219 216.570312 291.164062 C 216.570312 289.25 216.285156 287.445312 215.71875 285.753906 C 215.15625 284.066406 214.476562 282.65625 213.683594 281.53125 C 212.894531 280.402344 211.652344 279.164062 209.953125 277.8125 C 208.257812 276.457031 206.957031 275.445312 206.054688 274.769531 C 205.148438 274.09375 203.511719 273.023438 201.136719 271.558594 C 198.761719 270.09375 197.234375 269.132812 196.558594 268.683594 C 194.976562 267.667969 193.277344 266.597656 191.46875 265.472656 C 189.660156 264.34375 188.191406 263.386719 187.0625 262.597656 L 185.703125 261.753906 C 185.027344 261.753906 183.386719 262.710938 180.785156 264.628906 C 178.1875 266.542969 175.472656 269.640625 172.648438 273.921875 C 169.820312 278.207031 168.351562 282.824219 168.238281 287.785156 C 168.238281 294.433594 170.667969 299.898438 175.53125 304.179688 C 180.390625 308.460938 186.042969 310.65625 192.488281 310.769531 Z M 192.488281 310.769531 " fill-opacity="1" fill-rule="nonzero"/></g><g clip-path="url(#a0e8a161e0)"><path fill="#000000" d="M 171.628906 466.273438 C 168.578125 466.273438 166.203125 465.316406 164.507812 463.398438 C 162.8125 461.484375 161.90625 459.003906 161.792969 455.960938 C 161.792969 449.765625 164.507812 444.242188 169.933594 439.398438 C 175.359375 434.554688 181.917969 432.128906 189.605469 432.128906 C 193.5625 432.128906 196.050781 432.1875 197.066406 432.300781 C 205.433594 433.652344 211.820312 436.636719 216.230469 441.257812 C 220.636719 445.878906 222.898438 450.890625 223.011719 456.300781 C 223.011719 462.160156 221.089844 467.851562 217.246094 473.371094 C 213.402344 478.894531 208.089844 482.894531 201.304688 485.371094 L 200.796875 485.710938 C 200.796875 485.824219 201.304688 485.992188 202.324219 486.21875 C 203.339844 486.445312 204.980469 486.949219 207.242188 487.738281 C 209.503906 488.527344 211.652344 489.710938 213.683594 491.289062 C 222.957031 497.261719 227.589844 505.148438 227.589844 514.953125 C 227.589844 523.855469 224.085938 531.628906 217.078125 538.277344 C 210.066406 544.925781 201.191406 548.25 190.453125 548.25 C 181.410156 548.25 173.609375 545.828125 167.050781 540.980469 C 160.492188 536.136719 157.214844 529.996094 157.214844 522.558594 C 157.214844 519.402344 158.230469 516.867188 160.265625 514.953125 C 162.300781 513.035156 164.847656 512.023438 167.898438 511.910156 C 171.0625 511.910156 173.664062 512.925781 175.699219 514.953125 C 177.734375 516.980469 178.75 519.515625 178.75 522.558594 C 178.75 523.796875 178.582031 524.925781 178.242188 525.9375 C 177.902344 526.953125 177.507812 527.855469 177.054688 528.644531 C 176.601562 529.433594 175.980469 530.109375 175.191406 530.671875 C 174.398438 531.234375 173.71875 531.6875 173.15625 532.023438 C 172.589844 532.363281 172.023438 532.585938 171.460938 532.699219 C 170.894531 532.8125 170.441406 532.980469 170.101562 533.207031 L 169.425781 533.375 C 175.191406 538.445312 182.199219 540.980469 190.453125 540.980469 C 196.671875 540.980469 201.363281 537.996094 204.527344 532.023438 C 206.449219 528.304688 207.410156 522.613281 207.410156 514.953125 L 207.410156 511.570312 C 207.410156 500.867188 203.792969 493.710938 196.558594 490.105469 C 194.863281 489.429688 191.414062 489.035156 186.214844 488.921875 L 179.089844 488.753906 L 178.582031 488.414062 C 178.355469 488.078125 178.242188 487.175781 178.242188 485.710938 C 178.242188 483.683594 178.695312 482.667969 179.597656 482.667969 C 182.765625 482.667969 186.042969 482.386719 189.433594 481.824219 C 193.277344 481.261719 196.785156 478.894531 199.949219 474.722656 C 203.113281 470.554688 204.699219 464.246094 204.699219 455.792969 L 204.699219 454.441406 C 204.699219 448.019531 202.71875 443.566406 198.761719 441.089844 C 196.273438 439.511719 193.617188 438.722656 190.792969 438.722656 C 187.175781 438.722656 183.839844 439.34375 180.785156 440.582031 C 177.734375 441.820312 175.585938 443.117188 174.34375 444.46875 C 173.097656 445.820312 172.476562 446.496094 172.476562 446.496094 L 172.984375 446.496094 C 173.324219 446.609375 173.777344 446.722656 174.34375 446.835938 C 174.90625 446.949219 175.472656 447.230469 176.039062 447.679688 C 176.601562 448.132812 177.28125 448.527344 178.074219 448.863281 C 178.863281 449.203125 179.429688 449.820312 179.769531 450.722656 C 180.109375 451.625 180.558594 452.46875 181.125 453.257812 C 181.691406 454.046875 181.859375 455.175781 181.632812 456.640625 C 181.632812 459.117188 180.84375 461.316406 179.261719 463.230469 C 177.675781 465.144531 175.132812 466.160156 171.628906 466.273438 Z M 171.628906 466.273438 " fill-opacity="1" fill-rule="nonzero"/></g><path fill="#000000" d="M 133.132812 391.394531 L 251.839844 391.394531 L 251.839844 381.253906 L 133.132812 381.253906 Z M 133.132812 391.394531 " fill-opacity="1" fill-rule="nonzero"/><path fill="#000000" d="M 416.710938 423.679688 C 416.710938 425.933594 415.523438 427.058594 413.148438 427.058594 C 412.582031 427.058594 411.339844 426.15625 409.417969 424.355469 C 407.496094 422.550781 402.183594 417.3125 393.476562 408.636719 L 375.839844 391.058594 L 358.035156 408.804688 C 346.050781 420.523438 339.886719 426.496094 339.550781 426.722656 C 339.097656 426.945312 338.703125 427.058594 338.363281 427.058594 C 337.457031 427.058594 336.667969 426.722656 335.988281 426.046875 C 335.308594 425.371094 334.914062 424.582031 334.800781 423.679688 C 334.800781 422.890625 335.59375 421.652344 337.175781 419.960938 C 338.757812 418.269531 344.070312 412.917969 353.117188 403.902344 L 370.753906 386.324219 L 353.117188 368.746094 C 343.957031 359.617188 338.644531 354.265625 337.175781 352.6875 C 335.707031 351.109375 334.914062 349.871094 334.800781 348.96875 C 334.800781 347.957031 335.140625 347.167969 335.820312 346.605469 C 336.496094 346.039062 337.34375 345.757812 338.363281 345.757812 C 338.925781 345.757812 339.324219 345.816406 339.550781 345.929688 C 339.886719 346.152344 346.050781 352.125 358.035156 363.84375 L 375.839844 381.59375 L 393.476562 364.011719 C 402.183594 355.335938 407.496094 350.097656 409.417969 348.292969 C 411.339844 346.492188 412.582031 345.589844 413.148438 345.589844 C 415.523438 345.589844 416.710938 346.714844 416.710938 348.96875 C 416.710938 349.757812 416.144531 350.773438 415.011719 352.011719 C 413.882812 353.253906 408.34375 358.773438 398.394531 368.578125 L 380.757812 386.324219 L 398.394531 404.070312 C 407.890625 413.539062 413.316406 419.003906 414.675781 420.46875 C 416.03125 421.933594 416.710938 423.003906 416.710938 423.679688 Z M 416.710938 423.679688 " fill-opacity="1" fill-rule="nonzero"/><g clip-path="url(#eaa7241c0c)"><path fill="#000000" d="M 576.488281 265.808594 C 571.0625 274.375 564.28125 278.65625 556.140625 278.65625 C 547.320312 278.65625 540.085938 275.332031 534.433594 268.683594 C 528.78125 262.035156 525.390625 254.9375 524.257812 247.386719 C 524.03125 245.582031 523.917969 243.328125 523.917969 240.625 L 523.917969 239.273438 C 523.917969 228.792969 527.820312 219.667969 535.621094 211.890625 C 542.402344 205.128906 549.867188 201.75 558.003906 201.75 C 558.230469 201.75 558.570312 201.75 559.023438 201.75 C 559.476562 201.75 559.925781 201.804688 560.378906 201.917969 L 561.058594 201.917969 C 562.414062 201.917969 563.828125 202.03125 565.296875 202.257812 C 566.765625 202.484375 568.859375 203.160156 571.570312 204.285156 C 574.285156 205.414062 576.941406 207.214844 579.542969 209.695312 C 582.140625 212.171875 584.574219 215.496094 586.835938 219.667969 C 591.695312 229.582031 594.125 242.316406 594.125 257.867188 C 594.125 273.640625 590.734375 286.996094 583.953125 297.925781 C 579.996094 304.234375 575.246094 309.136719 569.707031 312.628906 C 564.167969 316.125 558.289062 317.925781 552.070312 318.039062 C 545.171875 318.039062 539.519531 316.40625 535.113281 313.136719 C 530.703125 309.871094 528.441406 305.023438 528.328125 298.601562 C 528.214844 292.179688 531.210938 289.023438 537.316406 289.136719 C 539.804688 289.136719 541.894531 289.925781 543.589844 291.503906 C 545.285156 293.078125 546.132812 295.277344 546.132812 298.09375 C 546.132812 300.121094 545.625 301.867188 544.609375 303.332031 C 543.589844 304.796875 542.6875 305.699219 541.894531 306.039062 C 541.101562 306.375 540.367188 306.65625 539.691406 306.882812 L 539.011719 307.050781 C 539.011719 307.277344 539.40625 307.617188 540.199219 308.066406 C 540.992188 308.515625 542.460938 309.082031 544.609375 309.757812 C 546.757812 310.433594 549.128906 310.714844 551.730469 310.601562 L 552.75 310.601562 C 559.53125 310.601562 565.242188 306.996094 569.875 299.785156 C 574.285156 293.472656 576.488281 282.542969 576.488281 266.992188 Z M 558.175781 272.402344 C 563.601562 272.402344 567.953125 269.640625 571.234375 264.121094 C 574.511719 258.597656 576.207031 251.105469 576.320312 241.640625 C 576.320312 232.851562 575.867188 226.539062 574.964844 222.710938 C 574.738281 221.582031 574.398438 220.457031 573.945312 219.328125 C 573.492188 218.203125 572.703125 216.738281 571.570312 214.933594 C 570.441406 213.132812 568.746094 211.609375 566.484375 210.371094 C 564.222656 209.128906 561.566406 208.566406 558.515625 208.679688 C 554.21875 208.679688 550.542969 210.203125 547.492188 213.242188 C 545.117188 215.722656 543.589844 218.652344 542.914062 222.03125 C 542.234375 225.414062 541.839844 231.328125 541.726562 239.78125 C 541.726562 249.132812 542.007812 255.445312 542.574219 258.710938 C 543.136719 261.980469 544.269531 264.628906 545.964844 266.65625 C 548.792969 270.488281 552.859375 272.402344 558.175781 272.402344 Z M 558.175781 272.402344 " fill-opacity="1" fill-rule="nonzero"/></g><g clip-path="url(#bcec379197)"><path fill="#000000" d="M 523.917969 491.625 C 523.917969 473.257812 528.496094 458.722656 537.65625 448.019531 C 546.8125 437.3125 556.988281 431.960938 568.179688 431.960938 C 575.980469 431.960938 581.578125 433.988281 584.96875 438.046875 C 588.359375 442.101562 590.054688 446.609375 590.054688 451.566406 C 590.054688 454.386719 589.265625 456.640625 587.683594 458.328125 C 586.097656 460.019531 583.894531 460.863281 581.070312 460.863281 C 578.46875 460.863281 576.320312 460.074219 574.625 458.5 C 572.929688 456.921875 572.082031 454.722656 572.082031 451.90625 C 572.082031 446.949219 574.738281 443.960938 580.050781 442.949219 C 577.5625 440.46875 574.058594 439.058594 569.535156 438.722656 C 561.511719 438.722656 554.894531 442.101562 549.695312 448.863281 C 544.382812 456.300781 541.726562 467.683594 541.726562 483.007812 L 541.894531 483.683594 C 542.460938 483.007812 542.914062 482.273438 543.25 481.484375 C 547.886719 474.722656 553.933594 471.34375 561.398438 471.34375 L 562.074219 471.34375 C 567.277344 471.34375 571.855469 472.414062 575.8125 474.554688 C 578.523438 476.132812 581.238281 478.386719 583.953125 481.316406 C 586.664062 484.246094 588.871094 487.457031 590.566406 490.949219 C 592.9375 496.472656 594.125 502.5 594.125 509.035156 L 594.125 512.078125 C 594.125 514.671875 593.84375 517.09375 593.277344 519.347656 C 592.035156 525.996094 588.417969 532.472656 582.425781 538.785156 C 576.433594 545.09375 568.859375 548.25 559.699219 548.25 C 556.535156 548.25 553.484375 547.800781 550.542969 546.898438 C 547.605469 545.996094 544.4375 544.304688 541.046875 541.828125 C 537.65625 539.347656 534.773438 536.023438 532.398438 531.855469 C 530.023438 527.683594 527.988281 522.21875 526.292969 515.460938 C 524.597656 508.699219 523.804688 500.753906 523.917969 491.625 Z M 560.378906 477.429688 C 556.988281 477.429688 554.046875 478.386719 551.5625 480.300781 C 549.074219 482.21875 547.152344 484.753906 545.796875 487.910156 C 544.4375 491.0625 543.476562 494.273438 542.914062 497.542969 C 542.347656 500.808594 542.007812 504.304688 541.894531 508.023438 C 541.894531 517.375 542.574219 524.078125 543.929688 528.136719 C 545.285156 532.191406 547.433594 535.460938 550.375 537.941406 C 553.085938 539.96875 556.082031 540.980469 559.363281 540.980469 C 565.128906 540.980469 569.535156 538.839844 572.589844 534.558594 C 574.058594 532.53125 575.078125 529.996094 575.640625 526.953125 C 576.207031 523.910156 576.488281 517.996094 576.488281 509.207031 C 576.488281 500.191406 576.207031 494.164062 575.640625 491.121094 C 575.078125 488.078125 574.058594 485.542969 572.589844 483.511719 C 569.535156 479.457031 565.46875 477.429688 560.378906 477.429688 Z M 560.378906 477.429688 " fill-opacity="1" fill-rule="nonzero"/></g><path fill="#000000" d="M 499.839844 391.394531 L 618.546875 391.394531 L 618.546875 381.253906 L 499.839844 381.253906 Z M 499.839844 391.394531 " fill-opacity="1" fill-rule="nonzero"/></svg>