<svg xmlns="http://www.w3.org/2000/svg" xmlns:xlink="http://www.w3.org/1999/xlink" width="1000" zoomAndPan="magnify" viewBox="0 0 750 749.999995" height="1000" preserveAspectRatio="xMidYMid meet" version="1.0"><defs><clipPath id="4e3977bd86"><path d="M 120 204.308594 L 187 204.308594 L 187 319 L 120 319 Z M 120 204.308594 " clip-rule="nonzero"/></clipPath><clipPath id="e38d744fbf"><path d="M 486 204.308594 L 544 204.308594 L 544 316 L 486 316 Z M 486 204.308594 " clip-rule="nonzero"/></clipPath><clipPath id="ad0caa5e52"><path d="M 562 204.308594 L 632 204.308594 L 632 319 L 562 319 Z M 562 204.308594 " clip-rule="nonzero"/></clipPath><clipPath id="909327eca9"><path d="M 522 431 L 589 431 L 589 545.691406 L 522 545.691406 Z M 522 431 " clip-rule="nonzero"/></clipPath></defs><rect x="-75" width="900" fill="#ffffff" y="-74.999999" height="899.999994" fill-opacity="1"/><rect x="-75" width="900" fill="#ffffff" y="-74.999999" height="899.999994" fill-opacity="1"/><g clip-path="url(#4e3977bd86)"><path fill="#000000" d="M 139.078125 289.074219 C 139.078125 291.738281 138.1875 293.957031 136.410156 295.734375 C 134.628906 297.507812 132.460938 298.398438 129.90625 298.398438 L 128.738281 298.398438 C 133.851562 307.167969 140.632812 311.554688 149.082031 311.554688 C 156.863281 311.554688 162.535156 308.222656 166.09375 301.5625 C 168.203125 297.898438 169.261719 290.792969 169.261719 280.246094 C 169.261719 268.8125 167.761719 261.097656 164.757812 257.097656 C 161.867188 253.4375 158.644531 251.605469 155.085938 251.605469 L 154.085938 251.605469 C 145.414062 251.605469 138.855469 255.378906 134.40625 262.925781 C 133.960938 263.703125 133.574219 264.148438 133.238281 264.261719 C 132.90625 264.371094 132.074219 264.480469 130.738281 264.59375 C 128.847656 264.59375 127.792969 264.261719 127.570312 263.59375 C 127.347656 263.148438 127.238281 253.4375 127.238281 234.453125 L 127.238281 212.96875 C 127.238281 207.417969 127.515625 204.644531 128.070312 204.644531 C 128.292969 204.421875 128.515625 204.308594 128.738281 204.308594 C 128.847656 204.308594 130.015625 204.753906 132.238281 205.640625 C 134.464844 206.53125 137.519531 207.417969 141.410156 208.308594 C 145.300781 209.195312 149.472656 209.640625 153.917969 209.640625 C 161.8125 209.640625 169.371094 208.085938 176.597656 204.976562 C 177.488281 204.53125 178.210938 204.308594 178.765625 204.308594 C 179.65625 204.308594 180.101562 205.308594 180.101562 207.308594 L 180.101562 209.472656 C 170.984375 220.242188 159.589844 225.625 145.914062 225.625 C 142.46875 225.625 139.355469 225.292969 136.574219 224.625 L 134.90625 224.292969 L 134.90625 252.9375 C 137.019531 251.382812 138.6875 250.160156 139.910156 249.273438 C 141.132812 248.382812 143.132812 247.496094 145.914062 246.609375 C 148.695312 245.71875 151.527344 245.277344 154.417969 245.277344 C 163.425781 245.277344 171.039062 248.882812 177.265625 256.101562 C 183.492188 263.316406 186.605469 271.863281 186.605469 281.746094 C 186.605469 291.957031 183.046875 300.671875 175.929688 307.890625 C 168.816406 315.105469 160.144531 318.769531 149.917969 318.878906 C 140.910156 318.878906 133.683594 315.882812 128.238281 309.886719 C 122.789062 303.894531 120.066406 297.121094 120.066406 289.570312 C 120.066406 286.90625 120.675781 284.796875 121.898438 283.242188 C 123.121094 281.691406 124.402344 280.691406 125.734375 280.246094 C 127.070312 279.800781 128.347656 279.582031 129.570312 279.582031 C 132.351562 279.582031 134.628906 280.523438 136.410156 282.410156 C 138.1875 284.296875 139.078125 286.519531 139.078125 289.074219 Z M 139.078125 289.074219 " fill-opacity="1" fill-rule="nonzero"/></g><path fill="#000000" d="M 188.773438 542.027344 C 186.769531 541.691406 179.601562 541.527344 167.257812 541.527344 C 154.363281 541.527344 146.914062 541.691406 144.914062 542.027344 L 143.414062 542.027344 L 143.414062 534.367188 L 148.582031 534.367188 C 150.804688 534.367188 152.304688 534.367188 153.085938 534.367188 C 153.863281 534.367188 154.808594 534.253906 155.917969 534.03125 C 157.03125 533.8125 157.808594 533.53125 158.253906 533.199219 C 158.699219 532.867188 159.089844 532.421875 159.421875 531.867188 C 159.53125 531.644531 159.589844 528.648438 159.589844 522.875 L 159.589844 514.550781 L 116.398438 514.550781 L 116.398438 506.890625 L 141.578125 468.421875 C 158.589844 442.664062 167.203125 429.730469 167.425781 429.621094 C 167.648438 429.398438 168.816406 429.289062 170.929688 429.289062 L 173.929688 429.289062 L 174.929688 430.285156 L 174.929688 506.890625 L 190.273438 506.890625 L 190.273438 514.550781 L 174.929688 514.550781 L 174.929688 523.042969 C 174.929688 527.59375 174.929688 530.257812 174.929688 531.035156 C 174.929688 531.8125 175.265625 532.480469 175.929688 533.035156 C 176.820312 533.8125 179.988281 534.253906 185.4375 534.367188 L 190.273438 534.367188 L 190.273438 542.027344 Z M 160.589844 506.890625 L 160.589844 451.269531 L 124.066406 506.722656 L 142.246094 506.890625 Z M 160.589844 506.890625 " fill-opacity="1" fill-rule="nonzero"/><path fill="#000000" d="M 95.050781 391.152344 L 211.785156 391.152344 L 211.785156 381.160156 L 95.050781 381.160156 Z M 95.050781 391.152344 " fill-opacity="1" fill-rule="nonzero"/><path fill="#000000" d="M 373.914062 422.960938 C 373.914062 425.179688 372.746094 426.289062 370.410156 426.289062 C 369.855469 426.289062 368.632812 425.402344 366.742188 423.625 C 364.851562 421.847656 359.625 416.6875 351.066406 408.140625 L 333.722656 390.820312 L 316.210938 408.304688 C 304.429688 419.851562 298.367188 425.734375 298.035156 425.957031 C 297.589844 426.179688 297.203125 426.289062 296.867188 426.289062 C 295.980469 426.289062 295.199219 425.957031 294.535156 425.289062 C 293.867188 424.625 293.476562 423.847656 293.367188 422.960938 C 293.367188 422.183594 294.144531 420.960938 295.699219 419.296875 C 297.257812 417.628906 302.484375 412.359375 311.375 403.476562 L 328.71875 386.15625 L 311.375 368.839844 C 302.371094 359.847656 297.144531 354.574219 295.699219 353.019531 C 294.253906 351.464844 293.476562 350.242188 293.367188 349.355469 C 293.367188 348.355469 293.699219 347.578125 294.367188 347.023438 C 295.035156 346.46875 295.867188 346.191406 296.867188 346.191406 C 297.425781 346.191406 297.8125 346.246094 298.035156 346.359375 C 298.367188 346.578125 304.429688 352.464844 316.210938 364.007812 L 333.722656 381.496094 L 351.066406 364.175781 C 359.625 355.628906 364.851562 350.464844 366.742188 348.6875 C 368.632812 346.914062 369.855469 346.023438 370.410156 346.023438 C 372.746094 346.023438 373.914062 347.132812 373.914062 349.355469 C 373.914062 350.132812 373.355469 351.132812 372.246094 352.351562 C 371.132812 353.574219 365.6875 359.011719 355.902344 368.671875 L 338.558594 386.15625 L 355.902344 403.640625 C 365.242188 412.96875 370.578125 418.351562 371.910156 419.796875 C 373.246094 421.238281 373.914062 422.292969 373.914062 422.960938 Z M 373.914062 422.960938 " fill-opacity="1" fill-rule="nonzero"/><g clip-path="url(#e38d744fbf)"><path fill="#000000" d="M 507.855469 218.964844 L 505.6875 219.796875 C 504.132812 220.351562 501.910156 220.90625 499.019531 221.460938 C 496.128906 222.019531 492.902344 222.40625 489.347656 222.628906 L 486.179688 222.628906 L 486.179688 214.96875 L 489.347656 214.96875 C 494.570312 214.746094 499.40625 213.914062 503.855469 212.46875 C 508.300781 211.027344 511.414062 209.695312 513.195312 208.472656 C 514.972656 207.253906 516.527344 206.03125 517.863281 204.808594 C 518.085938 204.476562 518.753906 204.308594 519.863281 204.308594 C 520.863281 204.308594 521.808594 204.644531 522.699219 205.308594 L 522.699219 255.101562 L 522.867188 305.058594 C 523.644531 305.835938 524.3125 306.335938 524.867188 306.558594 C 525.421875 306.78125 526.757812 307 528.871094 307.222656 C 530.980469 307.445312 534.429688 307.558594 539.207031 307.558594 L 543.542969 307.558594 L 543.542969 315.21875 L 541.710938 315.21875 C 539.375 314.882812 530.535156 314.71875 515.195312 314.71875 C 500.074219 314.71875 491.347656 314.882812 489.011719 315.21875 L 487.011719 315.21875 L 487.011719 307.558594 L 491.347656 307.558594 C 493.792969 307.558594 495.90625 307.558594 497.683594 307.558594 C 499.464844 307.558594 500.851562 307.5 501.855469 307.390625 C 502.855469 307.277344 503.742188 307.113281 504.523438 306.890625 C 505.300781 306.667969 505.746094 306.558594 505.855469 306.558594 C 505.96875 306.558594 506.300781 306.28125 506.855469 305.726562 C 507.414062 305.167969 507.746094 304.949219 507.855469 305.058594 Z M 507.855469 218.964844 " fill-opacity="1" fill-rule="nonzero"/></g><g clip-path="url(#ad0caa5e52)"><path fill="#000000" d="M 562.722656 263.09375 C 562.722656 245 567.226562 230.675781 576.230469 220.128906 C 585.234375 209.582031 595.242188 204.308594 606.246094 204.308594 C 613.917969 204.308594 619.421875 206.308594 622.757812 210.304688 C 626.09375 214.300781 627.761719 218.742188 627.761719 223.628906 C 627.761719 226.402344 626.980469 228.625 625.425781 230.289062 C 623.867188 231.953125 621.699219 232.785156 618.921875 232.785156 C 616.363281 232.785156 614.253906 232.007812 612.585938 230.453125 C 610.917969 228.902344 610.082031 226.734375 610.082031 223.960938 C 610.082031 219.074219 612.695312 216.132812 617.921875 215.132812 C 615.476562 212.691406 612.027344 211.304688 607.582031 210.972656 C 599.6875 210.972656 593.183594 214.300781 588.070312 220.964844 C 582.84375 228.289062 580.234375 239.503906 580.234375 254.601562 L 580.398438 255.265625 C 580.957031 254.601562 581.398438 253.878906 581.734375 253.101562 C 586.292969 246.441406 592.238281 243.109375 599.578125 243.109375 L 600.246094 243.109375 C 605.359375 243.109375 609.859375 244.164062 613.753906 246.273438 C 616.421875 247.828125 619.089844 250.050781 621.757812 252.9375 C 624.425781 255.824219 626.59375 258.988281 628.261719 262.429688 C 630.59375 267.867188 631.761719 273.808594 631.761719 280.246094 L 631.761719 283.242188 C 631.761719 285.796875 631.484375 288.183594 630.929688 290.40625 C 629.707031 296.953125 626.148438 303.339844 620.253906 309.554688 C 614.363281 315.773438 606.914062 318.878906 597.910156 318.878906 C 594.796875 318.878906 591.792969 318.4375 588.902344 317.546875 C 586.015625 316.660156 582.902344 314.996094 579.566406 312.550781 C 576.230469 310.109375 573.394531 306.835938 571.0625 302.726562 C 568.726562 298.621094 566.726562 293.234375 565.058594 286.574219 C 563.390625 279.914062 562.609375 272.085938 562.722656 263.09375 Z M 598.578125 249.105469 C 595.242188 249.105469 592.351562 250.050781 589.90625 251.9375 C 587.457031 253.824219 585.570312 256.320312 584.234375 259.429688 C 582.902344 262.539062 581.957031 265.703125 581.398438 268.921875 C 580.84375 272.140625 580.511719 275.582031 580.398438 279.246094 C 580.398438 288.460938 581.066406 295.066406 582.402344 299.0625 C 583.734375 303.058594 585.847656 306.28125 588.738281 308.722656 C 591.40625 310.722656 594.351562 311.71875 597.574219 311.71875 C 603.246094 311.71875 607.582031 309.609375 610.582031 305.390625 C 612.027344 303.394531 613.03125 300.894531 613.585938 297.898438 C 614.140625 294.902344 614.417969 289.074219 614.417969 280.414062 C 614.417969 271.53125 614.140625 265.59375 613.585938 262.59375 C 613.03125 259.597656 612.027344 257.097656 610.582031 255.101562 C 607.582031 251.105469 603.578125 249.105469 598.578125 249.105469 Z M 598.578125 249.105469 " fill-opacity="1" fill-rule="nonzero"/></g><g clip-path="url(#909327eca9)"><path fill="#000000" d="M 541.375 515.882812 C 541.375 518.546875 540.488281 520.765625 538.707031 522.542969 C 536.929688 524.320312 534.761719 525.207031 532.203125 525.207031 L 531.039062 525.207031 C 536.152344 533.976562 542.933594 538.363281 551.382812 538.363281 C 559.164062 538.363281 564.835938 535.03125 568.390625 528.371094 C 570.503906 524.707031 571.5625 517.601562 571.5625 507.054688 C 571.5625 495.621094 570.058594 487.90625 567.058594 483.910156 C 564.167969 480.246094 560.945312 478.414062 557.386719 478.414062 L 556.386719 478.414062 C 547.714844 478.414062 541.15625 482.1875 536.707031 489.738281 C 536.261719 490.515625 535.875 490.957031 535.539062 491.070312 C 535.207031 491.179688 534.371094 491.289062 533.039062 491.402344 C 531.148438 491.402344 530.09375 491.070312 529.871094 490.402344 C 529.648438 489.957031 529.535156 480.246094 529.535156 461.261719 L 529.535156 439.777344 C 529.535156 434.226562 529.8125 431.453125 530.371094 431.453125 C 530.59375 431.230469 530.816406 431.121094 531.039062 431.121094 C 531.148438 431.121094 532.316406 431.5625 534.539062 432.453125 C 536.761719 433.339844 539.820312 434.226562 543.710938 435.117188 C 547.601562 436.003906 551.773438 436.449219 556.21875 436.449219 C 564.113281 436.449219 571.671875 434.894531 578.898438 431.785156 C 579.789062 431.339844 580.511719 431.121094 581.066406 431.121094 C 581.957031 431.121094 582.402344 432.117188 582.402344 434.117188 L 582.402344 436.28125 C 573.285156 447.050781 561.886719 452.433594 548.214844 452.433594 C 544.765625 452.433594 541.65625 452.101562 538.875 451.4375 L 537.207031 451.101562 L 537.207031 479.746094 C 539.320312 478.191406 540.988281 476.96875 542.210938 476.082031 C 543.433594 475.195312 545.433594 474.304688 548.214844 473.417969 C 550.992188 472.527344 553.828125 472.085938 556.71875 472.085938 C 565.722656 472.085938 573.339844 475.691406 579.566406 482.910156 C 585.792969 490.125 588.902344 498.671875 588.902344 508.554688 C 588.902344 518.769531 585.347656 527.484375 578.230469 534.699219 C 571.117188 541.914062 562.445312 545.578125 552.214844 545.691406 C 543.210938 545.691406 535.984375 542.691406 530.535156 536.695312 C 525.089844 530.703125 522.367188 523.929688 522.367188 516.382812 C 522.367188 513.714844 522.976562 511.605469 524.199219 510.054688 C 525.421875 508.5 526.703125 507.5 528.035156 507.054688 C 529.371094 506.613281 530.648438 506.390625 531.871094 506.390625 C 534.652344 506.390625 536.929688 507.332031 538.707031 509.21875 C 540.488281 511.109375 541.375 513.328125 541.375 515.882812 Z M 541.375 515.882812 " fill-opacity="1" fill-rule="nonzero"/></g><path fill="#000000" d="M 455.660156 391.152344 L 655.777344 391.152344 L 655.777344 381.160156 L 455.660156 381.160156 Z M 455.660156 391.152344 " fill-opacity="1" fill-rule="nonzero"/></svg>