<svg xmlns="http://www.w3.org/2000/svg" xmlns:xlink="http://www.w3.org/1999/xlink" width="1000" zoomAndPan="magnify" viewBox="0 0 750 749.999995" height="1000" preserveAspectRatio="xMidYMid meet" version="1.0"><rect x="-75" width="900" fill="#ffffff" y="-74.999999" height="899.999994" fill-opacity="1"/><rect x="-75" width="900" fill="#ffffff" y="-74.999999" height="899.999994" fill-opacity="1"/><path fill="#000000" d="M 161.730469 246.488281 C 161.730469 246.488281 161.730469 242.144531 161.730469 233.457031 C 161.730469 224.773438 164.789062 217.777344 170.898438 212.476562 C 177.011719 207.175781 184.027344 204.46875 191.949219 204.355469 C 199.984375 204.355469 207.117188 206.722656 213.339844 211.460938 C 219.566406 216.199219 222.675781 222.347656 222.675781 229.90625 C 222.675781 233.289062 222.054688 236.449219 220.808594 239.378906 C 219.566406 242.3125 218.09375 244.683594 216.394531 246.488281 C 214.699219 248.292969 212.945312 249.871094 211.132812 251.226562 C 209.324219 252.578125 207.851562 253.59375 206.71875 254.269531 C 205.589844 254.949219 204.964844 255.398438 204.851562 255.625 L 207.230469 257.148438 C 208.8125 258.277344 210.398438 259.402344 211.984375 260.53125 C 213.566406 261.660156 214.472656 262.28125 214.699219 262.394531 C 223.1875 269.046875 227.429688 277.453125 227.429688 287.605469 C 227.429688 296.515625 224.148438 304.242188 217.585938 310.785156 C 211.019531 317.328125 202.53125 320.65625 192.121094 320.769531 C 181.933594 320.769531 173.558594 317.894531 166.996094 312.140625 C 160.429688 306.386719 157.148438 299.28125 157.148438 290.820312 C 157.148438 278.636719 164.449219 268.484375 179.046875 260.363281 L 175.992188 258.164062 C 173.617188 256.695312 172.085938 255.566406 171.410156 254.777344 C 164.957031 249.25 161.730469 242.144531 161.730469 233.457031 Z M 198.402344 251.734375 L 199.417969 251.054688 C 200.097656 250.605469 200.609375 250.265625 200.949219 250.039062 C 201.289062 249.816406 201.851562 249.421875 202.644531 248.855469 C 203.4375 248.292969 204.117188 247.726562 204.683594 247.164062 C 205.25 246.601562 205.871094 245.921875 206.550781 245.132812 C 207.230469 244.34375 207.851562 243.609375 208.417969 242.933594 C 208.984375 242.257812 209.550781 241.355469 210.113281 240.226562 C 210.679688 239.097656 211.191406 238.140625 211.644531 237.351562 C 212.09375 236.558594 212.378906 235.433594 212.492188 233.964844 C 212.605469 232.5 212.71875 231.257812 212.832031 230.242188 C 212.832031 225.394531 211.191406 221.277344 207.90625 217.890625 C 204.625 214.507812 200.835938 212.363281 196.535156 211.460938 C 195.742188 211.347656 193.875 211.292969 190.929688 211.292969 C 186.292969 211.292969 181.933594 212.757812 177.859375 215.691406 C 173.785156 218.625 171.691406 222.289062 171.578125 226.691406 C 171.578125 229.285156 172.3125 231.652344 173.785156 233.796875 C 175.257812 235.941406 176.726562 237.574219 178.199219 238.703125 C 179.671875 239.832031 182.5 241.636719 186.6875 244.117188 C 187.480469 244.683594 188.101562 245.078125 188.554688 245.304688 Z M 192.289062 313.492188 C 198.855469 313.492188 204.511719 311.574219 209.265625 307.742188 C 214.019531 303.90625 216.394531 299.28125 216.394531 293.867188 C 216.394531 291.949219 216.113281 290.144531 215.546875 288.449219 C 214.980469 286.757812 214.300781 285.347656 213.511719 284.21875 C 212.71875 283.09375 211.472656 281.851562 209.777344 280.496094 C 208.078125 279.144531 206.777344 278.128906 205.871094 277.453125 C 204.964844 276.773438 203.324219 275.703125 200.949219 274.238281 C 198.570312 272.769531 197.042969 271.8125 196.363281 271.359375 C 194.78125 270.34375 193.082031 269.273438 191.269531 268.144531 C 189.460938 267.019531 187.988281 266.058594 186.855469 265.269531 L 185.5 264.421875 C 184.820312 264.421875 183.179688 265.382812 180.574219 267.300781 C 177.972656 269.21875 175.257812 272.320312 172.425781 276.605469 C 169.597656 280.894531 168.125 285.519531 168.011719 290.480469 C 168.011719 297.136719 170.445312 302.609375 175.3125 306.894531 C 180.179688 311.179688 185.839844 313.378906 192.289062 313.492188 Z M 192.289062 313.492188 " fill-opacity="1" fill-rule="nonzero"/><path fill="#000000" d="M 168.351562 474.917969 C 165.296875 474.917969 162.863281 473.902344 161.054688 471.871094 C 159.242188 469.839844 158.335938 467.359375 158.335938 464.425781 C 158.335938 456.417969 161.335938 449.480469 167.335938 443.613281 C 173.332031 437.746094 180.800781 434.816406 189.742188 434.816406 C 200.042969 434.816406 208.644531 437.972656 215.546875 444.289062 C 222.453125 450.605469 225.960938 458.785156 226.074219 468.824219 C 226.074219 473.675781 224.941406 478.300781 222.675781 482.699219 C 220.414062 487.097656 217.699219 490.933594 214.527344 494.207031 C 211.359375 497.476562 206.832031 501.652344 200.949219 506.726562 C 196.875 510.222656 191.214844 515.414062 183.972656 522.292969 L 173.953125 531.769531 L 186.855469 531.9375 C 204.625 531.9375 214.078125 531.65625 215.207031 531.09375 C 216 530.867188 217.359375 525.847656 219.28125 516.035156 L 219.28125 515.527344 L 226.074219 515.527344 L 226.074219 516.035156 C 225.960938 516.371094 225.222656 521.503906 223.867188 531.433594 C 222.507812 541.359375 221.660156 546.546875 221.320312 547 L 221.320312 547.507812 L 158.335938 547.507812 L 158.335938 542.261719 C 158.335938 541.472656 158.675781 540.625 159.355469 539.722656 C 160.035156 538.820312 161.730469 536.847656 164.449219 533.800781 C 167.730469 530.191406 170.558594 527.03125 172.9375 524.324219 C 173.953125 523.195312 175.878906 521.109375 178.707031 518.0625 C 181.539062 515.019531 183.460938 512.933594 184.480469 511.804688 C 185.5 510.675781 187.140625 508.816406 189.402344 506.21875 C 191.667969 503.625 193.25 501.707031 194.15625 500.46875 C 195.0625 499.226562 196.363281 497.535156 198.0625 495.390625 C 199.757812 493.246094 200.949219 491.441406 201.625 489.976562 C 202.304688 488.507812 203.15625 486.875 204.171875 485.070312 C 205.191406 483.265625 205.925781 481.460938 206.378906 479.65625 C 206.832031 477.851562 207.230469 476.15625 207.570312 474.578125 C 207.90625 473 208.078125 471.136719 208.078125 468.996094 C 208.078125 461.886719 206.152344 455.738281 202.304688 450.550781 C 198.457031 445.363281 192.96875 442.765625 185.839844 442.765625 C 182.105469 442.765625 178.820312 443.726562 175.992188 445.644531 C 173.164062 447.5625 171.183594 449.421875 170.050781 451.226562 C 168.917969 453.03125 168.351562 454.105469 168.351562 454.441406 C 168.351562 454.554688 168.636719 454.613281 169.203125 454.613281 C 171.238281 454.613281 173.332031 455.402344 175.484375 456.980469 C 177.632812 458.558594 178.707031 461.15625 178.707031 464.765625 C 178.707031 467.585938 177.804688 469.953125 175.992188 471.871094 C 174.179688 473.789062 171.636719 474.804688 168.351562 474.917969 Z M 168.351562 474.917969 " fill-opacity="1" fill-rule="nonzero"/><path fill="#000000" d="M 132.871094 394.203125 L 251.707031 394.203125 L 251.707031 384.050781 L 132.871094 384.050781 Z M 132.871094 394.203125 " fill-opacity="1" fill-rule="nonzero"/><path fill="#000000" d="M 416.753906 426.523438 C 416.753906 428.78125 415.566406 429.90625 413.1875 429.90625 C 412.621094 429.90625 411.378906 429.003906 409.453125 427.199219 C 407.53125 425.394531 402.210938 420.148438 393.496094 411.464844 L 375.839844 393.867188 L 358.015625 411.632812 C 346.019531 423.363281 339.851562 429.34375 339.511719 429.570312 C 339.058594 429.792969 338.660156 429.90625 338.320312 429.90625 C 337.417969 429.90625 336.625 429.570312 335.945312 428.890625 C 335.265625 428.214844 334.871094 427.425781 334.757812 426.523438 C 334.757812 425.734375 335.550781 424.492188 337.132812 422.800781 C 338.71875 421.109375 344.039062 415.75 353.089844 406.726562 L 370.746094 389.128906 L 353.089844 371.53125 C 343.925781 362.394531 338.605469 357.035156 337.132812 355.457031 C 335.664062 353.878906 334.871094 352.636719 334.757812 351.734375 C 334.757812 350.71875 335.097656 349.929688 335.773438 349.363281 C 336.453125 348.800781 337.304688 348.519531 338.320312 348.519531 C 338.886719 348.519531 339.285156 348.574219 339.511719 348.6875 C 339.851562 348.914062 346.019531 354.894531 358.015625 366.625 L 375.839844 384.390625 L 393.496094 366.792969 C 402.210938 358.109375 407.53125 352.863281 409.453125 351.058594 C 411.378906 349.253906 412.621094 348.351562 413.1875 348.351562 C 415.566406 348.351562 416.753906 349.476562 416.753906 351.734375 C 416.753906 352.523438 416.1875 353.539062 415.054688 354.78125 C 413.925781 356.019531 408.378906 361.546875 398.417969 371.363281 L 380.761719 389.128906 L 398.417969 406.894531 C 407.925781 416.371094 413.359375 421.84375 414.714844 423.308594 C 416.074219 424.773438 416.753906 425.847656 416.753906 426.523438 Z M 416.753906 426.523438 " fill-opacity="1" fill-rule="nonzero"/><path fill="#000000" d="M 595.378906 317.046875 C 593.34375 316.707031 586.042969 316.539062 573.480469 316.539062 C 560.351562 316.539062 552.769531 316.707031 550.730469 317.046875 L 549.203125 317.046875 L 549.203125 309.261719 L 554.46875 309.261719 C 556.730469 309.261719 558.257812 309.261719 559.050781 309.261719 C 559.84375 309.261719 560.804688 309.148438 561.9375 308.925781 C 563.070312 308.699219 563.859375 308.417969 564.3125 308.078125 C 564.765625 307.742188 565.164062 307.289062 565.5 306.726562 C 565.613281 306.5 565.671875 303.453125 565.671875 297.585938 L 565.671875 289.128906 L 521.703125 289.128906 L 521.703125 281.34375 L 547.335938 242.257812 C 564.652344 216.085938 573.425781 202.945312 573.652344 202.832031 C 573.875 202.605469 575.066406 202.492188 577.214844 202.492188 L 580.269531 202.492188 L 581.289062 203.507812 L 581.289062 281.34375 L 596.910156 281.34375 L 596.910156 289.128906 L 581.289062 289.128906 L 581.289062 297.757812 C 581.289062 302.382812 581.289062 305.089844 581.289062 305.878906 C 581.289062 306.667969 581.628906 307.34375 582.308594 307.910156 C 583.214844 308.699219 586.441406 309.148438 591.984375 309.261719 L 596.910156 309.261719 L 596.910156 317.046875 Z M 566.691406 281.34375 L 566.691406 224.828125 L 529.511719 281.175781 L 548.015625 281.34375 Z M 566.691406 281.34375 " fill-opacity="1" fill-rule="nonzero"/><path fill="#000000" d="M 595.378906 547.507812 C 593.34375 547.167969 586.042969 547 573.480469 547 C 560.351562 547 552.769531 547.167969 550.730469 547.507812 L 549.203125 547.507812 L 549.203125 539.722656 L 554.46875 539.722656 C 556.730469 539.722656 558.257812 539.722656 559.050781 539.722656 C 559.84375 539.722656 560.804688 539.609375 561.9375 539.382812 C 563.070312 539.160156 563.859375 538.875 564.3125 538.539062 C 564.765625 538.199219 565.164062 537.75 565.5 537.183594 C 565.613281 536.960938 565.671875 533.914062 565.671875 528.046875 L 565.671875 519.585938 L 521.703125 519.585938 L 521.703125 511.804688 L 547.335938 472.71875 C 564.652344 446.546875 573.425781 433.40625 573.652344 433.292969 C 573.875 433.066406 575.066406 432.953125 577.214844 432.953125 L 580.269531 432.953125 L 581.289062 433.96875 L 581.289062 511.804688 L 596.910156 511.804688 L 596.910156 519.585938 L 581.289062 519.585938 L 581.289062 528.21875 C 581.289062 532.84375 581.289062 535.550781 581.289062 536.339844 C 581.289062 537.128906 581.628906 537.804688 582.308594 538.371094 C 583.214844 539.160156 586.441406 539.609375 591.984375 539.722656 L 596.910156 539.722656 L 596.910156 547.507812 Z M 566.691406 511.804688 L 566.691406 455.289062 L 529.511719 511.632812 L 548.015625 511.804688 Z M 566.691406 511.804688 " fill-opacity="1" fill-rule="nonzero"/><path fill="#000000" d="M 499.972656 394.203125 L 618.808594 394.203125 L 618.808594 384.050781 L 499.972656 384.050781 Z M 499.972656 394.203125 " fill-opacity="1" fill-rule="nonzero"/></svg>