<?xml version="1.0" encoding="iso-8859-1"?>
<!-- Generator: Adobe Illustrator 19.0.0, SVG Export Plug-In . SVG Version: 6.00 Build 0)  -->
<svg version="1.1" id="Layer_1" xmlns="http://www.w3.org/2000/svg" xmlns:xlink="http://www.w3.org/1999/xlink" x="0px" y="0px"
	 viewBox="0 0 412 412" style="enable-background:new 0 0 412 412;" xml:space="preserve">
<g>
	<polygon style="fill:#3E81C8;" points="206.005,106.999 134.76,156.502 63.52,107 206,7.998 348.479,107 277.24,156.502 	"/>
	<polygon style="fill:#3E81C8;" points="282.206,153.046 348.48,107 348.48,206.002 282.48,251.872 	"/>
	<polygon style="fill:#F5C525;" points="206,206.003 206,106.999 279.036,157.744 282.48,160.13 282.48,259.139 	"/>
	<polygon style="fill:#EB7830;" points="129.52,160.13 206,106.999 206,206.003 129.52,259.139 	"/>
	<polygon style="fill:#F5C525;" points="134.76,255.5 206,205.998 277.239,255.5 206,305.002 	"/>
	<polygon style="fill:#3E81C8;" points="129.52,350.863 129.52,251.859 205.995,305 277.299,255.455 277.6,255.256 348.48,205.998 
		348.48,305.003 206,404.002 	"/>
	<polygon style="fill:#3E81C8;" points="63.52,305.003 63.52,205.998 129.52,251.867 129.52,350.859 	"/>
	<polygon style="fill:#3E81C8;" points="63.52,206.002 63.52,107.001 129.806,153.054 129.52,251.872 	"/>
	<g>
		<path style="fill:#231F20;" d="M356.476,304.894c0-0.001,0-0.002,0-0.003V106.999c0-0.001,0-0.001,0-0.002s0-0.001,0-0.002
			c0-0.018-0.003-0.036-0.003-0.055c-0.002-0.257-0.015-0.487-0.042-0.684c-0.217-2.336-1.442-4.477-3.39-5.831L210.565,1.43
			c-2.745-1.907-6.385-1.907-9.13,0L58.959,100.426c-2.04,1.417-3.285,3.699-3.41,6.164c-0.014,0.116-0.023,0.244-0.024,0.387
			c0,0.006-0.001,0.012-0.001,0.018c0,0,0,0.001,0,0.002s0,0.001,0,0.002v197.893c0,0.001,0,0.002,0,0.003v0.107
			c0,0.066,0.008,0.115,0.01,0.177c0.056,2.469,1.242,4.879,3.425,6.396l142.476,98.995c1.373,0.954,2.969,1.43,4.565,1.43
			s3.192-0.477,4.565-1.43l142.476-98.995c2.18-1.515,3.366-3.92,3.425-6.385c0.002-0.066,0.01-0.119,0.01-0.188V304.894z
			 M274.476,164.324v79.513L214,201.817v-79.52L274.476,164.324z M198,122.297v79.52l-60.476,42.02v-79.513L198,122.297z
			 M121.524,236.565l-50-34.748v-79.52l50.026,34.766L121.524,236.565z M71.524,221.302l50,34.748v79.513l-50-34.741V221.302z
			 M148.781,255.498L206,215.741l57.218,39.756L206,295.262L148.781,255.498z M290.45,157.063l50.026-34.766v79.52l-50,34.748
			L290.45,157.063z M206,17.742l128.457,89.254l-57.216,39.763l-66.675-46.333c-1.373-0.954-2.969-1.431-4.565-1.431
			s-3.193,0.477-4.565,1.431l-66.675,46.333l-57.216-39.763L206,17.742z M206,394.258l-68.476-47.578v-79.521l63.911,44.415
			c1.373,0.954,2.969,1.431,4.565,1.431s3.193-0.477,4.565-1.431l71.148-49.445c0.029-0.02,0.061-0.033,0.09-0.053l58.673-40.775
			v79.52L206,394.258z"/>
	</g>
</g>
<g>
</g>
<g>
</g>
<g>
</g>
<g>
</g>
<g>
</g>
<g>
</g>
<g>
</g>
<g>
</g>
<g>
</g>
<g>
</g>
<g>
</g>
<g>
</g>
<g>
</g>
<g>
</g>
<g>
</g>
</svg>
