<?xml version="1.0" encoding="iso-8859-1"?>
<!-- Generator: Adobe Illustrator 19.0.0, SVG Export Plug-In . SVG Version: 6.00 Build 0)  -->
<svg version="1.1" id="Layer_1" xmlns="http://www.w3.org/2000/svg" xmlns:xlink="http://www.w3.org/1999/xlink" x="0px" y="0px"
	 viewBox="0 0 503.467 503.467" style="enable-background:new 0 0 503.467 503.467;" xml:space="preserve">
<g transform="translate(1 1)">
	<polygon style="fill:#C49AE9;" points="250.733,37.4 310.467,37.4 310.467,3.267 250.733,3.267 	"/>
	<g>
		<path style="fill:#ECF4F7;" d="M481.133,464.067c0-4.267-3.413-8.533-8.533-8.533c-5.12,0-8.533,4.267-8.533,8.533
			c0-4.267-3.413-8.533-8.533-8.533S447,459.8,447,464.067c0-4.267-3.413-8.533-8.533-8.533c-5.12,0-8.533,4.267-8.533,8.533
			c0-4.267-3.413-8.533-8.533-8.533s-8.533,4.267-8.533,8.533c0-4.267-3.413-8.533-8.533-8.533H395.8V293.4v-51.2h85.333v213.333
			h8.533C484.547,455.533,481.133,459.8,481.133,464.067z M293.4,173.933V293.4h-17.067v34.133h-51.2V293.4h-17.067V173.933H293.4z
			 M105.667,455.533h8.533c-4.267,0-8.533,4.267-8.533,8.533c0-4.267-4.267-8.533-8.533-8.533S88.6,459.8,88.6,464.067
			c0-4.267-4.267-8.533-8.533-8.533c-4.267,0-8.533,4.267-8.533,8.533c0-4.267-4.267-8.533-8.533-8.533s-8.533,4.267-8.533,8.533
			c0-4.267-4.267-8.533-8.533-8.533S37.4,459.8,37.4,464.067c0-4.267-4.267-8.533-8.533-8.533h-8.533V242.2h85.333v51.2V455.533z"/>
		<path style="fill:#ECF4F7;" d="M395.8,455.533h8.533c-5.12,0-8.533,4.267-8.533,8.533c0-4.267-3.413-8.533-8.533-8.533
			s-8.533,4.267-8.533,8.533c0-4.267-3.413-8.533-8.533-8.533s-8.533,4.267-8.533,8.533c0-4.267-3.413-8.533-8.533-8.533
			s-8.533,4.267-8.533,8.533c0-4.267-3.413-8.533-8.533-8.533s-8.533,4.267-8.533,8.533V498.2H293.4v-34.133v-34.133V421.4
			c0-23.893-18.773-42.667-42.667-42.667s-42.667,18.773-42.667,42.667v8.533v34.133V498.2h-34.133v-34.133
			c0-4.267-3.413-8.533-8.533-8.533c-4.267,0-8.533,4.267-8.533,8.533c0-4.267-4.267-8.533-8.533-8.533s-8.533,4.267-8.533,8.533
			c0-4.267-4.267-8.533-8.533-8.533c-4.267,0-8.533,4.267-8.533,8.533c0-4.267-4.267-8.533-8.533-8.533h-8.533V293.4H139.8v34.133
			H191V293.4h17.067h17.067v34.133h51.2V293.4H293.4h17.067v34.133h51.2V293.4H395.8V455.533z"/>
	</g>
	<g>
		<path style="fill:#AE938D;" d="M378.733,242.2H395.8h85.333H498.2l-59.733-119.467L378.733,242.2z M250.733,54.467l59.733,119.467
			H293.4h-85.333H191L250.733,54.467z M63,122.733L122.733,242.2h-17.067H20.333H3.267L63,122.733z"/>
		<path style="fill:#AE938D;" d="M208.067,464.067H293.4v-34.133h-85.333V464.067z M208.067,498.2H293.4v-34.133h-85.333V498.2z
			 M293.4,421.4v8.533h-85.333V421.4c0-23.893,18.773-42.667,42.667-42.667S293.4,397.507,293.4,421.4z"/>
	</g>
	<g>
		<path style="fill:#7EE1E6;" d="M464.067,464.067c0-4.267,3.413-8.533,8.533-8.533c5.12,0,8.533,4.267,8.533,8.533
			c0-4.267,3.413-8.533,8.533-8.533s8.533,4.267,8.533,8.533V498.2H327.533v-34.133c0-4.267,3.413-8.533,8.533-8.533
			s8.533,4.267,8.533,8.533c0-4.267,3.413-8.533,8.533-8.533s8.533,4.267,8.533,8.533c0-4.267,3.413-8.533,8.533-8.533
			s8.533,4.267,8.533,8.533c0-4.267,3.413-8.533,8.533-8.533s8.533,4.267,8.533,8.533c0-4.267,3.413-8.533,8.533-8.533
			s8.533,4.267,8.533,8.533c0-4.267,3.413-8.533,8.533-8.533s8.533,4.267,8.533,8.533c0-4.267,3.413-8.533,8.533-8.533
			c5.12,0,8.533,4.267,8.533,8.533c0-4.267,3.413-8.533,8.533-8.533S464.067,459.8,464.067,464.067"/>
		<path style="fill:#7EE1E6;" d="M173.933,464.067V498.2H3.267v-34.133c0-4.267,4.267-8.533,8.533-8.533s8.533,4.267,8.533,8.533
			c0-4.267,4.267-8.533,8.533-8.533s8.533,4.267,8.533,8.533c0-4.267,4.267-8.533,8.533-8.533s8.533,4.267,8.533,8.533
			c0-4.267,4.267-8.533,8.533-8.533s8.533,4.267,8.533,8.533c0-4.267,4.267-8.533,8.533-8.533c4.267,0,8.533,4.267,8.533,8.533
			c0-4.267,4.267-8.533,8.533-8.533s8.533,4.267,8.533,8.533c0-4.267,4.267-8.533,8.533-8.533c4.267,0,8.533,4.267,8.533,8.533
			c0-4.267,4.267-8.533,8.533-8.533c4.267,0,8.533,4.267,8.533,8.533c0-4.267,4.267-8.533,8.533-8.533s8.533,4.267,8.533,8.533
			c0-4.267,4.267-8.533,8.533-8.533C170.52,455.533,173.933,459.8,173.933,464.067"/>
	</g>
</g>
<path style="fill:#51565F;" d="M499.2,503.467H328.533c-2.56,0-4.267-1.707-4.267-4.267v-34.133c0-6.827,5.973-12.8,12.8-12.8
	c3.413,0,5.973,0.853,8.533,3.413c4.267-4.267,12.8-4.267,17.067,0c4.267-4.267,12.8-4.267,17.067,0
	c4.267-4.267,12.8-4.267,17.067,0c4.267-4.267,12.8-4.267,17.067,0c4.267-4.267,12.8-4.267,17.067,0
	c4.267-4.267,12.8-4.267,17.067,0c4.267-4.267,12.8-4.267,17.067,0c4.267-4.267,12.8-4.267,17.067,0
	c2.56-1.707,5.12-3.413,8.533-3.413c6.827,0,12.8,5.973,12.8,12.8V499.2C503.467,501.76,501.76,503.467,499.2,503.467z
	 M332.8,494.933h162.133v-29.867c0-2.56-1.707-4.267-4.267-4.267s-4.267,1.707-4.267,4.267c0,2.56-1.707,4.267-4.267,4.267
	s-4.267-1.707-4.267-4.267c0-2.56-1.707-4.267-4.267-4.267s-4.267,1.707-4.267,4.267c0,2.56-1.707,4.267-4.267,4.267
	s-4.267-1.707-4.267-4.267c0-2.56-1.707-4.267-4.267-4.267s-4.267,1.707-4.267,4.267c0,2.56-1.707,4.267-4.267,4.267
	s-4.267-1.707-4.267-4.267c0-2.56-1.707-4.267-4.267-4.267c-2.56,0-4.267,1.707-4.267,4.267c0,2.56-1.707,4.267-4.267,4.267
	s-4.267-1.707-4.267-4.267c0-2.56-1.707-4.267-4.267-4.267s-4.267,1.707-4.267,4.267c0,2.56-1.707,4.267-4.267,4.267
	s-4.267-1.707-4.267-4.267c0-2.56-1.707-4.267-4.267-4.267s-4.267,1.707-4.267,4.267c0,2.56-1.707,4.267-4.267,4.267
	s-4.267-1.707-4.267-4.267c0-2.56-1.707-4.267-4.267-4.267S384,462.507,384,465.067c0,2.56-1.707,4.267-4.267,4.267
	c-2.56,0-4.267-1.707-4.267-4.267c0-2.56-1.707-4.267-4.267-4.267s-4.267,1.707-4.267,4.267c0,2.56-1.707,4.267-4.267,4.267
	s-4.267-1.707-4.267-4.267c0-2.56-1.707-4.267-4.267-4.267s-4.267,1.707-4.267,4.267c0,2.56-1.707,4.267-4.267,4.267
	s-4.267-1.707-4.267-4.267c0-2.56-1.707-4.267-4.267-4.267s-4.267,1.707-4.267,4.267V494.933z M294.4,503.467h-85.333
	c-2.56,0-4.267-1.707-4.267-4.267v-76.8c0-25.6,21.333-46.933,46.933-46.933s46.933,21.333,46.933,46.933v76.8
	C298.667,501.76,296.96,503.467,294.4,503.467z M213.333,494.933h76.8v-25.6h-76.8V494.933z M213.333,460.8h76.8v-25.6h-76.8V460.8z
	 M213.333,426.667h76.8V422.4c0-21.333-17.067-38.4-38.4-38.4s-38.4,17.067-38.4,38.4V426.667z M174.933,503.467H4.267
	C1.707,503.467,0,501.76,0,499.2v-34.133c0-6.827,5.973-12.8,12.8-12.8c3.413,0,5.973,0.853,8.533,3.413
	c4.267-4.267,12.8-4.267,17.067,0c4.267-4.267,12.8-4.267,17.067,0c4.267-4.267,12.8-4.267,17.067,0
	c4.267-4.267,12.8-4.267,17.067,0c4.267-4.267,12.8-4.267,17.067,0c4.267-4.267,12.8-4.267,17.067,0
	c4.267-4.267,12.8-4.267,17.067,0c4.267-4.267,12.8-4.267,17.067,0c2.56-1.707,5.12-3.413,8.533-3.413c6.827,0,12.8,5.973,12.8,12.8
	V499.2C179.2,501.76,177.493,503.467,174.933,503.467z M8.533,494.933h162.133v-29.867c0-2.56-1.707-4.267-4.267-4.267
	s-4.267,1.707-4.267,4.267c0,2.56-1.707,4.267-4.267,4.267c-2.56,0-4.267-1.707-4.267-4.267c0-2.56-1.707-4.267-4.267-4.267
	s-4.267,1.707-4.267,4.267c0,2.56-1.707,4.267-4.267,4.267c-2.56,0-4.267-1.707-4.267-4.267c0-2.56-1.707-4.267-4.267-4.267
	c-2.56,0-4.267,1.707-4.267,4.267c0,2.56-1.707,4.267-4.267,4.267c-2.56,0-4.267-1.707-4.267-4.267c0-2.56-1.707-4.267-4.267-4.267
	c-2.56,0-4.267,1.707-4.267,4.267c0,2.56-1.707,4.267-4.267,4.267s-4.267-1.707-4.267-4.267c0-2.56-1.707-4.267-4.267-4.267
	s-4.267,1.707-4.267,4.267c0,2.56-1.707,4.267-4.267,4.267c-2.56,0-4.267-1.707-4.267-4.267c0-2.56-1.707-4.267-4.267-4.267
	c-2.56,0-4.267,1.707-4.267,4.267c0,2.56-1.707,4.267-4.267,4.267c-2.56,0-4.267-1.707-4.267-4.267c0-2.56-1.707-4.267-4.267-4.267
	c-2.56,0-4.267,1.707-4.267,4.267c0,2.56-1.707,4.267-4.267,4.267c-2.56,0-4.267-1.707-4.267-4.267c0-2.56-1.707-4.267-4.267-4.267
	c-2.56,0-4.267,1.707-4.267,4.267c0,2.56-1.707,4.267-4.267,4.267s-4.267-1.707-4.267-4.267c0-2.56-1.707-4.267-4.267-4.267
	s-4.267,1.707-4.267,4.267c0,2.56-1.707,4.267-4.267,4.267s-4.267-1.707-4.267-4.267c0-2.56-1.707-4.267-4.267-4.267
	s-4.267,1.707-4.267,4.267V494.933z M21.333,435.2c-2.56,0-4.267-1.707-4.267-4.267V247.467h-12.8C1.707,247.467,0,245.76,0,243.2
	s1.707-4.267,4.267-4.267h119.467c2.56,0,4.267,1.707,4.267,4.267s-1.707,4.267-4.267,4.267h-12.8v12.8
	c0,2.56-1.707,4.267-4.267,4.267s-4.267-1.707-4.267-4.267v-12.8H25.6v183.467C25.6,433.493,23.893,435.2,21.333,435.2z
	 M482.133,426.667c-2.56,0-4.267-1.707-4.267-4.267V247.467h-76.8v12.8c0,2.56-1.707,4.267-4.267,4.267s-4.267-1.707-4.267-4.267
	v-12.8h-12.8c-2.56,0-4.267-1.707-4.267-4.267s1.707-4.267,4.267-4.267H499.2c2.56,0,4.267,1.707,4.267,4.267
	s-1.707,4.267-4.267,4.267h-12.8V422.4C486.4,424.96,484.693,426.667,482.133,426.667z M396.8,426.667
	c-2.56,0-4.267-1.707-4.267-4.267V298.667h-25.6v29.867c0,2.56-1.707,4.267-4.267,4.267h-51.2c-2.56,0-4.267-1.707-4.267-4.267
	v-29.867h-25.6v29.867c0,2.56-1.707,4.267-4.267,4.267h-51.2c-2.56,0-4.267-1.707-4.267-4.267v-29.867h-25.6v29.867
	c0,2.56-1.707,4.267-4.267,4.267h-51.2c-2.56,0-4.267-1.707-4.267-4.267v-29.867h-25.6V422.4c0,2.56-1.707,4.267-4.267,4.267
	s-4.267-1.707-4.267-4.267v-128c0-2.56,1.707-4.267,4.267-4.267H140.8c2.56,0,4.267,1.707,4.267,4.267v29.867h42.667V294.4
	c0-2.56,1.707-4.267,4.267-4.267h34.133c2.56,0,4.267,1.707,4.267,4.267v29.867h42.667V294.4c0-2.56,1.707-4.267,4.267-4.267h34.133
	c2.56,0,4.267,1.707,4.267,4.267v29.867H358.4V294.4c0-2.56,1.707-4.267,4.267-4.267H396.8c2.56,0,4.267,1.707,4.267,4.267v128
	C401.067,424.96,399.36,426.667,396.8,426.667z M439.467,384c-2.56,0-4.267-1.707-4.267-4.267v-17.067
	c0-2.56,1.707-4.267,4.267-4.267c2.56,0,4.267,1.707,4.267,4.267v17.067C443.733,382.293,442.027,384,439.467,384z M64,384
	c-2.56,0-4.267-1.707-4.267-4.267v-17.067c0-2.56,1.707-4.267,4.267-4.267c2.56,0,4.267,1.707,4.267,4.267v17.067
	C68.267,382.293,66.56,384,64,384z M439.467,315.733c-2.56,0-4.267-1.707-4.267-4.267V294.4c0-2.56,1.707-4.267,4.267-4.267
	c2.56,0,4.267,1.707,4.267,4.267v17.067C443.733,314.027,442.027,315.733,439.467,315.733z M64,315.733
	c-2.56,0-4.267-1.707-4.267-4.267V294.4c0-2.56,1.707-4.267,4.267-4.267c2.56,0,4.267,1.707,4.267,4.267v17.067
	C68.267,314.027,66.56,315.733,64,315.733z M294.4,264.533c-2.56,0-4.267-1.707-4.267-4.267V179.2h-76.8v81.067
	c0,2.56-1.707,4.267-4.267,4.267s-4.267-1.707-4.267-4.267V179.2H192c-2.56,0-4.267-1.707-4.267-4.267
	c0-2.56,1.707-4.267,4.267-4.267h119.467c2.56,0,4.267,1.707,4.267,4.267c0,2.56-1.707,4.267-4.267,4.267h-12.8v81.067
	C298.667,262.827,296.96,264.533,294.4,264.533z M251.733,247.467c-2.56,0-4.267-1.707-4.267-4.267v-17.067
	c0-2.56,1.707-4.267,4.267-4.267c2.56,0,4.267,1.707,4.267,4.267V243.2C256,245.76,254.293,247.467,251.733,247.467z
	 M482.133,213.333c-1.707,0-3.413-0.853-3.413-2.56l-34.987-69.12v67.413c0,2.56-1.707,4.267-4.267,4.267
	c-2.56,0-4.267-1.707-4.267-4.267v-67.413l-34.987,69.12c-0.853,1.707-3.413,2.56-5.973,1.707c-1.707-0.853-2.56-3.413-1.707-5.973
	l42.667-85.333c0,0,0-0.853,0.853-0.853l0,0l0,0c0,0,0,0,0.853-0.853l0,0l0,0c0.853-0.853,1.707-0.853,2.56-0.853l0,0l0,0l0,0l0,0
	l0,0l0,0l0,0c0.853,0,1.707,0,2.56,0.853l0,0l0,0c0,0,0,0,0.853,0.853l0,0l0,0c0,0,0,0.853,0.853,0.853l42.667,85.333
	c0.853,1.707,0,4.267-1.707,5.973C483.84,213.333,482.987,213.333,482.133,213.333z M106.667,213.333
	c-1.707,0-3.413-0.853-3.413-2.56l-34.987-69.12v67.413c0,2.56-1.707,4.267-4.267,4.267c-2.56,0-4.267-1.707-4.267-4.267v-67.413
	l-34.987,69.12c-0.853,1.707-3.413,2.56-5.973,1.707c-1.707-0.853-2.56-3.413-1.707-5.973l42.667-85.333c0,0,0-0.853,0.853-0.853
	l0,0l0,0c0,0,0,0,0.853-0.853l0,0c0.853-0.853,1.707-0.853,2.56-0.853l0,0l0,0l0,0l0,0l0,0l0,0l0,0c0.853,0,1.707,0,2.56,0.853l0,0
	c0,0,0,0,0.853,0.853l0,0l0,0c0,0,0,0.853,0.853,0.853l42.667,85.333c0.853,1.707,0,4.267-1.707,5.973
	C108.373,213.333,107.52,213.333,106.667,213.333z M294.4,145.067c-1.707,0-3.413-0.853-3.413-2.56L256,73.387V140.8
	c0,2.56-1.707,4.267-4.267,4.267c-2.56,0-4.267-1.707-4.267-4.267V73.387l-34.987,69.12c-0.853,1.707-3.413,2.56-5.973,1.707
	c-1.707-0.853-2.56-3.413-1.707-5.973l41.813-84.48V4.267c0-2.56,1.707-4.267,4.267-4.267h59.733c2.56,0,4.267,1.707,4.267,4.267
	V38.4c0,2.56-1.707,4.267-4.267,4.267H276.48c-2.56,0-4.267-1.707-4.267-4.267s1.707-4.267,4.267-4.267h29.867v-25.6h-51.2v46.08
	l41.813,84.48c0.853,1.707,0,4.267-1.707,5.973C296.107,145.067,295.253,145.067,294.4,145.067z"/>
<g>
</g>
<g>
</g>
<g>
</g>
<g>
</g>
<g>
</g>
<g>
</g>
<g>
</g>
<g>
</g>
<g>
</g>
<g>
</g>
<g>
</g>
<g>
</g>
<g>
</g>
<g>
</g>
<g>
</g>
</svg>
