<?xml version="1.0" encoding="iso-8859-1"?>
<!-- Generator: Adobe Illustrator 19.0.0, SVG Export Plug-In . SVG Version: 6.00 Build 0)  -->
<svg version="1.1" id="Layer_1" xmlns="http://www.w3.org/2000/svg" xmlns:xlink="http://www.w3.org/1999/xlink" x="0px" y="0px"
	 viewBox="0 0 512 512" style="enable-background:new 0 0 512 512;" xml:space="preserve">
<g>
	<polygon style="fill:#FECA09;" points="256,96.387 392.533,369.453 119.467,369.453 	"/>
	<g>
		<path style="fill:#FFFFFF;" d="M256,301.187c-4.719,0-8.533-3.823-8.533-8.533v-93.867c0-4.71,3.814-8.533,8.533-8.533
			c4.719,0,8.533,3.823,8.533,8.533v93.867C264.533,297.364,260.719,301.187,256,301.187"/>
		<path style="fill:#FFFFFF;" d="M264.533,326.787c0,4.71-3.823,8.533-8.533,8.533c-4.71,0-8.533-3.823-8.533-8.533
			s3.823-8.533,8.533-8.533C260.71,318.253,264.533,322.076,264.533,326.787"/>
	</g>
	<g>
		<path style="fill:#4897F7;" d="M358.409,500.945c-3.243,0-6.34-1.86-7.774-5.001c-1.954-4.292-0.06-9.353,4.233-11.307
			c85.086-38.724,140.066-124.134,140.066-217.583C494.933,135.3,387.746,28.122,256,28.122S17.067,135.3,17.067,267.055
			c0,75.622,36.019,144.623,98.816,189.312c3.84,2.731,4.736,8.064,1.997,11.895c-2.722,3.84-8.064,4.745-11.895,2.014
			C38.63,422.336,0,348.267,0,267.055c0-141.158,114.842-256,256-256s256,114.842,256,256c0,100.122-58.897,191.625-150.067,233.122
			C360.789,500.698,359.586,500.945,358.409,500.945"/>
		<polygon style="fill:#4897F7;" points="128,437.72 162.133,497.453 93.867,488.92 		"/>
	</g>
</g>
<g>
</g>
<g>
</g>
<g>
</g>
<g>
</g>
<g>
</g>
<g>
</g>
<g>
</g>
<g>
</g>
<g>
</g>
<g>
</g>
<g>
</g>
<g>
</g>
<g>
</g>
<g>
</g>
<g>
</g>
</svg>
