<svg xmlns="http://www.w3.org/2000/svg" xmlns:xlink="http://www.w3.org/1999/xlink" width="1000" zoomAndPan="magnify" viewBox="0 0 750 749.999995" height="1000" preserveAspectRatio="xMidYMid meet" version="1.0"><defs><clipPath id="1cbc8467bc"><path d="M 41 352 L 83 352 L 83 419.023438 L 41 419.023438 Z M 41 352 " clip-rule="nonzero"/></clipPath><clipPath id="7dd1397cf4"><path d="M 117 352 L 159 352 L 159 419.023438 L 117 419.023438 Z M 117 352 " clip-rule="nonzero"/></clipPath><clipPath id="90ce9afa33"><path d="M 165 352 L 207 352 L 207 419.023438 L 165 419.023438 Z M 165 352 " clip-rule="nonzero"/></clipPath><clipPath id="86be1660f0"><path d="M 214 352 L 256 352 L 256 419.023438 L 214 419.023438 Z M 214 352 " clip-rule="nonzero"/></clipPath><clipPath id="a29bc786d2"><path d="M 263 352 L 305 352 L 305 419.023438 L 263 419.023438 Z M 263 352 " clip-rule="nonzero"/></clipPath><clipPath id="dbbd67f2f2"><path d="M 409 352 L 450 352 L 450 419.023438 L 409 419.023438 Z M 409 352 " clip-rule="nonzero"/></clipPath><clipPath id="bf24062988"><path d="M 625 352 L 667 352 L 667 419.023438 L 625 419.023438 Z M 625 352 " clip-rule="nonzero"/></clipPath><clipPath id="771d3cd984"><path d="M 676 330.976562 L 705 330.976562 L 705 379 L 676 379 Z M 676 330.976562 " clip-rule="nonzero"/></clipPath></defs><rect x="-75" width="900" fill="#ffffff" y="-74.999999" height="899.999994" fill-opacity="1"/><rect x="-75" width="900" fill="#ffffff" y="-74.999999" height="899.999994" fill-opacity="1"/><g clip-path="url(#1cbc8467bc)"><path fill="#000000" d="M 47.230469 360.027344 C 50.859375 354.78125 55.820312 352.15625 62.105469 352.15625 C 65.21875 352.15625 68.328125 352.996094 71.441406 354.683594 C 74.550781 356.367188 77.082031 359.347656 79.023438 363.625 C 81.421875 369 82.621094 376.386719 82.621094 385.78125 C 82.621094 395.824219 81.230469 403.503906 78.441406 408.816406 C 77.144531 411.539062 75.363281 413.707031 73.09375 415.328125 C 70.824219 416.949219 68.847656 417.953125 67.164062 418.339844 C 65.476562 418.730469 63.824219 418.957031 62.203125 419.023438 C 60.519531 419.023438 58.832031 418.828125 57.148438 418.4375 C 55.460938 418.050781 53.484375 417.011719 51.214844 415.328125 C 48.949219 413.644531 47.164062 411.472656 45.867188 408.816406 C 43.082031 403.503906 41.6875 395.824219 41.6875 385.78125 C 41.6875 374.507812 43.535156 365.925781 47.230469 360.027344 Z M 69.105469 358.863281 C 67.164062 356.789062 64.863281 355.75 62.203125 355.75 C 59.480469 355.75 57.148438 356.789062 55.203125 358.863281 C 53.582031 360.546875 52.511719 362.878906 51.996094 365.859375 C 51.476562 368.839844 51.214844 375.058594 51.214844 384.519531 C 51.214844 394.757812 51.476562 401.496094 51.996094 404.734375 C 52.511719 407.972656 53.679688 410.535156 55.496094 412.414062 C 57.308594 414.355469 59.546875 415.328125 62.203125 415.328125 C 64.796875 415.328125 67 414.355469 68.816406 412.414062 C 70.695312 410.46875 71.863281 407.746094 72.316406 404.25 C 72.769531 400.75 73.027344 394.171875 73.09375 384.519531 C 73.09375 375.125 72.835938 368.9375 72.316406 365.957031 C 71.796875 362.976562 70.726562 360.609375 69.105469 358.863281 Z M 69.105469 358.863281 " fill-opacity="1" fill-rule="nonzero"/></g><path fill="#000000" d="M 94.097656 411.050781 C 94.097656 409.496094 94.648438 408.136719 95.75 406.96875 C 96.851562 405.804688 98.246094 405.222656 99.929688 405.222656 C 101.484375 405.222656 102.847656 405.738281 104.015625 406.777344 C 105.179688 407.8125 105.796875 409.207031 105.859375 410.953125 C 105.859375 412.574219 105.308594 413.96875 104.207031 415.132812 C 103.105469 416.300781 101.710938 416.882812 100.027344 416.882812 C 98.34375 416.882812 96.949219 416.332031 95.847656 415.230469 C 94.746094 414.128906 94.160156 412.738281 94.097656 411.050781 Z M 94.097656 411.050781 " fill-opacity="1" fill-rule="nonzero"/><g clip-path="url(#7dd1397cf4)"><path fill="#000000" d="M 122.875 360.027344 C 126.507812 354.78125 131.464844 352.15625 137.753906 352.15625 C 140.863281 352.15625 143.976562 352.996094 147.085938 354.683594 C 150.199219 356.367188 152.726562 359.347656 154.671875 363.625 C 157.070312 369 158.269531 376.386719 158.269531 385.78125 C 158.269531 395.824219 156.875 403.503906 154.089844 408.816406 C 152.792969 411.539062 151.007812 413.707031 148.742188 415.328125 C 146.472656 416.949219 144.496094 417.953125 142.808594 418.339844 C 141.125 418.730469 139.472656 418.957031 137.851562 419.023438 C 136.164062 419.023438 134.480469 418.828125 132.792969 418.4375 C 131.109375 418.050781 129.132812 417.011719 126.863281 415.328125 C 124.59375 413.644531 122.8125 411.472656 121.515625 408.816406 C 118.726562 403.503906 117.335938 395.824219 117.335938 385.78125 C 117.335938 374.507812 119.183594 365.925781 122.875 360.027344 Z M 144.753906 358.863281 C 142.808594 356.789062 140.507812 355.75 137.851562 355.75 C 135.128906 355.75 132.792969 356.789062 130.851562 358.863281 C 129.230469 360.546875 128.160156 362.878906 127.640625 365.859375 C 127.121094 368.839844 126.863281 375.058594 126.863281 384.519531 C 126.863281 394.757812 127.121094 401.496094 127.640625 404.734375 C 128.160156 407.972656 129.328125 410.535156 131.140625 412.414062 C 132.957031 414.355469 135.191406 415.328125 137.851562 415.328125 C 140.445312 415.328125 142.648438 414.355469 144.460938 412.414062 C 146.34375 410.46875 147.507812 407.746094 147.964844 404.25 C 148.417969 400.75 148.675781 394.171875 148.742188 384.519531 C 148.742188 375.125 148.480469 368.9375 147.964844 365.957031 C 147.445312 362.976562 146.375 360.609375 144.753906 358.863281 Z M 144.753906 358.863281 " fill-opacity="1" fill-rule="nonzero"/></g><g clip-path="url(#90ce9afa33)"><path fill="#000000" d="M 171.492188 360.027344 C 175.125 354.78125 180.082031 352.15625 186.371094 352.15625 C 189.480469 352.15625 192.59375 352.996094 195.703125 354.683594 C 198.816406 356.367188 201.34375 359.347656 203.289062 363.625 C 205.6875 369 206.886719 376.386719 206.886719 385.78125 C 206.886719 395.824219 205.492188 403.503906 202.703125 408.816406 C 201.410156 411.539062 199.625 413.707031 197.355469 415.328125 C 195.089844 416.949219 193.109375 417.953125 191.425781 418.339844 C 189.742188 418.730469 188.085938 418.957031 186.46875 419.023438 C 184.78125 419.023438 183.097656 418.828125 181.410156 418.4375 C 179.726562 418.050781 177.75 417.011719 175.480469 415.328125 C 173.210938 413.644531 171.429688 411.472656 170.132812 408.816406 C 167.34375 403.503906 165.949219 395.824219 165.949219 385.78125 C 165.949219 374.507812 167.796875 365.925781 171.492188 360.027344 Z M 193.371094 358.863281 C 191.425781 356.789062 189.125 355.75 186.46875 355.75 C 183.746094 355.75 181.410156 356.789062 179.464844 358.863281 C 177.84375 360.546875 176.777344 362.878906 176.257812 365.859375 C 175.738281 368.839844 175.480469 375.058594 175.480469 384.519531 C 175.480469 394.757812 175.738281 401.496094 176.257812 404.734375 C 176.777344 407.972656 177.941406 410.535156 179.757812 412.414062 C 181.574219 414.355469 183.808594 415.328125 186.46875 415.328125 C 189.058594 415.328125 191.265625 414.355469 193.078125 412.414062 C 194.957031 410.46875 196.125 407.746094 196.578125 404.25 C 197.03125 400.75 197.292969 394.171875 197.355469 384.519531 C 197.355469 375.125 197.097656 368.9375 196.578125 365.957031 C 196.0625 362.976562 194.992188 360.609375 193.371094 358.863281 Z M 193.371094 358.863281 " fill-opacity="1" fill-rule="nonzero"/></g><g clip-path="url(#86be1660f0)"><path fill="#000000" d="M 220.109375 360.027344 C 223.738281 354.78125 228.699219 352.15625 234.984375 352.15625 C 238.097656 352.15625 241.207031 352.996094 244.320312 354.683594 C 247.433594 356.367188 249.960938 359.347656 251.90625 363.625 C 254.304688 369 255.503906 376.386719 255.503906 385.78125 C 255.503906 395.824219 254.109375 403.503906 251.320312 408.816406 C 250.023438 411.539062 248.242188 413.707031 245.972656 415.328125 C 243.703125 416.949219 241.726562 417.953125 240.042969 418.339844 C 238.355469 418.730469 236.703125 418.957031 235.082031 419.023438 C 233.398438 419.023438 231.710938 418.828125 230.027344 418.4375 C 228.339844 418.050781 226.363281 417.011719 224.097656 415.328125 C 221.828125 413.644531 220.042969 411.472656 218.75 408.816406 C 215.960938 403.503906 214.566406 395.824219 214.566406 385.78125 C 214.566406 374.507812 216.414062 365.925781 220.109375 360.027344 Z M 241.988281 358.863281 C 240.042969 356.789062 237.742188 355.75 235.082031 355.75 C 232.359375 355.75 230.027344 356.789062 228.082031 358.863281 C 226.460938 360.546875 225.390625 362.878906 224.875 365.859375 C 224.355469 368.839844 224.097656 375.058594 224.097656 384.519531 C 224.097656 394.757812 224.355469 401.496094 224.875 404.734375 C 225.390625 407.972656 226.558594 410.535156 228.375 412.414062 C 230.1875 414.355469 232.425781 415.328125 235.082031 415.328125 C 237.675781 415.328125 239.878906 414.355469 241.695312 412.414062 C 243.574219 410.46875 244.742188 407.746094 245.195312 404.25 C 245.648438 400.75 245.910156 394.171875 245.972656 384.519531 C 245.972656 375.125 245.714844 368.9375 245.195312 365.957031 C 244.675781 362.976562 243.605469 360.609375 241.988281 358.863281 Z M 241.988281 358.863281 " fill-opacity="1" fill-rule="nonzero"/></g><g clip-path="url(#a29bc786d2)"><path fill="#000000" d="M 268.726562 360.027344 C 272.355469 354.78125 277.316406 352.15625 283.601562 352.15625 C 286.714844 352.15625 289.824219 352.996094 292.9375 354.683594 C 296.046875 356.367188 298.574219 359.347656 300.519531 363.625 C 302.917969 369 304.117188 376.386719 304.117188 385.78125 C 304.117188 395.824219 302.726562 403.503906 299.9375 408.816406 C 298.640625 411.539062 296.859375 413.707031 294.589844 415.328125 C 292.320312 416.949219 290.34375 417.953125 288.660156 418.339844 C 286.972656 418.730469 285.320312 418.957031 283.699219 419.023438 C 282.015625 419.023438 280.328125 418.828125 278.644531 418.4375 C 276.957031 418.050781 274.980469 417.011719 272.710938 415.328125 C 270.445312 413.644531 268.660156 411.472656 267.363281 408.816406 C 264.578125 403.503906 263.183594 395.824219 263.183594 385.78125 C 263.183594 374.507812 265.03125 365.925781 268.726562 360.027344 Z M 290.601562 358.863281 C 288.660156 356.789062 286.355469 355.75 283.699219 355.75 C 280.976562 355.75 278.644531 356.789062 276.699219 358.863281 C 275.078125 360.546875 274.007812 362.878906 273.488281 365.859375 C 272.972656 368.839844 272.710938 375.058594 272.710938 384.519531 C 272.710938 394.757812 272.972656 401.496094 273.488281 404.734375 C 274.007812 407.972656 275.175781 410.535156 276.992188 412.414062 C 278.804688 414.355469 281.042969 415.328125 283.699219 415.328125 C 286.292969 415.328125 288.496094 414.355469 290.3125 412.414062 C 292.191406 410.46875 293.359375 407.746094 293.8125 404.25 C 294.265625 400.75 294.523438 394.171875 294.589844 384.519531 C 294.589844 375.125 294.332031 368.9375 293.8125 365.957031 C 293.292969 362.976562 292.222656 360.609375 290.601562 358.863281 Z M 290.601562 358.863281 " fill-opacity="1" fill-rule="nonzero"/></g><path fill="#000000" d="M 328.71875 360.707031 L 327.453125 361.195312 C 326.546875 361.519531 325.25 361.84375 323.566406 362.167969 C 321.878906 362.488281 320 362.71875 317.925781 362.847656 L 316.078125 362.847656 L 316.078125 358.375 L 317.925781 358.375 C 320.972656 358.246094 323.792969 357.761719 326.382812 356.917969 C 328.976562 356.074219 330.792969 355.296875 331.828125 354.585938 C 332.867188 353.871094 333.773438 353.160156 334.550781 352.449219 C 334.683594 352.253906 335.070312 352.15625 335.71875 352.15625 C 336.300781 352.15625 336.851562 352.351562 337.371094 352.738281 L 337.371094 381.796875 L 337.46875 410.953125 C 337.921875 411.410156 338.3125 411.699219 338.636719 411.828125 C 338.960938 411.960938 339.738281 412.089844 340.96875 412.21875 C 342.199219 412.347656 344.210938 412.414062 346.996094 412.414062 L 349.527344 412.414062 L 349.527344 416.882812 L 348.457031 416.882812 C 347.09375 416.6875 341.941406 416.59375 332.996094 416.59375 C 324.179688 416.59375 319.09375 416.6875 317.730469 416.882812 L 316.5625 416.882812 L 316.5625 412.414062 L 319.09375 412.414062 C 320.519531 412.414062 321.75 412.414062 322.785156 412.414062 C 323.824219 412.414062 324.632812 412.378906 325.21875 412.316406 C 325.800781 412.25 326.320312 412.152344 326.773438 412.023438 C 327.226562 411.894531 327.488281 411.828125 327.550781 411.828125 C 327.617188 411.828125 327.8125 411.667969 328.136719 411.34375 C 328.457031 411.019531 328.652344 410.890625 328.71875 410.953125 Z M 328.71875 360.707031 " fill-opacity="1" fill-rule="nonzero"/><path fill="#000000" d="M 367.222656 375.191406 C 365.472656 375.191406 364.078125 374.605469 363.042969 373.441406 C 362.003906 372.273438 361.484375 370.847656 361.484375 369.164062 C 361.484375 364.5625 363.203125 360.578125 366.640625 357.210938 C 370.074219 353.839844 374.351562 352.15625 379.472656 352.15625 C 385.371094 352.15625 390.296875 353.96875 394.253906 357.597656 C 398.207031 361.226562 400.214844 365.925781 400.28125 371.691406 C 400.28125 374.476562 399.632812 377.132812 398.335938 379.660156 C 397.039062 382.1875 395.484375 384.390625 393.667969 386.269531 C 391.855469 388.148438 389.261719 390.546875 385.890625 393.460938 C 383.558594 395.46875 380.316406 398.449219 376.167969 402.402344 L 370.429688 407.84375 L 377.820312 407.941406 C 387.996094 407.941406 393.410156 407.78125 394.058594 407.457031 C 394.511719 407.328125 395.289062 404.445312 396.390625 398.804688 L 396.390625 398.515625 L 400.28125 398.515625 L 400.28125 398.804688 C 400.214844 399 399.796875 401.949219 399.015625 407.652344 C 398.238281 413.351562 397.753906 416.332031 397.558594 416.59375 L 397.558594 416.882812 L 361.484375 416.882812 L 361.484375 413.871094 C 361.484375 413.417969 361.679688 412.929688 362.070312 412.414062 C 362.457031 411.894531 363.429688 410.761719 364.984375 409.011719 C 366.867188 406.9375 368.484375 405.125 369.847656 403.570312 C 370.429688 402.921875 371.53125 401.722656 373.152344 399.972656 C 374.773438 398.222656 375.875 397.023438 376.460938 396.375 C 377.042969 395.730469 377.984375 394.660156 379.277344 393.167969 C 380.574219 391.679688 381.484375 390.578125 382 389.863281 C 382.519531 389.152344 383.265625 388.179688 384.238281 386.949219 C 385.210938 385.71875 385.890625 384.679688 386.28125 383.839844 C 386.667969 382.996094 387.15625 382.058594 387.738281 381.019531 C 388.320312 379.984375 388.742188 378.949219 389.003906 377.910156 C 389.261719 376.875 389.488281 375.902344 389.683594 374.996094 C 389.878906 374.089844 389.976562 373.019531 389.976562 371.789062 C 389.976562 367.707031 388.871094 364.175781 386.667969 361.195312 C 384.464844 358.214844 381.320312 356.722656 377.238281 356.722656 C 375.097656 356.722656 373.21875 357.273438 371.597656 358.375 C 369.976562 359.476562 368.84375 360.546875 368.195312 361.582031 C 367.546875 362.621094 367.222656 363.234375 367.222656 363.429688 C 367.222656 363.496094 367.382812 363.527344 367.707031 363.527344 C 368.875 363.527344 370.074219 363.980469 371.304688 364.886719 C 372.539062 365.792969 373.152344 367.285156 373.152344 369.359375 C 373.152344 370.976562 372.636719 372.339844 371.597656 373.441406 C 370.5625 374.542969 369.101562 375.125 367.222656 375.191406 Z M 367.222656 375.191406 " fill-opacity="1" fill-rule="nonzero"/><g clip-path="url(#dbbd67f2f2)"><path fill="#000000" d="M 417.589844 371.886719 C 415.839844 371.886719 414.476562 371.335938 413.503906 370.234375 C 412.53125 369.132812 412.015625 367.707031 411.949219 365.957031 C 411.949219 362.394531 413.503906 359.21875 416.617188 356.433594 C 419.726562 353.644531 423.488281 352.253906 427.894531 352.253906 C 430.164062 352.253906 431.589844 352.285156 432.171875 352.351562 C 436.96875 353.128906 440.632812 354.84375 443.160156 357.5 C 445.6875 360.15625 446.984375 363.039062 447.050781 366.152344 C 447.050781 369.519531 445.949219 372.792969 443.746094 375.96875 C 441.539062 379.140625 438.492188 381.441406 434.605469 382.867188 L 434.3125 383.0625 C 434.3125 383.125 434.605469 383.222656 435.1875 383.351562 C 435.769531 383.484375 436.710938 383.773438 438.007812 384.226562 C 439.304688 384.679688 440.535156 385.363281 441.703125 386.269531 C 447.019531 389.703125 449.675781 394.238281 449.675781 399.875 C 449.675781 404.992188 447.664062 409.464844 443.648438 413.289062 C 439.628906 417.109375 434.539062 419.023438 428.382812 419.023438 C 423.195312 419.023438 418.722656 417.628906 414.964844 414.84375 C 411.203125 412.054688 409.324219 408.523438 409.324219 404.25 C 409.324219 402.433594 409.90625 400.976562 411.074219 399.875 C 412.242188 398.773438 413.699219 398.191406 415.449219 398.125 C 417.265625 398.125 418.753906 398.710938 419.921875 399.875 C 421.089844 401.042969 421.671875 402.5 421.671875 404.25 C 421.671875 404.960938 421.574219 405.609375 421.378906 406.191406 C 421.1875 406.777344 420.960938 407.292969 420.699219 407.746094 C 420.441406 408.203125 420.085938 408.589844 419.628906 408.914062 C 419.175781 409.238281 418.789062 409.496094 418.464844 409.691406 C 418.140625 409.886719 417.816406 410.015625 417.492188 410.082031 C 417.167969 410.144531 416.90625 410.242188 416.714844 410.371094 L 416.324219 410.46875 C 419.628906 413.386719 423.648438 414.84375 428.382812 414.84375 C 431.945312 414.84375 434.636719 413.125 436.453125 409.691406 C 437.554688 407.554688 438.105469 404.28125 438.105469 399.875 L 438.105469 397.933594 C 438.105469 391.777344 436.03125 387.660156 431.882812 385.589844 C 430.910156 385.199219 428.933594 384.972656 425.949219 384.910156 L 421.867188 384.8125 L 421.574219 384.617188 C 421.445312 384.421875 421.378906 383.902344 421.378906 383.0625 C 421.378906 381.894531 421.640625 381.3125 422.160156 381.3125 C 423.972656 381.3125 425.851562 381.152344 427.796875 380.828125 C 430.003906 380.503906 432.011719 379.140625 433.828125 376.746094 C 435.640625 374.347656 436.550781 370.71875 436.550781 365.859375 L 436.550781 365.082031 C 436.550781 361.390625 435.414062 358.828125 433.144531 357.402344 C 431.71875 356.496094 430.195312 356.042969 428.574219 356.042969 C 426.5 356.042969 424.589844 356.398438 422.839844 357.113281 C 421.089844 357.824219 419.859375 358.570312 419.144531 359.347656 C 418.429688 360.125 418.074219 360.515625 418.074219 360.515625 L 418.367188 360.515625 C 418.5625 360.578125 418.820312 360.644531 419.144531 360.707031 C 419.46875 360.773438 419.792969 360.933594 420.117188 361.195312 C 420.441406 361.453125 420.828125 361.679688 421.285156 361.875 C 421.738281 362.070312 422.0625 362.425781 422.253906 362.945312 C 422.449219 363.460938 422.710938 363.949219 423.035156 364.402344 C 423.359375 364.855469 423.453125 365.503906 423.324219 366.34375 C 423.324219 367.769531 422.871094 369.035156 421.964844 370.136719 C 421.058594 371.238281 419.597656 371.820312 417.589844 371.886719 Z M 417.589844 371.886719 " fill-opacity="1" fill-rule="nonzero"/></g><path fill="#000000" d="M 536.71875 414.066406 C 536.71875 415.359375 536.039062 416.007812 534.675781 416.007812 C 534.351562 416.007812 533.640625 415.492188 532.535156 414.453125 C 531.433594 413.417969 528.386719 410.40625 523.398438 405.414062 L 513.285156 395.308594 L 503.074219 405.511719 C 496.203125 412.25 492.671875 415.683594 492.476562 415.816406 C 492.21875 415.945312 491.992188 416.007812 491.796875 416.007812 C 491.277344 416.007812 490.824219 415.816406 490.433594 415.425781 C 490.046875 415.035156 489.820312 414.582031 489.753906 414.066406 C 489.753906 413.613281 490.207031 412.898438 491.117188 411.925781 C 492.023438 410.953125 495.070312 407.878906 500.253906 402.695312 L 510.367188 392.585938 L 500.253906 382.480469 C 495.003906 377.230469 491.957031 374.152344 491.117188 373.246094 C 490.273438 372.339844 489.820312 371.625 489.753906 371.109375 C 489.753906 370.523438 489.949219 370.070312 490.339844 369.746094 C 490.726562 369.421875 491.214844 369.261719 491.796875 369.261719 C 492.121094 369.261719 492.347656 369.292969 492.476562 369.359375 C 492.671875 369.488281 496.203125 372.921875 503.074219 379.660156 L 513.285156 389.863281 L 523.398438 379.757812 C 528.386719 374.769531 531.433594 371.753906 532.535156 370.71875 C 533.640625 369.683594 534.351562 369.164062 534.675781 369.164062 C 536.039062 369.164062 536.71875 369.8125 536.71875 371.109375 C 536.71875 371.5625 536.394531 372.144531 535.746094 372.855469 C 535.097656 373.570312 531.921875 376.746094 526.21875 382.382812 L 516.105469 392.585938 L 526.21875 402.792969 C 531.660156 408.234375 534.773438 411.375 535.550781 412.21875 C 536.328125 413.0625 536.71875 413.675781 536.71875 414.066406 Z M 536.71875 414.066406 " fill-opacity="1" fill-rule="nonzero"/><path fill="#000000" d="M 593.425781 360.707031 L 592.160156 361.195312 C 591.253906 361.519531 589.957031 361.84375 588.269531 362.167969 C 586.585938 362.488281 584.707031 362.71875 582.632812 362.847656 L 580.785156 362.847656 L 580.785156 358.375 L 582.632812 358.375 C 585.675781 358.246094 588.496094 357.761719 591.089844 356.917969 C 593.683594 356.074219 595.5 355.296875 596.535156 354.585938 C 597.574219 353.871094 598.480469 353.160156 599.257812 352.449219 C 599.386719 352.253906 599.777344 352.15625 600.425781 352.15625 C 601.007812 352.15625 601.558594 352.351562 602.078125 352.738281 L 602.078125 381.796875 L 602.175781 410.953125 C 602.628906 411.410156 603.015625 411.699219 603.339844 411.828125 C 603.664062 411.960938 604.445312 412.089844 605.675781 412.21875 C 606.90625 412.347656 608.917969 412.414062 611.703125 412.414062 L 614.230469 412.414062 L 614.230469 416.882812 L 613.164062 416.882812 C 611.800781 416.6875 606.648438 416.59375 597.703125 416.59375 C 588.886719 416.59375 583.796875 416.6875 582.4375 416.882812 L 581.269531 416.882812 L 581.269531 412.414062 L 583.796875 412.414062 C 585.222656 412.414062 586.457031 412.414062 587.492188 412.414062 C 588.53125 412.414062 589.339844 412.378906 589.921875 412.316406 C 590.507812 412.25 591.027344 412.152344 591.480469 412.023438 C 591.933594 411.894531 592.191406 411.828125 592.257812 411.828125 C 592.320312 411.828125 592.515625 411.667969 592.839844 411.34375 C 593.164062 411.019531 593.359375 410.890625 593.425781 410.953125 Z M 593.425781 360.707031 " fill-opacity="1" fill-rule="nonzero"/><g clip-path="url(#bf24062988)"><path fill="#000000" d="M 630.664062 360.027344 C 634.292969 354.78125 639.253906 352.15625 645.539062 352.15625 C 648.652344 352.15625 651.761719 352.996094 654.875 354.683594 C 657.988281 356.367188 660.515625 359.347656 662.460938 363.625 C 664.859375 369 666.058594 376.386719 666.058594 385.78125 C 666.058594 395.824219 664.664062 403.503906 661.875 408.816406 C 660.578125 411.539062 658.796875 413.707031 656.527344 415.328125 C 654.257812 416.949219 652.28125 417.953125 650.597656 418.339844 C 648.910156 418.730469 647.257812 418.957031 645.636719 419.023438 C 643.953125 419.023438 642.265625 418.828125 640.582031 418.4375 C 638.894531 418.050781 636.917969 417.011719 634.652344 415.328125 C 632.382812 413.644531 630.597656 411.472656 629.304688 408.816406 C 626.515625 403.503906 625.121094 395.824219 625.121094 385.78125 C 625.121094 374.507812 626.96875 365.925781 630.664062 360.027344 Z M 652.542969 358.863281 C 650.597656 356.789062 648.296875 355.75 645.636719 355.75 C 642.914062 355.75 640.582031 356.789062 638.636719 358.863281 C 637.015625 360.546875 635.945312 362.878906 635.429688 365.859375 C 634.910156 368.839844 634.652344 375.058594 634.652344 384.519531 C 634.652344 394.757812 634.910156 401.496094 635.429688 404.734375 C 635.945312 407.972656 637.113281 410.535156 638.929688 412.414062 C 640.742188 414.355469 642.980469 415.328125 645.636719 415.328125 C 648.230469 415.328125 650.433594 414.355469 652.25 412.414062 C 654.128906 410.46875 655.296875 407.746094 655.75 404.25 C 656.203125 400.75 656.464844 394.171875 656.527344 384.519531 C 656.527344 375.125 656.269531 368.9375 655.75 365.957031 C 655.230469 362.976562 654.160156 360.609375 652.542969 358.863281 Z M 652.542969 358.863281 " fill-opacity="1" fill-rule="nonzero"/></g><g clip-path="url(#771d3cd984)"><path fill="#000000" d="M 697.351562 357.023438 C 695.152344 360.503906 692.402344 362.246094 689.101562 362.246094 C 685.527344 362.246094 682.59375 360.894531 680.304688 358.191406 C 678.011719 355.488281 676.636719 352.605469 676.179688 349.535156 C 676.085938 348.800781 676.042969 347.886719 676.042969 346.785156 L 676.042969 346.234375 C 676.042969 341.976562 677.621094 338.265625 680.785156 335.105469 C 683.535156 332.355469 686.558594 330.980469 689.859375 330.980469 C 689.949219 330.980469 690.089844 330.980469 690.273438 330.980469 C 690.457031 330.980469 690.636719 331.003906 690.820312 331.050781 L 691.097656 331.050781 C 691.648438 331.050781 692.21875 331.097656 692.816406 331.1875 C 693.410156 331.28125 694.257812 331.554688 695.359375 332.011719 C 696.457031 332.472656 697.535156 333.203125 698.589844 334.210938 C 699.644531 335.21875 700.628906 336.570312 701.546875 338.265625 C 703.515625 342.296875 704.5 347.472656 704.5 353.792969 C 704.5 360.207031 703.125 365.636719 700.378906 370.078125 C 698.773438 372.644531 696.847656 374.636719 694.601562 376.058594 C 692.355469 377.476562 689.972656 378.210938 687.453125 378.257812 C 684.65625 378.257812 682.367188 377.59375 680.578125 376.261719 C 678.792969 374.933594 677.875 372.964844 677.828125 370.355469 C 677.785156 367.742188 678.996094 366.460938 681.472656 366.507812 C 682.480469 366.507812 683.328125 366.828125 684.015625 367.46875 C 684.703125 368.109375 685.046875 369.003906 685.046875 370.148438 C 685.046875 370.972656 684.839844 371.683594 684.429688 372.277344 C 684.015625 372.875 683.648438 373.238281 683.328125 373.378906 C 683.007812 373.515625 682.710938 373.628906 682.433594 373.722656 L 682.160156 373.789062 C 682.160156 373.882812 682.320312 374.019531 682.640625 374.203125 C 682.960938 374.386719 683.558594 374.613281 684.429688 374.890625 C 685.300781 375.164062 686.261719 375.277344 687.316406 375.234375 L 687.726562 375.234375 C 690.476562 375.234375 692.792969 373.765625 694.671875 370.835938 C 696.457031 368.269531 697.351562 363.828125 697.351562 357.503906 Z M 689.929688 359.703125 C 692.128906 359.703125 693.890625 358.582031 695.222656 356.335938 C 696.550781 354.09375 697.238281 351.046875 697.285156 347.199219 C 697.285156 343.625 697.101562 341.058594 696.734375 339.503906 C 696.640625 339.042969 696.503906 338.585938 696.320312 338.128906 C 696.136719 337.671875 695.816406 337.074219 695.359375 336.339844 C 694.902344 335.609375 694.214844 334.988281 693.296875 334.484375 C 692.378906 333.980469 691.304688 333.753906 690.066406 333.800781 C 688.324219 333.800781 686.835938 334.417969 685.597656 335.65625 C 684.636719 336.664062 684.015625 337.851562 683.742188 339.226562 C 683.464844 340.601562 683.304688 343.007812 683.261719 346.441406 C 683.261719 350.246094 683.375 352.808594 683.605469 354.136719 C 683.832031 355.464844 684.292969 356.542969 684.980469 357.367188 C 686.125 358.925781 687.773438 359.703125 689.929688 359.703125 Z M 689.929688 359.703125 " fill-opacity="1" fill-rule="nonzero"/></g></svg>