<svg xmlns="http://www.w3.org/2000/svg" xmlns:xlink="http://www.w3.org/1999/xlink" width="1000" zoomAndPan="magnify" viewBox="0 0 750 749.999995" height="1000" preserveAspectRatio="xMidYMid meet" version="1.0"><defs><clipPath id="16de2a60f9"><path d="M 151 349 L 197 349 L 197 424.152344 L 151 424.152344 Z M 151 349 " clip-rule="nonzero"/></clipPath><clipPath id="2d4b0f46cc"><path d="M 205 349 L 251 349 L 251 424.152344 L 205 424.152344 Z M 205 349 " clip-rule="nonzero"/></clipPath><clipPath id="fe9c6c1337"><path d="M 259 349 L 306 349 L 306 424.152344 L 259 424.152344 Z M 259 349 " clip-rule="nonzero"/></clipPath><clipPath id="f7261320dd"><path d="M 313 349 L 360 349 L 360 424.152344 L 313 424.152344 Z M 313 349 " clip-rule="nonzero"/></clipPath><clipPath id="8c00f1948f"><path d="M 555 349 L 601 349 L 601 424.152344 L 555 424.152344 Z M 555 349 " clip-rule="nonzero"/></clipPath><clipPath id="c9ec5768af"><path d="M 674 325.847656 L 702 325.847656 L 702 377 L 674 377 Z M 674 325.847656 " clip-rule="nonzero"/></clipPath></defs><rect x="-75" width="900" fill="#ffffff" y="-74.999999" height="899.999994" fill-opacity="1"/><rect x="-75" width="900" fill="#ffffff" y="-74.999999" height="899.999994" fill-opacity="1"/><path fill="#000000" d="M 61.238281 359.042969 L 59.828125 359.585938 C 58.8125 359.949219 57.367188 360.308594 55.484375 360.671875 C 53.601562 361.03125 51.503906 361.285156 49.1875 361.429688 L 47.125 361.429688 L 47.125 356.4375 L 49.1875 356.4375 C 52.589844 356.292969 55.738281 355.75 58.632812 354.8125 C 61.527344 353.871094 63.554688 353.003906 64.714844 352.207031 C 65.871094 351.410156 66.882812 350.617188 67.753906 349.820312 C 67.898438 349.601562 68.332031 349.496094 69.054688 349.496094 C 69.707031 349.496094 70.324219 349.710938 70.902344 350.144531 L 70.902344 382.589844 L 71.011719 415.144531 C 71.515625 415.648438 71.949219 415.976562 72.3125 416.121094 C 72.675781 416.265625 73.542969 416.410156 74.917969 416.554688 C 76.292969 416.699219 78.539062 416.773438 81.648438 416.773438 L 84.472656 416.773438 L 84.472656 421.761719 L 83.277344 421.761719 C 81.757812 421.546875 76.003906 421.4375 66.015625 421.4375 C 56.171875 421.4375 50.492188 421.546875 48.972656 421.761719 L 47.667969 421.761719 L 47.667969 416.773438 L 50.492188 416.773438 C 52.082031 416.773438 53.457031 416.773438 54.617188 416.773438 C 55.773438 416.773438 56.679688 416.734375 57.332031 416.664062 C 57.980469 416.589844 58.5625 416.480469 59.066406 416.335938 C 59.574219 416.191406 59.863281 416.121094 59.9375 416.121094 C 60.007812 416.121094 60.226562 415.941406 60.585938 415.578125 C 60.949219 415.214844 61.167969 415.070312 61.238281 415.144531 Z M 61.238281 359.042969 " fill-opacity="1" fill-rule="nonzero"/><path fill="#000000" d="M 104.230469 375.210938 C 102.277344 375.210938 100.722656 374.558594 99.5625 373.257812 C 98.40625 371.957031 97.824219 370.363281 97.824219 368.484375 C 97.824219 363.347656 99.742188 358.898438 103.578125 355.136719 C 107.414062 351.375 112.191406 349.496094 117.910156 349.496094 C 124.496094 349.496094 129.996094 351.519531 134.414062 355.570312 C 138.828125 359.621094 141.070312 364.867188 141.144531 371.304688 C 141.144531 374.414062 140.421875 377.382812 138.972656 380.203125 C 137.523438 383.023438 135.789062 385.484375 133.761719 387.582031 C 131.734375 389.679688 128.839844 392.355469 125.074219 395.613281 C 122.46875 397.855469 118.851562 401.183594 114.21875 405.59375 L 107.8125 411.671875 L 116.066406 411.78125 C 127.429688 411.78125 133.472656 411.597656 134.195312 411.238281 C 134.703125 411.09375 135.570312 407.875 136.800781 401.578125 L 136.800781 401.253906 L 141.144531 401.253906 L 141.144531 401.578125 C 141.070312 401.796875 140.601562 405.089844 139.734375 411.453125 C 138.863281 417.820312 138.320312 421.148438 138.105469 421.4375 L 138.105469 421.761719 L 97.824219 421.761719 L 97.824219 418.398438 C 97.824219 417.894531 98.042969 417.351562 98.476562 416.773438 C 98.910156 416.191406 99.996094 414.925781 101.734375 412.972656 C 103.832031 410.660156 105.644531 408.632812 107.164062 406.898438 C 107.8125 406.171875 109.042969 404.835938 110.855469 402.882812 C 112.664062 400.929688 113.894531 399.589844 114.546875 398.867188 C 115.195312 398.144531 116.246094 396.949219 117.695312 395.285156 C 119.140625 393.621094 120.15625 392.394531 120.734375 391.597656 C 121.3125 390.800781 122.144531 389.714844 123.230469 388.339844 C 124.316406 386.96875 125.074219 385.808594 125.511719 384.871094 C 125.945312 383.929688 126.488281 382.878906 127.140625 381.722656 C 127.789062 380.566406 128.261719 379.40625 128.550781 378.25 C 128.839844 377.09375 129.09375 376.007812 129.308594 374.996094 C 129.527344 373.980469 129.636719 372.789062 129.636719 371.414062 C 129.636719 366.855469 128.40625 362.914062 125.945312 359.585938 C 123.484375 356.257812 119.972656 354.59375 115.414062 354.59375 C 113.023438 354.59375 110.925781 355.210938 109.117188 356.4375 C 107.308594 357.667969 106.039062 358.863281 105.316406 360.019531 C 104.59375 361.175781 104.230469 361.863281 104.230469 362.082031 C 104.230469 362.152344 104.414062 362.191406 104.773438 362.191406 C 106.078125 362.191406 107.414062 362.695312 108.792969 363.710938 C 110.167969 364.722656 110.855469 366.386719 110.855469 368.699219 C 110.855469 370.507812 110.273438 372.027344 109.117188 373.257812 C 107.957031 374.488281 106.332031 375.140625 104.230469 375.210938 Z M 104.230469 375.210938 " fill-opacity="1" fill-rule="nonzero"/><g clip-path="url(#16de2a60f9)"><path fill="#000000" d="M 160.46875 371.523438 C 158.515625 371.523438 156.996094 370.90625 155.910156 369.675781 C 154.824219 368.449219 154.246094 366.855469 154.171875 364.902344 C 154.171875 360.925781 155.910156 357.378906 159.382812 354.269531 C 162.855469 351.15625 167.054688 349.601562 171.976562 349.601562 C 174.511719 349.601562 176.101562 349.640625 176.753906 349.710938 C 182.109375 350.578125 186.199219 352.496094 189.023438 355.460938 C 191.84375 358.429688 193.292969 361.648438 193.363281 365.121094 C 193.363281 368.882812 192.132812 372.535156 189.671875 376.078125 C 187.210938 379.625 183.808594 382.191406 179.46875 383.785156 L 179.140625 384 C 179.140625 384.074219 179.46875 384.183594 180.117188 384.328125 C 180.769531 384.472656 181.820312 384.796875 183.265625 385.304688 C 184.714844 385.808594 186.089844 386.570312 187.394531 387.582031 C 193.328125 391.417969 196.296875 396.480469 196.296875 402.773438 C 196.296875 408.488281 194.050781 413.480469 189.5625 417.75 C 185.078125 422.015625 179.394531 424.152344 172.519531 424.152344 C 166.730469 424.152344 161.734375 422.59375 157.539062 419.484375 C 153.339844 416.375 151.242188 412.429688 151.242188 407.65625 C 151.242188 405.632812 151.890625 404.003906 153.195312 402.773438 C 154.496094 401.542969 156.125 400.894531 158.082031 400.820312 C 160.105469 400.820312 161.769531 401.472656 163.074219 402.773438 C 164.378906 404.074219 165.027344 405.703125 165.027344 407.65625 C 165.027344 408.453125 164.917969 409.175781 164.703125 409.828125 C 164.484375 410.476562 164.230469 411.058594 163.941406 411.5625 C 163.652344 412.070312 163.253906 412.503906 162.75 412.863281 C 162.242188 413.226562 161.808594 413.515625 161.445312 413.734375 C 161.082031 413.949219 160.722656 414.09375 160.359375 414.167969 C 160 414.238281 159.707031 414.347656 159.492188 414.492188 L 159.058594 414.601562 C 162.75 417.855469 167.234375 419.484375 172.519531 419.484375 C 176.5 419.484375 179.503906 417.566406 181.53125 413.734375 C 182.761719 411.347656 183.375 407.691406 183.375 402.773438 L 183.375 400.601562 C 183.375 393.730469 181.058594 389.136719 176.429688 386.824219 C 175.34375 386.386719 173.132812 386.136719 169.804688 386.0625 L 165.246094 385.953125 L 164.917969 385.738281 C 164.773438 385.519531 164.703125 384.941406 164.703125 384 C 164.703125 382.699219 164.992188 382.046875 165.570312 382.046875 C 167.597656 382.046875 169.695312 381.867188 171.867188 381.503906 C 174.328125 381.144531 176.574219 379.625 178.597656 376.949219 C 180.625 374.269531 181.640625 370.21875 181.640625 364.792969 L 181.640625 363.925781 C 181.640625 359.804688 180.371094 356.945312 177.839844 355.355469 C 176.246094 354.339844 174.546875 353.835938 172.738281 353.835938 C 170.421875 353.835938 168.285156 354.234375 166.332031 355.027344 C 164.378906 355.824219 163 356.65625 162.207031 357.523438 C 161.410156 358.390625 161.011719 358.828125 161.011719 358.828125 L 161.335938 358.828125 C 161.554688 358.898438 161.84375 358.972656 162.207031 359.042969 C 162.566406 359.117188 162.929688 359.296875 163.292969 359.585938 C 163.652344 359.875 164.085938 360.128906 164.59375 360.34375 C 165.101562 360.5625 165.460938 360.960938 165.679688 361.539062 C 165.898438 362.117188 166.1875 362.660156 166.546875 363.167969 C 166.910156 363.671875 167.019531 364.398438 166.875 365.335938 C 166.875 366.929688 166.367188 368.339844 165.355469 369.570312 C 164.339844 370.796875 162.710938 371.449219 160.46875 371.523438 Z M 160.46875 371.523438 " fill-opacity="1" fill-rule="nonzero"/></g><g clip-path="url(#2d4b0f46cc)"><path fill="#000000" d="M 211.386719 358.285156 C 215.4375 352.425781 220.976562 349.496094 227.996094 349.496094 C 231.472656 349.496094 234.945312 350.433594 238.417969 352.316406 C 241.894531 354.195312 244.714844 357.523438 246.886719 362.296875 C 249.566406 368.304688 250.90625 376.550781 250.90625 387.039062 C 250.90625 398.253906 249.347656 406.824219 246.234375 412.757812 C 244.789062 415.796875 242.796875 418.21875 240.265625 420.027344 C 237.730469 421.835938 235.523438 422.957031 233.640625 423.390625 C 231.761719 423.824219 229.914062 424.078125 228.105469 424.152344 C 226.222656 424.152344 224.339844 423.933594 222.460938 423.5 C 220.578125 423.066406 218.371094 421.90625 215.835938 420.027344 C 213.304688 418.144531 211.3125 415.722656 209.867188 412.757812 C 206.753906 406.824219 205.199219 398.253906 205.199219 387.039062 C 205.199219 374.453125 207.261719 364.867188 211.386719 358.285156 Z M 235.8125 356.980469 C 233.640625 354.667969 231.074219 353.507812 228.105469 353.507812 C 225.066406 353.507812 222.460938 354.667969 220.289062 356.980469 C 218.480469 358.863281 217.285156 361.464844 216.707031 364.792969 C 216.125 368.121094 215.835938 375.066406 215.835938 385.628906 C 215.835938 397.058594 216.125 404.582031 216.707031 408.199219 C 217.285156 411.816406 218.585938 414.671875 220.613281 416.773438 C 222.640625 418.941406 225.136719 420.027344 228.105469 420.027344 C 231 420.027344 233.460938 418.941406 235.488281 416.773438 C 237.585938 414.601562 238.890625 411.5625 239.394531 407.65625 C 239.902344 403.75 240.191406 396.40625 240.265625 385.628906 C 240.265625 375.140625 239.976562 368.230469 239.394531 364.902344 C 238.816406 361.574219 237.625 358.933594 235.8125 356.980469 Z M 235.8125 356.980469 " fill-opacity="1" fill-rule="nonzero"/></g><g clip-path="url(#fe9c6c1337)"><path fill="#000000" d="M 265.667969 358.285156 C 269.722656 352.425781 275.257812 349.496094 282.28125 349.496094 C 285.753906 349.496094 289.226562 350.433594 292.703125 352.316406 C 296.175781 354.195312 299 357.523438 301.171875 362.296875 C 303.847656 368.304688 305.1875 376.550781 305.1875 387.039062 C 305.1875 398.253906 303.632812 406.824219 300.519531 412.757812 C 299.070312 415.796875 297.082031 418.21875 294.546875 420.027344 C 292.015625 421.835938 289.808594 422.957031 287.925781 423.390625 C 286.042969 423.824219 284.199219 424.078125 282.386719 424.152344 C 280.507812 424.152344 278.625 423.933594 276.742188 423.5 C 274.859375 423.066406 272.652344 421.90625 270.121094 420.027344 C 267.585938 418.144531 265.597656 415.722656 264.148438 412.757812 C 261.039062 406.824219 259.480469 398.253906 259.480469 387.039062 C 259.480469 374.453125 261.542969 364.867188 265.667969 358.285156 Z M 290.097656 356.980469 C 287.925781 354.667969 285.355469 353.507812 282.386719 353.507812 C 279.347656 353.507812 276.742188 354.667969 274.570312 356.980469 C 272.761719 358.863281 271.566406 361.464844 270.988281 364.792969 C 270.410156 368.121094 270.121094 375.066406 270.121094 385.628906 C 270.121094 397.058594 270.410156 404.582031 270.988281 408.199219 C 271.566406 411.816406 272.871094 414.671875 274.898438 416.773438 C 276.925781 418.941406 279.421875 420.027344 282.386719 420.027344 C 285.285156 420.027344 287.746094 418.941406 289.769531 416.773438 C 291.871094 414.601562 293.171875 411.5625 293.679688 407.65625 C 294.1875 403.75 294.476562 396.40625 294.546875 385.628906 C 294.546875 375.140625 294.257812 368.230469 293.679688 364.902344 C 293.101562 361.574219 291.90625 358.933594 290.097656 356.980469 Z M 290.097656 356.980469 " fill-opacity="1" fill-rule="nonzero"/></g><g clip-path="url(#f7261320dd)"><path fill="#000000" d="M 319.953125 358.285156 C 324.003906 352.425781 329.542969 349.496094 336.5625 349.496094 C 340.039062 349.496094 343.511719 350.433594 346.984375 352.316406 C 350.460938 354.195312 353.28125 357.523438 355.453125 362.296875 C 358.132812 368.304688 359.46875 376.550781 359.46875 387.039062 C 359.46875 398.253906 357.914062 406.824219 354.800781 412.757812 C 353.355469 415.796875 351.363281 418.21875 348.832031 420.027344 C 346.296875 421.835938 344.089844 422.957031 342.207031 423.390625 C 340.328125 423.824219 338.480469 424.078125 336.671875 424.152344 C 334.789062 424.152344 332.90625 423.933594 331.027344 423.5 C 329.144531 423.066406 326.9375 421.90625 324.402344 420.027344 C 321.871094 418.144531 319.878906 415.722656 318.433594 412.757812 C 315.320312 406.824219 313.765625 398.253906 313.765625 387.039062 C 313.765625 374.453125 315.828125 364.867188 319.953125 358.285156 Z M 344.378906 356.980469 C 342.207031 354.667969 339.640625 353.507812 336.671875 353.507812 C 333.632812 353.507812 331.027344 354.667969 328.855469 356.980469 C 327.046875 358.863281 325.851562 361.464844 325.273438 364.792969 C 324.691406 368.121094 324.402344 375.066406 324.402344 385.628906 C 324.402344 397.058594 324.691406 404.582031 325.273438 408.199219 C 325.851562 411.816406 327.152344 414.671875 329.179688 416.773438 C 331.207031 418.941406 333.703125 420.027344 336.671875 420.027344 C 339.566406 420.027344 342.027344 418.941406 344.054688 416.773438 C 346.152344 414.601562 347.457031 411.5625 347.960938 407.65625 C 348.46875 403.75 348.757812 396.40625 348.832031 385.628906 C 348.832031 375.140625 348.542969 368.230469 347.960938 364.902344 C 347.382812 361.574219 346.1875 358.933594 344.378906 356.980469 Z M 344.378906 356.980469 " fill-opacity="1" fill-rule="nonzero"/></g><path fill="#000000" d="M 456.332031 418.617188 C 456.332031 420.0625 455.574219 420.785156 454.054688 420.785156 C 453.691406 420.785156 452.894531 420.207031 451.664062 419.050781 C 450.433594 417.894531 447.03125 414.527344 441.460938 408.957031 L 430.167969 397.671875 L 418.769531 409.066406 C 411.097656 416.589844 407.152344 420.425781 406.9375 420.570312 C 406.644531 420.714844 406.394531 420.785156 406.175781 420.785156 C 405.597656 420.785156 405.089844 420.570312 404.65625 420.136719 C 404.222656 419.703125 403.96875 419.195312 403.894531 418.617188 C 403.894531 418.109375 404.402344 417.3125 405.414062 416.230469 C 406.429688 415.144531 409.832031 411.707031 415.621094 405.921875 L 426.910156 394.636719 L 415.621094 383.351562 C 409.757812 377.492188 406.355469 374.054688 405.414062 373.042969 C 404.476562 372.027344 403.96875 371.234375 403.894531 370.652344 C 403.894531 370.003906 404.113281 369.496094 404.546875 369.136719 C 404.980469 368.773438 405.523438 368.59375 406.175781 368.59375 C 406.539062 368.59375 406.789062 368.628906 406.9375 368.699219 C 407.152344 368.84375 411.097656 372.679688 418.769531 380.203125 L 430.167969 391.597656 L 441.460938 380.3125 C 447.03125 374.742188 450.433594 371.378906 451.664062 370.21875 C 452.894531 369.0625 453.691406 368.484375 454.054688 368.484375 C 455.574219 368.484375 456.332031 369.207031 456.332031 370.652344 C 456.332031 371.160156 455.972656 371.8125 455.246094 372.605469 C 454.523438 373.402344 450.976562 376.949219 444.609375 383.242188 L 433.316406 394.636719 L 444.609375 406.027344 C 450.6875 412.105469 454.160156 415.613281 455.03125 416.554688 C 455.898438 417.496094 456.332031 418.183594 456.332031 418.617188 Z M 456.332031 418.617188 " fill-opacity="1" fill-rule="nonzero"/><path fill="#000000" d="M 519.648438 359.042969 L 518.238281 359.585938 C 517.222656 359.949219 515.777344 360.308594 513.894531 360.671875 C 512.011719 361.03125 509.914062 361.285156 507.597656 361.429688 L 505.535156 361.429688 L 505.535156 356.4375 L 507.597656 356.4375 C 511 356.292969 514.148438 355.75 517.042969 354.8125 C 519.9375 353.871094 521.964844 353.003906 523.125 352.207031 C 524.28125 351.410156 525.292969 350.617188 526.164062 349.820312 C 526.308594 349.601562 526.742188 349.496094 527.464844 349.496094 C 528.117188 349.496094 528.734375 349.710938 529.3125 350.144531 L 529.3125 382.589844 L 529.421875 415.144531 C 529.925781 415.648438 530.359375 415.976562 530.722656 416.121094 C 531.085938 416.265625 531.953125 416.410156 533.328125 416.554688 C 534.703125 416.699219 536.949219 416.773438 540.058594 416.773438 L 542.882812 416.773438 L 542.882812 421.761719 L 541.6875 421.761719 C 540.167969 421.546875 534.414062 421.4375 524.425781 421.4375 C 514.582031 421.4375 508.902344 421.546875 507.382812 421.761719 L 506.078125 421.761719 L 506.078125 416.773438 L 508.902344 416.773438 C 510.492188 416.773438 511.867188 416.773438 513.027344 416.773438 C 514.183594 416.773438 515.089844 416.734375 515.742188 416.664062 C 516.390625 416.589844 516.972656 416.480469 517.476562 416.335938 C 517.984375 416.191406 518.273438 416.121094 518.347656 416.121094 C 518.417969 416.121094 518.636719 415.941406 518.996094 415.578125 C 519.359375 415.214844 519.578125 415.070312 519.648438 415.144531 Z M 519.648438 359.042969 " fill-opacity="1" fill-rule="nonzero"/><g clip-path="url(#8c00f1948f)"><path fill="#000000" d="M 561.230469 358.285156 C 565.285156 352.425781 570.820312 349.496094 577.839844 349.496094 C 581.316406 349.496094 584.789062 350.433594 588.261719 352.316406 C 591.738281 354.195312 594.558594 357.523438 596.730469 362.296875 C 599.410156 368.304688 600.75 376.550781 600.75 387.039062 C 600.75 398.253906 599.191406 406.824219 596.078125 412.757812 C 594.632812 415.796875 592.640625 418.21875 590.109375 420.027344 C 587.574219 421.835938 585.367188 422.957031 583.484375 423.390625 C 581.605469 423.824219 579.757812 424.078125 577.949219 424.152344 C 576.066406 424.152344 574.1875 423.933594 572.304688 423.5 C 570.421875 423.066406 568.214844 421.90625 565.679688 420.027344 C 563.148438 418.144531 561.15625 415.722656 559.710938 412.757812 C 556.597656 406.824219 555.042969 398.253906 555.042969 387.039062 C 555.042969 374.453125 557.105469 364.867188 561.230469 358.285156 Z M 585.65625 356.980469 C 583.484375 354.667969 580.917969 353.507812 577.949219 353.507812 C 574.910156 353.507812 572.304688 354.667969 570.132812 356.980469 C 568.324219 358.863281 567.128906 361.464844 566.550781 364.792969 C 565.972656 368.121094 565.679688 375.066406 565.679688 385.628906 C 565.679688 397.058594 565.972656 404.582031 566.550781 408.199219 C 567.128906 411.816406 568.433594 414.671875 570.457031 416.773438 C 572.484375 418.941406 574.980469 420.027344 577.949219 420.027344 C 580.84375 420.027344 583.304688 418.941406 585.332031 416.773438 C 587.429688 414.601562 588.734375 411.5625 589.242188 407.65625 C 589.746094 403.75 590.035156 396.40625 590.109375 385.628906 C 590.109375 375.140625 589.820312 368.230469 589.242188 364.902344 C 588.660156 361.574219 587.46875 358.933594 585.65625 356.980469 Z M 585.65625 356.980469 " fill-opacity="1" fill-rule="nonzero"/></g><path fill="#000000" d="M 615.121094 358.765625 C 615.121094 358.765625 615.121094 358.433594 615.121094 357.769531 C 615.121094 357.101562 615.480469 356.59375 616.195312 356.234375 L 660.792969 356.234375 C 661.558594 356.644531 661.941406 357.15625 661.941406 357.769531 C 661.941406 358.382812 661.558594 358.894531 660.792969 359.300781 L 616.195312 359.300781 C 615.480469 358.945312 615.121094 358.433594 615.121094 357.769531 Z M 615.121094 358.765625 " fill-opacity="1" fill-rule="nonzero"/><g clip-path="url(#c9ec5768af)"><path fill="#000000" d="M 684.738281 332.605469 L 683.742188 332.988281 C 683.023438 333.242188 682 333.5 680.671875 333.753906 C 679.339844 334.011719 677.855469 334.191406 676.21875 334.292969 L 674.761719 334.292969 L 674.761719 330.761719 L 676.21875 330.761719 C 678.625 330.660156 680.851562 330.277344 682.898438 329.613281 C 684.945312 328.949219 686.375 328.335938 687.195312 327.773438 C 688.015625 327.207031 688.730469 326.644531 689.34375 326.082031 C 689.445312 325.929688 689.753906 325.855469 690.265625 325.855469 C 690.726562 325.855469 691.160156 326.007812 691.570312 326.3125 L 691.570312 349.253906 L 691.648438 372.269531 C 692.003906 372.625 692.3125 372.855469 692.566406 372.957031 C 692.824219 373.0625 693.4375 373.164062 694.410156 373.265625 C 695.382812 373.367188 696.96875 373.417969 699.167969 373.417969 L 701.164062 373.417969 L 701.164062 376.949219 L 700.320312 376.949219 C 699.246094 376.792969 695.179688 376.71875 688.117188 376.71875 C 681.15625 376.71875 677.140625 376.792969 676.066406 376.949219 L 675.144531 376.949219 L 675.144531 373.417969 L 677.140625 373.417969 C 678.265625 373.417969 679.238281 373.417969 680.058594 373.417969 C 680.875 373.417969 681.515625 373.394531 681.976562 373.34375 C 682.4375 373.289062 682.847656 373.214844 683.203125 373.113281 C 683.5625 373.007812 683.765625 372.957031 683.816406 372.957031 C 683.871094 372.957031 684.023438 372.832031 684.277344 372.574219 C 684.535156 372.320312 684.6875 372.21875 684.738281 372.269531 Z M 684.738281 332.605469 " fill-opacity="1" fill-rule="nonzero"/></g></svg>