<svg xmlns="http://www.w3.org/2000/svg" xmlns:xlink="http://www.w3.org/1999/xlink" width="1000" zoomAndPan="magnify" viewBox="0 0 750 749.999995" height="1000" preserveAspectRatio="xMidYMid meet" version="1.0"><defs><clipPath id="c9e931437e"><path d="M 46 335 L 68 335 L 68 426.714844 L 46 426.714844 Z M 46 335 " clip-rule="nonzero"/></clipPath><clipPath id="3bded7dfbe"><path d="M 444 323.285156 L 467 323.285156 L 467 367 L 444 367 Z M 444 323.285156 " clip-rule="nonzero"/></clipPath><clipPath id="fb57dddc33"><path d="M 480 335 L 503 335 L 503 426.714844 L 480 426.714844 Z M 480 335 " clip-rule="nonzero"/></clipPath></defs><rect x="-75" width="900" fill="#ffffff" y="-74.999999" height="899.999994" fill-opacity="1"/><rect x="-75" width="900" fill="#ffffff" y="-74.999999" height="899.999994" fill-opacity="1"/><g clip-path="url(#c9e931437e)"><path fill="#000000" d="M 46.035156 381.074219 C 46.035156 376.902344 46.339844 372.9375 46.945312 369.1875 C 47.550781 365.4375 48.246094 362.199219 49.03125 359.476562 C 49.820312 356.753906 50.941406 354.089844 52.394531 351.488281 C 53.84375 348.886719 54.996094 346.859375 55.84375 345.410156 C 56.691406 343.957031 57.960938 342.382812 59.65625 340.691406 C 61.351562 338.996094 62.351562 337.964844 62.652344 337.605469 C 62.957031 337.242188 63.714844 336.605469 64.925781 335.699219 L 66.46875 335.699219 C 67.316406 335.699219 67.738281 335.96875 67.738281 336.515625 C 67.738281 336.695312 67.226562 337.332031 66.195312 338.421875 C 65.167969 339.507812 63.925781 341.113281 62.472656 343.230469 C 61.019531 345.347656 59.535156 347.949219 58.023438 351.035156 C 56.507812 354.121094 55.238281 358.296875 54.207031 363.558594 C 53.179688 368.824219 52.664062 374.664062 52.664062 381.074219 C 52.664062 387.488281 53.179688 393.296875 54.207031 398.5 C 55.238281 403.703125 56.480469 407.910156 57.933594 411.117188 C 59.386719 414.324219 60.867188 416.925781 62.382812 418.921875 C 63.894531 420.917969 65.167969 422.523438 66.195312 423.730469 C 67.226562 424.941406 67.738281 425.578125 67.738281 425.636719 C 67.738281 426.183594 67.285156 426.453125 66.378906 426.453125 L 64.925781 426.453125 L 62.382812 424.277344 C 56.691406 419.132812 52.542969 412.71875 49.941406 405.035156 C 47.335938 397.351562 46.035156 389.367188 46.035156 381.074219 Z M 46.035156 381.074219 " fill-opacity="1" fill-rule="nonzero"/></g><path fill="#000000" d="M 82.722656 364.832031 C 81.089844 364.832031 79.785156 364.285156 78.816406 363.195312 C 77.847656 362.109375 77.363281 360.777344 77.363281 359.203125 C 77.363281 354.90625 78.96875 351.1875 82.179688 348.039062 C 85.386719 344.894531 89.382812 343.320312 94.164062 343.320312 C 99.671875 343.320312 104.273438 345.015625 107.96875 348.402344 C 111.660156 351.792969 113.539062 356.179688 113.597656 361.5625 C 113.597656 364.164062 112.992188 366.644531 111.78125 369.003906 C 110.570312 371.363281 109.117188 373.421875 107.421875 375.175781 C 105.726562 376.929688 103.304688 379.171875 100.15625 381.894531 C 97.980469 383.769531 94.953125 386.550781 91.078125 390.242188 L 85.71875 395.324219 L 92.621094 395.414062 C 102.125 395.414062 107.179688 395.265625 107.785156 394.960938 C 108.210938 394.839844 108.9375 392.148438 109.964844 386.882812 L 109.964844 386.613281 L 113.597656 386.613281 L 113.597656 386.882812 C 113.539062 387.066406 113.144531 389.820312 112.417969 395.144531 C 111.691406 400.46875 111.238281 403.25 111.054688 403.492188 L 111.054688 403.765625 L 77.363281 403.765625 L 77.363281 400.953125 C 77.363281 400.527344 77.546875 400.074219 77.910156 399.589844 C 78.273438 399.105469 79.179688 398.046875 80.632812 396.414062 C 82.390625 394.476562 83.902344 392.785156 85.175781 391.332031 C 85.71875 390.726562 86.75 389.605469 88.261719 387.972656 C 89.777344 386.339844 90.804688 385.222656 91.347656 384.617188 C 91.894531 384.011719 92.773438 383.011719 93.984375 381.621094 C 95.195312 380.230469 96.042969 379.199219 96.527344 378.535156 C 97.011719 377.871094 97.707031 376.960938 98.613281 375.8125 C 99.523438 374.664062 100.15625 373.695312 100.519531 372.90625 C 100.882812 372.121094 101.339844 371.246094 101.882812 370.277344 C 102.429688 369.308594 102.820312 368.339844 103.0625 367.371094 C 103.304688 366.402344 103.519531 365.496094 103.699219 364.648438 C 103.882812 363.800781 103.972656 362.804688 103.972656 361.652344 C 103.972656 357.84375 102.941406 354.546875 100.882812 351.761719 C 98.828125 348.980469 95.890625 347.585938 92.074219 347.585938 C 90.078125 347.585938 88.324219 348.101562 86.808594 349.128906 C 85.296875 350.160156 84.234375 351.15625 83.628906 352.125 C 83.027344 353.09375 82.722656 353.667969 82.722656 353.847656 C 82.722656 353.910156 82.875 353.941406 83.175781 353.941406 C 84.265625 353.941406 85.386719 354.363281 86.535156 355.210938 C 87.6875 356.058594 88.261719 357.449219 88.261719 359.386719 C 88.261719 360.898438 87.777344 362.167969 86.808594 363.195312 C 85.839844 364.226562 84.476562 364.769531 82.722656 364.832031 Z M 82.722656 364.832031 " fill-opacity="1" fill-rule="nonzero"/><path fill="#000000" d="M 160.183594 403.765625 C 159.09375 403.582031 155.1875 403.492188 148.46875 403.492188 C 141.445312 403.492188 137.390625 403.582031 136.300781 403.765625 L 135.484375 403.765625 L 135.484375 399.589844 L 138.296875 399.589844 C 139.507812 399.589844 140.324219 399.589844 140.75 399.589844 C 141.171875 399.589844 141.6875 399.53125 142.292969 399.410156 C 142.898438 399.289062 143.324219 399.136719 143.566406 398.957031 C 143.808594 398.773438 144.019531 398.53125 144.199219 398.230469 C 144.261719 398.109375 144.292969 396.472656 144.292969 393.328125 L 144.292969 388.789062 L 120.773438 388.789062 L 120.773438 384.617188 L 134.484375 363.652344 C 143.746094 349.613281 148.4375 342.566406 148.558594 342.503906 C 148.679688 342.382812 149.316406 342.324219 150.464844 342.324219 L 152.101562 342.324219 L 152.644531 342.867188 L 152.644531 384.617188 L 161 384.617188 L 161 388.789062 L 152.644531 388.789062 L 152.644531 393.417969 C 152.644531 395.898438 152.644531 397.351562 152.644531 397.773438 C 152.644531 398.199219 152.828125 398.5625 153.191406 398.863281 C 153.675781 399.289062 155.398438 399.53125 158.367188 399.589844 L 161 399.589844 L 161 403.765625 Z M 144.835938 384.617188 L 144.835938 354.304688 L 124.949219 384.523438 L 134.847656 384.617188 Z M 144.835938 384.617188 " fill-opacity="1" fill-rule="nonzero"/><path fill="#000000" d="M 170.714844 398.320312 C 170.714844 396.867188 171.230469 395.597656 172.261719 394.507812 C 173.289062 393.417969 174.589844 392.875 176.164062 392.875 C 177.617188 392.875 178.890625 393.359375 179.980469 394.328125 C 181.070312 395.292969 181.644531 396.59375 181.703125 398.230469 C 181.703125 399.742188 181.191406 401.042969 180.160156 402.132812 C 179.132812 403.222656 177.828125 403.765625 176.253906 403.765625 C 174.683594 403.765625 173.378906 403.25 172.351562 402.222656 C 171.320312 401.195312 170.777344 399.894531 170.714844 398.320312 Z M 170.714844 398.320312 " fill-opacity="1" fill-rule="nonzero"/><path fill="#000000" d="M 192.691406 375.359375 C 192.691406 365.496094 195.144531 357.691406 200.046875 351.941406 C 204.953125 346.195312 210.398438 343.320312 216.394531 343.320312 C 220.570312 343.320312 223.566406 344.410156 225.382812 346.589844 C 227.199219 348.765625 228.109375 351.1875 228.109375 353.847656 C 228.109375 355.363281 227.683594 356.570312 226.835938 357.480469 C 225.988281 358.386719 224.808594 358.839844 223.292969 358.839844 C 221.902344 358.839844 220.753906 358.417969 219.84375 357.570312 C 218.9375 356.722656 218.480469 355.542969 218.480469 354.03125 C 218.480469 351.367188 219.90625 349.765625 222.75 349.21875 C 221.417969 347.890625 219.542969 347.132812 217.121094 346.953125 C 212.820312 346.953125 209.28125 348.765625 206.496094 352.398438 C 203.648438 356.390625 202.226562 362.5 202.226562 370.730469 L 202.316406 371.09375 C 202.621094 370.730469 202.863281 370.335938 203.042969 369.914062 C 205.527344 366.28125 208.765625 364.46875 212.761719 364.46875 L 213.125 364.46875 C 215.910156 364.46875 218.359375 365.042969 220.480469 366.191406 C 221.933594 367.039062 223.386719 368.25 224.839844 369.824219 C 226.292969 371.394531 227.472656 373.121094 228.378906 374.996094 C 229.652344 377.960938 230.285156 381.195312 230.285156 384.707031 L 230.285156 386.339844 C 230.285156 387.730469 230.136719 389.03125 229.832031 390.242188 C 229.167969 393.8125 227.230469 397.292969 224.019531 400.679688 C 220.8125 404.066406 216.757812 405.761719 211.851562 405.761719 C 210.15625 405.761719 208.523438 405.519531 206.949219 405.035156 C 205.375 404.550781 203.679688 403.644531 201.863281 402.3125 C 200.046875 400.980469 198.503906 399.195312 197.234375 396.957031 C 195.960938 394.71875 194.871094 391.785156 193.964844 388.15625 C 193.054688 384.523438 192.632812 380.257812 192.691406 375.359375 Z M 212.214844 367.734375 C 210.398438 367.734375 208.824219 368.25 207.492188 369.277344 C 206.164062 370.304688 205.132812 371.667969 204.40625 373.363281 C 203.679688 375.054688 203.164062 376.78125 202.863281 378.535156 C 202.558594 380.289062 202.378906 382.164062 202.316406 384.160156 C 202.316406 389.183594 202.679688 392.785156 203.40625 394.960938 C 204.132812 397.140625 205.285156 398.894531 206.859375 400.226562 C 208.3125 401.316406 209.914062 401.859375 211.671875 401.859375 C 214.757812 401.859375 217.121094 400.710938 218.753906 398.410156 C 219.542969 397.320312 220.085938 395.960938 220.390625 394.328125 C 220.691406 392.691406 220.84375 389.515625 220.84375 384.796875 C 220.84375 379.957031 220.691406 376.71875 220.390625 375.085938 C 220.085938 373.453125 219.542969 372.089844 218.753906 371.003906 C 217.121094 368.824219 214.941406 367.734375 212.214844 367.734375 Z M 212.214844 367.734375 " fill-opacity="1" fill-rule="nonzero"/><path fill="#000000" d="M 311.667969 401.132812 C 311.667969 402.34375 311.035156 402.949219 309.761719 402.949219 C 309.460938 402.949219 308.792969 402.464844 307.765625 401.496094 C 306.734375 400.527344 303.890625 397.714844 299.230469 393.054688 L 289.785156 383.617188 L 280.25 393.148438 C 273.832031 399.4375 270.535156 402.644531 270.351562 402.765625 C 270.109375 402.886719 269.898438 402.949219 269.714844 402.949219 C 269.230469 402.949219 268.808594 402.765625 268.445312 402.402344 C 268.082031 402.039062 267.871094 401.617188 267.808594 401.132812 C 267.808594 400.710938 268.234375 400.042969 269.082031 399.136719 C 269.929688 398.230469 272.773438 395.355469 277.617188 390.515625 L 287.0625 381.074219 L 277.617188 371.636719 C 272.710938 366.738281 269.867188 363.863281 269.082031 363.015625 C 268.292969 362.167969 267.871094 361.503906 267.808594 361.019531 C 267.808594 360.472656 267.992188 360.050781 268.355469 359.75 C 268.71875 359.445312 269.171875 359.292969 269.714844 359.292969 C 270.019531 359.292969 270.230469 359.324219 270.351562 359.386719 C 270.535156 359.507812 273.832031 362.714844 280.25 369.003906 L 289.785156 378.535156 L 299.230469 369.097656 C 303.890625 364.4375 306.734375 361.625 307.765625 360.65625 C 308.792969 359.6875 309.460938 359.203125 309.761719 359.203125 C 311.035156 359.203125 311.667969 359.808594 311.667969 361.019531 C 311.667969 361.441406 311.367188 361.988281 310.761719 362.652344 C 310.15625 363.316406 307.191406 366.28125 301.863281 371.546875 L 292.417969 381.074219 L 301.863281 390.605469 C 306.949219 395.6875 309.855469 398.621094 310.582031 399.410156 C 311.304688 400.195312 311.667969 400.769531 311.667969 401.132812 Z M 311.667969 401.132812 " fill-opacity="1" fill-rule="nonzero"/><path fill="#000000" d="M 364.628906 351.308594 L 363.449219 351.761719 C 362.601562 352.0625 361.390625 352.367188 359.816406 352.667969 C 358.242188 352.972656 356.488281 353.183594 354.550781 353.304688 L 352.824219 353.304688 L 352.824219 349.128906 L 354.550781 349.128906 C 357.394531 349.007812 360.027344 348.554688 362.449219 347.769531 C 364.871094 346.980469 366.566406 346.257812 367.535156 345.589844 C 368.503906 344.925781 369.351562 344.257812 370.078125 343.59375 C 370.199219 343.414062 370.5625 343.320312 371.167969 343.320312 C 371.710938 343.320312 372.226562 343.503906 372.710938 343.867188 L 372.710938 371.003906 L 372.800781 398.230469 C 373.226562 398.652344 373.589844 398.925781 373.890625 399.046875 C 374.195312 399.167969 374.921875 399.289062 376.070312 399.410156 C 377.222656 399.53125 379.097656 399.589844 381.703125 399.589844 L 384.0625 399.589844 L 384.0625 403.765625 L 383.0625 403.765625 C 381.792969 403.582031 376.980469 403.492188 368.625 403.492188 C 360.390625 403.492188 355.640625 403.582031 354.367188 403.765625 L 353.277344 403.765625 L 353.277344 399.589844 L 355.640625 399.589844 C 356.972656 399.589844 358.121094 399.589844 359.089844 399.589844 C 360.058594 399.589844 360.816406 399.558594 361.359375 399.5 C 361.90625 399.4375 362.390625 399.347656 362.8125 399.226562 C 363.238281 399.105469 363.480469 399.046875 363.539062 399.046875 C 363.601562 399.046875 363.78125 398.894531 364.085938 398.59375 C 364.386719 398.289062 364.570312 398.167969 364.628906 398.230469 Z M 364.628906 351.308594 " fill-opacity="1" fill-rule="nonzero"/><path fill="#000000" d="M 399.410156 350.671875 C 402.800781 345.773438 407.429688 343.320312 413.304688 343.320312 C 416.207031 343.320312 419.113281 344.109375 422.019531 345.679688 C 424.925781 347.253906 427.289062 350.039062 429.105469 354.03125 C 431.34375 359.050781 432.464844 365.949219 432.464844 374.722656 C 432.464844 384.101562 431.160156 391.269531 428.558594 396.234375 C 427.347656 398.773438 425.683594 400.800781 423.5625 402.3125 C 421.445312 403.824219 419.597656 404.761719 418.023438 405.125 C 416.449219 405.488281 414.90625 405.703125 413.394531 405.761719 C 411.820312 405.761719 410.246094 405.582031 408.671875 405.21875 C 407.097656 404.855469 405.25 403.886719 403.132812 402.3125 C 401.011719 400.738281 399.347656 398.714844 398.136719 396.234375 C 395.535156 391.269531 394.234375 384.101562 394.234375 374.722656 C 394.234375 364.195312 395.957031 356.179688 399.410156 350.671875 Z M 419.839844 349.582031 C 418.023438 347.648438 415.875 346.679688 413.394531 346.679688 C 410.851562 346.679688 408.671875 347.648438 406.855469 349.582031 C 405.34375 351.15625 404.34375 353.335938 403.859375 356.117188 C 403.375 358.902344 403.132812 364.710938 403.132812 373.542969 C 403.132812 383.101562 403.375 389.394531 403.859375 392.421875 C 404.34375 395.445312 405.433594 397.835938 407.128906 399.589844 C 408.824219 401.40625 410.910156 402.3125 413.394531 402.3125 C 415.816406 402.3125 417.875 401.40625 419.570312 399.589844 C 421.324219 397.773438 422.414062 395.234375 422.835938 391.96875 C 423.261719 388.699219 423.503906 382.558594 423.5625 373.542969 C 423.5625 364.769531 423.320312 358.992188 422.835938 356.207031 C 422.355469 353.425781 421.355469 351.21875 419.839844 349.582031 Z M 419.839844 349.582031 " fill-opacity="1" fill-rule="nonzero"/><g clip-path="url(#3bded7dfbe)"><path fill="#000000" d="M 452.769531 329.195312 L 451.933594 329.515625 C 451.332031 329.730469 450.476562 329.945312 449.363281 330.15625 C 448.253906 330.371094 447.011719 330.523438 445.640625 330.605469 L 444.421875 330.605469 L 444.421875 327.65625 L 445.640625 327.65625 C 447.652344 327.570312 449.515625 327.25 451.226562 326.691406 C 452.9375 326.136719 454.136719 325.625 454.820312 325.152344 C 455.507812 324.683594 456.105469 324.210938 456.621094 323.742188 C 456.707031 323.613281 456.960938 323.550781 457.390625 323.550781 C 457.773438 323.550781 458.140625 323.675781 458.480469 323.933594 L 458.480469 343.121094 L 458.546875 362.367188 C 458.84375 362.667969 459.101562 362.859375 459.316406 362.945312 C 459.53125 363.03125 460.042969 363.117188 460.855469 363.203125 C 461.671875 363.289062 462.996094 363.332031 464.835938 363.332031 L 466.507812 363.332031 L 466.507812 366.28125 L 465.800781 366.28125 C 464.902344 366.15625 461.5 366.089844 455.59375 366.089844 C 449.773438 366.089844 446.410156 366.15625 445.511719 366.28125 L 444.742188 366.28125 L 444.742188 363.332031 L 446.410156 363.332031 C 447.351562 363.332031 448.167969 363.332031 448.851562 363.332031 C 449.535156 363.332031 450.070312 363.308594 450.457031 363.265625 C 450.839844 363.222656 451.183594 363.160156 451.484375 363.074219 C 451.78125 362.988281 451.953125 362.945312 451.996094 362.945312 C 452.039062 362.945312 452.167969 362.839844 452.382812 362.625 C 452.597656 362.410156 452.726562 362.324219 452.769531 362.367188 Z M 452.769531 329.195312 " fill-opacity="1" fill-rule="nonzero"/></g><g clip-path="url(#fb57dddc33)"><path fill="#000000" d="M 481.191406 335.789062 L 481.554688 335.699219 C 481.859375 335.699219 482.160156 335.699219 482.464844 335.699219 L 483.550781 335.699219 L 486.09375 337.875 C 491.785156 343.019531 495.933594 349.433594 498.535156 357.117188 C 501.140625 364.800781 502.441406 372.785156 502.441406 381.074219 C 502.441406 385.191406 502.136719 389.152344 501.53125 392.964844 C 500.925781 396.777344 500.230469 400.015625 499.445312 402.675781 C 498.65625 405.339844 497.539062 408 496.085938 410.664062 C 494.632812 413.324219 493.480469 415.351562 492.632812 416.742188 C 491.785156 418.136719 490.542969 419.679688 488.910156 421.371094 C 487.277344 423.066406 486.308594 424.066406 486.003906 424.367188 C 485.703125 424.667969 485.003906 425.246094 483.914062 426.089844 C 483.734375 426.273438 483.613281 426.394531 483.550781 426.453125 L 482.464844 426.453125 C 481.980469 426.453125 481.644531 426.453125 481.464844 426.453125 C 481.28125 426.453125 481.132812 426.363281 481.011719 426.183594 C 480.890625 426 480.796875 425.726562 480.738281 425.367188 C 480.796875 425.304688 481.132812 424.910156 481.738281 424.1875 C 491.121094 414.445312 495.8125 400.074219 495.8125 381.074219 C 495.8125 362.078125 491.121094 347.707031 481.738281 337.964844 C 481.132812 337.242188 480.796875 336.847656 480.738281 336.785156 C 480.738281 336.304688 480.890625 335.96875 481.191406 335.789062 Z M 481.191406 335.789062 " fill-opacity="1" fill-rule="nonzero"/></g><path fill="#000000" d="M 588.453125 401.132812 C 588.453125 402.34375 587.820312 402.949219 586.546875 402.949219 C 586.246094 402.949219 585.578125 402.464844 584.550781 401.496094 C 583.519531 400.527344 580.675781 397.714844 576.015625 393.054688 L 566.570312 383.617188 L 557.035156 393.148438 C 550.617188 399.4375 547.320312 402.644531 547.136719 402.765625 C 546.894531 402.886719 546.683594 402.949219 546.5 402.949219 C 546.015625 402.949219 545.59375 402.765625 545.230469 402.402344 C 544.867188 402.039062 544.65625 401.617188 544.59375 401.132812 C 544.59375 400.710938 545.019531 400.042969 545.867188 399.136719 C 546.714844 398.230469 549.558594 395.355469 554.402344 390.515625 L 563.847656 381.074219 L 554.402344 371.636719 C 549.496094 366.738281 546.652344 363.863281 545.867188 363.015625 C 545.078125 362.167969 544.65625 361.503906 544.59375 361.019531 C 544.59375 360.472656 544.777344 360.050781 545.140625 359.75 C 545.503906 359.445312 545.957031 359.292969 546.5 359.292969 C 546.804688 359.292969 547.015625 359.324219 547.136719 359.386719 C 547.320312 359.507812 550.617188 362.714844 557.035156 369.003906 L 566.570312 378.535156 L 576.015625 369.097656 C 580.675781 364.4375 583.519531 361.625 584.550781 360.65625 C 585.578125 359.6875 586.246094 359.203125 586.546875 359.203125 C 587.820312 359.203125 588.453125 359.808594 588.453125 361.019531 C 588.453125 361.441406 588.152344 361.988281 587.546875 362.652344 C 586.941406 363.316406 583.976562 366.28125 578.648438 371.546875 L 569.203125 381.074219 L 578.648438 390.605469 C 583.734375 395.6875 586.640625 398.621094 587.363281 399.410156 C 588.089844 400.195312 588.453125 400.769531 588.453125 401.132812 Z M 588.453125 401.132812 " fill-opacity="1" fill-rule="nonzero"/><path fill="#000000" d="M 636.964844 389.515625 C 636.964844 390.96875 636.480469 392.179688 635.511719 393.148438 C 634.542969 394.113281 633.363281 394.597656 631.96875 394.597656 L 631.335938 394.597656 C 634.121094 399.378906 637.8125 401.769531 642.414062 401.769531 C 646.652344 401.769531 649.738281 399.953125 651.675781 396.324219 C 652.828125 394.328125 653.402344 390.453125 653.402344 384.707031 C 653.402344 378.472656 652.585938 374.269531 650.949219 372.089844 C 649.375 370.09375 647.621094 369.097656 645.683594 369.097656 L 645.136719 369.097656 C 640.414062 369.097656 636.84375 371.152344 634.421875 375.269531 C 634.179688 375.691406 633.96875 375.933594 633.785156 375.992188 C 633.605469 376.054688 633.152344 376.113281 632.425781 376.175781 C 631.394531 376.175781 630.820312 375.992188 630.699219 375.628906 C 630.578125 375.390625 630.515625 370.09375 630.515625 359.75 L 630.515625 348.039062 C 630.515625 345.015625 630.667969 343.503906 630.972656 343.503906 C 631.09375 343.382812 631.214844 343.320312 631.335938 343.320312 C 631.394531 343.320312 632.03125 343.5625 633.242188 344.046875 C 634.453125 344.53125 636.117188 345.015625 638.234375 345.5 C 640.355469 345.984375 642.625 346.226562 645.046875 346.226562 C 649.34375 346.226562 653.460938 345.378906 657.398438 343.683594 C 657.882812 343.441406 658.273438 343.320312 658.578125 343.320312 C 659.0625 343.320312 659.304688 343.867188 659.304688 344.953125 L 659.304688 346.136719 C 654.339844 352.003906 648.132812 354.9375 640.6875 354.9375 C 638.8125 354.9375 637.117188 354.757812 635.601562 354.394531 L 634.695312 354.210938 L 634.695312 369.824219 C 635.84375 368.976562 636.753906 368.308594 637.417969 367.824219 C 638.085938 367.339844 639.175781 366.859375 640.6875 366.375 C 642.203125 365.890625 643.746094 365.648438 645.320312 365.648438 C 650.222656 365.648438 654.371094 367.613281 657.761719 371.546875 C 661.148438 375.480469 662.84375 380.136719 662.84375 385.523438 C 662.84375 391.089844 660.90625 395.839844 657.035156 399.773438 C 653.160156 403.703125 648.4375 405.703125 642.867188 405.761719 C 637.964844 405.761719 634.027344 404.128906 631.0625 400.859375 C 628.097656 397.59375 626.613281 393.902344 626.613281 389.789062 C 626.613281 388.335938 626.945312 387.1875 627.613281 386.339844 C 628.277344 385.492188 628.972656 384.949219 629.699219 384.707031 C 630.425781 384.464844 631.121094 384.34375 631.789062 384.34375 C 633.300781 384.34375 634.542969 384.859375 635.511719 385.886719 C 636.480469 386.914062 636.964844 388.125 636.964844 389.515625 Z M 636.964844 389.515625 " fill-opacity="1" fill-rule="nonzero"/><path fill="#000000" d="M 676.195312 350.671875 C 679.585938 345.773438 684.214844 343.320312 690.089844 343.320312 C 692.992188 343.320312 695.898438 344.109375 698.804688 345.679688 C 701.710938 347.253906 704.074219 350.039062 705.890625 354.03125 C 708.128906 359.050781 709.25 365.949219 709.25 374.722656 C 709.25 384.101562 707.945312 391.269531 705.34375 396.234375 C 704.132812 398.773438 702.46875 400.800781 700.347656 402.3125 C 698.230469 403.824219 696.382812 404.761719 694.808594 405.125 C 693.234375 405.488281 691.691406 405.703125 690.179688 405.761719 C 688.605469 405.761719 687.03125 405.582031 685.457031 405.21875 C 683.882812 404.855469 682.035156 403.886719 679.917969 402.3125 C 677.796875 400.738281 676.132812 398.714844 674.921875 396.234375 C 672.320312 391.269531 671.019531 384.101562 671.019531 374.722656 C 671.019531 364.195312 672.742188 356.179688 676.195312 350.671875 Z M 696.625 349.582031 C 694.808594 347.648438 692.660156 346.679688 690.179688 346.679688 C 687.636719 346.679688 685.457031 347.648438 683.640625 349.582031 C 682.128906 351.15625 681.128906 353.335938 680.644531 356.117188 C 680.160156 358.902344 679.917969 364.710938 679.917969 373.542969 C 679.917969 383.101562 680.160156 389.394531 680.644531 392.421875 C 681.128906 395.445312 682.21875 397.835938 683.914062 399.589844 C 685.609375 401.40625 687.695312 402.3125 690.179688 402.3125 C 692.601562 402.3125 694.660156 401.40625 696.355469 399.589844 C 698.109375 397.773438 699.199219 395.234375 699.621094 391.96875 C 700.046875 388.699219 700.289062 382.558594 700.347656 373.542969 C 700.347656 364.769531 700.105469 358.992188 699.621094 356.207031 C 699.136719 353.425781 698.140625 351.21875 696.625 349.582031 Z M 696.625 349.582031 " fill-opacity="1" fill-rule="nonzero"/></svg>