<svg xmlns="http://www.w3.org/2000/svg" xmlns:xlink="http://www.w3.org/1999/xlink" width="1000" zoomAndPan="magnify" viewBox="0 0 750 749.999995" height="1000" preserveAspectRatio="xMidYMid meet" version="1.0"><defs><clipPath id="dc78dbb675"><path d="M 47 331 L 72 331 L 72 432.769531 L 47 432.769531 Z M 47 331 " clip-rule="nonzero"/></clipPath><clipPath id="f156886d45"><path d="M 412 317.230469 L 438 317.230469 L 438 366 L 412 366 Z M 412 317.230469 " clip-rule="nonzero"/></clipPath><clipPath id="500de9bc28"><path d="M 453 331 L 478 331 L 478 432.769531 L 453 432.769531 Z M 453 331 " clip-rule="nonzero"/></clipPath></defs><rect x="-75" width="900" fill="#ffffff" y="-74.999999" height="899.999994" fill-opacity="1"/><rect x="-75" width="900" fill="#ffffff" y="-74.999999" height="899.999994" fill-opacity="1"/><g clip-path="url(#dc78dbb675)"><path fill="#000000" d="M 47.023438 381.785156 C 47.023438 377.125 47.363281 372.699219 48.039062 368.507812 C 48.714844 364.320312 49.488281 360.703125 50.367188 357.664062 C 51.246094 354.621094 52.496094 351.648438 54.117188 348.742188 C 55.738281 345.835938 57.023438 343.574219 57.96875 341.953125 C 58.914062 340.332031 60.332031 338.574219 62.222656 336.679688 C 64.113281 334.789062 65.230469 333.640625 65.566406 333.234375 C 65.90625 332.828125 66.75 332.121094 68.101562 331.105469 L 69.824219 331.105469 C 70.769531 331.105469 71.242188 331.410156 71.242188 332.019531 C 71.242188 332.222656 70.667969 332.929688 69.519531 334.148438 C 68.371094 335.363281 66.984375 337.152344 65.363281 339.519531 C 63.742188 341.882812 62.089844 344.789062 60.398438 348.234375 C 58.710938 351.683594 57.292969 356.34375 56.144531 362.222656 C 54.996094 368.101562 54.421875 374.625 54.421875 381.785156 C 54.421875 388.949219 54.996094 395.4375 56.144531 401.246094 C 57.292969 407.058594 58.675781 411.753906 60.296875 415.335938 C 61.917969 418.917969 63.574219 421.824219 65.261719 424.054688 C 66.953125 426.28125 68.371094 428.074219 69.519531 429.425781 C 70.667969 430.777344 71.242188 431.484375 71.242188 431.554688 C 71.242188 432.160156 70.734375 432.464844 69.722656 432.464844 L 68.101562 432.464844 L 65.261719 430.03125 C 58.914062 424.289062 54.285156 417.125 51.382812 408.542969 C 48.476562 399.964844 47.023438 391.042969 47.023438 381.785156 Z M 47.023438 381.785156 " fill-opacity="1" fill-rule="nonzero"/></g><path fill="#000000" d="M 84.007812 364.859375 C 84.007812 364.859375 84.007812 362.257812 84.007812 357.054688 C 84.007812 351.851562 85.832031 347.660156 89.480469 344.484375 C 93.125 341.308594 97.316406 339.6875 102.042969 339.621094 C 106.839844 339.621094 111.09375 341.039062 114.808594 343.878906 C 118.527344 346.714844 120.382812 350.398438 120.382812 354.925781 C 120.382812 356.953125 120.011719 358.84375 119.269531 360.601562 C 118.527344 362.359375 117.648438 363.777344 116.632812 364.859375 C 115.621094 365.941406 114.574219 366.886719 113.492188 367.695312 C 112.414062 368.507812 111.535156 369.117188 110.859375 369.523438 C 110.183594 369.925781 109.8125 370.195312 109.742188 370.332031 L 111.164062 371.246094 C 112.109375 371.921875 113.054688 372.597656 114 373.273438 C 114.945312 373.949219 115.484375 374.320312 115.621094 374.386719 C 120.6875 378.375 123.21875 383.40625 123.21875 389.488281 C 123.21875 394.828125 121.261719 399.457031 117.34375 403.375 C 113.425781 407.292969 108.359375 409.289062 102.144531 409.355469 C 96.066406 409.355469 91.066406 407.632812 87.148438 404.1875 C 83.230469 400.738281 81.273438 396.484375 81.273438 391.414062 C 81.273438 384.117188 85.628906 378.035156 94.34375 373.171875 L 92.519531 371.851562 C 91.101562 370.972656 90.1875 370.296875 89.78125 369.824219 C 85.933594 366.515625 84.007812 362.257812 84.007812 357.054688 Z M 105.894531 368 L 106.5 367.597656 C 106.90625 367.324219 107.210938 367.121094 107.414062 366.988281 C 107.617188 366.851562 107.953125 366.617188 108.425781 366.277344 C 108.898438 365.941406 109.304688 365.601562 109.644531 365.265625 C 109.980469 364.925781 110.351562 364.519531 110.757812 364.046875 C 111.164062 363.574219 111.535156 363.136719 111.871094 362.730469 C 112.210938 362.324219 112.546875 361.785156 112.886719 361.109375 C 113.222656 360.433594 113.527344 359.859375 113.796875 359.386719 C 114.066406 358.914062 114.234375 358.238281 114.304688 357.359375 C 114.371094 356.480469 114.4375 355.738281 114.507812 355.128906 C 114.507812 352.222656 113.527344 349.757812 111.566406 347.730469 C 109.609375 345.703125 107.347656 344.417969 104.777344 343.878906 C 104.304688 343.808594 103.191406 343.777344 101.433594 343.777344 C 98.664062 343.777344 96.066406 344.65625 93.632812 346.410156 C 91.203125 348.167969 89.953125 350.363281 89.882812 353 C 89.882812 354.554688 90.324219 355.972656 91.203125 357.257812 C 92.078125 358.539062 92.957031 359.519531 93.835938 360.195312 C 94.714844 360.871094 96.402344 361.953125 98.902344 363.441406 C 99.375 363.777344 99.746094 364.015625 100.015625 364.148438 Z M 102.246094 404.996094 C 106.164062 404.996094 109.542969 403.847656 112.378906 401.550781 C 115.214844 399.253906 116.632812 396.484375 116.632812 393.238281 C 116.632812 392.089844 116.464844 391.007812 116.128906 389.996094 C 115.789062 388.984375 115.382812 388.136719 114.910156 387.460938 C 114.4375 386.785156 113.695312 386.042969 112.683594 385.230469 C 111.667969 384.421875 110.890625 383.8125 110.351562 383.40625 C 109.8125 383.003906 108.832031 382.359375 107.414062 381.480469 C 105.996094 380.601562 105.082031 380.027344 104.679688 379.757812 C 103.730469 379.152344 102.71875 378.507812 101.636719 377.832031 C 100.558594 377.15625 99.679688 376.582031 99.003906 376.109375 L 98.191406 375.601562 C 97.789062 375.601562 96.808594 376.175781 95.253906 377.328125 C 93.699219 378.476562 92.078125 380.332031 90.390625 382.902344 C 88.703125 385.46875 87.824219 388.238281 87.757812 391.210938 C 87.757812 395.199219 89.210938 398.476562 92.113281 401.042969 C 95.019531 403.613281 98.394531 404.929688 102.246094 404.996094 Z M 102.246094 404.996094 " fill-opacity="1" fill-rule="nonzero"/><path fill="#000000" d="M 138.621094 363.644531 C 136.796875 363.644531 135.34375 363.035156 134.265625 361.816406 C 133.183594 360.601562 132.644531 359.117188 132.644531 357.359375 C 132.644531 352.5625 134.433594 348.40625 138.011719 344.890625 C 141.59375 341.378906 146.050781 339.621094 151.386719 339.621094 C 157.535156 339.621094 162.667969 341.511719 166.789062 345.296875 C 170.910156 349.082031 173.003906 353.980469 173.070312 359.992188 C 173.070312 362.898438 172.394531 365.667969 171.046875 368.304688 C 169.695312 370.941406 168.074219 373.238281 166.179688 375.199219 C 164.289062 377.15625 161.589844 379.65625 158.074219 382.699219 C 155.644531 384.792969 152.265625 387.902344 147.941406 392.023438 L 141.964844 397.699219 L 149.664062 397.800781 C 160.269531 397.800781 165.910156 397.632812 166.585938 397.292969 C 167.058594 397.160156 167.871094 394.152344 169.019531 388.273438 L 169.019531 387.96875 L 173.070312 387.96875 L 173.070312 388.273438 C 173.003906 388.476562 172.566406 391.550781 171.753906 397.496094 C 170.945312 403.441406 170.4375 406.550781 170.234375 406.820312 L 170.234375 407.125 L 132.644531 407.125 L 132.644531 403.984375 C 132.644531 403.511719 132.847656 403.003906 133.25 402.464844 C 133.65625 401.921875 134.667969 400.738281 136.289062 398.914062 C 138.25 396.753906 139.9375 394.863281 141.355469 393.238281 C 141.964844 392.5625 143.113281 391.3125 144.800781 389.488281 C 146.492188 387.664062 147.640625 386.414062 148.246094 385.738281 C 148.855469 385.0625 149.835938 383.949219 151.183594 382.394531 C 152.535156 380.839844 153.480469 379.691406 154.023438 378.949219 C 154.5625 378.203125 155.339844 377.191406 156.351562 375.90625 C 157.367188 374.625 158.074219 373.542969 158.480469 372.664062 C 158.886719 371.785156 159.394531 370.804688 160 369.722656 C 160.609375 368.644531 161.046875 367.5625 161.316406 366.480469 C 161.589844 365.398438 161.824219 364.386719 162.027344 363.441406 C 162.230469 362.492188 162.332031 361.378906 162.332031 360.09375 C 162.332031 355.839844 161.183594 352.15625 158.886719 349.046875 C 156.589844 345.9375 153.3125 344.382812 149.058594 344.382812 C 146.828125 344.382812 144.871094 344.957031 143.179688 346.109375 C 141.492188 347.257812 140.308594 348.371094 139.632812 349.453125 C 138.960938 350.535156 138.621094 351.175781 138.621094 351.378906 C 138.621094 351.445312 138.789062 351.480469 139.128906 351.480469 C 140.34375 351.480469 141.59375 351.953125 142.875 352.898438 C 144.160156 353.84375 144.800781 355.398438 144.800781 357.5625 C 144.800781 359.25 144.261719 360.667969 143.179688 361.816406 C 142.101562 362.96875 140.582031 363.574219 138.621094 363.644531 Z M 138.621094 363.644531 " fill-opacity="1" fill-rule="nonzero"/><path fill="#000000" d="M 264.585938 404.1875 C 264.585938 405.539062 263.878906 406.214844 262.460938 406.214844 C 262.121094 406.214844 261.378906 405.671875 260.230469 404.59375 C 259.082031 403.511719 255.90625 400.367188 250.707031 395.164062 L 240.167969 384.625 L 229.527344 395.265625 C 222.367188 402.292969 218.6875 405.875 218.484375 406.011719 C 218.214844 406.144531 217.976562 406.214844 217.777344 406.214844 C 217.234375 406.214844 216.761719 406.011719 216.355469 405.605469 C 215.953125 405.199219 215.714844 404.726562 215.648438 404.1875 C 215.648438 403.714844 216.121094 402.96875 217.066406 401.957031 C 218.011719 400.941406 221.1875 397.734375 226.589844 392.328125 L 237.128906 381.785156 L 226.589844 371.246094 C 221.121094 365.769531 217.945312 362.5625 217.066406 361.617188 C 216.1875 360.667969 215.714844 359.925781 215.648438 359.386719 C 215.648438 358.777344 215.851562 358.304688 216.253906 357.964844 C 216.660156 357.628906 217.167969 357.460938 217.777344 357.460938 C 218.113281 357.460938 218.351562 357.492188 218.484375 357.5625 C 218.6875 357.695312 222.367188 361.277344 229.527344 368.304688 L 240.167969 378.949219 L 250.707031 368.40625 C 255.90625 363.203125 259.082031 360.0625 260.230469 358.980469 C 261.378906 357.898438 262.121094 357.359375 262.460938 357.359375 C 263.878906 357.359375 264.585938 358.035156 264.585938 359.386719 C 264.585938 359.859375 264.25 360.464844 263.574219 361.210938 C 262.898438 361.953125 259.589844 365.265625 253.644531 371.144531 L 243.105469 381.785156 L 253.644531 392.429688 C 259.320312 398.105469 262.5625 401.382812 263.371094 402.261719 C 264.183594 403.140625 264.585938 403.78125 264.585938 404.1875 Z M 264.585938 404.1875 " fill-opacity="1" fill-rule="nonzero"/><path fill="#000000" d="M 323.679688 348.539062 L 322.363281 349.046875 C 321.417969 349.386719 320.066406 349.722656 318.308594 350.0625 C 316.554688 350.398438 314.59375 350.636719 312.433594 350.769531 L 310.507812 350.769531 L 310.507812 346.109375 L 312.433594 346.109375 C 315.605469 345.972656 318.546875 345.464844 321.246094 344.585938 C 323.949219 343.707031 325.839844 342.898438 326.921875 342.15625 C 328.003906 341.410156 328.949219 340.667969 329.757812 339.925781 C 329.894531 339.722656 330.300781 339.621094 330.976562 339.621094 C 331.582031 339.621094 332.15625 339.824219 332.695312 340.230469 L 332.695312 370.535156 L 332.796875 400.941406 C 333.269531 401.414062 333.675781 401.71875 334.015625 401.855469 C 334.351562 401.992188 335.164062 402.125 336.445312 402.261719 C 337.730469 402.394531 339.824219 402.464844 342.726562 402.464844 L 345.363281 402.464844 L 345.363281 407.125 L 344.25 407.125 C 342.828125 406.921875 337.460938 406.820312 328.136719 406.820312 C 318.949219 406.820312 313.648438 406.921875 312.230469 407.125 L 311.015625 407.125 L 311.015625 402.464844 L 313.648438 402.464844 C 315.132812 402.464844 316.417969 402.464844 317.5 402.464844 C 318.578125 402.464844 319.421875 402.429688 320.03125 402.363281 C 320.640625 402.292969 321.179688 402.191406 321.652344 402.058594 C 322.125 401.921875 322.394531 401.855469 322.464844 401.855469 C 322.53125 401.855469 322.734375 401.6875 323.070312 401.347656 C 323.410156 401.011719 323.613281 400.875 323.679688 400.941406 Z M 323.679688 348.539062 " fill-opacity="1" fill-rule="nonzero"/><path fill="#000000" d="M 362.488281 347.832031 C 366.269531 342.355469 371.4375 339.621094 377.988281 339.621094 C 381.230469 339.621094 384.472656 340.5 387.714844 342.257812 C 390.957031 344.011719 393.59375 347.121094 395.621094 351.582031 C 398.117188 357.191406 399.367188 364.894531 399.367188 374.691406 C 399.367188 385.164062 397.917969 393.171875 395.011719 398.714844 C 393.660156 401.550781 391.804688 403.816406 389.4375 405.503906 C 387.074219 407.195312 385.015625 408.242188 383.257812 408.644531 C 381.5 409.050781 379.777344 409.289062 378.089844 409.355469 C 376.335938 409.355469 374.578125 409.152344 372.820312 408.746094 C 371.066406 408.34375 369.003906 407.261719 366.640625 405.503906 C 364.277344 403.746094 362.417969 401.484375 361.066406 398.714844 C 358.164062 393.171875 356.710938 385.164062 356.710938 374.691406 C 356.710938 362.933594 358.636719 353.980469 362.488281 347.832031 Z M 385.285156 346.613281 C 383.257812 344.453125 380.859375 343.371094 378.089844 343.371094 C 375.253906 343.371094 372.820312 344.453125 370.796875 346.613281 C 369.105469 348.371094 367.992188 350.804688 367.453125 353.914062 C 366.910156 357.019531 366.640625 363.507812 366.640625 373.375 C 366.640625 384.050781 366.910156 391.078125 367.453125 394.457031 C 367.992188 397.835938 369.207031 400.503906 371.097656 402.464844 C 372.992188 404.492188 375.320312 405.503906 378.089844 405.503906 C 380.792969 405.503906 383.089844 404.492188 384.980469 402.464844 C 386.9375 400.4375 388.15625 397.597656 388.628906 393.949219 C 389.101562 390.300781 389.371094 383.441406 389.4375 373.375 C 389.4375 363.574219 389.167969 357.121094 388.628906 354.011719 C 388.085938 350.90625 386.972656 348.4375 385.285156 346.613281 Z M 385.285156 346.613281 " fill-opacity="1" fill-rule="nonzero"/><g clip-path="url(#f156886d45)"><path fill="#000000" d="M 422.023438 323.84375 L 421.09375 324.203125 C 420.421875 324.441406 419.46875 324.679688 418.226562 324.917969 C 416.984375 325.15625 415.601562 325.324219 414.070312 325.421875 L 412.710938 325.421875 L 412.710938 322.125 L 414.070312 322.125 C 416.316406 322.027344 418.394531 321.671875 420.304688 321.050781 C 422.214844 320.429688 423.550781 319.855469 424.316406 319.328125 C 425.078125 318.804688 425.75 318.277344 426.320312 317.753906 C 426.417969 317.609375 426.703125 317.539062 427.179688 317.539062 C 427.609375 317.539062 428.015625 317.679688 428.398438 317.96875 L 428.398438 339.394531 L 428.472656 360.894531 C 428.804688 361.226562 429.089844 361.441406 429.332031 361.539062 C 429.570312 361.632812 430.140625 361.730469 431.050781 361.824219 C 431.957031 361.921875 433.4375 361.96875 435.492188 361.96875 L 437.355469 361.96875 L 437.355469 365.265625 L 436.566406 365.265625 C 435.5625 365.121094 431.765625 365.050781 425.175781 365.050781 C 418.679688 365.050781 414.929688 365.121094 413.929688 365.265625 L 413.070312 365.265625 L 413.070312 361.96875 L 414.929688 361.96875 C 415.980469 361.96875 416.890625 361.96875 417.652344 361.96875 C 418.417969 361.96875 419.015625 361.945312 419.445312 361.894531 C 419.875 361.847656 420.257812 361.777344 420.589844 361.679688 C 420.925781 361.585938 421.117188 361.539062 421.164062 361.539062 C 421.210938 361.539062 421.355469 361.417969 421.59375 361.179688 C 421.832031 360.941406 421.976562 360.84375 422.023438 360.894531 Z M 422.023438 323.84375 " fill-opacity="1" fill-rule="nonzero"/></g><g clip-path="url(#500de9bc28)"><path fill="#000000" d="M 453.738281 331.207031 L 454.144531 331.105469 C 454.480469 331.105469 454.820312 331.105469 455.15625 331.105469 L 456.375 331.105469 L 459.210938 333.539062 C 465.558594 339.28125 470.1875 346.445312 473.089844 355.027344 C 475.996094 363.609375 477.449219 372.527344 477.449219 381.785156 C 477.449219 386.382812 477.109375 390.808594 476.433594 395.0625 C 475.761719 399.320312 474.984375 402.9375 474.105469 405.910156 C 473.226562 408.882812 471.976562 411.855469 470.355469 414.828125 C 468.734375 417.800781 467.453125 420.066406 466.503906 421.621094 C 465.558594 423.175781 464.175781 424.898438 462.351562 426.789062 C 460.527344 428.679688 459.445312 429.796875 459.109375 430.132812 C 458.769531 430.472656 457.996094 431.113281 456.777344 432.058594 C 456.574219 432.261719 456.441406 432.398438 456.375 432.464844 L 455.15625 432.464844 C 454.617188 432.464844 454.246094 432.464844 454.042969 432.464844 C 453.839844 432.464844 453.671875 432.363281 453.535156 432.160156 C 453.402344 431.957031 453.300781 431.65625 453.230469 431.25 C 453.300781 431.183594 453.671875 430.742188 454.347656 429.929688 C 464.816406 419.050781 470.050781 403.003906 470.050781 381.785156 C 470.050781 360.566406 464.816406 344.519531 454.347656 333.640625 C 453.671875 332.828125 453.300781 332.390625 453.230469 332.324219 C 453.230469 331.78125 453.402344 331.410156 453.738281 331.207031 Z M 453.738281 331.207031 " fill-opacity="1" fill-rule="nonzero"/></g><path fill="#000000" d="M 573.421875 404.1875 C 573.421875 405.539062 572.714844 406.214844 571.296875 406.214844 C 570.957031 406.214844 570.214844 405.671875 569.066406 404.59375 C 567.917969 403.511719 564.742188 400.367188 559.542969 395.164062 L 549.003906 384.625 L 538.363281 395.265625 C 531.203125 402.292969 527.523438 405.875 527.320312 406.011719 C 527.050781 406.144531 526.8125 406.214844 526.609375 406.214844 C 526.070312 406.214844 525.597656 406.011719 525.191406 405.605469 C 524.789062 405.199219 524.550781 404.726562 524.484375 404.1875 C 524.484375 403.714844 524.957031 402.96875 525.902344 401.957031 C 526.847656 400.941406 530.023438 397.734375 535.425781 392.328125 L 545.964844 381.785156 L 535.425781 371.246094 C 529.953125 365.769531 526.78125 362.5625 525.902344 361.617188 C 525.023438 360.667969 524.550781 359.925781 524.484375 359.386719 C 524.484375 358.777344 524.6875 358.304688 525.089844 357.964844 C 525.496094 357.628906 526.003906 357.460938 526.609375 357.460938 C 526.949219 357.460938 527.183594 357.492188 527.320312 357.5625 C 527.523438 357.695312 531.203125 361.277344 538.363281 368.304688 L 549.003906 378.949219 L 559.542969 368.40625 C 564.742188 363.203125 567.917969 360.0625 569.066406 358.980469 C 570.214844 357.898438 570.957031 357.359375 571.296875 357.359375 C 572.714844 357.359375 573.421875 358.035156 573.421875 359.386719 C 573.421875 359.859375 573.085938 360.464844 572.410156 361.210938 C 571.734375 361.953125 568.425781 365.265625 562.480469 371.144531 L 551.941406 381.785156 L 562.480469 392.429688 C 568.152344 398.105469 571.394531 401.382812 572.207031 402.261719 C 573.015625 403.140625 573.421875 403.78125 573.421875 404.1875 Z M 573.421875 404.1875 " fill-opacity="1" fill-rule="nonzero"/><path fill="#000000" d="M 632.515625 348.539062 L 631.199219 349.046875 C 630.25 349.386719 628.902344 349.722656 627.144531 350.0625 C 625.386719 350.398438 623.429688 350.636719 621.269531 350.769531 L 619.34375 350.769531 L 619.34375 346.109375 L 621.269531 346.109375 C 624.441406 345.972656 627.382812 345.464844 630.082031 344.585938 C 632.785156 343.707031 634.675781 342.898438 635.757812 342.15625 C 636.839844 341.410156 637.785156 340.667969 638.59375 339.925781 C 638.730469 339.722656 639.132812 339.621094 639.808594 339.621094 C 640.417969 339.621094 640.992188 339.824219 641.53125 340.230469 L 641.53125 370.535156 L 641.632812 400.941406 C 642.105469 401.414062 642.511719 401.71875 642.851562 401.855469 C 643.1875 401.992188 644 402.125 645.28125 402.261719 C 646.566406 402.394531 648.660156 402.464844 651.5625 402.464844 L 654.199219 402.464844 L 654.199219 407.125 L 653.082031 407.125 C 651.664062 406.921875 646.292969 406.820312 636.972656 406.820312 C 627.785156 406.820312 622.484375 406.921875 621.066406 407.125 L 619.847656 407.125 L 619.847656 402.464844 L 622.484375 402.464844 C 623.96875 402.464844 625.253906 402.464844 626.335938 402.464844 C 627.414062 402.464844 628.257812 402.429688 628.867188 402.363281 C 629.476562 402.292969 630.015625 402.191406 630.488281 402.058594 C 630.960938 401.921875 631.230469 401.855469 631.300781 401.855469 C 631.367188 401.855469 631.570312 401.6875 631.90625 401.347656 C 632.246094 401.011719 632.449219 400.875 632.515625 400.941406 Z M 632.515625 348.539062 " fill-opacity="1" fill-rule="nonzero"/><path fill="#000000" d="M 678.210938 391.210938 C 678.210938 392.835938 677.671875 394.1875 676.589844 395.265625 C 675.511719 396.347656 674.191406 396.886719 672.640625 396.886719 L 671.929688 396.886719 C 675.035156 402.226562 679.15625 404.894531 684.292969 404.894531 C 689.019531 404.894531 692.464844 402.867188 694.625 398.8125 C 695.910156 396.585938 696.550781 392.261719 696.550781 385.839844 C 696.550781 378.878906 695.640625 374.183594 693.816406 371.75 C 692.058594 369.523438 690.101562 368.40625 687.9375 368.40625 L 687.332031 368.40625 C 682.0625 368.40625 678.078125 370.703125 675.375 375.300781 C 675.105469 375.773438 674.867188 376.042969 674.664062 376.109375 C 674.464844 376.175781 673.957031 376.246094 673.144531 376.3125 C 671.996094 376.3125 671.355469 376.109375 671.21875 375.703125 C 671.085938 375.433594 671.019531 369.523438 671.019531 357.964844 L 671.019531 344.890625 C 671.019531 341.511719 671.1875 339.824219 671.523438 339.824219 C 671.660156 339.6875 671.792969 339.621094 671.929688 339.621094 C 671.996094 339.621094 672.707031 339.890625 674.058594 340.429688 C 675.410156 340.972656 677.265625 341.511719 679.628906 342.054688 C 681.996094 342.59375 684.527344 342.863281 687.230469 342.863281 C 692.027344 342.863281 696.617188 341.917969 701.011719 340.027344 C 701.550781 339.753906 701.988281 339.621094 702.328125 339.621094 C 702.867188 339.621094 703.136719 340.230469 703.136719 341.445312 L 703.136719 342.761719 C 697.597656 349.316406 690.675781 352.59375 682.367188 352.59375 C 680.273438 352.59375 678.378906 352.390625 676.691406 351.988281 L 675.679688 351.785156 L 675.679688 369.21875 C 676.960938 368.269531 677.976562 367.527344 678.71875 366.988281 C 679.460938 366.445312 680.675781 365.90625 682.367188 365.367188 C 684.054688 364.824219 685.777344 364.554688 687.535156 364.554688 C 693.003906 364.554688 697.632812 366.75 701.414062 371.144531 C 705.199219 375.535156 707.089844 380.738281 707.089844 386.753906 C 707.089844 392.96875 704.925781 398.273438 700.605469 402.664062 C 696.28125 407.058594 691.011719 409.289062 684.796875 409.355469 C 679.328125 409.355469 674.9375 407.53125 671.625 403.882812 C 668.316406 400.234375 666.660156 396.113281 666.660156 391.515625 C 666.660156 389.894531 667.03125 388.609375 667.777344 387.664062 C 668.519531 386.71875 669.296875 386.109375 670.105469 385.839844 C 670.917969 385.570312 671.695312 385.433594 672.4375 385.433594 C 674.125 385.433594 675.511719 386.007812 676.589844 387.15625 C 677.671875 388.308594 678.210938 389.660156 678.210938 391.210938 Z M 678.210938 391.210938 " fill-opacity="1" fill-rule="nonzero"/></svg>