<?xml version="1.0" encoding="iso-8859-1"?>
<!-- Generator: Adobe Illustrator 19.0.0, SVG Export Plug-In . SVG Version: 6.00 Build 0)  -->
<svg version="1.1" id="Layer_1" xmlns="http://www.w3.org/2000/svg" xmlns:xlink="http://www.w3.org/1999/xlink" x="0px" y="0px"
	 viewBox="0 0 512.006 512.006" style="enable-background:new 0 0 512.006 512.006;" xml:space="preserve">
<g>
	<g>
		<g>
			<path d="M320.003,213.336c11.776,0,21.333-9.557,21.333-21.333s-9.557-21.333-21.333-21.333s-21.333,9.557-21.333,21.333
				S308.227,213.336,320.003,213.336z"/>
			<path d="M320.003,128.003c11.776,0,21.333-9.557,21.333-21.333s-9.557-21.333-21.333-21.333s-21.333,9.557-21.333,21.333
				S308.227,128.003,320.003,128.003z"/>
			<path d="M192.003,128.003c11.776,0,21.333-9.557,21.333-21.333s-9.557-21.333-21.333-21.333s-21.333,9.557-21.333,21.333
				S180.227,128.003,192.003,128.003z"/>
			<path d="M192.003,213.336c11.776,0,21.333-9.557,21.333-21.333s-9.557-21.333-21.333-21.333s-21.333,9.557-21.333,21.333
				S180.227,213.336,192.003,213.336z"/>
			<path d="M320.003,298.67c-11.776,0-21.333,9.557-21.333,21.333s9.557,21.333,21.333,21.333s21.333-9.557,21.333-21.333
				S331.779,298.67,320.003,298.67z"/>
			<path d="M192.003,384.003c-11.776,0-21.333,9.557-21.333,21.333s9.557,21.333,21.333,21.333s21.333-9.557,21.333-21.333
				S203.779,384.003,192.003,384.003z"/>
			<path d="M320.003,384.003c-11.776,0-21.333,9.557-21.333,21.333s9.557,21.333,21.333,21.333s21.333-9.557,21.333-21.333
				S331.779,384.003,320.003,384.003z"/>
			<path d="M192.003,298.67c-11.776,0-21.333,9.557-21.333,21.333s9.557,21.333,21.333,21.333s21.333-9.557,21.333-21.333
				S203.779,298.67,192.003,298.67z"/>
			<path d="M508.029,371.603l-102.693-143.77V42.67c0-11.782-9.551-21.333-21.333-21.333h-256c-11.782,0-21.333,9.551-21.333,21.333
				v9.255L10.36,109.71c-10.678,6.407-13.622,20.56-6.384,30.693l102.693,143.77v185.163c0,11.782,9.551,21.333,21.333,21.333h256
				c11.782,0,21.333-9.551,21.333-21.333v-9.255l96.309-57.786C512.324,395.889,515.267,381.737,508.029,371.603z M362.67,64.003
				V234.67H149.336V64.003H362.67z M106.67,101.682v109.085l-54.542-76.359L106.67,101.682z M149.336,448.003V277.336H362.67
				v170.667H149.336z M405.336,410.324V301.24l54.542,76.359L405.336,410.324z"/>
		</g>
	</g>
</g>
<g>
</g>
<g>
</g>
<g>
</g>
<g>
</g>
<g>
</g>
<g>
</g>
<g>
</g>
<g>
</g>
<g>
</g>
<g>
</g>
<g>
</g>
<g>
</g>
<g>
</g>
<g>
</g>
<g>
</g>
</svg>
