<?xml version="1.0" encoding="UTF-8" standalone="no"?>
<!-- Created with Inkscape (http://www.inkscape.org/) -->

<svg
   xmlns:dc="http://purl.org/dc/elements/1.1/"
   xmlns:cc="http://creativecommons.org/ns#"
   xmlns:rdf="http://www.w3.org/1999/02/22-rdf-syntax-ns#"
   xmlns:svg="http://www.w3.org/2000/svg"
   xmlns="http://www.w3.org/2000/svg"
   xmlns:sodipodi="http://sodipodi.sourceforge.net/DTD/sodipodi-0.dtd"
   xmlns:inkscape="http://www.inkscape.org/namespaces/inkscape"
   width="1052.3622"
   height="744.09448"
   id="svg5331"
   version="1.1"
   inkscape:version="0.48+devel r9772"
   sodipodi:docname="domino.svg">
  <defs
     id="defs5333" />
  <sodipodi:namedview
     id="base"
     pagecolor="#ffffff"
     bordercolor="#666666"
     borderopacity="1.0"
     inkscape:pageopacity="0.0"
     inkscape:pageshadow="2"
     inkscape:zoom="0.85069842"
     inkscape:cx="736.59643"
     inkscape:cy="372.04724"
     inkscape:document-units="px"
     inkscape:current-layer="layer1"
     showgrid="false"
     inkscape:window-width="1440"
     inkscape:window-height="851"
     inkscape:window-x="0"
     inkscape:window-y="1"
     inkscape:window-maximized="1"
     showguides="true"
     inkscape:guide-bbox="true" />
  <metadata
     id="metadata5336">
    <rdf:RDF>
      <cc:Work
         rdf:about="">
        <dc:format>image/svg+xml</dc:format>
        <dc:type
           rdf:resource="http://purl.org/dc/dcmitype/StillImage" />
        <dc:title></dc:title>
      </cc:Work>
    </rdf:RDF>
  </metadata>
  <g
     inkscape:label="Layer 1"
     inkscape:groupmode="layer"
     id="layer1"
     transform="translate(0,-308.2677)">
    <g
       id="g39277">
      <g
         transform="matrix(3.5893828,-0.22502901,0,3.5893828,-2677.454,-852.13143)"
         id="g38537">
        <g
           id="g38529"
           transform="translate(13.401034,0)">
          <g
             transform="translate(0.44011788,-17.164597)"
             id="g38509">
            <rect
               ry="37.99472"
               transform="matrix(0.79069731,-0.61220729,0.84685683,0.53182094,0,0)"
               y="874.57629"
               x="-24.800213"
               height="254.02184"
               width="126.71925"
               id="rect38507"
               style="fill:#ffffff;stroke:#000000;stroke-width:2.5388577;stroke-miterlimit:4;stroke-dasharray:none" />
            <rect
               style="fill:#ffffff;stroke:#000000;stroke-width:2.5388577;stroke-miterlimit:4;stroke-dasharray:none"
               id="rect38505"
               width="126.71925"
               height="254.02184"
               x="-8.5658693"
               y="859.41846"
               transform="matrix(0.79069731,-0.61220729,0.84685683,0.53182094,0,0)"
               ry="37.99472" />
          </g>
          <g
             id="g38519">
            <path
               style="fill:none;stroke:#000000;stroke-width:1.09695506px;stroke-linecap:butt;stroke-linejoin:miter;stroke-opacity:1"
               d="m 738.99955,442.22268 0,20.72209"
               id="path38515"
               inkscape:connector-curvature="0" />
            <path
               style="fill:#000000;stroke:#000000;stroke-width:1px;stroke-linecap:butt;stroke-linejoin:miter;stroke-opacity:1"
               d="m 739.04452,140.8642 0.26099,5.84596 1.93125,-2.76639 -2.08784,-2.81859"
               id="path38517"
               inkscape:connector-curvature="0"
               transform="translate(0,308.2677)" />
          </g>
        </g>
        <g
           id="g38523"
           transform="matrix(-1,0,0,1,1771.5514,62.50788)">
          <path
             style="fill:none;stroke:#000000;stroke-width:1.09695506px;stroke-linecap:butt;stroke-linejoin:miter;stroke-opacity:1"
             d="m 738.99955,442.22268 0,20.72209"
             id="path38525"
             inkscape:connector-curvature="0" />
          <path
             style="fill:#000000;stroke:#000000;stroke-width:1px;stroke-linecap:butt;stroke-linejoin:miter;stroke-opacity:1"
             d="m 739.04452,140.8642 0.26099,5.84596 1.93125,-2.76639 -2.08784,-2.81859"
             id="path38527"
             inkscape:connector-curvature="0"
             transform="translate(0,308.2677)" />
        </g>
      </g>
      <g
         transform="matrix(3.5893828,-0.22502901,0,3.5893828,-2683.454,-858.13143)"
         id="g38600">
        <g
           id="g38569"
           transform="translate(0,0.45497418)">
          <g
             transform="matrix(0.31168933,0,0,0.31168933,624.36035,220.11436)"
             id="g38553">
            <path
               sodipodi:type="arc"
               style="fill:#000000;stroke:#000000;stroke-width:3;stroke-miterlimit:4;stroke-dasharray:none"
               id="path38549"
               sodipodi:cx="568.94427"
               sodipodi:cy="402.61035"
               sodipodi:rx="44.669178"
               sodipodi:ry="29.97537"
               d="m 613.61345,402.61035 c 0,16.55494 -19.99907,29.97537 -44.66918,29.97537 -24.6701,0 -44.66917,-13.42043 -44.66917,-29.97537 0,-16.55494 19.99907,-29.97537 44.66917,-29.97537 24.67011,0 44.66918,13.42043 44.66918,29.97537 z"
               transform="translate(0,308.2677)" />
            <path
               transform="matrix(0.5922753,0,0,0.41731953,231.97264,557.5547)"
               d="m 613.61345,402.61035 c 0,16.55494 -19.99907,29.97537 -44.66918,29.97537 -24.6701,0 -44.66917,-13.42043 -44.66917,-29.97537 0,-16.55494 19.99907,-29.97537 44.66917,-29.97537 24.67011,0 44.66918,13.42043 44.66918,29.97537 z"
               sodipodi:ry="29.97537"
               sodipodi:rx="44.669178"
               sodipodi:cy="402.61035"
               sodipodi:cx="568.94427"
               id="path38551"
               style="fill:#ffffff;stroke:#000000;stroke-width:3;stroke-miterlimit:4;stroke-dasharray:none"
               sodipodi:type="arc" />
          </g>
          <g
             id="g38557"
             transform="matrix(0.31168933,0,0,0.31168933,649.38393,235.12851)">
            <path
               transform="translate(0,308.2677)"
               d="m 613.61345,402.61035 c 0,16.55494 -19.99907,29.97537 -44.66918,29.97537 -24.6701,0 -44.66917,-13.42043 -44.66917,-29.97537 0,-16.55494 19.99907,-29.97537 44.66917,-29.97537 24.67011,0 44.66918,13.42043 44.66918,29.97537 z"
               sodipodi:ry="29.97537"
               sodipodi:rx="44.669178"
               sodipodi:cy="402.61035"
               sodipodi:cx="568.94427"
               id="path38559"
               style="fill:#000000;stroke:#000000;stroke-width:3;stroke-miterlimit:4;stroke-dasharray:none"
               sodipodi:type="arc" />
            <path
               sodipodi:type="arc"
               style="fill:#ffffff;stroke:#000000;stroke-width:3;stroke-miterlimit:4;stroke-dasharray:none"
               id="path38561"
               sodipodi:cx="568.94427"
               sodipodi:cy="402.61035"
               sodipodi:rx="44.669178"
               sodipodi:ry="29.97537"
               d="m 613.61345,402.61035 c 0,16.55494 -19.99907,29.97537 -44.66918,29.97537 -24.6701,0 -44.66917,-13.42043 -44.66917,-29.97537 0,-16.55494 19.99907,-29.97537 44.66917,-29.97537 24.67011,0 44.66918,13.42043 44.66918,29.97537 z"
               transform="matrix(0.5922753,0,0,0.41731953,231.97264,557.5547)" />
          </g>
          <g
             transform="matrix(0.31168933,0,0,0.31168933,675.31746,250.59763)"
             id="g38563">
            <path
               sodipodi:type="arc"
               style="fill:#000000;stroke:#000000;stroke-width:3;stroke-miterlimit:4;stroke-dasharray:none"
               id="path38565"
               sodipodi:cx="568.94427"
               sodipodi:cy="402.61035"
               sodipodi:rx="44.669178"
               sodipodi:ry="29.97537"
               d="m 613.61345,402.61035 c 0,16.55494 -19.99907,29.97537 -44.66918,29.97537 -24.6701,0 -44.66917,-13.42043 -44.66917,-29.97537 0,-16.55494 19.99907,-29.97537 44.66917,-29.97537 24.67011,0 44.66918,13.42043 44.66918,29.97537 z"
               transform="translate(0,308.2677)" />
            <path
               transform="matrix(0.5922753,0,0,0.41731953,231.97264,557.5547)"
               d="m 613.61345,402.61035 c 0,16.55494 -19.99907,29.97537 -44.66918,29.97537 -24.6701,0 -44.66917,-13.42043 -44.66917,-29.97537 0,-16.55494 19.99907,-29.97537 44.66917,-29.97537 24.67011,0 44.66918,13.42043 44.66918,29.97537 z"
               sodipodi:ry="29.97537"
               sodipodi:rx="44.669178"
               sodipodi:cy="402.61035"
               sodipodi:cx="568.94427"
               id="path38567"
               style="fill:#ffffff;stroke:#000000;stroke-width:3;stroke-miterlimit:4;stroke-dasharray:none"
               sodipodi:type="arc" />
          </g>
        </g>
        <g
           id="g38580"
           transform="translate(35.033012,-31.393218)">
          <g
             id="g38582"
             transform="matrix(0.31168933,0,0,0.31168933,624.36035,220.11436)">
            <path
               transform="translate(0,308.2677)"
               d="m 613.61345,402.61035 c 0,16.55494 -19.99907,29.97537 -44.66918,29.97537 -24.6701,0 -44.66917,-13.42043 -44.66917,-29.97537 0,-16.55494 19.99907,-29.97537 44.66917,-29.97537 24.67011,0 44.66918,13.42043 44.66918,29.97537 z"
               sodipodi:ry="29.97537"
               sodipodi:rx="44.669178"
               sodipodi:cy="402.61035"
               sodipodi:cx="568.94427"
               id="path38584"
               style="fill:#000000;stroke:#000000;stroke-width:3;stroke-miterlimit:4;stroke-dasharray:none"
               sodipodi:type="arc" />
            <path
               sodipodi:type="arc"
               style="fill:#ffffff;stroke:#000000;stroke-width:3;stroke-miterlimit:4;stroke-dasharray:none"
               id="path38586"
               sodipodi:cx="568.94427"
               sodipodi:cy="402.61035"
               sodipodi:rx="44.669178"
               sodipodi:ry="29.97537"
               d="m 613.61345,402.61035 c 0,16.55494 -19.99907,29.97537 -44.66918,29.97537 -24.6701,0 -44.66917,-13.42043 -44.66917,-29.97537 0,-16.55494 19.99907,-29.97537 44.66917,-29.97537 24.67011,0 44.66918,13.42043 44.66918,29.97537 z"
               transform="matrix(0.5922753,0,0,0.41731953,231.97264,557.5547)" />
          </g>
          <g
             transform="matrix(0.31168933,0,0,0.31168933,649.38393,235.12851)"
             id="g38588">
            <path
               sodipodi:type="arc"
               style="fill:#000000;stroke:#000000;stroke-width:3;stroke-miterlimit:4;stroke-dasharray:none"
               id="path38590"
               sodipodi:cx="568.94427"
               sodipodi:cy="402.61035"
               sodipodi:rx="44.669178"
               sodipodi:ry="29.97537"
               d="m 613.61345,402.61035 c 0,16.55494 -19.99907,29.97537 -44.66918,29.97537 -24.6701,0 -44.66917,-13.42043 -44.66917,-29.97537 0,-16.55494 19.99907,-29.97537 44.66917,-29.97537 24.67011,0 44.66918,13.42043 44.66918,29.97537 z"
               transform="translate(0,308.2677)" />
            <path
               transform="matrix(0.5922753,0,0,0.41731953,231.97264,557.5547)"
               d="m 613.61345,402.61035 c 0,16.55494 -19.99907,29.97537 -44.66918,29.97537 -24.6701,0 -44.66917,-13.42043 -44.66917,-29.97537 0,-16.55494 19.99907,-29.97537 44.66917,-29.97537 24.67011,0 44.66918,13.42043 44.66918,29.97537 z"
               sodipodi:ry="29.97537"
               sodipodi:rx="44.669178"
               sodipodi:cy="402.61035"
               sodipodi:cx="568.94427"
               id="path38592"
               style="fill:#ffffff;stroke:#000000;stroke-width:3;stroke-miterlimit:4;stroke-dasharray:none"
               sodipodi:type="arc" />
          </g>
          <g
             id="g38594"
             transform="matrix(0.31168933,0,0,0.31168933,675.31746,250.59763)">
            <path
               transform="translate(0,308.2677)"
               d="m 613.61345,402.61035 c 0,16.55494 -19.99907,29.97537 -44.66918,29.97537 -24.6701,0 -44.66917,-13.42043 -44.66917,-29.97537 0,-16.55494 19.99907,-29.97537 44.66917,-29.97537 24.67011,0 44.66918,13.42043 44.66918,29.97537 z"
               sodipodi:ry="29.97537"
               sodipodi:rx="44.669178"
               sodipodi:cy="402.61035"
               sodipodi:cx="568.94427"
               id="path38596"
               style="fill:#000000;stroke:#000000;stroke-width:3;stroke-miterlimit:4;stroke-dasharray:none"
               sodipodi:type="arc" />
            <path
               sodipodi:type="arc"
               style="fill:#ffffff;stroke:#000000;stroke-width:3;stroke-miterlimit:4;stroke-dasharray:none"
               id="path38598"
               sodipodi:cx="568.94427"
               sodipodi:cy="402.61035"
               sodipodi:rx="44.669178"
               sodipodi:ry="29.97537"
               d="m 613.61345,402.61035 c 0,16.55494 -19.99907,29.97537 -44.66918,29.97537 -24.6701,0 -44.66917,-13.42043 -44.66917,-29.97537 0,-16.55494 19.99907,-29.97537 44.66917,-29.97537 24.67011,0 44.66918,13.42043 44.66918,29.97537 z"
               transform="matrix(0.5922753,0,0,0.41731953,231.97264,557.5547)" />
          </g>
        </g>
      </g>
      <path
         inkscape:connector-curvature="0"
         id="path38622"
         d="M 413.06058,741.71017 625.36051,540.59667"
         style="fill:none;stroke:#000000;stroke-width:10.76814842;stroke-linecap:round;stroke-linejoin:miter;stroke-miterlimit:4;stroke-opacity:1;stroke-dasharray:none" />
      <g
         id="g39148"
         transform="matrix(1.1187723,-0.07013914,0,1.1187723,78.033374,-22.506442)">
        <path
           transform="translate(0,308.2677)"
           d="m 613.61345,402.61035 c 0,16.55494 -19.99907,29.97537 -44.66918,29.97537 -24.6701,0 -44.66917,-13.42043 -44.66917,-29.97537 0,-16.55494 19.99907,-29.97537 44.66917,-29.97537 24.67011,0 44.66918,13.42043 44.66918,29.97537 z"
           sodipodi:ry="29.97537"
           sodipodi:rx="44.669178"
           sodipodi:cy="402.61035"
           sodipodi:cx="568.94427"
           id="path39150"
           style="fill:#000000;stroke:#000000;stroke-width:3;stroke-miterlimit:4;stroke-dasharray:none"
           sodipodi:type="arc" />
        <path
           sodipodi:type="arc"
           style="fill:#ffffff;stroke:#000000;stroke-width:3;stroke-miterlimit:4;stroke-dasharray:none"
           id="path39152"
           sodipodi:cx="568.94427"
           sodipodi:cy="402.61035"
           sodipodi:rx="44.669178"
           sodipodi:ry="29.97537"
           d="m 613.61345,402.61035 c 0,16.55494 -19.99907,29.97537 -44.66918,29.97537 -24.6701,0 -44.66917,-13.42043 -44.66917,-29.97537 0,-16.55494 19.99907,-29.97537 44.66917,-29.97537 24.67011,0 44.66918,13.42043 44.66918,29.97537 z"
           transform="matrix(0.5922753,0,0,0.41731953,231.97264,557.5547)" />
      </g>
    </g>
  </g>
</svg>
