<?xml version="1.0" encoding="UTF-8"?>
<svg width="700pt" height="700pt" version="1.1" viewBox="0 0 700 700" xmlns="http://www.w3.org/2000/svg" xmlns:xlink="http://www.w3.org/1999/xlink">
 <defs>
  <symbol id="y" overflow="visible">
   <path d="m2.3438-0.14062c-0.125 0.0625-0.25781 0.10938-0.39062 0.14062-0.125 0.03125-0.25781 0.046875-0.39062 0.046875-0.42969 0-0.76562-0.11328-1.0156-0.34375-0.25-0.23828-0.375-0.5625-0.375-0.96875 0-0.41406 0.125-0.73828 0.375-0.96875 0.25-0.23828 0.58594-0.35938 1.0156-0.35938 0.13281 0 0.26562 0.015625 0.39062 0.046875 0.13281 0.03125 0.26562 0.078125 0.39062 0.14062v0.53125c-0.125-0.082031-0.24609-0.14453-0.35938-0.1875-0.11719-0.039062-0.24219-0.0625-0.375-0.0625-0.23047 0-0.41406 0.078125-0.54688 0.23438-0.13672 0.14844-0.20312 0.35547-0.20312 0.625 0 0.26172 0.066406 0.46875 0.20312 0.625 0.13281 0.14844 0.31641 0.21875 0.54688 0.21875 0.13281 0 0.25781-0.019531 0.375-0.0625 0.11328-0.039063 0.23438-0.10156 0.35938-0.1875z"/>
  </symbol>
  <symbol id="c" overflow="visible">
   <path d="m1.7188-1.3906c-0.054688-0.03125-0.10547-0.050781-0.15625-0.0625-0.054688-0.007813-0.10938-0.015625-0.17188-0.015625-0.15625 0-0.27734 0.054688-0.35938 0.15625-0.085938 0.10547-0.125 0.25-0.125 0.4375v0.875h-0.60938v-1.9219h0.60938v0.32812c0.082031-0.125 0.17188-0.21094 0.26562-0.26562 0.10156-0.0625 0.22656-0.09375 0.375-0.09375h0.0625 0.10938z"/>
  </symbol>
  <symbol id="a" overflow="visible">
   <path d="m2.2031-0.96875v0.1875h-1.4219c0.007812 0.13672 0.054688 0.24219 0.14062 0.3125 0.09375 0.074219 0.21875 0.10938 0.375 0.10938 0.13281 0 0.26953-0.015625 0.40625-0.046875 0.13281-0.039062 0.26953-0.10156 0.40625-0.1875v0.48438c-0.14844 0.054688-0.29297 0.089844-0.4375 0.10938-0.13672 0.03125-0.27734 0.046875-0.42188 0.046875-0.35547 0-0.625-0.085938-0.8125-0.26562-0.1875-0.17578-0.28125-0.42188-0.28125-0.73438s0.09375-0.55469 0.28125-0.73438c0.1875-0.17578 0.44531-0.26562 0.78125-0.26562 0.28906 0 0.52344 0.089844 0.70312 0.26562 0.1875 0.17969 0.28125 0.41797 0.28125 0.71875zm-0.625-0.20312c0-0.11328-0.039063-0.20312-0.10938-0.26562-0.0625-0.070312-0.15234-0.10938-0.26562-0.10938-0.11719 0-0.21094 0.03125-0.28125 0.09375-0.074219 0.0625-0.12109 0.15625-0.14062 0.28125z"/>
  </symbol>
  <symbol id="k" overflow="visible">
   <path d="m1.1562-0.85938c-0.13672 0-0.23438 0.023437-0.29688 0.0625-0.0625 0.042969-0.09375 0.10547-0.09375 0.1875 0 0.085937 0.023437 0.14844 0.078125 0.1875 0.050781 0.042969 0.125 0.0625 0.21875 0.0625 0.11328 0 0.20703-0.039063 0.28125-0.125 0.082031-0.082031 0.125-0.1875 0.125-0.3125v-0.0625zm0.9375-0.23438v1.0938h-0.625v-0.28125c-0.085938 0.11719-0.17969 0.19922-0.28125 0.25-0.09375 0.050781-0.21875 0.078125-0.375 0.078125-0.19922 0-0.35938-0.054688-0.48438-0.17188-0.11719-0.11328-0.17188-0.26562-0.17188-0.45312 0-0.21875 0.070312-0.37891 0.21875-0.48438 0.15625-0.10156 0.39844-0.15625 0.73438-0.15625h0.35938v-0.046875c0-0.10156-0.042969-0.17578-0.125-0.21875-0.074219-0.039063-0.1875-0.0625-0.34375-0.0625-0.13672 0-0.26172 0.015625-0.375 0.046875-0.10547 0.023438-0.21094 0.058594-0.3125 0.10938v-0.46875c0.13281-0.03125 0.26562-0.050781 0.39062-0.0625 0.13281-0.019531 0.26953-0.03125 0.40625-0.03125 0.34375 0 0.59375 0.070313 0.75 0.20312 0.15625 0.13672 0.23438 0.35547 0.23438 0.65625z"/>
  </symbol>
  <symbol id="b" overflow="visible">
   <path d="m0.96875-2.4531v0.53125h0.625v0.4375h-0.625v0.8125c0 0.09375 0.015625 0.15625 0.046875 0.1875s0.097656 0.046875 0.20312 0.046875h0.32812v0.4375h-0.53125c-0.24219 0-0.41406-0.046875-0.51562-0.14062-0.10547-0.10156-0.15625-0.28125-0.15625-0.53125v-0.8125h-0.29688v-0.4375h0.29688v-0.53125z"/>
  </symbol>
  <symbol id="j" overflow="visible">
   <path d="m1.5938-1.6406v-1.0156h0.625v2.6562h-0.625v-0.28125c-0.085938 0.11719-0.17969 0.19922-0.28125 0.25-0.09375 0.050781-0.21094 0.078125-0.34375 0.078125-0.24219 0-0.4375-0.09375-0.59375-0.28125-0.14844-0.1875-0.21875-0.42578-0.21875-0.71875 0-0.28906 0.070312-0.53125 0.21875-0.71875 0.15625-0.1875 0.35156-0.28125 0.59375-0.28125 0.125 0 0.23828 0.027344 0.34375 0.078125 0.10156 0.054688 0.19531 0.13281 0.28125 0.23438zm-0.40625 1.25c0.13281 0 0.23438-0.046875 0.29688-0.14062 0.070313-0.10156 0.10938-0.24219 0.10938-0.42188 0-0.1875-0.039062-0.32812-0.10938-0.42188-0.0625-0.09375-0.16406-0.14062-0.29688-0.14062-0.125 0-0.22656 0.046875-0.29688 0.14062-0.0625 0.09375-0.09375 0.23438-0.09375 0.42188 0 0.17969 0.03125 0.32031 0.09375 0.42188 0.070313 0.09375 0.17188 0.14062 0.29688 0.14062z"/>
  </symbol>
  <symbol id="i" overflow="visible">
   <path d="m1.3125-0.39062c0.13281 0 0.23438-0.046875 0.29688-0.14062 0.070313-0.10156 0.10938-0.24219 0.10938-0.42188 0-0.1875-0.039062-0.32812-0.10938-0.42188-0.0625-0.09375-0.16406-0.14062-0.29688-0.14062-0.13672 0-0.24219 0.046875-0.3125 0.14062-0.0625 0.09375-0.09375 0.23438-0.09375 0.42188 0 0.17969 0.03125 0.32031 0.09375 0.42188 0.070312 0.09375 0.17578 0.14062 0.3125 0.14062zm-0.40625-1.25c0.082031-0.10156 0.17578-0.17969 0.28125-0.23438 0.10156-0.050781 0.22266-0.078125 0.35938-0.078125 0.22656 0 0.41406 0.09375 0.5625 0.28125 0.15625 0.1875 0.23438 0.42969 0.23438 0.71875 0 0.29297-0.078125 0.53125-0.23438 0.71875-0.14844 0.1875-0.33594 0.28125-0.5625 0.28125-0.13672 0-0.25781-0.027344-0.35938-0.078125-0.10547-0.050781-0.19922-0.13281-0.28125-0.25v0.28125h-0.60938v-2.6562h0.60938z"/>
  </symbol>
  <symbol id="h" overflow="visible">
   <path d="m0.046875-1.9219h0.60938l0.51562 1.3125 0.4375-1.3125h0.60938l-0.8125 2.1094c-0.074219 0.20703-0.16797 0.35156-0.28125 0.4375-0.10547 0.082031-0.24609 0.125-0.42188 0.125h-0.35938v-0.39062h0.20312c0.10156 0 0.17578-0.023437 0.21875-0.0625 0.050781-0.03125 0.085937-0.089844 0.10938-0.17188l0.015625-0.046875z"/>
  </symbol>
  <symbol id="g" overflow="visible">
   <path d="m0.32812-2.5469h0.65625v2.0469h1.1562v0.5h-1.8125z"/>
  </symbol>
  <symbol id="x" overflow="visible">
   <path d="m2.0938-2.4688v0.53125c-0.13672-0.0625-0.27344-0.10938-0.40625-0.14062-0.13672-0.03125-0.26172-0.046875-0.375-0.046875-0.15625 0-0.27734 0.027344-0.35938 0.078125-0.074219 0.042969-0.10938 0.10547-0.10938 0.1875 0 0.074219 0.023438 0.13281 0.078125 0.17188 0.050781 0.03125 0.14453 0.0625 0.28125 0.09375l0.28125 0.046875c0.28125 0.0625 0.47656 0.15234 0.59375 0.26562 0.125 0.11719 0.1875 0.28125 0.1875 0.5 0 0.28125-0.085937 0.49219-0.25 0.625-0.16797 0.13672-0.42188 0.20312-0.76562 0.20312-0.16797 0-0.33594-0.015625-0.5-0.046875-0.15625-0.03125-0.3125-0.078125-0.46875-0.14062v-0.54688c0.15625 0.085938 0.30469 0.15234 0.45312 0.20312 0.15625 0.042969 0.30469 0.0625 0.45312 0.0625 0.14453 0 0.25391-0.023437 0.32812-0.078125 0.070313-0.050781 0.10938-0.11719 0.10938-0.20312 0-0.082031-0.027344-0.14453-0.078125-0.1875-0.054687-0.039063-0.15234-0.078125-0.29688-0.10938l-0.26562-0.0625c-0.25-0.050781-0.4375-0.13281-0.5625-0.25-0.11719-0.125-0.17188-0.28906-0.17188-0.5 0-0.25 0.082031-0.44141 0.25-0.57812 0.16406-0.13281 0.39844-0.20312 0.70312-0.20312 0.14453 0 0.28906 0.011719 0.4375 0.03125 0.14453 0.023438 0.29688 0.054688 0.45312 0.09375z"/>
  </symbol>
  <symbol id="w" overflow="visible">
   <path d="m0.32812-2.5469h1.7656v0.5h-1.1094v0.46875h1.0469v0.5h-1.0469v0.57812h1.1562v0.5h-1.8125z"/>
  </symbol>
  <symbol id="v" overflow="visible">
   <path d="m0.98438-2.0469v1.5469h0.23438c0.26953 0 0.47266-0.0625 0.60938-0.1875 0.14453-0.13281 0.21875-0.33203 0.21875-0.59375 0-0.25-0.074219-0.4375-0.21875-0.5625-0.13672-0.13281-0.33984-0.20312-0.60938-0.20312zm-0.65625-0.5h0.6875c0.38281 0 0.67188 0.027344 0.85938 0.078125 0.19531 0.054688 0.36328 0.14844 0.5 0.28125 0.11328 0.11719 0.19531 0.25 0.25 0.40625 0.0625 0.14844 0.09375 0.3125 0.09375 0.5 0 0.19922-0.03125 0.375-0.09375 0.53125-0.054688 0.14844-0.13672 0.27734-0.25 0.39062-0.14844 0.125-0.3125 0.21875-0.5 0.28125-0.1875 0.054688-0.47656 0.078125-0.85938 0.078125h-0.6875z"/>
  </symbol>
  <symbol id="f" overflow="visible">
   <path d="m1.7969-1.8594v0.46875c-0.13672-0.050781-0.26562-0.085937-0.39062-0.10938-0.11719-0.03125-0.23047-0.046875-0.34375-0.046875-0.11719 0-0.20312 0.015625-0.26562 0.046875-0.054687 0.023438-0.078125 0.0625-0.078125 0.125 0 0.054688 0.019531 0.09375 0.0625 0.125 0.039062 0.023438 0.11719 0.039062 0.23438 0.046875l0.10938 0.015625c0.3125 0.042969 0.51953 0.10938 0.625 0.20312 0.11328 0.085937 0.17188 0.22656 0.17188 0.42188 0 0.19922-0.078125 0.35156-0.23438 0.45312-0.14844 0.10547-0.37109 0.15625-0.67188 0.15625-0.125 0-0.25781-0.011719-0.39062-0.03125-0.13672-0.019531-0.27734-0.046875-0.42188-0.078125v-0.46875c0.125 0.054688 0.25 0.09375 0.375 0.125 0.13281 0.03125 0.26562 0.046875 0.39062 0.046875s0.21875-0.015625 0.28125-0.046875 0.09375-0.078125 0.09375-0.14062-0.023438-0.10156-0.0625-0.125c-0.042969-0.03125-0.125-0.050781-0.25-0.0625l-0.10938-0.015625c-0.27344-0.03125-0.46484-0.09375-0.57812-0.1875-0.10547-0.09375-0.15625-0.23438-0.15625-0.42188 0-0.20703 0.066406-0.35938 0.20312-0.45312 0.13281-0.09375 0.34766-0.14062 0.64062-0.14062 0.11328 0 0.23438 0.011719 0.35938 0.03125 0.125 0.011719 0.25781 0.03125 0.40625 0.0625z"/>
  </symbol>
  <symbol id="u" overflow="visible">
   <path d="m0.29688-1.9219h0.60938v1.9219h-0.60938zm0-0.73438h0.60938v0.5h-0.60938z"/>
  </symbol>
  <symbol id="t" overflow="visible">
   <path d="m1.5938-0.32812c-0.085938 0.11719-0.17969 0.19922-0.28125 0.25-0.09375 0.054688-0.21094 0.078125-0.34375 0.078125-0.24219 0-0.4375-0.085938-0.59375-0.26562-0.14844-0.1875-0.21875-0.42578-0.21875-0.71875 0-0.28125 0.070312-0.50781 0.21875-0.6875 0.15625-0.1875 0.35156-0.28125 0.59375-0.28125 0.13281 0 0.25 0.027344 0.34375 0.078125 0.10156 0.054688 0.19531 0.13672 0.28125 0.25v-0.29688h0.625v1.7344c0 0.30078-0.10156 0.53125-0.29688 0.6875-0.19922 0.16406-0.48047 0.25-0.84375 0.25-0.125 0-0.24609-0.011719-0.35938-0.03125-0.10547-0.011719-0.21484-0.039062-0.32812-0.078125v-0.46875c0.10156 0.0625 0.20703 0.10156 0.3125 0.125 0.10156 0.03125 0.20703 0.046875 0.3125 0.046875 0.19531 0 0.34375-0.042969 0.4375-0.125 0.09375-0.085938 0.14062-0.21875 0.14062-0.40625zm-0.40625-1.1875c-0.125 0-0.22656 0.046875-0.29688 0.14062-0.0625 0.09375-0.09375 0.22656-0.09375 0.39062 0 0.17969 0.03125 0.3125 0.09375 0.40625 0.070313 0.09375 0.17188 0.14062 0.29688 0.14062 0.13281 0 0.23438-0.046875 0.29688-0.14062 0.070313-0.09375 0.10938-0.22656 0.10938-0.40625 0-0.16406-0.039062-0.29688-0.10938-0.39062-0.0625-0.09375-0.16406-0.14062-0.29688-0.14062z"/>
  </symbol>
  <symbol id="e" overflow="visible">
   <path d="m2.2188-1.1719v1.1719h-0.60938v-0.89062c0-0.16406-0.007813-0.28125-0.015625-0.34375-0.011719-0.0625-0.027344-0.10938-0.046875-0.14062-0.023437-0.039062-0.054687-0.070312-0.09375-0.09375-0.042969-0.019531-0.089844-0.03125-0.14062-0.03125-0.125 0-0.22656 0.054688-0.29688 0.15625-0.074219 0.09375-0.10938 0.23047-0.10938 0.40625v0.9375h-0.60938v-1.9219h0.60938v0.28125c0.09375-0.10156 0.19141-0.17969 0.29688-0.23438 0.10156-0.050781 0.21875-0.078125 0.34375-0.078125 0.21875 0 0.38281 0.070313 0.5 0.20312 0.11328 0.13672 0.17188 0.32812 0.17188 0.57812z"/>
  </symbol>
  <symbol id="s" overflow="visible">
   <path d="m1.5469-2.6562v0.40625h-0.32812c-0.09375 0-0.15625 0.015625-0.1875 0.046875s-0.046875 0.085937-0.046875 0.15625v0.125h0.51562v0.4375h-0.51562v1.4844h-0.60938v-1.4844h-0.3125v-0.4375h0.3125v-0.125c0-0.20703 0.054688-0.35938 0.17188-0.45312 0.11328-0.10156 0.28906-0.15625 0.53125-0.15625z"/>
  </symbol>
  <symbol id="d" overflow="visible">
   <path d="m1.2031-1.5156c-0.13672 0-0.24219 0.046875-0.3125 0.14062-0.074219 0.09375-0.10938 0.23438-0.10938 0.42188 0 0.17969 0.035156 0.32031 0.10938 0.42188 0.070313 0.09375 0.17578 0.14062 0.3125 0.14062 0.13281 0 0.23438-0.046875 0.29688-0.14062 0.070312-0.10156 0.10938-0.24219 0.10938-0.42188 0-0.1875-0.039063-0.32812-0.10938-0.42188-0.0625-0.09375-0.16406-0.14062-0.29688-0.14062zm0-0.4375c0.33203 0 0.58594 0.089844 0.76562 0.26562 0.1875 0.17969 0.28125 0.42188 0.28125 0.73438s-0.09375 0.55859-0.28125 0.73438c-0.17969 0.17969-0.43359 0.26562-0.76562 0.26562-0.33594 0-0.59375-0.085938-0.78125-0.26562-0.17969-0.17578-0.26562-0.42188-0.26562-0.73438s0.085938-0.55469 0.26562-0.73438c0.1875-0.17578 0.44531-0.26562 0.78125-0.26562z"/>
  </symbol>
  <symbol id="r" overflow="visible">
   <path d="m2.0625-1.5938c0.082031-0.125 0.17578-0.21094 0.28125-0.26562 0.10156-0.0625 0.21875-0.09375 0.34375-0.09375 0.22656 0 0.39844 0.070313 0.51562 0.20312 0.11328 0.13672 0.17188 0.32812 0.17188 0.57812v1.1719h-0.625v-1-0.03125c0.007812-0.019531 0.015625-0.046875 0.015625-0.078125 0-0.13281-0.023437-0.23438-0.0625-0.29688-0.042969-0.0625-0.10938-0.09375-0.20312-0.09375-0.11719 0-0.20312 0.046875-0.26562 0.14062s-0.09375 0.23438-0.09375 0.42188v0.9375h-0.625v-1c0-0.20703-0.023437-0.34375-0.0625-0.40625-0.03125-0.0625-0.09375-0.09375-0.1875-0.09375-0.11719 0-0.20312 0.054688-0.26562 0.15625-0.0625 0.09375-0.09375 0.23047-0.09375 0.40625v0.9375h-0.60938v-1.9219h0.60938v0.28125c0.070312-0.10156 0.15625-0.17969 0.25-0.23438 0.10156-0.050781 0.21094-0.078125 0.32812-0.078125 0.13281 0 0.25 0.03125 0.34375 0.09375 0.10156 0.0625 0.17969 0.15234 0.23438 0.26562z"/>
  </symbol>
  <symbol id="q" overflow="visible">
   <path d="m2.2188-1.1719v1.1719h-0.60938v-0.89062c0-0.16406-0.007813-0.28125-0.015625-0.34375-0.011719-0.0625-0.027344-0.10938-0.046875-0.14062-0.023437-0.039062-0.054687-0.070312-0.09375-0.09375-0.042969-0.019531-0.089844-0.03125-0.14062-0.03125-0.125 0-0.22656 0.054688-0.29688 0.15625-0.074219 0.09375-0.10938 0.23047-0.10938 0.40625v0.9375h-0.60938v-2.6562h0.60938v1.0156c0.09375-0.10156 0.19141-0.17969 0.29688-0.23438 0.10156-0.050781 0.21875-0.078125 0.34375-0.078125 0.21875 0 0.38281 0.070313 0.5 0.20312 0.11328 0.13672 0.17188 0.32812 0.17188 0.57812z"/>
  </symbol>
  <symbol id="p" overflow="visible">
   <path d="m0.32812-2.5469h0.73438l0.92188 1.75v-1.75h0.625v2.5469h-0.73438l-0.9375-1.75v1.75h-0.60938z"/>
  </symbol>
  <symbol id="o" overflow="visible">
   <path d="m0.28125-0.75v-1.1719h0.60938v0.20312 0.39062 0.3125 0.34375c0.007813 0.0625 0.023437 0.10938 0.046875 0.14062 0.019531 0.03125 0.050781 0.0625 0.09375 0.09375 0.039062 0.023438 0.085938 0.03125 0.14062 0.03125 0.13281 0 0.23828-0.046875 0.3125-0.14062 0.070313-0.10156 0.10938-0.24219 0.10938-0.42188v-0.95312h0.60938v1.9219h-0.60938v-0.28125c-0.09375 0.11719-0.19531 0.19922-0.29688 0.25-0.10547 0.050781-0.21875 0.078125-0.34375 0.078125-0.21875 0-0.38672-0.066406-0.5-0.20312-0.11719-0.13281-0.17188-0.33203-0.17188-0.59375z"/>
  </symbol>
  <symbol id="n" overflow="visible">
   <path d="m0.32812-2.5469h1.0781c0.33203 0 0.58203 0.074219 0.75 0.21875 0.17578 0.13672 0.26562 0.33984 0.26562 0.60938 0 0.27344-0.089844 0.48047-0.26562 0.625-0.16797 0.13672-0.41797 0.20312-0.75 0.20312h-0.42188v0.89062h-0.65625zm0.65625 0.46875v0.71875h0.35938c0.125 0 0.22266-0.03125 0.29688-0.09375 0.070313-0.0625 0.10938-0.14844 0.10938-0.26562 0-0.11328-0.039062-0.20312-0.10938-0.26562-0.074219-0.0625-0.17188-0.09375-0.29688-0.09375z"/>
  </symbol>
  <symbol id="m" overflow="visible">
   <path d="m0.29688-1.9219h0.60938v1.8906c0 0.25-0.0625 0.44141-0.1875 0.57812-0.125 0.13281-0.30469 0.20312-0.53125 0.20312h-0.29688v-0.39062h0.09375c0.125 0 0.20703-0.027344 0.25-0.078125 0.039063-0.054688 0.0625-0.15625 0.0625-0.3125zm0-0.73438h0.60938v0.5h-0.60938z"/>
  </symbol>
  <symbol id="l" overflow="visible">
   <path d="m1.8438-1.8594v0.5c-0.085938-0.050781-0.16797-0.085937-0.25-0.10938-0.085938-0.03125-0.17188-0.046875-0.26562-0.046875-0.16797 0-0.30469 0.054687-0.40625 0.15625-0.09375 0.09375-0.14062 0.23047-0.14062 0.40625 0 0.17969 0.046875 0.32031 0.14062 0.42188 0.10156 0.09375 0.23828 0.14062 0.40625 0.14062 0.09375 0 0.17969-0.007813 0.26562-0.03125 0.09375-0.03125 0.17578-0.078125 0.25-0.14062v0.5c-0.09375 0.042969-0.19531 0.066406-0.29688 0.078125-0.09375 0.019531-0.19531 0.03125-0.29688 0.03125-0.34375 0-0.61719-0.085938-0.8125-0.26562-0.1875-0.17578-0.28125-0.42188-0.28125-0.73438s0.09375-0.55469 0.28125-0.73438c0.19531-0.17578 0.46875-0.26562 0.8125-0.26562 0.10156 0 0.20312 0.011719 0.29688 0.03125 0.10156 0.011719 0.20312 0.03125 0.29688 0.0625z"/>
  </symbol>
 </defs>
 <g>
  <path d="m337.37 30.766c0.80469-6.2578 7.0977-11.102 13.363-10.254 6.6094 0.51562 11.801 7.2344 10.695 13.762-0.51563 4.2109-3.5469 7.6094-7.2227 9.4922 8.5312 11.969 16.91 24.051 25.375 36.07 5.1797-3.5859 10.297-7.2539 15.484-10.828-2.332-2.6211-3.9492-6.0234-3.5703-9.5977 0.30859-6.293 6.1875-11.531 12.461-11.242 6.5703 0.042969 12.297 6.1719 11.758 12.746-0.10938 5.2422-4.1133 9.6406-8.9922 11.129 5.7734 9.0234 11.246 18.242 16.938 27.328 10.059-2.5547 20.105-5.1719 30.172-7.7188-0.38672-3.3203-0.09375-6.875 1.9883-9.625 3.3594-5.082 10.773-6.8047 16-3.6406 5.8242 3.1016 7.9648 11.34 4.3047 16.855-3.0586 5.207-10.004 6.9922-15.449 4.7031-5.1914 14.492-10.402 28.973-15.637 43.441 4.1172 1.332 7.7969 4.4375 8.9883 8.7109 1.0352 3.0781 0.39844 6.3672-0.74219 9.3164 7.6797 8.3008 14.855 17.148 20.48 26.992 6.9297 11.785 12.098 24.609 15.305 37.902 2.1406 9.1094 3.1641 18.445 3.6406 27.777 0.03125 32.43-0.050782 64.867 0.039062 97.301-0.33594 14.992 4.6836 30.184 14.527 41.586 4.5977 4.7383 7.9453 10.555 10.801 16.473 6.6367 14.613 6.7812 32.102 0.47656 46.852-8.3594 19.906-28.484 34.613-50.184 35.539-4.6758 0.25781-9.4023 0.27734-14.027-0.55469-2.2539-0.25391-4.6367-1.2188-6.832-0.19531-2.2617 1-3.9375 2.9102-5.8555 4.418-6.3906 5.0664-13.867 8.7266-21.742 10.836-5.6953 1.4414-11.605 1.5742-17.441 1.7812-2.918 0.09375-5.1719 2.8164-5.0117 5.6641 0.38281 3.0664 2.9336 5.1445 5.2266 6.9023 7.5703 5.7891 16.941 9.0781 26.434 9.5898 10.277 0.078125 20.566-0.042969 30.848 0.050781 3.3594-0.027344 5.6367 4.1992 3.9062 7.0547-0.875 1.707-2.8008 2.6797-4.6953 2.5117-5.8242 0.007813-11.656-0.019531-17.488-0.003906-7.7109-0.070313-15.523 0.41016-23.121-1.2188-12.34-2.9141-23.715-9.9766-31.555-19.965-8.8633-10.926-13.168-25.215-12.621-39.199-0.007812-6.7852 0.015625-13.574 0-20.355-0.046875-2.2969-0.41797-5.0078-2.5039-6.3711-2.5859-1.7031-5.7773-0.88281-8.625-0.64453-10.031 1.1914-20.18 0.85547-30.164-0.53906-1.5938-0.27344-3.2969-0.43359-4.7891 0.32422-2.4414 1.1406-3.4219 4.0078-3.4062 6.543-0.023438 7.9453 0.011719 15.891 0.003906 23.836-0.75391 12.117-4.9141 24.156-12.633 33.613-7.832 9.9805-19.207 17.039-31.527 19.949-7.8359 1.6875-15.883 1.1328-23.836 1.2266-5.8516-0.042969-11.711 0.070312-17.57-0.027344-2.5625 0.011719-4.7031-2.5156-4.4805-5.0195 0.042969-2.332 2.1484-4.5664 4.5234-4.5234 10.273-0.078125 20.551 0.035157 30.836-0.042969 9.8203-0.53906 19.543-4.0508 27.227-10.254 1.0781-0.94531 2.1289-2.043 2.5859-3.4375 1.168-2.875-0.89062-6.5508-4.0195-6.9023-4.1875-0.62891-8.457-0.48828-12.613-1.3867-8.875-1.7969-17.285-5.8203-24.395-11.422-2.3789-1.8555-4.4961-4.5234-7.6953-4.8711-3.043 0.17578-6.0117 1.0078-9.0508 1.2227-9.8281 0.58203-19.969-0.3125-29.016-4.4375-12.957-5.6055-23.98-15.883-29.984-28.707-5.8555-11.613-6.9336-25.25-4.4336-37.902 2.4219-10.648 7.8281-20.609 15.246-28.59 8.8398-10.57 13.566-24.281 13.875-37.996 0.082031-30.332 0.015625-60.66 0.042969-90.992-0.31641-15.352 1.5742-30.828 6.2227-45.492 6.1602-19.531 16.66-37.676 30.602-52.676-2.3008-3.5508-3.2734-8.1211-1.6094-12.133 1.3867-3.8359 4.8242-6.4609 8.5273-7.8828-5.6055-15.098-10.906-30.316-16.449-45.441-5.293 0.13281-10.824-2.8789-12.512-8.0938-2.3438-5.8789 1.0039-13.074 6.875-15.285 5.5781-2.4531 12.664 0.25781 15.301 5.7188 2.0391 3.5742 1.6172 8.0547-0.22266 11.625 9.4297 2.3867 18.836 4.8438 28.266 7.2227 5.8594-9.4336 11.605-18.941 17.516-28.34-4.8672-1.6875-8.8203-6.2109-8.7852-11.523-0.28906-6.8477 6.1523-12.906 12.965-12.301 6.5312 0.27344 11.977 6.5547 11.309 13.051-0.22266 3.3945-2.0859 6.4258-4.5977 8.6289 5.2422 3.6328 10.445 7.332 15.672 10.977 8.6055-12.348 17.266-24.66 25.945-36.953-3.9375-2.6016-6.4688-7.3828-5.6445-12.137m10.793-1.7227c-2.3984 0.71484-3.457 4.0898-1.5938 5.9062 1.7969 2.1211 5.6836 1.3789 6.4414-1.3477 0.97656-2.7578-2.1445-5.6875-4.8477-4.5586m-24.219 55.613c-1.3359 1.8164-2.4766 4.1094-4.8086 4.7812-1.7227 0.82812-3.457-0.29297-4.8438-1.2461-5.6719-4.0508-11.418-7.9766-17.066-12.051-5.9492 9.4258-11.711 18.98-17.598 28.453-0.83984 1.2188-1.6953 2.5195-2.9961 3.2891-1.3594 0.79297-2.9609 0.32422-4.3828-0.003906-9.0078-2.375-18.059-4.6133-27.074-6.9805 1.8945 5.0391 3.6523 10.129 5.5234 15.184 20.984 0 41.965-0.015625 62.949 0 2.4102-0.19531 4.7461 1.8828 4.6133 4.332-0.007813 2.3516-2.2344 4.3047-4.5625 4.0547-20.016 0-40.027 0.019531-60.039-0.015625 2.2656 6.2422 4.6055 12.469 6.7031 18.766 58.641 0.023438 117.28 0.015625 175.92 0.007812 2.1016-6.3477 4.4375-12.613 6.7617-18.879-20.062-0.007812-40.121 0.027344-60.18-0.011718-2.875 0.19922-5.2148-3.2344-3.8828-5.8203 0.71484-1.8398 2.7578-2.707 4.6406-2.5625 20.789 0.035156 41.578-0.039063 62.371 0.042969 1.8242-5.0234 3.5742-10.078 5.4805-15.078-9.5703 2.3945-19.098 4.957-28.672 7.2969-2.6836 0.76953-4.5508-1.6953-5.8125-3.6562-5.8516-9.457-11.652-18.949-17.512-28.398-5.6367 3.9336-11.27 7.8672-16.871 11.852-1.1758 0.80469-2.4219 1.6914-3.8984 1.7422-1.9883-0.24609-3.6484-1.5547-4.6914-3.2148-8.5234-12.234-17.148-24.398-25.676-36.645-8.1523 11.574-16.281 23.164-24.395 34.762m-31.863-28.602c-2.0508 1.0039-2.7148 4.0391-0.99219 5.6562 1.8398 2.1719 5.8438 1.2734 6.4648-1.5547 0.87109-2.9805-2.832-5.7461-5.4727-4.1016m109.93 0.91016c-2.5664 0.97266-2.9453 4.9141-0.55078 6.3164 2.0977 1.6094 5.4883 0.17188 5.8594-2.4219 0.55078-2.7891-2.7891-5.3555-5.3086-3.8945m-169.46 25.719c-2.3867 1.0234-2.9062 4.5977-0.75 6.1328 1.9883 1.8047 5.6133 0.54688 6.0625-2.0938 0.62891-2.793-2.7656-5.543-5.3125-4.0391m231.67 2.8828c-2.4297 0.93359-2.9883 4.5859-0.83984 6.125 2.0508 1.8555 5.7305 0.55469 6.1328-2.1836 0.57812-2.7969-2.7461-5.3672-5.293-3.9414m-212.33 67.621c-1.1328 1.0586-1.0352 2.7109-1.2734 4.1172 0.67188-0.39844 1.3438-0.79297 2.0234-1.1914 1.4414 1.3516 2.875 2.9258 4.8867 3.3906 2.5273 0.60547 5.1523 0.4375 7.7344 0.51562 57.891 0 115.77 0.007813 173.66-0.007812 2.2891-0.10938 5.2422 0.10547 6.5859-2.1758 1.7773-2.3711-0.21094-6.125-3.082-6.2148h-184.16c-2.1484 0.16797-4.7852-0.20312-6.3828 1.5664m182.11 15.219h-121.09c-19.824 0.082031-39.656-0.16016-59.48 0.125-7.6445 7.8398-13.93 16.883-19.465 26.301-10.977 19.727-16.492 42.344-16.465 64.883-0.015625 26.832 0 53.66-0.007812 80.492-0.0625 5.8086 0.30859 11.629-0.16016 17.43-0.83984 14.328-6.6562 28.219-15.793 39.227-6.9023 7.1914-11.617 16.457-13.473 26.246-3.5703 17.891 4.0938 37.574 18.977 48.195 8.2383 6.2852 18.605 9.4219 28.895 9.707 2.543 0.14062 5.3711-1.1211 6.0547-3.7578 1.4922-3.0117-1.3359-5.875-0.70703-8.9062 0.75-2.0586 2.8086-3.8633 5.125-3.4922 2.2031 0.007812 3.6836 2.0078 4.4805 3.8594 6.418 14.426 20.539 24.934 36.055 27.496 7.8398 1.5391 15.988 0.70312 23.59-1.6133 2.2773-0.8125 3.2148-3.2812 3.6016-5.4648 0.59375-3.4102 1.2305-6.8477 1.1875-10.312-0.027344-8.4062-0.019531-16.812 0-25.215-0.042969-2.0352-0.089844-4.2773-1.3867-5.957-1.0469-1.4258-2.7852-2.0273-4.3438-2.6992-16.262-6.793-30.844-17.629-41.973-31.285-14.328-17.742-23.145-40.125-23.711-63.008-0.125-8.6094 0.24609-17.23-0.11719-25.848 0.20312-17.984 0.027344-35.98 0.097656-53.965-0.085937-2.2734 1.3594-4.3555 3.2109-5.543 1.5625-0.84766 3.418-0.30859 5.0898-0.125 14.035 2.3281 28.504 2.1406 42.426-0.86328 15.887-3.4297 31.012-10.395 43.855-20.355 12.789-9.668 23.137-22.398 30.52-36.598 1.1719-2.0156 1.7305-4.7148 4-5.8242 2.0859-0.97266 4.4922-0.16016 6.3906 0.88281 2 1.0781 2.6328 3.418 3.6172 5.3008 12.918 28.145 38.48 50.141 68.238 58.73 2.6641 0.73438 5.7305 2.7695 5.5703 5.8867-0.011719 24.477 0.050781 48.957-0.046875 73.43 0.48047 17.688-4.0977 35.344-12.418 50.91-11.434 21.645-30.633 39.055-53.293 48.32-2.0234 0.84766-4.3398 1.4922-5.7188 3.332-1.3438 1.668-1.3281 3.9336-1.3633 5.9727 0.027344 9.1055 0.019532 18.207 0 27.312-0.035156 3.2969 0.48828 6.5742 1.1328 9.8008 0.41406 2.3242 2.1328 4.6406 4.5859 4.9961 5.4375 0.72266 10.812 2.1172 16.336 2.0234 7.7305-0.32031 15.469-2.1211 22.332-5.7539 9.3008-4.9688 17.168-12.859 21.445-22.559 0.79297-1.8477 2.2617-3.8516 4.4727-3.8633 3.1719-0.47656 6.2188 3.0977 4.9844 6.1445-0.91016 2.457-1.5664 5.2852 0.078125 7.6094 2.1211 3.1719 6.4531 2.4219 9.7031 2.1289 14.824-1.4023 28.965-9.7656 36.805-22.508 4.8086-7.375 7.2305-16.156 7.6641-24.906 0.26562-13.41-5.1094-26.824-14.375-36.484-7.8711-9.4883-13.246-21.098-15.145-33.281-0.95703-6.3438-0.95703-12.777-0.78906-19.168 0.007813-25.898 0-51.801 0-77.691 0.23047-13.156-0.44922-26.418-3.6602-39.23-5.2148-22.961-17.121-44.309-33.684-61.02-3.9141 0.71484-7.8984 0.53906-11.852 0.55469m-60.641 52.527c-1.8906 0.82031-2.7539 2.8477-3.9297 4.4023-13.172 18.719-31.637 33.781-52.918 42.336-17.613 7.582-37.207 9.7539-56.211 8.2695-1.793 0.011719-3.7109 0.43359-5.0547 1.6875-1.4766 1.5469-1.7266 3.8125-1.7773 5.8516-0.019531 21.469 0.042969 42.93 0.10547 64.398 0.17578 11.551 2.6758 22.996 6.5586 33.844 8.332 21.82 25.02 40.211 45.793 50.828 24.977 12.992 55.664 14.219 81.637 3.3867 22.582-9.2227 41.277-27.445 51.133-49.746 5.4102-12.246 8.0859-25.629 8.457-38.969-0.027344-20.555 0.10547-41.105 0.070313-61.656-0.0625-2.9258 0.34375-6.0273-0.92578-8.7734-0.96484-1.957-3.2031-2.625-5.0859-3.3516-25.004-9.2812-46.824-27.012-60.727-49.797-1.2539-2.5625-4.4648-4.0117-7.125-2.7109z"/>
  <path d="m343.31 102.68c7.7969-2.8984 16.961 1.7148 19.969 9.3086 3.2422 7.4219-0.29297 16.961-7.6016 20.441-6.543 3.5625-15.355 1.7773-20.074-3.9609-3.9766-4.6211-4.9023-11.566-2.332-17.074 1.875-4.1914 5.6719-7.3789 10.039-8.7148m2.0508 8.1914c-2.2617 0.78125-4.1289 2.6289-4.8164 4.9336-1.4297 4.2617 1.6094 9.1992 6.0273 9.9062 4.5508 1.082 9.5-2.6602 9.5039-7.3789 0.35156-5.3203-5.7812-9.8438-10.715-7.4609z"/>
  <path d="m322.95 115.79c3.0508-1.1523 6.5078 2.1445 5.3672 5.2383-0.78516 2.7773-4.5898 3.9805-6.7344 1.9648-2.5742-1.9102-1.6562-6.3281 1.3672-7.2031z"/>
  <path d="m369.79 115.76c2.875-1.2109 6.3203 1.543 5.6758 4.6211-0.40625 3.3242-5.0859 4.7305-7.2383 2.1758-2.1328-2.0078-1.1406-5.8633 1.5625-6.7969z"/>
  <!-- <use x="70" y="570.5" xlink:href="#y"/> -->
  <!-- <use x="72.570312" y="570.5" xlink:href="#c"/> -->
  <!-- <use x="74.292969" y="570.5" xlink:href="#a"/> -->
  <!-- <use x="76.667969" y="570.5" xlink:href="#k"/> -->
  <!-- <use x="79.03125" y="570.5" xlink:href="#b"/> -->
  <!-- <use x="80.703125" y="570.5" xlink:href="#a"/> -->
  <!-- <use x="83.078125" y="570.5" xlink:href="#j"/> -->
  <!-- <use x="86.800781" y="570.5" xlink:href="#i"/> -->
  <!-- <use x="89.304687" y="570.5" xlink:href="#h"/>/ -->
  <!-- <use x="92.804687" y="570.5" xlink:href="#g"/> -->
  <!-- <use x="95.035156" y="570.5" xlink:href="#x"/> -->
  <!-- <use x="97.558594" y="570.5" xlink:href="#w"/> -->
  <!-- <use x="101.167969" y="570.5" xlink:href="#v"/> -->
  <!-- <use x="104.070312" y="570.5" xlink:href="#a"/> -->
  <!-- <use x="106.445312" y="570.5" xlink:href="#f"/> -->
  <!-- <use x="108.527344" y="570.5" xlink:href="#u"/> -->
  <!-- <use x="109.730469" y="570.5" xlink:href="#t"/> -->
  <!-- <use x="112.234375" y="570.5" xlink:href="#e"/> -->
  <!-- <use x="114.726562" y="570.5" xlink:href="#f"/> -->
  <!-- <use x="70" y="574" xlink:href="#s"/> -->
  <!-- <use x="71.523438" y="574" xlink:href="#c"/> -->
  <!-- <use x="73.25" y="574" xlink:href="#d"/> -->
  <!-- <use x="75.652344" y="574" xlink:href="#r"/> -->
  <!-- <use x="80.519531" y="574" xlink:href="#b"/> -->
  <!-- <use x="82.191406" y="574" xlink:href="#q"/> -->
  <!-- <use x="84.683594" y="574" xlink:href="#a"/> -->
  <!-- <use x="88.277344" y="574" xlink:href="#p"/> -->
  <!-- <use x="91.207031" y="574" xlink:href="#d"/> -->
  <!-- <use x="93.609375" y="574" xlink:href="#o"/> -->
  <!-- <use x="96.101562" y="574" xlink:href="#e"/> -->
  <!-- <use x="99.8125" y="574" xlink:href="#n"/> -->
  <!-- <use x="102.375" y="574" xlink:href="#c"/> -->
  <!-- <use x="104.101562" y="574" xlink:href="#d"/> -->
  <!-- <use x="106.507812" y="574" xlink:href="#m"/> -->
  <!-- <use x="107.707031" y="574" xlink:href="#a"/> -->
  <!-- <use x="110.082031" y="574" xlink:href="#l"/> -->
  <!-- <use x="112.15625" y="574" xlink:href="#b"/> -->
 </g>
</svg>
