<svg xmlns="http://www.w3.org/2000/svg" xmlns:xlink="http://www.w3.org/1999/xlink" width="1000" zoomAndPan="magnify" viewBox="0 0 750 749.999995" height="1000" preserveAspectRatio="xMidYMid meet" version="1.0"><rect x="-75" width="900" fill="#ffffff" y="-74.999999" height="899.999994" fill-opacity="1"/><rect x="-75" width="900" fill="#ffffff" y="-74.999999" height="899.999994" fill-opacity="1"/><path fill="#000000" d="M 154.726562 376.574219 C 154.726562 364.351562 157.761719 354.675781 163.835938 347.550781 C 169.914062 340.425781 176.664062 336.863281 184.085938 336.863281 C 189.261719 336.863281 192.976562 338.210938 195.226562 340.914062 C 197.476562 343.613281 198.601562 346.613281 198.601562 349.914062 C 198.601562 351.789062 198.074219 353.289062 197.023438 354.414062 C 195.976562 355.539062 194.511719 356.101562 192.636719 356.101562 C 190.914062 356.101562 189.488281 355.574219 188.363281 354.523438 C 187.238281 353.476562 186.675781 352.011719 186.675781 350.136719 C 186.675781 346.835938 188.4375 344.851562 191.960938 344.175781 C 190.3125 342.523438 187.988281 341.585938 184.988281 341.363281 C 179.664062 341.363281 175.273438 343.613281 171.824219 348.113281 C 168.300781 353.0625 166.539062 360.636719 166.539062 370.835938 L 166.648438 371.289062 C 167.023438 370.835938 167.324219 370.351562 167.550781 369.824219 C 170.625 365.324219 174.636719 363.074219 179.585938 363.074219 L 180.039062 363.074219 C 183.488281 363.074219 186.523438 363.789062 189.148438 365.210938 C 190.949219 366.261719 192.75 367.761719 194.550781 369.710938 C 196.351562 371.664062 197.8125 373.800781 198.9375 376.125 C 200.511719 379.800781 201.300781 383.8125 201.300781 388.164062 L 201.300781 390.1875 C 201.300781 391.914062 201.113281 393.523438 200.738281 395.023438 C 199.914062 399.449219 197.511719 403.761719 193.539062 407.960938 C 189.5625 412.164062 184.539062 414.261719 178.460938 414.261719 C 176.363281 414.261719 174.335938 413.960938 172.386719 413.363281 C 170.4375 412.761719 168.335938 411.636719 166.085938 409.988281 C 163.835938 408.335938 161.925781 406.125 160.351562 403.351562 C 158.773438 400.574219 157.425781 396.9375 156.300781 392.4375 C 155.175781 387.9375 154.648438 382.648438 154.726562 376.574219 Z M 178.914062 367.125 C 176.664062 367.125 174.710938 367.761719 173.0625 369.039062 C 171.414062 370.3125 170.136719 372 169.238281 374.101562 C 168.335938 376.199219 167.699219 378.335938 167.324219 380.511719 C 166.949219 382.6875 166.726562 385.011719 166.648438 387.488281 C 166.648438 393.710938 167.101562 398.175781 168 400.875 C 168.898438 403.574219 170.324219 405.75 172.273438 407.398438 C 174.074219 408.75 176.0625 409.425781 178.238281 409.425781 C 182.0625 409.425781 184.988281 408 187.011719 405.148438 C 187.988281 403.800781 188.664062 402.113281 189.039062 400.085938 C 189.414062 398.0625 189.601562 394.125 189.601562 388.273438 C 189.601562 382.273438 189.414062 378.261719 189.039062 376.238281 C 188.664062 374.210938 187.988281 372.523438 187.011719 371.175781 C 184.988281 368.476562 182.289062 367.125 178.914062 367.125 Z M 178.914062 367.125 " fill-opacity="1" fill-rule="nonzero"/><path fill="#000000" d="M 212.4375 360.261719 C 212.511719 360.113281 213.148438 356.023438 214.351562 348 L 216.148438 335.960938 C 216.148438 335.8125 216.898438 335.738281 218.398438 335.738281 L 220.648438 335.738281 L 220.648438 336.1875 C 220.648438 336.9375 221.210938 337.574219 222.335938 338.101562 C 223.460938 338.625 225.414062 338.960938 228.1875 339.113281 C 230.960938 339.261719 237.300781 339.335938 247.199219 339.335938 L 260.8125 339.335938 L 260.8125 343.726562 L 253.164062 354.1875 C 252.488281 355.085938 251.363281 356.585938 249.789062 358.6875 C 248.210938 360.789062 247.199219 362.175781 246.75 362.851562 C 246.300781 363.523438 245.511719 364.726562 244.386719 366.449219 C 243.261719 368.175781 242.511719 369.523438 242.136719 370.5 C 241.761719 371.476562 241.238281 372.863281 240.5625 374.664062 C 239.886719 376.460938 239.398438 378.1875 239.101562 379.835938 C 238.800781 381.488281 238.5 383.511719 238.199219 385.914062 C 237.898438 388.3125 237.675781 390.863281 237.523438 393.5625 C 237.375 396.261719 237.261719 399.335938 237.1875 402.789062 C 237.1875 403.835938 237.1875 404.886719 237.1875 405.9375 C 237.1875 406.988281 237.148438 407.886719 237.074219 408.636719 L 237.074219 409.648438 C 236.773438 410.925781 236.0625 412.011719 234.9375 412.914062 C 233.8125 413.8125 232.539062 414.261719 231.113281 414.261719 C 230.289062 414.261719 229.5 414.148438 228.75 413.925781 C 228 413.699219 227.210938 412.988281 226.386719 411.789062 C 225.5625 410.585938 225.148438 409.085938 225.148438 407.289062 C 225.148438 395.4375 228.789062 383.136719 236.0625 370.386719 C 237.5625 367.988281 240.710938 363.449219 245.511719 356.773438 L 250.6875 349.6875 L 240.226562 349.6875 C 227.175781 349.6875 220.3125 349.914062 219.636719 350.363281 C 219.1875 350.585938 218.773438 351.488281 218.398438 353.0625 C 218.023438 354.636719 217.648438 356.25 217.273438 357.898438 L 216.9375 360.261719 L 216.9375 360.601562 L 212.4375 360.601562 Z M 212.4375 360.261719 " fill-opacity="1" fill-rule="nonzero"/><path fill="#000000" d="M 270.375 364.875 C 270.375 364.875 270.375 361.988281 270.375 356.210938 C 270.375 350.4375 272.398438 345.789062 276.449219 342.261719 C 280.5 338.738281 285.148438 336.9375 290.398438 336.863281 C 295.726562 336.863281 300.449219 338.4375 304.574219 341.585938 C 308.699219 344.738281 310.761719 348.824219 310.761719 353.851562 C 310.761719 356.101562 310.351562 358.199219 309.523438 360.148438 C 308.699219 362.101562 307.726562 363.675781 306.601562 364.875 C 305.476562 366.074219 304.3125 367.125 303.113281 368.023438 C 301.914062 368.925781 300.9375 369.601562 300.1875 370.050781 C 299.4375 370.5 299.023438 370.800781 298.949219 370.949219 L 300.523438 371.960938 C 301.574219 372.710938 302.625 373.460938 303.675781 374.210938 C 304.726562 374.960938 305.324219 375.375 305.476562 375.449219 C 311.101562 379.875 313.914062 385.460938 313.914062 392.210938 C 313.914062 398.136719 311.738281 403.273438 307.386719 407.625 C 303.039062 411.976562 297.414062 414.1875 290.511719 414.261719 C 283.761719 414.261719 278.210938 412.351562 273.863281 408.523438 C 269.511719 404.699219 267.335938 399.976562 267.335938 394.351562 C 267.335938 386.25 272.175781 379.5 281.851562 374.101562 L 279.824219 372.636719 C 278.25 371.664062 277.238281 370.914062 276.789062 370.386719 C 272.511719 366.710938 270.375 361.988281 270.375 356.210938 Z M 294.675781 368.363281 L 295.351562 367.914062 C 295.800781 367.613281 296.136719 367.386719 296.363281 367.238281 C 296.585938 367.085938 296.960938 366.824219 297.488281 366.449219 C 298.011719 366.074219 298.460938 365.699219 298.835938 365.324219 C 299.210938 364.949219 299.625 364.5 300.074219 363.976562 C 300.523438 363.449219 300.9375 362.960938 301.3125 362.511719 C 301.6875 362.0625 302.0625 361.460938 302.4375 360.710938 C 302.8125 359.960938 303.148438 359.324219 303.449219 358.800781 C 303.75 358.273438 303.9375 357.523438 304.011719 356.550781 C 304.085938 355.574219 304.164062 354.75 304.238281 354.074219 C 304.238281 350.851562 303.148438 348.113281 300.976562 345.863281 C 298.800781 343.613281 296.289062 342.1875 293.4375 341.585938 C 292.914062 341.511719 291.675781 341.476562 289.726562 341.476562 C 286.648438 341.476562 283.761719 342.449219 281.0625 344.398438 C 278.363281 346.351562 276.976562 348.789062 276.898438 351.710938 C 276.898438 353.4375 277.386719 355.011719 278.363281 356.4375 C 279.335938 357.863281 280.3125 358.949219 281.289062 359.699219 C 282.261719 360.449219 284.136719 361.648438 286.914062 363.300781 C 287.4375 363.675781 287.851562 363.9375 288.148438 364.085938 Z M 290.625 409.425781 C 294.976562 409.425781 298.726562 408.148438 301.875 405.601562 C 305.023438 403.050781 306.601562 399.976562 306.601562 396.375 C 306.601562 395.101562 306.414062 393.898438 306.039062 392.773438 C 305.664062 391.648438 305.210938 390.710938 304.6875 389.960938 C 304.164062 389.210938 303.335938 388.386719 302.210938 387.488281 C 301.085938 386.585938 300.226562 385.914062 299.625 385.460938 C 299.023438 385.011719 297.9375 384.300781 296.363281 383.324219 C 294.789062 382.351562 293.773438 381.710938 293.324219 381.414062 C 292.273438 380.738281 291.148438 380.023438 289.949219 379.273438 C 288.75 378.523438 287.773438 377.886719 287.023438 377.363281 L 286.125 376.800781 C 285.675781 376.800781 284.585938 377.4375 282.863281 378.710938 C 281.136719 379.988281 279.335938 382.050781 277.460938 384.898438 C 275.585938 387.75 274.613281 390.824219 274.539062 394.125 C 274.539062 398.550781 276.148438 402.1875 279.375 405.039062 C 282.601562 407.886719 286.351562 409.351562 290.625 409.425781 Z M 290.625 409.425781 " fill-opacity="1" fill-rule="nonzero"/><path fill="#000000" d="M 329.550781 345.976562 C 333.75 339.898438 339.488281 336.863281 346.761719 336.863281 C 350.363281 336.863281 353.960938 337.835938 357.5625 339.789062 C 361.164062 341.738281 364.085938 345.1875 366.335938 350.136719 C 369.113281 356.363281 370.5 364.914062 370.5 375.789062 C 370.5 387.414062 368.886719 396.300781 365.664062 402.449219 C 364.164062 405.601562 362.101562 408.113281 359.476562 409.988281 C 356.851562 411.863281 354.5625 413.023438 352.613281 413.476562 C 350.664062 413.925781 348.75 414.1875 346.875 414.261719 C 344.925781 414.261719 342.976562 414.039062 341.023438 413.585938 C 339.074219 413.136719 336.789062 411.9375 334.164062 409.988281 C 331.539062 408.039062 329.476562 405.523438 327.976562 402.449219 C 324.75 396.300781 323.136719 387.414062 323.136719 375.789062 C 323.136719 362.738281 325.273438 352.800781 329.550781 345.976562 Z M 354.863281 344.625 C 352.613281 342.226562 349.949219 341.023438 346.875 341.023438 C 343.726562 341.023438 341.023438 342.226562 338.773438 344.625 C 336.898438 346.574219 335.664062 349.273438 335.0625 352.726562 C 334.460938 356.175781 334.164062 363.375 334.164062 374.324219 C 334.164062 386.175781 334.460938 393.976562 335.0625 397.726562 C 335.664062 401.476562 337.011719 404.4375 339.113281 406.613281 C 341.210938 408.863281 343.800781 409.988281 346.875 409.988281 C 349.875 409.988281 352.425781 408.863281 354.523438 406.613281 C 356.699219 404.363281 358.050781 401.210938 358.574219 397.164062 C 359.101562 393.113281 359.398438 385.5 359.476562 374.324219 C 359.476562 363.449219 359.175781 356.289062 358.574219 352.835938 C 357.976562 349.386719 356.738281 346.648438 354.863281 344.625 Z M 354.863281 344.625 " fill-opacity="1" fill-rule="nonzero"/><path fill="#000000" d="M 385.800781 345.976562 C 390 339.898438 395.738281 336.863281 403.011719 336.863281 C 406.613281 336.863281 410.210938 337.835938 413.8125 339.789062 C 417.414062 341.738281 420.335938 345.1875 422.585938 350.136719 C 425.363281 356.363281 426.75 364.914062 426.75 375.789062 C 426.75 387.414062 425.136719 396.300781 421.914062 402.449219 C 420.414062 405.601562 418.351562 408.113281 415.726562 409.988281 C 413.101562 411.863281 410.8125 413.023438 408.863281 413.476562 C 406.914062 413.925781 405 414.1875 403.125 414.261719 C 401.175781 414.261719 399.226562 414.039062 397.273438 413.585938 C 395.324219 413.136719 393.039062 411.9375 390.414062 409.988281 C 387.789062 408.039062 385.726562 405.523438 384.226562 402.449219 C 381 396.300781 379.386719 387.414062 379.386719 375.789062 C 379.386719 362.738281 381.523438 352.800781 385.800781 345.976562 Z M 411.113281 344.625 C 408.863281 342.226562 406.199219 341.023438 403.125 341.023438 C 399.976562 341.023438 397.273438 342.226562 395.023438 344.625 C 393.148438 346.574219 391.914062 349.273438 391.3125 352.726562 C 390.710938 356.175781 390.414062 363.375 390.414062 374.324219 C 390.414062 386.175781 390.710938 393.976562 391.3125 397.726562 C 391.914062 401.476562 393.261719 404.4375 395.363281 406.613281 C 397.460938 408.863281 400.050781 409.988281 403.125 409.988281 C 406.125 409.988281 408.675781 408.863281 410.773438 406.613281 C 412.949219 404.363281 414.300781 401.210938 414.824219 397.164062 C 415.351562 393.113281 415.648438 385.5 415.726562 374.324219 C 415.726562 363.449219 415.425781 356.289062 414.824219 352.835938 C 414.226562 349.386719 412.988281 346.648438 411.113281 344.625 Z M 411.113281 344.625 " fill-opacity="1" fill-rule="nonzero"/><path fill="#000000" d="M 442.050781 345.976562 C 446.25 339.898438 451.988281 336.863281 459.261719 336.863281 C 462.863281 336.863281 466.460938 337.835938 470.0625 339.789062 C 473.664062 341.738281 476.585938 345.1875 478.835938 350.136719 C 481.613281 356.363281 483 364.914062 483 375.789062 C 483 387.414062 481.386719 396.300781 478.164062 402.449219 C 476.664062 405.601562 474.601562 408.113281 471.976562 409.988281 C 469.351562 411.863281 467.0625 413.023438 465.113281 413.476562 C 463.164062 413.925781 461.25 414.1875 459.375 414.261719 C 457.425781 414.261719 455.476562 414.039062 453.523438 413.585938 C 451.574219 413.136719 449.289062 411.9375 446.664062 409.988281 C 444.039062 408.039062 441.976562 405.523438 440.476562 402.449219 C 437.25 396.300781 435.636719 387.414062 435.636719 375.789062 C 435.636719 362.738281 437.773438 352.800781 442.050781 345.976562 Z M 467.363281 344.625 C 465.113281 342.226562 462.449219 341.023438 459.375 341.023438 C 456.226562 341.023438 453.523438 342.226562 451.273438 344.625 C 449.398438 346.574219 448.164062 349.273438 447.5625 352.726562 C 446.960938 356.175781 446.664062 363.375 446.664062 374.324219 C 446.664062 386.175781 446.960938 393.976562 447.5625 397.726562 C 448.164062 401.476562 449.511719 404.4375 451.613281 406.613281 C 453.710938 408.863281 456.300781 409.988281 459.375 409.988281 C 462.375 409.988281 464.925781 408.863281 467.023438 406.613281 C 469.199219 404.363281 470.550781 401.210938 471.074219 397.164062 C 471.601562 393.113281 471.898438 385.5 471.976562 374.324219 C 471.976562 363.449219 471.675781 356.289062 471.074219 352.835938 C 470.476562 349.386719 469.238281 346.648438 467.363281 344.625 Z M 467.363281 344.625 " fill-opacity="1" fill-rule="nonzero"/><path fill="#000000" d="M 498.300781 345.976562 C 502.5 339.898438 508.238281 336.863281 515.511719 336.863281 C 519.113281 336.863281 522.710938 337.835938 526.3125 339.789062 C 529.914062 341.738281 532.835938 345.1875 535.085938 350.136719 C 537.863281 356.363281 539.25 364.914062 539.25 375.789062 C 539.25 387.414062 537.636719 396.300781 534.414062 402.449219 C 532.914062 405.601562 530.851562 408.113281 528.226562 409.988281 C 525.601562 411.863281 523.3125 413.023438 521.363281 413.476562 C 519.414062 413.925781 517.5 414.1875 515.625 414.261719 C 513.675781 414.261719 511.726562 414.039062 509.773438 413.585938 C 507.824219 413.136719 505.539062 411.9375 502.914062 409.988281 C 500.289062 408.039062 498.226562 405.523438 496.726562 402.449219 C 493.5 396.300781 491.886719 387.414062 491.886719 375.789062 C 491.886719 362.738281 494.023438 352.800781 498.300781 345.976562 Z M 523.613281 344.625 C 521.363281 342.226562 518.699219 341.023438 515.625 341.023438 C 512.476562 341.023438 509.773438 342.226562 507.523438 344.625 C 505.648438 346.574219 504.414062 349.273438 503.8125 352.726562 C 503.210938 356.175781 502.914062 363.375 502.914062 374.324219 C 502.914062 386.175781 503.210938 393.976562 503.8125 397.726562 C 504.414062 401.476562 505.761719 404.4375 507.863281 406.613281 C 509.960938 408.863281 512.550781 409.988281 515.625 409.988281 C 518.625 409.988281 521.175781 408.863281 523.273438 406.613281 C 525.449219 404.363281 526.800781 401.210938 527.324219 397.164062 C 527.851562 393.113281 528.148438 385.5 528.226562 374.324219 C 528.226562 363.449219 527.925781 356.289062 527.324219 352.835938 C 526.726562 349.386719 525.488281 346.648438 523.613281 344.625 Z M 523.613281 344.625 " fill-opacity="1" fill-rule="nonzero"/><path fill="#000000" d="M 554.550781 345.976562 C 558.75 339.898438 564.488281 336.863281 571.761719 336.863281 C 575.363281 336.863281 578.960938 337.835938 582.5625 339.789062 C 586.164062 341.738281 589.085938 345.1875 591.335938 350.136719 C 594.113281 356.363281 595.5 364.914062 595.5 375.789062 C 595.5 387.414062 593.886719 396.300781 590.664062 402.449219 C 589.164062 405.601562 587.101562 408.113281 584.476562 409.988281 C 581.851562 411.863281 579.5625 413.023438 577.613281 413.476562 C 575.664062 413.925781 573.75 414.1875 571.875 414.261719 C 569.925781 414.261719 567.976562 414.039062 566.023438 413.585938 C 564.074219 413.136719 561.789062 411.9375 559.164062 409.988281 C 556.539062 408.039062 554.476562 405.523438 552.976562 402.449219 C 549.75 396.300781 548.136719 387.414062 548.136719 375.789062 C 548.136719 362.738281 550.273438 352.800781 554.550781 345.976562 Z M 579.863281 344.625 C 577.613281 342.226562 574.949219 341.023438 571.875 341.023438 C 568.726562 341.023438 566.023438 342.226562 563.773438 344.625 C 561.898438 346.574219 560.664062 349.273438 560.0625 352.726562 C 559.460938 356.175781 559.164062 363.375 559.164062 374.324219 C 559.164062 386.175781 559.460938 393.976562 560.0625 397.726562 C 560.664062 401.476562 562.011719 404.4375 564.113281 406.613281 C 566.210938 408.863281 568.800781 409.988281 571.875 409.988281 C 574.875 409.988281 577.425781 408.863281 579.523438 406.613281 C 581.699219 404.363281 583.050781 401.210938 583.574219 397.164062 C 584.101562 393.113281 584.398438 385.5 584.476562 374.324219 C 584.476562 363.449219 584.175781 356.289062 583.574219 352.835938 C 582.976562 349.386719 581.738281 346.648438 579.863281 344.625 Z M 579.863281 344.625 " fill-opacity="1" fill-rule="nonzero"/></svg>