<svg xmlns="http://www.w3.org/2000/svg" xmlns:xlink="http://www.w3.org/1999/xlink" width="1000" zoomAndPan="magnify" viewBox="0 0 750 749.999995" height="1000" preserveAspectRatio="xMidYMid meet" version="1.0"><defs><clipPath id="9fbf9304d2"><path d="M 154 349 L 200 349 L 200 423.914062 L 154 423.914062 Z M 154 349 " clip-rule="nonzero"/></clipPath><clipPath id="424d98837d"><path d="M 210 348 L 257 348 L 257 423.914062 L 210 423.914062 Z M 210 348 " clip-rule="nonzero"/></clipPath><clipPath id="59069ba9d9"><path d="M 263 349 L 308 349 L 308 423.914062 L 263 423.914062 Z M 263 349 " clip-rule="nonzero"/></clipPath><clipPath id="3696e5f021"><path d="M 502 349 L 549 349 L 549 423.914062 L 502 423.914062 Z M 502 349 " clip-rule="nonzero"/></clipPath><clipPath id="9ab5436c8f"><path d="M 559 326.085938 L 591 326.085938 L 591 379 L 559 379 Z M 559 326.085938 " clip-rule="nonzero"/></clipPath></defs><rect x="-75" width="900" fill="#ffffff" y="-74.999999" height="899.999994" fill-opacity="1"/><rect x="-75" width="900" fill="#ffffff" y="-74.999999" height="899.999994" fill-opacity="1"/><g clip-path="url(#9fbf9304d2)"><path fill="#000000" d="M 154.976562 387.738281 C 154.976562 376.003906 157.890625 366.714844 163.722656 359.875 C 169.554688 353.035156 176.03125 349.617188 183.160156 349.617188 C 188.128906 349.617188 191.691406 350.914062 193.851562 353.503906 C 196.011719 356.097656 197.089844 358.976562 197.089844 362.144531 C 197.089844 363.945312 196.585938 365.382812 195.578125 366.464844 C 194.570312 367.542969 193.167969 368.082031 191.367188 368.082031 C 189.710938 368.082031 188.34375 367.578125 187.261719 366.570312 C 186.183594 365.5625 185.644531 364.160156 185.644531 362.359375 C 185.644531 359.191406 187.335938 357.285156 190.71875 356.636719 C 189.136719 355.054688 186.902344 354.152344 184.023438 353.9375 C 178.914062 353.9375 174.699219 356.097656 171.390625 360.417969 C 168.003906 365.167969 166.3125 372.4375 166.3125 382.230469 L 166.421875 382.660156 C 166.78125 382.230469 167.070312 381.761719 167.285156 381.257812 C 170.238281 376.9375 174.089844 374.777344 178.839844 374.777344 L 179.273438 374.777344 C 182.582031 374.777344 185.5 375.460938 188.019531 376.832031 C 189.746094 377.839844 191.476562 379.277344 193.203125 381.148438 C 194.929688 383.023438 196.335938 385.074219 197.414062 387.304688 C 198.925781 390.832031 199.683594 394.683594 199.683594 398.859375 L 199.683594 400.804688 C 199.683594 402.460938 199.5 404.007812 199.140625 405.445312 C 198.351562 409.695312 196.046875 413.835938 192.230469 417.867188 C 188.414062 421.898438 183.589844 423.914062 177.761719 423.914062 C 175.746094 423.914062 173.800781 423.625 171.929688 423.050781 C 170.058594 422.472656 168.042969 421.394531 165.882812 419.808594 C 163.722656 418.226562 161.886719 416.101562 160.375 413.4375 C 158.863281 410.773438 157.566406 407.28125 156.488281 402.964844 C 155.40625 398.644531 154.902344 393.570312 154.976562 387.738281 Z M 178.191406 378.667969 C 176.03125 378.667969 174.160156 379.277344 172.578125 380.503906 C 170.992188 381.726562 169.769531 383.34375 168.90625 385.363281 C 168.042969 387.378906 167.429688 389.429688 167.070312 391.515625 C 166.710938 393.605469 166.492188 395.835938 166.421875 398.210938 C 166.421875 404.1875 166.855469 408.472656 167.71875 411.0625 C 168.582031 413.652344 169.949219 415.742188 171.820312 417.324219 C 173.550781 418.621094 175.457031 419.269531 177.542969 419.269531 C 181.214844 419.269531 184.023438 417.902344 185.96875 415.167969 C 186.902344 413.871094 187.550781 412.25 187.910156 410.304688 C 188.269531 408.363281 188.453125 404.582031 188.453125 398.96875 C 188.453125 393.207031 188.269531 389.355469 187.910156 387.414062 C 187.550781 385.46875 186.902344 383.847656 185.96875 382.554688 C 184.023438 379.960938 181.433594 378.667969 178.191406 378.667969 Z M 178.191406 378.667969 " fill-opacity="1" fill-rule="nonzero"/></g><g clip-path="url(#424d98837d)"><path fill="#000000" d="M 210.371094 372.078125 C 210.445312 371.933594 211.054688 368.011719 212.207031 360.308594 L 213.9375 348.753906 C 213.9375 348.609375 214.65625 348.539062 216.097656 348.539062 L 218.253906 348.539062 L 218.253906 348.96875 C 218.253906 349.691406 218.796875 350.300781 219.875 350.804688 C 220.957031 351.308594 222.828125 351.632812 225.492188 351.777344 C 228.15625 351.921875 234.238281 351.992188 243.742188 351.992188 L 256.808594 351.992188 L 256.808594 356.203125 L 249.464844 366.246094 C 248.816406 367.113281 247.738281 368.550781 246.226562 370.566406 C 244.710938 372.582031 243.742188 373.914062 243.308594 374.5625 C 242.878906 375.210938 242.121094 376.363281 241.042969 378.019531 C 239.960938 379.675781 239.242188 380.96875 238.882812 381.90625 C 238.523438 382.839844 238.015625 384.171875 237.371094 385.902344 C 236.722656 387.628906 236.253906 389.285156 235.964844 390.867188 C 235.679688 392.453125 235.390625 394.394531 235.101562 396.699219 C 234.8125 399.003906 234.597656 401.453125 234.453125 404.042969 C 234.308594 406.636719 234.203125 409.585938 234.128906 412.898438 C 234.128906 413.90625 234.128906 414.914062 234.128906 415.921875 C 234.128906 416.929688 234.09375 417.792969 234.023438 418.511719 L 234.023438 419.484375 C 233.734375 420.710938 233.050781 421.753906 231.96875 422.617188 C 230.890625 423.480469 229.667969 423.914062 228.296875 423.914062 C 227.507812 423.914062 226.75 423.804688 226.03125 423.589844 C 225.3125 423.375 224.554688 422.6875 223.761719 421.539062 C 222.972656 420.386719 222.574219 418.945312 222.574219 417.21875 C 222.574219 405.84375 226.066406 394.035156 233.050781 381.796875 C 234.488281 379.492188 237.511719 375.136719 242.121094 368.730469 L 247.089844 361.929688 L 237.046875 361.929688 C 224.519531 361.929688 217.933594 362.144531 217.285156 362.574219 C 216.851562 362.792969 216.457031 363.65625 216.097656 365.167969 C 215.734375 366.679688 215.375 368.226562 215.015625 369.8125 L 214.691406 372.078125 L 214.691406 372.402344 L 210.371094 372.402344 Z M 210.371094 372.078125 " fill-opacity="1" fill-rule="nonzero"/></g><g clip-path="url(#59069ba9d9)"><path fill="#000000" d="M 265.988281 376.507812 C 265.988281 376.507812 265.988281 373.734375 265.988281 368.191406 C 265.988281 362.648438 267.929688 358.183594 271.816406 354.800781 C 275.707031 351.417969 280.167969 349.691406 285.207031 349.617188 C 290.320312 349.617188 294.855469 351.128906 298.816406 354.152344 C 302.773438 357.175781 304.753906 361.101562 304.753906 365.921875 C 304.753906 368.082031 304.359375 370.097656 303.566406 371.972656 C 302.773438 373.84375 301.839844 375.355469 300.757812 376.507812 C 299.679688 377.660156 298.5625 378.667969 297.410156 379.53125 C 296.257812 380.394531 295.324219 381.042969 294.601562 381.472656 C 293.882812 381.90625 293.488281 382.195312 293.414062 382.335938 L 294.925781 383.308594 C 295.933594 384.03125 296.941406 384.75 297.949219 385.46875 C 298.957031 386.1875 299.535156 386.585938 299.679688 386.65625 C 305.078125 390.90625 307.777344 396.269531 307.777344 402.746094 C 307.777344 408.433594 305.691406 413.367188 301.515625 417.542969 C 297.339844 421.71875 291.9375 423.839844 285.316406 423.914062 C 278.835938 423.914062 273.507812 422.078125 269.335938 418.40625 C 265.160156 414.734375 263.070312 410.199219 263.070312 404.800781 C 263.070312 397.023438 267.714844 390.542969 277 385.363281 L 275.058594 383.957031 C 273.546875 383.023438 272.574219 382.300781 272.140625 381.796875 C 268.039062 378.269531 265.988281 373.734375 265.988281 368.191406 Z M 289.3125 379.855469 L 289.960938 379.421875 C 290.390625 379.132812 290.714844 378.917969 290.929688 378.773438 C 291.148438 378.628906 291.507812 378.378906 292.011719 378.019531 C 292.515625 377.660156 292.949219 377.296875 293.308594 376.9375 C 293.667969 376.578125 294.0625 376.144531 294.496094 375.640625 C 294.925781 375.136719 295.324219 374.671875 295.683594 374.238281 C 296.042969 373.808594 296.402344 373.230469 296.761719 372.511719 C 297.121094 371.789062 297.445312 371.179688 297.734375 370.675781 C 298.023438 370.171875 298.203125 369.453125 298.273438 368.515625 C 298.347656 367.578125 298.417969 366.789062 298.492188 366.140625 C 298.492188 363.042969 297.445312 360.417969 295.359375 358.257812 C 293.269531 356.097656 290.859375 354.730469 288.125 354.152344 C 287.621094 354.082031 286.433594 354.046875 284.558594 354.046875 C 281.609375 354.046875 278.835938 354.980469 276.246094 356.851562 C 273.652344 358.722656 272.320312 361.0625 272.25 363.871094 C 272.25 365.527344 272.71875 367.039062 273.652344 368.40625 C 274.589844 369.773438 275.523438 370.820312 276.460938 371.539062 C 277.398438 372.257812 279.195312 373.410156 281.859375 374.996094 C 282.363281 375.355469 282.761719 375.605469 283.046875 375.75 Z M 285.425781 419.269531 C 289.601562 419.269531 293.199219 418.046875 296.222656 415.597656 C 299.246094 413.148438 300.757812 410.199219 300.757812 406.742188 C 300.757812 405.519531 300.578125 404.367188 300.21875 403.289062 C 299.859375 402.207031 299.425781 401.308594 298.921875 400.585938 C 298.417969 399.867188 297.625 399.074219 296.546875 398.210938 C 295.46875 397.347656 294.640625 396.699219 294.0625 396.269531 C 293.488281 395.835938 292.445312 395.152344 290.929688 394.214844 C 289.417969 393.28125 288.449219 392.667969 288.015625 392.378906 C 287.007812 391.734375 285.929688 391.046875 284.777344 390.328125 C 283.625 389.609375 282.6875 388.996094 281.96875 388.492188 L 281.105469 387.953125 C 280.671875 387.953125 279.628906 388.566406 277.972656 389.789062 C 276.316406 391.011719 274.589844 392.992188 272.789062 395.726562 C 270.988281 398.464844 270.054688 401.414062 269.980469 404.582031 C 269.980469 408.832031 271.53125 412.324219 274.625 415.058594 C 277.722656 417.792969 281.320312 419.199219 285.425781 419.269531 Z M 285.425781 419.269531 " fill-opacity="1" fill-rule="nonzero"/></g><path fill="#000000" d="M 404.449219 418.40625 C 404.449219 419.84375 403.691406 420.566406 402.179688 420.566406 C 401.820312 420.566406 401.027344 419.988281 399.804688 418.835938 C 398.582031 417.6875 395.199219 414.339844 389.652344 408.792969 L 378.421875 397.5625 L 367.085938 408.902344 C 359.453125 416.390625 355.53125 420.207031 355.3125 420.347656 C 355.027344 420.492188 354.773438 420.566406 354.558594 420.566406 C 353.980469 420.566406 353.476562 420.347656 353.046875 419.917969 C 352.613281 419.484375 352.363281 418.980469 352.289062 418.40625 C 352.289062 417.902344 352.792969 417.109375 353.800781 416.03125 C 354.808594 414.949219 358.195312 411.53125 363.953125 405.769531 L 375.183594 394.539062 L 363.953125 383.308594 C 358.121094 377.476562 354.738281 374.058594 353.800781 373.050781 C 352.867188 372.042969 352.363281 371.25 352.289062 370.675781 C 352.289062 370.027344 352.507812 369.523438 352.9375 369.164062 C 353.371094 368.804688 353.910156 368.625 354.558594 368.625 C 354.917969 368.625 355.167969 368.660156 355.3125 368.730469 C 355.53125 368.875 359.453125 372.691406 367.085938 380.179688 L 378.421875 391.515625 L 389.652344 380.285156 C 395.199219 374.742188 398.582031 371.394531 399.804688 370.242188 C 401.027344 369.089844 401.820312 368.515625 402.179688 368.515625 C 403.691406 368.515625 404.449219 369.234375 404.449219 370.675781 C 404.449219 371.179688 404.089844 371.828125 403.367188 372.617188 C 402.648438 373.410156 399.121094 376.9375 392.785156 383.203125 L 381.554688 394.539062 L 392.785156 405.878906 C 398.832031 411.925781 402.289062 415.417969 403.152344 416.355469 C 404.015625 417.289062 404.449219 417.972656 404.449219 418.40625 Z M 404.449219 418.40625 " fill-opacity="1" fill-rule="nonzero"/><path fill="#000000" d="M 467.425781 359.121094 L 466.023438 359.660156 C 465.015625 360.019531 463.574219 360.378906 461.703125 360.738281 C 459.832031 361.101562 457.742188 361.351562 455.441406 361.496094 L 453.386719 361.496094 L 453.386719 356.527344 L 455.441406 356.527344 C 458.824219 356.382812 461.957031 355.84375 464.835938 354.910156 C 467.714844 353.972656 469.730469 353.109375 470.882812 352.316406 C 472.035156 351.523438 473.042969 350.734375 473.90625 349.941406 C 474.050781 349.726562 474.480469 349.617188 475.203125 349.617188 C 475.851562 349.617188 476.460938 349.832031 477.039062 350.265625 L 477.039062 382.554688 L 477.144531 414.949219 C 477.648438 415.453125 478.082031 415.777344 478.441406 415.921875 C 478.800781 416.066406 479.664062 416.210938 481.03125 416.355469 C 482.402344 416.496094 484.632812 416.570312 487.726562 416.570312 L 490.535156 416.570312 L 490.535156 421.539062 L 489.347656 421.539062 C 487.835938 421.320312 482.113281 421.214844 472.179688 421.214844 C 462.386719 421.214844 456.734375 421.320312 455.222656 421.539062 L 453.929688 421.539062 L 453.929688 416.570312 L 456.734375 416.570312 C 458.320312 416.570312 459.6875 416.570312 460.839844 416.570312 C 461.992188 416.570312 462.890625 416.535156 463.539062 416.460938 C 464.1875 416.390625 464.761719 416.28125 465.265625 416.136719 C 465.769531 415.992188 466.058594 415.921875 466.128906 415.921875 C 466.203125 415.921875 466.417969 415.742188 466.777344 415.382812 C 467.140625 415.023438 467.355469 414.878906 467.425781 414.949219 Z M 467.425781 359.121094 " fill-opacity="1" fill-rule="nonzero"/><g clip-path="url(#3696e5f021)"><path fill="#000000" d="M 508.785156 358.363281 C 512.816406 352.53125 518.324219 349.617188 525.308594 349.617188 C 528.765625 349.617188 532.21875 350.554688 535.675781 352.425781 C 539.128906 354.296875 541.9375 357.609375 544.097656 362.359375 C 546.761719 368.335938 548.09375 376.542969 548.09375 386.980469 C 548.09375 398.140625 546.546875 406.671875 543.449219 412.574219 C 542.011719 415.597656 540.03125 418.007812 537.511719 419.808594 C 534.992188 421.609375 532.796875 422.726562 530.921875 423.15625 C 529.050781 423.589844 527.214844 423.839844 525.417969 423.914062 C 523.542969 423.914062 521.671875 423.695312 519.800781 423.265625 C 517.929688 422.832031 515.734375 421.679688 513.214844 419.808594 C 510.695312 417.9375 508.714844 415.527344 507.273438 412.574219 C 504.179688 406.671875 502.628906 398.140625 502.628906 386.980469 C 502.628906 374.453125 504.683594 364.914062 508.785156 358.363281 Z M 533.082031 357.070312 C 530.921875 354.765625 528.367188 353.613281 525.417969 353.613281 C 522.390625 353.613281 519.800781 354.765625 517.640625 357.070312 C 515.839844 358.941406 514.652344 361.53125 514.078125 364.84375 C 513.5 368.15625 513.214844 375.066406 513.214844 385.578125 C 513.214844 396.953125 513.5 404.4375 514.078125 408.039062 C 514.652344 411.636719 515.949219 414.480469 517.964844 416.570312 C 519.980469 418.730469 522.464844 419.808594 525.417969 419.808594 C 528.296875 419.808594 530.742188 418.730469 532.757812 416.570312 C 534.847656 414.410156 536.144531 411.386719 536.648438 407.5 C 537.152344 403.613281 537.4375 396.304688 537.511719 385.578125 C 537.511719 375.136719 537.222656 368.261719 536.648438 364.953125 C 536.070312 361.640625 534.882812 359.011719 533.082031 357.070312 Z M 533.082031 357.070312 " fill-opacity="1" fill-rule="nonzero"/></g><g clip-path="url(#9ab5436c8f)"><path fill="#000000" d="M 568.496094 364.953125 C 568.496094 366.171875 568.089844 367.191406 567.277344 368.003906 C 566.460938 368.820312 565.46875 369.226562 564.296875 369.226562 L 563.765625 369.226562 C 566.105469 373.25 569.210938 375.257812 573.078125 375.257812 C 576.640625 375.257812 579.238281 373.730469 580.867188 370.679688 C 581.832031 369 582.316406 365.742188 582.316406 360.90625 C 582.316406 355.664062 581.628906 352.125 580.253906 350.292969 C 578.933594 348.613281 577.457031 347.773438 575.828125 347.773438 L 575.367188 347.773438 C 571.398438 347.773438 568.394531 349.503906 566.359375 352.964844 C 566.15625 353.320312 565.976562 353.523438 565.824219 353.574219 C 565.671875 353.628906 565.289062 353.679688 564.679688 353.730469 C 563.816406 353.730469 563.332031 353.574219 563.230469 353.269531 C 563.128906 353.066406 563.078125 348.613281 563.078125 339.910156 L 563.078125 330.0625 C 563.078125 327.515625 563.203125 326.242188 563.457031 326.242188 C 563.558594 326.140625 563.664062 326.089844 563.765625 326.089844 C 563.816406 326.089844 564.347656 326.292969 565.367188 326.703125 C 566.386719 327.109375 567.785156 327.515625 569.566406 327.921875 C 571.347656 328.332031 573.257812 328.535156 575.292969 328.535156 C 578.90625 328.535156 582.367188 327.820312 585.675781 326.394531 C 586.082031 326.191406 586.414062 326.089844 586.667969 326.089844 C 587.074219 326.089844 587.277344 326.550781 587.277344 327.464844 L 587.277344 328.457031 C 583.105469 333.394531 577.886719 335.863281 571.628906 335.863281 C 570.050781 335.863281 568.625 335.710938 567.351562 335.40625 L 566.589844 335.253906 L 566.589844 348.382812 C 567.554688 347.671875 568.320312 347.113281 568.878906 346.703125 C 569.4375 346.296875 570.355469 345.890625 571.628906 345.484375 C 572.898438 345.074219 574.199219 344.871094 575.523438 344.871094 C 579.644531 344.871094 583.128906 346.527344 585.980469 349.835938 C 588.832031 353.144531 590.257812 357.0625 590.257812 361.59375 C 590.257812 366.273438 588.628906 370.269531 585.371094 373.578125 C 582.113281 376.886719 578.144531 378.566406 573.460938 378.617188 C 569.335938 378.617188 566.027344 377.242188 563.535156 374.496094 C 561.039062 371.746094 559.792969 368.640625 559.792969 365.179688 C 559.792969 363.960938 560.074219 362.992188 560.632812 362.28125 C 561.195312 361.566406 561.777344 361.109375 562.390625 360.90625 C 563 360.703125 563.585938 360.601562 564.144531 360.601562 C 565.417969 360.601562 566.460938 361.03125 567.277344 361.898438 C 568.089844 362.761719 568.496094 363.78125 568.496094 364.953125 Z M 568.496094 364.953125 " fill-opacity="1" fill-rule="nonzero"/></g></svg>