<svg xmlns="http://www.w3.org/2000/svg" xmlns:xlink="http://www.w3.org/1999/xlink" width="1000" zoomAndPan="magnify" viewBox="0 0 750 749.999995" height="1000" preserveAspectRatio="xMidYMid meet" version="1.0"><defs><clipPath id="a1bef9a718"><path d="M 44 344 L 62 344 L 62 415.84375 L 44 415.84375 Z M 44 344 " clip-rule="nonzero"/></clipPath><clipPath id="934f64eb8a"><path d="M 463 334.15625 L 484 334.15625 L 484 370 L 463 370 Z M 463 334.15625 " clip-rule="nonzero"/></clipPath><clipPath id="bcb18954ce"><path d="M 493 344 L 511 344 L 511 415.84375 L 493 415.84375 Z M 493 344 " clip-rule="nonzero"/></clipPath></defs><rect x="-75" width="900" fill="#ffffff" y="-74.999999" height="899.999994" fill-opacity="1"/><rect x="-75" width="900" fill="#ffffff" y="-74.999999" height="899.999994" fill-opacity="1"/><g clip-path="url(#a1bef9a718)"><path fill="#000000" d="M 44.21875 379.789062 C 44.21875 376.5 44.460938 373.375 44.9375 370.417969 C 45.414062 367.460938 45.960938 364.910156 46.578125 362.765625 C 47.199219 360.621094 48.082031 358.523438 49.226562 356.472656 C 50.371094 354.421875 51.273438 352.824219 51.941406 351.679688 C 52.609375 350.535156 53.609375 349.296875 54.945312 347.960938 C 56.28125 346.625 57.066406 345.816406 57.304688 345.527344 C 57.542969 345.242188 58.140625 344.742188 59.09375 344.027344 L 60.308594 344.027344 C 60.976562 344.027344 61.308594 344.242188 61.308594 344.671875 C 61.308594 344.8125 60.902344 345.3125 60.09375 346.171875 C 59.28125 347.03125 58.304688 348.292969 57.160156 349.964844 C 56.019531 351.632812 54.851562 353.683594 53.660156 356.113281 C 52.464844 358.546875 51.464844 361.835938 50.65625 365.984375 C 49.84375 370.132812 49.441406 374.734375 49.441406 379.789062 C 49.441406 384.84375 49.84375 389.421875 50.65625 393.519531 C 51.464844 397.621094 52.441406 400.9375 53.585938 403.460938 C 54.730469 405.988281 55.898438 408.039062 57.089844 409.613281 C 58.28125 411.1875 59.28125 412.449219 60.09375 413.40625 C 60.902344 414.359375 61.308594 414.859375 61.308594 414.90625 C 61.308594 415.335938 60.949219 415.550781 60.234375 415.550781 L 59.09375 415.550781 L 57.089844 413.832031 C 52.609375 409.78125 49.34375 404.726562 47.296875 398.671875 C 45.246094 392.613281 44.21875 386.320312 44.21875 379.789062 Z M 44.21875 379.789062 " fill-opacity="1" fill-rule="nonzero"/></g><path fill="#000000" d="M 80.539062 356.328125 L 79.613281 356.6875 C 78.945312 356.925781 77.992188 357.164062 76.75 357.402344 C 75.511719 357.640625 74.128906 357.808594 72.605469 357.902344 L 71.246094 357.902344 L 71.246094 354.613281 L 72.605469 354.613281 C 74.84375 354.515625 76.917969 354.160156 78.824219 353.539062 C 80.730469 352.917969 82.066406 352.347656 82.828125 351.824219 C 83.589844 351.296875 84.257812 350.773438 84.832031 350.25 C 84.925781 350.105469 85.210938 350.035156 85.6875 350.035156 C 86.117188 350.035156 86.523438 350.175781 86.902344 350.464844 L 86.902344 371.847656 L 86.976562 393.304688 C 87.308594 393.640625 87.59375 393.855469 87.832031 393.949219 C 88.070312 394.046875 88.644531 394.140625 89.550781 394.234375 C 90.457031 394.332031 91.933594 394.378906 93.980469 394.378906 L 95.839844 394.378906 L 95.839844 397.667969 L 95.054688 397.667969 C 94.054688 397.527344 90.265625 397.453125 83.6875 397.453125 C 77.203125 397.453125 73.460938 397.527344 72.460938 397.667969 L 71.605469 397.667969 L 71.605469 394.378906 L 73.460938 394.378906 C 74.511719 394.378906 75.417969 394.378906 76.179688 394.378906 C 76.941406 394.378906 77.539062 394.355469 77.96875 394.308594 C 78.394531 394.261719 78.777344 394.1875 79.109375 394.09375 C 79.445312 393.996094 79.636719 393.949219 79.683594 393.949219 C 79.730469 393.949219 79.875 393.832031 80.113281 393.59375 C 80.351562 393.355469 80.492188 393.257812 80.539062 393.304688 Z M 80.539062 356.328125 " fill-opacity="1" fill-rule="nonzero"/><path fill="#000000" d="M 106.636719 393.378906 C 106.636719 392.234375 107.042969 391.230469 107.851562 390.375 C 108.664062 389.515625 109.6875 389.085938 110.925781 389.085938 C 112.070312 389.085938 113.070312 389.46875 113.929688 390.230469 C 114.789062 390.992188 115.242188 392.019531 115.289062 393.304688 C 115.289062 394.5 114.882812 395.523438 114.074219 396.382812 C 113.261719 397.242188 112.238281 397.667969 111 397.667969 C 109.757812 397.667969 108.734375 397.265625 107.925781 396.453125 C 107.113281 395.644531 106.683594 394.617188 106.636719 393.378906 Z M 106.636719 393.378906 " fill-opacity="1" fill-rule="nonzero"/><path fill="#000000" d="M 130.015625 364.554688 C 128.730469 364.554688 127.730469 364.148438 127.015625 363.339844 C 126.296875 362.527344 125.917969 361.476562 125.871094 360.191406 C 125.871094 357.570312 127.015625 355.230469 129.300781 353.183594 C 131.589844 351.132812 134.355469 350.105469 137.59375 350.105469 C 139.261719 350.105469 140.3125 350.128906 140.742188 350.175781 C 144.269531 350.75 146.960938 352.011719 148.820312 353.96875 C 150.679688 355.921875 151.632812 358.046875 151.679688 360.335938 C 151.679688 362.8125 150.871094 365.222656 149.25 367.558594 C 147.628906 369.894531 145.386719 371.585938 142.527344 372.636719 L 142.3125 372.777344 C 142.3125 372.828125 142.527344 372.898438 142.957031 372.992188 C 143.386719 373.089844 144.078125 373.304688 145.03125 373.636719 C 145.984375 373.972656 146.890625 374.472656 147.746094 375.140625 C 151.65625 377.667969 153.609375 381.003906 153.609375 385.152344 C 153.609375 388.917969 152.132812 392.210938 149.175781 395.023438 C 146.222656 397.835938 142.480469 399.242188 137.953125 399.242188 C 134.140625 399.242188 130.851562 398.21875 128.085938 396.167969 C 125.320312 394.117188 123.9375 391.519531 123.9375 388.371094 C 123.9375 387.035156 124.367188 385.964844 125.226562 385.152344 C 126.085938 384.34375 127.15625 383.914062 128.445312 383.867188 C 129.777344 383.867188 130.875 384.292969 131.734375 385.152344 C 132.589844 386.011719 133.019531 387.082031 133.019531 388.371094 C 133.019531 388.894531 132.949219 389.371094 132.804688 389.800781 C 132.660156 390.230469 132.496094 390.613281 132.304688 390.945312 C 132.113281 391.28125 131.851562 391.566406 131.519531 391.804688 C 131.183594 392.042969 130.898438 392.234375 130.660156 392.375 C 130.421875 392.519531 130.183594 392.613281 129.945312 392.664062 C 129.707031 392.710938 129.515625 392.78125 129.375 392.878906 L 129.085938 392.949219 C 131.519531 395.09375 134.472656 396.167969 137.953125 396.167969 C 140.574219 396.167969 142.550781 394.902344 143.886719 392.375 C 144.695312 390.804688 145.101562 388.394531 145.101562 385.152344 L 145.101562 383.722656 C 145.101562 379.191406 143.578125 376.164062 140.527344 374.640625 C 139.8125 374.351562 138.359375 374.1875 136.164062 374.136719 L 133.164062 374.066406 L 132.949219 373.921875 C 132.851562 373.78125 132.804688 373.398438 132.804688 372.777344 C 132.804688 371.921875 132.996094 371.492188 133.375 371.492188 C 134.710938 371.492188 136.09375 371.371094 137.523438 371.132812 C 139.144531 370.894531 140.621094 369.894531 141.957031 368.128906 C 143.292969 366.367188 143.957031 363.695312 143.957031 360.121094 L 143.957031 359.546875 C 143.957031 356.828125 143.125 354.945312 141.457031 353.898438 C 140.40625 353.230469 139.289062 352.894531 138.097656 352.894531 C 136.570312 352.894531 135.164062 353.15625 133.878906 353.683594 C 132.589844 354.207031 131.683594 354.753906 131.160156 355.328125 C 130.636719 355.898438 130.375 356.1875 130.375 356.1875 L 130.589844 356.1875 C 130.730469 356.234375 130.921875 356.28125 131.160156 356.328125 C 131.398438 356.375 131.636719 356.496094 131.875 356.6875 C 132.113281 356.878906 132.398438 357.042969 132.734375 357.1875 C 133.066406 357.332031 133.304688 357.59375 133.449219 357.972656 C 133.589844 358.355469 133.78125 358.710938 134.019531 359.046875 C 134.257812 359.378906 134.332031 359.855469 134.234375 360.476562 C 134.234375 361.527344 133.902344 362.457031 133.234375 363.265625 C 132.566406 364.078125 131.496094 364.507812 130.015625 364.554688 Z M 130.015625 364.554688 " fill-opacity="1" fill-rule="nonzero"/><path fill="#000000" d="M 168.410156 386.441406 C 168.410156 387.585938 168.027344 388.539062 167.265625 389.300781 C 166.503906 390.0625 165.574219 390.445312 164.476562 390.445312 L 163.976562 390.445312 C 166.171875 394.210938 169.078125 396.097656 172.699219 396.097656 C 176.035156 396.097656 178.46875 394.664062 179.992188 391.804688 C 180.898438 390.230469 181.351562 387.179688 181.351562 382.648438 C 181.351562 377.738281 180.707031 374.425781 179.421875 372.707031 C 178.179688 371.132812 176.800781 370.347656 175.273438 370.347656 L 174.84375 370.347656 C 171.128906 370.347656 168.316406 371.96875 166.410156 375.210938 C 166.21875 375.542969 166.050781 375.734375 165.90625 375.78125 C 165.765625 375.832031 165.40625 375.878906 164.835938 375.925781 C 164.023438 375.925781 163.574219 375.78125 163.476562 375.496094 C 163.382812 375.304688 163.335938 371.132812 163.335938 362.980469 L 163.335938 353.753906 C 163.335938 351.371094 163.453125 350.175781 163.691406 350.175781 C 163.785156 350.082031 163.882812 350.035156 163.976562 350.035156 C 164.023438 350.035156 164.527344 350.226562 165.480469 350.605469 C 166.433594 350.988281 167.742188 351.371094 169.410156 351.75 C 171.078125 352.132812 172.867188 352.324219 174.773438 352.324219 C 178.15625 352.324219 181.398438 351.65625 184.496094 350.320312 C 184.878906 350.128906 185.1875 350.035156 185.425781 350.035156 C 185.808594 350.035156 186 350.464844 186 351.320312 L 186 352.25 C 182.089844 356.878906 177.203125 359.191406 171.339844 359.191406 C 169.863281 359.191406 168.53125 359.046875 167.335938 358.761719 L 166.621094 358.617188 L 166.621094 370.917969 C 167.527344 370.253906 168.242188 369.726562 168.769531 369.347656 C 169.292969 368.964844 170.148438 368.582031 171.339844 368.203125 C 172.535156 367.820312 173.75 367.628906 174.988281 367.628906 C 178.847656 367.628906 182.113281 369.179688 184.78125 372.277344 C 187.453125 375.378906 188.785156 379.050781 188.785156 383.292969 C 188.785156 387.679688 187.261719 391.421875 184.210938 394.523438 C 181.160156 397.621094 177.441406 399.195312 173.058594 399.242188 C 169.195312 399.242188 166.097656 397.957031 163.761719 395.378906 C 161.425781 392.804688 160.257812 389.898438 160.257812 386.65625 C 160.257812 385.511719 160.523438 384.605469 161.046875 383.9375 C 161.570312 383.269531 162.117188 382.839844 162.691406 382.648438 C 163.261719 382.457031 163.8125 382.363281 164.335938 382.363281 C 165.527344 382.363281 166.503906 382.769531 167.265625 383.578125 C 168.027344 384.390625 168.410156 385.34375 168.410156 386.441406 Z M 168.410156 386.441406 " fill-opacity="1" fill-rule="nonzero"/><path fill="#000000" d="M 195.4375 375.28125 C 195.4375 367.511719 197.367188 361.359375 201.226562 356.828125 C 205.089844 352.300781 209.378906 350.035156 214.097656 350.035156 C 217.386719 350.035156 219.746094 350.894531 221.175781 352.609375 C 222.605469 354.324219 223.320312 356.234375 223.320312 358.332031 C 223.320312 359.523438 222.984375 360.476562 222.320312 361.191406 C 221.652344 361.90625 220.722656 362.265625 219.53125 362.265625 C 218.433594 362.265625 217.527344 361.929688 216.8125 361.265625 C 216.097656 360.597656 215.742188 359.667969 215.742188 358.472656 C 215.742188 356.375 216.859375 355.113281 219.101562 354.683594 C 218.054688 353.632812 216.574219 353.039062 214.667969 352.894531 C 211.285156 352.894531 208.496094 354.324219 206.304688 357.1875 C 204.0625 360.335938 202.941406 365.148438 202.941406 371.636719 L 203.015625 371.921875 C 203.253906 371.636719 203.445312 371.324219 203.585938 370.992188 C 205.539062 368.128906 208.089844 366.699219 211.238281 366.699219 L 211.523438 366.699219 C 213.714844 366.699219 215.644531 367.152344 217.3125 368.058594 C 218.457031 368.726562 219.601562 369.679688 220.746094 370.917969 C 221.890625 372.160156 222.820312 373.519531 223.535156 374.996094 C 224.535156 377.332031 225.035156 379.882812 225.035156 382.648438 L 225.035156 383.9375 C 225.035156 385.035156 224.917969 386.058594 224.679688 387.011719 C 224.152344 389.824219 222.628906 392.566406 220.101562 395.238281 C 217.574219 397.90625 214.382812 399.242188 210.523438 399.242188 C 209.1875 399.242188 207.898438 399.050781 206.660156 398.671875 C 205.421875 398.289062 204.085938 397.574219 202.65625 396.523438 C 201.226562 395.476562 200.011719 394.070312 199.011719 392.304688 C 198.011719 390.539062 197.152344 388.226562 196.4375 385.367188 C 195.722656 382.507812 195.386719 379.144531 195.4375 375.28125 Z M 210.808594 369.273438 C 209.378906 369.273438 208.136719 369.679688 207.089844 370.492188 C 206.042969 371.300781 205.230469 372.375 204.660156 373.710938 C 204.085938 375.042969 203.683594 376.402344 203.445312 377.785156 C 203.207031 379.167969 203.0625 380.648438 203.015625 382.21875 C 203.015625 386.179688 203.300781 389.015625 203.871094 390.730469 C 204.445312 392.449219 205.351562 393.832031 206.589844 394.878906 C 207.734375 395.738281 208.996094 396.167969 210.378906 396.167969 C 212.808594 396.167969 214.667969 395.261719 215.957031 393.449219 C 216.574219 392.589844 217.003906 391.519531 217.242188 390.230469 C 217.480469 388.945312 217.601562 386.441406 217.601562 382.722656 C 217.601562 378.90625 217.480469 376.355469 217.242188 375.066406 C 217.003906 373.78125 216.574219 372.707031 215.957031 371.847656 C 214.667969 370.132812 212.953125 369.273438 210.808594 369.273438 Z M 210.808594 369.273438 " fill-opacity="1" fill-rule="nonzero"/><path fill="#000000" d="M 235.046875 355.828125 C 237.714844 351.964844 241.359375 350.035156 245.984375 350.035156 C 248.273438 350.035156 250.558594 350.65625 252.847656 351.894531 C 255.136719 353.132812 256.996094 355.328125 258.425781 358.472656 C 260.1875 362.433594 261.070312 367.867188 261.070312 374.78125 C 261.070312 382.171875 260.046875 387.824219 257.996094 391.734375 C 257.042969 393.734375 255.730469 395.332031 254.0625 396.523438 C 252.394531 397.71875 250.941406 398.457031 249.703125 398.742188 C 248.460938 399.027344 247.246094 399.195312 246.054688 399.242188 C 244.816406 399.242188 243.578125 399.101562 242.335938 398.8125 C 241.097656 398.527344 239.644531 397.765625 237.976562 396.523438 C 236.308594 395.285156 234.996094 393.6875 234.042969 391.734375 C 231.996094 387.824219 230.96875 382.171875 230.96875 374.78125 C 230.96875 366.484375 232.328125 360.167969 235.046875 355.828125 Z M 251.132812 354.96875 C 249.703125 353.445312 248.011719 352.679688 246.054688 352.679688 C 244.054688 352.679688 242.335938 353.445312 240.90625 354.96875 C 239.714844 356.210938 238.929688 357.925781 238.546875 360.121094 C 238.167969 362.3125 237.976562 366.890625 237.976562 373.851562 C 237.976562 381.386719 238.167969 386.34375 238.546875 388.730469 C 238.929688 391.113281 239.789062 392.996094 241.121094 394.378906 C 242.457031 395.808594 244.101562 396.523438 246.054688 396.523438 C 247.960938 396.523438 249.582031 395.808594 250.917969 394.378906 C 252.300781 392.949219 253.15625 390.945312 253.492188 388.371094 C 253.824219 385.796875 254.015625 380.957031 254.0625 373.851562 C 254.0625 366.9375 253.871094 362.382812 253.492188 360.191406 C 253.109375 357.996094 252.324219 356.257812 251.132812 354.96875 Z M 251.132812 354.96875 " fill-opacity="1" fill-rule="nonzero"/><path fill="#000000" d="M 270.792969 355.828125 C 273.460938 351.964844 277.109375 350.035156 281.730469 350.035156 C 284.019531 350.035156 286.308594 350.65625 288.597656 351.894531 C 290.882812 353.132812 292.742188 355.328125 294.171875 358.472656 C 295.9375 362.433594 296.816406 367.867188 296.816406 374.78125 C 296.816406 382.171875 295.792969 387.824219 293.742188 391.734375 C 292.789062 393.734375 291.480469 395.332031 289.8125 396.523438 C 288.144531 397.71875 286.691406 398.457031 285.449219 398.742188 C 284.210938 399.027344 282.996094 399.195312 281.804688 399.242188 C 280.566406 399.242188 279.324219 399.101562 278.085938 398.8125 C 276.847656 398.527344 275.394531 397.765625 273.726562 396.523438 C 272.054688 395.285156 270.746094 393.6875 269.792969 391.734375 C 267.742188 387.824219 266.71875 382.171875 266.71875 374.78125 C 266.71875 366.484375 268.078125 360.167969 270.792969 355.828125 Z M 286.878906 354.96875 C 285.449219 353.445312 283.757812 352.679688 281.804688 352.679688 C 279.800781 352.679688 278.085938 353.445312 276.65625 354.96875 C 275.464844 356.210938 274.679688 357.925781 274.296875 360.121094 C 273.914062 362.3125 273.726562 366.890625 273.726562 373.851562 C 273.726562 381.386719 273.914062 386.34375 274.296875 388.730469 C 274.679688 391.113281 275.535156 392.996094 276.871094 394.378906 C 278.207031 395.808594 279.851562 396.523438 281.804688 396.523438 C 283.710938 396.523438 285.332031 395.808594 286.664062 394.378906 C 288.046875 392.949219 288.90625 390.945312 289.238281 388.371094 C 289.574219 385.796875 289.765625 380.957031 289.8125 373.851562 C 289.8125 366.9375 289.621094 362.382812 289.238281 360.191406 C 288.859375 357.996094 288.070312 356.257812 286.878906 354.96875 Z M 286.878906 354.96875 " fill-opacity="1" fill-rule="nonzero"/><path fill="#000000" d="M 360.609375 395.59375 C 360.609375 396.550781 360.105469 397.027344 359.105469 397.027344 C 358.867188 397.027344 358.34375 396.644531 357.53125 395.882812 C 356.722656 395.117188 354.484375 392.902344 350.8125 389.230469 L 343.375 381.792969 L 335.871094 389.300781 C 330.816406 394.261719 328.21875 396.789062 328.078125 396.882812 C 327.886719 396.976562 327.71875 397.027344 327.574219 397.027344 C 327.195312 397.027344 326.859375 396.882812 326.574219 396.597656 C 326.289062 396.308594 326.121094 395.976562 326.074219 395.59375 C 326.074219 395.261719 326.410156 394.738281 327.074219 394.023438 C 327.742188 393.304688 329.984375 391.042969 333.796875 387.226562 L 341.230469 379.789062 L 333.796875 372.351562 C 329.933594 368.488281 327.695312 366.222656 327.074219 365.554688 C 326.457031 364.886719 326.121094 364.363281 326.074219 363.980469 C 326.074219 363.550781 326.21875 363.21875 326.503906 362.980469 C 326.789062 362.742188 327.148438 362.621094 327.574219 362.621094 C 327.8125 362.621094 327.980469 362.648438 328.078125 362.695312 C 328.21875 362.789062 330.816406 365.316406 335.871094 370.277344 L 343.375 377.785156 L 350.8125 370.347656 C 354.484375 366.675781 356.722656 364.457031 357.53125 363.695312 C 358.34375 362.933594 358.867188 362.550781 359.105469 362.550781 C 360.105469 362.550781 360.609375 363.027344 360.609375 363.980469 C 360.609375 364.316406 360.367188 364.746094 359.890625 365.269531 C 359.414062 365.792969 357.082031 368.128906 352.886719 372.277344 L 345.449219 379.789062 L 352.886719 387.296875 C 356.890625 391.304688 359.175781 393.617188 359.75 394.234375 C 360.320312 394.855469 360.609375 395.308594 360.609375 395.59375 Z M 360.609375 395.59375 " fill-opacity="1" fill-rule="nonzero"/><path fill="#000000" d="M 402.304688 356.328125 L 401.375 356.6875 C 400.707031 356.925781 399.753906 357.164062 398.515625 357.402344 C 397.277344 357.640625 395.894531 357.808594 394.367188 357.902344 L 393.007812 357.902344 L 393.007812 354.613281 L 394.367188 354.613281 C 396.609375 354.515625 398.683594 354.160156 400.589844 353.539062 C 402.496094 352.917969 403.828125 352.347656 404.59375 351.824219 C 405.355469 351.296875 406.023438 350.773438 406.59375 350.25 C 406.6875 350.105469 406.976562 350.035156 407.453125 350.035156 C 407.882812 350.035156 408.285156 350.175781 408.667969 350.464844 L 408.667969 371.847656 L 408.738281 393.304688 C 409.074219 393.640625 409.359375 393.855469 409.597656 393.949219 C 409.835938 394.046875 410.40625 394.140625 411.3125 394.234375 C 412.21875 394.332031 413.695312 394.378906 415.746094 394.378906 L 417.605469 394.378906 L 417.605469 397.667969 L 416.816406 397.667969 C 415.816406 397.527344 412.027344 397.453125 405.449219 397.453125 C 398.96875 397.453125 395.226562 397.527344 394.226562 397.667969 L 393.367188 397.667969 L 393.367188 394.378906 L 395.226562 394.378906 C 396.273438 394.378906 397.179688 394.378906 397.941406 394.378906 C 398.707031 394.378906 399.300781 394.355469 399.730469 394.308594 C 400.160156 394.261719 400.539062 394.1875 400.875 394.09375 C 401.207031 393.996094 401.398438 393.949219 401.445312 393.949219 C 401.492188 393.949219 401.636719 393.832031 401.875 393.59375 C 402.113281 393.355469 402.257812 393.257812 402.304688 393.304688 Z M 402.304688 356.328125 " fill-opacity="1" fill-rule="nonzero"/><path fill="#000000" d="M 429.6875 355.828125 C 432.355469 351.964844 436.003906 350.035156 440.625 350.035156 C 442.914062 350.035156 445.203125 350.65625 447.488281 351.894531 C 449.777344 353.132812 451.636719 355.328125 453.066406 358.472656 C 454.832031 362.433594 455.710938 367.867188 455.710938 374.78125 C 455.710938 382.171875 454.6875 387.824219 452.636719 391.734375 C 451.683594 393.734375 450.375 395.332031 448.707031 396.523438 C 447.039062 397.71875 445.582031 398.457031 444.34375 398.742188 C 443.105469 399.027344 441.890625 399.195312 440.699219 399.242188 C 439.457031 399.242188 438.21875 399.101562 436.980469 398.8125 C 435.742188 398.527344 434.285156 397.765625 432.617188 396.523438 C 430.949219 395.285156 429.640625 393.6875 428.6875 391.734375 C 426.636719 387.824219 425.613281 382.171875 425.613281 374.78125 C 425.613281 366.484375 426.96875 360.167969 429.6875 355.828125 Z M 445.773438 354.96875 C 444.34375 353.445312 442.652344 352.679688 440.699219 352.679688 C 438.695312 352.679688 436.980469 353.445312 435.550781 354.96875 C 434.359375 356.210938 433.570312 357.925781 433.191406 360.121094 C 432.808594 362.3125 432.617188 366.890625 432.617188 373.851562 C 432.617188 381.386719 432.808594 386.34375 433.191406 388.730469 C 433.570312 391.113281 434.429688 392.996094 435.765625 394.378906 C 437.097656 395.808594 438.742188 396.523438 440.699219 396.523438 C 442.605469 396.523438 444.226562 395.808594 445.558594 394.378906 C 446.941406 392.949219 447.800781 390.945312 448.132812 388.371094 C 448.46875 385.796875 448.65625 380.957031 448.707031 373.851562 C 448.707031 366.9375 448.515625 362.382812 448.132812 360.191406 C 447.753906 357.996094 446.964844 356.257812 445.773438 354.96875 Z M 445.773438 354.96875 " fill-opacity="1" fill-rule="nonzero"/><g clip-path="url(#934f64eb8a)"><path fill="#000000" d="M 469.222656 360.191406 C 469.222656 361 468.953125 361.675781 468.414062 362.214844 C 467.875 362.753906 467.214844 363.023438 466.441406 363.023438 L 466.085938 363.023438 C 467.636719 365.6875 469.691406 367.019531 472.253906 367.019531 C 474.613281 367.019531 476.332031 366.007812 477.410156 363.984375 C 478.050781 362.871094 478.371094 360.714844 478.371094 357.511719 C 478.371094 354.039062 477.914062 351.695312 477.003906 350.480469 C 476.128906 349.371094 475.152344 348.8125 474.074219 348.8125 L 473.769531 348.8125 C 471.140625 348.8125 469.152344 349.960938 467.804688 352.253906 C 467.671875 352.488281 467.554688 352.621094 467.453125 352.65625 C 467.351562 352.691406 467.097656 352.722656 466.695312 352.757812 C 466.121094 352.757812 465.800781 352.65625 465.734375 352.453125 C 465.667969 352.320312 465.632812 349.371094 465.632812 343.605469 L 465.632812 337.082031 C 465.632812 335.394531 465.714844 334.554688 465.886719 334.554688 C 465.953125 334.484375 466.019531 334.453125 466.085938 334.453125 C 466.121094 334.453125 466.476562 334.585938 467.148438 334.855469 C 467.824219 335.125 468.75 335.394531 469.929688 335.664062 C 471.109375 335.9375 472.371094 336.070312 473.71875 336.070312 C 476.113281 336.070312 478.402344 335.597656 480.59375 334.65625 C 480.863281 334.519531 481.082031 334.453125 481.25 334.453125 C 481.519531 334.453125 481.65625 334.753906 481.65625 335.363281 L 481.65625 336.019531 C 478.894531 339.289062 475.4375 340.925781 471.292969 340.925781 C 470.25 340.925781 469.304688 340.824219 468.464844 340.621094 L 467.957031 340.519531 L 467.957031 349.21875 C 468.597656 348.746094 469.101562 348.375 469.472656 348.105469 C 469.84375 347.835938 470.453125 347.566406 471.292969 347.296875 C 472.136719 347.027344 472.996094 346.890625 473.871094 346.890625 C 476.601562 346.890625 478.910156 347.988281 480.796875 350.179688 C 482.683594 352.371094 483.628906 354.964844 483.628906 357.964844 C 483.628906 361.066406 482.550781 363.714844 480.390625 365.90625 C 478.234375 368.097656 475.605469 369.207031 472.507812 369.242188 C 469.777344 369.242188 467.585938 368.332031 465.9375 366.511719 C 464.285156 364.691406 463.457031 362.636719 463.457031 360.34375 C 463.457031 359.535156 463.644531 358.894531 464.015625 358.421875 C 464.386719 357.949219 464.773438 357.644531 465.175781 357.511719 C 465.582031 357.375 465.96875 357.308594 466.339844 357.308594 C 467.183594 357.308594 467.875 357.59375 468.414062 358.167969 C 468.953125 358.742188 469.222656 359.414062 469.222656 360.191406 Z M 469.222656 360.191406 " fill-opacity="1" fill-rule="nonzero"/></g><g clip-path="url(#bcb18954ce)"><path fill="#000000" d="M 494.078125 344.097656 L 494.363281 344.027344 C 494.601562 344.027344 494.839844 344.027344 495.078125 344.027344 L 495.9375 344.027344 L 497.9375 345.742188 C 502.417969 349.796875 505.683594 354.851562 507.734375 360.90625 C 509.78125 366.960938 510.808594 373.257812 510.808594 379.789062 C 510.808594 383.03125 510.570312 386.152344 510.09375 389.15625 C 509.617188 392.160156 509.066406 394.714844 508.449219 396.8125 C 507.828125 398.910156 506.945312 401.007812 505.800781 403.105469 C 504.660156 405.203125 503.753906 406.800781 503.085938 407.898438 C 502.417969 408.992188 501.441406 410.210938 500.15625 411.546875 C 498.867188 412.878906 498.105469 413.667969 497.867188 413.90625 C 497.628906 414.144531 497.082031 414.597656 496.222656 415.265625 C 496.078125 415.40625 495.984375 415.503906 495.9375 415.550781 L 495.078125 415.550781 C 494.695312 415.550781 494.433594 415.550781 494.292969 415.550781 C 494.148438 415.550781 494.03125 415.480469 493.933594 415.335938 C 493.839844 415.191406 493.765625 414.976562 493.71875 414.691406 C 493.765625 414.644531 494.03125 414.335938 494.507812 413.761719 C 501.894531 406.085938 505.589844 394.761719 505.589844 379.789062 C 505.589844 364.816406 501.894531 353.492188 494.507812 345.816406 C 494.03125 345.242188 493.765625 344.933594 493.71875 344.886719 C 493.71875 344.503906 493.839844 344.242188 494.078125 344.097656 Z M 494.078125 344.097656 " fill-opacity="1" fill-rule="nonzero"/></g><path fill="#000000" d="M 578.527344 395.59375 C 578.527344 396.550781 578.027344 397.027344 577.027344 397.027344 C 576.789062 397.027344 576.265625 396.644531 575.453125 395.882812 C 574.644531 395.117188 572.402344 392.902344 568.734375 389.230469 L 561.296875 381.792969 L 553.792969 389.300781 C 548.738281 394.261719 546.140625 396.789062 546 396.882812 C 545.808594 396.976562 545.640625 397.027344 545.496094 397.027344 C 545.117188 397.027344 544.78125 396.882812 544.496094 396.597656 C 544.210938 396.308594 544.042969 395.976562 543.996094 395.59375 C 543.996094 395.261719 544.328125 394.738281 544.996094 394.023438 C 545.664062 393.304688 547.90625 391.042969 551.71875 387.226562 L 559.152344 379.789062 L 551.71875 372.351562 C 547.855469 368.488281 545.617188 366.222656 544.996094 365.554688 C 544.378906 364.886719 544.042969 364.363281 543.996094 363.980469 C 543.996094 363.550781 544.140625 363.21875 544.425781 362.980469 C 544.710938 362.742188 545.070312 362.621094 545.496094 362.621094 C 545.734375 362.621094 545.902344 362.648438 546 362.695312 C 546.140625 362.789062 548.738281 365.316406 553.792969 370.277344 L 561.296875 377.785156 L 568.734375 370.347656 C 572.402344 366.675781 574.644531 364.457031 575.453125 363.695312 C 576.265625 362.933594 576.789062 362.550781 577.027344 362.550781 C 578.027344 362.550781 578.527344 363.027344 578.527344 363.980469 C 578.527344 364.316406 578.289062 364.746094 577.8125 365.269531 C 577.335938 365.792969 575 368.128906 570.808594 372.277344 L 563.371094 379.789062 L 570.808594 387.296875 C 574.8125 391.304688 577.097656 393.617188 577.671875 394.234375 C 578.242188 394.855469 578.527344 395.308594 578.527344 395.59375 Z M 578.527344 395.59375 " fill-opacity="1" fill-rule="nonzero"/><path fill="#000000" d="M 616.722656 386.441406 C 616.722656 387.585938 616.339844 388.539062 615.578125 389.300781 C 614.816406 390.0625 613.886719 390.445312 612.789062 390.445312 L 612.289062 390.445312 C 614.480469 394.210938 617.390625 396.097656 621.011719 396.097656 C 624.347656 396.097656 626.78125 394.664062 628.304688 391.804688 C 629.210938 390.230469 629.664062 387.179688 629.664062 382.648438 C 629.664062 377.738281 629.019531 374.425781 627.734375 372.707031 C 626.492188 371.132812 625.113281 370.347656 623.585938 370.347656 L 623.15625 370.347656 C 619.4375 370.347656 616.628906 371.96875 614.71875 375.210938 C 614.53125 375.542969 614.363281 375.734375 614.21875 375.78125 C 614.078125 375.832031 613.71875 375.878906 613.148438 375.925781 C 612.335938 375.925781 611.882812 375.78125 611.789062 375.496094 C 611.695312 375.304688 611.644531 371.132812 611.644531 362.980469 L 611.644531 353.753906 C 611.644531 351.371094 611.765625 350.175781 612.003906 350.175781 C 612.097656 350.082031 612.195312 350.035156 612.289062 350.035156 C 612.335938 350.035156 612.835938 350.226562 613.792969 350.605469 C 614.746094 350.988281 616.054688 351.371094 617.722656 351.75 C 619.390625 352.132812 621.179688 352.324219 623.085938 352.324219 C 626.46875 352.324219 629.710938 351.65625 632.808594 350.320312 C 633.191406 350.128906 633.5 350.035156 633.738281 350.035156 C 634.121094 350.035156 634.3125 350.464844 634.3125 351.320312 L 634.3125 352.25 C 630.402344 356.878906 625.515625 359.191406 619.652344 359.191406 C 618.175781 359.191406 616.839844 359.046875 615.648438 358.761719 L 614.933594 358.617188 L 614.933594 370.917969 C 615.839844 370.253906 616.554688 369.726562 617.078125 369.347656 C 617.605469 368.964844 618.460938 368.582031 619.652344 368.203125 C 620.84375 367.820312 622.0625 367.628906 623.300781 367.628906 C 627.160156 367.628906 630.425781 369.179688 633.09375 372.277344 C 635.765625 375.378906 637.097656 379.050781 637.097656 383.292969 C 637.097656 387.679688 635.574219 391.421875 632.523438 394.523438 C 629.472656 397.621094 625.753906 399.195312 621.371094 399.242188 C 617.507812 399.242188 614.410156 397.957031 612.074219 395.378906 C 609.738281 392.804688 608.570312 389.898438 608.570312 386.65625 C 608.570312 385.511719 608.835938 384.605469 609.359375 383.9375 C 609.882812 383.269531 610.429688 382.839844 611.003906 382.648438 C 611.574219 382.457031 612.121094 382.363281 612.648438 382.363281 C 613.839844 382.363281 614.816406 382.769531 615.578125 383.578125 C 616.339844 384.390625 616.722656 385.34375 616.722656 386.441406 Z M 616.722656 386.441406 " fill-opacity="1" fill-rule="nonzero"/><path fill="#000000" d="M 647.609375 355.828125 C 650.277344 351.964844 653.925781 350.035156 658.546875 350.035156 C 660.835938 350.035156 663.125 350.65625 665.410156 351.894531 C 667.699219 353.132812 669.558594 355.328125 670.988281 358.472656 C 672.753906 362.433594 673.632812 367.867188 673.632812 374.78125 C 673.632812 382.171875 672.609375 387.824219 670.558594 391.734375 C 669.605469 393.734375 668.296875 395.332031 666.628906 396.523438 C 664.957031 397.71875 663.503906 398.457031 662.265625 398.742188 C 661.027344 399.027344 659.8125 399.195312 658.621094 399.242188 C 657.378906 399.242188 656.140625 399.101562 654.902344 398.8125 C 653.664062 398.527344 652.207031 397.765625 650.539062 396.523438 C 648.871094 395.285156 647.5625 393.6875 646.609375 391.734375 C 644.558594 387.824219 643.535156 382.171875 643.535156 374.78125 C 643.535156 366.484375 644.890625 360.167969 647.609375 355.828125 Z M 663.695312 354.96875 C 662.265625 353.445312 660.574219 352.679688 658.621094 352.679688 C 656.617188 352.679688 654.902344 353.445312 653.472656 354.96875 C 652.28125 356.210938 651.492188 357.925781 651.113281 360.121094 C 650.730469 362.3125 650.539062 366.890625 650.539062 373.851562 C 650.539062 381.386719 650.730469 386.34375 651.113281 388.730469 C 651.492188 391.113281 652.351562 392.996094 653.6875 394.378906 C 655.019531 395.808594 656.664062 396.523438 658.621094 396.523438 C 660.527344 396.523438 662.148438 395.808594 663.480469 394.378906 C 664.863281 392.949219 665.722656 390.945312 666.054688 388.371094 C 666.390625 385.796875 666.578125 380.957031 666.628906 373.851562 C 666.628906 366.9375 666.4375 362.382812 666.054688 360.191406 C 665.675781 357.996094 664.886719 356.257812 663.695312 354.96875 Z M 663.695312 354.96875 " fill-opacity="1" fill-rule="nonzero"/><path fill="#000000" d="M 683.355469 355.828125 C 686.027344 351.964844 689.671875 350.035156 694.296875 350.035156 C 696.585938 350.035156 698.871094 350.65625 701.160156 351.894531 C 703.449219 353.132812 705.308594 355.328125 706.738281 358.472656 C 708.5 362.433594 709.382812 367.867188 709.382812 374.78125 C 709.382812 382.171875 708.355469 387.824219 706.308594 391.734375 C 705.355469 393.734375 704.042969 395.332031 702.375 396.523438 C 700.707031 397.71875 699.253906 398.457031 698.015625 398.742188 C 696.773438 399.027344 695.558594 399.195312 694.367188 399.242188 C 693.128906 399.242188 691.890625 399.101562 690.648438 398.8125 C 689.410156 398.527344 687.957031 397.765625 686.289062 396.523438 C 684.621094 395.285156 683.308594 393.6875 682.355469 391.734375 C 680.308594 387.824219 679.28125 382.171875 679.28125 374.78125 C 679.28125 366.484375 680.640625 360.167969 683.355469 355.828125 Z M 699.445312 354.96875 C 698.015625 353.445312 696.320312 352.679688 694.367188 352.679688 C 692.367188 352.679688 690.648438 353.445312 689.21875 354.96875 C 688.027344 356.210938 687.242188 357.925781 686.859375 360.121094 C 686.480469 362.3125 686.289062 366.890625 686.289062 373.851562 C 686.289062 381.386719 686.480469 386.34375 686.859375 388.730469 C 687.242188 391.113281 688.101562 392.996094 689.433594 394.378906 C 690.769531 395.808594 692.414062 396.523438 694.367188 396.523438 C 696.273438 396.523438 697.894531 395.808594 699.230469 394.378906 C 700.613281 392.949219 701.46875 390.945312 701.804688 388.371094 C 702.136719 385.796875 702.328125 380.957031 702.375 373.851562 C 702.375 366.9375 702.183594 362.382812 701.804688 360.191406 C 701.421875 357.996094 700.636719 356.257812 699.445312 354.96875 Z M 699.445312 354.96875 " fill-opacity="1" fill-rule="nonzero"/></svg>