<svg xmlns="http://www.w3.org/2000/svg" xmlns:xlink="http://www.w3.org/1999/xlink" width="1000" zoomAndPan="magnify" viewBox="0 0 750 749.999995" height="1000" preserveAspectRatio="xMidYMid meet" version="1.0"><rect x="-75" width="900" fill="#ffffff" y="-74.999999" height="899.999994" fill-opacity="1"/><rect x="-75" width="900" fill="#ffffff" y="-74.999999" height="899.999994" fill-opacity="1"/><path fill="#000000" d="M 57.980469 357.988281 L 56.730469 358.46875 C 55.832031 358.789062 54.550781 359.109375 52.882812 359.429688 C 51.21875 359.75 49.359375 359.976562 47.308594 360.101562 L 45.480469 360.101562 L 45.480469 355.683594 L 47.308594 355.683594 C 50.320312 355.554688 53.109375 355.074219 55.671875 354.242188 C 58.234375 353.410156 60.03125 352.640625 61.054688 351.9375 C 62.082031 351.230469 62.980469 350.527344 63.75 349.820312 C 63.875 349.628906 64.261719 349.535156 64.902344 349.535156 C 65.480469 349.535156 66.023438 349.726562 66.535156 350.109375 L 66.535156 378.839844 L 66.632812 407.664062 C 67.082031 408.109375 67.464844 408.398438 67.785156 408.527344 C 68.105469 408.65625 68.875 408.785156 70.09375 408.910156 C 71.3125 409.039062 73.300781 409.105469 76.054688 409.105469 L 78.554688 409.105469 L 78.554688 413.523438 L 77.496094 413.523438 C 76.152344 413.332031 71.054688 413.234375 62.210938 413.234375 C 53.492188 413.234375 48.460938 413.332031 47.113281 413.523438 L 45.960938 413.523438 L 45.960938 409.105469 L 48.460938 409.105469 C 49.871094 409.105469 51.089844 409.105469 52.113281 409.105469 C 53.140625 409.105469 53.941406 409.070312 54.519531 409.007812 C 55.09375 408.945312 55.609375 408.847656 56.054688 408.71875 C 56.503906 408.589844 56.761719 408.527344 56.824219 408.527344 C 56.890625 408.527344 57.082031 408.367188 57.402344 408.046875 C 57.722656 407.726562 57.914062 407.597656 57.980469 407.664062 Z M 57.980469 357.988281 " fill-opacity="1" fill-rule="nonzero"/><path fill="#000000" d="M 89.613281 383.449219 C 89.613281 373.007812 92.207031 364.746094 97.398438 358.660156 C 102.589844 352.578125 108.359375 349.535156 114.707031 349.535156 C 119.128906 349.535156 122.300781 350.6875 124.226562 352.992188 C 126.148438 355.296875 127.109375 357.859375 127.109375 360.679688 C 127.109375 362.28125 126.660156 363.5625 125.761719 364.523438 C 124.867188 365.484375 123.617188 365.964844 122.011719 365.964844 C 120.539062 365.964844 119.320312 365.515625 118.359375 364.617188 C 117.398438 363.722656 116.917969 362.472656 116.917969 360.871094 C 116.917969 358.054688 118.425781 356.355469 121.4375 355.777344 C 120.027344 354.371094 118.039062 353.570312 115.476562 353.378906 C 110.925781 353.378906 107.175781 355.296875 104.226562 359.140625 C 101.214844 363.371094 99.707031 369.839844 99.707031 378.550781 L 99.804688 378.933594 C 100.125 378.550781 100.378906 378.132812 100.574219 377.683594 C 103.199219 373.84375 106.628906 371.921875 110.859375 371.921875 L 111.246094 371.921875 C 114.195312 371.921875 116.789062 372.527344 119.03125 373.746094 C 120.570312 374.644531 122.109375 375.925781 123.648438 377.589844 C 125.1875 379.253906 126.4375 381.082031 127.398438 383.066406 C 128.742188 386.203125 129.417969 389.632812 129.417969 393.347656 L 129.417969 395.074219 C 129.417969 396.550781 129.257812 397.925781 128.9375 399.207031 C 128.230469 402.988281 126.179688 406.667969 122.78125 410.257812 C 119.386719 413.84375 115.089844 415.636719 109.898438 415.636719 C 108.105469 415.636719 106.375 415.378906 104.707031 414.867188 C 103.039062 414.355469 101.246094 413.394531 99.324219 411.984375 C 97.398438 410.578125 95.765625 408.6875 94.417969 406.316406 C 93.074219 403.949219 91.917969 400.839844 90.957031 396.996094 C 89.996094 393.152344 89.546875 388.636719 89.613281 383.449219 Z M 110.285156 375.378906 C 108.359375 375.378906 106.695312 375.925781 105.285156 377.011719 C 103.875 378.101562 102.785156 379.542969 102.015625 381.335938 C 101.246094 383.128906 100.699219 384.957031 100.378906 386.8125 C 100.058594 388.671875 99.867188 390.65625 99.804688 392.769531 C 99.804688 398.085938 100.1875 401.898438 100.957031 404.203125 C 101.726562 406.507812 102.945312 408.367188 104.609375 409.777344 C 106.148438 410.929688 107.847656 411.503906 109.707031 411.503906 C 112.976562 411.503906 115.476562 410.289062 117.207031 407.855469 C 118.039062 406.703125 118.617188 405.261719 118.9375 403.53125 C 119.257812 401.800781 119.417969 398.4375 119.417969 393.441406 C 119.417969 388.316406 119.257812 384.890625 118.9375 383.160156 C 118.617188 381.433594 118.039062 379.992188 117.207031 378.839844 C 115.476562 376.53125 113.167969 375.378906 110.285156 375.378906 Z M 110.285156 375.378906 " fill-opacity="1" fill-rule="nonzero"/><path fill="#000000" d="M 138.648438 385.757812 C 139.097656 383.066406 140.828125 379.960938 143.839844 376.4375 C 146.851562 372.914062 150.570312 371.121094 154.992188 371.054688 C 157.234375 371.054688 159.285156 371.632812 161.144531 372.785156 C 163.003906 373.9375 164.382812 375.378906 165.28125 377.109375 C 167.972656 373.074219 171.207031 371.054688 174.992188 371.054688 C 177.363281 371.054688 179.414062 371.761719 181.144531 373.167969 C 182.875 374.578125 183.773438 376.46875 183.835938 378.839844 C 183.835938 380.695312 183.386719 382.203125 182.488281 383.355469 C 181.59375 384.507812 180.726562 385.210938 179.894531 385.46875 C 179.0625 385.722656 178.324219 385.851562 177.683594 385.851562 C 176.464844 385.851562 175.472656 385.5 174.703125 384.796875 C 173.933594 384.089844 173.546875 383.160156 173.546875 382.007812 C 173.546875 379.0625 175.152344 377.042969 178.355469 375.957031 C 177.652344 375.125 176.367188 374.707031 174.511719 374.707031 C 173.675781 374.707031 173.066406 374.769531 172.683594 374.898438 C 170.246094 375.925781 168.453125 378.039062 167.300781 381.242188 C 163.453125 395.394531 161.53125 403.660156 161.53125 406.027344 C 161.53125 407.824219 162.042969 409.105469 163.070312 409.871094 C 164.09375 410.640625 165.214844 411.023438 166.433594 411.023438 C 168.804688 411.023438 171.144531 409.96875 173.453125 407.855469 C 175.761719 405.742188 177.332031 403.148438 178.164062 400.070312 C 178.355469 399.429688 178.546875 399.078125 178.742188 399.015625 C 178.933594 398.949219 179.445312 398.886719 180.277344 398.824219 L 180.664062 398.824219 C 181.625 398.824219 182.105469 399.078125 182.105469 399.589844 C 182.105469 399.65625 182.042969 400.007812 181.914062 400.648438 C 180.886719 404.300781 178.902344 407.535156 175.953125 410.351562 C 173.003906 413.171875 169.574219 414.582031 165.664062 414.582031 C 161.175781 414.582031 157.78125 412.5625 155.472656 408.527344 C 152.84375 412.5 149.832031 414.484375 146.433594 414.484375 L 145.859375 414.484375 C 142.71875 414.484375 140.472656 413.652344 139.128906 411.984375 C 137.78125 410.320312 137.078125 408.558594 137.011719 406.703125 C 137.011719 404.652344 137.621094 402.988281 138.839844 401.707031 C 140.058594 400.425781 141.5 399.785156 143.164062 399.785156 C 145.921875 399.785156 147.300781 401.128906 147.300781 403.820312 C 147.300781 405.101562 146.914062 406.222656 146.148438 407.183594 C 145.378906 408.144531 144.640625 408.785156 143.933594 409.105469 C 143.230469 409.425781 142.8125 409.582031 142.683594 409.582031 L 142.398438 409.679688 C 142.398438 409.742188 142.589844 409.871094 142.972656 410.0625 C 143.359375 410.257812 143.871094 410.480469 144.511719 410.738281 C 145.152344 410.992188 145.761719 411.089844 146.339844 411.023438 C 148.644531 411.023438 150.632812 409.582031 152.300781 406.703125 C 152.875 405.675781 153.613281 403.5 154.511719 400.167969 C 155.410156 396.835938 156.304688 393.378906 157.203125 389.792969 C 158.101562 386.203125 158.613281 384.089844 158.742188 383.449219 C 159.0625 381.722656 159.222656 380.472656 159.222656 379.703125 C 159.222656 377.910156 158.742188 376.628906 157.78125 375.859375 C 156.820312 375.089844 155.730469 374.707031 154.511719 374.707031 C 151.949219 374.707031 149.542969 375.730469 147.300781 377.78125 C 145.058594 379.832031 143.488281 382.457031 142.589844 385.660156 C 142.460938 386.238281 142.300781 386.558594 142.109375 386.621094 C 141.917969 386.683594 141.402344 386.75 140.570312 386.8125 L 139.222656 386.8125 C 138.839844 386.429688 138.648438 386.078125 138.648438 385.757812 Z M 138.648438 385.757812 " fill-opacity="1" fill-rule="nonzero"/><path fill="#000000" d="M 199.226562 344.699219 C 198.003906 344.699219 197.027344 344.292969 196.304688 343.476562 C 195.578125 342.664062 195.214844 341.667969 195.214844 340.488281 C 195.214844 337.273438 196.417969 334.488281 198.816406 332.132812 C 201.21875 329.777344 204.210938 328.601562 207.789062 328.601562 C 211.914062 328.601562 215.359375 329.871094 218.125 332.40625 C 220.886719 334.941406 222.292969 338.226562 222.335938 342.253906 C 222.335938 344.203125 221.882812 346.058594 220.976562 347.824219 C 220.070312 349.589844 218.984375 351.132812 217.714844 352.445312 C 216.445312 353.757812 214.632812 355.433594 212.277344 357.472656 C 210.644531 358.875 208.378906 360.957031 205.480469 363.722656 L 201.46875 367.523438 L 206.636719 367.59375 C 213.75 367.59375 217.535156 367.480469 217.988281 367.253906 C 218.304688 367.164062 218.847656 365.148438 219.617188 361.207031 L 219.617188 361.003906 L 222.335938 361.003906 L 222.335938 361.207031 C 222.292969 361.34375 221.996094 363.402344 221.453125 367.390625 C 220.910156 371.375 220.570312 373.457031 220.433594 373.636719 L 220.433594 373.84375 L 195.214844 373.84375 L 195.214844 371.738281 C 195.214844 371.417969 195.351562 371.078125 195.625 370.71875 C 195.894531 370.355469 196.574219 369.5625 197.664062 368.339844 C 198.976562 366.890625 200.109375 365.621094 201.0625 364.535156 C 201.46875 364.082031 202.238281 363.246094 203.371094 362.023438 C 204.503906 360.800781 205.277344 359.960938 205.683594 359.507812 C 206.089844 359.054688 206.75 358.308594 207.65625 357.269531 C 208.5625 356.226562 209.195312 355.457031 209.558594 354.957031 C 209.921875 354.460938 210.441406 353.78125 211.121094 352.921875 C 211.800781 352.058594 212.277344 351.335938 212.550781 350.746094 C 212.820312 350.15625 213.160156 349.5 213.570312 348.777344 C 213.976562 348.050781 214.269531 347.328125 214.453125 346.601562 C 214.632812 345.878906 214.792969 345.199219 214.929688 344.566406 C 215.0625 343.929688 215.132812 343.183594 215.132812 342.324219 C 215.132812 339.46875 214.363281 337.003906 212.820312 334.917969 C 211.28125 332.835938 209.082031 331.792969 206.226562 331.792969 C 204.730469 331.792969 203.417969 332.179688 202.285156 332.949219 C 201.152344 333.71875 200.359375 334.464844 199.90625 335.191406 C 199.453125 335.914062 199.226562 336.347656 199.226562 336.480469 C 199.226562 336.527344 199.339844 336.550781 199.566406 336.550781 C 200.382812 336.550781 201.21875 336.867188 202.082031 337.5 C 202.941406 338.132812 203.371094 339.175781 203.371094 340.625 C 203.371094 341.757812 203.011719 342.707031 202.285156 343.476562 C 201.558594 344.25 200.539062 344.65625 199.226562 344.699219 Z M 199.226562 344.699219 " fill-opacity="1" fill-rule="nonzero"/><path fill="#000000" d="M 257.371094 390.753906 C 257.371094 390.753906 257.371094 390.335938 257.371094 389.503906 C 257.371094 388.671875 257.820312 388.03125 258.714844 387.582031 L 287.464844 387.582031 L 287.464844 373.167969 L 287.558594 358.757812 C 288.199219 357.925781 288.808594 357.507812 289.386719 357.507812 C 290.21875 357.507812 290.859375 357.988281 291.308594 358.949219 L 291.308594 387.582031 L 319.960938 387.582031 C 320.921875 388.09375 321.402344 388.734375 321.402344 389.503906 C 321.402344 390.273438 320.921875 390.914062 319.960938 391.425781 L 291.308594 391.425781 L 291.308594 420.058594 C 290.796875 420.953125 290.21875 421.402344 289.578125 421.402344 L 289.195312 421.402344 C 288.425781 421.402344 287.847656 420.953125 287.464844 420.058594 L 287.464844 391.425781 L 258.714844 391.425781 C 257.820312 390.976562 257.371094 390.335938 257.371094 389.503906 Z M 257.371094 390.753906 " fill-opacity="1" fill-rule="nonzero"/><path fill="#000000" d="M 360.363281 369.039062 C 358.632812 369.039062 357.285156 368.492188 356.324219 367.40625 C 355.363281 366.316406 354.851562 364.90625 354.785156 363.175781 C 354.785156 359.65625 356.324219 356.515625 359.402344 353.761719 C 362.476562 351.007812 366.195312 349.628906 370.554688 349.628906 C 372.796875 349.628906 374.207031 349.664062 374.785156 349.726562 C 379.527344 350.496094 383.148438 352.191406 385.648438 354.820312 C 388.148438 357.445312 389.429688 360.296875 389.496094 363.371094 C 389.496094 366.699219 388.40625 369.933594 386.226562 373.074219 C 384.046875 376.210938 381.035156 378.484375 377.1875 379.894531 L 376.898438 380.085938 C 376.898438 380.152344 377.1875 380.246094 377.765625 380.375 C 378.34375 380.503906 379.273438 380.792969 380.554688 381.242188 C 381.835938 381.6875 383.054688 382.359375 384.207031 383.257812 C 389.464844 386.652344 392.089844 391.136719 392.089844 396.710938 C 392.089844 401.769531 390.105469 406.1875 386.128906 409.96875 C 382.15625 413.746094 377.125 415.636719 371.035156 415.636719 C 365.90625 415.636719 361.484375 414.261719 357.765625 411.503906 C 354.050781 408.75 352.191406 405.261719 352.191406 401.03125 C 352.191406 399.238281 352.765625 397.796875 353.921875 396.710938 C 355.074219 395.621094 356.515625 395.042969 358.246094 394.980469 C 360.042969 394.980469 361.515625 395.554688 362.671875 396.710938 C 363.824219 397.863281 364.402344 399.304688 364.402344 401.03125 C 364.402344 401.738281 364.304688 402.378906 364.113281 402.953125 C 363.921875 403.53125 363.695312 404.042969 363.441406 404.492188 C 363.183594 404.941406 362.832031 405.324219 362.382812 405.644531 C 361.933594 405.964844 361.546875 406.222656 361.226562 406.414062 C 360.90625 406.605469 360.585938 406.734375 360.265625 406.796875 C 359.945312 406.863281 359.691406 406.957031 359.496094 407.085938 L 359.113281 407.183594 C 362.382812 410.0625 366.355469 411.503906 371.035156 411.503906 C 374.5625 411.503906 377.21875 409.808594 379.015625 406.414062 C 380.105469 404.300781 380.648438 401.066406 380.648438 396.710938 L 380.648438 394.789062 C 380.648438 388.703125 378.597656 384.636719 374.496094 382.585938 C 373.535156 382.203125 371.578125 381.976562 368.632812 381.914062 L 364.59375 381.816406 L 364.304688 381.625 C 364.175781 381.433594 364.113281 380.921875 364.113281 380.085938 C 364.113281 378.933594 364.367188 378.359375 364.882812 378.359375 C 366.675781 378.359375 368.535156 378.199219 370.457031 377.878906 C 372.636719 377.558594 374.625 376.210938 376.417969 373.84375 C 378.214844 371.472656 379.113281 367.886719 379.113281 363.082031 L 379.113281 362.3125 C 379.113281 358.660156 377.988281 356.132812 375.746094 354.722656 C 374.335938 353.824219 372.828125 353.378906 371.226562 353.378906 C 369.175781 353.378906 367.285156 353.730469 365.554688 354.433594 C 363.824219 355.136719 362.605469 355.875 361.902344 356.644531 C 361.195312 357.414062 360.84375 357.796875 360.84375 357.796875 L 361.132812 357.796875 C 361.324219 357.859375 361.582031 357.925781 361.902344 357.988281 C 362.222656 358.054688 362.542969 358.214844 362.863281 358.46875 C 363.183594 358.726562 363.566406 358.949219 364.015625 359.140625 C 364.464844 359.335938 364.785156 359.6875 364.976562 360.199219 C 365.171875 360.710938 365.425781 361.191406 365.746094 361.640625 C 366.066406 362.089844 366.164062 362.730469 366.035156 363.5625 C 366.035156 364.972656 365.585938 366.21875 364.6875 367.308594 C 363.792969 368.398438 362.351562 368.972656 360.363281 369.039062 Z M 360.363281 369.039062 " fill-opacity="1" fill-rule="nonzero"/><path fill="#000000" d="M 406.707031 372.304688 C 404.976562 372.304688 403.597656 371.726562 402.570312 370.574219 C 401.546875 369.421875 401.03125 368.011719 401.03125 366.347656 C 401.03125 361.800781 402.730469 357.859375 406.128906 354.53125 C 409.527344 351.199219 413.757812 349.535156 418.820312 349.535156 C 424.652344 349.535156 429.523438 351.328125 433.433594 354.914062 C 437.34375 358.5 439.332031 363.144531 439.394531 368.847656 C 439.394531 371.601562 438.753906 374.226562 437.472656 376.726562 C 436.191406 379.222656 434.652344 381.402344 432.859375 383.257812 C 431.0625 385.117188 428.5 387.484375 425.167969 390.367188 C 422.859375 392.355469 419.652344 395.300781 415.550781 399.207031 L 409.878906 404.585938 L 417.1875 404.683594 C 427.25 404.683594 432.601562 404.523438 433.242188 404.203125 C 433.691406 404.074219 434.460938 401.226562 435.550781 395.652344 L 435.550781 395.363281 L 439.394531 395.363281 L 439.394531 395.652344 C 439.332031 395.84375 438.914062 398.757812 438.144531 404.394531 C 437.375 410.03125 436.894531 412.980469 436.703125 413.234375 L 436.703125 413.523438 L 401.03125 413.523438 L 401.03125 410.542969 C 401.03125 410.097656 401.226562 409.617188 401.609375 409.105469 C 401.996094 408.589844 402.957031 407.46875 404.496094 405.742188 C 406.351562 403.691406 407.957031 401.898438 409.300781 400.359375 C 409.878906 399.71875 410.96875 398.535156 412.570312 396.804688 C 414.171875 395.074219 415.261719 393.890625 415.839844 393.25 C 416.417969 392.609375 417.347656 391.554688 418.628906 390.078125 C 419.910156 388.605469 420.808594 387.519531 421.320312 386.8125 C 421.832031 386.109375 422.570312 385.148438 423.53125 383.929688 C 424.492188 382.714844 425.167969 381.6875 425.550781 380.855469 C 425.933594 380.023438 426.417969 379.09375 426.992188 378.070312 C 427.570312 377.042969 427.988281 376.019531 428.242188 374.996094 C 428.5 373.96875 428.722656 373.007812 428.914062 372.113281 C 429.109375 371.214844 429.203125 370.160156 429.203125 368.941406 C 429.203125 364.90625 428.113281 361.414062 425.933594 358.46875 C 423.757812 355.523438 420.648438 354.050781 416.609375 354.050781 C 414.492188 354.050781 412.636719 354.59375 411.03125 355.683594 C 409.429688 356.773438 408.308594 357.828125 407.667969 358.855469 C 407.027344 359.878906 406.707031 360.488281 406.707031 360.679688 C 406.707031 360.742188 406.867188 360.773438 407.1875 360.773438 C 408.339844 360.773438 409.527344 361.222656 410.742188 362.121094 C 411.960938 363.015625 412.570312 364.492188 412.570312 366.539062 C 412.570312 368.140625 412.058594 369.488281 411.03125 370.574219 C 410.007812 371.664062 408.566406 372.242188 406.707031 372.304688 Z M 406.707031 372.304688 " fill-opacity="1" fill-rule="nonzero"/><path fill="#000000" d="M 449.300781 385.757812 C 449.746094 383.066406 451.476562 379.960938 454.492188 376.4375 C 457.503906 372.914062 461.222656 371.121094 465.644531 371.054688 C 467.886719 371.054688 469.9375 371.632812 471.796875 372.785156 C 473.65625 373.9375 475.035156 375.378906 475.933594 377.109375 C 478.625 373.074219 481.859375 371.054688 485.644531 371.054688 C 488.015625 371.054688 490.066406 371.761719 491.796875 373.167969 C 493.527344 374.578125 494.425781 376.46875 494.488281 378.839844 C 494.488281 380.695312 494.039062 382.203125 493.140625 383.355469 C 492.246094 384.507812 491.378906 385.210938 490.546875 385.46875 C 489.714844 385.722656 488.976562 385.851562 488.335938 385.851562 C 487.117188 385.851562 486.125 385.5 485.355469 384.796875 C 484.585938 384.089844 484.199219 383.160156 484.199219 382.007812 C 484.199219 379.0625 485.804688 377.042969 489.007812 375.957031 C 488.304688 375.125 487.019531 374.707031 485.160156 374.707031 C 484.328125 374.707031 483.71875 374.769531 483.335938 374.898438 C 480.898438 375.925781 479.105469 378.039062 477.949219 381.242188 C 474.105469 395.394531 472.183594 403.660156 472.183594 406.027344 C 472.183594 407.824219 472.695312 409.105469 473.71875 409.871094 C 474.746094 410.640625 475.867188 411.023438 477.085938 411.023438 C 479.457031 411.023438 481.796875 409.96875 484.105469 407.855469 C 486.410156 405.742188 487.980469 403.148438 488.816406 400.070312 C 489.007812 399.429688 489.199219 399.078125 489.390625 399.015625 C 489.585938 398.949219 490.097656 398.886719 490.929688 398.824219 L 491.316406 398.824219 C 492.277344 398.824219 492.757812 399.078125 492.757812 399.589844 C 492.757812 399.65625 492.695312 400.007812 492.566406 400.648438 C 491.539062 404.300781 489.554688 407.535156 486.605469 410.351562 C 483.65625 413.171875 480.226562 414.582031 476.316406 414.582031 C 471.828125 414.582031 468.433594 412.5625 466.125 408.527344 C 463.496094 412.5 460.484375 414.484375 457.085938 414.484375 L 456.511719 414.484375 C 453.371094 414.484375 451.125 413.652344 449.78125 411.984375 C 448.433594 410.320312 447.730469 408.558594 447.664062 406.703125 C 447.664062 404.652344 448.273438 402.988281 449.492188 401.707031 C 450.710938 400.425781 452.152344 399.785156 453.816406 399.785156 C 456.574219 399.785156 457.953125 401.128906 457.953125 403.820312 C 457.953125 405.101562 457.566406 406.222656 456.796875 407.183594 C 456.03125 408.144531 455.292969 408.785156 454.585938 409.105469 C 453.882812 409.425781 453.464844 409.582031 453.335938 409.582031 L 453.050781 409.679688 C 453.050781 409.742188 453.242188 409.871094 453.625 410.0625 C 454.011719 410.257812 454.523438 410.480469 455.164062 410.738281 C 455.804688 410.992188 456.414062 411.089844 456.992188 411.023438 C 459.296875 411.023438 461.285156 409.582031 462.953125 406.703125 C 463.527344 405.675781 464.265625 403.5 465.164062 400.167969 C 466.0625 396.835938 466.957031 393.378906 467.855469 389.792969 C 468.753906 386.203125 469.265625 384.089844 469.394531 383.449219 C 469.714844 381.722656 469.875 380.472656 469.875 379.703125 C 469.875 377.910156 469.394531 376.628906 468.433594 375.859375 C 467.472656 375.089844 466.382812 374.707031 465.164062 374.707031 C 462.597656 374.707031 460.195312 375.730469 457.953125 377.78125 C 455.707031 379.832031 454.136719 382.457031 453.242188 385.660156 C 453.113281 386.238281 452.953125 386.558594 452.761719 386.621094 C 452.566406 386.683594 452.054688 386.75 451.222656 386.8125 L 449.875 386.8125 C 449.492188 386.429688 449.300781 386.078125 449.300781 385.757812 Z M 449.300781 385.757812 " fill-opacity="1" fill-rule="nonzero"/><path fill="#000000" d="M 526.042969 390.753906 C 526.042969 390.753906 526.042969 390.335938 526.042969 389.503906 C 526.042969 388.671875 526.492188 388.03125 527.390625 387.582031 L 556.136719 387.582031 L 556.136719 373.167969 L 556.234375 358.757812 C 556.875 357.925781 557.484375 357.507812 558.0625 357.507812 C 558.894531 357.507812 559.535156 357.988281 559.984375 358.949219 L 559.984375 387.582031 L 588.636719 387.582031 C 589.597656 388.09375 590.078125 388.734375 590.078125 389.503906 C 590.078125 390.273438 589.597656 390.914062 588.636719 391.425781 L 559.984375 391.425781 L 559.984375 420.058594 C 559.472656 420.953125 558.894531 421.402344 558.253906 421.402344 L 557.867188 421.402344 C 557.097656 421.402344 556.523438 420.953125 556.136719 420.058594 L 556.136719 391.425781 L 527.390625 391.425781 C 526.492188 390.976562 526.042969 390.335938 526.042969 389.503906 Z M 526.042969 390.753906 " fill-opacity="1" fill-rule="nonzero"/><path fill="#000000" d="M 637.304688 357.988281 L 636.054688 358.46875 C 635.160156 358.789062 633.875 359.109375 632.210938 359.429688 C 630.542969 359.75 628.683594 359.976562 626.632812 360.101562 L 624.804688 360.101562 L 624.804688 355.683594 L 626.632812 355.683594 C 629.644531 355.554688 632.433594 355.074219 635 354.242188 C 637.5625 353.410156 639.355469 352.640625 640.382812 351.9375 C 641.40625 351.230469 642.304688 350.527344 643.074219 349.820312 C 643.203125 349.628906 643.585938 349.535156 644.226562 349.535156 C 644.804688 349.535156 645.351562 349.726562 645.863281 350.109375 L 645.863281 378.839844 L 645.957031 407.664062 C 646.40625 408.109375 646.792969 408.398438 647.113281 408.527344 C 647.433594 408.65625 648.203125 408.785156 649.421875 408.910156 C 650.636719 409.039062 652.625 409.105469 655.382812 409.105469 L 657.882812 409.105469 L 657.882812 413.523438 L 656.824219 413.523438 C 655.476562 413.332031 650.382812 413.234375 641.535156 413.234375 C 632.820312 413.234375 627.785156 413.332031 626.441406 413.523438 L 625.289062 413.523438 L 625.289062 409.105469 L 627.785156 409.105469 C 629.195312 409.105469 630.414062 409.105469 631.441406 409.105469 C 632.464844 409.105469 633.265625 409.070312 633.84375 409.007812 C 634.421875 408.945312 634.933594 408.847656 635.382812 408.71875 C 635.832031 408.589844 636.085938 408.527344 636.152344 408.527344 C 636.214844 408.527344 636.410156 408.367188 636.730469 408.046875 C 637.050781 407.726562 637.242188 407.597656 637.304688 407.664062 Z M 637.304688 357.988281 " fill-opacity="1" fill-rule="nonzero"/><path fill="#000000" d="M 668.9375 383.449219 C 668.9375 373.007812 671.535156 364.746094 676.726562 358.660156 C 681.917969 352.578125 687.6875 349.535156 694.03125 349.535156 C 698.457031 349.535156 701.628906 350.6875 703.550781 352.992188 C 705.472656 355.296875 706.4375 357.859375 706.4375 360.679688 C 706.4375 362.28125 705.988281 363.5625 705.089844 364.523438 C 704.191406 365.484375 702.941406 365.964844 701.339844 365.964844 C 699.867188 365.964844 698.648438 365.515625 697.6875 364.617188 C 696.726562 363.722656 696.242188 362.472656 696.242188 360.871094 C 696.242188 358.054688 697.75 356.355469 700.761719 355.777344 C 699.351562 354.371094 697.367188 353.570312 694.800781 353.378906 C 690.25 353.378906 686.5 355.296875 683.550781 359.140625 C 680.539062 363.371094 679.035156 369.839844 679.035156 378.550781 L 679.128906 378.933594 C 679.449219 378.550781 679.707031 378.132812 679.898438 377.683594 C 682.527344 373.84375 685.957031 371.921875 690.1875 371.921875 L 690.570312 371.921875 C 693.519531 371.921875 696.117188 372.527344 698.359375 373.746094 C 699.898438 374.644531 701.4375 375.925781 702.972656 377.589844 C 704.511719 379.253906 705.761719 381.082031 706.722656 383.066406 C 708.070312 386.203125 708.742188 389.632812 708.742188 393.347656 L 708.742188 395.074219 C 708.742188 396.550781 708.582031 397.925781 708.261719 399.207031 C 707.558594 402.988281 705.507812 406.667969 702.109375 410.257812 C 698.710938 413.84375 694.417969 415.636719 689.226562 415.636719 C 687.429688 415.636719 685.699219 415.378906 684.035156 414.867188 C 682.367188 414.355469 680.570312 413.394531 678.648438 411.984375 C 676.726562 410.578125 675.089844 408.6875 673.746094 406.316406 C 672.398438 403.949219 671.246094 400.839844 670.285156 396.996094 C 669.324219 393.152344 668.875 388.636719 668.9375 383.449219 Z M 689.609375 375.378906 C 687.6875 375.378906 686.019531 375.925781 684.609375 377.011719 C 683.199219 378.101562 682.109375 379.542969 681.339844 381.335938 C 680.570312 383.128906 680.027344 384.957031 679.707031 386.8125 C 679.386719 388.671875 679.195312 390.65625 679.128906 392.769531 C 679.128906 398.085938 679.515625 401.898438 680.285156 404.203125 C 681.050781 406.507812 682.269531 408.367188 683.9375 409.777344 C 685.476562 410.929688 687.175781 411.503906 689.03125 411.503906 C 692.300781 411.503906 694.800781 410.289062 696.53125 407.855469 C 697.367188 406.703125 697.941406 405.261719 698.261719 403.53125 C 698.582031 401.800781 698.742188 398.4375 698.742188 393.441406 C 698.742188 388.316406 698.582031 384.890625 698.261719 383.160156 C 697.941406 381.433594 697.367188 379.992188 696.53125 378.839844 C 694.800781 376.53125 692.496094 375.378906 689.609375 375.378906 Z M 689.609375 375.378906 " fill-opacity="1" fill-rule="nonzero"/></svg>