<svg xmlns="http://www.w3.org/2000/svg" xmlns:xlink="http://www.w3.org/1999/xlink" width="1000" zoomAndPan="magnify" viewBox="0 0 750 749.999995" height="1000" preserveAspectRatio="xMidYMid meet" version="1.0"><rect x="-75" width="900" fill="#ffffff" y="-74.999999" height="899.999994" fill-opacity="1"/><rect x="-75" width="900" fill="#ffffff" y="-74.999999" height="899.999994" fill-opacity="1"/><path fill="#000000" d="M 48.785156 372.097656 C 46.921875 372.097656 45.4375 371.476562 44.332031 370.238281 C 43.226562 368.996094 42.675781 367.476562 42.675781 365.683594 C 42.675781 360.789062 44.503906 356.546875 48.164062 352.960938 C 51.820312 349.375 56.375 347.582031 61.828125 347.582031 C 68.105469 347.582031 73.351562 349.511719 77.5625 353.375 C 81.773438 357.238281 83.910156 362.238281 83.980469 368.375 C 83.980469 371.339844 83.289062 374.167969 81.910156 376.855469 C 80.53125 379.546875 78.875 381.890625 76.941406 383.890625 C 75.007812 385.890625 72.25 388.441406 68.660156 391.546875 C 66.175781 393.683594 62.722656 396.855469 58.308594 401.0625 L 52.199219 406.855469 L 60.066406 406.957031 C 70.902344 406.957031 76.664062 406.785156 77.355469 406.441406 C 77.839844 406.304688 78.667969 403.234375 79.839844 397.234375 L 79.839844 396.925781 L 83.980469 396.925781 L 83.980469 397.234375 C 83.910156 397.441406 83.460938 400.578125 82.632812 406.648438 C 81.804688 412.714844 81.289062 415.890625 81.082031 416.164062 L 81.082031 416.476562 L 42.675781 416.476562 L 42.675781 413.269531 C 42.675781 412.785156 42.882812 412.269531 43.296875 411.714844 C 43.710938 411.164062 44.746094 409.957031 46.402344 408.097656 C 48.402344 405.890625 50.128906 403.957031 51.578125 402.304688 C 52.199219 401.613281 53.375 400.339844 55.097656 398.476562 C 56.824219 396.613281 57.996094 395.339844 58.617188 394.648438 C 59.238281 393.960938 60.238281 392.820312 61.621094 391.234375 C 63 389.648438 63.964844 388.476562 64.519531 387.71875 C 65.070312 386.960938 65.863281 385.925781 66.898438 384.613281 C 67.933594 383.304688 68.660156 382.203125 69.074219 381.304688 C 69.488281 380.410156 70.003906 379.410156 70.625 378.304688 C 71.246094 377.203125 71.695312 376.097656 71.972656 374.996094 C 72.25 373.890625 72.488281 372.855469 72.695312 371.890625 C 72.902344 370.925781 73.007812 369.789062 73.007812 368.476562 C 73.007812 364.132812 71.835938 360.375 69.488281 357.203125 C 67.140625 354.03125 63.792969 352.445312 59.445312 352.445312 C 57.167969 352.445312 55.167969 353.03125 53.441406 354.203125 C 51.714844 355.375 50.507812 356.511719 49.820312 357.617188 C 49.128906 358.71875 48.785156 359.375 48.785156 359.582031 C 48.785156 359.652344 48.957031 359.683594 49.300781 359.683594 C 50.542969 359.683594 51.820312 360.167969 53.132812 361.132812 C 54.441406 362.097656 55.097656 363.683594 55.097656 365.890625 C 55.097656 367.617188 54.546875 369.0625 53.441406 370.238281 C 52.335938 371.410156 50.785156 372.03125 48.785156 372.097656 Z M 48.785156 372.097656 " fill-opacity="1" fill-rule="nonzero"/><path fill="#000000" d="M 106.238281 400.234375 C 106.238281 401.890625 105.683594 403.269531 104.582031 404.371094 C 103.476562 405.476562 102.132812 406.027344 100.542969 406.027344 L 99.820312 406.027344 C 102.992188 411.476562 107.203125 414.199219 112.449219 414.199219 C 117.28125 414.199219 120.800781 412.128906 123.007812 407.992188 C 124.320312 405.71875 124.972656 401.304688 124.972656 394.753906 C 124.972656 387.648438 124.042969 382.855469 122.179688 380.375 C 120.386719 378.097656 118.382812 376.960938 116.175781 376.960938 L 115.554688 376.960938 C 110.171875 376.960938 106.097656 379.304688 103.339844 383.996094 C 103.0625 384.476562 102.820312 384.753906 102.613281 384.820312 C 102.40625 384.890625 101.890625 384.960938 101.0625 385.027344 C 99.886719 385.027344 99.234375 384.820312 99.09375 384.40625 C 98.957031 384.132812 98.886719 378.097656 98.886719 366.304688 L 98.886719 352.960938 C 98.886719 349.511719 99.058594 347.789062 99.40625 347.789062 C 99.542969 347.652344 99.679688 347.582031 99.820312 347.582031 C 99.886719 347.582031 100.613281 347.859375 101.992188 348.410156 C 103.375 348.960938 105.269531 349.511719 107.6875 350.066406 C 110.101562 350.617188 112.691406 350.894531 115.449219 350.894531 C 120.351562 350.894531 125.042969 349.925781 129.527344 347.996094 C 130.082031 347.71875 130.53125 347.582031 130.875 347.582031 C 131.425781 347.582031 131.703125 348.203125 131.703125 349.445312 L 131.703125 350.789062 C 126.042969 357.480469 118.96875 360.824219 110.480469 360.824219 C 108.34375 360.824219 106.410156 360.617188 104.683594 360.203125 L 103.648438 359.996094 L 103.648438 377.789062 C 104.960938 376.824219 105.996094 376.0625 106.753906 375.511719 C 107.515625 374.960938 108.757812 374.410156 110.480469 373.855469 C 112.207031 373.304688 113.964844 373.03125 115.761719 373.03125 C 121.351562 373.03125 126.078125 375.269531 129.945312 379.753906 C 133.808594 384.234375 135.742188 389.546875 135.742188 395.683594 C 135.742188 402.027344 133.53125 407.441406 129.113281 411.921875 C 124.699219 416.40625 119.316406 418.683594 112.964844 418.75 C 107.375 418.75 102.890625 416.890625 99.507812 413.164062 C 96.125 409.441406 94.4375 405.234375 94.4375 400.546875 C 94.4375 398.890625 94.816406 397.578125 95.574219 396.613281 C 96.332031 395.648438 97.128906 395.027344 97.957031 394.753906 C 98.785156 394.476562 99.578125 394.339844 100.335938 394.339844 C 102.0625 394.339844 103.476562 394.925781 104.582031 396.097656 C 105.683594 397.269531 106.238281 398.648438 106.238281 400.234375 Z M 106.238281 400.234375 " fill-opacity="1" fill-rule="nonzero"/><path fill="#000000" d="M 146.402344 386.582031 C 146.886719 383.683594 148.75 380.339844 151.992188 376.546875 C 155.238281 372.753906 159.238281 370.824219 164 370.753906 C 166.417969 370.753906 168.625 371.375 170.625 372.617188 C 172.628906 373.855469 174.113281 375.410156 175.078125 377.269531 C 177.976562 372.925781 181.460938 370.753906 185.535156 370.753906 C 188.085938 370.753906 190.296875 371.511719 192.160156 373.03125 C 194.023438 374.546875 194.988281 376.582031 195.058594 379.132812 C 195.058594 381.132812 194.574219 382.753906 193.609375 383.996094 C 192.640625 385.234375 191.710938 385.996094 190.8125 386.269531 C 189.914062 386.546875 189.121094 386.683594 188.433594 386.683594 C 187.121094 386.683594 186.050781 386.304688 185.222656 385.546875 C 184.394531 384.789062 183.980469 383.789062 183.980469 382.546875 C 183.980469 379.375 185.707031 377.203125 189.15625 376.027344 C 188.398438 375.132812 187.015625 374.683594 185.015625 374.683594 C 184.117188 374.683594 183.464844 374.753906 183.050781 374.890625 C 180.425781 375.996094 178.496094 378.269531 177.253906 381.71875 C 173.109375 396.960938 171.039062 405.855469 171.039062 408.40625 C 171.039062 410.335938 171.59375 411.714844 172.695312 412.542969 C 173.800781 413.371094 175.007812 413.785156 176.320312 413.785156 C 178.875 413.785156 181.394531 412.648438 183.878906 410.371094 C 186.363281 408.097656 188.050781 405.304688 188.949219 401.992188 C 189.15625 401.304688 189.363281 400.925781 189.570312 400.855469 C 189.777344 400.785156 190.328125 400.71875 191.226562 400.648438 L 191.640625 400.648438 C 192.675781 400.648438 193.195312 400.925781 193.195312 401.476562 C 193.195312 401.546875 193.125 401.925781 192.988281 402.613281 C 191.882812 406.542969 189.742188 410.027344 186.570312 413.0625 C 183.394531 416.097656 179.703125 417.613281 175.492188 417.613281 C 170.660156 417.613281 167.003906 415.441406 164.519531 411.097656 C 161.691406 415.371094 158.445312 417.507812 154.789062 417.507812 L 154.167969 417.507812 C 150.785156 417.507812 148.371094 416.613281 146.921875 414.820312 C 145.472656 413.027344 144.710938 411.128906 144.644531 409.128906 C 144.644531 406.925781 145.300781 405.132812 146.609375 403.75 C 147.921875 402.371094 149.472656 401.683594 151.269531 401.683594 C 154.234375 401.683594 155.71875 403.132812 155.71875 406.027344 C 155.71875 407.40625 155.304688 408.613281 154.476562 409.648438 C 153.648438 410.683594 152.855469 411.371094 152.097656 411.714844 C 151.335938 412.0625 150.890625 412.234375 150.75 412.234375 L 150.441406 412.335938 C 150.441406 412.40625 150.648438 412.542969 151.0625 412.75 C 151.476562 412.957031 152.027344 413.199219 152.71875 413.476562 C 153.40625 413.75 154.0625 413.855469 154.683594 413.785156 C 157.167969 413.785156 159.308594 412.234375 161.101562 409.128906 C 161.722656 408.027344 162.519531 405.683594 163.484375 402.097656 C 164.449219 398.511719 165.417969 394.785156 166.382812 390.925781 C 167.347656 387.0625 167.902344 384.789062 168.039062 384.097656 C 168.382812 382.234375 168.554688 380.890625 168.554688 380.0625 C 168.554688 378.132812 168.039062 376.753906 167.003906 375.925781 C 165.96875 375.097656 164.796875 374.683594 163.484375 374.683594 C 160.722656 374.683594 158.136719 375.789062 155.71875 377.996094 C 153.304688 380.203125 151.613281 383.027344 150.648438 386.476562 C 150.507812 387.097656 150.335938 387.441406 150.128906 387.511719 C 149.921875 387.582031 149.371094 387.648438 148.472656 387.71875 L 147.023438 387.71875 C 146.609375 387.304688 146.402344 386.925781 146.402344 386.582031 Z M 146.402344 386.582031 " fill-opacity="1" fill-rule="nonzero"/><path fill="#000000" d="M 211.628906 342.378906 C 210.308594 342.378906 209.261719 341.941406 208.480469 341.0625 C 207.699219 340.183594 207.308594 339.113281 207.308594 337.84375 C 207.308594 334.382812 208.601562 331.386719 211.1875 328.847656 C 213.773438 326.3125 216.996094 325.046875 220.847656 325.046875 C 225.289062 325.046875 228.996094 326.410156 231.972656 329.140625 C 234.949219 331.871094 236.460938 335.40625 236.511719 339.746094 C 236.511719 341.84375 236.023438 343.84375 235.046875 345.742188 C 234.070312 347.644531 232.902344 349.300781 231.535156 350.714844 C 230.167969 352.128906 228.214844 353.933594 225.679688 356.128906 C 223.921875 357.640625 221.484375 359.882812 218.359375 362.855469 L 214.042969 366.953125 L 219.605469 367.023438 C 227.265625 367.023438 231.339844 366.902344 231.828125 366.660156 C 232.167969 366.5625 232.753906 364.390625 233.582031 360.152344 L 233.582031 359.929688 L 236.511719 359.929688 L 236.511719 360.152344 C 236.460938 360.296875 236.144531 362.515625 235.558594 366.804688 C 234.972656 371.097656 234.609375 373.339844 234.460938 373.535156 L 234.460938 373.753906 L 207.308594 373.753906 L 207.308594 371.488281 C 207.308594 371.144531 207.457031 370.78125 207.75 370.390625 C 208.039062 370 208.773438 369.144531 209.945312 367.828125 C 211.359375 366.269531 212.578125 364.90625 213.601562 363.734375 C 214.042969 363.246094 214.871094 362.34375 216.089844 361.027344 C 217.3125 359.710938 218.140625 358.808594 218.582031 358.324219 C 219.019531 357.835938 219.726562 357.03125 220.703125 355.910156 C 221.679688 354.789062 222.363281 353.957031 222.75 353.421875 C 223.140625 352.886719 223.703125 352.15625 224.433594 351.226562 C 225.167969 350.300781 225.679688 349.523438 225.972656 348.886719 C 226.265625 348.253906 226.628906 347.546875 227.070312 346.765625 C 227.507812 345.988281 227.828125 345.207031 228.019531 344.425781 C 228.214844 343.648438 228.386719 342.914062 228.535156 342.234375 C 228.679688 341.550781 228.753906 340.746094 228.753906 339.820312 C 228.753906 336.746094 227.925781 334.089844 226.265625 331.847656 C 224.605469 329.605469 222.238281 328.484375 219.164062 328.484375 C 217.554688 328.484375 216.140625 328.898438 214.921875 329.726562 C 213.699219 330.554688 212.847656 331.359375 212.359375 332.140625 C 211.871094 332.921875 211.628906 333.382812 211.628906 333.53125 C 211.628906 333.578125 211.75 333.601562 211.992188 333.601562 C 212.871094 333.601562 213.773438 333.945312 214.699219 334.628906 C 215.628906 335.308594 216.089844 336.429688 216.089844 337.992188 C 216.089844 339.210938 215.703125 340.234375 214.921875 341.0625 C 214.140625 341.890625 213.042969 342.332031 211.628906 342.378906 Z M 211.628906 342.378906 " fill-opacity="1" fill-rule="nonzero"/><path fill="#000000" d="M 274.230469 391.960938 C 274.230469 391.960938 274.230469 391.511719 274.230469 390.613281 C 274.230469 389.71875 274.710938 389.027344 275.679688 388.546875 L 306.632812 388.546875 L 306.632812 373.03125 L 306.734375 357.511719 C 307.425781 356.617188 308.082031 356.167969 308.703125 356.167969 C 309.597656 356.167969 310.289062 356.6875 310.773438 357.71875 L 310.773438 388.546875 L 341.621094 388.546875 C 342.65625 389.097656 343.175781 389.785156 343.175781 390.613281 C 343.175781 391.441406 342.65625 392.132812 341.621094 392.683594 L 310.773438 392.683594 L 310.773438 423.507812 C 310.21875 424.472656 309.597656 424.957031 308.910156 424.957031 L 308.496094 424.957031 C 307.667969 424.957031 307.046875 424.472656 306.632812 423.507812 L 306.632812 392.683594 L 275.679688 392.683594 C 274.710938 392.199219 274.230469 391.511719 274.230469 390.613281 Z M 274.230469 391.960938 " fill-opacity="1" fill-rule="nonzero"/><path fill="#000000" d="M 385.121094 368.582031 C 383.257812 368.582031 381.808594 367.996094 380.773438 366.824219 C 379.738281 365.652344 379.183594 364.132812 379.117188 362.269531 C 379.117188 358.480469 380.773438 355.097656 384.085938 352.132812 C 387.398438 349.167969 391.398438 347.6875 396.09375 347.6875 C 398.507812 347.6875 400.027344 347.71875 400.648438 347.789062 C 405.753906 348.617188 409.65625 350.445312 412.347656 353.273438 C 415.039062 356.097656 416.417969 359.167969 416.488281 362.476562 C 416.488281 366.0625 415.3125 369.546875 412.96875 372.925781 C 410.621094 376.304688 407.378906 378.753906 403.234375 380.269531 L 402.925781 380.476562 C 402.925781 380.546875 403.234375 380.648438 403.855469 380.789062 C 404.476562 380.925781 405.480469 381.234375 406.859375 381.71875 C 408.238281 382.203125 409.550781 382.925781 410.792969 383.890625 C 416.453125 387.546875 419.28125 392.375 419.28125 398.371094 C 419.28125 403.820312 417.140625 408.578125 412.863281 412.648438 C 408.585938 416.714844 403.167969 418.75 396.609375 418.75 C 391.089844 418.75 386.328125 417.269531 382.324219 414.304688 C 378.324219 411.335938 376.320312 407.578125 376.320312 403.027344 C 376.320312 401.097656 376.941406 399.546875 378.183594 398.371094 C 379.425781 397.199219 380.980469 396.578125 382.84375 396.511719 C 384.773438 396.511719 386.363281 397.132812 387.605469 398.371094 C 388.847656 399.613281 389.46875 401.164062 389.46875 403.027344 C 389.46875 403.785156 389.363281 404.476562 389.15625 405.097656 C 388.949219 405.71875 388.707031 406.269531 388.433594 406.75 C 388.15625 407.234375 387.777344 407.648438 387.292969 407.992188 C 386.8125 408.335938 386.398438 408.613281 386.050781 408.820312 C 385.707031 409.027344 385.363281 409.164062 385.015625 409.234375 C 384.671875 409.304688 384.394531 409.40625 384.1875 409.542969 L 383.773438 409.648438 C 387.292969 412.75 391.574219 414.304688 396.609375 414.304688 C 400.40625 414.304688 403.269531 412.476562 405.203125 408.820312 C 406.375 406.542969 406.960938 403.0625 406.960938 398.371094 L 406.960938 396.304688 C 406.960938 389.753906 404.753906 385.375 400.335938 383.167969 C 399.300781 382.753906 397.199219 382.511719 394.023438 382.441406 L 389.675781 382.339844 L 389.363281 382.132812 C 389.226562 381.925781 389.15625 381.375 389.15625 380.476562 C 389.15625 379.234375 389.433594 378.617188 389.984375 378.617188 C 391.917969 378.617188 393.917969 378.441406 395.988281 378.097656 C 398.335938 377.753906 400.476562 376.304688 402.40625 373.753906 C 404.339844 371.203125 405.304688 367.339844 405.304688 362.167969 L 405.304688 361.339844 C 405.304688 357.410156 404.097656 354.6875 401.683594 353.167969 C 400.164062 352.203125 398.542969 351.71875 396.816406 351.71875 C 394.609375 351.71875 392.574219 352.101562 390.710938 352.859375 C 388.847656 353.617188 387.535156 354.410156 386.777344 355.238281 C 386.015625 356.066406 385.636719 356.480469 385.636719 356.480469 L 385.949219 356.480469 C 386.15625 356.546875 386.429688 356.617188 386.777344 356.6875 C 387.121094 356.753906 387.464844 356.925781 387.8125 357.203125 C 388.15625 357.480469 388.570312 357.71875 389.054688 357.925781 C 389.535156 358.132812 389.882812 358.511719 390.089844 359.066406 C 390.296875 359.617188 390.570312 360.132812 390.917969 360.617188 C 391.261719 361.097656 391.367188 361.789062 391.226562 362.683594 C 391.226562 364.203125 390.746094 365.546875 389.777344 366.71875 C 388.8125 367.890625 387.257812 368.511719 385.121094 368.582031 Z M 385.121094 368.582031 " fill-opacity="1" fill-rule="nonzero"/><path fill="#000000" d="M 433.671875 355.960938 C 437.535156 350.375 442.816406 347.582031 449.507812 347.582031 C 452.820312 347.582031 456.136719 348.480469 459.449219 350.273438 C 462.761719 352.066406 465.453125 355.238281 467.523438 359.789062 C 470.074219 365.511719 471.351562 373.375 471.351562 383.375 C 471.351562 394.0625 469.867188 402.234375 466.902344 407.890625 C 465.519531 410.785156 463.621094 413.097656 461.207031 414.820312 C 458.792969 416.542969 456.6875 417.613281 454.894531 418.027344 C 453.097656 418.441406 451.339844 418.683594 449.613281 418.75 C 447.820312 418.75 446.023438 418.542969 444.230469 418.128906 C 442.4375 417.714844 440.332031 416.613281 437.914062 414.820312 C 435.5 413.027344 433.601562 410.714844 432.222656 407.890625 C 429.253906 402.234375 427.769531 394.0625 427.769531 383.375 C 427.769531 371.375 429.738281 362.238281 433.671875 355.960938 Z M 456.964844 354.71875 C 454.894531 352.511719 452.441406 351.410156 449.613281 351.410156 C 446.714844 351.410156 444.230469 352.511719 442.160156 354.71875 C 440.433594 356.511719 439.296875 358.996094 438.742188 362.167969 C 438.191406 365.339844 437.914062 371.960938 437.914062 382.027344 C 437.914062 392.925781 438.191406 400.097656 438.742188 403.542969 C 439.296875 406.992188 440.539062 409.71875 442.46875 411.714844 C 444.402344 413.785156 446.785156 414.820312 449.613281 414.820312 C 452.375 414.820312 454.71875 413.785156 456.652344 411.714844 C 458.652344 409.648438 459.894531 406.75 460.378906 403.027344 C 460.863281 399.304688 461.136719 392.304688 461.207031 382.027344 C 461.207031 372.03125 460.929688 365.445312 460.378906 362.269531 C 459.828125 359.097656 458.6875 356.582031 456.964844 354.71875 Z M 456.964844 354.71875 " fill-opacity="1" fill-rule="nonzero"/><path fill="#000000" d="M 480.875 386.582031 C 481.359375 383.683594 483.222656 380.339844 486.464844 376.546875 C 489.710938 372.753906 493.710938 370.824219 498.472656 370.753906 C 500.890625 370.753906 503.097656 371.375 505.101562 372.617188 C 507.101562 373.855469 508.585938 375.410156 509.550781 377.269531 C 512.449219 372.925781 515.933594 370.753906 520.007812 370.753906 C 522.558594 370.753906 524.769531 371.511719 526.632812 373.03125 C 528.496094 374.546875 529.460938 376.582031 529.53125 379.132812 C 529.53125 381.132812 529.046875 382.753906 528.082031 383.996094 C 527.113281 385.234375 526.183594 385.996094 525.285156 386.269531 C 524.390625 386.546875 523.59375 386.683594 522.90625 386.683594 C 521.59375 386.683594 520.523438 386.304688 519.695312 385.546875 C 518.867188 384.789062 518.453125 383.789062 518.453125 382.546875 C 518.453125 379.375 520.179688 377.203125 523.628906 376.027344 C 522.871094 375.132812 521.492188 374.683594 519.488281 374.683594 C 518.59375 374.683594 517.9375 374.753906 517.523438 374.890625 C 514.898438 375.996094 512.96875 378.269531 511.726562 381.71875 C 507.585938 396.960938 505.515625 405.855469 505.515625 408.40625 C 505.515625 410.335938 506.066406 411.714844 507.171875 412.542969 C 508.273438 413.371094 509.480469 413.785156 510.792969 413.785156 C 513.347656 413.785156 515.867188 412.648438 518.351562 410.371094 C 520.835938 408.097656 522.527344 405.304688 523.421875 401.992188 C 523.628906 401.304688 523.835938 400.925781 524.042969 400.855469 C 524.25 400.785156 524.804688 400.71875 525.699219 400.648438 L 526.113281 400.648438 C 527.148438 400.648438 527.667969 400.925781 527.667969 401.476562 C 527.667969 401.546875 527.597656 401.925781 527.460938 402.613281 C 526.355469 406.542969 524.214844 410.027344 521.042969 413.0625 C 517.867188 416.097656 514.175781 417.613281 509.964844 417.613281 C 505.132812 417.613281 501.476562 415.441406 498.992188 411.097656 C 496.164062 415.371094 492.917969 417.507812 489.261719 417.507812 L 488.640625 417.507812 C 485.257812 417.507812 482.84375 416.613281 481.394531 414.820312 C 479.945312 413.027344 479.183594 411.128906 479.117188 409.128906 C 479.117188 406.925781 479.773438 405.132812 481.082031 403.75 C 482.394531 402.371094 483.949219 401.683594 485.742188 401.683594 C 488.710938 401.683594 490.191406 403.132812 490.191406 406.027344 C 490.191406 407.40625 489.777344 408.613281 488.949219 409.648438 C 488.121094 410.683594 487.328125 411.371094 486.570312 411.714844 C 485.8125 412.0625 485.363281 412.234375 485.222656 412.234375 L 484.914062 412.335938 C 484.914062 412.40625 485.121094 412.542969 485.535156 412.75 C 485.949219 412.957031 486.5 413.199219 487.191406 413.476562 C 487.882812 413.75 488.535156 413.855469 489.15625 413.785156 C 491.640625 413.785156 493.78125 412.234375 495.574219 409.128906 C 496.195312 408.027344 496.992188 405.683594 497.957031 402.097656 C 498.921875 398.511719 499.890625 394.785156 500.855469 390.925781 C 501.820312 387.0625 502.375 384.789062 502.511719 384.097656 C 502.855469 382.234375 503.03125 380.890625 503.03125 380.0625 C 503.03125 378.132812 502.511719 376.753906 501.476562 375.925781 C 500.441406 375.097656 499.269531 374.683594 497.957031 374.683594 C 495.195312 374.683594 492.609375 375.789062 490.191406 377.996094 C 487.777344 380.203125 486.085938 383.027344 485.121094 386.476562 C 484.984375 387.097656 484.808594 387.441406 484.601562 387.511719 C 484.394531 387.582031 483.84375 387.648438 482.945312 387.71875 L 481.496094 387.71875 C 481.082031 387.304688 480.875 386.925781 480.875 386.582031 Z M 480.875 386.582031 " fill-opacity="1" fill-rule="nonzero"/><path fill="#000000" d="M 563.507812 391.960938 C 563.507812 391.960938 563.507812 391.511719 563.507812 390.613281 C 563.507812 389.71875 563.988281 389.027344 564.957031 388.546875 L 595.90625 388.546875 L 595.90625 373.03125 L 596.011719 357.511719 C 596.703125 356.617188 597.355469 356.167969 597.976562 356.167969 C 598.875 356.167969 599.566406 356.6875 600.046875 357.71875 L 600.046875 388.546875 L 630.898438 388.546875 C 631.933594 389.097656 632.449219 389.785156 632.449219 390.613281 C 632.449219 391.441406 631.933594 392.132812 630.898438 392.683594 L 600.046875 392.683594 L 600.046875 423.507812 C 599.496094 424.472656 598.875 424.957031 598.183594 424.957031 L 597.769531 424.957031 C 596.941406 424.957031 596.320312 424.472656 595.90625 423.507812 L 595.90625 392.683594 L 564.957031 392.683594 C 563.988281 392.199219 563.507812 391.511719 563.507812 390.613281 Z M 563.507812 391.960938 " fill-opacity="1" fill-rule="nonzero"/><path fill="#000000" d="M 697.6875 386.789062 C 694.375 392.027344 690.234375 394.648438 685.265625 394.648438 C 679.882812 394.648438 675.464844 392.613281 672.015625 388.546875 C 668.566406 384.476562 666.496094 380.132812 665.804688 375.511719 C 665.667969 374.410156 665.597656 373.03125 665.597656 371.375 L 665.597656 370.546875 C 665.597656 364.132812 667.976562 358.546875 672.738281 353.789062 C 676.882812 349.652344 681.4375 347.582031 686.40625 347.582031 C 686.542969 347.582031 686.75 347.582031 687.027344 347.582031 C 687.300781 347.582031 687.578125 347.617188 687.855469 347.6875 L 688.269531 347.6875 C 689.097656 347.6875 689.957031 347.753906 690.855469 347.894531 C 691.753906 348.03125 693.03125 348.445312 694.6875 349.132812 C 696.34375 349.824219 697.964844 350.925781 699.550781 352.445312 C 701.140625 353.960938 702.621094 355.996094 704.003906 358.546875 C 706.96875 364.617188 708.453125 372.410156 708.453125 381.925781 C 708.453125 391.578125 706.382812 399.75 702.242188 406.441406 C 699.828125 410.304688 696.929688 413.304688 693.546875 415.441406 C 690.164062 417.578125 686.578125 418.683594 682.78125 418.75 C 678.570312 418.75 675.121094 417.75 672.429688 415.75 C 669.738281 413.75 668.359375 410.785156 668.289062 406.855469 C 668.21875 402.925781 670.046875 400.992188 673.773438 401.0625 C 675.292969 401.0625 676.570312 401.546875 677.605469 402.511719 C 678.640625 403.476562 679.160156 404.820312 679.160156 406.542969 C 679.160156 407.785156 678.847656 408.855469 678.226562 409.75 C 677.605469 410.648438 677.054688 411.199219 676.570312 411.40625 C 676.085938 411.613281 675.636719 411.785156 675.222656 411.921875 L 674.808594 412.027344 C 674.808594 412.164062 675.050781 412.371094 675.535156 412.648438 C 676.019531 412.921875 676.914062 413.269531 678.226562 413.683594 C 679.539062 414.097656 680.988281 414.269531 682.574219 414.199219 L 683.195312 414.199219 C 687.335938 414.199219 690.820312 411.992188 693.652344 407.578125 C 696.34375 403.71875 697.6875 397.027344 697.6875 387.511719 Z M 686.507812 390.820312 C 689.820312 390.820312 692.476562 389.132812 694.480469 385.753906 C 696.480469 382.375 697.515625 377.789062 697.585938 371.996094 C 697.585938 366.617188 697.308594 362.753906 696.757812 360.410156 C 696.617188 359.71875 696.410156 359.03125 696.136719 358.339844 C 695.859375 357.652344 695.375 356.753906 694.6875 355.652344 C 693.996094 354.546875 692.960938 353.617188 691.582031 352.859375 C 690.199219 352.101562 688.578125 351.753906 686.714844 351.824219 C 684.09375 351.824219 681.851562 352.753906 679.988281 354.617188 C 678.539062 356.132812 677.605469 357.925781 677.191406 359.996094 C 676.777344 362.066406 676.535156 365.683594 676.46875 370.855469 C 676.46875 376.582031 676.640625 380.441406 676.984375 382.441406 C 677.328125 384.441406 678.019531 386.0625 679.054688 387.304688 C 680.78125 389.648438 683.265625 390.820312 686.507812 390.820312 Z M 686.507812 390.820312 " fill-opacity="1" fill-rule="nonzero"/></svg>