<svg xmlns="http://www.w3.org/2000/svg" xmlns:xlink="http://www.w3.org/1999/xlink" width="1000" zoomAndPan="magnify" viewBox="0 0 750 749.999995" height="1000" preserveAspectRatio="xMidYMid meet" version="1.0"><rect x="-75" width="900" fill="#ffffff" y="-74.999999" height="899.999994" fill-opacity="1"/><rect x="-75" width="900" fill="#ffffff" y="-74.999999" height="899.999994" fill-opacity="1"/><path fill="#000000" d="M 50.648438 368.582031 C 48.785156 368.582031 47.335938 367.996094 46.300781 366.824219 C 45.265625 365.652344 44.710938 364.132812 44.644531 362.269531 C 44.644531 358.480469 46.300781 355.097656 49.613281 352.132812 C 52.925781 349.167969 56.925781 347.6875 61.621094 347.6875 C 64.035156 347.6875 65.554688 347.71875 66.175781 347.789062 C 71.28125 348.617188 75.179688 350.445312 77.871094 353.273438 C 80.5625 356.097656 81.945312 359.167969 82.011719 362.476562 C 82.011719 366.0625 80.839844 369.546875 78.492188 372.925781 C 76.148438 376.304688 72.902344 378.753906 68.761719 380.269531 L 68.453125 380.476562 C 68.453125 380.546875 68.761719 380.648438 69.382812 380.789062 C 70.003906 380.925781 71.007812 381.234375 72.386719 381.71875 C 73.765625 382.203125 75.078125 382.925781 76.320312 383.890625 C 81.980469 387.546875 84.808594 392.375 84.808594 398.371094 C 84.808594 403.820312 82.667969 408.578125 78.390625 412.648438 C 74.113281 416.714844 68.695312 418.75 62.136719 418.75 C 56.617188 418.75 51.855469 417.269531 47.851562 414.304688 C 43.847656 411.335938 41.847656 407.578125 41.847656 403.027344 C 41.847656 401.097656 42.46875 399.546875 43.710938 398.371094 C 44.953125 397.199219 46.507812 396.578125 48.371094 396.511719 C 50.300781 396.511719 51.890625 397.132812 53.132812 398.371094 C 54.375 399.613281 54.996094 401.164062 54.996094 403.027344 C 54.996094 403.785156 54.890625 404.476562 54.683594 405.097656 C 54.476562 405.71875 54.234375 406.269531 53.960938 406.75 C 53.683594 407.234375 53.304688 407.648438 52.820312 407.992188 C 52.335938 408.335938 51.921875 408.613281 51.578125 408.820312 C 51.234375 409.027344 50.886719 409.164062 50.542969 409.234375 C 50.199219 409.304688 49.921875 409.40625 49.714844 409.542969 L 49.300781 409.648438 C 52.820312 412.75 57.101562 414.304688 62.136719 414.304688 C 65.933594 414.304688 68.796875 412.476562 70.730469 408.820312 C 71.902344 406.542969 72.488281 403.0625 72.488281 398.371094 L 72.488281 396.304688 C 72.488281 389.753906 70.28125 385.375 65.863281 383.167969 C 64.828125 382.753906 62.722656 382.511719 59.550781 382.441406 L 55.203125 382.339844 L 54.890625 382.132812 C 54.753906 381.925781 54.683594 381.375 54.683594 380.476562 C 54.683594 379.234375 54.960938 378.617188 55.511719 378.617188 C 57.445312 378.617188 59.445312 378.441406 61.515625 378.097656 C 63.863281 377.753906 66.003906 376.304688 67.933594 373.753906 C 69.867188 371.203125 70.832031 367.339844 70.832031 362.167969 L 70.832031 361.339844 C 70.832031 357.410156 69.625 354.6875 67.210938 353.167969 C 65.691406 352.203125 64.070312 351.71875 62.34375 351.71875 C 60.136719 351.71875 58.101562 352.101562 56.238281 352.859375 C 54.375 353.617188 53.0625 354.410156 52.304688 355.238281 C 51.542969 356.066406 51.164062 356.480469 51.164062 356.480469 L 51.476562 356.480469 C 51.683594 356.546875 51.957031 356.617188 52.304688 356.6875 C 52.648438 356.753906 52.992188 356.925781 53.339844 357.203125 C 53.683594 357.480469 54.097656 357.71875 54.582031 357.925781 C 55.0625 358.132812 55.410156 358.511719 55.617188 359.066406 C 55.824219 359.617188 56.097656 360.132812 56.445312 360.617188 C 56.789062 361.097656 56.894531 361.789062 56.753906 362.683594 C 56.753906 364.203125 56.273438 365.546875 55.304688 366.71875 C 54.339844 367.890625 52.785156 368.511719 50.648438 368.582031 Z M 50.648438 368.582031 " fill-opacity="1" fill-rule="nonzero"/><path fill="#000000" d="M 93.609375 384.097656 C 93.609375 372.855469 96.402344 363.960938 101.992188 357.410156 C 107.582031 350.859375 113.792969 347.582031 120.625 347.582031 C 125.386719 347.582031 128.804688 348.824219 130.875 351.304688 C 132.945312 353.789062 133.980469 356.546875 133.980469 359.582031 C 133.980469 361.304688 133.496094 362.683594 132.53125 363.71875 C 131.566406 364.753906 130.21875 365.269531 128.492188 365.269531 C 126.90625 365.269531 125.59375 364.789062 124.558594 363.824219 C 123.523438 362.859375 123.007812 361.511719 123.007812 359.789062 C 123.007812 356.753906 124.628906 354.925781 127.871094 354.304688 C 126.355469 352.789062 124.214844 351.925781 121.453125 351.71875 C 116.554688 351.71875 112.515625 353.789062 109.34375 357.925781 C 106.097656 362.476562 104.476562 369.445312 104.476562 378.820312 L 104.582031 379.234375 C 104.925781 378.820312 105.203125 378.375 105.410156 377.890625 C 108.238281 373.753906 111.929688 371.683594 116.484375 371.683594 L 116.898438 371.683594 C 120.074219 371.683594 122.871094 372.339844 125.285156 373.648438 C 126.941406 374.617188 128.597656 375.996094 130.253906 377.789062 C 131.910156 379.582031 133.257812 381.546875 134.292969 383.683594 C 135.742188 387.0625 136.464844 390.753906 136.464844 394.753906 L 136.464844 396.613281 C 136.464844 398.199219 136.292969 399.683594 135.949219 401.0625 C 135.1875 405.132812 132.980469 409.097656 129.320312 412.957031 C 125.664062 416.820312 121.039062 418.75 115.449219 418.75 C 113.519531 418.75 111.65625 418.476562 109.859375 417.921875 C 108.066406 417.371094 106.132812 416.335938 104.0625 414.820312 C 101.992188 413.304688 100.234375 411.269531 98.785156 408.71875 C 97.335938 406.164062 96.09375 402.820312 95.058594 398.683594 C 94.023438 394.546875 93.539062 389.683594 93.609375 384.097656 Z M 115.863281 375.410156 C 113.792969 375.410156 112 375.996094 110.480469 377.167969 C 108.964844 378.339844 107.789062 379.890625 106.960938 381.820312 C 106.132812 383.753906 105.546875 385.71875 105.203125 387.71875 C 104.855469 389.71875 104.648438 391.855469 104.582031 394.132812 C 104.582031 399.855469 104.996094 403.957031 105.824219 406.441406 C 106.652344 408.921875 107.960938 410.921875 109.757812 412.441406 C 111.414062 413.683594 113.242188 414.304688 115.242188 414.304688 C 118.761719 414.304688 121.453125 412.992188 123.316406 410.371094 C 124.214844 409.128906 124.835938 407.578125 125.179688 405.71875 C 125.527344 403.855469 125.699219 400.234375 125.699219 394.855469 C 125.699219 389.339844 125.527344 385.648438 125.179688 383.789062 C 124.835938 381.925781 124.214844 380.375 123.316406 379.132812 C 121.453125 376.648438 118.96875 375.410156 115.863281 375.410156 Z M 115.863281 375.410156 " fill-opacity="1" fill-rule="nonzero"/><path fill="#000000" d="M 146.402344 386.582031 C 146.886719 383.683594 148.75 380.339844 151.992188 376.546875 C 155.238281 372.753906 159.238281 370.824219 164 370.753906 C 166.417969 370.753906 168.625 371.375 170.625 372.617188 C 172.628906 373.855469 174.113281 375.410156 175.078125 377.269531 C 177.976562 372.925781 181.460938 370.753906 185.535156 370.753906 C 188.085938 370.753906 190.296875 371.511719 192.160156 373.03125 C 194.023438 374.546875 194.988281 376.582031 195.058594 379.132812 C 195.058594 381.132812 194.574219 382.753906 193.609375 383.996094 C 192.640625 385.234375 191.710938 385.996094 190.8125 386.269531 C 189.914062 386.546875 189.121094 386.683594 188.433594 386.683594 C 187.121094 386.683594 186.050781 386.304688 185.222656 385.546875 C 184.394531 384.789062 183.980469 383.789062 183.980469 382.546875 C 183.980469 379.375 185.707031 377.203125 189.15625 376.027344 C 188.398438 375.132812 187.015625 374.683594 185.015625 374.683594 C 184.117188 374.683594 183.464844 374.753906 183.050781 374.890625 C 180.425781 375.996094 178.496094 378.269531 177.253906 381.71875 C 173.109375 396.960938 171.039062 405.855469 171.039062 408.40625 C 171.039062 410.335938 171.59375 411.714844 172.695312 412.542969 C 173.800781 413.371094 175.007812 413.785156 176.320312 413.785156 C 178.875 413.785156 181.394531 412.648438 183.878906 410.371094 C 186.363281 408.097656 188.050781 405.304688 188.949219 401.992188 C 189.15625 401.304688 189.363281 400.925781 189.570312 400.855469 C 189.777344 400.785156 190.328125 400.71875 191.226562 400.648438 L 191.640625 400.648438 C 192.675781 400.648438 193.195312 400.925781 193.195312 401.476562 C 193.195312 401.546875 193.125 401.925781 192.988281 402.613281 C 191.882812 406.542969 189.742188 410.027344 186.570312 413.0625 C 183.394531 416.097656 179.703125 417.613281 175.492188 417.613281 C 170.660156 417.613281 167.003906 415.441406 164.519531 411.097656 C 161.691406 415.371094 158.445312 417.507812 154.789062 417.507812 L 154.167969 417.507812 C 150.785156 417.507812 148.371094 416.613281 146.921875 414.820312 C 145.472656 413.027344 144.710938 411.128906 144.644531 409.128906 C 144.644531 406.925781 145.300781 405.132812 146.609375 403.75 C 147.921875 402.371094 149.472656 401.683594 151.269531 401.683594 C 154.234375 401.683594 155.71875 403.132812 155.71875 406.027344 C 155.71875 407.40625 155.304688 408.613281 154.476562 409.648438 C 153.648438 410.683594 152.855469 411.371094 152.097656 411.714844 C 151.335938 412.0625 150.890625 412.234375 150.75 412.234375 L 150.441406 412.335938 C 150.441406 412.40625 150.648438 412.542969 151.0625 412.75 C 151.476562 412.957031 152.027344 413.199219 152.71875 413.476562 C 153.40625 413.75 154.0625 413.855469 154.683594 413.785156 C 157.167969 413.785156 159.308594 412.234375 161.101562 409.128906 C 161.722656 408.027344 162.519531 405.683594 163.484375 402.097656 C 164.449219 398.511719 165.417969 394.785156 166.382812 390.925781 C 167.347656 387.0625 167.902344 384.789062 168.039062 384.097656 C 168.382812 382.234375 168.554688 380.890625 168.554688 380.0625 C 168.554688 378.132812 168.039062 376.753906 167.003906 375.925781 C 165.96875 375.097656 164.796875 374.683594 163.484375 374.683594 C 160.722656 374.683594 158.136719 375.789062 155.71875 377.996094 C 153.304688 380.203125 151.613281 383.027344 150.648438 386.476562 C 150.507812 387.097656 150.335938 387.441406 150.128906 387.511719 C 149.921875 387.582031 149.371094 387.648438 148.472656 387.71875 L 147.023438 387.71875 C 146.609375 387.304688 146.402344 386.925781 146.402344 386.582031 Z M 146.402344 386.582031 " fill-opacity="1" fill-rule="nonzero"/><path fill="#000000" d="M 211.628906 342.378906 C 210.308594 342.378906 209.261719 341.941406 208.480469 341.0625 C 207.699219 340.183594 207.308594 339.113281 207.308594 337.84375 C 207.308594 334.382812 208.601562 331.386719 211.1875 328.847656 C 213.773438 326.3125 216.996094 325.046875 220.847656 325.046875 C 225.289062 325.046875 228.996094 326.410156 231.972656 329.140625 C 234.949219 331.871094 236.460938 335.40625 236.511719 339.746094 C 236.511719 341.84375 236.023438 343.84375 235.046875 345.742188 C 234.070312 347.644531 232.902344 349.300781 231.535156 350.714844 C 230.167969 352.128906 228.214844 353.933594 225.679688 356.128906 C 223.921875 357.640625 221.484375 359.882812 218.359375 362.855469 L 214.042969 366.953125 L 219.605469 367.023438 C 227.265625 367.023438 231.339844 366.902344 231.828125 366.660156 C 232.167969 366.5625 232.753906 364.390625 233.582031 360.152344 L 233.582031 359.929688 L 236.511719 359.929688 L 236.511719 360.152344 C 236.460938 360.296875 236.144531 362.515625 235.558594 366.804688 C 234.972656 371.097656 234.609375 373.339844 234.460938 373.535156 L 234.460938 373.753906 L 207.308594 373.753906 L 207.308594 371.488281 C 207.308594 371.144531 207.457031 370.78125 207.75 370.390625 C 208.039062 370 208.773438 369.144531 209.945312 367.828125 C 211.359375 366.269531 212.578125 364.90625 213.601562 363.734375 C 214.042969 363.246094 214.871094 362.34375 216.089844 361.027344 C 217.3125 359.710938 218.140625 358.808594 218.582031 358.324219 C 219.019531 357.835938 219.726562 357.03125 220.703125 355.910156 C 221.679688 354.789062 222.363281 353.957031 222.75 353.421875 C 223.140625 352.886719 223.703125 352.15625 224.433594 351.226562 C 225.167969 350.300781 225.679688 349.523438 225.972656 348.886719 C 226.265625 348.253906 226.628906 347.546875 227.070312 346.765625 C 227.507812 345.988281 227.828125 345.207031 228.019531 344.425781 C 228.214844 343.648438 228.386719 342.914062 228.535156 342.234375 C 228.679688 341.550781 228.753906 340.746094 228.753906 339.820312 C 228.753906 336.746094 227.925781 334.089844 226.265625 331.847656 C 224.605469 329.605469 222.238281 328.484375 219.164062 328.484375 C 217.554688 328.484375 216.140625 328.898438 214.921875 329.726562 C 213.699219 330.554688 212.847656 331.359375 212.359375 332.140625 C 211.871094 332.921875 211.628906 333.382812 211.628906 333.53125 C 211.628906 333.578125 211.75 333.601562 211.992188 333.601562 C 212.871094 333.601562 213.773438 333.945312 214.699219 334.628906 C 215.628906 335.308594 216.089844 336.429688 216.089844 337.992188 C 216.089844 339.210938 215.703125 340.234375 214.921875 341.0625 C 214.140625 341.890625 213.042969 342.332031 211.628906 342.378906 Z M 211.628906 342.378906 " fill-opacity="1" fill-rule="nonzero"/><path fill="#000000" d="M 274.230469 391.960938 C 274.230469 391.960938 274.230469 391.511719 274.230469 390.613281 C 274.230469 389.71875 274.710938 389.027344 275.679688 388.546875 L 306.632812 388.546875 L 306.632812 373.03125 L 306.734375 357.511719 C 307.425781 356.617188 308.082031 356.167969 308.703125 356.167969 C 309.597656 356.167969 310.289062 356.6875 310.773438 357.71875 L 310.773438 388.546875 L 341.621094 388.546875 C 342.65625 389.097656 343.175781 389.785156 343.175781 390.613281 C 343.175781 391.441406 342.65625 392.132812 341.621094 392.683594 L 310.773438 392.683594 L 310.773438 423.507812 C 310.21875 424.472656 309.597656 424.957031 308.910156 424.957031 L 308.496094 424.957031 C 307.667969 424.957031 307.046875 424.472656 306.632812 423.507812 L 306.632812 392.683594 L 275.679688 392.683594 C 274.710938 392.199219 274.230469 391.511719 274.230469 390.613281 Z M 274.230469 391.960938 " fill-opacity="1" fill-rule="nonzero"/><path fill="#000000" d="M 383.257812 372.097656 C 381.394531 372.097656 379.910156 371.476562 378.804688 370.238281 C 377.703125 368.996094 377.148438 367.476562 377.148438 365.683594 C 377.148438 360.789062 378.976562 356.546875 382.636719 352.960938 C 386.292969 349.375 390.847656 347.582031 396.300781 347.582031 C 402.582031 347.582031 407.824219 349.511719 412.035156 353.375 C 416.246094 357.238281 418.382812 362.238281 418.453125 368.375 C 418.453125 371.339844 417.761719 374.167969 416.382812 376.855469 C 415.003906 379.546875 413.347656 381.890625 411.414062 383.890625 C 409.480469 385.890625 406.722656 388.441406 403.132812 391.546875 C 400.648438 393.683594 397.199219 396.855469 392.78125 401.0625 L 386.671875 406.855469 L 394.539062 406.957031 C 405.375 406.957031 411.136719 406.785156 411.828125 406.441406 C 412.3125 406.304688 413.140625 403.234375 414.3125 397.234375 L 414.3125 396.925781 L 418.453125 396.925781 L 418.453125 397.234375 C 418.382812 397.441406 417.9375 400.578125 417.109375 406.648438 C 416.28125 412.714844 415.761719 415.890625 415.554688 416.164062 L 415.554688 416.476562 L 377.148438 416.476562 L 377.148438 413.269531 C 377.148438 412.785156 377.355469 412.269531 377.769531 411.714844 C 378.183594 411.164062 379.21875 409.957031 380.875 408.097656 C 382.878906 405.890625 384.601562 403.957031 386.050781 402.304688 C 386.671875 401.613281 387.847656 400.339844 389.570312 398.476562 C 391.296875 396.613281 392.46875 395.339844 393.089844 394.648438 C 393.710938 393.960938 394.714844 392.820312 396.09375 391.234375 C 397.472656 389.648438 398.441406 388.476562 398.992188 387.71875 C 399.542969 386.960938 400.335938 385.925781 401.371094 384.613281 C 402.40625 383.304688 403.132812 382.203125 403.546875 381.304688 C 403.960938 380.410156 404.476562 379.410156 405.097656 378.304688 C 405.71875 377.203125 406.167969 376.097656 406.445312 374.996094 C 406.722656 373.890625 406.960938 372.855469 407.167969 371.890625 C 407.378906 370.925781 407.480469 369.789062 407.480469 368.476562 C 407.480469 364.132812 406.308594 360.375 403.960938 357.203125 C 401.613281 354.03125 398.265625 352.445312 393.917969 352.445312 C 391.640625 352.445312 389.640625 353.03125 387.914062 354.203125 C 386.191406 355.375 384.980469 356.511719 384.292969 357.617188 C 383.601562 358.71875 383.257812 359.375 383.257812 359.582031 C 383.257812 359.652344 383.429688 359.683594 383.773438 359.683594 C 385.015625 359.683594 386.292969 360.167969 387.605469 361.132812 C 388.914062 362.097656 389.570312 363.683594 389.570312 365.890625 C 389.570312 367.617188 389.019531 369.0625 387.914062 370.238281 C 386.8125 371.410156 385.257812 372.03125 383.257812 372.097656 Z M 383.257812 372.097656 " fill-opacity="1" fill-rule="nonzero"/><path fill="#000000" d="M 471.558594 416.476562 C 470.316406 416.269531 465.867188 416.164062 458.207031 416.164062 C 450.199219 416.164062 445.574219 416.269531 444.332031 416.476562 L 443.402344 416.476562 L 443.402344 411.714844 L 446.609375 411.714844 C 447.992188 411.714844 448.921875 411.714844 449.40625 411.714844 C 449.890625 411.714844 450.476562 411.648438 451.164062 411.511719 C 451.855469 411.371094 452.339844 411.199219 452.613281 410.992188 C 452.890625 410.785156 453.132812 410.511719 453.339844 410.164062 C 453.410156 410.027344 453.445312 408.164062 453.445312 404.578125 L 453.445312 399.40625 L 426.632812 399.40625 L 426.632812 394.648438 L 442.261719 370.753906 C 452.820312 354.753906 458.171875 346.722656 458.308594 346.652344 C 458.445312 346.515625 459.171875 346.445312 460.484375 346.445312 L 462.347656 346.445312 L 462.96875 347.066406 L 462.96875 394.648438 L 472.492188 394.648438 L 472.492188 399.40625 L 462.96875 399.40625 L 462.96875 404.683594 C 462.96875 407.511719 462.96875 409.164062 462.96875 409.648438 C 462.96875 410.128906 463.175781 410.542969 463.589844 410.890625 C 464.140625 411.371094 466.105469 411.648438 469.488281 411.714844 L 472.492188 411.714844 L 472.492188 416.476562 Z M 454.066406 394.648438 L 454.066406 360.097656 L 431.394531 394.546875 L 442.675781 394.648438 Z M 454.066406 394.648438 " fill-opacity="1" fill-rule="nonzero"/><path fill="#000000" d="M 480.875 386.582031 C 481.359375 383.683594 483.222656 380.339844 486.464844 376.546875 C 489.710938 372.753906 493.710938 370.824219 498.472656 370.753906 C 500.890625 370.753906 503.097656 371.375 505.101562 372.617188 C 507.101562 373.855469 508.585938 375.410156 509.550781 377.269531 C 512.449219 372.925781 515.933594 370.753906 520.007812 370.753906 C 522.558594 370.753906 524.769531 371.511719 526.632812 373.03125 C 528.496094 374.546875 529.460938 376.582031 529.53125 379.132812 C 529.53125 381.132812 529.046875 382.753906 528.082031 383.996094 C 527.113281 385.234375 526.183594 385.996094 525.285156 386.269531 C 524.390625 386.546875 523.59375 386.683594 522.90625 386.683594 C 521.59375 386.683594 520.523438 386.304688 519.695312 385.546875 C 518.867188 384.789062 518.453125 383.789062 518.453125 382.546875 C 518.453125 379.375 520.179688 377.203125 523.628906 376.027344 C 522.871094 375.132812 521.492188 374.683594 519.488281 374.683594 C 518.59375 374.683594 517.9375 374.753906 517.523438 374.890625 C 514.898438 375.996094 512.96875 378.269531 511.726562 381.71875 C 507.585938 396.960938 505.515625 405.855469 505.515625 408.40625 C 505.515625 410.335938 506.066406 411.714844 507.171875 412.542969 C 508.273438 413.371094 509.480469 413.785156 510.792969 413.785156 C 513.347656 413.785156 515.867188 412.648438 518.351562 410.371094 C 520.835938 408.097656 522.527344 405.304688 523.421875 401.992188 C 523.628906 401.304688 523.835938 400.925781 524.042969 400.855469 C 524.25 400.785156 524.804688 400.71875 525.699219 400.648438 L 526.113281 400.648438 C 527.148438 400.648438 527.667969 400.925781 527.667969 401.476562 C 527.667969 401.546875 527.597656 401.925781 527.460938 402.613281 C 526.355469 406.542969 524.214844 410.027344 521.042969 413.0625 C 517.867188 416.097656 514.175781 417.613281 509.964844 417.613281 C 505.132812 417.613281 501.476562 415.441406 498.992188 411.097656 C 496.164062 415.371094 492.917969 417.507812 489.261719 417.507812 L 488.640625 417.507812 C 485.257812 417.507812 482.84375 416.613281 481.394531 414.820312 C 479.945312 413.027344 479.183594 411.128906 479.117188 409.128906 C 479.117188 406.925781 479.773438 405.132812 481.082031 403.75 C 482.394531 402.371094 483.949219 401.683594 485.742188 401.683594 C 488.710938 401.683594 490.191406 403.132812 490.191406 406.027344 C 490.191406 407.40625 489.777344 408.613281 488.949219 409.648438 C 488.121094 410.683594 487.328125 411.371094 486.570312 411.714844 C 485.8125 412.0625 485.363281 412.234375 485.222656 412.234375 L 484.914062 412.335938 C 484.914062 412.40625 485.121094 412.542969 485.535156 412.75 C 485.949219 412.957031 486.5 413.199219 487.191406 413.476562 C 487.882812 413.75 488.535156 413.855469 489.15625 413.785156 C 491.640625 413.785156 493.78125 412.234375 495.574219 409.128906 C 496.195312 408.027344 496.992188 405.683594 497.957031 402.097656 C 498.921875 398.511719 499.890625 394.785156 500.855469 390.925781 C 501.820312 387.0625 502.375 384.789062 502.511719 384.097656 C 502.855469 382.234375 503.03125 380.890625 503.03125 380.0625 C 503.03125 378.132812 502.511719 376.753906 501.476562 375.925781 C 500.441406 375.097656 499.269531 374.683594 497.957031 374.683594 C 495.195312 374.683594 492.609375 375.789062 490.191406 377.996094 C 487.777344 380.203125 486.085938 383.027344 485.121094 386.476562 C 484.984375 387.097656 484.808594 387.441406 484.601562 387.511719 C 484.394531 387.582031 483.84375 387.648438 482.945312 387.71875 L 481.496094 387.71875 C 481.082031 387.304688 480.875 386.925781 480.875 386.582031 Z M 480.875 386.582031 " fill-opacity="1" fill-rule="nonzero"/><path fill="#000000" d="M 563.507812 391.960938 C 563.507812 391.960938 563.507812 391.511719 563.507812 390.613281 C 563.507812 389.71875 563.988281 389.027344 564.957031 388.546875 L 595.90625 388.546875 L 595.90625 373.03125 L 596.011719 357.511719 C 596.703125 356.617188 597.355469 356.167969 597.976562 356.167969 C 598.875 356.167969 599.566406 356.6875 600.046875 357.71875 L 600.046875 388.546875 L 630.898438 388.546875 C 631.933594 389.097656 632.449219 389.785156 632.449219 390.613281 C 632.449219 391.441406 631.933594 392.132812 630.898438 392.683594 L 600.046875 392.683594 L 600.046875 423.507812 C 599.496094 424.472656 598.875 424.957031 598.183594 424.957031 L 597.769531 424.957031 C 596.941406 424.957031 596.320312 424.472656 595.90625 423.507812 L 595.90625 392.683594 L 564.957031 392.683594 C 563.988281 392.199219 563.507812 391.511719 563.507812 390.613281 Z M 563.507812 391.960938 " fill-opacity="1" fill-rule="nonzero"/><path fill="#000000" d="M 709.074219 416.476562 C 707.832031 416.269531 703.382812 416.164062 695.722656 416.164062 C 687.714844 416.164062 683.09375 416.269531 681.851562 416.476562 L 680.917969 416.476562 L 680.917969 411.714844 L 684.128906 411.714844 C 685.507812 411.714844 686.4375 411.714844 686.921875 411.714844 C 687.40625 411.714844 687.992188 411.648438 688.683594 411.511719 C 689.371094 411.371094 689.855469 411.199219 690.132812 410.992188 C 690.40625 410.785156 690.648438 410.511719 690.855469 410.164062 C 690.925781 410.027344 690.960938 408.164062 690.960938 404.578125 L 690.960938 399.40625 L 664.148438 399.40625 L 664.148438 394.648438 L 679.78125 370.753906 C 690.339844 354.753906 695.6875 346.722656 695.824219 346.652344 C 695.964844 346.515625 696.6875 346.445312 698 346.445312 L 699.863281 346.445312 L 700.484375 347.066406 L 700.484375 394.648438 L 710.007812 394.648438 L 710.007812 399.40625 L 700.484375 399.40625 L 700.484375 404.683594 C 700.484375 407.511719 700.484375 409.164062 700.484375 409.648438 C 700.484375 410.128906 700.691406 410.542969 701.105469 410.890625 C 701.65625 411.371094 703.625 411.648438 707.003906 411.714844 L 710.007812 411.714844 L 710.007812 416.476562 Z M 691.582031 394.648438 L 691.582031 360.097656 L 668.910156 394.546875 L 680.195312 394.648438 Z M 691.582031 394.648438 " fill-opacity="1" fill-rule="nonzero"/></svg>