<svg xmlns="http://www.w3.org/2000/svg" xmlns:xlink="http://www.w3.org/1999/xlink" width="1000" zoomAndPan="magnify" viewBox="0 0 750 749.999995" height="1000" preserveAspectRatio="xMidYMid meet" version="1.0"><rect x="-75" width="900" fill="#ffffff" y="-74.999999" height="899.999994" fill-opacity="1"/><rect x="-75" width="900" fill="#ffffff" y="-74.999999" height="899.999994" fill-opacity="1"/><path fill="#000000" d="M 85.328125 416.476562 C 84.085938 416.269531 79.632812 416.164062 71.972656 416.164062 C 63.964844 416.164062 59.34375 416.269531 58.101562 416.476562 L 57.167969 416.476562 L 57.167969 411.714844 L 60.378906 411.714844 C 61.757812 411.714844 62.691406 411.714844 63.171875 411.714844 C 63.65625 411.714844 64.242188 411.648438 64.933594 411.511719 C 65.621094 411.371094 66.105469 411.199219 66.382812 410.992188 C 66.65625 410.785156 66.898438 410.511719 67.105469 410.164062 C 67.175781 410.027344 67.210938 408.164062 67.210938 404.578125 L 67.210938 399.40625 L 40.398438 399.40625 L 40.398438 394.648438 L 56.03125 370.753906 C 66.589844 354.753906 71.9375 346.722656 72.074219 346.652344 C 72.214844 346.515625 72.9375 346.445312 74.25 346.445312 L 76.113281 346.445312 L 76.734375 347.066406 L 76.734375 394.648438 L 86.257812 394.648438 L 86.257812 399.40625 L 76.734375 399.40625 L 76.734375 404.683594 C 76.734375 407.511719 76.734375 409.164062 76.734375 409.648438 C 76.734375 410.128906 76.941406 410.542969 77.355469 410.890625 C 77.90625 411.371094 79.875 411.648438 83.253906 411.714844 L 86.257812 411.714844 L 86.257812 416.476562 Z M 67.832031 394.648438 L 67.832031 360.097656 L 45.160156 394.546875 L 56.445312 394.648438 Z M 67.832031 394.648438 " fill-opacity="1" fill-rule="nonzero"/><path fill="#000000" d="M 125.699219 386.789062 C 122.386719 392.027344 118.246094 394.648438 113.277344 394.648438 C 107.894531 394.648438 103.476562 392.613281 100.027344 388.546875 C 96.574219 384.476562 94.503906 380.132812 93.816406 375.511719 C 93.675781 374.410156 93.609375 373.03125 93.609375 371.375 L 93.609375 370.546875 C 93.609375 364.132812 95.988281 358.546875 100.75 353.789062 C 104.890625 349.652344 109.445312 347.582031 114.414062 347.582031 C 114.554688 347.582031 114.761719 347.582031 115.035156 347.582031 C 115.3125 347.582031 115.589844 347.617188 115.863281 347.6875 L 116.277344 347.6875 C 117.105469 347.6875 117.96875 347.753906 118.867188 347.894531 C 119.765625 348.03125 121.039062 348.445312 122.695312 349.132812 C 124.351562 349.824219 125.976562 350.925781 127.5625 352.445312 C 129.148438 353.960938 130.632812 355.996094 132.015625 358.546875 C 134.980469 364.617188 136.464844 372.410156 136.464844 381.925781 C 136.464844 391.578125 134.394531 399.75 130.253906 406.441406 C 127.839844 410.304688 124.941406 413.304688 121.558594 415.441406 C 118.175781 417.578125 114.589844 418.683594 110.792969 418.75 C 106.582031 418.75 103.132812 417.75 100.441406 415.75 C 97.75 413.75 96.367188 410.785156 96.300781 406.855469 C 96.230469 402.925781 98.058594 400.992188 101.785156 401.0625 C 103.304688 401.0625 104.582031 401.546875 105.617188 402.511719 C 106.652344 403.476562 107.167969 404.820312 107.167969 406.542969 C 107.167969 407.785156 106.859375 408.855469 106.238281 409.75 C 105.617188 410.648438 105.0625 411.199219 104.582031 411.40625 C 104.097656 411.613281 103.648438 411.785156 103.234375 411.921875 L 102.820312 412.027344 C 102.820312 412.164062 103.0625 412.371094 103.546875 412.648438 C 104.027344 412.921875 104.925781 413.269531 106.238281 413.683594 C 107.546875 414.097656 108.996094 414.269531 110.585938 414.199219 L 111.207031 414.199219 C 115.347656 414.199219 118.832031 411.992188 121.660156 407.578125 C 124.351562 403.71875 125.699219 397.027344 125.699219 387.511719 Z M 114.519531 390.820312 C 117.832031 390.820312 120.488281 389.132812 122.488281 385.753906 C 124.492188 382.375 125.527344 377.789062 125.59375 371.996094 C 125.59375 366.617188 125.320312 362.753906 124.765625 360.410156 C 124.628906 359.71875 124.421875 359.03125 124.144531 358.339844 C 123.871094 357.652344 123.386719 356.753906 122.695312 355.652344 C 122.007812 354.546875 120.972656 353.617188 119.589844 352.859375 C 118.210938 352.101562 116.589844 351.753906 114.726562 351.824219 C 112.101562 351.824219 109.859375 352.753906 107.996094 354.617188 C 106.546875 356.132812 105.617188 357.925781 105.203125 359.996094 C 104.789062 362.066406 104.546875 365.683594 104.476562 370.855469 C 104.476562 376.582031 104.648438 380.441406 104.996094 382.441406 C 105.339844 384.441406 106.03125 386.0625 107.066406 387.304688 C 108.789062 389.648438 111.273438 390.820312 114.519531 390.820312 Z M 114.519531 390.820312 " fill-opacity="1" fill-rule="nonzero"/><path fill="#000000" d="M 146.402344 386.582031 C 146.886719 383.683594 148.75 380.339844 151.992188 376.546875 C 155.238281 372.753906 159.238281 370.824219 164 370.753906 C 166.417969 370.753906 168.625 371.375 170.625 372.617188 C 172.628906 373.855469 174.113281 375.410156 175.078125 377.269531 C 177.976562 372.925781 181.460938 370.753906 185.535156 370.753906 C 188.085938 370.753906 190.296875 371.511719 192.160156 373.03125 C 194.023438 374.546875 194.988281 376.582031 195.058594 379.132812 C 195.058594 381.132812 194.574219 382.753906 193.609375 383.996094 C 192.640625 385.234375 191.710938 385.996094 190.8125 386.269531 C 189.914062 386.546875 189.121094 386.683594 188.433594 386.683594 C 187.121094 386.683594 186.050781 386.304688 185.222656 385.546875 C 184.394531 384.789062 183.980469 383.789062 183.980469 382.546875 C 183.980469 379.375 185.707031 377.203125 189.15625 376.027344 C 188.398438 375.132812 187.015625 374.683594 185.015625 374.683594 C 184.117188 374.683594 183.464844 374.753906 183.050781 374.890625 C 180.425781 375.996094 178.496094 378.269531 177.253906 381.71875 C 173.109375 396.960938 171.039062 405.855469 171.039062 408.40625 C 171.039062 410.335938 171.59375 411.714844 172.695312 412.542969 C 173.800781 413.371094 175.007812 413.785156 176.320312 413.785156 C 178.875 413.785156 181.394531 412.648438 183.878906 410.371094 C 186.363281 408.097656 188.050781 405.304688 188.949219 401.992188 C 189.15625 401.304688 189.363281 400.925781 189.570312 400.855469 C 189.777344 400.785156 190.328125 400.71875 191.226562 400.648438 L 191.640625 400.648438 C 192.675781 400.648438 193.195312 400.925781 193.195312 401.476562 C 193.195312 401.546875 193.125 401.925781 192.988281 402.613281 C 191.882812 406.542969 189.742188 410.027344 186.570312 413.0625 C 183.394531 416.097656 179.703125 417.613281 175.492188 417.613281 C 170.660156 417.613281 167.003906 415.441406 164.519531 411.097656 C 161.691406 415.371094 158.445312 417.507812 154.789062 417.507812 L 154.167969 417.507812 C 150.785156 417.507812 148.371094 416.613281 146.921875 414.820312 C 145.472656 413.027344 144.710938 411.128906 144.644531 409.128906 C 144.644531 406.925781 145.300781 405.132812 146.609375 403.75 C 147.921875 402.371094 149.472656 401.683594 151.269531 401.683594 C 154.234375 401.683594 155.71875 403.132812 155.71875 406.027344 C 155.71875 407.40625 155.304688 408.613281 154.476562 409.648438 C 153.648438 410.683594 152.855469 411.371094 152.097656 411.714844 C 151.335938 412.0625 150.890625 412.234375 150.75 412.234375 L 150.441406 412.335938 C 150.441406 412.40625 150.648438 412.542969 151.0625 412.75 C 151.476562 412.957031 152.027344 413.199219 152.71875 413.476562 C 153.40625 413.75 154.0625 413.855469 154.683594 413.785156 C 157.167969 413.785156 159.308594 412.234375 161.101562 409.128906 C 161.722656 408.027344 162.519531 405.683594 163.484375 402.097656 C 164.449219 398.511719 165.417969 394.785156 166.382812 390.925781 C 167.347656 387.0625 167.902344 384.789062 168.039062 384.097656 C 168.382812 382.234375 168.554688 380.890625 168.554688 380.0625 C 168.554688 378.132812 168.039062 376.753906 167.003906 375.925781 C 165.96875 375.097656 164.796875 374.683594 163.484375 374.683594 C 160.722656 374.683594 158.136719 375.789062 155.71875 377.996094 C 153.304688 380.203125 151.613281 383.027344 150.648438 386.476562 C 150.507812 387.097656 150.335938 387.441406 150.128906 387.511719 C 149.921875 387.582031 149.371094 387.648438 148.472656 387.71875 L 147.023438 387.71875 C 146.609375 387.304688 146.402344 386.925781 146.402344 386.582031 Z M 146.402344 386.582031 " fill-opacity="1" fill-rule="nonzero"/><path fill="#000000" d="M 211.628906 342.378906 C 210.308594 342.378906 209.261719 341.941406 208.480469 341.0625 C 207.699219 340.183594 207.308594 339.113281 207.308594 337.84375 C 207.308594 334.382812 208.601562 331.386719 211.1875 328.847656 C 213.773438 326.3125 216.996094 325.046875 220.847656 325.046875 C 225.289062 325.046875 228.996094 326.410156 231.972656 329.140625 C 234.949219 331.871094 236.460938 335.40625 236.511719 339.746094 C 236.511719 341.84375 236.023438 343.84375 235.046875 345.742188 C 234.070312 347.644531 232.902344 349.300781 231.535156 350.714844 C 230.167969 352.128906 228.214844 353.933594 225.679688 356.128906 C 223.921875 357.640625 221.484375 359.882812 218.359375 362.855469 L 214.042969 366.953125 L 219.605469 367.023438 C 227.265625 367.023438 231.339844 366.902344 231.828125 366.660156 C 232.167969 366.5625 232.753906 364.390625 233.582031 360.152344 L 233.582031 359.929688 L 236.511719 359.929688 L 236.511719 360.152344 C 236.460938 360.296875 236.144531 362.515625 235.558594 366.804688 C 234.972656 371.097656 234.609375 373.339844 234.460938 373.535156 L 234.460938 373.753906 L 207.308594 373.753906 L 207.308594 371.488281 C 207.308594 371.144531 207.457031 370.78125 207.75 370.390625 C 208.039062 370 208.773438 369.144531 209.945312 367.828125 C 211.359375 366.269531 212.578125 364.90625 213.601562 363.734375 C 214.042969 363.246094 214.871094 362.34375 216.089844 361.027344 C 217.3125 359.710938 218.140625 358.808594 218.582031 358.324219 C 219.019531 357.835938 219.726562 357.03125 220.703125 355.910156 C 221.679688 354.789062 222.363281 353.957031 222.75 353.421875 C 223.140625 352.886719 223.703125 352.15625 224.433594 351.226562 C 225.167969 350.300781 225.679688 349.523438 225.972656 348.886719 C 226.265625 348.253906 226.628906 347.546875 227.070312 346.765625 C 227.507812 345.988281 227.828125 345.207031 228.019531 344.425781 C 228.214844 343.648438 228.386719 342.914062 228.535156 342.234375 C 228.679688 341.550781 228.753906 340.746094 228.753906 339.820312 C 228.753906 336.746094 227.925781 334.089844 226.265625 331.847656 C 224.605469 329.605469 222.238281 328.484375 219.164062 328.484375 C 217.554688 328.484375 216.140625 328.898438 214.921875 329.726562 C 213.699219 330.554688 212.847656 331.359375 212.359375 332.140625 C 211.871094 332.921875 211.628906 333.382812 211.628906 333.53125 C 211.628906 333.578125 211.75 333.601562 211.992188 333.601562 C 212.871094 333.601562 213.773438 333.945312 214.699219 334.628906 C 215.628906 335.308594 216.089844 336.429688 216.089844 337.992188 C 216.089844 339.210938 215.703125 340.234375 214.921875 341.0625 C 214.140625 341.890625 213.042969 342.332031 211.628906 342.378906 Z M 211.628906 342.378906 " fill-opacity="1" fill-rule="nonzero"/><path fill="#000000" d="M 274.230469 391.960938 C 274.230469 391.960938 274.230469 391.511719 274.230469 390.613281 C 274.230469 389.71875 274.710938 389.027344 275.679688 388.546875 L 306.632812 388.546875 L 306.632812 373.03125 L 306.734375 357.511719 C 307.425781 356.617188 308.082031 356.167969 308.703125 356.167969 C 309.597656 356.167969 310.289062 356.6875 310.773438 357.71875 L 310.773438 388.546875 L 341.621094 388.546875 C 342.65625 389.097656 343.175781 389.785156 343.175781 390.613281 C 343.175781 391.441406 342.65625 392.132812 341.621094 392.683594 L 310.773438 392.683594 L 310.773438 423.507812 C 310.21875 424.472656 309.597656 424.957031 308.910156 424.957031 L 308.496094 424.957031 C 307.667969 424.957031 307.046875 424.472656 306.632812 423.507812 L 306.632812 392.683594 L 275.679688 392.683594 C 274.710938 392.199219 274.230469 391.511719 274.230469 390.613281 Z M 274.230469 391.960938 " fill-opacity="1" fill-rule="nonzero"/><path fill="#000000" d="M 394.023438 356.6875 L 392.675781 357.203125 C 391.710938 357.546875 390.332031 357.890625 388.535156 358.238281 C 386.742188 358.582031 384.742188 358.824219 382.53125 358.960938 L 380.566406 358.960938 L 380.566406 354.203125 L 382.53125 354.203125 C 385.777344 354.066406 388.777344 353.546875 391.539062 352.652344 C 394.300781 351.753906 396.230469 350.925781 397.335938 350.167969 C 398.441406 349.410156 399.40625 348.652344 400.234375 347.894531 C 400.371094 347.6875 400.785156 347.582031 401.476562 347.582031 C 402.097656 347.582031 402.683594 347.789062 403.234375 348.203125 L 403.234375 379.132812 L 403.339844 410.164062 C 403.824219 410.648438 404.238281 410.957031 404.582031 411.097656 C 404.925781 411.234375 405.753906 411.371094 407.066406 411.511719 C 408.378906 411.648438 410.515625 411.714844 413.484375 411.714844 L 416.175781 411.714844 L 416.175781 416.476562 L 415.039062 416.476562 C 413.589844 416.269531 408.101562 416.164062 398.578125 416.164062 C 389.191406 416.164062 383.773438 416.269531 382.324219 416.476562 L 381.082031 416.476562 L 381.082031 411.714844 L 383.773438 411.714844 C 385.292969 411.714844 386.605469 411.714844 387.707031 411.714844 C 388.8125 411.714844 389.675781 411.683594 390.296875 411.613281 C 390.917969 411.542969 391.46875 411.441406 391.953125 411.304688 C 392.4375 411.164062 392.710938 411.097656 392.78125 411.097656 C 392.851562 411.097656 393.058594 410.921875 393.402344 410.578125 C 393.746094 410.234375 393.953125 410.097656 394.023438 410.164062 Z M 394.023438 356.6875 " fill-opacity="1" fill-rule="nonzero"/><path fill="#000000" d="M 471.558594 416.476562 C 470.316406 416.269531 465.867188 416.164062 458.207031 416.164062 C 450.199219 416.164062 445.574219 416.269531 444.332031 416.476562 L 443.402344 416.476562 L 443.402344 411.714844 L 446.609375 411.714844 C 447.992188 411.714844 448.921875 411.714844 449.40625 411.714844 C 449.890625 411.714844 450.476562 411.648438 451.164062 411.511719 C 451.855469 411.371094 452.339844 411.199219 452.613281 410.992188 C 452.890625 410.785156 453.132812 410.511719 453.339844 410.164062 C 453.410156 410.027344 453.445312 408.164062 453.445312 404.578125 L 453.445312 399.40625 L 426.632812 399.40625 L 426.632812 394.648438 L 442.261719 370.753906 C 452.820312 354.753906 458.171875 346.722656 458.308594 346.652344 C 458.445312 346.515625 459.171875 346.445312 460.484375 346.445312 L 462.347656 346.445312 L 462.96875 347.066406 L 462.96875 394.648438 L 472.492188 394.648438 L 472.492188 399.40625 L 462.96875 399.40625 L 462.96875 404.683594 C 462.96875 407.511719 462.96875 409.164062 462.96875 409.648438 C 462.96875 410.128906 463.175781 410.542969 463.589844 410.890625 C 464.140625 411.371094 466.105469 411.648438 469.488281 411.714844 L 472.492188 411.714844 L 472.492188 416.476562 Z M 454.066406 394.648438 L 454.066406 360.097656 L 431.394531 394.546875 L 442.675781 394.648438 Z M 454.066406 394.648438 " fill-opacity="1" fill-rule="nonzero"/><path fill="#000000" d="M 480.875 386.582031 C 481.359375 383.683594 483.222656 380.339844 486.464844 376.546875 C 489.710938 372.753906 493.710938 370.824219 498.472656 370.753906 C 500.890625 370.753906 503.097656 371.375 505.101562 372.617188 C 507.101562 373.855469 508.585938 375.410156 509.550781 377.269531 C 512.449219 372.925781 515.933594 370.753906 520.007812 370.753906 C 522.558594 370.753906 524.769531 371.511719 526.632812 373.03125 C 528.496094 374.546875 529.460938 376.582031 529.53125 379.132812 C 529.53125 381.132812 529.046875 382.753906 528.082031 383.996094 C 527.113281 385.234375 526.183594 385.996094 525.285156 386.269531 C 524.390625 386.546875 523.59375 386.683594 522.90625 386.683594 C 521.59375 386.683594 520.523438 386.304688 519.695312 385.546875 C 518.867188 384.789062 518.453125 383.789062 518.453125 382.546875 C 518.453125 379.375 520.179688 377.203125 523.628906 376.027344 C 522.871094 375.132812 521.492188 374.683594 519.488281 374.683594 C 518.59375 374.683594 517.9375 374.753906 517.523438 374.890625 C 514.898438 375.996094 512.96875 378.269531 511.726562 381.71875 C 507.585938 396.960938 505.515625 405.855469 505.515625 408.40625 C 505.515625 410.335938 506.066406 411.714844 507.171875 412.542969 C 508.273438 413.371094 509.480469 413.785156 510.792969 413.785156 C 513.347656 413.785156 515.867188 412.648438 518.351562 410.371094 C 520.835938 408.097656 522.527344 405.304688 523.421875 401.992188 C 523.628906 401.304688 523.835938 400.925781 524.042969 400.855469 C 524.25 400.785156 524.804688 400.71875 525.699219 400.648438 L 526.113281 400.648438 C 527.148438 400.648438 527.667969 400.925781 527.667969 401.476562 C 527.667969 401.546875 527.597656 401.925781 527.460938 402.613281 C 526.355469 406.542969 524.214844 410.027344 521.042969 413.0625 C 517.867188 416.097656 514.175781 417.613281 509.964844 417.613281 C 505.132812 417.613281 501.476562 415.441406 498.992188 411.097656 C 496.164062 415.371094 492.917969 417.507812 489.261719 417.507812 L 488.640625 417.507812 C 485.257812 417.507812 482.84375 416.613281 481.394531 414.820312 C 479.945312 413.027344 479.183594 411.128906 479.117188 409.128906 C 479.117188 406.925781 479.773438 405.132812 481.082031 403.75 C 482.394531 402.371094 483.949219 401.683594 485.742188 401.683594 C 488.710938 401.683594 490.191406 403.132812 490.191406 406.027344 C 490.191406 407.40625 489.777344 408.613281 488.949219 409.648438 C 488.121094 410.683594 487.328125 411.371094 486.570312 411.714844 C 485.8125 412.0625 485.363281 412.234375 485.222656 412.234375 L 484.914062 412.335938 C 484.914062 412.40625 485.121094 412.542969 485.535156 412.75 C 485.949219 412.957031 486.5 413.199219 487.191406 413.476562 C 487.882812 413.75 488.535156 413.855469 489.15625 413.785156 C 491.640625 413.785156 493.78125 412.234375 495.574219 409.128906 C 496.195312 408.027344 496.992188 405.683594 497.957031 402.097656 C 498.921875 398.511719 499.890625 394.785156 500.855469 390.925781 C 501.820312 387.0625 502.375 384.789062 502.511719 384.097656 C 502.855469 382.234375 503.03125 380.890625 503.03125 380.0625 C 503.03125 378.132812 502.511719 376.753906 501.476562 375.925781 C 500.441406 375.097656 499.269531 374.683594 497.957031 374.683594 C 495.195312 374.683594 492.609375 375.789062 490.191406 377.996094 C 487.777344 380.203125 486.085938 383.027344 485.121094 386.476562 C 484.984375 387.097656 484.808594 387.441406 484.601562 387.511719 C 484.394531 387.582031 483.84375 387.648438 482.945312 387.71875 L 481.496094 387.71875 C 481.082031 387.304688 480.875 386.925781 480.875 386.582031 Z M 480.875 386.582031 " fill-opacity="1" fill-rule="nonzero"/><path fill="#000000" d="M 563.507812 391.960938 C 563.507812 391.960938 563.507812 391.511719 563.507812 390.613281 C 563.507812 389.71875 563.988281 389.027344 564.957031 388.546875 L 595.90625 388.546875 L 595.90625 373.03125 L 596.011719 357.511719 C 596.703125 356.617188 597.355469 356.167969 597.976562 356.167969 C 598.875 356.167969 599.566406 356.6875 600.046875 357.71875 L 600.046875 388.546875 L 630.898438 388.546875 C 631.933594 389.097656 632.449219 389.785156 632.449219 390.613281 C 632.449219 391.441406 631.933594 392.132812 630.898438 392.683594 L 600.046875 392.683594 L 600.046875 423.507812 C 599.496094 424.472656 598.875 424.957031 598.183594 424.957031 L 597.769531 424.957031 C 596.941406 424.957031 596.320312 424.472656 595.90625 423.507812 L 595.90625 392.683594 L 564.957031 392.683594 C 563.988281 392.199219 563.507812 391.511719 563.507812 390.613281 Z M 563.507812 391.960938 " fill-opacity="1" fill-rule="nonzero"/><path fill="#000000" d="M 683.300781 356.6875 L 681.953125 357.203125 C 680.988281 357.546875 679.605469 357.890625 677.8125 358.238281 C 676.019531 358.582031 674.015625 358.824219 671.808594 358.960938 L 669.839844 358.960938 L 669.839844 354.203125 L 671.808594 354.203125 C 675.050781 354.066406 678.054688 353.546875 680.816406 352.652344 C 683.574219 351.753906 685.507812 350.925781 686.613281 350.167969 C 687.714844 349.410156 688.683594 348.652344 689.511719 347.894531 C 689.648438 347.6875 690.0625 347.582031 690.753906 347.582031 C 691.375 347.582031 691.960938 347.789062 692.511719 348.203125 L 692.511719 379.132812 L 692.617188 410.164062 C 693.097656 410.648438 693.511719 410.957031 693.859375 411.097656 C 694.203125 411.234375 695.03125 411.371094 696.34375 411.511719 C 697.652344 411.648438 699.792969 411.714844 702.761719 411.714844 L 705.453125 411.714844 L 705.453125 416.476562 L 704.3125 416.476562 C 702.863281 416.269531 697.378906 416.164062 687.855469 416.164062 C 678.46875 416.164062 673.050781 416.269531 671.601562 416.476562 L 670.359375 416.476562 L 670.359375 411.714844 L 673.050781 411.714844 C 674.570312 411.714844 675.878906 411.714844 676.984375 411.714844 C 678.089844 411.714844 678.953125 411.683594 679.574219 411.613281 C 680.195312 411.542969 680.746094 411.441406 681.230469 411.304688 C 681.710938 411.164062 681.988281 411.097656 682.058594 411.097656 C 682.125 411.097656 682.332031 410.921875 682.679688 410.578125 C 683.023438 410.234375 683.230469 410.097656 683.300781 410.164062 Z M 683.300781 356.6875 " fill-opacity="1" fill-rule="nonzero"/></svg>