<svg xmlns="http://www.w3.org/2000/svg" xmlns:xlink="http://www.w3.org/1999/xlink" width="1000" zoomAndPan="magnify" viewBox="0 0 750 749.999995" height="1000" preserveAspectRatio="xMidYMid meet" version="1.0"><rect x="-75" width="900" fill="#ffffff" y="-74.999999" height="899.999994" fill-opacity="1"/><rect x="-75" width="900" fill="#ffffff" y="-74.999999" height="899.999994" fill-opacity="1"/><path fill="#000000" d="M 359.203125 268.101562 L 353.507812 270.285156 C 349.421875 271.738281 343.582031 273.195312 335.988281 274.648438 C 328.398438 276.101562 319.929688 277.121094 310.585938 277.703125 L 302.261719 277.703125 L 302.261719 257.632812 L 310.585938 257.632812 C 324.308594 257.050781 337.011719 254.867188 348.691406 251.085938 C 360.371094 247.304688 368.546875 243.816406 373.21875 240.617188 C 377.890625 237.417969 381.980469 234.214844 385.484375 231.015625 C 386.066406 230.144531 387.820312 229.707031 390.738281 229.707031 C 393.367188 229.707031 395.847656 230.582031 398.183594 232.324219 L 398.183594 362.785156 L 398.625 493.675781 C 400.667969 495.714844 402.417969 497.023438 403.878906 497.605469 C 405.339844 498.183594 408.84375 498.765625 414.390625 499.347656 C 419.9375 499.929688 428.992188 500.222656 441.546875 500.222656 L 452.933594 500.222656 L 452.933594 520.292969 L 448.117188 520.292969 C 441.984375 519.417969 418.769531 518.984375 378.476562 518.984375 C 338.761719 518.984375 315.839844 519.417969 309.710938 520.292969 L 304.453125 520.292969 L 304.453125 500.222656 L 315.839844 500.222656 C 322.265625 500.222656 327.8125 500.222656 332.484375 500.222656 C 337.15625 500.222656 340.808594 500.078125 343.433594 499.785156 C 346.0625 499.496094 348.398438 499.058594 350.441406 498.476562 C 352.488281 497.894531 353.65625 497.605469 353.945312 497.605469 C 354.238281 497.605469 355.113281 496.875 356.574219 495.421875 C 358.035156 493.96875 358.910156 493.386719 359.203125 493.675781 Z M 359.203125 268.101562 " fill-opacity="1" fill-rule="nonzero"/></svg>