<svg xmlns="http://www.w3.org/2000/svg" xmlns:xlink="http://www.w3.org/1999/xlink" width="1000" zoomAndPan="magnify" viewBox="0 0 750 749.999995" height="1000" preserveAspectRatio="xMidYMid meet" version="1.0"><defs><clipPath id="447c428bd3"><path d="M 160 430 L 234 430 L 234 548.25 L 160 548.25 Z M 160 430 " clip-rule="nonzero"/></clipPath><clipPath id="8d38e2e8da"><path d="M 525 201.75 L 598 201.75 L 598 320 L 525 320 Z M 525 201.75 " clip-rule="nonzero"/></clipPath></defs><rect x="-75" width="900" fill="#ffffff" y="-74.999999" height="899.999994" fill-opacity="1"/><rect x="-75" width="900" fill="#ffffff" y="-74.999999" height="899.999994" fill-opacity="1"/><path fill="#000000" d="M 169.582031 243.296875 C 166.546875 243.296875 164.125 242.289062 162.324219 240.269531 C 160.527344 238.25 159.625 235.785156 159.625 232.867188 C 159.625 224.90625 162.605469 218.007812 168.570312 212.179688 C 174.53125 206.347656 181.957031 203.433594 190.847656 203.433594 C 201.085938 203.433594 209.636719 206.570312 216.496094 212.851562 C 223.359375 219.132812 226.847656 227.261719 226.960938 237.242188 C 226.960938 242.0625 225.835938 246.660156 223.585938 251.035156 C 221.335938 255.40625 218.636719 259.21875 215.484375 262.472656 C 212.335938 265.722656 207.835938 269.871094 201.984375 274.917969 C 197.933594 278.394531 192.308594 283.554688 185.109375 290.394531 L 175.152344 299.8125 L 187.976562 299.980469 C 205.640625 299.980469 215.035156 299.699219 216.160156 299.140625 C 216.949219 298.914062 218.296875 293.925781 220.210938 284.167969 L 220.210938 283.664062 L 226.960938 283.664062 L 226.960938 284.167969 C 226.847656 284.507812 226.117188 289.609375 224.765625 299.476562 C 223.417969 309.34375 222.574219 314.503906 222.234375 314.953125 L 222.234375 315.457031 L 159.625 315.457031 L 159.625 310.242188 C 159.625 309.457031 159.964844 308.617188 160.636719 307.71875 C 161.3125 306.820312 163 304.859375 165.703125 301.832031 C 168.964844 298.242188 171.777344 295.101562 174.140625 292.410156 C 175.152344 291.289062 177.0625 289.214844 179.878906 286.1875 C 182.691406 283.160156 184.601562 281.085938 185.613281 279.964844 C 186.628906 278.84375 188.257812 276.992188 190.507812 274.414062 C 192.757812 271.835938 194.335938 269.929688 195.234375 268.695312 C 196.132812 267.460938 197.429688 265.78125 199.117188 263.648438 C 200.804688 261.519531 201.984375 259.722656 202.660156 258.265625 C 203.335938 256.808594 204.179688 255.183594 205.191406 253.386719 C 206.203125 251.59375 206.933594 249.800781 207.382812 248.007812 C 207.835938 246.210938 208.230469 244.53125 208.566406 242.960938 C 208.902344 241.390625 209.074219 239.539062 209.074219 237.410156 C 209.074219 230.34375 207.160156 224.234375 203.335938 219.074219 C 199.507812 213.917969 194.054688 211.335938 186.964844 211.335938 C 183.253906 211.335938 179.988281 212.289062 177.175781 214.195312 C 174.363281 216.101562 172.394531 217.953125 171.269531 219.746094 C 170.144531 221.542969 169.582031 222.605469 169.582031 222.945312 C 169.582031 223.054688 169.863281 223.113281 170.425781 223.113281 C 172.453125 223.113281 174.53125 223.898438 176.671875 225.464844 C 178.808594 227.035156 179.878906 229.617188 179.878906 233.203125 C 179.878906 236.007812 178.976562 238.363281 177.175781 240.269531 C 175.375 242.175781 172.84375 243.183594 169.582031 243.296875 Z M 169.582031 243.296875 " fill-opacity="1" fill-rule="nonzero"/><g clip-path="url(#447c428bd3)"><path fill="#000000" d="M 160.46875 467.511719 C 160.582031 467.289062 161.539062 461.175781 163.339844 449.179688 L 166.039062 431.179688 C 166.039062 430.957031 167.164062 430.84375 169.414062 430.84375 L 172.789062 430.84375 L 172.789062 431.515625 C 172.789062 432.636719 173.632812 433.589844 175.320312 434.375 C 177.007812 435.160156 179.933594 435.664062 184.097656 435.890625 C 188.257812 436.113281 197.765625 436.226562 212.617188 436.226562 L 233.035156 436.226562 L 233.035156 442.785156 L 221.558594 458.429688 C 220.546875 459.773438 218.859375 462.015625 216.496094 465.15625 C 214.136719 468.296875 212.617188 470.371094 211.941406 471.378906 C 211.265625 472.390625 210.085938 474.183594 208.398438 476.761719 C 206.710938 479.34375 205.585938 481.359375 205.023438 482.820312 C 204.460938 484.277344 203.671875 486.351562 202.660156 489.042969 C 201.648438 491.734375 200.914062 494.3125 200.464844 496.78125 C 200.015625 499.246094 199.566406 502.273438 199.117188 505.863281 C 198.664062 509.449219 198.328125 513.261719 198.101562 517.300781 C 197.878906 521.335938 197.710938 525.933594 197.597656 531.09375 C 197.597656 532.664062 197.597656 534.234375 197.597656 535.804688 C 197.597656 537.371094 197.539062 538.71875 197.429688 539.839844 L 197.429688 541.355469 C 196.976562 543.261719 195.910156 544.886719 194.222656 546.230469 C 192.535156 547.578125 190.621094 548.25 188.484375 548.25 C 187.246094 548.25 186.066406 548.082031 184.941406 547.746094 C 183.816406 547.410156 182.632812 546.34375 181.394531 544.550781 C 180.160156 542.753906 179.539062 540.511719 179.539062 537.820312 C 179.539062 520.105469 184.996094 501.714844 195.910156 482.652344 C 198.160156 479.0625 202.882812 472.277344 210.085938 462.296875 L 217.847656 451.699219 L 202.152344 451.699219 C 182.578125 451.699219 172.28125 452.039062 171.269531 452.710938 C 170.59375 453.046875 169.976562 454.390625 169.414062 456.746094 C 168.851562 459.101562 168.289062 461.511719 167.726562 463.980469 L 167.21875 467.511719 L 167.21875 468.015625 L 160.46875 468.015625 Z M 160.46875 467.511719 " fill-opacity="1" fill-rule="nonzero"/></g><path fill="#000000" d="M 134.3125 392.15625 L 252.445312 392.15625 L 252.445312 382.066406 L 134.3125 382.066406 Z M 134.3125 392.15625 " fill-opacity="1" fill-rule="nonzero"/><path fill="#000000" d="M 416.511719 424.285156 C 416.511719 426.527344 415.328125 427.648438 412.96875 427.648438 C 412.40625 427.648438 411.167969 426.75 409.253906 424.957031 C 407.339844 423.164062 402.054688 417.949219 393.390625 409.3125 L 375.839844 391.820312 L 358.121094 409.480469 C 346.195312 421.144531 340.0625 427.085938 339.726562 427.3125 C 339.277344 427.535156 338.882812 427.648438 338.542969 427.648438 C 337.644531 427.648438 336.855469 427.3125 336.179688 426.636719 C 335.507812 425.964844 335.113281 425.179688 335 424.285156 C 335 423.5 335.789062 422.265625 337.363281 420.582031 C 338.9375 418.902344 344.226562 413.574219 353.226562 404.605469 L 370.777344 387.109375 L 353.226562 369.617188 C 344.113281 360.535156 338.824219 355.207031 337.363281 353.636719 C 335.898438 352.066406 335.113281 350.835938 335 349.9375 C 335 348.929688 335.335938 348.144531 336.011719 347.582031 C 336.6875 347.023438 337.53125 346.742188 338.542969 346.742188 C 339.105469 346.742188 339.5 346.796875 339.726562 346.910156 C 340.0625 347.132812 346.195312 353.078125 358.121094 364.738281 L 375.839844 382.402344 L 393.390625 364.90625 C 402.054688 356.273438 407.339844 351.058594 409.253906 349.265625 C 411.167969 347.46875 412.40625 346.574219 412.96875 346.574219 C 415.328125 346.574219 416.511719 347.695312 416.511719 349.9375 C 416.511719 350.722656 415.949219 351.730469 414.824219 352.964844 C 413.699219 354.199219 408.183594 359.695312 398.285156 369.449219 L 380.734375 387.109375 L 398.285156 404.773438 C 407.734375 414.191406 413.136719 419.628906 414.484375 421.085938 C 415.835938 422.546875 416.511719 423.609375 416.511719 424.285156 Z M 416.511719 424.285156 " fill-opacity="1" fill-rule="nonzero"/><g clip-path="url(#8d38e2e8da)"><path fill="#000000" d="M 525.394531 238.417969 C 525.507812 238.195312 526.464844 232.082031 528.261719 220.085938 L 530.964844 202.085938 C 530.964844 201.863281 532.089844 201.75 534.339844 201.75 L 537.714844 201.75 L 537.714844 202.421875 C 537.714844 203.542969 538.558594 204.496094 540.246094 205.28125 C 541.933594 206.066406 544.859375 206.570312 549.019531 206.796875 C 553.183594 207.019531 562.691406 207.132812 577.539062 207.132812 L 597.960938 207.132812 L 597.960938 213.691406 L 586.484375 229.335938 C 585.472656 230.679688 583.785156 232.921875 581.421875 236.0625 C 579.058594 239.203125 577.539062 241.277344 576.867188 242.289062 C 576.191406 243.296875 575.007812 245.089844 573.320312 247.667969 C 571.632812 250.25 570.507812 252.265625 569.945312 253.726562 C 569.382812 255.183594 568.597656 257.257812 567.585938 259.949219 C 566.570312 262.640625 565.839844 265.21875 565.390625 267.6875 C 564.941406 270.152344 564.488281 273.179688 564.039062 276.769531 C 563.589844 280.355469 563.253906 284.167969 563.027344 288.207031 C 562.800781 292.242188 562.632812 296.839844 562.519531 302 C 562.519531 303.570312 562.519531 305.140625 562.519531 306.710938 C 562.519531 308.277344 562.464844 309.625 562.351562 310.746094 L 562.351562 312.261719 C 561.902344 314.167969 560.832031 315.792969 559.144531 317.136719 C 557.457031 318.484375 555.546875 319.15625 553.410156 319.15625 C 552.171875 319.15625 550.988281 318.988281 549.863281 318.652344 C 548.738281 318.316406 547.558594 317.25 546.320312 315.457031 C 545.082031 313.660156 544.464844 311.417969 544.464844 308.726562 C 544.464844 291.011719 549.921875 272.621094 560.832031 253.558594 C 563.082031 249.96875 567.808594 243.183594 575.007812 233.203125 L 582.773438 222.605469 L 567.078125 222.605469 C 547.5 222.605469 537.207031 222.945312 536.195312 223.617188 C 535.519531 223.953125 534.902344 225.296875 534.339844 227.652344 C 533.777344 230.007812 533.214844 232.417969 532.652344 234.886719 L 532.144531 238.417969 L 532.144531 238.921875 L 525.394531 238.921875 Z M 525.394531 238.417969 " fill-opacity="1" fill-rule="nonzero"/></g><path fill="#000000" d="M 534.507812 472.390625 C 531.46875 472.390625 529.050781 471.378906 527.25 469.363281 C 525.449219 467.34375 524.550781 464.875 524.550781 461.960938 C 524.550781 454 527.53125 447.101562 533.496094 441.273438 C 539.457031 435.441406 546.882812 432.527344 555.769531 432.527344 C 566.007812 432.527344 574.558594 435.664062 581.421875 441.945312 C 588.285156 448.226562 591.773438 456.355469 591.886719 466.335938 C 591.886719 471.15625 590.761719 475.753906 588.511719 480.128906 C 586.261719 484.5 583.558594 488.3125 580.410156 491.566406 C 577.257812 494.816406 572.757812 498.964844 566.910156 504.011719 C 562.859375 507.488281 557.234375 512.648438 550.03125 519.488281 L 540.078125 528.90625 L 552.902344 529.074219 C 570.566406 529.074219 579.960938 528.792969 581.085938 528.234375 C 581.871094 528.007812 583.222656 523.019531 585.136719 513.261719 L 585.136719 512.757812 L 591.886719 512.757812 L 591.886719 513.261719 C 591.773438 513.601562 591.042969 518.703125 589.691406 528.570312 C 588.339844 538.4375 587.496094 543.597656 587.160156 544.042969 L 587.160156 544.550781 L 524.550781 544.550781 L 524.550781 539.335938 C 524.550781 538.550781 524.886719 537.710938 525.5625 536.8125 C 526.238281 535.914062 527.925781 533.953125 530.625 530.925781 C 533.886719 527.335938 536.699219 524.195312 539.0625 521.503906 C 540.078125 520.382812 541.988281 518.308594 544.800781 515.28125 C 547.613281 512.253906 549.527344 510.179688 550.539062 509.058594 C 551.550781 507.9375 553.183594 506.085938 555.433594 503.507812 C 557.683594 500.929688 559.257812 499.023438 560.160156 497.789062 C 561.058594 496.554688 562.351562 494.875 564.039062 492.742188 C 565.726562 490.613281 566.910156 488.816406 567.585938 487.359375 C 568.257812 485.902344 569.101562 484.277344 570.117188 482.480469 C 571.128906 480.6875 571.859375 478.894531 572.308594 477.101562 C 572.757812 475.304688 573.152344 473.625 573.492188 472.054688 C 573.828125 470.484375 573.996094 468.632812 573.996094 466.503906 C 573.996094 459.4375 572.085938 453.328125 568.257812 448.167969 C 564.433594 443.011719 558.976562 440.429688 551.890625 440.429688 C 548.175781 440.429688 544.914062 441.382812 542.101562 443.289062 C 539.289062 445.195312 537.320312 447.046875 536.195312 448.839844 C 535.070312 450.636719 534.507812 451.699219 534.507812 452.039062 C 534.507812 452.148438 534.789062 452.207031 535.351562 452.207031 C 537.375 452.207031 539.457031 452.992188 541.59375 454.558594 C 543.734375 456.128906 544.800781 458.710938 544.800781 462.296875 C 544.800781 465.101562 543.902344 467.457031 542.101562 469.363281 C 540.300781 471.269531 537.769531 472.277344 534.507812 472.390625 Z M 534.507812 472.390625 " fill-opacity="1" fill-rule="nonzero"/><path fill="#000000" d="M 499.238281 392.15625 L 617.367188 392.15625 L 617.367188 382.066406 L 499.238281 382.066406 Z M 499.238281 392.15625 " fill-opacity="1" fill-rule="nonzero"/></svg>