<svg xmlns="http://www.w3.org/2000/svg" xmlns:xlink="http://www.w3.org/1999/xlink" width="1000" zoomAndPan="magnify" viewBox="0 0 750 749.999995" height="1000" preserveAspectRatio="xMidYMid meet" version="1.0"><defs><clipPath id="edb7d996e5"><path d="M 120 204.308594 L 187 204.308594 L 187 319 L 120 319 Z M 120 204.308594 " clip-rule="nonzero"/></clipPath><clipPath id="919d443419"><path d="M 118 431 L 188 431 L 188 545.691406 L 118 545.691406 Z M 118 431 " clip-rule="nonzero"/></clipPath><clipPath id="6f2de3f2f6"><path d="M 521 204.308594 L 591 204.308594 L 591 319 L 521 319 Z M 521 204.308594 " clip-rule="nonzero"/></clipPath><clipPath id="9cf9b976bf"><path d="M 562 431 L 633 431 L 633 545.691406 L 562 545.691406 Z M 562 431 " clip-rule="nonzero"/></clipPath></defs><rect x="-75" width="900" fill="#ffffff" y="-74.999999" height="899.999994" fill-opacity="1"/><rect x="-75" width="900" fill="#ffffff" y="-74.999999" height="899.999994" fill-opacity="1"/><g clip-path="url(#edb7d996e5)"><path fill="#000000" d="M 139.078125 289.074219 C 139.078125 291.738281 138.1875 293.957031 136.410156 295.734375 C 134.628906 297.507812 132.460938 298.398438 129.90625 298.398438 L 128.738281 298.398438 C 133.851562 307.167969 140.632812 311.554688 149.082031 311.554688 C 156.863281 311.554688 162.535156 308.222656 166.09375 301.5625 C 168.203125 297.898438 169.261719 290.792969 169.261719 280.246094 C 169.261719 268.8125 167.761719 261.097656 164.757812 257.097656 C 161.867188 253.4375 158.644531 251.605469 155.085938 251.605469 L 154.085938 251.605469 C 145.414062 251.605469 138.855469 255.378906 134.40625 262.925781 C 133.960938 263.703125 133.574219 264.148438 133.238281 264.261719 C 132.90625 264.371094 132.074219 264.480469 130.738281 264.59375 C 128.847656 264.59375 127.792969 264.261719 127.570312 263.59375 C 127.347656 263.148438 127.238281 253.4375 127.238281 234.453125 L 127.238281 212.96875 C 127.238281 207.417969 127.515625 204.644531 128.070312 204.644531 C 128.292969 204.421875 128.515625 204.308594 128.738281 204.308594 C 128.847656 204.308594 130.015625 204.753906 132.238281 205.640625 C 134.464844 206.53125 137.519531 207.417969 141.410156 208.308594 C 145.300781 209.195312 149.472656 209.640625 153.917969 209.640625 C 161.8125 209.640625 169.371094 208.085938 176.597656 204.976562 C 177.488281 204.53125 178.210938 204.308594 178.765625 204.308594 C 179.65625 204.308594 180.101562 205.308594 180.101562 207.308594 L 180.101562 209.472656 C 170.984375 220.242188 159.589844 225.625 145.914062 225.625 C 142.46875 225.625 139.355469 225.292969 136.574219 224.625 L 134.90625 224.292969 L 134.90625 252.9375 C 137.019531 251.382812 138.6875 250.160156 139.910156 249.273438 C 141.132812 248.382812 143.132812 247.496094 145.914062 246.609375 C 148.695312 245.71875 151.527344 245.277344 154.417969 245.277344 C 163.425781 245.277344 171.039062 248.882812 177.265625 256.101562 C 183.492188 263.316406 186.605469 271.863281 186.605469 281.746094 C 186.605469 291.957031 183.046875 300.671875 175.929688 307.890625 C 168.816406 315.105469 160.144531 318.769531 149.917969 318.878906 C 140.910156 318.878906 133.683594 315.882812 128.238281 309.886719 C 122.789062 303.894531 120.066406 297.121094 120.066406 289.570312 C 120.066406 286.90625 120.675781 284.796875 121.898438 283.242188 C 123.121094 281.691406 124.402344 280.691406 125.734375 280.246094 C 127.070312 279.800781 128.347656 279.582031 129.570312 279.582031 C 132.351562 279.582031 134.628906 280.523438 136.410156 282.410156 C 138.1875 284.296875 139.078125 286.519531 139.078125 289.074219 Z M 139.078125 289.074219 " fill-opacity="1" fill-rule="nonzero"/></g><g clip-path="url(#919d443419)"><path fill="#000000" d="M 132.90625 464.925781 C 129.90625 464.925781 127.570312 463.980469 125.902344 462.09375 C 124.234375 460.207031 123.34375 457.761719 123.234375 454.765625 C 123.234375 448.660156 125.902344 443.21875 131.238281 438.445312 C 136.574219 433.671875 143.023438 431.285156 150.582031 431.285156 C 154.472656 431.285156 156.921875 431.339844 157.921875 431.453125 C 166.148438 432.785156 172.429688 435.726562 176.765625 440.277344 C 181.101562 444.832031 183.324219 449.769531 183.4375 455.097656 C 183.4375 460.871094 181.546875 466.480469 177.765625 471.917969 C 173.984375 477.359375 168.761719 481.300781 162.089844 483.742188 L 161.589844 484.074219 C 161.589844 484.1875 162.089844 484.351562 163.089844 484.574219 C 164.089844 484.796875 165.703125 485.296875 167.925781 486.074219 C 170.148438 486.851562 172.261719 488.015625 174.265625 489.570312 C 183.378906 495.453125 187.9375 503.226562 187.9375 512.882812 C 187.9375 521.65625 184.492188 529.316406 177.597656 535.863281 C 170.707031 542.414062 161.980469 545.691406 151.417969 545.691406 C 142.523438 545.691406 134.851562 543.304688 128.402344 538.527344 C 121.957031 533.753906 118.730469 527.703125 118.730469 520.378906 C 118.730469 517.269531 119.730469 514.769531 121.734375 512.882812 C 123.734375 510.996094 126.234375 509.996094 129.238281 509.886719 C 132.351562 509.886719 134.90625 510.886719 136.910156 512.882812 C 138.910156 514.882812 139.910156 517.378906 139.910156 520.378906 C 139.910156 521.597656 139.742188 522.707031 139.410156 523.707031 C 139.078125 524.707031 138.6875 525.59375 138.242188 526.371094 C 137.796875 527.148438 137.1875 527.816406 136.410156 528.371094 C 135.628906 528.925781 134.964844 529.371094 134.40625 529.703125 C 133.851562 530.035156 133.296875 530.257812 132.738281 530.371094 C 132.183594 530.480469 131.738281 530.648438 131.40625 530.867188 L 130.738281 531.035156 C 136.410156 536.03125 143.300781 538.527344 151.417969 538.527344 C 157.53125 538.527344 162.144531 535.585938 165.257812 529.703125 C 167.148438 526.039062 168.09375 520.433594 168.09375 512.882812 L 168.09375 509.554688 C 168.09375 499.007812 164.535156 491.957031 157.421875 488.40625 C 155.753906 487.738281 152.363281 487.351562 147.25 487.238281 L 140.242188 487.074219 L 139.742188 486.738281 C 139.519531 486.40625 139.410156 485.519531 139.410156 484.074219 C 139.410156 482.078125 139.855469 481.078125 140.746094 481.078125 C 143.855469 481.078125 147.082031 480.800781 150.417969 480.246094 C 154.195312 479.691406 157.644531 477.359375 160.757812 473.25 C 163.867188 469.144531 165.425781 462.925781 165.425781 454.601562 L 165.425781 453.265625 C 165.425781 446.9375 163.480469 442.554688 159.589844 440.113281 C 157.144531 438.558594 154.53125 437.78125 151.75 437.78125 C 148.191406 437.78125 144.914062 438.390625 141.910156 439.613281 C 138.910156 440.832031 136.796875 442.109375 135.574219 443.441406 C 134.351562 444.773438 133.742188 445.441406 133.742188 445.441406 L 134.242188 445.441406 C 134.574219 445.550781 135.019531 445.664062 135.574219 445.773438 C 136.128906 445.886719 136.6875 446.164062 137.242188 446.605469 C 137.796875 447.050781 138.464844 447.4375 139.242188 447.773438 C 140.023438 448.105469 140.578125 448.714844 140.910156 449.605469 C 141.246094 450.492188 141.6875 451.324219 142.246094 452.101562 C 142.800781 452.878906 142.96875 453.988281 142.746094 455.433594 C 142.746094 457.875 141.96875 460.039062 140.410156 461.925781 C 138.855469 463.8125 136.351562 464.8125 132.90625 464.925781 Z M 132.90625 464.925781 " fill-opacity="1" fill-rule="nonzero"/></g><path fill="#000000" d="M 95.050781 391.152344 L 211.785156 391.152344 L 211.785156 381.160156 L 95.050781 381.160156 Z M 95.050781 391.152344 " fill-opacity="1" fill-rule="nonzero"/><path fill="#000000" d="M 373.914062 422.960938 C 373.914062 425.179688 372.746094 426.289062 370.410156 426.289062 C 369.855469 426.289062 368.632812 425.402344 366.742188 423.625 C 364.851562 421.847656 359.625 416.6875 351.066406 408.140625 L 333.722656 390.820312 L 316.210938 408.304688 C 304.429688 419.851562 298.367188 425.734375 298.035156 425.957031 C 297.589844 426.179688 297.203125 426.289062 296.867188 426.289062 C 295.980469 426.289062 295.199219 425.957031 294.535156 425.289062 C 293.867188 424.625 293.476562 423.847656 293.367188 422.960938 C 293.367188 422.183594 294.144531 420.960938 295.699219 419.296875 C 297.257812 417.628906 302.484375 412.359375 311.375 403.476562 L 328.71875 386.15625 L 311.375 368.839844 C 302.371094 359.847656 297.144531 354.574219 295.699219 353.019531 C 294.253906 351.464844 293.476562 350.242188 293.367188 349.355469 C 293.367188 348.355469 293.699219 347.578125 294.367188 347.023438 C 295.035156 346.46875 295.867188 346.191406 296.867188 346.191406 C 297.425781 346.191406 297.8125 346.246094 298.035156 346.359375 C 298.367188 346.578125 304.429688 352.464844 316.210938 364.007812 L 333.722656 381.496094 L 351.066406 364.175781 C 359.625 355.628906 364.851562 350.464844 366.742188 348.6875 C 368.632812 346.914062 369.855469 346.023438 370.410156 346.023438 C 372.746094 346.023438 373.914062 347.132812 373.914062 349.355469 C 373.914062 350.132812 373.355469 351.132812 372.246094 352.351562 C 371.132812 353.574219 365.6875 359.011719 355.902344 368.671875 L 338.558594 386.15625 L 355.902344 403.640625 C 365.242188 412.96875 370.578125 418.351562 371.910156 419.796875 C 373.246094 421.238281 373.914062 422.292969 373.914062 422.960938 Z M 373.914062 422.960938 " fill-opacity="1" fill-rule="nonzero"/><g clip-path="url(#6f2de3f2f6)"><path fill="#000000" d="M 521.03125 263.09375 C 521.03125 245 525.535156 230.675781 534.539062 220.128906 C 543.542969 209.582031 553.550781 204.308594 564.558594 204.308594 C 572.226562 204.308594 577.730469 206.308594 581.066406 210.304688 C 584.402344 214.300781 586.070312 218.742188 586.070312 223.628906 C 586.070312 226.402344 585.292969 228.625 583.734375 230.289062 C 582.179688 231.953125 580.011719 232.785156 577.230469 232.785156 C 574.671875 232.785156 572.5625 232.007812 570.894531 230.453125 C 569.226562 228.902344 568.390625 226.734375 568.390625 223.960938 C 568.390625 219.074219 571.003906 216.132812 576.230469 215.132812 C 573.785156 212.691406 570.339844 211.304688 565.890625 210.972656 C 557.996094 210.972656 551.492188 214.300781 546.378906 220.964844 C 541.15625 228.289062 538.542969 239.503906 538.542969 254.601562 L 538.707031 255.265625 C 539.265625 254.601562 539.710938 253.878906 540.042969 253.101562 C 544.601562 246.441406 550.546875 243.109375 557.886719 243.109375 L 558.554688 243.109375 C 563.667969 243.109375 568.171875 244.164062 572.0625 246.273438 C 574.730469 247.828125 577.398438 250.050781 580.066406 252.9375 C 582.734375 255.824219 584.902344 258.988281 586.570312 262.429688 C 588.902344 267.867188 590.070312 273.808594 590.070312 280.246094 L 590.070312 283.242188 C 590.070312 285.796875 589.792969 288.183594 589.238281 290.40625 C 588.015625 296.953125 584.457031 303.339844 578.566406 309.554688 C 572.671875 315.773438 565.222656 318.878906 556.21875 318.878906 C 553.105469 318.878906 550.105469 318.4375 547.214844 317.546875 C 544.324219 316.660156 541.210938 314.996094 537.875 312.550781 C 534.539062 310.109375 531.703125 306.835938 529.371094 302.726562 C 527.035156 298.621094 525.035156 293.234375 523.367188 286.574219 C 521.699219 279.914062 520.921875 272.085938 521.03125 263.09375 Z M 556.886719 249.105469 C 553.550781 249.105469 550.660156 250.050781 548.214844 251.9375 C 545.769531 253.824219 543.878906 256.320312 542.542969 259.429688 C 541.210938 262.539062 540.265625 265.703125 539.710938 268.921875 C 539.152344 272.140625 538.820312 275.582031 538.707031 279.246094 C 538.707031 288.460938 539.375 295.066406 540.710938 299.0625 C 542.042969 303.058594 544.15625 306.28125 547.046875 308.722656 C 549.714844 310.722656 552.660156 311.71875 555.886719 311.71875 C 561.554688 311.71875 565.890625 309.609375 568.894531 305.390625 C 570.339844 303.394531 571.339844 300.894531 571.894531 297.898438 C 572.449219 294.902344 572.726562 289.074219 572.726562 280.414062 C 572.726562 271.53125 572.449219 265.59375 571.894531 262.59375 C 571.339844 259.597656 570.339844 257.097656 568.894531 255.101562 C 565.890625 251.105469 561.886719 249.105469 556.886719 249.105469 Z M 556.886719 249.105469 " fill-opacity="1" fill-rule="nonzero"/></g><path fill="#000000" d="M 507.855469 445.773438 L 505.6875 446.605469 C 504.132812 447.160156 501.910156 447.714844 499.019531 448.273438 C 496.128906 448.828125 492.902344 449.214844 489.347656 449.4375 L 486.179688 449.4375 L 486.179688 441.777344 L 489.347656 441.777344 C 494.570312 441.554688 499.40625 440.722656 503.855469 439.277344 C 508.300781 437.835938 511.414062 436.503906 513.195312 435.28125 C 514.972656 434.0625 516.527344 432.839844 517.863281 431.617188 C 518.085938 431.285156 518.753906 431.121094 519.863281 431.121094 C 520.863281 431.121094 521.808594 431.453125 522.699219 432.117188 L 522.699219 481.910156 L 522.867188 531.867188 C 523.644531 532.644531 524.3125 533.144531 524.867188 533.367188 C 525.421875 533.589844 526.757812 533.8125 528.871094 534.03125 C 530.980469 534.253906 534.429688 534.367188 539.207031 534.367188 L 543.542969 534.367188 L 543.542969 542.027344 L 541.710938 542.027344 C 539.375 541.691406 530.535156 541.527344 515.195312 541.527344 C 500.074219 541.527344 491.347656 541.691406 489.011719 542.027344 L 487.011719 542.027344 L 487.011719 534.367188 L 491.347656 534.367188 C 493.792969 534.367188 495.90625 534.367188 497.683594 534.367188 C 499.464844 534.367188 500.851562 534.308594 501.855469 534.199219 C 502.855469 534.089844 503.742188 533.921875 504.523438 533.699219 C 505.300781 533.476562 505.746094 533.367188 505.855469 533.367188 C 505.96875 533.367188 506.300781 533.089844 506.855469 532.535156 C 507.414062 531.980469 507.746094 531.757812 507.855469 531.867188 Z M 507.855469 445.773438 " fill-opacity="1" fill-rule="nonzero"/><g clip-path="url(#9cf9b976bf)"><path fill="#000000" d="M 571.726562 444.609375 C 577.953125 435.617188 586.457031 431.121094 597.242188 431.121094 C 602.578125 431.121094 607.914062 432.5625 613.25 435.449219 C 618.589844 438.335938 622.925781 443.441406 626.257812 450.769531 C 630.371094 459.984375 632.429688 472.640625 632.429688 488.738281 C 632.429688 505.945312 630.039062 519.101562 625.257812 528.203125 C 623.035156 532.867188 619.976562 536.585938 616.085938 539.363281 C 612.195312 542.136719 608.804688 543.859375 605.914062 544.523438 C 603.023438 545.191406 600.1875 545.578125 597.410156 545.691406 C 594.519531 545.691406 591.628906 545.355469 588.738281 544.691406 C 585.847656 544.023438 582.457031 542.25 578.566406 539.363281 C 574.671875 536.476562 571.617188 532.757812 569.394531 528.203125 C 564.613281 519.101562 562.222656 505.945312 562.222656 488.738281 C 562.222656 469.421875 565.390625 454.710938 571.726562 444.609375 Z M 609.25 442.609375 C 605.914062 439.058594 601.96875 437.28125 597.410156 437.28125 C 592.738281 437.28125 588.738281 439.058594 585.402344 442.609375 C 582.621094 445.496094 580.789062 449.492188 579.898438 454.601562 C 579.007812 459.707031 578.566406 470.363281 578.566406 486.574219 C 578.566406 504.113281 579.007812 515.660156 579.898438 521.210938 C 580.789062 526.761719 582.789062 531.144531 585.902344 534.367188 C 589.015625 537.695312 592.851562 539.363281 597.410156 539.363281 C 601.855469 539.363281 605.636719 537.695312 608.75 534.367188 C 611.972656 531.035156 613.972656 526.371094 614.753906 520.378906 C 615.53125 514.382812 615.976562 503.113281 616.085938 486.574219 C 616.085938 470.476562 615.640625 459.871094 614.753906 454.765625 C 613.863281 449.660156 612.027344 445.605469 609.25 442.609375 Z M 609.25 442.609375 " fill-opacity="1" fill-rule="nonzero"/></g><path fill="#000000" d="M 455.660156 391.152344 L 655.777344 391.152344 L 655.777344 381.160156 L 455.660156 381.160156 Z M 455.660156 391.152344 " fill-opacity="1" fill-rule="nonzero"/></svg>