<svg xmlns="http://www.w3.org/2000/svg" xmlns:xlink="http://www.w3.org/1999/xlink" width="1000" zoomAndPan="magnify" viewBox="0 0 750 749.999995" height="1000" preserveAspectRatio="xMidYMid meet" version="1.0"><defs><clipPath id="dabdf09d99"><path d="M 117 204.308594 L 192 204.308594 L 192 317 L 117 317 Z M 117 204.308594 " clip-rule="nonzero"/></clipPath><clipPath id="d4363e228c"><path d="M 120 431 L 189 431 L 189 545.691406 L 120 545.691406 Z M 120 431 " clip-rule="nonzero"/></clipPath><clipPath id="f5aad64e32"><path d="M 520 431 L 590 431 L 590 545.691406 L 520 545.691406 Z M 520 431 " clip-rule="nonzero"/></clipPath></defs><rect x="-75" width="900" fill="#ffffff" y="-74.999999" height="899.999994" fill-opacity="1"/><rect x="-75" width="900" fill="#ffffff" y="-74.999999" height="899.999994" fill-opacity="1"/><g clip-path="url(#dabdf09d99)"><path fill="#000000" d="M 189.769531 316.445312 C 187.777344 316.117188 180.644531 315.949219 168.371094 315.949219 C 155.542969 315.949219 148.132812 316.117188 146.144531 316.445312 L 144.652344 316.445312 L 144.652344 308.828125 L 149.792969 308.828125 C 152.003906 308.828125 153.496094 308.828125 154.269531 308.828125 C 155.046875 308.828125 155.984375 308.71875 157.089844 308.496094 C 158.195312 308.277344 158.972656 308 159.414062 307.667969 C 159.855469 307.335938 160.242188 306.894531 160.574219 306.34375 C 160.683594 306.121094 160.742188 303.140625 160.742188 297.398438 L 160.742188 289.117188 L 117.78125 289.117188 L 117.78125 281.496094 L 142.828125 243.234375 C 159.746094 217.617188 168.316406 204.753906 168.535156 204.640625 C 168.757812 204.421875 169.917969 204.308594 172.019531 204.308594 L 175.003906 204.308594 L 176 205.304688 L 176 281.496094 L 191.261719 281.496094 L 191.261719 289.117188 L 176 289.117188 L 176 297.5625 C 176 302.09375 176 304.742188 176 305.515625 C 176 306.289062 176.332031 306.949219 176.996094 307.503906 C 177.878906 308.277344 181.03125 308.71875 186.449219 308.828125 L 191.261719 308.828125 L 191.261719 316.445312 Z M 161.734375 281.496094 L 161.734375 226.175781 L 125.410156 281.332031 L 143.488281 281.496094 Z M 161.734375 281.496094 " fill-opacity="1" fill-rule="nonzero"/></g><g clip-path="url(#d4363e228c)"><path fill="#000000" d="M 120.101562 490.199219 C 120.101562 472.203125 124.582031 457.957031 133.539062 447.464844 C 142.496094 436.976562 152.445312 431.730469 163.394531 431.730469 C 171.023438 431.730469 176.5 433.71875 179.816406 437.695312 C 183.132812 441.667969 184.792969 446.085938 184.792969 450.945312 C 184.792969 453.707031 184.019531 455.914062 182.46875 457.570312 C 180.921875 459.226562 178.765625 460.054688 176 460.054688 C 173.457031 460.054688 171.355469 459.28125 169.699219 457.734375 C 168.039062 456.191406 167.210938 454.035156 167.210938 451.277344 C 167.210938 446.417969 169.808594 443.492188 175.003906 442.496094 C 172.574219 440.066406 169.144531 438.6875 164.722656 438.355469 C 156.871094 438.355469 150.402344 441.667969 145.3125 448.292969 C 140.117188 455.582031 137.519531 466.734375 137.519531 481.753906 L 137.683594 482.417969 C 138.238281 481.753906 138.679688 481.035156 139.011719 480.261719 C 143.546875 473.636719 149.460938 470.324219 156.757812 470.324219 L 157.421875 470.324219 C 162.511719 470.324219 166.988281 471.375 170.859375 473.472656 C 173.511719 475.015625 176.167969 477.226562 178.820312 480.097656 C 181.476562 482.96875 183.632812 486.117188 185.289062 489.539062 C 187.613281 494.949219 188.773438 500.855469 188.773438 507.261719 L 188.773438 510.242188 C 188.773438 512.78125 188.496094 515.15625 187.945312 517.367188 C 186.726562 523.878906 183.1875 530.230469 177.328125 536.414062 C 171.46875 542.597656 164.058594 545.691406 155.101562 545.691406 C 152.003906 545.691406 149.019531 545.246094 146.144531 544.363281 C 143.269531 543.480469 140.171875 541.824219 136.855469 539.394531 C 133.539062 536.964844 130.71875 533.707031 128.394531 529.621094 C 126.074219 525.535156 124.082031 520.179688 122.421875 513.554688 C 120.765625 506.929688 119.992188 499.144531 120.101562 490.199219 Z M 155.765625 476.289062 C 152.445312 476.289062 149.570312 477.226562 147.140625 479.101562 C 144.707031 480.980469 142.828125 483.464844 141.5 486.558594 C 140.171875 489.648438 139.230469 492.796875 138.679688 496 C 138.125 499.199219 137.792969 502.625 137.683594 506.269531 C 137.683594 515.433594 138.347656 522.003906 139.675781 525.980469 C 141 529.953125 143.101562 533.15625 145.976562 535.585938 C 148.632812 537.574219 151.5625 538.566406 154.769531 538.566406 C 160.410156 538.566406 164.722656 536.46875 167.707031 532.273438 C 169.144531 530.285156 170.140625 527.800781 170.691406 524.820312 C 171.246094 521.835938 171.523438 516.039062 171.523438 507.425781 C 171.523438 498.59375 171.246094 492.6875 170.691406 489.703125 C 170.140625 486.722656 169.144531 484.238281 167.707031 482.25 C 164.722656 478.273438 160.742188 476.289062 155.765625 476.289062 Z M 155.765625 476.289062 " fill-opacity="1" fill-rule="nonzero"/></g><path fill="#000000" d="M 96.546875 391.976562 L 212.660156 391.976562 L 212.660156 382.039062 L 96.546875 382.039062 Z M 96.546875 391.976562 " fill-opacity="1" fill-rule="nonzero"/><path fill="#000000" d="M 373.921875 423.613281 C 373.921875 425.824219 372.761719 426.925781 370.4375 426.925781 C 369.882812 426.925781 368.667969 426.042969 366.789062 424.277344 C 364.910156 422.511719 359.710938 417.375 351.195312 408.871094 L 333.945312 391.648438 L 316.527344 409.039062 C 304.808594 420.523438 298.78125 426.375 298.449219 426.597656 C 298.007812 426.816406 297.621094 426.925781 297.289062 426.925781 C 296.402344 426.925781 295.628906 426.597656 294.964844 425.933594 C 294.300781 425.269531 293.914062 424.5 293.804688 423.613281 C 293.804688 422.839844 294.578125 421.628906 296.125 419.96875 C 297.675781 418.3125 302.871094 413.070312 311.71875 404.234375 L 328.96875 387.007812 L 311.71875 369.78125 C 302.761719 360.839844 297.5625 355.59375 296.125 354.046875 C 294.6875 352.5 293.914062 351.285156 293.804688 350.402344 C 293.804688 349.410156 294.136719 348.636719 294.800781 348.082031 C 295.460938 347.53125 296.292969 347.253906 297.289062 347.253906 C 297.839844 347.253906 298.226562 347.3125 298.449219 347.421875 C 298.78125 347.640625 304.808594 353.496094 316.527344 364.980469 L 333.945312 382.371094 L 351.195312 365.144531 C 359.710938 356.640625 364.910156 351.507812 366.789062 349.742188 C 368.667969 347.972656 369.882812 347.089844 370.4375 347.089844 C 372.761719 347.089844 373.921875 348.195312 373.921875 350.402344 C 373.921875 351.175781 373.367188 352.167969 372.261719 353.382812 C 371.15625 354.597656 365.738281 360.011719 356.007812 369.617188 L 338.753906 387.007812 L 356.007812 404.402344 C 365.296875 413.675781 370.601562 419.03125 371.929688 420.46875 C 373.257812 421.902344 373.921875 422.953125 373.921875 423.613281 Z M 373.921875 423.613281 " fill-opacity="1" fill-rule="nonzero"/><path fill="#000000" d="M 507.148438 220.707031 L 504.992188 221.535156 C 503.445312 222.089844 501.234375 222.640625 498.359375 223.191406 C 495.484375 223.746094 492.277344 224.132812 488.738281 224.351562 L 485.585938 224.351562 L 485.585938 216.734375 L 488.738281 216.734375 C 493.9375 216.511719 498.746094 215.683594 503.167969 214.25 C 507.59375 212.8125 510.6875 211.488281 512.457031 210.273438 C 514.226562 209.058594 515.777344 207.84375 517.101562 206.628906 C 517.324219 206.296875 517.988281 206.132812 519.09375 206.132812 C 520.089844 206.132812 521.027344 206.464844 521.914062 207.125 L 521.914062 256.652344 L 522.078125 306.34375 C 522.851562 307.117188 523.515625 307.613281 524.070312 307.832031 C 524.621094 308.054688 525.949219 308.277344 528.050781 308.496094 C 530.152344 308.71875 533.578125 308.828125 538.335938 308.828125 L 542.648438 308.828125 L 542.648438 316.445312 L 540.824219 316.445312 C 538.5 316.117188 529.710938 315.949219 514.449219 315.949219 C 499.410156 315.949219 490.730469 316.117188 488.40625 316.445312 L 486.417969 316.445312 L 486.417969 308.828125 L 490.730469 308.828125 C 493.160156 308.828125 495.261719 308.828125 497.03125 308.828125 C 498.800781 308.828125 500.183594 308.773438 501.179688 308.660156 C 502.175781 308.550781 503.058594 308.386719 503.832031 308.164062 C 504.605469 307.945312 505.050781 307.832031 505.160156 307.832031 C 505.269531 307.832031 505.601562 307.558594 506.15625 307.003906 C 506.707031 306.453125 507.039062 306.234375 507.148438 306.34375 Z M 507.148438 220.707031 " fill-opacity="1" fill-rule="nonzero"/><path fill="#000000" d="M 572.835938 245.386719 C 569.851562 245.386719 567.472656 244.394531 565.703125 242.40625 C 563.933594 240.417969 563.050781 237.988281 563.050781 235.117188 C 563.050781 227.277344 565.980469 220.488281 571.839844 214.746094 C 577.703125 209.003906 585 206.132812 593.734375 206.132812 C 603.800781 206.132812 612.203125 209.222656 618.949219 215.40625 C 625.695312 221.59375 629.121094 229.597656 629.234375 239.425781 C 629.234375 244.171875 628.128906 248.703125 625.914062 253.007812 C 623.703125 257.3125 621.050781 261.070312 617.953125 264.269531 C 614.855469 267.472656 610.433594 271.558594 604.683594 276.527344 C 600.703125 279.953125 595.171875 285.03125 588.097656 291.765625 L 578.308594 301.042969 L 590.917969 301.207031 C 608.277344 301.207031 617.511719 300.933594 618.617188 300.378906 C 619.390625 300.160156 620.71875 295.246094 622.597656 285.636719 L 622.597656 285.140625 L 629.234375 285.140625 L 629.234375 285.636719 C 629.121094 285.96875 628.402344 290.992188 627.078125 300.710938 C 625.75 310.429688 624.921875 315.507812 624.589844 315.949219 L 624.589844 316.445312 L 563.050781 316.445312 L 563.050781 311.3125 C 563.050781 310.539062 563.382812 309.710938 564.042969 308.828125 C 564.707031 307.945312 566.367188 306.011719 569.019531 303.03125 C 572.226562 299.496094 574.992188 296.40625 577.316406 293.753906 C 578.308594 292.652344 580.191406 290.609375 582.953125 287.625 C 585.71875 284.644531 587.597656 282.601562 588.59375 281.496094 C 589.589844 280.394531 591.191406 278.570312 593.40625 276.03125 C 595.617188 273.492188 597.164062 271.613281 598.050781 270.398438 C 598.933594 269.183594 600.207031 267.527344 601.863281 265.429688 C 603.523438 263.332031 604.683594 261.566406 605.347656 260.128906 C 606.011719 258.695312 606.839844 257.09375 607.835938 255.328125 C 608.832031 253.558594 609.550781 251.792969 609.992188 250.027344 C 610.433594 248.257812 610.820312 246.601562 611.152344 245.058594 C 611.484375 243.511719 611.652344 241.6875 611.652344 239.589844 C 611.652344 232.632812 609.769531 226.617188 606.011719 221.535156 C 602.25 216.457031 596.886719 213.917969 589.921875 213.917969 C 586.273438 213.917969 583.066406 214.855469 580.300781 216.734375 C 577.535156 218.609375 575.601562 220.433594 574.496094 222.199219 C 573.390625 223.964844 572.835938 225.015625 572.835938 225.347656 C 572.835938 225.457031 573.113281 225.511719 573.664062 225.511719 C 575.65625 225.511719 577.703125 226.285156 579.804688 227.832031 C 581.902344 229.375 582.953125 231.917969 582.953125 235.449219 C 582.953125 238.210938 582.070312 240.53125 580.300781 242.40625 C 578.53125 244.285156 576.042969 245.277344 572.835938 245.386719 Z M 572.835938 245.386719 " fill-opacity="1" fill-rule="nonzero"/><g clip-path="url(#f5aad64e32)"><path fill="#000000" d="M 524.898438 472.976562 C 524.898438 472.976562 524.898438 468.722656 524.898438 460.21875 C 524.898438 451.71875 527.882812 444.871094 533.855469 439.679688 C 539.828125 434.492188 546.683594 431.839844 554.425781 431.730469 C 562.277344 431.730469 569.242188 434.050781 575.324219 438.6875 C 581.40625 443.324219 584.449219 449.34375 584.449219 456.742188 C 584.449219 460.054688 583.839844 463.148438 582.621094 466.019531 C 581.40625 468.890625 579.96875 471.207031 578.308594 472.976562 C 576.652344 474.742188 574.9375 476.289062 573.167969 477.613281 C 571.398438 478.9375 569.960938 479.929688 568.855469 480.59375 C 567.75 481.257812 567.140625 481.699219 567.03125 481.917969 L 569.351562 483.410156 C 570.902344 484.515625 572.449219 485.617188 573.996094 486.722656 C 575.546875 487.828125 576.429688 488.433594 576.652344 488.542969 C 584.945312 495.058594 589.089844 503.285156 589.089844 513.226562 C 589.089844 521.949219 585.886719 529.511719 579.472656 535.917969 C 573.058594 542.320312 564.765625 545.578125 554.589844 545.691406 C 544.636719 545.691406 536.453125 542.875 530.039062 537.242188 C 523.628906 531.609375 520.421875 524.652344 520.421875 516.371094 C 520.421875 504.445312 527.554688 494.507812 541.816406 486.558594 L 538.832031 484.402344 C 536.511719 482.96875 535.015625 481.863281 534.355469 481.089844 C 528.050781 475.679688 524.898438 468.722656 524.898438 460.21875 Z M 560.726562 478.109375 L 561.722656 477.445312 C 562.386719 477.003906 562.882812 476.675781 563.214844 476.453125 C 563.546875 476.230469 564.101562 475.847656 564.875 475.292969 C 565.648438 474.742188 566.3125 474.1875 566.863281 473.636719 C 567.417969 473.085938 568.027344 472.421875 568.6875 471.648438 C 569.351562 470.875 569.960938 470.160156 570.515625 469.496094 C 571.066406 468.832031 571.621094 467.949219 572.171875 466.847656 C 572.726562 465.742188 573.222656 464.804688 573.664062 464.03125 C 574.109375 463.257812 574.382812 462.152344 574.496094 460.71875 C 574.605469 459.28125 574.714844 458.066406 574.828125 457.074219 C 574.828125 452.324219 573.222656 448.292969 570.015625 444.980469 C 566.808594 441.667969 563.105469 439.570312 558.902344 438.6875 C 558.128906 438.578125 556.304688 438.523438 553.429688 438.523438 C 548.894531 438.523438 544.636719 439.957031 540.65625 442.828125 C 536.675781 445.699219 534.628906 449.289062 534.519531 453.59375 C 534.519531 456.136719 535.238281 458.453125 536.675781 460.550781 C 538.113281 462.648438 539.550781 464.25 540.988281 465.355469 C 542.425781 466.460938 545.191406 468.226562 549.28125 470.65625 C 550.054688 471.207031 550.664062 471.59375 551.105469 471.816406 Z M 554.757812 538.566406 C 561.167969 538.566406 566.699219 536.691406 571.34375 532.933594 C 575.988281 529.179688 578.308594 524.652344 578.308594 519.351562 C 578.308594 517.476562 578.035156 515.710938 577.480469 514.054688 C 576.925781 512.394531 576.265625 511.015625 575.488281 509.910156 C 574.714844 508.808594 573.5 507.59375 571.839844 506.269531 C 570.183594 504.941406 568.910156 503.949219 568.027344 503.285156 C 567.140625 502.625 565.539062 501.574219 563.214844 500.140625 C 560.894531 498.703125 559.402344 497.765625 558.738281 497.324219 C 557.1875 496.328125 555.53125 495.28125 553.761719 494.175781 C 551.992188 493.070312 550.554688 492.132812 549.449219 491.359375 L 548.121094 490.53125 C 547.457031 490.53125 545.855469 491.472656 543.3125 493.347656 C 540.765625 495.226562 538.113281 498.261719 535.347656 502.457031 C 532.585938 506.65625 531.148438 511.183594 531.035156 516.039062 C 531.035156 522.554688 533.414062 527.910156 538.167969 532.105469 C 542.921875 536.304688 548.453125 538.457031 554.757812 538.566406 Z M 554.757812 538.566406 " fill-opacity="1" fill-rule="nonzero"/></g><path fill="#000000" d="M 455.230469 391.976562 L 654.28125 391.976562 L 654.28125 382.039062 L 455.230469 382.039062 Z M 455.230469 391.976562 " fill-opacity="1" fill-rule="nonzero"/></svg>