<svg xmlns="http://www.w3.org/2000/svg" xmlns:xlink="http://www.w3.org/1999/xlink" width="1000" zoomAndPan="magnify" viewBox="0 0 750 749.999995" height="1000" preserveAspectRatio="xMidYMid meet" version="1.0"><rect x="-75" width="900" fill="#ffffff" y="-74.999999" height="899.999994" fill-opacity="1"/><rect x="-75" width="900" fill="#ffffff" y="-74.999999" height="899.999994" fill-opacity="1"/><path fill="#000000" d="M 123.367188 247.589844 C 123.367188 247.589844 123.367188 243.316406 123.367188 234.765625 C 123.367188 226.214844 126.371094 219.332031 132.375 214.113281 C 138.378906 208.894531 145.273438 206.230469 153.054688 206.121094 C 160.949219 206.121094 167.953125 208.453125 174.070312 213.113281 C 180.1875 217.777344 183.242188 223.828125 183.242188 231.269531 C 183.242188 234.601562 182.632812 237.707031 181.410156 240.59375 C 180.1875 243.480469 178.742188 245.8125 177.074219 247.589844 C 175.40625 249.367188 173.679688 250.921875 171.902344 252.253906 C 170.125 253.585938 168.679688 254.585938 167.566406 255.25 C 166.453125 255.917969 165.84375 256.363281 165.730469 256.585938 L 168.066406 258.082031 C 169.621094 259.191406 171.179688 260.304688 172.734375 261.414062 C 174.292969 262.523438 175.183594 263.136719 175.40625 263.246094 C 183.742188 269.796875 187.914062 278.070312 187.914062 288.0625 C 187.914062 296.832031 184.6875 304.4375 178.238281 310.878906 C 171.792969 317.320312 163.453125 320.59375 153.222656 320.707031 C 143.214844 320.707031 134.988281 317.875 128.539062 312.210938 C 122.089844 306.546875 118.863281 299.554688 118.863281 291.226562 C 118.863281 279.234375 126.035156 269.242188 140.378906 261.246094 L 137.378906 259.082031 C 135.042969 257.640625 133.542969 256.527344 132.875 255.75 C 126.535156 250.3125 123.367188 243.316406 123.367188 234.765625 Z M 159.394531 252.753906 L 160.394531 252.085938 C 161.0625 251.644531 161.5625 251.308594 161.894531 251.089844 C 162.230469 250.867188 162.785156 250.476562 163.5625 249.921875 C 164.339844 249.367188 165.007812 248.8125 165.5625 248.257812 C 166.121094 247.703125 166.730469 247.035156 167.398438 246.257812 C 168.066406 245.480469 168.679688 244.757812 169.234375 244.09375 C 169.789062 243.425781 170.34375 242.539062 170.902344 241.429688 C 171.457031 240.316406 171.957031 239.375 172.402344 238.597656 C 172.847656 237.820312 173.125 236.710938 173.238281 235.265625 C 173.347656 233.824219 173.457031 232.601562 173.570312 231.601562 C 173.570312 226.828125 171.957031 222.773438 168.734375 219.445312 C 165.507812 216.113281 161.785156 214.003906 157.558594 213.113281 C 156.78125 213.003906 154.945312 212.949219 152.054688 212.949219 C 147.496094 212.949219 143.214844 214.390625 139.210938 217.277344 C 135.210938 220.164062 133.152344 223.773438 133.042969 228.105469 C 133.042969 230.65625 133.765625 232.988281 135.210938 235.097656 C 136.65625 237.207031 138.101562 238.820312 139.546875 239.929688 C 140.992188 241.039062 143.769531 242.816406 147.886719 245.257812 C 148.664062 245.8125 149.273438 246.203125 149.71875 246.425781 Z M 153.390625 313.542969 C 159.839844 313.542969 165.398438 311.65625 170.066406 307.882812 C 174.738281 304.105469 177.074219 299.554688 177.074219 294.222656 C 177.074219 292.335938 176.792969 290.558594 176.238281 288.894531 C 175.683594 287.230469 175.015625 285.839844 174.238281 284.730469 C 173.457031 283.621094 172.234375 282.398438 170.566406 281.066406 C 168.898438 279.734375 167.621094 278.734375 166.730469 278.070312 C 165.84375 277.402344 164.230469 276.347656 161.894531 274.90625 C 159.558594 273.460938 158.058594 272.515625 157.390625 272.074219 C 155.835938 271.074219 154.167969 270.019531 152.386719 268.910156 C 150.609375 267.796875 149.164062 266.855469 148.050781 266.078125 L 146.71875 265.246094 C 146.050781 265.246094 144.4375 266.1875 141.882812 268.074219 C 139.324219 269.964844 136.65625 273.015625 133.875 277.234375 C 131.09375 281.457031 129.648438 286.007812 129.539062 290.894531 C 129.539062 297.445312 131.929688 302.828125 136.710938 307.046875 C 141.492188 311.265625 147.050781 313.433594 153.390625 313.542969 Z M 153.390625 313.542969 " fill-opacity="1" fill-rule="nonzero"/><path fill="#000000" d="M 129.871094 472.429688 C 126.871094 472.429688 124.480469 471.429688 122.699219 469.433594 C 120.921875 467.433594 120.03125 464.992188 120.03125 462.105469 C 120.03125 454.222656 122.980469 447.394531 128.871094 441.621094 C 134.765625 435.84375 142.101562 432.957031 150.886719 432.957031 C 161.003906 432.957031 169.457031 436.066406 176.238281 442.285156 C 183.019531 448.503906 186.46875 456.554688 186.578125 466.433594 C 186.578125 471.210938 185.46875 475.761719 183.242188 480.09375 C 181.019531 484.421875 178.351562 488.199219 175.238281 491.417969 C 172.125 494.636719 167.675781 498.746094 161.894531 503.742188 C 157.890625 507.183594 152.332031 512.292969 145.214844 519.0625 L 135.375 528.390625 L 148.050781 528.558594 C 165.507812 528.558594 174.792969 528.28125 175.90625 527.726562 C 176.683594 527.503906 178.019531 522.5625 179.90625 512.902344 L 179.90625 512.402344 L 186.578125 512.402344 L 186.578125 512.902344 C 186.46875 513.234375 185.746094 518.289062 184.410156 528.058594 C 183.078125 537.828125 182.242188 542.9375 181.910156 543.378906 L 181.910156 543.878906 L 120.03125 543.878906 L 120.03125 538.71875 C 120.03125 537.941406 120.367188 537.105469 121.03125 536.21875 C 121.699219 535.332031 123.367188 533.386719 126.035156 530.390625 C 129.261719 526.835938 132.039062 523.726562 134.375 521.0625 C 135.375 519.953125 137.265625 517.898438 140.046875 514.902344 C 142.824219 511.902344 144.714844 509.847656 145.71875 508.738281 C 146.71875 507.628906 148.328125 505.796875 150.554688 503.242188 C 152.777344 500.6875 154.335938 498.800781 155.222656 497.578125 C 156.113281 496.359375 157.390625 494.691406 159.058594 492.582031 C 160.726562 490.472656 161.894531 488.695312 162.5625 487.253906 C 163.230469 485.808594 164.0625 484.199219 165.0625 482.421875 C 166.066406 480.648438 166.789062 478.871094 167.230469 477.09375 C 167.675781 475.316406 168.066406 473.652344 168.398438 472.097656 C 168.734375 470.542969 168.898438 468.710938 168.898438 466.601562 C 168.898438 459.605469 167.011719 453.554688 163.230469 448.449219 C 159.449219 443.339844 154.054688 440.785156 147.050781 440.785156 C 143.382812 440.785156 140.15625 441.730469 137.378906 443.617188 C 134.597656 445.503906 132.652344 447.335938 131.539062 449.113281 C 130.429688 450.890625 129.871094 451.945312 129.871094 452.277344 C 129.871094 452.390625 130.148438 452.445312 130.707031 452.445312 C 132.707031 452.445312 134.765625 453.222656 136.878906 454.777344 C 138.988281 456.332031 140.046875 458.886719 140.046875 462.4375 C 140.046875 465.214844 139.15625 467.546875 137.378906 469.433594 C 135.597656 471.320312 133.097656 472.320312 129.871094 472.429688 Z M 129.871094 472.429688 " fill-opacity="1" fill-rule="nonzero"/><path fill="#000000" d="M 95.015625 392.988281 L 211.765625 392.988281 L 211.765625 382.996094 L 95.015625 382.996094 Z M 95.015625 392.988281 " fill-opacity="1" fill-rule="nonzero"/><path fill="#000000" d="M 373.914062 424.796875 C 373.914062 427.019531 372.746094 428.128906 370.410156 428.128906 C 369.855469 428.128906 368.632812 427.242188 366.742188 425.464844 C 364.851562 423.6875 359.625 418.523438 351.0625 409.976562 L 333.71875 392.652344 L 316.203125 410.140625 C 304.417969 421.6875 298.359375 427.574219 298.023438 427.796875 C 297.582031 428.019531 297.191406 428.128906 296.859375 428.128906 C 295.96875 428.128906 295.191406 427.796875 294.523438 427.128906 C 293.855469 426.464844 293.464844 425.6875 293.355469 424.796875 C 293.355469 424.019531 294.132812 422.800781 295.691406 421.132812 C 297.246094 419.46875 302.472656 414.195312 311.367188 405.3125 L 328.714844 387.992188 L 311.367188 370.667969 C 302.363281 361.675781 297.136719 356.402344 295.691406 354.847656 C 294.246094 353.292969 293.464844 352.070312 293.355469 351.183594 C 293.355469 350.183594 293.6875 349.40625 294.355469 348.851562 C 295.023438 348.296875 295.855469 348.019531 296.859375 348.019531 C 297.414062 348.019531 297.804688 348.074219 298.023438 348.1875 C 298.359375 348.40625 304.417969 354.292969 316.203125 365.839844 L 333.71875 383.328125 L 351.0625 366.007812 C 359.625 357.457031 364.851562 352.292969 366.742188 350.515625 C 368.632812 348.742188 369.855469 347.851562 370.410156 347.851562 C 372.746094 347.851562 373.914062 348.964844 373.914062 351.183594 C 373.914062 351.960938 373.355469 352.960938 372.246094 354.179688 C 371.132812 355.402344 365.683594 360.84375 355.898438 370.503906 L 338.554688 387.992188 L 355.898438 405.476562 C 365.238281 414.804688 370.578125 420.191406 371.910156 421.632812 C 373.246094 423.078125 373.914062 424.132812 373.914062 424.796875 Z M 373.914062 424.796875 " fill-opacity="1" fill-rule="nonzero"/><path fill="#000000" d="M 535.226562 239.929688 C 532.226562 239.929688 529.890625 238.984375 528.222656 237.097656 C 526.554688 235.210938 525.664062 232.769531 525.554688 229.769531 C 525.554688 223.664062 528.222656 218.222656 533.558594 213.449219 C 538.898438 208.671875 545.347656 206.285156 552.90625 206.285156 C 556.796875 206.285156 559.246094 206.34375 560.246094 206.453125 C 568.472656 207.785156 574.753906 210.726562 579.09375 215.28125 C 583.429688 219.832031 585.652344 224.773438 585.761719 230.101562 C 585.761719 235.875 583.875 241.484375 580.09375 246.925781 C 576.3125 252.363281 571.085938 256.304688 564.414062 258.75 L 563.914062 259.082031 C 563.914062 259.191406 564.414062 259.359375 565.414062 259.582031 C 566.417969 259.804688 568.027344 260.304688 570.253906 261.082031 C 572.476562 261.859375 574.589844 263.023438 576.589844 264.578125 C 585.707031 270.464844 590.265625 278.234375 590.265625 287.894531 C 590.265625 296.667969 586.820312 304.328125 579.925781 310.878906 C 573.03125 317.429688 564.304688 320.707031 553.742188 320.707031 C 544.84375 320.707031 537.171875 318.316406 530.722656 313.542969 C 524.273438 308.769531 521.050781 302.71875 521.050781 295.390625 C 521.050781 292.28125 522.050781 289.78125 524.054688 287.894531 C 526.054688 286.007812 528.554688 285.007812 531.558594 284.898438 C 534.671875 284.898438 537.230469 285.898438 539.230469 287.894531 C 541.230469 289.894531 542.234375 292.390625 542.234375 295.390625 C 542.234375 296.609375 542.066406 297.722656 541.730469 298.722656 C 541.398438 299.71875 541.007812 300.609375 540.566406 301.386719 C 540.121094 302.164062 539.507812 302.828125 538.730469 303.382812 C 537.953125 303.9375 537.285156 304.382812 536.730469 304.714844 C 536.171875 305.050781 535.617188 305.273438 535.0625 305.382812 C 534.503906 305.492188 534.058594 305.660156 533.726562 305.882812 L 533.058594 306.050781 C 538.730469 311.046875 545.625 313.542969 553.742188 313.542969 C 559.855469 313.542969 564.46875 310.601562 567.582031 304.714844 C 569.472656 301.050781 570.417969 295.445312 570.417969 287.894531 L 570.417969 284.5625 C 570.417969 274.015625 566.859375 266.964844 559.746094 263.414062 C 558.078125 262.746094 554.6875 262.359375 549.570312 262.246094 L 542.566406 262.082031 L 542.066406 261.746094 C 541.84375 261.414062 541.730469 260.527344 541.730469 259.082031 C 541.730469 257.082031 542.175781 256.085938 543.066406 256.085938 C 546.179688 256.085938 549.402344 255.808594 552.738281 255.25 C 556.519531 254.695312 559.96875 252.363281 563.082031 248.257812 C 566.195312 244.148438 567.75 237.929688 567.75 229.601562 L 567.75 228.269531 C 567.75 221.941406 565.804688 217.554688 561.914062 215.113281 C 559.46875 213.558594 556.855469 212.78125 554.074219 212.78125 C 550.515625 212.78125 547.234375 213.390625 544.234375 214.613281 C 541.230469 215.835938 539.121094 217.113281 537.894531 218.445312 C 536.671875 219.777344 536.0625 220.441406 536.0625 220.441406 L 536.5625 220.441406 C 536.894531 220.554688 537.339844 220.664062 537.894531 220.777344 C 538.453125 220.886719 539.007812 221.164062 539.5625 221.609375 C 540.121094 222.054688 540.785156 222.441406 541.566406 222.773438 C 542.34375 223.109375 542.898438 223.71875 543.234375 224.605469 C 543.566406 225.496094 544.011719 226.328125 544.566406 227.105469 C 545.125 227.882812 545.289062 228.992188 545.066406 230.4375 C 545.066406 232.878906 544.289062 235.042969 542.734375 236.929688 C 541.175781 238.820312 538.675781 239.816406 535.226562 239.929688 Z M 535.226562 239.929688 " fill-opacity="1" fill-rule="nonzero"/><path fill="#000000" d="M 507.875 447.613281 L 505.707031 448.449219 C 504.148438 449.003906 501.925781 449.558594 499.035156 450.113281 C 496.144531 450.667969 492.917969 451.058594 489.363281 451.277344 L 486.191406 451.277344 L 486.191406 443.617188 L 489.363281 443.617188 C 494.585938 443.394531 499.425781 442.5625 503.871094 441.121094 C 508.320312 439.675781 511.433594 438.34375 513.210938 437.121094 C 514.992188 435.902344 516.546875 434.679688 517.882812 433.457031 C 518.105469 433.125 518.769531 432.957031 519.882812 432.957031 C 520.882812 432.957031 521.828125 433.292969 522.71875 433.957031 L 522.71875 483.757812 L 522.886719 533.71875 C 523.664062 534.496094 524.332031 534.996094 524.886719 535.21875 C 525.441406 535.441406 526.777344 535.664062 528.890625 535.886719 C 531.003906 536.109375 534.449219 536.21875 539.230469 536.21875 L 543.566406 536.21875 L 543.566406 543.878906 L 541.730469 543.878906 C 539.398438 543.546875 530.558594 543.378906 515.214844 543.378906 C 500.089844 543.378906 491.363281 543.546875 489.027344 543.878906 L 487.027344 543.878906 L 487.027344 536.21875 L 491.363281 536.21875 C 493.808594 536.21875 495.921875 536.21875 497.699219 536.21875 C 499.480469 536.21875 500.871094 536.164062 501.871094 536.050781 C 502.871094 535.941406 503.761719 535.773438 504.539062 535.550781 C 505.316406 535.332031 505.761719 535.21875 505.875 535.21875 C 505.984375 535.21875 506.316406 534.941406 506.875 534.386719 C 507.429688 533.832031 507.761719 533.609375 507.875 533.71875 Z M 507.875 447.613281 " fill-opacity="1" fill-rule="nonzero"/><path fill="#000000" d="M 573.921875 472.429688 C 570.917969 472.429688 568.527344 471.429688 566.75 469.433594 C 564.972656 467.433594 564.082031 464.992188 564.082031 462.105469 C 564.082031 454.222656 567.027344 447.394531 572.921875 441.621094 C 578.8125 435.84375 586.152344 432.957031 594.9375 432.957031 C 605.054688 432.957031 613.503906 436.066406 620.289062 442.285156 C 627.070312 448.503906 630.515625 456.554688 630.628906 466.433594 C 630.628906 471.210938 629.515625 475.761719 627.292969 480.09375 C 625.070312 484.421875 622.402344 488.199219 619.289062 491.417969 C 616.175781 494.636719 611.726562 498.746094 605.945312 503.742188 C 601.941406 507.183594 596.382812 512.292969 589.265625 519.0625 L 579.425781 528.390625 L 592.101562 528.558594 C 609.558594 528.558594 618.84375 528.28125 619.953125 527.726562 C 620.734375 527.503906 622.066406 522.5625 623.957031 512.902344 L 623.957031 512.402344 L 630.628906 512.402344 L 630.628906 512.902344 C 630.515625 513.234375 629.792969 518.289062 628.460938 528.058594 C 627.125 537.828125 626.292969 542.9375 625.957031 543.378906 L 625.957031 543.878906 L 564.082031 543.878906 L 564.082031 538.71875 C 564.082031 537.941406 564.414062 537.105469 565.082031 536.21875 C 565.75 535.332031 567.417969 533.386719 570.085938 530.390625 C 573.308594 526.835938 576.089844 523.726562 578.425781 521.0625 C 579.425781 519.953125 581.316406 517.898438 584.09375 514.902344 C 586.875 511.902344 588.765625 509.847656 589.765625 508.738281 C 590.765625 507.628906 592.378906 505.796875 594.601562 503.242188 C 596.828125 500.6875 598.382812 498.800781 599.273438 497.578125 C 600.164062 496.359375 601.441406 494.691406 603.109375 492.582031 C 604.777344 490.472656 605.945312 488.695312 606.613281 487.253906 C 607.277344 485.808594 608.113281 484.199219 609.113281 482.421875 C 610.113281 480.648438 610.835938 478.871094 611.28125 477.09375 C 611.726562 475.316406 612.117188 473.652344 612.449219 472.097656 C 612.78125 470.542969 612.949219 468.710938 612.949219 466.601562 C 612.949219 459.605469 611.058594 453.554688 607.277344 448.449219 C 603.5 443.339844 598.105469 440.785156 591.101562 440.785156 C 587.429688 440.785156 584.207031 441.730469 581.425781 443.617188 C 578.648438 445.503906 576.703125 447.335938 575.589844 449.113281 C 574.476562 450.890625 573.921875 451.945312 573.921875 452.277344 C 573.921875 452.390625 574.199219 452.445312 574.753906 452.445312 C 576.757812 452.445312 578.8125 453.222656 580.925781 454.777344 C 583.039062 456.332031 584.09375 458.886719 584.09375 462.4375 C 584.09375 465.214844 583.207031 467.546875 581.425781 469.433594 C 579.648438 471.320312 577.144531 472.320312 573.921875 472.429688 Z M 573.921875 472.429688 " fill-opacity="1" fill-rule="nonzero"/><path fill="#000000" d="M 455.671875 392.988281 L 655.8125 392.988281 L 655.8125 382.996094 L 455.671875 382.996094 Z M 455.671875 392.988281 " fill-opacity="1" fill-rule="nonzero"/></svg>