<svg xmlns="http://www.w3.org/2000/svg" xmlns:xlink="http://www.w3.org/1999/xlink" width="1000" zoomAndPan="magnify" viewBox="0 0 750 749.999995" height="1000" preserveAspectRatio="xMidYMid meet" version="1.0"><defs><clipPath id="5a92ce0251"><path d="M 157 201.75 L 228 201.75 L 228 319 L 157 319 Z M 157 201.75 " clip-rule="nonzero"/></clipPath><clipPath id="e3a5793f95"><path d="M 157 432 L 228 432 L 228 548.25 L 157 548.25 Z M 157 432 " clip-rule="nonzero"/></clipPath><clipPath id="6ceb064cd0"><path d="M 525 201.75 L 593 201.75 L 593 315 L 525 315 Z M 525 201.75 " clip-rule="nonzero"/></clipPath><clipPath id="07edb9e138"><path d="M 523 431 L 595 431 L 595 548.25 L 523 548.25 Z M 523 431 " clip-rule="nonzero"/></clipPath></defs><rect x="-75" width="900" fill="#ffffff" y="-74.999999" height="899.999994" fill-opacity="1"/><rect x="-75" width="900" fill="#ffffff" y="-74.999999" height="899.999994" fill-opacity="1"/><g clip-path="url(#5a92ce0251)"><path fill="#000000" d="M 209.785156 265.808594 C 204.359375 274.375 197.574219 278.65625 189.433594 278.65625 C 180.617188 278.65625 173.382812 275.332031 167.730469 268.683594 C 162.074219 262.035156 158.683594 254.9375 157.554688 247.386719 C 157.328125 245.582031 157.214844 243.328125 157.214844 240.625 L 157.214844 239.273438 C 157.214844 228.792969 161.113281 219.667969 168.914062 211.890625 C 175.699219 205.128906 183.160156 201.75 191.300781 201.75 C 191.527344 201.75 191.867188 201.75 192.316406 201.75 C 192.769531 201.75 193.222656 201.804688 193.675781 201.917969 L 194.351562 201.917969 C 195.710938 201.917969 197.121094 202.03125 198.59375 202.257812 C 200.0625 202.484375 202.152344 203.160156 204.867188 204.285156 C 207.582031 205.414062 210.238281 207.214844 212.835938 209.695312 C 215.4375 212.171875 217.867188 215.496094 220.128906 219.667969 C 224.992188 229.582031 227.421875 242.316406 227.421875 257.867188 C 227.421875 273.640625 224.03125 286.996094 217.246094 297.925781 C 213.289062 304.234375 208.542969 309.136719 203 312.628906 C 197.460938 316.125 191.582031 317.925781 185.367188 318.039062 C 178.46875 318.039062 172.816406 316.40625 168.40625 313.136719 C 163.996094 309.871094 161.738281 305.023438 161.625 298.601562 C 161.511719 292.179688 164.507812 289.023438 170.613281 289.136719 C 173.097656 289.136719 175.191406 289.925781 176.886719 291.503906 C 178.582031 293.078125 179.429688 295.277344 179.429688 298.09375 C 179.429688 300.121094 178.921875 301.867188 177.902344 303.332031 C 176.886719 304.796875 175.980469 305.699219 175.191406 306.039062 C 174.398438 306.375 173.664062 306.65625 172.984375 306.882812 L 172.308594 307.050781 C 172.308594 307.277344 172.703125 307.617188 173.496094 308.066406 C 174.285156 308.515625 175.753906 309.082031 177.902344 309.757812 C 180.050781 310.433594 182.425781 310.714844 185.027344 310.601562 L 186.042969 310.601562 C 192.828125 310.601562 198.535156 306.996094 203.171875 299.785156 C 207.582031 293.472656 209.785156 282.542969 209.785156 266.992188 Z M 191.46875 272.402344 C 196.898438 272.402344 201.25 269.640625 204.527344 264.121094 C 207.804688 258.597656 209.503906 251.105469 209.617188 241.640625 C 209.617188 232.851562 209.164062 226.539062 208.257812 222.710938 C 208.03125 221.582031 207.695312 220.457031 207.242188 219.328125 C 206.789062 218.203125 205.996094 216.738281 204.867188 214.933594 C 203.738281 213.132812 202.039062 211.609375 199.78125 210.371094 C 197.519531 209.128906 194.863281 208.566406 191.808594 208.679688 C 187.511719 208.679688 183.839844 210.203125 180.785156 213.242188 C 178.414062 215.722656 176.886719 218.652344 176.207031 222.03125 C 175.53125 225.414062 175.132812 231.328125 175.019531 239.78125 C 175.019531 249.132812 175.304688 255.445312 175.867188 258.710938 C 176.433594 261.980469 177.566406 264.628906 179.261719 266.65625 C 182.085938 270.488281 186.15625 272.402344 191.46875 272.402344 Z M 191.46875 272.402344 " fill-opacity="1" fill-rule="nonzero"/></g><g clip-path="url(#e3a5793f95)"><path fill="#000000" d="M 171.628906 466.273438 C 168.578125 466.273438 166.203125 465.316406 164.507812 463.398438 C 162.8125 461.484375 161.90625 459.003906 161.792969 455.960938 C 161.792969 449.765625 164.507812 444.242188 169.933594 439.398438 C 175.359375 434.554688 181.917969 432.128906 189.605469 432.128906 C 193.5625 432.128906 196.050781 432.1875 197.066406 432.300781 C 205.433594 433.652344 211.820312 436.636719 216.230469 441.257812 C 220.636719 445.878906 222.898438 450.890625 223.011719 456.300781 C 223.011719 462.160156 221.089844 467.851562 217.246094 473.371094 C 213.402344 478.894531 208.089844 482.894531 201.304688 485.371094 L 200.796875 485.710938 C 200.796875 485.824219 201.304688 485.992188 202.324219 486.21875 C 203.339844 486.445312 204.980469 486.949219 207.242188 487.738281 C 209.503906 488.527344 211.652344 489.710938 213.683594 491.289062 C 222.957031 497.261719 227.589844 505.148438 227.589844 514.953125 C 227.589844 523.855469 224.085938 531.628906 217.078125 538.277344 C 210.066406 544.925781 201.191406 548.25 190.453125 548.25 C 181.410156 548.25 173.609375 545.828125 167.050781 540.980469 C 160.492188 536.136719 157.214844 529.996094 157.214844 522.558594 C 157.214844 519.402344 158.230469 516.867188 160.265625 514.953125 C 162.300781 513.035156 164.847656 512.023438 167.898438 511.910156 C 171.0625 511.910156 173.664062 512.925781 175.699219 514.953125 C 177.734375 516.980469 178.75 519.515625 178.75 522.558594 C 178.75 523.796875 178.582031 524.925781 178.242188 525.9375 C 177.902344 526.953125 177.507812 527.855469 177.054688 528.644531 C 176.601562 529.433594 175.980469 530.109375 175.191406 530.671875 C 174.398438 531.234375 173.71875 531.6875 173.15625 532.023438 C 172.589844 532.363281 172.023438 532.585938 171.460938 532.699219 C 170.894531 532.8125 170.441406 532.980469 170.101562 533.207031 L 169.425781 533.375 C 175.191406 538.445312 182.199219 540.980469 190.453125 540.980469 C 196.671875 540.980469 201.363281 537.996094 204.527344 532.023438 C 206.449219 528.304688 207.410156 522.613281 207.410156 514.953125 L 207.410156 511.570312 C 207.410156 500.867188 203.792969 493.710938 196.558594 490.105469 C 194.863281 489.429688 191.414062 489.035156 186.214844 488.921875 L 179.089844 488.753906 L 178.582031 488.414062 C 178.355469 488.078125 178.242188 487.175781 178.242188 485.710938 C 178.242188 483.683594 178.695312 482.667969 179.597656 482.667969 C 182.765625 482.667969 186.042969 482.386719 189.433594 481.824219 C 193.277344 481.261719 196.785156 478.894531 199.949219 474.722656 C 203.113281 470.554688 204.699219 464.246094 204.699219 455.792969 L 204.699219 454.441406 C 204.699219 448.019531 202.71875 443.566406 198.761719 441.089844 C 196.273438 439.511719 193.617188 438.722656 190.792969 438.722656 C 187.175781 438.722656 183.839844 439.34375 180.785156 440.582031 C 177.734375 441.820312 175.585938 443.117188 174.34375 444.46875 C 173.097656 445.820312 172.476562 446.496094 172.476562 446.496094 L 172.984375 446.496094 C 173.324219 446.609375 173.777344 446.722656 174.34375 446.835938 C 174.90625 446.949219 175.472656 447.230469 176.039062 447.679688 C 176.601562 448.132812 177.28125 448.527344 178.074219 448.863281 C 178.863281 449.203125 179.429688 449.820312 179.769531 450.722656 C 180.109375 451.625 180.558594 452.46875 181.125 453.257812 C 181.691406 454.046875 181.859375 455.175781 181.632812 456.640625 C 181.632812 459.117188 180.84375 461.316406 179.261719 463.230469 C 177.675781 465.144531 175.132812 466.160156 171.628906 466.273438 Z M 171.628906 466.273438 " fill-opacity="1" fill-rule="nonzero"/></g><path fill="#000000" d="M 133.132812 391.394531 L 251.839844 391.394531 L 251.839844 381.253906 L 133.132812 381.253906 Z M 133.132812 391.394531 " fill-opacity="1" fill-rule="nonzero"/><path fill="#000000" d="M 416.710938 423.679688 C 416.710938 425.933594 415.523438 427.058594 413.148438 427.058594 C 412.582031 427.058594 411.339844 426.15625 409.417969 424.355469 C 407.496094 422.550781 402.183594 417.3125 393.476562 408.636719 L 375.839844 391.058594 L 358.035156 408.804688 C 346.050781 420.523438 339.886719 426.496094 339.550781 426.722656 C 339.097656 426.945312 338.703125 427.058594 338.363281 427.058594 C 337.457031 427.058594 336.667969 426.722656 335.988281 426.046875 C 335.308594 425.371094 334.914062 424.582031 334.800781 423.679688 C 334.800781 422.890625 335.59375 421.652344 337.175781 419.960938 C 338.757812 418.269531 344.070312 412.917969 353.117188 403.902344 L 370.753906 386.324219 L 353.117188 368.746094 C 343.957031 359.617188 338.644531 354.265625 337.175781 352.6875 C 335.707031 351.109375 334.914062 349.871094 334.800781 348.96875 C 334.800781 347.957031 335.140625 347.167969 335.820312 346.605469 C 336.496094 346.039062 337.34375 345.757812 338.363281 345.757812 C 338.925781 345.757812 339.324219 345.816406 339.550781 345.929688 C 339.886719 346.152344 346.050781 352.125 358.035156 363.84375 L 375.839844 381.59375 L 393.476562 364.011719 C 402.183594 355.335938 407.496094 350.097656 409.417969 348.292969 C 411.339844 346.492188 412.582031 345.589844 413.148438 345.589844 C 415.523438 345.589844 416.710938 346.714844 416.710938 348.96875 C 416.710938 349.757812 416.144531 350.773438 415.011719 352.011719 C 413.882812 353.253906 408.34375 358.773438 398.394531 368.578125 L 380.757812 386.324219 L 398.394531 404.070312 C 407.890625 413.539062 413.316406 419.003906 414.675781 420.46875 C 416.03125 421.933594 416.710938 423.003906 416.710938 423.679688 Z M 416.710938 423.679688 " fill-opacity="1" fill-rule="nonzero"/><g clip-path="url(#6ceb064cd0)"><path fill="#000000" d="M 535.28125 241.808594 C 532.230469 241.808594 529.796875 240.792969 527.988281 238.765625 C 526.179688 236.738281 525.277344 234.257812 525.277344 231.328125 C 525.277344 223.328125 528.273438 216.398438 534.265625 210.539062 C 540.253906 204.679688 547.71875 201.75 556.648438 201.75 C 566.9375 201.75 575.527344 204.90625 582.425781 211.214844 C 589.320312 217.527344 592.824219 225.695312 592.9375 235.722656 C 592.9375 240.570312 591.808594 245.1875 589.546875 249.582031 C 587.285156 253.980469 584.574219 257.808594 581.40625 261.078125 C 578.242188 264.34375 573.71875 268.515625 567.839844 273.585938 C 563.769531 277.078125 558.117188 282.261719 550.882812 289.136719 L 540.878906 298.601562 L 553.765625 298.769531 C 571.515625 298.769531 580.957031 298.488281 582.085938 297.925781 C 582.878906 297.699219 584.234375 292.683594 586.15625 282.882812 L 586.15625 282.375 L 592.9375 282.375 L 592.9375 282.882812 C 592.824219 283.21875 592.089844 288.347656 590.734375 298.261719 C 589.378906 308.179688 588.53125 313.363281 588.191406 313.8125 L 588.191406 314.320312 L 525.277344 314.320312 L 525.277344 309.082031 C 525.277344 308.292969 525.613281 307.445312 526.292969 306.546875 C 526.972656 305.644531 528.667969 303.671875 531.378906 300.628906 C 534.660156 297.023438 537.484375 293.867188 539.859375 291.164062 C 540.878906 290.035156 542.800781 287.953125 545.625 284.910156 C 548.453125 281.867188 550.375 279.78125 551.390625 278.65625 C 552.410156 277.527344 554.046875 275.671875 556.308594 273.078125 C 558.570312 270.488281 560.152344 268.570312 561.058594 267.332031 C 561.960938 266.09375 563.261719 264.402344 564.957031 262.261719 C 566.652344 260.121094 567.839844 258.316406 568.519531 256.851562 C 569.199219 255.386719 570.046875 253.753906 571.0625 251.949219 C 572.082031 250.148438 572.816406 248.34375 573.269531 246.542969 C 573.71875 244.738281 574.117188 243.046875 574.453125 241.472656 C 574.792969 239.894531 574.964844 238.035156 574.964844 235.894531 C 574.964844 228.792969 573.042969 222.652344 569.199219 217.46875 C 565.355469 212.285156 559.871094 209.695312 552.75 209.695312 C 549.015625 209.695312 545.738281 210.652344 542.914062 212.566406 C 540.085938 214.484375 538.109375 216.34375 536.976562 218.144531 C 535.847656 219.949219 535.28125 221.019531 535.28125 221.355469 C 535.28125 221.46875 535.5625 221.527344 536.128906 221.527344 C 538.164062 221.527344 540.253906 222.316406 542.402344 223.890625 C 544.550781 225.46875 545.625 228.0625 545.625 231.667969 C 545.625 234.484375 544.722656 236.851562 542.914062 238.765625 C 541.101562 240.683594 538.558594 241.695312 535.28125 241.808594 Z M 535.28125 241.808594 " fill-opacity="1" fill-rule="nonzero"/></g><g clip-path="url(#07edb9e138)"><path fill="#000000" d="M 523.917969 491.625 C 523.917969 473.257812 528.496094 458.722656 537.65625 448.019531 C 546.8125 437.3125 556.988281 431.960938 568.179688 431.960938 C 575.980469 431.960938 581.578125 433.988281 584.96875 438.046875 C 588.359375 442.101562 590.054688 446.609375 590.054688 451.566406 C 590.054688 454.386719 589.265625 456.640625 587.683594 458.328125 C 586.097656 460.019531 583.894531 460.863281 581.070312 460.863281 C 578.46875 460.863281 576.320312 460.074219 574.625 458.5 C 572.929688 456.921875 572.082031 454.722656 572.082031 451.90625 C 572.082031 446.949219 574.738281 443.960938 580.050781 442.949219 C 577.5625 440.46875 574.058594 439.058594 569.535156 438.722656 C 561.511719 438.722656 554.894531 442.101562 549.695312 448.863281 C 544.382812 456.300781 541.726562 467.683594 541.726562 483.007812 L 541.894531 483.683594 C 542.460938 483.007812 542.914062 482.273438 543.25 481.484375 C 547.886719 474.722656 553.933594 471.34375 561.398438 471.34375 L 562.074219 471.34375 C 567.277344 471.34375 571.855469 472.414062 575.8125 474.554688 C 578.523438 476.132812 581.238281 478.386719 583.953125 481.316406 C 586.664062 484.246094 588.871094 487.457031 590.566406 490.949219 C 592.9375 496.472656 594.125 502.5 594.125 509.035156 L 594.125 512.078125 C 594.125 514.671875 593.84375 517.09375 593.277344 519.347656 C 592.035156 525.996094 588.417969 532.472656 582.425781 538.785156 C 576.433594 545.09375 568.859375 548.25 559.699219 548.25 C 556.535156 548.25 553.484375 547.800781 550.542969 546.898438 C 547.605469 545.996094 544.4375 544.304688 541.046875 541.828125 C 537.65625 539.347656 534.773438 536.023438 532.398438 531.855469 C 530.023438 527.683594 527.988281 522.21875 526.292969 515.460938 C 524.597656 508.699219 523.804688 500.753906 523.917969 491.625 Z M 560.378906 477.429688 C 556.988281 477.429688 554.046875 478.386719 551.5625 480.300781 C 549.074219 482.21875 547.152344 484.753906 545.796875 487.910156 C 544.4375 491.0625 543.476562 494.273438 542.914062 497.542969 C 542.347656 500.808594 542.007812 504.304688 541.894531 508.023438 C 541.894531 517.375 542.574219 524.078125 543.929688 528.136719 C 545.285156 532.191406 547.433594 535.460938 550.375 537.941406 C 553.085938 539.96875 556.082031 540.980469 559.363281 540.980469 C 565.128906 540.980469 569.535156 538.839844 572.589844 534.558594 C 574.058594 532.53125 575.078125 529.996094 575.640625 526.953125 C 576.207031 523.910156 576.488281 517.996094 576.488281 509.207031 C 576.488281 500.191406 576.207031 494.164062 575.640625 491.121094 C 575.078125 488.078125 574.058594 485.542969 572.589844 483.511719 C 569.535156 479.457031 565.46875 477.429688 560.378906 477.429688 Z M 560.378906 477.429688 " fill-opacity="1" fill-rule="nonzero"/></g><path fill="#000000" d="M 499.839844 391.394531 L 618.546875 391.394531 L 618.546875 381.253906 L 499.839844 381.253906 Z M 499.839844 391.394531 " fill-opacity="1" fill-rule="nonzero"/></svg>