<svg xmlns="http://www.w3.org/2000/svg" xmlns:xlink="http://www.w3.org/1999/xlink" width="1000" zoomAndPan="magnify" viewBox="0 0 750 749.999995" height="1000" preserveAspectRatio="xMidYMid meet" version="1.0"><defs><clipPath id="8f3b6b2721"><path d="M 118 204.308594 L 188 204.308594 L 188 319 L 118 319 Z M 118 204.308594 " clip-rule="nonzero"/></clipPath><clipPath id="7283b3b744"><path d="M 118 431 L 188 431 L 188 545.691406 L 118 545.691406 Z M 118 431 " clip-rule="nonzero"/></clipPath><clipPath id="7dfe379b81"><path d="M 486 204.308594 L 544 204.308594 L 544 316 L 486 316 Z M 486 204.308594 " clip-rule="nonzero"/></clipPath><clipPath id="b5961e3a0c"><path d="M 562 204.308594 L 632 204.308594 L 632 319 L 562 319 Z M 562 204.308594 " clip-rule="nonzero"/></clipPath><clipPath id="850d1c5f32"><path d="M 521 431 L 591 431 L 591 545.691406 L 521 545.691406 Z M 521 431 " clip-rule="nonzero"/></clipPath></defs><rect x="-75" width="900" fill="#ffffff" y="-74.999999" height="899.999994" fill-opacity="1"/><rect x="-75" width="900" fill="#ffffff" y="-74.999999" height="899.999994" fill-opacity="1"/><g clip-path="url(#8f3b6b2721)"><path fill="#000000" d="M 132.90625 238.113281 C 129.90625 238.113281 127.570312 237.171875 125.902344 235.285156 C 124.234375 233.398438 123.34375 230.953125 123.234375 227.957031 C 123.234375 221.851562 125.902344 216.410156 131.238281 211.636719 C 136.574219 206.863281 143.023438 204.476562 150.582031 204.476562 C 154.472656 204.476562 156.921875 204.53125 157.921875 204.644531 C 166.148438 205.976562 172.429688 208.917969 176.765625 213.46875 C 181.101562 218.019531 183.324219 222.960938 183.4375 228.289062 C 183.4375 234.0625 181.546875 239.667969 177.765625 245.109375 C 173.984375 250.550781 168.761719 254.492188 162.089844 256.933594 L 161.589844 257.265625 C 161.589844 257.375 162.089844 257.542969 163.089844 257.765625 C 164.089844 257.988281 165.703125 258.488281 167.925781 259.265625 C 170.148438 260.042969 172.261719 261.207031 174.265625 262.761719 C 183.378906 268.644531 187.9375 276.417969 187.9375 286.074219 C 187.9375 294.84375 184.492188 302.503906 177.597656 309.054688 C 170.707031 315.605469 161.980469 318.878906 151.417969 318.878906 C 142.523438 318.878906 134.851562 316.492188 128.402344 311.71875 C 121.957031 306.945312 118.730469 300.894531 118.730469 293.570312 C 118.730469 290.460938 119.730469 287.960938 121.734375 286.074219 C 123.734375 284.1875 126.234375 283.1875 129.238281 283.078125 C 132.351562 283.078125 134.90625 284.078125 136.910156 286.074219 C 138.910156 288.074219 139.910156 290.570312 139.910156 293.570312 C 139.910156 294.789062 139.742188 295.898438 139.410156 296.898438 C 139.078125 297.898438 138.6875 298.785156 138.242188 299.5625 C 137.796875 300.339844 137.1875 301.007812 136.410156 301.5625 C 135.628906 302.117188 134.964844 302.5625 134.40625 302.894531 C 133.851562 303.226562 133.296875 303.449219 132.738281 303.558594 C 132.183594 303.671875 131.738281 303.835938 131.40625 304.058594 L 130.738281 304.226562 C 136.410156 309.222656 143.300781 311.71875 151.417969 311.71875 C 157.53125 311.71875 162.144531 308.777344 165.257812 302.894531 C 167.148438 299.230469 168.09375 293.625 168.09375 286.074219 L 168.09375 282.746094 C 168.09375 272.199219 164.535156 265.148438 157.421875 261.59375 C 155.753906 260.929688 152.363281 260.539062 147.25 260.429688 L 140.242188 260.261719 L 139.742188 259.929688 C 139.519531 259.597656 139.410156 258.710938 139.410156 257.265625 C 139.410156 255.265625 139.855469 254.269531 140.746094 254.269531 C 143.855469 254.269531 147.082031 253.992188 150.417969 253.4375 C 154.195312 252.878906 157.644531 250.550781 160.757812 246.441406 C 163.867188 242.332031 165.425781 236.117188 165.425781 227.789062 L 165.425781 226.457031 C 165.425781 220.128906 163.480469 215.746094 159.589844 213.304688 C 157.144531 211.75 154.53125 210.972656 151.75 210.972656 C 148.191406 210.972656 144.914062 211.582031 141.910156 212.804688 C 138.910156 214.023438 136.796875 215.300781 135.574219 216.632812 C 134.351562 217.964844 133.742188 218.632812 133.742188 218.632812 L 134.242188 218.632812 C 134.574219 218.742188 135.019531 218.855469 135.574219 218.964844 C 136.128906 219.074219 136.6875 219.351562 137.242188 219.796875 C 137.796875 220.242188 138.464844 220.628906 139.242188 220.964844 C 140.023438 221.296875 140.578125 221.90625 140.910156 222.792969 C 141.246094 223.683594 141.6875 224.515625 142.246094 225.292969 C 142.800781 226.070312 142.96875 227.179688 142.746094 228.625 C 142.746094 231.066406 141.96875 233.230469 140.410156 235.117188 C 138.855469 237.003906 136.351562 238.003906 132.90625 238.113281 Z M 132.90625 238.113281 " fill-opacity="1" fill-rule="nonzero"/></g><g clip-path="url(#7283b3b744)"><path fill="#000000" d="M 118.730469 489.902344 C 118.730469 471.808594 123.234375 457.484375 132.238281 446.9375 C 141.246094 436.394531 151.25 431.121094 162.257812 431.121094 C 169.929688 431.121094 175.429688 433.117188 178.765625 437.113281 C 182.101562 441.109375 183.769531 445.550781 183.769531 450.4375 C 183.769531 453.210938 182.992188 455.433594 181.433594 457.097656 C 179.878906 458.761719 177.710938 459.59375 174.929688 459.59375 C 172.375 459.59375 170.261719 458.816406 168.59375 457.265625 C 166.925781 455.710938 166.09375 453.546875 166.09375 450.769531 C 166.09375 445.886719 168.703125 442.941406 173.929688 441.945312 C 171.484375 439.5 168.039062 438.113281 163.589844 437.78125 C 155.699219 437.78125 149.195312 441.109375 144.078125 447.773438 C 138.855469 455.097656 136.242188 466.3125 136.242188 481.410156 L 136.410156 482.078125 C 136.964844 481.410156 137.410156 480.6875 137.742188 479.910156 C 142.300781 473.25 148.25 469.921875 155.585938 469.921875 L 156.253906 469.921875 C 161.367188 469.921875 165.871094 470.976562 169.761719 473.085938 C 172.429688 474.636719 175.097656 476.859375 177.765625 479.746094 C 180.433594 482.632812 182.601562 485.796875 184.269531 489.238281 C 186.605469 494.675781 187.773438 500.617188 187.773438 507.054688 L 187.773438 510.054688 C 187.773438 512.605469 187.492188 514.992188 186.9375 517.214844 C 185.714844 523.761719 182.15625 530.148438 176.265625 536.363281 C 170.371094 542.582031 162.925781 545.691406 153.917969 545.691406 C 150.804688 545.691406 147.804688 545.246094 144.914062 544.355469 C 142.023438 543.46875 138.910156 541.804688 135.574219 539.363281 C 132.238281 536.917969 129.40625 533.644531 127.070312 529.535156 C 124.734375 525.429688 122.734375 520.042969 121.066406 513.382812 C 119.398438 506.722656 118.621094 498.894531 118.730469 489.902344 Z M 154.585938 475.914062 C 151.25 475.914062 148.359375 476.859375 145.914062 478.746094 C 143.46875 480.632812 141.578125 483.132812 140.242188 486.238281 C 138.910156 489.347656 137.964844 492.511719 137.410156 495.730469 C 136.851562 498.953125 136.519531 502.394531 136.410156 506.054688 C 136.410156 515.269531 137.074219 521.875 138.410156 525.871094 C 139.742188 529.871094 141.855469 533.089844 144.746094 535.53125 C 147.414062 537.53125 150.359375 538.527344 153.585938 538.527344 C 159.253906 538.527344 163.589844 536.417969 166.59375 532.199219 C 168.039062 530.203125 169.039062 527.703125 169.59375 524.707031 C 170.148438 521.710938 170.429688 515.882812 170.429688 507.222656 C 170.429688 498.339844 170.148438 492.402344 169.59375 489.402344 C 169.039062 486.40625 168.039062 483.910156 166.59375 481.910156 C 163.589844 477.914062 159.589844 475.914062 154.585938 475.914062 Z M 154.585938 475.914062 " fill-opacity="1" fill-rule="nonzero"/></g><path fill="#000000" d="M 95.050781 391.152344 L 211.785156 391.152344 L 211.785156 381.160156 L 95.050781 381.160156 Z M 95.050781 391.152344 " fill-opacity="1" fill-rule="nonzero"/><path fill="#000000" d="M 373.914062 422.960938 C 373.914062 425.179688 372.746094 426.289062 370.410156 426.289062 C 369.855469 426.289062 368.632812 425.402344 366.742188 423.625 C 364.851562 421.847656 359.625 416.6875 351.066406 408.140625 L 333.722656 390.820312 L 316.210938 408.304688 C 304.429688 419.851562 298.367188 425.734375 298.035156 425.957031 C 297.589844 426.179688 297.203125 426.289062 296.867188 426.289062 C 295.980469 426.289062 295.199219 425.957031 294.535156 425.289062 C 293.867188 424.625 293.476562 423.847656 293.367188 422.960938 C 293.367188 422.183594 294.144531 420.960938 295.699219 419.296875 C 297.257812 417.628906 302.484375 412.359375 311.375 403.476562 L 328.71875 386.15625 L 311.375 368.839844 C 302.371094 359.847656 297.144531 354.574219 295.699219 353.019531 C 294.253906 351.464844 293.476562 350.242188 293.367188 349.355469 C 293.367188 348.355469 293.699219 347.578125 294.367188 347.023438 C 295.035156 346.46875 295.867188 346.191406 296.867188 346.191406 C 297.425781 346.191406 297.8125 346.246094 298.035156 346.359375 C 298.367188 346.578125 304.429688 352.464844 316.210938 364.007812 L 333.722656 381.496094 L 351.066406 364.175781 C 359.625 355.628906 364.851562 350.464844 366.742188 348.6875 C 368.632812 346.914062 369.855469 346.023438 370.410156 346.023438 C 372.746094 346.023438 373.914062 347.132812 373.914062 349.355469 C 373.914062 350.132812 373.355469 351.132812 372.246094 352.351562 C 371.132812 353.574219 365.6875 359.011719 355.902344 368.671875 L 338.558594 386.15625 L 355.902344 403.640625 C 365.242188 412.96875 370.578125 418.351562 371.910156 419.796875 C 373.246094 421.238281 373.914062 422.292969 373.914062 422.960938 Z M 373.914062 422.960938 " fill-opacity="1" fill-rule="nonzero"/><g clip-path="url(#7dfe379b81)"><path fill="#000000" d="M 507.855469 218.964844 L 505.6875 219.796875 C 504.132812 220.351562 501.910156 220.90625 499.019531 221.460938 C 496.128906 222.019531 492.902344 222.40625 489.347656 222.628906 L 486.179688 222.628906 L 486.179688 214.96875 L 489.347656 214.96875 C 494.570312 214.746094 499.40625 213.914062 503.855469 212.46875 C 508.300781 211.027344 511.414062 209.695312 513.195312 208.472656 C 514.972656 207.253906 516.527344 206.03125 517.863281 204.808594 C 518.085938 204.476562 518.753906 204.308594 519.863281 204.308594 C 520.863281 204.308594 521.808594 204.644531 522.699219 205.308594 L 522.699219 255.101562 L 522.867188 305.058594 C 523.644531 305.835938 524.3125 306.335938 524.867188 306.558594 C 525.421875 306.78125 526.757812 307 528.871094 307.222656 C 530.980469 307.445312 534.429688 307.558594 539.207031 307.558594 L 543.542969 307.558594 L 543.542969 315.21875 L 541.710938 315.21875 C 539.375 314.882812 530.535156 314.71875 515.195312 314.71875 C 500.074219 314.71875 491.347656 314.882812 489.011719 315.21875 L 487.011719 315.21875 L 487.011719 307.558594 L 491.347656 307.558594 C 493.792969 307.558594 495.90625 307.558594 497.683594 307.558594 C 499.464844 307.558594 500.851562 307.5 501.855469 307.390625 C 502.855469 307.277344 503.742188 307.113281 504.523438 306.890625 C 505.300781 306.667969 505.746094 306.558594 505.855469 306.558594 C 505.96875 306.558594 506.300781 306.28125 506.855469 305.726562 C 507.414062 305.167969 507.746094 304.949219 507.855469 305.058594 Z M 507.855469 218.964844 " fill-opacity="1" fill-rule="nonzero"/></g><g clip-path="url(#b5961e3a0c)"><path fill="#000000" d="M 562.722656 263.09375 C 562.722656 245 567.226562 230.675781 576.230469 220.128906 C 585.234375 209.582031 595.242188 204.308594 606.246094 204.308594 C 613.917969 204.308594 619.421875 206.308594 622.757812 210.304688 C 626.09375 214.300781 627.761719 218.742188 627.761719 223.628906 C 627.761719 226.402344 626.980469 228.625 625.425781 230.289062 C 623.867188 231.953125 621.699219 232.785156 618.921875 232.785156 C 616.363281 232.785156 614.253906 232.007812 612.585938 230.453125 C 610.917969 228.902344 610.082031 226.734375 610.082031 223.960938 C 610.082031 219.074219 612.695312 216.132812 617.921875 215.132812 C 615.476562 212.691406 612.027344 211.304688 607.582031 210.972656 C 599.6875 210.972656 593.183594 214.300781 588.070312 220.964844 C 582.84375 228.289062 580.234375 239.503906 580.234375 254.601562 L 580.398438 255.265625 C 580.957031 254.601562 581.398438 253.878906 581.734375 253.101562 C 586.292969 246.441406 592.238281 243.109375 599.578125 243.109375 L 600.246094 243.109375 C 605.359375 243.109375 609.859375 244.164062 613.753906 246.273438 C 616.421875 247.828125 619.089844 250.050781 621.757812 252.9375 C 624.425781 255.824219 626.59375 258.988281 628.261719 262.429688 C 630.59375 267.867188 631.761719 273.808594 631.761719 280.246094 L 631.761719 283.242188 C 631.761719 285.796875 631.484375 288.183594 630.929688 290.40625 C 629.707031 296.953125 626.148438 303.339844 620.253906 309.554688 C 614.363281 315.773438 606.914062 318.878906 597.910156 318.878906 C 594.796875 318.878906 591.792969 318.4375 588.902344 317.546875 C 586.015625 316.660156 582.902344 314.996094 579.566406 312.550781 C 576.230469 310.109375 573.394531 306.835938 571.0625 302.726562 C 568.726562 298.621094 566.726562 293.234375 565.058594 286.574219 C 563.390625 279.914062 562.609375 272.085938 562.722656 263.09375 Z M 598.578125 249.105469 C 595.242188 249.105469 592.351562 250.050781 589.90625 251.9375 C 587.457031 253.824219 585.570312 256.320312 584.234375 259.429688 C 582.902344 262.539062 581.957031 265.703125 581.398438 268.921875 C 580.84375 272.140625 580.511719 275.582031 580.398438 279.246094 C 580.398438 288.460938 581.066406 295.066406 582.402344 299.0625 C 583.734375 303.058594 585.847656 306.28125 588.738281 308.722656 C 591.40625 310.722656 594.351562 311.71875 597.574219 311.71875 C 603.246094 311.71875 607.582031 309.609375 610.582031 305.390625 C 612.027344 303.394531 613.03125 300.894531 613.585938 297.898438 C 614.140625 294.902344 614.417969 289.074219 614.417969 280.414062 C 614.417969 271.53125 614.140625 265.59375 613.585938 262.59375 C 613.03125 259.597656 612.027344 257.097656 610.582031 255.101562 C 607.582031 251.105469 603.578125 249.105469 598.578125 249.105469 Z M 598.578125 249.105469 " fill-opacity="1" fill-rule="nonzero"/></g><g clip-path="url(#850d1c5f32)"><path fill="#000000" d="M 525.699219 472.585938 C 525.699219 472.585938 525.699219 468.308594 525.699219 459.761719 C 525.699219 451.214844 528.703125 444.332031 534.707031 439.113281 C 540.710938 433.894531 547.601562 431.230469 555.386719 431.121094 C 563.277344 431.121094 570.28125 433.449219 576.398438 438.113281 C 582.511719 442.777344 585.570312 448.828125 585.570312 456.265625 C 585.570312 459.59375 584.957031 462.703125 583.734375 465.589844 C 582.511719 468.476562 581.066406 470.808594 579.398438 472.585938 C 577.730469 474.359375 576.007812 475.914062 574.230469 477.246094 C 572.449219 478.578125 571.003906 479.578125 569.894531 480.246094 C 568.78125 480.910156 568.171875 481.355469 568.058594 481.578125 L 570.394531 483.074219 C 571.949219 484.1875 573.507812 485.296875 575.0625 486.40625 C 576.621094 487.515625 577.507812 488.128906 577.730469 488.238281 C 586.070312 494.789062 590.238281 503.058594 590.238281 513.050781 C 590.238281 521.820312 587.015625 529.425781 580.566406 535.863281 C 574.117188 542.304688 565.78125 545.578125 555.550781 545.691406 C 545.546875 545.691406 537.320312 542.859375 530.871094 537.195312 C 524.421875 531.535156 521.199219 524.539062 521.199219 516.214844 C 521.199219 504.222656 528.367188 494.234375 542.710938 486.238281 L 539.710938 484.074219 C 537.375 482.632812 535.875 481.519531 535.207031 480.746094 C 528.871094 475.304688 525.699219 468.308594 525.699219 459.761719 Z M 561.722656 477.746094 L 562.722656 477.082031 C 563.390625 476.636719 563.890625 476.304688 564.222656 476.082031 C 564.558594 475.859375 565.113281 475.472656 565.890625 474.914062 C 566.667969 474.359375 567.335938 473.804688 567.890625 473.25 C 568.449219 472.695312 569.058594 472.03125 569.726562 471.253906 C 570.394531 470.476562 571.003906 469.753906 571.5625 469.085938 C 572.117188 468.421875 572.671875 467.535156 573.226562 466.421875 C 573.785156 465.3125 574.285156 464.371094 574.730469 463.59375 C 575.175781 462.816406 575.453125 461.703125 575.5625 460.261719 C 575.675781 458.816406 575.785156 457.597656 575.898438 456.597656 C 575.898438 451.824219 574.285156 447.773438 571.0625 444.441406 C 567.835938 441.109375 564.113281 439 559.886719 438.113281 C 559.109375 438.003906 557.273438 437.945312 554.382812 437.945312 C 549.824219 437.945312 545.546875 439.390625 541.542969 442.277344 C 537.542969 445.164062 535.484375 448.769531 535.375 453.101562 C 535.375 455.65625 536.097656 457.984375 537.542969 460.09375 C 538.988281 462.203125 540.433594 463.8125 541.878906 464.925781 C 543.320312 466.035156 546.101562 467.8125 550.214844 470.253906 C 550.992188 470.808594 551.605469 471.195312 552.050781 471.417969 Z M 555.71875 538.527344 C 562.167969 538.527344 567.726562 536.640625 572.394531 532.867188 C 577.0625 529.09375 579.398438 524.539062 579.398438 519.210938 C 579.398438 517.324219 579.121094 515.546875 578.566406 513.882812 C 578.007812 512.21875 577.34375 510.832031 576.5625 509.71875 C 575.785156 508.609375 574.5625 507.386719 572.894531 506.054688 C 571.226562 504.722656 569.949219 503.726562 569.058594 503.058594 C 568.171875 502.394531 566.558594 501.339844 564.222656 499.894531 C 561.886719 498.453125 560.386719 497.507812 559.71875 497.0625 C 558.164062 496.066406 556.496094 495.011719 554.71875 493.898438 C 552.9375 492.789062 551.492188 491.847656 550.382812 491.070312 L 549.046875 490.234375 C 548.378906 490.234375 546.769531 491.179688 544.210938 493.066406 C 541.65625 494.953125 538.988281 498.007812 536.207031 502.226562 C 533.425781 506.445312 531.980469 510.996094 531.871094 515.882812 C 531.871094 522.429688 534.261719 527.816406 539.042969 532.035156 C 543.824219 536.253906 549.382812 538.417969 555.71875 538.527344 Z M 555.71875 538.527344 " fill-opacity="1" fill-rule="nonzero"/></g><path fill="#000000" d="M 455.660156 391.152344 L 655.777344 391.152344 L 655.777344 381.160156 L 455.660156 381.160156 Z M 455.660156 391.152344 " fill-opacity="1" fill-rule="nonzero"/></svg>