<svg xmlns="http://www.w3.org/2000/svg" xmlns:xlink="http://www.w3.org/1999/xlink" width="1000" zoomAndPan="magnify" viewBox="0 0 750 749.999995" height="1000" preserveAspectRatio="xMidYMid meet" version="1.0"><rect x="-75" width="900" fill="#ffffff" y="-74.999999" height="899.999994" fill-opacity="1"/><rect x="-75" width="900" fill="#ffffff" y="-74.999999" height="899.999994" fill-opacity="1"/><path fill="#000000" d="M 321.535156 313.261719 C 313.652344 313.261719 307.519531 310.789062 303.140625 305.84375 C 298.757812 300.898438 296.421875 294.5 296.132812 286.648438 C 296.132812 270.648438 303.140625 256.394531 317.15625 243.886719 C 331.171875 231.378906 348.105469 225.125 367.964844 225.125 C 378.183594 225.125 384.605469 225.273438 387.234375 225.5625 C 408.84375 229.054688 425.339844 236.761719 436.730469 248.6875 C 448.117188 260.613281 453.957031 273.558594 454.25 287.519531 C 454.25 302.644531 449.285156 317.335938 439.355469 331.585938 C 429.429688 345.839844 415.703125 356.164062 398.183594 362.566406 L 396.871094 363.4375 C 396.871094 363.730469 398.183594 364.164062 400.8125 364.746094 C 403.441406 365.328125 407.675781 366.636719 413.515625 368.671875 C 419.355469 370.710938 424.902344 373.765625 430.160156 377.835938 C 454.101562 393.253906 466.074219 413.613281 466.074219 438.917969 C 466.074219 461.898438 457.023438 481.96875 438.917969 499.132812 C 420.816406 516.292969 397.894531 524.875 370.152344 524.875 C 346.792969 524.875 326.644531 518.621094 309.710938 506.113281 C 292.773438 493.605469 284.304688 477.75 284.304688 458.554688 C 284.304688 450.410156 286.933594 443.863281 292.1875 438.917969 C 297.445312 433.976562 304.015625 431.355469 311.898438 431.066406 C 320.074219 431.066406 326.792969 433.683594 332.046875 438.917969 C 337.304688 444.15625 339.929688 450.699219 339.929688 458.554688 C 339.929688 461.753906 339.492188 464.664062 338.617188 467.28125 C 337.742188 469.898438 336.71875 472.226562 335.550781 474.261719 C 334.382812 476.296875 332.777344 478.042969 330.734375 479.496094 C 328.6875 480.953125 326.9375 482.113281 325.476562 482.988281 C 324.015625 483.859375 322.558594 484.441406 321.097656 484.734375 C 319.636719 485.023438 318.46875 485.460938 317.59375 486.042969 L 315.839844 486.476562 C 330.734375 499.566406 348.835938 506.113281 370.152344 506.113281 C 386.214844 506.113281 398.332031 498.402344 406.507812 482.988281 C 411.472656 473.386719 413.953125 458.699219 413.953125 438.917969 L 413.953125 430.195312 C 413.953125 402.558594 404.609375 384.089844 385.921875 374.78125 C 381.542969 373.035156 372.636719 372.019531 359.203125 371.726562 L 340.808594 371.292969 L 339.492188 370.417969 C 338.910156 369.546875 338.617188 367.21875 338.617188 363.4375 C 338.617188 358.203125 339.785156 355.585938 342.121094 355.585938 C 350.296875 355.585938 358.765625 354.855469 367.523438 353.402344 C 377.453125 351.949219 386.503906 345.839844 394.679688 335.078125 C 402.855469 324.316406 406.945312 308.027344 406.945312 286.210938 L 406.945312 282.71875 C 406.945312 266.140625 401.835938 254.652344 391.613281 248.25 C 385.191406 244.179688 378.328125 242.144531 371.027344 242.144531 C 361.683594 242.144531 353.070312 243.742188 345.1875 246.941406 C 337.304688 250.140625 331.753906 253.488281 328.542969 256.976562 C 325.332031 260.46875 323.726562 262.214844 323.726562 262.214844 L 325.039062 262.214844 C 325.914062 262.503906 327.082031 262.796875 328.542969 263.085938 C 330.003906 263.375 331.464844 264.105469 332.921875 265.265625 C 334.382812 266.429688 336.136719 267.449219 338.179688 268.320312 C 340.222656 269.195312 341.683594 270.792969 342.558594 273.121094 C 343.433594 275.449219 344.601562 277.628906 346.0625 279.664062 C 347.523438 281.703125 347.960938 284.609375 347.378906 288.390625 C 347.378906 294.792969 345.332031 300.464844 341.246094 305.40625 C 337.15625 310.351562 330.585938 312.972656 321.535156 313.261719 Z M 321.535156 313.261719 " fill-opacity="1" fill-rule="nonzero"/></svg>