<svg xmlns="http://www.w3.org/2000/svg" xmlns:xlink="http://www.w3.org/1999/xlink" width="1000" zoomAndPan="magnify" viewBox="0 0 750 749.999995" height="1000" preserveAspectRatio="xMidYMid meet" version="1.0"><defs><clipPath id="1c4a7f14e4"><path d="M 157 201.75 L 228 201.75 L 228 318 L 157 318 Z M 157 201.75 " clip-rule="nonzero"/></clipPath><clipPath id="3283a0cdf7"><path d="M 523 201.75 L 595 201.75 L 595 318 L 523 318 Z M 523 201.75 " clip-rule="nonzero"/></clipPath><clipPath id="1ae919c1da"><path d="M 523 432 L 595 432 L 595 548.25 L 523 548.25 Z M 523 432 " clip-rule="nonzero"/></clipPath></defs><rect x="-75" width="900" fill="#ffffff" y="-74.999999" height="899.999994" fill-opacity="1"/><rect x="-75" width="900" fill="#ffffff" y="-74.999999" height="899.999994" fill-opacity="1"/><g clip-path="url(#1c4a7f14e4)"><path fill="#000000" d="M 171.53125 235.910156 C 168.476562 235.910156 166.101562 234.953125 164.402344 233.035156 C 162.707031 231.117188 161.800781 228.636719 161.6875 225.59375 C 161.6875 219.394531 164.402344 213.871094 169.832031 209.023438 C 175.261719 204.175781 181.824219 201.75 189.515625 201.75 C 193.472656 201.75 195.960938 201.804688 196.980469 201.917969 C 205.347656 203.273438 211.738281 206.257812 216.152344 210.882812 C 220.5625 215.503906 222.824219 220.519531 222.9375 225.933594 C 222.9375 231.792969 221.015625 237.488281 217.167969 243.011719 C 213.324219 248.535156 208.007812 252.539062 201.222656 255.019531 L 200.710938 255.355469 C 200.710938 255.46875 201.222656 255.640625 202.238281 255.863281 C 203.257812 256.089844 204.898438 256.597656 207.160156 257.386719 C 209.421875 258.175781 211.570312 259.359375 213.605469 260.9375 C 222.882812 266.914062 227.519531 274.804688 227.519531 284.613281 C 227.519531 293.519531 224.011719 301.296875 217 307.949219 C 209.988281 314.601562 201.109375 317.925781 190.363281 317.925781 C 181.3125 317.925781 173.507812 315.503906 166.949219 310.65625 C 160.386719 305.808594 157.109375 299.664062 157.109375 292.222656 C 157.109375 289.066406 158.125 286.527344 160.160156 284.613281 C 162.199219 282.695312 164.742188 281.679688 167.796875 281.570312 C 170.964844 281.570312 173.566406 282.582031 175.601562 284.613281 C 177.636719 286.640625 178.65625 289.179688 178.65625 292.222656 C 178.65625 293.460938 178.484375 294.589844 178.144531 295.605469 C 177.808594 296.617188 177.410156 297.519531 176.957031 298.308594 C 176.507812 299.097656 175.882812 299.777344 175.09375 300.339844 C 174.300781 300.902344 173.621094 301.355469 173.054688 301.691406 C 172.492188 302.03125 171.925781 302.257812 171.359375 302.367188 C 170.792969 302.480469 170.339844 302.652344 170.003906 302.875 L 169.324219 303.046875 C 175.09375 308.117188 182.105469 310.65625 190.363281 310.65625 C 196.582031 310.65625 201.277344 307.667969 204.445312 301.691406 C 206.367188 297.972656 207.328125 292.277344 207.328125 284.613281 L 207.328125 281.230469 C 207.328125 270.519531 203.710938 263.359375 196.46875 259.753906 C 194.773438 259.078125 191.324219 258.683594 186.121094 258.570312 L 178.996094 258.402344 L 178.484375 258.0625 C 178.257812 257.722656 178.144531 256.824219 178.144531 255.355469 C 178.144531 253.328125 178.597656 252.3125 179.503906 252.3125 C 182.671875 252.3125 185.949219 252.03125 189.34375 251.46875 C 193.191406 250.902344 196.695312 248.535156 199.863281 244.363281 C 203.03125 240.195312 204.613281 233.878906 204.613281 225.425781 L 204.613281 224.070312 C 204.613281 217.644531 202.632812 213.191406 198.675781 210.710938 C 196.1875 209.132812 193.53125 208.34375 190.703125 208.34375 C 187.082031 208.34375 183.746094 208.964844 180.691406 210.207031 C 177.636719 211.445312 175.488281 212.742188 174.242188 214.09375 C 173 215.449219 172.378906 216.125 172.378906 216.125 L 172.886719 216.125 C 173.226562 216.238281 173.679688 216.347656 174.242188 216.460938 C 174.808594 216.574219 175.375 216.855469 175.941406 217.308594 C 176.507812 217.757812 177.183594 218.152344 177.976562 218.492188 C 178.769531 218.828125 179.335938 219.449219 179.671875 220.351562 C 180.011719 221.253906 180.464844 222.097656 181.03125 222.886719 C 181.597656 223.675781 181.765625 224.804688 181.539062 226.269531 C 181.539062 228.75 180.746094 230.949219 179.164062 232.867188 C 177.582031 234.78125 175.035156 235.796875 171.53125 235.910156 Z M 171.53125 235.910156 " fill-opacity="1" fill-rule="nonzero"/></g><path fill="#000000" d="M 186.121094 446.785156 L 183.914062 447.632812 C 182.332031 448.195312 180.070312 448.757812 177.128906 449.324219 C 174.1875 449.886719 170.90625 450.28125 167.289062 450.507812 L 164.0625 450.507812 L 164.0625 442.726562 L 167.289062 442.726562 C 172.605469 442.5 177.523438 441.65625 182.046875 440.191406 C 186.574219 438.726562 189.738281 437.371094 191.550781 436.132812 C 193.359375 434.890625 194.941406 433.652344 196.300781 432.410156 C 196.527344 432.074219 197.207031 431.90625 198.335938 431.90625 C 199.355469 431.90625 200.316406 432.242188 201.222656 432.917969 L 201.222656 483.480469 L 201.390625 534.214844 C 202.183594 535.003906 202.859375 535.511719 203.425781 535.734375 C 203.992188 535.960938 205.347656 536.1875 207.5 536.414062 C 209.648438 536.636719 213.152344 536.75 218.019531 536.75 L 222.429688 536.75 L 222.429688 544.53125 L 220.5625 544.53125 C 218.1875 544.191406 209.195312 544.023438 193.585938 544.023438 C 178.203125 544.023438 169.324219 544.191406 166.949219 544.53125 L 164.914062 544.53125 L 164.914062 536.75 L 169.324219 536.75 C 171.8125 536.75 173.960938 536.75 175.769531 536.75 C 177.582031 536.75 178.996094 536.695312 180.011719 536.582031 C 181.03125 536.46875 181.9375 536.300781 182.726562 536.074219 C 183.519531 535.847656 183.972656 535.734375 184.085938 535.734375 C 184.199219 535.734375 184.535156 535.453125 185.101562 534.890625 C 185.667969 534.328125 186.007812 534.101562 186.121094 534.214844 Z M 186.121094 446.785156 " fill-opacity="1" fill-rule="nonzero"/><path fill="#000000" d="M 133.015625 391.320312 L 251.78125 391.320312 L 251.78125 381.171875 L 133.015625 381.171875 Z M 133.015625 391.320312 " fill-opacity="1" fill-rule="nonzero"/><path fill="#000000" d="M 416.730469 423.617188 C 416.730469 425.871094 415.542969 427 413.167969 427 C 412.601562 427 411.355469 426.097656 409.433594 424.292969 C 407.511719 422.492188 402.195312 417.25 393.484375 408.566406 L 375.839844 390.980469 L 358.023438 408.738281 C 346.035156 420.460938 339.871094 426.4375 339.53125 426.664062 C 339.078125 426.886719 338.683594 427 338.34375 427 C 337.4375 427 336.648438 426.664062 335.96875 425.984375 C 335.289062 425.308594 334.894531 424.519531 334.78125 423.617188 C 334.78125 422.828125 335.574219 421.589844 337.15625 419.898438 C 338.738281 418.207031 344.054688 412.851562 353.105469 403.832031 L 370.75 386.246094 L 353.105469 368.660156 C 343.941406 359.527344 338.625 354.171875 337.15625 352.59375 C 335.6875 351.015625 334.894531 349.773438 334.78125 348.871094 C 334.78125 347.859375 335.121094 347.070312 335.800781 346.503906 C 336.476562 345.941406 337.324219 345.660156 338.34375 345.660156 C 338.910156 345.660156 339.304688 345.714844 339.53125 345.828125 C 339.871094 346.054688 346.035156 352.03125 358.023438 363.753906 L 375.839844 381.511719 L 393.484375 363.921875 C 402.195312 355.242188 407.511719 350 409.433594 348.195312 C 411.355469 346.394531 412.601562 345.492188 413.167969 345.492188 C 415.542969 345.492188 416.730469 346.617188 416.730469 348.871094 C 416.730469 349.664062 416.164062 350.675781 415.03125 351.917969 C 413.902344 353.15625 408.359375 358.679688 398.40625 368.488281 L 380.761719 386.246094 L 398.40625 404 C 407.90625 413.472656 413.335938 418.941406 414.691406 420.40625 C 416.050781 421.871094 416.730469 422.941406 416.730469 423.617188 Z M 416.730469 423.617188 " fill-opacity="1" fill-rule="nonzero"/><g clip-path="url(#3283a0cdf7)"><path fill="#000000" d="M 538.414062 235.910156 C 535.359375 235.910156 532.984375 234.953125 531.285156 233.035156 C 529.589844 231.117188 528.683594 228.636719 528.574219 225.59375 C 528.574219 219.394531 531.285156 213.871094 536.714844 209.023438 C 542.144531 204.175781 548.707031 201.75 556.398438 201.75 C 560.355469 201.75 562.84375 201.804688 563.863281 201.917969 C 572.234375 203.273438 578.625 206.257812 583.035156 210.882812 C 587.445312 215.503906 589.707031 220.519531 589.820312 225.933594 C 589.820312 231.792969 587.898438 237.488281 584.054688 243.011719 C 580.207031 248.535156 574.890625 252.539062 568.105469 255.019531 L 567.59375 255.355469 C 567.59375 255.46875 568.105469 255.640625 569.121094 255.863281 C 570.140625 256.089844 571.78125 256.597656 574.042969 257.386719 C 576.304688 258.175781 578.453125 259.359375 580.488281 260.9375 C 589.765625 266.914062 594.402344 274.804688 594.402344 284.613281 C 594.402344 293.519531 590.894531 301.296875 583.882812 307.949219 C 576.871094 314.601562 567.992188 317.925781 557.246094 317.925781 C 548.195312 317.925781 540.390625 315.503906 533.832031 310.65625 C 527.273438 305.808594 523.992188 299.664062 523.992188 292.222656 C 523.992188 289.066406 525.007812 286.527344 527.046875 284.613281 C 529.082031 282.695312 531.625 281.679688 534.679688 281.570312 C 537.847656 281.570312 540.449219 282.582031 542.484375 284.613281 C 544.519531 286.640625 545.539062 289.179688 545.539062 292.222656 C 545.539062 293.460938 545.371094 294.589844 545.03125 295.605469 C 544.691406 296.617188 544.292969 297.519531 543.84375 298.308594 C 543.390625 299.097656 542.769531 299.777344 541.976562 300.339844 C 541.183594 300.902344 540.503906 301.355469 539.941406 301.691406 C 539.375 302.03125 538.808594 302.257812 538.242188 302.367188 C 537.679688 302.480469 537.226562 302.652344 536.886719 302.875 L 536.207031 303.046875 C 541.976562 308.117188 548.988281 310.65625 557.246094 310.65625 C 563.46875 310.65625 568.160156 307.667969 571.328125 301.691406 C 573.25 297.972656 574.210938 292.277344 574.210938 284.613281 L 574.210938 281.230469 C 574.210938 270.519531 570.59375 263.359375 563.355469 259.753906 C 561.65625 259.078125 558.207031 258.683594 553.003906 258.570312 L 545.878906 258.402344 L 545.371094 258.0625 C 545.144531 257.722656 545.03125 256.824219 545.03125 255.355469 C 545.03125 253.328125 545.480469 252.3125 546.386719 252.3125 C 549.554688 252.3125 552.835938 252.03125 556.226562 251.46875 C 560.074219 250.902344 563.578125 248.535156 566.746094 244.363281 C 569.914062 240.195312 571.496094 233.878906 571.496094 225.425781 L 571.496094 224.070312 C 571.496094 217.644531 569.519531 213.191406 565.558594 210.710938 C 563.070312 209.132812 560.414062 208.34375 557.585938 208.34375 C 553.964844 208.34375 550.628906 208.964844 547.574219 210.207031 C 544.519531 211.445312 542.371094 212.742188 541.128906 214.09375 C 539.882812 215.449219 539.261719 216.125 539.261719 216.125 L 539.769531 216.125 C 540.109375 216.238281 540.5625 216.347656 541.128906 216.460938 C 541.691406 216.574219 542.257812 216.855469 542.824219 217.308594 C 543.390625 217.757812 544.070312 218.152344 544.859375 218.492188 C 545.652344 218.828125 546.21875 219.449219 546.558594 220.351562 C 546.894531 221.253906 547.347656 222.097656 547.914062 222.886719 C 548.480469 223.675781 548.648438 224.804688 548.421875 226.269531 C 548.421875 228.75 547.632812 230.949219 546.046875 232.867188 C 544.464844 234.78125 541.917969 235.796875 538.414062 235.910156 Z M 538.414062 235.910156 " fill-opacity="1" fill-rule="nonzero"/></g><g clip-path="url(#1ae919c1da)"><path fill="#000000" d="M 538.414062 466.234375 C 535.359375 466.234375 532.984375 465.273438 531.285156 463.359375 C 529.589844 461.441406 528.683594 458.960938 528.574219 455.917969 C 528.574219 449.71875 531.285156 444.191406 536.714844 439.34375 C 542.144531 434.496094 548.707031 432.074219 556.398438 432.074219 C 560.355469 432.074219 562.84375 432.128906 563.863281 432.242188 C 572.234375 433.59375 578.625 436.582031 583.035156 441.207031 C 587.445312 445.828125 589.707031 450.84375 589.820312 456.253906 C 589.820312 462.117188 587.898438 467.8125 584.054688 473.335938 C 580.207031 478.859375 574.890625 482.863281 568.105469 485.34375 L 567.59375 485.679688 C 567.59375 485.792969 568.105469 485.960938 569.121094 486.1875 C 570.140625 486.414062 571.78125 486.921875 574.042969 487.710938 C 576.304688 488.5 578.453125 489.683594 580.488281 491.261719 C 589.765625 497.234375 594.402344 505.128906 594.402344 514.9375 C 594.402344 523.84375 590.894531 531.621094 583.882812 538.273438 C 576.871094 544.925781 567.992188 548.25 557.246094 548.25 C 548.195312 548.25 540.390625 545.824219 533.832031 540.976562 C 527.273438 536.128906 523.992188 529.988281 523.992188 522.546875 C 523.992188 519.390625 525.007812 516.851562 527.046875 514.9375 C 529.082031 513.019531 531.625 512.003906 534.679688 511.890625 C 537.847656 511.890625 540.449219 512.90625 542.484375 514.9375 C 544.519531 516.964844 545.539062 519.5 545.539062 522.546875 C 545.539062 523.785156 545.371094 524.914062 545.03125 525.929688 C 544.691406 526.941406 544.292969 527.84375 543.84375 528.632812 C 543.390625 529.421875 542.769531 530.097656 541.976562 530.664062 C 541.183594 531.226562 540.503906 531.675781 539.941406 532.015625 C 539.375 532.355469 538.808594 532.578125 538.242188 532.691406 C 537.679688 532.804688 537.226562 532.972656 536.886719 533.199219 L 536.207031 533.367188 C 541.976562 538.441406 548.988281 540.976562 557.246094 540.976562 C 563.46875 540.976562 568.160156 537.992188 571.328125 532.015625 C 573.25 528.296875 574.210938 522.601562 574.210938 514.9375 L 574.210938 511.554688 C 574.210938 500.84375 570.59375 493.683594 563.355469 490.078125 C 561.65625 489.402344 558.207031 489.007812 553.003906 488.894531 L 545.878906 488.722656 L 545.371094 488.386719 C 545.144531 488.046875 545.03125 487.144531 545.03125 485.679688 C 545.03125 483.652344 545.480469 482.636719 546.386719 482.636719 C 549.554688 482.636719 552.835938 482.355469 556.226562 481.789062 C 560.074219 481.226562 563.578125 478.859375 566.746094 474.6875 C 569.914062 470.515625 571.496094 464.203125 571.496094 455.75 L 571.496094 454.394531 C 571.496094 447.96875 569.519531 443.515625 565.558594 441.035156 C 563.070312 439.457031 560.414062 438.667969 557.585938 438.667969 C 553.964844 438.667969 550.628906 439.289062 547.574219 440.527344 C 544.519531 441.769531 542.371094 443.066406 541.128906 444.417969 C 539.882812 445.769531 539.261719 446.449219 539.261719 446.449219 L 539.769531 446.449219 C 540.109375 446.558594 540.5625 446.671875 541.128906 446.785156 C 541.691406 446.898438 542.257812 447.179688 542.824219 447.632812 C 543.390625 448.082031 544.070312 448.476562 544.859375 448.816406 C 545.652344 449.152344 546.21875 449.773438 546.558594 450.675781 C 546.894531 451.578125 547.347656 452.421875 547.914062 453.210938 C 548.480469 454 548.648438 455.128906 548.421875 456.59375 C 548.421875 459.074219 547.632812 461.273438 546.046875 463.1875 C 544.464844 465.105469 541.917969 466.121094 538.414062 466.234375 Z M 538.414062 466.234375 " fill-opacity="1" fill-rule="nonzero"/></g><path fill="#000000" d="M 499.898438 391.320312 L 618.664062 391.320312 L 618.664062 381.171875 L 499.898438 381.171875 Z M 499.898438 391.320312 " fill-opacity="1" fill-rule="nonzero"/></svg>