<svg xmlns="http://www.w3.org/2000/svg" xmlns:xlink="http://www.w3.org/1999/xlink" width="1000" zoomAndPan="magnify" viewBox="0 0 750 749.999995" height="1000" preserveAspectRatio="xMidYMid meet" version="1.0"><defs><clipPath id="bde6b798e6"><path d="M 117 204.308594 L 192 204.308594 L 192 317 L 117 317 Z M 117 204.308594 " clip-rule="nonzero"/></clipPath><clipPath id="5fe732125f"><path d="M 121 431 L 188 431 L 188 545.691406 L 121 545.691406 Z M 121 431 " clip-rule="nonzero"/></clipPath></defs><rect x="-75" width="900" fill="#ffffff" y="-74.999999" height="899.999994" fill-opacity="1"/><rect x="-75" width="900" fill="#ffffff" y="-74.999999" height="899.999994" fill-opacity="1"/><g clip-path="url(#bde6b798e6)"><path fill="#000000" d="M 189.769531 316.445312 C 187.777344 316.117188 180.644531 315.949219 168.371094 315.949219 C 155.542969 315.949219 148.132812 316.117188 146.144531 316.445312 L 144.652344 316.445312 L 144.652344 308.828125 L 149.792969 308.828125 C 152.003906 308.828125 153.496094 308.828125 154.269531 308.828125 C 155.046875 308.828125 155.984375 308.71875 157.089844 308.496094 C 158.195312 308.277344 158.972656 308 159.414062 307.667969 C 159.855469 307.335938 160.242188 306.894531 160.574219 306.34375 C 160.683594 306.121094 160.742188 303.140625 160.742188 297.398438 L 160.742188 289.117188 L 117.78125 289.117188 L 117.78125 281.496094 L 142.828125 243.234375 C 159.746094 217.617188 168.316406 204.753906 168.535156 204.640625 C 168.757812 204.421875 169.917969 204.308594 172.019531 204.308594 L 175.003906 204.308594 L 176 205.304688 L 176 281.496094 L 191.261719 281.496094 L 191.261719 289.117188 L 176 289.117188 L 176 297.5625 C 176 302.09375 176 304.742188 176 305.515625 C 176 306.289062 176.332031 306.949219 176.996094 307.503906 C 177.878906 308.277344 181.03125 308.71875 186.449219 308.828125 L 191.261719 308.828125 L 191.261719 316.445312 Z M 161.734375 281.496094 L 161.734375 226.175781 L 125.410156 281.332031 L 143.488281 281.496094 Z M 161.734375 281.496094 " fill-opacity="1" fill-rule="nonzero"/></g><g clip-path="url(#5fe732125f)"><path fill="#000000" d="M 140.339844 516.039062 C 140.339844 518.691406 139.453125 520.898438 137.683594 522.664062 C 135.914062 524.433594 133.757812 525.316406 131.214844 525.316406 L 130.054688 525.316406 C 135.140625 534.039062 141.886719 538.402344 150.289062 538.402344 C 158.03125 538.402344 163.671875 535.089844 167.210938 528.464844 C 169.3125 524.820312 170.359375 517.753906 170.359375 507.261719 C 170.359375 495.886719 168.867188 488.214844 165.882812 484.238281 C 163.007812 480.59375 159.800781 478.773438 156.261719 478.773438 L 155.265625 478.773438 C 146.640625 478.773438 140.117188 482.527344 135.695312 490.035156 C 135.25 490.808594 134.863281 491.25 134.53125 491.359375 C 134.199219 491.472656 133.371094 491.582031 132.042969 491.691406 C 130.164062 491.691406 129.113281 491.359375 128.894531 490.699219 C 128.671875 490.257812 128.5625 480.59375 128.5625 461.710938 L 128.5625 440.34375 C 128.5625 434.824219 128.835938 432.0625 129.390625 432.0625 C 129.613281 431.839844 129.832031 431.730469 130.054688 431.730469 C 130.164062 431.730469 131.324219 432.171875 133.539062 433.054688 C 135.75 433.9375 138.789062 434.824219 142.660156 435.707031 C 146.53125 436.589844 150.675781 437.03125 155.101562 437.03125 C 162.953125 437.03125 170.472656 435.484375 177.660156 432.394531 C 178.542969 431.953125 179.261719 431.730469 179.816406 431.730469 C 180.699219 431.730469 181.144531 432.726562 181.144531 434.710938 L 181.144531 436.867188 C 172.074219 447.578125 160.742188 452.933594 147.140625 452.933594 C 143.710938 452.933594 140.613281 452.601562 137.851562 451.9375 L 136.191406 451.609375 L 136.191406 480.097656 C 138.292969 478.550781 139.949219 477.335938 141.167969 476.453125 C 142.382812 475.570312 144.375 474.6875 147.140625 473.804688 C 149.902344 472.917969 152.722656 472.476562 155.597656 472.476562 C 164.554688 472.476562 172.128906 476.066406 178.324219 483.246094 C 184.515625 490.421875 187.613281 498.925781 187.613281 508.753906 C 187.613281 518.910156 184.074219 527.578125 176.996094 534.757812 C 169.917969 541.933594 161.292969 545.578125 151.121094 545.691406 C 142.164062 545.691406 134.976562 542.707031 129.554688 536.746094 C 124.136719 530.78125 121.429688 524.046875 121.429688 516.539062 C 121.429688 513.886719 122.035156 511.789062 123.253906 510.242188 C 124.46875 508.695312 125.742188 507.703125 127.066406 507.261719 C 128.394531 506.820312 129.667969 506.597656 130.882812 506.597656 C 133.648438 506.597656 135.914062 507.539062 137.683594 509.414062 C 139.453125 511.292969 140.339844 513.5 140.339844 516.039062 Z M 140.339844 516.039062 " fill-opacity="1" fill-rule="nonzero"/></g><path fill="#000000" d="M 96.546875 391.976562 L 212.660156 391.976562 L 212.660156 382.039062 L 96.546875 382.039062 Z M 96.546875 391.976562 " fill-opacity="1" fill-rule="nonzero"/><path fill="#000000" d="M 373.921875 423.613281 C 373.921875 425.824219 372.761719 426.925781 370.4375 426.925781 C 369.882812 426.925781 368.667969 426.042969 366.789062 424.277344 C 364.910156 422.511719 359.710938 417.375 351.195312 408.871094 L 333.945312 391.648438 L 316.527344 409.039062 C 304.808594 420.523438 298.78125 426.375 298.449219 426.597656 C 298.007812 426.816406 297.621094 426.925781 297.289062 426.925781 C 296.402344 426.925781 295.628906 426.597656 294.964844 425.933594 C 294.300781 425.269531 293.914062 424.5 293.804688 423.613281 C 293.804688 422.839844 294.578125 421.628906 296.125 419.96875 C 297.675781 418.3125 302.871094 413.070312 311.71875 404.234375 L 328.96875 387.007812 L 311.71875 369.78125 C 302.761719 360.839844 297.5625 355.59375 296.125 354.046875 C 294.6875 352.5 293.914062 351.285156 293.804688 350.402344 C 293.804688 349.410156 294.136719 348.636719 294.800781 348.082031 C 295.460938 347.53125 296.292969 347.253906 297.289062 347.253906 C 297.839844 347.253906 298.226562 347.3125 298.449219 347.421875 C 298.78125 347.640625 304.808594 353.496094 316.527344 364.980469 L 333.945312 382.371094 L 351.195312 365.144531 C 359.710938 356.640625 364.910156 351.507812 366.789062 349.742188 C 368.667969 347.972656 369.882812 347.089844 370.4375 347.089844 C 372.761719 347.089844 373.921875 348.195312 373.921875 350.402344 C 373.921875 351.175781 373.367188 352.167969 372.261719 353.382812 C 371.15625 354.597656 365.738281 360.011719 356.007812 369.617188 L 338.753906 387.007812 L 356.007812 404.402344 C 365.296875 413.675781 370.601562 419.03125 371.929688 420.46875 C 373.257812 421.902344 373.921875 422.953125 373.921875 423.613281 Z M 373.921875 423.613281 " fill-opacity="1" fill-rule="nonzero"/><path fill="#000000" d="M 507.148438 220.707031 L 504.992188 221.535156 C 503.445312 222.089844 501.234375 222.640625 498.359375 223.191406 C 495.484375 223.746094 492.277344 224.132812 488.738281 224.351562 L 485.585938 224.351562 L 485.585938 216.734375 L 488.738281 216.734375 C 493.9375 216.511719 498.746094 215.683594 503.167969 214.25 C 507.59375 212.8125 510.6875 211.488281 512.457031 210.273438 C 514.226562 209.058594 515.777344 207.84375 517.101562 206.628906 C 517.324219 206.296875 517.988281 206.132812 519.09375 206.132812 C 520.089844 206.132812 521.027344 206.464844 521.914062 207.125 L 521.914062 256.652344 L 522.078125 306.34375 C 522.851562 307.117188 523.515625 307.613281 524.070312 307.832031 C 524.621094 308.054688 525.949219 308.277344 528.050781 308.496094 C 530.152344 308.71875 533.578125 308.828125 538.335938 308.828125 L 542.648438 308.828125 L 542.648438 316.445312 L 540.824219 316.445312 C 538.5 316.117188 529.710938 315.949219 514.449219 315.949219 C 499.410156 315.949219 490.730469 316.117188 488.40625 316.445312 L 486.417969 316.445312 L 486.417969 308.828125 L 490.730469 308.828125 C 493.160156 308.828125 495.261719 308.828125 497.03125 308.828125 C 498.800781 308.828125 500.183594 308.773438 501.179688 308.660156 C 502.175781 308.550781 503.058594 308.386719 503.832031 308.164062 C 504.605469 307.945312 505.050781 307.832031 505.160156 307.832031 C 505.269531 307.832031 505.601562 307.558594 506.15625 307.003906 C 506.707031 306.453125 507.039062 306.234375 507.148438 306.34375 Z M 507.148438 220.707031 " fill-opacity="1" fill-rule="nonzero"/><path fill="#000000" d="M 581.960938 290.441406 C 581.960938 293.09375 581.074219 295.300781 579.304688 297.066406 C 577.535156 298.835938 575.378906 299.71875 572.835938 299.71875 L 571.675781 299.71875 C 576.761719 308.441406 583.507812 312.804688 591.910156 312.804688 C 599.652344 312.804688 605.292969 309.492188 608.832031 302.863281 C 610.933594 299.222656 611.980469 292.152344 611.980469 281.664062 C 611.980469 270.289062 610.488281 262.613281 607.503906 258.640625 C 604.628906 254.996094 601.421875 253.171875 597.882812 253.171875 L 596.886719 253.171875 C 588.261719 253.171875 581.738281 256.929688 577.316406 264.4375 C 576.871094 265.210938 576.484375 265.652344 576.152344 265.761719 C 575.820312 265.871094 574.992188 265.984375 573.664062 266.09375 C 571.785156 266.09375 570.734375 265.761719 570.515625 265.097656 C 570.292969 264.65625 570.183594 254.996094 570.183594 236.113281 L 570.183594 214.746094 C 570.183594 209.222656 570.457031 206.464844 571.011719 206.464844 C 571.234375 206.242188 571.453125 206.132812 571.675781 206.132812 C 571.785156 206.132812 572.945312 206.574219 575.160156 207.457031 C 577.371094 208.339844 580.410156 209.222656 584.28125 210.109375 C 588.152344 210.992188 592.296875 211.433594 596.722656 211.433594 C 604.574219 211.433594 612.09375 209.886719 619.28125 206.792969 C 620.164062 206.351562 620.882812 206.132812 621.4375 206.132812 C 622.320312 206.132812 622.765625 207.125 622.765625 209.113281 L 622.765625 211.265625 C 613.695312 221.976562 602.363281 227.335938 588.761719 227.335938 C 585.332031 227.335938 582.234375 227.003906 579.472656 226.339844 L 577.8125 226.007812 L 577.8125 254.5 C 579.914062 252.953125 581.570312 251.738281 582.789062 250.855469 C 584.003906 249.972656 585.996094 249.085938 588.761719 248.203125 C 591.523438 247.320312 594.34375 246.878906 597.21875 246.878906 C 606.175781 246.878906 613.75 250.46875 619.945312 257.644531 C 626.136719 264.824219 629.234375 273.324219 629.234375 283.152344 C 629.234375 293.3125 625.695312 301.980469 618.617188 309.160156 C 611.539062 316.335938 602.914062 319.980469 592.742188 320.089844 C 583.785156 320.089844 576.597656 317.109375 571.175781 311.148438 C 565.757812 305.183594 563.050781 298.449219 563.050781 290.9375 C 563.050781 288.289062 563.65625 286.191406 564.875 284.644531 C 566.089844 283.097656 567.363281 282.105469 568.6875 281.664062 C 570.015625 281.222656 571.289062 281 572.503906 281 C 575.269531 281 577.535156 281.9375 579.304688 283.816406 C 581.074219 285.695312 581.960938 287.902344 581.960938 290.441406 Z M 581.960938 290.441406 " fill-opacity="1" fill-rule="nonzero"/><path fill="#000000" d="M 589.921875 542.046875 C 587.929688 541.714844 580.796875 541.546875 568.523438 541.546875 C 555.695312 541.546875 548.285156 541.714844 546.296875 542.046875 L 544.804688 542.046875 L 544.804688 534.425781 L 549.945312 534.425781 C 552.15625 534.425781 553.648438 534.425781 554.425781 534.425781 C 555.199219 534.425781 556.136719 534.316406 557.242188 534.09375 C 558.351562 533.875 559.125 533.597656 559.566406 533.265625 C 560.007812 532.933594 560.394531 532.492188 560.726562 531.941406 C 560.839844 531.722656 560.894531 528.738281 560.894531 522.996094 L 560.894531 514.714844 L 517.933594 514.714844 L 517.933594 507.097656 L 542.980469 468.832031 C 559.898438 443.214844 568.46875 430.351562 568.6875 430.238281 C 568.910156 430.019531 570.070312 429.910156 572.171875 429.910156 L 575.160156 429.910156 L 576.152344 430.902344 L 576.152344 507.097656 L 591.414062 507.097656 L 591.414062 514.714844 L 576.152344 514.714844 L 576.152344 523.164062 C 576.152344 527.691406 576.152344 530.339844 576.152344 531.113281 C 576.152344 531.886719 576.484375 532.550781 577.148438 533.101562 C 578.035156 533.875 581.183594 534.316406 586.605469 534.425781 L 591.414062 534.425781 L 591.414062 542.046875 Z M 561.886719 507.097656 L 561.886719 451.773438 L 525.5625 506.929688 L 543.640625 507.097656 Z M 561.886719 507.097656 " fill-opacity="1" fill-rule="nonzero"/><path fill="#000000" d="M 455.230469 391.976562 L 654.28125 391.976562 L 654.28125 382.039062 L 455.230469 382.039062 Z M 455.230469 391.976562 " fill-opacity="1" fill-rule="nonzero"/></svg>