<svg xmlns="http://www.w3.org/2000/svg" xmlns:xlink="http://www.w3.org/1999/xlink" width="1000" zoomAndPan="magnify" viewBox="0 0 750 749.999995" height="1000" preserveAspectRatio="xMidYMid meet" version="1.0"><defs><clipPath id="3a14221c13"><path d="M 157 201.75 L 228 201.75 L 228 319 L 157 319 Z M 157 201.75 " clip-rule="nonzero"/></clipPath><clipPath id="c12c3bb2cf"><path d="M 523 201.75 L 595 201.75 L 595 319 L 523 319 Z M 523 201.75 " clip-rule="nonzero"/></clipPath><clipPath id="b50d2edd8f"><path d="M 523 431 L 595 431 L 595 548.25 L 523 548.25 Z M 523 431 " clip-rule="nonzero"/></clipPath></defs><rect x="-75" width="900" fill="#ffffff" y="-74.999999" height="899.999994" fill-opacity="1"/><rect x="-75" width="900" fill="#ffffff" y="-74.999999" height="899.999994" fill-opacity="1"/><g clip-path="url(#3a14221c13)"><path fill="#000000" d="M 209.785156 265.808594 C 204.359375 274.375 197.574219 278.65625 189.433594 278.65625 C 180.617188 278.65625 173.382812 275.332031 167.730469 268.683594 C 162.074219 262.035156 158.683594 254.9375 157.554688 247.386719 C 157.328125 245.582031 157.214844 243.328125 157.214844 240.625 L 157.214844 239.273438 C 157.214844 228.792969 161.113281 219.667969 168.914062 211.890625 C 175.699219 205.128906 183.160156 201.75 191.300781 201.75 C 191.527344 201.75 191.867188 201.75 192.316406 201.75 C 192.769531 201.75 193.222656 201.804688 193.675781 201.917969 L 194.351562 201.917969 C 195.710938 201.917969 197.121094 202.03125 198.59375 202.257812 C 200.0625 202.484375 202.152344 203.160156 204.867188 204.285156 C 207.582031 205.414062 210.238281 207.214844 212.835938 209.695312 C 215.4375 212.171875 217.867188 215.496094 220.128906 219.667969 C 224.992188 229.582031 227.421875 242.316406 227.421875 257.867188 C 227.421875 273.640625 224.03125 286.996094 217.246094 297.925781 C 213.289062 304.234375 208.542969 309.136719 203 312.628906 C 197.460938 316.125 191.582031 317.925781 185.367188 318.039062 C 178.46875 318.039062 172.816406 316.40625 168.40625 313.136719 C 163.996094 309.871094 161.738281 305.023438 161.625 298.601562 C 161.511719 292.179688 164.507812 289.023438 170.613281 289.136719 C 173.097656 289.136719 175.191406 289.925781 176.886719 291.503906 C 178.582031 293.078125 179.429688 295.277344 179.429688 298.09375 C 179.429688 300.121094 178.921875 301.867188 177.902344 303.332031 C 176.886719 304.796875 175.980469 305.699219 175.191406 306.039062 C 174.398438 306.375 173.664062 306.65625 172.984375 306.882812 L 172.308594 307.050781 C 172.308594 307.277344 172.703125 307.617188 173.496094 308.066406 C 174.285156 308.515625 175.753906 309.082031 177.902344 309.757812 C 180.050781 310.433594 182.425781 310.714844 185.027344 310.601562 L 186.042969 310.601562 C 192.828125 310.601562 198.535156 306.996094 203.171875 299.785156 C 207.582031 293.472656 209.785156 282.542969 209.785156 266.992188 Z M 191.46875 272.402344 C 196.898438 272.402344 201.25 269.640625 204.527344 264.121094 C 207.804688 258.597656 209.503906 251.105469 209.617188 241.640625 C 209.617188 232.851562 209.164062 226.539062 208.257812 222.710938 C 208.03125 221.582031 207.695312 220.457031 207.242188 219.328125 C 206.789062 218.203125 205.996094 216.738281 204.867188 214.933594 C 203.738281 213.132812 202.039062 211.609375 199.78125 210.371094 C 197.519531 209.128906 194.863281 208.566406 191.808594 208.679688 C 187.511719 208.679688 183.839844 210.203125 180.785156 213.242188 C 178.414062 215.722656 176.886719 218.652344 176.207031 222.03125 C 175.53125 225.414062 175.132812 231.328125 175.019531 239.78125 C 175.019531 249.132812 175.304688 255.445312 175.867188 258.710938 C 176.433594 261.980469 177.566406 264.628906 179.261719 266.65625 C 182.085938 270.488281 186.15625 272.402344 191.46875 272.402344 Z M 191.46875 272.402344 " fill-opacity="1" fill-rule="nonzero"/></g><path fill="#000000" d="M 168.578125 472.019531 C 165.523438 472.019531 163.09375 471.003906 161.285156 468.976562 C 159.476562 466.949219 158.570312 464.46875 158.570312 461.539062 C 158.570312 453.539062 161.566406 446.609375 167.558594 440.75 C 173.550781 434.890625 181.011719 431.960938 189.945312 431.960938 C 200.230469 431.960938 208.824219 435.117188 215.71875 441.425781 C 222.617188 447.738281 226.121094 455.90625 226.234375 465.933594 C 226.234375 470.78125 225.105469 475.402344 222.84375 479.796875 C 220.582031 484.191406 217.867188 488.019531 214.703125 491.289062 C 211.539062 494.554688 207.015625 498.726562 201.136719 503.796875 C 197.066406 507.289062 191.414062 512.472656 184.179688 519.347656 L 174.171875 528.8125 L 187.0625 528.980469 C 204.8125 528.980469 214.25 528.699219 215.382812 528.136719 C 216.171875 527.910156 217.53125 522.894531 219.453125 513.09375 L 219.453125 512.585938 L 226.234375 512.585938 L 226.234375 513.09375 C 226.121094 513.429688 225.386719 518.558594 224.03125 528.472656 C 222.671875 538.390625 221.824219 543.574219 221.484375 544.023438 L 221.484375 544.53125 L 158.570312 544.53125 L 158.570312 539.292969 C 158.570312 538.503906 158.910156 537.65625 159.589844 536.757812 C 160.265625 535.855469 161.964844 533.882812 164.675781 530.839844 C 167.953125 527.234375 170.78125 524.078125 173.15625 521.375 C 174.171875 520.25 176.09375 518.164062 178.921875 515.121094 C 181.746094 512.078125 183.667969 509.996094 184.6875 508.867188 C 185.703125 507.742188 187.34375 505.882812 189.605469 503.289062 C 191.867188 500.699219 193.449219 498.78125 194.351562 497.542969 C 195.257812 496.304688 196.558594 494.613281 198.253906 492.472656 C 199.949219 490.332031 201.136719 488.527344 201.816406 487.0625 C 202.492188 485.597656 203.339844 483.964844 204.359375 482.160156 C 205.375 480.359375 206.109375 478.554688 206.5625 476.753906 C 207.015625 474.949219 207.410156 473.257812 207.75 471.683594 C 208.089844 470.105469 208.257812 468.246094 208.257812 466.105469 C 208.257812 459.003906 206.335938 452.863281 202.492188 447.679688 C 198.648438 442.496094 193.167969 439.90625 186.042969 439.90625 C 182.3125 439.90625 179.035156 440.863281 176.207031 442.777344 C 173.382812 444.695312 171.402344 446.554688 170.273438 448.355469 C 169.140625 450.160156 168.578125 451.230469 168.578125 451.566406 C 168.578125 451.679688 168.859375 451.738281 169.425781 451.738281 C 171.460938 451.738281 173.550781 452.527344 175.699219 454.101562 C 177.847656 455.679688 178.921875 458.273438 178.921875 461.878906 C 178.921875 464.695312 178.015625 467.0625 176.207031 468.976562 C 174.398438 470.894531 171.855469 471.90625 168.578125 472.019531 Z M 168.578125 472.019531 " fill-opacity="1" fill-rule="nonzero"/><path fill="#000000" d="M 133.132812 391.394531 L 251.839844 391.394531 L 251.839844 381.253906 L 133.132812 381.253906 Z M 133.132812 391.394531 " fill-opacity="1" fill-rule="nonzero"/><path fill="#000000" d="M 416.710938 423.679688 C 416.710938 425.933594 415.523438 427.058594 413.148438 427.058594 C 412.582031 427.058594 411.339844 426.15625 409.417969 424.355469 C 407.496094 422.550781 402.183594 417.3125 393.476562 408.636719 L 375.839844 391.058594 L 358.035156 408.804688 C 346.050781 420.523438 339.886719 426.496094 339.550781 426.722656 C 339.097656 426.945312 338.703125 427.058594 338.363281 427.058594 C 337.457031 427.058594 336.667969 426.722656 335.988281 426.046875 C 335.308594 425.371094 334.914062 424.582031 334.800781 423.679688 C 334.800781 422.890625 335.59375 421.652344 337.175781 419.960938 C 338.757812 418.269531 344.070312 412.917969 353.117188 403.902344 L 370.753906 386.324219 L 353.117188 368.746094 C 343.957031 359.617188 338.644531 354.265625 337.175781 352.6875 C 335.707031 351.109375 334.914062 349.871094 334.800781 348.96875 C 334.800781 347.957031 335.140625 347.167969 335.820312 346.605469 C 336.496094 346.039062 337.34375 345.757812 338.363281 345.757812 C 338.925781 345.757812 339.324219 345.816406 339.550781 345.929688 C 339.886719 346.152344 346.050781 352.125 358.035156 363.84375 L 375.839844 381.59375 L 393.476562 364.011719 C 402.183594 355.335938 407.496094 350.097656 409.417969 348.292969 C 411.339844 346.492188 412.582031 345.589844 413.148438 345.589844 C 415.523438 345.589844 416.710938 346.714844 416.710938 348.96875 C 416.710938 349.757812 416.144531 350.773438 415.011719 352.011719 C 413.882812 353.253906 408.34375 358.773438 398.394531 368.578125 L 380.757812 386.324219 L 398.394531 404.070312 C 407.890625 413.539062 413.316406 419.003906 414.675781 420.46875 C 416.03125 421.933594 416.710938 423.003906 416.710938 423.679688 Z M 416.710938 423.679688 " fill-opacity="1" fill-rule="nonzero"/><g clip-path="url(#c12c3bb2cf)"><path fill="#000000" d="M 523.917969 261.414062 C 523.917969 243.046875 528.496094 228.511719 537.65625 217.808594 C 546.8125 207.101562 556.988281 201.75 568.179688 201.75 C 575.980469 201.75 581.578125 203.777344 584.96875 207.835938 C 588.359375 211.890625 590.054688 216.398438 590.054688 221.355469 C 590.054688 224.175781 589.265625 226.425781 587.683594 228.117188 C 586.097656 229.808594 583.894531 230.652344 581.070312 230.652344 C 578.46875 230.652344 576.320312 229.863281 574.625 228.285156 C 572.929688 226.710938 572.082031 224.511719 572.082031 221.695312 C 572.082031 216.738281 574.738281 213.75 580.050781 212.738281 C 577.5625 210.257812 574.058594 208.847656 569.535156 208.511719 C 561.511719 208.511719 554.894531 211.890625 549.695312 218.652344 C 544.382812 226.089844 541.726562 237.46875 541.726562 252.796875 L 541.894531 253.472656 C 542.460938 252.796875 542.914062 252.0625 543.25 251.273438 C 547.886719 244.511719 553.933594 241.132812 561.398438 241.132812 L 562.074219 241.132812 C 567.277344 241.132812 571.855469 242.203125 575.8125 244.34375 C 578.523438 245.921875 581.238281 248.175781 583.953125 251.105469 C 586.664062 254.035156 588.871094 257.246094 590.566406 260.738281 C 592.9375 266.261719 594.125 272.289062 594.125 278.824219 L 594.125 281.867188 C 594.125 284.460938 593.84375 286.882812 593.277344 289.136719 C 592.035156 295.785156 588.417969 302.261719 582.425781 308.574219 C 576.433594 314.882812 568.859375 318.039062 559.699219 318.039062 C 556.535156 318.039062 553.484375 317.589844 550.542969 316.6875 C 547.605469 315.785156 544.4375 314.09375 541.046875 311.617188 C 537.65625 309.136719 534.773438 305.8125 532.398438 301.644531 C 530.023438 297.472656 527.988281 292.007812 526.292969 285.25 C 524.597656 278.488281 523.804688 270.542969 523.917969 261.414062 Z M 560.378906 247.21875 C 556.988281 247.21875 554.046875 248.175781 551.5625 250.089844 C 549.074219 252.007812 547.152344 254.542969 545.796875 257.695312 C 544.4375 260.851562 543.476562 264.0625 542.914062 267.332031 C 542.347656 270.597656 542.007812 274.09375 541.894531 277.8125 C 541.894531 287.164062 542.574219 293.867188 543.929688 297.925781 C 545.285156 301.980469 547.433594 305.25 550.375 307.726562 C 553.085938 309.757812 556.082031 310.769531 559.363281 310.769531 C 565.128906 310.769531 569.535156 308.628906 572.589844 304.347656 C 574.058594 302.320312 575.078125 299.785156 575.640625 296.742188 C 576.207031 293.699219 576.488281 287.785156 576.488281 278.996094 C 576.488281 269.980469 576.207031 263.949219 575.640625 260.910156 C 575.078125 257.867188 574.058594 255.332031 572.589844 253.300781 C 569.535156 249.246094 565.46875 247.21875 560.378906 247.21875 Z M 560.378906 247.21875 " fill-opacity="1" fill-rule="nonzero"/></g><g clip-path="url(#b50d2edd8f)"><path fill="#000000" d="M 576.488281 496.019531 C 571.0625 504.585938 564.28125 508.867188 556.140625 508.867188 C 547.320312 508.867188 540.085938 505.542969 534.433594 498.894531 C 528.78125 492.246094 525.390625 485.148438 524.257812 477.597656 C 524.03125 475.792969 523.917969 473.542969 523.917969 470.835938 L 523.917969 469.484375 C 523.917969 459.003906 527.820312 449.878906 535.621094 442.101562 C 542.402344 435.339844 549.867188 431.960938 558.003906 431.960938 C 558.230469 431.960938 558.570312 431.960938 559.023438 431.960938 C 559.476562 431.960938 559.925781 432.015625 560.378906 432.128906 L 561.058594 432.128906 C 562.414062 432.128906 563.828125 432.242188 565.296875 432.46875 C 566.765625 432.695312 568.859375 433.371094 571.570312 434.496094 C 574.285156 435.625 576.941406 437.425781 579.542969 439.90625 C 582.140625 442.382812 584.574219 445.707031 586.835938 449.878906 C 591.695312 459.792969 594.125 472.527344 594.125 488.078125 C 594.125 503.851562 590.734375 517.207031 583.953125 528.136719 C 579.996094 534.445312 575.246094 539.347656 569.707031 542.839844 C 564.167969 546.335938 558.289062 548.136719 552.070312 548.25 C 545.171875 548.25 539.519531 546.617188 535.113281 543.347656 C 530.703125 540.082031 528.441406 535.234375 528.328125 528.8125 C 528.214844 522.390625 531.210938 519.234375 537.316406 519.347656 C 539.804688 519.347656 541.894531 520.136719 543.589844 521.714844 C 545.285156 523.289062 546.132812 525.488281 546.132812 528.304688 C 546.132812 530.332031 545.625 532.078125 544.609375 533.542969 C 543.589844 535.007812 542.6875 535.910156 541.894531 536.25 C 541.101562 536.585938 540.367188 536.867188 539.691406 537.09375 L 539.011719 537.261719 C 539.011719 537.488281 539.40625 537.828125 540.199219 538.277344 C 540.992188 538.726562 542.460938 539.292969 544.609375 539.96875 C 546.757812 540.644531 549.128906 540.925781 551.730469 540.8125 L 552.75 540.8125 C 559.53125 540.8125 565.242188 537.207031 569.875 529.996094 C 574.285156 523.683594 576.488281 512.753906 576.488281 497.203125 Z M 558.175781 502.613281 C 563.601562 502.613281 567.953125 499.851562 571.234375 494.332031 C 574.511719 488.808594 576.207031 481.316406 576.320312 471.851562 C 576.320312 463.0625 575.867188 456.75 574.964844 452.921875 C 574.738281 451.792969 574.398438 450.667969 573.945312 449.539062 C 573.492188 448.414062 572.703125 446.949219 571.570312 445.144531 C 570.441406 443.34375 568.746094 441.820312 566.484375 440.582031 C 564.222656 439.34375 561.566406 438.777344 558.515625 438.890625 C 554.21875 438.890625 550.542969 440.414062 547.492188 443.453125 C 545.117188 445.933594 543.589844 448.863281 542.914062 452.246094 C 542.234375 455.625 541.839844 461.539062 541.726562 469.992188 C 541.726562 479.34375 542.007812 485.65625 542.574219 488.921875 C 543.136719 492.191406 544.269531 494.839844 545.964844 496.867188 C 548.792969 500.699219 552.859375 502.613281 558.175781 502.613281 Z M 558.175781 502.613281 " fill-opacity="1" fill-rule="nonzero"/></g><path fill="#000000" d="M 499.839844 391.394531 L 618.546875 391.394531 L 618.546875 381.253906 L 499.839844 381.253906 Z M 499.839844 391.394531 " fill-opacity="1" fill-rule="nonzero"/></svg>