<svg xmlns="http://www.w3.org/2000/svg" xmlns:xlink="http://www.w3.org/1999/xlink" width="1000" zoomAndPan="magnify" viewBox="0 0 750 749.999995" height="1000" preserveAspectRatio="xMidYMid meet" version="1.0"><rect x="-75" width="900" fill="#ffffff" y="-74.999999" height="899.999994" fill-opacity="1"/><rect x="-75" width="900" fill="#ffffff" y="-74.999999" height="899.999994" fill-opacity="1"/><path fill="#000000" d="M 156.976562 263.152344 C 156.976562 244.765625 161.5625 230.214844 170.730469 219.5 C 179.898438 208.78125 190.082031 203.425781 201.289062 203.425781 C 209.097656 203.425781 214.699219 205.453125 218.09375 209.515625 C 221.488281 213.578125 223.1875 218.089844 223.1875 223.050781 C 223.1875 225.871094 222.394531 228.128906 220.808594 229.820312 C 219.226562 231.511719 217.019531 232.359375 214.1875 232.359375 C 211.585938 232.359375 209.4375 231.570312 207.738281 229.988281 C 206.039062 228.410156 205.191406 226.210938 205.191406 223.390625 C 205.191406 218.425781 207.851562 215.4375 213.171875 214.421875 C 210.679688 211.941406 207.171875 210.53125 202.644531 210.191406 C 194.609375 210.191406 187.988281 213.578125 182.78125 220.34375 C 177.464844 227.789062 174.804688 239.183594 174.804688 254.523438 L 174.972656 255.203125 C 175.539062 254.523438 175.992188 253.792969 176.332031 253 C 180.972656 246.234375 187.027344 242.847656 194.496094 242.847656 L 195.175781 242.847656 C 200.382812 242.847656 204.964844 243.921875 208.925781 246.0625 C 211.644531 247.644531 214.359375 249.898438 217.074219 252.832031 C 219.792969 255.765625 222 258.980469 223.695312 262.476562 C 226.074219 268.003906 227.261719 274.039062 227.261719 280.582031 L 227.261719 283.628906 C 227.261719 286.222656 226.976562 288.648438 226.414062 290.902344 C 225.167969 297.558594 221.546875 304.046875 215.546875 310.363281 C 209.550781 316.679688 201.964844 319.839844 192.800781 319.839844 C 189.628906 319.839844 186.574219 319.386719 183.632812 318.484375 C 180.6875 317.582031 177.519531 315.890625 174.125 313.410156 C 170.730469 310.925781 167.84375 307.597656 165.464844 303.425781 C 163.089844 299.25 161.054688 293.78125 159.355469 287.011719 C 157.65625 280.242188 156.867188 272.292969 156.976562 263.152344 Z M 193.476562 248.941406 C 190.082031 248.941406 187.140625 249.898438 184.648438 251.816406 C 182.160156 253.734375 180.238281 256.273438 178.878906 259.433594 C 177.519531 262.589844 176.558594 265.804688 175.992188 269.078125 C 175.425781 272.347656 175.085938 275.84375 174.972656 279.566406 C 174.972656 288.929688 175.652344 295.640625 177.011719 299.703125 C 178.367188 303.765625 180.519531 307.035156 183.460938 309.515625 C 186.179688 311.546875 189.175781 312.5625 192.460938 312.5625 C 198.230469 312.5625 202.644531 310.417969 205.699219 306.132812 C 207.171875 304.101562 208.191406 301.5625 208.757812 298.519531 C 209.324219 295.472656 209.605469 289.550781 209.605469 280.75 C 209.605469 271.726562 209.324219 265.691406 208.757812 262.648438 C 208.191406 259.601562 207.171875 257.0625 205.699219 255.03125 C 202.644531 250.972656 198.570312 248.941406 193.476562 248.941406 Z M 193.476562 248.941406 " fill-opacity="1" fill-rule="nonzero"/><path fill="#000000" d="M 228.28125 546.574219 C 226.242188 546.238281 218.941406 546.066406 206.378906 546.066406 C 193.25 546.066406 185.667969 546.238281 183.632812 546.574219 L 182.105469 546.574219 L 182.105469 538.792969 L 187.367188 538.792969 C 189.628906 538.792969 191.15625 538.792969 191.949219 538.792969 C 192.742188 538.792969 193.703125 538.679688 194.835938 538.453125 C 195.96875 538.226562 196.761719 537.945312 197.214844 537.609375 C 197.664062 537.269531 198.0625 536.816406 198.402344 536.253906 C 198.515625 536.027344 198.570312 532.984375 198.570312 527.117188 L 198.570312 518.65625 L 154.601562 518.65625 L 154.601562 510.875 L 180.238281 471.785156 C 197.550781 445.617188 206.324219 432.472656 206.550781 432.359375 C 206.777344 432.136719 207.964844 432.023438 210.113281 432.023438 L 213.171875 432.023438 L 214.1875 433.039062 L 214.1875 510.875 L 229.808594 510.875 L 229.808594 518.65625 L 214.1875 518.65625 L 214.1875 527.285156 C 214.1875 531.910156 214.1875 534.617188 214.1875 535.40625 C 214.1875 536.199219 214.527344 536.875 215.207031 537.4375 C 216.113281 538.226562 219.339844 538.679688 224.882812 538.792969 L 229.808594 538.792969 L 229.808594 546.574219 Z M 199.589844 510.875 L 199.589844 454.359375 L 162.410156 510.703125 L 180.914062 510.875 Z M 199.589844 510.875 " fill-opacity="1" fill-rule="nonzero"/><path fill="#000000" d="M 132.871094 393.273438 L 251.707031 393.273438 L 251.707031 383.121094 L 132.871094 383.121094 Z M 132.871094 393.273438 " fill-opacity="1" fill-rule="nonzero"/><path fill="#000000" d="M 416.753906 425.59375 C 416.753906 427.847656 415.566406 428.976562 413.1875 428.976562 C 412.621094 428.976562 411.378906 428.074219 409.453125 426.269531 C 407.53125 424.464844 402.210938 419.21875 393.496094 410.535156 L 375.839844 392.9375 L 358.015625 410.703125 C 346.019531 422.433594 339.851562 428.414062 339.511719 428.636719 C 339.058594 428.863281 338.660156 428.976562 338.320312 428.976562 C 337.417969 428.976562 336.625 428.636719 335.945312 427.960938 C 335.265625 427.285156 334.871094 426.496094 334.757812 425.59375 C 334.757812 424.804688 335.550781 423.5625 337.132812 421.871094 C 338.71875 420.179688 344.039062 414.820312 353.089844 405.796875 L 370.746094 388.199219 L 353.089844 370.601562 C 343.925781 361.464844 338.605469 356.105469 337.132812 354.527344 C 335.664062 352.945312 334.871094 351.707031 334.757812 350.804688 C 334.757812 349.789062 335.097656 349 335.773438 348.433594 C 336.453125 347.871094 337.304688 347.589844 338.320312 347.589844 C 338.886719 347.589844 339.285156 347.644531 339.511719 347.757812 C 339.851562 347.984375 346.019531 353.960938 358.015625 365.695312 L 375.839844 383.460938 L 393.496094 365.863281 C 402.210938 357.175781 407.53125 351.929688 409.453125 350.125 C 411.378906 348.320312 412.621094 347.417969 413.1875 347.417969 C 415.566406 347.417969 416.753906 348.546875 416.753906 350.804688 C 416.753906 351.59375 416.1875 352.609375 415.054688 353.847656 C 413.925781 355.089844 408.378906 360.617188 398.417969 370.429688 L 380.761719 388.199219 L 398.417969 405.964844 C 407.925781 415.441406 413.359375 420.910156 414.714844 422.378906 C 416.074219 423.84375 416.753906 424.917969 416.753906 425.59375 Z M 416.753906 425.59375 " fill-opacity="1" fill-rule="nonzero"/><path fill="#000000" d="M 528.832031 245.558594 C 528.832031 245.558594 528.832031 241.214844 528.832031 232.527344 C 528.832031 223.84375 531.886719 216.847656 538 211.546875 C 544.113281 206.246094 551.128906 203.535156 559.050781 203.425781 C 567.085938 203.425781 574.214844 205.792969 580.441406 210.53125 C 586.664062 215.269531 589.777344 221.417969 589.777344 228.972656 C 589.777344 232.359375 589.15625 235.515625 587.910156 238.449219 C 586.664062 241.382812 585.195312 243.75 583.496094 245.558594 C 581.800781 247.363281 580.046875 248.941406 578.234375 250.292969 C 576.421875 251.648438 574.953125 252.664062 573.820312 253.339844 C 572.6875 254.015625 572.066406 254.46875 571.953125 254.695312 L 574.328125 256.214844 C 575.914062 257.34375 577.5 258.472656 579.082031 259.601562 C 580.667969 260.730469 581.574219 261.347656 581.800781 261.460938 C 590.289062 268.117188 594.53125 276.523438 594.53125 286.675781 C 594.53125 295.585938 591.25 303.3125 584.683594 309.855469 C 578.121094 316.398438 569.632812 319.726562 559.21875 319.839844 C 549.035156 319.839844 540.660156 316.960938 534.09375 311.207031 C 527.53125 305.457031 524.25 298.347656 524.25 289.890625 C 524.25 277.707031 531.546875 267.554688 546.148438 259.433594 L 543.09375 257.230469 C 540.714844 255.765625 539.1875 254.636719 538.507812 253.847656 C 532.058594 248.320312 528.832031 241.214844 528.832031 232.527344 Z M 565.5 250.800781 L 566.519531 250.125 C 567.199219 249.675781 567.707031 249.335938 568.046875 249.109375 C 568.386719 248.882812 568.953125 248.488281 569.746094 247.925781 C 570.539062 247.363281 571.21875 246.796875 571.78125 246.234375 C 572.347656 245.667969 572.972656 244.992188 573.652344 244.203125 C 574.328125 243.414062 574.953125 242.679688 575.519531 242.003906 C 576.082031 241.328125 576.648438 240.425781 577.214844 239.296875 C 577.78125 238.167969 578.289062 237.210938 578.742188 236.417969 C 579.195312 235.628906 579.480469 234.5 579.59375 233.035156 C 579.707031 231.570312 579.820312 230.328125 579.933594 229.3125 C 579.933594 224.460938 578.289062 220.34375 575.007812 216.960938 C 571.726562 213.578125 567.933594 211.433594 563.632812 210.53125 C 562.84375 210.417969 560.976562 210.363281 558.03125 210.363281 C 553.390625 210.363281 549.035156 211.828125 544.960938 214.761719 C 540.886719 217.695312 538.792969 221.359375 538.679688 225.757812 C 538.679688 228.355469 539.414062 230.722656 540.886719 232.867188 C 542.355469 235.007812 543.828125 236.644531 545.300781 237.773438 C 546.769531 238.902344 549.601562 240.707031 553.789062 243.1875 C 554.582031 243.75 555.203125 244.148438 555.65625 244.371094 Z M 559.390625 312.5625 C 565.953125 312.5625 571.613281 310.644531 576.367188 306.808594 C 581.121094 302.972656 583.496094 298.347656 583.496094 292.933594 C 583.496094 291.015625 583.214844 289.210938 582.648438 287.519531 C 582.082031 285.828125 581.402344 284.417969 580.609375 283.289062 C 579.820312 282.160156 578.574219 280.921875 576.875 279.566406 C 575.179688 278.214844 573.875 277.199219 572.972656 276.523438 C 572.066406 275.84375 570.425781 274.773438 568.046875 273.304688 C 565.671875 271.839844 564.144531 270.882812 563.464844 270.429688 C 561.878906 269.414062 560.183594 268.34375 558.371094 267.214844 C 556.5625 266.085938 555.089844 265.128906 553.957031 264.339844 L 552.601562 263.492188 C 551.921875 263.492188 550.28125 264.453125 547.675781 266.371094 C 545.074219 268.285156 542.355469 271.390625 539.527344 275.675781 C 536.699219 279.960938 535.226562 284.585938 535.113281 289.550781 C 535.113281 296.207031 537.546875 301.675781 542.414062 305.964844 C 547.28125 310.25 552.9375 312.449219 559.390625 312.5625 Z M 559.390625 312.5625 " fill-opacity="1" fill-rule="nonzero"/><path fill="#000000" d="M 595.378906 546.574219 C 593.34375 546.238281 586.042969 546.066406 573.480469 546.066406 C 560.351562 546.066406 552.769531 546.238281 550.730469 546.574219 L 549.203125 546.574219 L 549.203125 538.792969 L 554.46875 538.792969 C 556.730469 538.792969 558.257812 538.792969 559.050781 538.792969 C 559.84375 538.792969 560.804688 538.679688 561.9375 538.453125 C 563.070312 538.226562 563.859375 537.945312 564.3125 537.609375 C 564.765625 537.269531 565.164062 536.816406 565.5 536.253906 C 565.613281 536.027344 565.671875 532.984375 565.671875 527.117188 L 565.671875 518.65625 L 521.703125 518.65625 L 521.703125 510.875 L 547.335938 471.785156 C 564.652344 445.617188 573.425781 432.472656 573.652344 432.359375 C 573.875 432.136719 575.066406 432.023438 577.214844 432.023438 L 580.269531 432.023438 L 581.289062 433.039062 L 581.289062 510.875 L 596.910156 510.875 L 596.910156 518.65625 L 581.289062 518.65625 L 581.289062 527.285156 C 581.289062 531.910156 581.289062 534.617188 581.289062 535.40625 C 581.289062 536.199219 581.628906 536.875 582.308594 537.4375 C 583.214844 538.226562 586.441406 538.679688 591.984375 538.792969 L 596.910156 538.792969 L 596.910156 546.574219 Z M 566.691406 510.875 L 566.691406 454.359375 L 529.511719 510.703125 L 548.015625 510.875 Z M 566.691406 510.875 " fill-opacity="1" fill-rule="nonzero"/><path fill="#000000" d="M 499.972656 393.273438 L 618.808594 393.273438 L 618.808594 383.121094 L 499.972656 383.121094 Z M 499.972656 393.273438 " fill-opacity="1" fill-rule="nonzero"/></svg>