<svg xmlns="http://www.w3.org/2000/svg" xmlns:xlink="http://www.w3.org/1999/xlink" width="1000" zoomAndPan="magnify" viewBox="0 0 750 749.999995" height="1000" preserveAspectRatio="xMidYMid meet" version="1.0"><defs><clipPath id="f8d5d420c5"><path d="M 157 201.75 L 228 201.75 L 228 319 L 157 319 Z M 157 201.75 " clip-rule="nonzero"/></clipPath><clipPath id="4b22647a2d"><path d="M 158 431 L 227 431 L 227 548.25 L 158 548.25 Z M 158 431 " clip-rule="nonzero"/></clipPath><clipPath id="8cc07c63ea"><path d="M 525 201.75 L 593 201.75 L 593 319 L 525 319 Z M 525 201.75 " clip-rule="nonzero"/></clipPath></defs><rect x="-75" width="900" fill="#ffffff" y="-74.999999" height="899.999994" fill-opacity="1"/><rect x="-75" width="900" fill="#ffffff" y="-74.999999" height="899.999994" fill-opacity="1"/><g clip-path="url(#f8d5d420c5)"><path fill="#000000" d="M 157.214844 261.414062 C 157.214844 243.046875 161.792969 228.511719 170.949219 217.808594 C 180.109375 207.101562 190.28125 201.75 201.476562 201.75 C 209.277344 201.75 214.871094 203.777344 218.265625 207.835938 C 221.65625 211.890625 223.351562 216.398438 223.351562 221.355469 C 223.351562 224.175781 222.558594 226.425781 220.976562 228.117188 C 219.394531 229.808594 217.191406 230.652344 214.363281 230.652344 C 211.761719 230.652344 209.617188 229.863281 207.917969 228.285156 C 206.222656 226.710938 205.375 224.511719 205.375 221.695312 C 205.375 216.738281 208.03125 213.75 213.347656 212.738281 C 210.859375 210.257812 207.355469 208.847656 202.832031 208.511719 C 194.804688 208.511719 188.191406 211.890625 182.992188 218.652344 C 177.675781 226.089844 175.019531 237.46875 175.019531 252.796875 L 175.191406 253.472656 C 175.753906 252.796875 176.207031 252.0625 176.546875 251.273438 C 181.183594 244.511719 187.230469 241.132812 194.691406 241.132812 L 195.371094 241.132812 C 200.570312 241.132812 205.148438 242.203125 209.105469 244.34375 C 211.820312 245.921875 214.535156 248.175781 217.246094 251.105469 C 219.960938 254.035156 222.164062 257.246094 223.859375 260.738281 C 226.234375 266.261719 227.421875 272.289062 227.421875 278.824219 L 227.421875 281.867188 C 227.421875 284.460938 227.140625 286.882812 226.574219 289.136719 C 225.332031 295.785156 221.710938 302.261719 215.71875 308.574219 C 209.730469 314.882812 202.152344 318.039062 192.996094 318.039062 C 189.832031 318.039062 186.777344 317.589844 183.839844 316.6875 C 180.898438 315.785156 177.734375 314.09375 174.34375 311.617188 C 170.949219 309.136719 168.066406 305.8125 165.695312 301.644531 C 163.320312 297.472656 161.285156 292.007812 159.589844 285.25 C 157.894531 278.488281 157.101562 270.542969 157.214844 261.414062 Z M 193.675781 247.21875 C 190.28125 247.21875 187.34375 248.175781 184.855469 250.089844 C 182.371094 252.007812 180.449219 254.542969 179.089844 257.695312 C 177.734375 260.851562 176.773438 264.0625 176.207031 267.332031 C 175.640625 270.597656 175.304688 274.09375 175.191406 277.8125 C 175.191406 287.164062 175.867188 293.867188 177.226562 297.925781 C 178.582031 301.980469 180.730469 305.25 183.667969 307.726562 C 186.382812 309.757812 189.378906 310.769531 192.65625 310.769531 C 198.421875 310.769531 202.832031 308.628906 205.882812 304.347656 C 207.355469 302.320312 208.371094 299.785156 208.9375 296.742188 C 209.503906 293.699219 209.785156 287.785156 209.785156 278.996094 C 209.785156 269.980469 209.503906 263.949219 208.9375 260.910156 C 208.371094 257.867188 207.355469 255.332031 205.882812 253.300781 C 202.832031 249.246094 198.761719 247.21875 193.675781 247.21875 Z M 193.675781 247.21875 " fill-opacity="1" fill-rule="nonzero"/></g><g clip-path="url(#4b22647a2d)"><path fill="#000000" d="M 177.902344 517.996094 C 177.902344 520.699219 177 522.953125 175.191406 524.753906 C 173.382812 526.558594 171.175781 527.460938 168.578125 527.460938 L 167.390625 527.460938 C 172.589844 536.363281 179.488281 540.8125 188.078125 540.8125 C 195.992188 540.8125 201.757812 537.433594 205.375 530.671875 C 207.523438 526.953125 208.597656 519.742188 208.597656 509.035156 C 208.597656 497.429688 207.070312 489.597656 204.019531 485.542969 C 201.078125 481.824219 197.800781 479.964844 194.183594 479.964844 L 193.167969 479.964844 C 184.347656 479.964844 177.675781 483.796875 173.15625 491.457031 C 172.703125 492.246094 172.308594 492.699219 171.96875 492.808594 C 171.628906 492.921875 170.78125 493.035156 169.425781 493.148438 C 167.503906 493.148438 166.429688 492.808594 166.203125 492.132812 C 165.976562 491.683594 165.863281 481.824219 165.863281 462.554688 L 165.863281 440.75 C 165.863281 435.117188 166.144531 432.300781 166.710938 432.300781 C 166.9375 432.074219 167.164062 431.960938 167.390625 431.960938 C 167.503906 431.960938 168.691406 432.410156 170.949219 433.3125 C 173.210938 434.214844 176.320312 435.117188 180.277344 436.019531 C 184.234375 436.917969 188.472656 437.371094 192.996094 437.371094 C 201.023438 437.371094 208.710938 435.792969 216.058594 432.636719 C 216.964844 432.1875 217.699219 431.960938 218.265625 431.960938 C 219.167969 431.960938 219.621094 432.976562 219.621094 435.003906 L 219.621094 437.199219 C 210.351562 448.132812 198.761719 453.597656 184.855469 453.597656 C 181.351562 453.597656 178.1875 453.257812 175.359375 452.582031 L 173.664062 452.246094 L 173.664062 481.316406 C 175.8125 479.738281 177.507812 478.5 178.75 477.597656 C 179.996094 476.695312 182.03125 475.792969 184.855469 474.894531 C 187.683594 473.992188 190.566406 473.542969 193.503906 473.542969 C 202.664062 473.542969 210.40625 477.203125 216.738281 484.527344 C 223.070312 491.851562 226.234375 500.527344 226.234375 510.558594 C 226.234375 520.925781 222.617188 529.769531 215.382812 537.09375 C 208.144531 544.417969 199.328125 548.136719 188.925781 548.25 C 179.769531 548.25 172.421875 545.207031 166.878906 539.121094 C 161.339844 533.039062 158.570312 526.164062 158.570312 518.5 C 158.570312 515.796875 159.191406 513.65625 160.4375 512.078125 C 161.679688 510.5 162.980469 509.488281 164.335938 509.035156 C 165.695312 508.585938 166.992188 508.359375 168.238281 508.359375 C 171.0625 508.359375 173.382812 509.316406 175.191406 511.234375 C 177 513.148438 177.902344 515.402344 177.902344 517.996094 Z M 177.902344 517.996094 " fill-opacity="1" fill-rule="nonzero"/></g><path fill="#000000" d="M 133.132812 391.394531 L 251.839844 391.394531 L 251.839844 381.253906 L 133.132812 381.253906 Z M 133.132812 391.394531 " fill-opacity="1" fill-rule="nonzero"/><path fill="#000000" d="M 416.710938 423.679688 C 416.710938 425.933594 415.523438 427.058594 413.148438 427.058594 C 412.582031 427.058594 411.339844 426.15625 409.417969 424.355469 C 407.496094 422.550781 402.183594 417.3125 393.476562 408.636719 L 375.839844 391.058594 L 358.035156 408.804688 C 346.050781 420.523438 339.886719 426.496094 339.550781 426.722656 C 339.097656 426.945312 338.703125 427.058594 338.363281 427.058594 C 337.457031 427.058594 336.667969 426.722656 335.988281 426.046875 C 335.308594 425.371094 334.914062 424.582031 334.800781 423.679688 C 334.800781 422.890625 335.59375 421.652344 337.175781 419.960938 C 338.757812 418.269531 344.070312 412.917969 353.117188 403.902344 L 370.753906 386.324219 L 353.117188 368.746094 C 343.957031 359.617188 338.644531 354.265625 337.175781 352.6875 C 335.707031 351.109375 334.914062 349.871094 334.800781 348.96875 C 334.800781 347.957031 335.140625 347.167969 335.820312 346.605469 C 336.496094 346.039062 337.34375 345.757812 338.363281 345.757812 C 338.925781 345.757812 339.324219 345.816406 339.550781 345.929688 C 339.886719 346.152344 346.050781 352.125 358.035156 363.84375 L 375.839844 381.59375 L 393.476562 364.011719 C 402.183594 355.335938 407.496094 350.097656 409.417969 348.292969 C 411.339844 346.492188 412.582031 345.589844 413.148438 345.589844 C 415.523438 345.589844 416.710938 346.714844 416.710938 348.96875 C 416.710938 349.757812 416.144531 350.773438 415.011719 352.011719 C 413.882812 353.253906 408.34375 358.773438 398.394531 368.578125 L 380.757812 386.324219 L 398.394531 404.070312 C 407.890625 413.539062 413.316406 419.003906 414.675781 420.46875 C 416.03125 421.933594 416.710938 423.003906 416.710938 423.679688 Z M 416.710938 423.679688 " fill-opacity="1" fill-rule="nonzero"/><g clip-path="url(#8cc07c63ea)"><path fill="#000000" d="M 544.609375 287.785156 C 544.609375 290.488281 543.703125 292.742188 541.894531 294.542969 C 540.085938 296.347656 537.882812 297.25 535.28125 297.25 L 534.09375 297.25 C 539.292969 306.152344 546.191406 310.601562 554.78125 310.601562 C 562.695312 310.601562 568.460938 307.222656 572.082031 300.460938 C 574.230469 296.742188 575.300781 289.53125 575.300781 278.824219 C 575.300781 267.21875 573.777344 259.386719 570.722656 255.332031 C 567.785156 251.613281 564.507812 249.753906 560.886719 249.753906 L 559.871094 249.753906 C 551.050781 249.753906 544.382812 253.585938 539.859375 261.246094 C 539.40625 262.035156 539.011719 262.484375 538.671875 262.597656 C 538.332031 262.710938 537.484375 262.824219 536.128906 262.9375 C 534.207031 262.9375 533.132812 262.597656 532.90625 261.921875 C 532.679688 261.472656 532.566406 251.613281 532.566406 232.34375 L 532.566406 210.539062 C 532.566406 204.90625 532.851562 202.089844 533.414062 202.089844 C 533.640625 201.863281 533.867188 201.75 534.09375 201.75 C 534.207031 201.75 535.394531 202.199219 537.65625 203.101562 C 539.917969 204.003906 543.027344 204.90625 546.980469 205.804688 C 550.9375 206.707031 555.179688 207.160156 559.699219 207.160156 C 567.726562 207.160156 575.414062 205.582031 582.765625 202.425781 C 583.667969 201.976562 584.402344 201.75 584.96875 201.75 C 585.875 201.75 586.324219 202.765625 586.324219 204.792969 L 586.324219 206.988281 C 577.054688 217.921875 565.46875 223.386719 551.5625 223.386719 C 548.054688 223.386719 544.890625 223.046875 542.066406 222.371094 L 540.367188 222.03125 L 540.367188 251.105469 C 542.515625 249.527344 544.210938 248.289062 545.457031 247.386719 C 546.699219 246.484375 548.734375 245.582031 551.5625 244.683594 C 554.386719 243.78125 557.269531 243.328125 560.210938 243.328125 C 569.367188 243.328125 577.113281 246.992188 583.441406 254.316406 C 589.773438 261.640625 592.9375 270.316406 592.9375 280.347656 C 592.9375 290.714844 589.320312 299.558594 582.085938 306.882812 C 574.851562 314.207031 566.03125 317.925781 555.632812 318.039062 C 546.472656 318.039062 539.125 314.996094 533.585938 308.910156 C 528.046875 302.828125 525.277344 295.953125 525.277344 288.289062 C 525.277344 285.585938 525.898438 283.445312 527.140625 281.867188 C 528.386719 280.289062 529.683594 279.277344 531.042969 278.824219 C 532.398438 278.375 533.699219 278.148438 534.941406 278.148438 C 537.769531 278.148438 540.085938 279.105469 541.894531 281.023438 C 543.703125 282.9375 544.609375 285.191406 544.609375 287.785156 Z M 544.609375 287.785156 " fill-opacity="1" fill-rule="nonzero"/></g><path fill="#000000" d="M 535.28125 472.019531 C 532.230469 472.019531 529.796875 471.003906 527.988281 468.976562 C 526.179688 466.949219 525.277344 464.46875 525.277344 461.539062 C 525.277344 453.539062 528.273438 446.609375 534.265625 440.75 C 540.253906 434.890625 547.71875 431.960938 556.648438 431.960938 C 566.9375 431.960938 575.527344 435.117188 582.425781 441.425781 C 589.320312 447.738281 592.824219 455.90625 592.9375 465.933594 C 592.9375 470.78125 591.808594 475.402344 589.546875 479.796875 C 587.285156 484.191406 584.574219 488.019531 581.40625 491.289062 C 578.242188 494.554688 573.71875 498.726562 567.839844 503.796875 C 563.769531 507.289062 558.117188 512.472656 550.882812 519.347656 L 540.878906 528.8125 L 553.765625 528.980469 C 571.515625 528.980469 580.957031 528.699219 582.085938 528.136719 C 582.878906 527.910156 584.234375 522.894531 586.15625 513.09375 L 586.15625 512.585938 L 592.9375 512.585938 L 592.9375 513.09375 C 592.824219 513.429688 592.089844 518.558594 590.734375 528.472656 C 589.378906 538.390625 588.53125 543.574219 588.191406 544.023438 L 588.191406 544.53125 L 525.277344 544.53125 L 525.277344 539.292969 C 525.277344 538.503906 525.613281 537.65625 526.292969 536.757812 C 526.972656 535.855469 528.667969 533.882812 531.378906 530.839844 C 534.660156 527.234375 537.484375 524.078125 539.859375 521.375 C 540.878906 520.25 542.800781 518.164062 545.625 515.121094 C 548.453125 512.078125 550.375 509.996094 551.390625 508.867188 C 552.410156 507.742188 554.046875 505.882812 556.308594 503.289062 C 558.570312 500.699219 560.152344 498.78125 561.058594 497.542969 C 561.960938 496.304688 563.261719 494.613281 564.957031 492.472656 C 566.652344 490.332031 567.839844 488.527344 568.519531 487.0625 C 569.199219 485.597656 570.046875 483.964844 571.0625 482.160156 C 572.082031 480.359375 572.816406 478.554688 573.269531 476.753906 C 573.71875 474.949219 574.117188 473.257812 574.453125 471.683594 C 574.792969 470.105469 574.964844 468.246094 574.964844 466.105469 C 574.964844 459.003906 573.042969 452.863281 569.199219 447.679688 C 565.355469 442.496094 559.871094 439.90625 552.75 439.90625 C 549.015625 439.90625 545.738281 440.863281 542.914062 442.777344 C 540.085938 444.695312 538.109375 446.554688 536.976562 448.355469 C 535.847656 450.160156 535.28125 451.230469 535.28125 451.566406 C 535.28125 451.679688 535.5625 451.738281 536.128906 451.738281 C 538.164062 451.738281 540.253906 452.527344 542.402344 454.101562 C 544.550781 455.679688 545.625 458.273438 545.625 461.878906 C 545.625 464.695312 544.722656 467.0625 542.914062 468.976562 C 541.101562 470.894531 538.558594 471.90625 535.28125 472.019531 Z M 535.28125 472.019531 " fill-opacity="1" fill-rule="nonzero"/><path fill="#000000" d="M 499.839844 391.394531 L 618.546875 391.394531 L 618.546875 381.253906 L 499.839844 381.253906 Z M 499.839844 391.394531 " fill-opacity="1" fill-rule="nonzero"/></svg>