<svg xmlns="http://www.w3.org/2000/svg" xmlns:xlink="http://www.w3.org/1999/xlink" width="1000" zoomAndPan="magnify" viewBox="0 0 750 749.999995" height="1000" preserveAspectRatio="xMidYMid meet" version="1.0"><defs><clipPath id="5a5258f939"><path d="M 120 204.308594 L 187 204.308594 L 187 316 L 120 316 Z M 120 204.308594 " clip-rule="nonzero"/></clipPath><clipPath id="1031eda3ff"><path d="M 486 204.308594 L 544 204.308594 L 544 316 L 486 316 Z M 486 204.308594 " clip-rule="nonzero"/></clipPath><clipPath id="9b1563dc9e"><path d="M 562 204.308594 L 632 204.308594 L 632 319 L 562 319 Z M 562 204.308594 " clip-rule="nonzero"/></clipPath><clipPath id="247c97a136"><path d="M 521 431 L 591 431 L 591 545.691406 L 521 545.691406 Z M 521 431 " clip-rule="nonzero"/></clipPath></defs><rect x="-75" width="900" fill="#ffffff" y="-74.999999" height="899.999994" fill-opacity="1"/><rect x="-75" width="900" fill="#ffffff" y="-74.999999" height="899.999994" fill-opacity="1"/><g clip-path="url(#5a5258f939)"><path fill="#000000" d="M 129.90625 243.777344 C 126.902344 243.777344 124.511719 242.777344 122.734375 240.78125 C 120.957031 238.78125 120.066406 236.339844 120.066406 233.453125 C 120.066406 225.570312 123.011719 218.742188 128.902344 212.96875 C 134.796875 207.195312 142.132812 204.308594 150.917969 204.308594 C 161.035156 204.308594 169.484375 207.417969 176.265625 213.636719 C 183.046875 219.851562 186.492188 227.902344 186.605469 237.78125 C 186.605469 242.554688 185.492188 247.109375 183.269531 251.4375 C 181.046875 255.765625 178.378906 259.542969 175.265625 262.761719 C 172.152344 265.980469 167.703125 270.089844 161.921875 275.085938 C 157.921875 278.527344 152.363281 283.632812 145.246094 290.40625 L 135.40625 299.730469 L 148.082031 299.898438 C 165.535156 299.898438 174.820312 299.617188 175.929688 299.0625 C 176.710938 298.84375 178.042969 293.902344 179.933594 284.242188 L 179.933594 283.742188 L 186.605469 283.742188 L 186.605469 284.242188 C 186.492188 284.574219 185.769531 289.628906 184.4375 299.398438 C 183.101562 309.167969 182.269531 314.273438 181.933594 314.71875 L 181.933594 315.21875 L 120.066406 315.21875 L 120.066406 310.054688 C 120.066406 309.277344 120.398438 308.445312 121.066406 307.558594 C 121.734375 306.667969 123.402344 304.726562 126.070312 301.726562 C 129.292969 298.175781 132.074219 295.066406 134.40625 292.402344 C 135.40625 291.292969 137.296875 289.238281 140.078125 286.242188 C 142.855469 283.242188 144.746094 281.191406 145.746094 280.078125 C 146.746094 278.96875 148.359375 277.136719 150.582031 274.585938 C 152.808594 272.03125 154.363281 270.144531 155.253906 268.921875 C 156.140625 267.703125 157.421875 266.035156 159.089844 263.925781 C 160.757812 261.816406 161.921875 260.042969 162.589844 258.597656 C 163.257812 257.15625 164.089844 255.546875 165.09375 253.769531 C 166.09375 251.992188 166.816406 250.214844 167.257812 248.441406 C 167.703125 246.664062 168.09375 245 168.425781 243.445312 C 168.761719 241.890625 168.925781 240.058594 168.925781 237.949219 C 168.925781 230.953125 167.039062 224.902344 163.257812 219.796875 C 159.476562 214.691406 154.085938 212.136719 147.082031 212.136719 C 143.414062 212.136719 140.1875 213.082031 137.410156 214.96875 C 134.628906 216.855469 132.683594 218.6875 131.574219 220.464844 C 130.460938 222.238281 129.90625 223.292969 129.90625 223.628906 C 129.90625 223.738281 130.183594 223.792969 130.738281 223.792969 C 132.738281 223.792969 134.796875 224.570312 136.910156 226.125 C 139.019531 227.679688 140.078125 230.234375 140.078125 233.785156 C 140.078125 236.5625 139.1875 238.890625 137.410156 240.78125 C 135.628906 242.667969 133.128906 243.667969 129.90625 243.777344 Z M 129.90625 243.777344 " fill-opacity="1" fill-rule="nonzero"/></g><path fill="#000000" d="M 188.773438 542.027344 C 186.769531 541.691406 179.601562 541.527344 167.257812 541.527344 C 154.363281 541.527344 146.914062 541.691406 144.914062 542.027344 L 143.414062 542.027344 L 143.414062 534.367188 L 148.582031 534.367188 C 150.804688 534.367188 152.304688 534.367188 153.085938 534.367188 C 153.863281 534.367188 154.808594 534.253906 155.917969 534.03125 C 157.03125 533.8125 157.808594 533.53125 158.253906 533.199219 C 158.699219 532.867188 159.089844 532.421875 159.421875 531.867188 C 159.53125 531.644531 159.589844 528.648438 159.589844 522.875 L 159.589844 514.550781 L 116.398438 514.550781 L 116.398438 506.890625 L 141.578125 468.421875 C 158.589844 442.664062 167.203125 429.730469 167.425781 429.621094 C 167.648438 429.398438 168.816406 429.289062 170.929688 429.289062 L 173.929688 429.289062 L 174.929688 430.285156 L 174.929688 506.890625 L 190.273438 506.890625 L 190.273438 514.550781 L 174.929688 514.550781 L 174.929688 523.042969 C 174.929688 527.59375 174.929688 530.257812 174.929688 531.035156 C 174.929688 531.8125 175.265625 532.480469 175.929688 533.035156 C 176.820312 533.8125 179.988281 534.253906 185.4375 534.367188 L 190.273438 534.367188 L 190.273438 542.027344 Z M 160.589844 506.890625 L 160.589844 451.269531 L 124.066406 506.722656 L 142.246094 506.890625 Z M 160.589844 506.890625 " fill-opacity="1" fill-rule="nonzero"/><path fill="#000000" d="M 95.050781 391.152344 L 211.785156 391.152344 L 211.785156 381.160156 L 95.050781 381.160156 Z M 95.050781 391.152344 " fill-opacity="1" fill-rule="nonzero"/><path fill="#000000" d="M 373.914062 422.960938 C 373.914062 425.179688 372.746094 426.289062 370.410156 426.289062 C 369.855469 426.289062 368.632812 425.402344 366.742188 423.625 C 364.851562 421.847656 359.625 416.6875 351.066406 408.140625 L 333.722656 390.820312 L 316.210938 408.304688 C 304.429688 419.851562 298.367188 425.734375 298.035156 425.957031 C 297.589844 426.179688 297.203125 426.289062 296.867188 426.289062 C 295.980469 426.289062 295.199219 425.957031 294.535156 425.289062 C 293.867188 424.625 293.476562 423.847656 293.367188 422.960938 C 293.367188 422.183594 294.144531 420.960938 295.699219 419.296875 C 297.257812 417.628906 302.484375 412.359375 311.375 403.476562 L 328.71875 386.15625 L 311.375 368.839844 C 302.371094 359.847656 297.144531 354.574219 295.699219 353.019531 C 294.253906 351.464844 293.476562 350.242188 293.367188 349.355469 C 293.367188 348.355469 293.699219 347.578125 294.367188 347.023438 C 295.035156 346.46875 295.867188 346.191406 296.867188 346.191406 C 297.425781 346.191406 297.8125 346.246094 298.035156 346.359375 C 298.367188 346.578125 304.429688 352.464844 316.210938 364.007812 L 333.722656 381.496094 L 351.066406 364.175781 C 359.625 355.628906 364.851562 350.464844 366.742188 348.6875 C 368.632812 346.914062 369.855469 346.023438 370.410156 346.023438 C 372.746094 346.023438 373.914062 347.132812 373.914062 349.355469 C 373.914062 350.132812 373.355469 351.132812 372.246094 352.351562 C 371.132812 353.574219 365.6875 359.011719 355.902344 368.671875 L 338.558594 386.15625 L 355.902344 403.640625 C 365.242188 412.96875 370.578125 418.351562 371.910156 419.796875 C 373.246094 421.238281 373.914062 422.292969 373.914062 422.960938 Z M 373.914062 422.960938 " fill-opacity="1" fill-rule="nonzero"/><g clip-path="url(#1031eda3ff)"><path fill="#000000" d="M 507.855469 218.964844 L 505.6875 219.796875 C 504.132812 220.351562 501.910156 220.90625 499.019531 221.460938 C 496.128906 222.019531 492.902344 222.40625 489.347656 222.628906 L 486.179688 222.628906 L 486.179688 214.96875 L 489.347656 214.96875 C 494.570312 214.746094 499.40625 213.914062 503.855469 212.46875 C 508.300781 211.027344 511.414062 209.695312 513.195312 208.472656 C 514.972656 207.253906 516.527344 206.03125 517.863281 204.808594 C 518.085938 204.476562 518.753906 204.308594 519.863281 204.308594 C 520.863281 204.308594 521.808594 204.644531 522.699219 205.308594 L 522.699219 255.101562 L 522.867188 305.058594 C 523.644531 305.835938 524.3125 306.335938 524.867188 306.558594 C 525.421875 306.78125 526.757812 307 528.871094 307.222656 C 530.980469 307.445312 534.429688 307.558594 539.207031 307.558594 L 543.542969 307.558594 L 543.542969 315.21875 L 541.710938 315.21875 C 539.375 314.882812 530.535156 314.71875 515.195312 314.71875 C 500.074219 314.71875 491.347656 314.882812 489.011719 315.21875 L 487.011719 315.21875 L 487.011719 307.558594 L 491.347656 307.558594 C 493.792969 307.558594 495.90625 307.558594 497.683594 307.558594 C 499.464844 307.558594 500.851562 307.5 501.855469 307.390625 C 502.855469 307.277344 503.742188 307.113281 504.523438 306.890625 C 505.300781 306.667969 505.746094 306.558594 505.855469 306.558594 C 505.96875 306.558594 506.300781 306.28125 506.855469 305.726562 C 507.414062 305.167969 507.746094 304.949219 507.855469 305.058594 Z M 507.855469 218.964844 " fill-opacity="1" fill-rule="nonzero"/></g><g clip-path="url(#9b1563dc9e)"><path fill="#000000" d="M 567.390625 245.777344 C 567.390625 245.777344 567.390625 241.5 567.390625 232.953125 C 567.390625 224.40625 570.394531 217.519531 576.398438 212.304688 C 582.402344 207.085938 589.292969 204.421875 597.074219 204.308594 C 604.96875 204.308594 611.972656 206.640625 618.085938 211.304688 C 624.203125 215.96875 627.261719 222.019531 627.261719 229.457031 C 627.261719 232.785156 626.648438 235.894531 625.425781 238.78125 C 624.203125 241.667969 622.757812 244 621.089844 245.777344 C 619.421875 247.550781 617.699219 249.105469 615.917969 250.4375 C 614.140625 251.769531 612.695312 252.769531 611.585938 253.4375 C 610.472656 254.101562 609.859375 254.546875 609.75 254.769531 L 612.085938 256.265625 C 613.640625 257.375 615.199219 258.488281 616.753906 259.597656 C 618.308594 260.707031 619.199219 261.316406 619.421875 261.429688 C 627.761719 267.980469 631.929688 276.25 631.929688 286.242188 C 631.929688 295.011719 628.707031 302.617188 622.257812 309.054688 C 615.808594 315.496094 607.46875 318.769531 597.242188 318.878906 C 587.238281 318.878906 579.007812 316.050781 572.5625 310.386719 C 566.113281 304.726562 562.890625 297.730469 562.890625 289.40625 C 562.890625 277.414062 570.058594 267.425781 584.402344 259.429688 L 581.398438 257.265625 C 579.066406 255.824219 577.5625 254.710938 576.898438 253.933594 C 570.558594 248.496094 567.390625 241.5 567.390625 232.953125 Z M 603.414062 250.9375 L 604.414062 250.273438 C 605.082031 249.828125 605.582031 249.496094 605.914062 249.273438 C 606.246094 249.050781 606.804688 248.660156 607.582031 248.105469 C 608.359375 247.550781 609.027344 246.996094 609.582031 246.441406 C 610.140625 245.886719 610.75 245.21875 611.417969 244.441406 C 612.085938 243.667969 612.695312 242.945312 613.25 242.277344 C 613.808594 241.613281 614.363281 240.722656 614.917969 239.613281 C 615.476562 238.503906 615.976562 237.558594 616.421875 236.78125 C 616.863281 236.007812 617.144531 234.894531 617.253906 233.453125 C 617.363281 232.007812 617.476562 230.789062 617.585938 229.789062 C 617.585938 225.015625 615.976562 220.964844 612.75 217.632812 C 609.527344 214.300781 605.804688 212.191406 601.578125 211.304688 C 600.800781 211.195312 598.964844 211.136719 596.074219 211.136719 C 591.515625 211.136719 587.238281 212.582031 583.234375 215.46875 C 579.230469 218.355469 577.175781 221.960938 577.0625 226.292969 C 577.0625 228.84375 577.785156 231.175781 579.230469 233.285156 C 580.675781 235.394531 582.121094 237.003906 583.566406 238.113281 C 585.011719 239.226562 587.792969 241 591.90625 243.445312 C 592.683594 244 593.296875 244.386719 593.742188 244.609375 Z M 597.410156 311.71875 C 603.855469 311.71875 609.417969 309.832031 614.085938 306.058594 C 618.753906 302.285156 621.089844 297.730469 621.089844 292.402344 C 621.089844 290.515625 620.8125 288.738281 620.253906 287.074219 C 619.699219 285.410156 619.03125 284.019531 618.253906 282.910156 C 617.476562 281.800781 616.253906 280.578125 614.585938 279.246094 C 612.917969 277.914062 611.640625 276.914062 610.75 276.25 C 609.859375 275.582031 608.25 274.527344 605.914062 273.085938 C 603.578125 271.640625 602.078125 270.699219 601.410156 270.253906 C 599.855469 269.253906 598.1875 268.199219 596.410156 267.089844 C 594.628906 265.980469 593.183594 265.035156 592.074219 264.261719 L 590.738281 263.425781 C 590.070312 263.425781 588.460938 264.371094 585.902344 266.257812 C 583.34375 268.144531 580.675781 271.199219 577.898438 275.417969 C 575.117188 279.636719 573.671875 284.1875 573.5625 289.074219 C 573.5625 295.621094 575.953125 301.007812 580.734375 305.226562 C 585.511719 309.445312 591.070312 311.609375 597.410156 311.71875 Z M 597.410156 311.71875 " fill-opacity="1" fill-rule="nonzero"/></g><g clip-path="url(#247c97a136)"><path fill="#000000" d="M 535.207031 464.925781 C 532.203125 464.925781 529.871094 463.980469 528.203125 462.09375 C 526.535156 460.207031 525.644531 457.761719 525.535156 454.765625 C 525.535156 448.660156 528.203125 443.21875 533.539062 438.445312 C 538.875 433.671875 545.324219 431.285156 552.882812 431.285156 C 556.773438 431.285156 559.21875 431.339844 560.222656 431.453125 C 568.449219 432.785156 574.730469 435.726562 579.066406 440.277344 C 583.402344 444.832031 585.625 449.769531 585.734375 455.097656 C 585.734375 460.871094 583.847656 466.480469 580.066406 471.917969 C 576.285156 477.359375 571.0625 481.300781 564.390625 483.742188 L 563.890625 484.074219 C 563.890625 484.1875 564.390625 484.351562 565.390625 484.574219 C 566.390625 484.796875 568.003906 485.296875 570.226562 486.074219 C 572.449219 486.851562 574.5625 488.015625 576.5625 489.570312 C 585.679688 495.453125 590.238281 503.226562 590.238281 512.882812 C 590.238281 521.65625 586.792969 529.316406 579.898438 535.863281 C 573.007812 542.414062 564.277344 545.691406 553.71875 545.691406 C 544.824219 545.691406 537.152344 543.304688 530.703125 538.527344 C 524.253906 533.753906 521.03125 527.703125 521.03125 520.378906 C 521.03125 517.269531 522.03125 514.769531 524.035156 512.882812 C 526.035156 510.996094 528.535156 509.996094 531.539062 509.886719 C 534.652344 509.886719 537.207031 510.886719 539.207031 512.882812 C 541.210938 514.882812 542.210938 517.378906 542.210938 520.378906 C 542.210938 521.597656 542.042969 522.707031 541.710938 523.707031 C 541.375 524.707031 540.988281 525.59375 540.542969 526.371094 C 540.097656 527.148438 539.488281 527.816406 538.707031 528.371094 C 537.929688 528.925781 537.261719 529.371094 536.707031 529.703125 C 536.152344 530.035156 535.59375 530.257812 535.039062 530.371094 C 534.484375 530.480469 534.039062 530.648438 533.707031 530.867188 L 533.039062 531.035156 C 538.707031 536.03125 545.601562 538.527344 553.71875 538.527344 C 559.832031 538.527344 564.445312 535.585938 567.558594 529.703125 C 569.449219 526.039062 570.394531 520.433594 570.394531 512.882812 L 570.394531 509.554688 C 570.394531 499.007812 566.835938 491.957031 559.71875 488.40625 C 558.054688 487.738281 554.664062 487.351562 549.546875 487.238281 L 542.542969 487.074219 L 542.042969 486.738281 C 541.820312 486.40625 541.710938 485.519531 541.710938 484.074219 C 541.710938 482.078125 542.15625 481.078125 543.042969 481.078125 C 546.15625 481.078125 549.382812 480.800781 552.714844 480.246094 C 556.496094 479.691406 559.941406 477.359375 563.054688 473.25 C 566.167969 469.144531 567.726562 462.925781 567.726562 454.601562 L 567.726562 453.265625 C 567.726562 446.9375 565.78125 442.554688 561.886719 440.113281 C 559.441406 438.558594 556.832031 437.78125 554.050781 437.78125 C 550.492188 437.78125 547.214844 438.390625 544.210938 439.613281 C 541.210938 440.832031 539.097656 442.109375 537.875 443.441406 C 536.652344 444.773438 536.039062 445.441406 536.039062 445.441406 L 536.539062 445.441406 C 536.875 445.550781 537.320312 445.664062 537.875 445.773438 C 538.429688 445.886719 538.988281 446.164062 539.542969 446.605469 C 540.097656 447.050781 540.765625 447.4375 541.542969 447.773438 C 542.320312 448.105469 542.878906 448.714844 543.210938 449.605469 C 543.542969 450.492188 543.988281 451.324219 544.546875 452.101562 C 545.101562 452.878906 545.269531 453.988281 545.046875 455.433594 C 545.046875 457.875 544.265625 460.039062 542.710938 461.925781 C 541.15625 463.8125 538.652344 464.8125 535.207031 464.925781 Z M 535.207031 464.925781 " fill-opacity="1" fill-rule="nonzero"/></g><path fill="#000000" d="M 455.660156 391.152344 L 655.777344 391.152344 L 655.777344 381.160156 L 455.660156 381.160156 Z M 455.660156 391.152344 " fill-opacity="1" fill-rule="nonzero"/></svg>