<svg xmlns="http://www.w3.org/2000/svg" xmlns:xlink="http://www.w3.org/1999/xlink" width="1000" zoomAndPan="magnify" viewBox="0 0 750 749.999995" height="1000" preserveAspectRatio="xMidYMid meet" version="1.0"><defs><clipPath id="da33ce5df7"><path d="M 200 204.308594 L 275 204.308594 L 275 317 L 200 317 Z M 200 204.308594 " clip-rule="nonzero"/></clipPath><clipPath id="db42a90301"><path d="M 563 430 L 636 430 L 636 545.691406 L 563 545.691406 Z M 563 430 " clip-rule="nonzero"/></clipPath></defs><rect x="-75" width="900" fill="#ffffff" y="-74.999999" height="899.999994" fill-opacity="1"/><rect x="-75" width="900" fill="#ffffff" y="-74.999999" height="899.999994" fill-opacity="1"/><path fill="#000000" d="M 148.464844 220.707031 L 146.308594 221.535156 C 144.761719 222.089844 142.550781 222.640625 139.675781 223.191406 C 136.800781 223.746094 133.59375 224.132812 130.054688 224.351562 L 126.902344 224.351562 L 126.902344 216.734375 L 130.054688 216.734375 C 135.25 216.511719 140.0625 215.683594 144.484375 214.25 C 148.910156 212.8125 152.003906 211.488281 153.773438 210.273438 C 155.542969 209.058594 157.089844 207.84375 158.417969 206.628906 C 158.640625 206.296875 159.304688 206.132812 160.410156 206.132812 C 161.402344 206.132812 162.34375 206.464844 163.230469 207.125 L 163.230469 256.652344 L 163.394531 306.34375 C 164.167969 307.117188 164.832031 307.613281 165.386719 307.832031 C 165.9375 308.054688 167.265625 308.277344 169.367188 308.496094 C 171.46875 308.71875 174.894531 308.828125 179.648438 308.828125 L 183.960938 308.828125 L 183.960938 316.445312 L 182.136719 316.445312 C 179.816406 316.117188 171.023438 315.949219 155.765625 315.949219 C 140.726562 315.949219 132.042969 316.117188 129.722656 316.445312 L 127.730469 316.445312 L 127.730469 308.828125 L 132.042969 308.828125 C 134.476562 308.828125 136.578125 308.828125 138.347656 308.828125 C 140.117188 308.828125 141.5 308.773438 142.496094 308.660156 C 143.488281 308.550781 144.375 308.386719 145.148438 308.164062 C 145.921875 307.945312 146.363281 307.832031 146.476562 307.832031 C 146.585938 307.832031 146.917969 307.558594 147.46875 307.003906 C 148.023438 306.453125 148.355469 306.234375 148.464844 306.34375 Z M 148.464844 220.707031 " fill-opacity="1" fill-rule="nonzero"/><g clip-path="url(#da33ce5df7)"><path fill="#000000" d="M 272.703125 316.445312 C 270.714844 316.117188 263.582031 315.949219 251.308594 315.949219 C 238.480469 315.949219 231.070312 316.117188 229.082031 316.445312 L 227.585938 316.445312 L 227.585938 308.828125 L 232.730469 308.828125 C 234.941406 308.828125 236.433594 308.828125 237.207031 308.828125 C 237.980469 308.828125 238.921875 308.71875 240.027344 308.496094 C 241.132812 308.277344 241.90625 308 242.351562 307.667969 C 242.792969 307.335938 243.179688 306.894531 243.511719 306.34375 C 243.621094 306.121094 243.675781 303.140625 243.675781 297.398438 L 243.675781 289.117188 L 200.714844 289.117188 L 200.714844 281.496094 L 225.761719 243.234375 C 242.683594 217.617188 251.253906 204.753906 251.472656 204.640625 C 251.695312 204.421875 252.855469 204.308594 254.957031 204.308594 L 257.941406 204.308594 L 258.9375 205.304688 L 258.9375 281.496094 L 274.199219 281.496094 L 274.199219 289.117188 L 258.9375 289.117188 L 258.9375 297.5625 C 258.9375 302.09375 258.9375 304.742188 258.9375 305.515625 C 258.9375 306.289062 259.269531 306.949219 259.933594 307.503906 C 260.816406 308.277344 263.96875 308.71875 269.386719 308.828125 L 274.199219 308.828125 L 274.199219 316.445312 Z M 244.671875 281.496094 L 244.671875 226.175781 L 208.347656 281.332031 L 226.425781 281.496094 Z M 244.671875 281.496094 " fill-opacity="1" fill-rule="nonzero"/></g><path fill="#000000" d="M 172.683594 470.988281 C 169.699219 470.988281 167.320312 469.992188 165.550781 468.003906 C 163.78125 466.019531 162.898438 463.589844 162.898438 460.71875 C 162.898438 452.878906 165.828125 446.085938 171.6875 440.34375 C 177.550781 434.601562 184.847656 431.730469 193.582031 431.730469 C 203.644531 431.730469 212.050781 434.824219 218.796875 441.007812 C 225.542969 447.191406 228.96875 455.195312 229.082031 465.023438 C 229.082031 469.773438 227.972656 474.300781 225.761719 478.605469 C 223.550781 482.914062 220.898438 486.667969 217.800781 489.871094 C 214.703125 493.070312 210.28125 497.15625 204.53125 502.125 C 200.550781 505.550781 195.019531 510.628906 187.945312 517.367188 L 178.15625 526.640625 L 190.761719 526.808594 C 208.125 526.808594 217.359375 526.53125 218.464844 525.980469 C 219.238281 525.757812 220.566406 520.84375 222.445312 511.238281 L 222.445312 510.738281 L 229.082031 510.738281 L 229.082031 511.238281 C 228.96875 511.566406 228.25 516.59375 226.925781 526.308594 C 225.597656 536.027344 224.769531 541.105469 224.4375 541.546875 L 224.4375 542.046875 L 162.898438 542.046875 L 162.898438 536.910156 C 162.898438 536.136719 163.230469 535.308594 163.890625 534.425781 C 164.554688 533.542969 166.214844 531.609375 168.867188 528.628906 C 172.074219 525.09375 174.839844 522.003906 177.160156 519.351562 C 178.15625 518.25 180.039062 516.207031 182.800781 513.226562 C 185.566406 510.242188 187.445312 508.199219 188.441406 507.097656 C 189.4375 505.992188 191.039062 504.167969 193.25 501.628906 C 195.464844 499.089844 197.011719 497.214844 197.894531 496 C 198.78125 494.785156 200.050781 493.128906 201.710938 491.027344 C 203.371094 488.929688 204.53125 487.164062 205.195312 485.730469 C 205.859375 484.292969 206.6875 482.691406 207.683594 480.925781 C 208.679688 479.160156 209.398438 477.390625 209.839844 475.625 C 210.28125 473.859375 210.667969 472.203125 211 470.65625 C 211.332031 469.109375 211.496094 467.289062 211.496094 465.191406 C 211.496094 458.234375 209.617188 452.214844 205.859375 447.136719 C 202.097656 442.054688 196.734375 439.515625 189.769531 439.515625 C 186.121094 439.515625 182.914062 440.453125 180.148438 442.332031 C 177.382812 444.207031 175.449219 446.03125 174.34375 447.796875 C 173.238281 449.566406 172.683594 450.613281 172.683594 450.945312 C 172.683594 451.054688 172.960938 451.109375 173.511719 451.109375 C 175.503906 451.109375 177.550781 451.882812 179.648438 453.429688 C 181.75 454.976562 182.800781 457.515625 182.800781 461.046875 C 182.800781 463.808594 181.917969 466.128906 180.148438 468.003906 C 178.378906 469.882812 175.890625 470.875 172.683594 470.988281 Z M 172.683594 470.988281 " fill-opacity="1" fill-rule="nonzero"/><path fill="#000000" d="M 96.546875 391.976562 L 295.59375 391.976562 L 295.59375 382.039062 L 96.546875 382.039062 Z M 96.546875 391.976562 " fill-opacity="1" fill-rule="nonzero"/><path fill="#000000" d="M 456.859375 423.613281 C 456.859375 425.824219 455.695312 426.925781 453.375 426.925781 C 452.820312 426.925781 451.605469 426.042969 449.726562 424.277344 C 447.84375 422.511719 442.648438 417.375 434.132812 408.871094 L 416.882812 391.648438 L 399.464844 409.039062 C 387.742188 420.523438 381.71875 426.375 381.386719 426.597656 C 380.941406 426.816406 380.554688 426.925781 380.222656 426.925781 C 379.339844 426.925781 378.566406 426.597656 377.902344 425.933594 C 377.238281 425.269531 376.851562 424.5 376.742188 423.613281 C 376.742188 422.839844 377.515625 421.628906 379.0625 419.96875 C 380.609375 418.3125 385.808594 413.070312 394.65625 404.234375 L 411.90625 387.007812 L 394.65625 369.78125 C 385.699219 360.839844 380.5 355.59375 379.0625 354.046875 C 377.625 352.5 376.851562 351.285156 376.742188 350.402344 C 376.742188 349.410156 377.074219 348.636719 377.734375 348.082031 C 378.398438 347.53125 379.230469 347.253906 380.222656 347.253906 C 380.777344 347.253906 381.164062 347.3125 381.386719 347.421875 C 381.71875 347.640625 387.742188 353.496094 399.464844 364.980469 L 416.882812 382.371094 L 434.132812 365.144531 C 442.648438 356.640625 447.84375 351.507812 449.726562 349.742188 C 451.605469 347.972656 452.820312 347.089844 453.375 347.089844 C 455.695312 347.089844 456.859375 348.195312 456.859375 350.402344 C 456.859375 351.175781 456.304688 352.167969 455.199219 353.382812 C 454.09375 354.597656 448.675781 360.011719 438.941406 369.617188 L 421.691406 387.007812 L 438.941406 404.402344 C 448.230469 413.675781 453.539062 419.03125 454.867188 420.46875 C 456.195312 421.902344 456.859375 422.953125 456.859375 423.613281 Z M 456.859375 423.613281 " fill-opacity="1" fill-rule="nonzero"/><path fill="#000000" d="M 575.820312 239.757812 C 572.835938 239.757812 570.515625 238.816406 568.855469 236.941406 C 567.195312 235.0625 566.3125 232.632812 566.203125 229.652344 C 566.203125 223.578125 568.855469 218.167969 574.164062 213.421875 C 579.472656 208.671875 585.886719 206.296875 593.40625 206.296875 C 597.273438 206.296875 599.707031 206.351562 600.703125 206.464844 C 608.886719 207.789062 615.132812 210.714844 619.445312 215.242188 C 623.757812 219.769531 625.972656 224.683594 626.082031 229.984375 C 626.082031 235.726562 624.203125 241.304688 620.441406 246.714844 C 616.683594 252.125 611.484375 256.042969 604.851562 258.472656 L 604.351562 258.804688 C 604.351562 258.914062 604.851562 259.082031 605.84375 259.300781 C 606.839844 259.523438 608.445312 260.019531 610.65625 260.792969 C 612.867188 261.566406 614.96875 262.726562 616.957031 264.269531 C 626.027344 270.125 630.558594 277.851562 630.558594 287.460938 C 630.558594 296.183594 627.132812 303.804688 620.277344 310.320312 C 613.417969 316.832031 604.738281 320.089844 594.234375 320.089844 C 585.386719 320.089844 577.757812 317.71875 571.34375 312.96875 C 564.929688 308.21875 561.722656 302.203125 561.722656 294.914062 C 561.722656 291.820312 562.71875 289.335938 564.707031 287.460938 C 566.699219 285.582031 569.1875 284.589844 572.171875 284.480469 C 575.269531 284.480469 577.8125 285.472656 579.804688 287.460938 C 581.792969 289.449219 582.789062 291.933594 582.789062 294.914062 C 582.789062 296.128906 582.621094 297.234375 582.289062 298.226562 C 581.960938 299.222656 581.570312 300.105469 581.128906 300.878906 C 580.6875 301.648438 580.078125 302.3125 579.304688 302.863281 C 578.53125 303.417969 577.867188 303.859375 577.316406 304.191406 C 576.761719 304.519531 576.207031 304.742188 575.65625 304.851562 C 575.101562 304.960938 574.660156 305.128906 574.328125 305.347656 L 573.664062 305.515625 C 579.304688 310.484375 586.160156 312.96875 594.234375 312.96875 C 600.316406 312.96875 604.90625 310.042969 608 304.191406 C 609.882812 300.546875 610.820312 294.96875 610.820312 287.460938 L 610.820312 284.148438 C 610.820312 273.65625 607.28125 266.644531 600.207031 263.113281 C 598.546875 262.449219 595.171875 262.0625 590.085938 261.953125 L 583.121094 261.785156 L 582.621094 261.457031 C 582.402344 261.125 582.289062 260.242188 582.289062 258.804688 C 582.289062 256.816406 582.734375 255.824219 583.617188 255.824219 C 586.714844 255.824219 589.921875 255.546875 593.238281 254.996094 C 597 254.441406 600.425781 252.125 603.523438 248.039062 C 606.617188 243.953125 608.167969 237.769531 608.167969 229.488281 L 608.167969 228.164062 C 608.167969 221.867188 606.230469 217.507812 602.363281 215.078125 C 599.929688 213.53125 597.332031 212.757812 594.566406 212.757812 C 591.027344 212.757812 587.765625 213.363281 584.777344 214.578125 C 581.792969 215.792969 579.691406 217.066406 578.476562 218.390625 C 577.257812 219.714844 576.652344 220.378906 576.652344 220.378906 L 577.148438 220.378906 C 577.480469 220.488281 577.921875 220.597656 578.476562 220.707031 C 579.027344 220.820312 579.582031 221.09375 580.132812 221.535156 C 580.6875 221.976562 581.351562 222.363281 582.125 222.695312 C 582.898438 223.027344 583.453125 223.632812 583.785156 224.519531 C 584.117188 225.402344 584.558594 226.230469 585.109375 227.003906 C 585.664062 227.777344 585.828125 228.878906 585.609375 230.316406 C 585.609375 232.746094 584.835938 234.898438 583.285156 236.773438 C 581.738281 238.652344 579.25 239.644531 575.820312 239.757812 Z M 575.820312 239.757812 " fill-opacity="1" fill-rule="nonzero"/><g clip-path="url(#db42a90301)"><path fill="#000000" d="M 563.878906 466.183594 C 563.988281 465.960938 564.929688 459.945312 566.699219 448.128906 L 569.351562 430.40625 C 569.351562 430.183594 570.457031 430.074219 572.671875 430.074219 L 575.988281 430.074219 L 575.988281 430.738281 C 575.988281 431.839844 576.816406 432.78125 578.476562 433.554688 C 580.132812 434.324219 583.007812 434.824219 587.101562 435.042969 C 591.191406 435.265625 600.535156 435.375 615.132812 435.375 L 635.203125 435.375 L 635.203125 441.835938 L 623.925781 457.238281 C 622.929688 458.5625 621.269531 460.773438 618.949219 463.863281 C 616.625 466.957031 615.132812 469 614.46875 469.992188 C 613.808594 470.988281 612.644531 472.753906 610.988281 475.292969 C 609.328125 477.832031 608.222656 479.820312 607.667969 481.257812 C 607.117188 482.691406 606.34375 484.734375 605.347656 487.386719 C 604.351562 490.035156 603.632812 492.574219 603.191406 495.003906 C 602.75 497.433594 602.304688 500.414062 601.863281 503.949219 C 601.421875 507.484375 601.089844 511.238281 600.867188 515.210938 C 600.648438 519.1875 600.480469 523.714844 600.371094 528.792969 C 600.371094 530.339844 600.371094 531.886719 600.371094 533.433594 C 600.371094 534.976562 600.316406 536.304688 600.207031 537.40625 L 600.207031 538.898438 C 599.761719 540.777344 598.710938 542.375 597.054688 543.703125 C 595.394531 545.027344 593.515625 545.691406 591.414062 545.691406 C 590.199219 545.691406 589.035156 545.523438 587.929688 545.191406 C 586.824219 544.863281 585.664062 543.8125 584.445312 542.046875 C 583.230469 540.277344 582.621094 538.070312 582.621094 535.421875 C 582.621094 517.972656 587.984375 499.863281 598.710938 481.089844 C 600.925781 477.558594 605.570312 470.875 612.644531 461.046875 L 620.277344 450.613281 L 604.851562 450.613281 C 585.609375 450.613281 575.488281 450.945312 574.496094 451.609375 C 573.832031 451.9375 573.222656 453.265625 572.671875 455.582031 C 572.117188 457.902344 571.5625 460.277344 571.011719 462.707031 L 570.515625 466.183594 L 570.515625 466.679688 L 563.878906 466.679688 Z M 563.878906 466.183594 " fill-opacity="1" fill-rule="nonzero"/></g><path fill="#000000" d="M 538.167969 391.976562 L 654.28125 391.976562 L 654.28125 382.039062 L 538.167969 382.039062 Z M 538.167969 391.976562 " fill-opacity="1" fill-rule="nonzero"/></svg>