<?xml version="1.0" encoding="iso-8859-1"?>
<!-- Uploaded to: SVG Repo, www.svgrepo.com, Generator: SVG Repo Mixer Tools -->
<svg fill="#000000" height="800px" width="800px" version="1.1" id="Layer_1" xmlns="http://www.w3.org/2000/svg" xmlns:xlink="http://www.w3.org/1999/xlink" 
	 viewBox="0 0 512 512" xml:space="preserve">
<g>
	<g>
		<g>
			<path d="M256,213.333c35.355,0,64-28.645,64-64s-28.645-64-64-64s-64,28.645-64,64S220.645,213.333,256,213.333z M256,128
				c11.791,0,21.333,9.542,21.333,21.333s-9.542,21.333-21.333,21.333s-21.333-9.542-21.333-21.333S244.209,128,256,128z"/>
			<path d="M256,298.667c-35.355,0-64,28.645-64,64s28.645,64,64,64s64-28.645,64-64S291.355,298.667,256,298.667z M256,384
				c-11.791,0-21.333-9.542-21.333-21.333s9.542-21.333,21.333-21.333s21.333,9.542,21.333,21.333S267.791,384,256,384z"/>
			<path d="M106.667,277.333h298.667c11.782,0,21.333-9.551,21.333-21.333s-9.551-21.333-21.333-21.333H106.667
				c-11.782,0-21.333,9.551-21.333,21.333S94.885,277.333,106.667,277.333z"/>
			<path d="M490.667,0H21.333C9.551,0,0,9.551,0,21.333v469.333C0,502.449,9.551,512,21.333,512h469.333
				c11.782,0,21.333-9.551,21.333-21.333V21.333C512,9.551,502.449,0,490.667,0z M469.333,469.333H42.667V42.667h426.667V469.333z"
				/>
		</g>
	</g>
</g>
</svg>