<svg xmlns="http://www.w3.org/2000/svg" xmlns:xlink="http://www.w3.org/1999/xlink" width="1000" zoomAndPan="magnify" viewBox="0 0 750 749.999995" height="1000" preserveAspectRatio="xMidYMid meet" version="1.0"><defs><g/></defs><rect x="-75" width="900" fill="#ffffff" y="-74.999999" height="899.999994" fill-opacity="1"/><rect x="-75" width="900" fill="#ffffff" y="-74.999999" height="899.999994" fill-opacity="1"/><g fill="#000000" fill-opacity="1"><g transform="translate(34.172754, 463.467973)"><g><path d="M 120.609375 -130.75 C 120.609375 -120.226562 117.421875 -111.28125 111.046875 -103.90625 C 104.671875 -96.53125 95.722656 -91.460938 84.203125 -88.703125 L 84.203125 -88.015625 C 97.796875 -86.316406 108.085938 -82.1875 115.078125 -75.625 C 122.066406 -69.0625 125.5625 -60.210938 125.5625 -49.078125 C 125.5625 -32.867188 119.6875 -20.253906 107.9375 -11.234375 C 96.1875 -2.210938 79.40625 2.296875 57.59375 2.296875 C 39.320312 2.296875 23.117188 -0.734375 8.984375 -6.796875 L 8.984375 -37.09375 C 15.515625 -33.789062 22.695312 -31.101562 30.53125 -29.03125 C 38.363281 -26.957031 46.117188 -25.921875 53.796875 -25.921875 C 65.546875 -25.921875 74.222656 -27.914062 79.828125 -31.90625 C 85.429688 -35.90625 88.234375 -42.316406 88.234375 -51.140625 C 88.234375 -59.054688 85.007812 -64.664062 78.5625 -67.96875 C 72.113281 -71.269531 61.820312 -72.921875 47.6875 -72.921875 L 34.90625 -72.921875 L 34.90625 -100.21875 L 47.921875 -100.21875 C 60.972656 -100.21875 70.515625 -101.925781 76.546875 -105.34375 C 82.578125 -108.757812 85.59375 -114.617188 85.59375 -122.921875 C 85.59375 -135.660156 77.601562 -142.03125 61.625 -142.03125 C 56.09375 -142.03125 50.46875 -141.109375 44.75 -139.265625 C 39.03125 -137.421875 32.675781 -134.238281 25.6875 -129.71875 L 9.21875 -154.25 C 24.570312 -165.3125 42.890625 -170.84375 64.171875 -170.84375 C 81.597656 -170.84375 95.359375 -167.304688 105.453125 -160.234375 C 115.554688 -153.171875 120.609375 -143.34375 120.609375 -130.75 Z M 120.609375 -130.75 "/></g></g><g transform="translate(168.833016, 463.467973)"><g><path d="M 137.3125 0 L 102.171875 0 L 102.171875 -75.21875 C 102.171875 -84.507812 100.519531 -91.476562 97.21875 -96.125 C 93.914062 -100.769531 88.65625 -103.09375 81.4375 -103.09375 C 71.613281 -103.09375 64.507812 -99.8125 60.125 -93.25 C 55.75 -86.6875 53.5625 -75.800781 53.5625 -60.59375 L 53.5625 0 L 18.4375 0 L 18.4375 -128.796875 L 45.265625 -128.796875 L 50 -112.3125 L 51.953125 -112.3125 C 55.867188 -118.53125 61.265625 -123.234375 68.140625 -126.421875 C 75.015625 -129.609375 82.828125 -131.203125 91.578125 -131.203125 C 106.554688 -131.203125 117.921875 -127.148438 125.671875 -119.046875 C 133.429688 -110.953125 137.3125 -99.265625 137.3125 -83.984375 Z M 137.3125 0 "/></g></g><g transform="translate(323.882385, 463.467973)"><g/></g><g transform="translate(385.164901, 463.467973)"><g><path d="M 54.71875 -70.5 L 10.140625 -70.5 L 10.140625 -95.734375 L 54.71875 -95.734375 L 54.71875 -140.65625 L 79.953125 -140.65625 L 79.953125 -95.734375 L 124.53125 -95.734375 L 124.53125 -70.5 L 79.953125 -70.5 L 79.953125 -26.15625 L 54.71875 -26.15625 Z M 54.71875 -70.5 "/></g></g><g transform="translate(519.825163, 463.467973)"><g/></g><g transform="translate(581.107678, 463.467973)"><g><path d="M 97.453125 0 L 61.859375 0 L 61.859375 -97.453125 L 62.203125 -113.46875 L 62.78125 -130.984375 C 56.863281 -125.066406 52.753906 -121.1875 50.453125 -119.34375 L 31.109375 -103.796875 L 13.9375 -125.21875 L 68.203125 -168.421875 L 97.453125 -168.421875 Z M 97.453125 0 "/></g></g></g></svg>