<svg xmlns="http://www.w3.org/2000/svg" xmlns:xlink="http://www.w3.org/1999/xlink" width="1000" zoomAndPan="magnify" viewBox="0 0 750 749.999995" height="1000" preserveAspectRatio="xMidYMid meet" version="1.0"><defs><clipPath id="775e1e1dfd"><path d="M 269 225 L 375 225 L 375 373 L 269 373 Z M 269 225 " clip-rule="nonzero"/></clipPath><clipPath id="9b455f40ba"><path d="M 378 270 L 525 270 L 525 375 L 378 375 Z M 378 270 " clip-rule="nonzero"/></clipPath><clipPath id="1ed0cb835f"><path d="M 115 116 L 632 116 L 632 633 L 115 633 Z M 115 116 " clip-rule="nonzero"/></clipPath><clipPath id="bc973bea27"><path d="M 3.769531 375 L 375 3.769531 L 746.230469 375 L 375 746.230469 Z M 3.769531 375 " clip-rule="nonzero"/></clipPath><clipPath id="d29421a007"><path d="M 3.769531 375 L 375 3.769531 L 746.230469 375 L 375 746.230469 Z M 3.769531 375 " clip-rule="nonzero"/></clipPath><clipPath id="d5f15f2050"><path d="M 191 116 L 560 116 L 560 378 L 191 378 Z M 191 116 " clip-rule="nonzero"/></clipPath><clipPath id="6edfef1efc"><path d="M 3.769531 375 L 375 3.769531 L 746.230469 375 L 375 746.230469 Z M 3.769531 375 " clip-rule="nonzero"/></clipPath><clipPath id="44ca684091"><path d="M 3.769531 375 L 375 3.769531 L 746.230469 375 L 375 746.230469 Z M 3.769531 375 " clip-rule="nonzero"/></clipPath><clipPath id="07f3e84d6c"><path d="M 112 112 L 638 112 L 638 638 L 112 638 Z M 112 112 " clip-rule="nonzero"/></clipPath><clipPath id="9a0af0b188"><path d="M 3.769531 375 L 375 3.769531 L 746.230469 375 L 375 746.230469 Z M 3.769531 375 " clip-rule="nonzero"/></clipPath><clipPath id="228fe8c97c"><path d="M 3.769531 375 L 375 3.769531 L 746.230469 375 L 375 746.230469 Z M 3.769531 375 " clip-rule="nonzero"/></clipPath></defs><rect x="-75" width="900" fill="#ffffff" y="-74.999999" height="899.999994" fill-opacity="1"/><rect x="-75" width="900" fill="#ffffff" y="-74.999999" height="899.999994" fill-opacity="1"/><path fill="#ffffff" d="M 372.558594 376.925781 L 225.074219 376.925781 C 225.589844 417.441406 242.136719 454.085938 268.699219 480.785156 Z M 372.558594 376.925781 " fill-opacity="1" fill-rule="evenodd"/><g clip-path="url(#775e1e1dfd)"><path fill="#ffffff" d="M 374.386719 224.992188 C 333.683594 225.164062 296.824219 241.550781 269.898438 268.019531 L 374.386719 372.507812 Z M 374.386719 224.992188 " fill-opacity="1" fill-rule="evenodd"/></g><path fill="#ffffff" d="M 376.972656 225.023438 L 376.972656 372.507812 L 480.835938 268.648438 C 454.136719 242.085938 417.488281 225.539062 376.972656 225.023438 " fill-opacity="1" fill-rule="evenodd"/><path fill="#ffffff" d="M 372.558594 374.335938 L 268.066406 269.847656 C 241.597656 296.777344 225.214844 333.636719 225.039062 374.335938 Z M 372.558594 374.335938 " fill-opacity="1" fill-rule="evenodd"/><path fill="#cf4a49" d="M 374.386719 378.757812 L 270.558594 482.585938 C 297.425781 508.679688 334.011719 524.808594 374.386719 524.980469 Z M 374.386719 378.757812 " fill-opacity="1" fill-rule="evenodd"/><g clip-path="url(#9b455f40ba)"><path fill="#ffffff" d="M 378.804688 374.335938 L 525.027344 374.335938 C 524.859375 333.964844 508.726562 297.378906 482.632812 270.507812 Z M 378.804688 374.335938 " fill-opacity="1" fill-rule="evenodd"/></g><path fill="#cf4a49" d="M 376.972656 378.757812 L 376.972656 524.949219 C 417.160156 524.4375 453.527344 508.140625 480.171875 481.953125 Z M 376.972656 378.757812 " fill-opacity="1" fill-rule="evenodd"/><path fill="#ffffff" d="M 378.804688 376.925781 L 482 480.125 C 508.1875 453.484375 524.484375 417.113281 524.996094 376.925781 Z M 378.804688 376.925781 " fill-opacity="1" fill-rule="evenodd"/><g clip-path="url(#1ed0cb835f)"><g clip-path="url(#bc973bea27)"><g clip-path="url(#d29421a007)"><path fill="#ffffff" d="M 555.8125 192.085938 C 558.800781 195.074219 561.714844 198.132812 564.550781 201.261719 C 567.386719 204.390625 570.148438 207.589844 572.828125 210.855469 C 575.507812 214.121094 578.105469 217.453125 580.621094 220.84375 C 583.140625 224.238281 585.570312 227.691406 587.917969 231.203125 C 590.265625 234.71875 592.523438 238.285156 594.695312 241.910156 C 596.867188 245.53125 598.949219 249.207031 600.941406 252.933594 C 602.933594 256.660156 604.832031 260.433594 606.640625 264.25 C 608.445312 268.070312 610.15625 271.933594 611.773438 275.835938 C 613.390625 279.738281 614.910156 283.679688 616.332031 287.65625 C 617.757812 291.632812 619.082031 295.644531 620.308594 299.6875 C 621.535156 303.730469 622.660156 307.800781 623.6875 311.898438 C 624.714844 315.996094 625.640625 320.117188 626.464844 324.261719 C 627.289062 328.40625 628.011719 332.566406 628.628906 336.746094 C 629.25 340.925781 629.765625 345.117188 630.179688 349.320312 C 630.59375 353.527344 630.90625 357.738281 631.113281 361.957031 C 631.320312 366.179688 631.425781 370.398438 631.425781 374.625 C 631.425781 378.851562 631.320312 383.070312 631.113281 387.292969 C 630.90625 391.511719 630.59375 395.722656 630.179688 399.929688 C 629.765625 404.132812 629.25 408.324219 628.628906 412.503906 C 628.011719 416.683594 627.289062 420.84375 626.464844 424.988281 C 625.640625 429.132812 624.714844 433.25 623.6875 437.351562 C 622.660156 441.449219 621.535156 445.519531 620.308594 449.5625 C 619.082031 453.605469 617.757812 457.613281 616.332031 461.59375 C 614.910156 465.570312 613.390625 469.511719 611.773438 473.414062 C 610.15625 477.316406 608.445312 481.179688 606.640625 485 C 604.832031 488.816406 602.933594 492.589844 600.941406 496.316406 C 598.949219 500.042969 596.867188 503.714844 594.695312 507.339844 C 592.523438 510.964844 590.265625 514.53125 587.917969 518.046875 C 585.570312 521.558594 583.140625 525.011719 580.621094 528.40625 C 578.105469 531.796875 575.507812 535.128906 572.828125 538.394531 C 570.148438 541.660156 567.386719 544.855469 564.550781 547.988281 C 561.714844 551.117188 558.800781 554.175781 555.8125 557.164062 C 552.828125 560.152344 549.765625 563.0625 546.636719 565.902344 C 543.507812 568.738281 540.308594 571.496094 537.042969 574.175781 C 533.777344 576.859375 530.449219 579.457031 527.054688 581.972656 C 523.660156 584.488281 520.207031 586.921875 516.695312 589.269531 C 513.183594 591.617188 509.613281 593.875 505.988281 596.046875 C 502.367188 598.21875 498.691406 600.300781 494.964844 602.292969 C 491.238281 604.285156 487.464844 606.183594 483.648438 607.988281 C 479.828125 609.796875 475.96875 611.507812 472.0625 613.125 C 468.160156 614.742188 464.21875 616.261719 460.242188 617.683594 C 456.265625 619.109375 452.253906 620.433594 448.210938 621.660156 C 444.167969 622.886719 440.097656 624.011719 436 625.039062 C 431.902344 626.066406 427.78125 626.988281 423.636719 627.8125 C 419.492188 628.636719 415.332031 629.359375 411.152344 629.980469 C 406.972656 630.601562 402.78125 631.117188 398.578125 631.53125 C 394.371094 631.945312 390.160156 632.257812 385.941406 632.464844 C 381.722656 632.671875 377.5 632.773438 373.273438 632.773438 C 369.050781 632.773438 364.828125 632.671875 360.609375 632.464844 C 356.386719 632.257812 352.175781 631.945312 347.972656 631.53125 C 343.765625 631.117188 339.574219 630.601562 335.394531 629.980469 C 331.21875 629.359375 327.054688 628.636719 322.910156 627.8125 C 318.769531 626.988281 314.648438 626.066406 310.550781 625.039062 C 306.449219 624.011719 302.378906 622.886719 298.335938 621.660156 C 294.292969 620.433594 290.285156 619.109375 286.304688 617.683594 C 282.328125 616.261719 278.386719 614.742188 274.484375 613.125 C 270.582031 611.507812 266.71875 609.796875 262.902344 607.988281 C 259.082031 606.183594 255.308594 604.285156 251.582031 602.292969 C 247.859375 600.300781 244.183594 598.21875 240.558594 596.046875 C 236.933594 593.875 233.367188 591.617188 229.855469 589.269531 C 226.339844 586.921875 222.886719 584.488281 219.496094 581.972656 C 216.101562 579.457031 212.773438 576.859375 209.507812 574.175781 C 206.238281 571.496094 203.042969 568.738281 199.910156 565.902344 C 196.78125 563.0625 193.722656 560.152344 190.734375 557.164062 C 187.746094 554.175781 184.835938 551.117188 181.996094 547.988281 C 179.160156 544.855469 176.402344 541.660156 173.722656 538.394531 C 171.042969 535.128906 168.441406 531.796875 165.925781 528.40625 C 163.410156 525.011719 160.976562 521.558594 158.628906 518.046875 C 156.285156 514.53125 154.023438 510.964844 151.851562 507.339844 C 149.679688 503.714844 147.597656 500.042969 145.605469 496.316406 C 143.613281 492.589844 141.714844 488.816406 139.910156 485 C 138.101562 481.179688 136.390625 477.316406 134.773438 473.414062 C 133.160156 469.511719 131.636719 465.570312 130.214844 461.59375 C 128.792969 457.613281 127.46875 453.605469 126.242188 449.5625 C 125.015625 445.519531 123.886719 441.449219 122.859375 437.351562 C 121.835938 433.25 120.910156 429.132812 120.085938 424.988281 C 119.261719 420.84375 118.539062 416.683594 117.917969 412.503906 C 117.296875 408.324219 116.78125 404.132812 116.367188 399.929688 C 115.953125 395.722656 115.644531 391.511719 115.4375 387.292969 C 115.226562 383.070312 115.125 378.851562 115.125 374.625 C 115.125 370.398438 115.226562 366.179688 115.4375 361.957031 C 115.644531 357.738281 115.953125 353.527344 116.367188 349.320312 C 116.78125 345.117188 117.296875 340.925781 117.917969 336.746094 C 118.539062 332.566406 119.261719 328.40625 120.085938 324.261719 C 120.910156 320.117188 121.835938 315.996094 122.859375 311.898438 C 123.886719 307.800781 125.015625 303.730469 126.242188 299.6875 C 127.46875 295.644531 128.792969 291.632812 130.214844 287.65625 C 131.636719 283.679688 133.160156 279.738281 134.773438 275.835938 C 136.390625 271.933594 138.101562 268.070312 139.910156 264.25 C 141.714844 260.433594 143.613281 256.660156 145.605469 252.933594 C 147.597656 249.207031 149.679688 245.53125 151.851562 241.910156 C 154.023438 238.285156 156.285156 234.71875 158.628906 231.203125 C 160.976562 227.691406 163.410156 224.238281 165.925781 220.84375 C 168.441406 217.453125 171.042969 214.121094 173.722656 210.855469 C 176.402344 207.589844 179.160156 204.390625 181.996094 201.261719 C 184.835938 198.132812 187.746094 195.074219 190.734375 192.085938 C 193.722656 189.097656 196.78125 186.1875 199.910156 183.347656 C 203.042969 180.511719 206.238281 177.753906 209.507812 175.074219 C 212.773438 172.390625 216.101562 169.792969 219.496094 167.277344 C 222.886719 164.761719 226.339844 162.328125 229.855469 159.980469 C 233.367188 157.632812 236.933594 155.375 240.558594 153.203125 C 244.183594 151.03125 247.855469 148.949219 251.582031 146.957031 C 255.308594 144.964844 259.082031 143.066406 262.902344 141.261719 C 266.71875 139.453125 270.582031 137.742188 274.484375 136.125 C 278.386719 134.507812 282.328125 132.988281 286.304688 131.566406 C 290.285156 130.140625 294.292969 128.816406 298.335938 127.589844 C 302.378906 126.363281 306.449219 125.238281 310.550781 124.210938 C 314.648438 123.183594 318.769531 122.257812 322.910156 121.433594 C 327.054688 120.609375 331.21875 119.890625 335.394531 119.269531 C 339.574219 118.648438 343.765625 118.132812 347.972656 117.71875 C 352.175781 117.304688 356.386719 116.992188 360.609375 116.785156 C 364.828125 116.578125 369.050781 116.476562 373.273438 116.476562 C 377.5 116.476562 381.722656 116.578125 385.941406 116.785156 C 390.160156 116.992188 394.371094 117.304688 398.578125 117.71875 C 402.78125 118.132812 406.972656 118.648438 411.152344 119.269531 C 415.332031 119.890625 419.492188 120.609375 423.636719 121.433594 C 427.78125 122.257812 431.902344 123.183594 436 124.210938 C 440.097656 125.238281 444.167969 126.363281 448.210938 127.589844 C 452.253906 128.816406 456.265625 130.140625 460.242188 131.566406 C 464.21875 132.988281 468.160156 134.507812 472.0625 136.125 C 475.96875 137.742188 479.828125 139.453125 483.648438 141.261719 C 487.464844 143.066406 491.238281 144.964844 494.964844 146.957031 C 498.691406 148.949219 502.367188 151.03125 505.988281 153.203125 C 509.613281 155.375 513.183594 157.632812 516.695312 159.980469 C 520.207031 162.328125 523.660156 164.761719 527.054688 167.277344 C 530.449219 169.792969 533.777344 172.390625 537.042969 175.074219 C 540.308594 177.753906 543.507812 180.511719 546.636719 183.347656 C 549.765625 186.1875 552.828125 189.097656 555.8125 192.085938 Z M 555.8125 192.085938 " fill-opacity="1" fill-rule="nonzero"/></g></g></g><g clip-path="url(#d5f15f2050)"><g clip-path="url(#6edfef1efc)"><g clip-path="url(#44ca684091)"><path fill="#6d5764" d="M 559.789062 192.761719 L 375.523438 377.027344 L 191.335938 192.835938 C 240.175781 143.992188 306.5 116.535156 375.523438 116.535156 C 444.625 116.457031 510.949219 143.917969 559.789062 192.761719 Z M 559.789062 192.761719 " fill-opacity="1" fill-rule="nonzero"/></g></g></g><g clip-path="url(#07f3e84d6c)"><g clip-path="url(#9a0af0b188)"><g clip-path="url(#228fe8c97c)"><path fill="#00010d" d="M 557.539062 186.457031 C 533.757812 163.425781 506.144531 145.269531 475.386719 132.515625 C 443.347656 119.234375 409.585938 112.480469 374.925781 112.480469 C 340.261719 112.480469 306.5 119.234375 274.464844 132.515625 C 243.777344 145.195312 216.167969 163.351562 192.386719 186.382812 L 189.382812 189.382812 L 186.382812 192.386719 C 163.351562 216.167969 145.195312 243.777344 132.4375 274.539062 C 119.160156 306.574219 112.40625 340.335938 112.40625 375 C 112.40625 409.664062 119.160156 443.425781 132.4375 475.460938 C 145.195312 506.222656 163.273438 533.757812 186.382812 557.613281 L 189.382812 560.617188 L 192.386719 563.617188 C 216.167969 586.648438 243.777344 604.804688 274.539062 617.5625 C 306.574219 630.839844 340.335938 637.59375 375 637.59375 C 409.664062 637.59375 443.425781 630.839844 475.460938 617.5625 C 506.144531 604.882812 533.757812 586.726562 557.613281 563.617188 L 560.617188 560.617188 L 563.617188 557.613281 C 586.648438 533.832031 604.804688 506.222656 617.5625 475.460938 C 630.839844 443.425781 637.59375 409.664062 637.59375 375 C 637.59375 340.335938 630.839844 306.574219 617.5625 274.539062 C 604.882812 243.855469 586.726562 216.242188 563.617188 192.386719 L 560.617188 189.382812 Z M 277.765625 140.316406 C 308.75 127.488281 341.464844 121.035156 375 120.960938 C 408.535156 120.886719 441.25 127.488281 472.234375 140.316406 C 501.945312 152.621094 528.578125 170.101562 551.613281 192.386719 L 375 368.996094 L 198.386719 192.386719 C 221.421875 170.101562 248.054688 152.621094 277.765625 140.316406 Z M 140.316406 472.234375 C 127.488281 441.25 121.035156 408.535156 120.960938 375 C 120.886719 341.464844 127.488281 308.75 140.316406 277.765625 C 152.621094 248.054688 170.101562 221.421875 192.386719 198.386719 L 368.996094 375 L 192.386719 551.613281 C 170.101562 528.578125 152.546875 501.871094 140.316406 472.234375 Z M 472.160156 609.609375 C 441.171875 622.4375 408.460938 628.890625 374.925781 628.964844 C 341.386719 629.039062 308.75 622.511719 277.765625 609.683594 C 248.054688 597.378906 221.421875 579.898438 198.386719 557.613281 L 375 381.003906 L 551.613281 557.613281 C 528.503906 579.824219 501.792969 597.378906 472.160156 609.609375 Z M 609.609375 277.839844 C 622.4375 308.828125 628.890625 341.539062 628.964844 375.074219 C 629.039062 408.613281 622.4375 441.324219 609.609375 472.308594 C 597.304688 502.019531 579.824219 528.652344 557.539062 551.6875 L 380.925781 375.074219 L 557.539062 198.460938 C 579.824219 221.496094 597.304688 248.128906 609.609375 277.839844 Z M 609.609375 277.839844 " fill-opacity="1" fill-rule="nonzero"/></g></g></g></svg>