<svg xmlns="http://www.w3.org/2000/svg" xmlns:xlink="http://www.w3.org/1999/xlink" width="1000" zoomAndPan="magnify" viewBox="0 0 750 749.999995" height="1000" preserveAspectRatio="xMidYMid meet" version="1.0"><defs><clipPath id="ac943e9893"><path d="M 112.5 112.5 L 637.5 112.5 L 637.5 637.5 L 112.5 637.5 Z M 112.5 112.5 " clip-rule="nonzero"/></clipPath><clipPath id="777afb9389"><path d="M 196 120 L 374 120 L 374 371 L 196 371 Z M 196 120 " clip-rule="nonzero"/></clipPath><clipPath id="8b9a86a9c5"><path d="M 381 197 L 630 197 L 630 374 L 381 374 Z M 381 197 " clip-rule="nonzero"/></clipPath></defs><rect x="-75" width="900" fill="#ffffff" y="-74.999999" height="899.999994" fill-opacity="1"/><rect x="-75" width="900" fill="#ffffff" y="-74.999999" height="899.999994" fill-opacity="1"/><path fill="#ffffff" d="M 632.300781 373.566406 C 632.300781 377.792969 632.195312 382.015625 631.988281 386.238281 C 631.78125 390.457031 631.472656 394.671875 631.054688 398.875 C 630.640625 403.082031 630.125 407.273438 629.503906 411.453125 C 628.886719 415.632812 628.164062 419.796875 627.339844 423.941406 C 626.515625 428.085938 625.589844 432.207031 624.5625 436.304688 C 623.535156 440.402344 622.410156 444.476562 621.183594 448.519531 C 619.953125 452.5625 618.628906 456.574219 617.207031 460.554688 C 615.78125 464.53125 614.261719 468.472656 612.644531 472.375 C 611.027344 476.28125 609.316406 480.144531 607.507812 483.960938 C 605.703125 487.78125 603.804688 491.554688 601.8125 495.28125 C 599.820312 499.007812 597.738281 502.683594 595.566406 506.308594 C 593.394531 509.933594 591.132812 513.503906 588.785156 517.015625 C 586.4375 520.53125 584.003906 523.984375 581.488281 527.378906 C 578.96875 530.773438 576.371094 534.101562 573.691406 537.367188 C 571.011719 540.636719 568.25 543.835938 565.414062 546.964844 C 562.574219 550.097656 559.664062 553.15625 556.675781 556.144531 C 553.6875 559.132812 550.625 562.042969 547.496094 564.882812 C 544.363281 567.71875 541.164062 570.480469 537.898438 573.160156 C 534.632812 575.839844 531.300781 578.441406 527.910156 580.957031 C 524.515625 583.472656 521.0625 585.90625 517.546875 588.253906 C 514.035156 590.601562 510.464844 592.863281 506.839844 595.035156 C 503.214844 597.207031 499.539062 599.289062 495.8125 601.28125 C 492.085938 603.273438 488.3125 605.171875 484.492188 606.980469 C 480.671875 608.785156 476.8125 610.496094 472.90625 612.113281 C 469.003906 613.730469 465.0625 615.253906 461.082031 616.675781 C 457.105469 618.097656 453.09375 619.425781 449.050781 620.652344 C 445.007812 621.878906 440.933594 623.003906 436.835938 624.03125 C 432.738281 625.058594 428.613281 625.984375 424.46875 626.808594 C 420.324219 627.632812 416.164062 628.355469 411.984375 628.972656 C 407.804688 629.59375 403.613281 630.113281 399.40625 630.527344 C 395.199219 630.941406 390.988281 631.25 386.765625 631.457031 C 382.546875 631.664062 378.324219 631.769531 374.097656 631.769531 C 369.871094 631.769531 365.648438 631.664062 361.429688 631.457031 C 357.207031 631.25 352.996094 630.941406 348.789062 630.527344 C 344.585938 630.113281 340.390625 629.59375 336.210938 628.972656 C 332.03125 628.355469 327.871094 627.632812 323.726562 626.808594 C 319.582031 625.984375 315.460938 625.058594 311.359375 624.03125 C 307.261719 623.003906 303.191406 621.878906 299.144531 620.652344 C 295.101562 619.425781 291.089844 618.097656 287.113281 616.675781 C 283.132812 615.253906 279.191406 613.730469 275.289062 612.113281 C 271.382812 610.496094 267.523438 608.785156 263.703125 606.980469 C 259.882812 605.171875 256.109375 603.273438 252.382812 601.28125 C 248.65625 599.289062 244.980469 597.207031 241.355469 595.035156 C 237.730469 592.863281 234.164062 590.601562 230.648438 588.253906 C 227.136719 585.90625 223.679688 583.472656 220.289062 580.957031 C 216.894531 578.441406 213.5625 575.839844 210.296875 573.160156 C 207.03125 570.480469 203.832031 567.71875 200.699219 564.882812 C 197.570312 562.042969 194.507812 559.132812 191.523438 556.144531 C 188.535156 553.15625 185.621094 550.097656 182.78125 546.964844 C 179.945312 543.835938 177.1875 540.636719 174.503906 537.367188 C 171.824219 534.101562 169.226562 530.773438 166.707031 527.378906 C 164.191406 523.984375 161.757812 520.53125 159.410156 517.015625 C 157.0625 513.503906 154.804688 509.933594 152.628906 506.308594 C 150.457031 502.683594 148.375 499.007812 146.382812 495.28125 C 144.390625 491.554688 142.492188 487.78125 140.6875 483.960938 C 138.878906 480.144531 137.167969 476.28125 135.550781 472.375 C 133.933594 468.472656 132.414062 464.53125 130.988281 460.554688 C 129.566406 456.574219 128.242188 452.5625 127.015625 448.519531 C 125.789062 444.476562 124.660156 440.402344 123.632812 436.304688 C 122.605469 432.207031 121.683594 428.085938 120.855469 423.941406 C 120.03125 419.796875 119.3125 415.632812 118.691406 411.453125 C 118.070312 407.273438 117.554688 403.082031 117.140625 398.875 C 116.726562 394.671875 116.414062 390.457031 116.207031 386.238281 C 116 382.015625 115.894531 377.792969 115.894531 373.566406 C 115.894531 369.339844 116 365.117188 116.207031 360.898438 C 116.414062 356.675781 116.726562 352.464844 117.140625 348.257812 C 117.554688 344.054688 118.070312 339.859375 118.691406 335.679688 C 119.3125 331.5 120.03125 327.339844 120.855469 323.195312 C 121.683594 319.050781 122.605469 314.929688 123.632812 310.828125 C 124.660156 306.730469 125.789062 302.660156 127.015625 298.617188 C 128.242188 294.570312 129.566406 290.558594 130.988281 286.582031 C 132.414062 282.601562 133.933594 278.660156 135.550781 274.757812 C 137.167969 270.855469 138.878906 266.992188 140.6875 263.171875 C 142.492188 259.351562 144.390625 255.578125 146.382812 251.851562 C 148.375 248.125 150.457031 244.449219 152.628906 240.824219 C 154.804688 237.199219 157.0625 233.632812 159.410156 230.117188 C 161.757812 226.605469 164.191406 223.152344 166.707031 219.757812 C 169.226562 216.363281 171.824219 213.03125 174.503906 209.765625 C 177.1875 206.5 179.945312 203.300781 182.78125 200.167969 C 185.621094 197.039062 188.535156 193.980469 191.523438 190.992188 C 194.507812 188.003906 197.570312 185.089844 200.699219 182.253906 C 203.832031 179.414062 207.03125 176.65625 210.296875 173.972656 C 213.5625 171.292969 216.894531 168.695312 220.289062 166.175781 C 223.679688 163.660156 227.136719 161.226562 230.648438 158.878906 C 234.164062 156.53125 237.730469 154.273438 241.355469 152.101562 C 244.980469 149.925781 248.65625 147.84375 252.382812 145.855469 C 256.109375 143.863281 259.882812 141.960938 263.703125 140.15625 C 267.523438 138.347656 271.382812 136.636719 275.289062 135.019531 C 279.191406 133.402344 283.132812 131.882812 287.113281 130.457031 C 291.089844 129.035156 295.101562 127.710938 299.144531 126.484375 C 303.191406 125.257812 307.261719 124.128906 311.359375 123.101562 C 315.457031 122.078125 319.582031 121.152344 323.726562 120.328125 C 327.871094 119.503906 332.03125 118.78125 336.210938 118.160156 C 340.390625 117.539062 344.585938 117.023438 348.789062 116.609375 C 352.996094 116.195312 357.207031 115.882812 361.429688 115.675781 C 365.648438 115.46875 369.871094 115.367188 374.097656 115.367188 C 378.324219 115.367188 382.546875 115.46875 386.765625 115.675781 C 390.988281 115.882812 395.199219 116.195312 399.40625 116.609375 C 403.613281 117.023438 407.804688 117.539062 411.984375 118.160156 C 416.164062 118.78125 420.324219 119.503906 424.46875 120.328125 C 428.613281 121.152344 432.738281 122.078125 436.835938 123.101562 C 440.933594 124.128906 445.007812 125.257812 449.050781 126.484375 C 453.09375 127.710938 457.105469 129.035156 461.082031 130.457031 C 465.0625 131.882812 469.003906 133.402344 472.90625 135.019531 C 476.8125 136.636719 480.671875 138.347656 484.492188 140.15625 C 488.3125 141.960938 492.085938 143.863281 495.8125 145.855469 C 499.539062 147.84375 503.214844 149.925781 506.839844 152.101562 C 510.464844 154.273438 514.035156 156.53125 517.546875 158.878906 C 521.0625 161.226562 524.515625 163.660156 527.910156 166.175781 C 531.300781 168.695312 534.632812 171.292969 537.898438 173.972656 C 541.164062 176.65625 544.363281 179.414062 547.496094 182.253906 C 550.625 185.089844 553.6875 188.003906 556.675781 190.992188 C 559.664062 193.980469 562.574219 197.039062 565.414062 200.167969 C 568.25 203.300781 571.011719 206.5 573.691406 209.765625 C 576.371094 213.03125 578.96875 216.363281 581.488281 219.757812 C 584.003906 223.152344 586.4375 226.605469 588.785156 230.117188 C 591.132812 233.632812 593.394531 237.199219 595.566406 240.824219 C 597.738281 244.449219 599.820312 248.125 601.8125 251.851562 C 603.804688 255.578125 605.703125 259.351562 607.507812 263.171875 C 609.316406 266.992188 611.027344 270.855469 612.644531 274.757812 C 614.261719 278.660156 615.78125 282.601562 617.207031 286.582031 C 618.628906 290.558594 619.953125 294.570312 621.183594 298.617188 C 622.410156 302.660156 623.535156 306.730469 624.5625 310.828125 C 625.589844 314.929688 626.515625 319.050781 627.339844 323.195312 C 628.164062 327.339844 628.886719 331.5 629.503906 335.679688 C 630.125 339.859375 630.640625 344.054688 631.054688 348.257812 C 631.472656 352.464844 631.78125 356.675781 631.988281 360.898438 C 632.195312 365.117188 632.300781 369.339844 632.300781 373.566406 Z M 632.300781 373.566406 " fill-opacity="1" fill-rule="nonzero"/><path fill="#fdcd4f" d="M 374.628906 117.0625 L 374.628906 377.601562 L 190.394531 193.367188 C 214.59375 169.171875 243.246094 149.960938 274.871094 136.910156 C 306.496094 123.855469 340.351562 117.0625 374.628906 117.0625 Z M 374.628906 117.0625 " fill-opacity="1" fill-rule="nonzero"/><g clip-path="url(#ac943e9893)"><path fill="#323232" d="M 637.5 370.808594 C 636.96875 337.589844 630.285156 305.328125 617.546875 274.554688 C 604.8125 243.882812 586.667969 216.289062 563.636719 192.410156 L 560.664062 189.441406 L 557.695312 186.46875 C 533.816406 163.332031 506.222656 145.1875 475.554688 132.453125 C 444.777344 119.714844 412.410156 113.03125 379.296875 112.5 L 370.808594 112.5 C 337.589844 113.03125 305.328125 119.714844 274.554688 132.453125 C 243.882812 145.1875 216.289062 163.332031 192.410156 186.363281 L 189.441406 189.335938 L 186.46875 192.304688 C 163.441406 216.183594 145.292969 243.777344 132.558594 274.445312 C 119.714844 305.222656 113.03125 337.589844 112.5 370.808594 L 112.5 379.296875 C 113.03125 412.515625 119.714844 444.777344 132.453125 475.554688 C 145.1875 506.222656 163.332031 533.816406 186.363281 557.695312 L 189.335938 560.664062 L 192.304688 563.636719 C 216.078125 586.667969 243.777344 604.8125 274.445312 617.546875 C 305.117188 630.285156 337.484375 636.96875 370.703125 637.5 L 379.191406 637.5 C 412.410156 636.96875 444.671875 630.285156 475.445312 617.546875 C 506.117188 604.8125 533.710938 586.667969 557.589844 563.636719 L 560.558594 560.664062 L 563.53125 557.695312 C 586.558594 533.921875 604.707031 506.222656 617.441406 475.554688 C 630.175781 444.882812 636.863281 412.515625 637.394531 379.296875 L 637.394531 375.054688 Z M 609.695312 277.84375 C 622.003906 307.558594 628.480469 338.757812 629.011719 370.808594 L 385.242188 370.808594 L 557.695312 198.460938 C 579.980469 221.492188 597.492188 248.128906 609.695312 277.84375 Z M 472.261719 140.304688 C 501.976562 152.617188 528.617188 170.125 551.644531 192.410156 L 379.296875 364.757812 L 379.296875 120.988281 C 411.347656 121.519531 442.546875 127.996094 472.261719 140.304688 Z M 277.84375 140.304688 C 307.558594 127.996094 338.757812 121.519531 370.808594 120.988281 L 370.808594 364.757812 L 198.460938 192.410156 C 221.492188 170.125 248.128906 152.617188 277.84375 140.304688 Z M 140.304688 277.84375 C 152.613281 248.128906 170.125 221.492188 192.410156 198.460938 L 364.757812 370.808594 L 120.988281 370.808594 C 121.519531 338.757812 127.996094 307.453125 140.304688 277.84375 Z M 140.304688 472.261719 C 127.996094 442.546875 121.519531 411.347656 120.988281 379.296875 L 364.757812 379.296875 L 192.410156 551.644531 C 170.125 528.617188 152.613281 501.976562 140.304688 472.261719 Z M 277.84375 609.695312 C 248.128906 597.386719 221.492188 579.875 198.460938 557.589844 L 370.808594 385.242188 L 370.808594 629.011719 C 338.757812 628.480469 307.453125 622.003906 277.84375 609.695312 Z M 472.261719 609.695312 C 442.546875 622.003906 411.347656 628.480469 379.296875 629.011719 L 379.296875 385.242188 L 551.644531 557.589844 C 528.617188 579.980469 501.976562 597.492188 472.261719 609.695312 Z M 609.695312 472.261719 C 597.386719 501.976562 579.875 528.617188 557.589844 551.644531 L 440.425781 434.375 L 385.242188 379.296875 L 629.011719 379.296875 C 628.480469 411.347656 622.003906 442.546875 609.695312 472.261719 Z M 609.695312 472.261719 " fill-opacity="1" fill-rule="nonzero"/></g><path fill="#ffffff" d="M 370.847656 378.273438 L 120.125 378.273438 C 121 447.148438 149.128906 509.449219 194.289062 554.835938 Z M 370.847656 378.273438 " fill-opacity="1" fill-rule="evenodd"/><g clip-path="url(#777afb9389)"><path fill="#ffffff" d="M 373.957031 119.984375 C 304.765625 120.277344 242.101562 148.132812 196.324219 193.128906 L 373.957031 370.765625 Z M 373.957031 119.984375 " fill-opacity="1" fill-rule="evenodd"/></g><path fill="#ffffff" d="M 378.355469 120.039062 L 378.355469 370.761719 L 554.917969 194.203125 C 509.53125 149.042969 447.234375 120.914062 378.355469 120.039062 " fill-opacity="1" fill-rule="evenodd"/><path fill="#ffffff" d="M 370.847656 373.875 L 193.214844 196.242188 C 148.214844 242.019531 120.363281 304.683594 120.070312 373.875 Z M 370.847656 373.875 " fill-opacity="1" fill-rule="evenodd"/><path fill="#6d5764" d="M 373.957031 381.386719 L 197.449219 557.894531 C 243.125 602.253906 305.324219 629.675781 373.957031 629.964844 Z M 373.957031 381.386719 " fill-opacity="1" fill-rule="evenodd"/><g clip-path="url(#8b9a86a9c5)"><path fill="#ffffff" d="M 381.46875 373.875 L 630.046875 373.875 C 629.757812 305.242188 602.332031 243.042969 557.976562 197.367188 Z M 381.46875 373.875 " fill-opacity="1" fill-rule="evenodd"/></g><path fill="#6d5764" d="M 378.355469 381.386719 L 378.355469 629.910156 C 446.675781 629.042969 508.5 601.339844 553.789062 556.820312 Z M 378.355469 381.386719 " fill-opacity="1" fill-rule="evenodd"/><path fill="#ffffff" d="M 381.46875 378.273438 L 556.902344 553.710938 C 601.417969 508.421875 629.125 446.59375 629.992188 378.273438 Z M 381.46875 378.273438 " fill-opacity="1" fill-rule="evenodd"/></svg>