<svg xmlns="http://www.w3.org/2000/svg" xmlns:xlink="http://www.w3.org/1999/xlink" width="475" zoomAndPan="magnify" viewBox="0 0 356.25 169.5" height="226" preserveAspectRatio="xMidYMid meet" version="1.0"><defs><g/><clipPath id="08db0b47a9"><path d="M 24.460938 9.191406 L 102.683594 9.191406 L 102.683594 100.210938 L 24.460938 100.210938 Z M 24.460938 9.191406 " clip-rule="nonzero"/></clipPath><clipPath id="c35547989a"><path d="M 63.574219 9.191406 L 102.683594 31.945312 L 102.683594 77.457031 L 63.574219 100.210938 L 24.460938 77.457031 L 24.460938 31.945312 Z M 63.574219 9.191406 " clip-rule="nonzero"/></clipPath><clipPath id="eea18e6461"><path d="M 102.683594 9.191406 L 180.90625 9.191406 L 180.90625 100.210938 L 102.683594 100.210938 Z M 102.683594 9.191406 " clip-rule="nonzero"/></clipPath><clipPath id="b2e8b344e4"><path d="M 141.796875 9.191406 L 180.90625 31.945312 L 180.90625 77.457031 L 141.796875 100.210938 L 102.683594 77.457031 L 102.683594 31.945312 Z M 141.796875 9.191406 " clip-rule="nonzero"/></clipPath><clipPath id="3d0605fb53"><path d="M 180.90625 9.191406 L 259.128906 9.191406 L 259.128906 100.210938 L 180.90625 100.210938 Z M 180.90625 9.191406 " clip-rule="nonzero"/></clipPath><clipPath id="81aeffb73e"><path d="M 220.015625 9.191406 L 259.128906 31.945312 L 259.128906 77.457031 L 220.015625 100.210938 L 180.90625 77.457031 L 180.90625 31.945312 Z M 220.015625 9.191406 " clip-rule="nonzero"/></clipPath><clipPath id="4b73e1645f"><path d="M 63.398438 77.324219 L 141.621094 77.324219 L 141.621094 168.34375 L 63.398438 168.34375 Z M 63.398438 77.324219 " clip-rule="nonzero"/></clipPath><clipPath id="b18d69c250"><path d="M 102.511719 77.324219 L 141.621094 100.078125 L 141.621094 145.589844 L 102.511719 168.34375 L 63.398438 145.589844 L 63.398438 100.078125 Z M 102.511719 77.324219 " clip-rule="nonzero"/></clipPath><clipPath id="f83b318305"><path d="M 141.621094 77.324219 L 219.84375 77.324219 L 219.84375 168.34375 L 141.621094 168.34375 Z M 141.621094 77.324219 " clip-rule="nonzero"/></clipPath><clipPath id="605802436b"><path d="M 180.730469 77.324219 L 219.84375 100.078125 L 219.84375 145.589844 L 180.730469 168.34375 L 141.621094 145.589844 L 141.621094 100.078125 Z M 180.730469 77.324219 " clip-rule="nonzero"/></clipPath><clipPath id="c583f34aa1"><path d="M 219.84375 77.324219 L 298.0625 77.324219 L 298.0625 168.34375 L 219.84375 168.34375 Z M 219.84375 77.324219 " clip-rule="nonzero"/></clipPath><clipPath id="4d5d9f3a9f"><path d="M 258.953125 77.324219 L 298.0625 100.078125 L 298.0625 145.589844 L 258.953125 168.34375 L 219.84375 145.589844 L 219.84375 100.078125 Z M 258.953125 77.324219 " clip-rule="nonzero"/></clipPath><clipPath id="61c20a67fa"><path d="M 253.367188 7.105469 L 331.589844 7.105469 L 331.589844 98.128906 L 253.367188 98.128906 Z M 253.367188 7.105469 " clip-rule="nonzero"/></clipPath><clipPath id="d00363893d"><path d="M 292.476562 7.105469 L 331.589844 29.859375 L 331.589844 75.371094 L 292.476562 98.128906 L 253.367188 75.371094 L 253.367188 29.859375 Z M 292.476562 7.105469 " clip-rule="nonzero"/></clipPath></defs><g clip-path="url(#08db0b47a9)"><g clip-path="url(#c35547989a)"><path fill="#fcee21" d="M 24.460938 9.191406 L 102.683594 9.191406 L 102.683594 100.210938 L 24.460938 100.210938 Z M 24.460938 9.191406 " fill-opacity="1" fill-rule="nonzero"/></g></g><g clip-path="url(#eea18e6461)"><g clip-path="url(#b2e8b344e4)"><path fill="#fcee21" d="M 102.683594 9.191406 L 180.90625 9.191406 L 180.90625 100.210938 L 102.683594 100.210938 Z M 102.683594 9.191406 " fill-opacity="1" fill-rule="nonzero"/></g></g><g clip-path="url(#3d0605fb53)"><g clip-path="url(#81aeffb73e)"><path fill="#fcee21" d="M 180.90625 9.191406 L 259.128906 9.191406 L 259.128906 100.210938 L 180.90625 100.210938 Z M 180.90625 9.191406 " fill-opacity="1" fill-rule="nonzero"/></g></g><g clip-path="url(#4b73e1645f)"><g clip-path="url(#b18d69c250)"><path fill="#f2a922" d="M 63.398438 77.324219 L 141.621094 77.324219 L 141.621094 168.34375 L 63.398438 168.34375 Z M 63.398438 77.324219 " fill-opacity="1" fill-rule="nonzero"/></g></g><g clip-path="url(#f83b318305)"><g clip-path="url(#605802436b)"><path fill="#f2a922" d="M 141.621094 77.324219 L 219.84375 77.324219 L 219.84375 168.34375 L 141.621094 168.34375 Z M 141.621094 77.324219 " fill-opacity="1" fill-rule="nonzero"/></g></g><g clip-path="url(#c583f34aa1)"><g clip-path="url(#4d5d9f3a9f)"><path fill="#f2a922" d="M 219.84375 77.324219 L 298.0625 77.324219 L 298.0625 168.34375 L 219.84375 168.34375 Z M 219.84375 77.324219 " fill-opacity="1" fill-rule="nonzero"/></g></g><g fill="#6a4018" fill-opacity="1"><g transform="translate(42.560467, 79.870411)"><g><path d="M 41.328125 -48.25 L 41.875 -0.125 L 29.125 -0.421875 L 28.15625 -27.859375 L 21.421875 -17.78125 L 15.109375 -27.484375 L 14.140625 -0.609375 L 1.21875 -0.125 L 1.875 -48.671875 L 14.6875 -48.484375 L 21.421875 -37.5625 L 27.921875 -48.421875 Z M 41.328125 -48.25 "/></g></g></g><g fill="#6a4018" fill-opacity="1"><g transform="translate(126.428852, 79.870411)"><g><path d="M 29.921875 -10.984375 L 30.59375 -0.125 L 1.21875 -0.125 L 1.21875 -48.671875 L 29.609375 -47.765625 L 29.25 -36.65625 L 13.65625 -36.84375 L 13.65625 -30.765625 L 23.734375 -30.15625 L 23.734375 -19.609375 L 13.59375 -20.203125 L 13.53125 -11.890625 Z M 29.921875 -10.984375 "/></g></g></g><g fill="#6a4018" fill-opacity="1"><g transform="translate(201.272544, 79.870411)"><g><path d="M 24.390625 -47.703125 L 37.984375 -48.3125 L 36.234375 -0.484375 L 25.375 -0.0625 L 14.203125 -23.734375 L 13.34375 -1.21875 L 1.21875 0 L 1.578125 -48.25 L 14.6875 -48.25 L 24.28125 -27.984375 Z M 24.390625 -47.703125 "/></g></g></g><g fill="#326fa8" fill-opacity="1"><g transform="translate(69.304641, 130.735628)"><g><path d="M 18.203125 -21.25 L 18.453125 -0.046875 L 12.828125 -0.1875 L 12.40625 -12.265625 L 9.4375 -7.828125 L 6.65625 -12.109375 L 6.234375 -0.265625 L 0.53125 -0.046875 L 0.828125 -21.4375 L 6.46875 -21.359375 L 9.4375 -16.546875 L 12.296875 -21.328125 Z M 18.203125 -21.25 "/></g></g></g><g fill="#326fa8" fill-opacity="1"><g transform="translate(88.283296, 130.735628)"><g><path d="M 15.6875 -18.953125 L 16.09375 -0.046875 L 10.53125 0.046875 L 10.375 -6.609375 L 6.125 -6.34375 L 5.6875 -0.078125 L 0.53125 0.03125 L 1.359375 -19.59375 L 2.40625 -20.859375 L 14.0625 -21.359375 Z M 10.34375 -10.671875 L 10.21875 -15.984375 L 6.6875 -15.6875 L 6.421875 -10.9375 Z M 10.34375 -10.671875 "/></g></g></g><g fill="#326fa8" fill-opacity="1"><g transform="translate(104.909666, 130.735628)"><g><path d="M 0.53125 -21.328125 L 15.5625 -21.328125 L 15.3125 -16.125 L 11.0625 -15.9375 L 10.484375 -0.453125 L 4.890625 0.078125 L 5.03125 -15.953125 L 0.5625 -16.171875 Z M 0.53125 -21.328125 "/></g></g></g><g fill="#326fa8" fill-opacity="1"><g transform="translate(121.001427, 130.735628)"><g><path d="M 13.1875 -4.84375 L 13.46875 -0.046875 L 0.53125 -0.046875 L 0.53125 -21.4375 L 13.046875 -21.046875 L 12.890625 -16.140625 L 6.015625 -16.234375 L 6.015625 -13.546875 L 10.453125 -13.28125 L 10.453125 -8.640625 L 5.984375 -8.90625 L 5.96875 -5.234375 Z M 13.1875 -4.84375 "/></g></g></g><g fill="#326fa8" fill-opacity="1"><g transform="translate(151.537762, 130.735635)"><g><path d="M 18.203125 -21.25 L 18.453125 -0.046875 L 12.828125 -0.1875 L 12.40625 -12.265625 L 9.4375 -7.828125 L 6.65625 -12.109375 L 6.234375 -0.265625 L 0.53125 -0.046875 L 0.828125 -21.4375 L 6.46875 -21.359375 L 9.4375 -16.546875 L 12.296875 -21.328125 Z M 18.203125 -21.25 "/></g></g></g><g fill="#326fa8" fill-opacity="1"><g transform="translate(170.516417, 130.735635)"><g><path d="M 12.71875 -25.875 L 9.171875 -22.4375 L 7.484375 -23.734375 L 10.265625 -27.984375 Z M 15.6875 -18.90625 L 16.09375 -0.15625 L 10.53125 -0.046875 L 10.375 -6.703125 L 6.125 -6.421875 L 5.6875 -0.15625 L 0.53125 -0.046875 L 1.359375 -19.703125 L 2.40625 -20.953125 L 14.0625 -21.4375 L 15.6875 -19.0625 Z M 6.421875 -11.046875 L 10.34375 -10.78125 L 10.21875 -16.09375 L 6.6875 -15.796875 Z M 6.421875 -11.046875 "/></g></g></g><g fill="#326fa8" fill-opacity="1"><g transform="translate(187.142786, 130.735635)"><g><path d="M 0.53125 -21.328125 L 15.5625 -21.328125 L 15.3125 -16.125 L 11.0625 -15.9375 L 10.484375 -0.453125 L 4.890625 0.078125 L 5.03125 -15.953125 L 0.5625 -16.171875 Z M 0.53125 -21.328125 "/></g></g></g><g fill="#326fa8" fill-opacity="1"><g transform="translate(203.234547, 130.735635)"><g><path d="M 0.6875 -21.09375 L 6.5 -21.28125 L 5.78125 -0.53125 L 0.53125 0.03125 Z M 0.6875 -21.09375 "/></g></g></g><g fill="#326fa8" fill-opacity="1"><g transform="translate(228.804529, 130.736425)"><g><path d="M 10.390625 -6.59375 L 15.359375 -6.25 L 15.5 -1.984375 L 14.515625 -0.046875 L 2.453125 0.03125 L 0.671875 -0.9375 L 0.53125 -19.609375 L 1.34375 -21.375 L 14.15625 -21.21875 L 15.765625 -19.796875 L 15.390625 -14.03125 L 10.34375 -14.03125 L 9.890625 -17.046875 L 6.140625 -17.203125 L 6.390625 -3.953125 L 9.9375 -3.6875 Z M 10.390625 -6.59375 "/></g></g></g><g fill="#326fa8" fill-opacity="1"><g transform="translate(245.106797, 130.736425)"><g><path d="M 15.6875 -18.9375 L 16.078125 -0.046875 L 10.53125 0.046875 L 10.359375 -6.59375 L 6.125 -6.328125 L 5.6875 -0.078125 L 0.53125 0.03125 L 1.359375 -19.578125 L 2.40625 -20.84375 L 14.046875 -21.34375 Z M 10.34375 -10.65625 L 10.203125 -15.984375 L 6.6875 -15.6875 L 6.40625 -10.921875 Z M 10.34375 -10.65625 "/></g></g></g><g fill="#326fa8" fill-opacity="1"><g transform="translate(261.729768, 130.736425)"><g><path d="M 14.34375 -12.34375 L 15.65625 -9.53125 L 15.46875 -1.609375 L 13.78125 -0.109375 L 1.546875 0 L 0.53125 -2.109375 L 1.046875 -7.296875 L 5.640625 -7.265625 L 6.015625 -4.890625 L 10.09375 -4.96875 L 10.234375 -8.34375 L 1.984375 -9.265625 L 0.78125 -10.640625 L 0.90625 -19.578125 L 1.953125 -20.84375 L 11.75 -21.34375 L 15.203125 -20.359375 L 15.4375 -15.3125 L 14.453125 -14.453125 L 10.71875 -14.265625 L 10.046875 -16.4375 L 6.5 -16.140625 L 6.203125 -13.0625 Z M 14.34375 -12.34375 "/></g></g></g><g clip-path="url(#61c20a67fa)"><g clip-path="url(#d00363893d)"><path fill="#fcee21" d="M 253.367188 7.105469 L 331.589844 7.105469 L 331.589844 98.128906 L 253.367188 98.128906 Z M 253.367188 7.105469 " fill-opacity="1" fill-rule="nonzero"/></g></g><g fill="#6a4018" fill-opacity="1"><g transform="translate(273.071234, 79.870411)"><g><path d="M 35.625 -43.03125 L 36.53125 -0.125 L 23.90625 0.125 L 23.546875 -14.984375 L 13.890625 -14.390625 L 12.921875 -0.1875 L 1.21875 0.0625 L 3.09375 -44.484375 L 5.46875 -47.34375 L 31.921875 -48.484375 Z M 23.484375 -24.21875 L 23.1875 -36.296875 L 15.171875 -35.625 L 14.5625 -24.828125 Z M 23.484375 -24.21875 "/></g></g></g></svg>