<svg xmlns="http://www.w3.org/2000/svg" xmlns:xlink="http://www.w3.org/1999/xlink" width="1000" zoomAndPan="magnify" viewBox="0 0 750 749.999995" height="1000" preserveAspectRatio="xMidYMid meet" version="1.0"><defs><clipPath id="d9f1d777dd"><path d="M 117 354 L 155 354 L 155 414.773438 L 117 414.773438 Z M 117 354 " clip-rule="nonzero"/></clipPath><clipPath id="e48a21da43"><path d="M 186 354 L 224 354 L 224 414.773438 L 186 414.773438 Z M 186 354 " clip-rule="nonzero"/></clipPath><clipPath id="7b3cf7228a"><path d="M 229 354 L 267 354 L 267 414.773438 L 229 414.773438 Z M 229 354 " clip-rule="nonzero"/></clipPath><clipPath id="e6793618a3"><path d="M 273 354 L 311 354 L 311 414.773438 L 273 414.773438 Z M 273 354 " clip-rule="nonzero"/></clipPath><clipPath id="58ee7cd624"><path d="M 318 354 L 355 354 L 355 414.773438 L 318 414.773438 Z M 318 354 " clip-rule="nonzero"/></clipPath><clipPath id="40755f1ed6"><path d="M 361 354 L 399 354 L 399 414.773438 L 361 414.773438 Z M 361 354 " clip-rule="nonzero"/></clipPath><clipPath id="5cf08c51dd"><path d="M 556 354 L 594 354 L 594 414.773438 L 556 414.773438 Z M 556 354 " clip-rule="nonzero"/></clipPath><clipPath id="4ed3dfb52d"><path d="M 602 335.226562 L 629 335.226562 L 629 378 L 602 378 Z M 602 335.226562 " clip-rule="nonzero"/></clipPath></defs><rect x="-75" width="900" fill="#ffffff" y="-74.999999" height="899.999994" fill-opacity="1"/><rect x="-75" width="900" fill="#ffffff" y="-74.999999" height="899.999994" fill-opacity="1"/><g clip-path="url(#d9f1d777dd)"><path fill="#000000" d="M 122.769531 361.472656 C 126.050781 356.730469 130.527344 354.359375 136.207031 354.359375 C 139.015625 354.359375 141.824219 355.121094 144.636719 356.644531 C 147.445312 358.164062 149.726562 360.859375 151.484375 364.722656 C 153.648438 369.582031 154.734375 376.253906 154.734375 384.742188 C 154.734375 393.816406 153.472656 400.753906 150.957031 405.554688 C 149.785156 408.011719 148.175781 409.972656 146.128906 411.4375 C 144.078125 412.898438 142.292969 413.808594 140.773438 414.15625 C 139.25 414.507812 137.757812 414.714844 136.292969 414.773438 C 134.769531 414.773438 133.25 414.597656 131.726562 414.246094 C 130.207031 413.894531 128.421875 412.957031 126.371094 411.4375 C 124.320312 409.914062 122.710938 407.953125 121.542969 405.554688 C 119.023438 400.753906 117.765625 393.816406 117.765625 384.742188 C 117.765625 374.554688 119.433594 366.800781 122.769531 361.472656 Z M 142.527344 360.417969 C 140.773438 358.546875 138.695312 357.609375 136.292969 357.609375 C 133.835938 357.609375 131.726562 358.546875 129.972656 360.417969 C 128.507812 361.941406 127.542969 364.050781 127.074219 366.742188 C 126.605469 369.433594 126.371094 375.054688 126.371094 383.601562 C 126.371094 392.851562 126.605469 398.9375 127.074219 401.863281 C 127.542969 404.792969 128.59375 407.105469 130.234375 408.800781 C 131.875 410.558594 133.894531 411.4375 136.292969 411.4375 C 138.636719 411.4375 140.625 410.558594 142.265625 408.800781 C 143.960938 407.046875 145.015625 404.585938 145.425781 401.425781 C 145.835938 398.265625 146.070312 392.324219 146.128906 383.601562 C 146.128906 375.113281 145.894531 369.523438 145.425781 366.828125 C 144.957031 364.136719 143.992188 362 142.527344 360.417969 Z M 142.527344 360.417969 " fill-opacity="1" fill-rule="nonzero"/></g><path fill="#000000" d="M 165.09375 407.574219 C 165.09375 406.167969 165.59375 404.9375 166.585938 403.882812 C 167.582031 402.832031 168.839844 402.304688 170.363281 402.304688 C 171.769531 402.304688 172.996094 402.773438 174.050781 403.707031 C 175.105469 404.644531 175.660156 405.902344 175.71875 407.484375 C 175.71875 408.949219 175.222656 410.207031 174.226562 411.261719 C 173.230469 412.3125 171.972656 412.839844 170.449219 412.839844 C 168.929688 412.839844 167.671875 412.34375 166.675781 411.347656 C 165.679688 410.351562 165.152344 409.09375 165.09375 407.574219 Z M 165.09375 407.574219 " fill-opacity="1" fill-rule="nonzero"/><g clip-path="url(#e48a21da43)"><path fill="#000000" d="M 191.085938 361.472656 C 194.363281 356.730469 198.84375 354.359375 204.519531 354.359375 C 207.332031 354.359375 210.140625 355.121094 212.949219 356.644531 C 215.761719 358.164062 218.042969 360.859375 219.800781 364.722656 C 221.964844 369.582031 223.046875 376.253906 223.046875 384.742188 C 223.046875 393.816406 221.789062 400.753906 219.273438 405.554688 C 218.101562 408.011719 216.492188 409.972656 214.441406 411.4375 C 212.394531 412.898438 210.609375 413.808594 209.085938 414.15625 C 207.5625 414.507812 206.070312 414.714844 204.609375 414.773438 C 203.085938 414.773438 201.5625 414.597656 200.042969 414.246094 C 198.519531 413.894531 196.734375 412.957031 194.6875 411.4375 C 192.636719 409.914062 191.027344 407.953125 189.855469 405.554688 C 187.339844 400.753906 186.082031 393.816406 186.082031 384.742188 C 186.082031 374.554688 187.75 366.800781 191.085938 361.472656 Z M 210.84375 360.417969 C 209.085938 358.546875 207.007812 357.609375 204.609375 357.609375 C 202.148438 357.609375 200.042969 358.546875 198.285156 360.417969 C 196.824219 361.941406 195.855469 364.050781 195.386719 366.742188 C 194.921875 369.433594 194.6875 375.054688 194.6875 383.601562 C 194.6875 392.851562 194.921875 398.9375 195.386719 401.863281 C 195.855469 404.792969 196.910156 407.105469 198.550781 408.800781 C 200.1875 410.558594 202.207031 411.4375 204.609375 411.4375 C 206.949219 411.4375 208.941406 410.558594 210.578125 408.800781 C 212.277344 407.046875 213.332031 404.585938 213.738281 401.425781 C 214.148438 398.265625 214.382812 392.324219 214.441406 383.601562 C 214.441406 375.113281 214.207031 369.523438 213.738281 366.828125 C 213.273438 364.136719 212.304688 362 210.84375 360.417969 Z M 210.84375 360.417969 " fill-opacity="1" fill-rule="nonzero"/></g><g clip-path="url(#7b3cf7228a)"><path fill="#000000" d="M 234.988281 361.472656 C 238.269531 356.730469 242.746094 354.359375 248.425781 354.359375 C 251.234375 354.359375 254.042969 355.121094 256.855469 356.644531 C 259.664062 358.164062 261.945312 360.859375 263.703125 364.722656 C 265.867188 369.582031 266.953125 376.253906 266.953125 384.742188 C 266.953125 393.816406 265.695312 400.753906 263.175781 405.554688 C 262.003906 408.011719 260.394531 409.972656 258.347656 411.4375 C 256.296875 412.898438 254.511719 413.808594 252.992188 414.15625 C 251.46875 414.507812 249.976562 414.714844 248.511719 414.773438 C 246.992188 414.773438 245.46875 414.597656 243.945312 414.246094 C 242.425781 413.894531 240.640625 412.957031 238.589844 411.4375 C 236.542969 409.914062 234.929688 407.953125 233.761719 405.554688 C 231.242188 400.753906 229.984375 393.816406 229.984375 384.742188 C 229.984375 374.554688 231.652344 366.800781 234.988281 361.472656 Z M 254.746094 360.417969 C 252.992188 358.546875 250.914062 357.609375 248.511719 357.609375 C 246.054688 357.609375 243.945312 358.546875 242.191406 360.417969 C 240.726562 361.941406 239.761719 364.050781 239.292969 366.742188 C 238.824219 369.433594 238.589844 375.054688 238.589844 383.601562 C 238.589844 392.851562 238.824219 398.9375 239.292969 401.863281 C 239.761719 404.792969 240.8125 407.105469 242.453125 408.800781 C 244.09375 410.558594 246.113281 411.4375 248.511719 411.4375 C 250.855469 411.4375 252.84375 410.558594 254.484375 408.800781 C 256.179688 407.046875 257.234375 404.585938 257.644531 401.425781 C 258.054688 398.265625 258.289062 392.324219 258.347656 383.601562 C 258.347656 375.113281 258.113281 369.523438 257.644531 366.828125 C 257.175781 364.136719 256.210938 362 254.746094 360.417969 Z M 254.746094 360.417969 " fill-opacity="1" fill-rule="nonzero"/></g><g clip-path="url(#e6793618a3)"><path fill="#000000" d="M 278.894531 361.472656 C 282.171875 356.730469 286.648438 354.359375 292.328125 354.359375 C 295.136719 354.359375 297.949219 355.121094 300.757812 356.644531 C 303.566406 358.164062 305.851562 360.859375 307.605469 364.722656 C 309.773438 369.582031 310.855469 376.253906 310.855469 384.742188 C 310.855469 393.816406 309.597656 400.753906 307.082031 405.554688 C 305.910156 408.011719 304.300781 409.972656 302.25 411.4375 C 300.203125 412.898438 298.417969 413.808594 296.894531 414.15625 C 295.371094 414.507812 293.878906 414.714844 292.417969 414.773438 C 290.894531 414.773438 289.371094 414.597656 287.851562 414.246094 C 286.328125 413.894531 284.542969 412.957031 282.492188 411.4375 C 280.445312 409.914062 278.835938 407.953125 277.664062 405.554688 C 275.148438 400.753906 273.890625 393.816406 273.890625 384.742188 C 273.890625 374.554688 275.558594 366.800781 278.894531 361.472656 Z M 298.652344 360.417969 C 296.894531 358.546875 294.816406 357.609375 292.417969 357.609375 C 289.957031 357.609375 287.851562 358.546875 286.09375 360.417969 C 284.628906 361.941406 283.664062 364.050781 283.195312 366.742188 C 282.726562 369.433594 282.492188 375.054688 282.492188 383.601562 C 282.492188 392.851562 282.726562 398.9375 283.195312 401.863281 C 283.664062 404.792969 284.71875 407.105469 286.359375 408.800781 C 287.996094 410.558594 290.015625 411.4375 292.417969 411.4375 C 294.757812 411.4375 296.75 410.558594 298.386719 408.800781 C 300.085938 407.046875 301.136719 404.585938 301.546875 401.425781 C 301.957031 398.265625 302.191406 392.324219 302.25 383.601562 C 302.25 375.113281 302.015625 369.523438 301.546875 366.828125 C 301.078125 364.136719 300.113281 362 298.652344 360.417969 Z M 298.652344 360.417969 " fill-opacity="1" fill-rule="nonzero"/></g><g clip-path="url(#58ee7cd624)"><path fill="#000000" d="M 320.515625 376.226562 C 320.515625 376.226562 320.515625 373.972656 320.515625 369.464844 C 320.515625 364.957031 322.09375 361.328125 325.257812 358.574219 C 328.417969 355.824219 332.046875 354.417969 336.144531 354.359375 C 340.300781 354.359375 343.988281 355.589844 347.207031 358.046875 C 350.429688 360.507812 352.039062 363.699219 352.039062 367.621094 C 352.039062 369.375 351.714844 371.015625 351.070312 372.535156 C 350.429688 374.058594 349.667969 375.289062 348.789062 376.226562 C 347.910156 377.160156 347.003906 377.980469 346.066406 378.683594 C 345.128906 379.386719 344.371094 379.914062 343.785156 380.265625 C 343.199219 380.617188 342.875 380.847656 342.816406 380.964844 L 344.046875 381.757812 C 344.867188 382.34375 345.6875 382.925781 346.507812 383.511719 C 347.324219 384.097656 347.792969 384.421875 347.910156 384.480469 C 352.300781 387.933594 354.496094 392.292969 354.496094 397.5625 C 354.496094 402.1875 352.800781 406.195312 349.402344 409.59375 C 346.007812 412.988281 341.617188 414.714844 336.234375 414.773438 C 330.964844 414.773438 326.632812 413.28125 323.238281 410.292969 C 319.839844 407.308594 318.144531 403.621094 318.144531 399.230469 C 318.144531 392.910156 321.917969 387.640625 329.472656 383.425781 L 327.890625 382.285156 C 326.660156 381.523438 325.871094 380.9375 325.519531 380.527344 C 322.183594 377.660156 320.515625 373.972656 320.515625 369.464844 Z M 339.480469 378.945312 L 340.007812 378.597656 C 340.359375 378.363281 340.625 378.1875 340.796875 378.070312 C 340.972656 377.953125 341.265625 377.746094 341.675781 377.453125 C 342.085938 377.160156 342.4375 376.867188 342.730469 376.574219 C 343.023438 376.285156 343.34375 375.933594 343.695312 375.523438 C 344.046875 375.113281 344.371094 374.730469 344.664062 374.382812 C 344.953125 374.03125 345.246094 373.5625 345.539062 372.976562 C 345.832031 372.390625 346.097656 371.894531 346.332031 371.484375 C 346.566406 371.074219 346.710938 370.488281 346.769531 369.726562 C 346.828125 368.964844 346.886719 368.320312 346.945312 367.796875 C 346.945312 365.277344 346.097656 363.140625 344.398438 361.386719 C 342.703125 359.628906 340.738281 358.515625 338.515625 358.046875 C 338.105469 357.988281 337.140625 357.960938 335.617188 357.960938 C 333.21875 357.960938 330.964844 358.722656 328.855469 360.242188 C 326.75 361.765625 325.667969 363.667969 325.609375 365.953125 C 325.609375 367.296875 325.988281 368.527344 326.75 369.640625 C 327.511719 370.75 328.269531 371.601562 329.03125 372.1875 C 329.792969 372.769531 331.257812 373.707031 333.421875 374.996094 C 333.832031 375.289062 334.15625 375.492188 334.390625 375.609375 Z M 336.320312 410.996094 C 339.714844 410.996094 342.644531 410 345.101562 408.011719 C 347.558594 406.019531 348.789062 403.621094 348.789062 400.8125 C 348.789062 399.816406 348.644531 398.878906 348.351562 398 C 348.058594 397.125 347.707031 396.390625 347.296875 395.804688 C 346.886719 395.222656 346.242188 394.578125 345.363281 393.875 C 344.488281 393.171875 343.8125 392.644531 343.34375 392.292969 C 342.875 391.941406 342.027344 391.386719 340.796875 390.625 C 339.570312 389.863281 338.777344 389.367188 338.429688 389.132812 C 337.609375 388.605469 336.730469 388.050781 335.792969 387.464844 C 334.855469 386.878906 334.097656 386.382812 333.511719 385.972656 L 332.808594 385.53125 C 332.457031 385.53125 331.609375 386.03125 330.261719 387.023438 C 328.914062 388.019531 327.511719 389.628906 326.046875 391.855469 C 324.582031 394.078125 323.824219 396.480469 323.765625 399.054688 C 323.765625 402.507812 325.023438 405.347656 327.539062 407.574219 C 330.058594 409.796875 332.984375 410.9375 336.320312 410.996094 Z M 336.320312 410.996094 " fill-opacity="1" fill-rule="nonzero"/></g><g clip-path="url(#40755f1ed6)"><path fill="#000000" d="M 389.179688 387.640625 C 386.371094 392.089844 382.859375 394.3125 378.644531 394.3125 C 374.078125 394.3125 370.332031 392.585938 367.40625 389.132812 C 364.476562 385.679688 362.722656 381.992188 362.136719 378.070312 C 362.019531 377.132812 361.960938 375.960938 361.960938 374.554688 L 361.960938 373.855469 C 361.960938 368.410156 363.980469 363.667969 368.019531 359.628906 C 371.53125 356.117188 375.394531 354.359375 379.609375 354.359375 C 379.726562 354.359375 379.902344 354.359375 380.136719 354.359375 C 380.371094 354.359375 380.605469 354.390625 380.839844 354.449219 L 381.191406 354.449219 C 381.894531 354.449219 382.625 354.507812 383.386719 354.625 C 384.148438 354.742188 385.230469 355.09375 386.632812 355.679688 C 388.039062 356.261719 389.414062 357.199219 390.761719 358.488281 C 392.109375 359.777344 393.367188 361.503906 394.539062 363.667969 C 397.054688 368.820312 398.3125 375.433594 398.3125 383.511719 C 398.3125 391.707031 396.558594 398.644531 393.042969 404.324219 C 390.996094 407.601562 388.535156 410.148438 385.667969 411.960938 C 382.800781 413.777344 379.757812 414.714844 376.535156 414.773438 C 372.964844 414.773438 370.039062 413.925781 367.753906 412.226562 C 365.472656 410.527344 364.300781 408.011719 364.242188 404.675781 C 364.183594 401.339844 365.734375 399.699219 368.898438 399.757812 C 370.183594 399.757812 371.269531 400.167969 372.144531 400.988281 C 373.023438 401.804688 373.464844 402.949219 373.464844 404.410156 C 373.464844 405.464844 373.199219 406.371094 372.671875 407.132812 C 372.144531 407.894531 371.679688 408.363281 371.269531 408.539062 C 370.859375 408.714844 370.476562 408.859375 370.125 408.976562 L 369.777344 409.066406 C 369.777344 409.183594 369.980469 409.359375 370.390625 409.59375 C 370.800781 409.828125 371.5625 410.117188 372.671875 410.46875 C 373.785156 410.820312 375.015625 410.96875 376.359375 410.910156 L 376.886719 410.910156 C 380.398438 410.910156 383.355469 409.035156 385.757812 405.289062 C 388.039062 402.011719 389.179688 396.332031 389.179688 388.253906 Z M 379.699219 391.066406 C 382.507812 391.066406 384.761719 389.628906 386.457031 386.761719 C 388.15625 383.894531 389.035156 380 389.09375 375.082031 C 389.09375 370.515625 388.859375 367.238281 388.390625 365.25 C 388.273438 364.664062 388.097656 364.078125 387.863281 363.492188 C 387.628906 362.90625 387.21875 362.144531 386.632812 361.210938 C 386.050781 360.273438 385.171875 359.484375 384 358.839844 C 382.828125 358.195312 381.453125 357.902344 379.875 357.960938 C 377.648438 357.960938 375.746094 358.75 374.164062 360.332031 C 372.9375 361.621094 372.144531 363.140625 371.796875 364.898438 C 371.445312 366.652344 371.238281 369.726562 371.179688 374.117188 C 371.179688 378.976562 371.328125 382.253906 371.621094 383.953125 C 371.910156 385.648438 372.496094 387.023438 373.375 388.078125 C 374.839844 390.070312 376.945312 391.066406 379.699219 391.066406 Z M 379.699219 391.066406 " fill-opacity="1" fill-rule="nonzero"/></g><path fill="#000000" d="M 477.007812 410.292969 C 477.007812 411.464844 476.390625 412.050781 475.164062 412.050781 C 474.871094 412.050781 474.226562 411.582031 473.230469 410.644531 C 472.234375 409.710938 469.484375 406.988281 464.976562 402.480469 L 455.84375 393.347656 L 446.625 402.566406 C 440.421875 408.65625 437.230469 411.757812 437.054688 411.875 C 436.820312 411.992188 436.613281 412.050781 436.4375 412.050781 C 435.972656 412.050781 435.5625 411.875 435.210938 411.523438 C 434.859375 411.171875 434.652344 410.761719 434.59375 410.292969 C 434.59375 409.882812 435.003906 409.242188 435.824219 408.363281 C 436.644531 407.484375 439.394531 404.703125 444.078125 400.019531 L 453.210938 390.890625 L 444.078125 381.757812 C 439.335938 377.015625 436.585938 374.234375 435.824219 373.414062 C 435.0625 372.59375 434.652344 371.953125 434.59375 371.484375 C 434.59375 370.957031 434.769531 370.546875 435.121094 370.253906 C 435.472656 369.960938 435.914062 369.816406 436.4375 369.816406 C 436.730469 369.816406 436.9375 369.84375 437.054688 369.902344 C 437.230469 370.019531 440.421875 373.121094 446.625 379.210938 L 455.84375 388.429688 L 464.976562 379.296875 C 469.484375 374.789062 472.234375 372.070312 473.230469 371.132812 C 474.226562 370.195312 474.871094 369.726562 475.164062 369.726562 C 476.390625 369.726562 477.007812 370.3125 477.007812 371.484375 C 477.007812 371.894531 476.714844 372.417969 476.128906 373.0625 C 475.542969 373.707031 472.675781 376.574219 467.523438 381.667969 L 458.390625 390.890625 L 467.523438 400.109375 C 472.441406 405.027344 475.25 407.863281 475.953125 408.625 C 476.65625 409.386719 477.007812 409.941406 477.007812 410.292969 Z M 477.007812 410.292969 " fill-opacity="1" fill-rule="nonzero"/><path fill="#000000" d="M 528.214844 362.085938 L 527.074219 362.527344 C 526.253906 362.820312 525.085938 363.113281 523.5625 363.40625 C 522.039062 363.699219 520.34375 363.902344 518.46875 364.019531 L 516.800781 364.019531 L 516.800781 359.980469 L 518.46875 359.980469 C 521.222656 359.863281 523.765625 359.425781 526.109375 358.664062 C 528.449219 357.902344 530.089844 357.199219 531.027344 356.554688 C 531.964844 355.910156 532.78125 355.269531 533.484375 354.625 C 533.601562 354.449219 533.953125 354.359375 534.539062 354.359375 C 535.066406 354.359375 535.5625 354.535156 536.03125 354.886719 L 536.03125 381.140625 L 536.121094 407.484375 C 536.527344 407.894531 536.878906 408.15625 537.171875 408.273438 C 537.464844 408.390625 538.167969 408.507812 539.28125 408.625 C 540.390625 408.742188 542.207031 408.800781 544.722656 408.800781 L 547.007812 408.800781 L 547.007812 412.839844 L 546.042969 412.839844 C 544.8125 412.664062 540.160156 412.578125 532.078125 412.578125 C 524.117188 412.578125 519.523438 412.664062 518.292969 412.839844 L 517.242188 412.839844 L 517.242188 408.800781 L 519.523438 408.800781 C 520.8125 408.800781 521.921875 408.800781 522.859375 408.800781 C 523.796875 408.800781 524.527344 408.773438 525.054688 408.714844 C 525.582031 408.65625 526.050781 408.566406 526.460938 408.449219 C 526.871094 408.332031 527.105469 408.273438 527.164062 408.273438 C 527.222656 408.273438 527.398438 408.128906 527.691406 407.835938 C 527.980469 407.542969 528.15625 407.425781 528.214844 407.484375 Z M 528.214844 362.085938 " fill-opacity="1" fill-rule="nonzero"/><g clip-path="url(#5cf08c51dd)"><path fill="#000000" d="M 561.847656 361.472656 C 565.125 356.730469 569.601562 354.359375 575.28125 354.359375 C 578.089844 354.359375 580.902344 355.121094 583.710938 356.644531 C 586.519531 358.164062 588.804688 360.859375 590.558594 364.722656 C 592.726562 369.582031 593.808594 376.253906 593.808594 384.742188 C 593.808594 393.816406 592.550781 400.753906 590.035156 405.554688 C 588.863281 408.011719 587.253906 409.972656 585.203125 411.4375 C 583.15625 412.898438 581.371094 413.808594 579.847656 414.15625 C 578.324219 414.507812 576.832031 414.714844 575.371094 414.773438 C 573.847656 414.773438 572.324219 414.597656 570.804688 414.246094 C 569.28125 413.894531 567.496094 412.957031 565.445312 411.4375 C 563.398438 409.914062 561.789062 407.953125 560.617188 405.554688 C 558.101562 400.753906 556.84375 393.816406 556.84375 384.742188 C 556.84375 374.554688 558.511719 366.800781 561.847656 361.472656 Z M 581.605469 360.417969 C 579.847656 358.546875 577.769531 357.609375 575.371094 357.609375 C 572.910156 357.609375 570.804688 358.546875 569.046875 360.417969 C 567.582031 361.941406 566.617188 364.050781 566.148438 366.742188 C 565.679688 369.433594 565.445312 375.054688 565.445312 383.601562 C 565.445312 392.851562 565.679688 398.9375 566.148438 401.863281 C 566.617188 404.792969 567.671875 407.105469 569.3125 408.800781 C 570.949219 410.558594 572.96875 411.4375 575.371094 411.4375 C 577.710938 411.4375 579.703125 410.558594 581.339844 408.800781 C 583.039062 407.046875 584.09375 404.585938 584.5 401.425781 C 584.910156 398.265625 585.144531 392.324219 585.203125 383.601562 C 585.203125 375.113281 584.96875 369.523438 584.5 366.828125 C 584.035156 364.136719 583.066406 362 581.605469 360.417969 Z M 581.605469 360.417969 " fill-opacity="1" fill-rule="nonzero"/></g><g clip-path="url(#4ed3dfb52d)"><path fill="#000000" d="M 602.828125 357.144531 C 602.828125 350.398438 604.503906 345.058594 607.855469 341.128906 C 611.207031 337.195312 614.933594 335.230469 619.03125 335.230469 C 621.886719 335.230469 623.933594 335.976562 625.175781 337.464844 C 626.417969 338.957031 627.039062 340.609375 627.039062 342.433594 C 627.039062 343.464844 626.75 344.292969 626.167969 344.914062 C 625.589844 345.535156 624.78125 345.847656 623.746094 345.847656 C 622.796875 345.847656 622.007812 345.554688 621.386719 344.976562 C 620.769531 344.398438 620.457031 343.589844 620.457031 342.554688 C 620.457031 340.734375 621.429688 339.636719 623.375 339.265625 C 622.464844 338.355469 621.183594 337.839844 619.527344 337.714844 C 616.585938 337.714844 614.167969 338.957031 612.261719 341.4375 C 610.316406 344.171875 609.34375 348.351562 609.34375 353.980469 L 609.40625 354.226562 C 609.613281 353.980469 609.78125 353.710938 609.902344 353.421875 C 611.601562 350.9375 613.816406 349.695312 616.546875 349.695312 L 616.792969 349.695312 C 618.699219 349.695312 620.375 350.089844 621.824219 350.875 C 622.816406 351.453125 623.808594 352.28125 624.804688 353.359375 C 625.796875 354.433594 626.601562 355.613281 627.222656 356.898438 C 628.09375 358.925781 628.527344 361.140625 628.527344 363.539062 L 628.527344 364.65625 C 628.527344 365.609375 628.425781 366.5 628.21875 367.324219 C 627.761719 369.769531 626.4375 372.148438 624.246094 374.464844 C 622.050781 376.78125 619.277344 377.941406 615.925781 377.941406 C 614.765625 377.941406 613.648438 377.777344 612.574219 377.445312 C 611.496094 377.113281 610.339844 376.492188 609.097656 375.582031 C 607.855469 374.671875 606.800781 373.453125 605.929688 371.921875 C 605.0625 370.390625 604.316406 368.382812 603.695312 365.898438 C 603.074219 363.414062 602.785156 360.496094 602.828125 357.144531 Z M 616.171875 351.929688 C 614.933594 351.929688 613.855469 352.28125 612.945312 352.984375 C 612.035156 353.6875 611.332031 354.621094 610.835938 355.777344 C 610.339844 356.9375 609.988281 358.117188 609.78125 359.316406 C 609.574219 360.519531 609.449219 361.800781 609.40625 363.167969 C 609.40625 366.601562 609.65625 369.0625 610.152344 370.554688 C 610.648438 372.042969 611.433594 373.246094 612.511719 374.15625 C 613.503906 374.898438 614.601562 375.273438 615.800781 375.273438 C 617.910156 375.273438 619.527344 374.484375 620.644531 372.914062 C 621.183594 372.167969 621.554688 371.238281 621.761719 370.121094 C 621.96875 369.003906 622.070312 366.828125 622.070312 363.601562 C 622.070312 360.289062 621.96875 358.078125 621.761719 356.957031 C 621.554688 355.839844 621.183594 354.910156 620.644531 354.164062 C 619.527344 352.675781 618.035156 351.929688 616.171875 351.929688 Z M 616.171875 351.929688 " fill-opacity="1" fill-rule="nonzero"/></g></svg>