<svg xmlns="http://www.w3.org/2000/svg" xmlns:xlink="http://www.w3.org/1999/xlink" width="1000" zoomAndPan="magnify" viewBox="0 0 750 749.999995" height="1000" preserveAspectRatio="xMidYMid meet" version="1.0"><defs><clipPath id="c702ec51df"><path d="M 119 351 L 161 351 L 161 420.257812 L 119 420.257812 Z M 119 351 " clip-rule="nonzero"/></clipPath><clipPath id="081c00514e"><path d="M 168 351 L 211 351 L 211 420.257812 L 168 420.257812 Z M 168 351 " clip-rule="nonzero"/></clipPath><clipPath id="3bd362f5b1"><path d="M 218 351 L 261 351 L 261 420.257812 L 218 420.257812 Z M 218 351 " clip-rule="nonzero"/></clipPath><clipPath id="ebbaa2496a"><path d="M 268 351 L 311 351 L 311 420.257812 L 268 420.257812 Z M 268 351 " clip-rule="nonzero"/></clipPath><clipPath id="cb865af6b1"><path d="M 490 351 L 533 351 L 533 420.257812 L 490 420.257812 Z M 490 351 " clip-rule="nonzero"/></clipPath><clipPath id="58a80459e7"><path d="M 600 329.742188 L 626 329.742188 L 626 377 L 600 377 Z M 600 329.742188 " clip-rule="nonzero"/></clipPath></defs><rect x="-75" width="900" fill="#ffffff" y="-74.999999" height="899.999994" fill-opacity="1"/><rect x="-75" width="900" fill="#ffffff" y="-74.999999" height="899.999994" fill-opacity="1"/><g clip-path="url(#c702ec51df)"><path fill="#000000" d="M 121.75 376.394531 C 121.75 376.394531 121.75 373.828125 121.75 368.699219 C 121.75 363.570312 123.546875 359.441406 127.144531 356.308594 C 130.742188 353.179688 134.871094 351.582031 139.535156 351.515625 C 144.265625 351.515625 148.460938 352.914062 152.125 355.710938 C 155.789062 358.507812 157.621094 362.140625 157.621094 366.601562 C 157.621094 368.601562 157.253906 370.464844 156.519531 372.195312 C 155.789062 373.929688 154.921875 375.328125 153.921875 376.394531 C 152.921875 377.460938 151.890625 378.390625 150.824219 379.191406 C 149.757812 379.992188 148.894531 380.589844 148.226562 380.988281 C 147.5625 381.390625 147.195312 381.65625 147.128906 381.789062 L 148.527344 382.6875 C 149.460938 383.355469 150.390625 384.019531 151.324219 384.6875 C 152.257812 385.351562 152.789062 385.71875 152.921875 385.785156 C 157.917969 389.714844 160.417969 394.679688 160.417969 400.675781 C 160.417969 405.9375 158.484375 410.5 154.621094 414.363281 C 150.757812 418.226562 145.761719 420.191406 139.632812 420.257812 C 133.640625 420.257812 128.710938 418.558594 124.847656 415.164062 C 120.984375 411.765625 119.050781 407.570312 119.050781 402.574219 C 119.050781 395.378906 123.347656 389.382812 131.941406 384.585938 L 130.140625 383.289062 C 128.742188 382.421875 127.84375 381.757812 127.445312 381.289062 C 123.648438 378.027344 121.75 373.828125 121.75 368.699219 Z M 143.332031 379.492188 L 143.929688 379.089844 C 144.332031 378.824219 144.628906 378.625 144.828125 378.492188 C 145.03125 378.359375 145.363281 378.125 145.828125 377.792969 C 146.296875 377.460938 146.695312 377.125 147.027344 376.792969 C 147.359375 376.460938 147.726562 376.0625 148.128906 375.59375 C 148.527344 375.128906 148.894531 374.695312 149.226562 374.296875 C 149.558594 373.894531 149.894531 373.363281 150.226562 372.695312 C 150.558594 372.03125 150.859375 371.464844 151.125 371 C 151.390625 370.53125 151.558594 369.867188 151.625 369 C 151.691406 368.132812 151.757812 367.402344 151.824219 366.800781 C 151.824219 363.9375 150.859375 361.503906 148.925781 359.507812 C 146.996094 357.507812 144.761719 356.242188 142.230469 355.710938 C 141.765625 355.644531 140.667969 355.609375 138.933594 355.609375 C 136.203125 355.609375 133.640625 356.476562 131.242188 358.207031 C 128.84375 359.941406 127.609375 362.105469 127.542969 364.703125 C 127.542969 366.234375 127.976562 367.632812 128.84375 368.898438 C 129.707031 370.164062 130.574219 371.132812 131.441406 371.796875 C 132.308594 372.464844 133.972656 373.53125 136.4375 374.996094 C 136.902344 375.328125 137.269531 375.5625 137.535156 375.695312 Z M 139.734375 415.960938 C 143.597656 415.960938 146.929688 414.828125 149.726562 412.566406 C 152.523438 410.300781 153.921875 407.570312 153.921875 404.371094 C 153.921875 403.238281 153.757812 402.171875 153.421875 401.175781 C 153.089844 400.175781 152.691406 399.34375 152.222656 398.675781 C 151.757812 398.011719 151.023438 397.277344 150.027344 396.476562 C 149.027344 395.679688 148.261719 395.078125 147.726562 394.679688 C 147.195312 394.28125 146.230469 393.648438 144.828125 392.78125 C 143.429688 391.914062 142.53125 391.347656 142.132812 391.082031 C 141.199219 390.484375 140.199219 389.851562 139.132812 389.183594 C 138.070312 388.515625 137.203125 387.953125 136.535156 387.484375 L 135.738281 386.984375 C 135.335938 386.984375 134.371094 387.550781 132.839844 388.683594 C 131.308594 389.816406 129.707031 391.648438 128.042969 394.179688 C 126.378906 396.710938 125.511719 399.441406 125.445312 402.371094 C 125.445312 406.304688 126.878906 409.535156 129.742188 412.066406 C 132.605469 414.597656 135.9375 415.894531 139.734375 415.960938 Z M 139.734375 415.960938 " fill-opacity="1" fill-rule="nonzero"/></g><g clip-path="url(#081c00514e)"><path fill="#000000" d="M 199.886719 389.382812 C 196.6875 394.445312 192.691406 396.976562 187.894531 396.976562 C 182.699219 396.976562 178.4375 395.011719 175.105469 391.082031 C 171.773438 387.152344 169.777344 382.957031 169.109375 378.492188 C 168.976562 377.425781 168.910156 376.09375 168.910156 374.496094 L 168.910156 373.695312 C 168.910156 367.5 171.207031 362.105469 175.804688 357.507812 C 179.800781 353.511719 184.199219 351.515625 188.996094 351.515625 C 189.128906 351.515625 189.328125 351.515625 189.59375 351.515625 C 189.859375 351.515625 190.125 351.546875 190.394531 351.613281 L 190.792969 351.613281 C 191.59375 351.613281 192.425781 351.679688 193.292969 351.8125 C 194.15625 351.945312 195.390625 352.347656 196.988281 353.011719 C 198.585938 353.679688 200.152344 354.746094 201.683594 356.210938 C 203.214844 357.675781 204.648438 359.640625 205.980469 362.105469 C 208.84375 367.96875 210.277344 375.496094 210.277344 384.6875 C 210.277344 394.011719 208.277344 401.90625 204.28125 408.367188 C 201.949219 412.097656 199.152344 414.996094 195.890625 417.0625 C 192.625 419.125 189.160156 420.191406 185.496094 420.257812 C 181.433594 420.257812 178.101562 419.292969 175.503906 417.359375 C 172.90625 415.429688 171.574219 412.566406 171.507812 408.769531 C 171.441406 404.972656 173.207031 403.105469 176.804688 403.171875 C 178.269531 403.171875 179.503906 403.636719 180.5 404.570312 C 181.5 405.503906 182 406.804688 182 408.46875 C 182 409.667969 181.699219 410.699219 181.101562 411.566406 C 180.5 412.429688 179.96875 412.964844 179.503906 413.164062 C 179.035156 413.363281 178.601562 413.53125 178.203125 413.664062 L 177.804688 413.765625 C 177.804688 413.898438 178.035156 414.097656 178.503906 414.363281 C 178.96875 414.628906 179.835938 414.960938 181.101562 415.363281 C 182.367188 415.761719 183.765625 415.929688 185.296875 415.863281 L 185.898438 415.863281 C 189.894531 415.863281 193.257812 413.730469 195.988281 409.46875 C 198.585938 405.738281 199.886719 399.277344 199.886719 390.082031 Z M 189.09375 393.28125 C 192.292969 393.28125 194.855469 391.648438 196.789062 388.382812 C 198.71875 385.121094 199.71875 380.691406 199.785156 375.09375 C 199.785156 369.898438 199.519531 366.167969 198.988281 363.902344 C 198.851562 363.238281 198.652344 362.570312 198.386719 361.90625 C 198.121094 361.238281 197.652344 360.375 196.988281 359.308594 C 196.320312 358.242188 195.324219 357.34375 193.992188 356.609375 C 192.660156 355.878906 191.09375 355.542969 189.292969 355.609375 C 186.761719 355.609375 184.597656 356.511719 182.800781 358.308594 C 181.402344 359.773438 180.5 361.503906 180.101562 363.503906 C 179.703125 365.503906 179.46875 369 179.402344 373.996094 C 179.402344 379.523438 179.570312 383.253906 179.902344 385.1875 C 180.234375 387.117188 180.902344 388.683594 181.898438 389.882812 C 183.566406 392.148438 185.964844 393.28125 189.09375 393.28125 Z M 189.09375 393.28125 " fill-opacity="1" fill-rule="nonzero"/></g><g clip-path="url(#3bd362f5b1)"><path fill="#000000" d="M 224.265625 359.605469 C 227.996094 354.210938 233.09375 351.515625 239.554688 351.515625 C 242.75 351.515625 245.949219 352.378906 249.144531 354.113281 C 252.34375 355.84375 254.941406 358.90625 256.941406 363.304688 C 259.40625 368.832031 260.636719 376.425781 260.636719 386.085938 C 260.636719 396.410156 259.203125 404.304688 256.339844 409.765625 C 255.007812 412.566406 253.175781 414.796875 250.84375 416.460938 C 248.511719 418.128906 246.480469 419.160156 244.75 419.558594 C 243.019531 419.957031 241.320312 420.191406 239.652344 420.257812 C 237.921875 420.257812 236.191406 420.058594 234.457031 419.660156 C 232.726562 419.257812 230.695312 418.195312 228.363281 416.460938 C 226.03125 414.730469 224.199219 412.5 222.867188 409.765625 C 220.003906 404.304688 218.570312 396.410156 218.570312 386.085938 C 218.570312 374.496094 220.46875 365.667969 224.265625 359.605469 Z M 246.75 358.410156 C 244.75 356.277344 242.386719 355.210938 239.652344 355.210938 C 236.855469 355.210938 234.457031 356.277344 232.460938 358.410156 C 230.792969 360.140625 229.695312 362.539062 229.164062 365.601562 C 228.628906 368.667969 228.363281 375.0625 228.363281 384.789062 C 228.363281 395.3125 228.628906 402.238281 229.164062 405.570312 C 229.695312 408.902344 230.894531 411.53125 232.757812 413.464844 C 234.625 415.460938 236.921875 416.460938 239.652344 416.460938 C 242.316406 416.460938 244.582031 415.460938 246.449219 413.464844 C 248.378906 411.464844 249.578125 408.667969 250.046875 405.070312 C 250.511719 401.472656 250.777344 394.710938 250.84375 384.789062 C 250.84375 375.128906 250.578125 368.765625 250.046875 365.703125 C 249.511719 362.636719 248.414062 360.207031 246.75 358.410156 Z M 246.75 358.410156 " fill-opacity="1" fill-rule="nonzero"/></g><g clip-path="url(#ebbaa2496a)"><path fill="#000000" d="M 274.226562 359.605469 C 277.957031 354.210938 283.050781 351.515625 289.515625 351.515625 C 292.710938 351.515625 295.910156 352.378906 299.105469 354.113281 C 302.304688 355.84375 304.902344 358.90625 306.898438 363.304688 C 309.363281 368.832031 310.597656 376.425781 310.597656 386.085938 C 310.597656 396.410156 309.164062 404.304688 306.300781 409.765625 C 304.96875 412.566406 303.136719 414.796875 300.804688 416.460938 C 298.472656 418.128906 296.441406 419.160156 294.710938 419.558594 C 292.976562 419.957031 291.277344 420.191406 289.613281 420.257812 C 287.882812 420.257812 286.148438 420.058594 284.417969 419.660156 C 282.6875 419.257812 280.652344 418.195312 278.324219 416.460938 C 275.992188 414.730469 274.160156 412.5 272.828125 409.765625 C 269.960938 404.304688 268.53125 396.410156 268.53125 386.085938 C 268.53125 374.496094 270.429688 365.667969 274.226562 359.605469 Z M 296.707031 358.410156 C 294.710938 356.277344 292.34375 355.210938 289.613281 355.210938 C 286.816406 355.210938 284.417969 356.277344 282.417969 358.410156 C 280.753906 360.140625 279.65625 362.539062 279.121094 365.601562 C 278.589844 368.667969 278.324219 375.0625 278.324219 384.789062 C 278.324219 395.3125 278.589844 402.238281 279.121094 405.570312 C 279.65625 408.902344 280.855469 411.53125 282.71875 413.464844 C 284.585938 415.460938 286.882812 416.460938 289.613281 416.460938 C 292.277344 416.460938 294.542969 415.460938 296.40625 413.464844 C 298.339844 411.464844 299.539062 408.667969 300.003906 405.070312 C 300.472656 401.472656 300.738281 394.710938 300.804688 384.789062 C 300.804688 375.128906 300.539062 368.765625 300.003906 365.703125 C 299.472656 362.636719 298.375 360.207031 296.707031 358.410156 Z M 296.707031 358.410156 " fill-opacity="1" fill-rule="nonzero"/></g><path fill="#000000" d="M 399.746094 415.164062 C 399.746094 416.496094 399.046875 417.160156 397.648438 417.160156 C 397.3125 417.160156 396.582031 416.628906 395.449219 415.5625 C 394.316406 414.496094 391.183594 411.398438 386.054688 406.269531 L 375.664062 395.878906 L 365.171875 406.371094 C 358.113281 413.296875 354.480469 416.828125 354.28125 416.960938 C 354.015625 417.09375 353.78125 417.160156 353.582031 417.160156 C 353.050781 417.160156 352.582031 416.960938 352.183594 416.5625 C 351.785156 416.160156 351.550781 415.695312 351.484375 415.164062 C 351.484375 414.695312 351.949219 413.964844 352.882812 412.964844 C 353.816406 411.964844 356.945312 408.800781 362.273438 403.472656 L 372.667969 393.082031 L 362.273438 382.6875 C 356.878906 377.292969 353.75 374.128906 352.882812 373.195312 C 352.015625 372.265625 351.550781 371.53125 351.484375 371 C 351.484375 370.398438 351.683594 369.933594 352.082031 369.597656 C 352.484375 369.265625 352.984375 369.101562 353.582031 369.101562 C 353.914062 369.101562 354.148438 369.132812 354.28125 369.199219 C 354.480469 369.332031 358.113281 372.863281 365.171875 379.792969 L 375.664062 390.28125 L 386.054688 379.890625 C 391.183594 374.761719 394.316406 371.664062 395.449219 370.597656 C 396.582031 369.53125 397.3125 369 397.648438 369 C 399.046875 369 399.746094 369.664062 399.746094 371 C 399.746094 371.464844 399.410156 372.0625 398.746094 372.796875 C 398.078125 373.53125 394.816406 376.792969 388.953125 382.589844 L 378.5625 393.082031 L 388.953125 403.570312 C 394.550781 409.167969 397.746094 412.398438 398.546875 413.265625 C 399.34375 414.128906 399.746094 414.761719 399.746094 415.164062 Z M 399.746094 415.164062 " fill-opacity="1" fill-rule="nonzero"/><path fill="#000000" d="M 458.019531 360.308594 L 456.71875 360.804688 C 455.785156 361.140625 454.453125 361.472656 452.722656 361.804688 C 450.992188 362.140625 449.058594 362.371094 446.925781 362.503906 L 445.027344 362.503906 L 445.027344 357.910156 L 446.925781 357.910156 C 450.058594 357.777344 452.957031 357.277344 455.621094 356.410156 C 458.285156 355.542969 460.148438 354.746094 461.214844 354.011719 C 462.28125 353.277344 463.214844 352.546875 464.011719 351.8125 C 464.148438 351.613281 464.546875 351.515625 465.210938 351.515625 C 465.8125 351.515625 466.378906 351.714844 466.910156 352.113281 L 466.910156 381.988281 L 467.011719 411.964844 C 467.476562 412.429688 467.878906 412.730469 468.210938 412.863281 C 468.542969 412.996094 469.34375 413.132812 470.609375 413.265625 C 471.875 413.398438 473.9375 413.464844 476.804688 413.464844 L 479.402344 413.464844 L 479.402344 418.058594 L 478.300781 418.058594 C 476.902344 417.859375 471.605469 417.761719 462.414062 417.761719 C 453.355469 417.761719 448.125 417.859375 446.726562 418.058594 L 445.527344 418.058594 L 445.527344 413.464844 L 448.125 413.464844 C 449.589844 413.464844 450.855469 413.464844 451.921875 413.464844 C 452.988281 413.464844 453.820312 413.429688 454.421875 413.363281 C 455.019531 413.296875 455.554688 413.199219 456.019531 413.0625 C 456.484375 412.929688 456.753906 412.863281 456.820312 412.863281 C 456.886719 412.863281 457.085938 412.699219 457.417969 412.363281 C 457.75 412.03125 457.953125 411.898438 458.019531 411.964844 Z M 458.019531 360.308594 " fill-opacity="1" fill-rule="nonzero"/><g clip-path="url(#cb865af6b1)"><path fill="#000000" d="M 496.289062 359.605469 C 500.019531 354.210938 505.113281 351.515625 511.574219 351.515625 C 514.773438 351.515625 517.96875 352.378906 521.167969 354.113281 C 524.363281 355.84375 526.960938 358.90625 528.960938 363.304688 C 531.425781 368.832031 532.660156 376.425781 532.660156 386.085938 C 532.660156 396.410156 531.226562 404.304688 528.363281 409.765625 C 527.03125 412.566406 525.199219 414.796875 522.867188 416.460938 C 520.535156 418.128906 518.503906 419.160156 516.769531 419.558594 C 515.039062 419.957031 513.339844 420.191406 511.675781 420.257812 C 509.941406 420.257812 508.210938 420.058594 506.480469 419.660156 C 504.746094 419.257812 502.714844 418.195312 500.382812 416.460938 C 498.050781 414.730469 496.222656 412.5 494.886719 409.765625 C 492.023438 404.304688 490.59375 396.410156 490.59375 386.085938 C 490.59375 374.496094 492.492188 365.667969 496.289062 359.605469 Z M 518.769531 358.410156 C 516.769531 356.277344 514.40625 355.210938 511.675781 355.210938 C 508.878906 355.210938 506.480469 356.277344 504.480469 358.410156 C 502.816406 360.140625 501.714844 362.539062 501.183594 365.601562 C 500.652344 368.667969 500.382812 375.0625 500.382812 384.789062 C 500.382812 395.3125 500.652344 402.238281 501.183594 405.570312 C 501.714844 408.902344 502.914062 411.53125 504.78125 413.464844 C 506.644531 415.460938 508.945312 416.460938 511.675781 416.460938 C 514.339844 416.460938 516.605469 415.460938 518.46875 413.464844 C 520.402344 411.464844 521.601562 408.667969 522.066406 405.070312 C 522.53125 401.472656 522.800781 394.710938 522.867188 384.789062 C 522.867188 375.128906 522.601562 368.765625 522.066406 365.703125 C 521.535156 362.636719 520.433594 360.207031 518.769531 358.410156 Z M 518.769531 358.410156 " fill-opacity="1" fill-rule="nonzero"/></g><path fill="#000000" d="M 545.886719 360.050781 C 545.886719 360.050781 545.886719 359.746094 545.886719 359.132812 C 545.886719 358.519531 546.214844 358.050781 546.875 357.71875 L 587.917969 357.71875 C 588.625 358.097656 588.980469 358.566406 588.980469 359.132812 C 588.980469 359.699219 588.625 360.167969 587.917969 360.546875 L 546.875 360.546875 C 546.214844 360.214844 545.886719 359.746094 545.886719 359.132812 Z M 545.886719 360.050781 " fill-opacity="1" fill-rule="nonzero"/><g clip-path="url(#58a80459e7)"><path fill="#000000" d="M 609.960938 335.960938 L 609.042969 336.316406 C 608.382812 336.550781 607.441406 336.785156 606.214844 337.019531 C 604.992188 337.257812 603.625 337.421875 602.117188 337.515625 L 600.777344 337.515625 L 600.777344 334.265625 L 602.117188 334.265625 C 604.332031 334.171875 606.378906 333.820312 608.265625 333.207031 C 610.148438 332.59375 611.46875 332.03125 612.21875 331.511719 C 612.972656 330.992188 613.632812 330.476562 614.199219 329.957031 C 614.292969 329.816406 614.574219 329.746094 615.046875 329.746094 C 615.46875 329.746094 615.871094 329.886719 616.246094 330.167969 L 616.246094 351.292969 L 616.316406 372.484375 C 616.648438 372.8125 616.929688 373.027344 617.164062 373.121094 C 617.402344 373.214844 617.964844 373.308594 618.859375 373.402344 C 619.753906 373.496094 621.214844 373.542969 623.242188 373.542969 L 625.078125 373.542969 L 625.078125 376.792969 L 624.300781 376.792969 C 623.3125 376.652344 619.566406 376.582031 613.066406 376.582031 C 606.664062 376.582031 602.964844 376.652344 601.976562 376.792969 L 601.128906 376.792969 L 601.128906 373.542969 L 602.964844 373.542969 C 604.003906 373.542969 604.898438 373.542969 605.652344 373.542969 C 606.402344 373.542969 606.992188 373.519531 607.417969 373.472656 C 607.839844 373.425781 608.21875 373.355469 608.546875 373.261719 C 608.875 373.167969 609.066406 373.121094 609.113281 373.121094 C 609.160156 373.121094 609.300781 373.003906 609.535156 372.765625 C 609.769531 372.53125 609.914062 372.4375 609.960938 372.484375 Z M 609.960938 335.960938 " fill-opacity="1" fill-rule="nonzero"/></g></svg>