<svg xmlns="http://www.w3.org/2000/svg" xmlns:xlink="http://www.w3.org/1999/xlink" width="1000" zoomAndPan="magnify" viewBox="0 0 750 749.999995" height="1000" preserveAspectRatio="xMidYMid meet" version="1.0"><defs><clipPath id="4826494f5d"><path d="M 83 337 L 104 337 L 104 424.566406 L 83 424.566406 Z M 83 337 " clip-rule="nonzero"/></clipPath><clipPath id="d33d26dfc5"><path d="M 460 325.433594 L 485 325.433594 L 485 367 L 460 367 Z M 460 325.433594 " clip-rule="nonzero"/></clipPath><clipPath id="502cb193af"><path d="M 496 337 L 518 337 L 518 424.566406 L 496 424.566406 Z M 496 337 " clip-rule="nonzero"/></clipPath></defs><rect x="-75" width="900" fill="#ffffff" y="-74.999999" height="899.999994" fill-opacity="1"/><rect x="-75" width="900" fill="#ffffff" y="-74.999999" height="899.999994" fill-opacity="1"/><g clip-path="url(#4826494f5d)"><path fill="#000000" d="M 83.125 380.789062 C 83.125 376.8125 83.414062 373.035156 83.992188 369.460938 C 84.566406 365.886719 85.230469 362.800781 85.980469 360.207031 C 86.726562 357.613281 87.792969 355.074219 89.179688 352.597656 C 90.5625 350.117188 91.65625 348.183594 92.464844 346.800781 C 93.269531 345.417969 94.480469 343.917969 96.09375 342.304688 C 97.707031 340.691406 98.660156 339.710938 98.945312 339.363281 C 99.234375 339.015625 99.957031 338.414062 101.109375 337.546875 L 102.578125 337.546875 C 103.382812 337.546875 103.789062 337.808594 103.789062 338.324219 C 103.789062 338.5 103.296875 339.105469 102.316406 340.140625 C 101.339844 341.179688 100.15625 342.707031 98.773438 344.726562 C 97.390625 346.742188 95.980469 349.222656 94.539062 352.164062 C 93.097656 355.105469 91.886719 359.082031 90.90625 364.097656 C 89.925781 369.113281 89.4375 374.679688 89.4375 380.789062 C 89.4375 386.902344 89.925781 392.4375 90.90625 397.394531 C 91.886719 402.355469 93.066406 406.359375 94.453125 409.417969 C 95.835938 412.472656 97.246094 414.953125 98.6875 416.855469 C 100.128906 418.757812 101.339844 420.285156 102.316406 421.4375 C 103.296875 422.589844 103.789062 423.195312 103.789062 423.253906 C 103.789062 423.773438 103.355469 424.03125 102.492188 424.03125 L 101.109375 424.03125 L 98.6875 421.957031 C 93.269531 417.054688 89.320312 410.945312 86.84375 403.621094 C 84.367188 396.300781 83.125 388.6875 83.125 380.789062 Z M 83.125 380.789062 " fill-opacity="1" fill-rule="nonzero"/></g><path fill="#000000" d="M 127.042969 352.421875 L 125.917969 352.855469 C 125.113281 353.144531 123.960938 353.433594 122.460938 353.71875 C 120.960938 354.007812 119.292969 354.210938 117.445312 354.324219 L 115.804688 354.324219 L 115.804688 350.347656 L 117.445312 350.347656 C 120.15625 350.230469 122.664062 349.800781 124.96875 349.050781 C 127.273438 348.300781 128.886719 347.609375 129.808594 346.972656 C 130.730469 346.339844 131.539062 345.707031 132.230469 345.070312 C 132.34375 344.898438 132.691406 344.8125 133.265625 344.8125 C 133.785156 344.8125 134.277344 344.984375 134.738281 345.332031 L 134.738281 371.191406 L 134.824219 397.136719 C 135.226562 397.539062 135.574219 397.800781 135.859375 397.914062 C 136.148438 398.03125 136.839844 398.144531 137.9375 398.261719 C 139.03125 398.375 140.816406 398.433594 143.296875 398.433594 L 145.542969 398.433594 L 145.542969 402.410156 L 144.59375 402.410156 C 143.382812 402.238281 138.800781 402.152344 130.847656 402.152344 C 123.007812 402.152344 118.484375 402.238281 117.273438 402.410156 L 116.238281 402.410156 L 116.238281 398.433594 L 118.484375 398.433594 C 119.753906 398.433594 120.847656 398.433594 121.769531 398.433594 C 122.691406 398.433594 123.410156 398.40625 123.929688 398.347656 C 124.449219 398.289062 124.910156 398.203125 125.3125 398.085938 C 125.71875 397.972656 125.949219 397.914062 126.003906 397.914062 C 126.0625 397.914062 126.234375 397.769531 126.523438 397.480469 C 126.8125 397.195312 126.984375 397.078125 127.042969 397.136719 Z M 127.042969 352.421875 " fill-opacity="1" fill-rule="nonzero"/><path fill="#000000" d="M 158.597656 397.222656 C 158.597656 395.839844 159.085938 394.628906 160.066406 393.589844 C 161.046875 392.550781 162.285156 392.035156 163.785156 392.035156 C 165.167969 392.035156 166.378906 392.496094 167.414062 393.417969 C 168.453125 394.339844 169 395.578125 169.058594 397.136719 C 169.058594 398.578125 168.566406 399.816406 167.589844 400.855469 C 166.609375 401.894531 165.371094 402.410156 163.871094 402.410156 C 162.371094 402.410156 161.132812 401.921875 160.152344 400.941406 C 159.171875 399.960938 158.65625 398.722656 158.597656 397.222656 Z M 158.597656 397.222656 " fill-opacity="1" fill-rule="nonzero"/><path fill="#000000" d="M 180.640625 362.800781 C 180.699219 362.6875 181.191406 359.542969 182.113281 353.375 L 183.496094 344.121094 C 183.496094 344.003906 184.070312 343.945312 185.222656 343.945312 L 186.953125 343.945312 L 186.953125 344.292969 C 186.953125 344.871094 187.386719 345.359375 188.25 345.761719 C 189.113281 346.167969 190.613281 346.425781 192.746094 346.542969 C 194.878906 346.65625 199.746094 346.714844 207.355469 346.714844 L 217.816406 346.714844 L 217.816406 350.085938 L 211.9375 358.132812 C 211.417969 358.824219 210.554688 359.976562 209.34375 361.589844 C 208.132812 363.203125 207.355469 364.269531 207.007812 364.789062 C 206.664062 365.308594 206.058594 366.230469 205.195312 367.558594 C 204.328125 368.882812 203.753906 369.921875 203.464844 370.671875 C 203.175781 371.421875 202.773438 372.488281 202.253906 373.871094 C 201.734375 375.253906 201.359375 376.582031 201.128906 377.851562 C 200.898438 379.117188 200.667969 380.675781 200.4375 382.519531 C 200.207031 384.363281 200.035156 386.324219 199.921875 388.402344 C 199.804688 390.476562 199.71875 392.839844 199.660156 395.492188 C 199.660156 396.300781 199.660156 397.105469 199.660156 397.914062 C 199.660156 398.722656 199.632812 399.414062 199.574219 399.988281 L 199.574219 400.769531 C 199.34375 401.75 198.796875 402.585938 197.933594 403.277344 C 197.066406 403.96875 196.085938 404.3125 194.992188 404.3125 C 194.359375 404.3125 193.753906 404.226562 193.175781 404.054688 C 192.601562 403.882812 191.996094 403.335938 191.363281 402.410156 C 190.726562 401.488281 190.410156 400.335938 190.410156 398.953125 C 190.410156 389.84375 193.207031 380.386719 198.796875 370.585938 C 199.949219 368.738281 202.371094 365.25 206.058594 360.121094 L 210.035156 354.671875 L 201.996094 354.671875 C 191.96875 354.671875 186.695312 354.84375 186.175781 355.191406 C 185.828125 355.363281 185.511719 356.054688 185.222656 357.265625 C 184.9375 358.476562 184.648438 359.714844 184.359375 360.984375 L 184.101562 362.800781 L 184.101562 363.0625 L 180.640625 363.0625 Z M 180.640625 362.800781 " fill-opacity="1" fill-rule="nonzero"/><path fill="#000000" d="M 225.164062 366.347656 C 225.164062 366.347656 225.164062 364.128906 225.164062 359.6875 C 225.164062 355.25 226.71875 351.671875 229.832031 348.964844 C 232.945312 346.253906 236.519531 344.871094 240.550781 344.8125 C 244.644531 344.8125 248.273438 346.023438 251.445312 348.445312 C 254.613281 350.867188 256.199219 354.007812 256.199219 357.871094 C 256.199219 359.601562 255.882812 361.214844 255.25 362.714844 C 254.613281 364.214844 253.867188 365.425781 253 366.347656 C 252.136719 367.269531 251.242188 368.078125 250.320312 368.769531 C 249.398438 369.460938 248.648438 369.980469 248.074219 370.324219 C 247.496094 370.671875 247.179688 370.902344 247.121094 371.015625 L 248.332031 371.796875 C 249.140625 372.371094 249.945312 372.949219 250.753906 373.527344 C 251.558594 374.101562 252.019531 374.417969 252.136719 374.476562 C 256.457031 377.878906 258.621094 382.175781 258.621094 387.363281 C 258.621094 391.917969 256.949219 395.867188 253.605469 399.210938 C 250.261719 402.554688 245.941406 404.257812 240.636719 404.3125 C 235.453125 404.3125 231.1875 402.84375 227.84375 399.902344 C 224.5 396.964844 222.828125 393.332031 222.828125 389.007812 C 222.828125 382.78125 226.546875 377.589844 233.980469 373.4375 L 232.425781 372.316406 C 231.214844 371.566406 230.4375 370.988281 230.089844 370.585938 C 226.804688 367.757812 225.164062 364.128906 225.164062 359.6875 Z M 243.835938 369.027344 L 244.355469 368.683594 C 244.703125 368.453125 244.960938 368.277344 245.132812 368.164062 C 245.308594 368.046875 245.59375 367.847656 246 367.558594 C 246.402344 367.269531 246.746094 366.980469 247.035156 366.691406 C 247.324219 366.40625 247.640625 366.058594 247.988281 365.65625 C 248.332031 365.25 248.648438 364.875 248.9375 364.53125 C 249.226562 364.183594 249.515625 363.722656 249.800781 363.148438 C 250.089844 362.570312 250.351562 362.082031 250.582031 361.675781 C 250.8125 361.273438 250.953125 360.695312 251.011719 359.945312 C 251.070312 359.199219 251.128906 358.5625 251.183594 358.042969 C 251.183594 355.566406 250.351562 353.460938 248.679688 351.730469 C 247.007812 350 245.078125 348.90625 242.886719 348.445312 C 242.484375 348.386719 241.53125 348.359375 240.035156 348.359375 C 237.671875 348.359375 235.453125 349.109375 233.375 350.605469 C 231.300781 352.105469 230.234375 353.980469 230.179688 356.226562 C 230.179688 357.554688 230.550781 358.765625 231.300781 359.859375 C 232.050781 360.957031 232.800781 361.792969 233.550781 362.367188 C 234.296875 362.945312 235.738281 363.867188 237.871094 365.136719 C 238.277344 365.425781 238.59375 365.625 238.824219 365.742188 Z M 240.726562 400.59375 C 244.066406 400.59375 246.949219 399.617188 249.371094 397.65625 C 251.789062 395.695312 253 393.332031 253 390.5625 C 253 389.582031 252.855469 388.660156 252.570312 387.796875 C 252.28125 386.929688 251.933594 386.210938 251.53125 385.632812 C 251.128906 385.058594 250.492188 384.421875 249.628906 383.730469 C 248.765625 383.039062 248.101562 382.519531 247.640625 382.175781 C 247.179688 381.828125 246.34375 381.28125 245.132812 380.53125 C 243.921875 379.78125 243.144531 379.292969 242.800781 379.058594 C 241.992188 378.542969 241.128906 377.992188 240.207031 377.417969 C 239.285156 376.839844 238.535156 376.351562 237.957031 375.945312 L 237.265625 375.515625 C 236.921875 375.515625 236.085938 376.003906 234.761719 376.984375 C 233.433594 377.964844 232.050781 379.550781 230.609375 381.742188 C 229.167969 383.933594 228.421875 386.296875 228.363281 388.832031 C 228.363281 392.234375 229.601562 395.03125 232.078125 397.222656 C 234.558594 399.414062 237.441406 400.539062 240.726562 400.59375 Z M 240.726562 400.59375 " fill-opacity="1" fill-rule="nonzero"/><path fill="#000000" d="M 336.011719 399.902344 C 336.011719 401.058594 335.40625 401.632812 334.195312 401.632812 C 333.90625 401.632812 333.273438 401.171875 332.292969 400.25 C 331.3125 399.328125 328.605469 396.644531 324.167969 392.207031 L 315.175781 383.210938 L 306.097656 392.292969 C 299.988281 398.289062 296.847656 401.34375 296.675781 401.460938 C 296.445312 401.574219 296.242188 401.632812 296.070312 401.632812 C 295.609375 401.632812 295.207031 401.460938 294.859375 401.113281 C 294.515625 400.769531 294.3125 400.363281 294.253906 399.902344 C 294.253906 399.5 294.660156 398.867188 295.464844 398 C 296.273438 397.136719 298.980469 394.398438 303.589844 389.785156 L 312.582031 380.789062 L 303.589844 371.796875 C 298.921875 367.125 296.214844 364.386719 295.464844 363.578125 C 294.714844 362.773438 294.3125 362.136719 294.253906 361.675781 C 294.253906 361.15625 294.425781 360.753906 294.773438 360.464844 C 295.121094 360.179688 295.550781 360.035156 296.070312 360.035156 C 296.359375 360.035156 296.558594 360.0625 296.675781 360.121094 C 296.847656 360.234375 299.988281 363.292969 306.097656 369.289062 L 315.175781 378.367188 L 324.167969 369.375 C 328.605469 364.933594 331.3125 362.253906 332.292969 361.332031 C 333.273438 360.410156 333.90625 359.945312 334.195312 359.945312 C 335.40625 359.945312 336.011719 360.523438 336.011719 361.675781 C 336.011719 362.082031 335.722656 362.597656 335.144531 363.234375 C 334.570312 363.867188 331.746094 366.691406 326.671875 371.710938 L 317.683594 380.789062 L 326.671875 389.871094 C 331.515625 394.714844 334.28125 397.511719 334.972656 398.261719 C 335.664062 399.011719 336.011719 399.558594 336.011719 399.902344 Z M 336.011719 399.902344 " fill-opacity="1" fill-rule="nonzero"/><path fill="#000000" d="M 386.429688 352.421875 L 385.304688 352.855469 C 384.496094 353.144531 383.34375 353.433594 381.847656 353.71875 C 380.347656 354.007812 378.675781 354.210938 376.832031 354.324219 L 375.1875 354.324219 L 375.1875 350.347656 L 376.832031 350.347656 C 379.539062 350.230469 382.046875 349.800781 384.351562 349.050781 C 386.660156 348.300781 388.273438 347.609375 389.195312 346.972656 C 390.117188 346.339844 390.921875 345.707031 391.613281 345.070312 C 391.730469 344.898438 392.074219 344.8125 392.652344 344.8125 C 393.171875 344.8125 393.660156 344.984375 394.121094 345.332031 L 394.121094 371.191406 L 394.207031 397.136719 C 394.613281 397.539062 394.957031 397.800781 395.246094 397.914062 C 395.535156 398.03125 396.226562 398.144531 397.320312 398.261719 C 398.414062 398.375 400.203125 398.433594 402.679688 398.433594 L 404.929688 398.433594 L 404.929688 402.410156 L 403.976562 402.410156 C 402.765625 402.238281 398.183594 402.152344 390.230469 402.152344 C 382.394531 402.152344 377.871094 402.238281 376.660156 402.410156 L 375.621094 402.410156 L 375.621094 398.433594 L 377.871094 398.433594 C 379.136719 398.433594 380.230469 398.433594 381.15625 398.433594 C 382.078125 398.433594 382.796875 398.40625 383.316406 398.347656 C 383.835938 398.289062 384.296875 398.203125 384.699219 398.085938 C 385.101562 397.972656 385.332031 397.914062 385.390625 397.914062 C 385.449219 397.914062 385.621094 397.769531 385.910156 397.480469 C 386.199219 397.195312 386.371094 397.078125 386.429688 397.136719 Z M 386.429688 352.421875 " fill-opacity="1" fill-rule="nonzero"/><path fill="#000000" d="M 419.539062 351.816406 C 422.765625 347.148438 427.175781 344.8125 432.765625 344.8125 C 435.53125 344.8125 438.296875 345.5625 441.0625 347.0625 C 443.832031 348.558594 446.078125 351.210938 447.808594 355.015625 C 449.941406 359.804688 451.007812 366.375 451.007812 374.734375 C 451.007812 383.671875 449.765625 390.503906 447.289062 395.234375 C 446.136719 397.65625 444.550781 399.585938 442.535156 401.027344 C 440.515625 402.46875 438.757812 403.363281 437.261719 403.707031 C 435.761719 404.054688 434.292969 404.257812 432.851562 404.3125 C 431.351562 404.3125 429.855469 404.140625 428.355469 403.796875 C 426.859375 403.449219 425.101562 402.527344 423.082031 401.027344 C 421.066406 399.527344 419.480469 397.597656 418.328125 395.234375 C 415.851562 390.503906 414.609375 383.671875 414.609375 374.734375 C 414.609375 364.703125 416.253906 357.0625 419.539062 351.816406 Z M 438.988281 350.78125 C 437.261719 348.933594 435.214844 348.011719 432.851562 348.011719 C 430.429688 348.011719 428.355469 348.933594 426.628906 350.78125 C 425.1875 352.277344 424.234375 354.355469 423.773438 357.007812 C 423.3125 359.660156 423.082031 365.195312 423.082031 373.613281 C 423.082031 382.722656 423.3125 388.71875 423.773438 391.601562 C 424.234375 394.484375 425.273438 396.761719 426.886719 398.433594 C 428.5 400.164062 430.488281 401.027344 432.851562 401.027344 C 435.15625 401.027344 437.117188 400.164062 438.730469 398.433594 C 440.402344 396.703125 441.4375 394.28125 441.84375 391.167969 C 442.246094 388.054688 442.476562 382.203125 442.535156 373.613281 C 442.535156 365.25 442.304688 359.746094 441.84375 357.09375 C 441.382812 354.441406 440.429688 352.335938 438.988281 350.78125 Z M 438.988281 350.78125 " fill-opacity="1" fill-rule="nonzero"/><g clip-path="url(#d33d26dfc5)"><path fill="#000000" d="M 463.980469 340.460938 C 462.878906 340.460938 462.003906 340.09375 461.351562 339.359375 C 460.699219 338.628906 460.371094 337.730469 460.371094 336.671875 C 460.371094 333.777344 461.453125 331.269531 463.613281 329.148438 C 465.773438 327.03125 468.460938 325.96875 471.679688 325.96875 C 475.386719 325.96875 478.484375 327.113281 480.96875 329.394531 C 483.457031 331.675781 484.71875 334.632812 484.761719 338.261719 C 484.761719 340.011719 484.351562 341.683594 483.539062 343.273438 C 482.722656 344.863281 481.746094 346.25 480.605469 347.433594 C 479.464844 348.613281 477.832031 350.121094 475.714844 351.957031 C 474.246094 353.21875 472.210938 355.097656 469.601562 357.582031 L 465.996094 361.007812 L 470.640625 361.066406 C 477.039062 361.066406 480.441406 360.964844 480.847656 360.761719 C 481.132812 360.679688 481.621094 358.867188 482.316406 355.320312 L 482.316406 355.136719 L 484.761719 355.136719 L 484.761719 355.320312 C 484.71875 355.441406 484.453125 357.296875 483.964844 360.882812 C 483.476562 364.472656 483.171875 366.347656 483.046875 366.507812 L 483.046875 366.691406 L 460.371094 366.691406 L 460.371094 364.796875 C 460.371094 364.511719 460.496094 364.207031 460.738281 363.878906 C 460.984375 363.554688 461.59375 362.839844 462.574219 361.742188 C 463.753906 360.4375 464.773438 359.292969 465.628906 358.316406 C 465.996094 357.910156 466.6875 357.15625 467.707031 356.054688 C 468.726562 354.953125 469.417969 354.199219 469.785156 353.792969 C 470.152344 353.382812 470.742188 352.710938 471.558594 351.773438 C 472.371094 350.835938 472.945312 350.144531 473.269531 349.695312 C 473.59375 349.246094 474.0625 348.632812 474.675781 347.859375 C 475.285156 347.085938 475.714844 346.433594 475.957031 345.902344 C 476.203125 345.375 476.507812 344.78125 476.875 344.128906 C 477.242188 343.476562 477.507812 342.824219 477.671875 342.171875 C 477.832031 341.523438 477.976562 340.910156 478.097656 340.339844 C 478.21875 339.769531 478.28125 339.097656 478.28125 338.320312 C 478.28125 335.753906 477.589844 333.53125 476.203125 331.65625 C 474.816406 329.78125 472.839844 328.84375 470.273438 328.84375 C 468.929688 328.84375 467.75 329.191406 466.730469 329.882812 C 465.710938 330.578125 464.996094 331.25 464.589844 331.902344 C 464.183594 332.554688 463.980469 332.941406 463.980469 333.0625 C 463.980469 333.105469 464.082031 333.125 464.285156 333.125 C 465.019531 333.125 465.773438 333.410156 466.546875 333.980469 C 467.320312 334.550781 467.707031 335.488281 467.707031 336.792969 C 467.707031 337.8125 467.382812 338.667969 466.730469 339.359375 C 466.078125 340.054688 465.160156 340.421875 463.980469 340.460938 Z M 463.980469 340.460938 " fill-opacity="1" fill-rule="nonzero"/></g><g clip-path="url(#502cb193af)"><path fill="#000000" d="M 497.394531 337.632812 L 497.742188 337.546875 C 498.027344 337.546875 498.316406 337.546875 498.605469 337.546875 L 499.644531 337.546875 L 502.0625 339.621094 C 507.480469 344.523438 511.429688 350.636719 513.90625 357.957031 C 516.386719 365.28125 517.625 372.890625 517.625 380.789062 C 517.625 384.710938 517.335938 388.488281 516.761719 392.121094 C 516.183594 395.753906 515.519531 398.835938 514.773438 401.375 C 514.023438 403.910156 512.957031 406.449219 511.574219 408.984375 C 510.191406 411.523438 509.09375 413.453125 508.289062 414.777344 C 507.480469 416.105469 506.300781 417.574219 504.742188 419.191406 C 503.1875 420.804688 502.265625 421.753906 501.976562 422.042969 C 501.6875 422.332031 501.027344 422.878906 499.988281 423.6875 C 499.816406 423.859375 499.699219 423.976562 499.644531 424.03125 L 498.605469 424.03125 C 498.144531 424.03125 497.828125 424.03125 497.65625 424.03125 C 497.480469 424.03125 497.335938 423.945312 497.222656 423.773438 C 497.105469 423.601562 497.019531 423.339844 496.964844 422.996094 C 497.019531 422.9375 497.335938 422.5625 497.914062 421.871094 C 506.847656 412.589844 511.3125 398.894531 511.3125 380.789062 C 511.3125 362.6875 506.847656 348.992188 497.914062 339.710938 C 497.335938 339.015625 497.019531 338.644531 496.964844 338.585938 C 496.964844 338.125 497.105469 337.808594 497.394531 337.632812 Z M 497.394531 337.632812 " fill-opacity="1" fill-rule="nonzero"/></g><path fill="#000000" d="M 599.511719 399.902344 C 599.511719 401.058594 598.90625 401.632812 597.695312 401.632812 C 597.40625 401.632812 596.773438 401.171875 595.792969 400.25 C 594.8125 399.328125 592.105469 396.644531 587.667969 392.207031 L 578.675781 383.210938 L 569.597656 392.292969 C 563.488281 398.289062 560.347656 401.34375 560.175781 401.460938 C 559.945312 401.574219 559.742188 401.632812 559.570312 401.632812 C 559.109375 401.632812 558.707031 401.460938 558.359375 401.113281 C 558.015625 400.769531 557.8125 400.363281 557.753906 399.902344 C 557.753906 399.5 558.160156 398.867188 558.964844 398 C 559.773438 397.136719 562.480469 394.398438 567.089844 389.785156 L 576.082031 380.789062 L 567.089844 371.796875 C 562.421875 367.125 559.714844 364.386719 558.964844 363.578125 C 558.214844 362.773438 557.8125 362.136719 557.753906 361.675781 C 557.753906 361.15625 557.925781 360.753906 558.273438 360.464844 C 558.621094 360.179688 559.050781 360.035156 559.570312 360.035156 C 559.859375 360.035156 560.058594 360.0625 560.175781 360.121094 C 560.347656 360.234375 563.488281 363.292969 569.597656 369.289062 L 578.675781 378.367188 L 587.667969 369.375 C 592.105469 364.933594 594.8125 362.253906 595.792969 361.332031 C 596.773438 360.410156 597.40625 359.945312 597.695312 359.945312 C 598.90625 359.945312 599.511719 360.523438 599.511719 361.675781 C 599.511719 362.082031 599.222656 362.597656 598.644531 363.234375 C 598.070312 363.867188 595.246094 366.691406 590.171875 371.710938 L 581.183594 380.789062 L 590.171875 389.871094 C 595.015625 394.714844 597.78125 397.511719 598.472656 398.261719 C 599.164062 399.011719 599.511719 399.558594 599.511719 399.902344 Z M 599.511719 399.902344 " fill-opacity="1" fill-rule="nonzero"/><path fill="#000000" d="M 645.691406 388.832031 C 645.691406 390.21875 645.230469 391.371094 644.308594 392.292969 C 643.386719 393.214844 642.261719 393.675781 640.9375 393.675781 L 640.332031 393.675781 C 642.984375 398.230469 646.5 400.507812 650.878906 400.507812 C 654.914062 400.507812 657.851562 398.777344 659.695312 395.320312 C 660.792969 393.417969 661.339844 389.726562 661.339844 384.25 C 661.339844 378.3125 660.5625 374.304688 659.003906 372.226562 C 657.507812 370.324219 655.835938 369.375 653.992188 369.375 L 653.472656 369.375 C 648.976562 369.375 645.578125 371.335938 643.269531 375.253906 C 643.039062 375.660156 642.839844 375.890625 642.667969 375.945312 C 642.492188 376.003906 642.0625 376.0625 641.371094 376.121094 C 640.390625 376.121094 639.84375 375.945312 639.726562 375.601562 C 639.613281 375.371094 639.554688 370.324219 639.554688 360.464844 L 639.554688 349.308594 C 639.554688 346.425781 639.699219 344.984375 639.984375 344.984375 C 640.101562 344.871094 640.214844 344.8125 640.332031 344.8125 C 640.390625 344.8125 640.996094 345.042969 642.148438 345.503906 C 643.300781 345.964844 644.886719 346.425781 646.902344 346.886719 C 648.917969 347.347656 651.082031 347.578125 653.386719 347.578125 C 657.476562 347.578125 661.398438 346.773438 665.144531 345.15625 C 665.605469 344.925781 665.980469 344.8125 666.265625 344.8125 C 666.726562 344.8125 666.957031 345.332031 666.957031 346.367188 L 666.957031 347.492188 C 662.234375 353.085938 656.324219 355.882812 649.234375 355.882812 C 647.449219 355.882812 645.835938 355.710938 644.394531 355.363281 L 643.53125 355.191406 L 643.53125 370.066406 C 644.625 369.257812 645.488281 368.625 646.125 368.164062 C 646.757812 367.703125 647.796875 367.242188 649.234375 366.78125 C 650.675781 366.316406 652.148438 366.085938 653.644531 366.085938 C 658.3125 366.085938 662.261719 367.960938 665.488281 371.710938 C 668.714844 375.457031 670.328125 379.898438 670.328125 385.027344 C 670.328125 390.332031 668.484375 394.859375 664.796875 398.605469 C 661.109375 402.355469 656.613281 404.257812 651.3125 404.3125 C 646.644531 404.3125 642.898438 402.757812 640.074219 399.644531 C 637.25 396.53125 635.835938 393.011719 635.835938 389.09375 C 635.835938 387.710938 636.152344 386.613281 636.789062 385.804688 C 637.421875 385 638.085938 384.480469 638.777344 384.25 C 639.46875 384.019531 640.128906 383.902344 640.765625 383.902344 C 642.203125 383.902344 643.386719 384.394531 644.308594 385.375 C 645.230469 386.355469 645.691406 387.507812 645.691406 388.832031 Z M 645.691406 388.832031 " fill-opacity="1" fill-rule="nonzero"/></svg>