<svg xmlns="http://www.w3.org/2000/svg" xmlns:xlink="http://www.w3.org/1999/xlink" width="1000" zoomAndPan="magnify" viewBox="0 0 750 749.999995" height="1000" preserveAspectRatio="xMidYMid meet" version="1.0"><defs><clipPath id="cb15f13532"><path d="M 45 340 L 65 340 L 65 420.804688 L 45 420.804688 Z M 45 340 " clip-rule="nonzero"/></clipPath><clipPath id="6c20122c2f"><path d="M 513 329.195312 L 538 329.195312 L 538 369 L 513 369 Z M 513 329.195312 " clip-rule="nonzero"/></clipPath><clipPath id="95c2110ce6"><path d="M 548 340 L 568 340 L 568 420.804688 L 548 420.804688 Z M 548 340 " clip-rule="nonzero"/></clipPath></defs><rect x="-75" width="900" fill="#ffffff" y="-74.999999" height="899.999994" fill-opacity="1"/><rect x="-75" width="900" fill="#ffffff" y="-74.999999" height="899.999994" fill-opacity="1"/><g clip-path="url(#cb15f13532)"><path fill="#000000" d="M 45.023438 380.328125 C 45.023438 376.648438 45.289062 373.15625 45.820312 369.847656 C 46.355469 366.542969 46.96875 363.6875 47.664062 361.289062 C 48.355469 358.886719 49.34375 356.542969 50.621094 354.25 C 51.902344 351.953125 52.917969 350.167969 53.664062 348.886719 C 54.410156 347.609375 55.53125 346.222656 57.023438 344.726562 C 58.519531 343.234375 59.398438 342.328125 59.664062 342.007812 C 59.933594 341.6875 60.597656 341.128906 61.664062 340.328125 L 63.027344 340.328125 C 63.773438 340.328125 64.144531 340.566406 64.144531 341.046875 C 64.144531 341.207031 63.691406 341.769531 62.785156 342.726562 C 61.878906 343.6875 60.785156 345.101562 59.503906 346.96875 C 58.226562 348.835938 56.917969 351.128906 55.585938 353.847656 C 54.25 356.566406 53.128906 360.25 52.222656 364.886719 C 51.316406 369.527344 50.863281 374.675781 50.863281 380.328125 C 50.863281 385.980469 51.316406 391.101562 52.222656 395.6875 C 53.128906 400.273438 54.222656 403.980469 55.503906 406.808594 C 56.785156 409.632812 58.089844 411.925781 59.425781 413.6875 C 60.757812 415.449219 61.878906 416.859375 62.785156 417.925781 C 63.691406 418.996094 64.144531 419.554688 64.144531 419.609375 C 64.144531 420.085938 63.746094 420.328125 62.945312 420.328125 L 61.664062 420.328125 L 59.425781 418.40625 C 54.410156 413.875 50.757812 408.222656 48.460938 401.449219 C 46.167969 394.675781 45.023438 387.632812 45.023438 380.328125 Z M 45.023438 380.328125 " fill-opacity="1" fill-rule="nonzero"/></g><path fill="#000000" d="M 76.308594 353.527344 C 79.296875 349.207031 83.378906 347.046875 88.550781 347.046875 C 91.113281 347.046875 93.671875 347.742188 96.234375 349.128906 C 98.792969 350.515625 100.875 352.96875 102.476562 356.488281 C 104.449219 360.914062 105.433594 366.996094 105.433594 374.726562 C 105.433594 382.996094 104.289062 389.316406 101.996094 393.6875 C 100.925781 395.929688 99.460938 397.714844 97.59375 399.046875 C 95.726562 400.382812 94.097656 401.207031 92.710938 401.527344 C 91.324219 401.847656 89.964844 402.035156 88.632812 402.085938 C 87.246094 402.085938 85.859375 401.929688 84.46875 401.609375 C 83.082031 401.289062 81.457031 400.433594 79.589844 399.046875 C 77.722656 397.660156 76.253906 395.875 75.1875 393.6875 C 72.894531 389.316406 71.746094 382.996094 71.746094 374.726562 C 71.746094 365.449219 73.269531 358.382812 76.308594 353.527344 Z M 94.3125 352.566406 C 92.710938 350.863281 90.820312 350.007812 88.632812 350.007812 C 86.390625 350.007812 84.46875 350.863281 82.871094 352.566406 C 81.535156 353.953125 80.65625 355.875 80.230469 358.328125 C 79.804688 360.78125 79.589844 365.902344 79.589844 373.6875 C 79.589844 382.113281 79.804688 387.660156 80.230469 390.328125 C 80.65625 392.996094 81.617188 395.101562 83.109375 396.648438 C 84.605469 398.246094 86.445312 399.046875 88.632812 399.046875 C 90.765625 399.046875 92.578125 398.246094 94.074219 396.648438 C 95.621094 395.046875 96.578125 392.808594 96.953125 389.929688 C 97.328125 387.046875 97.539062 381.632812 97.59375 373.6875 C 97.59375 365.953125 97.378906 360.863281 96.953125 358.40625 C 96.527344 355.953125 95.644531 354.007812 94.3125 352.566406 Z M 94.3125 352.566406 " fill-opacity="1" fill-rule="nonzero"/><path fill="#000000" d="M 114.878906 395.527344 C 114.878906 394.246094 115.332031 393.128906 116.238281 392.167969 C 117.144531 391.207031 118.292969 390.726562 119.679688 390.726562 C 120.957031 390.726562 122.078125 391.15625 123.039062 392.007812 C 124 392.859375 124.507812 394.007812 124.558594 395.449219 C 124.558594 396.78125 124.105469 397.929688 123.199219 398.886719 C 122.292969 399.847656 121.144531 400.328125 119.757812 400.328125 C 118.371094 400.328125 117.226562 399.875 116.316406 398.96875 C 115.410156 398.0625 114.929688 396.914062 114.878906 395.527344 Z M 114.878906 395.527344 " fill-opacity="1" fill-rule="nonzero"/><path fill="#000000" d="M 147.925781 354.089844 L 146.882812 354.488281 C 146.136719 354.753906 145.070312 355.019531 143.683594 355.289062 C 142.296875 355.554688 140.75 355.742188 139.042969 355.847656 L 137.523438 355.847656 L 137.523438 352.167969 L 139.042969 352.167969 C 141.550781 352.0625 143.871094 351.660156 146.003906 350.96875 C 148.136719 350.273438 149.632812 349.636719 150.484375 349.046875 C 151.339844 348.460938 152.085938 347.875 152.726562 347.289062 C 152.832031 347.128906 153.152344 347.046875 153.6875 347.046875 C 154.167969 347.046875 154.621094 347.207031 155.046875 347.527344 L 155.046875 371.449219 L 155.125 395.449219 C 155.5 395.820312 155.820312 396.0625 156.085938 396.167969 C 156.355469 396.273438 156.992188 396.382812 158.007812 396.488281 C 159.019531 396.59375 160.675781 396.648438 162.96875 396.648438 L 165.046875 396.648438 L 165.046875 400.328125 L 164.167969 400.328125 C 163.046875 400.167969 158.808594 400.085938 151.445312 400.085938 C 144.191406 400.085938 140.003906 400.167969 138.882812 400.328125 L 137.921875 400.328125 L 137.921875 396.648438 L 140.003906 396.648438 C 141.175781 396.648438 142.191406 396.648438 143.042969 396.648438 C 143.898438 396.648438 144.5625 396.621094 145.042969 396.566406 C 145.523438 396.515625 145.953125 396.433594 146.324219 396.328125 C 146.699219 396.222656 146.910156 396.167969 146.964844 396.167969 C 147.019531 396.167969 147.179688 396.035156 147.445312 395.769531 C 147.710938 395.5 147.871094 395.394531 147.925781 395.449219 Z M 147.925781 354.089844 " fill-opacity="1" fill-rule="nonzero"/><path fill="#000000" d="M 187.933594 354.089844 L 186.894531 354.488281 C 186.148438 354.753906 185.078125 355.019531 183.691406 355.289062 C 182.304688 355.554688 180.757812 355.742188 179.050781 355.847656 L 177.53125 355.847656 L 177.53125 352.167969 L 179.050781 352.167969 C 181.558594 352.0625 183.878906 351.660156 186.011719 350.96875 C 188.148438 350.273438 189.640625 349.636719 190.496094 349.046875 C 191.347656 348.460938 192.09375 347.875 192.734375 347.289062 C 192.839844 347.128906 193.160156 347.046875 193.695312 347.046875 C 194.175781 347.046875 194.628906 347.207031 195.054688 347.527344 L 195.054688 371.449219 L 195.136719 395.449219 C 195.507812 395.820312 195.828125 396.0625 196.097656 396.167969 C 196.363281 396.273438 197.003906 396.382812 198.015625 396.488281 C 199.03125 396.59375 200.683594 396.648438 202.976562 396.648438 L 205.058594 396.648438 L 205.058594 400.328125 L 204.175781 400.328125 C 203.058594 400.167969 198.816406 400.085938 191.453125 400.085938 C 184.199219 400.085938 180.011719 400.167969 178.890625 400.328125 L 177.933594 400.328125 L 177.933594 396.648438 L 180.011719 396.648438 C 181.1875 396.648438 182.199219 396.648438 183.054688 396.648438 C 183.90625 396.648438 184.574219 396.621094 185.054688 396.566406 C 185.535156 396.515625 185.960938 396.433594 186.332031 396.328125 C 186.707031 396.222656 186.921875 396.167969 186.972656 396.167969 C 187.027344 396.167969 187.1875 396.035156 187.453125 395.769531 C 187.71875 395.5 187.878906 395.394531 187.933594 395.449219 Z M 187.933594 354.089844 " fill-opacity="1" fill-rule="nonzero"/><path fill="#000000" d="M 227.941406 354.089844 L 226.902344 354.488281 C 226.15625 354.753906 225.089844 355.019531 223.703125 355.289062 C 222.316406 355.554688 220.769531 355.742188 219.0625 355.847656 L 217.539062 355.847656 L 217.539062 352.167969 L 219.0625 352.167969 C 221.566406 352.0625 223.890625 351.660156 226.023438 350.96875 C 228.15625 350.273438 229.648438 349.636719 230.503906 349.046875 C 231.355469 348.460938 232.105469 347.875 232.742188 347.289062 C 232.851562 347.128906 233.171875 347.046875 233.703125 347.046875 C 234.183594 347.046875 234.636719 347.207031 235.066406 347.527344 L 235.066406 371.449219 L 235.144531 395.449219 C 235.519531 395.820312 235.839844 396.0625 236.105469 396.167969 C 236.371094 396.273438 237.011719 396.382812 238.023438 396.488281 C 239.039062 396.59375 240.691406 396.648438 242.988281 396.648438 L 245.066406 396.648438 L 245.066406 400.328125 L 244.1875 400.328125 C 243.066406 400.167969 238.824219 400.085938 231.464844 400.085938 C 224.207031 400.085938 220.019531 400.167969 218.902344 400.328125 L 217.941406 400.328125 L 217.941406 396.648438 L 220.019531 396.648438 C 221.195312 396.648438 222.207031 396.648438 223.0625 396.648438 C 223.914062 396.648438 224.582031 396.621094 225.0625 396.566406 C 225.542969 396.515625 225.96875 396.433594 226.34375 396.328125 C 226.714844 396.222656 226.929688 396.167969 226.984375 396.167969 C 227.035156 396.167969 227.195312 396.035156 227.464844 395.769531 C 227.730469 395.5 227.890625 395.394531 227.941406 395.449219 Z M 227.941406 354.089844 " fill-opacity="1" fill-rule="nonzero"/><path fill="#000000" d="M 259.628906 366.007812 C 258.191406 366.007812 257.042969 365.527344 256.1875 364.566406 C 255.335938 363.609375 254.910156 362.433594 254.910156 361.046875 C 254.910156 357.261719 256.324219 353.980469 259.148438 351.207031 C 261.976562 348.433594 265.5 347.046875 269.710938 347.046875 C 274.566406 347.046875 278.621094 348.542969 281.875 351.527344 C 285.128906 354.515625 286.78125 358.382812 286.835938 363.128906 C 286.835938 365.421875 286.304688 367.609375 285.234375 369.6875 C 284.167969 371.769531 282.890625 373.582031 281.394531 375.128906 C 279.902344 376.675781 277.769531 378.648438 274.992188 381.046875 C 273.074219 382.703125 270.40625 385.15625 266.992188 388.40625 L 262.269531 392.886719 L 268.351562 392.96875 C 276.726562 392.96875 281.183594 392.835938 281.714844 392.566406 C 282.089844 392.460938 282.730469 390.085938 283.636719 385.449219 L 283.636719 385.207031 L 286.835938 385.207031 L 286.835938 385.449219 C 286.78125 385.609375 286.4375 388.035156 285.796875 392.726562 C 285.15625 397.421875 284.757812 399.875 284.597656 400.085938 L 284.597656 400.328125 L 254.910156 400.328125 L 254.910156 397.847656 C 254.910156 397.472656 255.070312 397.074219 255.390625 396.648438 C 255.710938 396.222656 256.507812 395.289062 257.789062 393.847656 C 259.335938 392.140625 260.671875 390.648438 261.789062 389.367188 C 262.269531 388.835938 263.175781 387.847656 264.511719 386.40625 C 265.84375 384.96875 266.75 383.980469 267.230469 383.449219 C 267.710938 382.914062 268.484375 382.035156 269.550781 380.808594 C 270.621094 379.582031 271.367188 378.675781 271.792969 378.089844 C 272.21875 377.5 272.832031 376.703125 273.632812 375.6875 C 274.433594 374.675781 274.992188 373.820312 275.3125 373.128906 C 275.632812 372.433594 276.035156 371.660156 276.515625 370.808594 C 276.992188 369.953125 277.339844 369.101562 277.554688 368.246094 C 277.769531 367.394531 277.953125 366.59375 278.113281 365.847656 C 278.273438 365.101562 278.355469 364.222656 278.355469 363.207031 C 278.355469 359.847656 277.449219 356.941406 275.632812 354.488281 C 273.820312 352.035156 271.234375 350.808594 267.871094 350.808594 C 266.113281 350.808594 264.566406 351.261719 263.230469 352.167969 C 261.898438 353.074219 260.964844 353.953125 260.429688 354.808594 C 259.898438 355.660156 259.628906 356.167969 259.628906 356.328125 C 259.628906 356.382812 259.761719 356.40625 260.03125 356.40625 C 260.992188 356.40625 261.976562 356.78125 262.992188 357.527344 C 264.003906 358.273438 264.511719 359.5 264.511719 361.207031 C 264.511719 362.542969 264.085938 363.660156 263.230469 364.566406 C 262.378906 365.476562 261.175781 365.953125 259.628906 366.007812 Z M 259.628906 366.007812 " fill-opacity="1" fill-rule="nonzero"/><path fill="#000000" d="M 304.039062 387.769531 C 304.039062 389.046875 303.613281 390.113281 302.761719 390.96875 C 301.90625 391.820312 300.867188 392.246094 299.640625 392.246094 L 299.078125 392.246094 C 301.53125 396.460938 304.785156 398.566406 308.839844 398.566406 C 312.574219 398.566406 315.296875 396.96875 317.003906 393.769531 C 318.015625 392.007812 318.523438 388.59375 318.523438 383.527344 C 318.523438 378.035156 317.804688 374.328125 316.363281 372.40625 C 314.976562 370.648438 313.429688 369.769531 311.722656 369.769531 L 311.242188 369.769531 C 307.082031 369.769531 303.933594 371.582031 301.800781 375.207031 C 301.585938 375.582031 301.398438 375.792969 301.238281 375.847656 C 301.078125 375.902344 300.679688 375.953125 300.039062 376.007812 C 299.132812 376.007812 298.625 375.847656 298.519531 375.527344 C 298.414062 375.316406 298.359375 370.648438 298.359375 361.527344 L 298.359375 351.207031 C 298.359375 348.542969 298.492188 347.207031 298.757812 347.207031 C 298.867188 347.101562 298.972656 347.046875 299.078125 347.046875 C 299.132812 347.046875 299.691406 347.261719 300.757812 347.6875 C 301.828125 348.113281 303.292969 348.542969 305.160156 348.96875 C 307.027344 349.394531 309.027344 349.609375 311.160156 349.609375 C 314.949219 349.609375 318.578125 348.863281 322.042969 347.367188 C 322.472656 347.15625 322.816406 347.046875 323.085938 347.046875 C 323.511719 347.046875 323.726562 347.527344 323.726562 348.488281 L 323.726562 349.527344 C 319.351562 354.703125 313.882812 357.289062 307.320312 357.289062 C 305.667969 357.289062 304.171875 357.128906 302.839844 356.808594 L 302.039062 356.648438 L 302.039062 370.40625 C 303.054688 369.660156 303.851562 369.074219 304.441406 368.648438 C 305.027344 368.222656 305.988281 367.792969 307.320312 367.367188 C 308.65625 366.941406 310.015625 366.726562 311.402344 366.726562 C 315.722656 366.726562 319.378906 368.460938 322.363281 371.929688 C 325.351562 375.394531 326.84375 379.5 326.84375 384.246094 C 326.84375 389.15625 325.136719 393.339844 321.722656 396.808594 C 318.308594 400.273438 314.148438 402.035156 309.242188 402.085938 C 304.921875 402.085938 301.453125 400.648438 298.839844 397.769531 C 296.226562 394.886719 294.917969 391.632812 294.917969 388.007812 C 294.917969 386.726562 295.210938 385.714844 295.796875 384.96875 C 296.386719 384.222656 297 383.742188 297.640625 383.527344 C 298.277344 383.316406 298.890625 383.207031 299.480469 383.207031 C 300.8125 383.207031 301.90625 383.660156 302.761719 384.566406 C 303.613281 385.472656 304.039062 386.542969 304.039062 387.769531 Z M 304.039062 387.769531 " fill-opacity="1" fill-rule="nonzero"/><path fill="#000000" d="M 399.117188 398.007812 C 399.117188 399.074219 398.558594 399.609375 397.4375 399.609375 C 397.171875 399.609375 396.582031 399.179688 395.675781 398.328125 C 394.769531 397.472656 392.261719 394.996094 388.15625 390.886719 L 379.832031 382.566406 L 371.429688 390.96875 C 365.777344 396.515625 362.871094 399.339844 362.710938 399.449219 C 362.496094 399.554688 362.308594 399.609375 362.148438 399.609375 C 361.722656 399.609375 361.347656 399.449219 361.027344 399.128906 C 360.710938 398.808594 360.523438 398.433594 360.46875 398.007812 C 360.46875 397.632812 360.84375 397.046875 361.589844 396.246094 C 362.335938 395.449219 364.84375 392.914062 369.109375 388.648438 L 377.433594 380.328125 L 369.109375 372.007812 C 364.789062 367.6875 362.28125 365.15625 361.589844 364.40625 C 360.894531 363.660156 360.523438 363.074219 360.46875 362.648438 C 360.46875 362.167969 360.628906 361.792969 360.949219 361.527344 C 361.269531 361.261719 361.667969 361.128906 362.148438 361.128906 C 362.417969 361.128906 362.601562 361.15625 362.710938 361.207031 C 362.871094 361.316406 365.777344 364.140625 371.429688 369.6875 L 379.832031 378.089844 L 388.15625 369.769531 C 392.261719 365.660156 394.769531 363.179688 395.675781 362.328125 C 396.582031 361.476562 397.171875 361.046875 397.4375 361.046875 C 398.558594 361.046875 399.117188 361.582031 399.117188 362.648438 C 399.117188 363.019531 398.851562 363.5 398.316406 364.089844 C 397.785156 364.675781 395.171875 367.289062 390.476562 371.929688 L 382.152344 380.328125 L 390.476562 388.726562 C 394.957031 393.207031 397.515625 395.792969 398.15625 396.488281 C 398.796875 397.179688 399.117188 397.6875 399.117188 398.007812 Z M 399.117188 398.007812 " fill-opacity="1" fill-rule="nonzero"/><path fill="#000000" d="M 445.785156 354.089844 L 444.742188 354.488281 C 443.996094 354.753906 442.929688 355.019531 441.542969 355.289062 C 440.15625 355.554688 438.609375 355.742188 436.902344 355.847656 L 435.382812 355.847656 L 435.382812 352.167969 L 436.902344 352.167969 C 439.410156 352.0625 441.730469 351.660156 443.863281 350.96875 C 445.996094 350.273438 447.492188 349.636719 448.34375 349.046875 C 449.199219 348.460938 449.945312 347.875 450.585938 347.289062 C 450.691406 347.128906 451.011719 347.046875 451.546875 347.046875 C 452.027344 347.046875 452.480469 347.207031 452.90625 347.527344 L 452.90625 371.449219 L 452.984375 395.449219 C 453.359375 395.820312 453.679688 396.0625 453.945312 396.167969 C 454.210938 396.273438 454.851562 396.382812 455.867188 396.488281 C 456.878906 396.59375 458.535156 396.648438 460.828125 396.648438 L 462.90625 396.648438 L 462.90625 400.328125 L 462.027344 400.328125 C 460.90625 400.167969 456.667969 400.085938 449.304688 400.085938 C 442.050781 400.085938 437.863281 400.167969 436.742188 400.328125 L 435.78125 400.328125 L 435.78125 396.648438 L 437.863281 396.648438 C 439.035156 396.648438 440.050781 396.648438 440.902344 396.648438 C 441.757812 396.648438 442.421875 396.621094 442.902344 396.566406 C 443.382812 396.515625 443.808594 396.433594 444.183594 396.328125 C 444.558594 396.222656 444.769531 396.167969 444.824219 396.167969 C 444.878906 396.167969 445.039062 396.035156 445.304688 395.769531 C 445.570312 395.5 445.730469 395.394531 445.785156 395.449219 Z M 445.785156 354.089844 " fill-opacity="1" fill-rule="nonzero"/><path fill="#000000" d="M 476.429688 353.527344 C 479.417969 349.207031 483.5 347.046875 488.675781 347.046875 C 491.234375 347.046875 493.796875 347.742188 496.355469 349.128906 C 498.917969 350.515625 500.996094 352.96875 502.597656 356.488281 C 504.570312 360.914062 505.558594 366.996094 505.558594 374.726562 C 505.558594 382.996094 504.410156 389.316406 502.117188 393.6875 C 501.050781 395.929688 499.582031 397.714844 497.714844 399.046875 C 495.847656 400.382812 494.222656 401.207031 492.835938 401.527344 C 491.449219 401.847656 490.085938 402.035156 488.753906 402.085938 C 487.367188 402.085938 485.980469 401.929688 484.59375 401.609375 C 483.207031 401.289062 481.578125 400.433594 479.710938 399.046875 C 477.84375 397.660156 476.378906 395.875 475.3125 393.6875 C 473.015625 389.316406 471.871094 382.996094 471.871094 374.726562 C 471.871094 365.449219 473.390625 358.382812 476.429688 353.527344 Z M 494.433594 352.566406 C 492.835938 350.863281 490.941406 350.007812 488.753906 350.007812 C 486.511719 350.007812 484.59375 350.863281 482.992188 352.566406 C 481.660156 353.953125 480.777344 355.875 480.351562 358.328125 C 479.925781 360.78125 479.710938 365.902344 479.710938 373.6875 C 479.710938 382.113281 479.925781 387.660156 480.351562 390.328125 C 480.777344 392.996094 481.738281 395.101562 483.234375 396.648438 C 484.726562 398.246094 486.566406 399.046875 488.753906 399.046875 C 490.886719 399.046875 492.703125 398.246094 494.195312 396.648438 C 495.742188 395.046875 496.703125 392.808594 497.074219 389.929688 C 497.449219 387.046875 497.664062 381.632812 497.714844 373.6875 C 497.714844 365.953125 497.503906 360.863281 497.074219 358.40625 C 496.648438 355.953125 495.769531 354.007812 494.433594 352.566406 Z M 494.433594 352.566406 " fill-opacity="1" fill-rule="nonzero"/><g clip-path="url(#6c20122c2f)"><path fill="#000000" d="M 518.582031 341.101562 C 517.566406 341.101562 516.773438 340.78125 516.207031 340.140625 C 515.640625 339.5 515.339844 338.667969 515.300781 337.652344 C 515.300781 335.578125 516.207031 333.730469 518.019531 332.109375 C 519.828125 330.488281 522.015625 329.675781 524.582031 329.675781 C 525.902344 329.675781 526.730469 329.695312 527.070312 329.734375 C 529.859375 330.183594 531.992188 331.183594 533.460938 332.730469 C 534.933594 334.277344 535.6875 335.953125 535.726562 337.765625 C 535.726562 339.726562 535.085938 341.628906 533.800781 343.476562 C 532.519531 345.324219 530.746094 346.664062 528.484375 347.492188 L 528.3125 347.605469 C 528.3125 347.644531 528.484375 347.699219 528.824219 347.773438 C 529.164062 347.851562 529.710938 348.019531 530.464844 348.285156 C 531.21875 348.546875 531.933594 348.945312 532.613281 349.472656 C 535.707031 351.46875 537.253906 354.109375 537.253906 357.390625 C 537.253906 360.367188 536.082031 362.96875 533.746094 365.195312 C 531.40625 367.421875 528.445312 368.53125 524.863281 368.53125 C 521.847656 368.53125 519.242188 367.722656 517.054688 366.101562 C 514.867188 364.480469 513.773438 362.425781 513.773438 359.933594 C 513.773438 358.878906 514.113281 358.03125 514.792969 357.390625 C 515.472656 356.75 516.320312 356.410156 517.339844 356.371094 C 518.394531 356.371094 519.261719 356.710938 519.941406 357.390625 C 520.621094 358.070312 520.960938 358.917969 520.960938 359.933594 C 520.960938 360.351562 520.902344 360.726562 520.789062 361.066406 C 520.675781 361.40625 520.546875 361.707031 520.394531 361.972656 C 520.242188 362.234375 520.035156 362.460938 519.773438 362.648438 C 519.507812 362.839844 519.28125 362.988281 519.09375 363.101562 C 518.90625 363.214844 518.714844 363.292969 518.527344 363.328125 C 518.339844 363.367188 518.1875 363.421875 518.074219 363.5 L 517.847656 363.554688 C 519.773438 365.25 522.109375 366.101562 524.863281 366.101562 C 526.9375 366.101562 528.503906 365.101562 529.558594 363.101562 C 530.199219 361.859375 530.519531 359.953125 530.519531 357.390625 L 530.519531 356.257812 C 530.519531 352.675781 529.3125 350.28125 526.898438 349.074219 C 526.335938 348.851562 525.183594 348.71875 523.449219 348.679688 L 521.074219 348.625 L 520.902344 348.511719 C 520.828125 348.398438 520.789062 348.09375 520.789062 347.605469 C 520.789062 346.925781 520.941406 346.585938 521.242188 346.585938 C 522.296875 346.585938 523.390625 346.492188 524.523438 346.304688 C 525.804688 346.117188 526.976562 345.324219 528.03125 343.929688 C 529.085938 342.535156 529.617188 340.421875 529.617188 337.59375 L 529.617188 337.140625 C 529.617188 334.992188 528.957031 333.503906 527.636719 332.671875 C 526.804688 332.144531 525.917969 331.882812 524.976562 331.882812 C 523.769531 331.882812 522.65625 332.089844 521.640625 332.503906 C 520.621094 332.917969 519.902344 333.351562 519.488281 333.804688 C 519.074219 334.257812 518.867188 334.484375 518.867188 334.484375 L 519.035156 334.484375 C 519.148438 334.519531 519.300781 334.558594 519.488281 334.597656 C 519.675781 334.632812 519.867188 334.730469 520.054688 334.878906 C 520.242188 335.03125 520.46875 335.164062 520.734375 335.273438 C 520.996094 335.386719 521.1875 335.597656 521.300781 335.898438 C 521.414062 336.199219 521.5625 336.480469 521.75 336.746094 C 521.941406 337.011719 521.996094 337.386719 521.921875 337.878906 C 521.921875 338.707031 521.65625 339.441406 521.128906 340.082031 C 520.601562 340.722656 519.753906 341.0625 518.582031 341.101562 Z M 518.582031 341.101562 " fill-opacity="1" fill-rule="nonzero"/></g><g clip-path="url(#95c2110ce6)"><path fill="#000000" d="M 548.496094 340.410156 L 548.816406 340.328125 C 549.082031 340.328125 549.347656 340.328125 549.617188 340.328125 L 550.574219 340.328125 L 552.816406 342.25 C 557.832031 346.78125 561.484375 352.433594 563.777344 359.207031 C 566.074219 365.980469 567.21875 373.019531 567.21875 380.328125 C 567.21875 383.953125 566.953125 387.449219 566.417969 390.808594 C 565.886719 394.167969 565.273438 397.019531 564.578125 399.367188 C 563.886719 401.714844 562.898438 404.0625 561.617188 406.40625 C 560.339844 408.753906 559.324219 410.542969 558.578125 411.769531 C 557.832031 412.996094 556.738281 414.355469 555.296875 415.847656 C 553.855469 417.339844 553.003906 418.222656 552.738281 418.488281 C 552.46875 418.753906 551.855469 419.261719 550.894531 420.007812 C 550.734375 420.167969 550.628906 420.273438 550.574219 420.328125 L 549.617188 420.328125 C 549.1875 420.328125 548.894531 420.328125 548.734375 420.328125 C 548.574219 420.328125 548.441406 420.246094 548.335938 420.085938 C 548.230469 419.925781 548.148438 419.6875 548.09375 419.367188 C 548.148438 419.3125 548.441406 418.96875 548.976562 418.328125 C 557.242188 409.742188 561.378906 397.074219 561.378906 380.328125 C 561.378906 363.582031 557.242188 350.914062 548.976562 342.328125 C 548.441406 341.6875 548.148438 341.339844 548.09375 341.289062 C 548.09375 340.863281 548.230469 340.566406 548.496094 340.410156 Z M 548.496094 340.410156 " fill-opacity="1" fill-rule="nonzero"/></g><path fill="#000000" d="M 643.011719 398.007812 C 643.011719 399.074219 642.453125 399.609375 641.332031 399.609375 C 641.066406 399.609375 640.480469 399.179688 639.570312 398.328125 C 638.664062 397.472656 636.15625 394.996094 632.050781 390.886719 L 623.726562 382.566406 L 615.328125 390.96875 C 609.671875 396.515625 606.765625 399.339844 606.605469 399.449219 C 606.390625 399.554688 606.203125 399.609375 606.042969 399.609375 C 605.617188 399.609375 605.246094 399.449219 604.925781 399.128906 C 604.605469 398.808594 604.417969 398.433594 604.363281 398.007812 C 604.363281 397.632812 604.738281 397.046875 605.484375 396.246094 C 606.230469 395.449219 608.738281 392.914062 613.007812 388.648438 L 621.328125 380.328125 L 613.007812 372.007812 C 608.683594 367.6875 606.179688 365.15625 605.484375 364.40625 C 604.789062 363.660156 604.417969 363.074219 604.363281 362.648438 C 604.363281 362.167969 604.523438 361.792969 604.84375 361.527344 C 605.164062 361.261719 605.5625 361.128906 606.042969 361.128906 C 606.3125 361.128906 606.496094 361.15625 606.605469 361.207031 C 606.765625 361.316406 609.671875 364.140625 615.328125 369.6875 L 623.726562 378.089844 L 632.050781 369.769531 C 636.15625 365.660156 638.664062 363.179688 639.570312 362.328125 C 640.480469 361.476562 641.066406 361.046875 641.332031 361.046875 C 642.453125 361.046875 643.011719 361.582031 643.011719 362.648438 C 643.011719 363.019531 642.746094 363.5 642.210938 364.089844 C 641.679688 364.675781 639.066406 367.289062 634.371094 371.929688 L 626.050781 380.328125 L 634.371094 388.726562 C 638.851562 393.207031 641.414062 395.792969 642.050781 396.488281 C 642.691406 397.179688 643.011719 397.6875 643.011719 398.007812 Z M 643.011719 398.007812 " fill-opacity="1" fill-rule="nonzero"/><path fill="#000000" d="M 678.238281 366.96875 C 678.238281 366.96875 678.238281 364.914062 678.238281 360.808594 C 678.238281 356.703125 679.675781 353.394531 682.558594 350.886719 C 685.4375 348.382812 688.746094 347.101562 692.480469 347.046875 C 696.265625 347.046875 699.628906 348.167969 702.5625 350.40625 C 705.496094 352.648438 706.964844 355.554688 706.964844 359.128906 C 706.964844 360.726562 706.667969 362.222656 706.082031 363.609375 C 705.496094 364.996094 704.804688 366.113281 704.003906 366.96875 C 703.203125 367.820312 702.375 368.566406 701.523438 369.207031 C 700.667969 369.847656 699.976562 370.328125 699.441406 370.648438 C 698.90625 370.96875 698.613281 371.179688 698.5625 371.289062 L 699.683594 372.007812 C 700.429688 372.542969 701.175781 373.074219 701.921875 373.609375 C 702.667969 374.140625 703.097656 374.433594 703.203125 374.488281 C 707.203125 377.632812 709.203125 381.609375 709.203125 386.40625 C 709.203125 390.621094 707.65625 394.273438 704.5625 397.367188 C 701.46875 400.460938 697.46875 402.035156 692.558594 402.085938 C 687.757812 402.085938 683.8125 400.726562 680.71875 398.007812 C 677.625 395.289062 676.078125 391.929688 676.078125 387.929688 C 676.078125 382.167969 679.515625 377.367188 686.398438 373.527344 L 684.957031 372.488281 C 683.839844 371.792969 683.117188 371.261719 682.796875 370.886719 C 679.757812 368.273438 678.238281 364.914062 678.238281 360.808594 Z M 695.519531 369.449219 L 696 369.128906 C 696.320312 368.914062 696.5625 368.753906 696.722656 368.648438 C 696.882812 368.542969 697.148438 368.355469 697.519531 368.089844 C 697.894531 367.820312 698.214844 367.554688 698.480469 367.289062 C 698.75 367.019531 699.042969 366.703125 699.363281 366.328125 C 699.683594 365.953125 699.976562 365.609375 700.242188 365.289062 C 700.507812 364.96875 700.773438 364.542969 701.042969 364.007812 C 701.308594 363.476562 701.546875 363.019531 701.761719 362.648438 C 701.976562 362.273438 702.109375 361.742188 702.164062 361.046875 C 702.214844 360.355469 702.269531 359.769531 702.320312 359.289062 C 702.320312 356.996094 701.546875 355.046875 700 353.449219 C 698.453125 351.847656 696.667969 350.835938 694.640625 350.40625 C 694.265625 350.355469 693.386719 350.328125 692 350.328125 C 689.8125 350.328125 687.757812 351.023438 685.839844 352.40625 C 683.917969 353.792969 682.929688 355.527344 682.878906 357.609375 C 682.878906 358.835938 683.222656 359.953125 683.917969 360.96875 C 684.613281 361.980469 685.304688 362.753906 686 363.289062 C 686.691406 363.820312 688.027344 364.675781 690 365.847656 C 690.371094 366.113281 690.667969 366.300781 690.878906 366.40625 Z M 692.640625 398.648438 C 695.734375 398.648438 698.402344 397.742188 700.640625 395.929688 C 702.882812 394.113281 704.003906 391.929688 704.003906 389.367188 C 704.003906 388.460938 703.871094 387.609375 703.601562 386.808594 C 703.335938 386.007812 703.015625 385.339844 702.640625 384.808594 C 702.269531 384.273438 701.683594 383.6875 700.882812 383.046875 C 700.082031 382.40625 699.46875 381.929688 699.042969 381.609375 C 698.613281 381.289062 697.839844 380.78125 696.722656 380.089844 C 695.601562 379.394531 694.878906 378.941406 694.558594 378.726562 C 693.8125 378.246094 693.011719 377.742188 692.160156 377.207031 C 691.304688 376.675781 690.613281 376.222656 690.078125 375.847656 L 689.4375 375.449219 C 689.121094 375.449219 688.347656 375.902344 687.117188 376.808594 C 685.890625 377.714844 684.613281 379.179688 683.277344 381.207031 C 681.945312 383.234375 681.25 385.421875 681.199219 387.769531 C 681.199219 390.914062 682.34375 393.5 684.636719 395.527344 C 686.933594 397.554688 689.597656 398.59375 692.640625 398.648438 Z M 692.640625 398.648438 " fill-opacity="1" fill-rule="nonzero"/></svg>