<svg xmlns="http://www.w3.org/2000/svg" xmlns:xlink="http://www.w3.org/1999/xlink" width="1000" zoomAndPan="magnify" viewBox="0 0 750 749.999995" height="1000" preserveAspectRatio="xMidYMid meet" version="1.0"><defs><g/></defs><rect x="-75" width="900" fill="#ffffff" y="-74.999999" height="899.999994" fill-opacity="1"/><rect x="-75" width="900" fill="#ffffff" y="-74.999999" height="899.999994" fill-opacity="1"/><path stroke-linecap="butt" transform="matrix(0.749385, -0.000000000000000053, 0.000000000000000053, 0.75, 224.875508, 105.977828)" fill="none" stroke-linejoin="miter" d="M -0.000678544 1.998313 L 400.332669 1.998313 " stroke="#000000" stroke-width="4" stroke-opacity="1" stroke-miterlimit="4"/><path stroke-linecap="butt" transform="matrix(0.000000000000000046, -0.749553, 0.75, 0.000000000000000046, 223.373781, 518.725651)" fill="none" stroke-linejoin="miter" d="M -0.00121643 2.001626 L 550.332141 2.001626 " stroke="#000000" stroke-width="4" stroke-opacity="1" stroke-miterlimit="4"/><path stroke-linecap="butt" transform="matrix(0.000000000000000046, -0.749553, 0.75, 0.000000000000000046, 523.622737, 518.725651)" fill="none" stroke-linejoin="miter" d="M -0.00121643 1.997809 L 550.332141 1.997809 " stroke="#000000" stroke-width="4" stroke-opacity="1" stroke-miterlimit="4"/><path stroke-linecap="butt" transform="matrix(0.670163, 0.335797, -0.335983, 0.670534, 224.047477, 517.386331)" fill="none" stroke-linejoin="miter" d="M -0.00110866 1.999309 L 226.127568 1.999541 " stroke="#000000" stroke-width="4" stroke-opacity="1" stroke-miterlimit="4"/><path stroke-linecap="butt" transform="matrix(0.671396, -0.334952, 0.334814, 0.671118, 373.667591, 593.357919)" fill="none" stroke-linejoin="miter" d="M -0.000969456 1.99812 L 226.915194 2.00122 " stroke="#000000" stroke-width="4" stroke-opacity="1" stroke-miterlimit="4"/><g fill="#000000" fill-opacity="1"><g transform="translate(358.751676, 97.035832)"><g><path d="M 29.421875 0 L 2.1875 0 L 2.1875 -5.734375 L 11.96875 -15.625 C 14.863281 -18.59375 16.753906 -20.648438 17.640625 -21.796875 C 18.535156 -22.941406 19.175781 -24 19.5625 -24.96875 C 19.957031 -25.945312 20.15625 -26.960938 20.15625 -28.015625 C 20.15625 -29.578125 19.722656 -30.738281 18.859375 -31.5 C 17.992188 -32.269531 16.84375 -32.65625 15.40625 -32.65625 C 13.894531 -32.65625 12.425781 -32.304688 11 -31.609375 C 9.582031 -30.921875 8.101562 -29.9375 6.5625 -28.65625 L 2.078125 -33.96875 C 3.992188 -35.59375 5.582031 -36.742188 6.84375 -37.421875 C 8.113281 -38.097656 9.492188 -38.617188 10.984375 -38.984375 C 12.472656 -39.347656 14.144531 -39.53125 16 -39.53125 C 18.425781 -39.53125 20.570312 -39.082031 22.4375 -38.1875 C 24.3125 -37.300781 25.765625 -36.054688 26.796875 -34.453125 C 27.828125 -32.859375 28.34375 -31.03125 28.34375 -28.96875 C 28.34375 -27.175781 28.023438 -25.492188 27.390625 -23.921875 C 26.753906 -22.347656 25.773438 -20.734375 24.453125 -19.078125 C 23.128906 -17.429688 20.796875 -15.078125 17.453125 -12.015625 L 12.453125 -7.296875 L 12.453125 -6.9375 L 29.421875 -6.9375 Z M 29.421875 0 "/></g></g></g><g fill="#000000" fill-opacity="1"><g transform="translate(161.203339, 363.058066)"><g><path d="M 27.90625 -30.25 C 27.90625 -27.820312 27.164062 -25.753906 25.6875 -24.046875 C 24.21875 -22.335938 22.148438 -21.164062 19.484375 -20.53125 L 19.484375 -20.359375 C 22.628906 -19.972656 25.007812 -19.019531 26.625 -17.5 C 28.25 -15.976562 29.0625 -13.929688 29.0625 -11.359375 C 29.0625 -7.609375 27.703125 -4.6875 24.984375 -2.59375 C 22.265625 -0.507812 18.378906 0.53125 13.328125 0.53125 C 9.097656 0.53125 5.347656 -0.171875 2.078125 -1.578125 L 2.078125 -8.578125 C 3.585938 -7.816406 5.25 -7.195312 7.0625 -6.71875 C 8.875 -6.238281 10.671875 -6 12.453125 -6 C 15.171875 -6 17.175781 -6.457031 18.46875 -7.375 C 19.769531 -8.300781 20.421875 -9.785156 20.421875 -11.828125 C 20.421875 -13.660156 19.671875 -14.957031 18.171875 -15.71875 C 16.679688 -16.488281 14.300781 -16.875 11.03125 -16.875 L 8.078125 -16.875 L 8.078125 -23.1875 L 11.09375 -23.1875 C 14.113281 -23.1875 16.320312 -23.582031 17.71875 -24.375 C 19.113281 -25.164062 19.8125 -26.519531 19.8125 -28.4375 C 19.8125 -31.394531 17.960938 -32.875 14.265625 -32.875 C 12.984375 -32.875 11.679688 -32.660156 10.359375 -32.234375 C 9.035156 -31.804688 7.5625 -31.066406 5.9375 -30.015625 L 2.125 -35.6875 C 5.6875 -38.25 9.925781 -39.53125 14.84375 -39.53125 C 18.882812 -39.53125 22.070312 -38.710938 24.40625 -37.078125 C 26.738281 -35.441406 27.90625 -33.164062 27.90625 -30.25 Z M 27.90625 -30.25 "/></g></g></g><g fill="#000000" fill-opacity="1"><g transform="translate(557.374439, 363.058066)"><g><path d="M 27.90625 -30.25 C 27.90625 -27.820312 27.164062 -25.753906 25.6875 -24.046875 C 24.21875 -22.335938 22.148438 -21.164062 19.484375 -20.53125 L 19.484375 -20.359375 C 22.628906 -19.972656 25.007812 -19.019531 26.625 -17.5 C 28.25 -15.976562 29.0625 -13.929688 29.0625 -11.359375 C 29.0625 -7.609375 27.703125 -4.6875 24.984375 -2.59375 C 22.265625 -0.507812 18.378906 0.53125 13.328125 0.53125 C 9.097656 0.53125 5.347656 -0.171875 2.078125 -1.578125 L 2.078125 -8.578125 C 3.585938 -7.816406 5.25 -7.195312 7.0625 -6.71875 C 8.875 -6.238281 10.671875 -6 12.453125 -6 C 15.171875 -6 17.175781 -6.457031 18.46875 -7.375 C 19.769531 -8.300781 20.421875 -9.785156 20.421875 -11.828125 C 20.421875 -13.660156 19.671875 -14.957031 18.171875 -15.71875 C 16.679688 -16.488281 14.300781 -16.875 11.03125 -16.875 L 8.078125 -16.875 L 8.078125 -23.1875 L 11.09375 -23.1875 C 14.113281 -23.1875 16.320312 -23.582031 17.71875 -24.375 C 19.113281 -25.164062 19.8125 -26.519531 19.8125 -28.4375 C 19.8125 -31.394531 17.960938 -32.875 14.265625 -32.875 C 12.984375 -32.875 11.679688 -32.660156 10.359375 -32.234375 C 9.035156 -31.804688 7.5625 -31.066406 5.9375 -30.015625 L 2.125 -35.6875 C 5.6875 -38.25 9.925781 -39.53125 14.84375 -39.53125 C 18.882812 -39.53125 22.070312 -38.710938 24.40625 -37.078125 C 26.738281 -35.441406 27.90625 -33.164062 27.90625 -30.25 Z M 27.90625 -30.25 "/></g></g></g><g fill="#000000" fill-opacity="1"><g transform="translate(224.875508, 585.951543)"><g><path d="M 23.28125 0 L 17.328125 0 L 17.328125 -12.75 C 17.328125 -14.332031 17.046875 -15.515625 16.484375 -16.296875 C 15.921875 -17.085938 15.03125 -17.484375 13.8125 -17.484375 C 12.144531 -17.484375 10.9375 -16.925781 10.1875 -15.8125 C 9.445312 -14.695312 9.078125 -12.851562 9.078125 -10.28125 L 9.078125 0 L 3.125 0 L 3.125 -21.84375 L 7.671875 -21.84375 L 8.484375 -19.046875 L 8.8125 -19.046875 C 9.476562 -20.097656 10.390625 -20.894531 11.546875 -21.4375 C 12.710938 -21.976562 14.039062 -22.25 15.53125 -22.25 C 18.070312 -22.25 20 -21.5625 21.3125 -20.1875 C 22.625 -18.8125 23.28125 -16.828125 23.28125 -14.234375 Z M 23.28125 0 "/></g></g></g><g fill="#000000" fill-opacity="1"><g transform="translate(251.162002, 585.951543)"><g><path d="M 1.1875 -8.28125 L 1.1875 -13.171875 L 11.6875 -13.171875 L 11.6875 -8.28125 Z M 1.1875 -8.28125 "/></g></g></g><g fill="#000000" fill-opacity="1"><g transform="translate(264.031844, 585.951543)"><g><path d="M 16.53125 0 L 10.484375 0 L 10.484375 -16.53125 L 10.546875 -19.234375 L 10.640625 -22.203125 C 9.640625 -21.203125 8.945312 -20.546875 8.5625 -20.234375 L 5.28125 -17.59375 L 2.359375 -21.234375 L 11.5625 -28.5625 L 16.53125 -28.5625 Z M 16.53125 0 "/></g></g></g><g fill="#000000" fill-opacity="1"><g transform="translate(465.294676, 585.951543)"><g><path d="M 23.28125 0 L 17.328125 0 L 17.328125 -12.75 C 17.328125 -14.332031 17.046875 -15.515625 16.484375 -16.296875 C 15.921875 -17.085938 15.03125 -17.484375 13.8125 -17.484375 C 12.144531 -17.484375 10.9375 -16.925781 10.1875 -15.8125 C 9.445312 -14.695312 9.078125 -12.851562 9.078125 -10.28125 L 9.078125 0 L 3.125 0 L 3.125 -21.84375 L 7.671875 -21.84375 L 8.484375 -19.046875 L 8.8125 -19.046875 C 9.476562 -20.097656 10.390625 -20.894531 11.546875 -21.4375 C 12.710938 -21.976562 14.039062 -22.25 15.53125 -22.25 C 18.070312 -22.25 20 -21.5625 21.3125 -20.1875 C 22.625 -18.8125 23.28125 -16.828125 23.28125 -14.234375 Z M 23.28125 0 "/></g></g></g><g fill="#000000" fill-opacity="1"><g transform="translate(491.58117, 585.951543)"><g><path d="M 1.1875 -8.28125 L 1.1875 -13.171875 L 11.6875 -13.171875 L 11.6875 -8.28125 Z M 1.1875 -8.28125 "/></g></g></g><g fill="#000000" fill-opacity="1"><g transform="translate(504.451012, 585.951543)"><g><path d="M 16.53125 0 L 10.484375 0 L 10.484375 -16.53125 L 10.546875 -19.234375 L 10.640625 -22.203125 C 9.640625 -21.203125 8.945312 -20.546875 8.5625 -20.234375 L 5.28125 -17.59375 L 2.359375 -21.234375 L 11.5625 -28.5625 L 16.53125 -28.5625 Z M 16.53125 0 "/></g></g></g><g fill="#000000" fill-opacity="1"><g transform="translate(200.52509, 689.999866)"><g><path d="M 9.65625 -15.125 L 11.640625 -15.125 C 13.503906 -15.125 14.894531 -15.488281 15.8125 -16.21875 C 16.738281 -16.957031 17.203125 -18.03125 17.203125 -19.4375 C 17.203125 -20.851562 16.816406 -21.898438 16.046875 -22.578125 C 15.273438 -23.253906 14.0625 -23.59375 12.40625 -23.59375 L 9.65625 -23.59375 Z M 23.328125 -19.65625 C 23.328125 -16.582031 22.363281 -14.226562 20.4375 -12.59375 C 18.519531 -10.96875 15.789062 -10.15625 12.25 -10.15625 L 9.65625 -10.15625 L 9.65625 0 L 3.59375 0 L 3.59375 -28.5625 L 12.71875 -28.5625 C 16.175781 -28.5625 18.804688 -27.8125 20.609375 -26.3125 C 22.421875 -24.820312 23.328125 -22.601562 23.328125 -19.65625 Z M 23.328125 -19.65625 "/></g></g></g><g fill="#000000" fill-opacity="1"><g transform="translate(225.639824, 689.999866)"><g><path d="M 12.171875 -18.015625 C 10.910156 -18.015625 9.921875 -17.613281 9.203125 -16.8125 C 8.484375 -16.007812 8.070312 -14.875 7.96875 -13.40625 L 16.328125 -13.40625 C 16.304688 -14.875 15.921875 -16.007812 15.171875 -16.8125 C 14.429688 -17.613281 13.429688 -18.015625 12.171875 -18.015625 Z M 13.015625 0.390625 C 9.492188 0.390625 6.742188 -0.578125 4.765625 -2.515625 C 2.785156 -4.460938 1.796875 -7.210938 1.796875 -10.765625 C 1.796875 -14.421875 2.707031 -17.25 4.53125 -19.25 C 6.363281 -21.25 8.894531 -22.25 12.125 -22.25 C 15.21875 -22.25 17.625 -21.367188 19.34375 -19.609375 C 21.0625 -17.847656 21.921875 -15.421875 21.921875 -12.328125 L 21.921875 -9.4375 L 7.828125 -9.4375 C 7.898438 -7.738281 8.40625 -6.414062 9.34375 -5.46875 C 10.28125 -4.519531 11.59375 -4.046875 13.28125 -4.046875 C 14.59375 -4.046875 15.832031 -4.179688 17 -4.453125 C 18.175781 -4.722656 19.40625 -5.160156 20.6875 -5.765625 L 20.6875 -1.15625 C 19.644531 -0.632812 18.53125 -0.25 17.34375 0 C 16.15625 0.257812 14.710938 0.390625 13.015625 0.390625 Z M 13.015625 0.390625 "/></g></g></g><g fill="#000000" fill-opacity="1"><g transform="translate(249.270327, 689.999866)"><g><path d="M 23.28125 0 L 17.328125 0 L 17.328125 -12.75 C 17.328125 -14.332031 17.046875 -15.515625 16.484375 -16.296875 C 15.921875 -17.085938 15.03125 -17.484375 13.8125 -17.484375 C 12.144531 -17.484375 10.9375 -16.925781 10.1875 -15.8125 C 9.445312 -14.695312 9.078125 -12.851562 9.078125 -10.28125 L 9.078125 0 L 3.125 0 L 3.125 -21.84375 L 7.671875 -21.84375 L 8.484375 -19.046875 L 8.8125 -19.046875 C 9.476562 -20.097656 10.390625 -20.894531 11.546875 -21.4375 C 12.710938 -21.976562 14.039062 -22.25 15.53125 -22.25 C 18.070312 -22.25 20 -21.5625 21.3125 -20.1875 C 22.625 -18.8125 23.28125 -16.828125 23.28125 -14.234375 Z M 23.28125 0 "/></g></g></g><g fill="#000000" fill-opacity="1"><g transform="translate(275.556821, 689.999866)"><g><path d="M 12.328125 -4.359375 C 13.367188 -4.359375 14.617188 -4.585938 16.078125 -5.046875 L 16.078125 -0.609375 C 14.585938 0.0546875 12.765625 0.390625 10.609375 0.390625 C 8.222656 0.390625 6.484375 -0.207031 5.390625 -1.40625 C 4.304688 -2.613281 3.765625 -4.425781 3.765625 -6.84375 L 3.765625 -17.359375 L 0.921875 -17.359375 L 0.921875 -19.890625 L 4.203125 -21.875 L 5.921875 -26.484375 L 9.734375 -26.484375 L 9.734375 -21.84375 L 15.84375 -21.84375 L 15.84375 -17.359375 L 9.734375 -17.359375 L 9.734375 -6.84375 C 9.734375 -5.988281 9.96875 -5.359375 10.4375 -4.953125 C 10.914062 -4.554688 11.546875 -4.359375 12.328125 -4.359375 Z M 12.328125 -4.359375 "/></g></g></g><g fill="#000000" fill-opacity="1"><g transform="translate(292.918411, 689.999866)"><g><path d="M 17 0 L 15.84375 -2.96875 L 15.6875 -2.96875 C 14.6875 -1.707031 13.65625 -0.832031 12.59375 -0.34375 C 11.53125 0.144531 10.144531 0.390625 8.4375 0.390625 C 6.34375 0.390625 4.691406 -0.207031 3.484375 -1.40625 C 2.285156 -2.601562 1.6875 -4.3125 1.6875 -6.53125 C 1.6875 -8.84375 2.492188 -10.546875 4.109375 -11.640625 C 5.734375 -12.742188 8.179688 -13.359375 11.453125 -13.484375 L 15.234375 -13.59375 L 15.234375 -14.546875 C 15.234375 -16.765625 14.101562 -17.875 11.84375 -17.875 C 10.09375 -17.875 8.039062 -17.347656 5.6875 -16.296875 L 3.71875 -20.3125 C 6.226562 -21.625 9.015625 -22.28125 12.078125 -22.28125 C 15.003906 -22.28125 17.25 -21.640625 18.8125 -20.359375 C 20.375 -19.085938 21.15625 -17.148438 21.15625 -14.546875 L 21.15625 0 Z M 15.234375 -10.125 L 12.9375 -10.046875 C 11.195312 -9.992188 9.90625 -9.679688 9.0625 -9.109375 C 8.21875 -8.535156 7.796875 -7.660156 7.796875 -6.484375 C 7.796875 -4.804688 8.757812 -3.96875 10.6875 -3.96875 C 12.0625 -3.96875 13.160156 -4.363281 13.984375 -5.15625 C 14.816406 -5.945312 15.234375 -7.003906 15.234375 -8.328125 Z M 8.609375 -24.234375 L 8.609375 -24.765625 C 10.847656 -27.367188 12.378906 -29.328125 13.203125 -30.640625 L 19.875 -30.640625 L 19.875 -30.234375 C 19.195312 -29.554688 18.039062 -28.550781 16.40625 -27.21875 C 14.78125 -25.882812 13.503906 -24.890625 12.578125 -24.234375 Z M 8.609375 -24.234375 "/></g></g></g><g fill="#000000" fill-opacity="1"><g transform="translate(317.076212, 689.999866)"><g><path d="M 22.125 -21.84375 L 22.125 -18.8125 L 18.71875 -17.9375 C 19.34375 -16.957031 19.65625 -15.863281 19.65625 -14.65625 C 19.65625 -12.3125 18.835938 -10.484375 17.203125 -9.171875 C 15.566406 -7.859375 13.296875 -7.203125 10.390625 -7.203125 L 9.3125 -7.265625 L 8.4375 -7.359375 C 7.820312 -6.890625 7.515625 -6.367188 7.515625 -5.796875 C 7.515625 -4.941406 8.609375 -4.515625 10.796875 -4.515625 L 14.515625 -4.515625 C 16.910156 -4.515625 18.734375 -4 19.984375 -2.96875 C 21.242188 -1.9375 21.875 -0.425781 21.875 1.5625 C 21.875 4.113281 20.804688 6.09375 18.671875 7.5 C 16.546875 8.90625 13.492188 9.609375 9.515625 9.609375 C 6.460938 9.609375 4.132812 9.078125 2.53125 8.015625 C 0.925781 6.953125 0.125 5.46875 0.125 3.5625 C 0.125 2.238281 0.53125 1.132812 1.34375 0.25 C 2.164062 -0.632812 3.375 -1.265625 4.96875 -1.640625 C 4.351562 -1.898438 3.816406 -2.328125 3.359375 -2.921875 C 2.898438 -3.515625 2.671875 -4.144531 2.671875 -4.8125 C 2.671875 -5.644531 2.910156 -6.335938 3.390625 -6.890625 C 3.878906 -7.441406 4.578125 -7.984375 5.484375 -8.515625 C 4.335938 -9.015625 3.429688 -9.8125 2.765625 -10.90625 C 2.097656 -12 1.765625 -13.285156 1.765625 -14.765625 C 1.765625 -17.148438 2.535156 -18.992188 4.078125 -20.296875 C 5.628906 -21.597656 7.84375 -22.25 10.71875 -22.25 C 11.332031 -22.25 12.054688 -22.191406 12.890625 -22.078125 C 13.734375 -21.972656 14.273438 -21.894531 14.515625 -21.84375 Z M 5.28125 3.09375 C 5.28125 3.90625 5.671875 4.546875 6.453125 5.015625 C 7.242188 5.484375 8.347656 5.71875 9.765625 5.71875 C 11.898438 5.71875 13.570312 5.425781 14.78125 4.84375 C 16 4.257812 16.609375 3.457031 16.609375 2.4375 C 16.609375 1.625 16.25 1.0625 15.53125 0.75 C 14.8125 0.4375 13.703125 0.28125 12.203125 0.28125 L 9.125 0.28125 C 8.03125 0.28125 7.113281 0.535156 6.375 1.046875 C 5.644531 1.554688 5.28125 2.238281 5.28125 3.09375 Z M 7.4375 -14.6875 C 7.4375 -13.5 7.707031 -12.5625 8.25 -11.875 C 8.789062 -11.1875 9.613281 -10.84375 10.71875 -10.84375 C 11.84375 -10.84375 12.664062 -11.1875 13.1875 -11.875 C 13.707031 -12.5625 13.96875 -13.5 13.96875 -14.6875 C 13.96875 -17.320312 12.882812 -18.640625 10.71875 -18.640625 C 8.53125 -18.640625 7.4375 -17.320312 7.4375 -14.6875 Z M 7.4375 -14.6875 "/></g></g></g><g fill="#000000" fill-opacity="1"><g transform="translate(339.671666, 689.999866)"><g><path d="M 7.875 -10.953125 C 7.875 -8.796875 8.226562 -7.160156 8.9375 -6.046875 C 9.644531 -4.941406 10.800781 -4.390625 12.40625 -4.390625 C 13.988281 -4.390625 15.128906 -4.941406 15.828125 -6.046875 C 16.523438 -7.148438 16.875 -8.785156 16.875 -10.953125 C 16.875 -13.117188 16.519531 -14.738281 15.8125 -15.8125 C 15.113281 -16.894531 13.960938 -17.4375 12.359375 -17.4375 C 10.773438 -17.4375 9.628906 -16.898438 8.921875 -15.828125 C 8.222656 -14.753906 7.875 -13.128906 7.875 -10.953125 Z M 22.96875 -10.953125 C 22.96875 -7.398438 22.03125 -4.617188 20.15625 -2.609375 C 18.28125 -0.609375 15.671875 0.390625 12.328125 0.390625 C 10.234375 0.390625 8.382812 -0.0664062 6.78125 -0.984375 C 5.175781 -1.898438 3.941406 -3.21875 3.078125 -4.9375 C 2.222656 -6.65625 1.796875 -8.660156 1.796875 -10.953125 C 1.796875 -14.523438 2.726562 -17.300781 4.59375 -19.28125 C 6.457031 -21.257812 9.070312 -22.25 12.4375 -22.25 C 14.539062 -22.25 16.390625 -21.789062 17.984375 -20.875 C 19.585938 -19.96875 20.816406 -18.660156 21.671875 -16.953125 C 22.535156 -15.242188 22.96875 -13.242188 22.96875 -10.953125 Z M 22.96875 -10.953125 "/></g></g></g><g fill="#000000" fill-opacity="1"><g transform="translate(364.434872, 689.999866)"><g><path d="M 23.28125 0 L 17.328125 0 L 17.328125 -12.75 C 17.328125 -14.332031 17.046875 -15.515625 16.484375 -16.296875 C 15.921875 -17.085938 15.03125 -17.484375 13.8125 -17.484375 C 12.144531 -17.484375 10.9375 -16.925781 10.1875 -15.8125 C 9.445312 -14.695312 9.078125 -12.851562 9.078125 -10.28125 L 9.078125 0 L 3.125 0 L 3.125 -21.84375 L 7.671875 -21.84375 L 8.484375 -19.046875 L 8.8125 -19.046875 C 9.476562 -20.097656 10.390625 -20.894531 11.546875 -21.4375 C 12.710938 -21.976562 14.039062 -22.25 15.53125 -22.25 C 18.070312 -22.25 20 -21.5625 21.3125 -20.1875 C 22.625 -18.8125 23.28125 -16.828125 23.28125 -14.234375 Z M 23.28125 0 "/></g></g></g><g fill="#000000" fill-opacity="1"><g transform="translate(390.721366, 689.999866)"><g><path d="M 7.875 -10.953125 C 7.875 -8.796875 8.226562 -7.160156 8.9375 -6.046875 C 9.644531 -4.941406 10.800781 -4.390625 12.40625 -4.390625 C 13.988281 -4.390625 15.128906 -4.941406 15.828125 -6.046875 C 16.523438 -7.148438 16.875 -8.785156 16.875 -10.953125 C 16.875 -13.117188 16.519531 -14.738281 15.8125 -15.8125 C 15.113281 -16.894531 13.960938 -17.4375 12.359375 -17.4375 C 10.773438 -17.4375 9.628906 -16.898438 8.921875 -15.828125 C 8.222656 -14.753906 7.875 -13.128906 7.875 -10.953125 Z M 22.96875 -10.953125 C 22.96875 -7.398438 22.03125 -4.617188 20.15625 -2.609375 C 18.28125 -0.609375 15.671875 0.390625 12.328125 0.390625 C 10.234375 0.390625 8.382812 -0.0664062 6.78125 -0.984375 C 5.175781 -1.898438 3.941406 -3.21875 3.078125 -4.9375 C 2.222656 -6.65625 1.796875 -8.660156 1.796875 -10.953125 C 1.796875 -14.523438 2.726562 -17.300781 4.59375 -19.28125 C 6.457031 -21.257812 9.070312 -22.25 12.4375 -22.25 C 14.539062 -22.25 16.390625 -21.789062 17.984375 -20.875 C 19.585938 -19.96875 20.816406 -18.660156 21.671875 -16.953125 C 22.535156 -15.242188 22.96875 -13.242188 22.96875 -10.953125 Z M 22.96875 -10.953125 "/></g></g></g><g fill="#000000" fill-opacity="1"><g transform="translate(425.874192, 689.999866)"><g><path d="M 9.65625 -15.875 L 11.609375 -15.875 C 13.515625 -15.875 14.921875 -16.191406 15.828125 -16.828125 C 16.742188 -17.472656 17.203125 -18.476562 17.203125 -19.84375 C 17.203125 -21.195312 16.738281 -22.160156 15.8125 -22.734375 C 14.882812 -23.304688 13.441406 -23.59375 11.484375 -23.59375 L 9.65625 -23.59375 Z M 9.65625 -10.953125 L 9.65625 0 L 3.59375 0 L 3.59375 -28.5625 L 11.921875 -28.5625 C 15.796875 -28.5625 18.664062 -27.851562 20.53125 -26.4375 C 22.394531 -25.019531 23.328125 -22.875 23.328125 -20 C 23.328125 -18.320312 22.863281 -16.828125 21.9375 -15.515625 C 21.007812 -14.210938 19.703125 -13.1875 18.015625 -12.4375 C 22.304688 -6.019531 25.101562 -1.875 26.40625 0 L 19.6875 0 L 12.875 -10.953125 Z M 9.65625 -10.953125 "/></g></g></g><g fill="#000000" fill-opacity="1"><g transform="translate(452.277862, 689.999866)"><g><path d="M 12.171875 -18.015625 C 10.910156 -18.015625 9.921875 -17.613281 9.203125 -16.8125 C 8.484375 -16.007812 8.070312 -14.875 7.96875 -13.40625 L 16.328125 -13.40625 C 16.304688 -14.875 15.921875 -16.007812 15.171875 -16.8125 C 14.429688 -17.613281 13.429688 -18.015625 12.171875 -18.015625 Z M 13.015625 0.390625 C 9.492188 0.390625 6.742188 -0.578125 4.765625 -2.515625 C 2.785156 -4.460938 1.796875 -7.210938 1.796875 -10.765625 C 1.796875 -14.421875 2.707031 -17.25 4.53125 -19.25 C 6.363281 -21.25 8.894531 -22.25 12.125 -22.25 C 15.21875 -22.25 17.625 -21.367188 19.34375 -19.609375 C 21.0625 -17.847656 21.921875 -15.421875 21.921875 -12.328125 L 21.921875 -9.4375 L 7.828125 -9.4375 C 7.898438 -7.738281 8.40625 -6.414062 9.34375 -5.46875 C 10.28125 -4.519531 11.59375 -4.046875 13.28125 -4.046875 C 14.59375 -4.046875 15.832031 -4.179688 17 -4.453125 C 18.175781 -4.722656 19.40625 -5.160156 20.6875 -5.765625 L 20.6875 -1.15625 C 19.644531 -0.632812 18.53125 -0.25 17.34375 0 C 16.15625 0.257812 14.710938 0.390625 13.015625 0.390625 Z M 13.015625 0.390625 "/></g></g></g><g fill="#000000" fill-opacity="1"><g transform="translate(475.908377, 689.999866)"><g><path d="M 22.125 -21.84375 L 22.125 -18.8125 L 18.71875 -17.9375 C 19.34375 -16.957031 19.65625 -15.863281 19.65625 -14.65625 C 19.65625 -12.3125 18.835938 -10.484375 17.203125 -9.171875 C 15.566406 -7.859375 13.296875 -7.203125 10.390625 -7.203125 L 9.3125 -7.265625 L 8.4375 -7.359375 C 7.820312 -6.890625 7.515625 -6.367188 7.515625 -5.796875 C 7.515625 -4.941406 8.609375 -4.515625 10.796875 -4.515625 L 14.515625 -4.515625 C 16.910156 -4.515625 18.734375 -4 19.984375 -2.96875 C 21.242188 -1.9375 21.875 -0.425781 21.875 1.5625 C 21.875 4.113281 20.804688 6.09375 18.671875 7.5 C 16.546875 8.90625 13.492188 9.609375 9.515625 9.609375 C 6.460938 9.609375 4.132812 9.078125 2.53125 8.015625 C 0.925781 6.953125 0.125 5.46875 0.125 3.5625 C 0.125 2.238281 0.53125 1.132812 1.34375 0.25 C 2.164062 -0.632812 3.375 -1.265625 4.96875 -1.640625 C 4.351562 -1.898438 3.816406 -2.328125 3.359375 -2.921875 C 2.898438 -3.515625 2.671875 -4.144531 2.671875 -4.8125 C 2.671875 -5.644531 2.910156 -6.335938 3.390625 -6.890625 C 3.878906 -7.441406 4.578125 -7.984375 5.484375 -8.515625 C 4.335938 -9.015625 3.429688 -9.8125 2.765625 -10.90625 C 2.097656 -12 1.765625 -13.285156 1.765625 -14.765625 C 1.765625 -17.148438 2.535156 -18.992188 4.078125 -20.296875 C 5.628906 -21.597656 7.84375 -22.25 10.71875 -22.25 C 11.332031 -22.25 12.054688 -22.191406 12.890625 -22.078125 C 13.734375 -21.972656 14.273438 -21.894531 14.515625 -21.84375 Z M 5.28125 3.09375 C 5.28125 3.90625 5.671875 4.546875 6.453125 5.015625 C 7.242188 5.484375 8.347656 5.71875 9.765625 5.71875 C 11.898438 5.71875 13.570312 5.425781 14.78125 4.84375 C 16 4.257812 16.609375 3.457031 16.609375 2.4375 C 16.609375 1.625 16.25 1.0625 15.53125 0.75 C 14.8125 0.4375 13.703125 0.28125 12.203125 0.28125 L 9.125 0.28125 C 8.03125 0.28125 7.113281 0.535156 6.375 1.046875 C 5.644531 1.554688 5.28125 2.238281 5.28125 3.09375 Z M 7.4375 -14.6875 C 7.4375 -13.5 7.707031 -12.5625 8.25 -11.875 C 8.789062 -11.1875 9.613281 -10.84375 10.71875 -10.84375 C 11.84375 -10.84375 12.664062 -11.1875 13.1875 -11.875 C 13.707031 -12.5625 13.96875 -13.5 13.96875 -14.6875 C 13.96875 -17.320312 12.882812 -18.640625 10.71875 -18.640625 C 8.53125 -18.640625 7.4375 -17.320312 7.4375 -14.6875 Z M 7.4375 -14.6875 "/></g></g></g><g fill="#000000" fill-opacity="1"><g transform="translate(498.50382, 689.999866)"><g><path d="M 18.59375 0 L 17.796875 -2.796875 L 17.484375 -2.796875 C 16.847656 -1.773438 15.941406 -0.988281 14.765625 -0.4375 C 13.597656 0.113281 12.265625 0.390625 10.765625 0.390625 C 8.203125 0.390625 6.269531 -0.296875 4.96875 -1.671875 C 3.664062 -3.046875 3.015625 -5.019531 3.015625 -7.59375 L 3.015625 -21.84375 L 8.96875 -21.84375 L 8.96875 -9.078125 C 8.96875 -7.503906 9.242188 -6.320312 9.796875 -5.53125 C 10.359375 -4.75 11.253906 -4.359375 12.484375 -4.359375 C 14.148438 -4.359375 15.351562 -4.914062 16.09375 -6.03125 C 16.832031 -7.144531 17.203125 -8.988281 17.203125 -11.5625 L 17.203125 -21.84375 L 23.171875 -21.84375 L 23.171875 0 Z M 18.59375 0 "/></g></g></g><g fill="#000000" fill-opacity="1"><g transform="translate(524.790302, 689.999866)"><g><path d="M 9.078125 0 L 3.125 0 L 3.125 -30.390625 L 9.078125 -30.390625 Z M 9.078125 0 "/></g></g></g><g fill="#000000" fill-opacity="1"><g transform="translate(536.996158, 689.999866)"><g><path d="M 17 0 L 15.84375 -2.96875 L 15.6875 -2.96875 C 14.6875 -1.707031 13.65625 -0.832031 12.59375 -0.34375 C 11.53125 0.144531 10.144531 0.390625 8.4375 0.390625 C 6.34375 0.390625 4.691406 -0.207031 3.484375 -1.40625 C 2.285156 -2.601562 1.6875 -4.3125 1.6875 -6.53125 C 1.6875 -8.84375 2.492188 -10.546875 4.109375 -11.640625 C 5.734375 -12.742188 8.179688 -13.359375 11.453125 -13.484375 L 15.234375 -13.59375 L 15.234375 -14.546875 C 15.234375 -16.765625 14.101562 -17.875 11.84375 -17.875 C 10.09375 -17.875 8.039062 -17.347656 5.6875 -16.296875 L 3.71875 -20.3125 C 6.226562 -21.625 9.015625 -22.28125 12.078125 -22.28125 C 15.003906 -22.28125 17.25 -21.640625 18.8125 -20.359375 C 20.375 -19.085938 21.15625 -17.148438 21.15625 -14.546875 L 21.15625 0 Z M 15.234375 -10.125 L 12.9375 -10.046875 C 11.195312 -9.992188 9.90625 -9.679688 9.0625 -9.109375 C 8.21875 -8.535156 7.796875 -7.660156 7.796875 -6.484375 C 7.796875 -4.804688 8.757812 -3.96875 10.6875 -3.96875 C 12.0625 -3.96875 13.160156 -4.363281 13.984375 -5.15625 C 14.816406 -5.945312 15.234375 -7.003906 15.234375 -8.328125 Z M 15.234375 -10.125 "/></g></g></g><g fill="#000000" fill-opacity="1"><g transform="translate(561.153948, 689.999866)"><g><path d="M 15.3125 -22.25 C 16.125 -22.25 16.796875 -22.191406 17.328125 -22.078125 L 16.875 -16.484375 C 16.394531 -16.617188 15.8125 -16.6875 15.125 -16.6875 C 13.21875 -16.6875 11.734375 -16.195312 10.671875 -15.21875 C 9.609375 -14.238281 9.078125 -12.867188 9.078125 -11.109375 L 9.078125 0 L 3.125 0 L 3.125 -21.84375 L 7.640625 -21.84375 L 8.515625 -18.171875 L 8.8125 -18.171875 C 9.488281 -19.390625 10.398438 -20.375 11.546875 -21.125 C 12.703125 -21.875 13.957031 -22.25 15.3125 -22.25 Z M 15.3125 -22.25 "/></g></g></g></svg>