<svg xmlns="http://www.w3.org/2000/svg" xmlns:xlink="http://www.w3.org/1999/xlink" width="1000" zoomAndPan="magnify" viewBox="0 0 750 749.999995" height="1000" preserveAspectRatio="xMidYMid meet" version="1.0"><rect x="-75" width="900" fill="#ffffff" y="-74.999999" height="899.999994" fill-opacity="1"/><rect x="-75" width="900" fill="#ffffff" y="-74.999999" height="899.999994" fill-opacity="1"/><path fill="#000000" d="M 76.964844 387.765625 C 73.378906 393.441406 68.894531 396.28125 63.511719 396.28125 C 57.679688 396.28125 52.898438 394.074219 49.160156 389.667969 C 45.421875 385.261719 43.179688 380.558594 42.433594 375.554688 C 42.285156 374.359375 42.207031 372.867188 42.207031 371.074219 L 42.207031 370.175781 C 42.207031 363.230469 44.789062 357.183594 49.945312 352.027344 C 54.429688 347.546875 59.363281 345.308594 64.746094 345.308594 C 64.894531 345.308594 65.117188 345.308594 65.417969 345.308594 C 65.714844 345.308594 66.015625 345.34375 66.3125 345.417969 L 66.761719 345.417969 C 67.660156 345.417969 68.59375 345.496094 69.566406 345.644531 C 70.539062 345.792969 71.921875 346.242188 73.714844 346.988281 C 75.507812 347.734375 77.265625 348.929688 78.984375 350.574219 C 80.703125 352.214844 82.308594 354.417969 83.804688 357.183594 C 87.019531 363.753906 88.625 372.195312 88.625 382.5 C 88.625 392.957031 86.382812 401.804688 81.898438 409.050781 C 79.28125 413.234375 76.144531 416.480469 72.480469 418.796875 C 68.816406 421.113281 64.929688 422.304688 60.820312 422.382812 C 56.261719 422.382812 52.523438 421.296875 49.609375 419.132812 C 46.695312 416.964844 45.199219 413.753906 45.125 409.5 C 45.050781 405.242188 47.03125 403.148438 51.066406 403.226562 C 52.710938 403.226562 54.09375 403.746094 55.214844 404.792969 C 56.335938 405.839844 56.894531 407.296875 56.894531 409.164062 C 56.894531 410.507812 56.558594 411.664062 55.886719 412.636719 C 55.214844 413.605469 54.617188 414.203125 54.09375 414.425781 C 53.570312 414.652344 53.085938 414.839844 52.636719 414.988281 L 52.1875 415.101562 C 52.1875 415.25 52.449219 415.472656 52.972656 415.773438 C 53.496094 416.070312 54.46875 416.445312 55.886719 416.890625 C 57.308594 417.339844 58.878906 417.527344 60.597656 417.453125 L 61.269531 417.453125 C 65.753906 417.453125 69.527344 415.0625 72.59375 410.28125 C 75.507812 406.101562 76.964844 398.855469 76.964844 388.550781 Z M 64.855469 392.132812 C 68.445312 392.132812 71.320312 390.304688 73.488281 386.644531 C 75.65625 382.984375 76.777344 378.019531 76.851562 371.746094 C 76.851562 365.921875 76.554688 361.738281 75.957031 359.199219 C 75.808594 358.453125 75.582031 357.707031 75.285156 356.957031 C 74.984375 356.210938 74.460938 355.242188 73.714844 354.046875 C 72.964844 352.851562 71.84375 351.84375 70.351562 351.019531 C 68.855469 350.199219 67.097656 349.824219 65.082031 349.902344 C 62.242188 349.902344 59.8125 350.910156 57.792969 352.925781 C 56.222656 354.570312 55.214844 356.511719 54.765625 358.75 C 54.316406 360.992188 54.054688 364.910156 53.980469 370.511719 C 53.980469 376.710938 54.167969 380.894531 54.542969 383.058594 C 54.914062 385.226562 55.664062 386.980469 56.785156 388.324219 C 58.652344 390.863281 61.34375 392.132812 64.855469 392.132812 Z M 64.855469 392.132812 " fill-opacity="1" fill-rule="nonzero"/><path fill="#000000" d="M 99.390625 387.542969 C 99.910156 384.40625 101.929688 380.78125 105.441406 376.675781 C 108.957031 372.566406 113.292969 370.476562 118.449219 370.402344 C 121.066406 370.402344 123.457031 371.074219 125.625 372.417969 C 127.792969 373.761719 129.398438 375.441406 130.445312 377.457031 C 133.585938 372.753906 137.359375 370.402344 141.769531 370.402344 C 144.535156 370.402344 146.925781 371.222656 148.945312 372.867188 C 150.960938 374.507812 152.007812 376.710938 152.082031 379.476562 C 152.082031 381.640625 151.5625 383.394531 150.515625 384.742188 C 149.46875 386.085938 148.457031 386.90625 147.488281 387.207031 C 146.515625 387.503906 145.65625 387.652344 144.910156 387.652344 C 143.488281 387.652344 142.328125 387.242188 141.433594 386.421875 C 140.535156 385.597656 140.085938 384.515625 140.085938 383.171875 C 140.085938 379.738281 141.957031 377.382812 145.691406 376.113281 C 144.871094 375.144531 143.375 374.660156 141.207031 374.660156 C 140.238281 374.660156 139.527344 374.734375 139.078125 374.882812 C 136.238281 376.078125 134.144531 378.542969 132.800781 382.277344 C 128.316406 398.78125 126.074219 408.414062 126.074219 411.179688 C 126.074219 413.269531 126.671875 414.761719 127.867188 415.660156 C 129.0625 416.554688 130.371094 417.003906 131.789062 417.003906 C 134.554688 417.003906 137.285156 415.773438 139.976562 413.308594 C 142.664062 410.84375 144.496094 407.816406 145.46875 404.234375 C 145.691406 403.484375 145.917969 403.074219 146.140625 403 C 146.367188 402.925781 146.964844 402.851562 147.933594 402.777344 L 148.382812 402.777344 C 149.503906 402.777344 150.066406 403.074219 150.066406 403.671875 C 150.066406 403.746094 149.992188 404.160156 149.839844 404.90625 C 148.644531 409.164062 146.328125 412.933594 142.890625 416.21875 C 139.453125 419.507812 135.453125 421.148438 130.894531 421.148438 C 125.660156 421.148438 121.699219 418.796875 119.007812 414.089844 C 115.945312 418.722656 112.433594 421.035156 108.46875 421.035156 L 107.796875 421.035156 C 104.136719 421.035156 101.519531 420.066406 99.949219 418.125 C 98.378906 416.183594 97.558594 414.128906 97.484375 411.964844 C 97.484375 409.574219 98.191406 407.632812 99.613281 406.136719 C 101.03125 404.644531 102.714844 403.898438 104.660156 403.898438 C 107.871094 403.898438 109.480469 405.464844 109.480469 408.601562 C 109.480469 410.097656 109.03125 411.402344 108.132812 412.523438 C 107.238281 413.644531 106.378906 414.390625 105.554688 414.761719 C 104.734375 415.136719 104.246094 415.324219 104.097656 415.324219 L 103.761719 415.4375 C 103.761719 415.511719 103.984375 415.660156 104.433594 415.882812 C 104.882812 416.109375 105.480469 416.371094 106.226562 416.667969 C 106.976562 416.964844 107.683594 417.078125 108.359375 417.003906 C 111.050781 417.003906 113.367188 415.324219 115.308594 411.964844 C 115.980469 410.769531 116.839844 408.230469 117.886719 404.34375 C 118.933594 400.460938 119.980469 396.429688 121.027344 392.246094 C 122.074219 388.0625 122.671875 385.597656 122.820312 384.851562 C 123.195312 382.835938 123.382812 381.378906 123.382812 380.484375 C 123.382812 378.390625 122.820312 376.898438 121.699219 376.003906 C 120.578125 375.105469 119.308594 374.660156 117.886719 374.660156 C 114.898438 374.660156 112.09375 375.851562 109.480469 378.242188 C 106.863281 380.632812 105.03125 383.695312 103.984375 387.429688 C 103.835938 388.101562 103.648438 388.476562 103.425781 388.550781 C 103.199219 388.625 102.601562 388.699219 101.632812 388.773438 L 100.0625 388.773438 C 99.613281 388.324219 99.390625 387.914062 99.390625 387.542969 Z M 99.390625 387.542969 " fill-opacity="1" fill-rule="nonzero"/><path fill="#000000" d="M 170.03125 339.671875 C 168.601562 339.671875 167.464844 339.195312 166.621094 338.246094 C 165.777344 337.296875 165.351562 336.132812 165.351562 334.761719 C 165.351562 331.011719 166.753906 327.765625 169.554688 325.019531 C 172.355469 322.273438 175.84375 320.902344 180.015625 320.902344 C 184.824219 320.902344 188.84375 322.378906 192.066406 325.335938 C 195.289062 328.292969 196.925781 332.121094 196.980469 336.820312 C 196.980469 339.089844 196.453125 341.257812 195.394531 343.316406 C 194.339844 345.375 193.070312 347.171875 191.589844 348.703125 C 190.109375 350.234375 187.996094 352.1875 185.25 354.5625 C 183.347656 356.199219 180.703125 358.628906 177.320312 361.847656 L 172.644531 366.285156 L 178.667969 366.363281 C 186.964844 366.363281 191.378906 366.230469 191.90625 365.96875 C 192.277344 365.863281 192.910156 363.511719 193.808594 358.917969 L 193.808594 358.679688 L 196.980469 358.679688 L 196.980469 358.917969 C 196.925781 359.078125 196.585938 361.480469 195.949219 366.125 C 195.316406 370.773438 194.917969 373.203125 194.761719 373.414062 L 194.761719 373.648438 L 165.351562 373.648438 L 165.351562 371.195312 C 165.351562 370.824219 165.511719 370.429688 165.828125 370.007812 C 166.144531 369.585938 166.9375 368.660156 168.207031 367.234375 C 169.738281 365.546875 171.058594 364.066406 172.167969 362.800781 C 172.644531 362.269531 173.542969 361.292969 174.863281 359.867188 C 176.1875 358.441406 177.085938 357.464844 177.558594 356.9375 C 178.035156 356.410156 178.800781 355.539062 179.859375 354.324219 C 180.914062 353.109375 181.65625 352.210938 182.078125 351.632812 C 182.5 351.050781 183.109375 350.257812 183.902344 349.253906 C 184.695312 348.253906 185.25 347.40625 185.566406 346.722656 C 185.882812 346.035156 186.28125 345.269531 186.753906 344.425781 C 187.230469 343.578125 187.574219 342.734375 187.785156 341.890625 C 187.996094 341.046875 188.183594 340.253906 188.339844 339.515625 C 188.5 338.773438 188.578125 337.902344 188.578125 336.898438 C 188.578125 333.574219 187.679688 330.695312 185.882812 328.265625 C 184.085938 325.839844 181.523438 324.625 178.195312 324.625 C 176.449219 324.625 174.917969 325.074219 173.597656 325.96875 C 172.277344 326.867188 171.351562 327.738281 170.824219 328.585938 C 170.292969 329.429688 170.03125 329.929688 170.03125 330.089844 C 170.03125 330.140625 170.160156 330.167969 170.425781 330.167969 C 171.378906 330.167969 172.355469 330.539062 173.359375 331.277344 C 174.363281 332.015625 174.863281 333.230469 174.863281 334.921875 C 174.863281 336.242188 174.441406 337.347656 173.597656 338.246094 C 172.75 339.144531 171.5625 339.621094 170.03125 339.671875 Z M 170.03125 339.671875 " fill-opacity="1" fill-rule="nonzero"/><path fill="#000000" d="M 237.832031 393.367188 C 237.832031 393.367188 237.832031 392.882812 237.832031 391.910156 C 237.832031 390.9375 238.355469 390.191406 239.402344 389.667969 L 272.921875 389.667969 L 272.921875 372.867188 L 273.035156 356.0625 C 273.785156 355.089844 274.492188 354.605469 275.167969 354.605469 C 276.136719 354.605469 276.886719 355.164062 277.410156 356.285156 L 277.410156 389.667969 L 310.820312 389.667969 C 311.941406 390.265625 312.5 391.015625 312.5 391.910156 C 312.5 392.804688 311.941406 393.554688 310.820312 394.152344 L 277.410156 394.152344 L 277.410156 427.535156 C 276.808594 428.578125 276.136719 429.101562 275.390625 429.101562 L 274.941406 429.101562 C 274.042969 429.101562 273.371094 428.578125 272.921875 427.535156 L 272.921875 394.152344 L 239.402344 394.152344 C 238.355469 393.628906 237.832031 392.882812 237.832031 391.910156 Z M 237.832031 393.367188 " fill-opacity="1" fill-rule="nonzero"/><path fill="#000000" d="M 367.574219 355.164062 L 366.117188 355.726562 C 365.070312 356.097656 363.574219 356.472656 361.628906 356.847656 C 359.6875 357.21875 357.519531 357.480469 355.128906 357.628906 L 352.996094 357.628906 L 352.996094 352.476562 L 355.128906 352.476562 C 358.640625 352.328125 361.890625 351.769531 364.882812 350.796875 C 367.871094 349.824219 369.964844 348.929688 371.160156 348.109375 C 372.355469 347.285156 373.402344 346.464844 374.300781 345.644531 C 374.449219 345.417969 374.898438 345.308594 375.644531 345.308594 C 376.316406 345.308594 376.953125 345.53125 377.550781 345.980469 L 377.550781 379.476562 L 377.664062 413.082031 C 378.1875 413.605469 378.636719 413.941406 379.007812 414.089844 C 379.382812 414.242188 380.28125 414.390625 381.699219 414.539062 C 383.121094 414.6875 385.4375 414.761719 388.652344 414.761719 L 391.566406 414.761719 L 391.566406 419.917969 L 390.332031 419.917969 C 388.761719 419.691406 382.820312 419.582031 372.507812 419.582031 C 362.339844 419.582031 356.472656 419.691406 354.902344 419.917969 L 353.558594 419.917969 L 353.558594 414.761719 L 356.472656 414.761719 C 358.117188 414.761719 359.539062 414.761719 360.734375 414.761719 C 361.929688 414.761719 362.863281 414.726562 363.535156 414.652344 C 364.210938 414.578125 364.808594 414.464844 365.332031 414.316406 C 365.855469 414.167969 366.152344 414.089844 366.226562 414.089844 C 366.300781 414.089844 366.527344 413.90625 366.898438 413.53125 C 367.273438 413.15625 367.5 413.007812 367.574219 413.082031 Z M 367.574219 355.164062 " fill-opacity="1" fill-rule="nonzero"/><path fill="#000000" d="M 407.597656 373.203125 C 407.597656 373.203125 407.597656 370.328125 407.597656 364.574219 C 407.597656 358.824219 409.617188 354.195312 413.652344 350.683594 C 417.691406 347.175781 422.324219 345.382812 427.554688 345.308594 C 432.863281 345.308594 437.570312 346.875 441.683594 350.011719 C 445.792969 353.148438 447.847656 357.21875 447.847656 362.222656 C 447.847656 364.464844 447.4375 366.554688 446.617188 368.496094 C 445.792969 370.4375 444.820312 372.007812 443.699219 373.203125 C 442.578125 374.398438 441.421875 375.441406 440.226562 376.339844 C 439.027344 377.234375 438.058594 377.90625 437.308594 378.355469 C 436.5625 378.804688 436.152344 379.101562 436.078125 379.25 L 437.644531 380.257812 C 438.691406 381.007812 439.738281 381.753906 440.785156 382.5 C 441.832031 383.246094 442.429688 383.65625 442.578125 383.734375 C 448.183594 388.140625 450.988281 393.703125 450.988281 400.425781 C 450.988281 406.324219 448.820312 411.441406 444.484375 415.773438 C 440.148438 420.101562 434.542969 422.304688 427.667969 422.382812 C 420.941406 422.382812 415.410156 420.476562 411.074219 416.667969 C 406.738281 412.859375 404.570312 408.152344 404.570312 402.554688 C 404.570312 394.488281 409.394531 387.765625 419.035156 382.386719 L 417.015625 380.933594 C 415.445312 379.960938 414.4375 379.214844 413.988281 378.691406 C 409.730469 375.03125 407.597656 370.328125 407.597656 364.574219 Z M 431.816406 376.675781 L 432.488281 376.226562 C 432.9375 375.929688 433.273438 375.703125 433.496094 375.554688 C 433.722656 375.40625 434.097656 375.144531 434.621094 374.769531 C 435.140625 374.398438 435.589844 374.023438 435.964844 373.648438 C 436.339844 373.277344 436.75 372.828125 437.199219 372.304688 C 437.644531 371.78125 438.058594 371.296875 438.429688 370.847656 C 438.804688 370.402344 439.179688 369.804688 439.550781 369.058594 C 439.925781 368.308594 440.261719 367.675781 440.5625 367.152344 C 440.859375 366.628906 441.046875 365.882812 441.121094 364.910156 C 441.195312 363.941406 441.269531 363.121094 441.347656 362.449219 C 441.347656 359.234375 440.261719 356.511719 438.09375 354.269531 C 435.925781 352.027344 433.421875 350.609375 430.582031 350.011719 C 430.058594 349.9375 428.828125 349.902344 426.882812 349.902344 C 423.820312 349.902344 420.941406 350.871094 418.25 352.8125 C 415.558594 354.753906 414.175781 357.183594 414.101562 360.09375 C 414.101562 361.8125 414.585938 363.382812 415.558594 364.800781 C 416.53125 366.21875 417.503906 367.300781 418.472656 368.046875 C 419.445312 368.796875 421.316406 369.992188 424.082031 371.632812 C 424.601562 372.007812 425.015625 372.269531 425.3125 372.417969 Z M 427.78125 417.5625 C 432.113281 417.5625 435.851562 416.292969 438.992188 413.753906 C 442.132812 411.214844 443.699219 408.152344 443.699219 404.570312 C 443.699219 403.300781 443.515625 402.105469 443.140625 400.984375 C 442.765625 399.863281 442.316406 398.929688 441.792969 398.183594 C 441.269531 397.4375 440.449219 396.617188 439.328125 395.71875 C 438.207031 394.824219 437.347656 394.152344 436.75 393.703125 C 436.152344 393.253906 435.066406 392.546875 433.496094 391.574219 C 431.929688 390.601562 430.917969 389.96875 430.472656 389.667969 C 429.425781 388.996094 428.304688 388.289062 427.105469 387.542969 C 425.910156 386.792969 424.941406 386.160156 424.191406 385.636719 L 423.296875 385.078125 C 422.847656 385.078125 421.761719 385.710938 420.042969 386.980469 C 418.324219 388.25 416.53125 390.304688 414.664062 393.144531 C 412.792969 395.980469 411.820312 399.042969 411.746094 402.328125 C 411.746094 406.734375 413.355469 410.355469 416.566406 413.195312 C 419.78125 416.03125 423.519531 417.488281 427.78125 417.5625 Z M 427.78125 417.5625 " fill-opacity="1" fill-rule="nonzero"/><path fill="#000000" d="M 461.640625 387.542969 C 462.164062 384.40625 464.179688 380.78125 467.695312 376.675781 C 471.207031 372.566406 475.542969 370.476562 480.699219 370.402344 C 483.316406 370.402344 485.707031 371.074219 487.875 372.417969 C 490.042969 373.761719 491.648438 375.441406 492.695312 377.457031 C 495.835938 372.753906 499.609375 370.402344 504.019531 370.402344 C 506.785156 370.402344 509.175781 371.222656 511.195312 372.867188 C 513.214844 374.507812 514.257812 376.710938 514.335938 379.476562 C 514.335938 381.640625 513.8125 383.394531 512.765625 384.742188 C 511.71875 386.085938 510.710938 386.90625 509.738281 387.207031 C 508.765625 387.503906 507.90625 387.652344 507.160156 387.652344 C 505.738281 387.652344 504.582031 387.242188 503.683594 386.421875 C 502.785156 385.597656 502.339844 384.515625 502.339844 383.171875 C 502.339844 379.738281 504.207031 377.382812 507.945312 376.113281 C 507.121094 375.144531 505.625 374.660156 503.460938 374.660156 C 502.488281 374.660156 501.777344 374.734375 501.328125 374.882812 C 498.488281 376.078125 496.394531 378.542969 495.050781 382.277344 C 490.566406 398.78125 488.324219 408.414062 488.324219 411.179688 C 488.324219 413.269531 488.921875 414.761719 490.117188 415.660156 C 491.3125 416.554688 492.621094 417.003906 494.042969 417.003906 C 496.808594 417.003906 499.535156 415.773438 502.226562 413.308594 C 504.917969 410.84375 506.746094 407.816406 507.71875 404.234375 C 507.945312 403.484375 508.167969 403.074219 508.390625 403 C 508.617188 402.925781 509.214844 402.851562 510.1875 402.777344 L 510.632812 402.777344 C 511.753906 402.777344 512.316406 403.074219 512.316406 403.671875 C 512.316406 403.746094 512.242188 404.160156 512.09375 404.90625 C 510.894531 409.164062 508.578125 412.933594 505.140625 416.21875 C 501.703125 419.507812 497.703125 421.148438 493.144531 421.148438 C 487.914062 421.148438 483.949219 418.796875 481.261719 414.089844 C 478.195312 418.722656 474.683594 421.035156 470.722656 421.035156 L 470.046875 421.035156 C 466.386719 421.035156 463.769531 420.066406 462.199219 418.125 C 460.628906 416.183594 459.808594 414.128906 459.734375 411.964844 C 459.734375 409.574219 460.445312 407.632812 461.863281 406.136719 C 463.285156 404.644531 464.964844 403.898438 466.910156 403.898438 C 470.121094 403.898438 471.730469 405.464844 471.730469 408.601562 C 471.730469 410.097656 471.28125 411.402344 470.382812 412.523438 C 469.488281 413.644531 468.628906 414.390625 467.804688 414.761719 C 466.984375 415.136719 466.496094 415.324219 466.347656 415.324219 L 466.011719 415.4375 C 466.011719 415.511719 466.234375 415.660156 466.683594 415.882812 C 467.132812 416.109375 467.730469 416.371094 468.480469 416.667969 C 469.226562 416.964844 469.9375 417.078125 470.609375 417.003906 C 473.300781 417.003906 475.617188 415.324219 477.558594 411.964844 C 478.234375 410.769531 479.09375 408.230469 480.140625 404.34375 C 481.183594 400.460938 482.230469 396.429688 483.277344 392.246094 C 484.324219 388.0625 484.921875 385.597656 485.070312 384.851562 C 485.445312 382.835938 485.632812 381.378906 485.632812 380.484375 C 485.632812 378.390625 485.070312 376.898438 483.949219 376.003906 C 482.828125 375.105469 481.558594 374.660156 480.140625 374.660156 C 477.148438 374.660156 474.347656 375.851562 471.730469 378.242188 C 469.113281 380.632812 467.28125 383.695312 466.234375 387.429688 C 466.085938 388.101562 465.898438 388.476562 465.675781 388.550781 C 465.453125 388.625 464.851562 388.699219 463.882812 388.773438 L 462.3125 388.773438 C 461.863281 388.324219 461.640625 387.914062 461.640625 387.542969 Z M 461.640625 387.542969 " fill-opacity="1" fill-rule="nonzero"/><path fill="#000000" d="M 551.132812 393.367188 C 551.132812 393.367188 551.132812 392.882812 551.132812 391.910156 C 551.132812 390.9375 551.65625 390.191406 552.699219 389.667969 L 586.222656 389.667969 L 586.222656 372.867188 L 586.335938 356.0625 C 587.082031 355.089844 587.792969 354.605469 588.464844 354.605469 C 589.4375 354.605469 590.1875 355.164062 590.707031 356.285156 L 590.707031 389.667969 L 624.121094 389.667969 C 625.242188 390.265625 625.800781 391.015625 625.800781 391.910156 C 625.800781 392.804688 625.242188 393.554688 624.121094 394.152344 L 590.707031 394.152344 L 590.707031 427.535156 C 590.109375 428.578125 589.4375 429.101562 588.691406 429.101562 L 588.242188 429.101562 C 587.34375 429.101562 586.671875 428.578125 586.222656 427.535156 L 586.222656 394.152344 L 552.699219 394.152344 C 551.65625 393.628906 551.132812 392.882812 551.132812 391.910156 Z M 551.132812 393.367188 " fill-opacity="1" fill-rule="nonzero"/><path fill="#000000" d="M 696.457031 387.765625 C 692.871094 393.441406 688.386719 396.28125 683.003906 396.28125 C 677.171875 396.28125 672.390625 394.074219 668.652344 389.667969 C 664.914062 385.261719 662.671875 380.558594 661.925781 375.554688 C 661.777344 374.359375 661.703125 372.867188 661.703125 371.074219 L 661.703125 370.175781 C 661.703125 363.230469 664.28125 357.183594 669.4375 352.027344 C 673.921875 347.546875 678.855469 345.308594 684.238281 345.308594 C 684.386719 345.308594 684.609375 345.308594 684.910156 345.308594 C 685.207031 345.308594 685.507812 345.34375 685.804688 345.417969 L 686.253906 345.417969 C 687.152344 345.417969 688.085938 345.496094 689.058594 345.644531 C 690.03125 345.792969 691.414062 346.242188 693.207031 346.988281 C 695 347.734375 696.757812 348.929688 698.476562 350.574219 C 700.195312 352.214844 701.800781 354.417969 703.296875 357.183594 C 706.511719 363.753906 708.117188 372.195312 708.117188 382.5 C 708.117188 392.957031 705.875 401.804688 701.390625 409.050781 C 698.773438 413.234375 695.636719 416.480469 691.972656 418.796875 C 688.308594 421.113281 684.421875 422.304688 680.3125 422.382812 C 675.753906 422.382812 672.015625 421.296875 669.101562 419.132812 C 666.1875 416.964844 664.691406 413.753906 664.617188 409.5 C 664.542969 405.242188 666.523438 403.148438 670.558594 403.226562 C 672.203125 403.226562 673.585938 403.746094 674.707031 404.792969 C 675.828125 405.839844 676.390625 407.296875 676.390625 409.164062 C 676.390625 410.507812 676.050781 411.664062 675.378906 412.636719 C 674.707031 413.605469 674.109375 414.203125 673.585938 414.425781 C 673.0625 414.652344 672.578125 414.839844 672.128906 414.988281 L 671.679688 415.101562 C 671.679688 415.25 671.941406 415.472656 672.464844 415.773438 C 672.988281 416.070312 673.960938 416.445312 675.378906 416.890625 C 676.800781 417.339844 678.371094 417.527344 680.089844 417.453125 L 680.761719 417.453125 C 685.246094 417.453125 689.019531 415.0625 692.085938 410.28125 C 695 406.101562 696.457031 398.855469 696.457031 388.550781 Z M 684.347656 392.132812 C 687.9375 392.132812 690.8125 390.304688 692.980469 386.644531 C 695.148438 382.984375 696.269531 378.019531 696.34375 371.746094 C 696.34375 365.921875 696.046875 361.738281 695.449219 359.199219 C 695.300781 358.453125 695.074219 357.707031 694.777344 356.957031 C 694.476562 356.210938 693.953125 355.242188 693.207031 354.046875 C 692.457031 352.851562 691.335938 351.84375 689.84375 351.019531 C 688.347656 350.199219 686.589844 349.824219 684.574219 349.902344 C 681.734375 349.902344 679.304688 350.910156 677.285156 352.925781 C 675.714844 354.570312 674.707031 356.511719 674.257812 358.75 C 673.808594 360.992188 673.546875 364.910156 673.472656 370.511719 C 673.472656 376.710938 673.660156 380.894531 674.035156 383.058594 C 674.40625 385.226562 675.15625 386.980469 676.277344 388.324219 C 678.144531 390.863281 680.835938 392.132812 684.347656 392.132812 Z M 684.347656 392.132812 " fill-opacity="1" fill-rule="nonzero"/></svg>