<svg xmlns="http://www.w3.org/2000/svg" xmlns:xlink="http://www.w3.org/1999/xlink" width="1000" zoomAndPan="magnify" viewBox="0 0 750 749.999995" height="1000" preserveAspectRatio="xMidYMid meet" version="1.0"><rect x="-75" width="900" fill="#ffffff" y="-74.999999" height="899.999994" fill-opacity="1"/><rect x="-75" width="900" fill="#ffffff" y="-74.999999" height="899.999994" fill-opacity="1"/><path fill="#000000" d="M 85.328125 416.476562 C 84.085938 416.269531 79.632812 416.164062 71.972656 416.164062 C 63.964844 416.164062 59.34375 416.269531 58.101562 416.476562 L 57.167969 416.476562 L 57.167969 411.714844 L 60.378906 411.714844 C 61.757812 411.714844 62.691406 411.714844 63.171875 411.714844 C 63.65625 411.714844 64.242188 411.648438 64.933594 411.511719 C 65.621094 411.371094 66.105469 411.199219 66.382812 410.992188 C 66.65625 410.785156 66.898438 410.511719 67.105469 410.164062 C 67.175781 410.027344 67.210938 408.164062 67.210938 404.578125 L 67.210938 399.40625 L 40.398438 399.40625 L 40.398438 394.648438 L 56.03125 370.753906 C 66.589844 354.753906 71.9375 346.722656 72.074219 346.652344 C 72.214844 346.515625 72.9375 346.445312 74.25 346.445312 L 76.113281 346.445312 L 76.734375 347.066406 L 76.734375 394.648438 L 86.257812 394.648438 L 86.257812 399.40625 L 76.734375 399.40625 L 76.734375 404.683594 C 76.734375 407.511719 76.734375 409.164062 76.734375 409.648438 C 76.734375 410.128906 76.941406 410.542969 77.355469 410.890625 C 77.90625 411.371094 79.875 411.648438 83.253906 411.714844 L 86.257812 411.714844 L 86.257812 416.476562 Z M 67.832031 394.648438 L 67.832031 360.097656 L 45.160156 394.546875 L 56.445312 394.648438 Z M 67.832031 394.648438 " fill-opacity="1" fill-rule="nonzero"/><path fill="#000000" d="M 94.644531 386.582031 C 95.125 383.683594 96.988281 380.339844 100.234375 376.546875 C 103.476562 372.753906 107.480469 370.824219 112.242188 370.753906 C 114.65625 370.753906 116.867188 371.375 118.867188 372.617188 C 120.867188 373.855469 122.351562 375.410156 123.316406 377.269531 C 126.214844 372.925781 129.703125 370.753906 133.773438 370.753906 C 136.328125 370.753906 138.535156 371.511719 140.398438 373.03125 C 142.261719 374.546875 143.226562 376.582031 143.296875 379.132812 C 143.296875 381.132812 142.8125 382.753906 141.847656 383.996094 C 140.882812 385.234375 139.949219 385.996094 139.054688 386.269531 C 138.15625 386.546875 137.363281 386.683594 136.671875 386.683594 C 135.359375 386.683594 134.292969 386.304688 133.464844 385.546875 C 132.636719 384.789062 132.222656 383.789062 132.222656 382.546875 C 132.222656 379.375 133.945312 377.203125 137.398438 376.027344 C 136.636719 375.132812 135.257812 374.683594 133.257812 374.683594 C 132.359375 374.683594 131.703125 374.753906 131.289062 374.890625 C 128.667969 375.996094 126.734375 378.269531 125.492188 381.71875 C 121.351562 396.960938 119.28125 405.855469 119.28125 408.40625 C 119.28125 410.335938 119.832031 411.714844 120.9375 412.542969 C 122.042969 413.371094 123.25 413.785156 124.558594 413.785156 C 127.113281 413.785156 129.632812 412.648438 132.117188 410.371094 C 134.601562 408.097656 136.292969 405.304688 137.191406 401.992188 C 137.398438 401.304688 137.605469 400.925781 137.8125 400.855469 C 138.019531 400.785156 138.570312 400.71875 139.46875 400.648438 L 139.882812 400.648438 C 140.917969 400.648438 141.433594 400.925781 141.433594 401.476562 C 141.433594 401.546875 141.363281 401.925781 141.226562 402.613281 C 140.121094 406.542969 137.984375 410.027344 134.808594 413.0625 C 131.632812 416.097656 127.941406 417.613281 123.730469 417.613281 C 118.902344 417.613281 115.242188 415.441406 112.757812 411.097656 C 109.929688 415.371094 106.6875 417.507812 103.027344 417.507812 L 102.40625 417.507812 C 99.027344 417.507812 96.609375 416.613281 95.160156 414.820312 C 93.710938 413.027344 92.953125 411.128906 92.882812 409.128906 C 92.882812 406.925781 93.539062 405.132812 94.851562 403.75 C 96.160156 402.371094 97.714844 401.683594 99.507812 401.683594 C 102.476562 401.683594 103.960938 403.132812 103.960938 406.027344 C 103.960938 407.40625 103.546875 408.613281 102.71875 409.648438 C 101.890625 410.683594 101.097656 411.371094 100.335938 411.714844 C 99.578125 412.0625 99.128906 412.234375 98.992188 412.234375 L 98.679688 412.335938 C 98.679688 412.40625 98.886719 412.542969 99.300781 412.75 C 99.714844 412.957031 100.269531 413.199219 100.957031 413.476562 C 101.648438 413.75 102.304688 413.855469 102.925781 413.785156 C 105.410156 413.785156 107.546875 412.234375 109.34375 409.128906 C 109.964844 408.027344 110.757812 405.683594 111.722656 402.097656 C 112.691406 398.511719 113.65625 394.785156 114.621094 390.925781 C 115.589844 387.0625 116.140625 384.789062 116.277344 384.097656 C 116.625 382.234375 116.796875 380.890625 116.796875 380.0625 C 116.796875 378.132812 116.277344 376.753906 115.242188 375.925781 C 114.207031 375.097656 113.035156 374.683594 111.722656 374.683594 C 108.964844 374.683594 106.375 375.789062 103.960938 377.996094 C 101.542969 380.203125 99.855469 383.027344 98.886719 386.476562 C 98.75 387.097656 98.578125 387.441406 98.371094 387.511719 C 98.164062 387.582031 97.609375 387.648438 96.714844 387.71875 L 95.265625 387.71875 C 94.851562 387.304688 94.644531 386.925781 94.644531 386.582031 Z M 94.644531 386.582031 " fill-opacity="1" fill-rule="nonzero"/><path fill="#000000" d="M 159.867188 342.378906 C 158.550781 342.378906 157.5 341.941406 156.71875 341.0625 C 155.9375 340.183594 155.550781 339.113281 155.550781 337.84375 C 155.550781 334.382812 156.84375 331.386719 159.429688 328.847656 C 162.015625 326.3125 165.234375 325.046875 169.089844 325.046875 C 173.527344 325.046875 177.238281 326.410156 180.214844 329.140625 C 183.191406 331.871094 184.703125 335.40625 184.75 339.746094 C 184.75 341.84375 184.261719 343.84375 183.289062 345.742188 C 182.3125 347.644531 181.140625 349.300781 179.773438 350.714844 C 178.410156 352.128906 176.457031 353.933594 173.917969 356.128906 C 172.164062 357.640625 169.722656 359.882812 166.601562 362.855469 L 162.28125 366.953125 L 167.84375 367.023438 C 175.503906 367.023438 179.578125 366.902344 180.066406 366.660156 C 180.410156 366.5625 180.996094 364.390625 181.824219 360.152344 L 181.824219 359.929688 L 184.75 359.929688 L 184.75 360.152344 C 184.703125 360.296875 184.386719 362.515625 183.800781 366.804688 C 183.214844 371.097656 182.847656 373.339844 182.703125 373.535156 L 182.703125 373.753906 L 155.550781 373.753906 L 155.550781 371.488281 C 155.550781 371.144531 155.695312 370.78125 155.988281 370.390625 C 156.28125 370 157.011719 369.144531 158.183594 367.828125 C 159.597656 366.269531 160.820312 364.90625 161.84375 363.734375 C 162.28125 363.246094 163.113281 362.34375 164.332031 361.027344 C 165.550781 359.710938 166.382812 358.808594 166.820312 358.324219 C 167.257812 357.835938 167.964844 357.03125 168.941406 355.910156 C 169.917969 354.789062 170.601562 353.957031 170.992188 353.421875 C 171.382812 352.886719 171.941406 352.15625 172.675781 351.226562 C 173.40625 350.300781 173.917969 349.523438 174.210938 348.886719 C 174.503906 348.253906 174.871094 347.546875 175.308594 346.765625 C 175.75 345.988281 176.066406 345.207031 176.261719 344.425781 C 176.457031 343.648438 176.628906 342.914062 176.773438 342.234375 C 176.921875 341.550781 176.992188 340.746094 176.992188 339.820312 C 176.992188 336.746094 176.164062 334.089844 174.503906 331.847656 C 172.847656 329.605469 170.480469 328.484375 167.40625 328.484375 C 165.796875 328.484375 164.378906 328.898438 163.160156 329.726562 C 161.941406 330.554688 161.085938 331.359375 160.597656 332.140625 C 160.109375 332.921875 159.867188 333.382812 159.867188 333.53125 C 159.867188 333.578125 159.988281 333.601562 160.234375 333.601562 C 161.113281 333.601562 162.015625 333.945312 162.941406 334.628906 C 163.867188 335.308594 164.332031 336.429688 164.332031 337.992188 C 164.332031 339.210938 163.941406 340.234375 163.160156 341.0625 C 162.378906 341.890625 161.28125 342.332031 159.867188 342.378906 Z M 159.867188 342.378906 " fill-opacity="1" fill-rule="nonzero"/><path fill="#000000" d="M 222.46875 391.960938 C 222.46875 391.960938 222.46875 391.511719 222.46875 390.613281 C 222.46875 389.71875 222.953125 389.027344 223.917969 388.546875 L 254.871094 388.546875 L 254.871094 373.03125 L 254.976562 357.511719 C 255.664062 356.617188 256.320312 356.167969 256.941406 356.167969 C 257.839844 356.167969 258.527344 356.6875 259.011719 357.71875 L 259.011719 388.546875 L 289.859375 388.546875 C 290.894531 389.097656 291.414062 389.785156 291.414062 390.613281 C 291.414062 391.441406 290.894531 392.132812 289.859375 392.683594 L 259.011719 392.683594 L 259.011719 423.507812 C 258.460938 424.472656 257.839844 424.957031 257.148438 424.957031 L 256.734375 424.957031 C 255.90625 424.957031 255.285156 424.472656 254.871094 423.507812 L 254.871094 392.683594 L 223.917969 392.683594 C 222.953125 392.199219 222.46875 391.511719 222.46875 390.613281 Z M 222.46875 391.960938 " fill-opacity="1" fill-rule="nonzero"/><path fill="#000000" d="M 342.261719 356.6875 L 340.917969 357.203125 C 339.949219 357.546875 338.570312 357.890625 336.777344 358.238281 C 334.980469 358.582031 332.980469 358.824219 330.773438 358.960938 L 328.804688 358.960938 L 328.804688 354.203125 L 330.773438 354.203125 C 334.015625 354.066406 337.019531 353.546875 339.777344 352.652344 C 342.539062 351.753906 344.472656 350.925781 345.574219 350.167969 C 346.679688 349.410156 347.644531 348.652344 348.472656 347.894531 C 348.613281 347.6875 349.027344 347.582031 349.714844 347.582031 C 350.335938 347.582031 350.925781 347.789062 351.476562 348.203125 L 351.476562 379.132812 L 351.578125 410.164062 C 352.0625 410.648438 352.476562 410.957031 352.820312 411.097656 C 353.167969 411.234375 353.996094 411.371094 355.304688 411.511719 C 356.617188 411.648438 358.757812 411.714844 361.726562 411.714844 L 364.417969 411.714844 L 364.417969 416.476562 L 363.277344 416.476562 C 361.828125 416.269531 356.339844 416.164062 346.816406 416.164062 C 337.433594 416.164062 332.015625 416.269531 330.566406 416.476562 L 329.324219 416.476562 L 329.324219 411.714844 L 332.015625 411.714844 C 333.53125 411.714844 334.84375 411.714844 335.949219 411.714844 C 337.050781 411.714844 337.914062 411.683594 338.535156 411.613281 C 339.15625 411.542969 339.710938 411.441406 340.191406 411.304688 C 340.675781 411.164062 340.953125 411.097656 341.019531 411.097656 C 341.089844 411.097656 341.296875 410.921875 341.640625 410.578125 C 341.988281 410.234375 342.195312 410.097656 342.261719 410.164062 Z M 342.261719 356.6875 " fill-opacity="1" fill-rule="nonzero"/><path fill="#000000" d="M 376.320312 384.097656 C 376.320312 372.855469 379.117188 363.960938 384.707031 357.410156 C 390.296875 350.859375 396.507812 347.582031 403.339844 347.582031 C 408.101562 347.582031 411.519531 348.824219 413.589844 351.304688 C 415.660156 353.789062 416.695312 356.546875 416.695312 359.582031 C 416.695312 361.304688 416.210938 362.683594 415.246094 363.71875 C 414.277344 364.753906 412.933594 365.269531 411.207031 365.269531 C 409.621094 365.269531 408.308594 364.789062 407.273438 363.824219 C 406.238281 362.859375 405.71875 361.511719 405.71875 359.789062 C 405.71875 356.753906 407.34375 354.925781 410.585938 354.304688 C 409.066406 352.789062 406.929688 351.925781 404.167969 351.71875 C 399.269531 351.71875 395.230469 353.789062 392.054688 357.925781 C 388.8125 362.476562 387.191406 369.445312 387.191406 378.820312 L 387.292969 379.234375 C 387.640625 378.820312 387.914062 378.375 388.121094 377.890625 C 390.953125 373.753906 394.644531 371.683594 399.199219 371.683594 L 399.613281 371.683594 C 402.789062 371.683594 405.582031 372.339844 408 373.648438 C 409.65625 374.617188 411.3125 375.996094 412.96875 377.789062 C 414.625 379.582031 415.96875 381.546875 417.003906 383.683594 C 418.453125 387.0625 419.179688 390.753906 419.179688 394.753906 L 419.179688 396.613281 C 419.179688 398.199219 419.003906 399.683594 418.660156 401.0625 C 417.902344 405.132812 415.691406 409.097656 412.035156 412.957031 C 408.378906 416.820312 403.753906 418.75 398.164062 418.75 C 396.230469 418.75 394.367188 418.476562 392.574219 417.921875 C 390.777344 417.371094 388.847656 416.335938 386.777344 414.820312 C 384.707031 413.304688 382.945312 411.269531 381.496094 408.71875 C 380.046875 406.164062 378.804688 402.820312 377.769531 398.683594 C 376.734375 394.546875 376.25 389.683594 376.320312 384.097656 Z M 398.578125 375.410156 C 396.507812 375.410156 394.714844 375.996094 393.195312 377.167969 C 391.675781 378.339844 390.503906 379.890625 389.675781 381.820312 C 388.847656 383.753906 388.261719 385.71875 387.914062 387.71875 C 387.570312 389.71875 387.363281 391.855469 387.292969 394.132812 C 387.292969 399.855469 387.707031 403.957031 388.535156 406.441406 C 389.363281 408.921875 390.675781 410.921875 392.46875 412.441406 C 394.125 413.683594 395.957031 414.304688 397.957031 414.304688 C 401.476562 414.304688 404.167969 412.992188 406.03125 410.371094 C 406.929688 409.128906 407.550781 407.578125 407.894531 405.71875 C 408.238281 403.855469 408.414062 400.234375 408.414062 394.855469 C 408.414062 389.339844 408.238281 385.648438 407.894531 383.789062 C 407.550781 381.925781 406.929688 380.375 406.03125 379.132812 C 404.167969 376.648438 401.683594 375.410156 398.578125 375.410156 Z M 398.578125 375.410156 " fill-opacity="1" fill-rule="nonzero"/><path fill="#000000" d="M 429.117188 386.582031 C 429.597656 383.683594 431.460938 380.339844 434.707031 376.546875 C 437.949219 372.753906 441.953125 370.824219 446.714844 370.753906 C 449.128906 370.753906 451.339844 371.375 453.339844 372.617188 C 455.339844 373.855469 456.824219 375.410156 457.792969 377.269531 C 460.691406 372.925781 464.175781 370.753906 468.246094 370.753906 C 470.800781 370.753906 473.007812 371.511719 474.871094 373.03125 C 476.734375 374.546875 477.703125 376.582031 477.769531 379.132812 C 477.769531 381.132812 477.289062 382.753906 476.320312 383.996094 C 475.355469 385.234375 474.421875 385.996094 473.527344 386.269531 C 472.628906 386.546875 471.835938 386.683594 471.144531 386.683594 C 469.835938 386.683594 468.765625 386.304688 467.9375 385.546875 C 467.109375 384.789062 466.695312 383.789062 466.695312 382.546875 C 466.695312 379.375 468.417969 377.203125 471.871094 376.027344 C 471.109375 375.132812 469.730469 374.683594 467.730469 374.683594 C 466.832031 374.683594 466.175781 374.753906 465.761719 374.890625 C 463.140625 375.996094 461.207031 378.269531 459.964844 381.71875 C 455.824219 396.960938 453.753906 405.855469 453.753906 408.40625 C 453.753906 410.335938 454.304688 411.714844 455.410156 412.542969 C 456.515625 413.371094 457.722656 413.785156 459.035156 413.785156 C 461.585938 413.785156 464.105469 412.648438 466.589844 410.371094 C 469.074219 408.097656 470.765625 405.304688 471.664062 401.992188 C 471.871094 401.304688 472.078125 400.925781 472.285156 400.855469 C 472.492188 400.785156 473.042969 400.71875 473.941406 400.648438 L 474.355469 400.648438 C 475.390625 400.648438 475.90625 400.925781 475.90625 401.476562 C 475.90625 401.546875 475.839844 401.925781 475.699219 402.613281 C 474.597656 406.542969 472.457031 410.027344 469.28125 413.0625 C 466.105469 416.097656 462.414062 417.613281 458.207031 417.613281 C 453.375 417.613281 449.714844 415.441406 447.230469 411.097656 C 444.402344 415.371094 441.160156 417.507812 437.5 417.507812 L 436.878906 417.507812 C 433.5 417.507812 431.082031 416.613281 429.632812 414.820312 C 428.183594 413.027344 427.425781 411.128906 427.355469 409.128906 C 427.355469 406.925781 428.011719 405.132812 429.324219 403.75 C 430.632812 402.371094 432.1875 401.683594 433.980469 401.683594 C 436.949219 401.683594 438.433594 403.132812 438.433594 406.027344 C 438.433594 407.40625 438.019531 408.613281 437.191406 409.648438 C 436.363281 410.683594 435.570312 411.371094 434.808594 411.714844 C 434.050781 412.0625 433.601562 412.234375 433.464844 412.234375 L 433.152344 412.335938 C 433.152344 412.40625 433.359375 412.542969 433.773438 412.75 C 434.1875 412.957031 434.742188 413.199219 435.429688 413.476562 C 436.121094 413.75 436.777344 413.855469 437.398438 413.785156 C 439.882812 413.785156 442.023438 412.234375 443.816406 409.128906 C 444.4375 408.027344 445.230469 405.683594 446.195312 402.097656 C 447.164062 398.511719 448.128906 394.785156 449.09375 390.925781 C 450.0625 387.0625 450.613281 384.789062 450.75 384.097656 C 451.097656 382.234375 451.269531 380.890625 451.269531 380.0625 C 451.269531 378.132812 450.75 376.753906 449.714844 375.925781 C 448.679688 375.097656 447.507812 374.683594 446.195312 374.683594 C 443.4375 374.683594 440.847656 375.789062 438.433594 377.996094 C 436.015625 380.203125 434.328125 383.027344 433.359375 386.476562 C 433.222656 387.097656 433.050781 387.441406 432.84375 387.511719 C 432.636719 387.582031 432.082031 387.648438 431.1875 387.71875 L 429.738281 387.71875 C 429.324219 387.304688 429.117188 386.925781 429.117188 386.582031 Z M 429.117188 386.582031 " fill-opacity="1" fill-rule="nonzero"/><path fill="#000000" d="M 511.746094 391.960938 C 511.746094 391.960938 511.746094 391.511719 511.746094 390.613281 C 511.746094 389.71875 512.230469 389.027344 513.195312 388.546875 L 544.148438 388.546875 L 544.148438 373.03125 L 544.25 357.511719 C 544.941406 356.617188 545.597656 356.167969 546.21875 356.167969 C 547.113281 356.167969 547.804688 356.6875 548.289062 357.71875 L 548.289062 388.546875 L 579.136719 388.546875 C 580.171875 389.097656 580.691406 389.785156 580.691406 390.613281 C 580.691406 391.441406 580.171875 392.132812 579.136719 392.683594 L 548.289062 392.683594 L 548.289062 423.507812 C 547.738281 424.472656 547.113281 424.957031 546.425781 424.957031 L 546.011719 424.957031 C 545.183594 424.957031 544.5625 424.472656 544.148438 423.507812 L 544.148438 392.683594 L 513.195312 392.683594 C 512.230469 392.199219 511.746094 391.511719 511.746094 390.613281 Z M 511.746094 391.960938 " fill-opacity="1" fill-rule="nonzero"/><path fill="#000000" d="M 631.539062 356.6875 L 630.195312 357.203125 C 629.226562 357.546875 627.847656 357.890625 626.050781 358.238281 C 624.257812 358.582031 622.257812 358.824219 620.046875 358.960938 L 618.082031 358.960938 L 618.082031 354.203125 L 620.046875 354.203125 C 623.292969 354.066406 626.292969 353.546875 629.054688 352.652344 C 631.816406 351.753906 633.746094 350.925781 634.851562 350.167969 C 635.957031 349.410156 636.921875 348.652344 637.75 347.894531 C 637.886719 347.6875 638.300781 347.582031 638.992188 347.582031 C 639.613281 347.582031 640.199219 347.789062 640.753906 348.203125 L 640.753906 379.132812 L 640.855469 410.164062 C 641.339844 410.648438 641.753906 410.957031 642.097656 411.097656 C 642.441406 411.234375 643.269531 411.371094 644.582031 411.511719 C 645.894531 411.648438 648.035156 411.714844 651 411.714844 L 653.691406 411.714844 L 653.691406 416.476562 L 652.554688 416.476562 C 651.105469 416.269531 645.617188 416.164062 636.09375 416.164062 C 626.707031 416.164062 621.289062 416.269531 619.839844 416.476562 L 618.597656 416.476562 L 618.597656 411.714844 L 621.289062 411.714844 C 622.808594 411.714844 624.121094 411.714844 625.222656 411.714844 C 626.328125 411.714844 627.191406 411.683594 627.8125 411.613281 C 628.433594 411.542969 628.984375 411.441406 629.46875 411.304688 C 629.953125 411.164062 630.226562 411.097656 630.296875 411.097656 C 630.367188 411.097656 630.574219 410.921875 630.917969 410.578125 C 631.261719 410.234375 631.46875 410.097656 631.539062 410.164062 Z M 631.539062 356.6875 " fill-opacity="1" fill-rule="nonzero"/><path fill="#000000" d="M 665.597656 384.097656 C 665.597656 372.855469 668.390625 363.960938 673.980469 357.410156 C 679.574219 350.859375 685.785156 347.582031 692.617188 347.582031 C 697.378906 347.582031 700.792969 348.824219 702.863281 351.304688 C 704.933594 353.789062 705.96875 356.546875 705.96875 359.582031 C 705.96875 361.304688 705.488281 362.683594 704.519531 363.71875 C 703.554688 364.753906 702.207031 365.269531 700.484375 365.269531 C 698.894531 365.269531 697.585938 364.789062 696.550781 363.824219 C 695.515625 362.859375 694.996094 361.511719 694.996094 359.789062 C 694.996094 356.753906 696.617188 354.925781 699.863281 354.304688 C 698.34375 352.789062 696.203125 351.925781 693.445312 351.71875 C 688.542969 351.71875 684.507812 353.789062 681.332031 357.925781 C 678.089844 362.476562 676.46875 369.445312 676.46875 378.820312 L 676.570312 379.234375 C 676.914062 378.820312 677.191406 378.375 677.398438 377.890625 C 680.226562 373.753906 683.921875 371.683594 688.476562 371.683594 L 688.890625 371.683594 C 692.0625 371.683594 694.859375 372.339844 697.273438 373.648438 C 698.929688 374.617188 700.585938 375.996094 702.242188 377.789062 C 703.898438 379.582031 705.246094 381.546875 706.28125 383.683594 C 707.730469 387.0625 708.453125 390.753906 708.453125 394.753906 L 708.453125 396.613281 C 708.453125 398.199219 708.28125 399.683594 707.9375 401.0625 C 707.179688 405.132812 704.96875 409.097656 701.3125 412.957031 C 697.652344 416.820312 693.03125 418.75 687.441406 418.75 C 685.507812 418.75 683.644531 418.476562 681.851562 417.921875 C 680.054688 417.371094 678.125 416.335938 676.050781 414.820312 C 673.980469 413.304688 672.222656 411.269531 670.773438 408.71875 C 669.324219 406.164062 668.082031 402.820312 667.046875 398.683594 C 666.011719 394.546875 665.527344 389.683594 665.597656 384.097656 Z M 687.855469 375.410156 C 685.785156 375.410156 683.988281 375.996094 682.472656 377.167969 C 680.953125 378.339844 679.78125 379.890625 678.953125 381.820312 C 678.125 383.753906 677.535156 385.71875 677.191406 387.71875 C 676.847656 389.71875 676.640625 391.855469 676.570312 394.132812 C 676.570312 399.855469 676.984375 403.957031 677.8125 406.441406 C 678.640625 408.921875 679.953125 410.921875 681.746094 412.441406 C 683.402344 413.683594 685.230469 414.304688 687.234375 414.304688 C 690.753906 414.304688 693.445312 412.992188 695.308594 410.371094 C 696.203125 409.128906 696.824219 407.578125 697.171875 405.71875 C 697.515625 403.855469 697.6875 400.234375 697.6875 394.855469 C 697.6875 389.339844 697.515625 385.648438 697.171875 383.789062 C 696.824219 381.925781 696.203125 380.375 695.308594 379.132812 C 693.445312 376.648438 690.960938 375.410156 687.855469 375.410156 Z M 687.855469 375.410156 " fill-opacity="1" fill-rule="nonzero"/></svg>