<svg xmlns="http://www.w3.org/2000/svg" xmlns:xlink="http://www.w3.org/1999/xlink" width="1000" zoomAndPan="magnify" viewBox="0 0 750 749.999995" height="1000" preserveAspectRatio="xMidYMid meet" version="1.0"><defs><clipPath id="eb51fdd1d1"><path d="M 414 261.25 L 619 261.25 L 619 488.75 L 414 488.75 Z M 414 261.25 " clip-rule="nonzero"/></clipPath></defs><rect x="-75" width="900" fill="#ffffff" y="-74.999999" height="899.999994" fill-opacity="1"/><rect x="-75" width="900" fill="#ffffff" y="-74.999999" height="899.999994" fill-opacity="1"/><path fill="#000000" d="M 162.648438 428.628906 C 162.648438 433.144531 161.140625 436.910156 158.125 439.917969 C 155.113281 442.929688 151.441406 444.433594 147.109375 444.433594 L 145.128906 444.433594 C 153.792969 459.300781 165.285156 466.734375 179.601562 466.734375 C 192.785156 466.734375 202.390625 461.089844 208.417969 449.796875 C 212 443.589844 213.789062 431.546875 213.789062 413.667969 C 213.789062 394.289062 211.246094 381.210938 206.160156 374.433594 C 201.261719 368.226562 195.800781 365.121094 189.773438 365.121094 L 188.078125 365.121094 C 173.382812 365.121094 162.269531 371.519531 154.738281 384.316406 C 153.984375 385.632812 153.324219 386.382812 152.757812 386.574219 C 152.195312 386.761719 150.78125 386.949219 148.519531 387.136719 C 145.316406 387.136719 143.527344 386.574219 143.152344 385.445312 C 142.773438 384.691406 142.585938 368.226562 142.585938 336.046875 L 142.585938 299.636719 C 142.585938 290.226562 143.058594 285.523438 144 285.523438 C 144.375 285.148438 144.753906 284.960938 145.128906 284.960938 C 145.316406 284.960938 147.296875 285.710938 151.0625 287.21875 C 154.832031 288.722656 160.011719 290.226562 166.601562 291.734375 C 173.195312 293.238281 180.257812 293.992188 187.792969 293.992188 C 201.167969 293.992188 213.976562 291.359375 226.21875 286.089844 C 227.726562 285.335938 228.953125 284.960938 229.894531 284.960938 C 231.398438 284.960938 232.152344 286.652344 232.152344 290.039062 L 232.152344 293.710938 C 216.707031 311.960938 197.402344 321.089844 174.230469 321.089844 C 168.394531 321.089844 163.117188 320.523438 158.410156 319.394531 L 155.582031 318.832031 L 155.582031 367.378906 C 159.164062 364.746094 161.988281 362.675781 164.058594 361.167969 C 166.132812 359.664062 169.523438 358.160156 174.230469 356.652344 C 178.941406 355.148438 183.746094 354.394531 188.640625 354.394531 C 203.898438 354.394531 216.800781 360.511719 227.351562 372.742188 C 237.898438 384.972656 243.171875 399.460938 243.171875 416.210938 C 243.171875 433.523438 237.144531 448.292969 225.089844 460.523438 C 213.035156 472.753906 198.34375 478.964844 181.011719 479.152344 C 165.753906 479.152344 153.511719 474.074219 144.28125 463.910156 C 135.050781 453.75 130.4375 442.273438 130.4375 429.476562 C 130.4375 424.960938 131.472656 421.382812 133.546875 418.75 C 135.617188 416.117188 137.785156 414.421875 140.042969 413.667969 C 142.304688 412.917969 144.46875 412.539062 146.542969 412.539062 C 151.25 412.539062 155.113281 414.140625 158.125 417.339844 C 161.140625 420.539062 162.648438 424.300781 162.648438 428.628906 Z M 162.648438 428.628906 " fill-opacity="1" fill-rule="nonzero"/><path fill="#000000" d="M 284.707031 307.824219 C 295.253906 292.582031 309.664062 284.960938 327.9375 284.960938 C 336.976562 284.960938 346.019531 287.40625 355.0625 292.296875 C 364.101562 297.191406 371.449219 305.847656 377.097656 318.265625 C 384.070312 333.882812 387.554688 355.335938 387.554688 382.621094 C 387.554688 411.789062 383.503906 434.085938 375.402344 449.515625 C 371.636719 457.417969 366.457031 463.722656 359.863281 468.425781 C 353.269531 473.132812 347.527344 476.046875 342.628906 477.175781 C 337.730469 478.304688 332.929688 478.964844 328.21875 479.152344 C 323.320312 479.152344 318.425781 478.589844 313.527344 477.460938 C 308.628906 476.332031 302.882812 473.320312 296.292969 468.425781 C 289.699219 463.535156 284.519531 457.230469 280.75 449.515625 C 272.652344 434.085938 268.601562 411.789062 268.601562 382.621094 C 268.601562 349.878906 273.96875 324.945312 284.707031 307.824219 Z M 348.28125 304.433594 C 342.628906 298.414062 335.941406 295.402344 328.21875 295.402344 C 320.308594 295.402344 313.527344 298.414062 307.875 304.433594 C 303.167969 309.328125 300.058594 316.101562 298.550781 324.757812 C 297.042969 333.414062 296.292969 351.476562 296.292969 378.953125 C 296.292969 408.683594 297.042969 428.253906 298.550781 437.660156 C 300.058594 447.070312 303.449219 454.503906 308.722656 459.960938 C 313.996094 465.605469 320.496094 468.425781 328.21875 468.425781 C 335.753906 468.425781 342.15625 465.605469 347.433594 459.960938 C 352.894531 454.316406 356.285156 446.410156 357.601562 436.25 C 358.921875 426.089844 359.675781 406.988281 359.863281 378.953125 C 359.863281 351.667969 359.109375 333.695312 357.601562 325.039062 C 356.097656 316.382812 352.988281 309.515625 348.28125 304.433594 Z M 348.28125 304.433594 " fill-opacity="1" fill-rule="nonzero"/><g clip-path="url(#eb51fdd1d1)"><path fill="#000000" d="M 530.238281 302.175781 C 523.269531 302.175781 516.582031 301.332031 510.175781 299.636719 C 503.773438 297.945312 498.6875 296.25 494.921875 294.554688 C 491.152344 292.863281 489.175781 292.015625 488.988281 292.015625 C 491.433594 298.226562 492.660156 306.976562 492.660156 318.265625 C 492.660156 335.203125 488.988281 348.84375 481.640625 359.195312 C 474.292969 369.542969 465.722656 374.8125 455.929688 375 C 445.191406 375 435.679688 369.824219 427.390625 359.476562 C 419.105469 349.125 414.867188 335.390625 414.675781 318.265625 C 414.675781 301.519531 418.914062 287.875 427.390625 277.339844 C 435.867188 266.800781 445.378906 261.4375 455.929688 261.25 C 463.273438 261.25 469.867188 264.167969 475.707031 270 C 492.09375 284.488281 510.175781 291.734375 529.957031 291.734375 C 551.804688 291.734375 569.324219 283.265625 582.507812 266.332031 C 584.769531 263.320312 586.464844 261.71875 587.59375 261.53125 C 587.972656 261.34375 588.441406 261.25 589.007812 261.25 C 590.703125 261.25 592.117188 261.910156 593.246094 263.226562 C 594.375 264.542969 594.847656 266.140625 594.660156 268.023438 C 497.652344 413.480469 448.394531 486.679688 446.886719 487.621094 C 446.132812 488.375 445.191406 488.75 444.0625 488.75 C 441.613281 488.75 439.917969 487.714844 438.976562 485.644531 C 438.035156 483.953125 438.035156 482.257812 438.976562 480.566406 C 439.164062 480 459.980469 448.859375 501.417969 387.136719 C 521.386719 357.40625 536.644531 334.636719 547.191406 318.832031 C 557.738281 303.023438 563.011719 295.121094 563.011719 295.121094 C 553.03125 299.824219 542.105469 302.175781 530.238281 302.175781 Z M 457.339844 364.273438 C 462.617188 364.273438 467.890625 360.324219 473.164062 352.417969 C 478.4375 344.515625 481.167969 333.132812 481.359375 318.265625 C 481.359375 305.28125 479.003906 294.367188 474.292969 285.523438 C 469.585938 276.679688 463.273438 272.164062 455.363281 271.976562 C 454.046875 271.976562 452.726562 272.257812 451.410156 272.824219 C 450.089844 273.386719 448.300781 274.421875 446.039062 275.925781 C 443.78125 277.433594 441.894531 280.253906 440.390625 284.394531 C 438.882812 288.535156 437.65625 293.523438 436.714844 299.355469 C 436.339844 303.117188 436.152344 309.421875 436.152344 318.265625 L 436.152344 324.195312 C 436.152344 341.316406 439.257812 352.984375 445.476562 359.195312 C 448.867188 362.582031 452.445312 364.273438 456.210938 364.273438 Z M 540.128906 431.734375 C 540.128906 415.175781 544.269531 401.625 552.558594 391.089844 C 560.847656 380.550781 570.546875 375.1875 581.660156 375 C 591.457031 375 599.933594 380.175781 607.089844 390.523438 C 614.25 400.875 617.921875 414.609375 618.109375 431.734375 C 618.296875 448.859375 614.625 462.59375 607.089844 472.945312 C 599.554688 483.292969 590.984375 488.5625 581.378906 488.75 C 570.832031 488.75 561.316406 483.480469 552.84375 472.945312 C 544.367188 462.40625 540.128906 448.667969 540.128906 431.734375 Z M 582.792969 478.023438 C 588.066406 478.023438 593.339844 474.074219 598.613281 466.167969 C 603.886719 458.265625 606.621094 446.789062 606.808594 431.734375 C 606.808594 418.75 604.453125 407.835938 599.746094 398.992188 C 595.035156 390.148438 588.726562 385.726562 580.8125 385.726562 C 579.496094 385.726562 578.175781 386.007812 576.859375 386.574219 C 575.539062 387.136719 573.75 388.171875 571.488281 389.675781 C 569.230469 391.183594 567.347656 394.003906 565.839844 398.144531 C 564.332031 402.285156 563.109375 407.273438 562.164062 413.105469 C 561.976562 415.363281 561.882812 421.574219 561.882812 431.734375 L 561.882812 437.945312 C 561.882812 464.664062 568.476562 478.023438 581.660156 478.023438 Z M 582.792969 478.023438 " fill-opacity="1" fill-rule="nonzero"/></g></svg>