<svg xmlns="http://www.w3.org/2000/svg" xmlns:xlink="http://www.w3.org/1999/xlink" width="1000" zoomAndPan="magnify" viewBox="0 0 750 749.999995" height="1000" preserveAspectRatio="xMidYMid meet" version="1.0"><defs><clipPath id="293b0b3e0c"><path d="M 123.4375 134 L 626.6875 134 L 626.6875 637.5 L 123.4375 637.5 Z M 123.4375 134 " clip-rule="nonzero"/></clipPath></defs><rect x="-75" width="900" fill="#ffffff" y="-74.999999" height="899.999994" fill-opacity="1"/><rect x="-75" width="900" fill="#ffffff" y="-74.999999" height="899.999994" fill-opacity="1"/><path fill="#fefefe" d="M 601.078125 492.640625 L 541.957031 569.328125 C 464.957031 624.144531 378.320312 631.488281 378.320312 631.488281 C 185.433594 624.003906 127.871094 461.617188 127.117188 381.898438 C 126.710938 338.863281 162.949219 195.964844 285.363281 156.929688 C 424.398438 112.59375 527.441406 180.21875 549.511719 213.859375 L 620.59375 384.429688 Z M 601.078125 492.640625 " fill-opacity="1" fill-rule="nonzero"/><path fill="#6d5764" d="M 623.332031 384.585938 L 623.332031 384.589844 C 626.089844 402.429688 623.332031 384.589844 623.332031 384.589844 C 603.316406 254.964844 547.707031 212.640625 547.707031 212.640625 L 374.535156 387.90625 C 339.363281 423.496094 242.203125 524.171875 204.121094 561.769531 C 188.804688 576.894531 329.054688 634.339844 376.050781 630.660156 C 429.039062 626.515625 510.300781 598.417969 545.351562 559.257812 C 550.144531 553.902344 589.65625 515.867188 608.496094 460.765625 C 616.511719 437.320312 623.332031 384.585938 623.332031 384.585938 Z M 623.332031 384.585938 " fill-opacity="1" fill-rule="nonzero"/><path fill="#00010d" d="M 380.328125 139.480469 L 381.039062 628.023438 C 381.042969 630.660156 378.910156 632.800781 376.273438 632.804688 C 373.636719 632.808594 371.5 630.675781 371.496094 628.039062 L 370.78125 139.492188 C 370.777344 136.855469 372.910156 134.71875 375.546875 134.714844 C 378.183594 134.710938 380.324219 136.84375 380.328125 139.480469 Z M 380.328125 139.480469 " fill-opacity="1" fill-rule="nonzero"/><path fill="#00010d" d="M 130.371094 378.128906 L 615.707031 381.121094 C 618.34375 381.136719 620.46875 383.289062 620.453125 385.925781 C 620.433594 388.558594 618.285156 390.683594 615.648438 390.667969 L 130.3125 387.675781 C 127.675781 387.660156 125.554688 385.507812 125.570312 382.871094 C 125.585938 380.234375 127.734375 378.113281 130.371094 378.128906 Z M 130.371094 378.128906 " fill-opacity="1" fill-rule="nonzero"/><path fill="#00010d" d="M 550.957031 216.082031 L 207.3125 566.941406 C 205.46875 568.824219 202.445312 568.855469 200.5625 567.011719 C 198.679688 565.167969 198.648438 562.144531 200.492188 560.261719 L 544.136719 209.402344 C 545.980469 207.515625 549.003906 207.484375 550.886719 209.332031 C 552.769531 211.175781 552.800781 214.195312 550.957031 216.082031 Z M 550.957031 216.082031 " fill-opacity="1" fill-rule="nonzero"/><path fill="#00010d" d="M 207.804688 206.523438 L 550.113281 559.464844 C 551.949219 561.359375 551.902344 564.378906 550.011719 566.214844 C 548.121094 568.050781 545.097656 568.003906 543.261719 566.113281 L 200.953125 213.167969 C 199.117188 211.277344 199.164062 208.253906 201.054688 206.417969 C 202.949219 204.582031 205.96875 204.628906 207.804688 206.523438 Z M 207.804688 206.523438 " fill-opacity="1" fill-rule="nonzero"/><g clip-path="url(#293b0b3e0c)"><path fill="#00010d" d="M 626.558594 385.859375 C 626.558594 524.792969 513.929688 637.421875 374.996094 637.421875 C 236.058594 637.421875 123.429688 524.792969 123.429688 385.859375 C 123.429688 246.921875 236.058594 134.292969 374.996094 134.292969 C 513.929688 134.292969 626.558594 246.921875 626.558594 385.859375 M 615.457031 385.859375 C 615.457031 253.054688 507.800781 145.394531 374.996094 145.394531 C 242.191406 145.394531 134.53125 253.054688 134.53125 385.859375 C 134.53125 518.660156 242.191406 626.320312 374.996094 626.320312 C 507.800781 626.320312 615.457031 518.660156 615.457031 385.859375 Z M 615.457031 385.859375 " fill-opacity="1" fill-rule="nonzero"/></g><path fill="#6d5764" d="M 531.105469 303.492188 C 530.765625 304.328125 530.5 305.007812 530.296875 305.53125 C 530.59375 305.492188 530.789062 305.355469 530.882812 305.128906 C 531.03125 304.777344 531.105469 304.238281 531.105469 303.511719 Z M 537.058594 289.441406 C 537.113281 289.589844 537.140625 289.691406 537.140625 289.742188 C 537.167969 290.011719 537.179688 290.417969 537.179688 290.957031 L 537.179688 299.152344 C 537.179688 301.265625 537.1875 302.855469 537.199219 303.917969 C 537.199219 304.414062 537.25 304.953125 537.34375 305.53125 L 537.441406 305.53125 C 537.457031 305.53125 537.550781 305.539062 537.726562 305.550781 C 537.6875 305.121094 537.664062 304.738281 537.664062 304.402344 C 537.652344 303.753906 537.644531 301.589844 537.644531 297.902344 C 537.644531 294.617188 537.644531 292.503906 537.644531 291.5625 C 537.644531 290.957031 537.632812 290.523438 537.605469 290.269531 C 537.550781 289.839844 537.371094 289.566406 537.066406 289.441406 Z M 530.875 301.753906 C 530.890625 301.753906 530.90625 301.753906 530.921875 301.757812 C 531.097656 301.769531 531.226562 301.851562 531.304688 302 C 531.46875 302.296875 531.5625 302.800781 531.589844 303.511719 C 531.589844 304.292969 531.507812 304.894531 531.347656 305.308594 C 531.199219 305.660156 530.921875 305.890625 530.519531 305.996094 C 530.40625 306.023438 530.296875 306.035156 530.191406 306.035156 C 529.917969 306.035156 529.671875 305.949219 529.449219 305.773438 C 529.179688 305.558594 529.113281 305.269531 529.246094 304.90625 C 529.421875 304.421875 529.777344 303.519531 530.316406 302.199219 C 530.328125 302.175781 530.390625 302.085938 530.5 301.9375 C 530.597656 301.816406 530.722656 301.753906 530.875 301.753906 Z M 525.613281 311.8125 C 525.773438 311.957031 526.042969 312.039062 526.421875 312.054688 C 526.257812 312.054688 527.503906 312.066406 530.15625 312.09375 C 530.558594 312.09375 530.839844 312.101562 531.003906 312.113281 C 530.988281 312.03125 530.960938 311.957031 530.921875 311.890625 C 530.652344 311.863281 530.269531 311.851562 529.769531 311.851562 L 528.136719 311.851562 C 527.058594 311.851562 526.25 311.835938 525.714844 311.8125 Z M 532.535156 288.167969 C 531.777344 288.167969 531.261719 288.539062 530.984375 289.28125 C 530.875 289.535156 530.328125 290.835938 529.347656 293.175781 C 526.589844 299.757812 525.046875 303.398438 524.722656 304.097656 C 524.023438 305.632812 523.726562 307.53125 523.835938 309.792969 C 523.863281 310.195312 523.957031 310.476562 524.117188 310.640625 C 524.265625 310.800781 524.542969 310.890625 524.945312 310.902344 C 524.898438 310.898438 524.941406 310.898438 525.074219 310.898438 C 525.46875 310.898438 526.671875 310.914062 528.679688 310.941406 C 529.515625 310.941406 530.054688 310.964844 530.296875 311.003906 C 531.023438 311.097656 531.441406 311.523438 531.546875 312.273438 C 531.574219 312.464844 531.589844 312.894531 531.589844 313.566406 C 531.613281 315.101562 531.621094 315.871094 531.613281 315.871094 L 531.609375 315.871094 C 531.636719 316.34375 531.738281 316.660156 531.910156 316.816406 C 532.085938 316.980469 532.421875 317.074219 532.921875 317.101562 C 533.210938 317.109375 533.5 317.117188 533.785156 317.117188 C 534.210938 317.117188 534.628906 317.105469 535.039062 317.082031 C 535.429688 317.054688 535.707031 316.960938 535.867188 316.796875 C 536.03125 316.636719 536.117188 316.359375 536.132812 315.96875 C 536.15625 315.605469 536.171875 315.089844 536.171875 314.414062 C 536.171875 313.703125 536.171875 313.191406 536.171875 312.882812 C 536.199219 312.179688 536.3125 311.714844 536.515625 311.488281 C 536.703125 311.257812 537.140625 311.078125 537.828125 310.941406 C 537.867188 310.929688 537.921875 310.921875 537.988281 310.921875 C 538.054688 310.910156 538.109375 310.902344 538.148438 310.902344 C 538.472656 310.835938 538.695312 310.734375 538.816406 310.597656 C 538.9375 310.464844 539.011719 310.234375 539.039062 309.914062 C 539.050781 309.671875 539.066406 309.023438 539.078125 307.976562 C 539.078125 307.195312 539.003906 306.695312 538.855469 306.480469 C 538.65625 306.171875 538.183594 306.015625 537.441406 306.015625 C 536.8125 306.015625 536.441406 305.679688 536.332031 305.007812 C 536.238281 304.402344 536.183594 303.816406 536.171875 303.25 C 536.171875 302.632812 536.171875 300.464844 536.171875 296.75 L 536.171875 290.410156 C 536.171875 289.792969 536.15625 289.359375 536.132812 289.117188 C 536.0625 288.539062 535.742188 288.238281 535.160156 288.210938 C 534.839844 288.183594 534.410156 288.167969 533.871094 288.167969 L 532.578125 288.167969 C 532.5625 288.167969 532.550781 288.167969 532.535156 288.167969 Z M 539.988281 307.351562 C 540.066406 307.621094 540.101562 308.050781 540.089844 308.640625 L 540.089844 309.085938 C 540.089844 309.757812 540.074219 310.261719 540.046875 310.597656 C 540.007812 311.257812 539.652344 311.664062 538.976562 311.8125 C 538.9375 311.824219 538.871094 311.832031 538.777344 311.832031 C 538.722656 311.832031 538.679688 311.835938 538.65625 311.851562 C 538.023438 311.972656 537.625 312.128906 537.464844 312.316406 C 537.316406 312.503906 537.226562 312.921875 537.199219 313.566406 C 537.1875 313.863281 537.179688 314.335938 537.179688 314.980469 C 537.179688 315.722656 537.175781 316.28125 537.160156 316.65625 C 537.121094 317.492188 536.675781 317.933594 535.828125 317.988281 C 535.4375 318.015625 535.046875 318.027344 534.65625 318.027344 C 534.335938 318.027344 534.011719 318.023438 533.6875 318.007812 C 533.621094 318.007812 533.527344 318.003906 533.410156 317.988281 L 533.40625 317.988281 C 533.582031 318.136719 533.917969 318.222656 534.414062 318.25 C 534.707031 318.261719 534.992188 318.265625 535.273438 318.265625 C 535.699219 318.265625 536.109375 318.253906 536.515625 318.230469 C 536.917969 318.21875 537.195312 318.128906 537.34375 317.96875 C 537.503906 317.808594 537.597656 317.523438 537.625 317.121094 C 537.636719 316.757812 537.644531 316.246094 537.644531 315.585938 C 537.644531 314.871094 537.652344 314.355469 537.664062 314.03125 C 537.691406 313.332031 537.800781 312.867188 537.988281 312.636719 C 538.191406 312.410156 538.628906 312.226562 539.300781 312.09375 C 539.339844 312.09375 539.394531 312.085938 539.460938 312.074219 C 539.542969 312.074219 539.597656 312.066406 539.625 312.054688 C 539.945312 311.984375 540.167969 311.886719 540.289062 311.75 C 540.410156 311.617188 540.484375 311.394531 540.511719 311.085938 C 540.539062 310.828125 540.550781 310.175781 540.550781 309.125 C 540.566406 308.132812 540.378906 307.542969 539.992188 307.351562 Z M 532.34375 334.96875 C 532.25 334.96875 532.15625 334.972656 532.0625 334.988281 C 531.203125 335.097656 530.636719 335.480469 530.367188 336.140625 C 529.84375 337.445312 529.84375 338.738281 530.367188 340.015625 C 530.460938 340.082031 530.570312 340.144531 530.691406 340.195312 C 530.285156 338.984375 530.339844 337.765625 530.851562 336.542969 C 531.148438 335.789062 531.773438 335.351562 532.730469 335.230469 L 532.808594 335.230469 C 532.730469 335.109375 532.667969 335.035156 532.628906 335.007812 C 532.480469 334.980469 532.386719 334.96875 532.34375 334.96875 Z M 531.558594 334.058594 C 532.257812 334.058594 532.84375 334.394531 533.316406 335.070312 C 533.664062 335.566406 533.847656 336.488281 533.859375 337.835938 C 533.726562 338.65625 533.65625 339.085938 533.65625 339.125 C 533.308594 340.257812 532.546875 340.824219 531.375 340.824219 C 530.449219 340.808594 529.800781 340.40625 529.4375 339.613281 C 528.820312 338.210938 528.800781 336.804688 529.378906 335.390625 C 529.6875 334.636719 530.3125 334.199219 531.253906 334.078125 C 531.359375 334.066406 531.457031 334.058594 531.558594 334.058594 Z M 538.03125 332.566406 C 538.203125 332.8125 538.34375 333.027344 538.460938 333.210938 C 539.070312 334.207031 539.363281 335.269531 539.351562 336.402344 C 539.351562 336.65625 539.351562 336.964844 539.351562 337.328125 L 539.351562 338.097656 C 539.351562 338.5 539.351562 338.804688 539.351562 339.003906 C 539.269531 340.582031 538.832031 341.878906 538.039062 342.902344 C 537.769531 343.226562 537.546875 343.519531 537.371094 343.789062 C 537.25 343.980469 537.210938 344.167969 537.25 344.355469 L 537.351562 344.457031 C 537.460938 344.589844 537.582031 344.738281 537.714844 344.902344 C 537.648438 344.644531 537.703125 344.390625 537.878906 344.132812 C 538.050781 343.878906 538.273438 343.574219 538.542969 343.226562 C 539.296875 342.242188 539.714844 340.992188 539.796875 339.46875 C 539.796875 339.429688 539.796875 339 539.796875 338.179688 C 539.796875 337.410156 539.796875 336.980469 539.796875 336.886719 C 539.808594 335.808594 539.527344 334.785156 538.949219 333.816406 C 538.671875 333.355469 538.367188 332.9375 538.039062 332.566406 Z M 538.445312 345.917969 C 538.445312 345.925781 538.449219 345.929688 538.457031 345.929688 C 538.453125 345.925781 538.449219 345.921875 538.449219 345.917969 Z M 532.125 347.34375 C 531.492188 347.34375 531.011719 347.671875 530.691406 348.332031 C 529.882812 349.933594 529.808594 351.488281 530.46875 352.996094 C 530.5625 353.0625 530.664062 353.117188 530.769531 353.160156 C 530.273438 351.71875 530.40625 350.238281 531.175781 348.714844 C 531.511719 348.03125 532.003906 347.660156 532.648438 347.605469 C 532.554688 347.5 532.492188 347.429688 532.464844 347.40625 C 532.320312 347.363281 532.203125 347.34375 532.125 347.34375 Z M 531.351562 346.4375 C 531.851562 346.4375 532.332031 346.640625 532.789062 347.039062 C 533.355469 347.550781 533.679688 348.152344 533.757812 348.835938 C 533.773438 348.933594 533.804688 349.417969 533.859375 350.292969 C 533.804688 351.058594 533.773438 351.484375 533.757812 351.5625 C 533.691406 352.101562 533.4375 352.621094 532.992188 353.117188 C 532.621094 353.550781 532.109375 353.769531 531.464844 353.769531 C 531.410156 353.769531 531.351562 353.765625 531.296875 353.765625 C 530.5 353.722656 529.929688 353.351562 529.578125 352.652344 C 528.773438 351.023438 528.8125 349.328125 529.699219 347.566406 C 530.023438 346.917969 530.488281 346.550781 531.09375 346.457031 C 531.179688 346.445312 531.265625 346.4375 531.351562 346.4375 Z M 532.386719 329.515625 C 531.375 329.515625 530.730469 329.523438 530.449219 329.535156 C 528.847656 329.589844 527.464844 330.25 526.308594 331.515625 C 525.207031 332.714844 524.695312 334.019531 524.773438 335.433594 C 524.816406 336.28125 524.816406 337.140625 524.773438 338.015625 C 524.667969 339.886719 525.152344 341.367188 526.226562 342.457031 C 526.324219 342.550781 526.417969 342.6875 526.511719 342.863281 C 526.738281 343.277344 526.71875 343.683594 526.449219 344.074219 C 526.394531 344.152344 526.316406 344.261719 526.207031 344.394531 C 526.058594 344.558594 525.972656 344.660156 525.945312 344.699219 C 525.136719 345.722656 524.625 346.886719 524.410156 348.191406 C 524.167969 349.605469 524.164062 351.261719 524.390625 353.160156 C 524.59375 354.691406 525.328125 356.046875 526.589844 357.214844 C 527.839844 358.351562 529.210938 358.917969 530.699219 358.917969 C 530.785156 358.917969 530.867188 358.914062 530.953125 358.914062 C 531.074219 358.898438 531.449219 358.890625 532.082031 358.890625 C 532.101562 358.890625 532.117188 358.890625 532.132812 358.890625 C 533.851562 358.890625 535.367188 358.226562 536.6875 356.894531 C 538.03125 355.546875 538.691406 354.007812 538.664062 352.269531 C 538.652344 351.878906 538.652344 351.339844 538.664062 350.65625 C 538.664062 349.886719 538.664062 349.347656 538.664062 349.039062 C 538.652344 347.425781 538.09375 346.003906 536.988281 344.78125 C 536.652344 344.417969 536.476562 344.214844 536.464844 344.175781 C 536.15625 343.785156 536.132812 343.386719 536.402344 342.984375 C 536.578125 342.726562 536.800781 342.425781 537.070312 342.074219 C 537.824219 341.09375 538.242188 339.839844 538.320312 338.320312 C 538.320312 338.277344 538.328125 337.847656 538.339844 337.027344 C 538.339844 336.261719 538.339844 335.828125 538.339844 335.734375 C 538.339844 334.660156 538.050781 333.636719 537.472656 332.667969 C 536.222656 330.578125 534.527344 329.53125 532.386719 329.515625 Z M 538.457031 345.929688 C 539.253906 347.054688 539.660156 348.316406 539.675781 349.707031 C 539.675781 349.976562 539.675781 350.453125 539.675781 351.140625 C 539.675781 351.960938 539.675781 352.558594 539.675781 352.9375 C 539.699219 354.726562 539.027344 356.316406 537.65625 357.699219 C 536.269531 359.101562 534.675781 359.800781 532.871094 359.800781 L 532.203125 359.800781 C 532.015625 359.800781 531.859375 359.808594 531.738281 359.820312 L 531.496094 359.820312 C 531.03125 359.820312 530.550781 359.753906 530.054688 359.621094 L 530.050781 359.621094 C 530.769531 359.917969 531.5 360.066406 532.238281 360.066406 C 532.300781 360.066406 532.363281 360.066406 532.425781 360.0625 C 532.535156 360.050781 532.910156 360.042969 533.558594 360.042969 C 533.574219 360.042969 533.589844 360.042969 533.609375 360.042969 C 535.308594 360.042969 536.828125 359.375 538.160156 358.042969 C 539.492188 356.699219 540.152344 355.15625 540.136719 353.421875 C 540.125 353.03125 540.117188 352.492188 540.117188 351.804688 C 540.132812 351.023438 540.132812 350.488281 540.117188 350.191406 C 540.117188 348.574219 539.566406 347.15625 538.460938 345.929688 Z M 538.457031 345.929688 " fill-opacity="1" fill-rule="nonzero"/><path fill="#6d5764" d="M 517.035156 321.121094 C 516.351562 321.144531 515.953125 321.316406 515.839844 321.628906 C 516.019531 321.574219 516.273438 321.542969 516.601562 321.53125 C 516.699219 321.53125 516.847656 321.53125 517.054688 321.53125 L 525.164062 321.566406 C 535.851562 321.609375 543.867188 321.644531 549.207031 321.667969 C 550.230469 321.671875 550.859375 321.789062 551.09375 322.023438 C 551.324219 322.269531 551.4375 322.921875 551.433594 323.976562 L 551.433594 324.179688 C 551.429688 324.632812 551.414062 325.015625 551.386719 325.332031 C 551.511719 325.207031 551.585938 325.03125 551.613281 324.796875 C 551.644531 324.46875 551.660156 323.984375 551.664062 323.339844 C 551.667969 322.355469 551.574219 321.765625 551.382812 321.574219 C 551.191406 321.367188 550.617188 321.261719 549.660156 321.257812 C 546.605469 321.246094 535.921875 321.199219 517.609375 321.125 C 517.308594 321.121094 517.117188 321.121094 517.035156 321.121094 Z M 516.003906 322.429688 C 515.453125 322.457031 515.105469 322.542969 514.953125 322.695312 C 514.789062 322.84375 514.691406 323.179688 514.664062 323.699219 C 514.660156 323.835938 514.660156 324.171875 514.660156 324.703125 C 514.652344 325.71875 514.734375 326.3125 514.898438 326.492188 C 515.074219 326.671875 515.65625 326.761719 516.640625 326.765625 L 548.382812 326.898438 C 548.441406 326.898438 548.503906 326.898438 548.558594 326.898438 C 549.117188 326.898438 549.542969 326.886719 549.839844 326.863281 C 550.277344 326.8125 550.519531 326.558594 550.5625 326.105469 C 550.605469 325.777344 550.628906 325.300781 550.628906 324.671875 C 550.621094 323.683594 550.519531 323.089844 550.328125 322.882812 C 550.140625 322.675781 549.5625 322.570312 548.605469 322.566406 C 545.046875 322.550781 534.371094 322.507812 516.578125 322.433594 C 516.277344 322.433594 516.085938 322.429688 516.003906 322.429688 Z M 516.003906 322.429688 " fill-opacity="1" fill-rule="nonzero"/></svg>