<svg xmlns="http://www.w3.org/2000/svg" xmlns:xlink="http://www.w3.org/1999/xlink" width="1000" zoomAndPan="magnify" viewBox="0 0 750 749.999995" height="1000" preserveAspectRatio="xMidYMid meet" version="1.0"><defs><clipPath id="ee2c45a197"><path d="M 134.8125 139 L 615 139 L 615 619 L 134.8125 619 Z M 134.8125 139 " clip-rule="nonzero"/></clipPath></defs><rect x="-75" width="900" fill="#ffffff" y="-74.999999" height="899.999994" fill-opacity="1"/><rect x="-75" width="900" fill="#ffffff" y="-74.999999" height="899.999994" fill-opacity="1"/><path fill="#fefefe" d="M 604.058594 319.636719 C 604.058594 319.636719 608.300781 388.320312 608.300781 388.320312 C 609.703125 411.042969 586.605469 502.816406 528.183594 555.007812 C 474.101562 603.324219 384.71875 613.148438 377.59375 612.871094 C 193.882812 605.746094 139.058594 451.082031 138.339844 375.15625 C 137.597656 296.644531 176.84375 242.8125 255.4375 175.210938 C 389.03125 112.503906 486.457031 172.644531 486.457031 172.644531 C 544.324219 208.371094 371.179688 376.679688 371.179688 376.679688 Z M 604.058594 319.636719 " fill-opacity="1" fill-rule="nonzero"/><path fill="#6d5764" d="M 370.394531 379.597656 C 330.894531 449.5625 288.015625 534.625 257.855469 580.804688 C 247.753906 596.265625 386.957031 637.503906 486.132812 582.261719 C 528.136719 558.863281 615.144531 481.773438 610.136719 373.675781 C 603.8125 237.132812 483.222656 172.085938 483.222656 172.085938 Z M 370.394531 379.597656 " fill-opacity="1" fill-rule="nonzero"/><path fill="#00010d" d="M 140.898438 375.230469 L 604.96875 372.71875 C 607.488281 372.703125 609.539062 374.734375 609.550781 377.25 C 609.566406 379.765625 607.535156 381.816406 605.019531 381.832031 L 140.949219 384.34375 C 138.429688 384.355469 136.378906 382.328125 136.367188 379.8125 C 136.351562 377.296875 138.382812 375.246094 140.898438 375.230469 Z M 140.898438 375.230469 " fill-opacity="1" fill-rule="nonzero"/><path fill="#00010d" d="M 251.414062 578.457031 L 479.433594 170.484375 C 480.660156 168.289062 483.4375 167.5 485.632812 168.730469 C 487.828125 169.957031 488.617188 172.734375 487.386719 174.929688 L 259.367188 582.90625 C 258.140625 585.101562 255.363281 585.886719 253.167969 584.660156 C 250.972656 583.429688 250.183594 580.65625 251.414062 578.457031 Z M 251.414062 578.457031 " fill-opacity="1" fill-rule="nonzero"/><path fill="#00010d" d="M 259.578125 175.460938 L 491.121094 582.5625 C 492.367188 584.75 491.601562 587.53125 489.414062 588.773438 C 487.226562 590.019531 484.445312 589.253906 483.203125 587.066406 L 251.65625 179.964844 C 250.414062 177.777344 251.175781 174.996094 253.363281 173.753906 C 255.550781 172.507812 258.332031 173.273438 259.578125 175.460938 Z M 259.578125 175.460938 " fill-opacity="1" fill-rule="nonzero"/><g clip-path="url(#ee2c45a197)"><path fill="#00010d" d="M 614.019531 378.929688 C 614.019531 511.253906 506.75 618.523438 374.425781 618.523438 C 242.101562 618.523438 134.832031 511.253906 134.832031 378.929688 C 134.832031 246.601562 242.101562 139.332031 374.425781 139.332031 C 506.75 139.332031 614.019531 246.601562 614.019531 378.929688 M 603.445312 378.929688 C 603.445312 252.441406 500.910156 149.90625 374.425781 149.90625 C 247.941406 149.90625 145.402344 252.441406 145.402344 378.929688 C 145.402344 505.414062 247.941406 607.949219 374.425781 607.949219 C 500.910156 607.949219 603.445312 505.414062 603.445312 378.929688 Z M 603.445312 378.929688 " fill-opacity="1" fill-rule="nonzero"/></g><path fill="#6d5764" d="M 494.132812 250.988281 C 492.914062 250.988281 492.046875 251.675781 491.539062 253.046875 C 491.449219 253.316406 491.339844 253.714844 491.207031 254.246094 C 491.09375 254.644531 491.019531 254.921875 490.972656 255.078125 C 490.640625 256.140625 489.929688 256.683594 488.84375 256.707031 C 487.914062 256.726562 487.183594 256.738281 486.652344 256.738281 C 485.941406 256.738281 485.289062 256.71875 484.691406 256.671875 C 484.933594 256.917969 485.289062 257.050781 485.753906 257.070312 C 486.339844 257.113281 487.078125 257.132812 487.976562 257.132812 C 488.574219 257.132812 489.238281 257.121094 489.976562 257.105469 C 490.863281 257.082031 491.449219 256.628906 491.738281 255.742188 C 491.78125 255.585938 491.871094 255.242188 492.003906 254.710938 C 492.113281 254.289062 492.214844 253.957031 492.304688 253.714844 C 492.859375 252.207031 493.800781 251.429688 495.128906 251.386719 C 495.0625 251.253906 494.984375 251.140625 494.898438 251.054688 C 494.652344 251.007812 494.519531 250.988281 494.496094 250.988281 Z M 503.351562 247.480469 C 504.585938 249.269531 505.171875 251.292969 505.105469 253.546875 C 505.105469 253.8125 505.105469 254.222656 505.105469 254.777344 L 505.105469 255.773438 L 505.070312 255.773438 L 505.105469 256.109375 C 505.105469 256.792969 505.09375 257.347656 505.070312 257.769531 C 505.003906 260.339844 504.183594 262.425781 502.609375 264.019531 C 502.320312 264.308594 502.113281 264.550781 501.980469 264.753906 C 501.625 265.238281 501.535156 265.671875 501.710938 266.046875 L 501.878906 266.28125 C 502.035156 266.480469 502.3125 266.847656 502.710938 267.378906 C 502.246094 266.691406 502.265625 266.003906 502.777344 265.316406 C 502.953125 265.09375 503.1875 264.828125 503.476562 264.519531 C 504.980469 263.011719 505.769531 261.015625 505.835938 258.535156 L 505.835938 254.3125 C 505.925781 251.726562 505.097656 249.449219 503.355469 247.480469 Z M 503.128906 267.96875 C 503.152344 268 503.171875 268.027344 503.195312 268.054688 C 503.167969 268.019531 503.148438 267.992188 503.132812 267.96875 Z M 491.773438 270.40625 C 492.039062 270.558594 492.570312 270.714844 493.367188 270.871094 C 493.457031 270.890625 493.578125 270.914062 493.734375 270.9375 C 493.667969 270.890625 493.621094 270.859375 493.601562 270.835938 C 493.3125 270.726562 493.167969 270.671875 493.167969 270.671875 C 493.035156 270.648438 492.824219 270.605469 492.535156 270.539062 L 492.144531 270.472656 L 492.140625 270.472656 C 492.152344 270.476562 492.15625 270.480469 492.152344 270.480469 C 492.132812 270.480469 492.003906 270.453125 491.777344 270.40625 Z M 489.777344 278.617188 L 489.910156 279.117188 C 490.085938 279.648438 490.21875 280.035156 490.308594 280.277344 C 490.308594 280.300781 490.320312 280.324219 490.339844 280.34375 C 490.363281 280.390625 490.375 280.410156 490.375 280.410156 C 490.507812 280.523438 490.5625 280.578125 490.542969 280.578125 C 490.675781 280.667969 490.808594 280.753906 490.941406 280.84375 C 490.875 280.621094 490.730469 280.167969 490.507812 279.480469 C 490.375 279.039062 490.132812 278.75 489.78125 278.617188 Z M 491.667969 242.035156 C 488.601562 242.035156 486.085938 243.289062 484.125 245.800781 C 482.304688 248.128906 481.542969 250.765625 481.828125 253.714844 C 481.917969 254.644531 482.429688 255.144531 483.359375 255.210938 C 483.847656 255.230469 484.441406 255.242188 485.148438 255.242188 C 485.851562 255.242188 486.660156 255.230469 487.582031 255.210938 C 488.46875 255.1875 489.046875 254.734375 489.3125 253.847656 C 489.378906 253.691406 489.476562 253.359375 489.609375 252.847656 C 489.722656 252.429688 489.820312 252.09375 489.910156 251.851562 C 490.484375 250.269531 491.488281 249.476562 492.925781 249.476562 C 493.035156 249.476562 493.152344 249.480469 493.265625 249.492188 C 494.886719 249.644531 495.90625 250.578125 496.328125 252.285156 C 496.636719 253.570312 496.535156 255.132812 496.027344 256.972656 C 495.339844 259.410156 493.789062 260.941406 491.371094 261.558594 C 490.066406 261.894531 489.289062 262.226562 489.046875 262.558594 C 488.800781 262.867188 488.667969 263.730469 488.644531 265.152344 C 488.644531 265.773438 488.65625 266.203125 488.679688 266.449219 C 488.722656 267.402344 488.867188 268.011719 489.113281 268.277344 C 489.355469 268.542969 489.976562 268.785156 490.972656 269.007812 C 491.613281 269.144531 491.957031 269.210938 492.003906 269.210938 C 492.007812 269.210938 492.007812 269.210938 492.007812 269.207031 C 494.355469 269.851562 495.660156 271.335938 495.925781 273.664062 C 496.125 275.503906 496.125 277.253906 495.925781 278.914062 C 495.773438 280.3125 495.03125 281.253906 493.699219 281.742188 C 493.222656 281.929688 492.757812 282.027344 492.300781 282.027344 C 491.527344 282.027344 490.785156 281.753906 490.074219 281.210938 C 489.410156 280.699219 488.945312 280.078125 488.679688 279.347656 C 488.65625 279.28125 488.46875 278.695312 488.113281 277.585938 C 487.910156 276.960938 487.507812 276.644531 486.898438 276.644531 C 486.839844 276.644531 486.78125 276.648438 486.71875 276.65625 C 484.988281 276.808594 484.023438 276.886719 483.824219 276.886719 C 482.382812 276.910156 481.488281 277.109375 481.132812 277.484375 C 480.800781 277.863281 480.667969 278.828125 480.734375 280.378906 C 480.777344 281.042969 480.867188 281.566406 481 281.941406 C 482.507812 286.21875 485.320312 288.867188 489.445312 289.886719 C 489.976562 290.019531 491.195312 290.085938 493.101562 290.085938 C 493.128906 290.085938 493.15625 290.085938 493.1875 290.085938 C 495.96875 290.085938 498.453125 289.011719 500.648438 286.863281 C 502.867188 284.691406 503.972656 282.175781 503.972656 279.316406 C 503.953125 275.746094 503.953125 273.730469 503.972656 273.261719 C 504.019531 271.492188 503.496094 269.839844 502.410156 268.308594 C 502.1875 267.976562 501.84375 267.523438 501.378906 266.945312 C 500.890625 266.304688 500.550781 265.847656 500.347656 265.582031 C 499.839844 264.875 499.851562 264.152344 500.382812 263.421875 C 500.558594 263.199219 500.792969 262.933594 501.082031 262.625 C 502.566406 261.117188 503.339844 259.121094 503.410156 256.640625 L 503.441406 254.277344 L 503.441406 252.449219 C 503.53125 249.546875 502.476562 247.03125 500.28125 244.902344 C 498.308594 242.996094 496.039062 242.042969 493.46875 242.042969 L 492.136719 242.042969 C 491.980469 242.035156 491.824219 242.035156 491.667969 242.035156 Z M 503.210938 268.078125 C 503.230469 268.144531 503.253906 268.1875 503.273438 268.210938 C 503.652344 268.699219 503.894531 269.019531 504.007812 269.175781 C 505.136719 270.769531 505.679688 272.5 505.636719 274.359375 C 505.613281 275.335938 505.601562 276.777344 505.601562 278.683594 L 505.601562 280.410156 C 505.625 283.359375 504.496094 285.964844 502.210938 288.226562 C 499.929688 290.464844 497.335938 291.582031 494.429688 291.582031 L 493.066406 291.582031 C 492.046875 291.582031 491.226562 291.507812 490.609375 291.351562 C 490.542969 291.351562 490.464844 291.328125 490.375 291.285156 C 490.265625 291.242188 490.191406 291.21875 490.144531 291.21875 L 490.140625 291.21875 C 490.71875 291.441406 491.285156 291.617188 491.835938 291.75 C 492.371094 291.882812 493.589844 291.960938 495.496094 291.984375 C 495.523438 291.984375 495.550781 291.984375 495.582031 291.984375 C 498.359375 291.984375 500.847656 290.90625 503.042969 288.757812 C 505.257812 286.5625 506.367188 284.046875 506.367188 281.210938 C 506.367188 277.640625 506.367188 275.613281 506.367188 275.125 C 506.410156 273.375 505.902344 271.734375 504.839844 270.203125 C 504.773438 270.117188 504.230469 269.410156 503.210938 268.078125 Z M 503.542969 315.289062 C 504.960938 317.261719 505.601562 319.46875 505.46875 321.90625 C 505.382812 323.300781 504.648438 324.035156 503.273438 324.101562 C 502.789062 324.121094 502.222656 324.132812 501.578125 324.132812 L 498.851562 324.132812 C 499.203125 324.402344 499.675781 324.535156 500.277344 324.535156 C 500.320312 324.535156 500.367188 324.535156 500.414062 324.53125 L 502.410156 324.53125 C 502.683594 324.539062 502.941406 324.542969 503.179688 324.542969 C 503.65625 324.542969 504.066406 324.527344 504.40625 324.5 C 505.046875 324.476562 505.503906 324.324219 505.769531 324.035156 C 506.035156 323.769531 506.179688 323.324219 506.203125 322.703125 C 506.355469 319.910156 505.503906 317.460938 503.640625 315.355469 C 503.617188 315.355469 503.609375 315.34375 503.609375 315.324219 C 503.585938 315.300781 503.566406 315.289062 503.542969 315.289062 Z M 494.160156 319.414062 C 493.542969 319.414062 492.988281 319.65625 492.503906 320.144531 C 492.039062 320.585938 491.714844 321.128906 491.539062 321.773438 C 491.09375 323.371094 491.007812 325.265625 491.273438 327.457031 C 491.40625 327.4375 491.460938 327.425781 491.4375 327.425781 C 491.503906 327.425781 491.582031 327.414062 491.671875 327.390625 C 491.804688 327.390625 491.882812 327.382812 491.90625 327.359375 C 491.75 325.542969 491.882812 323.914062 492.304688 322.472656 C 492.503906 321.738281 492.859375 321.128906 493.367188 320.644531 C 493.699219 320.332031 494.078125 320.109375 494.496094 319.976562 C 494.496094 319.957031 494.488281 319.921875 494.464844 319.878906 C 494.464844 319.832031 494.453125 319.8125 494.429688 319.8125 C 494.386719 319.699219 494.308594 319.578125 494.199219 319.445312 C 494.109375 319.425781 494.097656 319.414062 494.164062 319.414062 Z M 493.898438 336.101562 L 493.832031 336.371094 C 492.8125 336.414062 492.125 336.902344 491.769531 337.832031 C 491.617188 338.277344 491.503906 338.6875 491.4375 339.0625 C 491.039062 341.324219 490.996094 344.195312 491.304688 347.675781 C 491.351562 348.074219 491.449219 348.449219 491.605469 348.804688 C 491.78125 348.960938 491.980469 349.070312 492.203125 349.136719 C 492.113281 348.847656 492.070312 348.636719 492.070312 348.503906 C 491.761719 345.003906 491.804688 342.097656 492.203125 339.792969 C 492.269531 339.371094 492.382812 338.941406 492.535156 338.496094 C 492.890625 337.589844 493.535156 337.046875 494.464844 336.867188 C 494.429688 336.800781 494.417969 336.765625 494.421875 336.761719 C 494.425781 336.761719 494.425781 336.761719 494.425781 336.765625 L 494.429688 336.765625 C 494.382812 336.675781 494.308594 336.554688 494.199219 336.402344 C 493.933594 336.378906 493.84375 336.371094 493.933594 336.371094 L 493.933594 336.136719 C 493.933594 336.136719 493.921875 336.125 493.898438 336.101562 Z M 492.640625 334.871094 C 493.800781 334.871094 494.628906 335.394531 495.128906 336.4375 C 495.550781 337.277344 495.773438 338.21875 495.792969 339.261719 C 495.792969 339.417969 495.792969 340.480469 495.792969 342.453125 C 495.792969 344.738281 495.792969 345.976562 495.792969 346.175781 C 495.75 347.441406 495.296875 348.460938 494.429688 349.238281 C 493.878906 349.75 493.285156 350.007812 492.65625 350.007812 C 492.605469 350.007812 492.554688 350.003906 492.503906 350 C 491.835938 349.957031 491.226562 349.636719 490.675781 349.035156 C 490.074219 348.371094 489.730469 347.5625 489.644531 346.609375 C 489.332031 343.109375 489.378906 340.203125 489.777344 337.898438 C 489.84375 337.476562 489.953125 337.046875 490.109375 336.601562 C 490.53125 335.492188 491.351562 334.917969 492.570312 334.875 C 492.59375 334.871094 492.617188 334.871094 492.640625 334.871094 Z M 493 309.835938 C 489.742188 309.835938 487.039062 310.933594 484.890625 313.128906 C 482.984375 315.101562 482.019531 317.507812 481.996094 320.34375 C 481.996094 321.164062 481.996094 325.683594 481.996094 333.910156 C 481.996094 342.109375 481.996094 346.722656 481.996094 347.742188 C 482.019531 350.753906 483.09375 353.292969 485.222656 355.355469 C 487.21875 357.308594 489.808594 358.289062 492.984375 358.289062 C 493.152344 358.289062 493.324219 358.285156 493.5 358.28125 C 496.359375 358.191406 498.765625 357.195312 500.714844 355.289062 C 502.664062 353.382812 503.683594 351 503.773438 348.140625 C 503.820312 347.007812 503.828125 343.285156 503.808594 336.96875 C 503.785156 335.261719 503.285156 333.585938 502.3125 331.949219 C 500.757812 329.375 498.585938 328.058594 495.792969 327.992188 C 495.515625 327.984375 495.242188 327.980469 494.972656 327.980469 C 493.757812 327.980469 492.625 328.058594 491.570312 328.222656 C 491.414062 328.25 491.265625 328.261719 491.125 328.261719 C 490.292969 328.261719 489.808594 327.804688 489.675781 326.894531 C 489.300781 324.476562 489.367188 322.371094 489.875 320.578125 C 490.074219 319.84375 490.429688 319.234375 490.941406 318.746094 C 491.53125 318.195312 492.167969 317.917969 492.851562 317.917969 C 492.988281 317.917969 493.128906 317.925781 493.265625 317.949219 C 494.085938 318.082031 494.71875 318.582031 495.164062 319.445312 C 495.382812 319.910156 495.550781 320.410156 495.660156 320.941406 C 495.917969 322.074219 496.648438 322.640625 497.851562 322.640625 C 497.894531 322.640625 497.941406 322.640625 497.988281 322.636719 L 499.984375 322.636719 C 500.804688 322.636719 501.46875 322.625 501.980469 322.605469 C 502.621094 322.582031 503.074219 322.425781 503.34375 322.140625 C 503.609375 321.871094 503.75 321.429688 503.773438 320.808594 C 503.929688 318.015625 503.074219 315.566406 501.214844 313.460938 C 499.085938 311.046875 496.347656 309.835938 493 309.835938 Z M 503.484375 332.191406 C 503.699219 332.496094 503.839844 332.714844 503.90625 332.84375 C 504.949219 334.53125 505.46875 336.269531 505.46875 338.066406 C 505.46875 338.550781 505.480469 339.527344 505.503906 340.992188 C 505.523438 344.648438 505.503906 347.40625 505.4375 349.269531 C 505.347656 352.21875 504.292969 354.679688 502.277344 356.652344 C 500.261719 358.644531 497.757812 359.6875 494.765625 359.777344 L 494.199219 359.777344 C 493.046875 359.777344 491.964844 359.65625 490.949219 359.414062 L 490.945312 359.414062 C 492.253906 359.929688 493.726562 360.1875 495.355469 360.1875 C 495.542969 360.1875 495.734375 360.183594 495.925781 360.175781 C 498.785156 360.085938 501.179688 359.089844 503.109375 357.183594 C 505.082031 355.277344 506.113281 352.894531 506.203125 350.035156 C 506.246094 348.949219 506.246094 345.234375 506.203125 338.894531 C 506.203125 337.167969 505.714844 335.484375 504.738281 333.84375 C 504.363281 333.226562 503.949219 332.675781 503.488281 332.191406 Z M 503.484375 332.191406 " fill-opacity="1" fill-rule="nonzero"/><path fill="#6d5764" d="M 468.433594 295.703125 C 467.308594 295.746094 466.652344 296.023438 466.472656 296.542969 C 466.765625 296.453125 467.179688 296.398438 467.722656 296.378906 C 467.878906 296.378906 468.128906 296.378906 468.464844 296.378906 L 481.820312 296.4375 C 499.425781 296.511719 512.625 296.566406 521.414062 296.601562 C 523.105469 296.609375 524.144531 296.804688 524.523438 297.191406 C 524.90625 297.597656 525.09375 298.667969 525.085938 300.40625 L 525.085938 300.742188 C 525.082031 301.488281 525.054688 302.117188 525.007812 302.636719 C 525.210938 302.433594 525.335938 302.140625 525.382812 301.757812 C 525.433594 301.21875 525.457031 300.417969 525.460938 299.359375 C 525.46875 297.734375 525.316406 296.765625 525 296.449219 C 524.6875 296.109375 523.742188 295.9375 522.164062 295.929688 C 517.136719 295.910156 499.542969 295.835938 469.382812 295.707031 C 468.886719 295.707031 468.570312 295.703125 468.433594 295.703125 Z M 466.734375 297.859375 C 465.832031 297.902344 465.257812 298.046875 465.007812 298.292969 C 464.738281 298.539062 464.578125 299.09375 464.527344 299.949219 C 464.527344 300.175781 464.527344 300.726562 464.523438 301.605469 C 464.515625 303.273438 464.644531 304.253906 464.914062 304.546875 C 465.207031 304.84375 466.164062 304.992188 467.789062 305 L 520.0625 305.21875 C 520.160156 305.21875 520.257812 305.21875 520.351562 305.21875 C 521.269531 305.21875 521.972656 305.199219 522.460938 305.160156 C 523.183594 305.074219 523.582031 304.660156 523.652344 303.914062 C 523.722656 303.375 523.757812 302.585938 523.761719 301.550781 C 523.746094 299.925781 523.582031 298.945312 523.265625 298.605469 C 522.953125 298.265625 522.007812 298.09375 520.429688 298.085938 C 514.570312 298.0625 496.984375 297.988281 467.683594 297.867188 C 467.1875 297.863281 466.871094 297.863281 466.734375 297.859375 Z M 466.734375 297.859375 " fill-opacity="1" fill-rule="nonzero"/></svg>