<svg xmlns="http://www.w3.org/2000/svg" xmlns:xlink="http://www.w3.org/1999/xlink" width="1000" zoomAndPan="magnify" viewBox="0 0 750 749.999995" height="1000" preserveAspectRatio="xMidYMid meet" version="1.0"><defs><clipPath id="f66ba04801"><path d="M 112.5 112.5 L 637.5 112.5 L 637.5 637.5 L 112.5 637.5 Z M 112.5 112.5 " clip-rule="nonzero"/></clipPath></defs><rect x="-75" width="900" fill="#ffffff" y="-74.999999" height="899.999994" fill-opacity="1"/><rect x="-75" width="900" fill="#ffffff" y="-74.999999" height="899.999994" fill-opacity="1"/><path fill="#fefefe" d="M 408.253906 529.652344 L 378.46875 631.320312 C 177.191406 623.511719 117.125 454.058594 116.339844 370.875 C 115.527344 284.855469 183.773438 130.535156 377.332031 115.898438 Z M 408.253906 529.652344 " fill-opacity="1" fill-rule="nonzero"/><path fill="#6d5764" d="M 378.542969 632.667969 C 506.761719 615.992188 629.726562 527.761719 632.582031 377.691406 C 637.390625 124.992188 374.894531 118.855469 374.894531 118.855469 Z M 378.542969 632.667969 " fill-opacity="1" fill-rule="nonzero"/><path fill="#00010d" d="M 380.652344 119.054688 L 380.773438 629.261719 C 380.773438 632.023438 378.539062 634.257812 375.78125 634.257812 C 373.023438 634.257812 370.789062 632.023438 370.785156 629.265625 L 370.664062 119.058594 C 370.664062 116.296875 372.898438 114.0625 375.65625 114.0625 C 378.414062 114.0625 380.652344 116.296875 380.652344 119.054688 Z M 380.652344 119.054688 " fill-opacity="1" fill-rule="nonzero"/><g clip-path="url(#f66ba04801)"><path fill="#00010d" d="M 637.5 375.007812 C 637.5 519.984375 519.972656 637.511719 374.996094 637.511719 C 230.019531 637.511719 112.492188 519.984375 112.492188 375.007812 C 112.492188 230.03125 230.019531 112.503906 374.996094 112.503906 C 519.972656 112.503906 637.5 230.03125 637.5 375.007812 M 625.917969 375.007812 C 625.917969 236.425781 513.578125 124.085938 374.996094 124.085938 C 236.417969 124.085938 124.078125 236.425781 124.078125 375.007812 C 124.078125 513.585938 236.417969 625.925781 374.996094 625.925781 C 513.578125 625.925781 625.917969 513.585938 625.917969 375.007812 Z M 625.917969 375.007812 " fill-opacity="1" fill-rule="nonzero"/></g><path fill="#6d5764" d="M 487.320312 323.773438 C 487.585938 324.015625 487.972656 324.164062 488.484375 324.210938 C 488.847656 324.234375 489.335938 324.257812 489.941406 324.285156 L 489.941406 324.246094 C 489.917969 324.175781 489.867188 324.054688 489.796875 323.882812 C 489.480469 323.882812 489.199219 323.871094 488.957031 323.847656 C 488.328125 323.847656 487.78125 323.824219 487.320312 323.773438 Z M 495.332031 309.300781 C 493.964844 309.300781 492.933594 309.875 492.234375 311.023438 C 491.117188 312.847656 489.261719 314.207031 486.664062 315.105469 C 486.566406 315.152344 486.382812 315.214844 486.117188 315.285156 C 485.875 315.359375 485.691406 315.421875 485.570312 315.46875 C 484.695312 315.785156 484.234375 316.367188 484.1875 317.21875 C 484.113281 318.503906 484.101562 319.574219 484.148438 320.421875 C 484.222656 321.441406 484.769531 322.011719 485.789062 322.136719 C 486.175781 322.160156 486.664062 322.183594 487.246094 322.207031 C 488.023438 322.230469 488.519531 322.242188 488.738281 322.242188 C 489.808594 322.316406 490.488281 322.898438 490.777344 323.992188 C 490.972656 324.746094 491.070312 326.007812 491.070312 327.78125 C 491.070312 330.308594 491.070312 335.199219 491.070312 342.460938 C 491.070312 348.582031 491.082031 353.460938 491.105469 357.105469 C 491.105469 358.222656 491.144531 359.207031 491.214844 360.054688 C 491.289062 360.855469 491.726562 361.308594 492.527344 361.402344 C 493.28125 361.476562 494.15625 361.523438 495.152344 361.550781 C 497.191406 361.550781 498.390625 361.367188 498.757812 361.003906 C 499.144531 360.664062 499.339844 359.496094 499.339844 357.507812 C 499.339844 355.054688 499.339844 347.71875 499.339844 335.503906 C 499.339844 322.195312 499.339844 314.582031 499.339844 312.664062 C 499.316406 311.132812 499.121094 310.1875 498.757812 309.824219 C 498.414062 309.480469 497.570312 309.308594 496.226562 309.308594 C 496.136719 309.308594 496.046875 309.3125 495.953125 309.3125 L 495.660156 309.3125 C 495.550781 309.304688 495.441406 309.300781 495.332031 309.300781 Z M 500.941406 311.609375 C 501.089844 312.144531 501.160156 312.894531 501.160156 313.867188 C 501.183594 317.3125 501.199219 322.828125 501.199219 330.402344 L 501.160156 342.207031 C 501.183594 349.078125 501.183594 354.578125 501.160156 358.707031 C 501.160156 360.75 500.964844 361.988281 500.578125 362.421875 C 500.140625 362.933594 498.988281 363.1875 497.117188 363.1875 L 496.570312 363.1875 C 495.746094 363.1875 494.996094 363.152344 494.316406 363.078125 L 494.3125 363.078125 C 494.554688 363.324219 494.847656 363.457031 495.1875 363.480469 C 495.941406 363.578125 496.824219 363.625 497.847656 363.625 C 499.886719 363.625 501.089844 363.457031 501.453125 363.117188 C 501.816406 362.75 502 361.574219 502 359.582031 L 502 337.617188 C 502 324.40625 502 316.78125 502 314.738281 C 502 312.945312 501.648438 311.902344 500.945312 311.609375 Z M 493.21875 393.824219 C 492.199219 393.824219 491.324219 394.261719 490.597656 395.136719 C 489.796875 396.058594 489.285156 397.128906 489.066406 398.339844 C 489.042969 398.558594 489.019531 398.863281 488.992188 399.253906 C 488.96875 399.640625 488.945312 399.921875 488.921875 400.089844 C 488.800781 400.941406 488.570312 401.535156 488.230469 401.875 C 487.863281 402.214844 487.269531 402.398438 486.445312 402.421875 C 485.691406 402.46875 484.988281 402.496094 484.332031 402.496094 C 483.433594 402.496094 482.574219 402.457031 481.75 402.386719 L 481.746094 402.386719 C 482.085938 402.652344 482.511719 402.796875 483.019531 402.820312 C 483.851562 402.878906 484.722656 402.90625 485.625 402.90625 C 486.304688 402.90625 487 402.890625 487.71875 402.859375 C 488.421875 402.835938 488.921875 402.6875 489.210938 402.421875 C 489.480469 402.152344 489.660156 401.644531 489.757812 400.890625 C 489.785156 400.746094 489.808594 400.453125 489.832031 400.015625 C 489.855469 399.652344 489.878906 399.363281 489.90625 399.144531 C 490.148438 397.855469 490.683594 396.714844 491.507812 395.71875 C 492.234375 394.867188 493.121094 394.40625 494.167969 394.335938 C 494.070312 394.214844 493.949219 394.078125 493.800781 393.933594 C 493.511719 393.859375 493.316406 393.824219 493.21875 393.824219 Z M 504.015625 390.199219 C 506.238281 393.332031 507.011719 397.148438 506.332031 401.65625 C 505.75 405.492188 504.34375 409.074219 502.109375 412.402344 C 500.503906 414.808594 497.957031 418.632812 494.457031 423.878906 L 493.949219 424.640625 C 493.4375 425.371094 493.085938 425.929688 492.890625 426.316406 C 492.890625 426.316406 492.878906 426.34375 492.855469 426.390625 C 493.269531 426.414062 493.679688 426.425781 494.09375 426.425781 C 494.3125 426.0625 494.617188 425.589844 495.003906 425.007812 C 498.746094 419.421875 501.414062 415.4375 503.019531 413.058594 C 505.203125 409.78125 506.589844 406.246094 507.171875 402.457031 C 507.921875 397.539062 506.871094 393.453125 504.019531 390.199219 Z M 491.0625 383.828125 C 488.503906 383.828125 486.550781 384.257812 485.207031 385.117188 C 484.9375 385.289062 484.695312 385.457031 484.476562 385.628906 C 480.496094 388.542969 478.453125 392.890625 478.355469 398.667969 C 478.355469 399.957031 479.011719 400.648438 480.324219 400.746094 C 481.15625 400.800781 482.023438 400.828125 482.929688 400.828125 C 483.605469 400.828125 484.304688 400.8125 485.023438 400.78125 C 485.753906 400.757812 486.25 400.601562 486.515625 400.308594 C 486.785156 400.066406 486.964844 399.566406 487.0625 398.816406 C 487.085938 398.644531 487.113281 398.355469 487.136719 397.941406 C 487.160156 397.550781 487.195312 397.261719 487.246094 397.066406 C 487.464844 395.753906 488 394.613281 488.847656 393.640625 C 489.660156 392.667969 490.625 392.183594 491.746094 392.183594 C 491.800781 392.183594 491.855469 392.183594 491.910156 392.183594 C 493.097656 392.234375 494.09375 392.78125 494.894531 393.824219 C 495.453125 394.554688 495.769531 395.367188 495.84375 396.265625 C 495.988281 397.867188 495.902344 399.226562 495.585938 400.34375 C 494.90625 402.601562 494.082031 404.582031 493.109375 406.28125 C 492.210938 407.835938 489.746094 411.492188 485.714844 417.246094 C 482.777344 421.398438 480.808594 424.203125 479.8125 425.664062 C 478.867188 427.046875 478.382812 428.308594 478.355469 429.449219 C 478.308594 431.5625 478.308594 433.128906 478.355469 434.148438 C 478.40625 434.855469 478.5625 435.339844 478.832031 435.605469 C 479.121094 435.875 479.644531 436.03125 480.398438 436.082031 C 480.6875 436.105469 481.269531 436.117188 482.144531 436.117188 L 499.484375 436.117188 C 500.894531 436.117188 501.878906 436.09375 502.4375 436.042969 C 503.382812 435.972656 503.90625 435.496094 504.003906 434.625 C 504.195312 432.753906 504.195312 430.894531 504.003906 429.050781 C 503.90625 428.128906 503.394531 427.605469 502.472656 427.484375 C 501.914062 427.386719 501.234375 427.335938 500.433594 427.335938 L 494.566406 427.335938 C 493.425781 427.3125 492.648438 427.277344 492.234375 427.230469 C 491.554688 427.15625 491.105469 426.914062 490.886719 426.5 C 490.695312 426.0625 490.765625 425.527344 491.105469 424.898438 C 491.300781 424.53125 491.714844 423.878906 492.34375 422.929688 C 496.011719 417.394531 498.671875 413.398438 500.324219 410.945312 C 502.53125 407.691406 503.917969 404.167969 504.476562 400.382812 C 505.421875 394.164062 503.503906 389.257812 498.71875 385.664062 C 497.191406 384.523438 494.90625 383.917969 491.871094 383.84375 C 491.597656 383.835938 491.328125 383.828125 491.0625 383.828125 Z M 505.714844 429.742188 C 505.789062 429.984375 505.824219 430.144531 505.824219 430.214844 C 506.042969 432.109375 506.054688 433.992188 505.859375 435.863281 C 505.738281 436.980469 505.070312 437.597656 503.855469 437.71875 C 503.273438 437.769531 502.386719 437.792969 501.199219 437.792969 L 483.019531 437.792969 C 482.484375 437.792969 482.074219 437.78125 481.78125 437.757812 C 481.734375 437.757812 481.695312 437.742188 481.671875 437.71875 L 481.5625 437.71875 C 481.828125 437.960938 482.328125 438.121094 483.054688 438.191406 C 483.347656 438.21875 483.941406 438.230469 484.839844 438.230469 L 502.144531 438.230469 C 503.554688 438.230469 504.535156 438.207031 505.09375 438.15625 C 506.066406 438.058594 506.589844 437.574219 506.660156 436.699219 C 506.878906 434.855469 506.878906 432.996094 506.660156 431.125 C 506.589844 430.472656 506.273438 430.011719 505.71875 429.742188 Z M 505.714844 429.742188 " fill-opacity="1" fill-rule="nonzero"/><path fill="#6d5764" d="M 465.722656 368.324219 C 464.488281 368.367188 463.769531 368.671875 463.570312 369.238281 C 463.890625 369.140625 464.347656 369.082031 464.941406 369.058594 C 465.113281 369.0625 465.386719 369.0625 465.753906 369.0625 L 480.386719 369.125 C 499.675781 369.207031 514.136719 369.265625 523.769531 369.308594 C 525.621094 369.316406 526.753906 369.53125 527.171875 369.949219 C 527.589844 370.398438 527.796875 371.570312 527.789062 373.472656 L 527.789062 373.84375 C 527.785156 374.660156 527.757812 375.351562 527.703125 375.917969 C 527.925781 375.695312 528.066406 375.375 528.117188 374.957031 C 528.167969 374.363281 528.195312 373.488281 528.199219 372.328125 C 528.207031 370.546875 528.039062 369.484375 527.695312 369.136719 C 527.351562 368.765625 526.316406 368.578125 524.585938 368.570312 C 519.078125 368.546875 499.804688 368.464844 466.757812 368.328125 C 466.214844 368.324219 465.871094 368.324219 465.722656 368.324219 Z M 463.859375 370.6875 C 462.871094 370.730469 462.242188 370.890625 461.96875 371.160156 C 461.671875 371.429688 461.496094 372.035156 461.441406 372.972656 C 461.441406 373.21875 461.4375 373.824219 461.433594 374.789062 C 461.425781 376.617188 461.570312 377.691406 461.867188 378.011719 C 462.183594 378.335938 463.234375 378.5 465.011719 378.507812 L 522.285156 378.746094 C 522.394531 378.746094 522.5 378.746094 522.605469 378.746094 C 523.605469 378.746094 524.378906 378.726562 524.914062 378.683594 C 525.707031 378.589844 526.140625 378.132812 526.214844 377.320312 C 526.292969 376.726562 526.332031 375.863281 526.339844 374.726562 C 526.320312 372.949219 526.140625 371.871094 525.796875 371.5 C 525.453125 371.128906 524.414062 370.941406 522.6875 370.933594 C 516.265625 370.90625 497.003906 370.824219 464.898438 370.691406 C 464.355469 370.6875 464.007812 370.6875 463.859375 370.6875 Z M 463.859375 370.6875 " fill-opacity="1" fill-rule="nonzero"/></svg>