<svg xmlns="http://www.w3.org/2000/svg" xmlns:xlink="http://www.w3.org/1999/xlink" width="1000" zoomAndPan="magnify" viewBox="0 0 750 749.999995" height="1000" preserveAspectRatio="xMidYMid meet" version="1.0"><defs><clipPath id="5030ab8311"><path d="M 120 125 L 628 125 L 628 633.515625 L 120 633.515625 Z M 120 125 " clip-rule="nonzero"/></clipPath></defs><rect x="-75" width="900" fill="#ffffff" y="-74.999999" height="899.999994" fill-opacity="1"/><rect x="-75" width="900" fill="#ffffff" y="-74.999999" height="899.999994" fill-opacity="1"/><path fill="#fefefe" d="M 621.398438 376.394531 C 616.46875 388.300781 637.40625 485.949219 543.472656 560.34375 C 483.867188 607.550781 411.792969 623.324219 373.527344 625.507812 C 316.101562 628.789062 155.511719 604.78125 123.957031 375.378906 C 112.621094 292.960938 189.171875 142.949219 376.363281 128.789062 Z M 621.398438 376.394531 " fill-opacity="1" fill-rule="nonzero"/><path fill="#6d5764" d="M 375.164062 374.703125 L 379.09375 626.777344 C 437.964844 627.925781 526.347656 591.210938 574.5625 524.78125 C 621.527344 460.078125 629.253906 366.136719 618.015625 329.097656 C 553.582031 116.769531 374.003906 131.652344 374.003906 131.652344 Z M 375.164062 374.703125 " fill-opacity="1" fill-rule="nonzero"/><path fill="#00010d" d="M 127.277344 373.667969 L 621.632812 373.28125 C 624.296875 373.28125 626.457031 375.4375 626.457031 378.101562 C 626.460938 380.765625 624.304688 382.925781 621.640625 382.925781 L 127.28125 383.3125 C 124.621094 383.3125 122.460938 381.15625 122.457031 378.492188 C 122.457031 375.828125 124.613281 373.667969 127.277344 373.667969 Z M 127.277344 373.667969 " fill-opacity="1" fill-rule="nonzero"/><path fill="#00010d" d="M 379.773438 132.410156 L 379.929688 624.558594 C 379.929688 627.222656 377.773438 629.382812 375.109375 629.382812 C 372.445312 629.382812 370.285156 627.226562 370.285156 624.5625 L 370.128906 132.410156 C 370.128906 129.75 372.285156 127.589844 374.949219 127.589844 C 377.613281 127.585938 379.769531 129.746094 379.773438 132.410156 Z M 379.773438 132.410156 " fill-opacity="1" fill-rule="nonzero"/><g clip-path="url(#5030ab8311)"><path fill="#00010d" d="M 627.972656 379.375 C 627.972656 519.582031 514.3125 633.246094 374.105469 633.246094 C 233.898438 633.246094 120.238281 519.582031 120.238281 379.375 C 120.238281 239.167969 233.898438 125.507812 374.105469 125.507812 C 514.3125 125.507812 627.972656 239.167969 627.972656 379.375 M 616.769531 379.375 C 616.769531 245.355469 508.125 136.710938 374.105469 136.710938 C 240.085938 136.710938 131.441406 245.355469 131.441406 379.375 C 131.441406 513.394531 240.085938 622.042969 374.105469 622.042969 C 508.125 622.042969 616.769531 513.394531 616.769531 379.375 Z M 616.769531 379.375 " fill-opacity="1" fill-rule="nonzero"/></g><path fill="#6d5764" d="M 479.238281 230.074219 C 478.253906 230.074219 477.40625 230.5 476.703125 231.34375 C 475.925781 232.238281 475.433594 233.269531 475.222656 234.445312 C 475.199219 234.65625 475.175781 234.949219 475.152344 235.324219 C 475.128906 235.699219 475.105469 235.972656 475.082031 236.136719 C 474.964844 236.957031 474.742188 237.53125 474.414062 237.863281 C 474.058594 238.191406 473.484375 238.367188 472.6875 238.390625 C 471.957031 238.4375 471.277344 238.460938 470.644531 238.460938 C 469.773438 238.460938 468.941406 238.425781 468.144531 238.355469 L 468.140625 238.355469 C 468.46875 238.613281 468.882812 238.753906 469.375 238.777344 C 470.179688 238.832031 471.019531 238.859375 471.894531 238.859375 C 472.550781 238.859375 473.222656 238.84375 473.917969 238.8125 C 474.601562 238.789062 475.082031 238.648438 475.363281 238.390625 C 475.621094 238.132812 475.796875 237.636719 475.890625 236.910156 C 475.914062 236.769531 475.9375 236.488281 475.960938 236.066406 C 475.984375 235.710938 476.007812 235.429688 476.03125 235.21875 C 476.269531 233.976562 476.785156 232.871094 477.582031 231.90625 C 478.289062 231.085938 479.144531 230.640625 480.15625 230.570312 C 480.0625 230.453125 479.945312 230.324219 479.800781 230.183594 C 479.519531 230.109375 479.332031 230.074219 479.238281 230.074219 Z M 489.679688 226.570312 C 491.832031 229.597656 492.578125 233.289062 491.921875 237.648438 C 491.359375 241.359375 489.996094 244.824219 487.835938 248.042969 C 486.285156 250.367188 483.820312 254.066406 480.4375 259.140625 L 479.941406 259.878906 C 479.449219 260.585938 479.109375 261.125 478.921875 261.5 C 478.921875 261.5 478.910156 261.523438 478.886719 261.570312 C 479.285156 261.59375 479.683594 261.605469 480.085938 261.605469 C 480.296875 261.253906 480.589844 260.796875 480.964844 260.230469 C 484.582031 254.832031 487.164062 250.980469 488.714844 248.675781 C 490.828125 245.507812 492.167969 242.089844 492.730469 238.425781 C 493.457031 233.667969 492.441406 229.714844 489.683594 226.570312 Z M 477.15625 220.410156 C 474.675781 220.410156 472.789062 220.824219 471.488281 221.65625 C 471.230469 221.820312 470.996094 221.984375 470.785156 222.148438 C 466.933594 224.96875 464.960938 229.171875 464.863281 234.761719 C 464.863281 236.007812 465.5 236.675781 466.769531 236.769531 C 467.574219 236.824219 468.414062 236.851562 469.285156 236.851562 C 469.941406 236.851562 470.617188 236.835938 471.3125 236.804688 C 472.015625 236.78125 472.5 236.628906 472.757812 236.347656 C 473.015625 236.113281 473.191406 235.628906 473.285156 234.902344 C 473.308594 234.738281 473.332031 234.457031 473.355469 234.058594 C 473.378906 233.679688 473.414062 233.398438 473.460938 233.210938 C 473.671875 231.941406 474.1875 230.839844 475.011719 229.898438 C 475.796875 228.957031 476.730469 228.488281 477.816406 228.488281 C 477.867188 228.488281 477.917969 228.488281 477.96875 228.492188 C 479.121094 228.539062 480.085938 229.066406 480.859375 230.074219 C 481.398438 230.78125 481.703125 231.566406 481.773438 232.4375 C 481.917969 233.988281 481.835938 235.300781 481.527344 236.382812 C 480.871094 238.566406 480.074219 240.480469 479.132812 242.125 C 478.265625 243.628906 475.878906 247.164062 471.980469 252.726562 C 469.140625 256.746094 467.238281 259.457031 466.273438 260.867188 C 465.359375 262.207031 464.890625 263.425781 464.863281 264.53125 C 464.816406 266.574219 464.816406 268.089844 464.863281 269.074219 C 464.914062 269.757812 465.066406 270.226562 465.324219 270.484375 C 465.605469 270.742188 466.109375 270.894531 466.839844 270.941406 C 467.121094 270.964844 467.683594 270.976562 468.527344 270.976562 L 485.296875 270.976562 C 486.660156 270.976562 487.613281 270.953125 488.152344 270.90625 C 489.066406 270.835938 489.574219 270.378906 489.667969 269.53125 C 489.855469 267.722656 489.855469 265.925781 489.667969 264.144531 C 489.574219 263.25 489.078125 262.746094 488.1875 262.628906 C 487.648438 262.535156 486.988281 262.488281 486.214844 262.488281 L 480.542969 262.488281 C 479.4375 262.464844 478.6875 262.429688 478.289062 262.382812 C 477.628906 262.3125 477.195312 262.074219 476.984375 261.675781 C 476.796875 261.253906 476.867188 260.738281 477.195312 260.125 C 477.382812 259.773438 477.78125 259.140625 478.394531 258.222656 C 481.941406 252.871094 484.511719 249.007812 486.109375 246.632812 C 488.246094 243.488281 489.585938 240.082031 490.125 236.417969 C 491.039062 230.40625 489.183594 225.660156 484.558594 222.183594 C 483.078125 221.082031 480.871094 220.492188 477.933594 220.421875 C 477.667969 220.414062 477.410156 220.410156 477.15625 220.410156 Z M 491.324219 264.8125 C 491.394531 265.046875 491.429688 265.199219 491.429688 265.269531 C 491.640625 267.101562 491.652344 268.921875 491.464844 270.730469 C 491.347656 271.8125 490.699219 272.410156 489.527344 272.527344 C 488.960938 272.574219 488.105469 272.597656 486.953125 272.597656 L 469.375 272.597656 C 468.859375 272.597656 468.457031 272.585938 468.175781 272.5625 C 468.128906 272.5625 468.09375 272.550781 468.070312 272.527344 L 467.964844 272.527344 C 468.222656 272.761719 468.707031 272.914062 469.410156 272.984375 C 469.691406 273.007812 470.265625 273.019531 471.136719 273.019531 L 487.871094 273.019531 C 489.230469 273.019531 490.183594 272.996094 490.722656 272.949219 C 491.664062 272.855469 492.167969 272.386719 492.238281 271.539062 C 492.449219 269.757812 492.449219 267.960938 492.238281 266.152344 C 492.167969 265.519531 491.863281 265.074219 491.324219 264.8125 Z M 477.722656 319.277344 C 477.136719 320.734375 476.667969 321.917969 476.316406 322.835938 C 476.832031 322.765625 477.171875 322.53125 477.335938 322.128906 C 477.59375 321.519531 477.722656 320.582031 477.722656 319.3125 Z M 488.117188 294.757812 C 488.210938 295.015625 488.257812 295.191406 488.257812 295.285156 C 488.304688 295.753906 488.328125 296.460938 488.328125 297.398438 L 488.328125 311.703125 C 488.328125 315.390625 488.339844 318.160156 488.363281 320.015625 C 488.363281 320.886719 488.445312 321.824219 488.609375 322.835938 L 488.785156 322.835938 C 488.808594 322.835938 488.972656 322.847656 489.277344 322.871094 C 489.207031 322.117188 489.171875 321.449219 489.171875 320.863281 C 489.148438 319.734375 489.136719 315.953125 489.136719 309.519531 C 489.136719 303.789062 489.136719 300.101562 489.136719 298.457031 C 489.136719 297.398438 489.113281 296.648438 489.066406 296.203125 C 488.972656 295.453125 488.65625 294.96875 488.121094 294.757812 Z M 477.324219 316.242188 C 477.351562 316.242188 477.378906 316.246094 477.40625 316.246094 C 477.710938 316.269531 477.933594 316.410156 478.078125 316.667969 C 478.359375 317.1875 478.523438 318.066406 478.570312 319.3125 C 478.570312 320.675781 478.429688 321.71875 478.148438 322.445312 C 477.886719 323.058594 477.40625 323.457031 476.703125 323.644531 C 476.503906 323.691406 476.3125 323.714844 476.128906 323.714844 C 475.65625 323.714844 475.222656 323.5625 474.835938 323.257812 C 474.367188 322.882812 474.246094 322.375 474.484375 321.742188 C 474.789062 320.898438 475.410156 319.324219 476.351562 317.023438 C 476.375 316.976562 476.480469 316.824219 476.667969 316.5625 C 476.835938 316.351562 477.058594 316.242188 477.324219 316.242188 Z M 468.140625 333.792969 C 468.421875 334.050781 468.894531 334.191406 469.550781 334.214844 C 469.269531 334.214844 471.441406 334.238281 476.066406 334.285156 C 476.773438 334.285156 477.265625 334.296875 477.546875 334.320312 C 477.523438 334.179688 477.476562 334.050781 477.40625 333.933594 C 476.9375 333.886719 476.269531 333.863281 475.398438 333.863281 L 472.546875 333.863281 C 470.667969 333.863281 469.257812 333.839844 468.316406 333.792969 Z M 480.222656 292.535156 C 478.902344 292.535156 477.996094 293.183594 477.511719 294.476562 C 477.324219 294.921875 476.375 297.1875 474.660156 301.273438 C 469.84375 312.757812 467.15625 319.113281 466.589844 320.332031 C 465.371094 323.011719 464.851562 326.324219 465.042969 330.269531 C 465.089844 330.972656 465.253906 331.464844 465.535156 331.746094 C 465.792969 332.03125 466.273438 332.183594 466.980469 332.207031 C 466.898438 332.199219 466.972656 332.195312 467.203125 332.195312 C 467.894531 332.195312 469.992188 332.222656 473.496094 332.277344 C 474.953125 332.277344 475.890625 332.3125 476.316406 332.382812 C 477.582031 332.546875 478.3125 333.285156 478.5 334.601562 C 478.546875 334.929688 478.570312 335.683594 478.570312 336.855469 C 478.613281 339.535156 478.625 340.875 478.609375 340.875 L 478.605469 340.875 C 478.65625 341.699219 478.832031 342.25 479.132812 342.527344 C 479.4375 342.808594 480.027344 342.972656 480.894531 343.019531 C 481.402344 343.039062 481.902344 343.050781 482.398438 343.050781 C 483.144531 343.050781 483.875 343.027344 484.59375 342.984375 C 485.273438 342.9375 485.757812 342.773438 486.039062 342.492188 C 486.320312 342.210938 486.472656 341.730469 486.496094 341.046875 C 486.542969 340.414062 486.566406 339.511719 486.566406 338.335938 C 486.566406 337.089844 486.566406 336.199219 486.566406 335.660156 C 486.613281 334.4375 486.8125 333.625 487.164062 333.226562 C 487.496094 332.828125 488.257812 332.511719 489.457031 332.277344 C 489.527344 332.253906 489.621094 332.242188 489.738281 332.242188 C 489.855469 332.21875 489.949219 332.207031 490.019531 332.207031 C 490.582031 332.089844 490.96875 331.914062 491.179688 331.675781 C 491.394531 331.441406 491.523438 331.042969 491.570312 330.480469 C 491.59375 330.058594 491.617188 328.929688 491.640625 327.097656 C 491.640625 325.734375 491.511719 324.867188 491.25 324.492188 C 490.898438 323.949219 490.078125 323.679688 488.785156 323.679688 C 487.683594 323.679688 487.035156 323.09375 486.847656 321.917969 C 486.683594 320.863281 486.589844 319.839844 486.566406 318.855469 C 486.566406 317.773438 486.566406 313.992188 486.566406 307.511719 L 486.566406 296.449219 C 486.566406 295.367188 486.542969 294.617188 486.496094 294.191406 C 486.378906 293.183594 485.816406 292.65625 484.804688 292.609375 C 484.242188 292.5625 483.488281 292.539062 482.550781 292.539062 L 480.296875 292.539062 C 480.273438 292.539062 480.246094 292.535156 480.222656 292.535156 Z M 493.226562 326.007812 C 493.367188 326.476562 493.425781 327.226562 493.402344 328.261719 L 493.402344 329.035156 C 493.402344 330.210938 493.378906 331.089844 493.332031 331.675781 C 493.261719 332.828125 492.636719 333.53125 491.464844 333.792969 C 491.394531 333.816406 491.277344 333.828125 491.109375 333.828125 C 491.015625 333.828125 490.945312 333.839844 490.898438 333.863281 C 489.796875 334.074219 489.101562 334.34375 488.820312 334.671875 C 488.5625 335 488.410156 335.730469 488.363281 336.855469 C 488.339844 337.371094 488.328125 338.195312 488.328125 339.320312 C 488.328125 340.613281 488.316406 341.589844 488.292969 342.246094 C 488.222656 343.703125 487.445312 344.476562 485.96875 344.570312 C 485.285156 344.617188 484.605469 344.640625 483.925781 344.640625 C 483.359375 344.640625 482.796875 344.628906 482.234375 344.605469 C 482.117188 344.605469 481.953125 344.59375 481.742188 344.570312 C 482.046875 344.828125 482.632812 344.980469 483.5 345.027344 C 484.007812 345.046875 484.507812 345.058594 485 345.058594 C 485.738281 345.058594 486.460938 345.035156 487.164062 344.992188 C 487.871094 344.96875 488.351562 344.816406 488.609375 344.535156 C 488.890625 344.253906 489.054688 343.761719 489.101562 343.054688 C 489.125 342.421875 489.136719 341.53125 489.136719 340.378906 C 489.136719 339.132812 489.148438 338.230469 489.171875 337.667969 C 489.21875 336.445312 489.410156 335.632812 489.738281 335.234375 C 490.089844 334.835938 490.851562 334.519531 492.027344 334.285156 C 492.097656 334.285156 492.191406 334.273438 492.308594 334.25 C 492.449219 334.25 492.542969 334.238281 492.589844 334.214844 C 493.15625 334.097656 493.542969 333.921875 493.753906 333.683594 C 493.964844 333.449219 494.09375 333.0625 494.140625 332.523438 C 494.1875 332.078125 494.210938 330.9375 494.210938 329.105469 C 494.234375 327.371094 493.90625 326.335938 493.226562 326.007812 Z M 493.226562 326.007812 " fill-opacity="1" fill-rule="nonzero"/><path fill="#6d5764" d="M 452.644531 277.5625 C 451.449219 277.605469 450.757812 277.902344 450.5625 278.449219 C 450.875 278.355469 451.316406 278.296875 451.890625 278.277344 C 452.058594 278.277344 452.320312 278.277344 452.679688 278.28125 L 466.828125 278.339844 C 485.484375 278.417969 499.46875 278.476562 508.78125 278.515625 C 510.574219 278.523438 511.671875 278.730469 512.074219 279.136719 C 512.480469 279.570312 512.679688 280.703125 512.671875 282.542969 L 512.667969 282.902344 C 512.664062 283.691406 512.640625 284.359375 512.589844 284.90625 C 512.804688 284.695312 512.9375 284.382812 512.988281 283.976562 C 513.039062 283.40625 513.066406 282.558594 513.070312 281.433594 C 513.078125 279.714844 512.914062 278.6875 512.582031 278.351562 C 512.246094 277.992188 511.246094 277.808594 509.574219 277.800781 C 504.246094 277.777344 485.605469 277.699219 453.648438 277.566406 C 453.125 277.566406 452.789062 277.5625 452.644531 277.5625 Z M 450.84375 279.847656 C 449.890625 279.890625 449.277344 280.042969 449.015625 280.304688 C 448.726562 280.566406 448.558594 281.152344 448.507812 282.058594 C 448.503906 282.296875 448.503906 282.882812 448.5 283.816406 C 448.492188 285.582031 448.628906 286.621094 448.914062 286.933594 C 449.226562 287.246094 450.238281 287.40625 451.960938 287.414062 L 507.347656 287.644531 C 507.453125 287.644531 507.554688 287.644531 507.65625 287.644531 C 508.625 287.644531 509.371094 287.625 509.890625 287.582031 C 510.65625 287.492188 511.074219 287.050781 511.148438 286.261719 C 511.222656 285.691406 511.261719 284.855469 511.269531 283.753906 C 511.25 282.035156 511.078125 280.996094 510.742188 280.636719 C 510.410156 280.277344 509.410156 280.09375 507.738281 280.085938 C 501.527344 280.0625 482.898438 279.984375 451.847656 279.851562 C 451.320312 279.851562 450.988281 279.847656 450.84375 279.847656 Z M 450.84375 279.847656 " fill-opacity="1" fill-rule="nonzero"/></svg>