<svg xmlns="http://www.w3.org/2000/svg" xmlns:xlink="http://www.w3.org/1999/xlink" width="1000" zoomAndPan="magnify" viewBox="0 0 750 749.999995" height="1000" preserveAspectRatio="xMidYMid meet" version="1.0"><defs><clipPath id="09306fca2e"><path d="M 121 120 L 619 120 L 619 618 L 121 618 Z M 121 120 " clip-rule="nonzero"/></clipPath><clipPath id="423e388e6c"><path d="M 10.035156 368.734375 L 368.535156 10.230469 L 739.769531 381.464844 L 381.265625 739.964844 Z M 10.035156 368.734375 " clip-rule="nonzero"/></clipPath><clipPath id="484737eb24"><path d="M 10.035156 368.734375 L 368.535156 10.230469 L 739.769531 381.464844 L 381.265625 739.964844 Z M 10.035156 368.734375 " clip-rule="nonzero"/></clipPath><clipPath id="05a25b3e28"><path d="M 337 121 L 619 121 L 619 614 L 337 614 Z M 337 121 " clip-rule="nonzero"/></clipPath><clipPath id="31088a4374"><path d="M 10.035156 368.734375 L 368.535156 10.230469 L 739.769531 381.464844 L 381.265625 739.964844 Z M 10.035156 368.734375 " clip-rule="nonzero"/></clipPath><clipPath id="3a942734a3"><path d="M 10.035156 368.734375 L 368.535156 10.230469 L 739.769531 381.464844 L 381.265625 739.964844 Z M 10.035156 368.734375 " clip-rule="nonzero"/></clipPath><clipPath id="e8c0ffe693"><path d="M 190 191 L 545 191 L 545 549 L 190 549 Z M 190 191 " clip-rule="nonzero"/></clipPath><clipPath id="c3237621f0"><path d="M 10.035156 368.734375 L 368.535156 10.230469 L 739.769531 381.464844 L 381.265625 739.964844 Z M 10.035156 368.734375 " clip-rule="nonzero"/></clipPath><clipPath id="272091b925"><path d="M 10.035156 368.734375 L 368.535156 10.230469 L 739.769531 381.464844 L 381.265625 739.964844 Z M 10.035156 368.734375 " clip-rule="nonzero"/></clipPath><clipPath id="4748f0ef4a"><path d="M 330 118 L 406 118 L 406 614 L 330 614 Z M 330 118 " clip-rule="nonzero"/></clipPath><clipPath id="21e2016c61"><path d="M 10.035156 368.734375 L 368.535156 10.230469 L 739.769531 381.464844 L 381.265625 739.964844 Z M 10.035156 368.734375 " clip-rule="nonzero"/></clipPath><clipPath id="75d87854f2"><path d="M 10.035156 368.734375 L 368.535156 10.230469 L 739.769531 381.464844 L 381.265625 739.964844 Z M 10.035156 368.734375 " clip-rule="nonzero"/></clipPath><clipPath id="9e6f8db6ee"><path d="M 143 252 L 594 252 L 594 487 L 143 487 Z M 143 252 " clip-rule="nonzero"/></clipPath><clipPath id="04eed6598e"><path d="M 10.035156 368.734375 L 368.535156 10.230469 L 739.769531 381.464844 L 381.265625 739.964844 Z M 10.035156 368.734375 " clip-rule="nonzero"/></clipPath><clipPath id="15fabe323d"><path d="M 10.035156 368.734375 L 368.535156 10.230469 L 739.769531 381.464844 L 381.265625 739.964844 Z M 10.035156 368.734375 " clip-rule="nonzero"/></clipPath><clipPath id="ed085c51cc"><path d="M 120 327 L 617 327 L 617 412 L 120 412 Z M 120 327 " clip-rule="nonzero"/></clipPath><clipPath id="2955b10727"><path d="M 10.035156 368.734375 L 368.535156 10.230469 L 739.769531 381.464844 L 381.265625 739.964844 Z M 10.035156 368.734375 " clip-rule="nonzero"/></clipPath><clipPath id="1dffa31d21"><path d="M 10.035156 368.734375 L 368.535156 10.230469 L 739.769531 381.464844 L 381.265625 739.964844 Z M 10.035156 368.734375 " clip-rule="nonzero"/></clipPath><clipPath id="9166d5c6a5"><path d="M 248 143 L 487 143 L 487 591 L 248 591 Z M 248 143 " clip-rule="nonzero"/></clipPath><clipPath id="b6094a05e4"><path d="M 10.035156 368.734375 L 368.535156 10.230469 L 739.769531 381.464844 L 381.265625 739.964844 Z M 10.035156 368.734375 " clip-rule="nonzero"/></clipPath><clipPath id="e9f46b2f26"><path d="M 10.035156 368.734375 L 368.535156 10.230469 L 739.769531 381.464844 L 381.265625 739.964844 Z M 10.035156 368.734375 " clip-rule="nonzero"/></clipPath><clipPath id="bcef9b7ce2"><path d="M 115 115 L 623 115 L 623 623 L 115 623 Z M 115 115 " clip-rule="nonzero"/></clipPath><clipPath id="265a0185ac"><path d="M 10.035156 368.734375 L 368.535156 10.230469 L 739.769531 381.464844 L 381.265625 739.964844 Z M 10.035156 368.734375 " clip-rule="nonzero"/></clipPath><clipPath id="4197a3feb3"><path d="M 10.035156 368.734375 L 368.535156 10.230469 L 739.769531 381.464844 L 381.265625 739.964844 Z M 10.035156 368.734375 " clip-rule="nonzero"/></clipPath><clipPath id="af71667821"><path d="M 404 168 L 489 168 L 489 251 L 404 251 Z M 404 168 " clip-rule="nonzero"/></clipPath><clipPath id="58f15d86d6"><path d="M 10.035156 368.734375 L 368.535156 10.230469 L 739.769531 381.464844 L 381.265625 739.964844 Z M 10.035156 368.734375 " clip-rule="nonzero"/></clipPath><clipPath id="e28c3c11aa"><path d="M 10.035156 368.734375 L 368.535156 10.230469 L 739.769531 381.464844 L 381.265625 739.964844 Z M 10.035156 368.734375 " clip-rule="nonzero"/></clipPath><clipPath id="c3780da79a"><path d="M 426 187 L 465 187 L 465 228 L 426 228 Z M 426 187 " clip-rule="nonzero"/></clipPath><clipPath id="d987792964"><path d="M 10.035156 368.734375 L 368.535156 10.230469 L 739.769531 381.464844 L 381.265625 739.964844 Z M 10.035156 368.734375 " clip-rule="nonzero"/></clipPath><clipPath id="ac9ba037d2"><path d="M 10.035156 368.734375 L 368.535156 10.230469 L 739.769531 381.464844 L 381.265625 739.964844 Z M 10.035156 368.734375 " clip-rule="nonzero"/></clipPath></defs><rect x="-75" width="900" fill="#ffffff" y="-74.999999" height="899.999994" fill-opacity="1"/><rect x="-75" width="900" fill="#ffffff" y="-74.999999" height="899.999994" fill-opacity="1"/><g clip-path="url(#09306fca2e)"><g clip-path="url(#423e388e6c)"><g clip-path="url(#484737eb24)"><path fill="#fefefe" d="M 545.839844 193.359375 L 568.089844 218.816406 C 608.546875 274.484375 624.726562 335.179688 616.636719 400.902344 C 608.265625 466.855469 576.183594 522.289062 520.382812 567.207031 C 464.714844 607.660156 404.019531 623.84375 338.296875 615.753906 C 317.136719 613.054688 296.53125 607.660156 276.484375 599.570312 L 247.253906 585.410156 C 228.1875 574.625 210.515625 561.136719 194.242188 544.957031 C 145.695312 493.898438 121.421875 435.296875 121.421875 369.15625 C 121.421875 303.015625 145.695312 244.417969 194.242188 193.359375 C 245.300781 144.8125 303.902344 120.539062 370.042969 120.539062 C 436.179688 120.539062 494.78125 144.8125 545.839844 193.359375 " fill-opacity="1" fill-rule="nonzero"/></g></g></g><g clip-path="url(#05a25b3e28)"><g clip-path="url(#31088a4374)"><g clip-path="url(#3a942734a3)"><path fill="#6d5764" d="M 592.890625 257.308594 L 544.757812 192.734375 C 499.207031 145.878906 398.863281 121.78125 398.863281 121.78125 L 366.402344 368.058594 C 348.949219 500.476562 339.71875 567.101562 337.121094 612.589844 C 418.390625 620.6875 482.507812 587.847656 482.507812 587.847656 C 586.007812 534.835938 588.324219 483.277344 588.324219 483.277344 C 633.625 381.453125 613.632812 333.042969 613.632812 333.042969 Z M 592.890625 257.308594 " fill-opacity="1" fill-rule="nonzero"/></g></g></g><g clip-path="url(#e8c0ffe693)"><g clip-path="url(#c3237621f0)"><g clip-path="url(#272091b925)"><path fill="#00010d" d="M 191.417969 540.75 L 535.890625 193.105469 C 537.761719 191.214844 540.808594 191.203125 542.699219 193.074219 C 544.585938 194.945312 544.597656 197.992188 542.726562 199.878906 L 198.253906 547.523438 C 196.382812 549.410156 193.335938 549.425781 191.449219 547.554688 C 189.5625 545.683594 189.546875 542.636719 191.417969 540.75 Z M 191.417969 540.75 " fill-opacity="1" fill-rule="nonzero"/></g></g></g><g clip-path="url(#4748f0ef4a)"><g clip-path="url(#21e2016c61)"><g clip-path="url(#75d87854f2)"><path fill="#00010d" d="M 330.570312 608.023438 L 395.484375 122.957031 C 395.835938 120.324219 398.257812 118.472656 400.890625 118.828125 C 403.527344 119.179688 405.375 121.601562 405.023438 124.234375 L 340.109375 609.300781 C 339.757812 611.933594 337.335938 613.785156 334.703125 613.433594 C 332.066406 613.078125 330.21875 610.65625 330.570312 608.023438 Z M 330.570312 608.023438 " fill-opacity="1" fill-rule="nonzero"/></g></g></g><g clip-path="url(#9e6f8db6ee)"><g clip-path="url(#04eed6598e)"><g clip-path="url(#15fabe323d)"><path fill="#00010d" d="M 150.960938 252.855469 L 590.484375 477.882812 C 592.851562 479.09375 593.785156 481.992188 592.574219 484.355469 C 591.363281 486.722656 588.464844 487.660156 586.097656 486.449219 L 146.578125 261.421875 C 144.210938 260.210938 143.273438 257.308594 144.484375 254.945312 C 145.695312 252.578125 148.597656 251.644531 150.960938 252.855469 Z M 150.960938 252.855469 " fill-opacity="1" fill-rule="nonzero"/></g></g></g><g clip-path="url(#ed085c51cc)"><g clip-path="url(#2955b10727)"><g clip-path="url(#1dffa31d21)"><path fill="#00010d" d="M 124.945312 401.949219 L 610.488281 327.941406 C 613.117188 327.539062 615.570312 329.34375 615.96875 331.972656 C 616.371094 334.601562 614.566406 337.054688 611.9375 337.453125 L 126.394531 411.464844 C 123.765625 411.863281 121.3125 410.058594 120.914062 407.429688 C 120.511719 404.804688 122.316406 402.347656 124.945312 401.949219 Z M 124.945312 401.949219 " fill-opacity="1" fill-rule="nonzero"/></g></g></g><g clip-path="url(#9166d5c6a5)"><g clip-path="url(#b6094a05e4)"><g clip-path="url(#e9f46b2f26)"><path fill="#00010d" d="M 257.933594 146.039062 L 486.070312 583.605469 C 487.300781 585.960938 486.386719 588.867188 484.027344 590.097656 C 481.671875 591.324219 478.765625 590.410156 477.535156 588.054688 L 249.402344 150.488281 C 248.171875 148.128906 249.085938 145.222656 251.445312 143.996094 C 253.800781 142.765625 256.707031 143.679688 257.933594 146.039062 Z M 257.933594 146.039062 " fill-opacity="1" fill-rule="nonzero"/></g></g></g><g clip-path="url(#bcef9b7ce2)"><g clip-path="url(#265a0185ac)"><g clip-path="url(#4197a3feb3)"><path fill="#00010d" d="M 548.296875 189.589844 C 647.351562 288.644531 647.351562 449.246094 548.296875 548.300781 C 449.242188 647.355469 288.640625 647.355469 189.589844 548.300781 C 90.535156 449.246094 90.535156 288.644531 189.589844 189.59375 C 288.640625 90.539062 449.242188 90.539062 548.296875 189.589844 M 540.378906 197.507812 C 445.699219 102.824219 292.1875 102.824219 197.503906 197.507812 C 102.820312 292.191406 102.820312 445.703125 197.503906 540.382812 C 292.1875 635.066406 445.699219 635.066406 540.378906 540.382812 C 635.0625 445.703125 635.0625 292.191406 540.378906 197.507812 Z M 540.378906 197.507812 " fill-opacity="1" fill-rule="nonzero"/></g></g></g><g clip-path="url(#af71667821)"><g clip-path="url(#58f15d86d6)"><g clip-path="url(#e28c3c11aa)"><path fill="#6d5764" d="M 418.3125 168.917969 C 418.492188 169.019531 418.632812 169.121094 418.734375 169.222656 C 419.710938 170.121094 420.636719 171.050781 421.523438 172.011719 C 422.164062 172.703125 422.164062 173.433594 421.523438 174.203125 C 421.292969 174.484375 420.914062 174.886719 420.386719 175.414062 L 417.964844 177.835938 C 417.183594 178.617188 416.523438 179.289062 415.988281 179.855469 C 415.578125 180.289062 415.359375 180.648438 415.332031 180.929688 C 415.320312 181.226562 415.492188 181.628906 415.851562 182.140625 C 416.324219 182.796875 416.820312 183.3125 417.332031 183.699219 C 417.433594 183.570312 417.550781 183.417969 417.679688 183.238281 C 417.332031 182.917969 417.011719 182.546875 416.71875 182.121094 C 416.320312 181.546875 416.132812 181.078125 416.160156 180.71875 C 416.171875 180.347656 416.414062 179.910156 416.890625 179.410156 C 416.863281 179.4375 418.25 178.039062 421.042969 175.222656 C 421.746094 174.515625 422.195312 174.042969 422.386719 173.796875 C 422.914062 173.171875 422.925781 172.582031 422.425781 172.03125 C 421.542969 171.070312 420.613281 170.140625 419.640625 169.242188 C 419.203125 168.835938 418.761719 168.722656 418.316406 168.914062 Z M 424.058594 187.234375 C 423.546875 187.75 423.398438 188.320312 423.617188 188.945312 C 423.707031 189.214844 423.875 189.613281 424.117188 190.136719 C 424.21875 190.394531 424.304688 190.59375 424.367188 190.734375 C 424.699219 191.503906 424.605469 192.164062 424.078125 192.714844 C 423.628906 193.1875 423.222656 193.613281 422.847656 193.984375 C 422.425781 194.40625 421.984375 194.820312 421.527344 195.230469 L 421.523438 195.234375 C 421.804688 195.234375 422.074219 195.117188 422.328125 194.886719 C 422.761719 194.503906 423.25 194.035156 423.796875 193.492188 C 424.160156 193.128906 424.546875 192.726562 424.964844 192.292969 C 425.398438 191.832031 425.484375 191.285156 425.214844 190.65625 C 424.699219 189.503906 424.4375 188.910156 424.425781 188.871094 C 424.207031 188.242188 424.285156 187.664062 424.65625 187.140625 L 424.636719 187.160156 L 424.617188 187.140625 C 424.515625 187.113281 424.386719 187.089844 424.234375 187.0625 Z M 429.925781 197.175781 C 430.078125 197.253906 430.261719 197.375 430.480469 197.539062 C 430.710938 197.695312 430.878906 197.796875 430.980469 197.847656 C 431.082031 197.898438 431.203125 197.957031 431.347656 198.019531 C 431.550781 197.996094 431.730469 197.957031 431.882812 197.90625 C 430.898438 197.355469 430.347656 197.085938 430.230469 197.097656 C 430.117188 197.109375 430.015625 197.136719 429.925781 197.171875 Z M 408.5625 176.226562 C 407.015625 177.773438 405.976562 178.816406 405.453125 179.355469 C 404.761719 180.046875 404.414062 180.570312 404.414062 180.929688 C 404.425781 181.300781 404.792969 181.847656 405.507812 182.566406 C 405.792969 182.871094 407.746094 184.839844 411.371094 188.464844 C 414.613281 191.707031 416.46875 193.558594 416.929688 194.023438 C 417.464844 194.558594 417.894531 194.949219 418.214844 195.195312 C 418.792969 195.644531 419.332031 195.644531 419.832031 195.195312 C 420.300781 194.757812 420.847656 194.230469 421.472656 193.605469 C 421.785156 193.292969 422.113281 192.957031 422.464844 192.597656 C 422.898438 192.136719 422.972656 191.59375 422.675781 190.964844 C 422.1875 189.8125 421.933594 189.210938 421.90625 189.160156 C 421.648438 188.386719 421.832031 187.691406 422.449219 187.074219 C 422.480469 187.042969 422.511719 187.015625 422.542969 186.984375 C 423.167969 186.433594 423.917969 186.273438 424.789062 186.503906 C 425.417969 186.671875 426.035156 187.054688 426.636719 187.660156 C 428.546875 189.542969 430.449219 191.445312 432.34375 193.367188 C 432.613281 193.636719 432.851562 193.914062 433.054688 194.195312 C 433.464844 194.808594 433.671875 195.464844 433.671875 196.15625 C 433.683594 196.835938 433.484375 197.40625 433.074219 197.867188 C 433.03125 197.917969 432.984375 197.96875 432.9375 198.019531 C 432.566406 198.386719 432.089844 198.605469 431.5 198.671875 C 430.820312 198.738281 430.140625 198.597656 429.460938 198.25 C 428.308594 197.6875 427.730469 197.40625 427.730469 197.40625 C 427.433594 197.4375 427.167969 197.574219 426.925781 197.816406 C 426.886719 197.855469 426.847656 197.898438 426.808594 197.941406 C 426.316406 198.585938 426.09375 198.882812 426.148438 198.835938 C 426.03125 198.945312 425.921875 199.054688 425.8125 199.160156 C 425.371094 199.601562 424.992188 200.023438 424.675781 200.421875 C 424.238281 200.9375 424.027344 201.378906 424.039062 201.75 C 424.066406 202.132812 424.324219 202.570312 424.808594 203.058594 C 425.527344 203.773438 426.375 204.339844 427.347656 204.75 C 430.28125 205.992188 432.953125 205.960938 435.363281 204.652344 C 436.257812 204.164062 437.042969 203.582031 437.71875 202.90625 C 438.664062 201.960938 439.398438 200.832031 439.917969 199.519531 C 440.304688 198.570312 440.503906 197.578125 440.515625 196.539062 C 440.554688 193.785156 439.605469 191.414062 437.671875 189.425781 C 435.941406 187.621094 433.78125 185.460938 431.191406 182.949219 C 429.949219 181.730469 428.570312 180.789062 427.058594 180.125 C 424.699219 179.074219 422.515625 179.375 420.503906 181.027344 C 420.226562 181.261719 419.964844 181.5 419.71875 181.746094 C 419.230469 182.238281 418.804688 182.746094 418.445312 183.277344 C 418.125 183.75 417.910156 184.042969 417.792969 184.160156 C 417.769531 184.1875 417.746094 184.210938 417.722656 184.234375 C 417.277344 184.679688 416.777344 184.730469 416.21875 184.390625 C 415.511719 183.96875 414.847656 183.3125 414.21875 182.429688 C 413.820312 181.851562 413.628906 181.378906 413.640625 181.007812 C 413.667969 180.648438 413.917969 180.21875 414.390625 179.71875 C 414.363281 179.746094 415.742188 178.34375 418.523438 175.507812 C 419.214844 174.816406 419.671875 174.351562 419.886719 174.105469 C 420.414062 173.476562 420.425781 172.890625 419.925781 172.335938 C 419.03125 171.363281 418.101562 170.433594 417.140625 169.550781 C 416.574219 169.039062 415.984375 169.011719 415.371094 169.472656 C 415.191406 169.628906 414.980469 169.824219 414.738281 170.070312 C 412.167969 172.625 410.109375 174.679688 408.5625 176.226562 Z M 426.980469 179.222656 C 427.535156 179.324219 428.070312 179.492188 428.578125 179.71875 C 430.128906 180.398438 431.539062 181.359375 432.808594 182.601562 C 435.382812 185.128906 437.546875 187.292969 439.304688 189.101562 C 441.277344 191.152344 442.25 193.597656 442.226562 196.445312 C 442.214844 197.507812 442.007812 198.546875 441.609375 199.558594 C 441.074219 200.890625 440.308594 202.050781 439.324219 203.039062 C 438.710938 203.652344 437.996094 204.1875 437.179688 204.648438 L 437.175781 204.648438 C 437.507812 204.523438 437.734375 204.421875 437.863281 204.34375 C 438.773438 203.847656 439.570312 203.253906 440.253906 202.570312 C 441.191406 201.632812 441.917969 200.519531 442.4375 199.230469 C 442.820312 198.257812 443.019531 197.265625 443.035156 196.25 C 443.058594 193.484375 442.117188 191.105469 440.207031 189.121094 C 438.453125 187.3125 436.285156 185.148438 433.710938 182.621094 C 432.480469 181.417969 431.097656 180.480469 429.558594 179.816406 C 428.691406 179.433594 427.832031 179.234375 426.980469 179.21875 Z M 445.695312 232.996094 C 445.964844 232.984375 446.246094 232.855469 446.542969 232.613281 C 446.746094 232.433594 447.015625 232.191406 447.347656 231.882812 L 447.328125 231.863281 C 447.277344 231.835938 447.1875 231.796875 447.0625 231.746094 C 446.894531 231.914062 446.742188 232.054688 446.597656 232.171875 C 446.265625 232.503906 445.96875 232.777344 445.699219 232.996094 Z M 461.382812 212.773438 C 460.90625 213.25 460.683594 213.832031 460.710938 214.523438 C 460.734375 215.136719 460.925781 215.691406 461.285156 216.175781 C 461.8125 216.90625 462.304688 217.503906 462.765625 217.964844 C 466.253906 221.476562 470.03125 225.257812 474.109375 229.304688 C 474.683594 229.882812 475.214844 230.335938 475.703125 230.671875 C 475.960938 230.851562 476.265625 231.003906 476.625 231.132812 C 476.792969 231.121094 476.953125 231.074219 477.105469 230.996094 C 476.890625 230.882812 476.742188 230.800781 476.664062 230.746094 C 476.140625 230.402344 475.582031 229.933594 474.992188 229.34375 C 470.917969 225.269531 467.136719 221.488281 463.652344 218.003906 C 463.1875 217.515625 462.683594 216.90625 462.132812 216.175781 C 461.746094 215.636719 461.535156 215.03125 461.496094 214.351562 C 461.472656 213.660156 461.671875 213.0625 462.09375 212.5625 C 462.003906 212.550781 461.871094 212.542969 461.691406 212.542969 C 461.523438 212.660156 461.421875 212.734375 461.382812 212.773438 Z M 459.8125 212.601562 C 460.253906 212.160156 460.800781 211.925781 461.460938 211.890625 C 462.472656 211.824219 463.34375 212.109375 464.074219 212.734375 C 464.472656 213.082031 464.996094 213.582031 465.648438 214.234375 L 477.144531 225.730469 C 477.902344 226.488281 478.441406 227.164062 478.761719 227.769531 C 479.3125 228.832031 479.261719 229.78125 478.605469 230.613281 C 478.5 230.746094 478.390625 230.867188 478.28125 230.980469 C 477.546875 231.714844 476.699219 231.96875 475.742188 231.746094 C 475.191406 231.605469 474.664062 231.375 474.164062 231.054688 C 473.652344 230.695312 473.101562 230.222656 472.511719 229.632812 C 468.4375 225.582031 464.65625 221.800781 461.171875 218.292969 C 460.695312 217.816406 460.191406 217.207031 459.652344 216.464844 C 459.253906 215.941406 459.042969 215.332031 459.019531 214.640625 C 458.980469 213.910156 459.195312 213.28125 459.671875 212.753906 C 459.71875 212.699219 459.765625 212.648438 459.8125 212.601562 Z M 442.289062 221.128906 C 441.566406 221.851562 441.324219 222.699219 441.5625 223.671875 C 441.933594 225.222656 441.671875 226.921875 440.773438 228.769531 C 440.75 228.84375 440.683594 228.972656 440.582031 229.152344 C 440.492188 229.320312 440.429688 229.445312 440.390625 229.535156 C 440.09375 230.164062 440.160156 230.714844 440.582031 231.191406 C 441.222656 231.90625 441.78125 232.476562 442.253906 232.902344 C 442.832031 233.402344 443.421875 233.414062 444.023438 232.9375 C 444.242188 232.746094 444.511719 232.503906 444.832031 232.207031 C 445.253906 231.8125 445.523438 231.554688 445.636719 231.441406 C 446.242188 230.914062 446.90625 230.863281 447.636719 231.285156 C 448.136719 231.582031 448.855469 232.195312 449.789062 233.132812 C 451.125 234.464844 453.707031 237.046875 457.539062 240.878906 C 460.765625 244.109375 463.347656 246.675781 465.285156 248.585938 C 465.875 249.175781 466.414062 249.675781 466.898438 250.085938 C 467.359375 250.472656 467.828125 250.476562 468.300781 250.105469 C 468.738281 249.746094 469.226562 249.3125 469.761719 248.796875 C 470.839844 247.722656 471.378906 246.992188 471.378906 246.605469 C 471.402344 246.222656 470.890625 245.503906 469.839844 244.453125 C 468.546875 243.160156 464.675781 239.289062 458.230469 232.84375 C 451.207031 225.820312 447.1875 221.800781 446.175781 220.789062 C 445.355469 219.996094 444.753906 219.597656 444.371094 219.597656 C 444.007812 219.597656 443.472656 219.953125 442.765625 220.664062 C 442.71875 220.710938 442.667969 220.757812 442.621094 220.808594 L 442.464844 220.964844 C 442.402344 221.019531 442.34375 221.074219 442.289062 221.128906 Z M 454.75 208.40625 C 452.628906 210.527344 452.007812 213.574219 452.886719 217.542969 C 453.101562 218.503906 453.859375 219.628906 455.152344 220.925781 C 463.304688 229.050781 468.300781 234.0625 470.148438 235.957031 C 472.441406 238.328125 475.285156 239.121094 478.683594 238.339844 C 480.605469 237.910156 482.15625 237.101562 483.339844 235.917969 C 484.4375 234.820312 485.21875 233.398438 485.679688 231.652344 C 486.617188 228.101562 485.839844 225.109375 483.355469 222.675781 C 482.957031 222.300781 480.445312 219.804688 475.820312 215.175781 C 471.332031 210.691406 468.777344 208.136719 468.148438 207.507812 C 467.25 206.585938 466.09375 205.898438 464.667969 205.449219 C 464.027344 205.246094 462.8125 205.128906 461.015625 205.105469 C 459.289062 205.066406 457.710938 205.671875 456.277344 206.921875 L 456.277344 206.925781 C 456.316406 206.890625 456.300781 206.914062 456.21875 206.996094 C 456.046875 207.164062 455.601562 207.59375 454.882812 208.277344 C 454.839844 208.320312 454.792969 208.363281 454.75 208.40625 Z M 446.464844 219.386719 C 446.824219 219.59375 447.261719 219.953125 447.773438 220.464844 C 449.605469 222.269531 452.519531 225.171875 456.519531 229.171875 L 462.726562 235.417969 C 466.367188 239.03125 469.269531 241.9375 471.4375 244.128906 C 472.511719 245.203125 473.0625 245.960938 473.089844 246.394531 C 473.128906 246.894531 472.652344 247.640625 471.667969 248.625 L 471.378906 248.914062 C 470.945312 249.347656 470.527344 249.726562 470.132812 250.046875 L 470.128906 250.046875 C 470.386719 250.046875 470.609375 249.964844 470.800781 249.796875 C 471.25 249.453125 471.742188 249.011719 472.28125 248.472656 C 473.359375 247.394531 473.902344 246.671875 473.914062 246.300781 C 473.914062 245.914062 473.390625 245.199219 472.339844 244.148438 L 460.746094 232.554688 C 453.777344 225.582031 449.753906 221.558594 448.675781 220.484375 C 447.730469 219.535156 446.992188 219.171875 446.46875 219.386719 Z M 465.289062 204.820312 C 465.597656 204.882812 465.878906 204.953125 466.128906 205.027344 C 467.605469 205.5 468.816406 206.210938 469.761719 207.160156 C 470.929688 208.351562 472.761719 210.199219 475.261719 212.695312 L 477.414062 214.851562 C 477.925781 215.363281 478.691406 216.125 479.703125 217.136719 C 481.984375 219.445312 483.734375 221.179688 484.949219 222.347656 C 487.527344 224.871094 488.328125 227.96875 487.351562 231.632812 C 486.890625 233.402344 486.078125 234.867188 484.910156 236.035156 C 484.414062 236.53125 483.800781 236.992188 483.078125 237.414062 L 483.074219 237.414062 C 484.148438 236.9375 485.066406 236.316406 485.832031 235.550781 C 486.9375 234.445312 487.71875 233.042969 488.179688 231.34375 C 489.113281 227.792969 488.332031 224.808594 485.835938 222.386719 C 485.476562 222.027344 482.96875 219.519531 478.316406 214.871094 C 473.808594 210.359375 471.25 207.800781 470.648438 207.199219 C 469.75 206.277344 468.585938 205.597656 467.148438 205.160156 C 466.617188 204.984375 465.996094 204.871094 465.289062 204.816406 Z M 465.289062 204.820312 " fill-opacity="1" fill-rule="nonzero"/></g></g></g><g clip-path="url(#c3780da79a)"><g clip-path="url(#d987792964)"><g clip-path="url(#ac9ba037d2)"><path fill="#6d5764" d="M 427.078125 219.890625 C 426.449219 220.566406 426.234375 221.105469 426.425781 221.511719 C 426.546875 221.289062 426.753906 221.015625 427.054688 220.691406 C 427.148438 220.601562 427.292969 220.457031 427.488281 220.265625 L 435.242188 212.574219 C 445.464844 202.4375 453.125 194.839844 458.230469 189.777344 C 459.210938 188.804688 459.925781 188.320312 460.367188 188.320312 C 460.824219 188.335938 461.550781 188.847656 462.550781 189.855469 L 462.746094 190.050781 C 463.171875 190.484375 463.523438 190.863281 463.796875 191.191406 C 463.796875 190.953125 463.699219 190.714844 463.503906 190.464844 C 463.21875 190.125 462.773438 189.648438 462.164062 189.03125 C 461.226562 188.089844 460.578125 187.617188 460.214844 187.617188 C 459.835938 187.601562 459.1875 188.050781 458.273438 188.957031 C 455.355469 191.851562 445.140625 201.980469 427.628906 219.34375 C 427.339844 219.632812 427.15625 219.8125 427.078125 219.890625 Z M 427.34375 222.121094 C 426.847656 222.664062 426.597656 223.082031 426.59375 223.367188 C 426.582031 223.667969 426.808594 224.078125 427.273438 224.601562 C 427.402344 224.734375 427.722656 225.054688 428.226562 225.566406 C 429.1875 226.535156 429.832031 227.023438 430.15625 227.039062 C 430.496094 227.039062 431.136719 226.574219 432.078125 225.640625 L 462.429688 195.542969 C 462.488281 195.484375 462.542969 195.429688 462.597656 195.375 C 463.128906 194.84375 463.523438 194.429688 463.785156 194.121094 C 464.152344 193.652344 464.140625 193.183594 463.75 192.714844 C 463.476562 192.359375 463.042969 191.882812 462.445312 191.28125 C 461.5 190.351562 460.835938 189.878906 460.457031 189.867188 C 460.082031 189.851562 459.433594 190.296875 458.515625 191.207031 C 455.113281 194.582031 444.90625 204.703125 427.894531 221.574219 C 427.605469 221.859375 427.421875 222.042969 427.34375 222.121094 Z M 427.34375 222.121094 " fill-opacity="1" fill-rule="nonzero"/></g></g></g></svg>