<svg xmlns="http://www.w3.org/2000/svg" xmlns:xlink="http://www.w3.org/1999/xlink" width="1000" zoomAndPan="magnify" viewBox="0 0 750 749.999995" height="1000" preserveAspectRatio="xMidYMid meet" version="1.0"><defs><clipPath id="a63458c99c"><path d="M 135 237.5 L 304 237.5 L 304 512.5 L 135 512.5 Z M 135 237.5 " clip-rule="nonzero"/></clipPath><clipPath id="fdd10c5e5d"><path d="M 450 237.5 L 611 237.5 L 611 512.5 L 450 512.5 Z M 450 237.5 " clip-rule="nonzero"/></clipPath></defs><rect x="-75" width="900" fill="#ffffff" y="-74.999999" height="899.999994" fill-opacity="1"/><rect x="-75" width="900" fill="#ffffff" y="-74.999999" height="899.999994" fill-opacity="1"/><g clip-path="url(#a63458c99c)"><path fill="#000000" d="M 157.976562 269.875 C 172.90625 248.292969 193.300781 237.5 219.160156 237.5 C 231.957031 237.5 244.753906 240.964844 257.554688 247.890625 C 270.351562 254.820312 280.746094 267.078125 288.746094 284.664062 C 298.609375 306.78125 303.542969 337.160156 303.542969 375.800781 C 303.542969 417.101562 297.808594 448.679688 286.347656 470.53125 C 281.015625 481.722656 273.683594 490.648438 264.351562 497.3125 C 255.019531 503.972656 246.886719 508.101562 239.957031 509.703125 C 233.023438 511.300781 226.226562 512.234375 219.5625 512.5 C 212.628906 512.5 205.699219 511.699219 198.765625 510.101562 C 191.835938 508.503906 183.703125 504.238281 174.371094 497.3125 C 165.042969 490.382812 157.710938 481.457031 152.378906 470.53125 C 140.914062 448.679688 135.183594 417.101562 135.183594 375.800781 C 135.183594 329.433594 142.78125 294.125 157.976562 269.875 Z M 247.953125 265.078125 C 239.957031 256.554688 230.492188 252.289062 219.5625 252.289062 C 208.363281 252.289062 198.765625 256.554688 190.769531 265.078125 C 184.101562 272.007812 179.703125 281.601562 177.570312 293.859375 C 175.4375 306.117188 174.371094 331.699219 174.371094 370.601562 C 174.371094 412.707031 175.4375 440.417969 177.570312 453.742188 C 179.703125 467.066406 184.503906 477.59375 191.96875 485.320312 C 199.433594 493.3125 208.632812 497.3125 219.5625 497.3125 C 230.226562 497.3125 239.289062 493.3125 246.753906 485.320312 C 254.488281 477.324219 259.285156 466.132812 261.152344 451.746094 C 263.019531 437.355469 264.085938 410.308594 264.351562 370.601562 C 264.351562 331.964844 263.285156 306.515625 261.152344 294.257812 C 259.019531 282 254.621094 272.273438 247.953125 265.078125 Z M 247.953125 265.078125 " fill-opacity="1" fill-rule="nonzero"/></g><path fill="#000000" d="M 350.730469 479.722656 C 350.730469 473.328125 352.996094 467.734375 357.527344 462.9375 C 362.0625 458.140625 367.792969 455.742188 374.726562 455.742188 C 381.125 455.742188 386.722656 457.875 391.519531 462.136719 C 396.320312 466.398438 398.851562 472.128906 399.121094 479.324219 C 399.121094 485.984375 396.851562 491.714844 392.320312 496.511719 C 387.789062 501.308594 382.058594 503.707031 375.125 503.707031 C 368.191406 503.707031 362.460938 501.441406 357.929688 496.910156 C 353.398438 492.382812 350.996094 486.652344 350.730469 479.722656 Z M 350.730469 479.722656 " fill-opacity="1" fill-rule="nonzero"/><g clip-path="url(#fdd10c5e5d)"><path fill="#000000" d="M 496.296875 440.953125 C 496.296875 447.347656 494.164062 452.675781 489.898438 456.941406 C 485.632812 461.203125 480.433594 463.335938 474.300781 463.335938 L 471.503906 463.335938 C 483.765625 484.386719 500.027344 494.914062 520.289062 494.914062 C 538.953125 494.914062 552.550781 486.917969 561.082031 470.929688 C 566.148438 462.136719 568.679688 445.082031 568.679688 419.765625 C 568.679688 392.320312 565.082031 373.800781 557.882812 364.207031 C 550.949219 355.414062 543.21875 351.015625 534.6875 351.015625 L 532.289062 351.015625 C 511.492188 351.015625 495.761719 360.078125 485.097656 378.199219 C 484.03125 380.0625 483.097656 381.128906 482.300781 381.394531 C 481.5 381.660156 479.5 381.929688 476.300781 382.195312 C 471.769531 382.195312 469.234375 381.394531 468.703125 379.796875 C 468.167969 378.730469 467.902344 355.414062 467.902344 309.847656 L 467.902344 258.285156 C 467.902344 244.960938 468.570312 238.300781 469.902344 238.300781 C 470.4375 237.765625 470.96875 237.5 471.503906 237.5 C 471.769531 237.5 474.566406 238.566406 479.898438 240.699219 C 485.230469 242.828125 492.5625 244.960938 501.894531 247.09375 C 511.226562 249.226562 521.222656 250.289062 531.886719 250.289062 C 550.816406 250.289062 568.945312 246.558594 586.273438 239.097656 C 588.40625 238.03125 590.140625 237.5 591.472656 237.5 C 593.605469 237.5 594.671875 239.898438 594.671875 244.695312 L 594.671875 249.890625 C 572.8125 275.738281 545.484375 288.664062 512.691406 288.664062 C 504.429688 288.664062 496.964844 287.863281 490.296875 286.265625 L 486.296875 285.464844 L 486.296875 354.214844 C 491.363281 350.484375 495.363281 347.554688 498.296875 345.421875 C 501.230469 343.289062 506.027344 341.15625 512.691406 339.027344 C 519.359375 336.894531 526.15625 335.828125 533.085938 335.828125 C 554.683594 335.828125 572.945312 344.488281 587.875 361.808594 C 602.804688 379.128906 610.269531 399.648438 610.269531 423.363281 C 610.269531 447.878906 601.738281 468.796875 584.675781 486.121094 C 567.613281 503.441406 546.816406 512.234375 522.289062 512.5 C 500.695312 512.5 483.367188 505.304688 470.300781 490.914062 C 457.238281 476.527344 450.707031 460.269531 450.707031 442.152344 C 450.707031 435.753906 452.171875 430.691406 455.105469 426.960938 C 458.039062 423.230469 461.105469 420.832031 464.304688 419.765625 C 467.503906 418.703125 470.570312 418.167969 473.5 418.167969 C 480.167969 418.167969 485.632812 420.433594 489.898438 424.964844 C 494.164062 429.492188 496.296875 434.824219 496.296875 440.953125 Z M 496.296875 440.953125 " fill-opacity="1" fill-rule="nonzero"/></g></svg>