<svg xmlns="http://www.w3.org/2000/svg" xmlns:xlink="http://www.w3.org/1999/xlink" width="1000" zoomAndPan="magnify" viewBox="0 0 750 749.999995" height="1000" preserveAspectRatio="xMidYMid meet" version="1.0"><rect x="-75" width="900" fill="#ffffff" y="-74.999999" height="899.999994" fill-opacity="1"/><rect x="-75" width="900" fill="#ffffff" y="-74.999999" height="899.999994" fill-opacity="1"/><path fill="#000000" d="M 367.503906 205.09375 L 365.171875 206 C 363.496094 206.605469 361.101562 207.210938 357.992188 207.816406 C 354.878906 208.417969 351.410156 208.84375 347.578125 209.085938 L 344.167969 209.085938 L 344.167969 200.742188 L 347.578125 200.742188 C 353.203125 200.5 358.410156 199.59375 363.195312 198.023438 C 367.984375 196.453125 371.335938 195 373.25 193.671875 C 375.164062 192.339844 376.839844 191.011719 378.277344 189.683594 C 378.515625 189.320312 379.234375 189.136719 380.429688 189.136719 C 381.507812 189.136719 382.523438 189.5 383.484375 190.226562 L 383.484375 244.441406 L 383.664062 298.84375 C 384.5 299.6875 385.21875 300.230469 385.816406 300.472656 C 386.414062 300.714844 387.851562 300.957031 390.125 301.199219 C 392.398438 301.441406 396.109375 301.5625 401.253906 301.5625 L 405.921875 301.5625 L 405.921875 309.902344 L 403.949219 309.902344 C 401.433594 309.539062 391.921875 309.359375 375.40625 309.359375 C 359.128906 309.359375 349.734375 309.539062 347.21875 309.902344 L 345.066406 309.902344 L 345.066406 301.5625 L 349.734375 301.5625 C 352.367188 301.5625 354.640625 301.5625 356.554688 301.5625 C 358.46875 301.5625 359.964844 301.5 361.042969 301.378906 C 362.121094 301.257812 363.078125 301.078125 363.914062 300.835938 C 364.753906 300.59375 365.230469 300.472656 365.351562 300.472656 C 365.472656 300.472656 365.828125 300.171875 366.429688 299.566406 C 367.027344 298.960938 367.386719 298.722656 367.503906 298.84375 Z M 367.503906 205.09375 " fill-opacity="1" fill-rule="nonzero"/><path fill="#000000" d="M 358.707031 528.40625 C 358.707031 531.304688 357.75 533.722656 355.835938 535.65625 C 353.921875 537.589844 351.585938 538.558594 348.835938 538.558594 L 347.578125 538.558594 C 353.082031 548.109375 360.382812 552.882812 369.480469 552.882812 C 377.859375 552.882812 383.960938 549.257812 387.792969 542.003906 C 390.066406 538.015625 391.203125 530.277344 391.203125 518.792969 C 391.203125 506.34375 389.585938 497.941406 386.355469 493.589844 C 383.242188 489.601562 379.773438 487.605469 375.941406 487.605469 L 374.867188 487.605469 C 365.53125 487.605469 358.46875 491.714844 353.683594 499.9375 C 353.203125 500.78125 352.785156 501.265625 352.425781 501.386719 C 352.066406 501.507812 351.167969 501.628906 349.734375 501.75 C 347.699219 501.75 346.5625 501.386719 346.320312 500.660156 C 346.082031 500.175781 345.960938 489.601562 345.960938 468.929688 L 345.960938 445.535156 C 345.960938 439.492188 346.261719 436.46875 346.859375 436.46875 C 347.101562 436.230469 347.339844 436.109375 347.578125 436.109375 C 347.699219 436.109375 348.953125 436.589844 351.347656 437.558594 C 353.742188 438.527344 357.035156 439.492188 361.222656 440.460938 C 365.410156 441.425781 369.898438 441.910156 374.6875 441.910156 C 383.183594 441.910156 391.320312 440.21875 399.101562 436.832031 C 400.058594 436.351562 400.835938 436.109375 401.433594 436.109375 C 402.390625 436.109375 402.871094 437.195312 402.871094 439.371094 L 402.871094 441.730469 C 393.058594 453.453125 380.789062 459.316406 366.070312 459.316406 C 362.359375 459.316406 359.007812 458.957031 356.015625 458.230469 L 354.222656 457.867188 L 354.222656 489.054688 C 356.496094 487.363281 358.289062 486.035156 359.605469 485.066406 C 360.921875 484.097656 363.078125 483.132812 366.070312 482.164062 C 369.0625 481.199219 372.113281 480.714844 375.226562 480.714844 C 384.917969 480.714844 393.117188 484.644531 399.820312 492.5 C 406.519531 500.359375 409.871094 509.667969 409.871094 520.425781 C 409.871094 531.546875 406.042969 541.035156 398.382812 548.894531 C 390.722656 556.753906 381.386719 560.742188 370.378906 560.863281 C 360.683594 560.863281 352.90625 557.597656 347.039062 551.070312 C 341.175781 544.542969 338.242188 537.167969 338.242188 528.949219 C 338.242188 526.046875 338.902344 523.75 340.21875 522.058594 C 341.535156 520.367188 342.910156 519.277344 344.347656 518.792969 C 345.785156 518.308594 347.160156 518.070312 348.476562 518.070312 C 351.46875 518.070312 353.921875 519.097656 355.835938 521.152344 C 357.75 523.207031 358.707031 525.625 358.707031 528.40625 Z M 358.707031 528.40625 " fill-opacity="1" fill-rule="nonzero"/><path fill="#000000" d="M 311.316406 392.589844 L 436.980469 392.589844 L 436.980469 381.710938 L 311.316406 381.710938 Z M 311.316406 392.589844 " fill-opacity="1" fill-rule="nonzero"/></svg>