<svg xmlns="http://www.w3.org/2000/svg" xmlns:xlink="http://www.w3.org/1999/xlink" width="1000" zoomAndPan="magnify" viewBox="0 0 750 749.999995" height="1000" preserveAspectRatio="xMidYMid meet" version="1.0"><defs><clipPath id="b6703b9606"><path d="M 158 201.75 L 227 201.75 L 227 315 L 158 315 Z M 158 201.75 " clip-rule="nonzero"/></clipPath><clipPath id="de3c644e27"><path d="M 158 431 L 227 431 L 227 548.25 L 158 548.25 Z M 158 431 " clip-rule="nonzero"/></clipPath><clipPath id="bd98c85fb4"><path d="M 530 201.75 L 590 201.75 L 590 315 L 530 315 Z M 530 201.75 " clip-rule="nonzero"/></clipPath></defs><rect x="-75" width="900" fill="#ffffff" y="-74.999999" height="899.999994" fill-opacity="1"/><rect x="-75" width="900" fill="#ffffff" y="-74.999999" height="899.999994" fill-opacity="1"/><g clip-path="url(#b6703b9606)"><path fill="#000000" d="M 168.578125 241.808594 C 165.523438 241.808594 163.09375 240.792969 161.285156 238.765625 C 159.476562 236.738281 158.570312 234.257812 158.570312 231.328125 C 158.570312 223.328125 161.566406 216.398438 167.558594 210.539062 C 173.550781 204.679688 181.011719 201.75 189.945312 201.75 C 200.230469 201.75 208.824219 204.90625 215.71875 211.214844 C 222.617188 217.527344 226.121094 225.695312 226.234375 235.722656 C 226.234375 240.570312 225.105469 245.1875 222.84375 249.582031 C 220.582031 253.980469 217.867188 257.808594 214.703125 261.078125 C 211.539062 264.34375 207.015625 268.515625 201.136719 273.585938 C 197.066406 277.078125 191.414062 282.261719 184.179688 289.136719 L 174.171875 298.601562 L 187.0625 298.769531 C 204.8125 298.769531 214.25 298.488281 215.382812 297.925781 C 216.171875 297.699219 217.53125 292.683594 219.453125 282.882812 L 219.453125 282.375 L 226.234375 282.375 L 226.234375 282.882812 C 226.121094 283.21875 225.386719 288.347656 224.03125 298.261719 C 222.671875 308.179688 221.824219 313.363281 221.484375 313.8125 L 221.484375 314.320312 L 158.570312 314.320312 L 158.570312 309.082031 C 158.570312 308.292969 158.910156 307.445312 159.589844 306.546875 C 160.265625 305.644531 161.964844 303.671875 164.675781 300.628906 C 167.953125 297.023438 170.78125 293.867188 173.15625 291.164062 C 174.171875 290.035156 176.09375 287.953125 178.921875 284.910156 C 181.746094 281.867188 183.667969 279.78125 184.6875 278.65625 C 185.703125 277.527344 187.34375 275.671875 189.605469 273.078125 C 191.867188 270.488281 193.449219 268.570312 194.351562 267.332031 C 195.257812 266.09375 196.558594 264.402344 198.253906 262.261719 C 199.949219 260.121094 201.136719 258.316406 201.816406 256.851562 C 202.492188 255.386719 203.339844 253.753906 204.359375 251.949219 C 205.375 250.148438 206.109375 248.34375 206.5625 246.542969 C 207.015625 244.738281 207.410156 243.046875 207.75 241.472656 C 208.089844 239.894531 208.257812 238.035156 208.257812 235.894531 C 208.257812 228.792969 206.335938 222.652344 202.492188 217.46875 C 198.648438 212.285156 193.167969 209.695312 186.042969 209.695312 C 182.3125 209.695312 179.035156 210.652344 176.207031 212.566406 C 173.382812 214.484375 171.402344 216.34375 170.273438 218.144531 C 169.140625 219.949219 168.578125 221.019531 168.578125 221.355469 C 168.578125 221.46875 168.859375 221.527344 169.425781 221.527344 C 171.460938 221.527344 173.550781 222.316406 175.699219 223.890625 C 177.847656 225.46875 178.921875 228.0625 178.921875 231.667969 C 178.921875 234.484375 178.015625 236.851562 176.207031 238.765625 C 174.398438 240.683594 171.855469 241.695312 168.578125 241.808594 Z M 168.578125 241.808594 " fill-opacity="1" fill-rule="nonzero"/></g><g clip-path="url(#de3c644e27)"><path fill="#000000" d="M 177.902344 517.996094 C 177.902344 520.699219 177 522.953125 175.191406 524.753906 C 173.382812 526.558594 171.175781 527.460938 168.578125 527.460938 L 167.390625 527.460938 C 172.589844 536.363281 179.488281 540.8125 188.078125 540.8125 C 195.992188 540.8125 201.757812 537.433594 205.375 530.671875 C 207.523438 526.953125 208.597656 519.742188 208.597656 509.035156 C 208.597656 497.429688 207.070312 489.597656 204.019531 485.542969 C 201.078125 481.824219 197.800781 479.964844 194.183594 479.964844 L 193.167969 479.964844 C 184.347656 479.964844 177.675781 483.796875 173.15625 491.457031 C 172.703125 492.246094 172.308594 492.699219 171.96875 492.808594 C 171.628906 492.921875 170.78125 493.035156 169.425781 493.148438 C 167.503906 493.148438 166.429688 492.808594 166.203125 492.132812 C 165.976562 491.683594 165.863281 481.824219 165.863281 462.554688 L 165.863281 440.75 C 165.863281 435.117188 166.144531 432.300781 166.710938 432.300781 C 166.9375 432.074219 167.164062 431.960938 167.390625 431.960938 C 167.503906 431.960938 168.691406 432.410156 170.949219 433.3125 C 173.210938 434.214844 176.320312 435.117188 180.277344 436.019531 C 184.234375 436.917969 188.472656 437.371094 192.996094 437.371094 C 201.023438 437.371094 208.710938 435.792969 216.058594 432.636719 C 216.964844 432.1875 217.699219 431.960938 218.265625 431.960938 C 219.167969 431.960938 219.621094 432.976562 219.621094 435.003906 L 219.621094 437.199219 C 210.351562 448.132812 198.761719 453.597656 184.855469 453.597656 C 181.351562 453.597656 178.1875 453.257812 175.359375 452.582031 L 173.664062 452.246094 L 173.664062 481.316406 C 175.8125 479.738281 177.507812 478.5 178.75 477.597656 C 179.996094 476.695312 182.03125 475.792969 184.855469 474.894531 C 187.683594 473.992188 190.566406 473.542969 193.503906 473.542969 C 202.664062 473.542969 210.40625 477.203125 216.738281 484.527344 C 223.070312 491.851562 226.234375 500.527344 226.234375 510.558594 C 226.234375 520.925781 222.617188 529.769531 215.382812 537.09375 C 208.144531 544.417969 199.328125 548.136719 188.925781 548.25 C 179.769531 548.25 172.421875 545.207031 166.878906 539.121094 C 161.339844 533.039062 158.570312 526.164062 158.570312 518.5 C 158.570312 515.796875 159.191406 513.65625 160.4375 512.078125 C 161.679688 510.5 162.980469 509.488281 164.335938 509.035156 C 165.695312 508.585938 166.992188 508.359375 168.238281 508.359375 C 171.0625 508.359375 173.382812 509.316406 175.191406 511.234375 C 177 513.148438 177.902344 515.402344 177.902344 517.996094 Z M 177.902344 517.996094 " fill-opacity="1" fill-rule="nonzero"/></g><path fill="#000000" d="M 133.132812 391.394531 L 251.839844 391.394531 L 251.839844 381.253906 L 133.132812 381.253906 Z M 133.132812 391.394531 " fill-opacity="1" fill-rule="nonzero"/><path fill="#000000" d="M 416.710938 423.679688 C 416.710938 425.933594 415.523438 427.058594 413.148438 427.058594 C 412.582031 427.058594 411.339844 426.15625 409.417969 424.355469 C 407.496094 422.550781 402.183594 417.3125 393.476562 408.636719 L 375.839844 391.058594 L 358.035156 408.804688 C 346.050781 420.523438 339.886719 426.496094 339.550781 426.722656 C 339.097656 426.945312 338.703125 427.058594 338.363281 427.058594 C 337.457031 427.058594 336.667969 426.722656 335.988281 426.046875 C 335.308594 425.371094 334.914062 424.582031 334.800781 423.679688 C 334.800781 422.890625 335.59375 421.652344 337.175781 419.960938 C 338.757812 418.269531 344.070312 412.917969 353.117188 403.902344 L 370.753906 386.324219 L 353.117188 368.746094 C 343.957031 359.617188 338.644531 354.265625 337.175781 352.6875 C 335.707031 351.109375 334.914062 349.871094 334.800781 348.96875 C 334.800781 347.957031 335.140625 347.167969 335.820312 346.605469 C 336.496094 346.039062 337.34375 345.757812 338.363281 345.757812 C 338.925781 345.757812 339.324219 345.816406 339.550781 345.929688 C 339.886719 346.152344 346.050781 352.125 358.035156 363.84375 L 375.839844 381.59375 L 393.476562 364.011719 C 402.183594 355.335938 407.496094 350.097656 409.417969 348.292969 C 411.339844 346.492188 412.582031 345.589844 413.148438 345.589844 C 415.523438 345.589844 416.710938 346.714844 416.710938 348.96875 C 416.710938 349.757812 416.144531 350.773438 415.011719 352.011719 C 413.882812 353.253906 408.34375 358.773438 398.394531 368.578125 L 380.757812 386.324219 L 398.394531 404.070312 C 407.890625 413.539062 413.316406 419.003906 414.675781 420.46875 C 416.03125 421.933594 416.710938 423.003906 416.710938 423.679688 Z M 416.710938 423.679688 " fill-opacity="1" fill-rule="nonzero"/><g clip-path="url(#bd98c85fb4)"><path fill="#000000" d="M 552.917969 216.625 L 550.714844 217.46875 C 549.128906 218.03125 546.871094 218.597656 543.929688 219.160156 C 540.992188 219.722656 537.710938 220.117188 534.09375 220.34375 L 530.871094 220.34375 L 530.871094 212.566406 L 534.09375 212.566406 C 539.40625 212.34375 544.324219 211.496094 548.847656 210.03125 C 553.371094 208.566406 556.535156 207.214844 558.34375 205.976562 C 560.152344 204.734375 561.734375 203.496094 563.09375 202.257812 C 563.320312 201.917969 563.996094 201.75 565.128906 201.75 C 566.144531 201.75 567.105469 202.089844 568.011719 202.765625 L 568.011719 253.300781 L 568.179688 304.011719 C 568.972656 304.796875 569.648438 305.304688 570.214844 305.53125 C 570.78125 305.757812 572.136719 305.980469 574.285156 306.207031 C 576.433594 306.433594 579.9375 306.546875 584.800781 306.546875 L 589.207031 306.546875 L 589.207031 314.320312 L 587.34375 314.320312 C 584.96875 313.980469 575.980469 313.8125 560.378906 313.8125 C 545.003906 313.8125 536.128906 313.980469 533.753906 314.320312 L 531.71875 314.320312 L 531.71875 306.546875 L 536.128906 306.546875 C 538.617188 306.546875 540.765625 306.546875 542.574219 306.546875 C 544.382812 306.546875 545.796875 306.488281 546.8125 306.375 C 547.832031 306.261719 548.734375 306.09375 549.527344 305.867188 C 550.316406 305.644531 550.769531 305.53125 550.882812 305.53125 C 550.996094 305.53125 551.335938 305.25 551.898438 304.6875 C 552.464844 304.121094 552.804688 303.898438 552.917969 304.011719 Z M 552.917969 216.625 " fill-opacity="1" fill-rule="nonzero"/></g><path fill="#000000" d="M 535.28125 472.019531 C 532.230469 472.019531 529.796875 471.003906 527.988281 468.976562 C 526.179688 466.949219 525.277344 464.46875 525.277344 461.539062 C 525.277344 453.539062 528.273438 446.609375 534.265625 440.75 C 540.253906 434.890625 547.71875 431.960938 556.648438 431.960938 C 566.9375 431.960938 575.527344 435.117188 582.425781 441.425781 C 589.320312 447.738281 592.824219 455.90625 592.9375 465.933594 C 592.9375 470.78125 591.808594 475.402344 589.546875 479.796875 C 587.285156 484.191406 584.574219 488.019531 581.40625 491.289062 C 578.242188 494.554688 573.71875 498.726562 567.839844 503.796875 C 563.769531 507.289062 558.117188 512.472656 550.882812 519.347656 L 540.878906 528.8125 L 553.765625 528.980469 C 571.515625 528.980469 580.957031 528.699219 582.085938 528.136719 C 582.878906 527.910156 584.234375 522.894531 586.15625 513.09375 L 586.15625 512.585938 L 592.9375 512.585938 L 592.9375 513.09375 C 592.824219 513.429688 592.089844 518.558594 590.734375 528.472656 C 589.378906 538.390625 588.53125 543.574219 588.191406 544.023438 L 588.191406 544.53125 L 525.277344 544.53125 L 525.277344 539.292969 C 525.277344 538.503906 525.613281 537.65625 526.292969 536.757812 C 526.972656 535.855469 528.667969 533.882812 531.378906 530.839844 C 534.660156 527.234375 537.484375 524.078125 539.859375 521.375 C 540.878906 520.25 542.800781 518.164062 545.625 515.121094 C 548.453125 512.078125 550.375 509.996094 551.390625 508.867188 C 552.410156 507.742188 554.046875 505.882812 556.308594 503.289062 C 558.570312 500.699219 560.152344 498.78125 561.058594 497.542969 C 561.960938 496.304688 563.261719 494.613281 564.957031 492.472656 C 566.652344 490.332031 567.839844 488.527344 568.519531 487.0625 C 569.199219 485.597656 570.046875 483.964844 571.0625 482.160156 C 572.082031 480.359375 572.816406 478.554688 573.269531 476.753906 C 573.71875 474.949219 574.117188 473.257812 574.453125 471.683594 C 574.792969 470.105469 574.964844 468.246094 574.964844 466.105469 C 574.964844 459.003906 573.042969 452.863281 569.199219 447.679688 C 565.355469 442.496094 559.871094 439.90625 552.75 439.90625 C 549.015625 439.90625 545.738281 440.863281 542.914062 442.777344 C 540.085938 444.695312 538.109375 446.554688 536.976562 448.355469 C 535.847656 450.160156 535.28125 451.230469 535.28125 451.566406 C 535.28125 451.679688 535.5625 451.738281 536.128906 451.738281 C 538.164062 451.738281 540.253906 452.527344 542.402344 454.101562 C 544.550781 455.679688 545.625 458.273438 545.625 461.878906 C 545.625 464.695312 544.722656 467.0625 542.914062 468.976562 C 541.101562 470.894531 538.558594 471.90625 535.28125 472.019531 Z M 535.28125 472.019531 " fill-opacity="1" fill-rule="nonzero"/><path fill="#000000" d="M 499.839844 391.394531 L 618.546875 391.394531 L 618.546875 381.253906 L 499.839844 381.253906 Z M 499.839844 391.394531 " fill-opacity="1" fill-rule="nonzero"/></svg>