<svg xmlns="http://www.w3.org/2000/svg" xmlns:xlink="http://www.w3.org/1999/xlink" width="1000" zoomAndPan="magnify" viewBox="0 0 750 749.999995" height="1000" preserveAspectRatio="xMidYMid meet" version="1.0"><defs><clipPath id="d15bdd1312"><path d="M 156 201.75 L 231 201.75 L 231 316 L 156 316 Z M 156 201.75 " clip-rule="nonzero"/></clipPath><clipPath id="ae4d45b5d5"><path d="M 159 432 L 228 432 L 228 548.25 L 159 548.25 Z M 159 432 " clip-rule="nonzero"/></clipPath><clipPath id="24b657e14d"><path d="M 523 432 L 594 432 L 594 548.25 L 523 548.25 Z M 523 432 " clip-rule="nonzero"/></clipPath></defs><rect x="-75" width="900" fill="#ffffff" y="-74.999999" height="899.999994" fill-opacity="1"/><rect x="-75" width="900" fill="#ffffff" y="-74.999999" height="899.999994" fill-opacity="1"/><g clip-path="url(#d15bdd1312)"><path fill="#000000" d="M 229.226562 315.570312 C 227.203125 315.234375 219.949219 315.0625 207.464844 315.0625 C 194.421875 315.0625 186.886719 315.234375 184.863281 315.570312 L 183.34375 315.570312 L 183.34375 307.835938 L 188.574219 307.835938 C 190.824219 307.835938 192.339844 307.835938 193.128906 307.835938 C 193.917969 307.835938 194.871094 307.722656 195.996094 307.5 C 197.121094 307.273438 197.90625 306.996094 198.359375 306.660156 C 198.808594 306.320312 199.203125 305.875 199.539062 305.3125 C 199.652344 305.089844 199.707031 302.0625 199.707031 296.234375 L 199.707031 287.828125 L 156.019531 287.828125 L 156.019531 280.09375 L 181.488281 241.257812 C 198.695312 215.253906 207.410156 202.199219 207.636719 202.085938 C 207.859375 201.863281 209.039062 201.75 211.175781 201.75 L 214.214844 201.75 L 215.226562 202.757812 L 215.226562 280.09375 L 230.742188 280.09375 L 230.742188 287.828125 L 215.226562 287.828125 L 215.226562 296.402344 C 215.226562 301 215.226562 303.6875 215.226562 304.472656 C 215.226562 305.257812 215.5625 305.929688 216.238281 306.488281 C 217.136719 307.273438 220.34375 307.722656 225.851562 307.835938 L 230.742188 307.835938 L 230.742188 315.570312 Z M 200.71875 280.09375 L 200.71875 223.941406 L 163.777344 279.925781 L 182.164062 280.09375 Z M 200.71875 280.09375 " fill-opacity="1" fill-rule="nonzero"/></g><g clip-path="url(#ae4d45b5d5)"><path fill="#000000" d="M 178.960938 518.15625 C 178.960938 520.847656 178.058594 523.085938 176.261719 524.882812 C 174.460938 526.675781 172.269531 527.570312 169.683594 527.570312 L 168.503906 527.570312 C 173.675781 536.425781 180.535156 540.851562 189.082031 540.851562 C 196.953125 540.851562 202.6875 537.488281 206.285156 530.765625 C 208.421875 527.066406 209.492188 519.894531 209.492188 509.246094 C 209.492188 497.703125 207.972656 489.910156 204.9375 485.875 C 202.011719 482.179688 198.75 480.328125 195.152344 480.328125 L 194.140625 480.328125 C 185.371094 480.328125 178.734375 484.140625 174.238281 491.761719 C 173.789062 492.546875 173.394531 492.992188 173.054688 493.105469 C 172.71875 493.21875 171.875 493.332031 170.527344 493.441406 C 168.613281 493.441406 167.546875 493.105469 167.320312 492.433594 C 167.097656 491.984375 166.984375 482.179688 166.984375 463.011719 L 166.984375 441.324219 C 166.984375 435.71875 167.265625 432.917969 167.828125 432.917969 C 168.050781 432.695312 168.277344 432.582031 168.503906 432.582031 C 168.613281 432.582031 169.796875 433.03125 172.042969 433.925781 C 174.292969 434.824219 177.386719 435.71875 181.320312 436.617188 C 185.257812 437.511719 189.472656 437.960938 193.972656 437.960938 C 201.957031 437.960938 209.601562 436.394531 216.914062 433.253906 C 217.8125 432.804688 218.542969 432.582031 219.105469 432.582031 C 220.003906 432.582031 220.453125 433.589844 220.453125 435.609375 L 220.453125 437.792969 C 211.234375 448.664062 199.707031 454.101562 185.875 454.101562 C 182.390625 454.101562 179.242188 453.765625 176.429688 453.09375 L 174.742188 452.757812 L 174.742188 481.671875 C 176.878906 480.105469 178.566406 478.871094 179.804688 477.976562 C 181.039062 477.078125 183.066406 476.179688 185.875 475.285156 C 188.6875 474.386719 191.554688 473.941406 194.476562 473.941406 C 203.585938 473.941406 211.289062 477.582031 217.585938 484.867188 C 223.882812 492.152344 227.03125 500.785156 227.03125 510.757812 C 227.03125 521.070312 223.433594 529.867188 216.238281 537.152344 C 209.039062 544.4375 200.269531 548.136719 189.925781 548.25 C 180.816406 548.25 173.507812 545.222656 167.996094 539.171875 C 162.484375 533.117188 159.730469 526.28125 159.730469 518.660156 C 159.730469 515.96875 160.347656 513.839844 161.585938 512.273438 C 162.824219 510.703125 164.117188 509.695312 165.464844 509.246094 C 166.816406 508.796875 168.109375 508.574219 169.34375 508.574219 C 172.15625 508.574219 174.460938 509.527344 176.261719 511.429688 C 178.058594 513.335938 178.960938 515.578125 178.960938 518.15625 Z M 178.960938 518.15625 " fill-opacity="1" fill-rule="nonzero"/></g><path fill="#000000" d="M 134.429688 392.234375 L 252.503906 392.234375 L 252.503906 382.144531 L 134.429688 382.144531 Z M 134.429688 392.234375 " fill-opacity="1" fill-rule="nonzero"/><path fill="#000000" d="M 416.492188 424.34375 C 416.492188 426.585938 415.308594 427.707031 412.949219 427.707031 C 412.386719 427.707031 411.148438 426.808594 409.238281 425.015625 C 407.328125 423.222656 402.042969 418.011719 393.382812 409.382812 L 375.839844 391.894531 L 358.128906 409.550781 C 346.210938 421.207031 340.082031 427.144531 339.742188 427.371094 C 339.292969 427.59375 338.898438 427.707031 338.5625 427.707031 C 337.664062 427.707031 336.875 427.371094 336.199219 426.699219 C 335.527344 426.023438 335.132812 425.242188 335.019531 424.34375 C 335.019531 423.558594 335.808594 422.328125 337.382812 420.644531 C 338.957031 418.964844 344.242188 413.640625 353.238281 404.671875 L 370.78125 387.1875 L 353.238281 369.703125 C 344.128906 360.625 338.84375 355.300781 337.382812 353.734375 C 335.917969 352.164062 335.132812 350.929688 335.019531 350.035156 C 335.019531 349.023438 335.359375 348.242188 336.03125 347.679688 C 336.707031 347.121094 337.550781 346.839844 338.5625 346.839844 C 339.125 346.839844 339.519531 346.894531 339.742188 347.007812 C 340.082031 347.230469 346.210938 353.171875 358.128906 364.828125 L 375.839844 382.480469 L 393.382812 364.996094 C 402.042969 356.367188 407.328125 351.15625 409.238281 349.363281 C 411.148438 347.566406 412.386719 346.671875 412.949219 346.671875 C 415.308594 346.671875 416.492188 347.792969 416.492188 350.035156 C 416.492188 350.820312 415.929688 351.828125 414.804688 353.058594 C 413.679688 354.292969 408.167969 359.785156 398.273438 369.535156 L 380.730469 387.1875 L 398.273438 404.839844 C 407.71875 414.257812 413.117188 419.691406 414.46875 421.148438 C 415.816406 422.605469 416.492188 423.671875 416.492188 424.34375 Z M 416.492188 424.34375 " fill-opacity="1" fill-rule="nonzero"/><path fill="#000000" d="M 534.429688 243.445312 C 531.394531 243.445312 528.976562 242.4375 527.175781 240.417969 C 525.378906 238.402344 524.476562 235.933594 524.476562 233.019531 C 524.476562 225.0625 527.457031 218.171875 533.417969 212.339844 C 539.378906 206.511719 546.800781 203.597656 555.683594 203.597656 C 565.917969 203.597656 574.464844 206.738281 581.324219 213.015625 C 588.183594 219.289062 591.667969 227.417969 591.78125 237.390625 C 591.78125 242.210938 590.65625 246.808594 588.40625 251.179688 C 586.15625 255.550781 583.460938 259.359375 580.308594 262.609375 C 577.160156 265.859375 572.664062 270.007812 566.816406 275.050781 C 562.769531 278.527344 557.144531 283.679688 549.949219 290.519531 L 539.996094 299.933594 L 552.816406 300.101562 C 570.472656 300.101562 579.859375 299.820312 580.984375 299.261719 C 581.773438 299.035156 583.121094 294.050781 585.035156 284.296875 L 585.035156 283.792969 L 591.78125 283.792969 L 591.78125 284.296875 C 591.667969 284.632812 590.9375 289.734375 589.585938 299.597656 C 588.238281 309.460938 587.394531 314.617188 587.058594 315.0625 L 587.058594 315.570312 L 524.476562 315.570312 L 524.476562 310.355469 C 524.476562 309.574219 524.816406 308.730469 525.492188 307.835938 C 526.164062 306.9375 527.851562 304.976562 530.550781 301.949219 C 533.8125 298.363281 536.621094 295.226562 538.984375 292.535156 C 539.996094 291.414062 541.910156 289.339844 544.71875 286.316406 C 547.53125 283.289062 549.441406 281.214844 550.453125 280.09375 C 551.464844 278.972656 553.097656 277.125 555.347656 274.546875 C 557.59375 271.96875 559.167969 270.0625 560.070312 268.832031 C 560.96875 267.597656 562.261719 265.917969 563.949219 263.789062 C 565.636719 261.65625 566.816406 259.863281 567.492188 258.40625 C 568.164062 256.949219 569.007812 255.324219 570.019531 253.53125 C 571.03125 251.738281 571.765625 249.945312 572.214844 248.152344 C 572.664062 246.359375 573.058594 244.675781 573.394531 243.109375 C 573.730469 241.539062 573.902344 239.691406 573.902344 237.558594 C 573.902344 230.5 571.988281 224.390625 568.164062 219.234375 C 564.34375 214.078125 558.886719 211.5 551.804688 211.5 C 548.09375 211.5 544.832031 212.453125 542.019531 214.359375 C 539.210938 216.265625 537.242188 218.113281 536.117188 219.90625 C 534.992188 221.699219 534.429688 222.765625 534.429688 223.101562 C 534.429688 223.214844 534.710938 223.269531 535.273438 223.269531 C 537.296875 223.269531 539.378906 224.054688 541.515625 225.625 C 543.652344 227.191406 544.71875 229.769531 544.71875 233.355469 C 544.71875 236.160156 543.820312 238.511719 542.019531 240.417969 C 540.222656 242.324219 537.691406 243.332031 534.429688 243.445312 Z M 534.429688 243.445312 " fill-opacity="1" fill-rule="nonzero"/><g clip-path="url(#24b657e14d)"><path fill="#000000" d="M 527.851562 474.445312 C 527.851562 474.445312 527.851562 470.128906 527.851562 461.5 C 527.851562 452.867188 530.886719 445.917969 536.960938 440.652344 C 543.03125 435.382812 550.003906 432.695312 557.875 432.582031 C 565.859375 432.582031 572.945312 434.9375 579.128906 439.644531 C 585.316406 444.351562 588.40625 450.457031 588.40625 457.96875 C 588.40625 461.332031 587.789062 464.46875 586.550781 467.382812 C 585.316406 470.296875 583.851562 472.652344 582.164062 474.445312 C 580.480469 476.238281 578.734375 477.808594 576.9375 479.152344 C 575.136719 480.496094 573.675781 481.503906 572.550781 482.179688 C 571.425781 482.851562 570.808594 483.296875 570.695312 483.523438 L 573.058594 485.035156 C 574.632812 486.15625 576.207031 487.277344 577.78125 488.398438 C 579.355469 489.519531 580.253906 490.136719 580.480469 490.246094 C 588.914062 496.859375 593.128906 505.210938 593.128906 515.296875 C 593.128906 524.152344 589.867188 531.828125 583.347656 538.332031 C 576.824219 544.832031 568.390625 548.136719 558.046875 548.25 C 547.925781 548.25 539.601562 545.390625 533.082031 539.675781 C 526.558594 533.960938 523.296875 526.898438 523.296875 518.492188 C 523.296875 506.386719 530.550781 496.300781 545.058594 488.230469 L 542.019531 486.042969 C 539.660156 484.585938 538.140625 483.46875 537.464844 482.683594 C 531.058594 477.191406 527.851562 470.128906 527.851562 461.5 Z M 564.285156 479.65625 L 565.296875 478.984375 C 565.972656 478.535156 566.480469 478.199219 566.816406 477.976562 C 567.152344 477.75 567.714844 477.359375 568.503906 476.796875 C 569.289062 476.238281 569.964844 475.675781 570.527344 475.117188 C 571.089844 474.554688 571.707031 473.882812 572.382812 473.097656 C 573.058594 472.316406 573.675781 471.585938 574.238281 470.914062 C 574.800781 470.242188 575.363281 469.34375 575.925781 468.222656 C 576.488281 467.101562 576.992188 466.148438 577.441406 465.367188 C 577.894531 464.582031 578.171875 463.460938 578.285156 462.003906 C 578.398438 460.546875 578.511719 459.3125 578.625 458.304688 C 578.625 453.484375 576.992188 449.394531 573.730469 446.03125 C 570.472656 442.667969 566.703125 440.539062 562.429688 439.644531 C 561.644531 439.53125 559.789062 439.476562 556.863281 439.476562 C 552.253906 439.476562 547.925781 440.933594 543.875 443.847656 C 539.828125 446.761719 537.746094 450.402344 537.636719 454.773438 C 537.636719 457.351562 538.367188 459.707031 539.828125 461.835938 C 541.289062 463.964844 542.75 465.589844 544.214844 466.710938 C 545.675781 467.832031 548.488281 469.625 552.648438 472.089844 C 553.433594 472.652344 554.054688 473.042969 554.503906 473.265625 Z M 558.214844 541.019531 C 564.734375 541.019531 570.359375 539.117188 575.082031 535.304688 C 579.804688 531.492188 582.164062 526.898438 582.164062 521.519531 C 582.164062 519.613281 581.882812 517.820312 581.324219 516.136719 C 580.761719 514.457031 580.085938 513.054688 579.296875 511.9375 C 578.511719 510.816406 577.273438 509.582031 575.585938 508.238281 C 573.902344 506.890625 572.609375 505.882812 571.707031 505.210938 C 570.808594 504.539062 569.175781 503.472656 566.816406 502.015625 C 564.453125 500.558594 562.9375 499.605469 562.261719 499.160156 C 560.6875 498.148438 559 497.085938 557.203125 495.964844 C 555.402344 494.84375 553.941406 493.890625 552.816406 493.105469 L 551.464844 492.265625 C 550.792969 492.265625 549.160156 493.21875 546.574219 495.125 C 543.988281 497.027344 541.289062 500.109375 538.476562 504.371094 C 535.667969 508.628906 534.207031 513.222656 534.09375 518.15625 C 534.09375 524.769531 536.511719 530.203125 541.347656 534.464844 C 546.179688 538.722656 551.804688 540.910156 558.214844 541.019531 Z M 558.214844 541.019531 " fill-opacity="1" fill-rule="nonzero"/></g><path fill="#000000" d="M 499.175781 392.234375 L 617.25 392.234375 L 617.25 382.144531 L 499.175781 382.144531 Z M 499.175781 392.234375 " fill-opacity="1" fill-rule="nonzero"/></svg>