<svg xmlns="http://www.w3.org/2000/svg" xmlns:xlink="http://www.w3.org/1999/xlink" width="1000" zoomAndPan="magnify" viewBox="0 0 750 749.999995" height="1000" preserveAspectRatio="xMidYMid meet" version="1.0"><defs><clipPath id="e513a36c0b"><path d="M 161 204.308594 L 229 204.308594 L 229 319 L 161 319 Z M 161 204.308594 " clip-rule="nonzero"/></clipPath><clipPath id="100ef5ca5f"><path d="M 203 431 L 270 431 L 270 545.691406 L 203 545.691406 Z M 203 431 " clip-rule="nonzero"/></clipPath><clipPath id="9a14861e67"><path d="M 564 204.308594 L 631 204.308594 L 631 316 L 564 316 Z M 564 204.308594 " clip-rule="nonzero"/></clipPath></defs><rect x="-75" width="900" fill="#ffffff" y="-74.999999" height="899.999994" fill-opacity="1"/><rect x="-75" width="900" fill="#ffffff" y="-74.999999" height="899.999994" fill-opacity="1"/><g clip-path="url(#e513a36c0b)"><path fill="#000000" d="M 180.765625 289.074219 C 180.765625 291.738281 179.878906 293.957031 178.097656 295.734375 C 176.320312 297.507812 174.152344 298.398438 171.59375 298.398438 L 170.429688 298.398438 C 175.542969 307.167969 182.324219 311.554688 190.773438 311.554688 C 198.554688 311.554688 204.226562 308.222656 207.785156 301.5625 C 209.894531 297.898438 210.953125 290.792969 210.953125 280.246094 C 210.953125 268.8125 209.449219 261.097656 206.449219 257.097656 C 203.558594 253.4375 200.335938 251.605469 196.777344 251.605469 L 195.777344 251.605469 C 187.105469 251.605469 180.546875 255.378906 176.097656 262.925781 C 175.652344 263.703125 175.265625 264.148438 174.929688 264.261719 C 174.597656 264.371094 173.761719 264.480469 172.429688 264.59375 C 170.539062 264.59375 169.484375 264.261719 169.261719 263.59375 C 169.039062 263.148438 168.925781 253.4375 168.925781 234.453125 L 168.925781 212.96875 C 168.925781 207.417969 169.207031 204.644531 169.761719 204.644531 C 169.984375 204.421875 170.207031 204.308594 170.429688 204.308594 C 170.539062 204.308594 171.707031 204.753906 173.929688 205.640625 C 176.152344 206.53125 179.210938 207.417969 183.101562 208.308594 C 186.992188 209.195312 191.164062 209.640625 195.609375 209.640625 C 203.503906 209.640625 211.0625 208.085938 218.289062 204.976562 C 219.179688 204.53125 219.902344 204.308594 220.457031 204.308594 C 221.347656 204.308594 221.792969 205.308594 221.792969 207.308594 L 221.792969 209.472656 C 212.675781 220.242188 201.28125 225.625 187.605469 225.625 C 184.160156 225.625 181.046875 225.292969 178.265625 224.625 L 176.597656 224.292969 L 176.597656 252.9375 C 178.710938 251.382812 180.378906 250.160156 181.601562 249.273438 C 182.824219 248.382812 184.824219 247.496094 187.605469 246.609375 C 190.382812 245.71875 193.21875 245.277344 196.109375 245.277344 C 205.113281 245.277344 212.730469 248.882812 218.957031 256.101562 C 225.183594 263.316406 228.296875 271.863281 228.296875 281.746094 C 228.296875 291.957031 224.738281 300.671875 217.621094 307.890625 C 210.507812 315.105469 201.835938 318.769531 191.605469 318.878906 C 182.601562 318.878906 175.375 315.882812 169.929688 309.886719 C 164.480469 303.894531 161.757812 297.121094 161.757812 289.570312 C 161.757812 286.90625 162.367188 284.796875 163.589844 283.242188 C 164.8125 281.691406 166.09375 280.691406 167.425781 280.246094 C 168.761719 279.800781 170.039062 279.582031 171.261719 279.582031 C 174.042969 279.582031 176.320312 280.523438 178.097656 282.410156 C 179.878906 284.296875 180.765625 286.519531 180.765625 289.074219 Z M 180.765625 289.074219 " fill-opacity="1" fill-rule="nonzero"/></g><path fill="#000000" d="M 129.90625 470.585938 C 126.902344 470.585938 124.511719 469.585938 122.734375 467.589844 C 120.957031 465.589844 120.066406 463.148438 120.066406 460.261719 C 120.066406 452.378906 123.011719 445.550781 128.902344 439.777344 C 134.796875 434.007812 142.132812 431.121094 150.917969 431.121094 C 161.035156 431.121094 169.484375 434.226562 176.265625 440.445312 C 183.046875 446.660156 186.492188 454.710938 186.605469 464.589844 C 186.605469 469.363281 185.492188 473.917969 183.269531 478.246094 C 181.046875 482.574219 178.378906 486.351562 175.265625 489.570312 C 172.152344 492.789062 167.703125 496.898438 161.921875 501.894531 C 157.921875 505.335938 152.363281 510.441406 145.246094 517.214844 L 135.40625 526.539062 L 148.082031 526.707031 C 165.535156 526.707031 174.820312 526.429688 175.929688 525.871094 C 176.710938 525.652344 178.042969 520.710938 179.933594 511.050781 L 179.933594 510.550781 L 186.605469 510.550781 L 186.605469 511.050781 C 186.492188 511.386719 185.769531 516.4375 184.4375 526.207031 C 183.101562 535.976562 182.269531 541.082031 181.933594 541.527344 L 181.933594 542.027344 L 120.066406 542.027344 L 120.066406 536.863281 C 120.066406 536.085938 120.398438 535.253906 121.066406 534.367188 C 121.734375 533.476562 123.402344 531.535156 126.070312 528.539062 C 129.292969 524.984375 132.074219 521.875 134.40625 519.210938 C 135.40625 518.101562 137.296875 516.046875 140.078125 513.050781 C 142.855469 510.054688 144.746094 508 145.746094 506.890625 C 146.746094 505.777344 148.359375 503.945312 150.582031 501.394531 C 152.808594 498.839844 154.363281 496.953125 155.253906 495.730469 C 156.140625 494.511719 157.421875 492.84375 159.089844 490.734375 C 160.757812 488.625 161.921875 486.851562 162.589844 485.40625 C 163.257812 483.964844 164.089844 482.355469 165.09375 480.578125 C 166.09375 478.800781 166.816406 477.023438 167.257812 475.25 C 167.703125 473.472656 168.09375 471.808594 168.425781 470.253906 C 168.761719 468.699219 168.925781 466.867188 168.925781 464.757812 C 168.925781 457.761719 167.039062 451.714844 163.257812 446.605469 C 159.476562 441.5 154.085938 438.945312 147.082031 438.945312 C 143.414062 438.945312 140.1875 439.890625 137.410156 441.777344 C 134.628906 443.664062 132.683594 445.496094 131.574219 447.273438 C 130.460938 449.046875 129.90625 450.101562 129.90625 450.4375 C 129.90625 450.546875 130.183594 450.601562 130.738281 450.601562 C 132.738281 450.601562 134.796875 451.378906 136.910156 452.933594 C 139.019531 454.488281 140.078125 457.042969 140.078125 460.59375 C 140.078125 463.371094 139.1875 465.703125 137.410156 467.589844 C 135.628906 469.476562 133.128906 470.476562 129.90625 470.585938 Z M 129.90625 470.585938 " fill-opacity="1" fill-rule="nonzero"/><g clip-path="url(#100ef5ca5f)"><path fill="#000000" d="M 222.457031 515.882812 C 222.457031 518.546875 221.570312 520.765625 219.789062 522.542969 C 218.011719 524.320312 215.84375 525.207031 213.285156 525.207031 L 212.117188 525.207031 C 217.234375 533.976562 224.015625 538.363281 232.464844 538.363281 C 240.246094 538.363281 245.917969 535.03125 249.472656 528.371094 C 251.585938 524.707031 252.644531 517.601562 252.644531 507.054688 C 252.644531 495.621094 251.140625 487.90625 248.140625 483.910156 C 245.25 480.246094 242.023438 478.414062 238.46875 478.414062 L 237.46875 478.414062 C 228.796875 478.414062 222.234375 482.1875 217.789062 489.738281 C 217.34375 490.515625 216.957031 490.957031 216.621094 491.070312 C 216.289062 491.179688 215.453125 491.289062 214.121094 491.402344 C 212.230469 491.402344 211.175781 491.070312 210.953125 490.402344 C 210.730469 489.957031 210.617188 480.246094 210.617188 461.261719 L 210.617188 439.777344 C 210.617188 434.226562 210.894531 431.453125 211.453125 431.453125 C 211.675781 431.230469 211.898438 431.121094 212.117188 431.121094 C 212.230469 431.121094 213.398438 431.5625 215.621094 432.453125 C 217.84375 433.339844 220.902344 434.226562 224.792969 435.117188 C 228.683594 436.003906 232.851562 436.449219 237.300781 436.449219 C 245.195312 436.449219 252.753906 434.894531 259.980469 431.785156 C 260.871094 431.339844 261.59375 431.121094 262.148438 431.121094 C 263.039062 431.121094 263.480469 432.117188 263.480469 434.117188 L 263.480469 436.28125 C 254.367188 447.050781 242.96875 452.433594 229.296875 452.433594 C 225.847656 452.433594 222.738281 452.101562 219.957031 451.4375 L 218.289062 451.101562 L 218.289062 479.746094 C 220.402344 478.191406 222.070312 476.96875 223.292969 476.082031 C 224.515625 475.195312 226.515625 474.304688 229.296875 473.417969 C 232.074219 472.527344 234.910156 472.085938 237.800781 472.085938 C 246.804688 472.085938 254.421875 475.691406 260.648438 482.910156 C 266.875 490.125 269.984375 498.671875 269.984375 508.554688 C 269.984375 518.769531 266.429688 527.484375 259.3125 534.699219 C 252.199219 541.914062 243.527344 545.578125 233.296875 545.691406 C 224.292969 545.691406 217.066406 542.691406 211.617188 536.695312 C 206.171875 530.703125 203.449219 523.929688 203.449219 516.382812 C 203.449219 513.714844 204.058594 511.605469 205.28125 510.054688 C 206.503906 508.5 207.785156 507.5 209.117188 507.054688 C 210.453125 506.613281 211.730469 506.390625 212.953125 506.390625 C 215.730469 506.390625 218.011719 507.332031 219.789062 509.21875 C 221.570312 511.109375 222.457031 513.328125 222.457031 515.882812 Z M 222.457031 515.882812 " fill-opacity="1" fill-rule="nonzero"/></g><path fill="#000000" d="M 95.050781 391.152344 L 295.167969 391.152344 L 295.167969 381.160156 L 95.050781 381.160156 Z M 95.050781 391.152344 " fill-opacity="1" fill-rule="nonzero"/><path fill="#000000" d="M 457.292969 422.960938 C 457.292969 425.179688 456.128906 426.289062 453.792969 426.289062 C 453.238281 426.289062 452.015625 425.402344 450.125 423.625 C 448.234375 421.847656 443.007812 416.6875 434.449219 408.140625 L 417.105469 390.820312 L 399.59375 408.304688 C 387.808594 419.851562 381.75 425.734375 381.417969 425.957031 C 380.972656 426.179688 380.582031 426.289062 380.25 426.289062 C 379.359375 426.289062 378.582031 425.957031 377.914062 425.289062 C 377.25 424.625 376.859375 423.847656 376.746094 422.960938 C 376.746094 422.183594 377.527344 420.960938 379.082031 419.296875 C 380.640625 417.628906 385.863281 412.359375 394.757812 403.476562 L 412.101562 386.15625 L 394.757812 368.839844 C 385.753906 359.847656 380.527344 354.574219 379.082031 353.019531 C 377.636719 351.464844 376.859375 350.242188 376.746094 349.355469 C 376.746094 348.355469 377.082031 347.578125 377.75 347.023438 C 378.414062 346.46875 379.25 346.191406 380.25 346.191406 C 380.804688 346.191406 381.195312 346.246094 381.417969 346.359375 C 381.75 346.578125 387.808594 352.464844 399.59375 364.007812 L 417.105469 381.496094 L 434.449219 364.175781 C 443.007812 355.628906 448.234375 350.464844 450.125 348.6875 C 452.015625 346.914062 453.238281 346.023438 453.792969 346.023438 C 456.128906 346.023438 457.292969 347.132812 457.292969 349.355469 C 457.292969 350.132812 456.738281 351.132812 455.625 352.351562 C 454.515625 353.574219 449.066406 359.011719 439.285156 368.671875 L 421.941406 386.15625 L 439.285156 403.640625 C 448.621094 412.96875 453.960938 418.351562 455.292969 419.796875 C 456.628906 421.238281 457.292969 422.292969 457.292969 422.960938 Z M 457.292969 422.960938 " fill-opacity="1" fill-rule="nonzero"/><g clip-path="url(#9a14861e67)"><path fill="#000000" d="M 573.894531 243.777344 C 570.894531 243.777344 568.503906 242.777344 566.726562 240.78125 C 564.945312 238.78125 564.054688 236.339844 564.054688 233.453125 C 564.054688 225.570312 567.003906 218.742188 572.894531 212.96875 C 578.789062 207.195312 586.125 204.308594 594.90625 204.308594 C 605.023438 204.308594 613.472656 207.417969 620.253906 213.636719 C 627.039062 219.851562 630.484375 227.902344 630.59375 237.78125 C 630.59375 242.554688 629.484375 247.109375 627.261719 251.4375 C 625.035156 255.765625 622.367188 259.542969 619.253906 262.761719 C 616.140625 265.980469 611.695312 270.089844 605.914062 275.085938 C 601.910156 278.527344 596.351562 283.632812 589.238281 290.40625 L 579.398438 299.730469 L 592.074219 299.898438 C 609.527344 299.898438 618.808594 299.617188 619.921875 299.0625 C 620.699219 298.84375 622.035156 293.902344 623.925781 284.242188 L 623.925781 283.742188 L 630.59375 283.742188 L 630.59375 284.242188 C 630.484375 284.574219 629.761719 289.628906 628.425781 299.398438 C 627.09375 309.167969 626.257812 314.273438 625.925781 314.71875 L 625.925781 315.21875 L 564.054688 315.21875 L 564.054688 310.054688 C 564.054688 309.277344 564.390625 308.445312 565.058594 307.558594 C 565.722656 306.667969 567.390625 304.726562 570.058594 301.726562 C 573.285156 298.175781 576.0625 295.066406 578.398438 292.402344 C 579.398438 291.292969 581.289062 289.238281 584.066406 286.242188 C 586.847656 283.242188 588.738281 281.191406 589.738281 280.078125 C 590.738281 278.96875 592.351562 277.136719 594.574219 274.585938 C 596.796875 272.03125 598.355469 270.144531 599.242188 268.921875 C 600.132812 267.703125 601.410156 266.035156 603.078125 263.925781 C 604.746094 261.816406 605.914062 260.042969 606.582031 258.597656 C 607.25 257.15625 608.082031 255.546875 609.082031 253.769531 C 610.082031 251.992188 610.804688 250.214844 611.25 248.441406 C 611.695312 246.664062 612.085938 245 612.417969 243.445312 C 612.75 241.890625 612.917969 240.058594 612.917969 237.949219 C 612.917969 230.953125 611.027344 224.902344 607.25 219.796875 C 603.46875 214.691406 598.078125 212.136719 591.070312 212.136719 C 587.402344 212.136719 584.179688 213.082031 581.398438 214.96875 C 578.621094 216.855469 576.675781 218.6875 575.5625 220.464844 C 574.453125 222.238281 573.894531 223.292969 573.894531 223.628906 C 573.894531 223.738281 574.171875 223.792969 574.730469 223.792969 C 576.730469 223.792969 578.789062 224.570312 580.898438 226.125 C 583.011719 227.679688 584.066406 230.234375 584.066406 233.785156 C 584.066406 236.5625 583.179688 238.890625 581.398438 240.78125 C 579.621094 242.667969 577.121094 243.667969 573.894531 243.777344 Z M 573.894531 243.777344 " fill-opacity="1" fill-rule="nonzero"/></g><path fill="#000000" d="M 573.894531 470.585938 C 570.894531 470.585938 568.503906 469.585938 566.726562 467.589844 C 564.945312 465.589844 564.054688 463.148438 564.054688 460.261719 C 564.054688 452.378906 567.003906 445.550781 572.894531 439.777344 C 578.789062 434.007812 586.125 431.121094 594.90625 431.121094 C 605.023438 431.121094 613.472656 434.226562 620.253906 440.445312 C 627.039062 446.660156 630.484375 454.710938 630.59375 464.589844 C 630.59375 469.363281 629.484375 473.917969 627.261719 478.246094 C 625.035156 482.574219 622.367188 486.351562 619.253906 489.570312 C 616.140625 492.789062 611.695312 496.898438 605.914062 501.894531 C 601.910156 505.335938 596.351562 510.441406 589.238281 517.214844 L 579.398438 526.539062 L 592.074219 526.707031 C 609.527344 526.707031 618.808594 526.429688 619.921875 525.871094 C 620.699219 525.652344 622.035156 520.710938 623.925781 511.050781 L 623.925781 510.550781 L 630.59375 510.550781 L 630.59375 511.050781 C 630.484375 511.386719 629.761719 516.4375 628.425781 526.207031 C 627.09375 535.976562 626.257812 541.082031 625.925781 541.527344 L 625.925781 542.027344 L 564.054688 542.027344 L 564.054688 536.863281 C 564.054688 536.085938 564.390625 535.253906 565.058594 534.367188 C 565.722656 533.476562 567.390625 531.535156 570.058594 528.539062 C 573.285156 524.984375 576.0625 521.875 578.398438 519.210938 C 579.398438 518.101562 581.289062 516.046875 584.066406 513.050781 C 586.847656 510.054688 588.738281 508 589.738281 506.890625 C 590.738281 505.777344 592.351562 503.945312 594.574219 501.394531 C 596.796875 498.839844 598.355469 496.953125 599.242188 495.730469 C 600.132812 494.511719 601.410156 492.84375 603.078125 490.734375 C 604.746094 488.625 605.914062 486.851562 606.582031 485.40625 C 607.25 483.964844 608.082031 482.355469 609.082031 480.578125 C 610.082031 478.800781 610.804688 477.023438 611.25 475.25 C 611.695312 473.472656 612.085938 471.808594 612.417969 470.253906 C 612.75 468.699219 612.917969 466.867188 612.917969 464.757812 C 612.917969 457.761719 611.027344 451.714844 607.25 446.605469 C 603.46875 441.5 598.078125 438.945312 591.070312 438.945312 C 587.402344 438.945312 584.179688 439.890625 581.398438 441.777344 C 578.621094 443.664062 576.675781 445.496094 575.5625 447.273438 C 574.453125 449.046875 573.894531 450.101562 573.894531 450.4375 C 573.894531 450.546875 574.171875 450.601562 574.730469 450.601562 C 576.730469 450.601562 578.789062 451.378906 580.898438 452.933594 C 583.011719 454.488281 584.066406 457.042969 584.066406 460.59375 C 584.066406 463.371094 583.179688 465.703125 581.398438 467.589844 C 579.621094 469.476562 577.121094 470.476562 573.894531 470.585938 Z M 573.894531 470.585938 " fill-opacity="1" fill-rule="nonzero"/><path fill="#000000" d="M 539.042969 391.152344 L 655.777344 391.152344 L 655.777344 381.160156 L 539.042969 381.160156 Z M 539.042969 391.152344 " fill-opacity="1" fill-rule="nonzero"/></svg>