<svg xmlns="http://www.w3.org/2000/svg" xmlns:xlink="http://www.w3.org/1999/xlink" width="1000" zoomAndPan="magnify" viewBox="0 0 750 749.999995" height="1000" preserveAspectRatio="xMidYMid meet" version="1.0"><defs><clipPath id="8204e6a83f"><path d="M 559 204.308594 L 633 204.308594 L 633 317 L 559 317 Z M 559 204.308594 " clip-rule="nonzero"/></clipPath><clipPath id="89b5156697"><path d="M 563 431 L 630 431 L 630 545.691406 L 563 545.691406 Z M 563 431 " clip-rule="nonzero"/></clipPath></defs><rect x="-75" width="900" fill="#ffffff" y="-74.999999" height="899.999994" fill-opacity="1"/><rect x="-75" width="900" fill="#ffffff" y="-74.999999" height="899.999994" fill-opacity="1"/><path fill="#000000" d="M 175.667969 239.757812 C 172.683594 239.757812 170.359375 238.816406 168.703125 236.941406 C 167.042969 235.0625 166.160156 232.632812 166.046875 229.652344 C 166.046875 223.578125 168.703125 218.167969 174.011719 213.421875 C 179.316406 208.671875 185.730469 206.296875 193.25 206.296875 C 197.121094 206.296875 199.554688 206.351562 200.550781 206.464844 C 208.734375 207.789062 214.980469 210.714844 219.292969 215.242188 C 223.605469 219.769531 225.816406 224.683594 225.929688 229.984375 C 225.929688 235.726562 224.050781 241.304688 220.289062 246.714844 C 216.527344 252.125 211.332031 256.042969 204.695312 258.472656 L 204.199219 258.804688 C 204.199219 258.914062 204.695312 259.082031 205.691406 259.300781 C 206.6875 259.523438 208.289062 260.019531 210.503906 260.792969 C 212.714844 261.566406 214.816406 262.726562 216.804688 264.269531 C 225.875 270.125 230.40625 277.851562 230.40625 287.460938 C 230.40625 296.183594 226.980469 303.804688 220.125 310.320312 C 213.265625 316.832031 204.585938 320.089844 194.082031 320.089844 C 185.234375 320.089844 177.605469 317.71875 171.191406 312.96875 C 164.777344 308.21875 161.570312 302.203125 161.570312 294.914062 C 161.570312 291.820312 162.566406 289.335938 164.554688 287.460938 C 166.546875 285.582031 169.035156 284.589844 172.019531 284.480469 C 175.117188 284.480469 177.660156 285.472656 179.648438 287.460938 C 181.640625 289.449219 182.636719 291.933594 182.636719 294.914062 C 182.636719 296.128906 182.46875 297.234375 182.136719 298.226562 C 181.804688 299.222656 181.417969 300.105469 180.976562 300.878906 C 180.535156 301.648438 179.925781 302.3125 179.152344 302.863281 C 178.378906 303.417969 177.714844 303.859375 177.160156 304.191406 C 176.609375 304.519531 176.054688 304.742188 175.503906 304.851562 C 174.949219 304.960938 174.507812 305.128906 174.175781 305.347656 L 173.511719 305.515625 C 179.152344 310.484375 186.007812 312.96875 194.082031 312.96875 C 200.164062 312.96875 204.753906 310.042969 207.847656 304.191406 C 209.726562 300.546875 210.667969 294.96875 210.667969 287.460938 L 210.667969 284.148438 C 210.667969 273.65625 207.128906 266.644531 200.050781 263.113281 C 198.394531 262.449219 195.019531 262.0625 189.933594 261.953125 L 182.96875 261.785156 L 182.46875 261.457031 C 182.25 261.125 182.136719 260.242188 182.136719 258.804688 C 182.136719 256.816406 182.582031 255.824219 183.464844 255.824219 C 186.5625 255.824219 189.769531 255.546875 193.085938 254.996094 C 196.84375 254.441406 200.273438 252.125 203.371094 248.039062 C 206.464844 243.953125 208.015625 237.769531 208.015625 229.488281 L 208.015625 228.164062 C 208.015625 221.867188 206.078125 217.507812 202.207031 215.078125 C 199.777344 213.53125 197.175781 212.757812 194.414062 212.757812 C 190.875 212.757812 187.613281 213.363281 184.625 214.578125 C 181.640625 215.792969 179.539062 217.066406 178.324219 218.390625 C 177.105469 219.714844 176.5 220.378906 176.5 220.378906 L 176.996094 220.378906 C 177.328125 220.488281 177.769531 220.597656 178.324219 220.707031 C 178.875 220.820312 179.429688 221.09375 179.980469 221.535156 C 180.535156 221.976562 181.199219 222.363281 181.972656 222.695312 C 182.746094 223.027344 183.300781 223.632812 183.632812 224.519531 C 183.960938 225.402344 184.40625 226.230469 184.957031 227.003906 C 185.511719 227.777344 185.675781 228.878906 185.457031 230.316406 C 185.457031 232.746094 184.679688 234.898438 183.132812 236.773438 C 181.585938 238.652344 179.097656 239.644531 175.667969 239.757812 Z M 175.667969 239.757812 " fill-opacity="1" fill-rule="nonzero"/><path fill="#000000" d="M 148.464844 446.308594 L 146.308594 447.136719 C 144.761719 447.6875 142.550781 448.238281 139.675781 448.792969 C 136.800781 449.34375 133.59375 449.730469 130.054688 449.949219 L 126.902344 449.949219 L 126.902344 442.332031 L 130.054688 442.332031 C 135.25 442.109375 140.0625 441.28125 144.484375 439.847656 C 148.910156 438.410156 152.003906 437.085938 153.773438 435.871094 C 155.542969 434.65625 157.089844 433.441406 158.417969 432.226562 C 158.640625 431.898438 159.304688 431.730469 160.410156 431.730469 C 161.402344 431.730469 162.34375 432.0625 163.230469 432.726562 L 163.230469 482.25 L 163.394531 531.941406 C 164.167969 532.714844 164.832031 533.210938 165.386719 533.433594 C 165.9375 533.652344 167.265625 533.875 169.367188 534.09375 C 171.46875 534.316406 174.894531 534.425781 179.648438 534.425781 L 183.960938 534.425781 L 183.960938 542.046875 L 182.136719 542.046875 C 179.816406 541.714844 171.023438 541.546875 155.765625 541.546875 C 140.726562 541.546875 132.042969 541.714844 129.722656 542.046875 L 127.730469 542.046875 L 127.730469 534.425781 L 132.042969 534.425781 C 134.476562 534.425781 136.578125 534.425781 138.347656 534.425781 C 140.117188 534.425781 141.5 534.371094 142.496094 534.261719 C 143.488281 534.148438 144.375 533.984375 145.148438 533.765625 C 145.921875 533.542969 146.363281 533.433594 146.476562 533.433594 C 146.585938 533.433594 146.917969 533.15625 147.46875 532.605469 C 148.023438 532.050781 148.355469 531.832031 148.464844 531.941406 Z M 148.464844 446.308594 " fill-opacity="1" fill-rule="nonzero"/><path fill="#000000" d="M 214.152344 470.988281 C 211.167969 470.988281 208.789062 469.992188 207.019531 468.003906 C 205.25 466.019531 204.363281 463.589844 204.363281 460.71875 C 204.363281 452.878906 207.296875 446.085938 213.15625 440.34375 C 219.015625 434.601562 226.316406 431.730469 235.050781 431.730469 C 245.113281 431.730469 253.519531 434.824219 260.265625 441.007812 C 267.011719 447.191406 270.4375 455.195312 270.546875 465.023438 C 270.546875 469.773438 269.441406 474.300781 267.230469 478.605469 C 265.019531 482.914062 262.367188 486.667969 259.269531 489.871094 C 256.171875 493.070312 251.75 497.15625 246 502.125 C 242.019531 505.550781 236.488281 510.628906 229.410156 517.367188 L 219.625 526.640625 L 232.230469 526.808594 C 249.59375 526.808594 258.828125 526.53125 259.933594 525.980469 C 260.707031 525.757812 262.035156 520.84375 263.914062 511.238281 L 263.914062 510.738281 L 270.546875 510.738281 L 270.546875 511.238281 C 270.4375 511.566406 269.71875 516.59375 268.390625 526.308594 C 267.066406 536.027344 266.234375 541.105469 265.902344 541.546875 L 265.902344 542.046875 L 204.363281 542.046875 L 204.363281 536.910156 C 204.363281 536.136719 204.695312 535.308594 205.359375 534.425781 C 206.023438 533.542969 207.683594 531.609375 210.335938 528.628906 C 213.542969 525.09375 216.308594 522.003906 218.628906 519.351562 C 219.625 518.25 221.503906 516.207031 224.269531 513.226562 C 227.035156 510.242188 228.914062 508.199219 229.910156 507.097656 C 230.90625 505.992188 232.507812 504.167969 234.71875 501.628906 C 236.933594 499.089844 238.480469 497.214844 239.363281 496 C 240.25 494.785156 241.519531 493.128906 243.179688 491.027344 C 244.839844 488.929688 246 487.164062 246.664062 485.730469 C 247.328125 484.292969 248.15625 482.691406 249.152344 480.925781 C 250.144531 479.160156 250.863281 477.390625 251.308594 475.625 C 251.75 473.859375 252.136719 472.203125 252.46875 470.65625 C 252.800781 469.109375 252.964844 467.289062 252.964844 465.191406 C 252.964844 458.234375 251.085938 452.214844 247.328125 447.136719 C 243.566406 442.054688 238.203125 439.515625 231.238281 439.515625 C 227.585938 439.515625 224.378906 440.453125 221.617188 442.332031 C 218.851562 444.207031 216.917969 446.03125 215.808594 447.796875 C 214.703125 449.566406 214.152344 450.613281 214.152344 450.945312 C 214.152344 451.054688 214.429688 451.109375 214.980469 451.109375 C 216.972656 451.109375 219.015625 451.882812 221.117188 453.429688 C 223.21875 454.976562 224.269531 457.515625 224.269531 461.046875 C 224.269531 463.808594 223.386719 466.128906 221.617188 468.003906 C 219.847656 469.882812 217.359375 470.875 214.152344 470.988281 Z M 214.152344 470.988281 " fill-opacity="1" fill-rule="nonzero"/><path fill="#000000" d="M 96.546875 391.976562 L 295.59375 391.976562 L 295.59375 382.039062 L 96.546875 382.039062 Z M 96.546875 391.976562 " fill-opacity="1" fill-rule="nonzero"/><path fill="#000000" d="M 456.859375 423.613281 C 456.859375 425.824219 455.695312 426.925781 453.375 426.925781 C 452.820312 426.925781 451.605469 426.042969 449.726562 424.277344 C 447.84375 422.511719 442.648438 417.375 434.132812 408.871094 L 416.882812 391.648438 L 399.464844 409.039062 C 387.742188 420.523438 381.71875 426.375 381.386719 426.597656 C 380.941406 426.816406 380.554688 426.925781 380.222656 426.925781 C 379.339844 426.925781 378.566406 426.597656 377.902344 425.933594 C 377.238281 425.269531 376.851562 424.5 376.742188 423.613281 C 376.742188 422.839844 377.515625 421.628906 379.0625 419.96875 C 380.609375 418.3125 385.808594 413.070312 394.65625 404.234375 L 411.90625 387.007812 L 394.65625 369.78125 C 385.699219 360.839844 380.5 355.59375 379.0625 354.046875 C 377.625 352.5 376.851562 351.285156 376.742188 350.402344 C 376.742188 349.410156 377.074219 348.636719 377.734375 348.082031 C 378.398438 347.53125 379.230469 347.253906 380.222656 347.253906 C 380.777344 347.253906 381.164062 347.3125 381.386719 347.421875 C 381.71875 347.640625 387.742188 353.496094 399.464844 364.980469 L 416.882812 382.371094 L 434.132812 365.144531 C 442.648438 356.640625 447.84375 351.507812 449.726562 349.742188 C 451.605469 347.972656 452.820312 347.089844 453.375 347.089844 C 455.695312 347.089844 456.859375 348.195312 456.859375 350.402344 C 456.859375 351.175781 456.304688 352.167969 455.199219 353.382812 C 454.09375 354.597656 448.675781 360.011719 438.941406 369.617188 L 421.691406 387.007812 L 438.941406 404.402344 C 448.230469 413.675781 453.539062 419.03125 454.867188 420.46875 C 456.195312 421.902344 456.859375 422.953125 456.859375 423.613281 Z M 456.859375 423.613281 " fill-opacity="1" fill-rule="nonzero"/><g clip-path="url(#8204e6a83f)"><path fill="#000000" d="M 631.390625 316.445312 C 629.398438 316.117188 622.265625 315.949219 609.992188 315.949219 C 597.164062 315.949219 589.753906 316.117188 587.765625 316.445312 L 586.273438 316.445312 L 586.273438 308.828125 L 591.414062 308.828125 C 593.625 308.828125 595.117188 308.828125 595.890625 308.828125 C 596.667969 308.828125 597.605469 308.71875 598.710938 308.496094 C 599.816406 308.277344 600.59375 308 601.035156 307.667969 C 601.476562 307.335938 601.863281 306.894531 602.195312 306.34375 C 602.304688 306.121094 602.363281 303.140625 602.363281 297.398438 L 602.363281 289.117188 L 559.402344 289.117188 L 559.402344 281.496094 L 584.445312 243.234375 C 601.367188 217.617188 609.9375 204.753906 610.15625 204.640625 C 610.378906 204.421875 611.539062 204.308594 613.640625 204.308594 L 616.625 204.308594 L 617.621094 205.304688 L 617.621094 281.496094 L 632.882812 281.496094 L 632.882812 289.117188 L 617.621094 289.117188 L 617.621094 297.5625 C 617.621094 302.09375 617.621094 304.742188 617.621094 305.515625 C 617.621094 306.289062 617.953125 306.949219 618.617188 307.503906 C 619.5 308.277344 622.652344 308.71875 628.070312 308.828125 L 632.882812 308.828125 L 632.882812 316.445312 Z M 603.355469 281.496094 L 603.355469 226.175781 L 567.03125 281.332031 L 585.109375 281.496094 Z M 603.355469 281.496094 " fill-opacity="1" fill-rule="nonzero"/></g><g clip-path="url(#89b5156697)"><path fill="#000000" d="M 581.960938 516.039062 C 581.960938 518.691406 581.074219 520.898438 579.304688 522.664062 C 577.535156 524.433594 575.378906 525.316406 572.835938 525.316406 L 571.675781 525.316406 C 576.761719 534.039062 583.507812 538.402344 591.910156 538.402344 C 599.652344 538.402344 605.292969 535.089844 608.832031 528.464844 C 610.933594 524.820312 611.980469 517.753906 611.980469 507.261719 C 611.980469 495.886719 610.488281 488.214844 607.503906 484.238281 C 604.628906 480.59375 601.421875 478.773438 597.882812 478.773438 L 596.886719 478.773438 C 588.261719 478.773438 581.738281 482.527344 577.316406 490.035156 C 576.871094 490.808594 576.484375 491.25 576.152344 491.359375 C 575.820312 491.472656 574.992188 491.582031 573.664062 491.691406 C 571.785156 491.691406 570.734375 491.359375 570.515625 490.699219 C 570.292969 490.257812 570.183594 480.59375 570.183594 461.710938 L 570.183594 440.34375 C 570.183594 434.824219 570.457031 432.0625 571.011719 432.0625 C 571.234375 431.839844 571.453125 431.730469 571.675781 431.730469 C 571.785156 431.730469 572.945312 432.171875 575.160156 433.054688 C 577.371094 433.9375 580.410156 434.824219 584.28125 435.707031 C 588.152344 436.589844 592.296875 437.03125 596.722656 437.03125 C 604.574219 437.03125 612.09375 435.484375 619.28125 432.394531 C 620.164062 431.953125 620.882812 431.730469 621.4375 431.730469 C 622.320312 431.730469 622.765625 432.726562 622.765625 434.710938 L 622.765625 436.867188 C 613.695312 447.578125 602.363281 452.933594 588.761719 452.933594 C 585.332031 452.933594 582.234375 452.601562 579.472656 451.9375 L 577.8125 451.609375 L 577.8125 480.097656 C 579.914062 478.550781 581.570312 477.335938 582.789062 476.453125 C 584.003906 475.570312 585.996094 474.6875 588.761719 473.804688 C 591.523438 472.917969 594.34375 472.476562 597.21875 472.476562 C 606.175781 472.476562 613.75 476.066406 619.945312 483.246094 C 626.136719 490.421875 629.234375 498.925781 629.234375 508.753906 C 629.234375 518.910156 625.695312 527.578125 618.617188 534.757812 C 611.539062 541.933594 602.914062 545.578125 592.742188 545.691406 C 583.785156 545.691406 576.597656 542.707031 571.175781 536.746094 C 565.757812 530.78125 563.050781 524.046875 563.050781 516.539062 C 563.050781 513.886719 563.65625 511.789062 564.875 510.242188 C 566.089844 508.695312 567.363281 507.703125 568.6875 507.261719 C 570.015625 506.820312 571.289062 506.597656 572.503906 506.597656 C 575.269531 506.597656 577.535156 507.539062 579.304688 509.414062 C 581.074219 511.292969 581.960938 513.5 581.960938 516.039062 Z M 581.960938 516.039062 " fill-opacity="1" fill-rule="nonzero"/></g><path fill="#000000" d="M 538.167969 391.976562 L 654.28125 391.976562 L 654.28125 382.039062 L 538.167969 382.039062 Z M 538.167969 391.976562 " fill-opacity="1" fill-rule="nonzero"/></svg>