<svg xmlns="http://www.w3.org/2000/svg" xmlns:xlink="http://www.w3.org/1999/xlink" width="1000" zoomAndPan="magnify" viewBox="0 0 750 749.999995" height="1000" preserveAspectRatio="xMidYMid meet" version="1.0"><defs><clipPath id="460bb2f952"><path d="M 122 204.308594 L 194 204.308594 L 194 320 L 122 320 Z M 122 204.308594 " clip-rule="nonzero"/></clipPath><clipPath id="2e30358581"><path d="M 121 431 L 188 431 L 188 545.691406 L 121 545.691406 Z M 121 431 " clip-rule="nonzero"/></clipPath></defs><rect x="-75" width="900" fill="#ffffff" y="-74.999999" height="899.999994" fill-opacity="1"/><rect x="-75" width="900" fill="#ffffff" y="-74.999999" height="899.999994" fill-opacity="1"/><g clip-path="url(#460bb2f952)"><path fill="#000000" d="M 122.136719 240.4375 C 122.246094 240.214844 123.1875 234.195312 124.957031 222.375 L 127.613281 204.640625 C 127.613281 204.421875 128.71875 204.308594 130.929688 204.308594 L 134.25 204.308594 L 134.25 204.972656 C 134.25 206.078125 135.078125 207.015625 136.738281 207.789062 C 138.398438 208.5625 141.273438 209.0625 145.367188 209.28125 C 149.460938 209.503906 158.8125 209.613281 173.414062 209.613281 L 193.496094 209.613281 L 193.496094 216.078125 L 182.210938 231.488281 C 181.214844 232.8125 179.554688 235.023438 177.230469 238.117188 C 174.910156 241.210938 173.414062 243.253906 172.75 244.25 C 172.085938 245.242188 170.925781 247.011719 169.265625 249.550781 C 167.605469 252.09375 166.5 254.082031 165.945312 255.515625 C 165.394531 256.953125 164.621094 258.996094 163.625 261.648438 C 162.628906 264.300781 161.910156 266.839844 161.464844 269.273438 C 161.023438 271.703125 160.582031 274.683594 160.136719 278.21875 C 159.695312 281.757812 159.363281 285.511719 159.144531 289.488281 C 158.921875 293.464844 158.753906 297.996094 158.644531 303.078125 C 158.644531 304.625 158.644531 306.171875 158.644531 307.71875 C 158.644531 309.265625 158.589844 310.589844 158.480469 311.695312 L 158.480469 313.1875 C 158.035156 315.066406 156.984375 316.667969 155.324219 317.992188 C 153.667969 319.320312 151.785156 319.980469 149.683594 319.980469 C 148.464844 319.980469 147.304688 319.816406 146.199219 319.484375 C 145.09375 319.152344 143.929688 318.101562 142.714844 316.335938 C 141.496094 314.566406 140.886719 312.359375 140.886719 309.707031 C 140.886719 292.25 146.253906 274.132812 156.984375 255.351562 C 159.199219 251.816406 163.84375 245.132812 170.925781 235.300781 L 178.558594 224.859375 L 163.125 224.859375 C 143.875 224.859375 133.75 225.191406 132.757812 225.855469 C 132.09375 226.183594 131.484375 227.511719 130.929688 229.832031 C 130.378906 232.152344 129.824219 234.527344 129.269531 236.957031 L 128.773438 240.4375 L 128.773438 240.933594 L 122.136719 240.933594 Z M 122.136719 240.4375 " fill-opacity="1" fill-rule="nonzero"/></g><g clip-path="url(#2e30358581)"><path fill="#000000" d="M 140.222656 516.027344 C 140.222656 518.675781 139.339844 520.886719 137.570312 522.65625 C 135.796875 524.421875 133.640625 525.304688 131.097656 525.304688 L 129.933594 525.304688 C 135.023438 534.035156 141.773438 538.398438 150.179688 538.398438 C 157.925781 538.398438 163.566406 535.082031 167.109375 528.453125 C 169.210938 524.808594 170.261719 517.738281 170.261719 507.242188 C 170.261719 495.863281 168.769531 488.183594 165.78125 484.207031 C 162.90625 480.5625 159.695312 478.738281 156.15625 478.738281 L 155.160156 478.738281 C 146.53125 478.738281 140.003906 482.496094 135.578125 490.007812 C 135.132812 490.78125 134.746094 491.222656 134.414062 491.335938 C 134.082031 491.445312 133.253906 491.554688 131.925781 491.664062 C 130.046875 491.664062 128.996094 491.335938 128.773438 490.671875 C 128.550781 490.230469 128.441406 480.5625 128.441406 461.671875 L 128.441406 440.292969 C 128.441406 434.769531 128.71875 432.007812 129.269531 432.007812 C 129.492188 431.785156 129.714844 431.675781 129.933594 431.675781 C 130.046875 431.675781 131.207031 432.117188 133.417969 433 C 135.632812 433.886719 138.675781 434.769531 142.546875 435.652344 C 146.417969 436.535156 150.570312 436.980469 154.992188 436.980469 C 162.847656 436.980469 170.371094 435.433594 177.5625 432.339844 C 178.449219 431.898438 179.167969 431.675781 179.722656 431.675781 C 180.605469 431.675781 181.046875 432.667969 181.046875 434.660156 L 181.046875 436.8125 C 171.976562 447.53125 160.636719 452.886719 147.027344 452.886719 C 143.597656 452.886719 140.5 452.554688 137.734375 451.894531 L 136.074219 451.5625 L 136.074219 480.066406 C 138.175781 478.519531 139.835938 477.304688 141.054688 476.417969 C 142.269531 475.535156 144.261719 474.652344 147.027344 473.769531 C 149.792969 472.882812 152.613281 472.441406 155.492188 472.441406 C 164.453125 472.441406 172.03125 476.03125 178.226562 483.214844 C 184.421875 490.394531 187.519531 498.902344 187.519531 508.734375 C 187.519531 518.898438 183.980469 527.570312 176.898438 534.753906 C 169.820312 541.933594 161.191406 545.578125 151.011719 545.691406 C 142.050781 545.691406 134.859375 542.707031 129.4375 536.742188 C 124.015625 530.773438 121.304688 524.035156 121.304688 516.523438 C 121.304688 513.871094 121.914062 511.773438 123.128906 510.226562 C 124.347656 508.679688 125.621094 507.683594 126.949219 507.242188 C 128.273438 506.800781 129.546875 506.582031 130.765625 506.582031 C 133.53125 506.582031 135.796875 507.519531 137.570312 509.398438 C 139.339844 511.277344 140.222656 513.484375 140.222656 516.027344 Z M 140.222656 516.027344 " fill-opacity="1" fill-rule="nonzero"/></g><path fill="#000000" d="M 96.414062 391.902344 L 212.578125 391.902344 L 212.578125 381.960938 L 96.414062 381.960938 Z M 96.414062 391.902344 " fill-opacity="1" fill-rule="nonzero"/><path fill="#000000" d="M 373.921875 423.554688 C 373.921875 425.765625 372.757812 426.871094 370.433594 426.871094 C 369.882812 426.871094 368.664062 425.984375 366.785156 424.21875 C 364.902344 422.449219 359.703125 417.3125 351.183594 408.804688 L 333.925781 391.570312 L 316.5 408.972656 C 304.773438 420.460938 298.742188 426.316406 298.410156 426.539062 C 297.96875 426.757812 297.582031 426.871094 297.25 426.871094 C 296.363281 426.871094 295.589844 426.539062 294.925781 425.875 C 294.261719 425.210938 293.875 424.4375 293.765625 423.554688 C 293.765625 422.78125 294.539062 421.566406 296.085938 419.910156 C 297.636719 418.253906 302.835938 413.003906 311.6875 404.167969 L 328.945312 386.933594 L 311.6875 369.695312 C 302.726562 360.75 297.527344 355.5 296.085938 353.953125 C 294.648438 352.40625 293.875 351.191406 293.765625 350.308594 C 293.765625 349.3125 294.097656 348.539062 294.761719 347.988281 C 295.425781 347.433594 296.253906 347.160156 297.25 347.160156 C 297.800781 347.160156 298.191406 347.214844 298.410156 347.324219 C 298.742188 347.546875 304.773438 353.402344 316.5 364.890625 L 333.925781 382.292969 L 351.183594 365.058594 C 359.703125 356.550781 364.902344 351.414062 366.785156 349.644531 C 368.664062 347.878906 369.882812 346.992188 370.433594 346.992188 C 372.757812 346.992188 373.921875 348.097656 373.921875 350.308594 C 373.921875 351.082031 373.367188 352.074219 372.261719 353.289062 C 371.15625 354.507812 365.734375 359.917969 355.996094 369.53125 L 338.738281 386.933594 L 355.996094 404.332031 C 365.289062 413.613281 370.601562 418.96875 371.929688 420.40625 C 373.257812 421.84375 373.921875 422.890625 373.921875 423.554688 Z M 373.921875 423.554688 " fill-opacity="1" fill-rule="nonzero"/><path fill="#000000" d="M 531.445312 245.242188 C 528.457031 245.242188 526.078125 244.25 524.308594 242.261719 C 522.539062 240.269531 521.652344 237.839844 521.652344 234.96875 C 521.652344 227.125 524.585938 220.328125 530.449219 214.585938 C 536.3125 208.839844 543.613281 205.96875 552.355469 205.96875 C 562.421875 205.96875 570.828125 209.0625 577.578125 215.246094 C 584.328125 221.433594 587.757812 229.445312 587.867188 239.277344 C 587.867188 244.027344 586.761719 248.558594 584.546875 252.867188 C 582.335938 257.175781 579.679688 260.929688 576.582031 264.132812 C 573.484375 267.339844 569.058594 271.425781 563.308594 276.398438 C 559.324219 279.824219 553.792969 284.90625 546.710938 291.644531 L 536.921875 300.925781 L 549.53125 301.089844 C 566.902344 301.089844 576.140625 300.8125 577.246094 300.261719 C 578.019531 300.039062 579.347656 295.125 581.230469 285.511719 L 581.230469 285.015625 L 587.867188 285.015625 L 587.867188 285.511719 C 587.757812 285.84375 587.039062 290.871094 585.710938 300.59375 C 584.382812 310.316406 583.554688 315.398438 583.222656 315.839844 L 583.222656 316.335938 L 521.652344 316.335938 L 521.652344 311.199219 C 521.652344 310.425781 521.984375 309.597656 522.648438 308.710938 C 523.3125 307.828125 524.972656 305.894531 527.625 302.914062 C 530.835938 299.378906 533.601562 296.285156 535.925781 293.632812 C 536.921875 292.527344 538.800781 290.484375 541.566406 287.5 C 544.332031 284.519531 546.214844 282.472656 547.210938 281.371094 C 548.203125 280.265625 549.808594 278.441406 552.023438 275.902344 C 554.234375 273.359375 555.785156 271.480469 556.667969 270.265625 C 557.554688 269.050781 558.824219 267.394531 560.484375 265.292969 C 562.144531 263.195312 563.308594 261.429688 563.96875 259.992188 C 564.632812 258.554688 565.464844 256.953125 566.460938 255.1875 C 567.457031 253.417969 568.175781 251.652344 568.617188 249.882812 C 569.058594 248.113281 569.445312 246.457031 569.777344 244.910156 C 570.109375 243.363281 570.277344 241.542969 570.277344 239.441406 C 570.277344 232.480469 568.394531 226.460938 564.632812 221.378906 C 560.871094 216.296875 555.507812 213.757812 548.535156 213.757812 C 544.886719 213.757812 541.675781 214.695312 538.910156 216.574219 C 536.144531 218.453125 534.210938 220.273438 533.101562 222.042969 C 531.996094 223.808594 531.445312 224.859375 531.445312 225.191406 C 531.445312 225.300781 531.71875 225.355469 532.273438 225.355469 C 534.265625 225.355469 536.3125 226.128906 538.414062 227.675781 C 540.515625 229.222656 541.566406 231.765625 541.566406 235.300781 C 541.566406 238.0625 540.683594 240.382812 538.910156 242.261719 C 537.140625 244.136719 534.652344 245.132812 531.445312 245.242188 Z M 531.445312 245.242188 " fill-opacity="1" fill-rule="nonzero"/><path fill="#000000" d="M 507.214844 446.257812 L 505.058594 447.085938 C 503.507812 447.640625 501.296875 448.191406 498.417969 448.746094 C 495.542969 449.296875 492.332031 449.683594 488.792969 449.90625 L 485.640625 449.90625 L 485.640625 442.28125 L 488.792969 442.28125 C 493.992188 442.0625 498.804688 441.230469 503.230469 439.796875 C 507.65625 438.359375 510.753906 437.035156 512.523438 435.820312 C 514.296875 434.601562 515.84375 433.386719 517.171875 432.171875 C 517.394531 431.839844 518.054688 431.675781 519.164062 431.675781 C 520.160156 431.675781 521.097656 432.007812 521.984375 432.667969 L 521.984375 482.21875 L 522.148438 531.933594 C 522.925781 532.707031 523.589844 533.207031 524.140625 533.425781 C 524.695312 533.648438 526.023438 533.867188 528.125 534.089844 C 530.226562 534.308594 533.65625 534.421875 538.414062 534.421875 L 542.726562 534.421875 L 542.726562 542.042969 L 540.902344 542.042969 C 538.578125 541.710938 529.785156 541.546875 514.515625 541.546875 C 499.46875 541.546875 490.785156 541.710938 488.460938 542.042969 L 486.46875 542.042969 L 486.46875 534.421875 L 490.785156 534.421875 C 493.21875 534.421875 495.320312 534.421875 497.089844 534.421875 C 498.859375 534.421875 500.246094 534.367188 501.238281 534.253906 C 502.234375 534.144531 503.121094 533.980469 503.894531 533.757812 C 504.667969 533.535156 505.113281 533.425781 505.222656 533.425781 C 505.332031 533.425781 505.664062 533.148438 506.21875 532.597656 C 506.773438 532.046875 507.105469 531.824219 507.214844 531.933594 Z M 507.214844 446.257812 " fill-opacity="1" fill-rule="nonzero"/><path fill="#000000" d="M 631.515625 542.042969 C 629.523438 541.710938 622.386719 541.546875 610.105469 541.546875 C 597.273438 541.546875 589.859375 541.710938 587.867188 542.042969 L 586.375 542.042969 L 586.375 534.421875 L 591.519531 534.421875 C 593.730469 534.421875 595.226562 534.421875 596 534.421875 C 596.773438 534.421875 597.714844 534.308594 598.820312 534.089844 C 599.925781 533.867188 600.703125 533.59375 601.144531 533.261719 C 601.585938 532.929688 601.972656 532.488281 602.304688 531.933594 C 602.417969 531.714844 602.472656 528.730469 602.472656 522.984375 L 602.472656 514.699219 L 559.488281 514.699219 L 559.488281 507.078125 L 584.546875 468.796875 C 601.476562 443.164062 610.050781 430.292969 610.273438 430.183594 C 610.492188 429.964844 611.65625 429.851562 613.757812 429.851562 L 616.742188 429.851562 L 617.738281 430.847656 L 617.738281 507.078125 L 633.007812 507.078125 L 633.007812 514.699219 L 617.738281 514.699219 L 617.738281 523.152344 C 617.738281 527.679688 617.738281 530.332031 617.738281 531.105469 C 617.738281 531.878906 618.070312 532.542969 618.734375 533.09375 C 619.621094 533.867188 622.773438 534.308594 628.195312 534.421875 L 633.007812 534.421875 L 633.007812 542.042969 Z M 603.46875 507.078125 L 603.46875 451.726562 L 567.125 506.910156 L 585.210938 507.078125 Z M 603.46875 507.078125 " fill-opacity="1" fill-rule="nonzero"/><path fill="#000000" d="M 455.269531 391.902344 L 654.414062 391.902344 L 654.414062 381.960938 L 455.269531 381.960938 Z M 455.269531 391.902344 " fill-opacity="1" fill-rule="nonzero"/></svg>