<svg xmlns="http://www.w3.org/2000/svg" xmlns:xlink="http://www.w3.org/1999/xlink" width="1000" zoomAndPan="magnify" viewBox="0 0 750 749.999995" height="1000" preserveAspectRatio="xMidYMid meet" version="1.0"><defs><clipPath id="e0fafcc1e3"><path d="M 202 431 L 273 431 L 273 545.691406 L 202 545.691406 Z M 202 431 " clip-rule="nonzero"/></clipPath><clipPath id="da57732b18"><path d="M 559 204.308594 L 633 204.308594 L 633 317 L 559 317 Z M 559 204.308594 " clip-rule="nonzero"/></clipPath><clipPath id="8a5fb5ae52"><path d="M 563 431 L 630 431 L 630 545.691406 L 563 545.691406 Z M 563 431 " clip-rule="nonzero"/></clipPath></defs><rect x="-75" width="900" fill="#ffffff" y="-74.999999" height="899.999994" fill-opacity="1"/><rect x="-75" width="900" fill="#ffffff" y="-74.999999" height="899.999994" fill-opacity="1"/><path fill="#000000" d="M 181.804688 290.441406 C 181.804688 293.09375 180.921875 295.300781 179.152344 297.066406 C 177.382812 298.835938 175.226562 299.71875 172.683594 299.71875 L 171.523438 299.71875 C 176.609375 308.441406 183.355469 312.804688 191.757812 312.804688 C 199.5 312.804688 205.140625 309.492188 208.679688 302.863281 C 210.777344 299.222656 211.828125 292.152344 211.828125 281.664062 C 211.828125 270.289062 210.335938 262.613281 207.351562 258.640625 C 204.476562 254.996094 201.269531 253.171875 197.730469 253.171875 L 196.734375 253.171875 C 188.109375 253.171875 181.585938 256.929688 177.160156 264.4375 C 176.71875 265.210938 176.332031 265.652344 176 265.761719 C 175.667969 265.871094 174.839844 265.984375 173.511719 266.09375 C 171.632812 266.09375 170.582031 265.761719 170.359375 265.097656 C 170.140625 264.65625 170.03125 254.996094 170.03125 236.113281 L 170.03125 214.746094 C 170.03125 209.222656 170.304688 206.464844 170.859375 206.464844 C 171.078125 206.242188 171.300781 206.132812 171.523438 206.132812 C 171.632812 206.132812 172.792969 206.574219 175.003906 207.457031 C 177.21875 208.339844 180.257812 209.222656 184.128906 210.109375 C 188 210.992188 192.144531 211.433594 196.570312 211.433594 C 204.421875 211.433594 211.941406 209.886719 219.128906 206.792969 C 220.011719 206.351562 220.730469 206.132812 221.285156 206.132812 C 222.167969 206.132812 222.609375 207.125 222.609375 209.113281 L 222.609375 211.265625 C 213.542969 221.976562 202.207031 227.335938 188.605469 227.335938 C 185.179688 227.335938 182.082031 227.003906 179.316406 226.339844 L 177.660156 226.007812 L 177.660156 254.5 C 179.761719 252.953125 181.417969 251.738281 182.636719 250.855469 C 183.851562 249.972656 185.84375 249.085938 188.605469 248.203125 C 191.371094 247.320312 194.191406 246.878906 197.066406 246.878906 C 206.023438 246.878906 213.597656 250.46875 219.792969 257.644531 C 225.984375 264.824219 229.082031 273.324219 229.082031 283.152344 C 229.082031 293.3125 225.542969 301.980469 218.464844 309.160156 C 211.386719 316.335938 202.761719 319.980469 192.589844 320.089844 C 183.632812 320.089844 176.441406 317.109375 171.023438 311.148438 C 165.605469 305.183594 162.898438 298.449219 162.898438 290.9375 C 162.898438 288.289062 163.503906 286.191406 164.722656 284.644531 C 165.9375 283.097656 167.210938 282.105469 168.535156 281.664062 C 169.863281 281.222656 171.136719 281 172.351562 281 C 175.117188 281 177.382812 281.9375 179.152344 283.816406 C 180.921875 285.695312 181.804688 287.902344 181.804688 290.441406 Z M 181.804688 290.441406 " fill-opacity="1" fill-rule="nonzero"/><path fill="#000000" d="M 131.214844 470.988281 C 128.230469 470.988281 125.851562 469.992188 124.082031 468.003906 C 122.3125 466.019531 121.429688 463.589844 121.429688 460.71875 C 121.429688 452.878906 124.359375 446.085938 130.21875 440.34375 C 136.082031 434.601562 143.378906 431.730469 152.113281 431.730469 C 162.179688 431.730469 170.582031 434.824219 177.328125 441.007812 C 184.074219 447.191406 187.5 455.195312 187.613281 465.023438 C 187.613281 469.773438 186.507812 474.300781 184.292969 478.605469 C 182.082031 482.914062 179.429688 486.667969 176.332031 489.871094 C 173.238281 493.070312 168.8125 497.15625 163.0625 502.125 C 159.082031 505.550781 153.550781 510.628906 146.476562 517.367188 L 136.6875 526.640625 L 149.296875 526.808594 C 166.65625 526.808594 175.890625 526.53125 176.996094 525.980469 C 177.769531 525.757812 179.097656 520.84375 180.976562 511.238281 L 180.976562 510.738281 L 187.613281 510.738281 L 187.613281 511.238281 C 187.5 511.566406 186.78125 516.59375 185.457031 526.308594 C 184.128906 536.027344 183.300781 541.105469 182.96875 541.546875 L 182.96875 542.046875 L 121.429688 542.046875 L 121.429688 536.910156 C 121.429688 536.136719 121.761719 535.308594 122.421875 534.425781 C 123.085938 533.542969 124.746094 531.609375 127.398438 528.628906 C 130.605469 525.09375 133.371094 522.003906 135.695312 519.351562 C 136.6875 518.25 138.570312 516.207031 141.332031 513.226562 C 144.097656 510.242188 145.976562 508.199219 146.972656 507.097656 C 147.96875 505.992188 149.570312 504.167969 151.785156 501.628906 C 153.996094 499.089844 155.542969 497.214844 156.429688 496 C 157.3125 494.785156 158.585938 493.128906 160.242188 491.027344 C 161.902344 488.929688 163.0625 487.164062 163.726562 485.730469 C 164.390625 484.292969 165.21875 482.691406 166.214844 480.925781 C 167.210938 479.160156 167.929688 477.390625 168.371094 475.625 C 168.8125 473.859375 169.199219 472.203125 169.53125 470.65625 C 169.863281 469.109375 170.03125 467.289062 170.03125 465.191406 C 170.03125 458.234375 168.148438 452.214844 164.390625 447.136719 C 160.628906 442.054688 155.265625 439.515625 148.300781 439.515625 C 144.652344 439.515625 141.445312 440.453125 138.679688 442.332031 C 135.914062 444.207031 133.980469 446.03125 132.875 447.796875 C 131.769531 449.566406 131.214844 450.613281 131.214844 450.945312 C 131.214844 451.054688 131.492188 451.109375 132.042969 451.109375 C 134.035156 451.109375 136.082031 451.882812 138.183594 453.429688 C 140.28125 454.976562 141.332031 457.515625 141.332031 461.046875 C 141.332031 463.808594 140.449219 466.128906 138.679688 468.003906 C 136.910156 469.882812 134.421875 470.875 131.214844 470.988281 Z M 131.214844 470.988281 " fill-opacity="1" fill-rule="nonzero"/><g clip-path="url(#e0fafcc1e3)"><path fill="#000000" d="M 211.996094 445.148438 C 218.1875 436.203125 226.648438 431.730469 237.375 431.730469 C 242.683594 431.730469 247.988281 433.167969 253.296875 436.039062 C 258.605469 438.910156 262.917969 443.988281 266.234375 451.277344 C 270.328125 460.441406 272.375 473.03125 272.375 489.042969 C 272.375 506.15625 269.996094 519.242188 265.242188 528.296875 C 263.027344 532.933594 259.988281 536.636719 256.117188 539.394531 C 252.246094 542.15625 248.875 543.867188 246 544.53125 C 243.125 545.191406 240.304688 545.578125 237.539062 545.691406 C 234.664062 545.691406 231.789062 545.359375 228.914062 544.695312 C 226.039062 544.035156 222.667969 542.265625 218.796875 539.394531 C 214.925781 536.523438 211.886719 532.824219 209.671875 528.296875 C 204.917969 519.242188 202.539062 506.15625 202.539062 489.042969 C 202.539062 469.828125 205.691406 455.195312 211.996094 445.148438 Z M 249.316406 443.160156 C 246 439.625 242.074219 437.859375 237.539062 437.859375 C 232.894531 437.859375 228.914062 439.625 225.597656 443.160156 C 222.832031 446.03125 221.007812 450.007812 220.125 455.085938 C 219.238281 460.164062 218.796875 470.765625 218.796875 486.886719 C 218.796875 504.335938 219.238281 515.820312 220.125 521.339844 C 221.007812 526.863281 223 531.222656 226.09375 534.425781 C 229.191406 537.738281 233.007812 539.394531 237.539062 539.394531 C 241.964844 539.394531 245.722656 537.738281 248.820312 534.425781 C 252.027344 531.113281 254.015625 526.476562 254.789062 520.511719 C 255.566406 514.550781 256.007812 503.339844 256.117188 486.886719 C 256.117188 470.875 255.675781 460.332031 254.789062 455.25 C 253.90625 450.171875 252.082031 446.140625 249.316406 443.160156 Z M 249.316406 443.160156 " fill-opacity="1" fill-rule="nonzero"/></g><path fill="#000000" d="M 96.546875 391.976562 L 295.59375 391.976562 L 295.59375 382.039062 L 96.546875 382.039062 Z M 96.546875 391.976562 " fill-opacity="1" fill-rule="nonzero"/><path fill="#000000" d="M 456.859375 423.613281 C 456.859375 425.824219 455.695312 426.925781 453.375 426.925781 C 452.820312 426.925781 451.605469 426.042969 449.726562 424.277344 C 447.84375 422.511719 442.648438 417.375 434.132812 408.871094 L 416.882812 391.648438 L 399.464844 409.039062 C 387.742188 420.523438 381.71875 426.375 381.386719 426.597656 C 380.941406 426.816406 380.554688 426.925781 380.222656 426.925781 C 379.339844 426.925781 378.566406 426.597656 377.902344 425.933594 C 377.238281 425.269531 376.851562 424.5 376.742188 423.613281 C 376.742188 422.839844 377.515625 421.628906 379.0625 419.96875 C 380.609375 418.3125 385.808594 413.070312 394.65625 404.234375 L 411.90625 387.007812 L 394.65625 369.78125 C 385.699219 360.839844 380.5 355.59375 379.0625 354.046875 C 377.625 352.5 376.851562 351.285156 376.742188 350.402344 C 376.742188 349.410156 377.074219 348.636719 377.734375 348.082031 C 378.398438 347.53125 379.230469 347.253906 380.222656 347.253906 C 380.777344 347.253906 381.164062 347.3125 381.386719 347.421875 C 381.71875 347.640625 387.742188 353.496094 399.464844 364.980469 L 416.882812 382.371094 L 434.132812 365.144531 C 442.648438 356.640625 447.84375 351.507812 449.726562 349.742188 C 451.605469 347.972656 452.820312 347.089844 453.375 347.089844 C 455.695312 347.089844 456.859375 348.195312 456.859375 350.402344 C 456.859375 351.175781 456.304688 352.167969 455.199219 353.382812 C 454.09375 354.597656 448.675781 360.011719 438.941406 369.617188 L 421.691406 387.007812 L 438.941406 404.402344 C 448.230469 413.675781 453.539062 419.03125 454.867188 420.46875 C 456.195312 421.902344 456.859375 422.953125 456.859375 423.613281 Z M 456.859375 423.613281 " fill-opacity="1" fill-rule="nonzero"/><g clip-path="url(#da57732b18)"><path fill="#000000" d="M 631.390625 316.445312 C 629.398438 316.117188 622.265625 315.949219 609.992188 315.949219 C 597.164062 315.949219 589.753906 316.117188 587.765625 316.445312 L 586.273438 316.445312 L 586.273438 308.828125 L 591.414062 308.828125 C 593.625 308.828125 595.117188 308.828125 595.890625 308.828125 C 596.667969 308.828125 597.605469 308.71875 598.710938 308.496094 C 599.816406 308.277344 600.59375 308 601.035156 307.667969 C 601.476562 307.335938 601.863281 306.894531 602.195312 306.34375 C 602.304688 306.121094 602.363281 303.140625 602.363281 297.398438 L 602.363281 289.117188 L 559.402344 289.117188 L 559.402344 281.496094 L 584.445312 243.234375 C 601.367188 217.617188 609.9375 204.753906 610.15625 204.640625 C 610.378906 204.421875 611.539062 204.308594 613.640625 204.308594 L 616.625 204.308594 L 617.621094 205.304688 L 617.621094 281.496094 L 632.882812 281.496094 L 632.882812 289.117188 L 617.621094 289.117188 L 617.621094 297.5625 C 617.621094 302.09375 617.621094 304.742188 617.621094 305.515625 C 617.621094 306.289062 617.953125 306.949219 618.617188 307.503906 C 619.5 308.277344 622.652344 308.71875 628.070312 308.828125 L 632.882812 308.828125 L 632.882812 316.445312 Z M 603.355469 281.496094 L 603.355469 226.175781 L 567.03125 281.332031 L 585.109375 281.496094 Z M 603.355469 281.496094 " fill-opacity="1" fill-rule="nonzero"/></g><g clip-path="url(#8a5fb5ae52)"><path fill="#000000" d="M 581.960938 516.039062 C 581.960938 518.691406 581.074219 520.898438 579.304688 522.664062 C 577.535156 524.433594 575.378906 525.316406 572.835938 525.316406 L 571.675781 525.316406 C 576.761719 534.039062 583.507812 538.402344 591.910156 538.402344 C 599.652344 538.402344 605.292969 535.089844 608.832031 528.464844 C 610.933594 524.820312 611.980469 517.753906 611.980469 507.261719 C 611.980469 495.886719 610.488281 488.214844 607.503906 484.238281 C 604.628906 480.59375 601.421875 478.773438 597.882812 478.773438 L 596.886719 478.773438 C 588.261719 478.773438 581.738281 482.527344 577.316406 490.035156 C 576.871094 490.808594 576.484375 491.25 576.152344 491.359375 C 575.820312 491.472656 574.992188 491.582031 573.664062 491.691406 C 571.785156 491.691406 570.734375 491.359375 570.515625 490.699219 C 570.292969 490.257812 570.183594 480.59375 570.183594 461.710938 L 570.183594 440.34375 C 570.183594 434.824219 570.457031 432.0625 571.011719 432.0625 C 571.234375 431.839844 571.453125 431.730469 571.675781 431.730469 C 571.785156 431.730469 572.945312 432.171875 575.160156 433.054688 C 577.371094 433.9375 580.410156 434.824219 584.28125 435.707031 C 588.152344 436.589844 592.296875 437.03125 596.722656 437.03125 C 604.574219 437.03125 612.09375 435.484375 619.28125 432.394531 C 620.164062 431.953125 620.882812 431.730469 621.4375 431.730469 C 622.320312 431.730469 622.765625 432.726562 622.765625 434.710938 L 622.765625 436.867188 C 613.695312 447.578125 602.363281 452.933594 588.761719 452.933594 C 585.332031 452.933594 582.234375 452.601562 579.472656 451.9375 L 577.8125 451.609375 L 577.8125 480.097656 C 579.914062 478.550781 581.570312 477.335938 582.789062 476.453125 C 584.003906 475.570312 585.996094 474.6875 588.761719 473.804688 C 591.523438 472.917969 594.34375 472.476562 597.21875 472.476562 C 606.175781 472.476562 613.75 476.066406 619.945312 483.246094 C 626.136719 490.421875 629.234375 498.925781 629.234375 508.753906 C 629.234375 518.910156 625.695312 527.578125 618.617188 534.757812 C 611.539062 541.933594 602.914062 545.578125 592.742188 545.691406 C 583.785156 545.691406 576.597656 542.707031 571.175781 536.746094 C 565.757812 530.78125 563.050781 524.046875 563.050781 516.539062 C 563.050781 513.886719 563.65625 511.789062 564.875 510.242188 C 566.089844 508.695312 567.363281 507.703125 568.6875 507.261719 C 570.015625 506.820312 571.289062 506.597656 572.503906 506.597656 C 575.269531 506.597656 577.535156 507.539062 579.304688 509.414062 C 581.074219 511.292969 581.960938 513.5 581.960938 516.039062 Z M 581.960938 516.039062 " fill-opacity="1" fill-rule="nonzero"/></g><path fill="#000000" d="M 538.167969 391.976562 L 654.28125 391.976562 L 654.28125 382.039062 L 538.167969 382.039062 Z M 538.167969 391.976562 " fill-opacity="1" fill-rule="nonzero"/></svg>