<?xml version="1.0" encoding="UTF-8" standalone="no"?>
<!-- Created with Inkscape (http://www.inkscape.org/) -->

<svg
   xmlns:dc="http://purl.org/dc/elements/1.1/"
   xmlns:cc="http://creativecommons.org/ns#"
   xmlns:rdf="http://www.w3.org/1999/02/22-rdf-syntax-ns#"
   xmlns:svg="http://www.w3.org/2000/svg"
   xmlns="http://www.w3.org/2000/svg"
   xmlns:sodipodi="http://sodipodi.sourceforge.net/DTD/sodipodi-0.dtd"
   xmlns:inkscape="http://www.inkscape.org/namespaces/inkscape"
   version="1.1"
   id="svg5294"
   xml:space="preserve"
   width="800"
   height="800"
   viewBox="0 0 800 800"
   sodipodi:docname="wasp-bee-publicdomainvectors.org.svg"
   inkscape:version="0.92.4 (5da689c313, 2019-01-14)"><metadata
     id="metadata5300"><rdf:RDF><cc:Work
         rdf:about=""><dc:format>image/svg+xml</dc:format><dc:type
           rdf:resource="http://purl.org/dc/dcmitype/StillImage" /><dc:title></dc:title></cc:Work></rdf:RDF></metadata><defs
     id="defs5298"><clipPath
       clipPathUnits="userSpaceOnUse"
       id="clipPath5310"><path
         d="M 0,600 H 600 V 0 H 0 Z"
         id="path5308"
         inkscape:connector-curvature="0" /></clipPath></defs><sodipodi:namedview
     pagecolor="#ffffff"
     bordercolor="#666666"
     borderopacity="1"
     objecttolerance="10"
     gridtolerance="10"
     guidetolerance="10"
     inkscape:pageopacity="0"
     inkscape:pageshadow="2"
     inkscape:window-width="1920"
     inkscape:window-height="1018"
     id="namedview5296"
     showgrid="false"
     inkscape:zoom="0.82658416"
     inkscape:cx="437.28814"
     inkscape:cy="371.18644"
     inkscape:window-x="-8"
     inkscape:window-y="-8"
     inkscape:window-maximized="1"
     inkscape:current-layer="g5302" /><g
     id="g5302"
     inkscape:groupmode="layer"
     inkscape:label="wasp-bee-publicdomainvectors.org"
     transform="matrix(1.3333333,0,0,-1.3333333,0,800)"><g
       id="g5304"><g
         id="g5306"
         clip-path="url(#clipPath5310)"><path
           d="m 280.188,158.712 h 2.774 l -2.774,2.268 z"
           style="fill:#fbb03b;fill-opacity:1;fill-rule:nonzero;stroke:none"
           id="path5312"
           inkscape:connector-curvature="0" /><path
           d="m 334.121,158.712 v 2.683 l -2.746,-2.683 z"
           style="fill:#fbb03b;fill-opacity:1;fill-rule:nonzero;stroke:none"
           id="path5314"
           inkscape:connector-curvature="0" /><path
           d="m 516.912,354.709 -34.162,25.769 0.642,29.084 43.204,-11.984 z m -34.455,-9.493 -3.377,-0.512 0.018,0.203 -52.151,4.515 51.348,24.522 32.396,-24.437 z m -8.746,-8.356 -6.668,-33.493 -0.996,-0.096 0.41,0.856 -86.227,41.41 93.596,-8.102 z m -50.588,-37.682 -43.752,38.009 73.279,-35.192 z m 52.31,107.81 -0.57,-25.929 -63.433,-30.294 -46.461,4.022 -0.082,1.875 z m -198.89,-50.8 14.965,25.921 h 29.931 l 14.965,-25.921 z m 75.652,-116.292 h -91.261 l -0.522,21.065 h 91.262 z m 0.938,-37.833 -1.026,-1.003 h -90.211 l -0.522,21.064 h 91.263 z m -45.221,-43.351 -25.748,21.063 h 48.164 l -21.555,-21.063 z m 43.024,132.064 0.314,-12.701 h -91.263 l -0.171,6.897 14.498,14.168 h 66.399 z m -157.336,8.565 -32.379,1.695 78.026,41.522 z m -52.28,35.992 89.321,11.593 -81.56,-43.403 -7.638,31.302 z m -39.106,10.734 28.975,25.032 56.522,-21.78 -52.57,-6.823 -2.793,0.303 z m -16.202,47.158 38.479,12.469 1.841,-28.355 -29.173,-25.201 z m 163.31,-33.962 v -1.948 l -45.177,-5.863 -69.967,26.96 -1.828,28.174 z m 231.762,61.868 -126.426,-57.553 -5.148,8.916 38.879,19.354 3.625,1.804 -1.686,3.146 -31.848,59.445 23.659,-58.721 -39.715,-12.756 -9.014,15.61 h -7.562 c 0.006,0.156 0.029,0.307 0.029,0.463 0,4.137 -2.049,7.886 -5.367,10.661 l 32.966,54.177 -37.251,-51.478 c -2.868,1.333 -6.193,2.11 -9.75,2.11 -2.864,0 -5.573,-0.508 -8.02,-1.395 l -36.734,50.763 32.258,-53.013 c -4.221,-2.837 -6.907,-7.079 -6.907,-11.825 0,-0.156 0.024,-0.307 0.03,-0.463 h -7.566 l -8.276,-14.335 -35.914,11.536 20.537,58.666 -28.621,-59.596 -1.474,-3.067 3.48,-1.732 35.221,-17.534 -4.635,-8.029 v 0.078 l -129.379,52.341 -57.256,-18.553 17.202,-63.399 40.791,-4.423 9.952,-40.791 56.397,-2.95 59.899,56.711 3.101,-5.37 -48.03,-50.525 -2.113,-2.221 0.532,-2.459 21.455,-99.133 -10.694,97.778 47.9,40.882 2.813,-4.871 -28.572,-27.921 2.548,-102.84 33.788,-27.639 2.774,-2.268 26.354,-21.559 22.059,21.559 2.746,2.683 34.975,34.18 -2.547,102.839 -25.899,21.186 3.309,5.731 50.387,-38.977 -13.614,-92.974 24.303,94.197 0.689,2.673 -2.392,2.299 -50.357,48.396 2.007,3.478 64.643,-56.159 56.219,5.362 8.197,41.178 40.564,6.164 14.477,64.077 z"
           style="fill:#000000;fill-opacity:1;fill-rule:nonzero;stroke:none"
           id="path5316"
           inkscape:connector-curvature="0" /></g></g></g></svg>