<?xml version="1.0" encoding="UTF-8" standalone="no"?>
<!-- Created with Inkscape (http://www.inkscape.org/) -->

<svg
   xmlns:dc="http://purl.org/dc/elements/1.1/"
   xmlns:cc="http://creativecommons.org/ns#"
   xmlns:rdf="http://www.w3.org/1999/02/22-rdf-syntax-ns#"
   xmlns:svg="http://www.w3.org/2000/svg"
   xmlns="http://www.w3.org/2000/svg"
   xmlns:sodipodi="http://sodipodi.sourceforge.net/DTD/sodipodi-0.dtd"
   xmlns:inkscape="http://www.inkscape.org/namespaces/inkscape"
   width="744.09448819"
   height="1052.3622047"
   id="svg4083"
   version="1.1"
   inkscape:version="0.48+devel r9772"
   sodipodi:docname="New document 13">
  <defs
     id="defs4085" />
  <sodipodi:namedview
     id="base"
     pagecolor="#ffffff"
     bordercolor="#666666"
     borderopacity="1.0"
     inkscape:pageopacity="0.0"
     inkscape:pageshadow="2"
     inkscape:zoom="0.66136926"
     inkscape:cx="557.54396"
     inkscape:cy="526.18109"
     inkscape:document-units="px"
     inkscape:current-layer="layer1"
     showgrid="false"
     inkscape:window-width="1440"
     inkscape:window-height="851"
     inkscape:window-x="0"
     inkscape:window-y="1"
     inkscape:window-maximized="1" />
  <metadata
     id="metadata4088">
    <rdf:RDF>
      <cc:Work
         rdf:about="">
        <dc:format>image/svg+xml</dc:format>
        <dc:type
           rdf:resource="http://purl.org/dc/dcmitype/StillImage" />
        <dc:title></dc:title>
      </cc:Work>
    </rdf:RDF>
  </metadata>
  <g
     inkscape:label="Layer 1"
     inkscape:groupmode="layer"
     id="layer1">
    <g
       id="g4139">
      <path
         id="path4125"
         d="m 287.8092,855.48529 c 3.96575,-13.08728 7.69008,-45.21057 8.27633,-71.38511 l 1.06574,-47.59007 30.05684,0.48643 c 33.23224,0.53772 82.65639,18.5792 82.65639,30.17234 0,10.35491 -67.48472,79.31096 -94.72691,96.79231 -32.72842,21.00175 -35.95753,20.00025 -27.32839,-8.47579 z"
         style="fill:#333333"
         inkscape:connector-curvature="0" />
      <path
         id="path4123"
         d="m 402.35019,715.27236 c -11.02071,-4.20975 -39.76262,-8.75551 -63.87072,-10.10171 l -43.83304,-2.44768 0,-17.14812 c 0,-21.964 16.6586,-39.07285 45.76191,-46.99895 25.36576,-6.90821 108.0081,-3.27846 116.39875,5.11234 7.47321,7.47318 -16.52058,77.47987 -26.9047,78.50002 -4.13271,0.40626 -16.53128,-2.70612 -27.5522,-6.9159 z"
         style="fill:#f8a900;fill-opacity:1"
         inkscape:connector-curvature="0" />
      <path
         id="path4121"
         d="m 295.09551,606.31644 c 55.3066,-77.24297 196.9029,-138.70826 302.32457,-131.23546 51.01574,3.61622 75.14523,11.49024 96.27235,31.41581 13.69042,12.91161 16.74103,19.52997 16.74103,36.32042 0,16.70533 -3.20205,23.73373 -17.18046,37.71222 -36.41626,36.41624 -104.25902,44.10975 -240.80788,27.3081 -84.96785,-10.45485 -113.51867,-7.07029 -169.8734,20.13746 -2.50819,1.21099 3.12738,-8.53536 12.52379,-21.65855 z"
         style="fill:#333333"
         inkscape:connector-curvature="0" />
      <path
         id="path4119"
         d="m 277.1396,570.8437 c 15.97041,-73.85755 62.45029,-156.04595 123.13909,-217.74199 51.07468,-51.92216 75.26206,-69.95426 132.6582,-98.89891 120.42701,-60.73065 218.71591,-40.86648 197.40043,39.89453 -4.27891,16.21143 -14.14264,29.92557 -39.44946,54.848 -41.03161,40.40842 -88.11264,64.3961 -185.84318,94.68679 -109.70708,34.00263 -158.511,61.1742 -207.25513,115.38962 -22.0343,24.50734 -23.58477,25.395 -20.64995,11.82196 z"
         style="fill:#f8a900;fill-opacity:1"
         inkscape:connector-curvature="0" />
      <path
         id="path4115"
         d="m 149.32451,489.79315 c -12.08906,-39.0485 -14.25077,-98.52196 -4.73542,-130.28138 7.57816,-25.2937 5.22267,-28.96676 -31.44997,-49.04123 C 92.739368,299.30378 77.923597,295.41876 47.835868,293.34657 2.0867999,290.19576 -2.7155226,280.48754 41.720066,280.98309 c 32.551208,0.36304 72.505834,15.79386 99.820364,38.55152 l 14.71163,12.2573 12.45656,-14.80377 c 12.42942,-14.77166 12.43655,-14.84094 3.22825,-31.93966 -5.07556,-9.42474 -20.19105,-27.3903 -33.58999,-39.92344 C 116.79094,224.962 99.690166,215.26989 47.9295,193.87969 32.371464,187.45031 30.078869,179.20206 42.522614,174.42695 c 12.469292,-4.78492 65.589096,24.75553 95.057456,52.8624 14.05975,13.41015 31.672,34.80604 39.13832,47.54644 l 13.57526,23.16434 15.85756,-8.33158 c 23.30203,-12.24276 64.33154,-11.51176 81.85263,1.45833 55.70136,41.23304 48.02973,112.56055 -18.75631,174.39277 -28.00946,25.93177 -84.25553,58.08751 -101.6054,58.08751 -5.3167,0 -11.22667,-10.90971 -18.31762,-33.81401 z"
         style="fill:#333333"
         inkscape:connector-curvature="0" />
    </g>
  </g>
</svg>
