<svg xmlns="http://www.w3.org/2000/svg" xmlns:xlink="http://www.w3.org/1999/xlink" version="1.1" x="0" y="0" width="600" height="310" viewBox="0, 0, 600, 310">
  <g id="Layer_1">
    <path d="M237.243,240.299 L230.212,210.487 L3.5,279.372 L9.372,304.655 L237.243,240.299" fill="#5F605D"/>
    <path d="M230.212,210.487 L362.656,231.91 L369.657,255.291 L237.243,240.299 L230.212,210.487" fill="#90918D"/>
    <path d="M369.657,255.291 L174.759,304.655 L9.372,304.655 L237.243,240.299 L369.657,255.291" fill="#161715"/>
    <path d="M266.449,259.174 C277.13,260.08 278.854,262.471 271.136,264.559 C263.417,266.647 248.861,267.753 237.775,266.994 C226.688,266.233 223.559,263.776 231.684,261.545 C239.809,259.313 255.769,258.27 266.449,259.174 z M327.875,254.89 C337.002,255.821 337.815,258.165 330.336,260.165 C322.855,262.166 309.617,263.168 300.105,262.368 C290.594,261.567 288.672,259.162 296.535,257.032 C304.399,254.899 318.747,253.959 327.875,254.89 z M198.261,263.92 C210.786,264.786 213.69,267.227 205.725,269.42 C197.759,271.608 181.623,272.825 168.663,272.117 C155.701,271.408 151.141,268.912 159.536,266.565 C167.933,264.217 185.735,263.051 198.261,263.92 z M230.007,281.218 C240.458,281.695 242.637,283.596 235.569,285.485 C228.502,287.371 214.614,288.619 203.826,288.258 C193.036,287.895 189.666,285.976 197.065,283.972 C204.466,281.969 219.556,280.745 230.007,281.218 z M165.527,286.688 C177.602,287.096 180.769,289.017 173.495,290.984 C166.22,292.949 150.99,294.322 138.557,294.04 C126.122,293.757 121.46,291.837 129.087,289.739 C136.714,287.64 153.453,286.28 165.527,286.688 z M94.159,292.74 C108.156,293.059 112.573,294.992 105.091,297.044 C97.607,299.095 80.771,300.596 66.412,300.416 C52.051,300.234 45.868,298.323 53.72,296.129 C61.572,293.936 80.161,292.419 94.159,292.74" fill="#B4B4B0"/>
    <path d="M361.487,109.331 L200.712,278.808 L211.296,304.655 L370.977,134.005 L361.487,109.331" fill="#5F605D"/>
    <path d="M361.487,109.331 L465.579,131.593 L482.541,155.407 L370.977,134.005 L361.487,109.331" fill="#90918D"/>
    <path d="M482.541,155.407 L344.062,304.655 L211.296,304.655 L370.977,134.005 L482.541,155.407" fill="#161715"/>
    <path d="M343.986,277.106 C354.068,277.345 357.489,282.163 352.073,287.866 C346.658,293.569 334.326,298.173 324.026,298.192 C313.73,298.208 309.504,293.431 315.136,287.465 C320.767,281.5 333.903,276.868 343.986,277.106 z M382.792,236.101 C392.452,236.831 395.478,242.076 390.025,247.827 C384.574,253.579 372.521,257.856 362.642,257.384 C352.763,256.914 348.951,251.665 354.623,245.653 C360.294,239.642 373.132,235.371 382.792,236.101 z M268.385,275.344 C280.37,275.628 284.834,280.877 278.993,287.088 C273.149,293.299 259.028,298.3 246.792,298.321 C234.558,298.341 229.042,293.128 235.144,286.613 C241.242,280.095 256.398,275.06 268.385,275.344 z M416.607,200.349 C425.89,201.512 428.617,207.123 423.127,212.915 C417.637,218.708 405.839,222.701 396.327,221.789 C386.816,220.876 383.364,215.202 389.078,209.155 C394.79,203.107 407.326,199.185 416.607,200.349 z M456,158.719 C464.84,160.396 467.194,166.438 461.652,172.278 C456.112,178.121 444.621,181.744 435.552,180.329 C426.484,178.912 423.42,172.802 429.188,166.69 C434.958,160.579 447.159,157.04 456,158.719 z M346.964,191.599 C358.011,192.987 361.676,199.18 355.738,205.488 C349.801,211.797 336.318,216.079 325.007,214.995 C313.695,213.909 309.073,207.642 315.271,201.03 C321.469,194.418 335.918,190.211 346.964,191.599 z M392.2,143.381 C402.699,145.417 405.892,152.175 399.896,158.552 C393.901,164.929 380.799,168.747 370.034,167.025 C359.269,165.303 355.129,158.452 361.394,151.753 C367.659,145.053 381.7,141.346 392.2,143.381 z M312.87,227.932 C324.326,228.845 328.313,234.645 322.423,240.91 C316.532,247.173 302.771,251.771 291.059,251.174 C279.344,250.577 274.328,244.773 280.481,238.193 C286.634,231.614 301.41,227.018 312.87,227.932" fill="#C7C7C2"/>
    <path d="M415.982,48.908 L392.432,47.912 L331.178,293.726 L358.578,304.655 L415.982,48.908" fill="#5F605D"/>
    <path d="M415.982,48.908 L516.952,80.388 L482.374,304.655 L358.578,304.655 L415.982,48.908" fill="#161715"/>
    <path d="M462.421,104.499 C471.213,106.672 476.79,115.148 475.258,123.707 C473.725,132.266 465.483,137.937 456.444,136.087 C447.403,134.236 441.193,125.291 442.975,116.409 C444.757,107.526 453.632,102.324 462.421,104.499 z M439.69,224.468 C429.945,223.618 419.986,231.083 417.909,241.431 C415.834,251.781 422.679,260.712 432.731,261.124 C442.782,261.537 451.974,253.629 453.75,243.73 C455.525,233.831 449.435,225.32 439.69,224.468 z M466.031,261.215 C475.247,261.613 481.11,269.749 479.519,279.659 C477.929,289.569 469.277,297.751 459.793,297.806 C450.307,297.863 443.782,289.389 445.649,279.024 C447.518,268.66 456.816,260.818 466.031,261.215 z M477.365,194.679 C486.085,195.845 491.682,203.999 490.209,213.151 C488.737,222.302 480.578,229.291 471.61,228.503 C462.641,227.718 456.441,219.18 458.16,209.638 C459.88,200.097 468.645,193.513 477.365,194.679 z M396.9,258.296 C407.871,258.758 414.589,267.633 412.435,278.421 C410.28,289.212 399.818,298.161 388.482,298.226 C377.147,298.295 369.546,289.004 372.063,277.686 C374.582,266.369 385.928,257.836 396.9,258.296 z M486.493,141.101 C494.833,142.819 500.206,150.955 498.827,159.541 C497.448,168.127 489.666,174.153 481.098,172.748 C472.53,171.343 466.601,162.782 468.201,153.872 C469.803,144.962 478.152,139.384 486.493,141.101 z M496.317,83.363 C504.255,85.644 509.406,93.736 508.122,101.724 C506.838,109.712 499.464,114.748 491.323,112.744 C483.183,110.74 477.515,102.215 479.001,93.95 C480.485,85.686 488.382,81.084 496.317,83.363 z M424.286,128.287 C434.093,130.303 440.194,139.151 438.358,148.383 C436.522,157.616 427.211,164.041 417.103,162.402 C406.992,160.761 400.17,151.413 402.311,141.79 C404.448,132.167 414.48,126.269 424.286,128.287 z M438.078,62.787 C447.317,65.493 453.108,74.338 451.413,82.844 C449.717,91.351 440.992,96.496 431.48,94.123 C421.97,91.751 415.513,82.453 417.478,73.636 C419.44,64.82 428.841,60.08 438.078,62.787 z M412.979,181.944 C423.263,183.352 429.622,192.253 427.657,202.095 C425.69,211.939 415.904,219.38 405.296,218.415 C394.688,217.447 387.55,208.079 389.839,197.794 C392.129,187.509 402.694,180.535 412.979,181.944" fill="#C7C7C2"/>
    <path d="M430.343,4.545 L414.034,19.549 L432.953,304.655 L474.274,304.655 L430.343,4.545" fill="#5F605D"/>
    <path d="M554.301,58.043 L430.343,4.545 L458.617,304.655 L596.056,304.655 L554.301,58.043" fill="#161715"/>
    <path d="M475.559,157.253 C463.421,154.631 453.687,161.054 454.726,172.081 C455.764,183.107 467.392,194.011 479.764,196.009 C492.137,198.007 500.37,190.866 499.102,180.475 C497.833,170.083 487.696,159.875 475.559,157.253 z M484.926,243.489 C497.575,244.647 508.179,254.646 509.587,266.221 C510.994,277.799 502.511,287.144 489.618,286.77 C476.726,286.399 464.495,275.778 463.331,263.416 C462.165,251.051 472.278,242.329 484.926,243.489 z M549.878,173.473 C540.248,171.348 533.075,177.345 534.504,187.219 C535.934,197.097 545.546,206.656 555.3,208.256 C565.055,209.855 571.19,203.325 569.631,193.964 C568.072,184.605 559.508,175.599 549.878,173.473 z M561.906,250.64 C571.821,251.58 580.709,260.445 582.423,270.743 C584.14,281.04 577.949,289.33 567.897,289.04 C557.847,288.748 547.821,279.43 546.244,268.486 C544.665,257.541 551.991,249.701 561.906,250.64 z M461.952,32.465 C450.592,28.002 441.478,31.454 442.344,40.673 C443.214,49.893 453.938,61.026 465.502,65.042 C477.065,69.057 484.921,64.813 483.845,56.052 C482.767,47.292 473.313,36.928 461.952,32.465 z M469.837,104.79 C458.023,101.35 448.538,106.429 449.503,116.683 C450.469,126.937 461.728,137.952 473.769,140.825 C485.808,143.698 493.88,137.822 492.694,128.135 C491.51,118.449 481.649,108.23 469.837,104.79 z M532.162,60.06 C522.98,56.452 516.08,60.044 517.298,68.449 C518.515,76.856 527.528,86.629 536.828,89.873 C546.131,93.119 552.123,88.928 550.782,80.885 C549.441,72.842 541.345,63.668 532.162,60.06 z M542.477,126.03 C533.034,123.262 525.958,128.152 527.3,137.394 C528.639,146.634 537.994,156.331 547.567,158.66 C557.141,160.989 563.211,155.442 561.745,146.662 C560.28,137.882 551.917,128.796 542.477,126.03 z M480.118,199.189 C492.265,201.089 502.873,211.314 504.204,222.162 C505.557,233.209 496.941,241.311 484.556,240.107 C471.688,238.859 460.011,228.184 458.902,216.425 C457.813,204.848 467.484,197.247 480.118,199.189 z M555.754,211.119 C565.371,212.653 574.249,221.676 575.872,231.427 C577.52,241.313 571.188,248.63 561.446,247.664 C551.385,246.668 541.737,237.258 540.23,226.795 C538.735,216.495 545.823,209.561 555.754,211.119 z M465.797,67.713 C477.179,71.618 487.04,82.048 488.169,91.217 C489.308,100.459 481.122,105.38 469.534,101.967 C457.515,98.41 446.751,87.426 445.831,77.683 C444.922,68.018 454.011,63.672 465.797,67.713 z M537.203,92.301 C546.375,95.465 554.749,104.692 556.144,113.06 C557.551,121.494 551.365,126.229 542.069,123.465 C532.495,120.621 523.469,110.963 522.178,102.122 C520.909,93.351 527.76,89.046 537.203,92.301" fill="#FFFFFE"/>
    <path d="M458.617,304.655 L446.083,145.626 L430.343,4.545 L442.179,146.091 L458.617,304.655" fill="#ADADA9"/>
    <path d="M415.982,48.908 L391.235,166.778 L358.578,304.655 L388.095,165.953 L415.982,48.908" fill="#ADADA9"/>
    <path d="M211.296,304.655 L293.172,214.606 L370.977,134.005 L295.619,217.135 L211.296,304.655" fill="#ADADA9"/>
    <path d="M9.372,304.655 L120.449,271.896 L237.243,240.299 L121.347,274.178 L9.372,304.655" fill="#ADADA9"/>
  </g>
</svg>