<svg xmlns="http://www.w3.org/2000/svg" xmlns:xlink="http://www.w3.org/1999/xlink" width="1000" zoomAndPan="magnify" viewBox="0 0 750 749.999995" height="1000" preserveAspectRatio="xMidYMid meet" version="1.0"><defs><clipPath id="be33fbf259"><path d="M 157 351 L 199 351 L 199 420.609375 L 157 420.609375 Z M 157 351 " clip-rule="nonzero"/></clipPath><clipPath id="8199d61528"><path d="M 236 350 L 280 350 L 280 420.609375 L 236 420.609375 Z M 236 350 " clip-rule="nonzero"/></clipPath><clipPath id="0aca6ee04f"><path d="M 285 351 L 327 351 L 327 420.609375 L 285 420.609375 Z M 285 351 " clip-rule="nonzero"/></clipPath><clipPath id="be08ddcd20"><path d="M 506 351 L 549 351 L 549 420.609375 L 506 420.609375 Z M 506 351 " clip-rule="nonzero"/></clipPath><clipPath id="6af5177eb7"><path d="M 559 329.390625 L 591 329.390625 L 591 379 L 559 379 Z M 559 329.390625 " clip-rule="nonzero"/></clipPath></defs><rect x="-75" width="900" fill="#ffffff" y="-74.999999" height="899.999994" fill-opacity="1"/><rect x="-75" width="900" fill="#ffffff" y="-74.999999" height="899.999994" fill-opacity="1"/><g clip-path="url(#be33fbf259)"><path fill="#000000" d="M 157.542969 387.140625 C 157.542969 376.28125 160.238281 367.691406 165.628906 361.363281 C 171.019531 355.035156 177.011719 351.871094 183.601562 351.871094 C 188.195312 351.871094 191.488281 353.070312 193.484375 355.46875 C 195.480469 357.867188 196.480469 360.53125 196.480469 363.460938 C 196.480469 365.125 196.015625 366.457031 195.082031 367.457031 C 194.152344 368.457031 192.851562 368.957031 191.1875 368.957031 C 189.65625 368.957031 188.394531 368.488281 187.394531 367.558594 C 186.398438 366.625 185.898438 365.324219 185.898438 363.660156 C 185.898438 360.730469 187.460938 358.964844 190.589844 358.367188 C 189.125 356.898438 187.0625 356.066406 184.398438 355.867188 C 179.675781 355.867188 175.78125 357.867188 172.71875 361.863281 C 169.589844 366.257812 168.027344 372.984375 168.027344 382.042969 L 168.125 382.441406 C 168.457031 382.042969 168.726562 381.609375 168.925781 381.144531 C 171.652344 377.148438 175.214844 375.148438 179.605469 375.148438 L 180.007812 375.148438 C 183.070312 375.148438 185.765625 375.78125 188.09375 377.046875 C 189.691406 377.980469 191.289062 379.3125 192.886719 381.042969 C 194.484375 382.777344 195.78125 384.675781 196.78125 386.738281 C 198.179688 390.003906 198.875 393.566406 198.875 397.429688 L 198.875 399.226562 C 198.875 400.757812 198.710938 402.191406 198.378906 403.523438 C 197.644531 407.453125 195.515625 411.285156 191.988281 415.011719 C 188.460938 418.742188 184 420.609375 178.609375 420.609375 C 176.746094 420.609375 174.949219 420.339844 173.21875 419.808594 C 171.488281 419.277344 169.625 418.277344 167.625 416.8125 C 165.628906 415.347656 163.933594 413.382812 162.535156 410.917969 C 161.136719 408.453125 159.9375 405.222656 158.941406 401.226562 C 157.941406 397.230469 157.476562 392.535156 157.542969 387.140625 Z M 179.007812 378.746094 C 177.011719 378.746094 175.28125 379.3125 173.816406 380.445312 C 172.351562 381.578125 171.21875 383.074219 170.421875 384.941406 C 169.625 386.804688 169.058594 388.703125 168.726562 390.636719 C 168.390625 392.566406 168.191406 394.632812 168.125 396.828125 C 168.125 402.359375 168.523438 406.320312 169.324219 408.71875 C 170.121094 411.117188 171.386719 413.046875 173.117188 414.515625 C 174.714844 415.710938 176.480469 416.3125 178.410156 416.3125 C 181.804688 416.3125 184.398438 415.046875 186.195312 412.515625 C 187.0625 411.316406 187.660156 409.816406 187.992188 408.019531 C 188.328125 406.222656 188.492188 402.722656 188.492188 397.53125 C 188.492188 392.199219 188.328125 388.636719 187.992188 386.839844 C 187.660156 385.039062 187.0625 383.542969 186.195312 382.34375 C 184.398438 379.945312 182.003906 378.746094 179.007812 378.746094 Z M 179.007812 378.746094 " fill-opacity="1" fill-rule="nonzero"/></g><path fill="#000000" d="M 211.058594 412.414062 C 211.058594 410.816406 211.625 409.417969 212.753906 408.21875 C 213.886719 407.019531 215.316406 406.421875 217.046875 406.421875 C 218.644531 406.421875 220.042969 406.953125 221.242188 408.019531 C 222.441406 409.085938 223.070312 410.515625 223.136719 412.316406 C 223.136719 413.980469 222.574219 415.414062 221.441406 416.613281 C 220.308594 417.8125 218.878906 418.410156 217.148438 418.410156 C 215.417969 418.410156 213.984375 417.84375 212.855469 416.710938 C 211.722656 415.578125 211.125 414.148438 211.058594 412.414062 Z M 211.058594 412.414062 " fill-opacity="1" fill-rule="nonzero"/><g clip-path="url(#8199d61528)"><path fill="#000000" d="M 236.515625 372.652344 C 236.582031 372.519531 237.148438 368.890625 238.214844 361.761719 L 239.8125 351.070312 C 239.8125 350.9375 240.476562 350.871094 241.808594 350.871094 L 243.804688 350.871094 L 243.804688 351.273438 C 243.804688 351.9375 244.304688 352.503906 245.304688 352.96875 C 246.300781 353.4375 248.03125 353.734375 250.496094 353.871094 C 252.957031 354.003906 258.582031 354.070312 267.367188 354.070312 L 279.449219 354.070312 L 279.449219 357.964844 L 272.660156 367.257812 C 272.0625 368.054688 271.0625 369.386719 269.664062 371.253906 C 268.265625 373.117188 267.367188 374.351562 266.96875 374.949219 C 266.570312 375.550781 265.871094 376.613281 264.871094 378.148438 C 263.875 379.679688 263.207031 380.878906 262.875 381.742188 C 262.542969 382.609375 262.078125 383.84375 261.476562 385.441406 C 260.878906 387.039062 260.445312 388.570312 260.179688 390.035156 C 259.914062 391.5 259.648438 393.300781 259.382812 395.429688 C 259.113281 397.5625 258.914062 399.828125 258.78125 402.226562 C 258.648438 404.621094 258.550781 407.355469 258.480469 410.417969 C 258.480469 411.351562 258.480469 412.28125 258.480469 413.214844 C 258.480469 414.148438 258.449219 414.945312 258.382812 415.613281 L 258.382812 416.511719 C 258.117188 417.644531 257.484375 418.609375 256.484375 419.410156 C 255.488281 420.207031 254.355469 420.609375 253.089844 420.609375 C 252.359375 420.609375 251.660156 420.507812 250.996094 420.308594 C 250.328125 420.109375 249.628906 419.476562 248.898438 418.410156 C 248.164062 417.34375 247.800781 416.011719 247.800781 414.414062 C 247.800781 403.890625 251.027344 392.96875 257.484375 381.644531 C 258.816406 379.511719 261.609375 375.484375 265.871094 369.554688 L 270.464844 363.261719 L 261.179688 363.261719 C 249.597656 363.261719 243.507812 363.460938 242.90625 363.859375 C 242.507812 364.058594 242.140625 364.859375 241.808594 366.257812 C 241.476562 367.65625 241.144531 369.089844 240.808594 370.554688 L 240.511719 372.652344 L 240.511719 372.953125 L 236.515625 372.953125 Z M 236.515625 372.652344 " fill-opacity="1" fill-rule="nonzero"/></g><g clip-path="url(#0aca6ee04f)"><path fill="#000000" d="M 287.9375 376.75 C 287.9375 376.75 287.9375 374.183594 287.9375 369.054688 C 287.9375 363.925781 289.734375 359.796875 293.328125 356.667969 C 296.921875 353.535156 301.046875 351.9375 305.707031 351.871094 C 310.433594 351.871094 314.625 353.269531 318.289062 356.066406 C 321.949219 358.863281 323.777344 362.496094 323.777344 366.957031 C 323.777344 368.957031 323.414062 370.820312 322.679688 372.550781 C 321.949219 374.285156 321.082031 375.683594 320.085938 376.75 C 319.085938 377.8125 318.054688 378.746094 316.988281 379.546875 C 315.925781 380.34375 315.058594 380.945312 314.394531 381.34375 C 313.726562 381.742188 313.363281 382.011719 313.296875 382.144531 L 314.691406 383.042969 C 315.625 383.707031 316.558594 384.375 317.488281 385.039062 C 318.421875 385.707031 318.953125 386.074219 319.085938 386.140625 C 324.078125 390.070312 326.574219 395.03125 326.574219 401.027344 C 326.574219 406.289062 324.644531 410.851562 320.785156 414.714844 C 316.921875 418.578125 311.929688 420.542969 305.808594 420.609375 C 299.816406 420.609375 294.890625 418.910156 291.03125 415.511719 C 287.171875 412.117188 285.238281 407.917969 285.238281 402.925781 C 285.238281 395.730469 289.53125 389.738281 298.121094 384.941406 L 296.324219 383.640625 C 294.925781 382.777344 294.027344 382.109375 293.625 381.644531 C 289.832031 378.378906 287.9375 374.183594 287.9375 369.054688 Z M 309.5 379.84375 L 310.101562 379.445312 C 310.5 379.179688 310.800781 378.980469 311 378.847656 C 311.199219 378.714844 311.53125 378.480469 311.996094 378.148438 C 312.464844 377.8125 312.863281 377.480469 313.195312 377.148438 C 313.527344 376.816406 313.894531 376.414062 314.292969 375.949219 C 314.691406 375.484375 315.058594 375.050781 315.390625 374.648438 C 315.726562 374.25 316.058594 373.71875 316.390625 373.050781 C 316.722656 372.386719 317.023438 371.820312 317.289062 371.351562 C 317.554688 370.886719 317.722656 370.222656 317.789062 369.355469 C 317.855469 368.488281 317.921875 367.757812 317.988281 367.15625 C 317.988281 364.292969 317.023438 361.863281 315.09375 359.863281 C 313.164062 357.867188 310.933594 356.601562 308.402344 356.066406 C 307.9375 356 306.839844 355.96875 305.109375 355.96875 C 302.378906 355.96875 299.816406 356.832031 297.421875 358.566406 C 295.023438 360.296875 293.792969 362.460938 293.726562 365.058594 C 293.726562 366.589844 294.160156 367.988281 295.023438 369.253906 C 295.890625 370.519531 296.753906 371.488281 297.621094 372.152344 C 298.484375 372.820312 300.148438 373.882812 302.613281 375.351562 C 303.078125 375.683594 303.445312 375.914062 303.710938 376.050781 Z M 305.90625 416.3125 C 309.769531 416.3125 313.097656 415.179688 315.890625 412.914062 C 318.6875 410.652344 320.085938 407.917969 320.085938 404.722656 C 320.085938 403.589844 319.917969 402.523438 319.585938 401.527344 C 319.253906 400.527344 318.851562 399.695312 318.386719 399.027344 C 317.921875 398.363281 317.1875 397.628906 316.191406 396.828125 C 315.191406 396.03125 314.425781 395.429688 313.894531 395.03125 C 313.363281 394.632812 312.398438 394 311 393.132812 C 309.601562 392.265625 308.703125 391.703125 308.304688 391.433594 C 307.371094 390.835938 306.375 390.203125 305.308594 389.535156 C 304.242188 388.871094 303.378906 388.304688 302.710938 387.839844 L 301.914062 387.339844 C 301.515625 387.339844 300.550781 387.90625 299.019531 389.035156 C 297.488281 390.167969 295.890625 392 294.226562 394.53125 C 292.5625 397.0625 291.695312 399.792969 291.628906 402.722656 C 291.628906 406.652344 293.0625 409.882812 295.921875 412.414062 C 298.785156 414.945312 302.113281 416.246094 305.90625 416.3125 Z M 305.90625 416.3125 " fill-opacity="1" fill-rule="nonzero"/></g><path fill="#000000" d="M 415.953125 415.511719 C 415.953125 416.84375 415.253906 417.511719 413.855469 417.511719 C 413.523438 417.511719 412.792969 416.976562 411.660156 415.914062 C 410.527344 414.847656 407.398438 411.75 402.273438 406.621094 L 391.890625 396.230469 L 381.40625 406.722656 C 374.351562 413.648438 370.722656 417.179688 370.523438 417.3125 C 370.257812 417.445312 370.027344 417.511719 369.824219 417.511719 C 369.292969 417.511719 368.828125 417.3125 368.429688 416.910156 C 368.027344 416.511719 367.796875 416.046875 367.730469 415.511719 C 367.730469 415.046875 368.195312 414.3125 369.128906 413.316406 C 370.058594 412.316406 373.1875 409.152344 378.511719 403.824219 L 388.894531 393.433594 L 378.511719 383.042969 C 373.121094 377.648438 369.992188 374.484375 369.128906 373.550781 C 368.261719 372.617188 367.796875 371.886719 367.730469 371.351562 C 367.730469 370.753906 367.929688 370.289062 368.328125 369.953125 C 368.726562 369.621094 369.226562 369.457031 369.824219 369.457031 C 370.160156 369.457031 370.390625 369.488281 370.523438 369.554688 C 370.722656 369.6875 374.351562 373.21875 381.40625 380.144531 L 391.890625 390.636719 L 402.273438 380.246094 C 407.398438 375.117188 410.527344 372.019531 411.660156 370.953125 C 412.792969 369.886719 413.523438 369.355469 413.855469 369.355469 C 415.253906 369.355469 415.953125 370.019531 415.953125 371.351562 C 415.953125 371.820312 415.621094 372.417969 414.953125 373.152344 C 414.289062 373.882812 411.027344 377.148438 405.167969 382.941406 L 394.785156 393.433594 L 405.167969 403.921875 C 410.761719 409.519531 413.957031 412.75 414.753906 413.613281 C 415.554688 414.480469 415.953125 415.113281 415.953125 415.511719 Z M 415.953125 415.511719 " fill-opacity="1" fill-rule="nonzero"/><path fill="#000000" d="M 474.179688 360.664062 L 472.882812 361.164062 C 471.949219 361.496094 470.621094 361.828125 468.890625 362.160156 C 467.160156 362.496094 465.226562 362.726562 463.097656 362.859375 L 461.199219 362.859375 L 461.199219 358.265625 L 463.097656 358.265625 C 466.226562 358.132812 469.121094 357.632812 471.785156 356.765625 C 474.445312 355.902344 476.308594 355.101562 477.375 354.367188 C 478.441406 353.636719 479.371094 352.902344 480.171875 352.171875 C 480.304688 351.972656 480.703125 351.871094 481.367188 351.871094 C 481.96875 351.871094 482.535156 352.070312 483.066406 352.46875 L 483.066406 382.34375 L 483.167969 412.316406 C 483.632812 412.78125 484.03125 413.082031 484.363281 413.214844 C 484.695312 413.347656 485.496094 413.480469 486.761719 413.613281 C 488.023438 413.746094 490.089844 413.8125 492.949219 413.8125 L 495.546875 413.8125 L 495.546875 418.410156 L 494.449219 418.410156 C 493.050781 418.210938 487.757812 418.109375 478.574219 418.109375 C 469.519531 418.109375 464.296875 418.210938 462.898438 418.410156 L 461.699219 418.410156 L 461.699219 413.8125 L 464.296875 413.8125 C 465.761719 413.8125 467.023438 413.8125 468.089844 413.8125 C 469.15625 413.8125 469.988281 413.78125 470.585938 413.714844 C 471.183594 413.648438 471.71875 413.546875 472.183594 413.414062 C 472.648438 413.28125 472.914062 413.214844 472.984375 413.214844 C 473.050781 413.214844 473.25 413.046875 473.582031 412.714844 C 473.914062 412.382812 474.113281 412.25 474.179688 412.316406 Z M 474.179688 360.664062 " fill-opacity="1" fill-rule="nonzero"/><g clip-path="url(#be08ddcd20)"><path fill="#000000" d="M 512.421875 359.964844 C 516.148438 354.570312 521.238281 351.871094 527.695312 351.871094 C 530.890625 351.871094 534.085938 352.738281 537.28125 354.46875 C 540.476562 356.199219 543.070312 359.265625 545.066406 363.660156 C 547.53125 369.1875 548.761719 376.78125 548.761719 386.441406 C 548.761719 396.761719 547.332031 404.65625 544.46875 410.117188 C 543.136719 412.914062 541.308594 415.144531 538.976562 416.8125 C 536.648438 418.476562 534.617188 419.507812 532.886719 419.910156 C 531.15625 420.308594 529.460938 420.542969 527.796875 420.609375 C 526.066406 420.609375 524.335938 420.410156 522.605469 420.007812 C 520.875 419.609375 518.84375 418.542969 516.511719 416.8125 C 514.183594 415.078125 512.351562 412.847656 511.023438 410.117188 C 508.160156 404.65625 506.730469 396.761719 506.730469 386.441406 C 506.730469 374.851562 508.625 366.023438 512.421875 359.964844 Z M 534.882812 358.765625 C 532.886719 356.632812 530.523438 355.566406 527.796875 355.566406 C 525 355.566406 522.605469 356.632812 520.605469 358.765625 C 518.941406 360.496094 517.84375 362.894531 517.3125 365.957031 C 516.78125 369.023438 516.511719 375.417969 516.511719 385.140625 C 516.511719 395.664062 516.78125 402.589844 517.3125 405.921875 C 517.84375 409.25 519.042969 411.882812 520.90625 413.8125 C 522.769531 415.8125 525.066406 416.8125 527.796875 416.8125 C 530.457031 416.8125 532.722656 415.8125 534.585938 413.8125 C 536.515625 411.816406 537.714844 409.019531 538.179688 405.421875 C 538.644531 401.824219 538.910156 395.066406 538.976562 385.140625 C 538.976562 375.484375 538.710938 369.121094 538.179688 366.058594 C 537.648438 362.996094 536.546875 360.5625 534.882812 358.765625 Z M 534.882812 358.765625 " fill-opacity="1" fill-rule="nonzero"/></g><g clip-path="url(#6af5177eb7)"><path fill="#000000" d="M 559.933594 344.796875 C 559.980469 344.703125 560.378906 342.136719 561.132812 337.097656 L 562.261719 329.539062 C 562.261719 329.445312 562.734375 329.398438 563.675781 329.398438 L 565.085938 329.398438 L 565.085938 329.679688 C 565.085938 330.152344 565.4375 330.550781 566.144531 330.882812 C 566.851562 331.210938 568.074219 331.421875 569.816406 331.519531 C 571.558594 331.613281 575.53125 331.660156 581.746094 331.660156 L 590.285156 331.660156 L 590.285156 334.414062 L 585.484375 340.984375 C 585.0625 341.546875 584.355469 342.488281 583.367188 343.808594 C 582.378906 345.125 581.746094 345.996094 581.460938 346.421875 C 581.179688 346.84375 580.6875 347.597656 579.980469 348.683594 C 579.273438 349.765625 578.804688 350.613281 578.570312 351.226562 C 578.332031 351.835938 578.003906 352.707031 577.582031 353.839844 C 577.15625 354.96875 576.851562 356.050781 576.664062 357.085938 C 576.472656 358.125 576.285156 359.394531 576.097656 360.902344 C 575.910156 362.410156 575.769531 364.011719 575.675781 365.707031 C 575.582031 367.398438 575.507812 369.332031 575.460938 371.496094 C 575.460938 372.15625 575.460938 372.816406 575.460938 373.476562 C 575.460938 374.132812 575.4375 374.699219 575.390625 375.171875 L 575.390625 375.804688 C 575.203125 376.605469 574.757812 377.289062 574.050781 377.855469 C 573.34375 378.417969 572.542969 378.703125 571.652344 378.703125 C 571.132812 378.703125 570.640625 378.632812 570.167969 378.488281 C 569.699219 378.347656 569.203125 377.902344 568.6875 377.148438 C 568.167969 376.394531 567.910156 375.453125 567.910156 374.324219 C 567.910156 366.882812 570.191406 359.160156 574.757812 351.15625 C 575.699219 349.648438 577.675781 346.796875 580.6875 342.609375 L 583.933594 338.15625 L 577.367188 338.15625 C 569.179688 338.15625 564.875 338.296875 564.449219 338.582031 C 564.167969 338.722656 563.910156 339.289062 563.675781 340.277344 C 563.4375 341.265625 563.203125 342.277344 562.96875 343.3125 L 562.757812 344.796875 L 562.757812 345.007812 L 559.933594 345.007812 Z M 559.933594 344.796875 " fill-opacity="1" fill-rule="nonzero"/></g></svg>