<svg xmlns="http://www.w3.org/2000/svg" xmlns:xlink="http://www.w3.org/1999/xlink" width="1000" zoomAndPan="magnify" viewBox="0 0 750 749.999995" height="1000" preserveAspectRatio="xMidYMid meet" version="1.0"><defs><clipPath id="4e797b78f7"><path d="M 116 352 L 157 352 L 157 418.75 L 116 418.75 Z M 116 352 " clip-rule="nonzero"/></clipPath><clipPath id="1732a722a3"><path d="M 191 352 L 233 352 L 233 418.75 L 191 418.75 Z M 191 352 " clip-rule="nonzero"/></clipPath><clipPath id="043c102211"><path d="M 239 352 L 280 352 L 280 418.75 L 239 418.75 Z M 239 352 " clip-rule="nonzero"/></clipPath><clipPath id="f52f70232a"><path d="M 289 351 L 332 351 L 332 418.75 L 289 418.75 Z M 289 351 " clip-rule="nonzero"/></clipPath><clipPath id="b6870cfeb4"><path d="M 336 352 L 377 352 L 377 418.75 L 336 418.75 Z M 336 352 " clip-rule="nonzero"/></clipPath><clipPath id="3d40fd6405"><path d="M 550 352 L 592 352 L 592 418.75 L 550 418.75 Z M 550 352 " clip-rule="nonzero"/></clipPath><clipPath id="37bf28a388"><path d="M 601 331.25 L 630 331.25 L 630 379 L 601 379 Z M 601 331.25 " clip-rule="nonzero"/></clipPath></defs><rect x="-75" width="900" fill="#ffffff" y="-74.999999" height="899.999994" fill-opacity="1"/><rect x="-75" width="900" fill="#ffffff" y="-74.999999" height="899.999994" fill-opacity="1"/><g clip-path="url(#4e797b78f7)"><path fill="#000000" d="M 121.769531 360.125 C 125.375 354.910156 130.300781 352.304688 136.542969 352.304688 C 139.632812 352.304688 142.722656 353.140625 145.8125 354.8125 C 148.902344 356.488281 151.414062 359.449219 153.34375 363.699219 C 155.726562 369.039062 156.917969 376.378906 156.917969 385.714844 C 156.917969 395.691406 155.535156 403.320312 152.765625 408.597656 C 151.476562 411.300781 149.707031 413.457031 147.453125 415.066406 C 145.203125 416.675781 143.238281 417.675781 141.566406 418.0625 C 139.890625 418.449219 138.25 418.671875 136.640625 418.738281 C 134.964844 418.738281 133.292969 418.542969 131.617188 418.15625 C 129.945312 417.773438 127.980469 416.742188 125.730469 415.066406 C 123.476562 413.394531 121.707031 411.238281 120.417969 408.597656 C 117.648438 403.320312 116.265625 395.691406 116.265625 385.714844 C 116.265625 374.511719 118.101562 365.984375 121.769531 360.125 Z M 143.496094 358.964844 C 141.566406 356.90625 139.28125 355.875 136.640625 355.875 C 133.9375 355.875 131.617188 356.90625 129.6875 358.964844 C 128.078125 360.640625 127.015625 362.957031 126.5 365.917969 C 125.984375 368.878906 125.730469 375.058594 125.730469 384.457031 C 125.730469 394.628906 125.984375 401.324219 126.5 404.542969 C 127.015625 407.761719 128.175781 410.304688 129.976562 412.171875 C 131.78125 414.101562 134 415.066406 136.640625 415.066406 C 139.214844 415.066406 141.402344 414.101562 143.207031 412.171875 C 145.074219 410.238281 146.230469 407.535156 146.683594 404.058594 C 147.132812 400.582031 147.390625 394.050781 147.453125 384.457031 C 147.453125 375.125 147.199219 368.976562 146.683594 366.015625 C 146.167969 363.054688 145.105469 360.703125 143.496094 358.964844 Z M 143.496094 358.964844 " fill-opacity="1" fill-rule="nonzero"/></g><path fill="#000000" d="M 168.3125 410.820312 C 168.3125 409.273438 168.859375 407.921875 169.953125 406.761719 C 171.046875 405.605469 172.433594 405.027344 174.105469 405.027344 C 175.652344 405.027344 177.003906 405.539062 178.160156 406.570312 C 179.320312 407.601562 179.929688 408.984375 179.996094 410.722656 C 179.996094 412.332031 179.449219 413.714844 178.355469 414.875 C 177.261719 416.035156 175.875 416.613281 174.203125 416.613281 C 172.527344 416.613281 171.144531 416.066406 170.050781 414.972656 C 168.957031 413.875 168.375 412.492188 168.3125 410.820312 Z M 168.3125 410.820312 " fill-opacity="1" fill-rule="nonzero"/><g clip-path="url(#1732a722a3)"><path fill="#000000" d="M 196.894531 360.125 C 200.5 354.910156 205.421875 352.304688 211.667969 352.304688 C 214.757812 352.304688 217.847656 353.140625 220.9375 354.8125 C 224.027344 356.488281 226.539062 359.449219 228.46875 363.699219 C 230.851562 369.039062 232.042969 376.378906 232.042969 385.714844 C 232.042969 395.691406 230.65625 403.320312 227.890625 408.597656 C 226.601562 411.300781 224.832031 413.457031 222.578125 415.066406 C 220.324219 416.675781 218.363281 417.675781 216.6875 418.0625 C 215.015625 418.449219 213.375 418.671875 211.765625 418.738281 C 210.089844 418.738281 208.417969 418.542969 206.742188 418.15625 C 205.070312 417.773438 203.105469 416.742188 200.851562 415.066406 C 198.601562 413.394531 196.828125 411.238281 195.542969 408.597656 C 192.773438 403.320312 191.390625 395.691406 191.390625 385.714844 C 191.390625 374.511719 193.226562 365.984375 196.894531 360.125 Z M 218.621094 358.964844 C 216.6875 356.90625 214.402344 355.875 211.765625 355.875 C 209.0625 355.875 206.742188 356.90625 204.8125 358.964844 C 203.203125 360.640625 202.140625 362.957031 201.625 365.917969 C 201.109375 368.878906 200.851562 375.058594 200.851562 384.457031 C 200.851562 394.628906 201.109375 401.324219 201.625 404.542969 C 202.140625 407.761719 203.300781 410.304688 205.101562 412.171875 C 206.902344 414.101562 209.125 415.066406 211.765625 415.066406 C 214.339844 415.066406 216.527344 414.101562 218.332031 412.171875 C 220.195312 410.238281 221.355469 407.535156 221.804688 404.058594 C 222.257812 400.582031 222.515625 394.050781 222.578125 384.457031 C 222.578125 375.125 222.320312 368.976562 221.804688 366.015625 C 221.292969 363.054688 220.230469 360.703125 218.621094 358.964844 Z M 218.621094 358.964844 " fill-opacity="1" fill-rule="nonzero"/></g><g clip-path="url(#043c102211)"><path fill="#000000" d="M 239.960938 386.390625 C 239.960938 375.894531 242.566406 367.59375 247.78125 361.476562 C 252.996094 355.359375 258.789062 352.304688 265.164062 352.304688 C 269.605469 352.304688 272.789062 353.460938 274.722656 355.78125 C 276.652344 358.097656 277.617188 360.671875 277.617188 363.503906 C 277.617188 365.113281 277.167969 366.402344 276.265625 367.367188 C 275.367188 368.332031 274.109375 368.816406 272.5 368.816406 C 271.019531 368.816406 269.796875 368.363281 268.832031 367.464844 C 267.867188 366.5625 267.382812 365.308594 267.382812 363.699219 C 267.382812 360.863281 268.894531 359.160156 271.921875 358.578125 C 270.503906 357.164062 268.507812 356.359375 265.933594 356.164062 C 261.363281 356.164062 257.597656 358.097656 254.636719 361.960938 C 251.613281 366.207031 250.097656 372.710938 250.097656 381.464844 L 250.195312 381.851562 C 250.515625 381.464844 250.773438 381.046875 250.96875 380.59375 C 253.605469 376.734375 257.050781 374.800781 261.300781 374.800781 L 261.6875 374.800781 C 264.648438 374.800781 267.253906 375.414062 269.507812 376.636719 C 271.050781 377.539062 272.597656 378.824219 274.140625 380.5 C 275.6875 382.171875 276.941406 384.007812 277.910156 386.003906 C 279.261719 389.15625 279.9375 392.601562 279.9375 396.335938 L 279.9375 398.074219 C 279.9375 399.554688 279.773438 400.9375 279.453125 402.226562 C 278.746094 406.023438 276.683594 409.726562 273.273438 413.328125 C 269.863281 416.933594 265.546875 418.738281 260.335938 418.738281 C 258.53125 418.738281 256.792969 418.480469 255.121094 417.964844 C 253.445312 417.449219 251.644531 416.484375 249.710938 415.066406 C 247.78125 413.652344 246.140625 411.753906 244.789062 409.371094 C 243.4375 406.988281 242.277344 403.867188 241.3125 400.003906 C 240.347656 396.140625 239.894531 391.605469 239.960938 386.390625 Z M 260.71875 378.277344 C 258.789062 378.277344 257.117188 378.824219 255.699219 379.917969 C 254.28125 381.015625 253.1875 382.460938 252.417969 384.265625 C 251.644531 386.066406 251.097656 387.902344 250.773438 389.769531 C 250.453125 391.636719 250.261719 393.632812 250.195312 395.753906 C 250.195312 401.097656 250.582031 404.929688 251.355469 407.246094 C 252.125 409.5625 253.351562 411.429688 255.023438 412.847656 C 256.570312 414.003906 258.273438 414.585938 260.140625 414.585938 C 263.425781 414.585938 265.933594 413.363281 267.671875 410.914062 C 268.507812 409.757812 269.089844 408.308594 269.410156 406.570312 C 269.734375 404.832031 269.894531 401.453125 269.894531 396.429688 C 269.894531 391.28125 269.734375 387.835938 269.410156 386.101562 C 269.089844 384.363281 268.507812 382.914062 267.671875 381.753906 C 265.933594 379.4375 263.617188 378.277344 260.71875 378.277344 Z M 260.71875 378.277344 " fill-opacity="1" fill-rule="nonzero"/></g><g clip-path="url(#f52f70232a)"><path fill="#000000" d="M 289.496094 372.386719 C 289.558594 372.257812 290.105469 368.75 291.136719 361.863281 L 292.683594 351.53125 C 292.683594 351.402344 293.324219 351.335938 294.613281 351.335938 L 296.542969 351.335938 L 296.542969 351.722656 C 296.542969 352.367188 297.027344 352.914062 297.992188 353.367188 C 298.957031 353.816406 300.632812 354.105469 303.015625 354.234375 C 305.394531 354.363281 310.835938 354.429688 319.332031 354.429688 L 331.015625 354.429688 L 331.015625 358.195312 L 324.449219 367.171875 C 323.871094 367.945312 322.90625 369.234375 321.554688 371.035156 C 320.203125 372.839844 319.332031 374.03125 318.945312 374.609375 C 318.558594 375.1875 317.882812 376.21875 316.917969 377.699219 C 315.953125 379.179688 315.308594 380.339844 314.988281 381.175781 C 314.664062 382.011719 314.214844 383.203125 313.636719 384.746094 C 313.054688 386.292969 312.636719 387.773438 312.378906 389.191406 C 312.121094 390.605469 311.867188 392.34375 311.609375 394.402344 C 311.351562 396.464844 311.15625 398.652344 311.027344 400.96875 C 310.898438 403.289062 310.804688 405.925781 310.738281 408.886719 C 310.738281 409.789062 310.738281 410.691406 310.738281 411.589844 C 310.738281 412.492188 310.707031 413.265625 310.640625 413.910156 L 310.640625 414.777344 C 310.386719 415.871094 309.773438 416.804688 308.808594 417.578125 C 307.84375 418.351562 306.746094 418.738281 305.523438 418.738281 C 304.816406 418.738281 304.140625 418.640625 303.496094 418.449219 C 302.851562 418.253906 302.175781 417.644531 301.46875 416.613281 C 300.761719 415.582031 300.40625 414.296875 300.40625 412.75 C 300.40625 402.578125 303.527344 392.023438 309.773438 381.078125 C 311.0625 379.019531 313.765625 375.125 317.882812 369.394531 L 322.328125 363.3125 L 313.347656 363.3125 C 302.144531 363.3125 296.253906 363.503906 295.675781 363.890625 C 295.289062 364.082031 294.933594 364.855469 294.613281 366.207031 C 294.292969 367.558594 293.96875 368.945312 293.648438 370.359375 L 293.359375 372.386719 L 293.359375 372.675781 L 289.496094 372.675781 Z M 289.496094 372.386719 " fill-opacity="1" fill-rule="nonzero"/></g><g clip-path="url(#b6870cfeb4)"><path fill="#000000" d="M 339.222656 376.347656 C 339.222656 376.347656 339.222656 373.867188 339.222656 368.910156 C 339.222656 363.953125 340.960938 359.964844 344.4375 356.9375 C 347.914062 353.914062 351.90625 352.367188 356.410156 352.304688 C 360.984375 352.304688 365.039062 353.65625 368.578125 356.359375 C 372.121094 359.0625 373.890625 362.570312 373.890625 366.882812 C 373.890625 368.816406 373.535156 370.617188 372.828125 372.292969 C 372.121094 373.964844 371.28125 375.316406 370.316406 376.347656 C 369.351562 377.378906 368.351562 378.277344 367.324219 379.050781 C 366.292969 379.824219 365.457031 380.402344 364.8125 380.789062 C 364.167969 381.175781 363.816406 381.433594 363.75 381.5625 L 365.101562 382.429688 C 366.003906 383.074219 366.90625 383.71875 367.804688 384.363281 C 368.707031 385.003906 369.222656 385.359375 369.351562 385.421875 C 374.179688 389.222656 376.59375 394.019531 376.59375 399.8125 C 376.59375 404.898438 374.726562 409.304688 370.992188 413.039062 C 367.257812 416.773438 362.429688 418.671875 356.507812 418.738281 C 350.714844 418.738281 345.953125 417.09375 342.21875 413.8125 C 338.484375 410.53125 336.617188 406.472656 336.617188 401.644531 C 336.617188 394.695312 340.769531 388.898438 349.074219 384.265625 L 347.335938 383.007812 C 345.984375 382.171875 345.113281 381.527344 344.726562 381.078125 C 341.058594 377.925781 339.222656 373.867188 339.222656 368.910156 Z M 360.082031 379.339844 L 360.660156 378.953125 C 361.046875 378.695312 361.335938 378.503906 361.53125 378.375 C 361.722656 378.246094 362.042969 378.019531 362.496094 377.699219 C 362.945312 377.378906 363.332031 377.054688 363.652344 376.734375 C 363.976562 376.410156 364.328125 376.023438 364.714844 375.574219 C 365.101562 375.125 365.457031 374.707031 365.777344 374.320312 C 366.101562 373.933594 366.421875 373.417969 366.742188 372.773438 C 367.066406 372.128906 367.355469 371.582031 367.613281 371.132812 C 367.871094 370.683594 368.03125 370.039062 368.097656 369.203125 C 368.160156 368.363281 368.226562 367.65625 368.289062 367.078125 C 368.289062 364.308594 367.355469 361.960938 365.488281 360.027344 C 363.621094 358.097656 361.464844 356.875 359.019531 356.359375 C 358.570312 356.292969 357.507812 356.261719 355.832031 356.261719 C 353.195312 356.261719 350.714844 357.097656 348.398438 358.773438 C 346.078125 360.445312 344.890625 362.539062 344.824219 365.050781 C 344.824219 366.53125 345.242188 367.882812 346.078125 369.105469 C 346.917969 370.328125 347.753906 371.261719 348.589844 371.90625 C 349.425781 372.550781 351.035156 373.578125 353.417969 374.996094 C 353.871094 375.316406 354.222656 375.542969 354.480469 375.671875 Z M 356.605469 414.585938 C 360.339844 414.585938 363.558594 413.492188 366.261719 411.300781 C 368.964844 409.113281 370.316406 406.472656 370.316406 403.382812 C 370.316406 402.289062 370.15625 401.257812 369.832031 400.292969 C 369.511719 399.328125 369.125 398.523438 368.675781 397.878906 C 368.226562 397.234375 367.515625 396.527344 366.550781 395.753906 C 365.585938 394.984375 364.84375 394.402344 364.328125 394.019531 C 363.816406 393.632812 362.882812 393.019531 361.53125 392.183594 C 360.179688 391.347656 359.308594 390.800781 358.921875 390.542969 C 358.019531 389.960938 357.054688 389.351562 356.027344 388.707031 C 354.996094 388.0625 354.160156 387.515625 353.515625 387.066406 L 352.742188 386.582031 C 352.355469 386.582031 351.421875 387.128906 349.941406 388.222656 C 348.460938 389.316406 346.917969 391.089844 345.308594 393.535156 C 343.699219 395.980469 342.863281 398.621094 342.796875 401.453125 C 342.796875 405.25 344.179688 408.371094 346.949219 410.820312 C 349.71875 413.265625 352.9375 414.519531 356.605469 414.585938 Z M 356.605469 414.585938 " fill-opacity="1" fill-rule="nonzero"/></g><path fill="#000000" d="M 463.035156 413.8125 C 463.035156 415.101562 462.359375 415.742188 461.007812 415.742188 C 460.683594 415.742188 459.976562 415.230469 458.882812 414.199219 C 457.789062 413.167969 454.761719 410.175781 449.804688 405.21875 L 439.761719 395.175781 L 429.625 405.316406 C 422.800781 412.011719 419.292969 415.421875 419.097656 415.550781 C 418.839844 415.679688 418.617188 415.742188 418.421875 415.742188 C 417.910156 415.742188 417.457031 415.550781 417.070312 415.164062 C 416.683594 414.777344 416.460938 414.328125 416.394531 413.8125 C 416.394531 413.363281 416.847656 412.652344 417.746094 411.6875 C 418.648438 410.722656 421.675781 407.664062 426.824219 402.515625 L 436.867188 392.472656 L 426.824219 382.429688 C 421.609375 377.214844 418.585938 374.160156 417.746094 373.257812 C 416.910156 372.355469 416.460938 371.648438 416.394531 371.132812 C 416.394531 370.554688 416.589844 370.101562 416.976562 369.78125 C 417.359375 369.460938 417.84375 369.296875 418.421875 369.296875 C 418.746094 369.296875 418.96875 369.332031 419.097656 369.394531 C 419.292969 369.523438 422.800781 372.933594 429.625 379.628906 L 439.761719 389.769531 L 449.804688 379.726562 C 454.761719 374.769531 457.789062 371.777344 458.882812 370.746094 C 459.976562 369.714844 460.683594 369.203125 461.007812 369.203125 C 462.359375 369.203125 463.035156 369.84375 463.035156 371.132812 C 463.035156 371.582031 462.710938 372.164062 462.070312 372.871094 C 461.425781 373.578125 458.269531 376.734375 452.605469 382.332031 L 442.5625 392.472656 L 452.605469 402.613281 C 458.011719 408.019531 461.101562 411.140625 461.875 411.976562 C 462.648438 412.816406 463.035156 413.425781 463.035156 413.8125 Z M 463.035156 413.8125 " fill-opacity="1" fill-rule="nonzero"/><path fill="#000000" d="M 519.347656 360.800781 L 518.09375 361.285156 C 517.191406 361.605469 515.90625 361.925781 514.230469 362.25 C 512.558594 362.570312 510.691406 362.796875 508.628906 362.925781 L 506.796875 362.925781 L 506.796875 358.484375 L 508.628906 358.484375 C 511.65625 358.355469 514.457031 357.871094 517.03125 357.035156 C 519.605469 356.199219 521.410156 355.425781 522.4375 354.71875 C 523.46875 354.007812 524.371094 353.300781 525.140625 352.59375 C 525.269531 352.398438 525.65625 352.304688 526.300781 352.304688 C 526.878906 352.304688 527.425781 352.496094 527.941406 352.882812 L 527.941406 381.753906 L 528.039062 410.722656 C 528.488281 411.171875 528.875 411.460938 529.199219 411.589844 C 529.519531 411.71875 530.292969 411.847656 531.515625 411.976562 C 532.738281 412.105469 534.734375 412.171875 537.5 412.171875 L 540.011719 412.171875 L 540.011719 416.613281 L 538.949219 416.613281 C 537.597656 416.417969 532.480469 416.324219 523.597656 416.324219 C 514.84375 416.324219 509.789062 416.417969 508.4375 416.613281 L 507.277344 416.613281 L 507.277344 412.171875 L 509.789062 412.171875 C 511.207031 412.171875 512.429688 412.171875 513.457031 412.171875 C 514.488281 412.171875 515.292969 412.140625 515.871094 412.074219 C 516.453125 412.011719 516.964844 411.914062 517.417969 411.785156 C 517.867188 411.65625 518.125 411.589844 518.191406 411.589844 C 518.253906 411.589844 518.445312 411.429688 518.769531 411.109375 C 519.089844 410.785156 519.285156 410.660156 519.347656 410.722656 Z M 519.347656 360.800781 " fill-opacity="1" fill-rule="nonzero"/><g clip-path="url(#3d40fd6405)"><path fill="#000000" d="M 556.332031 360.125 C 559.9375 354.910156 564.859375 352.304688 571.105469 352.304688 C 574.195312 352.304688 577.285156 353.140625 580.375 354.8125 C 583.464844 356.488281 585.976562 359.449219 587.90625 363.699219 C 590.289062 369.039062 591.480469 376.378906 591.480469 385.714844 C 591.480469 395.691406 590.09375 403.320312 587.328125 408.597656 C 586.039062 411.300781 584.269531 413.457031 582.015625 415.066406 C 579.761719 416.675781 577.800781 417.675781 576.125 418.0625 C 574.453125 418.449219 572.8125 418.671875 571.203125 418.738281 C 569.527344 418.738281 567.855469 418.542969 566.179688 418.15625 C 564.507812 417.773438 562.542969 416.742188 560.289062 415.066406 C 558.035156 413.394531 556.265625 411.238281 554.980469 408.597656 C 552.210938 403.320312 550.828125 395.691406 550.828125 385.714844 C 550.828125 374.511719 552.660156 365.984375 556.332031 360.125 Z M 578.058594 358.964844 C 576.125 356.90625 573.839844 355.875 571.203125 355.875 C 568.496094 355.875 566.179688 356.90625 564.25 358.964844 C 562.640625 360.640625 561.578125 362.957031 561.0625 365.917969 C 560.546875 368.878906 560.289062 375.058594 560.289062 384.457031 C 560.289062 394.628906 560.546875 401.324219 561.0625 404.542969 C 561.578125 407.761719 562.734375 410.304688 564.539062 412.171875 C 566.339844 414.101562 568.5625 415.066406 571.203125 415.066406 C 573.777344 415.066406 575.964844 414.101562 577.765625 412.171875 C 579.632812 410.238281 580.792969 407.535156 581.242188 404.058594 C 581.695312 400.582031 581.953125 394.050781 582.015625 384.457031 C 582.015625 375.125 581.757812 368.976562 581.242188 366.015625 C 580.730469 363.054688 579.667969 360.703125 578.058594 358.964844 Z M 578.058594 358.964844 " fill-opacity="1" fill-rule="nonzero"/></g><g clip-path="url(#37bf28a388)"><path fill="#000000" d="M 622.558594 357.140625 C 620.375 360.597656 617.644531 362.328125 614.367188 362.328125 C 610.816406 362.328125 607.902344 360.984375 605.628906 358.300781 C 603.351562 355.617188 601.988281 352.75 601.53125 349.699219 C 601.441406 348.972656 601.394531 348.058594 601.394531 346.96875 L 601.394531 346.421875 C 601.394531 342.191406 602.964844 338.503906 606.105469 335.363281 C 608.835938 332.632812 611.839844 331.265625 615.117188 331.265625 C 615.207031 331.265625 615.34375 331.265625 615.527344 331.265625 C 615.707031 331.265625 615.890625 331.289062 616.074219 331.335938 L 616.347656 331.335938 C 616.890625 331.335938 617.460938 331.378906 618.054688 331.472656 C 618.644531 331.5625 619.488281 331.835938 620.578125 332.289062 C 621.671875 332.746094 622.742188 333.472656 623.789062 334.476562 C 624.835938 335.476562 625.8125 336.820312 626.722656 338.503906 C 628.679688 342.507812 629.660156 347.652344 629.660156 353.929688 C 629.660156 360.304688 628.292969 365.695312 625.5625 370.109375 C 623.96875 372.660156 622.058594 374.640625 619.828125 376.050781 C 617.597656 377.460938 615.230469 378.191406 612.726562 378.234375 C 609.953125 378.234375 607.675781 377.574219 605.902344 376.253906 C 604.125 374.933594 603.214844 372.976562 603.171875 370.382812 C 603.125 367.789062 604.332031 366.515625 606.789062 366.5625 C 607.789062 366.5625 608.632812 366.878906 609.316406 367.515625 C 609.996094 368.152344 610.339844 369.042969 610.339844 370.179688 C 610.339844 371 610.132812 371.703125 609.722656 372.296875 C 609.316406 372.886719 608.949219 373.25 608.632812 373.386719 C 608.3125 373.523438 608.015625 373.636719 607.746094 373.730469 L 607.472656 373.796875 C 607.472656 373.890625 607.628906 374.023438 607.949219 374.207031 C 608.269531 374.390625 608.859375 374.617188 609.722656 374.890625 C 610.589844 375.164062 611.542969 375.277344 612.589844 375.230469 L 613 375.230469 C 615.730469 375.230469 618.03125 373.773438 619.894531 370.863281 C 621.671875 368.3125 622.558594 363.898438 622.558594 357.617188 Z M 615.1875 359.800781 C 617.371094 359.800781 619.121094 358.6875 620.441406 356.457031 C 621.761719 354.226562 622.445312 351.199219 622.492188 347.378906 C 622.492188 343.828125 622.308594 341.277344 621.945312 339.730469 C 621.851562 339.277344 621.714844 338.820312 621.535156 338.367188 C 621.351562 337.910156 621.035156 337.320312 620.578125 336.589844 C 620.125 335.863281 619.441406 335.25 618.53125 334.75 C 617.621094 334.246094 616.550781 334.019531 615.320312 334.066406 C 613.59375 334.066406 612.113281 334.679688 610.882812 335.910156 C 609.929688 336.910156 609.316406 338.09375 609.042969 339.457031 C 608.769531 340.824219 608.609375 343.214844 608.5625 346.625 C 608.5625 350.40625 608.675781 352.953125 608.90625 354.273438 C 609.132812 355.59375 609.585938 356.664062 610.269531 357.480469 C 611.40625 359.027344 613.046875 359.800781 615.1875 359.800781 Z M 615.1875 359.800781 " fill-opacity="1" fill-rule="nonzero"/></g></svg>