<svg xmlns="http://www.w3.org/2000/svg" xmlns:xlink="http://www.w3.org/1999/xlink" width="1000" zoomAndPan="magnify" viewBox="0 0 750 749.999995" height="1000" preserveAspectRatio="xMidYMid meet" version="1.0"><defs><clipPath id="6ecddfa68f"><path d="M 43 345 L 61 345 L 61 413.863281 L 43 413.863281 Z M 43 345 " clip-rule="nonzero"/></clipPath><clipPath id="202170087f"><path d="M 510 336.136719 L 531 336.136719 L 531 370 L 510 370 Z M 510 336.136719 " clip-rule="nonzero"/></clipPath><clipPath id="72347f6a57"><path d="M 538 345 L 555 345 L 555 413.863281 L 538 413.863281 Z M 538 345 " clip-rule="nonzero"/></clipPath></defs><rect x="-75" width="900" fill="#ffffff" y="-74.999999" height="899.999994" fill-opacity="1"/><rect x="-75" width="900" fill="#ffffff" y="-74.999999" height="899.999994" fill-opacity="1"/><g clip-path="url(#6ecddfa68f)"><path fill="#000000" d="M 43.882812 379.789062 C 43.882812 376.664062 44.109375 373.699219 44.5625 370.890625 C 45.011719 368.082031 45.535156 365.660156 46.121094 363.621094 C 46.710938 361.585938 47.546875 359.59375 48.632812 357.644531 C 49.71875 355.699219 50.582031 354.179688 51.214844 353.09375 C 51.847656 352.007812 52.796875 350.832031 54.066406 349.5625 C 55.332031 348.292969 56.078125 347.523438 56.304688 347.253906 C 56.53125 346.980469 57.097656 346.507812 58.003906 345.828125 L 59.15625 345.828125 C 59.792969 345.828125 60.109375 346.03125 60.109375 346.4375 C 60.109375 346.574219 59.722656 347.050781 58.953125 347.863281 C 58.183594 348.679688 57.257812 349.878906 56.171875 351.464844 C 55.085938 353.050781 53.976562 354.996094 52.84375 357.304688 C 51.710938 359.617188 50.761719 362.738281 49.992188 366.679688 C 49.222656 370.617188 48.839844 374.988281 48.839844 379.789062 C 48.839844 384.589844 49.222656 388.9375 49.992188 392.832031 C 50.761719 396.722656 51.691406 399.871094 52.777344 402.273438 C 53.863281 404.671875 54.972656 406.617188 56.101562 408.113281 C 57.234375 409.605469 58.183594 410.808594 58.953125 411.714844 C 59.722656 412.617188 60.109375 413.09375 60.109375 413.140625 C 60.109375 413.546875 59.769531 413.75 59.089844 413.75 L 58.003906 413.75 L 56.101562 412.121094 C 51.847656 408.273438 48.746094 403.472656 46.800781 397.71875 C 44.855469 391.96875 43.882812 385.992188 43.882812 379.789062 Z M 43.882812 379.789062 " fill-opacity="1" fill-rule="nonzero"/></g><path fill="#000000" d="M 70.429688 357.035156 C 72.960938 353.367188 76.425781 351.53125 80.816406 351.53125 C 82.988281 351.53125 85.160156 352.121094 87.332031 353.296875 C 89.503906 354.476562 91.269531 356.558594 92.628906 359.546875 C 94.304688 363.304688 95.140625 368.46875 95.140625 375.035156 C 95.140625 382.054688 94.167969 387.417969 92.222656 391.132812 C 91.316406 393.035156 90.070312 394.550781 88.488281 395.683594 C 86.902344 396.816406 85.523438 397.515625 84.34375 397.789062 C 83.167969 398.058594 82.015625 398.21875 80.882812 398.265625 C 79.707031 398.265625 78.53125 398.128906 77.351562 397.855469 C 76.175781 397.585938 74.796875 396.859375 73.210938 395.683594 C 71.628906 394.503906 70.382812 392.988281 69.476562 391.132812 C 67.53125 387.417969 66.558594 382.054688 66.558594 375.035156 C 66.558594 367.15625 67.847656 361.15625 70.429688 357.035156 Z M 85.703125 356.21875 C 84.34375 354.769531 82.738281 354.046875 80.882812 354.046875 C 78.980469 354.046875 77.351562 354.769531 75.996094 356.21875 C 74.863281 357.394531 74.117188 359.027344 73.753906 361.109375 C 73.390625 363.191406 73.210938 367.539062 73.210938 374.152344 C 73.210938 381.304688 73.390625 386.015625 73.753906 388.277344 C 74.117188 390.542969 74.929688 392.332031 76.199219 393.644531 C 77.464844 395.003906 79.027344 395.683594 80.882812 395.683594 C 82.695312 395.683594 84.234375 395.003906 85.5 393.644531 C 86.8125 392.285156 87.628906 390.386719 87.945312 387.941406 C 88.261719 385.496094 88.441406 380.898438 88.488281 374.152344 C 88.488281 367.585938 88.304688 363.261719 87.945312 361.175781 C 87.582031 359.09375 86.835938 357.441406 85.703125 356.21875 Z M 85.703125 356.21875 " fill-opacity="1" fill-rule="nonzero"/><path fill="#000000" d="M 103.152344 392.695312 C 103.152344 391.609375 103.535156 390.65625 104.304688 389.839844 C 105.074219 389.027344 106.046875 388.617188 107.226562 388.617188 C 108.3125 388.617188 109.261719 388.980469 110.078125 389.707031 C 110.890625 390.429688 111.320312 391.402344 111.367188 392.625 C 111.367188 393.757812 110.980469 394.730469 110.210938 395.546875 C 109.441406 396.363281 108.46875 396.769531 107.292969 396.769531 C 106.117188 396.769531 105.144531 396.386719 104.375 395.613281 C 103.605469 394.84375 103.195312 393.871094 103.152344 392.695312 Z M 103.152344 392.695312 " fill-opacity="1" fill-rule="nonzero"/><path fill="#000000" d="M 131.191406 357.507812 L 130.308594 357.847656 C 129.675781 358.074219 128.769531 358.300781 127.59375 358.527344 C 126.417969 358.753906 125.105469 358.914062 123.65625 359.003906 L 122.367188 359.003906 L 122.367188 355.878906 L 123.65625 355.878906 C 125.78125 355.789062 127.75 355.449219 129.5625 354.859375 C 131.371094 354.273438 132.640625 353.726562 133.363281 353.230469 C 134.089844 352.730469 134.722656 352.234375 135.265625 351.734375 C 135.355469 351.601562 135.628906 351.53125 136.078125 351.53125 C 136.488281 351.53125 136.871094 351.667969 137.234375 351.941406 L 137.234375 372.25 L 137.300781 392.625 C 137.617188 392.941406 137.890625 393.148438 138.117188 393.238281 C 138.34375 393.328125 138.886719 393.417969 139.746094 393.507812 C 140.605469 393.601562 142.007812 393.644531 143.957031 393.644531 L 145.71875 393.644531 L 145.71875 396.769531 L 144.972656 396.769531 C 144.023438 396.632812 140.425781 396.566406 134.179688 396.566406 C 128.023438 396.566406 124.46875 396.632812 123.519531 396.769531 L 122.703125 396.769531 L 122.703125 393.644531 L 124.46875 393.644531 C 125.464844 393.644531 126.324219 393.644531 127.050781 393.644531 C 127.773438 393.644531 128.339844 393.621094 128.746094 393.578125 C 129.15625 393.53125 129.515625 393.464844 129.832031 393.375 C 130.148438 393.28125 130.332031 393.238281 130.375 393.238281 C 130.421875 393.238281 130.558594 393.125 130.785156 392.898438 C 131.011719 392.671875 131.144531 392.582031 131.191406 392.625 Z M 131.191406 357.507812 " fill-opacity="1" fill-rule="nonzero"/><path fill="#000000" d="M 165.136719 357.507812 L 164.253906 357.847656 C 163.621094 358.074219 162.714844 358.300781 161.539062 358.527344 C 160.363281 358.753906 159.050781 358.914062 157.601562 359.003906 L 156.3125 359.003906 L 156.3125 355.878906 L 157.601562 355.878906 C 159.730469 355.789062 161.699219 355.449219 163.507812 354.859375 C 165.320312 354.273438 166.585938 353.726562 167.308594 353.230469 C 168.035156 352.730469 168.667969 352.234375 169.210938 351.734375 C 169.300781 351.601562 169.574219 351.53125 170.027344 351.53125 C 170.433594 351.53125 170.816406 351.667969 171.179688 351.941406 L 171.179688 372.25 L 171.246094 392.625 C 171.566406 392.941406 171.835938 393.148438 172.0625 393.238281 C 172.289062 393.328125 172.832031 393.417969 173.691406 393.507812 C 174.550781 393.601562 175.953125 393.644531 177.902344 393.644531 L 179.667969 393.644531 L 179.667969 396.769531 L 178.917969 396.769531 C 177.96875 396.632812 174.371094 396.566406 168.125 396.566406 C 161.96875 396.566406 158.417969 396.632812 157.464844 396.769531 L 156.652344 396.769531 L 156.652344 393.644531 L 158.417969 393.644531 C 159.410156 393.644531 160.273438 393.644531 160.996094 393.644531 C 161.71875 393.644531 162.285156 393.621094 162.691406 393.578125 C 163.101562 393.53125 163.460938 393.464844 163.78125 393.375 C 164.097656 393.28125 164.277344 393.238281 164.324219 393.238281 C 164.367188 393.238281 164.503906 393.125 164.730469 392.898438 C 164.957031 392.671875 165.09375 392.582031 165.136719 392.625 Z M 165.136719 357.507812 " fill-opacity="1" fill-rule="nonzero"/><path fill="#000000" d="M 193.246094 365.320312 C 192.023438 365.320312 191.074219 364.9375 190.394531 364.167969 C 189.714844 363.394531 189.351562 362.398438 189.308594 361.175781 C 189.308594 358.6875 190.394531 356.46875 192.566406 354.519531 C 194.738281 352.574219 197.363281 351.601562 200.441406 351.601562 C 202.027344 351.601562 203.019531 351.621094 203.429688 351.667969 C 206.777344 352.210938 209.335938 353.410156 211.101562 355.269531 C 212.867188 357.125 213.769531 359.140625 213.816406 361.3125 C 213.816406 363.667969 213.046875 365.953125 211.507812 368.171875 C 209.96875 370.390625 207.839844 372 205.125 372.996094 L 204.921875 373.132812 C 204.921875 373.175781 205.125 373.246094 205.535156 373.335938 C 205.941406 373.425781 206.597656 373.628906 207.503906 373.945312 C 208.40625 374.265625 209.265625 374.738281 210.082031 375.375 C 213.792969 377.773438 215.648438 380.945312 215.648438 384.882812 C 215.648438 388.460938 214.246094 391.585938 211.441406 394.257812 C 208.632812 396.929688 205.082031 398.265625 200.78125 398.265625 C 197.160156 398.265625 194.035156 397.289062 191.410156 395.34375 C 188.785156 393.394531 187.472656 390.929688 187.472656 387.941406 C 187.472656 386.671875 187.882812 385.652344 188.695312 384.882812 C 189.511719 384.113281 190.527344 383.707031 191.75 383.660156 C 193.019531 383.660156 194.058594 384.066406 194.875 384.882812 C 195.6875 385.699219 196.097656 386.71875 196.097656 387.941406 C 196.097656 388.4375 196.027344 388.890625 195.894531 389.296875 C 195.757812 389.707031 195.597656 390.066406 195.417969 390.386719 C 195.238281 390.703125 194.988281 390.972656 194.671875 391.199219 C 194.355469 391.425781 194.082031 391.609375 193.855469 391.742188 C 193.628906 391.878906 193.402344 391.96875 193.175781 392.015625 C 192.949219 392.058594 192.769531 392.128906 192.632812 392.21875 L 192.363281 392.285156 C 194.671875 394.324219 197.476562 395.34375 200.78125 395.34375 C 203.269531 395.34375 205.148438 394.144531 206.414062 391.742188 C 207.183594 390.25 207.570312 387.960938 207.570312 384.882812 L 207.570312 383.523438 C 207.570312 379.222656 206.121094 376.347656 203.226562 374.898438 C 202.546875 374.625 201.164062 374.46875 199.082031 374.421875 L 196.230469 374.355469 L 196.027344 374.21875 C 195.9375 374.082031 195.894531 373.722656 195.894531 373.132812 C 195.894531 372.316406 196.074219 371.910156 196.4375 371.910156 C 197.703125 371.910156 199.015625 371.796875 200.375 371.570312 C 201.914062 371.34375 203.316406 370.390625 204.582031 368.71875 C 205.851562 367.042969 206.484375 364.503906 206.484375 361.109375 L 206.484375 360.566406 C 206.484375 357.984375 205.691406 356.195312 204.109375 355.199219 C 203.113281 354.566406 202.046875 354.25 200.917969 354.25 C 199.46875 354.25 198.132812 354.5 196.910156 354.996094 C 195.6875 355.496094 194.828125 356.015625 194.332031 356.558594 C 193.832031 357.101562 193.585938 357.375 193.585938 357.375 L 193.789062 357.375 C 193.921875 357.417969 194.105469 357.464844 194.332031 357.507812 C 194.558594 357.554688 194.785156 357.667969 195.011719 357.847656 C 195.238281 358.03125 195.507812 358.1875 195.824219 358.324219 C 196.140625 358.460938 196.367188 358.710938 196.503906 359.070312 C 196.640625 359.433594 196.820312 359.773438 197.046875 360.089844 C 197.273438 360.40625 197.339844 360.859375 197.25 361.449219 C 197.25 362.445312 196.933594 363.328125 196.300781 364.097656 C 195.667969 364.867188 194.648438 365.277344 193.246094 365.320312 Z M 193.246094 365.320312 " fill-opacity="1" fill-rule="nonzero"/><path fill="#000000" d="M 225.085938 357.035156 C 227.621094 353.367188 231.082031 351.53125 235.472656 351.53125 C 237.644531 351.53125 239.820312 352.121094 241.992188 353.296875 C 244.164062 354.476562 245.929688 356.558594 247.289062 359.546875 C 248.960938 363.304688 249.800781 368.46875 249.800781 375.035156 C 249.800781 382.054688 248.824219 387.417969 246.878906 391.132812 C 245.972656 393.035156 244.730469 394.550781 243.144531 395.683594 C 241.5625 396.816406 240.179688 397.515625 239.003906 397.789062 C 237.828125 398.058594 236.671875 398.21875 235.542969 398.265625 C 234.363281 398.265625 233.1875 398.128906 232.011719 397.855469 C 230.835938 397.585938 229.453125 396.859375 227.871094 395.683594 C 226.285156 394.503906 225.042969 392.988281 224.136719 391.132812 C 222.191406 387.417969 221.214844 382.054688 221.214844 375.035156 C 221.214844 367.15625 222.507812 361.15625 225.085938 357.035156 Z M 240.363281 356.21875 C 239.003906 354.769531 237.398438 354.046875 235.542969 354.046875 C 233.640625 354.046875 232.011719 354.769531 230.652344 356.21875 C 229.523438 357.394531 228.773438 359.027344 228.414062 361.109375 C 228.050781 363.191406 227.871094 367.539062 227.871094 374.152344 C 227.871094 381.304688 228.050781 386.015625 228.414062 388.277344 C 228.773438 390.542969 229.589844 392.332031 230.855469 393.644531 C 232.125 395.003906 233.6875 395.683594 235.542969 395.683594 C 237.351562 395.683594 238.890625 395.003906 240.160156 393.644531 C 241.472656 392.285156 242.285156 390.386719 242.601562 387.941406 C 242.917969 385.496094 243.101562 380.898438 243.144531 374.152344 C 243.144531 367.585938 242.964844 363.261719 242.601562 361.175781 C 242.242188 359.09375 241.492188 357.441406 240.363281 356.21875 Z M 240.363281 356.21875 " fill-opacity="1" fill-rule="nonzero"/><path fill="#000000" d="M 259.03125 357.035156 C 261.566406 353.367188 265.03125 351.53125 269.421875 351.53125 C 271.59375 351.53125 273.765625 352.121094 275.9375 353.296875 C 278.109375 354.476562 279.875 356.558594 281.234375 359.546875 C 282.90625 363.304688 283.746094 368.46875 283.746094 375.035156 C 283.746094 382.054688 282.773438 387.417969 280.824219 391.132812 C 279.921875 393.035156 278.675781 394.550781 277.09375 395.683594 C 275.507812 396.816406 274.128906 397.515625 272.949219 397.789062 C 271.773438 398.058594 270.621094 398.21875 269.488281 398.265625 C 268.3125 398.265625 267.132812 398.128906 265.957031 397.855469 C 264.78125 397.585938 263.398438 396.859375 261.816406 395.683594 C 260.230469 394.503906 258.988281 392.988281 258.082031 391.132812 C 256.136719 387.417969 255.164062 382.054688 255.164062 375.035156 C 255.164062 367.15625 256.453125 361.15625 259.03125 357.035156 Z M 274.308594 356.21875 C 272.949219 354.769531 271.34375 354.046875 269.488281 354.046875 C 267.585938 354.046875 265.957031 354.769531 264.601562 356.21875 C 263.46875 357.394531 262.722656 359.027344 262.359375 361.109375 C 261.996094 363.191406 261.816406 367.539062 261.816406 374.152344 C 261.816406 381.304688 261.996094 386.015625 262.359375 388.277344 C 262.722656 390.542969 263.535156 392.332031 264.804688 393.644531 C 266.070312 395.003906 267.632812 395.683594 269.488281 395.683594 C 271.296875 395.683594 272.835938 395.003906 274.105469 393.644531 C 275.417969 392.285156 276.230469 390.386719 276.546875 387.941406 C 276.867188 385.496094 277.046875 380.898438 277.09375 374.152344 C 277.09375 367.585938 276.910156 363.261719 276.546875 361.175781 C 276.1875 359.09375 275.441406 357.441406 274.308594 356.21875 Z M 274.308594 356.21875 " fill-opacity="1" fill-rule="nonzero"/><path fill="#000000" d="M 292.980469 357.035156 C 295.511719 353.367188 298.976562 351.53125 303.367188 351.53125 C 305.539062 351.53125 307.710938 352.121094 309.882812 353.296875 C 312.054688 354.476562 313.820312 356.558594 315.179688 359.546875 C 316.855469 363.304688 317.691406 368.46875 317.691406 375.035156 C 317.691406 382.054688 316.71875 387.417969 314.773438 391.132812 C 313.867188 393.035156 312.621094 394.550781 311.039062 395.683594 C 309.453125 396.816406 308.074219 397.515625 306.898438 397.789062 C 305.71875 398.058594 304.566406 398.21875 303.433594 398.265625 C 302.257812 398.265625 301.082031 398.128906 299.902344 397.855469 C 298.726562 397.585938 297.347656 396.859375 295.761719 395.683594 C 294.179688 394.503906 292.933594 392.988281 292.027344 391.132812 C 290.082031 387.417969 289.109375 382.054688 289.109375 375.035156 C 289.109375 367.15625 290.398438 361.15625 292.980469 357.035156 Z M 308.253906 356.21875 C 306.898438 354.769531 305.289062 354.046875 303.433594 354.046875 C 301.53125 354.046875 299.902344 354.769531 298.546875 356.21875 C 297.414062 357.394531 296.667969 359.027344 296.304688 361.109375 C 295.941406 363.191406 295.761719 367.539062 295.761719 374.152344 C 295.761719 381.304688 295.941406 386.015625 296.304688 388.277344 C 296.667969 390.542969 297.480469 392.332031 298.75 393.644531 C 300.015625 395.003906 301.578125 395.683594 303.433594 395.683594 C 305.246094 395.683594 306.785156 395.003906 308.050781 393.644531 C 309.363281 392.285156 310.179688 390.386719 310.496094 387.941406 C 310.8125 385.496094 310.992188 380.898438 311.039062 374.152344 C 311.039062 367.585938 310.855469 363.261719 310.496094 361.175781 C 310.132812 359.09375 309.386719 357.441406 308.253906 356.21875 Z M 308.253906 356.21875 " fill-opacity="1" fill-rule="nonzero"/><path fill="#000000" d="M 326.925781 357.035156 C 329.460938 353.367188 332.921875 351.53125 337.3125 351.53125 C 339.484375 351.53125 341.65625 352.121094 343.828125 353.296875 C 346.003906 354.476562 347.769531 356.558594 349.125 359.546875 C 350.800781 363.304688 351.636719 368.46875 351.636719 375.035156 C 351.636719 382.054688 350.664062 387.417969 348.71875 391.132812 C 347.8125 393.035156 346.566406 394.550781 344.984375 395.683594 C 343.398438 396.816406 342.019531 397.515625 340.84375 397.789062 C 339.664062 398.058594 338.511719 398.21875 337.378906 398.265625 C 336.203125 398.265625 335.027344 398.128906 333.851562 397.855469 C 332.671875 397.585938 331.292969 396.859375 329.707031 395.683594 C 328.125 394.503906 326.878906 392.988281 325.972656 391.132812 C 324.027344 387.417969 323.054688 382.054688 323.054688 375.035156 C 323.054688 367.15625 324.34375 361.15625 326.925781 357.035156 Z M 342.199219 356.21875 C 340.84375 354.769531 339.234375 354.046875 337.378906 354.046875 C 335.480469 354.046875 333.851562 354.769531 332.492188 356.21875 C 331.359375 357.394531 330.613281 359.027344 330.25 361.109375 C 329.890625 363.191406 329.707031 367.539062 329.707031 374.152344 C 329.707031 381.304688 329.890625 386.015625 330.25 388.277344 C 330.613281 390.542969 331.429688 392.332031 332.695312 393.644531 C 333.964844 395.003906 335.523438 395.683594 337.378906 395.683594 C 339.191406 395.683594 340.730469 395.003906 341.996094 393.644531 C 343.308594 392.285156 344.125 390.386719 344.441406 387.941406 C 344.757812 385.496094 344.9375 380.898438 344.984375 374.152344 C 344.984375 367.585938 344.804688 363.261719 344.441406 361.175781 C 344.078125 359.09375 343.332031 357.441406 342.199219 356.21875 Z M 342.199219 356.21875 " fill-opacity="1" fill-rule="nonzero"/><path fill="#000000" d="M 412.210938 394.800781 C 412.210938 395.707031 411.734375 396.160156 410.785156 396.160156 C 410.558594 396.160156 410.0625 395.796875 409.292969 395.070312 C 408.523438 394.347656 406.394531 392.242188 402.910156 388.753906 L 395.847656 381.691406 L 388.71875 388.824219 C 383.921875 393.53125 381.457031 395.933594 381.320312 396.023438 C 381.140625 396.113281 380.980469 396.160156 380.84375 396.160156 C 380.484375 396.160156 380.164062 396.023438 379.894531 395.75 C 379.621094 395.480469 379.464844 395.164062 379.417969 394.800781 C 379.417969 394.484375 379.734375 393.984375 380.371094 393.304688 C 381.003906 392.625 383.128906 390.476562 386.75 386.851562 L 393.8125 379.789062 L 386.75 372.722656 C 383.085938 369.058594 380.957031 366.90625 380.371094 366.273438 C 379.78125 365.636719 379.464844 365.140625 379.417969 364.777344 C 379.417969 364.371094 379.554688 364.054688 379.828125 363.828125 C 380.097656 363.601562 380.4375 363.488281 380.84375 363.488281 C 381.070312 363.488281 381.230469 363.507812 381.320312 363.554688 C 381.457031 363.644531 383.921875 366.046875 388.71875 370.753906 L 395.847656 377.886719 L 402.910156 370.824219 C 406.394531 367.335938 408.523438 365.230469 409.292969 364.503906 C 410.0625 363.78125 410.558594 363.417969 410.785156 363.417969 C 411.734375 363.417969 412.210938 363.871094 412.210938 364.777344 C 412.210938 365.09375 411.984375 365.503906 411.53125 366 C 411.078125 366.5 408.863281 368.71875 404.878906 372.65625 L 397.816406 379.789062 L 404.878906 386.921875 C 408.679688 390.722656 410.851562 392.921875 411.394531 393.507812 C 411.9375 394.097656 412.210938 394.527344 412.210938 394.800781 Z M 412.210938 394.800781 " fill-opacity="1" fill-rule="nonzero"/><path fill="#000000" d="M 451.804688 357.507812 L 450.921875 357.847656 C 450.289062 358.074219 449.382812 358.300781 448.207031 358.527344 C 447.03125 358.753906 445.71875 358.914062 444.269531 359.003906 L 442.980469 359.003906 L 442.980469 355.878906 L 444.269531 355.878906 C 446.398438 355.789062 448.367188 355.449219 450.175781 354.859375 C 451.988281 354.273438 453.253906 353.726562 453.976562 353.230469 C 454.703125 352.730469 455.335938 352.234375 455.878906 351.734375 C 455.96875 351.601562 456.242188 351.53125 456.695312 351.53125 C 457.101562 351.53125 457.484375 351.667969 457.847656 351.941406 L 457.847656 372.25 L 457.917969 392.625 C 458.234375 392.941406 458.503906 393.148438 458.730469 393.238281 C 458.957031 393.328125 459.5 393.417969 460.359375 393.507812 C 461.21875 393.601562 462.625 393.644531 464.570312 393.644531 L 466.335938 393.644531 L 466.335938 396.769531 L 465.589844 396.769531 C 464.636719 396.632812 461.039062 396.566406 454.792969 396.566406 C 448.636719 396.566406 445.085938 396.632812 444.132812 396.769531 L 443.320312 396.769531 L 443.320312 393.644531 L 445.085938 393.644531 C 446.082031 393.644531 446.941406 393.644531 447.664062 393.644531 C 448.386719 393.644531 448.953125 393.621094 449.363281 393.578125 C 449.769531 393.53125 450.132812 393.464844 450.449219 393.375 C 450.765625 393.28125 450.945312 393.238281 450.992188 393.238281 C 451.035156 393.238281 451.171875 393.125 451.398438 392.898438 C 451.625 392.671875 451.761719 392.582031 451.804688 392.625 Z M 451.804688 357.507812 " fill-opacity="1" fill-rule="nonzero"/><path fill="#000000" d="M 477.808594 357.035156 C 480.34375 353.367188 483.804688 351.53125 488.195312 351.53125 C 490.367188 351.53125 492.542969 352.121094 494.714844 353.296875 C 496.886719 354.476562 498.652344 356.558594 500.007812 359.546875 C 501.683594 363.304688 502.519531 368.46875 502.519531 375.035156 C 502.519531 382.054688 501.546875 387.417969 499.601562 391.132812 C 498.695312 393.035156 497.453125 394.550781 495.867188 395.683594 C 494.285156 396.816406 492.902344 397.515625 491.726562 397.789062 C 490.550781 398.058594 489.394531 398.21875 488.265625 398.265625 C 487.085938 398.265625 485.910156 398.128906 484.734375 397.855469 C 483.558594 397.585938 482.175781 396.859375 480.59375 395.683594 C 479.007812 394.503906 477.761719 392.988281 476.859375 391.132812 C 474.910156 387.417969 473.9375 382.054688 473.9375 375.035156 C 473.9375 367.15625 475.230469 361.15625 477.808594 357.035156 Z M 493.085938 356.21875 C 491.726562 354.769531 490.121094 354.046875 488.265625 354.046875 C 486.363281 354.046875 484.734375 354.769531 483.375 356.21875 C 482.246094 357.394531 481.496094 359.027344 481.136719 361.109375 C 480.773438 363.191406 480.59375 367.539062 480.59375 374.152344 C 480.59375 381.304688 480.773438 386.015625 481.136719 388.277344 C 481.496094 390.542969 482.3125 392.332031 483.578125 393.644531 C 484.847656 395.003906 486.410156 395.683594 488.265625 395.683594 C 490.074219 395.683594 491.613281 395.003906 492.878906 393.644531 C 494.191406 392.285156 495.007812 390.386719 495.324219 387.941406 C 495.640625 385.496094 495.824219 380.898438 495.867188 374.152344 C 495.867188 367.585938 495.6875 363.261719 495.324219 361.175781 C 494.960938 359.09375 494.214844 357.441406 493.085938 356.21875 Z M 493.085938 356.21875 " fill-opacity="1" fill-rule="nonzero"/><g clip-path="url(#202170087f)"><path fill="#000000" d="M 510.117188 346.722656 C 510.148438 346.660156 510.421875 344.914062 510.933594 341.488281 L 511.703125 336.351562 C 511.703125 336.285156 512.019531 336.253906 512.660156 336.253906 L 513.621094 336.253906 L 513.621094 336.445312 C 513.621094 336.765625 513.863281 337.039062 514.339844 337.261719 C 514.820312 337.488281 515.652344 337.628906 516.835938 337.695312 C 518.019531 337.757812 520.726562 337.789062 524.949219 337.789062 L 530.757812 337.789062 L 530.757812 339.664062 L 527.492188 344.128906 C 527.207031 344.515625 526.726562 345.152344 526.054688 346.050781 C 525.382812 346.945312 524.949219 347.539062 524.757812 347.828125 C 524.566406 348.117188 524.230469 348.628906 523.75 349.363281 C 523.269531 350.101562 522.949219 350.675781 522.789062 351.09375 C 522.628906 351.507812 522.40625 352.101562 522.117188 352.871094 C 521.828125 353.636719 521.621094 354.375 521.492188 355.078125 C 521.367188 355.78125 521.238281 356.648438 521.109375 357.671875 C 520.980469 358.695312 520.886719 359.785156 520.820312 360.9375 C 520.757812 362.089844 520.710938 363.402344 520.675781 364.875 C 520.675781 365.324219 520.675781 365.773438 520.675781 366.21875 C 520.675781 366.667969 520.660156 367.050781 520.628906 367.371094 L 520.628906 367.804688 C 520.5 368.347656 520.199219 368.8125 519.71875 369.199219 C 519.238281 369.582031 518.695312 369.773438 518.085938 369.773438 C 517.734375 369.773438 517.398438 369.726562 517.078125 369.628906 C 516.757812 369.535156 516.421875 369.230469 516.070312 368.71875 C 515.71875 368.203125 515.542969 367.566406 515.542969 366.796875 C 515.542969 361.738281 517.09375 356.488281 520.199219 351.042969 C 520.835938 350.019531 522.179688 348.082031 524.230469 345.234375 L 526.4375 342.207031 L 521.972656 342.207031 C 516.40625 342.207031 513.476562 342.304688 513.1875 342.496094 C 512.996094 342.59375 512.820312 342.976562 512.660156 343.648438 C 512.5 344.320312 512.339844 345.011719 512.179688 345.714844 L 512.039062 346.722656 L 512.039062 346.867188 L 510.117188 346.867188 Z M 510.117188 346.722656 " fill-opacity="1" fill-rule="nonzero"/></g><g clip-path="url(#72347f6a57)"><path fill="#000000" d="M 538.953125 345.894531 L 539.222656 345.828125 C 539.449219 345.828125 539.675781 345.828125 539.902344 345.828125 L 540.71875 345.828125 L 542.617188 347.457031 C 546.875 351.304688 549.972656 356.105469 551.917969 361.855469 C 553.867188 367.609375 554.839844 373.585938 554.839844 379.789062 C 554.839844 382.867188 554.613281 385.832031 554.160156 388.6875 C 553.707031 391.539062 553.1875 393.960938 552.597656 395.953125 C 552.011719 397.945312 551.171875 399.941406 550.085938 401.933594 C 549 403.925781 548.140625 405.441406 547.507812 406.484375 C 546.875 407.523438 545.945312 408.679688 544.722656 409.945312 C 543.5 411.214844 542.777344 411.960938 542.550781 412.1875 C 542.324219 412.414062 541.804688 412.84375 540.988281 413.480469 C 540.851562 413.613281 540.761719 413.707031 540.71875 413.75 L 539.902344 413.75 C 539.539062 413.75 539.292969 413.75 539.15625 413.75 C 539.019531 413.75 538.90625 413.683594 538.816406 413.546875 C 538.726562 413.410156 538.65625 413.207031 538.613281 412.9375 C 538.65625 412.890625 538.90625 412.597656 539.359375 412.050781 C 546.375 404.761719 549.882812 394.007812 549.882812 379.789062 C 549.882812 365.570312 546.375 354.816406 539.359375 347.523438 C 538.90625 346.980469 538.65625 346.6875 538.613281 346.640625 C 538.613281 346.28125 538.726562 346.03125 538.953125 345.894531 Z M 538.953125 345.894531 " fill-opacity="1" fill-rule="nonzero"/></g><path fill="#000000" d="M 619.148438 394.800781 C 619.148438 395.707031 618.671875 396.160156 617.722656 396.160156 C 617.496094 396.160156 616.996094 395.796875 616.226562 395.070312 C 615.457031 394.347656 613.332031 392.242188 609.84375 388.753906 L 602.785156 381.691406 L 595.65625 388.824219 C 590.859375 393.53125 588.390625 395.933594 588.253906 396.023438 C 588.074219 396.113281 587.917969 396.160156 587.78125 396.160156 C 587.417969 396.160156 587.101562 396.023438 586.828125 395.75 C 586.558594 395.480469 586.398438 395.164062 586.355469 394.800781 C 586.355469 394.484375 586.671875 393.984375 587.304688 393.304688 C 587.9375 392.625 590.066406 390.476562 593.6875 386.851562 L 600.746094 379.789062 L 593.6875 372.722656 C 590.019531 369.058594 587.894531 366.90625 587.304688 366.273438 C 586.71875 365.636719 586.398438 365.140625 586.355469 364.777344 C 586.355469 364.371094 586.492188 364.054688 586.761719 363.828125 C 587.035156 363.601562 587.375 363.488281 587.78125 363.488281 C 588.007812 363.488281 588.164062 363.507812 588.253906 363.554688 C 588.390625 363.644531 590.859375 366.046875 595.65625 370.753906 L 602.785156 377.886719 L 609.84375 370.824219 C 613.332031 367.335938 615.457031 365.230469 616.226562 364.503906 C 616.996094 363.78125 617.496094 363.417969 617.722656 363.417969 C 618.671875 363.417969 619.148438 363.871094 619.148438 364.777344 C 619.148438 365.09375 618.921875 365.503906 618.46875 366 C 618.015625 366.5 615.796875 368.71875 611.8125 372.65625 L 604.753906 379.789062 L 611.8125 386.921875 C 615.617188 390.722656 617.789062 392.921875 618.332031 393.507812 C 618.875 394.097656 619.148438 394.527344 619.148438 394.800781 Z M 619.148438 394.800781 " fill-opacity="1" fill-rule="nonzero"/><path fill="#000000" d="M 647.132812 375.507812 C 647.132812 368.128906 648.964844 362.285156 652.632812 357.984375 C 656.296875 353.683594 660.371094 351.53125 664.851562 351.53125 C 667.976562 351.53125 670.214844 352.347656 671.574219 353.976562 C 672.929688 355.609375 673.609375 357.417969 673.609375 359.410156 C 673.609375 360.542969 673.292969 361.449219 672.660156 362.128906 C 672.027344 362.808594 671.144531 363.148438 670.011719 363.148438 C 668.96875 363.148438 668.109375 362.832031 667.433594 362.195312 C 666.753906 361.5625 666.414062 360.679688 666.414062 359.546875 C 666.414062 357.554688 667.476562 356.355469 669.605469 355.949219 C 668.609375 354.949219 667.207031 354.386719 665.394531 354.25 C 662.179688 354.25 659.535156 355.609375 657.453125 358.324219 C 655.324219 361.3125 654.261719 365.886719 654.261719 372.046875 L 654.328125 372.316406 C 654.554688 372.046875 654.734375 371.75 654.871094 371.433594 C 656.726562 368.71875 659.148438 367.359375 662.136719 367.359375 L 662.40625 367.359375 C 664.488281 367.359375 666.324219 367.789062 667.90625 368.648438 C 668.992188 369.28125 670.078125 370.1875 671.164062 371.367188 C 672.253906 372.542969 673.132812 373.835938 673.8125 375.238281 C 674.765625 377.457031 675.238281 379.878906 675.238281 382.503906 L 675.238281 383.726562 C 675.238281 384.769531 675.125 385.742188 674.898438 386.648438 C 674.402344 389.320312 672.953125 391.925781 670.554688 394.460938 C 668.15625 396.996094 665.125 398.265625 661.457031 398.265625 C 660.191406 398.265625 658.96875 398.082031 657.789062 397.71875 C 656.613281 397.359375 655.347656 396.679688 653.988281 395.683594 C 652.632812 394.6875 651.476562 393.351562 650.527344 391.675781 C 649.574219 390 648.761719 387.804688 648.082031 385.085938 C 647.402344 382.371094 647.085938 379.175781 647.132812 375.507812 Z M 661.730469 369.804688 C 660.371094 369.804688 659.195312 370.1875 658.199219 370.957031 C 657.203125 371.726562 656.433594 372.746094 655.890625 374.015625 C 655.347656 375.28125 654.960938 376.574219 654.734375 377.886719 C 654.507812 379.199219 654.375 380.605469 654.328125 382.097656 C 654.328125 385.855469 654.601562 388.550781 655.144531 390.179688 C 655.6875 391.8125 656.546875 393.125 657.722656 394.121094 C 658.808594 394.9375 660.007812 395.34375 661.320312 395.34375 C 663.628906 395.34375 665.394531 394.484375 666.617188 392.761719 C 667.207031 391.945312 667.613281 390.929688 667.839844 389.707031 C 668.066406 388.484375 668.179688 386.105469 668.179688 382.574219 C 668.179688 378.949219 668.066406 376.527344 667.839844 375.304688 C 667.613281 374.082031 667.207031 373.0625 666.617188 372.25 C 665.394531 370.617188 663.765625 369.804688 661.730469 369.804688 Z M 661.730469 369.804688 " fill-opacity="1" fill-rule="nonzero"/><path fill="#000000" d="M 684.746094 357.035156 C 687.277344 353.367188 690.742188 351.53125 695.132812 351.53125 C 697.304688 351.53125 699.476562 352.121094 701.648438 353.296875 C 703.820312 354.476562 705.585938 356.558594 706.945312 359.546875 C 708.621094 363.304688 709.457031 368.46875 709.457031 375.035156 C 709.457031 382.054688 708.484375 387.417969 706.539062 391.132812 C 705.632812 393.035156 704.386719 394.550781 702.804688 395.683594 C 701.21875 396.816406 699.839844 397.515625 698.664062 397.789062 C 697.484375 398.058594 696.332031 398.21875 695.199219 398.265625 C 694.023438 398.265625 692.847656 398.128906 691.667969 397.855469 C 690.492188 397.585938 689.113281 396.859375 687.527344 395.683594 C 685.945312 394.503906 684.699219 392.988281 683.792969 391.132812 C 681.847656 387.417969 680.875 382.054688 680.875 375.035156 C 680.875 367.15625 682.164062 361.15625 684.746094 357.035156 Z M 700.019531 356.21875 C 698.664062 354.769531 697.054688 354.046875 695.199219 354.046875 C 693.296875 354.046875 691.667969 354.769531 690.3125 356.21875 C 689.179688 357.394531 688.433594 359.027344 688.070312 361.109375 C 687.707031 363.191406 687.527344 367.539062 687.527344 374.152344 C 687.527344 381.304688 687.707031 386.015625 688.070312 388.277344 C 688.433594 390.542969 689.246094 392.332031 690.515625 393.644531 C 691.78125 395.003906 693.34375 395.683594 695.199219 395.683594 C 697.011719 395.683594 698.550781 395.003906 699.816406 393.644531 C 701.128906 392.285156 701.945312 390.386719 702.261719 387.941406 C 702.578125 385.496094 702.757812 380.898438 702.804688 374.152344 C 702.804688 367.585938 702.621094 363.261719 702.261719 361.175781 C 701.898438 359.09375 701.152344 357.441406 700.019531 356.21875 Z M 700.019531 356.21875 " fill-opacity="1" fill-rule="nonzero"/></svg>