<svg xmlns="http://www.w3.org/2000/svg" xmlns:xlink="http://www.w3.org/1999/xlink" width="1000" zoomAndPan="magnify" viewBox="0 0 750 749.999995" height="1000" preserveAspectRatio="xMidYMid meet" version="1.0"><defs><clipPath id="4109e0e668"><path d="M 43 346 L 60 346 L 60 412.71875 L 43 412.71875 Z M 43 346 " clip-rule="nonzero"/></clipPath><clipPath id="d6ec6f2af7"><path d="M 515 337.28125 L 535 337.28125 L 535 369 L 515 369 Z M 515 337.28125 " clip-rule="nonzero"/></clipPath><clipPath id="529f293034"><path d="M 543 346 L 560 346 L 560 412.71875 L 543 412.71875 Z M 543 346 " clip-rule="nonzero"/></clipPath></defs><rect x="-75" width="900" fill="#ffffff" y="-74.999999" height="899.999994" fill-opacity="1"/><rect x="-75" width="900" fill="#ffffff" y="-74.999999" height="899.999994" fill-opacity="1"/><g clip-path="url(#4109e0e668)"><path fill="#000000" d="M 43.714844 379.425781 C 43.714844 376.386719 43.9375 373.5 44.378906 370.765625 C 44.820312 368.03125 45.324219 365.675781 45.898438 363.691406 C 46.472656 361.707031 47.289062 359.769531 48.347656 357.875 C 49.402344 355.976562 50.242188 354.5 50.859375 353.445312 C 51.476562 352.386719 52.402344 351.238281 53.636719 350.003906 C 54.871094 348.769531 55.597656 348.023438 55.820312 347.757812 C 56.039062 347.492188 56.589844 347.03125 57.472656 346.371094 L 58.597656 346.371094 C 59.214844 346.371094 59.523438 346.566406 59.523438 346.964844 C 59.523438 347.097656 59.148438 347.558594 58.398438 348.351562 C 57.648438 349.144531 56.746094 350.3125 55.6875 351.855469 C 54.628906 353.398438 53.546875 355.292969 52.445312 357.542969 C 51.34375 359.789062 50.417969 362.832031 49.667969 366.667969 C 48.917969 370.5 48.542969 374.753906 48.542969 379.425781 C 48.542969 384.097656 48.917969 388.328125 49.667969 392.121094 C 50.417969 395.910156 51.320312 398.972656 52.378906 401.308594 C 53.4375 403.644531 54.519531 405.542969 55.621094 406.996094 C 56.722656 408.449219 57.648438 409.617188 58.398438 410.5 C 59.148438 411.382812 59.523438 411.84375 59.523438 411.886719 C 59.523438 412.285156 59.191406 412.484375 58.53125 412.484375 L 57.472656 412.484375 L 55.621094 410.898438 C 51.476562 407.148438 48.457031 402.476562 46.558594 396.878906 C 44.664062 391.28125 43.714844 385.464844 43.714844 379.425781 Z M 43.714844 379.425781 " fill-opacity="1" fill-rule="nonzero"/></g><path fill="#000000" d="M 67.855469 368.386719 C 67.855469 368.386719 67.855469 366.6875 67.855469 363.292969 C 67.855469 359.902344 69.046875 357.167969 71.425781 355.097656 C 73.808594 353.023438 76.539062 351.96875 79.628906 351.921875 C 82.757812 351.921875 85.535156 352.847656 87.960938 354.699219 C 90.386719 356.550781 91.597656 358.953125 91.597656 361.90625 C 91.597656 363.226562 91.355469 364.460938 90.871094 365.609375 C 90.386719 366.753906 89.8125 367.679688 89.152344 368.386719 C 88.488281 369.089844 87.804688 369.707031 87.101562 370.238281 C 86.394531 370.765625 85.820312 371.160156 85.378906 371.425781 C 84.941406 371.691406 84.699219 371.867188 84.652344 371.957031 L 85.578125 372.550781 C 86.195312 372.992188 86.8125 373.433594 87.429688 373.871094 C 88.046875 374.3125 88.402344 374.554688 88.488281 374.601562 C 91.796875 377.199219 93.449219 380.484375 93.449219 384.449219 C 93.449219 387.933594 92.171875 390.953125 89.613281 393.507812 C 87.054688 396.066406 83.75 397.367188 79.691406 397.410156 C 75.726562 397.410156 72.460938 396.285156 69.90625 394.039062 C 67.347656 391.789062 66.070312 389.011719 66.070312 385.707031 C 66.070312 380.945312 68.914062 376.980469 74.601562 373.804688 L 73.410156 372.945312 C 72.484375 372.375 71.890625 371.933594 71.625 371.625 C 69.113281 369.464844 67.855469 366.6875 67.855469 363.292969 Z M 82.140625 370.433594 L 82.535156 370.171875 C 82.800781 369.992188 83 369.863281 83.132812 369.773438 C 83.265625 369.683594 83.484375 369.53125 83.792969 369.3125 C 84.101562 369.089844 84.367188 368.871094 84.585938 368.648438 C 84.808594 368.429688 85.050781 368.164062 85.316406 367.855469 C 85.578125 367.546875 85.820312 367.261719 86.042969 366.996094 C 86.261719 366.730469 86.484375 366.378906 86.703125 365.9375 C 86.925781 365.5 87.121094 365.125 87.296875 364.816406 C 87.476562 364.507812 87.585938 364.066406 87.628906 363.492188 C 87.671875 362.917969 87.71875 362.433594 87.761719 362.039062 C 87.761719 360.144531 87.121094 358.535156 85.84375 357.210938 C 84.566406 355.890625 83.089844 355.050781 81.414062 354.699219 C 81.105469 354.65625 80.375 354.632812 79.230469 354.632812 C 77.421875 354.632812 75.726562 355.207031 74.136719 356.351562 C 72.550781 357.5 71.734375 358.929688 71.691406 360.648438 C 71.691406 361.664062 71.976562 362.589844 72.550781 363.425781 C 73.125 364.265625 73.695312 364.902344 74.269531 365.34375 C 74.84375 365.785156 75.945312 366.488281 77.578125 367.460938 C 77.886719 367.679688 78.128906 367.835938 78.304688 367.921875 Z M 79.757812 394.566406 C 82.316406 394.566406 84.519531 393.816406 86.371094 392.320312 C 88.222656 390.820312 89.152344 389.011719 89.152344 386.898438 C 89.152344 386.148438 89.039062 385.441406 88.820312 384.78125 C 88.597656 384.121094 88.335938 383.570312 88.027344 383.128906 C 87.71875 382.6875 87.234375 382.203125 86.570312 381.675781 C 85.910156 381.144531 85.402344 380.75 85.050781 380.484375 C 84.699219 380.21875 84.058594 379.800781 83.132812 379.226562 C 82.207031 378.65625 81.609375 378.28125 81.347656 378.105469 C 80.730469 377.707031 80.066406 377.289062 79.363281 376.847656 C 78.65625 376.40625 78.085938 376.03125 77.644531 375.722656 L 77.113281 375.394531 C 76.847656 375.394531 76.210938 375.769531 75.195312 376.515625 C 74.183594 377.265625 73.125 378.480469 72.023438 380.152344 C 70.917969 381.828125 70.347656 383.636719 70.300781 385.574219 C 70.300781 388.175781 71.25 390.3125 73.144531 391.988281 C 75.042969 393.664062 77.246094 394.523438 79.757812 394.566406 Z M 79.757812 394.566406 " fill-opacity="1" fill-rule="nonzero"/><path fill="#000000" d="M 126.847656 395.953125 C 126.054688 395.824219 123.210938 395.757812 118.316406 395.757812 C 113.199219 395.757812 110.246094 395.824219 109.453125 395.953125 L 108.859375 395.953125 L 108.859375 392.914062 L 110.910156 392.914062 C 111.789062 392.914062 112.386719 392.914062 112.695312 392.914062 C 113.003906 392.914062 113.378906 392.871094 113.816406 392.78125 C 114.257812 392.691406 114.566406 392.582031 114.746094 392.449219 C 114.921875 392.320312 115.074219 392.140625 115.207031 391.921875 C 115.25 391.832031 115.273438 390.644531 115.273438 388.351562 L 115.273438 385.046875 L 98.144531 385.046875 L 98.144531 382.003906 L 108.128906 366.730469 C 114.875 356.507812 118.292969 351.371094 118.382812 351.328125 C 118.46875 351.238281 118.933594 351.195312 119.769531 351.195312 L 120.960938 351.195312 L 121.359375 351.59375 L 121.359375 382.003906 L 127.441406 382.003906 L 127.441406 385.046875 L 121.359375 385.046875 L 121.359375 388.417969 C 121.359375 390.226562 121.359375 391.28125 121.359375 391.589844 C 121.359375 391.898438 121.488281 392.164062 121.753906 392.382812 C 122.105469 392.691406 123.363281 392.871094 125.523438 392.914062 L 127.441406 392.914062 L 127.441406 395.953125 Z M 115.671875 382.003906 L 115.671875 359.921875 L 101.1875 381.9375 L 108.394531 382.003906 Z M 115.671875 382.003906 " fill-opacity="1" fill-rule="nonzero"/><path fill="#000000" d="M 132.996094 365.675781 C 133.042969 365.585938 133.414062 363.183594 134.121094 358.46875 L 135.179688 351.394531 C 135.179688 351.304688 135.621094 351.261719 136.503906 351.261719 L 137.824219 351.261719 L 137.824219 351.527344 C 137.824219 351.96875 138.15625 352.339844 138.816406 352.648438 C 139.476562 352.957031 140.625 353.15625 142.253906 353.246094 C 143.886719 353.332031 147.613281 353.378906 153.433594 353.378906 L 161.433594 353.378906 L 161.433594 355.957031 L 156.9375 362.105469 C 156.539062 362.632812 155.878906 363.515625 154.953125 364.75 C 154.027344 365.984375 153.433594 366.796875 153.167969 367.195312 C 152.902344 367.59375 152.441406 368.296875 151.777344 369.3125 C 151.117188 370.324219 150.675781 371.117188 150.457031 371.691406 C 150.234375 372.265625 149.925781 373.078125 149.53125 374.136719 C 149.132812 375.195312 148.847656 376.207031 148.671875 377.179688 C 148.496094 378.148438 148.316406 379.339844 148.140625 380.75 C 147.964844 382.160156 147.832031 383.65625 147.746094 385.246094 C 147.65625 386.832031 147.589844 388.636719 147.546875 390.664062 C 147.546875 391.28125 147.546875 391.898438 147.546875 392.515625 C 147.546875 393.132812 147.523438 393.664062 147.480469 394.105469 L 147.480469 394.699219 C 147.304688 395.449219 146.886719 396.085938 146.222656 396.617188 C 145.5625 397.144531 144.8125 397.410156 143.976562 397.410156 C 143.492188 397.410156 143.027344 397.34375 142.585938 397.210938 C 142.144531 397.078125 141.683594 396.660156 141.199219 395.953125 C 140.710938 395.25 140.46875 394.367188 140.46875 393.308594 C 140.46875 386.347656 142.609375 379.117188 146.886719 371.625 C 147.765625 370.214844 149.617188 367.546875 152.441406 363.625 L 155.484375 359.460938 L 149.332031 359.460938 C 141.660156 359.460938 137.625 359.59375 137.230469 359.855469 C 136.964844 359.988281 136.722656 360.519531 136.503906 361.441406 C 136.28125 362.367188 136.0625 363.316406 135.839844 364.285156 L 135.640625 365.675781 L 135.640625 365.871094 L 132.996094 365.871094 Z M 132.996094 365.675781 " fill-opacity="1" fill-rule="nonzero"/><path fill="#000000" d="M 173.273438 385.574219 C 173.273438 386.632812 172.917969 387.515625 172.214844 388.21875 C 171.507812 388.925781 170.648438 389.277344 169.636719 389.277344 L 169.171875 389.277344 C 171.199219 392.757812 173.890625 394.5 177.242188 394.5 C 180.328125 394.5 182.574219 393.179688 183.984375 390.535156 C 184.824219 389.078125 185.242188 386.257812 185.242188 382.070312 C 185.242188 377.53125 184.648438 374.46875 183.457031 372.882812 C 182.3125 371.425781 181.03125 370.699219 179.621094 370.699219 L 179.222656 370.699219 C 175.785156 370.699219 173.183594 372.199219 171.421875 375.195312 C 171.246094 375.503906 171.089844 375.679688 170.957031 375.722656 C 170.824219 375.769531 170.496094 375.8125 169.964844 375.855469 C 169.214844 375.855469 168.796875 375.722656 168.710938 375.460938 C 168.621094 375.28125 168.578125 371.425781 168.578125 363.890625 L 168.578125 355.359375 C 168.578125 353.15625 168.6875 352.054688 168.90625 352.054688 C 168.996094 351.96875 169.085938 351.921875 169.171875 351.921875 C 169.214844 351.921875 169.679688 352.097656 170.5625 352.453125 C 171.441406 352.804688 172.65625 353.15625 174.199219 353.507812 C 175.742188 353.863281 177.394531 354.039062 179.160156 354.039062 C 182.289062 354.039062 185.285156 353.421875 188.152344 352.1875 C 188.503906 352.011719 188.792969 351.921875 189.011719 351.921875 C 189.363281 351.921875 189.542969 352.320312 189.542969 353.113281 L 189.542969 353.972656 C 185.925781 358.246094 181.40625 360.386719 175.984375 360.386719 C 174.617188 360.386719 173.382812 360.253906 172.28125 359.988281 L 171.621094 359.855469 L 171.621094 371.226562 C 172.457031 370.609375 173.117188 370.125 173.601562 369.773438 C 174.089844 369.421875 174.882812 369.070312 175.984375 368.714844 C 177.085938 368.363281 178.210938 368.1875 179.355469 368.1875 C 182.929688 368.1875 185.949219 369.621094 188.417969 372.484375 C 190.886719 375.347656 192.121094 378.742188 192.121094 382.664062 C 192.121094 386.722656 190.710938 390.179688 187.886719 393.046875 C 185.066406 395.910156 181.628906 397.367188 177.570312 397.410156 C 174 397.410156 171.132812 396.21875 168.972656 393.839844 C 166.8125 391.460938 165.734375 388.769531 165.734375 385.773438 C 165.734375 384.714844 165.976562 383.878906 166.460938 383.261719 C 166.945312 382.644531 167.453125 382.246094 167.980469 382.070312 C 168.511719 381.894531 169.019531 381.804688 169.503906 381.804688 C 170.605469 381.804688 171.507812 382.179688 172.214844 382.929688 C 172.917969 383.679688 173.273438 384.5625 173.273438 385.574219 Z M 173.273438 385.574219 " fill-opacity="1" fill-rule="nonzero"/><path fill="#000000" d="M 201.84375 357.277344 C 204.3125 353.707031 207.683594 351.921875 211.960938 351.921875 C 214.078125 351.921875 216.191406 352.496094 218.308594 353.640625 C 220.425781 354.789062 222.144531 356.816406 223.46875 359.722656 C 225.097656 363.382812 225.914062 368.40625 225.914062 374.796875 C 225.914062 381.628906 224.96875 386.851562 223.070312 390.46875 C 222.1875 392.320312 220.976562 393.796875 219.433594 394.898438 C 217.890625 396 216.546875 396.683594 215.398438 396.945312 C 214.253906 397.210938 213.128906 397.367188 212.027344 397.410156 C 210.878906 397.410156 209.734375 397.277344 208.585938 397.011719 C 207.441406 396.75 206.097656 396.042969 204.554688 394.898438 C 203.011719 393.75 201.796875 392.273438 200.917969 390.46875 C 199.019531 386.851562 198.074219 381.628906 198.074219 374.796875 C 198.074219 367.128906 199.328125 361.289062 201.84375 357.277344 Z M 216.722656 356.484375 C 215.398438 355.074219 213.835938 354.367188 212.027344 354.367188 C 210.175781 354.367188 208.585938 355.074219 207.265625 356.484375 C 206.164062 357.628906 205.433594 359.21875 205.082031 361.246094 C 204.730469 363.273438 204.554688 367.503906 204.554688 373.9375 C 204.554688 380.902344 204.730469 385.488281 205.082031 387.691406 C 205.433594 389.894531 206.230469 391.636719 207.464844 392.914062 C 208.699219 394.234375 210.21875 394.898438 212.027344 394.898438 C 213.789062 394.898438 215.289062 394.234375 216.523438 392.914062 C 217.800781 391.589844 218.597656 389.738281 218.90625 387.359375 C 219.214844 384.980469 219.390625 380.507812 219.433594 373.9375 C 219.433594 367.546875 219.257812 363.339844 218.90625 361.3125 C 218.550781 359.285156 217.824219 357.675781 216.722656 356.484375 Z M 216.722656 356.484375 " fill-opacity="1" fill-rule="nonzero"/><path fill="#000000" d="M 234.910156 357.277344 C 237.378906 353.707031 240.75 351.921875 245.027344 351.921875 C 247.144531 351.921875 249.261719 352.496094 251.375 353.640625 C 253.492188 354.789062 255.210938 356.816406 256.535156 359.722656 C 258.167969 363.382812 258.980469 368.40625 258.980469 374.796875 C 258.980469 381.628906 258.035156 386.851562 256.136719 390.46875 C 255.257812 392.320312 254.042969 393.796875 252.5 394.898438 C 250.957031 396 249.613281 396.683594 248.464844 396.945312 C 247.320312 397.210938 246.195312 397.367188 245.09375 397.410156 C 243.949219 397.410156 242.800781 397.277344 241.65625 397.011719 C 240.507812 396.75 239.164062 396.042969 237.621094 394.898438 C 236.078125 393.75 234.863281 392.273438 233.984375 390.46875 C 232.085938 386.851562 231.140625 381.628906 231.140625 374.796875 C 231.140625 367.128906 232.394531 361.289062 234.910156 357.277344 Z M 249.789062 356.484375 C 248.464844 355.074219 246.902344 354.367188 245.09375 354.367188 C 243.242188 354.367188 241.65625 355.074219 240.332031 356.484375 C 239.230469 357.628906 238.503906 359.21875 238.148438 361.246094 C 237.796875 363.273438 237.621094 367.503906 237.621094 373.9375 C 237.621094 380.902344 237.796875 385.488281 238.148438 387.691406 C 238.503906 389.894531 239.296875 391.636719 240.53125 392.914062 C 241.765625 394.234375 243.285156 394.898438 245.09375 394.898438 C 246.855469 394.898438 248.355469 394.234375 249.589844 392.914062 C 250.871094 391.589844 251.664062 389.738281 251.972656 387.359375 C 252.28125 384.980469 252.457031 380.507812 252.5 373.9375 C 252.5 367.546875 252.324219 363.339844 251.972656 361.3125 C 251.617188 359.285156 250.890625 357.675781 249.789062 356.484375 Z M 249.789062 356.484375 " fill-opacity="1" fill-rule="nonzero"/><path fill="#000000" d="M 267.976562 357.277344 C 270.445312 353.707031 273.816406 351.921875 278.09375 351.921875 C 280.210938 351.921875 282.328125 352.496094 284.441406 353.640625 C 286.558594 354.789062 288.277344 356.816406 289.601562 359.722656 C 291.234375 363.382812 292.046875 368.40625 292.046875 374.796875 C 292.046875 381.628906 291.101562 386.851562 289.203125 390.46875 C 288.324219 392.320312 287.109375 393.796875 285.566406 394.898438 C 284.023438 396 282.679688 396.683594 281.535156 396.945312 C 280.386719 397.210938 279.261719 397.367188 278.160156 397.410156 C 277.015625 397.410156 275.867188 397.277344 274.722656 397.011719 C 273.574219 396.75 272.230469 396.042969 270.6875 394.898438 C 269.144531 393.75 267.933594 392.273438 267.050781 390.46875 C 265.152344 386.851562 264.207031 381.628906 264.207031 374.796875 C 264.207031 367.128906 265.460938 361.289062 267.976562 357.277344 Z M 282.855469 356.484375 C 281.535156 355.074219 279.96875 354.367188 278.160156 354.367188 C 276.308594 354.367188 274.722656 355.074219 273.398438 356.484375 C 272.296875 357.628906 271.570312 359.21875 271.214844 361.246094 C 270.863281 363.273438 270.6875 367.503906 270.6875 373.9375 C 270.6875 380.902344 270.863281 385.488281 271.214844 387.691406 C 271.570312 389.894531 272.363281 391.636719 273.597656 392.914062 C 274.832031 394.234375 276.351562 394.898438 278.160156 394.898438 C 279.925781 394.898438 281.421875 394.234375 282.65625 392.914062 C 283.9375 391.589844 284.730469 389.738281 285.039062 387.359375 C 285.347656 384.980469 285.523438 380.507812 285.566406 373.9375 C 285.566406 367.546875 285.390625 363.339844 285.039062 361.3125 C 284.6875 359.285156 283.957031 357.675781 282.855469 356.484375 Z M 282.855469 356.484375 " fill-opacity="1" fill-rule="nonzero"/><path fill="#000000" d="M 301.042969 357.277344 C 303.511719 353.707031 306.882812 351.921875 311.160156 351.921875 C 313.277344 351.921875 315.394531 352.496094 317.511719 353.640625 C 319.625 354.789062 321.347656 356.816406 322.667969 359.722656 C 324.300781 363.382812 325.117188 368.40625 325.117188 374.796875 C 325.117188 381.628906 324.167969 386.851562 322.273438 390.46875 C 321.390625 392.320312 320.175781 393.796875 318.632812 394.898438 C 317.089844 396 315.746094 396.683594 314.601562 396.945312 C 313.453125 397.210938 312.328125 397.367188 311.226562 397.410156 C 310.082031 397.410156 308.933594 397.277344 307.789062 397.011719 C 306.640625 396.75 305.296875 396.042969 303.753906 394.898438 C 302.210938 393.75 301 392.273438 300.117188 390.46875 C 298.222656 386.851562 297.273438 381.628906 297.273438 374.796875 C 297.273438 367.128906 298.53125 361.289062 301.042969 357.277344 Z M 315.921875 356.484375 C 314.601562 355.074219 313.035156 354.367188 311.226562 354.367188 C 309.375 354.367188 307.789062 355.074219 306.464844 356.484375 C 305.363281 357.628906 304.636719 359.21875 304.285156 361.246094 C 303.929688 363.273438 303.753906 367.503906 303.753906 373.9375 C 303.753906 380.902344 303.929688 385.488281 304.285156 387.691406 C 304.636719 389.894531 305.429688 391.636719 306.664062 392.914062 C 307.898438 394.234375 309.417969 394.898438 311.226562 394.898438 C 312.992188 394.898438 314.488281 394.234375 315.722656 392.914062 C 317.003906 391.589844 317.796875 389.738281 318.105469 387.359375 C 318.414062 384.980469 318.589844 380.507812 318.632812 373.9375 C 318.632812 367.546875 318.457031 363.339844 318.105469 361.3125 C 317.753906 359.285156 317.023438 357.675781 315.921875 356.484375 Z M 315.921875 356.484375 " fill-opacity="1" fill-rule="nonzero"/><path fill="#000000" d="M 384.121094 394.039062 C 384.121094 394.917969 383.65625 395.359375 382.730469 395.359375 C 382.511719 395.359375 382.027344 395.007812 381.277344 394.300781 C 380.527344 393.597656 378.453125 391.546875 375.058594 388.152344 L 368.183594 381.277344 L 361.238281 388.21875 C 356.5625 392.804688 354.160156 395.140625 354.027344 395.226562 C 353.851562 395.316406 353.699219 395.359375 353.566406 395.359375 C 353.214844 395.359375 352.90625 395.226562 352.640625 394.964844 C 352.375 394.699219 352.222656 394.390625 352.175781 394.039062 C 352.175781 393.730469 352.484375 393.246094 353.101562 392.582031 C 353.71875 391.921875 355.792969 389.828125 359.320312 386.300781 L 366.199219 379.425781 L 359.320312 372.550781 C 355.75 368.980469 353.675781 366.886719 353.101562 366.269531 C 352.53125 365.652344 352.222656 365.167969 352.175781 364.816406 C 352.175781 364.417969 352.308594 364.109375 352.574219 363.890625 C 352.839844 363.667969 353.167969 363.558594 353.566406 363.558594 C 353.785156 363.558594 353.941406 363.582031 354.027344 363.625 C 354.160156 363.714844 356.5625 366.050781 361.238281 370.632812 L 368.183594 377.574219 L 375.058594 370.699219 C 378.453125 367.304688 380.527344 365.257812 381.277344 364.550781 C 382.027344 363.84375 382.511719 363.492188 382.730469 363.492188 C 383.65625 363.492188 384.121094 363.933594 384.121094 364.816406 C 384.121094 365.125 383.898438 365.519531 383.457031 366.003906 C 383.019531 366.488281 380.855469 368.648438 376.976562 372.484375 L 370.101562 379.425781 L 376.976562 386.367188 C 380.679688 390.070312 382.796875 392.207031 383.328125 392.78125 C 383.855469 393.355469 384.121094 393.773438 384.121094 394.039062 Z M 384.121094 394.039062 " fill-opacity="1" fill-rule="nonzero"/><path fill="#000000" d="M 422.6875 357.742188 L 421.828125 358.070312 C 421.210938 358.292969 420.332031 358.511719 419.183594 358.734375 C 418.039062 358.953125 416.757812 359.105469 415.347656 359.195312 L 414.089844 359.195312 L 414.089844 356.152344 L 415.347656 356.152344 C 417.421875 356.066406 419.339844 355.734375 421.101562 355.164062 C 422.867188 354.589844 424.101562 354.058594 424.804688 353.574219 C 425.511719 353.089844 426.128906 352.605469 426.65625 352.121094 C 426.746094 351.988281 427.011719 351.921875 427.449219 351.921875 C 427.847656 351.921875 428.222656 352.054688 428.574219 352.320312 L 428.574219 372.085938 L 428.640625 391.921875 C 428.949219 392.230469 429.214844 392.429688 429.433594 392.515625 C 429.65625 392.605469 430.183594 392.691406 431.023438 392.78125 C 431.859375 392.871094 433.226562 392.914062 435.121094 392.914062 L 436.839844 392.914062 L 436.839844 395.953125 L 436.113281 395.953125 C 435.1875 395.824219 431.683594 395.757812 425.597656 395.757812 C 419.601562 395.757812 416.140625 395.824219 415.214844 395.953125 L 414.421875 395.953125 L 414.421875 392.914062 L 416.140625 392.914062 C 417.113281 392.914062 417.949219 392.914062 418.65625 392.914062 C 419.359375 392.914062 419.910156 392.890625 420.308594 392.847656 C 420.707031 392.804688 421.058594 392.738281 421.367188 392.648438 C 421.675781 392.5625 421.851562 392.515625 421.894531 392.515625 C 421.941406 392.515625 422.070312 392.40625 422.292969 392.1875 C 422.511719 391.964844 422.644531 391.878906 422.6875 391.921875 Z M 422.6875 357.742188 " fill-opacity="1" fill-rule="nonzero"/><path fill="#000000" d="M 448.019531 357.277344 C 450.488281 353.707031 453.859375 351.921875 458.136719 351.921875 C 460.253906 351.921875 462.371094 352.496094 464.484375 353.640625 C 466.601562 354.789062 468.320312 356.816406 469.644531 359.722656 C 471.273438 363.382812 472.089844 368.40625 472.089844 374.796875 C 472.089844 381.628906 471.144531 386.851562 469.246094 390.46875 C 468.367188 392.320312 467.152344 393.796875 465.609375 394.898438 C 464.066406 396 462.722656 396.683594 461.574219 396.945312 C 460.429688 397.210938 459.304688 397.367188 458.203125 397.410156 C 457.054688 397.410156 455.910156 397.277344 454.765625 397.011719 C 453.617188 396.75 452.273438 396.042969 450.730469 394.898438 C 449.1875 393.75 447.972656 392.273438 447.09375 390.46875 C 445.195312 386.851562 444.25 381.628906 444.25 374.796875 C 444.25 367.128906 445.503906 361.289062 448.019531 357.277344 Z M 462.898438 356.484375 C 461.574219 355.074219 460.011719 354.367188 458.203125 354.367188 C 456.351562 354.367188 454.765625 355.074219 453.441406 356.484375 C 452.339844 357.628906 451.613281 359.21875 451.257812 361.246094 C 450.90625 363.273438 450.730469 367.503906 450.730469 373.9375 C 450.730469 380.902344 450.90625 385.488281 451.257812 387.691406 C 451.613281 389.894531 452.40625 391.636719 453.640625 392.914062 C 454.875 394.234375 456.394531 394.898438 458.203125 394.898438 C 459.964844 394.898438 461.464844 394.234375 462.699219 392.914062 C 463.980469 391.589844 464.773438 389.738281 465.082031 387.359375 C 465.390625 384.980469 465.566406 380.507812 465.609375 373.9375 C 465.609375 367.546875 465.433594 363.339844 465.082031 361.3125 C 464.726562 359.285156 464 357.675781 462.898438 356.484375 Z M 462.898438 356.484375 " fill-opacity="1" fill-rule="nonzero"/><path fill="#000000" d="M 480.847656 357.570312 C 480.847656 357.570312 480.847656 357.371094 480.847656 356.964844 C 480.847656 356.558594 481.066406 356.246094 481.5 356.027344 L 508.667969 356.027344 C 509.132812 356.277344 509.367188 356.589844 509.367188 356.964844 C 509.367188 357.339844 509.132812 357.648438 508.667969 357.898438 L 481.5 357.898438 C 481.066406 357.679688 480.847656 357.371094 480.847656 356.964844 Z M 480.847656 357.570312 " fill-opacity="1" fill-rule="nonzero"/><g clip-path="url(#d6ec6f2af7)"><path fill="#000000" d="M 518.390625 348.597656 C 517.550781 348.597656 516.878906 348.316406 516.382812 347.753906 C 515.882812 347.195312 515.632812 346.507812 515.632812 345.699219 C 515.632812 343.488281 516.460938 341.570312 518.109375 339.949219 C 519.761719 338.328125 521.820312 337.519531 524.28125 337.519531 C 527.121094 337.519531 529.488281 338.390625 531.390625 340.136719 C 533.292969 341.882812 534.257812 344.140625 534.289062 346.914062 C 534.289062 348.253906 533.976562 349.53125 533.355469 350.746094 C 532.730469 351.960938 531.980469 353.023438 531.109375 353.925781 C 530.238281 354.828125 528.988281 355.984375 527.367188 357.382812 C 526.246094 358.351562 524.6875 359.785156 522.695312 361.683594 L 519.933594 364.300781 L 523.488281 364.347656 C 528.382812 364.347656 530.984375 364.273438 531.296875 364.117188 C 531.515625 364.054688 531.890625 362.667969 532.417969 359.957031 L 532.417969 359.816406 L 534.289062 359.816406 L 534.289062 359.957031 C 534.257812 360.050781 534.054688 361.46875 533.679688 364.210938 C 533.308594 366.953125 533.074219 368.386719 532.980469 368.507812 L 532.980469 368.648438 L 515.632812 368.648438 L 515.632812 367.199219 C 515.632812 366.984375 515.726562 366.75 515.914062 366.5 C 516.101562 366.25 516.566406 365.703125 517.316406 364.863281 C 518.21875 363.867188 519 362.992188 519.652344 362.246094 C 519.933594 361.933594 520.464844 361.359375 521.242188 360.515625 C 522.023438 359.675781 522.554688 359.097656 522.832031 358.785156 C 523.113281 358.476562 523.566406 357.960938 524.191406 357.246094 C 524.8125 356.527344 525.25 356 525.5 355.65625 C 525.75 355.3125 526.105469 354.84375 526.574219 354.253906 C 527.042969 353.660156 527.367188 353.164062 527.554688 352.757812 C 527.742188 352.351562 527.976562 351.898438 528.257812 351.402344 C 528.539062 350.902344 528.742188 350.40625 528.867188 349.90625 C 528.988281 349.40625 529.097656 348.941406 529.191406 348.503906 C 529.285156 348.066406 529.332031 347.554688 529.332031 346.960938 C 529.332031 344.996094 528.804688 343.300781 527.742188 341.867188 C 526.683594 340.433594 525.171875 339.714844 523.207031 339.714844 C 522.179688 339.714844 521.273438 339.980469 520.496094 340.511719 C 519.714844 341.039062 519.171875 341.554688 518.859375 342.054688 C 518.546875 342.550781 518.390625 342.847656 518.390625 342.941406 C 518.390625 342.972656 518.46875 342.988281 518.625 342.988281 C 519.1875 342.988281 519.761719 343.207031 520.355469 343.640625 C 520.949219 344.078125 521.242188 344.796875 521.242188 345.792969 C 521.242188 346.570312 520.996094 347.226562 520.496094 347.753906 C 519.996094 348.285156 519.296875 348.566406 518.390625 348.597656 Z M 518.390625 348.597656 " fill-opacity="1" fill-rule="nonzero"/></g><g clip-path="url(#529f293034)"><path fill="#000000" d="M 543.957031 346.433594 L 544.222656 346.371094 C 544.445312 346.371094 544.664062 346.371094 544.882812 346.371094 L 545.679688 346.371094 L 547.53125 347.957031 C 551.675781 351.703125 554.695312 356.375 556.589844 361.972656 C 558.484375 367.570312 559.433594 373.386719 559.433594 379.425781 C 559.433594 382.421875 559.214844 385.308594 558.773438 388.085938 C 558.332031 390.863281 557.824219 393.222656 557.25 395.160156 C 556.679688 397.101562 555.863281 399.039062 554.804688 400.980469 C 553.746094 402.917969 552.910156 404.394531 552.292969 405.410156 C 551.675781 406.421875 550.769531 407.546875 549.578125 408.78125 C 548.390625 410.015625 547.683594 410.742188 547.464844 410.960938 C 547.242188 411.183594 546.734375 411.601562 545.941406 412.21875 C 545.808594 412.351562 545.722656 412.4375 545.679688 412.484375 L 544.882812 412.484375 C 544.53125 412.484375 544.289062 412.484375 544.15625 412.484375 C 544.023438 412.484375 543.914062 412.417969 543.828125 412.285156 C 543.738281 412.152344 543.671875 411.953125 543.628906 411.691406 C 543.671875 411.644531 543.914062 411.359375 544.355469 410.832031 C 551.1875 403.734375 554.605469 393.265625 554.605469 379.425781 C 554.605469 365.585938 551.1875 355.117188 544.355469 348.023438 C 543.914062 347.492188 543.671875 347.207031 543.628906 347.164062 C 543.628906 346.808594 543.738281 346.566406 543.957031 346.433594 Z M 543.957031 346.433594 " fill-opacity="1" fill-rule="nonzero"/></g><path fill="#000000" d="M 622.074219 394.039062 C 622.074219 394.917969 621.613281 395.359375 620.6875 395.359375 C 620.464844 395.359375 619.980469 395.007812 619.230469 394.300781 C 618.480469 393.597656 616.410156 391.546875 613.015625 388.152344 L 606.136719 381.277344 L 599.195312 388.21875 C 594.519531 392.804688 592.117188 395.140625 591.984375 395.226562 C 591.808594 395.316406 591.652344 395.359375 591.523438 395.359375 C 591.167969 395.359375 590.859375 395.226562 590.597656 394.964844 C 590.332031 394.699219 590.175781 394.390625 590.132812 394.039062 C 590.132812 393.730469 590.441406 393.246094 591.058594 392.582031 C 591.675781 391.921875 593.75 389.828125 597.277344 386.300781 L 604.152344 379.425781 L 597.277344 372.550781 C 593.703125 368.980469 591.632812 366.886719 591.058594 366.269531 C 590.484375 365.652344 590.175781 365.167969 590.132812 364.816406 C 590.132812 364.417969 590.265625 364.109375 590.53125 363.890625 C 590.792969 363.667969 591.125 363.558594 591.523438 363.558594 C 591.742188 363.558594 591.898438 363.582031 591.984375 363.625 C 592.117188 363.714844 594.519531 366.050781 599.195312 370.632812 L 606.136719 377.574219 L 613.015625 370.699219 C 616.410156 367.304688 618.480469 365.257812 619.230469 364.550781 C 619.980469 363.84375 620.464844 363.492188 620.6875 363.492188 C 621.613281 363.492188 622.074219 363.933594 622.074219 364.816406 C 622.074219 365.125 621.855469 365.519531 621.414062 366.003906 C 620.972656 366.488281 618.8125 368.648438 614.933594 372.484375 L 608.054688 379.425781 L 614.933594 386.367188 C 618.636719 390.070312 620.753906 392.207031 621.28125 392.78125 C 621.8125 393.355469 622.074219 393.773438 622.074219 394.039062 Z M 622.074219 394.039062 " fill-opacity="1" fill-rule="nonzero"/><path fill="#000000" d="M 651.195312 368.386719 C 651.195312 368.386719 651.195312 366.6875 651.195312 363.292969 C 651.195312 359.902344 652.382812 357.167969 654.765625 355.097656 C 657.144531 353.023438 659.878906 351.96875 662.964844 351.921875 C 666.097656 351.921875 668.875 352.847656 671.300781 354.699219 C 673.722656 356.550781 674.9375 358.953125 674.9375 361.90625 C 674.9375 363.226562 674.695312 364.460938 674.207031 365.609375 C 673.722656 366.753906 673.152344 367.679688 672.488281 368.386719 C 671.828125 369.089844 671.144531 369.707031 670.4375 370.238281 C 669.734375 370.765625 669.160156 371.160156 668.71875 371.425781 C 668.277344 371.691406 668.035156 371.867188 667.992188 371.957031 L 668.917969 372.550781 C 669.535156 372.992188 670.152344 373.433594 670.769531 373.871094 C 671.386719 374.3125 671.738281 374.554688 671.828125 374.601562 C 675.132812 377.199219 676.789062 380.484375 676.789062 384.449219 C 676.789062 387.933594 675.507812 390.953125 672.953125 393.507812 C 670.394531 396.066406 667.089844 397.367188 663.03125 397.410156 C 659.0625 397.410156 655.800781 396.285156 653.246094 394.039062 C 650.6875 391.789062 649.410156 389.011719 649.410156 385.707031 C 649.410156 380.945312 652.253906 376.980469 657.941406 373.804688 L 656.75 372.945312 C 655.824219 372.375 655.226562 371.933594 654.964844 371.625 C 652.449219 369.464844 651.195312 366.6875 651.195312 363.292969 Z M 665.480469 370.433594 L 665.875 370.171875 C 666.140625 369.992188 666.339844 369.863281 666.472656 369.773438 C 666.601562 369.683594 666.824219 369.53125 667.132812 369.3125 C 667.441406 369.089844 667.707031 368.871094 667.925781 368.648438 C 668.148438 368.429688 668.390625 368.164062 668.652344 367.855469 C 668.917969 367.546875 669.160156 367.261719 669.382812 366.996094 C 669.601562 366.730469 669.820312 366.378906 670.042969 365.9375 C 670.261719 365.5 670.460938 365.125 670.636719 364.816406 C 670.8125 364.507812 670.925781 364.066406 670.96875 363.492188 C 671.011719 362.917969 671.054688 362.433594 671.101562 362.039062 C 671.101562 360.144531 670.460938 358.535156 669.183594 357.210938 C 667.902344 355.890625 666.425781 355.050781 664.75 354.699219 C 664.441406 354.65625 663.714844 354.632812 662.570312 354.632812 C 660.761719 354.632812 659.0625 355.207031 657.476562 356.351562 C 655.890625 357.5 655.074219 358.929688 655.03125 360.648438 C 655.03125 361.664062 655.316406 362.589844 655.890625 363.425781 C 656.464844 364.265625 657.035156 364.902344 657.609375 365.34375 C 658.183594 365.785156 659.285156 366.488281 660.914062 367.460938 C 661.222656 367.679688 661.46875 367.835938 661.644531 367.921875 Z M 663.097656 394.566406 C 665.65625 394.566406 667.859375 393.816406 669.710938 392.320312 C 671.5625 390.820312 672.488281 389.011719 672.488281 386.898438 C 672.488281 386.148438 672.378906 385.441406 672.160156 384.78125 C 671.9375 384.121094 671.671875 383.570312 671.363281 383.128906 C 671.054688 382.6875 670.570312 382.203125 669.910156 381.675781 C 669.25 381.144531 668.742188 380.75 668.390625 380.484375 C 668.035156 380.21875 667.398438 379.800781 666.472656 379.226562 C 665.546875 378.65625 664.949219 378.28125 664.683594 378.105469 C 664.066406 377.707031 663.40625 377.289062 662.703125 376.847656 C 661.996094 376.40625 661.421875 376.03125 660.980469 375.722656 L 660.453125 375.394531 C 660.1875 375.394531 659.550781 375.769531 658.535156 376.515625 C 657.519531 377.265625 656.464844 378.480469 655.359375 380.152344 C 654.257812 381.828125 653.683594 383.636719 653.640625 385.574219 C 653.640625 388.175781 654.589844 390.3125 656.484375 391.988281 C 658.378906 393.664062 660.585938 394.523438 663.097656 394.566406 Z M 663.097656 394.566406 " fill-opacity="1" fill-rule="nonzero"/><path fill="#000000" d="M 685.980469 357.277344 C 688.449219 353.707031 691.824219 351.921875 696.097656 351.921875 C 698.214844 351.921875 700.332031 352.496094 702.449219 353.640625 C 704.5625 354.789062 706.285156 356.816406 707.605469 359.722656 C 709.238281 363.382812 710.054688 368.40625 710.054688 374.796875 C 710.054688 381.628906 709.105469 386.851562 707.210938 390.46875 C 706.328125 392.320312 705.117188 393.796875 703.570312 394.898438 C 702.027344 396 700.683594 396.683594 699.539062 396.945312 C 698.390625 397.210938 697.265625 397.367188 696.164062 397.410156 C 695.019531 397.410156 693.871094 397.277344 692.726562 397.011719 C 691.578125 396.75 690.234375 396.042969 688.691406 394.898438 C 687.148438 393.75 685.9375 392.273438 685.054688 390.46875 C 683.160156 386.851562 682.210938 381.628906 682.210938 374.796875 C 682.210938 367.128906 683.46875 361.289062 685.980469 357.277344 Z M 700.859375 356.484375 C 699.539062 355.074219 697.972656 354.367188 696.164062 354.367188 C 694.3125 354.367188 692.726562 355.074219 691.402344 356.484375 C 690.300781 357.628906 689.574219 359.21875 689.222656 361.246094 C 688.867188 363.273438 688.691406 367.503906 688.691406 373.9375 C 688.691406 380.902344 688.867188 385.488281 689.222656 387.691406 C 689.574219 389.894531 690.367188 391.636719 691.601562 392.914062 C 692.835938 394.234375 694.359375 394.898438 696.164062 394.898438 C 697.929688 394.898438 699.429688 394.234375 700.664062 392.914062 C 701.941406 391.589844 702.734375 389.738281 703.042969 387.359375 C 703.351562 384.980469 703.527344 380.507812 703.570312 373.9375 C 703.570312 367.546875 703.394531 363.339844 703.042969 361.3125 C 702.691406 359.285156 701.964844 357.675781 700.859375 356.484375 Z M 700.859375 356.484375 " fill-opacity="1" fill-rule="nonzero"/></svg>