<svg xmlns="http://www.w3.org/2000/svg" xmlns:xlink="http://www.w3.org/1999/xlink" width="1000" zoomAndPan="magnify" viewBox="0 0 750 749.999995" height="1000" preserveAspectRatio="xMidYMid meet" version="1.0"><defs><clipPath id="ecc1e7aca8"><path d="M 43 345 L 61 345 L 61 413.863281 L 43 413.863281 Z M 43 345 " clip-rule="nonzero"/></clipPath><clipPath id="4843bd3f67"><path d="M 475 336.136719 L 496 336.136719 L 496 370 L 475 370 Z M 475 336.136719 " clip-rule="nonzero"/></clipPath><clipPath id="8beb23c960"><path d="M 504 345 L 521 345 L 521 413.863281 L 504 413.863281 Z M 504 345 " clip-rule="nonzero"/></clipPath></defs><rect x="-75" width="900" fill="#ffffff" y="-74.999999" height="899.999994" fill-opacity="1"/><rect x="-75" width="900" fill="#ffffff" y="-74.999999" height="899.999994" fill-opacity="1"/><g clip-path="url(#ecc1e7aca8)"><path fill="#000000" d="M 43.882812 379.546875 C 43.882812 376.421875 44.109375 373.457031 44.5625 370.648438 C 45.011719 367.84375 45.535156 365.417969 46.121094 363.382812 C 46.710938 361.34375 47.546875 359.351562 48.632812 357.402344 C 49.71875 355.457031 50.582031 353.941406 51.214844 352.851562 C 51.847656 351.765625 52.796875 350.589844 54.066406 349.320312 C 55.332031 348.054688 56.078125 347.285156 56.304688 347.011719 C 56.53125 346.738281 57.097656 346.265625 58.003906 345.585938 L 59.15625 345.585938 C 59.792969 345.585938 60.109375 345.789062 60.109375 346.195312 C 60.109375 346.332031 59.722656 346.808594 58.953125 347.625 C 58.183594 348.4375 57.257812 349.636719 56.171875 351.222656 C 55.085938 352.808594 53.976562 354.753906 52.84375 357.066406 C 51.710938 359.375 50.761719 362.5 49.992188 366.4375 C 49.222656 370.378906 48.839844 374.746094 48.839844 379.546875 C 48.839844 384.347656 49.222656 388.695312 49.992188 392.589844 C 50.761719 396.484375 51.691406 399.628906 52.777344 402.03125 C 53.863281 404.429688 54.972656 406.378906 56.101562 407.871094 C 57.234375 409.367188 58.183594 410.566406 58.953125 411.472656 C 59.722656 412.378906 60.109375 412.851562 60.109375 412.898438 C 60.109375 413.304688 59.769531 413.507812 59.089844 413.507812 L 58.003906 413.507812 L 56.101562 411.878906 C 51.847656 408.03125 48.746094 403.230469 46.800781 397.480469 C 44.855469 391.730469 43.882812 385.75 43.882812 379.546875 Z M 43.882812 379.546875 " fill-opacity="1" fill-rule="nonzero"/></g><path fill="#000000" d="M 70.429688 356.792969 C 72.960938 353.125 76.425781 351.292969 80.816406 351.292969 C 82.988281 351.292969 85.160156 351.878906 87.332031 353.058594 C 89.503906 354.234375 91.269531 356.316406 92.628906 359.304688 C 94.304688 363.066406 95.140625 368.226562 95.140625 374.792969 C 95.140625 381.8125 94.167969 387.175781 92.222656 390.890625 C 91.316406 392.792969 90.070312 394.308594 88.488281 395.441406 C 86.902344 396.574219 85.523438 397.277344 84.34375 397.546875 C 83.167969 397.820312 82.015625 397.976562 80.882812 398.023438 C 79.707031 398.023438 78.53125 397.886719 77.351562 397.617188 C 76.175781 397.34375 74.796875 396.617188 73.210938 395.441406 C 71.628906 394.265625 70.382812 392.746094 69.476562 390.890625 C 67.53125 387.175781 66.558594 381.8125 66.558594 374.792969 C 66.558594 366.914062 67.847656 360.914062 70.429688 356.792969 Z M 85.703125 355.976562 C 84.34375 354.527344 82.738281 353.804688 80.882812 353.804688 C 78.980469 353.804688 77.351562 354.527344 75.996094 355.976562 C 74.863281 357.15625 74.117188 358.785156 73.753906 360.867188 C 73.390625 362.953125 73.210938 367.296875 73.210938 373.910156 C 73.210938 381.066406 73.390625 385.773438 73.753906 388.039062 C 74.117188 390.300781 74.929688 392.089844 76.199219 393.402344 C 77.464844 394.761719 79.027344 395.441406 80.882812 395.441406 C 82.695312 395.441406 84.234375 394.761719 85.5 393.402344 C 86.8125 392.046875 87.628906 390.144531 87.945312 387.699219 C 88.261719 385.253906 88.441406 380.65625 88.488281 373.910156 C 88.488281 367.34375 88.304688 363.019531 87.945312 360.9375 C 87.582031 358.851562 86.835938 357.199219 85.703125 355.976562 Z M 85.703125 355.976562 " fill-opacity="1" fill-rule="nonzero"/><path fill="#000000" d="M 103.152344 392.453125 C 103.152344 391.367188 103.535156 390.414062 104.304688 389.601562 C 105.074219 388.785156 106.046875 388.378906 107.226562 388.378906 C 108.3125 388.378906 109.261719 388.738281 110.078125 389.464844 C 110.890625 390.1875 111.320312 391.164062 111.367188 392.386719 C 111.367188 393.515625 110.980469 394.492188 110.210938 395.304688 C 109.441406 396.121094 108.46875 396.527344 107.292969 396.527344 C 106.117188 396.527344 105.144531 396.144531 104.375 395.375 C 103.605469 394.605469 103.195312 393.628906 103.152344 392.453125 Z M 103.152344 392.453125 " fill-opacity="1" fill-rule="nonzero"/><path fill="#000000" d="M 125.351562 365.078125 C 124.128906 365.078125 123.179688 364.695312 122.5 363.925781 C 121.820312 363.15625 121.460938 362.160156 121.414062 360.9375 C 121.414062 358.445312 122.5 356.226562 124.671875 354.28125 C 126.847656 352.332031 129.472656 351.359375 132.550781 351.359375 C 134.132812 351.359375 135.128906 351.382812 135.535156 351.425781 C 138.886719 351.96875 141.441406 353.171875 143.207031 355.027344 C 144.972656 356.882812 145.878906 358.898438 145.925781 361.070312 C 145.925781 363.425781 145.15625 365.714844 143.617188 367.933594 C 142.078125 370.152344 139.949219 371.757812 137.234375 372.753906 L 137.03125 372.890625 C 137.03125 372.9375 137.234375 373.003906 137.640625 373.09375 C 138.046875 373.183594 138.703125 373.390625 139.609375 373.707031 C 140.515625 374.023438 141.375 374.5 142.191406 375.132812 C 145.902344 377.53125 147.757812 380.703125 147.757812 384.640625 C 147.757812 388.21875 146.355469 391.34375 143.546875 394.015625 C 140.742188 396.6875 137.1875 398.023438 132.886719 398.023438 C 129.269531 398.023438 126.144531 397.050781 123.519531 395.101562 C 120.894531 393.15625 119.582031 390.6875 119.582031 387.699219 C 119.582031 386.429688 119.988281 385.410156 120.804688 384.640625 C 121.617188 383.871094 122.636719 383.464844 123.859375 383.417969 C 125.125 383.417969 126.167969 383.828125 126.980469 384.640625 C 127.796875 385.457031 128.203125 386.476562 128.203125 387.699219 C 128.203125 388.195312 128.136719 388.648438 128 389.058594 C 127.863281 389.464844 127.707031 389.828125 127.523438 390.144531 C 127.34375 390.460938 127.09375 390.730469 126.777344 390.957031 C 126.460938 391.183594 126.191406 391.367188 125.964844 391.503906 C 125.738281 391.636719 125.511719 391.730469 125.285156 391.773438 C 125.058594 391.820312 124.878906 391.886719 124.742188 391.976562 L 124.46875 392.046875 C 126.777344 394.082031 129.585938 395.101562 132.886719 395.101562 C 135.378906 395.101562 137.257812 393.902344 138.523438 391.503906 C 139.292969 390.007812 139.679688 387.722656 139.679688 384.640625 L 139.679688 383.285156 C 139.679688 378.980469 138.230469 376.105469 135.332031 374.65625 C 134.652344 374.386719 133.273438 374.226562 131.191406 374.179688 L 128.339844 374.113281 L 128.136719 373.976562 C 128.046875 373.84375 128 373.480469 128 372.890625 C 128 372.074219 128.179688 371.667969 128.542969 371.667969 C 129.8125 371.667969 131.125 371.554688 132.480469 371.328125 C 134.019531 371.101562 135.421875 370.152344 136.691406 368.476562 C 137.957031 366.800781 138.589844 364.265625 138.589844 360.867188 L 138.589844 360.324219 C 138.589844 357.742188 137.800781 355.957031 136.214844 354.960938 C 135.21875 354.324219 134.15625 354.007812 133.023438 354.007812 C 131.574219 354.007812 130.242188 354.257812 129.019531 354.753906 C 127.796875 355.253906 126.9375 355.773438 126.4375 356.316406 C 125.941406 356.859375 125.691406 357.132812 125.691406 357.132812 L 125.894531 357.132812 C 126.03125 357.179688 126.210938 357.222656 126.4375 357.269531 C 126.664062 357.3125 126.890625 357.425781 127.117188 357.609375 C 127.34375 357.789062 127.617188 357.949219 127.933594 358.082031 C 128.25 358.21875 128.476562 358.46875 128.613281 358.832031 C 128.746094 359.191406 128.929688 359.53125 129.15625 359.847656 C 129.382812 360.167969 129.449219 360.621094 129.359375 361.207031 C 129.359375 362.203125 129.042969 363.085938 128.40625 363.855469 C 127.773438 364.625 126.753906 365.035156 125.351562 365.078125 Z M 125.351562 365.078125 " fill-opacity="1" fill-rule="nonzero"/><path fill="#000000" d="M 159.296875 365.078125 C 158.078125 365.078125 157.125 364.695312 156.445312 363.925781 C 155.769531 363.15625 155.40625 362.160156 155.359375 360.9375 C 155.359375 358.445312 156.445312 356.226562 158.621094 354.28125 C 160.792969 352.332031 163.417969 351.359375 166.496094 351.359375 C 168.078125 351.359375 169.074219 351.382812 169.484375 351.425781 C 172.832031 351.96875 175.390625 353.171875 177.15625 355.027344 C 178.917969 356.882812 179.824219 358.898438 179.871094 361.070312 C 179.871094 363.425781 179.101562 365.714844 177.5625 367.933594 C 176.023438 370.152344 173.894531 371.757812 171.179688 372.753906 L 170.976562 372.890625 C 170.976562 372.9375 171.179688 373.003906 171.585938 373.09375 C 171.996094 373.183594 172.652344 373.390625 173.554688 373.707031 C 174.460938 374.023438 175.320312 374.5 176.136719 375.132812 C 179.847656 377.53125 181.703125 380.703125 181.703125 384.640625 C 181.703125 388.21875 180.300781 391.34375 177.492188 394.015625 C 174.6875 396.6875 171.132812 398.023438 166.835938 398.023438 C 163.214844 398.023438 160.089844 397.050781 157.464844 395.101562 C 154.839844 393.15625 153.527344 390.6875 153.527344 387.699219 C 153.527344 386.429688 153.933594 385.410156 154.75 384.640625 C 155.566406 383.871094 156.582031 383.464844 157.804688 383.417969 C 159.074219 383.417969 160.113281 383.828125 160.929688 384.640625 C 161.742188 385.457031 162.148438 386.476562 162.148438 387.699219 C 162.148438 388.195312 162.082031 388.648438 161.945312 389.058594 C 161.8125 389.464844 161.652344 389.828125 161.472656 390.144531 C 161.289062 390.460938 161.042969 390.730469 160.722656 390.957031 C 160.40625 391.183594 160.136719 391.367188 159.910156 391.503906 C 159.683594 391.636719 159.457031 391.730469 159.230469 391.773438 C 159.003906 391.820312 158.824219 391.886719 158.6875 391.976562 L 158.417969 392.046875 C 160.722656 394.082031 163.53125 395.101562 166.835938 395.101562 C 169.324219 395.101562 171.203125 393.902344 172.46875 391.503906 C 173.238281 390.007812 173.625 387.722656 173.625 384.640625 L 173.625 383.285156 C 173.625 378.980469 172.175781 376.105469 169.277344 374.65625 C 168.601562 374.386719 167.21875 374.226562 165.136719 374.179688 L 162.285156 374.113281 L 162.082031 373.976562 C 161.992188 373.84375 161.945312 373.480469 161.945312 372.890625 C 161.945312 372.074219 162.128906 371.667969 162.488281 371.667969 C 163.757812 371.667969 165.070312 371.554688 166.425781 371.328125 C 167.964844 371.101562 169.371094 370.152344 170.636719 368.476562 C 171.902344 366.800781 172.539062 364.265625 172.539062 360.867188 L 172.539062 360.324219 C 172.539062 357.742188 171.746094 355.957031 170.160156 354.960938 C 169.164062 354.324219 168.101562 354.007812 166.96875 354.007812 C 165.523438 354.007812 164.1875 354.257812 162.964844 354.753906 C 161.742188 355.253906 160.882812 355.773438 160.386719 356.316406 C 159.886719 356.859375 159.636719 357.132812 159.636719 357.132812 L 159.84375 357.132812 C 159.976562 357.179688 160.160156 357.222656 160.386719 357.269531 C 160.609375 357.3125 160.835938 357.425781 161.0625 357.609375 C 161.289062 357.789062 161.5625 357.949219 161.878906 358.082031 C 162.195312 358.21875 162.421875 358.46875 162.558594 358.832031 C 162.691406 359.191406 162.875 359.53125 163.101562 359.847656 C 163.328125 360.167969 163.394531 360.621094 163.304688 361.207031 C 163.304688 362.203125 162.988281 363.085938 162.355469 363.855469 C 161.71875 364.625 160.703125 365.035156 159.296875 365.078125 Z M 159.296875 365.078125 " fill-opacity="1" fill-rule="nonzero"/><path fill="#000000" d="M 208.519531 377.035156 C 206.347656 380.476562 203.632812 382.195312 200.375 382.195312 C 196.84375 382.195312 193.945312 380.859375 191.683594 378.1875 C 189.421875 375.515625 188.0625 372.664062 187.609375 369.628906 C 187.519531 368.90625 187.472656 368 187.472656 366.914062 L 187.472656 366.371094 C 187.472656 362.160156 189.035156 358.492188 192.160156 355.367188 C 194.875 352.648438 197.863281 351.292969 201.121094 351.292969 C 201.210938 351.292969 201.347656 351.292969 201.527344 351.292969 C 201.707031 351.292969 201.890625 351.3125 202.070312 351.359375 L 202.34375 351.359375 C 202.886719 351.359375 203.453125 351.40625 204.039062 351.496094 C 204.628906 351.585938 205.464844 351.855469 206.550781 352.308594 C 207.636719 352.761719 208.703125 353.488281 209.742188 354.484375 C 210.785156 355.480469 211.757812 356.816406 212.660156 358.492188 C 214.609375 362.476562 215.582031 367.59375 215.582031 373.84375 C 215.582031 380.179688 214.222656 385.546875 211.507812 389.941406 C 209.921875 392.476562 208.023438 394.445312 205.804688 395.847656 C 203.585938 397.253906 201.234375 397.976562 198.742188 398.023438 C 195.984375 398.023438 193.71875 397.367188 191.953125 396.054688 C 190.191406 394.738281 189.285156 392.792969 189.238281 390.210938 C 189.195312 387.628906 190.394531 386.363281 192.835938 386.40625 C 193.832031 386.40625 194.671875 386.726562 195.347656 387.359375 C 196.027344 387.992188 196.367188 388.875 196.367188 390.007812 C 196.367188 390.824219 196.164062 391.523438 195.757812 392.113281 C 195.347656 392.703125 194.988281 393.0625 194.671875 393.199219 C 194.355469 393.335938 194.058594 393.449219 193.789062 393.539062 L 193.515625 393.609375 C 193.515625 393.699219 193.675781 393.835938 193.992188 394.015625 C 194.308594 394.195312 194.898438 394.421875 195.757812 394.695312 C 196.617188 394.964844 197.566406 395.078125 198.609375 395.035156 L 199.015625 395.035156 C 201.730469 395.035156 204.015625 393.585938 205.871094 390.6875 C 207.636719 388.152344 208.519531 383.757812 208.519531 377.511719 Z M 201.1875 379.683594 C 203.359375 379.683594 205.101562 378.574219 206.414062 376.355469 C 207.730469 374.136719 208.40625 371.125 208.453125 367.320312 C 208.453125 363.789062 208.273438 361.253906 207.910156 359.714844 C 207.820312 359.261719 207.683594 358.808594 207.503906 358.355469 C 207.320312 357.902344 207.003906 357.3125 206.550781 356.589844 C 206.097656 355.863281 205.421875 355.253906 204.515625 354.753906 C 203.609375 354.257812 202.546875 354.03125 201.324219 354.074219 C 199.605469 354.074219 198.132812 354.6875 196.910156 355.910156 C 195.960938 356.90625 195.347656 358.082031 195.078125 359.441406 C 194.804688 360.800781 194.648438 363.179688 194.601562 366.574219 C 194.601562 370.332031 194.714844 372.867188 194.941406 374.179688 C 195.167969 375.496094 195.621094 376.558594 196.300781 377.375 C 197.429688 378.914062 199.0625 379.683594 201.1875 379.683594 Z M 201.1875 379.683594 " fill-opacity="1" fill-rule="nonzero"/><path fill="#000000" d="M 225.085938 356.792969 C 227.621094 353.125 231.082031 351.292969 235.472656 351.292969 C 237.644531 351.292969 239.820312 351.878906 241.992188 353.058594 C 244.164062 354.234375 245.929688 356.316406 247.289062 359.304688 C 248.960938 363.066406 249.800781 368.226562 249.800781 374.792969 C 249.800781 381.8125 248.824219 387.175781 246.878906 390.890625 C 245.972656 392.792969 244.730469 394.308594 243.144531 395.441406 C 241.5625 396.574219 240.179688 397.277344 239.003906 397.546875 C 237.828125 397.820312 236.671875 397.976562 235.542969 398.023438 C 234.363281 398.023438 233.1875 397.886719 232.011719 397.617188 C 230.835938 397.34375 229.453125 396.617188 227.871094 395.441406 C 226.285156 394.265625 225.042969 392.746094 224.136719 390.890625 C 222.191406 387.175781 221.214844 381.8125 221.214844 374.792969 C 221.214844 366.914062 222.507812 360.914062 225.085938 356.792969 Z M 240.363281 355.976562 C 239.003906 354.527344 237.398438 353.804688 235.542969 353.804688 C 233.640625 353.804688 232.011719 354.527344 230.652344 355.976562 C 229.523438 357.15625 228.773438 358.785156 228.414062 360.867188 C 228.050781 362.953125 227.871094 367.296875 227.871094 373.910156 C 227.871094 381.066406 228.050781 385.773438 228.414062 388.039062 C 228.773438 390.300781 229.589844 392.089844 230.855469 393.402344 C 232.125 394.761719 233.6875 395.441406 235.542969 395.441406 C 237.351562 395.441406 238.890625 394.761719 240.160156 393.402344 C 241.472656 392.046875 242.285156 390.144531 242.601562 387.699219 C 242.917969 385.253906 243.101562 380.65625 243.144531 373.910156 C 243.144531 367.34375 242.964844 363.019531 242.601562 360.9375 C 242.242188 358.851562 241.492188 357.199219 240.363281 355.976562 Z M 240.363281 355.976562 " fill-opacity="1" fill-rule="nonzero"/><path fill="#000000" d="M 259.03125 356.792969 C 261.566406 353.125 265.03125 351.292969 269.421875 351.292969 C 271.59375 351.292969 273.765625 351.878906 275.9375 353.058594 C 278.109375 354.234375 279.875 356.316406 281.234375 359.304688 C 282.90625 363.066406 283.746094 368.226562 283.746094 374.792969 C 283.746094 381.8125 282.773438 387.175781 280.824219 390.890625 C 279.921875 392.792969 278.675781 394.308594 277.09375 395.441406 C 275.507812 396.574219 274.128906 397.277344 272.949219 397.546875 C 271.773438 397.820312 270.621094 397.976562 269.488281 398.023438 C 268.3125 398.023438 267.132812 397.886719 265.957031 397.617188 C 264.78125 397.34375 263.398438 396.617188 261.816406 395.441406 C 260.230469 394.265625 258.988281 392.746094 258.082031 390.890625 C 256.136719 387.175781 255.164062 381.8125 255.164062 374.792969 C 255.164062 366.914062 256.453125 360.914062 259.03125 356.792969 Z M 274.308594 355.976562 C 272.949219 354.527344 271.34375 353.804688 269.488281 353.804688 C 267.585938 353.804688 265.957031 354.527344 264.601562 355.976562 C 263.46875 357.15625 262.722656 358.785156 262.359375 360.867188 C 261.996094 362.953125 261.816406 367.296875 261.816406 373.910156 C 261.816406 381.066406 261.996094 385.773438 262.359375 388.039062 C 262.722656 390.300781 263.535156 392.089844 264.804688 393.402344 C 266.070312 394.761719 267.632812 395.441406 269.488281 395.441406 C 271.296875 395.441406 272.835938 394.761719 274.105469 393.402344 C 275.417969 392.046875 276.230469 390.144531 276.546875 387.699219 C 276.867188 385.253906 277.046875 380.65625 277.09375 373.910156 C 277.09375 367.34375 276.910156 363.019531 276.546875 360.9375 C 276.1875 358.851562 275.441406 357.199219 274.308594 355.976562 Z M 274.308594 355.976562 " fill-opacity="1" fill-rule="nonzero"/><path fill="#000000" d="M 292.980469 356.792969 C 295.511719 353.125 298.976562 351.292969 303.367188 351.292969 C 305.539062 351.292969 307.710938 351.878906 309.882812 353.058594 C 312.054688 354.234375 313.820312 356.316406 315.179688 359.304688 C 316.855469 363.066406 317.691406 368.226562 317.691406 374.792969 C 317.691406 381.8125 316.71875 387.175781 314.773438 390.890625 C 313.867188 392.792969 312.621094 394.308594 311.039062 395.441406 C 309.453125 396.574219 308.074219 397.277344 306.898438 397.546875 C 305.71875 397.820312 304.566406 397.976562 303.433594 398.023438 C 302.257812 398.023438 301.082031 397.886719 299.902344 397.617188 C 298.726562 397.34375 297.347656 396.617188 295.761719 395.441406 C 294.179688 394.265625 292.933594 392.746094 292.027344 390.890625 C 290.082031 387.175781 289.109375 381.8125 289.109375 374.792969 C 289.109375 366.914062 290.398438 360.914062 292.980469 356.792969 Z M 308.253906 355.976562 C 306.898438 354.527344 305.289062 353.804688 303.433594 353.804688 C 301.53125 353.804688 299.902344 354.527344 298.546875 355.976562 C 297.414062 357.15625 296.667969 358.785156 296.304688 360.867188 C 295.941406 362.953125 295.761719 367.296875 295.761719 373.910156 C 295.761719 381.066406 295.941406 385.773438 296.304688 388.039062 C 296.667969 390.300781 297.480469 392.089844 298.75 393.402344 C 300.015625 394.761719 301.578125 395.441406 303.433594 395.441406 C 305.246094 395.441406 306.785156 394.761719 308.050781 393.402344 C 309.363281 392.046875 310.179688 390.144531 310.496094 387.699219 C 310.8125 385.253906 310.992188 380.65625 311.039062 373.910156 C 311.039062 367.34375 310.855469 363.019531 310.496094 360.9375 C 310.132812 358.851562 309.386719 357.199219 308.253906 355.976562 Z M 308.253906 355.976562 " fill-opacity="1" fill-rule="nonzero"/><path fill="#000000" d="M 378.265625 394.558594 C 378.265625 395.464844 377.789062 395.917969 376.839844 395.917969 C 376.613281 395.917969 376.113281 395.554688 375.34375 394.832031 C 374.574219 394.105469 372.449219 392 368.964844 388.511719 L 361.902344 381.449219 L 354.773438 388.582031 C 349.976562 393.289062 347.507812 395.691406 347.375 395.78125 C 347.191406 395.871094 347.035156 395.917969 346.898438 395.917969 C 346.535156 395.917969 346.21875 395.78125 345.949219 395.507812 C 345.675781 395.238281 345.519531 394.921875 345.472656 394.558594 C 345.472656 394.242188 345.789062 393.742188 346.421875 393.0625 C 347.058594 392.386719 349.183594 390.234375 352.804688 386.613281 L 359.867188 379.546875 L 352.804688 372.484375 C 349.140625 368.816406 347.011719 366.664062 346.421875 366.03125 C 345.835938 365.398438 345.519531 364.898438 345.472656 364.535156 C 345.472656 364.128906 345.609375 363.8125 345.878906 363.585938 C 346.152344 363.359375 346.492188 363.246094 346.898438 363.246094 C 347.125 363.246094 347.285156 363.269531 347.375 363.3125 C 347.507812 363.402344 349.976562 365.804688 354.773438 370.511719 L 361.902344 377.644531 L 368.964844 370.582031 C 372.449219 367.09375 374.574219 364.988281 375.34375 364.265625 C 376.113281 363.539062 376.613281 363.179688 376.839844 363.179688 C 377.789062 363.179688 378.265625 363.628906 378.265625 364.535156 C 378.265625 364.851562 378.039062 365.261719 377.585938 365.757812 C 377.132812 366.257812 374.914062 368.476562 370.933594 372.414062 L 363.871094 379.546875 L 370.933594 386.679688 C 374.734375 390.484375 376.90625 392.679688 377.449219 393.269531 C 377.992188 393.855469 378.265625 394.285156 378.265625 394.558594 Z M 378.265625 394.558594 " fill-opacity="1" fill-rule="nonzero"/><path fill="#000000" d="M 417.859375 357.269531 L 416.976562 357.609375 C 416.34375 357.835938 415.4375 358.0625 414.261719 358.289062 C 413.085938 358.515625 411.773438 358.671875 410.324219 358.761719 L 409.035156 358.761719 L 409.035156 355.636719 L 410.324219 355.636719 C 412.449219 355.546875 414.417969 355.207031 416.230469 354.621094 C 418.039062 354.03125 419.308594 353.488281 420.03125 352.988281 C 420.757812 352.492188 421.390625 351.992188 421.933594 351.496094 C 422.023438 351.359375 422.296875 351.292969 422.746094 351.292969 C 423.15625 351.292969 423.539062 351.425781 423.902344 351.699219 L 423.902344 372.007812 L 423.96875 392.386719 C 424.285156 392.703125 424.558594 392.90625 424.785156 392.996094 C 425.011719 393.085938 425.554688 393.175781 426.414062 393.269531 C 427.273438 393.359375 428.675781 393.402344 430.625 393.402344 L 432.386719 393.402344 L 432.386719 396.527344 L 431.640625 396.527344 C 430.691406 396.394531 427.09375 396.324219 420.847656 396.324219 C 414.691406 396.324219 411.136719 396.394531 410.1875 396.527344 L 409.375 396.527344 L 409.375 393.402344 L 411.136719 393.402344 C 412.132812 393.402344 412.992188 393.402344 413.71875 393.402344 C 414.441406 393.402344 415.007812 393.382812 415.414062 393.335938 C 415.824219 393.289062 416.183594 393.222656 416.5 393.132812 C 416.820312 393.042969 417 392.996094 417.046875 392.996094 C 417.089844 392.996094 417.226562 392.882812 417.453125 392.65625 C 417.679688 392.429688 417.8125 392.339844 417.859375 392.386719 Z M 417.859375 357.269531 " fill-opacity="1" fill-rule="nonzero"/><path fill="#000000" d="M 443.863281 356.792969 C 446.398438 353.125 449.859375 351.292969 454.25 351.292969 C 456.421875 351.292969 458.59375 351.878906 460.765625 353.058594 C 462.941406 354.234375 464.707031 356.316406 466.0625 359.304688 C 467.738281 363.066406 468.574219 368.226562 468.574219 374.792969 C 468.574219 381.8125 467.601562 387.175781 465.65625 390.890625 C 464.75 392.792969 463.507812 394.308594 461.921875 395.441406 C 460.335938 396.574219 458.957031 397.277344 457.78125 397.546875 C 456.601562 397.820312 455.449219 397.976562 454.316406 398.023438 C 453.140625 398.023438 451.964844 397.886719 450.789062 397.617188 C 449.609375 397.34375 448.230469 396.617188 446.644531 395.441406 C 445.0625 394.265625 443.816406 392.746094 442.910156 390.890625 C 440.964844 387.175781 439.992188 381.8125 439.992188 374.792969 C 439.992188 366.914062 441.28125 360.914062 443.863281 356.792969 Z M 459.136719 355.976562 C 457.78125 354.527344 456.171875 353.804688 454.316406 353.804688 C 452.417969 353.804688 450.789062 354.527344 449.429688 355.976562 C 448.296875 357.15625 447.550781 358.785156 447.1875 360.867188 C 446.828125 362.953125 446.644531 367.296875 446.644531 373.910156 C 446.644531 381.066406 446.828125 385.773438 447.1875 388.039062 C 447.550781 390.300781 448.367188 392.089844 449.632812 393.402344 C 450.902344 394.761719 452.460938 395.441406 454.316406 395.441406 C 456.128906 395.441406 457.667969 394.761719 458.933594 393.402344 C 460.246094 392.046875 461.0625 390.144531 461.378906 387.699219 C 461.695312 385.253906 461.875 380.65625 461.921875 373.910156 C 461.921875 367.34375 461.742188 363.019531 461.378906 360.9375 C 461.015625 358.851562 460.269531 357.199219 459.136719 355.976562 Z M 459.136719 355.976562 " fill-opacity="1" fill-rule="nonzero"/><g clip-path="url(#4843bd3f67)"><path fill="#000000" d="M 475.546875 353.445312 C 475.546875 348.226562 476.84375 344.097656 479.433594 341.054688 C 482.027344 338.015625 484.90625 336.492188 488.074219 336.492188 C 490.285156 336.492188 491.867188 337.070312 492.828125 338.222656 C 493.789062 339.375 494.265625 340.65625 494.265625 342.0625 C 494.265625 342.863281 494.042969 343.503906 493.59375 343.984375 C 493.148438 344.464844 492.523438 344.703125 491.722656 344.703125 C 490.988281 344.703125 490.378906 344.480469 489.898438 344.03125 C 489.417969 343.585938 489.179688 342.960938 489.179688 342.160156 C 489.179688 340.75 489.929688 339.902344 491.433594 339.613281 C 490.730469 338.910156 489.738281 338.511719 488.460938 338.414062 C 486.1875 338.414062 484.316406 339.375 482.84375 341.296875 C 481.339844 343.410156 480.585938 346.640625 480.585938 350.996094 L 480.636719 351.1875 C 480.796875 350.996094 480.921875 350.789062 481.019531 350.5625 C 482.332031 348.644531 484.042969 347.683594 486.15625 347.683594 L 486.347656 347.683594 C 487.820312 347.683594 489.117188 347.988281 490.234375 348.59375 C 491.003906 349.042969 491.769531 349.683594 492.539062 350.515625 C 493.308594 351.347656 493.929688 352.261719 494.410156 353.253906 C 495.082031 354.820312 495.417969 356.535156 495.417969 358.390625 L 495.417969 359.253906 C 495.417969 359.992188 495.339844 360.679688 495.179688 361.320312 C 494.828125 363.210938 493.804688 365.050781 492.105469 366.84375 C 490.410156 368.636719 488.265625 369.53125 485.675781 369.53125 C 484.777344 369.53125 483.914062 369.40625 483.082031 369.148438 C 482.25 368.890625 481.355469 368.410156 480.394531 367.707031 C 479.433594 367.003906 478.621094 366.058594 477.949219 364.875 C 477.273438 363.691406 476.699219 362.136719 476.21875 360.214844 C 475.738281 358.296875 475.515625 356.039062 475.546875 353.445312 Z M 485.867188 349.410156 C 484.90625 349.410156 484.074219 349.683594 483.371094 350.226562 C 482.667969 350.773438 482.125 351.492188 481.738281 352.386719 C 481.355469 353.285156 481.082031 354.199219 480.921875 355.125 C 480.761719 356.054688 480.667969 357.046875 480.636719 358.101562 C 480.636719 360.761719 480.828125 362.664062 481.210938 363.816406 C 481.59375 364.96875 482.203125 365.898438 483.035156 366.601562 C 483.804688 367.179688 484.652344 367.46875 485.578125 367.46875 C 487.210938 367.46875 488.460938 366.859375 489.324219 365.644531 C 489.738281 365.066406 490.027344 364.347656 490.1875 363.480469 C 490.347656 362.617188 490.425781 360.9375 490.425781 358.4375 C 490.425781 355.878906 490.347656 354.164062 490.1875 353.300781 C 490.027344 352.4375 489.738281 351.714844 489.324219 351.140625 C 488.460938 349.988281 487.308594 349.410156 485.867188 349.410156 Z M 485.867188 349.410156 " fill-opacity="1" fill-rule="nonzero"/></g><g clip-path="url(#8beb23c960)"><path fill="#000000" d="M 505.007812 345.652344 L 505.277344 345.585938 C 505.503906 345.585938 505.730469 345.585938 505.957031 345.585938 L 506.769531 345.585938 L 508.671875 347.214844 C 512.925781 351.066406 516.027344 355.863281 517.972656 361.617188 C 519.917969 367.367188 520.894531 373.34375 520.894531 379.546875 C 520.894531 382.625 520.667969 385.59375 520.214844 388.445312 C 519.761719 391.296875 519.242188 393.722656 518.652344 395.714844 C 518.0625 397.707031 517.226562 399.699219 516.140625 401.691406 C 515.054688 403.683594 514.195312 405.199219 513.5625 406.242188 C 512.925781 407.28125 512 408.4375 510.777344 409.707031 C 509.554688 410.972656 508.832031 411.722656 508.605469 411.949219 C 508.378906 412.171875 507.859375 412.605469 507.042969 413.238281 C 506.90625 413.375 506.816406 413.464844 506.769531 413.507812 L 505.957031 413.507812 C 505.59375 413.507812 505.34375 413.507812 505.210938 413.507812 C 505.074219 413.507812 504.960938 413.441406 504.871094 413.304688 C 504.78125 413.171875 504.710938 412.964844 504.667969 412.695312 C 504.710938 412.648438 504.960938 412.355469 505.414062 411.8125 C 512.429688 404.519531 515.9375 393.765625 515.9375 379.546875 C 515.9375 365.328125 512.429688 354.574219 505.414062 347.285156 C 504.960938 346.738281 504.710938 346.445312 504.667969 346.402344 C 504.667969 346.039062 504.78125 345.789062 505.007812 345.652344 Z M 505.007812 345.652344 " fill-opacity="1" fill-rule="nonzero"/></g><path fill="#000000" d="M 585.199219 394.558594 C 585.199219 395.464844 584.726562 395.917969 583.773438 395.917969 C 583.546875 395.917969 583.050781 395.554688 582.28125 394.832031 C 581.511719 394.105469 579.382812 392 575.898438 388.511719 L 568.839844 381.449219 L 561.710938 388.582031 C 556.910156 393.289062 554.445312 395.691406 554.308594 395.78125 C 554.128906 395.871094 553.96875 395.917969 553.835938 395.917969 C 553.472656 395.917969 553.15625 395.78125 552.882812 395.507812 C 552.613281 395.238281 552.453125 394.921875 552.410156 394.558594 C 552.410156 394.242188 552.726562 393.742188 553.359375 393.0625 C 553.992188 392.386719 556.121094 390.234375 559.742188 386.613281 L 566.800781 379.546875 L 559.742188 372.484375 C 556.074219 368.816406 553.949219 366.664062 553.359375 366.03125 C 552.769531 365.398438 552.453125 364.898438 552.410156 364.535156 C 552.410156 364.128906 552.542969 363.8125 552.816406 363.585938 C 553.085938 363.359375 553.425781 363.246094 553.835938 363.246094 C 554.0625 363.246094 554.21875 363.269531 554.308594 363.3125 C 554.445312 363.402344 556.910156 365.804688 561.710938 370.511719 L 568.839844 377.644531 L 575.898438 370.582031 C 579.382812 367.09375 581.511719 364.988281 582.28125 364.265625 C 583.050781 363.539062 583.546875 363.179688 583.773438 363.179688 C 584.726562 363.179688 585.199219 363.628906 585.199219 364.535156 C 585.199219 364.851562 584.972656 365.261719 584.523438 365.757812 C 584.070312 366.257812 581.851562 368.476562 577.867188 372.414062 L 570.808594 379.546875 L 577.867188 386.679688 C 581.671875 390.484375 583.84375 392.679688 584.386719 393.269531 C 584.929688 393.855469 585.199219 394.285156 585.199219 394.558594 Z M 585.199219 394.558594 " fill-opacity="1" fill-rule="nonzero"/><path fill="#000000" d="M 617.734375 367.390625 C 616.511719 367.390625 615.539062 366.980469 614.816406 366.167969 C 614.089844 365.351562 613.730469 364.355469 613.730469 363.179688 C 613.730469 359.960938 614.929688 357.179688 617.328125 354.824219 C 619.726562 352.46875 622.714844 351.292969 626.289062 351.292969 C 630.40625 351.292969 633.847656 352.558594 636.609375 355.09375 C 639.371094 357.628906 640.773438 360.914062 640.816406 364.945312 C 640.816406 366.890625 640.367188 368.746094 639.460938 370.511719 C 638.554688 372.28125 637.46875 373.820312 636.203125 375.132812 C 634.933594 376.445312 633.125 378.121094 630.769531 380.160156 C 629.140625 381.5625 626.878906 383.644531 623.980469 386.40625 L 619.976562 390.210938 L 625.136719 390.28125 C 632.242188 390.28125 636.019531 390.167969 636.472656 389.941406 C 636.789062 389.847656 637.332031 387.835938 638.101562 383.894531 L 638.101562 383.691406 L 640.816406 383.691406 L 640.816406 383.894531 C 640.773438 384.03125 640.476562 386.089844 639.933594 390.074219 C 639.390625 394.0625 639.050781 396.144531 638.917969 396.324219 L 638.917969 396.527344 L 613.730469 396.527344 L 613.730469 394.421875 C 613.730469 394.105469 613.863281 393.765625 614.136719 393.402344 C 614.40625 393.042969 615.085938 392.25 616.171875 391.027344 C 617.484375 389.578125 618.617188 388.308594 619.566406 387.222656 C 619.976562 386.769531 620.746094 385.933594 621.875 384.710938 C 623.007812 383.488281 623.777344 382.648438 624.183594 382.195312 C 624.589844 381.742188 625.246094 380.996094 626.152344 379.957031 C 627.058594 378.914062 627.691406 378.144531 628.054688 377.644531 C 628.417969 377.148438 628.9375 376.46875 629.617188 375.609375 C 630.292969 374.746094 630.769531 374.023438 631.042969 373.433594 C 631.3125 372.84375 631.652344 372.1875 632.058594 371.464844 C 632.46875 370.738281 632.761719 370.015625 632.941406 369.289062 C 633.125 368.566406 633.28125 367.886719 633.417969 367.253906 C 633.554688 366.621094 633.621094 365.871094 633.621094 365.011719 C 633.621094 362.160156 632.851562 359.691406 631.3125 357.609375 C 629.773438 355.523438 627.578125 354.484375 624.726562 354.484375 C 623.234375 354.484375 621.921875 354.867188 620.789062 355.636719 C 619.65625 356.40625 618.867188 357.15625 618.414062 357.878906 C 617.960938 358.605469 617.734375 359.035156 617.734375 359.171875 C 617.734375 359.214844 617.847656 359.238281 618.074219 359.238281 C 618.890625 359.238281 619.726562 359.554688 620.585938 360.1875 C 621.445312 360.824219 621.875 361.863281 621.875 363.3125 C 621.875 364.445312 621.515625 365.398438 620.789062 366.167969 C 620.066406 366.9375 619.046875 367.34375 617.734375 367.390625 Z M 617.734375 367.390625 " fill-opacity="1" fill-rule="nonzero"/><path fill="#000000" d="M 650.796875 356.792969 C 653.332031 353.125 656.796875 351.292969 661.1875 351.292969 C 663.359375 351.292969 665.53125 351.878906 667.703125 353.058594 C 669.875 354.234375 671.640625 356.316406 673 359.304688 C 674.671875 363.066406 675.511719 368.226562 675.511719 374.792969 C 675.511719 381.8125 674.539062 387.175781 672.589844 390.890625 C 671.6875 392.792969 670.441406 394.308594 668.855469 395.441406 C 667.273438 396.574219 665.894531 397.277344 664.714844 397.546875 C 663.539062 397.820312 662.386719 397.976562 661.253906 398.023438 C 660.078125 398.023438 658.898438 397.886719 657.722656 397.617188 C 656.546875 397.34375 655.164062 396.617188 653.582031 395.441406 C 651.996094 394.265625 650.753906 392.746094 649.847656 390.890625 C 647.902344 387.175781 646.929688 381.8125 646.929688 374.792969 C 646.929688 366.914062 648.21875 360.914062 650.796875 356.792969 Z M 666.074219 355.976562 C 664.714844 354.527344 663.109375 353.804688 661.253906 353.804688 C 659.351562 353.804688 657.722656 354.527344 656.363281 355.976562 C 655.234375 357.15625 654.488281 358.785156 654.125 360.867188 C 653.761719 362.953125 653.582031 367.296875 653.582031 373.910156 C 653.582031 381.066406 653.761719 385.773438 654.125 388.039062 C 654.488281 390.300781 655.300781 392.089844 656.570312 393.402344 C 657.835938 394.761719 659.398438 395.441406 661.253906 395.441406 C 663.0625 395.441406 664.601562 394.761719 665.871094 393.402344 C 667.183594 392.046875 667.996094 390.144531 668.3125 387.699219 C 668.632812 385.253906 668.8125 380.65625 668.855469 373.910156 C 668.855469 367.34375 668.675781 363.019531 668.3125 360.9375 C 667.953125 358.851562 667.207031 357.199219 666.074219 355.976562 Z M 666.074219 355.976562 " fill-opacity="1" fill-rule="nonzero"/><path fill="#000000" d="M 684.746094 356.792969 C 687.277344 353.125 690.742188 351.292969 695.132812 351.292969 C 697.304688 351.292969 699.476562 351.878906 701.648438 353.058594 C 703.820312 354.234375 705.585938 356.316406 706.945312 359.304688 C 708.621094 363.066406 709.457031 368.226562 709.457031 374.792969 C 709.457031 381.8125 708.484375 387.175781 706.539062 390.890625 C 705.632812 392.792969 704.386719 394.308594 702.804688 395.441406 C 701.21875 396.574219 699.839844 397.277344 698.664062 397.546875 C 697.484375 397.820312 696.332031 397.976562 695.199219 398.023438 C 694.023438 398.023438 692.847656 397.886719 691.667969 397.617188 C 690.492188 397.34375 689.113281 396.617188 687.527344 395.441406 C 685.945312 394.265625 684.699219 392.746094 683.792969 390.890625 C 681.847656 387.175781 680.875 381.8125 680.875 374.792969 C 680.875 366.914062 682.164062 360.914062 684.746094 356.792969 Z M 700.019531 355.976562 C 698.664062 354.527344 697.054688 353.804688 695.199219 353.804688 C 693.296875 353.804688 691.667969 354.527344 690.3125 355.976562 C 689.179688 357.15625 688.433594 358.785156 688.070312 360.867188 C 687.707031 362.953125 687.527344 367.296875 687.527344 373.910156 C 687.527344 381.066406 687.707031 385.773438 688.070312 388.039062 C 688.433594 390.300781 689.246094 392.089844 690.515625 393.402344 C 691.78125 394.761719 693.34375 395.441406 695.199219 395.441406 C 697.011719 395.441406 698.550781 394.761719 699.816406 393.402344 C 701.128906 392.046875 701.945312 390.144531 702.261719 387.699219 C 702.578125 385.253906 702.757812 380.65625 702.804688 373.910156 C 702.804688 367.34375 702.621094 363.019531 702.261719 360.9375 C 701.898438 358.851562 701.152344 357.199219 700.019531 355.976562 Z M 700.019531 355.976562 " fill-opacity="1" fill-rule="nonzero"/></svg>