<svg xmlns="http://www.w3.org/2000/svg" xmlns:xlink="http://www.w3.org/1999/xlink" width="1000" zoomAndPan="magnify" viewBox="0 0 750 749.999995" height="1000" preserveAspectRatio="xMidYMid meet" version="1.0"><rect x="-75" width="900" fill="#ffffff" y="-74.999999" height="899.999994" fill-opacity="1"/><rect x="-75" width="900" fill="#ffffff" y="-74.999999" height="899.999994" fill-opacity="1"/><path fill="#000000" d="M 366.664062 169.527344 L 363.785156 170.636719 C 361.714844 171.375 358.757812 172.117188 354.917969 172.855469 C 351.074219 173.59375 346.789062 174.113281 342.058594 174.410156 L 337.847656 174.410156 L 337.847656 164.203125 L 342.058594 164.203125 C 349.003906 163.90625 355.433594 162.796875 361.34375 160.871094 C 367.257812 158.949219 371.394531 157.175781 373.757812 155.546875 C 376.125 153.921875 378.191406 152.292969 379.964844 150.664062 C 380.261719 150.222656 381.148438 150 382.625 150 C 383.957031 150 385.210938 150.445312 386.394531 151.332031 L 386.394531 217.675781 L 386.617188 284.246094 C 387.652344 285.28125 388.539062 285.945312 389.277344 286.242188 C 390.015625 286.539062 391.789062 286.835938 394.597656 287.128906 C 397.40625 287.425781 401.984375 287.574219 408.339844 287.574219 L 414.105469 287.574219 L 414.105469 297.78125 L 411.664062 297.78125 C 408.5625 297.335938 396.8125 297.117188 376.417969 297.117188 C 356.320312 297.117188 344.71875 297.335938 341.617188 297.78125 L 338.957031 297.78125 L 338.957031 287.574219 L 344.71875 287.574219 C 347.972656 287.574219 350.777344 287.574219 353.144531 287.574219 C 355.507812 287.574219 357.355469 287.5 358.683594 287.351562 C 360.015625 287.203125 361.199219 286.980469 362.230469 286.6875 C 363.265625 286.390625 363.859375 286.242188 364.003906 286.242188 C 364.152344 286.242188 364.597656 285.871094 365.335938 285.132812 C 366.074219 284.394531 366.519531 284.097656 366.664062 284.246094 Z M 366.664062 169.527344 " fill-opacity="1" fill-rule="nonzero"/><path fill="#000000" d="M 343.613281 504.808594 C 339.621094 504.808594 336.445312 503.476562 334.078125 500.8125 C 331.714844 498.152344 330.53125 494.894531 330.53125 491.050781 C 330.53125 480.546875 334.449219 471.449219 342.28125 463.757812 C 350.113281 456.066406 359.867188 452.21875 371.542969 452.21875 C 384.992188 452.21875 396.222656 456.359375 405.238281 464.644531 C 414.25 472.929688 418.832031 483.652344 418.980469 496.820312 C 418.980469 503.179688 417.503906 509.246094 414.546875 515.015625 C 411.589844 520.785156 408.042969 525.8125 403.90625 530.105469 C 399.769531 534.394531 393.859375 539.867188 386.171875 546.523438 C 380.851562 551.109375 373.464844 557.914062 364.003906 566.9375 L 350.925781 579.363281 L 367.773438 579.585938 C 390.976562 579.585938 403.316406 579.214844 404.792969 578.476562 C 405.828125 578.179688 407.601562 571.597656 410.113281 558.726562 L 410.113281 558.0625 L 418.980469 558.0625 L 418.980469 558.726562 C 418.832031 559.171875 417.871094 565.902344 416.097656 578.921875 C 414.324219 591.9375 413.21875 598.742188 412.773438 599.335938 L 412.773438 600 L 330.53125 600 L 330.53125 593.121094 C 330.53125 592.085938 330.976562 590.976562 331.863281 589.792969 C 332.75 588.609375 334.964844 586.019531 338.511719 582.027344 C 342.800781 577.292969 346.492188 573.152344 349.597656 569.601562 C 350.925781 568.121094 353.4375 565.382812 357.132812 561.390625 C 360.828125 557.394531 363.339844 554.660156 364.671875 553.179688 C 366 551.703125 368.144531 549.261719 371.097656 545.859375 C 374.054688 542.457031 376.125 539.941406 377.304688 538.3125 C 378.488281 536.6875 380.1875 534.46875 382.40625 531.65625 C 384.621094 528.847656 386.171875 526.480469 387.058594 524.554688 C 387.945312 522.632812 389.054688 520.488281 390.382812 518.121094 C 391.714844 515.753906 392.675781 513.386719 393.265625 511.019531 C 393.859375 508.652344 394.375 506.433594 394.816406 504.363281 C 395.261719 502.292969 395.484375 499.851562 395.484375 497.042969 C 395.484375 487.722656 392.972656 479.660156 387.945312 472.855469 C 382.921875 466.050781 375.753906 462.648438 366.445312 462.648438 C 361.566406 462.648438 357.28125 463.90625 353.585938 466.421875 C 349.890625 468.933594 347.304688 471.375 345.828125 473.742188 C 344.351562 476.109375 343.613281 477.515625 343.613281 477.957031 C 343.613281 478.105469 343.980469 478.179688 344.71875 478.179688 C 347.378906 478.179688 350.113281 479.214844 352.921875 481.285156 C 355.730469 483.359375 357.132812 486.761719 357.132812 491.492188 C 357.132812 495.191406 355.953125 498.296875 353.585938 500.8125 C 351.222656 503.328125 347.898438 504.660156 343.613281 504.808594 Z M 343.613281 504.808594 " fill-opacity="1" fill-rule="nonzero"/><path fill="#000000" d="M 297.28125 398.964844 L 452.453125 398.964844 L 452.453125 385.652344 L 297.28125 385.652344 Z M 297.28125 398.964844 " fill-opacity="1" fill-rule="nonzero"/></svg>