<svg xmlns="http://www.w3.org/2000/svg" xmlns:xlink="http://www.w3.org/1999/xlink" width="1000" zoomAndPan="magnify" viewBox="0 0 750 749.999995" height="1000" preserveAspectRatio="xMidYMid meet" version="1.0"><rect x="-75" width="900" fill="#ffffff" y="-74.999999" height="899.999994" fill-opacity="1"/><rect x="-75" width="900" fill="#ffffff" y="-74.999999" height="899.999994" fill-opacity="1"/><path fill="#a6a6a6" d="M 369.800781 375.410156 L 162.113281 234.628906 C 124.167969 292.175781 112.488281 359.578125 124.414062 422.53125 Z M 369.800781 375.410156 " fill-opacity="1" fill-rule="evenodd"/><path fill="#a6a6a6" d="M 517.410156 163.203125 C 459.929688 124.597656 392.382812 112.480469 329.195312 124.054688 L 376.597656 370.9375 Z M 517.410156 163.203125 " fill-opacity="1" fill-rule="evenodd"/><path fill="#a6a6a6" d="M 521.019531 165.722656 L 380.238281 373.410156 L 625.628906 326.296875 C 613.386719 263.402344 577.578125 205.121094 521.019531 165.722656 " fill-opacity="1" fill-rule="evenodd"/><path fill="#a6a6a6" d="M 372.269531 371.765625 L 324.871094 124.886719 C 261.890625 137.539062 203.632812 173.804688 164.535156 230.957031 Z M 372.269531 371.765625 " fill-opacity="1" fill-rule="evenodd"/><path fill="#cf4a49" d="M 370.632812 379.734375 L 125.316406 426.835938 C 138.246094 489.226562 174.367188 546.867188 231.058594 585.648438 Z M 370.632812 379.734375 " fill-opacity="1" fill-rule="evenodd"/><path fill="#cf4a49" d="M 381.066406 377.734375 L 586.980469 517.308594 C 625.277344 460.292969 637.484375 393.378906 626.386719 330.632812 Z M 381.066406 377.734375 " fill-opacity="1" fill-rule="evenodd"/><path fill="#cf4a49" d="M 374.277344 382.203125 L 234.730469 588.070312 C 291.808594 625.707031 358.578125 637.476562 421.09375 626.027344 Z M 374.277344 382.203125 " fill-opacity="1" fill-rule="evenodd"/><path fill="#cf4a49" d="M 378.601562 381.375 L 425.414062 625.203125 C 487.71875 612.683594 545.386719 577.027344 584.464844 520.921875 Z M 378.601562 381.375 " fill-opacity="1" fill-rule="evenodd"/></svg>