<svg xmlns="http://www.w3.org/2000/svg" xmlns:xlink="http://www.w3.org/1999/xlink" width="1000" zoomAndPan="magnify" viewBox="0 0 750 749.999995" height="1000" preserveAspectRatio="xMidYMid meet" version="1.0"><rect x="-75" width="900" fill="#ffffff" y="-74.999999" height="899.999994" fill-opacity="1"/><rect x="-75" width="900" fill="#ffffff" y="-74.999999" height="899.999994" fill-opacity="1"/><path fill="#000000" d="M 343.613281 202.589844 C 339.621094 202.589844 336.445312 201.257812 334.078125 198.59375 C 331.714844 195.933594 330.53125 192.675781 330.53125 188.832031 C 330.53125 178.328125 334.449219 169.230469 342.28125 161.539062 C 350.113281 153.847656 359.867188 150 371.542969 150 C 384.992188 150 396.222656 154.140625 405.238281 162.425781 C 414.25 170.710938 418.832031 181.433594 418.980469 194.601562 C 418.980469 200.960938 417.503906 207.027344 414.546875 212.796875 C 411.589844 218.566406 408.042969 223.59375 403.90625 227.882812 C 399.769531 232.175781 393.859375 237.648438 386.171875 244.304688 C 380.851562 248.890625 373.464844 255.695312 364.003906 264.71875 L 350.925781 277.144531 L 367.773438 277.367188 C 390.976562 277.367188 403.316406 276.996094 404.792969 276.257812 C 405.828125 275.960938 407.601562 269.378906 410.113281 256.507812 L 410.113281 255.84375 L 418.980469 255.84375 L 418.980469 256.507812 C 418.832031 256.953125 417.871094 263.683594 416.097656 276.703125 C 414.324219 289.71875 413.21875 296.523438 412.773438 297.117188 L 412.773438 297.78125 L 330.53125 297.78125 L 330.53125 290.902344 C 330.53125 289.867188 330.976562 288.757812 331.863281 287.574219 C 332.75 286.390625 334.964844 283.800781 338.511719 279.808594 C 342.800781 275.074219 346.492188 270.933594 349.597656 267.382812 C 350.925781 265.902344 353.4375 263.164062 357.132812 259.171875 C 360.828125 255.175781 363.339844 252.441406 364.671875 250.960938 C 366 249.480469 368.144531 247.042969 371.097656 243.640625 C 374.054688 240.238281 376.125 237.722656 377.304688 236.09375 C 378.488281 234.46875 380.1875 232.25 382.40625 229.4375 C 384.621094 226.628906 386.171875 224.261719 387.058594 222.335938 C 387.945312 220.414062 389.054688 218.269531 390.382812 215.902344 C 391.714844 213.535156 392.675781 211.167969 393.265625 208.800781 C 393.859375 206.433594 394.375 204.214844 394.816406 202.144531 C 395.261719 200.074219 395.484375 197.632812 395.484375 194.824219 C 395.484375 185.503906 392.972656 177.441406 387.945312 170.636719 C 382.921875 163.832031 375.753906 160.429688 366.445312 160.429688 C 361.566406 160.429688 357.28125 161.6875 353.585938 164.203125 C 349.890625 166.714844 347.304688 169.15625 345.828125 171.523438 C 344.351562 173.890625 343.613281 175.296875 343.613281 175.738281 C 343.613281 175.886719 343.980469 175.960938 344.71875 175.960938 C 347.378906 175.960938 350.113281 176.996094 352.921875 179.066406 C 355.730469 181.140625 357.132812 184.542969 357.132812 189.273438 C 357.132812 192.972656 355.953125 196.078125 353.585938 198.59375 C 351.222656 201.109375 347.898438 202.441406 343.613281 202.589844 Z M 343.613281 202.589844 " fill-opacity="1" fill-rule="nonzero"/><path fill="#000000" d="M 421.863281 600 C 419.203125 599.554688 409.671875 599.335938 393.265625 599.335938 C 376.125 599.335938 366.222656 599.554688 363.5625 600 L 361.566406 600 L 361.566406 589.792969 L 368.4375 589.792969 C 371.394531 589.792969 373.390625 589.792969 374.425781 589.792969 C 375.457031 589.792969 376.714844 589.644531 378.191406 589.347656 C 379.671875 589.054688 380.703125 588.683594 381.296875 588.238281 C 381.886719 587.796875 382.40625 587.203125 382.847656 586.464844 C 382.996094 586.167969 383.070312 582.175781 383.070312 574.480469 L 383.070312 563.386719 L 325.65625 563.386719 L 325.65625 553.179688 L 359.128906 501.921875 C 381.738281 467.605469 393.191406 450.371094 393.488281 450.222656 C 393.785156 449.925781 395.335938 449.777344 398.144531 449.777344 L 402.132812 449.777344 L 403.464844 451.109375 L 403.464844 553.179688 L 423.855469 553.179688 L 423.855469 563.386719 L 403.464844 563.386719 L 403.464844 574.703125 C 403.464844 580.769531 403.464844 584.320312 403.464844 585.355469 C 403.464844 586.390625 403.90625 587.277344 404.792969 588.019531 C 405.976562 589.054688 410.1875 589.644531 417.429688 589.792969 L 423.855469 589.792969 L 423.855469 600 Z M 384.398438 553.179688 L 384.398438 479.066406 L 335.851562 552.957031 L 360.015625 553.179688 Z M 384.398438 553.179688 " fill-opacity="1" fill-rule="nonzero"/><path fill="#000000" d="M 297.28125 398.964844 L 452.453125 398.964844 L 452.453125 385.652344 L 297.28125 385.652344 Z M 297.28125 398.964844 " fill-opacity="1" fill-rule="nonzero"/></svg>