<svg xmlns="http://www.w3.org/2000/svg" xmlns:xlink="http://www.w3.org/1999/xlink" width="1000" zoomAndPan="magnify" viewBox="0 0 750 749.999995" height="1000" preserveAspectRatio="xMidYMid meet" version="1.0"><rect x="-75" width="900" fill="#ffffff" y="-74.999999" height="899.999994" fill-opacity="1"/><rect x="-75" width="900" fill="#ffffff" y="-74.999999" height="899.999994" fill-opacity="1"/><path fill="#000000" d="M 347.882812 194.363281 C 343.933594 194.363281 340.859375 193.117188 338.667969 190.628906 C 336.472656 188.140625 335.300781 184.917969 335.15625 180.964844 C 335.15625 172.914062 338.667969 165.738281 345.6875 159.445312 C 352.707031 153.148438 361.191406 150 371.136719 150 C 376.257812 150 379.476562 150.074219 380.792969 150.21875 C 391.613281 151.976562 399.878906 155.855469 405.582031 161.859375 C 411.289062 167.863281 414.214844 174.378906 414.359375 181.40625 C 414.359375 189.019531 411.875 196.414062 406.898438 203.585938 C 401.925781 210.761719 395.050781 215.960938 386.277344 219.179688 L 385.617188 219.621094 C 385.617188 219.765625 386.277344 219.984375 387.59375 220.277344 C 388.910156 220.570312 391.03125 221.230469 393.957031 222.253906 C 396.878906 223.28125 399.660156 224.816406 402.292969 226.867188 C 414.285156 234.625 420.285156 244.875 420.285156 257.613281 C 420.285156 269.179688 415.75 279.28125 406.679688 287.921875 C 397.613281 296.558594 386.128906 300.878906 372.234375 300.878906 C 360.535156 300.878906 350.441406 297.730469 341.957031 291.433594 C 333.472656 285.140625 329.230469 277.160156 329.230469 267.496094 C 329.230469 263.398438 330.546875 260.101562 333.179688 257.613281 C 335.8125 255.125 339.105469 253.808594 343.054688 253.660156 C 347.148438 253.660156 350.515625 254.976562 353.148438 257.613281 C 355.78125 260.25 357.097656 263.542969 357.097656 267.496094 C 357.097656 269.105469 356.875 270.570312 356.4375 271.890625 C 356 273.207031 355.488281 274.378906 354.902344 275.402344 C 354.316406 276.425781 353.511719 277.304688 352.488281 278.039062 C 351.464844 278.769531 350.585938 279.355469 349.855469 279.796875 C 349.125 280.234375 348.394531 280.527344 347.660156 280.671875 C 346.929688 280.820312 346.34375 281.039062 345.90625 281.332031 L 345.027344 281.550781 C 352.488281 288.140625 361.558594 291.433594 372.234375 291.433594 C 380.28125 291.433594 386.347656 287.554688 390.445312 279.796875 C 392.929688 274.964844 394.175781 267.570312 394.175781 257.613281 L 394.175781 253.222656 C 394.175781 239.3125 389.496094 230.015625 380.132812 225.328125 C 377.9375 224.449219 373.476562 223.9375 366.75 223.792969 L 357.535156 223.574219 L 356.875 223.132812 C 356.585938 222.695312 356.4375 221.523438 356.4375 219.621094 C 356.4375 216.984375 357.023438 215.667969 358.191406 215.667969 C 362.289062 215.667969 366.53125 215.300781 370.917969 214.566406 C 375.890625 213.835938 380.425781 210.761719 384.519531 205.34375 C 388.617188 199.925781 390.664062 191.726562 390.664062 180.746094 L 390.664062 178.988281 C 390.664062 170.644531 388.105469 164.859375 382.984375 161.640625 C 379.765625 159.589844 376.332031 158.566406 372.671875 158.566406 C 367.992188 158.566406 363.679688 159.371094 359.730469 160.980469 C 355.78125 162.589844 353 164.273438 351.390625 166.03125 C 349.78125 167.789062 348.976562 168.667969 348.976562 168.667969 L 349.636719 168.667969 C 350.074219 168.8125 350.660156 168.960938 351.390625 169.105469 C 352.125 169.253906 352.855469 169.621094 353.585938 170.203125 C 354.316406 170.789062 355.195312 171.304688 356.21875 171.742188 C 357.242188 172.179688 357.972656 172.988281 358.414062 174.15625 C 358.851562 175.328125 359.4375 176.425781 360.167969 177.453125 C 360.898438 178.476562 361.117188 179.941406 360.824219 181.84375 C 360.824219 185.066406 359.800781 187.921875 357.753906 190.410156 C 355.707031 192.898438 352.414062 194.214844 347.882812 194.363281 Z M 347.882812 194.363281 " fill-opacity="1" fill-rule="nonzero"/><path fill="#000000" d="M 329.230469 526.425781 C 329.230469 502.5625 335.15625 483.675781 347.003906 469.765625 C 358.851562 455.855469 372.015625 448.902344 386.496094 448.902344 C 396.589844 448.902344 403.828125 451.539062 408.214844 456.808594 C 412.605469 462.078125 414.796875 467.9375 414.796875 474.378906 C 414.796875 478.039062 413.773438 480.964844 411.726562 483.164062 C 409.679688 485.359375 406.828125 486.457031 403.171875 486.457031 C 399.804688 486.457031 397.027344 485.433594 394.832031 483.382812 C 392.640625 481.332031 391.542969 478.476562 391.542969 474.816406 C 391.542969 468.375 394.980469 464.496094 401.855469 463.175781 C 398.636719 459.957031 394.101562 458.125 388.25 457.6875 C 377.867188 457.6875 369.308594 462.078125 362.582031 470.863281 C 355.707031 480.527344 352.269531 495.316406 352.269531 515.226562 L 352.488281 516.105469 C 353.21875 515.226562 353.804688 514.273438 354.242188 513.25 C 360.242188 504.464844 368.066406 500.074219 377.71875 500.074219 L 378.597656 500.074219 C 385.324219 500.074219 391.25 501.464844 396.367188 504.246094 C 399.878906 506.296875 403.390625 509.222656 406.898438 513.03125 C 410.410156 516.835938 413.261719 521.011719 415.457031 525.550781 C 418.527344 532.722656 420.0625 540.554688 420.0625 549.046875 L 420.0625 553 C 420.0625 556.367188 419.699219 559.515625 418.96875 562.445312 C 417.359375 571.082031 412.675781 579.503906 404.925781 587.703125 C 397.171875 595.902344 387.375 600 375.527344 600 C 371.429688 600 367.480469 599.414062 363.679688 598.242188 C 359.875 597.070312 355.78125 594.875 351.390625 591.65625 C 347.003906 588.433594 343.273438 584.113281 340.203125 578.695312 C 337.128906 573.28125 334.496094 566.179688 332.304688 557.394531 C 330.109375 548.609375 329.085938 538.285156 329.230469 526.425781 Z M 376.402344 507.980469 C 372.015625 507.980469 368.210938 509.222656 364.996094 511.714844 C 361.777344 514.203125 359.289062 517.496094 357.535156 521.597656 C 355.78125 525.695312 354.535156 529.867188 353.804688 534.113281 C 353.074219 538.359375 352.636719 542.898438 352.488281 547.730469 C 352.488281 559.882812 353.367188 568.59375 355.121094 573.867188 C 356.875 579.136719 359.65625 583.382812 363.457031 586.601562 C 366.96875 589.238281 370.84375 590.554688 375.085938 590.554688 C 382.546875 590.554688 388.25 587.773438 392.199219 582.210938 C 394.101562 579.574219 395.417969 576.28125 396.148438 572.328125 C 396.878906 568.375 397.246094 560.6875 397.246094 549.269531 C 397.246094 537.554688 396.878906 529.722656 396.148438 525.769531 C 395.417969 521.816406 394.101562 518.519531 392.199219 515.886719 C 388.25 510.613281 382.984375 507.980469 376.402344 507.980469 Z M 376.402344 507.980469 " fill-opacity="1" fill-rule="nonzero"/><path fill="#000000" d="M 298.078125 396.191406 L 451.65625 396.191406 L 451.65625 383.015625 L 298.078125 383.015625 Z M 298.078125 396.191406 " fill-opacity="1" fill-rule="nonzero"/></svg>