<svg xmlns="http://www.w3.org/2000/svg" xmlns:xlink="http://www.w3.org/1999/xlink" width="1000" zoomAndPan="magnify" viewBox="0 0 750 749.999995" height="1000" preserveAspectRatio="xMidYMid meet" version="1.0"><rect x="-75" width="900" fill="#ffffff" y="-74.999999" height="899.999994" fill-opacity="1"/><rect x="-75" width="900" fill="#ffffff" y="-74.999999" height="899.999994" fill-opacity="1"/><path fill="#000000" d="M 421.109375 297.816406 C 418.492188 297.378906 409.113281 297.160156 392.972656 297.160156 C 376.105469 297.160156 366.359375 297.378906 363.742188 297.816406 L 361.78125 297.816406 L 361.78125 287.773438 L 368.542969 287.773438 C 371.449219 287.773438 373.414062 287.773438 374.429688 287.773438 C 375.449219 287.773438 376.683594 287.628906 378.140625 287.335938 C 379.59375 287.046875 380.613281 286.679688 381.191406 286.246094 C 381.773438 285.808594 382.285156 285.226562 382.71875 284.496094 C 382.867188 284.207031 382.9375 280.277344 382.9375 272.707031 L 382.9375 261.789062 L 326.445312 261.789062 L 326.445312 251.746094 L 359.382812 201.308594 C 381.628906 167.539062 392.898438 150.582031 393.191406 150.4375 C 393.480469 150.144531 395.007812 150 397.769531 150 L 401.695312 150 L 403.003906 151.308594 L 403.003906 251.746094 L 423.074219 251.746094 L 423.074219 261.789062 L 403.003906 261.789062 L 403.003906 272.925781 C 403.003906 278.894531 403.003906 282.386719 403.003906 283.40625 C 403.003906 284.425781 403.441406 285.296875 404.3125 286.027344 C 405.476562 287.046875 409.621094 287.628906 416.746094 287.773438 L 423.074219 287.773438 L 423.074219 297.816406 Z M 384.246094 251.746094 L 384.246094 178.820312 L 336.476562 251.527344 L 360.253906 251.746094 Z M 384.246094 251.746094 " fill-opacity="1" fill-rule="nonzero"/><path fill="#000000" d="M 335.605469 504.148438 C 335.605469 504.148438 335.605469 498.542969 335.605469 487.335938 C 335.605469 476.128906 339.53125 467.101562 347.382812 460.261719 C 355.238281 453.421875 364.253906 449.925781 374.429688 449.78125 C 384.757812 449.78125 393.917969 452.839844 401.914062 458.953125 C 409.914062 465.066406 413.910156 473 413.910156 482.75 C 413.910156 487.117188 413.113281 491.195312 411.511719 494.976562 C 409.914062 498.761719 408.023438 501.820312 405.839844 504.148438 C 403.660156 506.476562 401.40625 508.515625 399.078125 510.261719 C 396.753906 512.007812 394.863281 513.320312 393.40625 514.191406 C 391.953125 515.066406 391.152344 515.648438 391.007812 515.9375 L 394.0625 517.902344 C 396.097656 519.359375 398.132812 520.816406 400.167969 522.269531 C 402.207031 523.726562 403.367188 524.527344 403.660156 524.671875 C 414.566406 533.261719 420.019531 544.105469 420.019531 557.207031 C 420.019531 568.703125 415.800781 578.675781 407.367188 587.117188 C 398.933594 595.558594 388.027344 599.855469 374.648438 600 C 361.5625 600 350.800781 596.289062 342.367188 588.863281 C 333.933594 581.441406 329.714844 572.269531 329.714844 561.355469 C 329.714844 545.632812 339.09375 532.53125 357.855469 522.050781 L 353.929688 519.214844 C 350.875 517.320312 348.910156 515.867188 348.039062 514.847656 C 339.75 507.714844 335.605469 498.542969 335.605469 487.335938 Z M 382.71875 510.917969 L 384.027344 510.042969 C 384.902344 509.460938 385.554688 509.023438 385.992188 508.734375 C 386.429688 508.441406 387.15625 507.933594 388.171875 507.207031 C 389.191406 506.476562 390.0625 505.75 390.789062 505.023438 C 391.519531 504.292969 392.316406 503.421875 393.191406 502.402344 C 394.0625 501.382812 394.863281 500.4375 395.589844 499.5625 C 396.316406 498.691406 397.042969 497.527344 397.769531 496.070312 C 398.496094 494.613281 399.152344 493.378906 399.734375 492.359375 C 400.316406 491.339844 400.679688 489.882812 400.824219 487.992188 C 400.96875 486.097656 401.113281 484.496094 401.261719 483.1875 C 401.261719 476.929688 399.152344 471.617188 394.933594 467.25 C 390.71875 462.882812 385.847656 460.117188 380.320312 458.953125 C 379.304688 458.804688 376.902344 458.734375 373.121094 458.734375 C 367.160156 458.734375 361.5625 460.625 356.328125 464.410156 C 351.09375 468.195312 348.402344 472.925781 348.257812 478.601562 C 348.257812 481.949219 349.203125 485.007812 351.09375 487.773438 C 352.984375 490.539062 354.871094 492.648438 356.761719 494.105469 C 358.652344 495.558594 362.289062 497.890625 367.667969 501.089844 C 368.6875 501.820312 369.488281 502.328125 370.070312 502.621094 Z M 374.867188 590.613281 C 383.300781 590.613281 390.574219 588.136719 396.679688 583.1875 C 402.789062 578.238281 405.839844 572.269531 405.839844 565.285156 C 405.839844 562.808594 405.476562 560.480469 404.75 558.296875 C 404.023438 556.113281 403.152344 554.292969 402.132812 552.839844 C 401.113281 551.382812 399.515625 549.78125 397.335938 548.035156 C 395.152344 546.289062 393.480469 544.976562 392.316406 544.105469 C 391.152344 543.230469 389.046875 541.847656 385.992188 539.957031 C 382.9375 538.0625 380.976562 536.828125 380.101562 536.246094 C 378.066406 534.933594 375.886719 533.550781 373.558594 532.097656 C 371.230469 530.640625 369.34375 529.402344 367.886719 528.382812 L 366.144531 527.292969 C 365.269531 527.292969 363.160156 528.53125 359.816406 531.003906 C 356.472656 533.480469 352.984375 537.480469 349.347656 543.011719 C 345.710938 548.542969 343.820312 554.511719 343.675781 560.917969 C 343.675781 569.503906 346.800781 576.566406 353.054688 582.097656 C 359.308594 587.628906 366.578125 590.464844 374.867188 590.613281 Z M 374.867188 590.613281 " fill-opacity="1" fill-rule="nonzero"/><path fill="#000000" d="M 298.523438 397.378906 L 451.210938 397.378906 L 451.210938 384.28125 L 298.523438 384.28125 Z M 298.523438 397.378906 " fill-opacity="1" fill-rule="nonzero"/></svg>