<svg xmlns="http://www.w3.org/2000/svg" xmlns:xlink="http://www.w3.org/1999/xlink" width="1000" zoomAndPan="magnify" viewBox="0 0 750 749.999995" height="1000" preserveAspectRatio="xMidYMid meet" version="1.0"><rect x="-75" width="900" fill="#ffffff" y="-74.999999" height="899.999994" fill-opacity="1"/><rect x="-75" width="900" fill="#ffffff" y="-74.999999" height="899.999994" fill-opacity="1"/><path fill="#000000" d="M 329.777344 229.210938 C 329.777344 205.246094 335.765625 186.277344 347.75 172.308594 C 359.730469 158.339844 373.042969 151.355469 387.6875 151.355469 C 397.890625 151.355469 405.214844 154.003906 409.652344 159.296875 C 414.089844 164.589844 416.308594 170.46875 416.308594 176.941406 C 416.308594 180.617188 415.273438 183.558594 413.203125 185.761719 C 411.128906 187.96875 408.246094 189.070312 404.546875 189.070312 C 401.144531 189.070312 398.335938 188.042969 396.117188 185.984375 C 393.898438 183.925781 392.789062 181.058594 392.789062 177.382812 C 392.789062 170.910156 396.265625 167.015625 403.21875 165.691406 C 399.964844 162.457031 395.378906 160.617188 389.460938 160.179688 C 378.957031 160.179688 370.304688 164.589844 363.5 173.410156 C 356.550781 183.117188 353.074219 197.964844 353.074219 217.964844 L 353.296875 218.847656 C 354.035156 217.964844 354.625 217.007812 355.070312 215.980469 C 361.136719 207.15625 369.046875 202.746094 378.8125 202.746094 L 379.699219 202.746094 C 386.503906 202.746094 392.492188 204.140625 397.671875 206.9375 C 401.21875 208.996094 404.769531 211.933594 408.320312 215.757812 C 411.871094 219.582031 414.753906 223.773438 416.972656 228.328125 C 420.078125 235.535156 421.632812 243.402344 421.632812 251.929688 L 421.632812 255.898438 C 421.632812 259.28125 421.261719 262.441406 420.523438 265.382812 C 418.894531 274.058594 414.164062 282.511719 406.324219 290.746094 C 398.484375 298.980469 388.574219 303.097656 376.59375 303.097656 C 372.449219 303.097656 368.457031 302.511719 364.609375 301.335938 C 360.765625 300.15625 356.625 297.953125 352.1875 294.71875 C 347.75 291.484375 343.976562 287.144531 340.871094 281.703125 C 337.765625 276.265625 335.101562 269.132812 332.882812 260.3125 C 330.664062 251.488281 329.628906 241.121094 329.777344 229.210938 Z M 377.480469 210.683594 C 373.042969 210.683594 369.195312 211.933594 365.941406 214.433594 C 362.6875 216.933594 360.171875 220.242188 358.398438 224.359375 C 356.625 228.476562 355.367188 232.667969 354.625 236.929688 C 353.886719 241.195312 353.441406 245.753906 353.296875 250.605469 C 353.296875 262.808594 354.183594 271.558594 355.957031 276.851562 C 357.734375 282.144531 360.542969 286.410156 364.390625 289.644531 C 367.9375 292.292969 371.859375 293.613281 376.148438 293.613281 C 383.691406 293.613281 389.460938 290.820312 393.453125 285.234375 C 395.378906 282.585938 396.707031 279.277344 397.449219 275.308594 C 398.1875 271.339844 398.558594 263.617188 398.558594 252.148438 C 398.558594 240.386719 398.1875 232.519531 397.449219 228.550781 C 396.707031 224.582031 395.378906 221.273438 393.453125 218.625 C 389.460938 213.332031 384.136719 210.683594 377.480469 210.683594 Z M 377.480469 210.683594 " fill-opacity="1" fill-rule="nonzero"/><path fill="#000000" d="M 312.25 471.164062 L 309.363281 472.265625 C 307.292969 473 304.335938 473.734375 300.488281 474.472656 C 296.644531 475.207031 292.355469 475.722656 287.621094 476.015625 L 283.40625 476.015625 L 283.40625 465.871094 L 287.621094 465.871094 C 294.574219 465.574219 301.007812 464.472656 306.921875 462.5625 C 312.839844 460.648438 316.980469 458.886719 319.347656 457.269531 C 321.714844 455.648438 323.785156 454.03125 325.5625 452.414062 C 325.855469 451.972656 326.746094 451.753906 328.222656 451.753906 C 329.554688 451.753906 330.8125 452.195312 331.996094 453.078125 L 331.996094 519.023438 L 332.21875 585.191406 C 333.253906 586.21875 334.140625 586.882812 334.878906 587.175781 C 335.621094 587.46875 337.394531 587.761719 340.203125 588.058594 C 343.015625 588.351562 347.601562 588.5 353.960938 588.5 L 359.730469 588.5 L 359.730469 598.644531 L 357.289062 598.644531 C 354.183594 598.203125 342.421875 597.984375 322.011719 597.984375 C 301.894531 597.984375 290.28125 598.203125 287.175781 598.644531 L 284.515625 598.644531 L 284.515625 588.5 L 290.28125 588.5 C 293.535156 588.5 296.347656 588.5 298.714844 588.5 C 301.082031 588.5 302.929688 588.425781 304.261719 588.277344 C 305.59375 588.132812 306.777344 587.910156 307.8125 587.617188 C 308.847656 587.324219 309.4375 587.175781 309.585938 587.175781 C 309.734375 587.175781 310.175781 586.808594 310.917969 586.074219 C 311.65625 585.335938 312.101562 585.042969 312.25 585.191406 Z M 312.25 471.164062 " fill-opacity="1" fill-rule="nonzero"/><path fill="#000000" d="M 400.109375 504.027344 C 396.117188 504.027344 392.9375 502.703125 390.570312 500.054688 C 388.203125 497.410156 387.019531 494.175781 387.019531 490.351562 C 387.019531 479.910156 390.941406 470.867188 398.78125 463.222656 C 406.621094 455.578125 416.382812 451.753906 428.066406 451.753906 C 441.527344 451.753906 452.769531 455.871094 461.792969 464.105469 C 470.816406 472.339844 475.402344 483 475.546875 496.085938 C 475.546875 502.410156 474.070312 508.4375 471.109375 514.171875 C 468.152344 519.90625 464.601562 524.90625 460.460938 529.167969 C 456.320312 533.433594 450.402344 538.875 442.710938 545.492188 C 437.386719 550.046875 429.988281 556.8125 420.523438 565.78125 L 407.433594 578.132812 L 424.296875 578.351562 C 447.519531 578.351562 459.871094 577.984375 461.347656 577.25 C 462.382812 576.957031 464.160156 570.414062 466.671875 557.621094 L 466.671875 556.960938 L 475.546875 556.960938 L 475.546875 557.621094 C 475.402344 558.0625 474.4375 564.753906 472.664062 577.691406 C 470.890625 590.632812 469.78125 597.394531 469.335938 597.984375 L 469.335938 598.644531 L 387.019531 598.644531 L 387.019531 591.808594 C 387.019531 590.777344 387.464844 589.675781 388.351562 588.5 C 389.238281 587.324219 391.457031 584.75 395.007812 580.78125 C 399.296875 576.074219 402.996094 571.957031 406.101562 568.429688 C 407.433594 566.957031 409.949219 564.238281 413.644531 560.265625 C 417.34375 556.296875 419.859375 553.578125 421.1875 552.105469 C 422.519531 550.636719 424.664062 548.210938 427.625 544.828125 C 430.582031 541.445312 432.652344 538.945312 433.835938 537.328125 C 435.019531 535.710938 436.71875 533.507812 438.9375 530.714844 C 441.15625 527.917969 442.710938 525.566406 443.597656 523.65625 C 444.484375 521.742188 445.59375 519.613281 446.925781 517.257812 C 448.257812 514.90625 449.21875 512.554688 449.8125 510.203125 C 450.402344 507.847656 450.921875 505.644531 451.363281 503.585938 C 451.808594 501.527344 452.03125 499.101562 452.03125 496.304688 C 452.03125 487.042969 449.515625 479.027344 444.484375 472.265625 C 439.457031 465.5 432.28125 462.121094 422.964844 462.121094 C 418.082031 462.121094 413.792969 463.371094 410.09375 465.871094 C 406.398438 468.367188 403.808594 470.796875 402.328125 473.148438 C 400.851562 475.5 400.109375 476.898438 400.109375 477.339844 C 400.109375 477.484375 400.480469 477.558594 401.21875 477.558594 C 403.882812 477.558594 406.621094 478.589844 409.429688 480.648438 C 412.238281 482.707031 413.644531 486.085938 413.644531 490.792969 C 413.644531 494.46875 412.460938 497.554688 410.09375 500.054688 C 407.730469 502.554688 404.402344 503.878906 400.109375 504.027344 Z M 400.109375 504.027344 " fill-opacity="1" fill-rule="nonzero"/><path fill="#000000" d="M 242.800781 398.820312 L 509.050781 398.820312 L 509.050781 385.585938 L 242.800781 385.585938 Z M 242.800781 398.820312 " fill-opacity="1" fill-rule="nonzero"/></svg>