<svg xmlns="http://www.w3.org/2000/svg" xmlns:xlink="http://www.w3.org/1999/xlink" width="1000" zoomAndPan="magnify" viewBox="0 0 750 749.999995" height="1000" preserveAspectRatio="xMidYMid meet" version="1.0"><rect x="-75" width="900" fill="#ffffff" y="-74.999999" height="899.999994" fill-opacity="1"/><rect x="-75" width="900" fill="#ffffff" y="-74.999999" height="899.999994" fill-opacity="1"/><path fill="#000000" d="M 332.660156 198.335938 C 332.808594 198.039062 334.066406 190.027344 336.433594 174.292969 L 339.984375 150.695312 C 339.984375 150.398438 341.460938 150.253906 344.421875 150.253906 L 348.859375 150.253906 L 348.859375 151.136719 C 348.859375 152.605469 349.96875 153.855469 352.1875 154.882812 C 354.40625 155.914062 358.25 156.574219 363.722656 156.871094 C 369.195312 157.164062 381.695312 157.3125 401.21875 157.3125 L 428.066406 157.3125 L 428.066406 165.914062 L 412.980469 186.425781 C 411.648438 188.1875 409.429688 191.128906 406.324219 195.246094 C 403.21875 199.363281 401.21875 202.082031 400.332031 203.40625 C 399.445312 204.730469 397.890625 207.082031 395.671875 210.464844 C 393.453125 213.847656 391.976562 216.492188 391.234375 218.40625 C 390.496094 220.316406 389.460938 223.035156 388.128906 226.566406 C 386.796875 230.09375 385.835938 233.476562 385.246094 236.710938 C 384.652344 239.945312 384.0625 243.914062 383.46875 248.621094 C 382.878906 253.328125 382.433594 258.324219 382.140625 263.617188 C 381.84375 268.914062 381.621094 274.941406 381.472656 281.703125 C 381.472656 283.761719 381.472656 285.820312 381.472656 287.878906 C 381.472656 289.9375 381.398438 291.703125 381.25 293.171875 L 381.25 295.160156 C 380.660156 297.65625 379.253906 299.789062 377.035156 301.554688 C 374.816406 303.320312 372.300781 304.203125 369.492188 304.203125 C 367.863281 304.203125 366.3125 303.980469 364.832031 303.539062 C 363.355469 303.097656 361.800781 301.703125 360.171875 299.347656 C 358.546875 296.996094 357.734375 294.054688 357.734375 290.527344 C 357.734375 267.292969 364.90625 243.179688 379.253906 218.183594 C 382.214844 213.480469 388.425781 204.582031 397.890625 191.496094 L 408.097656 177.601562 L 387.464844 177.601562 C 361.726562 177.601562 348.191406 178.042969 346.859375 178.925781 C 345.972656 179.367188 345.160156 181.128906 344.421875 184.21875 C 343.679688 187.304688 342.941406 190.46875 342.203125 193.703125 L 341.535156 198.335938 L 341.535156 198.996094 L 332.660156 198.996094 Z M 332.660156 198.335938 " fill-opacity="1" fill-rule="nonzero"/><path fill="#000000" d="M 312.25 472.265625 L 309.363281 473.367188 C 307.292969 474.101562 304.335938 474.839844 300.488281 475.574219 C 296.644531 476.308594 292.355469 476.824219 287.621094 477.117188 L 283.40625 477.117188 L 283.40625 466.972656 L 287.621094 466.972656 C 294.574219 466.679688 301.007812 465.574219 306.921875 463.664062 C 312.839844 461.753906 316.980469 459.988281 319.347656 458.371094 C 321.714844 456.753906 323.785156 455.136719 325.5625 453.519531 C 325.855469 453.078125 326.746094 452.855469 328.222656 452.855469 C 329.554688 452.855469 330.8125 453.296875 331.996094 454.179688 L 331.996094 520.125 L 332.21875 586.292969 C 333.253906 587.324219 334.140625 587.984375 334.878906 588.277344 C 335.621094 588.574219 337.394531 588.867188 340.203125 589.160156 C 343.015625 589.453125 347.601562 589.601562 353.960938 589.601562 L 359.730469 589.601562 L 359.730469 599.746094 L 357.289062 599.746094 C 354.183594 599.304688 342.421875 599.085938 322.011719 599.085938 C 301.894531 599.085938 290.28125 599.304688 287.175781 599.746094 L 284.515625 599.746094 L 284.515625 589.601562 L 290.28125 589.601562 C 293.535156 589.601562 296.347656 589.601562 298.714844 589.601562 C 301.082031 589.601562 302.929688 589.527344 304.261719 589.382812 C 305.59375 589.234375 306.777344 589.011719 307.8125 588.71875 C 308.847656 588.425781 309.4375 588.277344 309.585938 588.277344 C 309.734375 588.277344 310.175781 587.910156 310.917969 587.175781 C 311.65625 586.441406 312.101562 586.144531 312.25 586.292969 Z M 312.25 472.265625 " fill-opacity="1" fill-rule="nonzero"/><path fill="#000000" d="M 478.433594 599.746094 C 475.769531 599.304688 466.230469 599.085938 449.8125 599.085938 C 432.652344 599.085938 422.742188 599.304688 420.078125 599.746094 L 418.082031 599.746094 L 418.082031 589.601562 L 424.960938 589.601562 C 427.917969 589.601562 429.917969 589.601562 430.953125 589.601562 C 431.988281 589.601562 433.246094 589.453125 434.722656 589.160156 C 436.203125 588.867188 437.238281 588.5 437.828125 588.058594 C 438.421875 587.617188 438.9375 587.027344 439.382812 586.292969 C 439.53125 586 439.605469 582.027344 439.605469 574.382812 L 439.605469 563.355469 L 382.140625 563.355469 L 382.140625 553.210938 L 415.640625 502.261719 C 438.273438 468.148438 449.738281 451.019531 450.03125 450.871094 C 450.328125 450.578125 451.882812 450.429688 454.691406 450.429688 L 458.6875 450.429688 L 460.015625 451.753906 L 460.015625 553.210938 L 480.429688 553.210938 L 480.429688 563.355469 L 460.015625 563.355469 L 460.015625 574.605469 C 460.015625 580.632812 460.015625 584.160156 460.015625 585.191406 C 460.015625 586.21875 460.460938 587.101562 461.347656 587.835938 C 462.53125 588.867188 466.746094 589.453125 473.996094 589.601562 L 480.429688 589.601562 L 480.429688 599.746094 Z M 440.9375 553.210938 L 440.9375 479.542969 L 392.34375 552.988281 L 416.53125 553.210938 Z M 440.9375 553.210938 " fill-opacity="1" fill-rule="nonzero"/><path fill="#000000" d="M 242.800781 399.921875 L 509.050781 399.921875 L 509.050781 386.691406 L 242.800781 386.691406 Z M 242.800781 399.921875 " fill-opacity="1" fill-rule="nonzero"/></svg>