<svg xmlns="http://www.w3.org/2000/svg" xmlns:xlink="http://www.w3.org/1999/xlink" width="1000" zoomAndPan="magnify" viewBox="0 0 750 749.999995" height="1000" preserveAspectRatio="xMidYMid meet" version="1.0"><defs><clipPath id="cf7042f3dd"><path d="M 409 277.5 L 584 277.5 L 584 472.5 L 409 472.5 Z M 409 277.5 " clip-rule="nonzero"/></clipPath></defs><rect x="-75" width="900" fill="#ffffff" y="-74.999999" height="899.999994" fill-opacity="1"/><rect x="-75" width="900" fill="#ffffff" y="-74.999999" height="899.999994" fill-opacity="1"/><path fill="#000000" d="M 192.984375 420.96875 C 192.984375 424.839844 191.691406 428.066406 189.109375 430.644531 C 186.527344 433.226562 183.378906 434.515625 179.664062 434.515625 L 177.96875 434.515625 C 185.394531 447.257812 195.242188 453.628906 207.515625 453.628906 C 218.816406 453.628906 227.050781 448.789062 232.21875 439.113281 C 235.285156 433.789062 236.820312 423.46875 236.820312 408.144531 C 236.820312 391.53125 234.640625 380.324219 230.28125 374.515625 C 226.082031 369.195312 221.398438 366.53125 216.234375 366.53125 L 214.78125 366.53125 C 202.1875 366.53125 192.660156 372.015625 186.203125 382.984375 C 185.558594 384.113281 184.992188 384.757812 184.507812 384.917969 C 184.023438 385.082031 182.8125 385.242188 180.875 385.402344 C 178.128906 385.402344 176.597656 384.917969 176.273438 383.953125 C 175.949219 383.304688 175.789062 369.195312 175.789062 341.613281 L 175.789062 310.402344 C 175.789062 302.339844 176.191406 298.304688 177 298.304688 C 177.324219 297.984375 177.644531 297.824219 177.96875 297.824219 C 178.128906 297.824219 179.824219 298.46875 183.054688 299.757812 C 186.285156 301.046875 190.722656 302.339844 196.375 303.628906 C 202.023438 304.917969 208.078125 305.566406 214.539062 305.566406 C 226 305.566406 236.980469 303.304688 247.472656 298.789062 C 248.765625 298.144531 249.816406 297.824219 250.621094 297.824219 C 251.914062 297.824219 252.558594 299.273438 252.558594 302.175781 L 252.558594 305.324219 C 239.320312 320.96875 222.773438 328.789062 202.914062 328.789062 C 197.90625 328.789062 193.386719 328.304688 189.351562 327.339844 L 186.929688 326.855469 L 186.929688 368.46875 C 189.996094 366.210938 192.417969 364.433594 194.195312 363.144531 C 195.96875 361.855469 198.875 360.566406 202.914062 359.273438 C 206.949219 357.984375 211.066406 357.339844 215.265625 357.339844 C 228.34375 357.339844 239.402344 362.582031 248.441406 373.066406 C 257.484375 383.546875 262.003906 395.96875 262.003906 410.324219 C 262.003906 425.160156 256.839844 437.824219 246.503906 448.304688 C 236.171875 458.789062 223.578125 464.113281 208.726562 464.273438 C 195.648438 464.273438 185.152344 459.917969 177.242188 451.210938 C 169.332031 442.5 165.375 432.660156 165.375 421.695312 C 165.375 417.824219 166.261719 414.757812 168.039062 412.5 C 169.816406 410.242188 171.671875 408.789062 173.609375 408.144531 C 175.546875 407.5 177.402344 407.175781 179.179688 407.175781 C 183.214844 407.175781 186.527344 408.546875 189.109375 411.289062 C 191.691406 414.03125 192.984375 417.257812 192.984375 420.96875 Z M 192.984375 420.96875 " fill-opacity="1" fill-rule="nonzero"/><path fill="#000000" d="M 297.605469 317.417969 C 306.648438 304.355469 319 297.824219 334.660156 297.824219 C 342.410156 297.824219 350.160156 299.917969 357.910156 304.113281 C 365.660156 308.304688 371.957031 315.726562 376.800781 326.371094 C 382.773438 339.757812 385.761719 358.144531 385.761719 381.53125 C 385.761719 406.53125 382.289062 425.644531 375.347656 438.871094 C 372.117188 445.644531 367.675781 451.046875 362.027344 455.082031 C 356.375 459.113281 351.449219 461.613281 347.253906 462.582031 C 343.054688 463.546875 338.9375 464.113281 334.902344 464.273438 C 330.703125 464.273438 326.507812 463.789062 322.308594 462.824219 C 318.109375 461.855469 313.1875 459.273438 307.535156 455.082031 C 301.882812 450.886719 297.445312 445.484375 294.214844 438.871094 C 287.273438 425.644531 283.800781 406.53125 283.800781 381.53125 C 283.800781 353.46875 288.402344 332.097656 297.605469 317.417969 Z M 352.097656 314.515625 C 347.253906 309.355469 341.519531 306.773438 334.902344 306.773438 C 328.121094 306.773438 322.308594 309.355469 317.464844 314.515625 C 313.429688 318.710938 310.765625 324.515625 309.472656 331.933594 C 308.179688 339.355469 307.535156 354.839844 307.535156 378.386719 C 307.535156 403.871094 308.179688 420.644531 309.472656 428.710938 C 310.765625 436.773438 313.671875 443.144531 318.191406 447.824219 C 322.710938 452.660156 328.28125 455.082031 334.902344 455.082031 C 341.359375 455.082031 346.847656 452.660156 351.371094 447.824219 C 356.050781 442.984375 358.957031 436.210938 360.089844 427.5 C 361.21875 418.789062 361.863281 402.417969 362.027344 378.386719 C 362.027344 355 361.378906 339.597656 360.089844 332.175781 C 358.796875 324.757812 356.132812 318.871094 352.097656 314.515625 Z M 352.097656 314.515625 " fill-opacity="1" fill-rule="nonzero"/><g clip-path="url(#cf7042f3dd)"><path fill="#000000" d="M 508.0625 312.582031 C 502.085938 312.582031 496.355469 311.855469 490.867188 310.402344 C 485.378906 308.953125 481.019531 307.5 477.789062 306.046875 C 474.558594 304.597656 472.863281 303.871094 472.703125 303.871094 C 474.800781 309.195312 475.851562 316.695312 475.851562 326.371094 C 475.851562 340.886719 472.703125 352.582031 466.40625 361.453125 C 460.109375 370.324219 452.761719 374.839844 444.367188 375 C 435.164062 375 427.011719 370.566406 419.90625 361.695312 C 412.804688 352.824219 409.171875 341.046875 409.007812 326.371094 C 409.007812 312.015625 412.640625 300.324219 419.90625 291.289062 C 427.171875 282.257812 435.328125 277.660156 444.367188 277.5 C 450.664062 277.5 456.316406 280 461.320312 285 C 475.367188 297.417969 490.867188 303.628906 507.820312 303.628906 C 526.546875 303.628906 541.5625 296.371094 552.863281 281.855469 C 554.800781 279.273438 556.253906 277.902344 557.222656 277.742188 C 557.546875 277.582031 557.949219 277.5 558.433594 277.5 C 559.886719 277.5 561.097656 278.066406 562.066406 279.195312 C 563.035156 280.324219 563.441406 281.695312 563.277344 283.304688 C 480.128906 407.984375 437.910156 470.726562 436.617188 471.53125 C 435.972656 472.175781 435.164062 472.5 434.195312 472.5 C 432.097656 472.5 430.644531 471.613281 429.835938 469.839844 C 429.03125 468.386719 429.03125 466.933594 429.835938 465.484375 C 430 465 447.839844 438.304688 483.359375 385.402344 C 500.472656 359.917969 513.550781 340.402344 522.59375 326.855469 C 531.632812 313.304688 536.15625 306.53125 536.15625 306.53125 C 527.597656 310.566406 518.234375 312.582031 508.0625 312.582031 Z M 445.578125 365.804688 C 450.097656 365.804688 454.621094 362.417969 459.140625 355.644531 C 463.660156 348.871094 466.003906 339.113281 466.164062 326.371094 C 466.164062 315.242188 464.144531 305.886719 460.109375 298.304688 C 456.074219 290.726562 450.664062 286.855469 443.882812 286.695312 C 442.753906 286.695312 441.621094 286.933594 440.492188 287.417969 C 439.363281 287.902344 437.828125 288.789062 435.890625 290.082031 C 433.953125 291.371094 432.339844 293.789062 431.046875 297.339844 C 429.757812 300.886719 428.707031 305.160156 427.898438 310.160156 C 427.578125 313.386719 427.414062 318.789062 427.414062 326.371094 L 427.414062 331.453125 C 427.414062 346.128906 430.078125 356.128906 435.40625 361.453125 C 438.3125 364.355469 441.378906 365.804688 444.609375 365.804688 Z M 516.539062 423.628906 C 516.539062 409.433594 520.089844 397.824219 527.195312 388.789062 C 534.296875 379.757812 542.613281 375.160156 552.136719 375 C 560.535156 375 567.800781 379.433594 573.933594 388.304688 C 580.070312 397.175781 583.21875 408.953125 583.378906 423.628906 C 583.542969 438.304688 580.394531 450.082031 573.933594 458.953125 C 567.476562 467.824219 560.128906 472.339844 551.894531 472.5 C 542.855469 472.5 534.703125 467.984375 527.4375 458.953125 C 520.171875 449.917969 516.539062 438.144531 516.539062 423.628906 Z M 553.105469 463.304688 C 557.628906 463.304688 562.148438 459.917969 566.667969 453.144531 C 571.191406 446.371094 573.53125 436.53125 573.691406 423.628906 C 573.691406 412.5 571.675781 403.144531 567.636719 395.566406 C 563.601562 387.984375 558.191406 384.195312 551.410156 384.195312 C 550.28125 384.195312 549.152344 384.433594 548.019531 384.917969 C 546.890625 385.402344 545.355469 386.289062 543.417969 387.582031 C 541.480469 388.871094 539.867188 391.289062 538.578125 394.839844 C 537.285156 398.386719 536.234375 402.660156 535.429688 407.660156 C 535.265625 409.597656 535.1875 414.917969 535.1875 423.628906 L 535.1875 428.953125 C 535.1875 451.855469 540.835938 463.304688 552.136719 463.304688 Z M 553.105469 463.304688 " fill-opacity="1" fill-rule="nonzero"/></g></svg>