<svg xmlns="http://www.w3.org/2000/svg" xmlns:xlink="http://www.w3.org/1999/xlink" width="1000" zoomAndPan="magnify" viewBox="0 0 750 749.999995" height="1000" preserveAspectRatio="xMidYMid meet" version="1.0"><defs><clipPath id="9df048f2b6"><path d="M 147 132 L 630 132 L 630 628 L 147 628 Z M 147 132 " clip-rule="nonzero"/></clipPath><clipPath id="ddf98d45d6"><path d="M 379.871094 741.359375 L 8.640625 370.128906 L 370.328125 8.441406 L 741.558594 379.671875 Z M 379.871094 741.359375 " clip-rule="nonzero"/></clipPath><clipPath id="8f92829112"><path d="M 379.871094 741.359375 L 8.640625 370.128906 L 370.328125 8.441406 L 741.558594 379.671875 Z M 379.871094 741.359375 " clip-rule="nonzero"/></clipPath><clipPath id="92df6bdbd5"><path d="M 137 207 L 379 207 L 379 494 L 137 494 Z M 137 207 " clip-rule="nonzero"/></clipPath><clipPath id="2bcbcb805e"><path d="M 379.871094 741.359375 L 8.640625 370.128906 L 370.328125 8.441406 L 741.558594 379.671875 Z M 379.871094 741.359375 " clip-rule="nonzero"/></clipPath><clipPath id="9328d5a0f8"><path d="M 379.871094 741.359375 L 8.640625 370.128906 L 370.328125 8.441406 L 741.558594 379.671875 Z M 379.871094 741.359375 " clip-rule="nonzero"/></clipPath><clipPath id="64ded231da"><path d="M 162 375 L 387 375 L 387 497 L 162 497 Z M 162 375 " clip-rule="nonzero"/></clipPath><clipPath id="4858a830ab"><path d="M 379.871094 741.359375 L 8.640625 370.128906 L 370.328125 8.441406 L 741.558594 379.671875 Z M 379.871094 741.359375 " clip-rule="nonzero"/></clipPath><clipPath id="62a212fff9"><path d="M 379.871094 741.359375 L 8.640625 370.128906 L 370.328125 8.441406 L 741.558594 379.671875 Z M 379.871094 741.359375 " clip-rule="nonzero"/></clipPath><clipPath id="739420f68c"><path d="M 204 201 L 386 201 L 386 384 L 204 384 Z M 204 201 " clip-rule="nonzero"/></clipPath><clipPath id="92f21a9951"><path d="M 379.871094 741.359375 L 8.640625 370.128906 L 370.328125 8.441406 L 741.558594 379.671875 Z M 379.871094 741.359375 " clip-rule="nonzero"/></clipPath><clipPath id="c9531dda8b"><path d="M 379.871094 741.359375 L 8.640625 370.128906 L 370.328125 8.441406 L 741.558594 379.671875 Z M 379.871094 741.359375 " clip-rule="nonzero"/></clipPath><clipPath id="61209e9b73"><path d="M 379 156 L 500 156 L 500 383 L 379 383 Z M 379 156 " clip-rule="nonzero"/></clipPath><clipPath id="32a6c4bd9e"><path d="M 379.871094 741.359375 L 8.640625 370.128906 L 370.328125 8.441406 L 741.558594 379.671875 Z M 379.871094 741.359375 " clip-rule="nonzero"/></clipPath><clipPath id="ec319d984d"><path d="M 379.871094 741.359375 L 8.640625 370.128906 L 370.328125 8.441406 L 741.558594 379.671875 Z M 379.871094 741.359375 " clip-rule="nonzero"/></clipPath><clipPath id="2caf8e602c"><path d="M 379 374 L 630 374 L 630 423 L 379 423 Z M 379 374 " clip-rule="nonzero"/></clipPath><clipPath id="896a4b8455"><path d="M 379.871094 741.359375 L 8.640625 370.128906 L 370.328125 8.441406 L 741.558594 379.671875 Z M 379.871094 741.359375 " clip-rule="nonzero"/></clipPath><clipPath id="555aba2929"><path d="M 379.871094 741.359375 L 8.640625 370.128906 L 370.328125 8.441406 L 741.558594 379.671875 Z M 379.871094 741.359375 " clip-rule="nonzero"/></clipPath><clipPath id="9d68db916a"><path d="M 378 377 L 427 377 L 427 628 L 378 628 Z M 378 377 " clip-rule="nonzero"/></clipPath><clipPath id="f0dbbd7a47"><path d="M 379.871094 741.359375 L 8.640625 370.128906 L 370.328125 8.441406 L 741.558594 379.671875 Z M 379.871094 741.359375 " clip-rule="nonzero"/></clipPath><clipPath id="d0dec47787"><path d="M 379.871094 741.359375 L 8.640625 370.128906 L 370.328125 8.441406 L 741.558594 379.671875 Z M 379.871094 741.359375 " clip-rule="nonzero"/></clipPath><clipPath id="f9ef6968c3"><path d="M 130 127 L 637 127 L 637 633 L 130 633 Z M 130 127 " clip-rule="nonzero"/></clipPath><clipPath id="f270c272ab"><path d="M 379.871094 741.359375 L 8.640625 370.128906 L 370.328125 8.441406 L 741.558594 379.671875 Z M 379.871094 741.359375 " clip-rule="nonzero"/></clipPath><clipPath id="a0af8f73a9"><path d="M 379.871094 741.359375 L 8.640625 370.128906 L 370.328125 8.441406 L 741.558594 379.671875 Z M 379.871094 741.359375 " clip-rule="nonzero"/></clipPath><clipPath id="dd5e394ae0"><path d="M 191 311 L 287 311 L 287 406 L 191 406 Z M 191 311 " clip-rule="nonzero"/></clipPath><clipPath id="93f2c246df"><path d="M 379.871094 741.359375 L 8.640625 370.128906 L 370.328125 8.441406 L 741.558594 379.671875 Z M 379.871094 741.359375 " clip-rule="nonzero"/></clipPath><clipPath id="a9d7315ed2"><path d="M 379.871094 741.359375 L 8.640625 370.128906 L 370.328125 8.441406 L 741.558594 379.671875 Z M 379.871094 741.359375 " clip-rule="nonzero"/></clipPath><clipPath id="c1b8c163ea"><path d="M 212 335 L 264 335 L 264 385 L 212 385 Z M 212 335 " clip-rule="nonzero"/></clipPath><clipPath id="3fe2b5a377"><path d="M 379.871094 741.359375 L 8.640625 370.128906 L 370.328125 8.441406 L 741.558594 379.671875 Z M 379.871094 741.359375 " clip-rule="nonzero"/></clipPath><clipPath id="1289766b29"><path d="M 379.871094 741.359375 L 8.640625 370.128906 L 370.328125 8.441406 L 741.558594 379.671875 Z M 379.871094 741.359375 " clip-rule="nonzero"/></clipPath></defs><rect x="-75" width="900" fill="#ffffff" y="-74.999999" height="899.999994" fill-opacity="1"/><rect x="-75" width="900" fill="#ffffff" y="-74.999999" height="899.999994" fill-opacity="1"/><g clip-path="url(#9df048f2b6)"><g clip-path="url(#ddf98d45d6)"><g clip-path="url(#8f92829112)"><path fill="#fefefe" d="M 267.425781 160.453125 L 331.445312 136.664062 C 454.039062 110.601562 555.953125 202.9375 555.953125 202.9375 C 687.710938 345.328125 613.21875 501.636719 557.101562 558.828125 C 499.070312 617.960938 344 680.535156 205.707031 554.730469 C 67.417969 428.925781 220.167969 196.332031 220.167969 196.332031 Z M 267.425781 160.453125 " fill-opacity="1" fill-rule="nonzero"/></g></g></g><g clip-path="url(#92df6bdbd5)"><g clip-path="url(#2bcbcb805e)"><g clip-path="url(#9328d5a0f8)"><path fill="#6d5764" d="M 378.671875 380.132812 C 281.011719 278.1875 220.535156 204.535156 207.15625 207.335938 C 162.058594 216.785156 103.214844 401.816406 163.023438 493.679688 Z M 378.671875 380.132812 " fill-opacity="1" fill-rule="nonzero"/></g></g></g><g clip-path="url(#64ded231da)"><g clip-path="url(#4858a830ab)"><g clip-path="url(#62a212fff9)"><path fill="#00010d" d="M 383.765625 384.925781 L 169.34375 495.832031 C 166.988281 497.050781 164.085938 496.128906 162.867188 493.773438 C 161.648438 491.414062 162.570312 488.515625 164.929688 487.296875 L 379.351562 376.386719 C 381.707031 375.167969 384.609375 376.089844 385.828125 378.449219 C 387.046875 380.804688 386.125 383.703125 383.765625 384.925781 Z M 383.765625 384.925781 " fill-opacity="1" fill-rule="nonzero"/></g></g></g><g clip-path="url(#739420f68c)"><g clip-path="url(#92f21a9951)"><g clip-path="url(#c9531dda8b)"><path fill="#00010d" d="M 377.007812 382.054688 L 206.09375 209.929688 C 204.222656 208.046875 204.234375 205.003906 206.117188 203.132812 C 208 201.265625 211.042969 201.273438 212.914062 203.160156 L 383.828125 375.28125 C 385.699219 377.164062 385.6875 380.207031 383.804688 382.078125 C 381.921875 383.949219 378.878906 383.9375 377.007812 382.054688 Z M 377.007812 382.054688 " fill-opacity="1" fill-rule="nonzero"/></g></g></g><g clip-path="url(#61209e9b73)"><g clip-path="url(#32a6c4bd9e)"><g clip-path="url(#ec319d984d)"><path fill="#00010d" d="M 379.65625 375.824219 L 490.664062 159.523438 C 491.878906 157.164062 494.773438 156.230469 497.136719 157.445312 C 499.496094 158.65625 500.429688 161.554688 499.21875 163.914062 L 388.207031 380.210938 C 386.996094 382.574219 384.101562 383.507812 381.738281 382.292969 C 379.375 381.082031 378.445312 378.183594 379.65625 375.824219 Z M 379.65625 375.824219 " fill-opacity="1" fill-rule="nonzero"/></g></g></g><g clip-path="url(#2caf8e602c)"><g clip-path="url(#896a4b8455)"><g clip-path="url(#555aba2929)"><path fill="#00010d" d="M 623.453125 422.820312 L 383.640625 384.03125 C 381.019531 383.605469 379.238281 381.140625 379.664062 378.519531 C 380.085938 375.898438 382.554688 374.117188 385.175781 374.542969 L 624.988281 413.332031 C 627.609375 413.757812 629.390625 416.222656 628.964844 418.84375 C 628.542969 421.464844 626.074219 423.246094 623.453125 422.820312 Z M 623.453125 422.820312 " fill-opacity="1" fill-rule="nonzero"/></g></g></g><g clip-path="url(#9d68db916a)"><g clip-path="url(#f0dbbd7a47)"><g clip-path="url(#d0dec47787)"><path fill="#00010d" d="M 416.691406 623.457031 L 378.917969 382.601562 C 378.507812 379.980469 380.300781 377.519531 382.921875 377.109375 C 385.542969 376.699219 388.003906 378.492188 388.414062 381.113281 L 426.1875 621.96875 C 426.597656 624.589844 424.804688 627.050781 422.183594 627.460938 C 419.5625 627.871094 417.101562 626.078125 416.691406 623.457031 Z M 416.691406 623.457031 " fill-opacity="1" fill-rule="nonzero"/></g></g></g><g clip-path="url(#f9ef6968c3)"><g clip-path="url(#f270c272ab)"><g clip-path="url(#a0af8f73a9)"><path fill="#00010d" d="M 204.984375 201.082031 C 303.71875 102.347656 463.800781 102.347656 562.535156 201.082031 C 661.269531 299.816406 661.269531 459.898438 562.535156 558.632812 C 463.800781 657.367188 303.71875 657.367188 204.984375 558.632812 C 106.25 459.898438 106.25 299.816406 204.984375 201.082031 M 212.875 208.972656 C 118.5 303.351562 118.5 456.367188 212.875 550.742188 C 307.253906 645.121094 460.269531 645.121094 554.644531 550.742188 C 649.023438 456.367188 649.023438 303.351562 554.644531 208.972656 C 460.269531 114.597656 307.253906 114.597656 212.875 208.972656 Z M 212.875 208.972656 " fill-opacity="1" fill-rule="nonzero"/></g></g></g><g clip-path="url(#dd5e394ae0)"><g clip-path="url(#93f2c246df)"><g clip-path="url(#a9d7315ed2)"><path fill="#6d5764" d="M 208.894531 398.835938 C 208.878906 398.488281 208.714844 398.125 208.398438 397.746094 C 208.167969 397.480469 207.851562 397.132812 207.457031 396.703125 L 207.433594 396.730469 C 207.398438 396.792969 207.347656 396.910156 207.28125 397.074219 C 207.496094 397.292969 207.679688 397.488281 207.828125 397.671875 C 208.257812 398.101562 208.613281 398.488281 208.894531 398.835938 Z M 193.582031 403.234375 C 194.511719 404.167969 195.605469 404.476562 196.863281 404.171875 C 198.863281 403.691406 201.054688 404.03125 203.4375 405.1875 C 203.535156 405.222656 203.703125 405.304688 203.933594 405.4375 C 204.148438 405.550781 204.3125 405.636719 204.429688 405.683594 C 205.242188 406.066406 205.953125 405.980469 206.5625 405.4375 C 207.488281 404.609375 208.226562 403.890625 208.769531 403.277344 C 209.417969 402.535156 209.433594 401.773438 208.820312 400.996094 C 208.574219 400.714844 208.257812 400.367188 207.878906 399.953125 C 207.367188 399.40625 207.035156 399.0625 206.886719 398.910156 C 206.207031 398.132812 206.140625 397.273438 206.6875 396.332031 C 207.066406 395.6875 207.863281 394.761719 209.070312 393.554688 C 210.789062 391.832031 214.121094 388.5 219.066406 383.554688 C 223.234375 379.386719 226.550781 376.054688 229.015625 373.558594 C 229.777344 372.796875 230.421875 372.101562 230.949219 371.472656 C 231.445312 370.878906 231.453125 370.273438 230.976562 369.664062 C 230.511719 369.101562 229.949219 368.472656 229.289062 367.777344 C 227.898438 366.386719 226.957031 365.695312 226.460938 365.695312 C 225.964844 365.660156 225.039062 366.320312 223.679688 367.679688 C 222.011719 369.347656 217.015625 374.34375 208.695312 382.664062 C 199.632812 391.726562 194.449219 396.910156 193.140625 398.21875 C 192.117188 399.277344 191.605469 400.054688 191.605469 400.550781 C 191.605469 401.015625 192.0625 401.703125 192.976562 402.621094 C 193.039062 402.683594 193.101562 402.742188 193.167969 402.808594 L 193.367188 403.003906 C 193.4375 403.085938 193.507812 403.164062 193.582031 403.234375 Z M 191.332031 397.84375 C 191.597656 397.382812 192.058594 396.820312 192.71875 396.15625 C 195.050781 393.792969 198.796875 390.03125 203.957031 384.871094 L 212.019531 376.855469 C 216.683594 372.160156 220.429688 368.414062 223.257812 365.617188 C 224.648438 364.230469 225.625 363.519531 226.1875 363.484375 C 226.832031 363.4375 227.792969 364.046875 229.066406 365.320312 L 229.4375 365.695312 C 230 366.253906 230.484375 366.792969 230.898438 367.304688 L 230.902344 367.304688 C 230.898438 366.976562 230.792969 366.6875 230.578125 366.4375 C 230.132812 365.859375 229.5625 365.222656 228.867188 364.527344 C 227.476562 363.136719 226.542969 362.433594 226.0625 362.417969 C 225.566406 362.417969 224.640625 363.097656 223.285156 364.453125 L 208.324219 379.414062 C 199.328125 388.410156 194.132812 393.601562 192.746094 394.992188 C 191.523438 396.214844 191.050781 397.164062 191.328125 397.839844 Z M 238.964844 343.710938 C 239.097656 343.480469 239.226562 343.300781 239.359375 343.167969 C 240.519531 341.910156 241.71875 340.710938 242.957031 339.570312 C 243.851562 338.742188 244.792969 338.742188 245.785156 339.570312 C 246.148438 339.867188 246.671875 340.355469 247.347656 341.035156 L 250.472656 344.160156 C 251.484375 345.167969 252.351562 346.019531 253.078125 346.714844 C 253.640625 347.246094 254.105469 347.523438 254.46875 347.558594 C 254.847656 347.574219 255.371094 347.351562 256.03125 346.886719 C 256.875 346.277344 257.542969 345.640625 258.039062 344.976562 C 257.875 344.847656 257.675781 344.695312 257.445312 344.53125 C 257.03125 344.976562 256.550781 345.390625 256.007812 345.773438 C 255.261719 346.285156 254.660156 346.523438 254.195312 346.492188 C 253.714844 346.476562 253.152344 346.160156 252.507812 345.550781 C 252.542969 345.582031 250.738281 343.796875 247.101562 340.191406 C 246.191406 339.28125 245.578125 338.703125 245.265625 338.453125 C 244.453125 337.777344 243.691406 337.757812 242.980469 338.402344 C 241.742188 339.546875 240.542969 340.746094 239.386719 342 C 238.855469 342.5625 238.714844 343.132812 238.960938 343.710938 Z M 262.605469 336.296875 C 263.265625 336.957031 264.003906 337.148438 264.8125 336.867188 C 265.160156 336.75 265.671875 336.535156 266.351562 336.222656 C 266.683594 336.089844 266.9375 335.980469 267.121094 335.898438 C 268.113281 335.46875 268.964844 335.59375 269.675781 336.269531 C 270.289062 336.847656 270.832031 337.378906 271.3125 337.859375 C 271.859375 338.402344 272.394531 338.972656 272.925781 339.566406 L 272.925781 339.570312 C 272.925781 339.207031 272.777344 338.859375 272.480469 338.527344 C 271.984375 337.972656 271.382812 337.34375 270.679688 336.636719 C 270.207031 336.167969 269.691406 335.664062 269.128906 335.128906 C 268.535156 334.566406 267.832031 334.460938 267.023438 334.808594 C 265.53125 335.46875 264.765625 335.808594 264.714844 335.824219 C 263.902344 336.105469 263.160156 336.007812 262.480469 335.527344 L 262.507812 335.550781 L 262.480469 335.574219 C 262.449219 335.707031 262.414062 335.875 262.382812 336.070312 Z M 275.433594 328.726562 C 275.53125 328.527344 275.6875 328.289062 275.902344 328.007812 C 276.101562 327.710938 276.234375 327.496094 276.300781 327.363281 C 276.367188 327.230469 276.441406 327.074219 276.523438 326.894531 C 276.488281 326.628906 276.441406 326.398438 276.375 326.199219 C 275.664062 327.472656 275.316406 328.183594 275.332031 328.332031 C 275.347656 328.480469 275.382812 328.609375 275.429688 328.726562 Z M 248.398438 356.296875 C 250.394531 358.292969 251.738281 359.632812 252.433594 360.308594 C 253.328125 361.203125 254.003906 361.648438 254.46875 361.648438 C 254.949219 361.632812 255.652344 361.160156 256.578125 360.234375 C 256.972656 359.871094 259.511719 357.347656 264.195312 352.667969 C 268.378906 348.484375 270.769531 346.09375 271.363281 345.5 C 272.058594 344.804688 272.5625 344.25 272.875 343.835938 C 273.457031 343.09375 273.457031 342.398438 272.875 341.753906 C 272.3125 341.148438 271.628906 340.441406 270.824219 339.636719 C 270.421875 339.234375 269.992188 338.804688 269.527344 338.355469 C 268.933594 337.792969 268.230469 337.703125 267.417969 338.082031 C 265.929688 338.710938 265.152344 339.039062 265.085938 339.074219 C 264.09375 339.40625 263.195312 339.171875 262.398438 338.375 C 262.359375 338.335938 262.320312 338.296875 262.28125 338.253906 C 261.570312 337.445312 261.363281 336.476562 261.664062 335.351562 C 261.878906 334.542969 262.375 333.75 263.152344 332.972656 C 265.582031 330.507812 268.039062 328.050781 270.519531 325.601562 C 270.867188 325.253906 271.222656 324.949219 271.585938 324.683594 C 272.378906 324.15625 273.222656 323.890625 274.117188 323.890625 C 274.992188 323.875 275.730469 324.132812 276.324219 324.660156 C 276.394531 324.71875 276.457031 324.777344 276.519531 324.839844 C 276.996094 325.316406 277.277344 325.933594 277.367188 326.695312 C 277.449219 327.570312 277.265625 328.449219 276.820312 329.324219 C 276.09375 330.8125 275.730469 331.558594 275.730469 331.558594 C 275.773438 331.941406 275.949219 332.285156 276.257812 332.597656 C 276.308594 332.648438 276.363281 332.699219 276.425781 332.746094 C 277.253906 333.386719 277.636719 333.667969 277.574219 333.601562 C 277.714844 333.75 277.859375 333.894531 277.996094 334.03125 C 278.566406 334.601562 279.109375 335.089844 279.625 335.5 C 280.285156 336.0625 280.855469 336.335938 281.335938 336.320312 C 281.832031 336.289062 282.394531 335.957031 283.023438 335.328125 C 283.949219 334.402344 284.675781 333.308594 285.207031 332.054688 C 286.808594 328.265625 286.769531 324.816406 285.082031 321.707031 C 284.453125 320.554688 283.703125 319.542969 282.828125 318.667969 C 281.609375 317.449219 280.152344 316.503906 278.457031 315.828125 C 277.234375 315.332031 275.953125 315.074219 274.613281 315.058594 C 271.058594 315.007812 267.996094 316.234375 265.433594 318.730469 C 263.101562 320.964844 260.316406 323.75 257.074219 327.089844 C 255.503906 328.695312 254.285156 330.472656 253.425781 332.425781 C 252.070312 335.46875 252.460938 338.289062 254.59375 340.886719 C 254.894531 341.242188 255.207031 341.582031 255.519531 341.898438 C 256.152344 342.527344 256.8125 343.078125 257.496094 343.539062 C 258.105469 343.953125 258.488281 344.234375 258.636719 344.382812 C 258.671875 344.414062 258.703125 344.445312 258.734375 344.476562 C 259.304688 345.046875 259.375 345.695312 258.933594 346.417969 C 258.386719 347.328125 257.542969 348.1875 256.402344 348.996094 C 255.660156 349.511719 255.046875 349.757812 254.566406 349.742188 C 254.105469 349.707031 253.550781 349.386719 252.90625 348.773438 C 252.9375 348.808594 251.128906 347.027344 247.472656 343.441406 C 246.578125 342.546875 245.976562 341.960938 245.660156 341.679688 C 244.851562 341 244.089844 340.984375 243.378906 341.628906 C 242.121094 342.785156 240.921875 343.984375 239.78125 345.226562 C 239.121094 345.953125 239.085938 346.714844 239.683594 347.507812 C 239.882812 347.742188 240.136719 348.011719 240.453125 348.328125 C 243.75 351.644531 246.398438 354.300781 248.398438 356.296875 Z M 252.261719 332.535156 C 252.394531 331.8125 252.609375 331.121094 252.90625 330.464844 C 253.78125 328.464844 255.023438 326.644531 256.625 325.007812 C 259.886719 321.683594 262.679688 318.886719 265.011719 316.621094 C 267.660156 314.074219 270.816406 312.816406 274.488281 312.851562 C 275.863281 312.867188 277.203125 313.132812 278.507812 313.644531 C 280.226562 314.339844 281.726562 315.324219 283 316.597656 C 283.789062 317.390625 284.484375 318.3125 285.078125 319.367188 L 285.078125 319.371094 C 284.914062 318.945312 284.785156 318.648438 284.683594 318.484375 C 284.042969 317.308594 283.28125 316.28125 282.394531 315.398438 C 281.183594 314.1875 279.75 313.246094 278.085938 312.578125 C 276.828125 312.082031 275.546875 311.824219 274.242188 311.808594 C 270.667969 311.777344 267.601562 312.992188 265.035156 315.457031 C 262.703125 317.722656 259.910156 320.515625 256.652344 323.839844 C 255.097656 325.429688 253.890625 327.214844 253.03125 329.199219 C 252.535156 330.320312 252.28125 331.429688 252.261719 332.535156 Z M 252.261719 332.535156 " fill-opacity="1" fill-rule="nonzero"/></g></g></g><g clip-path="url(#c1b8c163ea)"><g clip-path="url(#3fe2b5a377)"><g clip-path="url(#1289766b29)"><path fill="#6d5764" d="M 253.941406 383.207031 C 254.8125 384.015625 255.511719 384.296875 256.03125 384.046875 C 255.746094 383.894531 255.394531 383.625 254.976562 383.234375 C 254.859375 383.117188 254.675781 382.933594 254.425781 382.679688 L 244.5 372.671875 C 231.417969 359.480469 221.613281 349.589844 215.082031 343.003906 C 213.824219 341.738281 213.199219 340.820312 213.199219 340.246094 C 213.21875 339.65625 213.878906 338.71875 215.179688 337.429688 L 215.433594 337.179688 C 215.992188 336.625 216.480469 336.171875 216.902344 335.820312 C 216.601562 335.820312 216.289062 335.945312 215.96875 336.195312 C 215.527344 336.566406 214.914062 337.140625 214.117188 337.929688 C 212.902344 339.136719 212.292969 339.972656 212.292969 340.445312 C 212.273438 340.933594 212.847656 341.765625 214.023438 342.949219 C 217.757812 346.714844 230.828125 359.898438 253.238281 382.496094 C 253.609375 382.867188 253.84375 383.105469 253.941406 383.207031 Z M 256.820312 382.863281 C 257.523438 383.507812 258.0625 383.828125 258.429688 383.832031 C 258.816406 383.847656 259.347656 383.558594 260.023438 382.953125 C 260.191406 382.785156 260.605469 382.375 261.265625 381.722656 C 262.515625 380.484375 263.148438 379.652344 263.167969 379.234375 C 263.167969 378.796875 262.566406 377.96875 261.363281 376.753906 L 222.519531 337.585938 C 222.449219 337.511719 222.375 337.4375 222.304688 337.367188 C 221.621094 336.683594 221.082031 336.175781 220.6875 335.835938 C 220.082031 335.363281 219.476562 335.378906 218.871094 335.878906 C 218.414062 336.230469 217.796875 336.792969 217.019531 337.5625 C 215.820312 338.785156 215.214844 339.640625 215.195312 340.128906 C 215.175781 340.617188 215.753906 341.453125 216.925781 342.632812 C 221.277344 347.023438 234.34375 360.199219 256.117188 382.15625 C 256.484375 382.527344 256.71875 382.765625 256.820312 382.863281 Z M 256.820312 382.863281 " fill-opacity="1" fill-rule="nonzero"/></g></g></g></svg>