<svg xmlns="http://www.w3.org/2000/svg" xmlns:xlink="http://www.w3.org/1999/xlink" width="1000" zoomAndPan="magnify" viewBox="0 0 750 749.999995" height="1000" preserveAspectRatio="xMidYMid meet" version="1.0"><defs><clipPath id="92921c900a"><path d="M 124 117 L 621 117 L 621 615 L 124 615 Z M 124 117 " clip-rule="nonzero"/></clipPath><clipPath id="d92b8c8e62"><path d="M 559.152344 58.25 L 686.738281 567.511719 L 190.574219 691.816406 L 62.988281 182.558594 Z M 559.152344 58.25 " clip-rule="nonzero"/></clipPath><clipPath id="c291f5b672"><path d="M 559.152344 58.25 L 686.738281 567.511719 L 190.574219 691.816406 L 62.988281 182.558594 Z M 559.152344 58.25 " clip-rule="nonzero"/></clipPath><clipPath id="ffb13448ca"><path d="M 374 368 L 618 368 L 618 607 L 374 607 Z M 374 368 " clip-rule="nonzero"/></clipPath><clipPath id="359fd9f564"><path d="M 559.152344 58.25 L 686.738281 567.511719 L 190.574219 691.816406 L 62.988281 182.558594 Z M 559.152344 58.25 " clip-rule="nonzero"/></clipPath><clipPath id="9a2e2ecc4a"><path d="M 559.152344 58.25 L 686.738281 567.511719 L 190.574219 691.816406 L 62.988281 182.558594 Z M 559.152344 58.25 " clip-rule="nonzero"/></clipPath><clipPath id="35a5f98f82"><path d="M 367 361 L 619 361 L 619 387 L 367 387 Z M 367 361 " clip-rule="nonzero"/></clipPath><clipPath id="fc73c1cf1e"><path d="M 559.152344 58.25 L 686.738281 567.511719 L 190.574219 691.816406 L 62.988281 182.558594 Z M 559.152344 58.25 " clip-rule="nonzero"/></clipPath><clipPath id="d708a13f5e"><path d="M 559.152344 58.25 L 686.738281 567.511719 L 190.574219 691.816406 L 62.988281 182.558594 Z M 559.152344 58.25 " clip-rule="nonzero"/></clipPath><clipPath id="36db66c175"><path d="M 367 364 L 436 364 L 436 610 L 367 610 Z M 367 364 " clip-rule="nonzero"/></clipPath><clipPath id="6ac372c73b"><path d="M 559.152344 58.25 L 686.738281 567.511719 L 190.574219 691.816406 L 62.988281 182.558594 Z M 559.152344 58.25 " clip-rule="nonzero"/></clipPath><clipPath id="cf9746828e"><path d="M 559.152344 58.25 L 686.738281 567.511719 L 190.574219 691.816406 L 62.988281 182.558594 Z M 559.152344 58.25 " clip-rule="nonzero"/></clipPath><clipPath id="0ac4bfff10"><path d="M 157 363 L 374 363 L 374 502 L 157 502 Z M 157 363 " clip-rule="nonzero"/></clipPath><clipPath id="50605c4a2e"><path d="M 559.152344 58.25 L 686.738281 567.511719 L 190.574219 691.816406 L 62.988281 182.558594 Z M 559.152344 58.25 " clip-rule="nonzero"/></clipPath><clipPath id="624579469f"><path d="M 559.152344 58.25 L 686.738281 567.511719 L 190.574219 691.816406 L 62.988281 182.558594 Z M 559.152344 58.25 " clip-rule="nonzero"/></clipPath><clipPath id="26437e267c"><path d="M 178 205 L 374 205 L 374 372 L 178 372 Z M 178 205 " clip-rule="nonzero"/></clipPath><clipPath id="cd77937794"><path d="M 559.152344 58.25 L 686.738281 567.511719 L 190.574219 691.816406 L 62.988281 182.558594 Z M 559.152344 58.25 " clip-rule="nonzero"/></clipPath><clipPath id="915c853a26"><path d="M 559.152344 58.25 L 686.738281 567.511719 L 190.574219 691.816406 L 62.988281 182.558594 Z M 559.152344 58.25 " clip-rule="nonzero"/></clipPath><clipPath id="2eec8c2e69"><path d="M 366 133 L 468 133 L 468 370 L 366 370 Z M 366 133 " clip-rule="nonzero"/></clipPath><clipPath id="87f5f7a772"><path d="M 559.152344 58.25 L 686.738281 567.511719 L 190.574219 691.816406 L 62.988281 182.558594 Z M 559.152344 58.25 " clip-rule="nonzero"/></clipPath><clipPath id="fa448b6936"><path d="M 559.152344 58.25 L 686.738281 567.511719 L 190.574219 691.816406 L 62.988281 182.558594 Z M 559.152344 58.25 " clip-rule="nonzero"/></clipPath><clipPath id="1ea3f31a73"><path d="M 117 113 L 623 113 L 623 620 L 117 620 Z M 117 113 " clip-rule="nonzero"/></clipPath><clipPath id="b943c997db"><path d="M 559.152344 58.25 L 686.738281 567.511719 L 190.574219 691.816406 L 62.988281 182.558594 Z M 559.152344 58.25 " clip-rule="nonzero"/></clipPath><clipPath id="2bc7f276aa"><path d="M 559.152344 58.25 L 686.738281 567.511719 L 190.574219 691.816406 L 62.988281 182.558594 Z M 559.152344 58.25 " clip-rule="nonzero"/></clipPath><clipPath id="3d132de7ac"><path d="M 423 435 L 546 435 L 546 483 L 423 483 Z M 423 435 " clip-rule="nonzero"/></clipPath><clipPath id="c6cfaf9f93"><path d="M 559.152344 58.25 L 686.738281 567.511719 L 190.574219 691.816406 L 62.988281 182.558594 Z M 559.152344 58.25 " clip-rule="nonzero"/></clipPath><clipPath id="f092f4194c"><path d="M 559.152344 58.25 L 686.738281 567.511719 L 190.574219 691.816406 L 62.988281 182.558594 Z M 559.152344 58.25 " clip-rule="nonzero"/></clipPath><clipPath id="be99c2380d"><path d="M 472 427 L 497 427 L 497 491 L 472 491 Z M 472 427 " clip-rule="nonzero"/></clipPath><clipPath id="8c8cd71687"><path d="M 559.152344 58.25 L 686.738281 567.511719 L 190.574219 691.816406 L 62.988281 182.558594 Z M 559.152344 58.25 " clip-rule="nonzero"/></clipPath><clipPath id="faf02252f2"><path d="M 559.152344 58.25 L 686.738281 567.511719 L 190.574219 691.816406 L 62.988281 182.558594 Z M 559.152344 58.25 " clip-rule="nonzero"/></clipPath></defs><rect x="-75" width="900" fill="#ffffff" y="-74.999999" height="899.999994" fill-opacity="1"/><rect x="-75" width="900" fill="#ffffff" y="-74.999999" height="899.999994" fill-opacity="1"/><g clip-path="url(#92921c900a)"><g clip-path="url(#d92b8c8e62)"><g clip-path="url(#c291f5b672)"><path fill="#fefefe" d="M 356.980469 614.328125 L 289.839844 601.824219 C 171.289062 561.15625 131.335938 429.566406 131.335938 429.566406 C 91.519531 239.695312 235.769531 143.917969 313.300781 123.710938 C 393.476562 102.816406 558.652344 128.863281 612.601562 307.863281 C 666.550781 486.863281 415.960938 607.84375 415.960938 607.84375 Z M 356.980469 614.328125 " fill-opacity="1" fill-rule="nonzero"/></g></g></g><g clip-path="url(#ffb13448ca)"><g clip-path="url(#359fd9f564)"><g clip-path="url(#9a2e2ecc4a)"><path fill="#6d5764" d="M 374.488281 368.710938 C 405.851562 506.359375 419.863281 600.621094 432.777344 605.09375 C 476.316406 620.171875 621.910156 491.710938 617.832031 382.171875 Z M 374.488281 368.710938 " fill-opacity="1" fill-rule="nonzero"/></g></g></g><g clip-path="url(#35a5f98f82)"><g clip-path="url(#fc73c1cf1e)"><g clip-path="url(#d708a13f5e)"><path fill="#00010d" d="M 372.582031 361.980469 L 613.515625 377.074219 C 616.167969 377.242188 618.179688 379.523438 618.011719 382.171875 C 617.847656 384.824219 615.566406 386.835938 612.917969 386.667969 L 371.980469 371.574219 C 369.332031 371.40625 367.320312 369.125 367.484375 366.476562 C 367.652344 363.828125 369.933594 361.816406 372.582031 361.980469 Z M 372.582031 361.980469 " fill-opacity="1" fill-rule="nonzero"/></g></g></g><g clip-path="url(#36db66c175)"><g clip-path="url(#6ac372c73b)"><g clip-path="url(#cf9746828e)"><path fill="#00010d" d="M 376.902344 367.914062 L 435.023438 603.417969 C 435.660156 605.992188 434.085938 608.597656 431.507812 609.234375 C 428.929688 609.871094 426.328125 608.296875 425.691406 605.71875 L 367.570312 370.21875 C 366.9375 367.640625 368.507812 365.039062 371.085938 364.402344 C 373.664062 363.765625 376.269531 365.339844 376.902344 367.914062 Z M 376.902344 367.914062 " fill-opacity="1" fill-rule="nonzero"/></g></g></g><g clip-path="url(#0ac4bfff10)"><g clip-path="url(#50605c4a2e)"><g clip-path="url(#624579469f)"><path fill="#00010d" d="M 371.429688 371.898438 L 165.019531 500.363281 C 162.765625 501.765625 159.804688 501.078125 158.398438 498.824219 C 156.996094 496.570312 157.6875 493.605469 159.941406 492.203125 L 366.351562 363.738281 C 368.605469 362.335938 371.566406 363.027344 372.96875 365.28125 C 374.371094 367.53125 373.683594 370.496094 371.429688 371.898438 Z M 371.429688 371.898438 " fill-opacity="1" fill-rule="nonzero"/></g></g></g><g clip-path="url(#26437e267c)"><g clip-path="url(#cd77937794)"><g clip-path="url(#915c853a26)"><path fill="#00010d" d="M 186.472656 206.261719 L 372.230469 362.8125 C 374.261719 364.523438 374.519531 367.554688 372.808594 369.585938 C 371.097656 371.613281 368.066406 371.871094 366.035156 370.160156 L 180.277344 213.609375 C 178.246094 211.898438 177.988281 208.867188 179.699219 206.835938 C 181.410156 204.808594 184.441406 204.550781 186.472656 206.261719 Z M 186.472656 206.261719 " fill-opacity="1" fill-rule="nonzero"/></g></g></g><g clip-path="url(#2eec8c2e69)"><g clip-path="url(#87f5f7a772)"><g clip-path="url(#fa448b6936)"><path fill="#00010d" d="M 466.960938 140.453125 L 375.546875 366.464844 C 374.550781 368.925781 371.75 370.113281 369.289062 369.117188 C 366.828125 368.121094 365.640625 365.320312 366.636719 362.859375 L 458.050781 136.851562 C 459.046875 134.390625 461.847656 133.203125 464.308594 134.195312 C 466.769531 135.191406 467.957031 137.992188 466.960938 140.453125 Z M 466.960938 140.453125 " fill-opacity="1" fill-rule="nonzero"/></g></g></g><g clip-path="url(#1ea3f31a73)"><g clip-path="url(#b943c997db)"><g clip-path="url(#2bc7f276aa)"><path fill="#00010d" d="M 431.425781 611.574219 C 295.980469 645.507812 158.671875 563.21875 124.738281 427.773438 C 90.804688 292.328125 173.097656 155.019531 308.539062 121.085938 C 443.984375 87.152344 581.292969 169.441406 615.226562 304.886719 C 649.160156 440.332031 566.871094 577.640625 431.425781 611.574219 M 428.714844 600.753906 C 558.179688 568.316406 636.839844 437.066406 604.40625 307.597656 C 571.96875 178.132812 440.71875 99.472656 311.253906 131.90625 C 181.785156 164.34375 103.125 295.59375 135.5625 425.058594 C 167.996094 554.527344 299.246094 633.1875 428.714844 600.753906 Z M 428.714844 600.753906 " fill-opacity="1" fill-rule="nonzero"/></g></g></g><g clip-path="url(#3d132de7ac)"><g clip-path="url(#c6cfaf9f93)"><g clip-path="url(#f092f4194c)"><path fill="#6d5764" d="M 529.730469 439.941406 C 529.566406 440.25 529.519531 440.644531 529.59375 441.132812 C 529.65625 441.480469 529.75 441.9375 529.867188 442.511719 L 529.902344 442.503906 C 529.964844 442.464844 530.066406 442.390625 530.207031 442.28125 C 530.132812 441.988281 530.082031 441.722656 530.046875 441.492188 C 529.898438 440.902344 529.792969 440.386719 529.730469 439.945312 Z M 545.128906 444.042969 C 544.808594 442.765625 544.027344 441.9375 542.792969 441.550781 C 540.828125 440.933594 539.125 439.515625 537.675781 437.300781 C 537.609375 437.222656 537.507812 437.066406 537.378906 436.832031 C 537.253906 436.621094 537.15625 436.464844 537.082031 436.363281 C 536.582031 435.621094 535.929688 435.328125 535.125 435.480469 C 533.902344 435.714844 532.902344 435.953125 532.121094 436.195312 C 531.183594 436.503906 530.777344 437.148438 530.902344 438.128906 C 530.972656 438.496094 531.0625 438.957031 531.175781 439.507812 C 531.335938 440.238281 531.441406 440.707031 531.492188 440.910156 C 531.675781 441.925781 531.289062 442.699219 530.335938 443.226562 C 529.679688 443.582031 528.519531 443.96875 526.863281 444.386719 C 524.503906 444.976562 519.933594 446.121094 513.148438 447.820312 C 507.433594 449.253906 502.875 450.40625 499.476562 451.28125 C 498.433594 451.542969 497.523438 451.808594 496.746094 452.074219 C 496.015625 452.332031 495.695312 452.84375 495.792969 453.617188 C 495.902344 454.335938 496.0625 455.164062 496.273438 456.101562 C 496.75 458.007812 497.199219 459.085938 497.625 459.34375 C 498.035156 459.625 499.167969 459.535156 501.03125 459.066406 C 503.320312 458.492188 510.171875 456.777344 521.585938 453.917969 C 534.019531 450.804688 541.132812 449.019531 542.925781 448.570312 C 544.347656 448.191406 545.1875 447.789062 545.441406 447.363281 C 545.679688 446.964844 545.644531 446.136719 545.328125 444.878906 C 545.308594 444.796875 545.285156 444.710938 545.261719 444.621094 L 545.195312 444.351562 C 545.175781 444.246094 545.152344 444.140625 545.128906 444.042969 Z M 544.285156 449.824219 C 543.820312 450.085938 543.132812 450.328125 542.226562 450.554688 C 539.011719 451.386719 533.863281 452.6875 526.785156 454.460938 L 515.75 457.1875 C 509.335938 458.820312 504.195312 460.109375 500.332031 461.050781 C 498.425781 461.527344 497.226562 461.636719 496.726562 461.375 C 496.148438 461.085938 495.636719 460.070312 495.199219 458.320312 L 495.074219 457.8125 C 494.878906 457.042969 494.738281 456.332031 494.648438 455.679688 L 494.644531 455.675781 C 494.476562 455.960938 494.417969 456.261719 494.476562 456.585938 C 494.5625 457.3125 494.722656 458.152344 494.960938 459.105469 C 495.441406 461.011719 495.878906 462.09375 496.285156 462.355469 C 496.710938 462.609375 497.851562 462.503906 499.710938 462.039062 L 520.234375 456.898438 C 532.578125 453.804688 539.699219 452.019531 541.605469 451.542969 C 543.28125 451.121094 544.175781 450.550781 544.285156 449.828125 Z M 475.601562 471.769531 C 475.367188 471.898438 475.164062 471.988281 474.980469 472.03125 C 473.34375 472.515625 471.695312 472.925781 470.046875 473.269531 C 468.855469 473.519531 468.046875 473.035156 467.621094 471.816406 C 467.460938 471.371094 467.265625 470.6875 467.03125 469.753906 L 465.957031 465.46875 C 465.613281 464.082031 465.304688 462.90625 465.039062 461.9375 C 464.828125 461.195312 464.574219 460.714844 464.277344 460.5 C 463.960938 460.289062 463.398438 460.214844 462.59375 460.269531 C 461.554688 460.363281 460.65625 460.5625 459.890625 460.875 C 459.960938 461.074219 460.054688 461.304688 460.167969 461.566406 C 460.753906 461.394531 461.378906 461.285156 462.042969 461.242188 C 462.945312 461.183594 463.585938 461.289062 463.964844 461.554688 C 464.367188 461.816406 464.6875 462.375 464.925781 463.230469 C 464.914062 463.183594 465.542969 465.644531 466.8125 470.605469 C 467.125 471.855469 467.351562 472.664062 467.492188 473.039062 C 467.839844 474.039062 468.484375 474.445312 469.425781 474.257812 C 471.078125 473.914062 472.722656 473.503906 474.359375 473.019531 C 475.101562 472.808594 475.515625 472.394531 475.601562 471.773438 Z M 451.507812 465.976562 C 451.28125 465.070312 450.75 464.527344 449.910156 464.351562 C 449.550781 464.273438 449 464.195312 448.257812 464.113281 C 447.90625 464.058594 447.632812 464.019531 447.433594 463.996094 C 446.359375 463.855469 445.695312 463.3125 445.433594 462.363281 C 445.203125 461.550781 445.007812 460.816406 444.84375 460.160156 C 444.65625 459.414062 444.488281 458.648438 444.339844 457.867188 L 444.339844 457.863281 C 444.152344 458.175781 444.101562 458.550781 444.1875 458.984375 C 444.328125 459.71875 444.519531 460.566406 444.761719 461.535156 C 444.921875 462.179688 445.105469 462.875 445.3125 463.621094 C 445.535156 464.410156 446.082031 464.863281 446.957031 464.984375 C 448.574219 465.179688 449.40625 465.285156 449.457031 465.296875 C 450.296875 465.472656 450.886719 465.941406 451.222656 466.699219 L 451.210938 466.667969 L 451.246094 466.65625 C 451.34375 466.5625 451.457031 466.4375 451.585938 466.285156 Z M 436.617188 465.875 C 436.429688 465.992188 436.171875 466.117188 435.84375 466.25 C 435.519531 466.402344 435.296875 466.519531 435.171875 466.597656 C 435.046875 466.675781 434.902344 466.773438 434.738281 466.886719 C 434.628906 467.132812 434.554688 467.355469 434.507812 467.558594 C 435.773438 466.832031 436.4375 466.402344 436.5 466.265625 C 436.5625 466.128906 436.601562 466 436.617188 465.878906 Z M 473.980469 456.125 C 473.292969 453.386719 472.828125 451.546875 472.578125 450.605469 C 472.273438 449.382812 471.921875 448.652344 471.523438 448.414062 C 471.101562 448.179688 470.257812 448.222656 468.988281 448.542969 C 468.460938 448.648438 464.984375 449.507812 458.566406 451.117188 C 452.824219 452.554688 449.546875 453.375 448.730469 453.582031 C 447.777344 453.820312 447.058594 454.035156 446.578125 454.226562 C 445.699219 454.570312 445.339844 455.164062 445.503906 456.015625 C 445.675781 456.824219 445.898438 457.78125 446.175781 458.886719 C 446.316406 459.4375 446.464844 460.027344 446.632812 460.652344 C 446.851562 461.441406 447.410156 461.878906 448.300781 461.972656 C 449.898438 462.195312 450.738281 462.3125 450.808594 462.316406 C 451.832031 462.546875 452.484375 463.207031 452.757812 464.300781 C 452.769531 464.355469 452.78125 464.40625 452.792969 464.460938 C 452.988281 465.523438 452.667969 466.457031 451.832031 467.269531 C 451.234375 467.855469 450.398438 468.28125 449.332031 468.546875 C 445.980469 469.410156 442.609375 470.257812 439.226562 471.082031 C 438.75 471.199219 438.285156 471.277344 437.839844 471.320312 C 436.886719 471.363281 436.027344 471.160156 435.257812 470.699219 C 434.5 470.261719 434 469.664062 433.761719 468.90625 C 433.730469 468.820312 433.707031 468.734375 433.683594 468.648438 C 433.519531 467.996094 433.597656 467.320312 433.914062 466.625 C 434.292969 465.828125 434.898438 465.171875 435.734375 464.648438 C 437.121094 463.746094 437.816406 463.292969 437.816406 463.292969 C 437.976562 462.945312 438.003906 462.558594 437.898438 462.132812 C 437.878906 462.0625 437.859375 461.988281 437.832031 461.917969 C 437.449219 460.945312 437.269531 460.503906 437.285156 460.59375 C 437.238281 460.394531 437.191406 460.195312 437.144531 460.003906 C 436.949219 459.226562 436.734375 458.527344 436.503906 457.910156 C 436.226562 457.085938 435.875 456.558594 435.457031 456.328125 C 435.015625 456.101562 434.363281 456.09375 433.5 456.3125 C 432.230469 456.628906 431.042969 457.191406 429.941406 457.996094 C 426.621094 460.421875 424.882812 463.402344 424.730469 466.933594 C 424.679688 468.246094 424.800781 469.503906 425.101562 470.699219 C 425.519531 472.371094 426.285156 473.933594 427.390625 475.382812 C 428.183594 476.4375 429.152344 477.316406 430.292969 478.019531 C 433.316406 479.890625 436.570312 480.414062 440.054688 479.589844 C 443.203125 478.871094 447.027344 477.914062 451.523438 476.714844 C 453.695312 476.148438 455.652344 475.246094 457.394531 474.015625 C 460.121094 472.101562 461.238281 469.484375 460.742188 466.160156 C 460.667969 465.695312 460.574219 465.246094 460.464844 464.8125 C 460.25 463.945312 459.964844 463.140625 459.617188 462.390625 C 459.304688 461.722656 459.125 461.285156 459.070312 461.082031 C 459.058594 461.035156 459.046875 460.992188 459.035156 460.949219 C 458.839844 460.164062 459.113281 459.574219 459.863281 459.183594 C 460.796875 458.683594 461.964844 458.378906 463.359375 458.269531 C 464.261719 458.214844 464.914062 458.316406 465.316406 458.574219 C 465.695312 458.84375 466.007812 459.402344 466.246094 460.261719 C 466.234375 460.214844 466.871094 462.671875 468.164062 467.628906 C 468.46875 468.851562 468.6875 469.667969 468.8125 470.070312 C 469.15625 471.066406 469.800781 471.472656 470.742188 471.285156 C 472.417969 470.9375 474.0625 470.527344 475.679688 470.050781 C 476.621094 469.765625 477.039062 469.128906 476.9375 468.140625 C 476.886719 467.84375 476.804688 467.476562 476.699219 467.046875 C 475.570312 462.503906 474.667969 458.863281 473.980469 456.125 Z M 458.449219 474.519531 C 457.964844 475.070312 457.425781 475.550781 456.832031 475.964844 C 455.050781 477.230469 453.054688 478.152344 450.835938 478.734375 C 446.332031 479.910156 442.496094 480.871094 439.332031 481.613281 C 435.753906 482.4375 432.398438 481.894531 429.265625 479.976562 C 428.097656 479.257812 427.082031 478.339844 426.226562 477.230469 C 425.109375 475.75 424.328125 474.136719 423.890625 472.390625 C 423.621094 471.304688 423.5 470.15625 423.53125 468.945312 L 423.53125 468.941406 C 423.453125 469.390625 423.414062 469.714844 423.414062 469.90625 C 423.363281 471.242188 423.488281 472.515625 423.792969 473.730469 C 424.207031 475.390625 424.957031 476.933594 426.039062 478.363281 C 426.863281 479.433594 427.828125 480.3125 428.941406 481 C 431.988281 482.863281 435.246094 483.398438 438.710938 482.601562 C 441.875 481.855469 445.710938 480.898438 450.214844 479.71875 C 452.363281 479.15625 454.316406 478.246094 456.074219 476.984375 C 457.074219 476.28125 457.867188 475.457031 458.449219 474.523438 Z M 458.449219 474.519531 " fill-opacity="1" fill-rule="nonzero"/></g></g></g><g clip-path="url(#be99c2380d)"><g clip-path="url(#8c8cd71687)"><g clip-path="url(#faf02252f2)"><path fill="#6d5764" d="M 483.054688 430.191406 C 482.726562 429.050781 482.273438 428.449219 481.695312 428.394531 C 481.859375 428.671875 482.023438 429.085938 482.183594 429.636719 C 482.222656 429.796875 482.285156 430.050781 482.371094 430.398438 L 485.738281 444.082031 C 490.179688 462.121094 493.507812 475.644531 495.722656 484.652344 C 496.148438 486.386719 496.214844 487.496094 495.917969 487.984375 C 495.597656 488.480469 494.550781 488.945312 492.773438 489.382812 L 492.425781 489.46875 C 491.664062 489.65625 491.011719 489.792969 490.46875 489.878906 C 490.726562 490.035156 491.058594 490.085938 491.460938 490.035156 C 492.027344 489.945312 492.855469 489.769531 493.941406 489.5 C 495.601562 489.089844 496.554688 488.6875 496.800781 488.28125 C 497.066406 487.875 497 486.859375 496.601562 485.246094 C 495.335938 480.09375 490.898438 462.066406 483.292969 431.164062 C 483.167969 430.65625 483.089844 430.332031 483.054688 430.191406 Z M 480.410156 429.003906 C 480.136719 428.09375 479.84375 427.542969 479.527344 427.351562 C 479.203125 427.136719 478.597656 427.113281 477.710938 427.28125 C 477.480469 427.339844 476.914062 427.480469 476.011719 427.699219 C 474.304688 428.121094 473.332031 428.507812 473.101562 428.859375 C 472.875 429.230469 472.964844 430.25 473.375 431.914062 L 486.554688 485.476562 C 486.582031 485.578125 486.605469 485.675781 486.628906 485.773438 C 486.863281 486.710938 487.066406 487.425781 487.230469 487.917969 C 487.503906 488.636719 488.03125 488.933594 488.808594 488.816406 C 489.382812 488.75 490.199219 488.585938 491.261719 488.324219 C 492.917969 487.890625 493.878906 487.46875 494.148438 487.0625 C 494.414062 486.652344 494.347656 485.640625 493.949219 484.023438 C 492.472656 478.019531 488.039062 460.003906 480.652344 429.976562 C 480.527344 429.46875 480.445312 429.144531 480.410156 429.003906 Z M 480.410156 429.003906 " fill-opacity="1" fill-rule="nonzero"/></g></g></g></svg>