<svg xmlns="http://www.w3.org/2000/svg" xmlns:xlink="http://www.w3.org/1999/xlink" width="1000" zoomAndPan="magnify" viewBox="0 0 750 749.999995" height="1000" preserveAspectRatio="xMidYMid meet" version="1.0"><rect x="-75" width="900" fill="#ffffff" y="-74.999999" height="899.999994" fill-opacity="1"/><rect x="-75" width="900" fill="#ffffff" y="-74.999999" height="899.999994" fill-opacity="1"/><path fill="#000000" d="M 123.042969 346.652344 C 127.144531 340.71875 132.742188 337.75 139.847656 337.75 C 143.359375 337.75 146.875 338.703125 150.390625 340.609375 C 153.902344 342.511719 156.757812 345.882812 158.957031 350.71875 C 161.664062 356.796875 163.019531 365.148438 163.019531 375.769531 C 163.019531 387.125 161.445312 395.804688 158.296875 401.808594 C 156.832031 404.886719 154.820312 407.339844 152.257812 409.171875 C 149.695312 411.003906 147.460938 412.140625 145.558594 412.578125 C 143.652344 413.019531 141.785156 413.273438 139.957031 413.347656 C 138.050781 413.347656 136.148438 413.128906 134.246094 412.6875 C 132.339844 412.25 130.109375 411.078125 127.546875 409.171875 C 124.984375 407.265625 122.96875 404.8125 121.503906 401.808594 C 118.355469 395.804688 116.78125 387.125 116.78125 375.769531 C 116.78125 363.023438 118.871094 353.316406 123.042969 346.652344 Z M 147.753906 345.332031 C 145.558594 342.988281 142.957031 341.816406 139.957031 341.816406 C 136.878906 341.816406 134.246094 342.988281 132.046875 345.332031 C 130.21875 347.238281 129.011719 349.875 128.425781 353.246094 C 127.839844 356.613281 127.546875 363.644531 127.546875 374.339844 C 127.546875 385.914062 127.839844 393.53125 128.425781 397.195312 C 129.011719 400.859375 130.328125 403.75 132.378906 405.875 C 134.429688 408.074219 136.953125 409.171875 139.957031 409.171875 C 142.882812 409.171875 145.375 408.074219 147.421875 405.875 C 149.546875 403.679688 150.863281 400.601562 151.378906 396.644531 C 151.890625 392.691406 152.183594 385.253906 152.257812 374.339844 C 152.257812 363.71875 151.964844 356.722656 151.378906 353.355469 C 150.792969 349.984375 149.582031 347.3125 147.753906 345.332031 Z M 147.753906 345.332031 " fill-opacity="1" fill-rule="nonzero"/><path fill="#000000" d="M 175.976562 404.335938 C 175.976562 402.578125 176.601562 401.042969 177.84375 399.722656 C 179.089844 398.402344 180.664062 397.746094 182.566406 397.746094 C 184.324219 397.746094 185.863281 398.332031 187.179688 399.503906 C 188.496094 400.675781 189.191406 402.25 189.265625 404.226562 C 189.265625 406.058594 188.644531 407.632812 187.398438 408.953125 C 186.15625 410.269531 184.582031 410.929688 182.675781 410.929688 C 180.773438 410.929688 179.199219 410.308594 177.953125 409.0625 C 176.710938 407.816406 176.050781 406.242188 175.976562 404.335938 Z M 175.976562 404.335938 " fill-opacity="1" fill-rule="nonzero"/><path fill="#000000" d="M 208.484375 346.652344 C 212.585938 340.71875 218.1875 337.75 225.289062 337.75 C 228.800781 337.75 232.316406 338.703125 235.832031 340.609375 C 239.34375 342.511719 242.199219 345.882812 244.398438 350.71875 C 247.105469 356.796875 248.460938 365.148438 248.460938 375.769531 C 248.460938 387.125 246.886719 395.804688 243.738281 401.808594 C 242.273438 404.886719 240.261719 407.339844 237.699219 409.171875 C 235.136719 411.003906 232.902344 412.140625 231 412.578125 C 229.09375 413.019531 227.226562 413.273438 225.398438 413.347656 C 223.496094 413.347656 221.589844 413.128906 219.6875 412.6875 C 217.785156 412.25 215.550781 411.078125 212.988281 409.171875 C 210.425781 407.265625 208.410156 404.8125 206.949219 401.808594 C 203.800781 395.804688 202.226562 387.125 202.226562 375.769531 C 202.226562 363.023438 204.3125 353.316406 208.484375 346.652344 Z M 233.195312 345.332031 C 231 342.988281 228.398438 341.816406 225.398438 341.816406 C 222.324219 341.816406 219.6875 342.988281 217.492188 345.332031 C 215.660156 347.238281 214.453125 349.875 213.867188 353.246094 C 213.28125 356.613281 212.988281 363.644531 212.988281 374.339844 C 212.988281 385.914062 213.28125 393.53125 213.867188 397.195312 C 214.453125 400.859375 215.769531 403.75 217.820312 405.875 C 219.871094 408.074219 222.394531 409.171875 225.398438 409.171875 C 228.328125 409.171875 230.816406 408.074219 232.867188 405.875 C 234.988281 403.679688 236.308594 400.601562 236.820312 396.644531 C 237.332031 392.691406 237.625 385.253906 237.699219 374.339844 C 237.699219 363.71875 237.40625 356.722656 236.820312 353.355469 C 236.234375 349.984375 235.027344 347.3125 233.195312 345.332031 Z M 233.195312 345.332031 " fill-opacity="1" fill-rule="nonzero"/><path fill="#000000" d="M 263.398438 346.652344 C 267.496094 340.71875 273.097656 337.75 280.199219 337.75 C 283.714844 337.75 287.226562 338.703125 290.742188 340.609375 C 294.257812 342.511719 297.113281 345.882812 299.308594 350.71875 C 302.019531 356.796875 303.371094 365.148438 303.371094 375.769531 C 303.371094 387.125 301.796875 395.804688 298.648438 401.808594 C 297.1875 404.886719 295.171875 407.339844 292.609375 409.171875 C 290.046875 411.003906 287.8125 412.140625 285.910156 412.578125 C 284.007812 413.019531 282.140625 413.273438 280.308594 413.347656 C 278.40625 413.347656 276.503906 413.128906 274.597656 412.6875 C 272.695312 412.25 270.460938 411.078125 267.898438 409.171875 C 265.335938 407.265625 263.324219 404.8125 261.859375 401.808594 C 258.710938 395.804688 257.136719 387.125 257.136719 375.769531 C 257.136719 363.023438 259.222656 353.316406 263.398438 346.652344 Z M 288.105469 345.332031 C 285.910156 342.988281 283.3125 341.816406 280.308594 341.816406 C 277.234375 341.816406 274.597656 342.988281 272.402344 345.332031 C 270.570312 347.238281 269.363281 349.875 268.777344 353.246094 C 268.191406 356.613281 267.898438 363.644531 267.898438 374.339844 C 267.898438 385.914062 268.191406 393.53125 268.777344 397.195312 C 269.363281 400.859375 270.683594 403.75 272.730469 405.875 C 274.78125 408.074219 277.308594 409.171875 280.308594 409.171875 C 283.238281 409.171875 285.726562 408.074219 287.777344 405.875 C 289.902344 403.679688 291.21875 400.601562 291.730469 396.644531 C 292.242188 392.691406 292.535156 385.253906 292.609375 374.339844 C 292.609375 363.71875 292.316406 356.722656 291.730469 353.355469 C 291.144531 349.984375 289.9375 347.3125 288.105469 345.332031 Z M 288.105469 345.332031 " fill-opacity="1" fill-rule="nonzero"/><path fill="#000000" d="M 318.308594 346.652344 C 322.410156 340.71875 328.007812 337.75 335.109375 337.75 C 338.625 337.75 342.140625 338.703125 345.652344 340.609375 C 349.167969 342.511719 352.023438 345.882812 354.21875 350.71875 C 356.929688 356.796875 358.285156 365.148438 358.285156 375.769531 C 358.285156 387.125 356.710938 395.804688 353.5625 401.808594 C 352.097656 404.886719 350.082031 407.339844 347.519531 409.171875 C 344.957031 411.003906 342.726562 412.140625 340.820312 412.578125 C 338.917969 413.019531 337.050781 413.273438 335.222656 413.347656 C 333.316406 413.347656 331.414062 413.128906 329.511719 412.6875 C 327.605469 412.25 325.375 411.078125 322.8125 409.171875 C 320.25 407.265625 318.234375 404.8125 316.769531 401.808594 C 313.621094 395.804688 312.046875 387.125 312.046875 375.769531 C 312.046875 363.023438 314.136719 353.316406 318.308594 346.652344 Z M 343.019531 345.332031 C 340.820312 342.988281 338.222656 341.816406 335.222656 341.816406 C 332.144531 341.816406 329.511719 342.988281 327.3125 345.332031 C 325.484375 347.238281 324.273438 349.875 323.691406 353.246094 C 323.105469 356.613281 322.8125 363.644531 322.8125 374.339844 C 322.8125 385.914062 323.105469 393.53125 323.691406 397.195312 C 324.273438 400.859375 325.59375 403.75 327.644531 405.875 C 329.691406 408.074219 332.21875 409.171875 335.222656 409.171875 C 338.148438 409.171875 340.640625 408.074219 342.6875 405.875 C 344.8125 403.679688 346.128906 400.601562 346.640625 396.644531 C 347.15625 392.691406 347.449219 385.253906 347.519531 374.339844 C 347.519531 363.71875 347.226562 356.722656 346.640625 353.355469 C 346.058594 349.984375 344.847656 347.3125 343.019531 345.332031 Z M 343.019531 345.332031 " fill-opacity="1" fill-rule="nonzero"/><path fill="#000000" d="M 373.21875 346.652344 C 377.320312 340.71875 382.921875 337.75 390.023438 337.75 C 393.535156 337.75 397.050781 338.703125 400.566406 340.609375 C 404.078125 342.511719 406.933594 345.882812 409.132812 350.71875 C 411.839844 356.796875 413.195312 365.148438 413.195312 375.769531 C 413.195312 387.125 411.621094 395.804688 408.472656 401.808594 C 407.007812 404.886719 404.996094 407.339844 402.433594 409.171875 C 399.871094 411.003906 397.636719 412.140625 395.734375 412.578125 C 393.828125 413.019531 391.960938 413.273438 390.132812 413.347656 C 388.230469 413.347656 386.324219 413.128906 384.421875 412.6875 C 382.519531 412.25 380.285156 411.078125 377.722656 409.171875 C 375.160156 407.265625 373.148438 404.8125 371.683594 401.808594 C 368.535156 395.804688 366.960938 387.125 366.960938 375.769531 C 366.960938 363.023438 369.046875 353.316406 373.21875 346.652344 Z M 397.929688 345.332031 C 395.734375 342.988281 393.132812 341.816406 390.132812 341.816406 C 387.058594 341.816406 384.421875 342.988281 382.226562 345.332031 C 380.394531 347.238281 379.1875 349.875 378.601562 353.246094 C 378.015625 356.613281 377.722656 363.644531 377.722656 374.339844 C 377.722656 385.914062 378.015625 393.53125 378.601562 397.195312 C 379.1875 400.859375 380.503906 403.75 382.554688 405.875 C 384.605469 408.074219 387.128906 409.171875 390.132812 409.171875 C 393.0625 409.171875 395.550781 408.074219 397.601562 405.875 C 399.722656 403.679688 401.042969 400.601562 401.554688 396.644531 C 402.066406 392.691406 402.359375 385.253906 402.433594 374.339844 C 402.433594 363.71875 402.140625 356.722656 401.554688 353.355469 C 400.96875 349.984375 399.761719 347.3125 397.929688 345.332031 Z M 397.929688 345.332031 " fill-opacity="1" fill-rule="nonzero"/><path fill="#000000" d="M 428.132812 346.652344 C 432.230469 340.71875 437.832031 337.75 444.933594 337.75 C 448.449219 337.75 451.960938 338.703125 455.476562 340.609375 C 458.992188 342.511719 461.847656 345.882812 464.042969 350.71875 C 466.753906 356.796875 468.105469 365.148438 468.105469 375.769531 C 468.105469 387.125 466.53125 395.804688 463.382812 401.808594 C 461.921875 404.886719 459.90625 407.339844 457.34375 409.171875 C 454.78125 411.003906 452.546875 412.140625 450.644531 412.578125 C 448.742188 413.019531 446.875 413.273438 445.042969 413.347656 C 443.140625 413.347656 441.238281 413.128906 439.332031 412.6875 C 437.429688 412.25 435.195312 411.078125 432.632812 409.171875 C 430.070312 407.265625 428.058594 404.8125 426.59375 401.808594 C 423.445312 395.804688 421.871094 387.125 421.871094 375.769531 C 421.871094 363.023438 423.957031 353.316406 428.132812 346.652344 Z M 452.839844 345.332031 C 450.644531 342.988281 448.046875 341.816406 445.042969 341.816406 C 441.96875 341.816406 439.332031 342.988281 437.136719 345.332031 C 435.304688 347.238281 434.097656 349.875 433.511719 353.246094 C 432.925781 356.613281 432.632812 363.644531 432.632812 374.339844 C 432.632812 385.914062 432.925781 393.53125 433.511719 397.195312 C 434.097656 400.859375 435.417969 403.75 437.464844 405.875 C 439.515625 408.074219 442.042969 409.171875 445.042969 409.171875 C 447.972656 409.171875 450.460938 408.074219 452.511719 405.875 C 454.636719 403.679688 455.953125 400.601562 456.464844 396.644531 C 456.976562 392.691406 457.269531 385.253906 457.34375 374.339844 C 457.34375 363.71875 457.050781 356.722656 456.464844 353.355469 C 455.878906 349.984375 454.671875 347.3125 452.839844 345.332031 Z M 452.839844 345.332031 " fill-opacity="1" fill-rule="nonzero"/><path fill="#000000" d="M 490.511719 393.679688 C 490.511719 395.4375 489.925781 396.902344 488.753906 398.074219 C 487.582031 399.246094 486.15625 399.832031 484.46875 399.832031 L 483.703125 399.832031 C 487.070312 405.621094 491.535156 408.511719 497.101562 408.511719 C 502.226562 408.511719 505.960938 406.316406 508.300781 401.921875 C 509.691406 399.503906 510.386719 394.816406 510.386719 387.855469 C 510.386719 380.3125 509.398438 375.21875 507.421875 372.582031 C 505.519531 370.164062 503.398438 368.957031 501.054688 368.957031 L 500.394531 368.957031 C 494.683594 368.957031 490.363281 371.449219 487.4375 376.429688 C 487.144531 376.941406 486.886719 377.234375 486.667969 377.308594 C 486.445312 377.378906 485.898438 377.453125 485.019531 377.527344 C 483.773438 377.527344 483.078125 377.308594 482.933594 376.867188 C 482.785156 376.574219 482.714844 370.164062 482.714844 357.640625 L 482.714844 343.464844 C 482.714844 339.800781 482.894531 337.972656 483.261719 337.972656 C 483.410156 337.824219 483.554688 337.75 483.703125 337.75 C 483.773438 337.75 484.542969 338.042969 486.007812 338.628906 C 487.472656 339.214844 489.484375 339.800781 492.046875 340.386719 C 494.609375 340.972656 497.355469 341.265625 500.285156 341.265625 C 505.484375 341.265625 510.460938 340.242188 515.222656 338.191406 C 515.804688 337.898438 516.28125 337.75 516.648438 337.75 C 517.234375 337.75 517.527344 338.410156 517.527344 339.730469 L 517.527344 341.15625 C 511.523438 348.261719 504.019531 351.816406 495.011719 351.816406 C 492.742188 351.816406 490.695312 351.597656 488.863281 351.15625 L 487.765625 350.9375 L 487.765625 369.835938 C 489.15625 368.808594 490.253906 368.003906 491.058594 367.417969 C 491.863281 366.832031 493.183594 366.246094 495.011719 365.660156 C 496.84375 365.074219 498.710938 364.78125 500.613281 364.78125 C 506.542969 364.78125 511.558594 367.160156 515.660156 371.921875 C 519.761719 376.683594 521.808594 382.324219 521.808594 388.84375 C 521.808594 395.582031 519.46875 401.335938 514.78125 406.09375 C 510.097656 410.855469 504.386719 413.273438 497.648438 413.347656 C 491.71875 413.347656 486.960938 411.371094 483.371094 407.414062 C 479.785156 403.457031 477.992188 398.988281 477.992188 394.007812 C 477.992188 392.25 478.394531 390.859375 479.199219 389.832031 C 480.003906 388.808594 480.847656 388.148438 481.726562 387.855469 C 482.601562 387.5625 483.445312 387.417969 484.25 387.417969 C 486.082031 387.417969 487.582031 388.039062 488.753906 389.285156 C 489.925781 390.53125 490.511719 391.996094 490.511719 393.679688 Z M 490.511719 393.679688 " fill-opacity="1" fill-rule="nonzero"/><path fill="#000000" d="M 532.023438 376.539062 C 532.023438 364.597656 534.988281 355.148438 540.917969 348.191406 C 546.851562 341.230469 553.4375 337.75 560.6875 337.75 C 565.738281 337.75 569.363281 339.070312 571.558594 341.707031 C 573.757812 344.34375 574.855469 347.273438 574.855469 350.496094 C 574.855469 352.328125 574.34375 353.792969 573.316406 354.890625 C 572.292969 355.992188 570.863281 356.539062 569.035156 356.539062 C 567.351562 356.539062 565.960938 356.027344 564.859375 355.003906 C 563.761719 353.976562 563.214844 352.546875 563.214844 350.71875 C 563.214844 347.492188 564.933594 345.554688 568.375 344.894531 C 566.765625 343.28125 564.496094 342.367188 561.566406 342.148438 C 556.367188 342.148438 552.085938 344.34375 548.71875 348.738281 C 545.277344 353.574219 543.554688 360.972656 543.554688 370.933594 L 543.664062 371.375 C 544.03125 370.933594 544.324219 370.457031 544.542969 369.945312 C 547.546875 365.550781 551.460938 363.351562 556.292969 363.351562 L 556.734375 363.351562 C 560.101562 363.351562 563.066406 364.050781 565.628906 365.441406 C 567.386719 366.464844 569.144531 367.929688 570.902344 369.835938 C 572.660156 371.742188 574.085938 373.828125 575.183594 376.097656 C 576.722656 379.6875 577.492188 383.605469 577.492188 387.855469 L 577.492188 389.832031 C 577.492188 391.519531 577.308594 393.09375 576.941406 394.558594 C 576.136719 398.878906 573.792969 403.09375 569.914062 407.195312 C 566.03125 411.296875 561.125 413.347656 555.195312 413.347656 C 553.144531 413.347656 551.167969 413.054688 549.265625 412.46875 C 547.363281 411.882812 545.3125 410.785156 543.117188 409.171875 C 540.917969 407.558594 539.050781 405.398438 537.515625 402.6875 C 535.976562 399.980469 534.660156 396.425781 533.5625 392.03125 C 532.464844 387.636719 531.949219 382.472656 532.023438 376.539062 Z M 555.636719 367.308594 C 553.4375 367.308594 551.535156 367.929688 549.925781 369.175781 C 548.3125 370.421875 547.070312 372.070312 546.191406 374.121094 C 545.3125 376.171875 544.691406 378.257812 544.324219 380.382812 C 543.957031 382.507812 543.738281 384.777344 543.664062 387.195312 C 543.664062 393.277344 544.105469 397.636719 544.984375 400.273438 C 545.863281 402.910156 547.253906 405.035156 549.15625 406.644531 C 550.914062 407.964844 552.851562 408.621094 554.976562 408.621094 C 558.710938 408.621094 561.566406 407.230469 563.542969 404.445312 C 564.496094 403.128906 565.152344 401.480469 565.519531 399.503906 C 565.886719 397.523438 566.070312 393.679688 566.070312 387.964844 C 566.070312 382.105469 565.886719 378.1875 565.519531 376.207031 C 565.152344 374.230469 564.496094 372.582031 563.542969 371.265625 C 561.566406 368.628906 558.929688 367.308594 555.636719 367.308594 Z M 555.636719 367.308594 " fill-opacity="1" fill-rule="nonzero"/><path fill="#000000" d="M 588.363281 360.605469 C 588.4375 360.460938 589.058594 356.46875 590.230469 348.628906 L 591.988281 336.871094 C 591.988281 336.726562 592.71875 336.652344 594.183594 336.652344 L 596.378906 336.652344 L 596.378906 337.09375 C 596.378906 337.824219 596.929688 338.449219 598.027344 338.960938 C 599.125 339.472656 601.027344 339.800781 603.738281 339.949219 C 606.445312 340.09375 612.632812 340.167969 622.296875 340.167969 L 635.585938 340.167969 L 635.585938 344.453125 L 628.117188 354.671875 C 627.460938 355.550781 626.363281 357.015625 624.824219 359.066406 C 623.285156 361.117188 622.296875 362.472656 621.859375 363.132812 C 621.417969 363.792969 620.652344 364.964844 619.550781 366.648438 C 618.453125 368.335938 617.722656 369.652344 617.355469 370.605469 C 616.988281 371.558594 616.476562 372.914062 615.820312 374.671875 C 615.160156 376.429688 614.683594 378.113281 614.390625 379.726562 C 614.097656 381.335938 613.804688 383.3125 613.511719 385.65625 C 613.21875 388.003906 613 390.492188 612.851562 393.128906 C 612.707031 395.765625 612.597656 398.769531 612.523438 402.140625 C 612.523438 403.164062 612.523438 404.191406 612.523438 405.214844 C 612.523438 406.242188 612.488281 407.121094 612.414062 407.851562 L 612.414062 408.84375 C 612.121094 410.085938 611.425781 411.148438 610.328125 412.027344 C 609.230469 412.90625 607.984375 413.347656 606.59375 413.347656 C 605.789062 413.347656 605.019531 413.238281 604.289062 413.019531 C 603.554688 412.796875 602.785156 412.101562 601.980469 410.929688 C 601.175781 409.757812 600.773438 408.292969 600.773438 406.535156 C 600.773438 394.960938 604.324219 382.949219 611.425781 370.496094 C 612.890625 368.152344 615.964844 363.71875 620.652344 357.199219 L 625.703125 350.277344 L 615.488281 350.277344 C 602.75 350.277344 596.050781 350.496094 595.390625 350.9375 C 594.953125 351.15625 594.550781 352.035156 594.183594 353.574219 C 593.816406 355.113281 593.453125 356.6875 593.085938 358.296875 L 592.757812 360.605469 L 592.757812 360.9375 L 588.363281 360.9375 Z M 588.363281 360.605469 " fill-opacity="1" fill-rule="nonzero"/></svg>