<svg xmlns="http://www.w3.org/2000/svg" xmlns:xlink="http://www.w3.org/1999/xlink" width="1000" zoomAndPan="magnify" viewBox="0 0 750 749.999995" height="1000" preserveAspectRatio="xMidYMid meet" version="1.0"><defs><clipPath id="34706c7fc4"><path d="M 56 335 L 75 335 L 75 417.1875 L 56 417.1875 Z M 56 335 " clip-rule="nonzero"/></clipPath><clipPath id="2f72bc7d4a"><path d="M 529 332.8125 L 550 332.8125 L 550 366 L 529 366 Z M 529 332.8125 " clip-rule="nonzero"/></clipPath><clipPath id="f0b4315910"><path d="M 557 335 L 576 335 L 576 417.1875 L 557 417.1875 Z M 557 335 " clip-rule="nonzero"/></clipPath></defs><rect x="-75" width="900" fill="#ffffff" y="-74.999999" height="899.999994" fill-opacity="1"/><rect x="-75" width="900" fill="#ffffff" y="-74.999999" height="899.999994" fill-opacity="1"/><g clip-path="url(#34706c7fc4)"><path fill="#000000" d="M 56.160156 376.140625 C 56.160156 358.128906 61.542969 344.46875 72.304688 335.164062 L 74.222656 335.164062 C 74.496094 335.4375 74.632812 335.644531 74.632812 335.78125 C 74.632812 335.964844 74.199219 336.535156 73.332031 337.492188 C 72.464844 338.449219 71.417969 339.886719 70.1875 341.800781 C 68.953125 343.71875 67.699219 346.089844 66.421875 348.914062 C 65.144531 351.742188 64.074219 355.550781 63.207031 360.339844 C 62.339844 365.128906 61.90625 370.417969 61.90625 376.210938 C 61.90625 381.957031 62.339844 387.222656 63.207031 392.011719 C 64.074219 396.800781 65.125 400.585938 66.355469 403.367188 C 67.585938 406.152344 68.839844 408.523438 70.117188 410.484375 C 71.394531 412.445312 72.464844 413.902344 73.332031 414.863281 C 74.199219 415.820312 74.632812 416.390625 74.632812 416.570312 C 74.632812 416.707031 74.496094 416.914062 74.222656 417.1875 L 72.304688 417.1875 C 70.984375 416.09375 69.707031 414.882812 68.476562 413.5625 C 67.242188 412.238281 65.851562 410.347656 64.300781 407.882812 C 62.75 405.421875 61.40625 402.777344 60.265625 399.949219 C 59.125 397.121094 58.167969 393.632812 57.394531 389.480469 C 56.617188 385.332031 56.207031 380.886719 56.160156 376.140625 Z M 56.160156 376.140625 " fill-opacity="1" fill-rule="nonzero"/></g><path fill="#000000" d="M 83.660156 353.261719 C 86.214844 349.566406 89.703125 347.71875 94.128906 347.71875 C 96.316406 347.71875 98.507812 348.3125 100.695312 349.496094 C 102.886719 350.683594 104.664062 352.78125 106.03125 355.789062 C 107.71875 359.574219 108.5625 364.773438 108.5625 371.386719 C 108.5625 378.457031 107.582031 383.859375 105.621094 387.601562 C 104.710938 389.515625 103.453125 391.042969 101.859375 392.183594 C 100.261719 393.324219 98.871094 394.03125 97.6875 394.304688 C 96.5 394.578125 95.335938 394.738281 94.195312 394.785156 C 93.011719 394.785156 91.824219 394.648438 90.640625 394.375 C 89.453125 394.101562 88.0625 393.371094 86.464844 392.183594 C 84.871094 391 83.617188 389.46875 82.703125 387.601562 C 80.742188 383.859375 79.761719 378.457031 79.761719 371.386719 C 79.761719 363.453125 81.0625 357.410156 83.660156 353.261719 Z M 99.054688 352.4375 C 97.6875 350.980469 96.066406 350.25 94.195312 350.25 C 92.28125 350.25 90.640625 350.980469 89.273438 352.4375 C 88.132812 353.625 87.378906 355.265625 87.015625 357.363281 C 86.648438 359.460938 86.464844 363.839844 86.464844 370.5 C 86.464844 377.703125 86.648438 382.449219 87.015625 384.726562 C 87.378906 387.007812 88.199219 388.808594 89.476562 390.132812 C 90.753906 391.5 92.328125 392.183594 94.195312 392.183594 C 96.019531 392.183594 97.570312 391.5 98.847656 390.132812 C 100.171875 388.765625 100.992188 386.847656 101.3125 384.386719 C 101.628906 381.921875 101.8125 377.292969 101.859375 370.5 C 101.859375 363.886719 101.675781 359.53125 101.3125 357.433594 C 100.945312 355.335938 100.195312 353.671875 99.054688 352.4375 Z M 99.054688 352.4375 " fill-opacity="1" fill-rule="nonzero"/><path fill="#000000" d="M 116.636719 389.175781 C 116.636719 388.078125 117.023438 387.121094 117.796875 386.300781 C 118.574219 385.480469 119.554688 385.070312 120.738281 385.070312 C 121.832031 385.070312 122.792969 385.433594 123.613281 386.164062 C 124.433594 386.894531 124.867188 387.875 124.914062 389.105469 C 124.914062 390.246094 124.523438 391.226562 123.75 392.046875 C 122.972656 392.867188 121.992188 393.277344 120.808594 393.277344 C 119.621094 393.277344 118.640625 392.890625 117.867188 392.117188 C 117.089844 391.339844 116.679688 390.359375 116.636719 389.175781 Z M 116.636719 389.175781 " fill-opacity="1" fill-rule="nonzero"/><path fill="#000000" d="M 136.882812 353.261719 C 139.4375 349.566406 142.925781 347.71875 147.351562 347.71875 C 149.539062 347.71875 151.726562 348.3125 153.917969 349.496094 C 156.105469 350.683594 157.886719 352.78125 159.253906 355.789062 C 160.941406 359.574219 161.785156 364.773438 161.785156 371.386719 C 161.785156 378.457031 160.804688 383.859375 158.84375 387.601562 C 157.929688 389.515625 156.675781 391.042969 155.082031 392.183594 C 153.484375 393.324219 152.09375 394.03125 150.90625 394.304688 C 149.722656 394.578125 148.558594 394.738281 147.417969 394.785156 C 146.234375 394.785156 145.046875 394.648438 143.863281 394.375 C 142.675781 394.101562 141.285156 393.371094 139.6875 392.183594 C 138.09375 391 136.839844 389.46875 135.925781 387.601562 C 133.964844 383.859375 132.984375 378.457031 132.984375 371.386719 C 132.984375 363.453125 134.285156 357.410156 136.882812 353.261719 Z M 152.277344 352.4375 C 150.90625 350.980469 149.289062 350.25 147.417969 350.25 C 145.503906 350.25 143.863281 350.980469 142.492188 352.4375 C 141.351562 353.625 140.601562 355.265625 140.234375 357.363281 C 139.871094 359.460938 139.6875 363.839844 139.6875 370.5 C 139.6875 377.703125 139.871094 382.449219 140.234375 384.726562 C 140.601562 387.007812 141.421875 388.808594 142.699219 390.132812 C 143.976562 391.5 145.550781 392.183594 147.417969 392.183594 C 149.242188 392.183594 150.792969 391.5 152.070312 390.132812 C 153.394531 388.765625 154.214844 386.847656 154.535156 384.386719 C 154.851562 381.921875 155.035156 377.292969 155.082031 370.5 C 155.082031 363.886719 154.898438 359.53125 154.535156 357.433594 C 154.167969 355.335938 153.414062 353.671875 152.277344 352.4375 Z M 152.277344 352.4375 " fill-opacity="1" fill-rule="nonzero"/><path fill="#000000" d="M 171.089844 353.261719 C 173.640625 349.566406 177.128906 347.71875 181.554688 347.71875 C 183.742188 347.71875 185.933594 348.3125 188.121094 349.496094 C 190.3125 350.683594 192.089844 352.78125 193.457031 355.789062 C 195.144531 359.574219 195.988281 364.773438 195.988281 371.386719 C 195.988281 378.457031 195.007812 383.859375 193.046875 387.601562 C 192.136719 389.515625 190.882812 391.042969 189.285156 392.183594 C 187.6875 393.324219 186.296875 394.03125 185.113281 394.304688 C 183.925781 394.578125 182.761719 394.738281 181.621094 394.785156 C 180.4375 394.785156 179.25 394.648438 178.066406 394.375 C 176.878906 394.101562 175.488281 393.371094 173.894531 392.183594 C 172.296875 391 171.042969 389.46875 170.128906 387.601562 C 168.167969 383.859375 167.1875 378.457031 167.1875 371.386719 C 167.1875 363.453125 168.488281 357.410156 171.089844 353.261719 Z M 186.480469 352.4375 C 185.113281 350.980469 183.492188 350.25 181.621094 350.25 C 179.707031 350.25 178.066406 350.980469 176.699219 352.4375 C 175.558594 353.625 174.804688 355.265625 174.441406 357.363281 C 174.074219 359.460938 173.894531 363.839844 173.894531 370.5 C 173.894531 377.703125 174.074219 382.449219 174.441406 384.726562 C 174.804688 387.007812 175.625 388.808594 176.902344 390.132812 C 178.179688 391.5 179.753906 392.183594 181.621094 392.183594 C 183.445312 392.183594 184.996094 391.5 186.273438 390.132812 C 187.597656 388.765625 188.417969 386.847656 188.738281 384.386719 C 189.058594 381.921875 189.238281 377.292969 189.285156 370.5 C 189.285156 363.886719 189.101562 359.53125 188.738281 357.433594 C 188.371094 355.335938 187.621094 353.671875 186.480469 352.4375 Z M 186.480469 352.4375 " fill-opacity="1" fill-rule="nonzero"/><path fill="#000000" d="M 205.292969 353.261719 C 207.847656 349.566406 211.335938 347.71875 215.757812 347.71875 C 217.949219 347.71875 220.136719 348.3125 222.324219 349.496094 C 224.515625 350.683594 226.292969 352.78125 227.660156 355.789062 C 229.347656 359.574219 230.191406 364.773438 230.191406 371.386719 C 230.191406 378.457031 229.210938 383.859375 227.25 387.601562 C 226.339844 389.515625 225.085938 391.042969 223.488281 392.183594 C 221.894531 393.324219 220.5 394.03125 219.316406 394.304688 C 218.128906 394.578125 216.96875 394.738281 215.828125 394.785156 C 214.640625 394.785156 213.457031 394.648438 212.269531 394.375 C 211.085938 394.101562 209.691406 393.371094 208.097656 392.183594 C 206.5 391 205.246094 389.46875 204.335938 387.601562 C 202.375 383.859375 201.394531 378.457031 201.394531 371.386719 C 201.394531 363.453125 202.691406 357.410156 205.292969 353.261719 Z M 220.683594 352.4375 C 219.316406 350.980469 217.695312 350.25 215.828125 350.25 C 213.910156 350.25 212.269531 350.980469 210.902344 352.4375 C 209.761719 353.625 209.007812 355.265625 208.644531 357.363281 C 208.28125 359.460938 208.097656 363.839844 208.097656 370.5 C 208.097656 377.703125 208.28125 382.449219 208.644531 384.726562 C 209.007812 387.007812 209.828125 388.808594 211.105469 390.132812 C 212.382812 391.5 213.957031 392.183594 215.828125 392.183594 C 217.652344 392.183594 219.203125 391.5 220.480469 390.132812 C 221.800781 388.765625 222.621094 386.847656 222.941406 384.386719 C 223.261719 381.921875 223.441406 377.292969 223.488281 370.5 C 223.488281 363.886719 223.304688 359.53125 222.941406 357.433594 C 222.578125 355.335938 221.824219 353.671875 220.683594 352.4375 Z M 220.683594 352.4375 " fill-opacity="1" fill-rule="nonzero"/><path fill="#000000" d="M 247.5 353.738281 L 246.609375 354.082031 C 245.972656 354.308594 245.058594 354.535156 243.875 354.765625 C 242.6875 354.992188 241.367188 355.152344 239.90625 355.242188 L 238.605469 355.242188 L 238.605469 352.097656 L 239.90625 352.097656 C 242.050781 352.003906 244.035156 351.664062 245.859375 351.070312 C 247.683594 350.476562 248.960938 349.929688 249.6875 349.429688 C 250.417969 348.925781 251.058594 348.425781 251.605469 347.925781 C 251.695312 347.785156 251.96875 347.71875 252.425781 347.71875 C 252.835938 347.71875 253.222656 347.855469 253.589844 348.128906 L 253.589844 368.582031 L 253.65625 389.105469 C 253.976562 389.425781 254.25 389.628906 254.476562 389.722656 C 254.707031 389.8125 255.253906 389.902344 256.121094 389.996094 C 256.984375 390.085938 258.398438 390.132812 260.359375 390.132812 L 262.140625 390.132812 L 262.140625 393.277344 L 261.386719 393.277344 C 260.429688 393.140625 256.804688 393.074219 250.511719 393.074219 C 244.308594 393.074219 240.726562 393.140625 239.769531 393.277344 L 238.949219 393.277344 L 238.949219 390.132812 L 240.726562 390.132812 C 241.730469 390.132812 242.597656 390.132812 243.328125 390.132812 C 244.058594 390.132812 244.628906 390.109375 245.039062 390.0625 C 245.449219 390.019531 245.8125 389.949219 246.132812 389.859375 C 246.453125 389.765625 246.632812 389.722656 246.679688 389.722656 C 246.726562 389.722656 246.863281 389.609375 247.089844 389.378906 C 247.316406 389.152344 247.453125 389.058594 247.5 389.105469 Z M 247.5 353.738281 " fill-opacity="1" fill-rule="nonzero"/><path fill="#000000" d="M 271.921875 364.753906 C 271.921875 364.753906 271.921875 362.996094 271.921875 359.484375 C 271.921875 355.972656 273.152344 353.144531 275.617188 351.003906 C 278.078125 348.859375 280.90625 347.765625 284.097656 347.71875 C 287.335938 347.71875 290.210938 348.675781 292.71875 350.59375 C 295.226562 352.507812 296.480469 354.992188 296.480469 358.046875 C 296.480469 359.417969 296.230469 360.695312 295.726562 361.878906 C 295.226562 363.066406 294.632812 364.023438 293.949219 364.753906 C 293.265625 365.480469 292.558594 366.121094 291.828125 366.667969 C 291.097656 367.214844 290.507812 367.625 290.050781 367.898438 C 289.59375 368.171875 289.34375 368.355469 289.296875 368.445312 L 290.253906 369.0625 C 290.894531 369.519531 291.53125 369.972656 292.171875 370.429688 C 292.808594 370.886719 293.175781 371.136719 293.265625 371.183594 C 296.6875 373.875 298.394531 377.269531 298.394531 381.375 C 298.394531 384.976562 297.074219 388.101562 294.429688 390.746094 C 291.785156 393.394531 288.363281 394.738281 284.167969 394.785156 C 280.0625 394.785156 276.6875 393.621094 274.042969 391.292969 C 271.398438 388.96875 270.074219 386.097656 270.074219 382.675781 C 270.074219 377.75 273.015625 373.644531 278.898438 370.363281 L 277.667969 369.472656 C 276.710938 368.878906 276.09375 368.421875 275.820312 368.105469 C 273.222656 365.871094 271.921875 362.996094 271.921875 359.484375 Z M 286.699219 366.875 L 287.109375 366.597656 C 287.382812 366.417969 287.585938 366.28125 287.722656 366.1875 C 287.859375 366.097656 288.089844 365.9375 288.410156 365.710938 C 288.726562 365.480469 289 365.253906 289.230469 365.027344 C 289.457031 364.796875 289.707031 364.523438 289.980469 364.207031 C 290.253906 363.886719 290.507812 363.589844 290.734375 363.316406 C 290.960938 363.042969 291.191406 362.675781 291.417969 362.222656 C 291.648438 361.765625 291.851562 361.378906 292.035156 361.058594 C 292.214844 360.738281 292.332031 360.28125 292.375 359.691406 C 292.421875 359.097656 292.46875 358.59375 292.511719 358.183594 C 292.511719 356.222656 291.851562 354.558594 290.527344 353.191406 C 289.207031 351.824219 287.679688 350.957031 285.945312 350.59375 C 285.625 350.546875 284.875 350.523438 283.6875 350.523438 C 281.820312 350.523438 280.0625 351.117188 278.421875 352.300781 C 276.777344 353.488281 275.933594 354.96875 275.890625 356.75 C 275.890625 357.796875 276.1875 358.753906 276.777344 359.621094 C 277.371094 360.488281 277.964844 361.148438 278.558594 361.605469 C 279.152344 362.0625 280.289062 362.792969 281.976562 363.792969 C 282.296875 364.023438 282.546875 364.183594 282.730469 364.273438 Z M 284.234375 391.84375 C 286.878906 391.84375 289.160156 391.066406 291.078125 389.515625 C 292.992188 387.964844 293.949219 386.097656 293.949219 383.90625 C 293.949219 383.132812 293.835938 382.402344 293.609375 381.71875 C 293.378906 381.035156 293.105469 380.464844 292.785156 380.007812 C 292.46875 379.550781 291.964844 379.050781 291.28125 378.503906 C 290.597656 377.957031 290.074219 377.542969 289.707031 377.269531 C 289.34375 376.996094 288.683594 376.5625 287.722656 375.972656 C 286.765625 375.378906 286.152344 374.992188 285.878906 374.808594 C 285.238281 374.398438 284.554688 373.964844 283.824219 373.507812 C 283.09375 373.050781 282.503906 372.664062 282.046875 372.347656 L 281.5 372.003906 C 281.226562 372.003906 280.5625 372.390625 279.515625 373.167969 C 278.464844 373.941406 277.371094 375.195312 276.230469 376.929688 C 275.089844 378.664062 274.5 380.53125 274.453125 382.539062 C 274.453125 385.230469 275.433594 387.441406 277.394531 389.175781 C 279.355469 390.90625 281.636719 391.796875 284.234375 391.84375 Z M 284.234375 391.84375 " fill-opacity="1" fill-rule="nonzero"/><path fill="#000000" d="M 325.417969 373.644531 C 323.226562 377.113281 320.492188 378.84375 317.207031 378.84375 C 313.652344 378.84375 310.734375 377.5 308.453125 374.808594 C 306.171875 372.117188 304.804688 369.246094 304.347656 366.1875 C 304.257812 365.460938 304.210938 364.546875 304.210938 363.453125 L 304.210938 362.90625 C 304.210938 358.664062 305.785156 354.96875 308.929688 351.824219 C 311.667969 349.085938 314.675781 347.71875 317.960938 347.71875 C 318.050781 347.71875 318.1875 347.71875 318.371094 347.71875 C 318.554688 347.71875 318.734375 347.742188 318.917969 347.785156 L 319.191406 347.785156 C 319.738281 347.785156 320.308594 347.832031 320.902344 347.925781 C 321.496094 348.015625 322.339844 348.289062 323.433594 348.746094 C 324.527344 349.199219 325.601562 349.929688 326.648438 350.933594 C 327.699219 351.9375 328.679688 353.28125 329.589844 354.96875 C 331.550781 358.984375 332.53125 364.136719 332.53125 370.429688 C 332.53125 376.816406 331.164062 382.21875 328.425781 386.644531 C 326.832031 389.195312 324.914062 391.179688 322.679688 392.59375 C 320.445312 394.007812 318.074219 394.738281 315.566406 394.785156 C 312.785156 394.785156 310.503906 394.121094 308.726562 392.800781 C 306.945312 391.476562 306.035156 389.515625 305.988281 386.917969 C 305.945312 384.316406 307.152344 383.039062 309.613281 383.085938 C 310.617188 383.085938 311.460938 383.40625 312.144531 384.042969 C 312.832031 384.683594 313.171875 385.570312 313.171875 386.710938 C 313.171875 387.53125 312.96875 388.238281 312.558594 388.832031 C 312.144531 389.425781 311.78125 389.789062 311.460938 389.925781 C 311.144531 390.0625 310.847656 390.175781 310.574219 390.269531 L 310.300781 390.335938 C 310.300781 390.429688 310.457031 390.566406 310.777344 390.746094 C 311.097656 390.929688 311.691406 391.15625 312.558594 391.433594 C 313.421875 391.707031 314.382812 391.820312 315.429688 391.773438 L 315.839844 391.773438 C 318.578125 391.773438 320.878906 390.3125 322.75 387.394531 C 324.527344 384.839844 325.417969 380.417969 325.417969 374.125 Z M 318.03125 376.3125 C 320.21875 376.3125 321.972656 375.195312 323.296875 372.960938 C 324.621094 370.726562 325.304688 367.695312 325.347656 363.863281 C 325.347656 360.304688 325.167969 357.75 324.800781 356.203125 C 324.710938 355.746094 324.574219 355.289062 324.390625 354.832031 C 324.210938 354.378906 323.890625 353.785156 323.433594 353.054688 C 322.976562 352.324219 322.292969 351.710938 321.382812 351.207031 C 320.46875 350.707031 319.398438 350.476562 318.167969 350.523438 C 316.433594 350.523438 314.949219 351.140625 313.71875 352.371094 C 312.761719 353.375 312.144531 354.558594 311.871094 355.925781 C 311.597656 357.296875 311.4375 359.691406 311.394531 363.109375 C 311.394531 366.894531 311.507812 369.449219 311.734375 370.773438 C 311.964844 372.09375 312.421875 373.167969 313.105469 373.988281 C 314.246094 375.539062 315.886719 376.3125 318.03125 376.3125 Z M 318.03125 376.3125 " fill-opacity="1" fill-rule="nonzero"/><path fill="#000000" d="M 393.839844 391.292969 C 393.839844 392.207031 393.359375 392.664062 392.402344 392.664062 C 392.175781 392.664062 391.671875 392.296875 390.898438 391.570312 C 390.121094 390.839844 387.980469 388.71875 384.46875 385.207031 L 377.351562 378.09375 L 370.171875 385.273438 C 365.335938 390.019531 362.851562 392.433594 362.714844 392.527344 C 362.53125 392.617188 362.371094 392.664062 362.234375 392.664062 C 361.871094 392.664062 361.550781 392.527344 361.277344 392.253906 C 361.003906 391.980469 360.84375 391.660156 360.796875 391.292969 C 360.796875 390.976562 361.117188 390.472656 361.757812 389.789062 C 362.394531 389.105469 364.539062 386.941406 368.1875 383.292969 L 375.300781 376.175781 L 368.1875 369.0625 C 364.492188 365.367188 362.347656 363.203125 361.757812 362.5625 C 361.164062 361.925781 360.84375 361.421875 360.796875 361.058594 C 360.796875 360.648438 360.933594 360.328125 361.207031 360.101562 C 361.484375 359.871094 361.824219 359.757812 362.234375 359.757812 C 362.464844 359.757812 362.621094 359.78125 362.714844 359.828125 C 362.851562 359.917969 365.335938 362.335938 370.171875 367.078125 L 377.351562 374.261719 L 384.46875 367.148438 C 387.980469 363.636719 390.121094 361.515625 390.898438 360.785156 C 391.671875 360.054688 392.175781 359.691406 392.402344 359.691406 C 393.359375 359.691406 393.839844 360.144531 393.839844 361.058594 C 393.839844 361.378906 393.613281 361.789062 393.15625 362.289062 C 392.699219 362.792969 390.464844 365.027344 386.453125 368.992188 L 379.335938 376.175781 L 386.453125 383.359375 C 390.28125 387.191406 392.472656 389.402344 393.019531 389.996094 C 393.566406 390.589844 393.839844 391.019531 393.839844 391.292969 Z M 393.839844 391.292969 " fill-opacity="1" fill-rule="nonzero"/><path fill="#000000" d="M 433.734375 353.738281 L 432.847656 354.082031 C 432.207031 354.308594 431.296875 354.535156 430.109375 354.765625 C 428.925781 354.992188 427.601562 355.152344 426.140625 355.242188 L 424.84375 355.242188 L 424.84375 352.097656 L 426.140625 352.097656 C 428.285156 352.003906 430.269531 351.664062 432.09375 351.070312 C 433.917969 350.476562 435.195312 349.929688 435.925781 349.429688 C 436.652344 348.925781 437.292969 348.425781 437.839844 347.925781 C 437.929688 347.785156 438.203125 347.71875 438.660156 347.71875 C 439.070312 347.71875 439.460938 347.855469 439.824219 348.128906 L 439.824219 368.582031 L 439.890625 389.105469 C 440.210938 389.425781 440.484375 389.628906 440.714844 389.722656 C 440.941406 389.8125 441.488281 389.902344 442.355469 389.996094 C 443.222656 390.085938 444.636719 390.132812 446.597656 390.132812 L 448.375 390.132812 L 448.375 393.277344 L 447.621094 393.277344 C 446.664062 393.140625 443.039062 393.074219 436.746094 393.074219 C 430.542969 393.074219 426.964844 393.140625 426.003906 393.277344 L 425.183594 393.277344 L 425.183594 390.132812 L 426.964844 390.132812 C 427.964844 390.132812 428.832031 390.132812 429.5625 390.132812 C 430.292969 390.132812 430.863281 390.109375 431.273438 390.0625 C 431.683594 390.019531 432.046875 389.949219 432.367188 389.859375 C 432.6875 389.765625 432.867188 389.722656 432.914062 389.722656 C 432.960938 389.722656 433.097656 389.609375 433.324219 389.378906 C 433.554688 389.152344 433.691406 389.058594 433.734375 389.105469 Z M 433.734375 353.738281 " fill-opacity="1" fill-rule="nonzero"/><path fill="#000000" d="M 459.9375 353.261719 C 462.488281 349.566406 465.980469 347.71875 470.402344 347.71875 C 472.589844 347.71875 474.78125 348.3125 476.96875 349.496094 C 479.160156 350.683594 480.9375 352.78125 482.304688 355.789062 C 483.992188 359.574219 484.835938 364.773438 484.835938 371.386719 C 484.835938 378.457031 483.855469 383.859375 481.894531 387.601562 C 480.984375 389.515625 479.730469 391.042969 478.132812 392.183594 C 476.535156 393.324219 475.144531 394.03125 473.960938 394.304688 C 472.773438 394.578125 471.609375 394.738281 470.472656 394.785156 C 469.285156 394.785156 468.097656 394.648438 466.914062 394.375 C 465.726562 394.101562 464.335938 393.371094 462.742188 392.183594 C 461.144531 391 459.890625 389.46875 458.976562 387.601562 C 457.015625 383.859375 456.035156 378.457031 456.035156 371.386719 C 456.035156 363.453125 457.335938 357.410156 459.9375 353.261719 Z M 475.328125 352.4375 C 473.960938 350.980469 472.339844 350.25 470.472656 350.25 C 468.554688 350.25 466.914062 350.980469 465.546875 352.4375 C 464.40625 353.625 463.652344 355.265625 463.289062 357.363281 C 462.921875 359.460938 462.742188 363.839844 462.742188 370.5 C 462.742188 377.703125 462.921875 382.449219 463.289062 384.726562 C 463.652344 387.007812 464.472656 388.808594 465.75 390.132812 C 467.027344 391.5 468.601562 392.183594 470.472656 392.183594 C 472.296875 392.183594 473.84375 391.5 475.121094 390.132812 C 476.445312 388.765625 477.265625 386.847656 477.585938 384.386719 C 477.90625 381.921875 478.085938 377.292969 478.132812 370.5 C 478.132812 363.886719 477.949219 359.53125 477.585938 357.433594 C 477.21875 355.335938 476.46875 353.671875 475.328125 352.4375 Z M 475.328125 352.4375 " fill-opacity="1" fill-rule="nonzero"/><path fill="#000000" d="M 493.894531 353.5625 C 493.894531 353.5625 493.894531 353.355469 493.894531 352.933594 C 493.894531 352.515625 494.117188 352.191406 494.570312 351.96875 L 522.671875 351.96875 C 523.152344 352.226562 523.394531 352.546875 523.394531 352.933594 C 523.394531 353.320312 523.152344 353.644531 522.671875 353.902344 L 494.570312 353.902344 C 494.117188 353.675781 493.894531 353.355469 493.894531 352.933594 Z M 493.894531 353.5625 " fill-opacity="1" fill-rule="nonzero"/><g clip-path="url(#2f72bc7d4a)"><path fill="#000000" d="M 532.730469 344.277344 C 531.859375 344.277344 531.167969 343.988281 530.648438 343.40625 C 530.132812 342.828125 529.875 342.117188 529.875 341.277344 C 529.875 338.988281 530.730469 337.007812 532.441406 335.332031 C 534.148438 333.652344 536.277344 332.816406 538.824219 332.816406 C 541.757812 332.816406 544.207031 333.71875 546.175781 335.523438 C 548.140625 337.328125 549.140625 339.667969 549.175781 342.535156 C 549.175781 343.921875 548.851562 345.246094 548.207031 346.503906 C 547.5625 347.761719 546.789062 348.855469 545.886719 349.792969 C 544.980469 350.726562 543.691406 351.917969 542.015625 353.371094 C 540.855469 354.371094 539.242188 355.851562 537.179688 357.820312 L 534.324219 360.527344 L 538 360.578125 C 543.0625 360.578125 545.757812 360.496094 546.078125 360.335938 C 546.304688 360.269531 546.691406 358.835938 547.238281 356.03125 L 547.238281 355.886719 L 549.175781 355.886719 L 549.175781 356.03125 C 549.140625 356.125 548.933594 357.59375 548.546875 360.429688 C 548.160156 363.269531 547.917969 364.753906 547.820312 364.882812 L 547.820312 365.027344 L 529.875 365.027344 L 529.875 363.527344 C 529.875 363.300781 529.972656 363.058594 530.167969 362.800781 C 530.359375 362.542969 530.84375 361.980469 531.617188 361.109375 C 532.550781 360.078125 533.359375 359.175781 534.035156 358.398438 C 534.324219 358.078125 534.875 357.480469 535.679688 356.609375 C 536.484375 355.738281 537.035156 355.144531 537.324219 354.820312 C 537.613281 354.5 538.082031 353.964844 538.726562 353.226562 C 539.371094 352.484375 539.824219 351.933594 540.082031 351.582031 C 540.339844 351.226562 540.710938 350.742188 541.195312 350.128906 C 541.675781 349.515625 542.015625 349 542.210938 348.582031 C 542.402344 348.164062 542.644531 347.695312 542.933594 347.179688 C 543.226562 346.664062 543.433594 346.148438 543.5625 345.632812 C 543.691406 345.117188 543.804688 344.632812 543.902344 344.179688 C 544 343.730469 544.046875 343.199219 544.046875 342.585938 C 544.046875 340.554688 543.5 338.796875 542.402344 337.3125 C 541.308594 335.828125 539.742188 335.089844 537.710938 335.089844 C 536.648438 335.089844 535.710938 335.363281 534.90625 335.910156 C 534.101562 336.457031 533.535156 336.992188 533.214844 337.507812 C 532.890625 338.023438 532.730469 338.328125 532.730469 338.425781 C 532.730469 338.457031 532.8125 338.472656 532.972656 338.472656 C 533.550781 338.472656 534.148438 338.699219 534.761719 339.152344 C 535.375 339.601562 535.679688 340.34375 535.679688 341.375 C 535.679688 342.183594 535.421875 342.859375 534.90625 343.40625 C 534.390625 343.957031 533.664062 344.246094 532.730469 344.277344 Z M 532.730469 344.277344 " fill-opacity="1" fill-rule="nonzero"/></g><g clip-path="url(#f0b4315910)"><path fill="#000000" d="M 575.9375 376.140625 C 575.9375 394.203125 570.554688 407.882812 559.792969 417.1875 L 558.902344 417.1875 C 558.308594 417.1875 557.921875 417.140625 557.738281 417.050781 C 557.558594 416.960938 557.464844 416.753906 557.464844 416.433594 C 557.558594 416.207031 558.128906 415.5 559.175781 414.3125 C 560.226562 413.128906 561.320312 411.578125 562.460938 409.664062 C 563.601562 407.746094 564.785156 405.398438 566.015625 402.617188 C 567.25 399.835938 568.25 396.117188 569.027344 391.464844 C 569.800781 386.8125 570.191406 381.730469 570.191406 376.210938 C 570.191406 370.691406 569.800781 365.609375 569.027344 360.957031 C 568.25 356.304688 567.25 352.585938 566.015625 349.804688 C 564.785156 347.023438 563.601562 344.652344 562.460938 342.691406 C 561.320312 340.730469 560.226562 339.203125 559.175781 338.105469 C 558.128906 337.011719 557.558594 336.28125 557.464844 335.917969 C 557.464844 335.417969 557.808594 335.164062 558.492188 335.164062 L 559.792969 335.164062 C 565.628906 340.046875 569.894531 346.523438 572.585938 354.59375 C 574.820312 361.023438 575.9375 368.207031 575.9375 376.140625 Z M 575.9375 376.140625 " fill-opacity="1" fill-rule="nonzero"/></g><path fill="#000000" d="M 644.699219 391.292969 C 644.699219 392.207031 644.222656 392.664062 643.265625 392.664062 C 643.035156 392.664062 642.535156 392.296875 641.757812 391.570312 C 640.984375 390.839844 638.839844 388.71875 635.328125 385.207031 L 628.214844 378.09375 L 621.03125 385.273438 C 616.195312 390.019531 613.710938 392.433594 613.574219 392.527344 C 613.390625 392.617188 613.230469 392.664062 613.09375 392.664062 C 612.730469 392.664062 612.410156 392.527344 612.136719 392.253906 C 611.863281 391.980469 611.703125 391.660156 611.660156 391.292969 C 611.660156 390.976562 611.976562 390.472656 612.617188 389.789062 C 613.253906 389.105469 615.398438 386.941406 619.046875 383.292969 L 626.160156 376.175781 L 619.046875 369.0625 C 615.351562 365.367188 613.210938 363.203125 612.617188 362.5625 C 612.023438 361.925781 611.703125 361.421875 611.660156 361.058594 C 611.660156 360.648438 611.796875 360.328125 612.070312 360.101562 C 612.34375 359.871094 612.683594 359.757812 613.09375 359.757812 C 613.324219 359.757812 613.484375 359.78125 613.574219 359.828125 C 613.710938 359.917969 616.195312 362.335938 621.03125 367.078125 L 628.214844 374.261719 L 635.328125 367.148438 C 638.839844 363.636719 640.984375 361.515625 641.757812 360.785156 C 642.535156 360.054688 643.035156 359.691406 643.265625 359.691406 C 644.222656 359.691406 644.699219 360.144531 644.699219 361.058594 C 644.699219 361.378906 644.472656 361.789062 644.015625 362.289062 C 643.558594 362.792969 641.324219 365.027344 637.3125 368.992188 L 630.199219 376.175781 L 637.3125 383.359375 C 641.144531 387.191406 643.332031 389.402344 643.878906 389.996094 C 644.425781 390.589844 644.699219 391.019531 644.699219 391.292969 Z M 644.699219 391.292969 " fill-opacity="1" fill-rule="nonzero"/><path fill="#000000" d="M 678.71875 361.605469 C 677.488281 361.605469 676.53125 361.21875 675.847656 360.441406 C 675.164062 359.667969 674.796875 358.664062 674.753906 357.433594 C 674.753906 354.925781 675.847656 352.691406 678.035156 350.730469 C 680.226562 348.769531 682.871094 347.785156 685.972656 347.785156 C 687.566406 347.785156 688.570312 347.808594 688.980469 347.855469 C 692.355469 348.402344 694.933594 349.613281 696.710938 351.480469 C 698.488281 353.351562 699.402344 355.378906 699.449219 357.570312 C 699.449219 359.941406 698.671875 362.242188 697.121094 364.480469 C 695.570312 366.714844 693.425781 368.332031 690.691406 369.335938 L 690.484375 369.472656 C 690.484375 369.519531 690.691406 369.585938 691.101562 369.679688 C 691.511719 369.769531 692.171875 369.972656 693.085938 370.292969 C 693.996094 370.613281 694.863281 371.089844 695.683594 371.730469 C 699.425781 374.148438 701.292969 377.339844 701.292969 381.308594 C 701.292969 384.910156 699.882812 388.058594 697.054688 390.746094 C 694.226562 393.4375 690.644531 394.785156 686.3125 394.785156 C 682.664062 394.785156 679.519531 393.804688 676.871094 391.84375 C 674.226562 389.882812 672.90625 387.394531 672.90625 384.386719 C 672.90625 383.109375 673.316406 382.082031 674.136719 381.308594 C 674.957031 380.53125 675.984375 380.121094 677.214844 380.074219 C 678.492188 380.074219 679.539062 380.488281 680.363281 381.308594 C 681.183594 382.128906 681.59375 383.152344 681.59375 384.386719 C 681.59375 384.886719 681.523438 385.34375 681.386719 385.753906 C 681.25 386.164062 681.089844 386.527344 680.910156 386.847656 C 680.726562 387.167969 680.476562 387.441406 680.15625 387.667969 C 679.835938 387.898438 679.5625 388.078125 679.335938 388.214844 C 679.109375 388.351562 678.878906 388.445312 678.652344 388.488281 C 678.421875 388.535156 678.242188 388.605469 678.105469 388.695312 L 677.832031 388.765625 C 680.15625 390.816406 682.984375 391.84375 686.3125 391.84375 C 688.820312 391.84375 690.714844 390.632812 691.992188 388.214844 C 692.765625 386.710938 693.152344 384.410156 693.152344 381.308594 L 693.152344 379.9375 C 693.152344 375.605469 691.695312 372.710938 688.777344 371.25 C 688.09375 370.976562 686.699219 370.816406 684.601562 370.773438 L 681.730469 370.703125 L 681.523438 370.566406 C 681.433594 370.429688 681.386719 370.066406 681.386719 369.472656 C 681.386719 368.652344 681.570312 368.242188 681.933594 368.242188 C 683.210938 368.242188 684.535156 368.128906 685.902344 367.898438 C 687.453125 367.671875 688.867188 366.714844 690.144531 365.027344 C 691.421875 363.339844 692.058594 360.785156 692.058594 357.363281 L 692.058594 356.816406 C 692.058594 354.21875 691.261719 352.417969 689.664062 351.414062 C 688.660156 350.773438 687.589844 350.453125 686.449219 350.453125 C 684.992188 350.453125 683.644531 350.707031 682.414062 351.207031 C 681.183594 351.710938 680.316406 352.234375 679.8125 352.78125 C 679.3125 353.328125 679.0625 353.601562 679.0625 353.601562 L 679.265625 353.601562 C 679.402344 353.648438 679.585938 353.691406 679.8125 353.738281 C 680.042969 353.785156 680.269531 353.898438 680.5 354.082031 C 680.726562 354.261719 681 354.421875 681.320312 354.558594 C 681.636719 354.695312 681.867188 354.945312 682.003906 355.3125 C 682.140625 355.675781 682.324219 356.019531 682.550781 356.339844 C 682.777344 356.65625 682.847656 357.113281 682.757812 357.707031 C 682.757812 358.710938 682.4375 359.597656 681.796875 360.375 C 681.160156 361.148438 680.132812 361.558594 678.71875 361.605469 Z M 678.71875 361.605469 " fill-opacity="1" fill-rule="nonzero"/></svg>