<svg xmlns="http://www.w3.org/2000/svg" xmlns:xlink="http://www.w3.org/1999/xlink" width="1000" zoomAndPan="magnify" viewBox="0 0 750 749.999995" height="1000" preserveAspectRatio="xMidYMid meet" version="1.0"><defs><clipPath id="239df0ef88"><path d="M 44 340 L 64 340 L 64 420.480469 L 44 420.480469 Z M 44 340 " clip-rule="nonzero"/></clipPath><clipPath id="51facef9ae"><path d="M 513 329.519531 L 539 329.519531 L 539 368 L 513 368 Z M 513 329.519531 " clip-rule="nonzero"/></clipPath><clipPath id="20a1a63607"><path d="M 548 340 L 568 340 L 568 420.480469 L 548 420.480469 Z M 548 340 " clip-rule="nonzero"/></clipPath></defs><rect x="-75" width="900" fill="#ffffff" y="-74.999999" height="899.999994" fill-opacity="1"/><rect x="-75" width="900" fill="#ffffff" y="-74.999999" height="899.999994" fill-opacity="1"/><g clip-path="url(#239df0ef88)"><path fill="#000000" d="M 44.972656 380.632812 C 44.972656 376.976562 45.238281 373.503906 45.769531 370.214844 C 46.300781 366.929688 46.910156 364.09375 47.597656 361.707031 C 48.289062 359.320312 49.269531 356.988281 50.539062 354.707031 C 51.8125 352.429688 52.820312 350.652344 53.5625 349.378906 C 54.304688 348.109375 55.417969 346.730469 56.902344 345.246094 C 58.386719 343.761719 59.261719 342.859375 59.527344 342.542969 C 59.792969 342.222656 60.453125 341.667969 61.515625 340.871094 L 62.867188 340.871094 C 63.609375 340.871094 63.980469 341.109375 63.980469 341.585938 C 63.980469 341.746094 63.527344 342.300781 62.628906 343.257812 C 61.726562 344.210938 60.640625 345.617188 59.367188 347.472656 C 58.09375 349.328125 56.796875 351.605469 55.472656 354.3125 C 54.144531 357.015625 53.03125 360.671875 52.132812 365.285156 C 51.230469 369.898438 50.777344 375.015625 50.777344 380.632812 C 50.777344 386.253906 51.230469 391.34375 52.132812 395.902344 C 53.03125 400.464844 54.117188 404.148438 55.390625 406.957031 C 56.664062 409.769531 57.960938 412.046875 59.289062 413.796875 C 60.613281 415.546875 61.726562 416.953125 62.628906 418.011719 C 63.527344 419.074219 63.980469 419.628906 63.980469 419.683594 C 63.980469 420.160156 63.582031 420.398438 62.785156 420.398438 L 61.515625 420.398438 L 59.289062 418.488281 C 54.304688 413.984375 50.671875 408.363281 48.394531 401.628906 C 46.113281 394.894531 44.972656 387.898438 44.972656 380.632812 Z M 44.972656 380.632812 " fill-opacity="1" fill-rule="nonzero"/></g><path fill="#000000" d="M 76.066406 353.992188 C 79.035156 349.699219 83.089844 347.550781 88.230469 347.550781 C 90.777344 347.550781 93.320312 348.242188 95.863281 349.617188 C 98.410156 350.996094 100.476562 353.4375 102.066406 356.933594 C 104.027344 361.335938 105.007812 367.378906 105.007812 375.066406 C 105.007812 383.285156 103.871094 389.566406 101.589844 393.914062 C 100.53125 396.140625 99.074219 397.917969 97.21875 399.242188 C 95.363281 400.570312 93.746094 401.390625 92.367188 401.707031 C 90.988281 402.027344 89.636719 402.210938 88.3125 402.265625 C 86.933594 402.265625 85.554688 402.105469 84.175781 401.789062 C 82.796875 401.46875 81.179688 400.621094 79.324219 399.242188 C 77.46875 397.863281 76.011719 396.089844 74.953125 393.914062 C 72.671875 389.566406 71.53125 383.285156 71.53125 375.066406 C 71.53125 365.84375 73.042969 358.816406 76.066406 353.992188 Z M 93.957031 353.039062 C 92.367188 351.34375 90.484375 350.492188 88.3125 350.492188 C 86.085938 350.492188 84.175781 351.34375 82.585938 353.039062 C 81.261719 354.417969 80.386719 356.324219 79.960938 358.765625 C 79.539062 361.203125 79.324219 366.292969 79.324219 374.035156 C 79.324219 382.410156 79.539062 387.925781 79.960938 390.574219 C 80.386719 393.226562 81.339844 395.320312 82.824219 396.859375 C 84.308594 398.449219 86.136719 399.242188 88.3125 399.242188 C 90.429688 399.242188 92.234375 398.449219 93.71875 396.859375 C 95.253906 395.265625 96.210938 393.039062 96.582031 390.175781 C 96.953125 387.316406 97.164062 381.933594 97.21875 374.035156 C 97.21875 366.347656 97.003906 361.28125 96.582031 358.84375 C 96.15625 356.40625 95.28125 354.46875 93.957031 353.039062 Z M 93.957031 353.039062 " fill-opacity="1" fill-rule="nonzero"/><path fill="#000000" d="M 114.390625 395.746094 C 114.390625 394.472656 114.84375 393.359375 115.746094 392.40625 C 116.644531 391.449219 117.785156 390.972656 119.164062 390.972656 C 120.4375 390.972656 121.550781 391.398438 122.503906 392.246094 C 123.457031 393.09375 123.960938 394.234375 124.015625 395.664062 C 124.015625 396.992188 123.5625 398.128906 122.664062 399.085938 C 121.761719 400.039062 120.621094 400.515625 119.242188 400.515625 C 117.863281 400.515625 116.726562 400.066406 115.824219 399.164062 C 114.921875 398.261719 114.445312 397.121094 114.390625 395.746094 Z M 114.390625 395.746094 " fill-opacity="1" fill-rule="nonzero"/><path fill="#000000" d="M 137.929688 353.992188 C 140.898438 349.699219 144.953125 347.550781 150.09375 347.550781 C 152.640625 347.550781 155.183594 348.242188 157.730469 349.617188 C 160.273438 350.996094 162.339844 353.4375 163.929688 356.933594 C 165.894531 361.335938 166.875 367.378906 166.875 375.066406 C 166.875 383.285156 165.734375 389.566406 163.453125 393.914062 C 162.394531 396.140625 160.9375 397.917969 159.082031 399.242188 C 157.226562 400.570312 155.609375 401.390625 154.230469 401.707031 C 152.851562 402.027344 151.5 402.210938 150.175781 402.265625 C 148.796875 402.265625 147.417969 402.105469 146.039062 401.789062 C 144.660156 401.46875 143.042969 400.621094 141.191406 399.242188 C 139.335938 397.863281 137.875 396.089844 136.816406 393.914062 C 134.535156 389.566406 133.398438 383.285156 133.398438 375.066406 C 133.398438 365.84375 134.90625 358.816406 137.929688 353.992188 Z M 155.820312 353.039062 C 154.230469 351.34375 152.347656 350.492188 150.175781 350.492188 C 147.949219 350.492188 146.039062 351.34375 144.449219 353.039062 C 143.125 354.417969 142.25 356.324219 141.824219 358.765625 C 141.402344 361.203125 141.191406 366.292969 141.191406 374.035156 C 141.191406 382.410156 141.402344 387.925781 141.824219 390.574219 C 142.25 393.226562 143.203125 395.320312 144.6875 396.859375 C 146.171875 398.449219 148 399.242188 150.175781 399.242188 C 152.296875 399.242188 154.097656 398.449219 155.582031 396.859375 C 157.121094 395.265625 158.074219 393.039062 158.445312 390.175781 C 158.816406 387.316406 159.027344 381.933594 159.082031 374.035156 C 159.082031 366.347656 158.867188 361.28125 158.445312 358.84375 C 158.019531 356.40625 157.144531 354.46875 155.820312 353.039062 Z M 155.820312 353.039062 " fill-opacity="1" fill-rule="nonzero"/><path fill="#000000" d="M 177.6875 353.992188 C 180.65625 349.699219 184.710938 347.550781 189.855469 347.550781 C 192.398438 347.550781 194.941406 348.242188 197.488281 349.617188 C 200.03125 350.996094 202.097656 353.4375 203.691406 356.933594 C 205.652344 361.335938 206.632812 367.378906 206.632812 375.066406 C 206.632812 383.285156 205.492188 389.566406 203.210938 393.914062 C 202.152344 396.140625 200.695312 397.917969 198.839844 399.242188 C 196.984375 400.570312 195.367188 401.390625 193.988281 401.707031 C 192.609375 402.027344 191.257812 402.210938 189.933594 402.265625 C 188.554688 402.265625 187.175781 402.105469 185.796875 401.789062 C 184.421875 401.46875 182.804688 400.621094 180.949219 399.242188 C 179.09375 397.863281 177.632812 396.089844 176.574219 393.914062 C 174.292969 389.566406 173.15625 383.285156 173.15625 375.066406 C 173.15625 365.84375 174.664062 358.816406 177.6875 353.992188 Z M 195.578125 353.039062 C 193.988281 351.34375 192.105469 350.492188 189.933594 350.492188 C 187.707031 350.492188 185.796875 351.34375 184.207031 353.039062 C 182.882812 354.417969 182.007812 356.324219 181.582031 358.765625 C 181.160156 361.203125 180.949219 366.292969 180.949219 374.035156 C 180.949219 382.410156 181.160156 387.925781 181.582031 390.574219 C 182.007812 393.226562 182.960938 395.320312 184.445312 396.859375 C 185.929688 398.449219 187.757812 399.242188 189.933594 399.242188 C 192.054688 399.242188 193.855469 398.449219 195.339844 396.859375 C 196.878906 395.265625 197.832031 393.039062 198.203125 390.175781 C 198.574219 387.316406 198.785156 381.933594 198.839844 374.035156 C 198.839844 366.347656 198.625 361.28125 198.203125 358.84375 C 197.777344 356.40625 196.902344 354.46875 195.578125 353.039062 Z M 195.578125 353.039062 " fill-opacity="1" fill-rule="nonzero"/><path fill="#000000" d="M 215.378906 367.355469 C 215.378906 367.355469 215.378906 365.3125 215.378906 361.230469 C 215.378906 357.148438 216.808594 353.859375 219.671875 351.367188 C 222.535156 348.875 225.820312 347.605469 229.53125 347.550781 C 233.296875 347.550781 236.636719 348.664062 239.550781 350.890625 C 242.46875 353.117188 243.925781 356.007812 243.925781 359.558594 C 243.925781 361.152344 243.632812 362.636719 243.050781 364.011719 C 242.46875 365.390625 241.777344 366.503906 240.984375 367.355469 C 240.1875 368.203125 239.367188 368.945312 238.519531 369.582031 C 237.667969 370.214844 236.980469 370.695312 236.449219 371.011719 C 235.921875 371.328125 235.628906 371.542969 235.574219 371.648438 L 236.6875 372.363281 C 237.429688 372.894531 238.171875 373.425781 238.914062 373.953125 C 239.65625 374.484375 240.082031 374.777344 240.1875 374.828125 C 244.164062 377.957031 246.152344 381.90625 246.152344 386.679688 C 246.152344 390.867188 244.613281 394.5 241.539062 397.574219 C 238.464844 400.648438 234.488281 402.210938 229.613281 402.265625 C 224.839844 402.265625 220.917969 400.914062 217.84375 398.210938 C 214.769531 395.507812 213.230469 392.164062 213.230469 388.191406 C 213.230469 382.464844 216.652344 377.691406 223.488281 373.875 L 222.058594 372.839844 C 220.945312 372.152344 220.230469 371.621094 219.910156 371.25 C 216.890625 368.652344 215.378906 365.3125 215.378906 361.230469 Z M 232.554688 369.820312 L 233.03125 369.5 C 233.347656 369.289062 233.585938 369.128906 233.746094 369.023438 C 233.90625 368.917969 234.171875 368.730469 234.542969 368.46875 C 234.914062 368.203125 235.230469 367.9375 235.496094 367.671875 C 235.761719 367.40625 236.050781 367.089844 236.371094 366.71875 C 236.6875 366.347656 236.980469 366 237.246094 365.683594 C 237.511719 365.367188 237.777344 364.941406 238.039062 364.410156 C 238.304688 363.878906 238.542969 363.429688 238.757812 363.058594 C 238.96875 362.6875 239.101562 362.15625 239.152344 361.46875 C 239.207031 360.78125 239.261719 360.195312 239.3125 359.71875 C 239.3125 357.4375 238.542969 355.503906 237.007812 353.914062 C 235.46875 352.324219 233.695312 351.316406 231.679688 350.890625 C 231.308594 350.839844 230.433594 350.8125 229.054688 350.8125 C 226.882812 350.8125 224.839844 351.5 222.933594 352.878906 C 221.023438 354.257812 220.042969 355.980469 219.992188 358.050781 C 219.992188 359.269531 220.335938 360.382812 221.023438 361.390625 C 221.714844 362.394531 222.402344 363.164062 223.089844 363.695312 C 223.78125 364.226562 225.105469 365.074219 227.066406 366.238281 C 227.4375 366.503906 227.730469 366.691406 227.941406 366.796875 Z M 229.691406 398.847656 C 232.765625 398.847656 235.417969 397.945312 237.644531 396.140625 C 239.871094 394.339844 240.984375 392.164062 240.984375 389.621094 C 240.984375 388.71875 240.851562 387.871094 240.585938 387.074219 C 240.320312 386.28125 240.003906 385.617188 239.632812 385.089844 C 239.261719 384.558594 238.675781 383.972656 237.882812 383.339844 C 237.085938 382.703125 236.476562 382.226562 236.050781 381.90625 C 235.628906 381.589844 234.859375 381.085938 233.746094 380.394531 C 232.632812 379.707031 231.917969 379.257812 231.601562 379.042969 C 230.859375 378.566406 230.0625 378.0625 229.214844 377.53125 C 228.367188 377.003906 227.675781 376.550781 227.148438 376.179688 L 226.511719 375.785156 C 226.191406 375.785156 225.425781 376.234375 224.203125 377.136719 C 222.984375 378.035156 221.714844 379.496094 220.386719 381.507812 C 219.0625 383.523438 218.375 385.699219 218.320312 388.03125 C 218.320312 391.160156 219.460938 393.730469 221.738281 395.746094 C 224.019531 397.757812 226.667969 398.792969 229.691406 398.847656 Z M 229.691406 398.847656 " fill-opacity="1" fill-rule="nonzero"/><path fill="#000000" d="M 266.507812 354.550781 L 265.472656 354.949219 C 264.730469 355.210938 263.671875 355.476562 262.292969 355.742188 C 260.914062 356.007812 259.378906 356.191406 257.679688 356.300781 L 256.171875 356.300781 L 256.171875 352.640625 L 257.679688 352.640625 C 260.171875 352.535156 262.480469 352.136719 264.597656 351.449219 C 266.71875 350.757812 268.203125 350.121094 269.050781 349.539062 C 269.898438 348.957031 270.640625 348.375 271.277344 347.789062 C 271.382812 347.632812 271.703125 347.550781 272.234375 347.550781 C 272.710938 347.550781 273.160156 347.710938 273.585938 348.027344 L 273.585938 371.808594 L 273.664062 395.664062 C 274.035156 396.035156 274.351562 396.273438 274.617188 396.378906 C 274.882812 396.488281 275.519531 396.59375 276.527344 396.699219 C 277.535156 396.804688 279.175781 396.859375 281.457031 396.859375 L 283.523438 396.859375 L 283.523438 400.515625 L 282.648438 400.515625 C 281.535156 400.355469 277.320312 400.277344 270.007812 400.277344 C 262.796875 400.277344 258.636719 400.355469 257.523438 400.515625 L 256.566406 400.515625 L 256.566406 396.859375 L 258.636719 396.859375 C 259.800781 396.859375 260.808594 396.859375 261.65625 396.859375 C 262.503906 396.859375 263.167969 396.832031 263.644531 396.777344 C 264.121094 396.726562 264.546875 396.644531 264.917969 396.539062 C 265.289062 396.433594 265.5 396.378906 265.554688 396.378906 C 265.605469 396.378906 265.765625 396.25 266.03125 395.984375 C 266.296875 395.71875 266.453125 395.613281 266.507812 395.664062 Z M 266.507812 354.550781 " fill-opacity="1" fill-rule="nonzero"/><path fill="#000000" d="M 357.09375 398.210938 C 357.09375 399.269531 356.535156 399.800781 355.421875 399.800781 C 355.15625 399.800781 354.574219 399.375 353.671875 398.527344 C 352.773438 397.679688 350.28125 395.214844 346.199219 391.132812 L 337.929688 382.859375 L 329.578125 391.210938 C 323.960938 396.726562 321.070312 399.535156 320.914062 399.640625 C 320.699219 399.746094 320.515625 399.800781 320.355469 399.800781 C 319.933594 399.800781 319.5625 399.640625 319.242188 399.324219 C 318.925781 399.003906 318.738281 398.632812 318.6875 398.210938 C 318.6875 397.839844 319.058594 397.253906 319.800781 396.460938 C 320.542969 395.664062 323.03125 393.148438 327.273438 388.90625 L 335.542969 380.632812 L 327.273438 372.363281 C 322.980469 368.070312 320.488281 365.550781 319.800781 364.808594 C 319.109375 364.066406 318.738281 363.484375 318.6875 363.058594 C 318.6875 362.582031 318.84375 362.210938 319.164062 361.945312 C 319.480469 361.679688 319.878906 361.546875 320.355469 361.546875 C 320.621094 361.546875 320.808594 361.574219 320.914062 361.628906 C 321.070312 361.734375 323.960938 364.542969 329.578125 370.058594 L 337.929688 378.40625 L 346.199219 370.136719 C 350.28125 366.054688 352.773438 363.589844 353.671875 362.742188 C 354.574219 361.894531 355.15625 361.46875 355.421875 361.46875 C 356.535156 361.46875 357.09375 362 357.09375 363.058594 C 357.09375 363.429688 356.828125 363.90625 356.296875 364.492188 C 355.765625 365.074219 353.171875 367.671875 348.503906 372.285156 L 340.234375 380.632812 L 348.503906 388.984375 C 352.957031 393.4375 355.503906 396.007812 356.136719 396.699219 C 356.773438 397.386719 357.09375 397.890625 357.09375 398.210938 Z M 357.09375 398.210938 " fill-opacity="1" fill-rule="nonzero"/><path fill="#000000" d="M 403.464844 354.550781 L 402.433594 354.949219 C 401.691406 355.210938 400.628906 355.476562 399.253906 355.742188 C 397.875 356.007812 396.335938 356.191406 394.640625 356.300781 L 393.128906 356.300781 L 393.128906 352.640625 L 394.640625 352.640625 C 397.132812 352.535156 399.4375 352.136719 401.558594 351.449219 C 403.679688 350.757812 405.164062 350.121094 406.011719 349.539062 C 406.859375 348.957031 407.601562 348.375 408.238281 347.789062 C 408.34375 347.632812 408.660156 347.550781 409.191406 347.550781 C 409.667969 347.550781 410.121094 347.710938 410.542969 348.027344 L 410.542969 371.808594 L 410.625 395.664062 C 410.996094 396.035156 411.3125 396.273438 411.578125 396.378906 C 411.84375 396.488281 412.480469 396.59375 413.484375 396.699219 C 414.492188 396.804688 416.136719 396.859375 418.414062 396.859375 L 420.484375 396.859375 L 420.484375 400.515625 L 419.609375 400.515625 C 418.496094 400.355469 414.28125 400.277344 406.964844 400.277344 C 399.757812 400.277344 395.59375 400.355469 394.480469 400.515625 L 393.527344 400.515625 L 393.527344 396.859375 L 395.59375 396.859375 C 396.761719 396.859375 397.769531 396.859375 398.617188 396.859375 C 399.464844 396.859375 400.128906 396.832031 400.605469 396.777344 C 401.082031 396.726562 401.503906 396.644531 401.875 396.539062 C 402.246094 396.433594 402.460938 396.378906 402.511719 396.378906 C 402.566406 396.378906 402.722656 396.25 402.988281 395.984375 C 403.253906 395.71875 403.414062 395.613281 403.464844 395.664062 Z M 403.464844 354.550781 " fill-opacity="1" fill-rule="nonzero"/><path fill="#000000" d="M 433.921875 353.992188 C 436.890625 349.699219 440.945312 347.550781 446.085938 347.550781 C 448.632812 347.550781 451.175781 348.242188 453.722656 349.617188 C 456.265625 350.996094 458.332031 353.4375 459.921875 356.933594 C 461.886719 361.335938 462.867188 367.378906 462.867188 375.066406 C 462.867188 383.285156 461.726562 389.566406 459.445312 393.914062 C 458.386719 396.140625 456.929688 397.917969 455.074219 399.242188 C 453.21875 400.570312 451.601562 401.390625 450.222656 401.707031 C 448.84375 402.027344 447.492188 402.210938 446.167969 402.265625 C 444.789062 402.265625 443.410156 402.105469 442.03125 401.789062 C 440.652344 401.46875 439.039062 400.621094 437.183594 399.242188 C 435.328125 397.863281 433.867188 396.089844 432.808594 393.914062 C 430.527344 389.566406 429.390625 383.285156 429.390625 375.066406 C 429.390625 365.84375 430.898438 358.816406 433.921875 353.992188 Z M 451.8125 353.039062 C 450.222656 351.34375 448.339844 350.492188 446.167969 350.492188 C 443.941406 350.492188 442.03125 351.34375 440.441406 353.039062 C 439.117188 354.417969 438.242188 356.324219 437.816406 358.765625 C 437.394531 361.203125 437.183594 366.292969 437.183594 374.035156 C 437.183594 382.410156 437.394531 387.925781 437.816406 390.574219 C 438.242188 393.226562 439.195312 395.320312 440.679688 396.859375 C 442.164062 398.449219 443.992188 399.242188 446.167969 399.242188 C 448.289062 399.242188 450.089844 398.449219 451.574219 396.859375 C 453.113281 395.265625 454.066406 393.039062 454.4375 390.175781 C 454.808594 387.316406 455.019531 381.933594 455.074219 374.035156 C 455.074219 366.347656 454.859375 361.28125 454.4375 358.84375 C 454.011719 356.40625 453.136719 354.46875 451.8125 353.039062 Z M 451.8125 353.039062 " fill-opacity="1" fill-rule="nonzero"/><path fill="#000000" d="M 473.394531 354.347656 C 473.394531 354.347656 473.394531 354.101562 473.394531 353.617188 C 473.394531 353.128906 473.65625 352.753906 474.179688 352.492188 L 506.84375 352.492188 C 507.40625 352.789062 507.6875 353.164062 507.6875 353.617188 C 507.6875 354.066406 507.40625 354.441406 506.84375 354.738281 L 474.179688 354.738281 C 473.65625 354.476562 473.394531 354.101562 473.394531 353.617188 Z M 473.394531 354.347656 " fill-opacity="1" fill-rule="nonzero"/><g clip-path="url(#51facef9ae)"><path fill="#000000" d="M 538.378906 367.671875 C 537.707031 367.558594 535.289062 367.503906 531.128906 367.503906 C 526.78125 367.503906 524.269531 367.558594 523.59375 367.671875 L 523.089844 367.671875 L 523.089844 365.085938 L 524.832031 365.085938 C 525.582031 365.085938 526.085938 365.085938 526.351562 365.085938 C 526.613281 365.085938 526.929688 365.046875 527.304688 364.972656 C 527.679688 364.898438 527.941406 364.804688 528.09375 364.691406 C 528.242188 364.578125 528.375 364.429688 528.488281 364.242188 C 528.523438 364.167969 528.542969 363.15625 528.542969 361.207031 L 528.542969 358.394531 L 513.980469 358.394531 L 513.980469 355.808594 L 522.472656 342.820312 C 528.207031 334.125 531.109375 329.757812 531.183594 329.71875 C 531.261719 329.644531 531.652344 329.605469 532.367188 329.605469 L 533.378906 329.605469 L 533.714844 329.945312 L 533.714844 355.808594 L 538.886719 355.808594 L 538.886719 358.394531 L 533.714844 358.394531 L 533.714844 361.261719 C 533.714844 362.796875 533.714844 363.699219 533.714844 363.960938 C 533.714844 364.222656 533.828125 364.449219 534.050781 364.636719 C 534.351562 364.898438 535.421875 365.046875 537.257812 365.085938 L 538.886719 365.085938 L 538.886719 367.671875 Z M 528.878906 355.808594 L 528.878906 337.027344 L 516.566406 355.75 L 522.695312 355.808594 Z M 528.878906 355.808594 " fill-opacity="1" fill-rule="nonzero"/></g><g clip-path="url(#20a1a63607)"><path fill="#000000" d="M 549.277344 340.949219 L 549.59375 340.871094 C 549.859375 340.871094 550.125 340.871094 550.390625 340.871094 L 551.34375 340.871094 L 553.570312 342.78125 C 558.554688 347.285156 562.183594 352.90625 564.464844 359.640625 C 566.742188 366.371094 567.882812 373.371094 567.882812 380.632812 C 567.882812 384.238281 567.617188 387.710938 567.085938 391.050781 C 566.558594 394.390625 565.949219 397.230469 565.257812 399.5625 C 564.570312 401.894531 563.589844 404.226562 562.316406 406.558594 C 561.042969 408.894531 560.039062 410.667969 559.296875 411.886719 C 558.554688 413.109375 557.464844 414.460938 556.035156 415.945312 C 554.605469 417.429688 553.753906 418.304688 553.492188 418.570312 C 553.226562 418.832031 552.617188 419.335938 551.660156 420.078125 C 551.503906 420.238281 551.398438 420.34375 551.34375 420.398438 L 550.390625 420.398438 C 549.964844 420.398438 549.671875 420.398438 549.515625 420.398438 C 549.355469 420.398438 549.222656 420.316406 549.117188 420.160156 C 549.011719 420 548.929688 419.761719 548.878906 419.445312 C 548.929688 419.390625 549.222656 419.046875 549.753906 418.410156 C 557.96875 409.875 562.078125 397.28125 562.078125 380.632812 C 562.078125 363.988281 557.96875 351.394531 549.753906 342.859375 C 549.222656 342.222656 548.929688 341.878906 548.878906 341.824219 C 548.878906 341.402344 549.011719 341.109375 549.277344 340.949219 Z M 549.277344 340.949219 " fill-opacity="1" fill-rule="nonzero"/></g><path fill="#000000" d="M 643.199219 398.210938 C 643.199219 399.269531 642.644531 399.800781 641.53125 399.800781 C 641.265625 399.800781 640.683594 399.375 639.78125 398.527344 C 638.878906 397.679688 636.390625 395.214844 632.308594 391.132812 L 624.039062 382.859375 L 615.6875 391.210938 C 610.070312 396.726562 607.179688 399.535156 607.019531 399.640625 C 606.808594 399.746094 606.625 399.800781 606.464844 399.800781 C 606.039062 399.800781 605.667969 399.640625 605.351562 399.324219 C 605.03125 399.003906 604.847656 398.632812 604.792969 398.210938 C 604.792969 397.839844 605.164062 397.253906 605.90625 396.460938 C 606.648438 395.664062 609.140625 393.148438 613.382812 388.90625 L 621.652344 380.632812 L 613.382812 372.363281 C 609.089844 368.070312 606.597656 365.550781 605.90625 364.808594 C 605.21875 364.066406 604.847656 363.484375 604.792969 363.058594 C 604.792969 362.582031 604.953125 362.210938 605.273438 361.945312 C 605.589844 361.679688 605.988281 361.546875 606.464844 361.546875 C 606.730469 361.546875 606.914062 361.574219 607.019531 361.628906 C 607.179688 361.734375 610.070312 364.542969 615.6875 370.058594 L 624.039062 378.40625 L 632.308594 370.136719 C 636.390625 366.054688 638.878906 363.589844 639.78125 362.742188 C 640.683594 361.894531 641.265625 361.46875 641.53125 361.46875 C 642.644531 361.46875 643.199219 362 643.199219 363.058594 C 643.199219 363.429688 642.9375 363.90625 642.40625 364.492188 C 641.875 365.074219 639.277344 367.671875 634.613281 372.285156 L 626.34375 380.632812 L 634.613281 388.984375 C 639.066406 393.4375 641.609375 396.007812 642.246094 396.699219 C 642.882812 397.386719 643.199219 397.890625 643.199219 398.210938 Z M 643.199219 398.210938 " fill-opacity="1" fill-rule="nonzero"/><path fill="#000000" d="M 677.019531 364.09375 C 677.074219 363.988281 677.523438 361.097656 678.371094 355.425781 L 679.644531 346.914062 C 679.644531 346.808594 680.171875 346.757812 681.234375 346.757812 L 682.824219 346.757812 L 682.824219 347.074219 C 682.824219 347.605469 683.222656 348.054688 684.015625 348.425781 C 684.8125 348.796875 686.191406 349.035156 688.152344 349.140625 C 690.113281 349.246094 694.59375 349.300781 701.589844 349.300781 L 711.210938 349.300781 L 711.210938 352.402344 L 705.804688 359.796875 C 705.328125 360.433594 704.53125 361.496094 703.417969 362.980469 C 702.304688 364.464844 701.589844 365.445312 701.273438 365.921875 C 700.953125 366.398438 700.398438 367.246094 699.601562 368.46875 C 698.808594 369.6875 698.277344 370.640625 698.011719 371.328125 C 697.746094 372.019531 697.375 373 696.898438 374.273438 C 696.421875 375.542969 696.078125 376.765625 695.863281 377.929688 C 695.652344 379.097656 695.441406 380.527344 695.230469 382.226562 C 695.015625 383.921875 694.859375 385.722656 694.75 387.632812 C 694.644531 389.542969 694.566406 391.714844 694.511719 394.152344 C 694.511719 394.894531 694.511719 395.636719 694.511719 396.378906 C 694.511719 397.121094 694.488281 397.757812 694.433594 398.289062 L 694.433594 399.003906 C 694.222656 399.90625 693.71875 400.675781 692.921875 401.3125 C 692.128906 401.949219 691.226562 402.265625 690.21875 402.265625 C 689.636719 402.265625 689.078125 402.1875 688.550781 402.027344 C 688.019531 401.867188 687.460938 401.363281 686.878906 400.515625 C 686.296875 399.667969 686.003906 398.609375 686.003906 397.335938 C 686.003906 388.957031 688.574219 380.261719 693.71875 371.25 C 694.777344 369.554688 697.003906 366.347656 700.398438 361.628906 L 704.054688 356.617188 L 696.660156 356.617188 C 687.4375 356.617188 682.585938 356.777344 682.109375 357.09375 C 681.789062 357.253906 681.5 357.890625 681.234375 359.003906 C 680.96875 360.117188 680.703125 361.257812 680.4375 362.421875 L 680.199219 364.09375 L 680.199219 364.332031 L 677.019531 364.332031 Z M 677.019531 364.09375 " fill-opacity="1" fill-rule="nonzero"/></svg>