<svg xmlns="http://www.w3.org/2000/svg" xmlns:xlink="http://www.w3.org/1999/xlink" width="1000" zoomAndPan="magnify" viewBox="0 0 750 749.999995" height="1000" preserveAspectRatio="xMidYMid meet" version="1.0"><defs><g/><clipPath id="a7e47c58ec"><path d="M 131.195312 131.15625 L 618.695312 131.15625 L 618.695312 618.652344 L 131.195312 618.652344 Z M 131.195312 131.15625 " clip-rule="nonzero"/></clipPath></defs><rect x="-75" width="900" fill="#ffffff" y="-74.999999" height="899.999994" fill-opacity="1"/><rect x="-75" width="900" fill="#ffffff" y="-74.999999" height="899.999994" fill-opacity="1"/><rect x="-75" width="900" fill="#ffffff" y="-74.999999" height="899.999994" fill-opacity="1"/><g clip-path="url(#a7e47c58ec)"><path stroke-linecap="butt" transform="matrix(0.749838, 0, 0, 0.749712, 131.193527, 131.157801)" fill="none" stroke-linejoin="miter" d="M 0.00238164 -0.00206854 L 650.143031 -0.00206854 L 650.143031 650.242782 L 0.00238164 650.242782 L 0.00238164 -0.00206854 " stroke="#000000" stroke-width="8" stroke-opacity="1" stroke-miterlimit="4"/></g><g fill="#000000" fill-opacity="1"><g transform="translate(278.182361, 689.999986)"><g><path d="M 15.71875 -23.921875 C 13.445312 -23.921875 11.6875 -23.066406 10.4375 -21.359375 C 9.1875 -19.648438 8.5625 -17.265625 8.5625 -14.203125 C 8.5625 -7.835938 10.945312 -4.65625 15.71875 -4.65625 C 17.726562 -4.65625 20.160156 -5.15625 23.015625 -6.15625 L 23.015625 -1.078125 C 20.671875 -0.0976562 18.050781 0.390625 15.15625 0.390625 C 11 0.390625 7.820312 -0.867188 5.625 -3.390625 C 3.425781 -5.910156 2.328125 -9.523438 2.328125 -14.234375 C 2.328125 -17.203125 2.863281 -19.800781 3.9375 -22.03125 C 5.019531 -24.269531 6.570312 -25.984375 8.59375 -27.171875 C 10.625 -28.367188 13 -28.96875 15.71875 -28.96875 C 18.5 -28.96875 21.285156 -28.296875 24.078125 -26.953125 L 22.125 -22.03125 C 21.0625 -22.539062 19.988281 -22.984375 18.90625 -23.359375 C 17.820312 -23.734375 16.757812 -23.921875 15.71875 -23.921875 Z M 15.71875 -23.921875 "/></g></g></g><g fill="#000000" fill-opacity="1"><g transform="translate(303.668157, 689.999986)"><g><path d="M 18.59375 0 L 17.796875 -2.796875 L 17.484375 -2.796875 C 16.847656 -1.773438 15.941406 -0.988281 14.765625 -0.4375 C 13.597656 0.113281 12.265625 0.390625 10.765625 0.390625 C 8.203125 0.390625 6.269531 -0.296875 4.96875 -1.671875 C 3.664062 -3.046875 3.015625 -5.019531 3.015625 -7.59375 L 3.015625 -21.84375 L 8.96875 -21.84375 L 8.96875 -9.078125 C 8.96875 -7.503906 9.242188 -6.320312 9.796875 -5.53125 C 10.359375 -4.75 11.253906 -4.359375 12.484375 -4.359375 C 14.148438 -4.359375 15.351562 -4.914062 16.09375 -6.03125 C 16.832031 -7.144531 17.203125 -8.988281 17.203125 -11.5625 L 17.203125 -21.84375 L 23.171875 -21.84375 L 23.171875 0 Z M 18.59375 0 "/></g></g></g><g fill="#000000" fill-opacity="1"><g transform="translate(329.954651, 689.999986)"><g><path d="M 17 0 L 15.84375 -2.96875 L 15.6875 -2.96875 C 14.6875 -1.707031 13.65625 -0.832031 12.59375 -0.34375 C 11.53125 0.144531 10.144531 0.390625 8.4375 0.390625 C 6.34375 0.390625 4.691406 -0.207031 3.484375 -1.40625 C 2.285156 -2.601562 1.6875 -4.3125 1.6875 -6.53125 C 1.6875 -8.84375 2.492188 -10.546875 4.109375 -11.640625 C 5.734375 -12.742188 8.179688 -13.359375 11.453125 -13.484375 L 15.234375 -13.59375 L 15.234375 -14.546875 C 15.234375 -16.765625 14.101562 -17.875 11.84375 -17.875 C 10.09375 -17.875 8.039062 -17.347656 5.6875 -16.296875 L 3.71875 -20.3125 C 6.226562 -21.625 9.015625 -22.28125 12.078125 -22.28125 C 15.003906 -22.28125 17.25 -21.640625 18.8125 -20.359375 C 20.375 -19.085938 21.15625 -17.148438 21.15625 -14.546875 L 21.15625 0 Z M 15.234375 -10.125 L 12.9375 -10.046875 C 11.195312 -9.992188 9.90625 -9.679688 9.0625 -9.109375 C 8.21875 -8.535156 7.796875 -7.660156 7.796875 -6.484375 C 7.796875 -4.804688 8.757812 -3.96875 10.6875 -3.96875 C 12.0625 -3.96875 13.160156 -4.363281 13.984375 -5.15625 C 14.816406 -5.945312 15.234375 -7.003906 15.234375 -8.328125 Z M 15.234375 -10.125 "/></g></g></g><g fill="#000000" fill-opacity="1"><g transform="translate(354.112452, 689.999986)"><g><path d="M 10.046875 0.390625 C 7.472656 0.390625 5.453125 -0.601562 3.984375 -2.59375 C 2.523438 -4.59375 1.796875 -7.351562 1.796875 -10.875 C 1.796875 -14.457031 2.539062 -17.25 4.03125 -19.25 C 5.519531 -21.25 7.578125 -22.25 10.203125 -22.25 C 12.941406 -22.25 15.035156 -21.179688 16.484375 -19.046875 L 16.6875 -19.046875 C 16.382812 -20.671875 16.234375 -22.125 16.234375 -23.40625 L 16.234375 -30.390625 L 22.203125 -30.390625 L 22.203125 0 L 17.640625 0 L 16.484375 -2.828125 L 16.234375 -2.828125 C 14.878906 -0.679688 12.816406 0.390625 10.046875 0.390625 Z M 12.125 -4.359375 C 13.65625 -4.359375 14.773438 -4.800781 15.484375 -5.6875 C 16.191406 -6.570312 16.578125 -8.078125 16.640625 -10.203125 L 16.640625 -10.84375 C 16.640625 -13.1875 16.273438 -14.863281 15.546875 -15.875 C 14.828125 -16.894531 13.65625 -17.40625 12.03125 -17.40625 C 10.707031 -17.40625 9.675781 -16.84375 8.9375 -15.71875 C 8.195312 -14.59375 7.828125 -12.953125 7.828125 -10.796875 C 7.828125 -8.648438 8.195312 -7.039062 8.9375 -5.96875 C 9.6875 -4.894531 10.75 -4.359375 12.125 -4.359375 Z M 12.125 -4.359375 "/></g></g></g><g fill="#000000" fill-opacity="1"><g transform="translate(379.422479, 689.999986)"><g><path d="M 15.3125 -22.25 C 16.125 -22.25 16.796875 -22.191406 17.328125 -22.078125 L 16.875 -16.484375 C 16.394531 -16.617188 15.8125 -16.6875 15.125 -16.6875 C 13.21875 -16.6875 11.734375 -16.195312 10.671875 -15.21875 C 9.609375 -14.238281 9.078125 -12.867188 9.078125 -11.109375 L 9.078125 0 L 3.125 0 L 3.125 -21.84375 L 7.640625 -21.84375 L 8.515625 -18.171875 L 8.8125 -18.171875 C 9.488281 -19.390625 10.398438 -20.375 11.546875 -21.125 C 12.703125 -21.875 13.957031 -22.25 15.3125 -22.25 Z M 15.3125 -22.25 "/></g></g></g><g fill="#000000" fill-opacity="1"><g transform="translate(397.584767, 689.999986)"><g><path d="M 17 0 L 15.84375 -2.96875 L 15.6875 -2.96875 C 14.6875 -1.707031 13.65625 -0.832031 12.59375 -0.34375 C 11.53125 0.144531 10.144531 0.390625 8.4375 0.390625 C 6.34375 0.390625 4.691406 -0.207031 3.484375 -1.40625 C 2.285156 -2.601562 1.6875 -4.3125 1.6875 -6.53125 C 1.6875 -8.84375 2.492188 -10.546875 4.109375 -11.640625 C 5.734375 -12.742188 8.179688 -13.359375 11.453125 -13.484375 L 15.234375 -13.59375 L 15.234375 -14.546875 C 15.234375 -16.765625 14.101562 -17.875 11.84375 -17.875 C 10.09375 -17.875 8.039062 -17.347656 5.6875 -16.296875 L 3.71875 -20.3125 C 6.226562 -21.625 9.015625 -22.28125 12.078125 -22.28125 C 15.003906 -22.28125 17.25 -21.640625 18.8125 -20.359375 C 20.375 -19.085938 21.15625 -17.148438 21.15625 -14.546875 L 21.15625 0 Z M 15.234375 -10.125 L 12.9375 -10.046875 C 11.195312 -9.992188 9.90625 -9.679688 9.0625 -9.109375 C 8.21875 -8.535156 7.796875 -7.660156 7.796875 -6.484375 C 7.796875 -4.804688 8.757812 -3.96875 10.6875 -3.96875 C 12.0625 -3.96875 13.160156 -4.363281 13.984375 -5.15625 C 14.816406 -5.945312 15.234375 -7.003906 15.234375 -8.328125 Z M 15.234375 -10.125 "/></g></g></g><g fill="#000000" fill-opacity="1"><g transform="translate(421.742568, 689.999986)"><g><path d="M 10.046875 0.390625 C 7.472656 0.390625 5.453125 -0.601562 3.984375 -2.59375 C 2.523438 -4.59375 1.796875 -7.351562 1.796875 -10.875 C 1.796875 -14.457031 2.539062 -17.25 4.03125 -19.25 C 5.519531 -21.25 7.578125 -22.25 10.203125 -22.25 C 12.941406 -22.25 15.035156 -21.179688 16.484375 -19.046875 L 16.6875 -19.046875 C 16.382812 -20.671875 16.234375 -22.125 16.234375 -23.40625 L 16.234375 -30.390625 L 22.203125 -30.390625 L 22.203125 0 L 17.640625 0 L 16.484375 -2.828125 L 16.234375 -2.828125 C 14.878906 -0.679688 12.816406 0.390625 10.046875 0.390625 Z M 12.125 -4.359375 C 13.65625 -4.359375 14.773438 -4.800781 15.484375 -5.6875 C 16.191406 -6.570312 16.578125 -8.078125 16.640625 -10.203125 L 16.640625 -10.84375 C 16.640625 -13.1875 16.273438 -14.863281 15.546875 -15.875 C 14.828125 -16.894531 13.65625 -17.40625 12.03125 -17.40625 C 10.707031 -17.40625 9.675781 -16.84375 8.9375 -15.71875 C 8.195312 -14.59375 7.828125 -12.953125 7.828125 -10.796875 C 7.828125 -8.648438 8.195312 -7.039062 8.9375 -5.96875 C 9.6875 -4.894531 10.75 -4.359375 12.125 -4.359375 Z M 12.125 -4.359375 "/></g></g></g><g fill="#000000" fill-opacity="1"><g transform="translate(447.052595, 689.999986)"><g><path d="M 7.875 -10.953125 C 7.875 -8.796875 8.226562 -7.160156 8.9375 -6.046875 C 9.644531 -4.941406 10.800781 -4.390625 12.40625 -4.390625 C 13.988281 -4.390625 15.128906 -4.941406 15.828125 -6.046875 C 16.523438 -7.148438 16.875 -8.785156 16.875 -10.953125 C 16.875 -13.117188 16.519531 -14.738281 15.8125 -15.8125 C 15.113281 -16.894531 13.960938 -17.4375 12.359375 -17.4375 C 10.773438 -17.4375 9.628906 -16.898438 8.921875 -15.828125 C 8.222656 -14.753906 7.875 -13.128906 7.875 -10.953125 Z M 22.96875 -10.953125 C 22.96875 -7.398438 22.03125 -4.617188 20.15625 -2.609375 C 18.28125 -0.609375 15.671875 0.390625 12.328125 0.390625 C 10.234375 0.390625 8.382812 -0.0664062 6.78125 -0.984375 C 5.175781 -1.898438 3.941406 -3.21875 3.078125 -4.9375 C 2.222656 -6.65625 1.796875 -8.660156 1.796875 -10.953125 C 1.796875 -14.523438 2.726562 -17.300781 4.59375 -19.28125 C 6.457031 -21.257812 9.070312 -22.25 12.4375 -22.25 C 14.539062 -22.25 16.390625 -21.789062 17.984375 -20.875 C 19.585938 -19.96875 20.816406 -18.660156 21.671875 -16.953125 C 22.535156 -15.242188 22.96875 -13.242188 22.96875 -10.953125 Z M 22.96875 -10.953125 "/></g></g></g><g fill="#000000" fill-opacity="1"><g transform="translate(357.260482, 127.35005)"><g><path d="M 31.4375 0 L 23.390625 0 L 23.390625 -17.21875 C 23.390625 -19.34375 23.007812 -20.9375 22.25 -22 C 21.5 -23.0625 20.296875 -23.59375 18.640625 -23.59375 C 16.390625 -23.59375 14.765625 -22.84375 13.765625 -21.34375 C 12.765625 -19.84375 12.265625 -17.351562 12.265625 -13.875 L 12.265625 0 L 4.21875 0 L 4.21875 -29.484375 L 10.359375 -29.484375 L 11.4375 -25.703125 L 11.890625 -25.703125 C 12.785156 -27.128906 14.019531 -28.207031 15.59375 -28.9375 C 17.164062 -29.664062 18.957031 -30.03125 20.96875 -30.03125 C 24.394531 -30.03125 26.992188 -29.101562 28.765625 -27.25 C 30.546875 -25.394531 31.4375 -22.71875 31.4375 -19.21875 Z M 31.4375 0 "/></g></g></g></svg>