<svg xmlns="http://www.w3.org/2000/svg" xmlns:xlink="http://www.w3.org/1999/xlink" width="1000" zoomAndPan="magnify" viewBox="0 0 750 749.999995" height="1000" preserveAspectRatio="xMidYMid meet" version="1.0"><defs><g/><clipPath id="5a56e3a567"><path d="M 101.558594 138.132812 L 648.308594 138.132812 L 648.308594 612.132812 L 101.558594 612.132812 Z M 101.558594 138.132812 " clip-rule="nonzero"/></clipPath></defs><rect x="-75" width="900" fill="#ffffff" y="-74.999999" height="899.999994" fill-opacity="1"/><rect x="-75" width="900" fill="#ffffff" y="-74.999999" height="899.999994" fill-opacity="1"/><g clip-path="url(#5a56e3a567)"><path fill="#000000" d="M 648.308594 612.066406 L 101.558594 612.066406 L 374.933594 138.199219 Z M 126.820312 597.511719 L 623.050781 597.511719 L 374.933594 167.417969 Z M 126.820312 597.511719 " fill-opacity="1" fill-rule="nonzero"/></g><g fill="#000000" fill-opacity="1"><g transform="translate(171.651726, 689.999986)"><g><path d="M 14.609375 0 L 8.5625 0 L 8.5625 -23.515625 L 0.796875 -23.515625 L 0.796875 -28.5625 L 22.359375 -28.5625 L 22.359375 -23.515625 L 14.609375 -23.515625 Z M 14.609375 0 "/></g></g></g><g fill="#000000" fill-opacity="1"><g transform="translate(194.813526, 689.999986)"><g><path d="M 15.3125 -22.25 C 16.125 -22.25 16.796875 -22.191406 17.328125 -22.078125 L 16.875 -16.484375 C 16.394531 -16.617188 15.8125 -16.6875 15.125 -16.6875 C 13.21875 -16.6875 11.734375 -16.195312 10.671875 -15.21875 C 9.609375 -14.238281 9.078125 -12.867188 9.078125 -11.109375 L 9.078125 0 L 3.125 0 L 3.125 -21.84375 L 7.640625 -21.84375 L 8.515625 -18.171875 L 8.8125 -18.171875 C 9.488281 -19.390625 10.398438 -20.375 11.546875 -21.125 C 12.703125 -21.875 13.957031 -22.25 15.3125 -22.25 Z M 15.3125 -22.25 "/></g></g></g><g fill="#000000" fill-opacity="1"><g transform="translate(212.975814, 689.999986)"><g><path d="M 2.875 -27.484375 C 2.875 -29.421875 3.953125 -30.390625 6.109375 -30.390625 C 8.273438 -30.390625 9.359375 -29.421875 9.359375 -27.484375 C 9.359375 -26.554688 9.085938 -25.832031 8.546875 -25.3125 C 8.003906 -24.800781 7.191406 -24.546875 6.109375 -24.546875 C 3.953125 -24.546875 2.875 -25.523438 2.875 -27.484375 Z M 9.078125 0 L 3.125 0 L 3.125 -21.84375 L 9.078125 -21.84375 Z M 9.078125 0 "/></g></g></g><g fill="#000000" fill-opacity="1"><g transform="translate(225.181658, 689.999986)"><g><path d="M 17 0 L 15.84375 -2.96875 L 15.6875 -2.96875 C 14.6875 -1.707031 13.65625 -0.832031 12.59375 -0.34375 C 11.53125 0.144531 10.144531 0.390625 8.4375 0.390625 C 6.34375 0.390625 4.691406 -0.207031 3.484375 -1.40625 C 2.285156 -2.601562 1.6875 -4.3125 1.6875 -6.53125 C 1.6875 -8.84375 2.492188 -10.546875 4.109375 -11.640625 C 5.734375 -12.742188 8.179688 -13.359375 11.453125 -13.484375 L 15.234375 -13.59375 L 15.234375 -14.546875 C 15.234375 -16.765625 14.101562 -17.875 11.84375 -17.875 C 10.09375 -17.875 8.039062 -17.347656 5.6875 -16.296875 L 3.71875 -20.3125 C 6.226562 -21.625 9.015625 -22.28125 12.078125 -22.28125 C 15.003906 -22.28125 17.25 -21.640625 18.8125 -20.359375 C 20.375 -19.085938 21.15625 -17.148438 21.15625 -14.546875 L 21.15625 0 Z M 15.234375 -10.125 L 12.9375 -10.046875 C 11.195312 -9.992188 9.90625 -9.679688 9.0625 -9.109375 C 8.21875 -8.535156 7.796875 -7.660156 7.796875 -6.484375 C 7.796875 -4.804688 8.757812 -3.96875 10.6875 -3.96875 C 12.0625 -3.96875 13.160156 -4.363281 13.984375 -5.15625 C 14.816406 -5.945312 15.234375 -7.003906 15.234375 -8.328125 Z M 8.609375 -24.234375 L 8.609375 -24.765625 C 10.847656 -27.367188 12.378906 -29.328125 13.203125 -30.640625 L 19.875 -30.640625 L 19.875 -30.234375 C 19.195312 -29.554688 18.039062 -28.550781 16.40625 -27.21875 C 14.78125 -25.882812 13.503906 -24.890625 12.578125 -24.234375 Z M 8.609375 -24.234375 "/></g></g></g><g fill="#000000" fill-opacity="1"><g transform="translate(249.339459, 689.999986)"><g><path d="M 23.28125 0 L 17.328125 0 L 17.328125 -12.75 C 17.328125 -14.332031 17.046875 -15.515625 16.484375 -16.296875 C 15.921875 -17.085938 15.03125 -17.484375 13.8125 -17.484375 C 12.144531 -17.484375 10.9375 -16.925781 10.1875 -15.8125 C 9.445312 -14.695312 9.078125 -12.851562 9.078125 -10.28125 L 9.078125 0 L 3.125 0 L 3.125 -21.84375 L 7.671875 -21.84375 L 8.484375 -19.046875 L 8.8125 -19.046875 C 9.476562 -20.097656 10.390625 -20.894531 11.546875 -21.4375 C 12.710938 -21.976562 14.039062 -22.25 15.53125 -22.25 C 18.070312 -22.25 20 -21.5625 21.3125 -20.1875 C 22.625 -18.8125 23.28125 -16.828125 23.28125 -14.234375 Z M 23.28125 0 "/></g></g></g><g fill="#000000" fill-opacity="1"><g transform="translate(275.625953, 689.999986)"><g><path d="M 22.125 -21.84375 L 22.125 -18.8125 L 18.71875 -17.9375 C 19.34375 -16.957031 19.65625 -15.863281 19.65625 -14.65625 C 19.65625 -12.3125 18.835938 -10.484375 17.203125 -9.171875 C 15.566406 -7.859375 13.296875 -7.203125 10.390625 -7.203125 L 9.3125 -7.265625 L 8.4375 -7.359375 C 7.820312 -6.890625 7.515625 -6.367188 7.515625 -5.796875 C 7.515625 -4.941406 8.609375 -4.515625 10.796875 -4.515625 L 14.515625 -4.515625 C 16.910156 -4.515625 18.734375 -4 19.984375 -2.96875 C 21.242188 -1.9375 21.875 -0.425781 21.875 1.5625 C 21.875 4.113281 20.804688 6.09375 18.671875 7.5 C 16.546875 8.90625 13.492188 9.609375 9.515625 9.609375 C 6.460938 9.609375 4.132812 9.078125 2.53125 8.015625 C 0.925781 6.953125 0.125 5.46875 0.125 3.5625 C 0.125 2.238281 0.53125 1.132812 1.34375 0.25 C 2.164062 -0.632812 3.375 -1.265625 4.96875 -1.640625 C 4.351562 -1.898438 3.816406 -2.328125 3.359375 -2.921875 C 2.898438 -3.515625 2.671875 -4.144531 2.671875 -4.8125 C 2.671875 -5.644531 2.910156 -6.335938 3.390625 -6.890625 C 3.878906 -7.441406 4.578125 -7.984375 5.484375 -8.515625 C 4.335938 -9.015625 3.429688 -9.8125 2.765625 -10.90625 C 2.097656 -12 1.765625 -13.285156 1.765625 -14.765625 C 1.765625 -17.148438 2.535156 -18.992188 4.078125 -20.296875 C 5.628906 -21.597656 7.84375 -22.25 10.71875 -22.25 C 11.332031 -22.25 12.054688 -22.191406 12.890625 -22.078125 C 13.734375 -21.972656 14.273438 -21.894531 14.515625 -21.84375 Z M 5.28125 3.09375 C 5.28125 3.90625 5.671875 4.546875 6.453125 5.015625 C 7.242188 5.484375 8.347656 5.71875 9.765625 5.71875 C 11.898438 5.71875 13.570312 5.425781 14.78125 4.84375 C 16 4.257812 16.609375 3.457031 16.609375 2.4375 C 16.609375 1.625 16.25 1.0625 15.53125 0.75 C 14.8125 0.4375 13.703125 0.28125 12.203125 0.28125 L 9.125 0.28125 C 8.03125 0.28125 7.113281 0.535156 6.375 1.046875 C 5.644531 1.554688 5.28125 2.238281 5.28125 3.09375 Z M 7.4375 -14.6875 C 7.4375 -13.5 7.707031 -12.5625 8.25 -11.875 C 8.789062 -11.1875 9.613281 -10.84375 10.71875 -10.84375 C 11.84375 -10.84375 12.664062 -11.1875 13.1875 -11.875 C 13.707031 -12.5625 13.96875 -13.5 13.96875 -14.6875 C 13.96875 -17.320312 12.882812 -18.640625 10.71875 -18.640625 C 8.53125 -18.640625 7.4375 -17.320312 7.4375 -14.6875 Z M 7.4375 -14.6875 "/></g></g></g><g fill="#000000" fill-opacity="1"><g transform="translate(298.221407, 689.999986)"><g><path d="M 18.59375 0 L 17.796875 -2.796875 L 17.484375 -2.796875 C 16.847656 -1.773438 15.941406 -0.988281 14.765625 -0.4375 C 13.597656 0.113281 12.265625 0.390625 10.765625 0.390625 C 8.203125 0.390625 6.269531 -0.296875 4.96875 -1.671875 C 3.664062 -3.046875 3.015625 -5.019531 3.015625 -7.59375 L 3.015625 -21.84375 L 8.96875 -21.84375 L 8.96875 -9.078125 C 8.96875 -7.503906 9.242188 -6.320312 9.796875 -5.53125 C 10.359375 -4.75 11.253906 -4.359375 12.484375 -4.359375 C 14.148438 -4.359375 15.351562 -4.914062 16.09375 -6.03125 C 16.832031 -7.144531 17.203125 -8.988281 17.203125 -11.5625 L 17.203125 -21.84375 L 23.171875 -21.84375 L 23.171875 0 Z M 18.59375 0 "/></g></g></g><g fill="#000000" fill-opacity="1"><g transform="translate(324.507901, 689.999986)"><g><path d="M 9.078125 0 L 3.125 0 L 3.125 -30.390625 L 9.078125 -30.390625 Z M 9.078125 0 "/></g></g></g><g fill="#000000" fill-opacity="1"><g transform="translate(336.713745, 689.999986)"><g><path d="M 7.875 -10.953125 C 7.875 -8.796875 8.226562 -7.160156 8.9375 -6.046875 C 9.644531 -4.941406 10.800781 -4.390625 12.40625 -4.390625 C 13.988281 -4.390625 15.128906 -4.941406 15.828125 -6.046875 C 16.523438 -7.148438 16.875 -8.785156 16.875 -10.953125 C 16.875 -13.117188 16.519531 -14.738281 15.8125 -15.8125 C 15.113281 -16.894531 13.960938 -17.4375 12.359375 -17.4375 C 10.773438 -17.4375 9.628906 -16.898438 8.921875 -15.828125 C 8.222656 -14.753906 7.875 -13.128906 7.875 -10.953125 Z M 22.96875 -10.953125 C 22.96875 -7.398438 22.03125 -4.617188 20.15625 -2.609375 C 18.28125 -0.609375 15.671875 0.390625 12.328125 0.390625 C 10.234375 0.390625 8.382812 -0.0664062 6.78125 -0.984375 C 5.175781 -1.898438 3.941406 -3.21875 3.078125 -4.9375 C 2.222656 -6.65625 1.796875 -8.660156 1.796875 -10.953125 C 1.796875 -14.523438 2.726562 -17.300781 4.59375 -19.28125 C 6.457031 -21.257812 9.070312 -22.25 12.4375 -22.25 C 14.539062 -22.25 16.390625 -21.789062 17.984375 -20.875 C 19.585938 -19.96875 20.816406 -18.660156 21.671875 -16.953125 C 22.535156 -15.242188 22.96875 -13.242188 22.96875 -10.953125 Z M 22.96875 -10.953125 "/></g></g></g><g fill="#000000" fill-opacity="1"><g transform="translate(371.866561, 689.999986)"><g><path d="M 20.046875 0 L 3.59375 0 L 3.59375 -28.5625 L 20.046875 -28.5625 L 20.046875 -23.59375 L 9.65625 -23.59375 L 9.65625 -17.328125 L 19.3125 -17.328125 L 19.3125 -12.359375 L 9.65625 -12.359375 L 9.65625 -5 L 20.046875 -5 Z M 20.046875 0 "/></g></g></g><g fill="#000000" fill-opacity="1"><g transform="translate(394.266721, 689.999986)"><g><path d="M 12.171875 -4.28125 C 13.679688 -4.28125 14.785156 -4.710938 15.484375 -5.578125 C 16.191406 -6.441406 16.578125 -7.957031 16.640625 -10.125 L 16.640625 -10.84375 C 16.640625 -13.1875 16.273438 -14.863281 15.546875 -15.875 C 14.828125 -16.894531 13.671875 -17.40625 12.078125 -17.40625 C 9.273438 -17.40625 7.875 -15.203125 7.875 -10.796875 C 7.875 -8.609375 8.222656 -6.972656 8.921875 -5.890625 C 9.617188 -4.816406 10.703125 -4.28125 12.171875 -4.28125 Z M 10.046875 0.390625 C 7.460938 0.390625 5.441406 -0.597656 3.984375 -2.578125 C 2.523438 -4.566406 1.796875 -7.332031 1.796875 -10.875 C 1.796875 -14.445312 2.539062 -17.234375 4.03125 -19.234375 C 5.519531 -21.242188 7.5625 -22.25 10.15625 -22.25 C 11.539062 -22.25 12.742188 -21.988281 13.765625 -21.46875 C 14.796875 -20.945312 15.703125 -20.140625 16.484375 -19.046875 L 16.640625 -19.046875 L 17.171875 -21.84375 L 22.203125 -21.84375 L 22.203125 9.609375 L 16.234375 9.609375 L 16.234375 0.453125 C 16.234375 -0.347656 16.316406 -1.441406 16.484375 -2.828125 L 16.234375 -2.828125 C 15.597656 -1.773438 14.75 -0.972656 13.6875 -0.421875 C 12.632812 0.117188 11.421875 0.390625 10.046875 0.390625 Z M 10.046875 0.390625 "/></g></g></g><g fill="#000000" fill-opacity="1"><g transform="translate(419.576748, 689.999986)"><g><path d="M 18.59375 0 L 17.796875 -2.796875 L 17.484375 -2.796875 C 16.847656 -1.773438 15.941406 -0.988281 14.765625 -0.4375 C 13.597656 0.113281 12.265625 0.390625 10.765625 0.390625 C 8.203125 0.390625 6.269531 -0.296875 4.96875 -1.671875 C 3.664062 -3.046875 3.015625 -5.019531 3.015625 -7.59375 L 3.015625 -21.84375 L 8.96875 -21.84375 L 8.96875 -9.078125 C 8.96875 -7.503906 9.242188 -6.320312 9.796875 -5.53125 C 10.359375 -4.75 11.253906 -4.359375 12.484375 -4.359375 C 14.148438 -4.359375 15.351562 -4.914062 16.09375 -6.03125 C 16.832031 -7.144531 17.203125 -8.988281 17.203125 -11.5625 L 17.203125 -21.84375 L 23.171875 -21.84375 L 23.171875 0 Z M 18.59375 0 "/></g></g></g><g fill="#000000" fill-opacity="1"><g transform="translate(445.86323, 689.999986)"><g><path d="M 2.875 -27.484375 C 2.875 -29.421875 3.953125 -30.390625 6.109375 -30.390625 C 8.273438 -30.390625 9.359375 -29.421875 9.359375 -27.484375 C 9.359375 -26.554688 9.085938 -25.832031 8.546875 -25.3125 C 8.003906 -24.800781 7.191406 -24.546875 6.109375 -24.546875 C 3.953125 -24.546875 2.875 -25.523438 2.875 -27.484375 Z M 9.078125 0 L 3.125 0 L 3.125 -21.84375 L 9.078125 -21.84375 Z M 9.078125 0 "/></g></g></g><g fill="#000000" fill-opacity="1"><g transform="translate(458.069086, 689.999986)"><g><path d="M 9.078125 0 L 3.125 0 L 3.125 -30.390625 L 9.078125 -30.390625 Z M 9.078125 0 "/></g></g></g><g fill="#000000" fill-opacity="1"><g transform="translate(470.274942, 689.999986)"><g><path d="M 17 0 L 15.84375 -2.96875 L 15.6875 -2.96875 C 14.6875 -1.707031 13.65625 -0.832031 12.59375 -0.34375 C 11.53125 0.144531 10.144531 0.390625 8.4375 0.390625 C 6.34375 0.390625 4.691406 -0.207031 3.484375 -1.40625 C 2.285156 -2.601562 1.6875 -4.3125 1.6875 -6.53125 C 1.6875 -8.84375 2.492188 -10.546875 4.109375 -11.640625 C 5.734375 -12.742188 8.179688 -13.359375 11.453125 -13.484375 L 15.234375 -13.59375 L 15.234375 -14.546875 C 15.234375 -16.765625 14.101562 -17.875 11.84375 -17.875 C 10.09375 -17.875 8.039062 -17.347656 5.6875 -16.296875 L 3.71875 -20.3125 C 6.226562 -21.625 9.015625 -22.28125 12.078125 -22.28125 C 15.003906 -22.28125 17.25 -21.640625 18.8125 -20.359375 C 20.375 -19.085938 21.15625 -17.148438 21.15625 -14.546875 L 21.15625 0 Z M 15.234375 -10.125 L 12.9375 -10.046875 C 11.195312 -9.992188 9.90625 -9.679688 9.0625 -9.109375 C 8.21875 -8.535156 7.796875 -7.660156 7.796875 -6.484375 C 7.796875 -4.804688 8.757812 -3.96875 10.6875 -3.96875 C 12.0625 -3.96875 13.160156 -4.363281 13.984375 -5.15625 C 14.816406 -5.945312 15.234375 -7.003906 15.234375 -8.328125 Z M 8.609375 -24.234375 L 8.609375 -24.765625 C 10.847656 -27.367188 12.378906 -29.328125 13.203125 -30.640625 L 19.875 -30.640625 L 19.875 -30.234375 C 19.195312 -29.554688 18.039062 -28.550781 16.40625 -27.21875 C 14.78125 -25.882812 13.503906 -24.890625 12.578125 -24.234375 Z M 8.609375 -24.234375 "/></g></g></g><g fill="#000000" fill-opacity="1"><g transform="translate(494.432731, 689.999986)"><g><path d="M 12.328125 -4.359375 C 13.367188 -4.359375 14.617188 -4.585938 16.078125 -5.046875 L 16.078125 -0.609375 C 14.585938 0.0546875 12.765625 0.390625 10.609375 0.390625 C 8.222656 0.390625 6.484375 -0.207031 5.390625 -1.40625 C 4.304688 -2.613281 3.765625 -4.425781 3.765625 -6.84375 L 3.765625 -17.359375 L 0.921875 -17.359375 L 0.921875 -19.890625 L 4.203125 -21.875 L 5.921875 -26.484375 L 9.734375 -26.484375 L 9.734375 -21.84375 L 15.84375 -21.84375 L 15.84375 -17.359375 L 9.734375 -17.359375 L 9.734375 -6.84375 C 9.734375 -5.988281 9.96875 -5.359375 10.4375 -4.953125 C 10.914062 -4.554688 11.546875 -4.359375 12.328125 -4.359375 Z M 12.328125 -4.359375 "/></g></g></g><g fill="#000000" fill-opacity="1"><g transform="translate(511.794334, 689.999986)"><g><path d="M 12.171875 -18.015625 C 10.910156 -18.015625 9.921875 -17.613281 9.203125 -16.8125 C 8.484375 -16.007812 8.070312 -14.875 7.96875 -13.40625 L 16.328125 -13.40625 C 16.304688 -14.875 15.921875 -16.007812 15.171875 -16.8125 C 14.429688 -17.613281 13.429688 -18.015625 12.171875 -18.015625 Z M 13.015625 0.390625 C 9.492188 0.390625 6.742188 -0.578125 4.765625 -2.515625 C 2.785156 -4.460938 1.796875 -7.210938 1.796875 -10.765625 C 1.796875 -14.421875 2.707031 -17.25 4.53125 -19.25 C 6.363281 -21.25 8.894531 -22.25 12.125 -22.25 C 15.21875 -22.25 17.625 -21.367188 19.34375 -19.609375 C 21.0625 -17.847656 21.921875 -15.421875 21.921875 -12.328125 L 21.921875 -9.4375 L 7.828125 -9.4375 C 7.898438 -7.738281 8.40625 -6.414062 9.34375 -5.46875 C 10.28125 -4.519531 11.59375 -4.046875 13.28125 -4.046875 C 14.59375 -4.046875 15.832031 -4.179688 17 -4.453125 C 18.175781 -4.722656 19.40625 -5.160156 20.6875 -5.765625 L 20.6875 -1.15625 C 19.644531 -0.632812 18.53125 -0.25 17.34375 0 C 16.15625 0.257812 14.710938 0.390625 13.015625 0.390625 Z M 13.015625 0.390625 "/></g></g></g><g fill="#000000" fill-opacity="1"><g transform="translate(535.424825, 689.999986)"><g><path d="M 15.3125 -22.25 C 16.125 -22.25 16.796875 -22.191406 17.328125 -22.078125 L 16.875 -16.484375 C 16.394531 -16.617188 15.8125 -16.6875 15.125 -16.6875 C 13.21875 -16.6875 11.734375 -16.195312 10.671875 -15.21875 C 9.609375 -14.238281 9.078125 -12.867188 9.078125 -11.109375 L 9.078125 0 L 3.125 0 L 3.125 -21.84375 L 7.640625 -21.84375 L 8.515625 -18.171875 L 8.8125 -18.171875 C 9.488281 -19.390625 10.398438 -20.375 11.546875 -21.125 C 12.703125 -21.875 13.957031 -22.25 15.3125 -22.25 Z M 15.3125 -22.25 "/></g></g></g><g fill="#000000" fill-opacity="1"><g transform="translate(553.587102, 689.999986)"><g><path d="M 7.875 -10.953125 C 7.875 -8.796875 8.226562 -7.160156 8.9375 -6.046875 C 9.644531 -4.941406 10.800781 -4.390625 12.40625 -4.390625 C 13.988281 -4.390625 15.128906 -4.941406 15.828125 -6.046875 C 16.523438 -7.148438 16.875 -8.785156 16.875 -10.953125 C 16.875 -13.117188 16.519531 -14.738281 15.8125 -15.8125 C 15.113281 -16.894531 13.960938 -17.4375 12.359375 -17.4375 C 10.773438 -17.4375 9.628906 -16.898438 8.921875 -15.828125 C 8.222656 -14.753906 7.875 -13.128906 7.875 -10.953125 Z M 22.96875 -10.953125 C 22.96875 -7.398438 22.03125 -4.617188 20.15625 -2.609375 C 18.28125 -0.609375 15.671875 0.390625 12.328125 0.390625 C 10.234375 0.390625 8.382812 -0.0664062 6.78125 -0.984375 C 5.175781 -1.898438 3.941406 -3.21875 3.078125 -4.9375 C 2.222656 -6.65625 1.796875 -8.660156 1.796875 -10.953125 C 1.796875 -14.523438 2.726562 -17.300781 4.59375 -19.28125 C 6.457031 -21.257812 9.070312 -22.25 12.4375 -22.25 C 14.539062 -22.25 16.390625 -21.789062 17.984375 -20.875 C 19.585938 -19.96875 20.816406 -18.660156 21.671875 -16.953125 C 22.535156 -15.242188 22.96875 -13.242188 22.96875 -10.953125 Z M 22.96875 -10.953125 "/></g></g></g><g fill="#000000" fill-opacity="1"><g transform="translate(519.653214, 344.449461)"><g><path d="M 16.34375 16.140625 L 14.609375 13.1875 L 9.5 16.1875 L 6.515625 11.109375 L 11.625 8.109375 L 5.453125 -2.40625 L 9.078125 -4.53125 L 31.3125 -3.078125 L 34.125 1.71875 L 18.65625 10.8125 L 20.390625 13.765625 Z M 15.671875 5.734375 L 19.84375 3.28125 C 20.53125 2.875 21.550781 2.304688 22.90625 1.578125 C 24.269531 0.859375 25.066406 0.453125 25.296875 0.359375 L 25.21875 0.234375 C 24.0625 0.347656 22.875 0.375 21.65625 0.3125 L 12.1875 -0.203125 Z M 15.671875 5.734375 "/></g></g></g><g fill="#000000" fill-opacity="1"><g transform="translate(531.212025, 364.136866)"><g><path d="M 11.78125 20.078125 L 8.765625 14.9375 L 19.765625 8.484375 C 21.128906 7.679688 22.007812 6.835938 22.40625 5.953125 C 22.800781 5.066406 22.691406 4.097656 22.078125 3.046875 C 21.234375 1.609375 20.140625 0.851562 18.796875 0.78125 C 17.453125 0.707031 15.671875 1.320312 13.453125 2.625 L 4.59375 7.828125 L 1.578125 2.6875 L 20.421875 -8.375 L 22.734375 -4.453125 L 20.71875 -2.328125 L 20.890625 -2.046875 C 22.128906 -1.992188 23.273438 -1.601562 24.328125 -0.875 C 25.390625 -0.15625 26.296875 0.84375 27.046875 2.125 C 28.335938 4.320312 28.71875 6.332031 28.1875 8.15625 C 27.664062 9.988281 26.289062 11.5625 24.0625 12.875 Z M 11.78125 20.078125 "/></g></g></g><g fill="#000000" fill-opacity="1"><g transform="translate(544.520968, 386.805165)"><g><path d="M 32.890625 -0.390625 L 2.875 4.90625 L 0.140625 0.25 L 30.15625 -5.046875 Z M 32.890625 -0.390625 "/></g></g></g><g fill="#000000" fill-opacity="1"><g transform="translate(552.886025, 401.052848)"><g><path d="M 29.484375 6.421875 C 27.941406 7.316406 26.351562 7.613281 24.71875 7.3125 C 23.09375 7.007812 21.585938 6.132812 20.203125 4.6875 L 20.109375 4.75 C 21.023438 6.882812 21.300781 8.742188 20.9375 10.328125 C 20.582031 11.921875 19.59375 13.191406 17.96875 14.140625 C 15.59375 15.535156 13.238281 15.757812 10.90625 14.8125 C 8.570312 13.875 6.46875 11.8125 4.59375 8.625 C 3.03125 5.957031 2.09375 3.332031 1.78125 0.75 L 6.21875 -1.859375 C 6.28125 -0.628906 6.492188 0.644531 6.859375 1.96875 C 7.222656 3.300781 7.738281 4.53125 8.40625 5.65625 C 9.40625 7.363281 10.4375 8.457031 11.5 8.9375 C 12.570312 9.414062 13.757812 9.273438 15.0625 8.515625 C 16.21875 7.835938 16.757812 6.882812 16.6875 5.65625 C 16.613281 4.4375 15.96875 2.796875 14.75 0.734375 L 13.65625 -1.140625 L 17.65625 -3.5 L 18.765625 -1.609375 C 19.890625 0.304688 20.957031 1.554688 21.96875 2.140625 C 22.988281 2.734375 24.101562 2.675781 25.3125 1.96875 C 27.175781 0.875 27.425781 -0.835938 26.0625 -3.171875 C 25.582031 -3.984375 24.960938 -4.726562 24.203125 -5.40625 C 23.441406 -6.082031 22.429688 -6.738281 21.171875 -7.375 L 23.359375 -11.90625 C 26.285156 -10.601562 28.660156 -8.398438 30.484375 -5.296875 C 31.984375 -2.742188 32.648438 -0.425781 32.484375 1.65625 C 32.316406 3.75 31.316406 5.335938 29.484375 6.421875 Z M 29.484375 6.421875 "/></g></g></g></svg>