<svg xmlns="http://www.w3.org/2000/svg" xmlns:xlink="http://www.w3.org/1999/xlink" width="1000" zoomAndPan="magnify" viewBox="0 0 750 749.999995" height="1000" preserveAspectRatio="xMidYMid meet" version="1.0"><rect x="-75" width="900" fill="#ffffff" y="-74.999999" height="899.999994" fill-opacity="1"/><rect x="-75" width="900" fill="#ffffff" y="-74.999999" height="899.999994" fill-opacity="1"/><path fill="#000000" d="M 257.085938 412.214844 C 255.722656 411.988281 250.832031 411.875 242.417969 411.875 C 233.621094 411.875 228.542969 411.988281 227.175781 412.214844 L 226.152344 412.214844 L 226.152344 406.988281 L 229.679688 406.988281 C 231.195312 406.988281 232.21875 406.988281 232.75 406.988281 C 233.28125 406.988281 233.925781 406.910156 234.683594 406.761719 C 235.441406 406.609375 235.972656 406.417969 236.273438 406.191406 C 236.578125 405.964844 236.84375 405.664062 237.070312 405.285156 C 237.148438 405.132812 237.183594 403.085938 237.183594 399.148438 L 237.183594 393.464844 L 207.730469 393.464844 L 207.730469 388.238281 L 224.902344 361.988281 C 236.503906 344.414062 242.378906 335.589844 242.53125 335.511719 C 242.683594 335.359375 243.476562 335.285156 244.917969 335.285156 L 246.964844 335.285156 L 247.648438 335.96875 L 247.648438 388.238281 L 258.109375 388.238281 L 258.109375 393.464844 L 247.648438 393.464844 L 247.648438 399.261719 C 247.648438 402.367188 247.648438 404.183594 247.648438 404.714844 C 247.648438 405.246094 247.875 405.699219 248.332031 406.078125 C 248.9375 406.609375 251.097656 406.910156 254.8125 406.988281 L 258.109375 406.988281 L 258.109375 412.214844 Z M 237.867188 388.238281 L 237.867188 350.285156 L 212.960938 388.125 L 225.359375 388.238281 Z M 237.867188 388.238281 " fill-opacity="1" fill-rule="nonzero"/><path fill="#000000" d="M 280.058594 394.375 C 280.058594 396.191406 279.453125 397.707031 278.242188 398.917969 C 277.027344 400.132812 275.550781 400.738281 273.804688 400.738281 L 273.007812 400.738281 C 276.496094 406.722656 281.121094 409.714844 286.882812 409.714844 C 292.191406 409.714844 296.058594 407.441406 298.484375 402.898438 C 299.925781 400.398438 300.644531 395.546875 300.644531 388.351562 C 300.644531 380.550781 299.621094 375.285156 297.574219 372.558594 C 295.601562 370.058594 293.40625 368.808594 290.976562 368.808594 L 290.296875 368.808594 C 284.382812 368.808594 279.910156 371.382812 276.875 376.535156 C 276.574219 377.0625 276.308594 377.367188 276.078125 377.441406 C 275.851562 377.519531 275.285156 377.59375 274.375 377.671875 C 273.085938 377.671875 272.363281 377.441406 272.214844 376.988281 C 272.0625 376.6875 271.984375 370.058594 271.984375 357.101562 L 271.984375 342.445312 C 271.984375 338.65625 272.175781 336.761719 272.554688 336.761719 C 272.707031 336.609375 272.859375 336.535156 273.007812 336.535156 C 273.085938 336.535156 273.882812 336.839844 275.398438 337.445312 C 276.914062 338.050781 279 338.65625 281.652344 339.261719 C 284.304688 339.867188 287.148438 340.171875 290.183594 340.171875 C 295.566406 340.171875 300.722656 339.109375 305.648438 336.988281 C 306.253906 336.6875 306.75 336.535156 307.128906 336.535156 C 307.734375 336.535156 308.039062 337.21875 308.039062 338.582031 L 308.039062 340.058594 C 301.820312 347.40625 294.046875 351.082031 284.722656 351.082031 C 282.371094 351.082031 280.25 350.851562 278.355469 350.398438 L 277.21875 350.171875 L 277.21875 369.714844 C 278.65625 368.65625 279.796875 367.820312 280.628906 367.214844 C 281.464844 366.609375 282.828125 366.003906 284.722656 365.398438 C 286.617188 364.792969 288.550781 364.488281 290.523438 364.488281 C 296.664062 364.488281 301.859375 366.949219 306.105469 371.875 C 310.351562 376.800781 312.472656 382.632812 312.472656 389.375 C 312.472656 396.34375 310.046875 402.289062 305.195312 407.214844 C 300.339844 412.140625 294.429688 414.640625 287.453125 414.714844 C 281.3125 414.714844 276.382812 412.667969 272.667969 408.578125 C 268.953125 404.488281 267.09375 399.867188 267.09375 394.714844 C 267.09375 392.898438 267.511719 391.457031 268.347656 390.398438 C 269.179688 389.335938 270.050781 388.65625 270.960938 388.351562 C 271.871094 388.050781 272.742188 387.898438 273.578125 387.898438 C 275.472656 387.898438 277.027344 388.542969 278.242188 389.828125 C 279.453125 391.117188 280.058594 392.632812 280.058594 394.375 Z M 280.058594 394.375 " fill-opacity="1" fill-rule="nonzero"/><path fill="#000000" d="M 323.050781 376.648438 C 323.050781 364.300781 326.121094 354.527344 332.261719 347.332031 C 338.402344 340.132812 345.226562 336.535156 352.730469 336.535156 C 357.964844 336.535156 361.714844 337.898438 363.992188 340.625 C 366.265625 343.351562 367.402344 346.382812 367.402344 349.714844 C 367.402344 351.609375 366.871094 353.125 365.8125 354.261719 C 364.75 355.398438 363.269531 355.964844 361.375 355.964844 C 359.632812 355.964844 358.191406 355.4375 357.054688 354.375 C 355.917969 353.316406 355.347656 351.835938 355.347656 349.945312 C 355.347656 346.609375 357.128906 344.601562 360.691406 343.921875 C 359.023438 342.253906 356.675781 341.308594 353.640625 341.082031 C 348.257812 341.082031 343.824219 343.351562 340.335938 347.898438 C 336.773438 352.898438 334.992188 360.550781 334.992188 370.851562 L 335.105469 371.308594 C 335.484375 370.851562 335.785156 370.359375 336.015625 369.828125 C 339.121094 365.285156 343.179688 363.011719 348.183594 363.011719 L 348.636719 363.011719 C 352.125 363.011719 355.195312 363.730469 357.851562 365.171875 C 359.667969 366.230469 361.488281 367.746094 363.308594 369.714844 C 365.128906 371.6875 366.605469 373.84375 367.742188 376.191406 C 369.335938 379.90625 370.132812 383.957031 370.132812 388.351562 L 370.132812 390.398438 C 370.132812 392.140625 369.941406 393.769531 369.5625 395.285156 C 368.730469 399.753906 366.304688 404.109375 362.285156 408.351562 C 358.265625 412.59375 353.1875 414.714844 347.046875 414.714844 C 344.921875 414.714844 342.875 414.410156 340.90625 413.804688 C 338.933594 413.199219 336.808594 412.0625 334.535156 410.398438 C 332.261719 408.730469 330.328125 406.496094 328.734375 403.691406 C 327.144531 400.890625 325.777344 397.214844 324.640625 392.671875 C 323.503906 388.125 322.972656 382.785156 323.050781 376.648438 Z M 347.5 367.101562 C 345.226562 367.101562 343.253906 367.746094 341.585938 369.035156 C 339.917969 370.320312 338.628906 372.027344 337.71875 374.148438 C 336.808594 376.269531 336.164062 378.429688 335.785156 380.625 C 335.40625 382.820312 335.179688 385.171875 335.105469 387.671875 C 335.105469 393.957031 335.558594 398.464844 336.46875 401.191406 C 337.378906 403.917969 338.820312 406.117188 340.789062 407.785156 C 342.609375 409.148438 344.621094 409.828125 346.816406 409.828125 C 350.683594 409.828125 353.640625 408.390625 355.6875 405.511719 C 356.675781 404.148438 357.355469 402.441406 357.734375 400.398438 C 358.113281 398.351562 358.304688 394.375 358.304688 388.464844 C 358.304688 382.40625 358.113281 378.351562 357.734375 376.308594 C 357.355469 374.261719 356.675781 372.558594 355.6875 371.191406 C 353.640625 368.464844 350.914062 367.101562 347.5 367.101562 Z M 347.5 367.101562 " fill-opacity="1" fill-rule="nonzero"/><path fill="#000000" d="M 386.054688 345.738281 C 390.300781 339.601562 396.101562 336.535156 403.453125 336.535156 C 407.09375 336.535156 410.734375 337.519531 414.371094 339.488281 C 418.011719 341.460938 420.96875 344.945312 423.242188 349.945312 C 426.046875 356.230469 427.449219 364.867188 427.449219 375.851562 C 427.449219 387.59375 425.820312 396.570312 422.5625 402.785156 C 421.042969 405.964844 418.960938 408.503906 416.304688 410.398438 C 413.652344 412.289062 411.339844 413.464844 409.367188 413.917969 C 407.398438 414.375 405.464844 414.640625 403.566406 414.714844 C 401.597656 414.714844 399.625 414.488281 397.65625 414.03125 C 395.683594 413.578125 393.371094 412.367188 390.71875 410.398438 C 388.0625 408.425781 385.976562 405.890625 384.460938 402.785156 C 381.203125 396.570312 379.570312 387.59375 379.570312 375.851562 C 379.570312 362.671875 381.734375 352.632812 386.054688 345.738281 Z M 411.644531 344.375 C 409.367188 341.953125 406.675781 340.738281 403.566406 340.738281 C 400.382812 340.738281 397.65625 341.953125 395.378906 344.375 C 393.484375 346.34375 392.234375 349.074219 391.625 352.558594 C 391.019531 356.042969 390.71875 363.316406 390.71875 374.375 C 390.71875 386.34375 391.019531 394.222656 391.625 398.011719 C 392.234375 401.796875 393.597656 404.789062 395.722656 406.988281 C 397.84375 409.261719 400.460938 410.398438 403.566406 410.398438 C 406.601562 410.398438 409.179688 409.261719 411.300781 406.988281 C 413.5 404.714844 414.863281 401.535156 415.394531 397.441406 C 415.925781 393.351562 416.230469 385.664062 416.304688 374.375 C 416.304688 363.390625 416.003906 356.15625 415.394531 352.671875 C 414.789062 349.1875 413.539062 346.421875 411.644531 344.375 Z M 411.644531 344.375 " fill-opacity="1" fill-rule="nonzero"/><path fill="#000000" d="M 442.917969 345.738281 C 447.164062 339.601562 452.964844 336.535156 460.316406 336.535156 C 463.957031 336.535156 467.597656 337.519531 471.234375 339.488281 C 474.875 341.460938 477.832031 344.945312 480.105469 349.945312 C 482.910156 356.230469 484.316406 364.867188 484.316406 375.851562 C 484.316406 387.59375 482.683594 396.570312 479.425781 402.785156 C 477.90625 405.964844 475.824219 408.503906 473.167969 410.398438 C 470.515625 412.289062 468.203125 413.464844 466.230469 413.917969 C 464.261719 414.375 462.328125 414.640625 460.433594 414.714844 C 458.460938 414.714844 456.488281 414.488281 454.519531 414.03125 C 452.546875 413.578125 450.234375 412.367188 447.582031 410.398438 C 444.925781 408.425781 442.84375 405.890625 441.324219 402.785156 C 438.066406 396.570312 436.433594 387.59375 436.433594 375.851562 C 436.433594 362.671875 438.597656 352.632812 442.917969 345.738281 Z M 468.507812 344.375 C 466.230469 341.953125 463.539062 340.738281 460.433594 340.738281 C 457.246094 340.738281 454.519531 341.953125 452.242188 344.375 C 450.347656 346.34375 449.097656 349.074219 448.492188 352.558594 C 447.882812 356.042969 447.582031 363.316406 447.582031 374.375 C 447.582031 386.34375 447.882812 394.222656 448.492188 398.011719 C 449.097656 401.796875 450.460938 404.789062 452.585938 406.988281 C 454.707031 409.261719 457.324219 410.398438 460.433594 410.398438 C 463.464844 410.398438 466.042969 409.261719 468.164062 406.988281 C 470.363281 404.714844 471.730469 401.535156 472.257812 397.441406 C 472.789062 393.351562 473.09375 385.664062 473.167969 374.375 C 473.167969 363.390625 472.867188 356.15625 472.257812 352.671875 C 471.652344 349.1875 470.402344 346.421875 468.507812 344.375 Z M 468.507812 344.375 " fill-opacity="1" fill-rule="nonzero"/><path fill="#000000" d="M 499.78125 345.738281 C 504.027344 339.601562 509.828125 336.535156 517.183594 336.535156 C 520.820312 336.535156 524.460938 337.519531 528.097656 339.488281 C 531.738281 341.460938 534.695312 344.945312 536.96875 349.945312 C 539.777344 356.230469 541.179688 364.867188 541.179688 375.851562 C 541.179688 387.59375 539.546875 396.570312 536.289062 402.785156 C 534.773438 405.964844 532.6875 408.503906 530.03125 410.398438 C 527.378906 412.289062 525.066406 413.464844 523.09375 413.917969 C 521.125 414.375 519.191406 414.640625 517.296875 414.714844 C 515.324219 414.714844 513.351562 414.488281 511.382812 414.03125 C 509.410156 413.578125 507.097656 412.367188 504.445312 410.398438 C 501.789062 408.425781 499.707031 405.890625 498.1875 402.785156 C 494.929688 396.570312 493.300781 387.59375 493.300781 375.851562 C 493.300781 362.671875 495.460938 352.632812 499.78125 345.738281 Z M 525.371094 344.375 C 523.09375 341.953125 520.402344 340.738281 517.296875 340.738281 C 514.109375 340.738281 511.382812 341.953125 509.105469 344.375 C 507.210938 346.34375 505.960938 349.074219 505.355469 352.558594 C 504.746094 356.042969 504.445312 363.316406 504.445312 374.375 C 504.445312 386.34375 504.746094 394.222656 505.355469 398.011719 C 505.960938 401.796875 507.324219 404.789062 509.449219 406.988281 C 511.570312 409.261719 514.1875 410.398438 517.296875 410.398438 C 520.328125 410.398438 522.90625 409.261719 525.027344 406.988281 C 527.226562 404.714844 528.59375 401.535156 529.125 397.441406 C 529.652344 393.351562 529.957031 385.664062 530.03125 374.375 C 530.03125 363.390625 529.730469 356.15625 529.125 352.671875 C 528.515625 349.1875 527.265625 346.421875 525.371094 344.375 Z M 525.371094 344.375 " fill-opacity="1" fill-rule="nonzero"/></svg>