<svg xmlns="http://www.w3.org/2000/svg" xmlns:xlink="http://www.w3.org/1999/xlink" width="1000" zoomAndPan="magnify" viewBox="0 0 750 749.999995" height="1000" preserveAspectRatio="xMidYMid meet" version="1.0"><defs><clipPath id="2a8dec344e"><path d="M 44 342 L 63 342 L 63 418.328125 L 44 418.328125 Z M 44 342 " clip-rule="nonzero"/></clipPath><clipPath id="96ceb553f2"><path d="M 487 331.671875 L 511 331.671875 L 511 370 L 487 370 Z M 487 331.671875 " clip-rule="nonzero"/></clipPath><clipPath id="6b631a7762"><path d="M 519 342 L 538 342 L 538 418.328125 L 519 418.328125 Z M 519 342 " clip-rule="nonzero"/></clipPath></defs><rect x="-75" width="900" fill="#ffffff" y="-74.999999" height="899.999994" fill-opacity="1"/><rect x="-75" width="900" fill="#ffffff" y="-74.999999" height="899.999994" fill-opacity="1"/><g clip-path="url(#2a8dec344e)"><path fill="#000000" d="M 44.601562 380.324219 C 44.601562 376.851562 44.851562 373.550781 45.355469 370.429688 C 45.859375 367.308594 46.4375 364.617188 47.09375 362.351562 C 47.746094 360.082031 48.679688 357.867188 49.886719 355.703125 C 51.09375 353.539062 52.050781 351.851562 52.757812 350.644531 C 53.460938 349.433594 54.519531 348.125 55.929688 346.714844 C 57.339844 345.304688 58.171875 344.449219 58.421875 344.148438 C 58.671875 343.847656 59.304688 343.316406 60.308594 342.5625 L 61.59375 342.5625 C 62.300781 342.5625 62.652344 342.789062 62.652344 343.242188 C 62.652344 343.394531 62.222656 343.921875 61.367188 344.828125 C 60.511719 345.734375 59.480469 347.070312 58.269531 348.832031 C 57.0625 350.59375 55.828125 352.757812 54.570312 355.324219 C 53.3125 357.894531 52.253906 361.367188 51.398438 365.75 C 50.542969 370.128906 50.113281 374.988281 50.113281 380.324219 C 50.113281 385.660156 50.542969 390.496094 51.398438 394.824219 C 52.253906 399.15625 53.285156 402.65625 54.496094 405.324219 C 55.703125 407.992188 56.9375 410.15625 58.195312 411.816406 C 59.453125 413.480469 60.511719 414.8125 61.367188 415.820312 C 62.222656 416.828125 62.652344 417.355469 62.652344 417.40625 C 62.652344 417.859375 62.273438 418.085938 61.519531 418.085938 L 60.308594 418.085938 L 58.195312 416.273438 C 53.460938 411.996094 50.011719 406.65625 47.847656 400.261719 C 45.683594 393.867188 44.601562 387.222656 44.601562 380.324219 Z M 44.601562 380.324219 " fill-opacity="1" fill-rule="nonzero"/></g><path fill="#000000" d="M 74.132812 355.023438 C 76.953125 350.945312 80.804688 348.90625 85.6875 348.90625 C 88.105469 348.90625 90.523438 349.5625 92.9375 350.871094 C 95.355469 352.179688 97.320312 354.496094 98.832031 357.816406 C 100.695312 361.996094 101.625 367.738281 101.625 375.039062 C 101.625 382.84375 100.542969 388.808594 98.378906 392.9375 C 97.371094 395.050781 95.984375 396.738281 94.222656 397.996094 C 92.460938 399.257812 90.925781 400.035156 89.617188 400.339844 C 88.308594 400.640625 87.023438 400.816406 85.765625 400.867188 C 84.453125 400.867188 83.144531 400.714844 81.835938 400.414062 C 80.527344 400.113281 78.992188 399.304688 77.230469 397.996094 C 75.464844 396.6875 74.082031 395 73.074219 392.9375 C 70.910156 388.808594 69.828125 382.84375 69.828125 375.039062 C 69.828125 366.277344 71.261719 359.605469 74.132812 355.023438 Z M 91.125 354.117188 C 89.617188 352.507812 87.828125 351.699219 85.765625 351.699219 C 83.648438 351.699219 81.835938 352.507812 80.324219 354.117188 C 79.066406 355.425781 78.234375 357.238281 77.832031 359.554688 C 77.429688 361.871094 77.230469 366.703125 77.230469 374.054688 C 77.230469 382.011719 77.429688 387.246094 77.832031 389.765625 C 78.234375 392.28125 79.140625 394.269531 80.550781 395.730469 C 81.960938 397.242188 83.699219 397.996094 85.765625 397.996094 C 87.777344 397.996094 89.488281 397.242188 90.898438 395.730469 C 92.359375 394.222656 93.265625 392.105469 93.617188 389.386719 C 93.972656 386.667969 94.171875 381.558594 94.222656 374.054688 C 94.222656 366.753906 94.023438 361.945312 93.617188 359.628906 C 93.214844 357.316406 92.386719 355.476562 91.125 354.117188 Z M 91.125 354.117188 " fill-opacity="1" fill-rule="nonzero"/><path fill="#000000" d="M 110.539062 394.675781 C 110.539062 393.464844 110.964844 392.410156 111.820312 391.503906 C 112.679688 390.597656 113.761719 390.144531 115.070312 390.144531 C 116.277344 390.144531 117.335938 390.546875 118.242188 391.351562 C 119.148438 392.15625 119.625 393.238281 119.675781 394.597656 C 119.675781 395.855469 119.25 396.941406 118.394531 397.847656 C 117.535156 398.753906 116.453125 399.207031 115.144531 399.207031 C 113.835938 399.207031 112.753906 398.777344 111.898438 397.921875 C 111.042969 397.066406 110.589844 395.984375 110.539062 394.675781 Z M 110.539062 394.675781 " fill-opacity="1" fill-rule="nonzero"/><path fill="#000000" d="M 132.894531 355.023438 C 135.714844 350.945312 139.566406 348.90625 144.449219 348.90625 C 146.867188 348.90625 149.285156 349.5625 151.703125 350.871094 C 154.117188 352.179688 156.082031 354.496094 157.59375 357.816406 C 159.457031 361.996094 160.386719 367.738281 160.386719 375.039062 C 160.386719 382.84375 159.304688 388.808594 157.140625 392.9375 C 156.132812 395.050781 154.75 396.738281 152.984375 397.996094 C 151.222656 399.257812 149.6875 400.035156 148.378906 400.339844 C 147.070312 400.640625 145.785156 400.816406 144.527344 400.867188 C 143.21875 400.867188 141.910156 400.714844 140.597656 400.414062 C 139.289062 400.113281 137.753906 399.304688 135.992188 397.996094 C 134.230469 396.6875 132.84375 395 131.835938 392.9375 C 129.671875 388.808594 128.589844 382.84375 128.589844 375.039062 C 128.589844 366.277344 130.023438 359.605469 132.894531 355.023438 Z M 149.890625 354.117188 C 148.378906 352.507812 146.589844 351.699219 144.527344 351.699219 C 142.410156 351.699219 140.597656 352.507812 139.089844 354.117188 C 137.828125 355.425781 137 357.238281 136.597656 359.554688 C 136.191406 361.871094 135.992188 366.703125 135.992188 374.054688 C 135.992188 382.011719 136.191406 387.246094 136.597656 389.765625 C 137 392.28125 137.90625 394.269531 139.316406 395.730469 C 140.726562 397.242188 142.460938 397.996094 144.527344 397.996094 C 146.539062 397.996094 148.253906 397.242188 149.664062 395.730469 C 151.121094 394.222656 152.03125 392.105469 152.382812 389.386719 C 152.734375 386.667969 152.9375 381.558594 152.984375 374.054688 C 152.984375 366.753906 152.785156 361.945312 152.382812 359.628906 C 151.980469 357.316406 151.148438 355.476562 149.890625 354.117188 Z M 149.890625 354.117188 " fill-opacity="1" fill-rule="nonzero"/><path fill="#000000" d="M 170.660156 355.023438 C 173.480469 350.945312 177.332031 348.90625 182.214844 348.90625 C 184.632812 348.90625 187.050781 349.5625 189.46875 350.871094 C 191.882812 352.179688 193.847656 354.496094 195.359375 357.816406 C 197.222656 361.996094 198.152344 367.738281 198.152344 375.039062 C 198.152344 382.84375 197.070312 388.808594 194.90625 392.9375 C 193.898438 395.050781 192.511719 396.738281 190.75 397.996094 C 188.988281 399.257812 187.453125 400.035156 186.144531 400.339844 C 184.835938 400.640625 183.550781 400.816406 182.292969 400.867188 C 180.984375 400.867188 179.671875 400.714844 178.363281 400.414062 C 177.054688 400.113281 175.519531 399.304688 173.757812 397.996094 C 171.996094 396.6875 170.609375 395 169.601562 392.9375 C 167.4375 388.808594 166.355469 382.84375 166.355469 375.039062 C 166.355469 366.277344 167.789062 359.605469 170.660156 355.023438 Z M 187.65625 354.117188 C 186.144531 352.507812 184.355469 351.699219 182.292969 351.699219 C 180.175781 351.699219 178.363281 352.507812 176.855469 354.117188 C 175.59375 355.425781 174.765625 357.238281 174.359375 359.554688 C 173.957031 361.871094 173.757812 366.703125 173.757812 374.054688 C 173.757812 382.011719 173.957031 387.246094 174.359375 389.765625 C 174.765625 392.28125 175.671875 394.269531 177.082031 395.730469 C 178.488281 397.242188 180.226562 397.996094 182.292969 397.996094 C 184.304688 397.996094 186.019531 397.242188 187.429688 395.730469 C 188.886719 394.222656 189.792969 392.105469 190.148438 389.386719 C 190.5 386.667969 190.699219 381.558594 190.75 374.054688 C 190.75 366.753906 190.550781 361.945312 190.148438 359.628906 C 189.742188 357.316406 188.914062 355.476562 187.65625 354.117188 Z M 187.65625 354.117188 " fill-opacity="1" fill-rule="nonzero"/><path fill="#000000" d="M 209.40625 366.804688 C 208.046875 366.804688 206.964844 366.351562 206.160156 365.445312 C 205.355469 364.539062 204.949219 363.433594 204.949219 362.125 C 204.949219 358.546875 206.285156 355.453125 208.953125 352.832031 C 211.621094 350.214844 214.945312 348.90625 218.925781 348.90625 C 223.507812 348.90625 227.332031 350.316406 230.40625 353.136719 C 233.476562 355.957031 235.039062 359.605469 235.085938 364.085938 C 235.085938 366.25 234.585938 368.316406 233.578125 370.28125 C 232.570312 372.242188 231.363281 373.957031 229.953125 375.414062 C 228.542969 376.875 226.527344 378.738281 223.910156 381.003906 C 222.097656 382.566406 219.578125 384.882812 216.355469 387.953125 L 211.898438 392.183594 L 217.640625 392.257812 C 225.546875 392.257812 229.75 392.132812 230.253906 391.878906 C 230.605469 391.777344 231.210938 389.539062 232.066406 385.15625 L 232.066406 384.929688 L 235.085938 384.929688 L 235.085938 385.15625 C 235.039062 385.308594 234.710938 387.601562 234.105469 392.03125 C 233.5 396.460938 233.125 398.777344 232.972656 398.980469 L 232.972656 399.207031 L 204.949219 399.207031 L 204.949219 396.863281 C 204.949219 396.511719 205.101562 396.132812 205.402344 395.730469 C 205.707031 395.328125 206.460938 394.449219 207.671875 393.089844 C 209.128906 391.476562 210.390625 390.066406 211.445312 388.859375 C 211.898438 388.355469 212.753906 387.421875 214.015625 386.0625 C 215.273438 384.703125 216.128906 383.773438 216.582031 383.269531 C 217.035156 382.765625 217.765625 381.9375 218.773438 380.777344 C 219.78125 379.621094 220.484375 378.761719 220.886719 378.210938 C 221.289062 377.65625 221.871094 376.902344 222.625 375.945312 C 223.378906 374.988281 223.910156 374.183594 224.210938 373.527344 C 224.511719 372.871094 224.890625 372.144531 225.34375 371.335938 C 225.796875 370.53125 226.125 369.726562 226.324219 368.921875 C 226.527344 368.113281 226.703125 367.359375 226.855469 366.65625 C 227.003906 365.949219 227.082031 365.117188 227.082031 364.164062 C 227.082031 360.988281 226.226562 358.246094 224.511719 355.929688 C 222.800781 353.613281 220.359375 352.457031 217.1875 352.457031 C 215.523438 352.457031 214.066406 352.882812 212.804688 353.738281 C 211.546875 354.597656 210.667969 355.425781 210.164062 356.230469 C 209.660156 357.039062 209.40625 357.515625 209.40625 357.667969 C 209.40625 357.71875 209.53125 357.742188 209.785156 357.742188 C 210.691406 357.742188 211.621094 358.09375 212.578125 358.800781 C 213.535156 359.503906 214.015625 360.664062 214.015625 362.273438 C 214.015625 363.53125 213.613281 364.589844 212.804688 365.445312 C 212 366.300781 210.867188 366.753906 209.40625 366.804688 Z M 209.40625 366.804688 " fill-opacity="1" fill-rule="nonzero"/><path fill="#000000" d="M 247.171875 366.804688 C 245.8125 366.804688 244.730469 366.351562 243.925781 365.445312 C 243.117188 364.539062 242.714844 363.433594 242.714844 362.125 C 242.714844 358.546875 244.050781 355.453125 246.71875 352.832031 C 249.386719 350.214844 252.710938 348.90625 256.6875 348.90625 C 261.269531 348.90625 265.097656 350.316406 268.167969 353.136719 C 271.242188 355.957031 272.800781 359.605469 272.851562 364.085938 C 272.851562 366.25 272.347656 368.316406 271.34375 370.28125 C 270.335938 372.242188 269.125 373.957031 267.714844 375.414062 C 266.308594 376.875 264.292969 378.738281 261.675781 381.003906 C 259.863281 382.566406 257.34375 384.882812 254.121094 387.953125 L 249.664062 392.183594 L 255.40625 392.257812 C 263.3125 392.257812 267.515625 392.132812 268.019531 391.878906 C 268.371094 391.777344 268.976562 389.539062 269.832031 385.15625 L 269.832031 384.929688 L 272.851562 384.929688 L 272.851562 385.15625 C 272.800781 385.308594 272.476562 387.601562 271.871094 392.03125 C 271.265625 396.460938 270.890625 398.777344 270.738281 398.980469 L 270.738281 399.207031 L 242.714844 399.207031 L 242.714844 396.863281 C 242.714844 396.511719 242.867188 396.132812 243.167969 395.730469 C 243.472656 395.328125 244.226562 394.449219 245.433594 393.089844 C 246.894531 391.476562 248.15625 390.066406 249.210938 388.859375 C 249.664062 388.355469 250.519531 387.421875 251.78125 386.0625 C 253.039062 384.703125 253.894531 383.773438 254.347656 383.269531 C 254.800781 382.765625 255.53125 381.9375 256.539062 380.777344 C 257.546875 379.621094 258.25 378.761719 258.652344 378.210938 C 259.054688 377.65625 259.636719 376.902344 260.390625 375.945312 C 261.144531 374.988281 261.675781 374.183594 261.976562 373.527344 C 262.277344 372.871094 262.65625 372.144531 263.109375 371.335938 C 263.5625 370.53125 263.890625 369.726562 264.089844 368.921875 C 264.292969 368.113281 264.46875 367.359375 264.621094 366.65625 C 264.769531 365.949219 264.847656 365.117188 264.847656 364.164062 C 264.847656 360.988281 263.992188 358.246094 262.277344 355.929688 C 260.566406 353.613281 258.125 352.457031 254.953125 352.457031 C 253.289062 352.457031 251.832031 352.882812 250.570312 353.738281 C 249.3125 354.597656 248.429688 355.425781 247.929688 356.230469 C 247.425781 357.039062 247.171875 357.515625 247.171875 357.667969 C 247.171875 357.71875 247.296875 357.742188 247.550781 357.742188 C 248.457031 357.742188 249.386719 358.09375 250.34375 358.800781 C 251.300781 359.503906 251.78125 360.664062 251.78125 362.273438 C 251.78125 363.53125 251.378906 364.589844 250.570312 365.445312 C 249.765625 366.300781 248.632812 366.753906 247.171875 366.804688 Z M 247.171875 366.804688 " fill-opacity="1" fill-rule="nonzero"/><path fill="#000000" d="M 281.992188 367.710938 C 281.992188 367.710938 281.992188 365.773438 281.992188 361.898438 C 281.992188 358.019531 283.351562 354.898438 286.070312 352.53125 C 288.789062 350.164062 291.910156 348.957031 295.4375 348.90625 C 299.011719 348.90625 302.183594 349.964844 304.953125 352.078125 C 307.722656 354.191406 309.105469 356.9375 309.105469 360.308594 C 309.105469 361.820312 308.832031 363.230469 308.277344 364.539062 C 307.722656 365.847656 307.066406 366.90625 306.3125 367.710938 C 305.558594 368.515625 304.777344 369.222656 303.972656 369.828125 C 303.164062 370.429688 302.511719 370.882812 302.007812 371.1875 C 301.503906 371.488281 301.226562 371.691406 301.175781 371.789062 L 302.234375 372.46875 C 302.9375 372.972656 303.644531 373.476562 304.347656 373.980469 C 305.054688 374.484375 305.457031 374.761719 305.558594 374.8125 C 309.332031 377.78125 311.222656 381.53125 311.222656 386.0625 C 311.222656 390.042969 309.761719 393.492188 306.839844 396.410156 C 303.921875 399.332031 300.144531 400.816406 295.511719 400.867188 C 290.980469 400.867188 287.253906 399.582031 284.332031 397.015625 C 281.414062 394.449219 279.953125 391.277344 279.953125 387.5 C 279.953125 382.0625 283.199219 377.53125 289.695312 373.90625 L 288.335938 372.921875 C 287.277344 372.269531 286.597656 371.765625 286.296875 371.414062 C 283.425781 368.945312 281.992188 365.773438 281.992188 361.898438 Z M 298.304688 370.054688 L 298.757812 369.75 C 299.0625 369.550781 299.289062 369.398438 299.441406 369.296875 C 299.589844 369.195312 299.84375 369.019531 300.195312 368.769531 C 300.546875 368.515625 300.847656 368.265625 301.101562 368.015625 C 301.351562 367.761719 301.628906 367.460938 301.933594 367.109375 C 302.234375 366.753906 302.511719 366.429688 302.761719 366.125 C 303.015625 365.824219 303.265625 365.421875 303.519531 364.917969 C 303.769531 364.414062 303.996094 363.984375 304.199219 363.632812 C 304.398438 363.28125 304.523438 362.777344 304.574219 362.125 C 304.625 361.46875 304.675781 360.914062 304.726562 360.460938 C 304.726562 358.296875 303.996094 356.457031 302.535156 354.949219 C 301.074219 353.4375 299.390625 352.480469 297.476562 352.078125 C 297.125 352.027344 296.292969 352.003906 294.984375 352.003906 C 292.917969 352.003906 290.980469 352.65625 289.167969 353.964844 C 287.355469 355.277344 286.421875 356.910156 286.371094 358.875 C 286.371094 360.035156 286.699219 361.089844 287.355469 362.046875 C 288.007812 363.003906 288.664062 363.734375 289.320312 364.238281 C 289.972656 364.742188 291.230469 365.546875 293.09375 366.65625 C 293.449219 366.90625 293.722656 367.082031 293.925781 367.183594 Z M 295.585938 397.621094 C 298.507812 397.621094 301.027344 396.761719 303.140625 395.050781 C 305.253906 393.339844 306.3125 391.277344 306.3125 388.859375 C 306.3125 388.003906 306.1875 387.195312 305.933594 386.441406 C 305.683594 385.6875 305.382812 385.058594 305.027344 384.554688 C 304.675781 384.050781 304.121094 383.496094 303.367188 382.890625 C 302.613281 382.289062 302.03125 381.835938 301.628906 381.53125 C 301.226562 381.230469 300.496094 380.753906 299.441406 380.097656 C 298.382812 379.441406 297.703125 379.015625 297.398438 378.8125 C 296.695312 378.359375 295.941406 377.882812 295.132812 377.378906 C 294.328125 376.875 293.675781 376.449219 293.171875 376.09375 L 292.566406 375.71875 C 292.265625 375.71875 291.535156 376.144531 290.375 377 C 289.21875 377.855469 288.007812 379.242188 286.75 381.15625 C 285.492188 383.070312 284.835938 385.132812 284.785156 387.347656 C 284.785156 390.320312 285.871094 392.761719 288.035156 394.675781 C 290.199219 396.585938 292.71875 397.570312 295.585938 397.621094 Z M 295.585938 397.621094 " fill-opacity="1" fill-rule="nonzero"/><path fill="#000000" d="M 378.835938 397.015625 C 378.835938 398.023438 378.308594 398.527344 377.25 398.527344 C 377 398.527344 376.445312 398.121094 375.589844 397.316406 C 374.734375 396.511719 372.367188 394.171875 368.488281 390.292969 L 360.632812 382.4375 L 352.703125 390.371094 C 347.367188 395.605469 344.621094 398.273438 344.472656 398.375 C 344.269531 398.476562 344.09375 398.527344 343.941406 398.527344 C 343.539062 398.527344 343.1875 398.375 342.882812 398.074219 C 342.582031 397.769531 342.40625 397.417969 342.355469 397.015625 C 342.355469 396.664062 342.707031 396.109375 343.414062 395.355469 C 344.117188 394.597656 346.484375 392.207031 350.511719 388.179688 L 358.367188 380.324219 L 350.511719 372.46875 C 346.433594 368.390625 344.066406 366 343.414062 365.296875 C 342.757812 364.589844 342.40625 364.035156 342.355469 363.632812 C 342.355469 363.179688 342.507812 362.828125 342.808594 362.578125 C 343.109375 362.324219 343.488281 362.199219 343.941406 362.199219 C 344.195312 362.199219 344.371094 362.222656 344.472656 362.273438 C 344.621094 362.375 347.367188 365.042969 352.703125 370.28125 L 360.632812 378.210938 L 368.488281 370.355469 C 372.367188 366.476562 374.734375 364.136719 375.589844 363.332031 C 376.445312 362.527344 377 362.125 377.25 362.125 C 378.308594 362.125 378.835938 362.625 378.835938 363.632812 C 378.835938 363.984375 378.585938 364.4375 378.082031 364.992188 C 377.578125 365.546875 375.109375 368.015625 370.679688 372.394531 L 362.824219 380.324219 L 370.679688 388.253906 C 374.910156 392.484375 377.328125 394.925781 377.929688 395.582031 C 378.535156 396.234375 378.835938 396.714844 378.835938 397.015625 Z M 378.835938 397.015625 " fill-opacity="1" fill-rule="nonzero"/><path fill="#000000" d="M 422.886719 355.550781 L 421.90625 355.929688 C 421.199219 356.183594 420.191406 356.433594 418.882812 356.683594 C 417.574219 356.9375 416.113281 357.113281 414.503906 357.214844 L 413.066406 357.214844 L 413.066406 353.738281 L 414.503906 353.738281 C 416.871094 353.640625 419.058594 353.261719 421.074219 352.605469 C 423.085938 351.953125 424.496094 351.347656 425.304688 350.792969 C 426.109375 350.242188 426.8125 349.6875 427.417969 349.132812 C 427.519531 348.980469 427.820312 348.90625 428.324219 348.90625 C 428.777344 348.90625 429.207031 349.058594 429.609375 349.359375 L 429.609375 371.941406 L 429.683594 394.597656 C 430.035156 394.949219 430.339844 395.175781 430.589844 395.277344 C 430.84375 395.378906 431.445312 395.480469 432.402344 395.582031 C 433.359375 395.679688 434.921875 395.730469 437.085938 395.730469 L 439.050781 395.730469 L 439.050781 399.207031 L 438.21875 399.207031 C 437.160156 399.054688 433.160156 398.980469 426.210938 398.980469 C 419.363281 398.980469 415.410156 399.054688 414.351562 399.207031 L 413.445312 399.207031 L 413.445312 395.730469 L 415.410156 395.730469 C 416.515625 395.730469 417.472656 395.730469 418.277344 395.730469 C 419.085938 395.730469 419.714844 395.707031 420.167969 395.65625 C 420.621094 395.605469 421.023438 395.53125 421.375 395.429688 C 421.726562 395.328125 421.929688 395.277344 421.980469 395.277344 C 422.03125 395.277344 422.179688 395.152344 422.433594 394.902344 C 422.683594 394.648438 422.835938 394.546875 422.886719 394.597656 Z M 422.886719 355.550781 " fill-opacity="1" fill-rule="nonzero"/><path fill="#000000" d="M 451.816406 355.023438 C 454.632812 350.945312 458.488281 348.90625 463.371094 348.90625 C 465.789062 348.90625 468.203125 349.5625 470.621094 350.871094 C 473.039062 352.179688 475.003906 354.496094 476.511719 357.816406 C 478.375 361.996094 479.308594 367.738281 479.308594 375.039062 C 479.308594 382.84375 478.226562 388.808594 476.058594 392.9375 C 475.050781 395.050781 473.667969 396.738281 471.90625 397.996094 C 470.144531 399.257812 468.609375 400.035156 467.296875 400.339844 C 465.988281 400.640625 464.703125 400.816406 463.445312 400.867188 C 462.136719 400.867188 460.828125 400.714844 459.519531 400.414062 C 458.210938 400.113281 456.671875 399.304688 454.910156 397.996094 C 453.148438 396.6875 451.765625 395 450.757812 392.9375 C 448.59375 388.808594 447.507812 382.84375 447.507812 375.039062 C 447.507812 366.277344 448.945312 359.605469 451.816406 355.023438 Z M 468.808594 354.117188 C 467.296875 352.507812 465.511719 351.699219 463.445312 351.699219 C 461.332031 351.699219 459.519531 352.507812 458.007812 354.117188 C 456.75 355.425781 455.917969 357.238281 455.515625 359.554688 C 455.113281 361.871094 454.910156 366.703125 454.910156 374.054688 C 454.910156 382.011719 455.113281 387.246094 455.515625 389.765625 C 455.917969 392.28125 456.824219 394.269531 458.234375 395.730469 C 459.644531 397.242188 461.382812 397.996094 463.445312 397.996094 C 465.460938 397.996094 467.171875 397.242188 468.582031 395.730469 C 470.042969 394.222656 470.949219 392.105469 471.300781 389.386719 C 471.652344 386.667969 471.855469 381.558594 471.90625 374.054688 C 471.90625 366.753906 471.703125 361.945312 471.300781 359.628906 C 470.898438 357.316406 470.066406 355.476562 468.808594 354.117188 Z M 468.808594 354.117188 " fill-opacity="1" fill-rule="nonzero"/><g clip-path="url(#96ceb553f2)"><path fill="#000000" d="M 487.757812 343.558594 C 487.792969 343.488281 488.097656 341.546875 488.667969 337.738281 L 489.519531 332.023438 C 489.519531 331.953125 489.875 331.917969 490.589844 331.917969 L 491.65625 331.917969 L 491.65625 332.132812 C 491.65625 332.488281 491.921875 332.789062 492.457031 333.039062 C 492.992188 333.289062 493.917969 333.449219 495.234375 333.519531 C 496.550781 333.589844 499.558594 333.628906 504.257812 333.628906 L 510.71875 333.628906 L 510.71875 335.710938 L 507.089844 340.675781 C 506.769531 341.101562 506.234375 341.816406 505.488281 342.8125 C 504.738281 343.808594 504.257812 344.464844 504.046875 344.785156 C 503.832031 345.105469 503.457031 345.675781 502.925781 346.496094 C 502.390625 347.3125 502.035156 347.953125 501.855469 348.417969 C 501.679688 348.878906 501.429688 349.539062 501.109375 350.394531 C 500.789062 351.246094 500.554688 352.066406 500.414062 352.847656 C 500.273438 353.632812 500.128906 354.59375 499.988281 355.734375 C 499.84375 356.871094 499.738281 358.082031 499.667969 359.363281 C 499.59375 360.644531 499.542969 362.105469 499.507812 363.742188 C 499.507812 364.242188 499.507812 364.738281 499.507812 365.238281 C 499.507812 365.734375 499.488281 366.164062 499.453125 366.519531 L 499.453125 367 C 499.308594 367.605469 498.972656 368.121094 498.4375 368.546875 C 497.90625 368.976562 497.300781 369.1875 496.621094 369.1875 C 496.230469 369.1875 495.855469 369.136719 495.5 369.027344 C 495.144531 368.921875 494.773438 368.582031 494.378906 368.015625 C 493.988281 367.445312 493.792969 366.734375 493.792969 365.878906 C 493.792969 360.253906 495.519531 354.414062 498.972656 348.363281 C 499.683594 347.226562 501.179688 345.070312 503.457031 341.902344 L 505.914062 338.539062 L 500.949219 338.539062 C 494.753906 338.539062 491.496094 338.644531 491.175781 338.859375 C 490.960938 338.964844 490.765625 339.394531 490.589844 340.140625 C 490.410156 340.890625 490.234375 341.65625 490.054688 342.4375 L 489.894531 343.558594 L 489.894531 343.71875 L 487.757812 343.71875 Z M 487.757812 343.558594 " fill-opacity="1" fill-rule="nonzero"/></g><g clip-path="url(#6b631a7762)"><path fill="#000000" d="M 519.835938 342.636719 L 520.140625 342.5625 C 520.390625 342.5625 520.644531 342.5625 520.894531 342.5625 L 521.800781 342.5625 L 523.914062 344.375 C 528.648438 348.65625 532.097656 353.992188 534.261719 360.386719 C 536.429688 366.78125 537.511719 373.425781 537.511719 380.324219 C 537.511719 383.75 537.257812 387.046875 536.757812 390.21875 C 536.253906 393.390625 535.671875 396.082031 535.019531 398.300781 C 534.363281 400.515625 533.433594 402.730469 532.222656 404.945312 C 531.015625 407.160156 530.058594 408.847656 529.355469 410.003906 C 528.648438 411.164062 527.617188 412.449219 526.257812 413.855469 C 524.898438 415.265625 524.09375 416.097656 523.839844 416.347656 C 523.589844 416.601562 523.007812 417.078125 522.101562 417.785156 C 521.953125 417.9375 521.851562 418.035156 521.800781 418.085938 L 520.894531 418.085938 C 520.492188 418.085938 520.214844 418.085938 520.0625 418.085938 C 519.914062 418.085938 519.785156 418.011719 519.6875 417.859375 C 519.585938 417.710938 519.511719 417.484375 519.460938 417.179688 C 519.511719 417.128906 519.785156 416.800781 520.289062 416.199219 C 528.09375 408.09375 531.996094 396.132812 531.996094 380.324219 C 531.996094 364.515625 528.09375 352.558594 520.289062 344.449219 C 519.785156 343.847656 519.511719 343.519531 519.460938 343.46875 C 519.460938 343.066406 519.585938 342.789062 519.835938 342.636719 Z M 519.835938 342.636719 " fill-opacity="1" fill-rule="nonzero"/></g><path fill="#000000" d="M 609.054688 397.015625 C 609.054688 398.023438 608.523438 398.527344 607.46875 398.527344 C 607.214844 398.527344 606.660156 398.121094 605.804688 397.316406 C 604.949219 396.511719 602.582031 394.171875 598.707031 390.292969 L 590.851562 382.4375 L 582.921875 390.371094 C 577.582031 395.605469 574.839844 398.273438 574.6875 398.375 C 574.484375 398.476562 574.308594 398.527344 574.160156 398.527344 C 573.757812 398.527344 573.402344 398.375 573.101562 398.074219 C 572.800781 397.769531 572.621094 397.417969 572.574219 397.015625 C 572.574219 396.664062 572.925781 396.109375 573.628906 395.355469 C 574.335938 394.597656 576.703125 392.207031 580.730469 388.179688 L 588.585938 380.324219 L 580.730469 372.46875 C 576.652344 368.390625 574.285156 366 573.628906 365.296875 C 572.976562 364.589844 572.621094 364.035156 572.574219 363.632812 C 572.574219 363.179688 572.722656 362.828125 573.027344 362.578125 C 573.328125 362.324219 573.707031 362.199219 574.160156 362.199219 C 574.410156 362.199219 574.585938 362.222656 574.6875 362.273438 C 574.839844 362.375 577.582031 365.042969 582.921875 370.28125 L 590.851562 378.210938 L 598.707031 370.355469 C 602.582031 366.476562 604.949219 364.136719 605.804688 363.332031 C 606.660156 362.527344 607.214844 362.125 607.46875 362.125 C 608.523438 362.125 609.054688 362.625 609.054688 363.632812 C 609.054688 363.984375 608.800781 364.4375 608.296875 364.992188 C 607.796875 365.546875 605.328125 368.015625 600.898438 372.394531 L 593.042969 380.324219 L 600.898438 388.253906 C 605.125 392.484375 607.542969 394.925781 608.148438 395.582031 C 608.75 396.234375 609.054688 396.714844 609.054688 397.015625 Z M 609.054688 397.015625 " fill-opacity="1" fill-rule="nonzero"/><path fill="#000000" d="M 645.246094 366.804688 C 643.886719 366.804688 642.804688 366.351562 642 365.445312 C 641.195312 364.539062 640.792969 363.433594 640.792969 362.125 C 640.792969 358.546875 642.125 355.453125 644.792969 352.832031 C 647.464844 350.214844 650.785156 348.90625 654.765625 348.90625 C 659.347656 348.90625 663.171875 350.316406 666.246094 353.136719 C 669.316406 355.957031 670.878906 359.605469 670.929688 364.085938 C 670.929688 366.25 670.425781 368.316406 669.417969 370.28125 C 668.410156 372.242188 667.203125 373.957031 665.792969 375.414062 C 664.382812 376.875 662.367188 378.738281 659.75 381.003906 C 657.9375 382.566406 655.417969 384.882812 652.195312 387.953125 L 647.742188 392.183594 L 653.480469 392.257812 C 661.386719 392.257812 665.589844 392.132812 666.09375 391.878906 C 666.445312 391.777344 667.050781 389.539062 667.90625 385.15625 L 667.90625 384.929688 L 670.929688 384.929688 L 670.929688 385.15625 C 670.878906 385.308594 670.550781 387.601562 669.945312 392.03125 C 669.34375 396.460938 668.964844 398.777344 668.8125 398.980469 L 668.8125 399.207031 L 640.792969 399.207031 L 640.792969 396.863281 C 640.792969 396.511719 640.941406 396.132812 641.246094 395.730469 C 641.546875 395.328125 642.300781 394.449219 643.511719 393.089844 C 644.972656 391.476562 646.230469 390.066406 647.289062 388.859375 C 647.742188 388.355469 648.597656 387.421875 649.855469 386.0625 C 651.113281 384.703125 651.96875 383.773438 652.421875 383.269531 C 652.875 382.765625 653.605469 381.9375 654.613281 380.777344 C 655.621094 379.621094 656.324219 378.761719 656.730469 378.210938 C 657.132812 377.65625 657.710938 376.902344 658.464844 375.945312 C 659.222656 374.988281 659.75 374.183594 660.050781 373.527344 C 660.355469 372.871094 660.730469 372.144531 661.183594 371.335938 C 661.636719 370.53125 661.964844 369.726562 662.167969 368.921875 C 662.367188 368.113281 662.542969 367.359375 662.695312 366.65625 C 662.847656 365.949219 662.921875 365.117188 662.921875 364.164062 C 662.921875 360.988281 662.066406 358.246094 660.355469 355.929688 C 658.640625 353.613281 656.199219 352.457031 653.027344 352.457031 C 651.367188 352.457031 649.90625 352.882812 648.648438 353.738281 C 647.386719 354.597656 646.507812 355.425781 646.003906 356.230469 C 645.5 357.039062 645.246094 357.515625 645.246094 357.667969 C 645.246094 357.71875 645.375 357.742188 645.625 357.742188 C 646.53125 357.742188 647.464844 358.09375 648.421875 358.800781 C 649.375 359.503906 649.855469 360.664062 649.855469 362.273438 C 649.855469 363.53125 649.453125 364.589844 648.648438 365.445312 C 647.839844 366.300781 646.707031 366.753906 645.246094 366.804688 Z M 645.246094 366.804688 " fill-opacity="1" fill-rule="nonzero"/><path fill="#000000" d="M 682.03125 355.023438 C 684.851562 350.945312 688.703125 348.90625 693.585938 348.90625 C 696.003906 348.90625 698.421875 349.5625 700.839844 350.871094 C 703.253906 352.179688 705.21875 354.496094 706.730469 357.816406 C 708.59375 361.996094 709.523438 367.738281 709.523438 375.039062 C 709.523438 382.84375 708.441406 388.808594 706.277344 392.9375 C 705.269531 395.050781 703.882812 396.738281 702.121094 397.996094 C 700.359375 399.257812 698.824219 400.035156 697.515625 400.339844 C 696.207031 400.640625 694.921875 400.816406 693.664062 400.867188 C 692.355469 400.867188 691.042969 400.714844 689.734375 400.414062 C 688.425781 400.113281 686.890625 399.304688 685.128906 397.996094 C 683.367188 396.6875 681.980469 395 680.972656 392.9375 C 678.808594 388.808594 677.726562 382.84375 677.726562 375.039062 C 677.726562 366.277344 679.160156 359.605469 682.03125 355.023438 Z M 699.027344 354.117188 C 697.515625 352.507812 695.726562 351.699219 693.664062 351.699219 C 691.546875 351.699219 689.734375 352.507812 688.226562 354.117188 C 686.964844 355.425781 686.136719 357.238281 685.730469 359.554688 C 685.328125 361.871094 685.128906 366.703125 685.128906 374.054688 C 685.128906 382.011719 685.328125 387.246094 685.730469 389.765625 C 686.136719 392.28125 687.042969 394.269531 688.453125 395.730469 C 689.859375 397.242188 691.597656 397.996094 693.664062 397.996094 C 695.675781 397.996094 697.390625 397.242188 698.800781 395.730469 C 700.257812 394.222656 701.164062 392.105469 701.519531 389.386719 C 701.871094 386.667969 702.070312 381.558594 702.121094 374.054688 C 702.121094 366.753906 701.921875 361.945312 701.519531 359.628906 C 701.117188 357.316406 700.285156 355.476562 699.027344 354.117188 Z M 699.027344 354.117188 " fill-opacity="1" fill-rule="nonzero"/></svg>