<svg xmlns="http://www.w3.org/2000/svg" xmlns:xlink="http://www.w3.org/1999/xlink" width="1000" zoomAndPan="magnify" viewBox="0 0 750 749.999995" height="1000" preserveAspectRatio="xMidYMid meet" version="1.0"><rect x="-75" width="900" fill="#ffffff" y="-74.999999" height="899.999994" fill-opacity="1"/><rect x="-75" width="900" fill="#ffffff" y="-74.999999" height="899.999994" fill-opacity="1"/><path fill="#000000" d="M 44.785156 380.1875 C 44.785156 376.625 45.042969 373.238281 45.558594 370.035156 C 46.074219 366.832031 46.667969 364.070312 47.339844 361.742188 C 48.011719 359.417969 48.96875 357.144531 50.207031 354.921875 C 51.445312 352.703125 52.429688 350.972656 53.152344 349.730469 C 53.875 348.492188 54.960938 347.148438 56.40625 345.699219 C 57.851562 344.253906 58.703125 343.375 58.964844 343.066406 C 59.222656 342.757812 59.867188 342.214844 60.898438 341.4375 L 62.21875 341.4375 C 62.941406 341.4375 63.300781 341.671875 63.300781 342.136719 C 63.300781 342.289062 62.863281 342.832031 61.984375 343.761719 C 61.105469 344.695312 60.046875 346.0625 58.808594 347.871094 C 57.570312 349.679688 56.304688 351.902344 55.011719 354.535156 C 53.71875 357.171875 52.636719 360.734375 51.757812 365.230469 C 50.878906 369.726562 50.441406 374.710938 50.441406 380.1875 C 50.441406 385.664062 50.878906 390.625 51.757812 395.070312 C 52.636719 399.511719 53.695312 403.101562 54.933594 405.839844 C 56.171875 408.578125 57.4375 410.800781 58.730469 412.507812 C 60.023438 414.210938 61.105469 415.582031 61.984375 416.613281 C 62.863281 417.648438 63.300781 418.191406 63.300781 418.242188 C 63.300781 418.707031 62.914062 418.9375 62.140625 418.9375 L 60.898438 418.9375 L 58.730469 417.078125 C 53.875 412.6875 50.335938 407.210938 48.117188 400.648438 C 45.894531 394.085938 44.785156 387.265625 44.785156 380.1875 Z M 44.785156 380.1875 " fill-opacity="1" fill-rule="nonzero"/><path fill="#000000" d="M 94.917969 377.320312 C 92.4375 381.246094 89.335938 383.210938 85.617188 383.210938 C 81.589844 383.210938 78.28125 381.6875 75.699219 378.636719 C 73.117188 375.589844 71.566406 372.335938 71.050781 368.875 C 70.949219 368.046875 70.894531 367.011719 70.894531 365.773438 L 70.894531 365.152344 C 70.894531 360.347656 72.679688 356.164062 76.242188 352.597656 C 79.339844 349.5 82.75 347.949219 86.46875 347.949219 C 86.574219 347.949219 86.730469 347.949219 86.933594 347.949219 C 87.140625 347.949219 87.347656 347.972656 87.554688 348.027344 L 87.863281 348.027344 C 88.484375 348.027344 89.128906 348.078125 89.800781 348.179688 C 90.472656 348.285156 91.429688 348.59375 92.667969 349.109375 C 93.910156 349.628906 95.121094 350.453125 96.3125 351.589844 C 97.5 352.726562 98.609375 354.25 99.644531 356.164062 C 101.863281 360.710938 102.972656 366.546875 102.972656 373.679688 C 102.972656 380.910156 101.425781 387.035156 98.324219 392.046875 C 96.515625 394.941406 94.347656 397.1875 91.816406 398.789062 C 89.285156 400.390625 86.597656 401.21875 83.757812 401.269531 C 80.605469 401.269531 78.023438 400.519531 76.011719 399.019531 C 73.996094 397.523438 72.960938 395.300781 72.910156 392.355469 C 72.859375 389.410156 74.226562 387.964844 77.015625 388.015625 C 78.152344 388.015625 79.109375 388.378906 79.882812 389.101562 C 80.660156 389.824219 81.046875 390.832031 81.046875 392.125 C 81.046875 393.054688 80.8125 393.855469 80.347656 394.527344 C 79.882812 395.199219 79.472656 395.609375 79.109375 395.765625 C 78.746094 395.921875 78.410156 396.050781 78.101562 396.152344 L 77.792969 396.230469 C 77.792969 396.335938 77.972656 396.488281 78.335938 396.695312 C 78.695312 396.902344 79.367188 397.160156 80.347656 397.472656 C 81.332031 397.78125 82.414062 397.910156 83.601562 397.859375 L 84.066406 397.859375 C 87.167969 397.859375 89.777344 396.207031 91.894531 392.898438 C 93.910156 390.003906 94.917969 384.992188 94.917969 377.863281 Z M 86.546875 380.34375 C 89.027344 380.34375 91.015625 379.078125 92.515625 376.546875 C 94.011719 374.015625 94.785156 370.578125 94.839844 366.238281 C 94.839844 362.207031 94.632812 359.316406 94.21875 357.558594 C 94.117188 357.042969 93.960938 356.523438 93.753906 356.007812 C 93.546875 355.492188 93.1875 354.820312 92.667969 353.992188 C 92.152344 353.167969 91.378906 352.46875 90.34375 351.902344 C 89.3125 351.332031 88.097656 351.074219 86.703125 351.125 C 84.738281 351.125 83.0625 351.824219 81.667969 353.21875 C 80.582031 354.355469 79.882812 355.699219 79.574219 357.25 C 79.265625 358.796875 79.082031 361.511719 79.03125 365.386719 C 79.03125 369.675781 79.160156 372.566406 79.417969 374.066406 C 79.675781 375.566406 80.195312 376.777344 80.96875 377.707031 C 82.261719 379.464844 84.121094 380.34375 86.546875 380.34375 Z M 86.546875 380.34375 " fill-opacity="1" fill-rule="nonzero"/><path fill="#000000" d="M 122.886719 354.769531 L 121.878906 355.15625 C 121.15625 355.414062 120.125 355.671875 118.78125 355.929688 C 117.4375 356.1875 115.941406 356.371094 114.289062 356.472656 L 112.816406 356.472656 L 112.816406 352.910156 L 114.289062 352.910156 C 116.714844 352.804688 118.960938 352.417969 121.027344 351.746094 C 123.09375 351.074219 124.542969 350.453125 125.367188 349.886719 C 126.195312 349.316406 126.917969 348.75 127.539062 348.179688 C 127.640625 348.027344 127.949219 347.949219 128.46875 347.949219 C 128.933594 347.949219 129.371094 348.101562 129.785156 348.414062 L 129.785156 371.585938 L 129.863281 394.835938 C 130.222656 395.199219 130.535156 395.429688 130.792969 395.535156 C 131.050781 395.636719 131.667969 395.742188 132.652344 395.84375 C 133.632812 395.945312 135.234375 396 137.457031 396 L 139.46875 396 L 139.46875 399.5625 L 138.617188 399.5625 C 137.53125 399.410156 133.425781 399.332031 126.296875 399.332031 C 119.273438 399.332031 115.21875 399.410156 114.132812 399.5625 L 113.203125 399.5625 L 113.203125 396 L 115.21875 396 C 116.355469 396 117.335938 396 118.160156 396 C 118.988281 396 119.632812 395.972656 120.097656 395.921875 C 120.5625 395.871094 120.976562 395.792969 121.339844 395.6875 C 121.699219 395.585938 121.90625 395.535156 121.957031 395.535156 C 122.011719 395.535156 122.164062 395.40625 122.421875 395.144531 C 122.679688 394.886719 122.835938 394.785156 122.886719 394.835938 Z M 122.886719 354.769531 " fill-opacity="1" fill-rule="nonzero"/><path fill="#000000" d="M 153.570312 366.316406 C 152.175781 366.316406 151.066406 365.851562 150.238281 364.921875 C 149.414062 363.992188 149 362.855469 149 361.511719 C 149 357.84375 150.371094 354.664062 153.105469 351.976562 C 155.84375 349.292969 159.253906 347.949219 163.335938 347.949219 C 168.035156 347.949219 171.960938 349.394531 175.113281 352.289062 C 178.265625 355.183594 179.863281 358.925781 179.917969 363.527344 C 179.917969 365.746094 179.398438 367.867188 178.367188 369.882812 C 177.332031 371.894531 176.09375 373.652344 174.648438 375.152344 C 173.203125 376.648438 171.136719 378.5625 168.449219 380.886719 C 166.589844 382.488281 164.007812 384.863281 160.699219 388.015625 L 156.128906 392.355469 L 162.019531 392.433594 C 170.128906 392.433594 174.441406 392.304688 174.957031 392.046875 C 175.320312 391.941406 175.9375 389.644531 176.816406 385.148438 L 176.816406 384.917969 L 179.917969 384.917969 L 179.917969 385.148438 C 179.863281 385.304688 179.53125 387.65625 178.910156 392.203125 C 178.289062 396.746094 177.902344 399.125 177.746094 399.332031 L 177.746094 399.5625 L 149 399.5625 L 149 397.160156 C 149 396.800781 149.15625 396.410156 149.464844 396 C 149.773438 395.585938 150.550781 394.679688 151.789062 393.285156 C 153.289062 391.632812 154.578125 390.1875 155.664062 388.945312 C 156.128906 388.429688 157.007812 387.472656 158.296875 386.078125 C 159.589844 384.683594 160.46875 383.726562 160.933594 383.210938 C 161.398438 382.695312 162.148438 381.84375 163.179688 380.652344 C 164.214844 379.464844 164.9375 378.585938 165.351562 378.019531 C 165.761719 377.449219 166.355469 376.675781 167.132812 375.695312 C 167.90625 374.710938 168.449219 373.886719 168.757812 373.214844 C 169.070312 372.542969 169.457031 371.792969 169.921875 370.964844 C 170.386719 370.140625 170.722656 369.3125 170.929688 368.484375 C 171.136719 367.660156 171.316406 366.882812 171.472656 366.160156 C 171.625 365.4375 171.703125 364.585938 171.703125 363.605469 C 171.703125 360.347656 170.824219 357.53125 169.070312 355.15625 C 167.3125 352.78125 164.808594 351.589844 161.554688 351.589844 C 159.847656 351.589844 158.351562 352.03125 157.058594 352.910156 C 155.765625 353.785156 154.863281 354.640625 154.347656 355.464844 C 153.832031 356.292969 153.570312 356.785156 153.570312 356.9375 C 153.570312 356.988281 153.699219 357.015625 153.960938 357.015625 C 154.890625 357.015625 155.84375 357.378906 156.828125 358.101562 C 157.808594 358.824219 158.296875 360.011719 158.296875 361.667969 C 158.296875 362.957031 157.886719 364.042969 157.058594 364.921875 C 156.230469 365.800781 155.070312 366.265625 153.570312 366.316406 Z M 153.570312 366.316406 " fill-opacity="1" fill-rule="nonzero"/><path fill="#000000" d="M 191.308594 354.226562 C 194.199219 350.039062 198.152344 347.949219 203.164062 347.949219 C 205.640625 347.949219 208.121094 348.621094 210.601562 349.964844 C 213.082031 351.308594 215.09375 353.683594 216.644531 357.09375 C 218.554688 361.382812 219.511719 367.273438 219.511719 374.761719 C 219.511719 382.773438 218.402344 388.894531 216.179688 393.132812 C 215.148438 395.300781 213.726562 397.03125 211.917969 398.324219 C 210.109375 399.617188 208.535156 400.417969 207.191406 400.726562 C 205.847656 401.035156 204.53125 401.21875 203.238281 401.269531 C 201.898438 401.269531 200.554688 401.113281 199.210938 400.804688 C 197.867188 400.492188 196.292969 399.667969 194.484375 398.324219 C 192.675781 396.980469 191.253906 395.25 190.222656 393.132812 C 188 388.894531 186.890625 382.773438 186.890625 374.761719 C 186.890625 365.773438 188.363281 358.925781 191.308594 354.226562 Z M 208.742188 353.296875 C 207.191406 351.644531 205.359375 350.816406 203.238281 350.816406 C 201.070312 350.816406 199.210938 351.644531 197.660156 353.296875 C 196.371094 354.640625 195.515625 356.5 195.105469 358.875 C 194.691406 361.253906 194.484375 366.210938 194.484375 373.757812 C 194.484375 381.917969 194.691406 387.292969 195.105469 389.875 C 195.515625 392.460938 196.445312 394.5 197.894531 396 C 199.339844 397.546875 201.121094 398.324219 203.238281 398.324219 C 205.304688 398.324219 207.0625 397.546875 208.507812 396 C 210.007812 394.449219 210.9375 392.277344 211.296875 389.488281 C 211.660156 386.699219 211.867188 381.453125 211.917969 373.757812 C 211.917969 366.265625 211.710938 361.332031 211.296875 358.953125 C 210.886719 356.578125 210.03125 354.691406 208.742188 353.296875 Z M 208.742188 353.296875 " fill-opacity="1" fill-rule="nonzero"/><path fill="#000000" d="M 230.050781 354.226562 C 232.941406 350.039062 236.894531 347.949219 241.90625 347.949219 C 244.382812 347.949219 246.863281 348.621094 249.34375 349.964844 C 251.824219 351.308594 253.835938 353.683594 255.386719 357.09375 C 257.296875 361.382812 258.253906 367.273438 258.253906 374.761719 C 258.253906 382.773438 257.144531 388.894531 254.921875 393.132812 C 253.890625 395.300781 252.46875 397.03125 250.660156 398.324219 C 248.851562 399.617188 247.277344 400.417969 245.933594 400.726562 C 244.589844 401.035156 243.273438 401.21875 241.980469 401.269531 C 240.640625 401.269531 239.296875 401.113281 237.953125 400.804688 C 236.609375 400.492188 235.035156 399.667969 233.226562 398.324219 C 231.417969 396.980469 229.996094 395.25 228.964844 393.132812 C 226.742188 388.894531 225.632812 382.773438 225.632812 374.761719 C 225.632812 365.773438 227.105469 358.925781 230.050781 354.226562 Z M 247.484375 353.296875 C 245.933594 351.644531 244.101562 350.816406 241.980469 350.816406 C 239.8125 350.816406 237.953125 351.644531 236.402344 353.296875 C 235.113281 354.640625 234.257812 356.5 233.847656 358.875 C 233.433594 361.253906 233.226562 366.210938 233.226562 373.757812 C 233.226562 381.917969 233.433594 387.292969 233.847656 389.875 C 234.257812 392.460938 235.1875 394.5 236.636719 396 C 238.082031 397.546875 239.863281 398.324219 241.980469 398.324219 C 244.046875 398.324219 245.804688 397.546875 247.25 396 C 248.75 394.449219 249.679688 392.277344 250.039062 389.488281 C 250.402344 386.699219 250.609375 381.453125 250.660156 373.757812 C 250.660156 366.265625 250.453125 361.332031 250.039062 358.953125 C 249.628906 356.578125 248.773438 354.691406 247.484375 353.296875 Z M 247.484375 353.296875 " fill-opacity="1" fill-rule="nonzero"/><path fill="#000000" d="M 327.386719 397.316406 C 327.386719 398.351562 326.84375 398.867188 325.757812 398.867188 C 325.5 398.867188 324.933594 398.453125 324.054688 397.625 C 323.175781 396.800781 320.746094 394.398438 316.769531 390.417969 L 308.710938 382.359375 L 300.574219 390.496094 C 295.101562 395.871094 292.285156 398.609375 292.128906 398.710938 C 291.921875 398.816406 291.742188 398.867188 291.585938 398.867188 C 291.175781 398.867188 290.8125 398.710938 290.503906 398.402344 C 290.191406 398.089844 290.011719 397.730469 289.960938 397.316406 C 289.960938 396.953125 290.320312 396.386719 291.046875 395.609375 C 291.769531 394.835938 294.195312 392.382812 298.328125 388.25 L 306.386719 380.1875 L 298.328125 372.128906 C 294.144531 367.945312 291.71875 365.488281 291.046875 364.765625 C 290.375 364.042969 290.011719 363.472656 289.960938 363.0625 C 289.960938 362.597656 290.117188 362.234375 290.425781 361.976562 C 290.734375 361.71875 291.121094 361.589844 291.585938 361.589844 C 291.847656 361.589844 292.027344 361.613281 292.128906 361.667969 C 292.285156 361.769531 295.101562 364.507812 300.574219 369.882812 L 308.710938 378.019531 L 316.769531 369.957031 C 320.746094 365.980469 323.175781 363.578125 324.054688 362.75 C 324.933594 361.925781 325.5 361.511719 325.757812 361.511719 C 326.84375 361.511719 327.386719 362.027344 327.386719 363.0625 C 327.386719 363.421875 327.128906 363.886719 326.609375 364.457031 C 326.09375 365.023438 323.5625 367.554688 319.015625 372.050781 L 310.957031 380.1875 L 319.015625 388.328125 C 323.355469 392.667969 325.835938 395.171875 326.457031 395.84375 C 327.074219 396.515625 327.386719 397.007812 327.386719 397.316406 Z M 327.386719 397.316406 " fill-opacity="1" fill-rule="nonzero"/><path fill="#000000" d="M 372.574219 354.769531 L 371.566406 355.15625 C 370.84375 355.414062 369.8125 355.671875 368.46875 355.929688 C 367.125 356.1875 365.625 356.371094 363.972656 356.472656 L 362.5 356.472656 L 362.5 352.910156 L 363.972656 352.910156 C 366.402344 352.804688 368.648438 352.417969 370.714844 351.746094 C 372.78125 351.074219 374.226562 350.453125 375.054688 349.886719 C 375.878906 349.316406 376.605469 348.75 377.222656 348.179688 C 377.328125 348.027344 377.636719 347.949219 378.152344 347.949219 C 378.617188 347.949219 379.058594 348.101562 379.472656 348.414062 L 379.472656 371.585938 L 379.546875 394.835938 C 379.910156 395.199219 380.21875 395.429688 380.476562 395.535156 C 380.734375 395.636719 381.355469 395.742188 382.335938 395.84375 C 383.320312 395.945312 384.921875 396 387.140625 396 L 389.15625 396 L 389.15625 399.5625 L 388.304688 399.5625 C 387.21875 399.410156 383.113281 399.332031 375.984375 399.332031 C 368.957031 399.332031 364.902344 399.410156 363.820312 399.5625 L 362.890625 399.5625 L 362.890625 396 L 364.902344 396 C 366.039062 396 367.023438 396 367.847656 396 C 368.675781 396 369.320312 395.972656 369.785156 395.921875 C 370.25 395.871094 370.664062 395.792969 371.023438 395.6875 C 371.386719 395.585938 371.59375 395.535156 371.644531 395.535156 C 371.695312 395.535156 371.851562 395.40625 372.109375 395.144531 C 372.367188 394.886719 372.523438 394.785156 372.574219 394.835938 Z M 372.574219 354.769531 " fill-opacity="1" fill-rule="nonzero"/><path fill="#000000" d="M 402.25 354.226562 C 405.144531 350.039062 409.09375 347.949219 414.105469 347.949219 C 416.585938 347.949219 419.066406 348.621094 421.542969 349.964844 C 424.023438 351.308594 426.039062 353.683594 427.589844 357.09375 C 429.5 361.382812 430.457031 367.273438 430.457031 374.761719 C 430.457031 382.773438 429.34375 388.894531 427.125 393.132812 C 426.089844 395.300781 424.671875 397.03125 422.863281 398.324219 C 421.054688 399.617188 419.480469 400.417969 418.136719 400.726562 C 416.792969 401.035156 415.476562 401.21875 414.183594 401.269531 C 412.839844 401.269531 411.496094 401.113281 410.15625 400.804688 C 408.8125 400.492188 407.234375 399.667969 405.429688 398.324219 C 403.621094 396.980469 402.199219 395.25 401.167969 393.132812 C 398.945312 388.894531 397.835938 382.773438 397.835938 374.761719 C 397.835938 365.773438 399.308594 358.925781 402.25 354.226562 Z M 419.683594 353.296875 C 418.136719 351.644531 416.300781 350.816406 414.183594 350.816406 C 412.015625 350.816406 410.15625 351.644531 408.605469 353.296875 C 407.3125 354.640625 406.460938 356.5 406.046875 358.875 C 405.632812 361.253906 405.429688 366.210938 405.429688 373.757812 C 405.429688 381.917969 405.632812 387.292969 406.046875 389.875 C 406.460938 392.460938 407.390625 394.5 408.835938 396 C 410.285156 397.546875 412.066406 398.324219 414.183594 398.324219 C 416.25 398.324219 418.007812 397.546875 419.453125 396 C 420.949219 394.449219 421.878906 392.277344 422.242188 389.488281 C 422.605469 386.699219 422.808594 381.453125 422.863281 373.757812 C 422.863281 366.265625 422.65625 361.332031 422.242188 358.953125 C 421.828125 356.578125 420.976562 354.691406 419.683594 353.296875 Z M 419.683594 353.296875 " fill-opacity="1" fill-rule="nonzero"/><path fill="#000000" d="M 440.714844 354.570312 C 440.714844 354.570312 440.714844 354.332031 440.714844 353.859375 C 440.714844 353.382812 440.96875 353.019531 441.480469 352.761719 L 473.308594 352.761719 C 473.855469 353.054688 474.128906 353.417969 474.128906 353.859375 C 474.128906 354.296875 473.855469 354.660156 473.308594 354.953125 L 441.480469 354.953125 C 440.96875 354.699219 440.714844 354.332031 440.714844 353.859375 Z M 440.714844 354.570312 " fill-opacity="1" fill-rule="nonzero"/><path fill="#000000" d="M 490.402344 335.886719 L 489.6875 336.160156 C 489.175781 336.34375 488.445312 336.523438 487.496094 336.707031 C 486.546875 336.890625 485.488281 337.019531 484.320312 337.089844 L 483.277344 337.089844 L 483.277344 334.570312 L 484.320312 334.570312 C 486.035156 334.496094 487.625 334.222656 489.085938 333.75 C 490.546875 333.273438 491.570312 332.835938 492.152344 332.433594 C 492.738281 332.03125 493.25 331.628906 493.6875 331.226562 C 493.761719 331.117188 493.980469 331.0625 494.34375 331.0625 C 494.671875 331.0625 494.984375 331.171875 495.277344 331.394531 L 495.277344 347.777344 L 495.332031 364.214844 C 495.585938 364.46875 495.804688 364.632812 495.988281 364.707031 C 496.171875 364.78125 496.609375 364.851562 497.304688 364.925781 C 497.996094 365 499.128906 365.035156 500.699219 365.035156 L 502.125 365.035156 L 502.125 367.554688 L 501.519531 367.554688 C 500.753906 367.445312 497.851562 367.390625 492.8125 367.390625 C 487.84375 367.390625 484.976562 367.445312 484.210938 367.554688 L 483.554688 367.554688 L 483.554688 365.035156 L 484.976562 365.035156 C 485.78125 365.035156 486.476562 365.035156 487.058594 365.035156 C 487.644531 365.035156 488.101562 365.015625 488.429688 364.980469 C 488.757812 364.945312 489.050781 364.890625 489.304688 364.816406 C 489.5625 364.742188 489.707031 364.707031 489.742188 364.707031 C 489.78125 364.707031 489.890625 364.617188 490.070312 364.433594 C 490.253906 364.25 490.363281 364.175781 490.402344 364.214844 Z M 490.402344 335.886719 " fill-opacity="1" fill-rule="nonzero"/><path fill="#000000" d="M 514.660156 341.515625 L 514.96875 341.4375 C 515.226562 341.4375 515.484375 341.4375 515.742188 341.4375 L 516.671875 341.4375 L 518.84375 343.296875 C 523.699219 347.691406 527.238281 353.167969 529.457031 359.730469 C 531.679688 366.289062 532.789062 373.109375 532.789062 380.1875 C 532.789062 383.703125 532.53125 387.085938 532.015625 390.339844 C 531.5 393.597656 530.902344 396.359375 530.234375 398.632812 C 529.5625 400.90625 528.605469 403.179688 527.367188 405.453125 C 526.125 407.726562 525.144531 409.457031 524.421875 410.644531 C 523.699219 411.835938 522.640625 413.152344 521.246094 414.597656 C 519.851562 416.046875 519.023438 416.898438 518.765625 417.15625 C 518.507812 417.414062 517.914062 417.90625 516.984375 418.628906 C 516.828125 418.785156 516.722656 418.886719 516.671875 418.9375 L 515.742188 418.9375 C 515.328125 418.9375 515.046875 418.9375 514.890625 418.9375 C 514.734375 418.9375 514.605469 418.863281 514.503906 418.707031 C 514.398438 418.550781 514.324219 418.320312 514.269531 418.007812 C 514.324219 417.957031 514.605469 417.621094 515.125 417 C 523.128906 408.683594 527.132812 396.410156 527.132812 380.1875 C 527.132812 363.964844 523.128906 351.695312 515.125 343.375 C 514.605469 342.757812 514.324219 342.421875 514.269531 342.367188 C 514.269531 341.953125 514.398438 341.671875 514.660156 341.515625 Z M 514.660156 341.515625 " fill-opacity="1" fill-rule="nonzero"/><path fill="#000000" d="M 606.183594 397.316406 C 606.183594 398.351562 605.640625 398.867188 604.554688 398.867188 C 604.296875 398.867188 603.730469 398.453125 602.851562 397.625 C 601.972656 396.800781 599.546875 394.398438 595.566406 390.417969 L 587.507812 382.359375 L 579.375 390.496094 C 573.898438 395.871094 571.082031 398.609375 570.925781 398.710938 C 570.722656 398.816406 570.539062 398.867188 570.386719 398.867188 C 569.972656 398.867188 569.609375 398.710938 569.300781 398.402344 C 568.992188 398.089844 568.808594 397.730469 568.757812 397.316406 C 568.757812 396.953125 569.121094 396.386719 569.84375 395.609375 C 570.566406 394.835938 572.992188 392.382812 577.125 388.25 L 585.183594 380.1875 L 577.125 372.128906 C 572.941406 367.945312 570.515625 365.488281 569.84375 364.765625 C 569.171875 364.042969 568.808594 363.472656 568.757812 363.0625 C 568.757812 362.597656 568.914062 362.234375 569.222656 361.976562 C 569.53125 361.71875 569.921875 361.589844 570.386719 361.589844 C 570.644531 361.589844 570.824219 361.613281 570.925781 361.667969 C 571.082031 361.769531 573.898438 364.507812 579.375 369.882812 L 587.507812 378.019531 L 595.566406 369.957031 C 599.546875 365.980469 601.972656 363.578125 602.851562 362.75 C 603.730469 361.925781 604.296875 361.511719 604.554688 361.511719 C 605.640625 361.511719 606.183594 362.027344 606.183594 363.0625 C 606.183594 363.421875 605.925781 363.886719 605.410156 364.457031 C 604.890625 365.023438 602.359375 367.554688 597.816406 372.050781 L 589.757812 380.1875 L 597.816406 388.328125 C 602.152344 392.667969 604.632812 395.171875 605.253906 395.84375 C 605.875 396.515625 606.183594 397.007812 606.183594 397.316406 Z M 606.183594 397.316406 " fill-opacity="1" fill-rule="nonzero"/><path fill="#000000" d="M 647.582031 387.394531 C 647.582031 388.636719 647.167969 389.667969 646.34375 390.496094 C 645.515625 391.324219 644.507812 391.734375 643.320312 391.734375 L 642.777344 391.734375 C 645.15625 395.816406 648.304688 397.859375 652.230469 397.859375 C 655.847656 397.859375 658.484375 396.308594 660.136719 393.207031 C 661.117188 391.503906 661.609375 388.195312 661.609375 383.289062 C 661.609375 377.96875 660.910156 374.375 659.515625 372.515625 C 658.171875 370.8125 656.675781 369.957031 655.023438 369.957031 L 654.558594 369.957031 C 650.527344 369.957031 647.480469 371.714844 645.414062 375.230469 C 645.207031 375.589844 645.027344 375.796875 644.871094 375.847656 C 644.714844 375.898438 644.328125 375.953125 643.707031 376.003906 C 642.832031 376.003906 642.339844 375.847656 642.238281 375.539062 C 642.132812 375.332031 642.082031 370.8125 642.082031 361.976562 L 642.082031 351.976562 C 642.082031 349.394531 642.210938 348.101562 642.46875 348.101562 C 642.574219 348 642.675781 347.949219 642.777344 347.949219 C 642.832031 347.949219 643.375 348.15625 644.40625 348.570312 C 645.4375 348.980469 646.859375 349.394531 648.667969 349.808594 C 650.476562 350.222656 652.414062 350.429688 654.480469 350.429688 C 658.148438 350.429688 661.660156 349.707031 665.015625 348.257812 C 665.429688 348.050781 665.765625 347.949219 666.023438 347.949219 C 666.4375 347.949219 666.644531 348.414062 666.644531 349.34375 L 666.644531 350.351562 C 662.410156 355.363281 657.113281 357.867188 650.761719 357.867188 C 649.160156 357.867188 647.710938 357.714844 646.421875 357.402344 L 645.644531 357.25 L 645.644531 370.578125 C 646.628906 369.855469 647.402344 369.285156 647.96875 368.875 C 648.539062 368.460938 649.46875 368.046875 650.761719 367.632812 C 652.050781 367.21875 653.367188 367.011719 654.710938 367.011719 C 658.894531 367.011719 662.433594 368.691406 665.328125 372.050781 C 668.21875 375.410156 669.667969 379.386719 669.667969 383.984375 C 669.667969 388.738281 668.011719 392.796875 664.707031 396.152344 C 661.402344 399.511719 657.371094 401.21875 652.621094 401.269531 C 648.433594 401.269531 645.078125 399.875 642.546875 397.082031 C 640.015625 394.292969 638.75 391.140625 638.75 387.628906 C 638.75 386.390625 639.035156 385.40625 639.601562 384.683594 C 640.171875 383.960938 640.765625 383.496094 641.382812 383.289062 C 642.003906 383.082031 642.597656 382.980469 643.167969 382.980469 C 644.457031 382.980469 645.515625 383.417969 646.34375 384.296875 C 647.167969 385.175781 647.582031 386.207031 647.582031 387.394531 Z M 647.582031 387.394531 " fill-opacity="1" fill-rule="nonzero"/><path fill="#000000" d="M 681.054688 354.226562 C 683.949219 350.039062 687.902344 347.949219 692.910156 347.949219 C 695.390625 347.949219 697.871094 348.621094 700.351562 349.964844 C 702.828125 351.308594 704.84375 353.683594 706.394531 357.09375 C 708.304688 361.382812 709.261719 367.273438 709.261719 374.761719 C 709.261719 382.773438 708.148438 388.894531 705.929688 393.132812 C 704.894531 395.300781 703.476562 397.03125 701.667969 398.324219 C 699.859375 399.617188 698.285156 400.417969 696.941406 400.726562 C 695.597656 401.035156 694.28125 401.21875 692.988281 401.269531 C 691.644531 401.269531 690.304688 401.113281 688.960938 400.804688 C 687.617188 400.492188 686.042969 399.667969 684.234375 398.324219 C 682.425781 396.980469 681.003906 395.25 679.972656 393.132812 C 677.75 388.894531 676.640625 382.773438 676.640625 374.761719 C 676.640625 365.773438 678.113281 358.925781 681.054688 354.226562 Z M 698.492188 353.296875 C 696.941406 351.644531 695.105469 350.816406 692.988281 350.816406 C 690.820312 350.816406 688.960938 351.644531 687.410156 353.296875 C 686.117188 354.640625 685.265625 356.5 684.851562 358.875 C 684.441406 361.253906 684.234375 366.210938 684.234375 373.757812 C 684.234375 381.917969 684.441406 387.292969 684.851562 389.875 C 685.265625 392.460938 686.195312 394.5 687.644531 396 C 689.089844 397.546875 690.871094 398.324219 692.988281 398.324219 C 695.054688 398.324219 696.8125 397.546875 698.257812 396 C 699.757812 394.449219 700.6875 392.277344 701.046875 389.488281 C 701.410156 386.699219 701.617188 381.453125 701.667969 373.757812 C 701.667969 366.265625 701.460938 361.332031 701.046875 358.953125 C 700.632812 356.578125 699.78125 354.691406 698.492188 353.296875 Z M 698.492188 353.296875 " fill-opacity="1" fill-rule="nonzero"/></svg>