<svg xmlns="http://www.w3.org/2000/svg" xmlns:xlink="http://www.w3.org/1999/xlink" width="1000" zoomAndPan="magnify" viewBox="0 0 750 749.999995" height="1000" preserveAspectRatio="xMidYMid meet" version="1.0"><defs><clipPath id="13bbf9f68c"><path d="M 45 340 L 65 340 L 65 420.804688 L 45 420.804688 Z M 45 340 " clip-rule="nonzero"/></clipPath><clipPath id="7431beab52"><path d="M 514 329.195312 L 539 329.195312 L 539 369 L 514 369 Z M 514 329.195312 " clip-rule="nonzero"/></clipPath><clipPath id="3fc7d1eea8"><path d="M 548 340 L 568 340 L 568 420.804688 L 548 420.804688 Z M 548 340 " clip-rule="nonzero"/></clipPath></defs><rect x="-75" width="900" fill="#ffffff" y="-74.999999" height="899.999994" fill-opacity="1"/><rect x="-75" width="900" fill="#ffffff" y="-74.999999" height="899.999994" fill-opacity="1"/><g clip-path="url(#13bbf9f68c)"><path fill="#000000" d="M 45.023438 380.640625 C 45.023438 376.960938 45.289062 373.464844 45.820312 370.160156 C 46.355469 366.851562 46.96875 364 47.664062 361.601562 C 48.355469 359.199219 49.34375 356.851562 50.621094 354.558594 C 51.902344 352.265625 52.917969 350.480469 53.664062 349.199219 C 54.410156 347.921875 55.53125 346.535156 57.023438 345.039062 C 58.519531 343.546875 59.398438 342.640625 59.664062 342.320312 C 59.933594 342 60.597656 341.441406 61.664062 340.640625 L 63.027344 340.640625 C 63.773438 340.640625 64.144531 340.878906 64.144531 341.359375 C 64.144531 341.519531 63.691406 342.082031 62.785156 343.039062 C 61.878906 344 60.785156 345.414062 59.503906 347.28125 C 58.226562 349.148438 56.917969 351.441406 55.585938 354.160156 C 54.25 356.878906 53.128906 360.558594 52.222656 365.199219 C 51.316406 369.839844 50.863281 374.988281 50.863281 380.640625 C 50.863281 386.292969 51.316406 391.414062 52.222656 396 C 53.128906 400.585938 54.222656 404.292969 55.503906 407.121094 C 56.785156 409.945312 58.089844 412.238281 59.425781 414 C 60.757812 415.757812 61.878906 417.171875 62.785156 418.238281 C 63.691406 419.304688 64.144531 419.867188 64.144531 419.917969 C 64.144531 420.398438 63.746094 420.640625 62.945312 420.640625 L 61.664062 420.640625 L 59.425781 418.71875 C 54.410156 414.1875 50.757812 408.53125 48.460938 401.761719 C 46.167969 394.988281 45.023438 387.945312 45.023438 380.640625 Z M 45.023438 380.640625 " fill-opacity="1" fill-rule="nonzero"/></g><path fill="#000000" d="M 76.308594 353.839844 C 79.296875 349.519531 83.378906 347.359375 88.550781 347.359375 C 91.113281 347.359375 93.671875 348.054688 96.234375 349.441406 C 98.792969 350.828125 100.875 353.28125 102.476562 356.800781 C 104.449219 361.226562 105.433594 367.308594 105.433594 375.039062 C 105.433594 383.304688 104.289062 389.625 101.996094 394 C 100.925781 396.238281 99.460938 398.027344 97.59375 399.359375 C 95.726562 400.691406 94.097656 401.519531 92.710938 401.839844 C 91.324219 402.160156 89.964844 402.347656 88.632812 402.398438 C 87.246094 402.398438 85.859375 402.238281 84.46875 401.917969 C 83.082031 401.601562 81.457031 400.746094 79.589844 399.359375 C 77.722656 397.972656 76.253906 396.1875 75.1875 394 C 72.894531 389.625 71.746094 383.304688 71.746094 375.039062 C 71.746094 365.761719 73.269531 358.695312 76.308594 353.839844 Z M 94.3125 352.878906 C 92.710938 351.171875 90.820312 350.320312 88.632812 350.320312 C 86.390625 350.320312 84.46875 351.171875 82.871094 352.878906 C 81.535156 354.265625 80.65625 356.1875 80.230469 358.640625 C 79.804688 361.09375 79.589844 366.214844 79.589844 374 C 79.589844 382.425781 79.804688 387.972656 80.230469 390.640625 C 80.65625 393.304688 81.617188 395.414062 83.109375 396.960938 C 84.605469 398.558594 86.445312 399.359375 88.632812 399.359375 C 90.765625 399.359375 92.578125 398.558594 94.074219 396.960938 C 95.621094 395.359375 96.578125 393.121094 96.953125 390.238281 C 97.328125 387.359375 97.539062 381.945312 97.59375 374 C 97.59375 366.265625 97.378906 361.171875 96.953125 358.71875 C 96.527344 356.265625 95.644531 354.320312 94.3125 352.878906 Z M 94.3125 352.878906 " fill-opacity="1" fill-rule="nonzero"/><path fill="#000000" d="M 114.878906 395.839844 C 114.878906 394.558594 115.332031 393.441406 116.238281 392.480469 C 117.144531 391.519531 118.292969 391.039062 119.679688 391.039062 C 120.957031 391.039062 122.078125 391.464844 123.039062 392.320312 C 124 393.171875 124.507812 394.320312 124.558594 395.761719 C 124.558594 397.09375 124.105469 398.238281 123.199219 399.199219 C 122.292969 400.160156 121.144531 400.640625 119.757812 400.640625 C 118.371094 400.640625 117.226562 400.1875 116.316406 399.28125 C 115.410156 398.375 114.929688 397.226562 114.878906 395.839844 Z M 114.878906 395.839844 " fill-opacity="1" fill-rule="nonzero"/><path fill="#000000" d="M 138.5625 353.839844 C 141.550781 349.519531 145.632812 347.359375 150.804688 347.359375 C 153.367188 347.359375 155.925781 348.054688 158.488281 349.441406 C 161.046875 350.828125 163.128906 353.28125 164.730469 356.800781 C 166.703125 361.226562 167.6875 367.308594 167.6875 375.039062 C 167.6875 383.304688 166.542969 389.625 164.25 394 C 163.183594 396.238281 161.714844 398.027344 159.847656 399.359375 C 157.980469 400.691406 156.355469 401.519531 154.964844 401.839844 C 153.578125 402.160156 152.21875 402.347656 150.886719 402.398438 C 149.5 402.398438 148.113281 402.238281 146.726562 401.917969 C 145.335938 401.601562 143.710938 400.746094 141.84375 399.359375 C 139.976562 397.972656 138.507812 396.1875 137.441406 394 C 135.148438 389.625 134 383.304688 134 375.039062 C 134 365.761719 135.523438 358.695312 138.5625 353.839844 Z M 156.566406 352.878906 C 154.964844 351.171875 153.074219 350.320312 150.886719 350.320312 C 148.644531 350.320312 146.726562 351.171875 145.125 352.878906 C 143.789062 354.265625 142.910156 356.1875 142.484375 358.640625 C 142.058594 361.09375 141.84375 366.214844 141.84375 374 C 141.84375 382.425781 142.058594 387.972656 142.484375 390.640625 C 142.910156 393.304688 143.871094 395.414062 145.363281 396.960938 C 146.859375 398.558594 148.699219 399.359375 150.886719 399.359375 C 153.019531 399.359375 154.832031 398.558594 156.328125 396.960938 C 157.875 395.359375 158.835938 393.121094 159.207031 390.238281 C 159.582031 387.359375 159.792969 381.945312 159.847656 374 C 159.847656 366.265625 159.632812 361.171875 159.207031 358.71875 C 158.78125 356.265625 157.902344 354.320312 156.566406 352.878906 Z M 156.566406 352.878906 " fill-opacity="1" fill-rule="nonzero"/><path fill="#000000" d="M 178.570312 353.839844 C 181.558594 349.519531 185.640625 347.359375 190.816406 347.359375 C 193.375 347.359375 195.9375 348.054688 198.496094 349.441406 C 201.058594 350.828125 203.136719 353.28125 204.738281 356.800781 C 206.710938 361.226562 207.699219 367.308594 207.699219 375.039062 C 207.699219 383.304688 206.550781 389.625 204.257812 394 C 203.191406 396.238281 201.722656 398.027344 199.855469 399.359375 C 197.988281 400.691406 196.363281 401.519531 194.976562 401.839844 C 193.589844 402.160156 192.226562 402.347656 190.894531 402.398438 C 189.507812 402.398438 188.121094 402.238281 186.734375 401.917969 C 185.347656 401.601562 183.71875 400.746094 181.851562 399.359375 C 179.984375 397.972656 178.519531 396.1875 177.453125 394 C 175.15625 389.625 174.011719 383.304688 174.011719 375.039062 C 174.011719 365.761719 175.53125 358.695312 178.570312 353.839844 Z M 196.574219 352.878906 C 194.976562 351.171875 193.082031 350.320312 190.894531 350.320312 C 188.652344 350.320312 186.734375 351.171875 185.132812 352.878906 C 183.800781 354.265625 182.917969 356.1875 182.492188 358.640625 C 182.066406 361.09375 181.851562 366.214844 181.851562 374 C 181.851562 382.425781 182.066406 387.972656 182.492188 390.640625 C 182.917969 393.304688 183.878906 395.414062 185.375 396.960938 C 186.867188 398.558594 188.707031 399.359375 190.894531 399.359375 C 193.027344 399.359375 194.84375 398.558594 196.335938 396.960938 C 197.882812 395.359375 198.84375 393.121094 199.214844 390.238281 C 199.589844 387.359375 199.804688 381.945312 199.855469 374 C 199.855469 366.265625 199.644531 361.171875 199.214844 358.71875 C 198.789062 356.265625 197.910156 354.320312 196.574219 352.878906 Z M 196.574219 352.878906 " fill-opacity="1" fill-rule="nonzero"/><path fill="#000000" d="M 218.582031 353.839844 C 221.566406 349.519531 225.648438 347.359375 230.824219 347.359375 C 233.382812 347.359375 235.945312 348.054688 238.503906 349.441406 C 241.066406 350.828125 243.144531 353.28125 244.746094 356.800781 C 246.71875 361.226562 247.707031 367.308594 247.707031 375.039062 C 247.707031 383.304688 246.5625 389.625 244.265625 394 C 243.199219 396.238281 241.734375 398.027344 239.867188 399.359375 C 238 400.691406 236.371094 401.519531 234.984375 401.839844 C 233.597656 402.160156 232.238281 402.347656 230.902344 402.398438 C 229.515625 402.398438 228.128906 402.238281 226.742188 401.917969 C 225.355469 401.601562 223.730469 400.746094 221.863281 399.359375 C 219.996094 397.972656 218.527344 396.1875 217.460938 394 C 215.167969 389.625 214.019531 383.304688 214.019531 375.039062 C 214.019531 365.761719 215.539062 358.695312 218.582031 353.839844 Z M 236.585938 352.878906 C 234.984375 351.171875 233.089844 350.320312 230.902344 350.320312 C 228.664062 350.320312 226.742188 351.171875 225.140625 352.878906 C 223.808594 354.265625 222.929688 356.1875 222.5 358.640625 C 222.074219 361.09375 221.863281 366.214844 221.863281 374 C 221.863281 382.425781 222.074219 387.972656 222.5 390.640625 C 222.929688 393.304688 223.890625 395.414062 225.382812 396.960938 C 226.875 398.558594 228.714844 399.359375 230.902344 399.359375 C 233.039062 399.359375 234.851562 398.558594 236.34375 396.960938 C 237.890625 395.359375 238.851562 393.121094 239.226562 390.238281 C 239.597656 387.359375 239.8125 381.945312 239.867188 374 C 239.867188 366.265625 239.652344 361.171875 239.226562 358.71875 C 238.796875 356.265625 237.917969 354.320312 236.585938 352.878906 Z M 236.585938 352.878906 " fill-opacity="1" fill-rule="nonzero"/><path fill="#000000" d="M 264.03125 388.078125 C 264.03125 389.359375 263.605469 390.425781 262.75 391.28125 C 261.898438 392.132812 260.855469 392.558594 259.628906 392.558594 L 259.070312 392.558594 C 261.523438 396.773438 264.777344 398.878906 268.832031 398.878906 C 272.566406 398.878906 275.285156 397.28125 276.992188 394.078125 C 278.007812 392.320312 278.515625 388.90625 278.515625 383.839844 C 278.515625 378.347656 277.792969 374.640625 276.355469 372.71875 C 274.96875 370.960938 273.421875 370.078125 271.714844 370.078125 L 271.234375 370.078125 C 267.070312 370.078125 263.925781 371.894531 261.789062 375.519531 C 261.578125 375.894531 261.390625 376.105469 261.230469 376.160156 C 261.070312 376.214844 260.671875 376.265625 260.03125 376.320312 C 259.125 376.320312 258.617188 376.160156 258.511719 375.839844 C 258.402344 375.625 258.351562 370.960938 258.351562 361.839844 L 258.351562 351.519531 C 258.351562 348.855469 258.484375 347.519531 258.75 347.519531 C 258.855469 347.414062 258.964844 347.359375 259.070312 347.359375 C 259.125 347.359375 259.683594 347.574219 260.75 348 C 261.816406 348.425781 263.285156 348.855469 265.152344 349.28125 C 267.019531 349.707031 269.019531 349.921875 271.152344 349.921875 C 274.941406 349.921875 278.566406 349.171875 282.035156 347.679688 C 282.460938 347.46875 282.808594 347.359375 283.074219 347.359375 C 283.503906 347.359375 283.714844 347.839844 283.714844 348.800781 L 283.714844 349.839844 C 279.339844 355.011719 273.875 357.601562 267.3125 357.601562 C 265.660156 357.601562 264.164062 357.441406 262.832031 357.121094 L 262.03125 356.960938 L 262.03125 370.71875 C 263.042969 369.972656 263.84375 369.386719 264.429688 368.960938 C 265.019531 368.535156 265.976562 368.105469 267.3125 367.679688 C 268.644531 367.253906 270.007812 367.039062 271.394531 367.039062 C 275.714844 367.039062 279.367188 368.773438 282.355469 372.238281 C 285.34375 375.707031 286.835938 379.8125 286.835938 384.558594 C 286.835938 389.464844 285.128906 393.652344 281.714844 397.121094 C 278.300781 400.585938 274.140625 402.347656 269.230469 402.398438 C 264.910156 402.398438 261.445312 400.960938 258.828125 398.078125 C 256.214844 395.199219 254.910156 391.945312 254.910156 388.320312 C 254.910156 387.039062 255.203125 386.027344 255.789062 385.28125 C 256.375 384.535156 256.988281 384.054688 257.628906 383.839844 C 258.269531 383.625 258.882812 383.519531 259.46875 383.519531 C 260.804688 383.519531 261.898438 383.972656 262.75 384.878906 C 263.605469 385.785156 264.03125 386.851562 264.03125 388.078125 Z M 264.03125 388.078125 " fill-opacity="1" fill-rule="nonzero"/><path fill="#000000" d="M 295.316406 364 C 295.371094 363.894531 295.824219 360.988281 296.679688 355.28125 L 297.957031 346.71875 C 297.957031 346.613281 298.492188 346.558594 299.558594 346.558594 L 301.160156 346.558594 L 301.160156 346.878906 C 301.160156 347.414062 301.558594 347.867188 302.359375 348.238281 C 303.160156 348.613281 304.546875 348.855469 306.519531 348.960938 C 308.496094 349.066406 313.003906 349.121094 320.042969 349.121094 L 329.726562 349.121094 L 329.726562 352.238281 L 324.285156 359.679688 C 323.804688 360.320312 323.003906 361.386719 321.882812 362.878906 C 320.765625 364.375 320.042969 365.359375 319.722656 365.839844 C 319.402344 366.320312 318.84375 367.171875 318.042969 368.398438 C 317.242188 369.625 316.710938 370.585938 316.441406 371.28125 C 316.175781 371.972656 315.804688 372.960938 315.324219 374.238281 C 314.84375 375.519531 314.496094 376.746094 314.28125 377.921875 C 314.070312 379.09375 313.855469 380.535156 313.640625 382.238281 C 313.429688 383.945312 313.269531 385.761719 313.164062 387.679688 C 313.054688 389.601562 312.976562 391.785156 312.921875 394.238281 C 312.921875 394.988281 312.921875 395.734375 312.921875 396.480469 C 312.921875 397.226562 312.894531 397.867188 312.84375 398.398438 L 312.84375 399.121094 C 312.628906 400.027344 312.121094 400.800781 311.320312 401.441406 C 310.523438 402.078125 309.613281 402.398438 308.601562 402.398438 C 308.015625 402.398438 307.453125 402.320312 306.921875 402.160156 C 306.386719 402 305.828125 401.492188 305.242188 400.640625 C 304.652344 399.785156 304.359375 398.71875 304.359375 397.441406 C 304.359375 389.011719 306.949219 380.265625 312.121094 371.199219 C 313.1875 369.492188 315.429688 366.265625 318.84375 361.519531 L 322.523438 356.480469 L 315.082031 356.480469 C 305.800781 356.480469 300.917969 356.640625 300.4375 356.960938 C 300.121094 357.121094 299.824219 357.761719 299.558594 358.878906 C 299.292969 360 299.027344 361.148438 298.757812 362.320312 L 298.519531 364 L 298.519531 364.238281 L 295.316406 364.238281 Z M 295.316406 364 " fill-opacity="1" fill-rule="nonzero"/><path fill="#000000" d="M 399.117188 398.320312 C 399.117188 399.386719 398.558594 399.917969 397.4375 399.917969 C 397.171875 399.917969 396.582031 399.492188 395.675781 398.640625 C 394.769531 397.785156 392.261719 395.304688 388.15625 391.199219 L 379.832031 382.878906 L 371.429688 391.28125 C 365.777344 396.828125 362.871094 399.652344 362.710938 399.761719 C 362.496094 399.867188 362.308594 399.917969 362.148438 399.917969 C 361.722656 399.917969 361.347656 399.761719 361.027344 399.441406 C 360.710938 399.121094 360.523438 398.746094 360.46875 398.320312 C 360.46875 397.945312 360.84375 397.359375 361.589844 396.558594 C 362.335938 395.761719 364.84375 393.226562 369.109375 388.960938 L 377.433594 380.640625 L 369.109375 372.320312 C 364.789062 368 362.28125 365.464844 361.589844 364.71875 C 360.894531 363.972656 360.523438 363.386719 360.46875 362.960938 C 360.46875 362.480469 360.628906 362.105469 360.949219 361.839844 C 361.269531 361.574219 361.667969 361.441406 362.148438 361.441406 C 362.417969 361.441406 362.601562 361.464844 362.710938 361.519531 C 362.871094 361.625 365.777344 364.453125 371.429688 370 L 379.832031 378.398438 L 388.15625 370.078125 C 392.261719 365.972656 394.769531 363.492188 395.675781 362.640625 C 396.582031 361.785156 397.171875 361.359375 397.4375 361.359375 C 398.558594 361.359375 399.117188 361.894531 399.117188 362.960938 C 399.117188 363.332031 398.851562 363.8125 398.316406 364.398438 C 397.785156 364.988281 395.171875 367.601562 390.476562 372.238281 L 382.152344 380.640625 L 390.476562 389.039062 C 394.957031 393.519531 397.515625 396.105469 398.15625 396.800781 C 398.796875 397.492188 399.117188 398 399.117188 398.320312 Z M 399.117188 398.320312 " fill-opacity="1" fill-rule="nonzero"/><path fill="#000000" d="M 445.785156 354.398438 L 444.742188 354.800781 C 443.996094 355.066406 442.929688 355.332031 441.542969 355.601562 C 440.15625 355.867188 438.609375 356.054688 436.902344 356.160156 L 435.382812 356.160156 L 435.382812 352.480469 L 436.902344 352.480469 C 439.410156 352.375 441.730469 351.972656 443.863281 351.28125 C 445.996094 350.585938 447.492188 349.945312 448.34375 349.359375 C 449.199219 348.773438 449.945312 348.1875 450.585938 347.601562 C 450.691406 347.441406 451.011719 347.359375 451.546875 347.359375 C 452.027344 347.359375 452.480469 347.519531 452.90625 347.839844 L 452.90625 371.761719 L 452.984375 395.761719 C 453.359375 396.132812 453.679688 396.375 453.945312 396.480469 C 454.210938 396.585938 454.851562 396.691406 455.867188 396.800781 C 456.878906 396.90625 458.535156 396.960938 460.828125 396.960938 L 462.90625 396.960938 L 462.90625 400.640625 L 462.027344 400.640625 C 460.90625 400.480469 456.667969 400.398438 449.304688 400.398438 C 442.050781 400.398438 437.863281 400.480469 436.742188 400.640625 L 435.78125 400.640625 L 435.78125 396.960938 L 437.863281 396.960938 C 439.035156 396.960938 440.050781 396.960938 440.902344 396.960938 C 441.757812 396.960938 442.421875 396.933594 442.902344 396.878906 C 443.382812 396.828125 443.808594 396.746094 444.183594 396.640625 C 444.558594 396.53125 444.769531 396.480469 444.824219 396.480469 C 444.878906 396.480469 445.039062 396.347656 445.304688 396.078125 C 445.570312 395.8125 445.730469 395.707031 445.785156 395.761719 Z M 445.785156 354.398438 " fill-opacity="1" fill-rule="nonzero"/><path fill="#000000" d="M 476.429688 353.839844 C 479.417969 349.519531 483.5 347.359375 488.675781 347.359375 C 491.234375 347.359375 493.796875 348.054688 496.355469 349.441406 C 498.917969 350.828125 500.996094 353.28125 502.597656 356.800781 C 504.570312 361.226562 505.558594 367.308594 505.558594 375.039062 C 505.558594 383.304688 504.410156 389.625 502.117188 394 C 501.050781 396.238281 499.582031 398.027344 497.714844 399.359375 C 495.847656 400.691406 494.222656 401.519531 492.835938 401.839844 C 491.449219 402.160156 490.085938 402.347656 488.753906 402.398438 C 487.367188 402.398438 485.980469 402.238281 484.59375 401.917969 C 483.207031 401.601562 481.578125 400.746094 479.710938 399.359375 C 477.84375 397.972656 476.378906 396.1875 475.3125 394 C 473.015625 389.625 471.871094 383.304688 471.871094 375.039062 C 471.871094 365.761719 473.390625 358.695312 476.429688 353.839844 Z M 494.433594 352.878906 C 492.835938 351.171875 490.941406 350.320312 488.753906 350.320312 C 486.511719 350.320312 484.59375 351.171875 482.992188 352.878906 C 481.660156 354.265625 480.777344 356.1875 480.351562 358.640625 C 479.925781 361.09375 479.710938 366.214844 479.710938 374 C 479.710938 382.425781 479.925781 387.972656 480.351562 390.640625 C 480.777344 393.304688 481.738281 395.414062 483.234375 396.960938 C 484.726562 398.558594 486.566406 399.359375 488.753906 399.359375 C 490.886719 399.359375 492.703125 398.558594 494.195312 396.960938 C 495.742188 395.359375 496.703125 393.121094 497.074219 390.238281 C 497.449219 387.359375 497.664062 381.945312 497.714844 374 C 497.714844 366.265625 497.503906 361.171875 497.074219 358.71875 C 496.648438 356.265625 495.769531 354.320312 494.433594 352.878906 Z M 494.433594 352.878906 " fill-opacity="1" fill-rule="nonzero"/><g clip-path="url(#7431beab52)"><path fill="#000000" d="M 514.511719 341.695312 C 514.546875 341.621094 514.867188 339.566406 515.472656 335.53125 L 516.378906 329.480469 C 516.378906 329.402344 516.753906 329.367188 517.507812 329.367188 L 518.640625 329.367188 L 518.640625 329.59375 C 518.640625 329.96875 518.921875 330.289062 519.488281 330.554688 C 520.054688 330.816406 521.035156 330.988281 522.429688 331.0625 C 523.828125 331.136719 527.011719 331.175781 531.992188 331.175781 L 538.835938 331.175781 L 538.835938 333.382812 L 534.988281 338.640625 C 534.652344 339.09375 534.085938 339.847656 533.292969 340.902344 C 532.5 341.960938 531.992188 342.65625 531.765625 342.996094 C 531.539062 343.335938 531.144531 343.9375 530.578125 344.804688 C 530.011719 345.671875 529.632812 346.351562 529.445312 346.84375 C 529.257812 347.332031 528.992188 348.03125 528.652344 348.933594 C 528.3125 349.839844 528.070312 350.707031 527.917969 351.539062 C 527.765625 352.367188 527.617188 353.382812 527.464844 354.589844 C 527.316406 355.796875 527.203125 357.078125 527.125 358.4375 C 527.050781 359.792969 526.996094 361.339844 526.957031 363.074219 C 526.957031 363.601562 526.957031 364.132812 526.957031 364.660156 C 526.957031 365.1875 526.9375 365.640625 526.898438 366.015625 L 526.898438 366.527344 C 526.75 367.167969 526.390625 367.714844 525.824219 368.164062 C 525.257812 368.617188 524.617188 368.84375 523.902344 368.84375 C 523.488281 368.84375 523.089844 368.789062 522.714844 368.675781 C 522.335938 368.5625 521.941406 368.203125 521.527344 367.601562 C 521.109375 366.996094 520.902344 366.242188 520.902344 365.335938 C 520.902344 359.378906 522.734375 353.195312 526.390625 346.785156 C 527.144531 345.578125 528.730469 343.296875 531.144531 339.941406 L 533.746094 336.378906 L 528.484375 336.378906 C 521.921875 336.378906 518.46875 336.492188 518.132812 336.71875 C 517.90625 336.832031 517.699219 337.285156 517.507812 338.074219 C 517.320312 338.867188 517.132812 339.679688 516.941406 340.507812 L 516.773438 341.695312 L 516.773438 341.867188 L 514.511719 341.867188 Z M 514.511719 341.695312 " fill-opacity="1" fill-rule="nonzero"/></g><g clip-path="url(#3fc7d1eea8)"><path fill="#000000" d="M 548.496094 340.71875 L 548.816406 340.640625 C 549.082031 340.640625 549.347656 340.640625 549.617188 340.640625 L 550.574219 340.640625 L 552.816406 342.558594 C 557.832031 347.09375 561.484375 352.746094 563.777344 359.519531 C 566.074219 366.292969 567.21875 373.332031 567.21875 380.640625 C 567.21875 384.265625 566.953125 387.761719 566.417969 391.121094 C 565.886719 394.480469 565.273438 397.332031 564.578125 399.679688 C 563.886719 402.027344 562.898438 404.375 561.617188 406.71875 C 560.339844 409.066406 559.324219 410.851562 558.578125 412.078125 C 557.832031 413.304688 556.738281 414.667969 555.296875 416.160156 C 553.855469 417.652344 553.003906 418.53125 552.738281 418.800781 C 552.46875 419.066406 551.855469 419.574219 550.894531 420.320312 C 550.734375 420.480469 550.628906 420.585938 550.574219 420.640625 L 549.617188 420.640625 C 549.1875 420.640625 548.894531 420.640625 548.734375 420.640625 C 548.574219 420.640625 548.441406 420.558594 548.335938 420.398438 C 548.230469 420.238281 548.148438 420 548.09375 419.679688 C 548.148438 419.625 548.441406 419.28125 548.976562 418.640625 C 557.242188 410.054688 561.378906 397.386719 561.378906 380.640625 C 561.378906 363.894531 557.242188 351.226562 548.976562 342.640625 C 548.441406 342 548.148438 341.652344 548.09375 341.601562 C 548.09375 341.171875 548.230469 340.878906 548.496094 340.71875 Z M 548.496094 340.71875 " fill-opacity="1" fill-rule="nonzero"/></g><path fill="#000000" d="M 643.011719 398.320312 C 643.011719 399.386719 642.453125 399.917969 641.332031 399.917969 C 641.066406 399.917969 640.480469 399.492188 639.570312 398.640625 C 638.664062 397.785156 636.15625 395.304688 632.050781 391.199219 L 623.726562 382.878906 L 615.328125 391.28125 C 609.671875 396.828125 606.765625 399.652344 606.605469 399.761719 C 606.390625 399.867188 606.203125 399.917969 606.042969 399.917969 C 605.617188 399.917969 605.246094 399.761719 604.925781 399.441406 C 604.605469 399.121094 604.417969 398.746094 604.363281 398.320312 C 604.363281 397.945312 604.738281 397.359375 605.484375 396.558594 C 606.230469 395.761719 608.738281 393.226562 613.007812 388.960938 L 621.328125 380.640625 L 613.007812 372.320312 C 608.683594 368 606.179688 365.464844 605.484375 364.71875 C 604.789062 363.972656 604.417969 363.386719 604.363281 362.960938 C 604.363281 362.480469 604.523438 362.105469 604.84375 361.839844 C 605.164062 361.574219 605.5625 361.441406 606.042969 361.441406 C 606.3125 361.441406 606.496094 361.464844 606.605469 361.519531 C 606.765625 361.625 609.671875 364.453125 615.328125 370 L 623.726562 378.398438 L 632.050781 370.078125 C 636.15625 365.972656 638.664062 363.492188 639.570312 362.640625 C 640.480469 361.785156 641.066406 361.359375 641.332031 361.359375 C 642.453125 361.359375 643.011719 361.894531 643.011719 362.960938 C 643.011719 363.332031 642.746094 363.8125 642.210938 364.398438 C 641.679688 364.988281 639.066406 367.601562 634.371094 372.238281 L 626.050781 380.640625 L 634.371094 389.039062 C 638.851562 393.519531 641.414062 396.105469 642.050781 396.800781 C 642.691406 397.492188 643.011719 398 643.011719 398.320312 Z M 643.011719 398.320312 " fill-opacity="1" fill-rule="nonzero"/><path fill="#000000" d="M 678.238281 367.28125 C 678.238281 367.28125 678.238281 365.226562 678.238281 361.121094 C 678.238281 357.011719 679.675781 353.707031 682.558594 351.199219 C 685.4375 348.695312 688.746094 347.414062 692.480469 347.359375 C 696.265625 347.359375 699.628906 348.480469 702.5625 350.71875 C 705.496094 352.960938 706.964844 355.867188 706.964844 359.441406 C 706.964844 361.039062 706.667969 362.535156 706.082031 363.921875 C 705.496094 365.308594 704.804688 366.425781 704.003906 367.28125 C 703.203125 368.132812 702.375 368.878906 701.523438 369.519531 C 700.667969 370.160156 699.976562 370.640625 699.441406 370.960938 C 698.90625 371.28125 698.613281 371.492188 698.5625 371.601562 L 699.683594 372.320312 C 700.429688 372.851562 701.175781 373.386719 701.921875 373.921875 C 702.667969 374.453125 703.097656 374.746094 703.203125 374.800781 C 707.203125 377.945312 709.203125 381.921875 709.203125 386.71875 C 709.203125 390.933594 707.65625 394.585938 704.5625 397.679688 C 701.46875 400.773438 697.46875 402.347656 692.558594 402.398438 C 687.757812 402.398438 683.8125 401.039062 680.71875 398.320312 C 677.625 395.601562 676.078125 392.238281 676.078125 388.238281 C 676.078125 382.480469 679.515625 377.679688 686.398438 373.839844 L 684.957031 372.800781 C 683.839844 372.105469 683.117188 371.574219 682.796875 371.199219 C 679.757812 368.585938 678.238281 365.226562 678.238281 361.121094 Z M 695.519531 369.761719 L 696 369.441406 C 696.320312 369.226562 696.5625 369.066406 696.722656 368.960938 C 696.882812 368.851562 697.148438 368.667969 697.519531 368.398438 C 697.894531 368.132812 698.214844 367.867188 698.480469 367.601562 C 698.75 367.332031 699.042969 367.011719 699.363281 366.640625 C 699.683594 366.265625 699.976562 365.921875 700.242188 365.601562 C 700.507812 365.28125 700.773438 364.851562 701.042969 364.320312 C 701.308594 363.785156 701.546875 363.332031 701.761719 362.960938 C 701.976562 362.585938 702.109375 362.054688 702.164062 361.359375 C 702.214844 360.667969 702.269531 360.082031 702.320312 359.601562 C 702.320312 357.308594 701.546875 355.359375 700 353.761719 C 698.453125 352.160156 696.667969 351.148438 694.640625 350.71875 C 694.265625 350.667969 693.386719 350.640625 692 350.640625 C 689.8125 350.640625 687.757812 351.332031 685.839844 352.71875 C 683.917969 354.105469 682.929688 355.839844 682.878906 357.921875 C 682.878906 359.148438 683.222656 360.265625 683.917969 361.28125 C 684.613281 362.292969 685.304688 363.066406 686 363.601562 C 686.691406 364.132812 688.027344 364.988281 690 366.160156 C 690.371094 366.425781 690.667969 366.613281 690.878906 366.71875 Z M 692.640625 398.960938 C 695.734375 398.960938 698.402344 398.054688 700.640625 396.238281 C 702.882812 394.425781 704.003906 392.238281 704.003906 389.679688 C 704.003906 388.773438 703.871094 387.917969 703.601562 387.121094 C 703.335938 386.320312 703.015625 385.652344 702.640625 385.121094 C 702.269531 384.585938 701.683594 384 700.882812 383.359375 C 700.082031 382.71875 699.46875 382.238281 699.042969 381.921875 C 698.613281 381.601562 697.839844 381.09375 696.722656 380.398438 C 695.601562 379.707031 694.878906 379.253906 694.558594 379.039062 C 693.8125 378.558594 693.011719 378.054688 692.160156 377.519531 C 691.304688 376.988281 690.613281 376.535156 690.078125 376.160156 L 689.4375 375.761719 C 689.121094 375.761719 688.347656 376.214844 687.117188 377.121094 C 685.890625 378.027344 684.613281 379.492188 683.277344 381.519531 C 681.945312 383.546875 681.25 385.734375 681.199219 388.078125 C 681.199219 391.226562 682.34375 393.8125 684.636719 395.839844 C 686.933594 397.867188 689.597656 398.90625 692.640625 398.960938 Z M 692.640625 398.960938 " fill-opacity="1" fill-rule="nonzero"/></svg>