<svg xmlns="http://www.w3.org/2000/svg" xmlns:xlink="http://www.w3.org/1999/xlink" width="1000" zoomAndPan="magnify" viewBox="0 0 750 749.999995" height="1000" preserveAspectRatio="xMidYMid meet" version="1.0"><rect x="-75" width="900" fill="#ffffff" y="-74.999999" height="899.999994" fill-opacity="1"/><rect x="-75" width="900" fill="#ffffff" y="-74.999999" height="899.999994" fill-opacity="1"/><path fill="#000000" d="M 93.914062 423.980469 C 92.449219 423.738281 87.199219 423.613281 78.160156 423.613281 C 68.71875 423.613281 63.265625 423.738281 61.800781 423.980469 L 60.699219 423.980469 L 60.699219 418.363281 L 64.484375 418.363281 C 66.113281 418.363281 67.214844 418.363281 67.78125 418.363281 C 68.351562 418.363281 69.042969 418.28125 69.859375 418.117188 C 70.671875 417.953125 71.242188 417.75 71.566406 417.507812 C 71.894531 417.261719 72.179688 416.9375 72.421875 416.53125 C 72.503906 416.367188 72.546875 414.167969 72.546875 409.933594 L 72.546875 403.824219 L 40.917969 403.824219 L 40.917969 398.203125 L 59.355469 369.984375 C 71.8125 351.089844 78.121094 341.601562 78.285156 341.519531 C 78.445312 341.359375 79.300781 341.277344 80.847656 341.277344 L 83.046875 341.277344 L 83.777344 342.011719 L 83.777344 398.203125 L 95.011719 398.203125 L 95.011719 403.824219 L 83.777344 403.824219 L 83.777344 410.054688 C 83.777344 413.394531 83.777344 415.347656 83.777344 415.917969 C 83.777344 416.488281 84.023438 416.976562 84.511719 417.382812 C 85.164062 417.953125 87.484375 418.28125 91.472656 418.363281 L 95.011719 418.363281 L 95.011719 423.980469 Z M 73.277344 398.203125 L 73.277344 357.402344 L 46.535156 398.082031 L 59.847656 398.203125 Z M 73.277344 398.203125 " fill-opacity="1" fill-rule="nonzero"/><path fill="#000000" d="M 104.902344 388.675781 C 105.472656 385.253906 107.671875 381.304688 111.496094 376.828125 C 115.324219 372.347656 120.046875 370.066406 125.664062 369.984375 C 128.511719 369.984375 131.117188 370.71875 133.476562 372.183594 C 135.835938 373.648438 137.589844 375.484375 138.726562 377.679688 C 142.148438 372.550781 146.257812 369.984375 151.0625 369.984375 C 154.074219 369.984375 156.675781 370.882812 158.875 372.671875 C 161.074219 374.464844 162.214844 376.867188 162.292969 379.878906 C 162.292969 382.242188 161.726562 384.15625 160.585938 385.621094 C 159.445312 387.089844 158.347656 387.984375 157.289062 388.308594 C 156.230469 388.636719 155.292969 388.796875 154.480469 388.796875 C 152.933594 388.796875 151.671875 388.351562 150.695312 387.453125 C 149.71875 386.558594 149.230469 385.378906 149.230469 383.910156 C 149.230469 380.164062 151.265625 377.601562 155.335938 376.214844 C 154.4375 375.15625 152.8125 374.628906 150.449219 374.628906 C 149.390625 374.628906 148.617188 374.707031 148.128906 374.871094 C 145.035156 376.175781 142.757812 378.863281 141.292969 382.933594 C 136.40625 400.933594 133.964844 411.4375 133.964844 414.453125 C 133.964844 416.734375 134.617188 418.363281 135.917969 419.339844 C 137.222656 420.316406 138.644531 420.804688 140.191406 420.804688 C 143.203125 420.804688 146.175781 419.460938 149.105469 416.773438 C 152.039062 414.085938 154.03125 410.789062 155.089844 406.878906 C 155.335938 406.0625 155.578125 405.617188 155.824219 405.535156 C 156.066406 405.453125 156.71875 405.371094 157.777344 405.289062 L 158.265625 405.289062 C 159.484375 405.289062 160.097656 405.617188 160.097656 406.269531 C 160.097656 406.347656 160.015625 406.796875 159.851562 407.613281 C 158.550781 412.253906 156.027344 416.367188 152.28125 419.949219 C 148.535156 423.535156 144.183594 425.324219 139.214844 425.324219 C 133.519531 425.324219 129.203125 422.757812 126.273438 417.628906 C 122.933594 422.679688 119.109375 425.203125 114.792969 425.203125 L 114.0625 425.203125 C 110.074219 425.203125 107.222656 424.144531 105.515625 422.027344 C 103.804688 419.910156 102.910156 417.667969 102.828125 415.308594 C 102.828125 412.703125 103.601562 410.585938 105.148438 408.957031 C 106.695312 407.328125 108.527344 406.511719 110.644531 406.511719 C 114.144531 406.511719 115.894531 408.222656 115.894531 411.644531 C 115.894531 413.273438 115.40625 414.695312 114.429688 415.917969 C 113.453125 417.140625 112.515625 417.953125 111.621094 418.363281 C 110.722656 418.769531 110.195312 418.972656 110.03125 418.972656 L 109.664062 419.09375 C 109.664062 419.175781 109.910156 419.339844 110.398438 419.582031 C 110.886719 419.828125 111.539062 420.113281 112.351562 420.4375 C 113.167969 420.765625 113.941406 420.886719 114.671875 420.804688 C 117.601562 420.804688 120.125 418.972656 122.242188 415.308594 C 122.976562 414.003906 123.910156 411.234375 125.050781 407 C 126.191406 402.765625 127.332031 398.367188 128.46875 393.808594 C 129.609375 389.246094 130.261719 386.558594 130.425781 385.746094 C 130.832031 383.546875 131.035156 381.957031 131.035156 380.980469 C 131.035156 378.699219 130.425781 377.070312 129.203125 376.09375 C 127.980469 375.117188 126.597656 374.628906 125.050781 374.628906 C 121.796875 374.628906 118.742188 375.929688 115.894531 378.535156 C 113.042969 381.144531 111.050781 384.480469 109.910156 388.554688 C 109.746094 389.285156 109.542969 389.695312 109.300781 389.777344 C 109.054688 389.855469 108.402344 389.9375 107.347656 390.019531 L 105.636719 390.019531 C 105.148438 389.53125 104.902344 389.082031 104.902344 388.675781 Z M 104.902344 388.675781 " fill-opacity="1" fill-rule="nonzero"/><path fill="#000000" d="M 181.839844 336.476562 C 180.285156 336.476562 179.046875 335.957031 178.128906 334.921875 C 177.207031 333.882812 176.746094 332.617188 176.746094 331.121094 C 176.746094 327.03125 178.269531 323.492188 181.320312 320.496094 C 184.371094 317.503906 188.171875 316.007812 192.71875 316.007812 C 197.953125 316.007812 202.328125 317.617188 205.839844 320.84375 C 209.351562 324.066406 211.132812 328.242188 211.191406 333.367188 C 211.191406 335.84375 210.617188 338.203125 209.464844 340.449219 C 208.3125 342.695312 206.933594 344.652344 205.320312 346.320312 C 203.710938 347.992188 201.40625 350.121094 198.414062 352.714844 C 196.34375 354.496094 193.464844 357.148438 189.78125 360.660156 L 184.6875 365.496094 L 191.25 365.582031 C 200.285156 365.582031 205.089844 365.4375 205.667969 365.148438 C 206.070312 365.035156 206.761719 362.472656 207.738281 357.464844 L 207.738281 357.203125 L 211.191406 357.203125 L 211.191406 357.464844 C 211.132812 357.636719 210.761719 360.257812 210.070312 365.324219 C 209.378906 370.390625 208.949219 373.039062 208.773438 373.269531 L 208.773438 373.527344 L 176.746094 373.527344 L 176.746094 370.851562 C 176.746094 370.449219 176.917969 370.015625 177.265625 369.554688 C 177.609375 369.09375 178.472656 368.085938 179.855469 366.53125 C 181.523438 364.691406 182.960938 363.078125 184.171875 361.695312 C 184.6875 361.121094 185.667969 360.054688 187.105469 358.5 C 188.542969 356.945312 189.523438 355.878906 190.039062 355.304688 C 190.558594 354.726562 191.394531 353.777344 192.542969 352.453125 C 193.695312 351.128906 194.5 350.152344 194.960938 349.515625 C 195.421875 348.882812 196.085938 348.019531 196.949219 346.925781 C 197.8125 345.832031 198.414062 344.910156 198.761719 344.164062 C 199.105469 343.414062 199.539062 342.578125 200.054688 341.65625 C 200.574219 340.738281 200.949219 339.816406 201.175781 338.894531 C 201.40625 337.972656 201.609375 337.109375 201.78125 336.304688 C 201.953125 335.496094 202.039062 334.546875 202.039062 333.453125 C 202.039062 329.824219 201.0625 326.6875 199.105469 324.039062 C 197.148438 321.390625 194.359375 320.066406 190.730469 320.066406 C 188.832031 320.066406 187.164062 320.554688 185.722656 321.535156 C 184.285156 322.511719 183.277344 323.460938 182.703125 324.382812 C 182.128906 325.304688 181.839844 325.851562 181.839844 326.023438 C 181.839844 326.082031 181.984375 326.109375 182.269531 326.109375 C 183.308594 326.109375 184.371094 326.515625 185.464844 327.320312 C 186.558594 328.125 187.105469 329.449219 187.105469 331.292969 C 187.105469 332.734375 186.644531 333.941406 185.722656 334.921875 C 184.804688 335.898438 183.507812 336.417969 181.839844 336.476562 Z M 181.839844 336.476562 " fill-opacity="1" fill-rule="nonzero"/><path fill="#000000" d="M 255.683594 395.027344 C 255.683594 395.027344 255.683594 394.5 255.683594 393.441406 C 255.683594 392.382812 256.253906 391.566406 257.390625 390.996094 L 293.902344 390.996094 L 293.902344 372.671875 L 294.023438 354.347656 C 294.839844 353.289062 295.613281 352.761719 296.34375 352.761719 C 297.402344 352.761719 298.21875 353.371094 298.789062 354.59375 L 298.789062 390.996094 L 335.175781 390.996094 C 336.394531 391.648438 337.007812 392.464844 337.007812 393.441406 C 337.007812 394.417969 336.394531 395.230469 335.175781 395.882812 L 298.789062 395.882812 L 298.789062 432.289062 C 298.136719 433.429688 297.402344 434 296.589844 434 L 296.101562 434 C 295.125 434 294.390625 433.429688 293.902344 432.289062 L 293.902344 395.882812 L 257.390625 395.882812 C 256.253906 395.3125 255.683594 394.5 255.683594 393.441406 Z M 255.683594 395.027344 " fill-opacity="1" fill-rule="nonzero"/><path fill="#000000" d="M 427.390625 423.980469 C 425.925781 423.738281 420.675781 423.613281 411.640625 423.613281 C 402.195312 423.613281 396.742188 423.738281 395.277344 423.980469 L 394.179688 423.980469 L 394.179688 418.363281 L 397.964844 418.363281 C 399.589844 418.363281 400.691406 418.363281 401.261719 418.363281 C 401.832031 418.363281 402.523438 418.28125 403.335938 418.117188 C 404.148438 417.953125 404.71875 417.75 405.046875 417.507812 C 405.371094 417.261719 405.65625 416.9375 405.902344 416.53125 C 405.980469 416.367188 406.023438 414.167969 406.023438 409.933594 L 406.023438 403.824219 L 374.398438 403.824219 L 374.398438 398.203125 L 392.835938 369.984375 C 405.289062 351.089844 411.597656 341.601562 411.761719 341.519531 C 411.925781 341.359375 412.777344 341.277344 414.324219 341.277344 L 416.523438 341.277344 L 417.257812 342.011719 L 417.257812 398.203125 L 428.492188 398.203125 L 428.492188 403.824219 L 417.257812 403.824219 L 417.257812 410.054688 C 417.257812 413.394531 417.257812 415.347656 417.257812 415.917969 C 417.257812 416.488281 417.5 416.976562 417.988281 417.382812 C 418.640625 417.953125 420.960938 418.28125 424.949219 418.363281 L 428.492188 418.363281 L 428.492188 423.980469 Z M 406.753906 398.203125 L 406.753906 357.402344 L 380.011719 398.082031 L 393.324219 398.203125 Z M 406.753906 398.203125 " fill-opacity="1" fill-rule="nonzero"/><path fill="#000000" d="M 438.382812 388.675781 C 438.949219 385.253906 441.148438 381.304688 444.976562 376.828125 C 448.800781 372.347656 453.523438 370.066406 459.140625 369.984375 C 461.988281 369.984375 464.59375 370.71875 466.953125 372.183594 C 469.316406 373.648438 471.066406 375.484375 472.207031 377.679688 C 475.625 372.550781 479.734375 369.984375 484.539062 369.984375 C 487.550781 369.984375 490.15625 370.882812 492.351562 372.671875 C 494.550781 374.464844 495.691406 376.867188 495.773438 379.878906 C 495.773438 382.242188 495.203125 384.15625 494.0625 385.621094 C 492.921875 387.089844 491.824219 387.984375 490.765625 388.308594 C 489.707031 388.636719 488.769531 388.796875 487.957031 388.796875 C 486.410156 388.796875 485.148438 388.351562 484.171875 387.453125 C 483.195312 386.558594 482.707031 385.378906 482.707031 383.910156 C 482.707031 380.164062 484.742188 377.601562 488.8125 376.214844 C 487.917969 375.15625 486.289062 374.628906 483.925781 374.628906 C 482.871094 374.628906 482.097656 374.707031 481.609375 374.871094 C 478.515625 376.175781 476.234375 378.863281 474.769531 382.933594 C 469.886719 400.933594 467.441406 411.4375 467.441406 414.453125 C 467.441406 416.734375 468.09375 418.363281 469.398438 419.339844 C 470.699219 420.316406 472.125 420.804688 473.671875 420.804688 C 476.683594 420.804688 479.652344 419.460938 482.585938 416.773438 C 485.515625 414.085938 487.507812 410.789062 488.566406 406.878906 C 488.8125 406.0625 489.054688 405.617188 489.300781 405.535156 C 489.542969 405.453125 490.195312 405.371094 491.253906 405.289062 L 491.742188 405.289062 C 492.964844 405.289062 493.574219 405.617188 493.574219 406.269531 C 493.574219 406.347656 493.492188 406.796875 493.328125 407.613281 C 492.027344 412.253906 489.503906 416.367188 485.757812 419.949219 C 482.015625 423.535156 477.660156 425.324219 472.695312 425.324219 C 466.996094 425.324219 462.679688 422.757812 459.75 417.628906 C 456.414062 422.679688 452.585938 425.203125 448.273438 425.203125 L 447.539062 425.203125 C 443.550781 425.203125 440.703125 424.144531 438.992188 422.027344 C 437.28125 419.910156 436.386719 417.667969 436.304688 415.308594 C 436.304688 412.703125 437.078125 410.585938 438.625 408.957031 C 440.171875 407.328125 442.003906 406.511719 444.121094 406.511719 C 447.621094 406.511719 449.371094 408.222656 449.371094 411.644531 C 449.371094 413.273438 448.882812 414.695312 447.90625 415.917969 C 446.929688 417.140625 445.992188 417.953125 445.097656 418.363281 C 444.203125 418.769531 443.671875 418.972656 443.507812 418.972656 L 443.144531 419.09375 C 443.144531 419.175781 443.386719 419.339844 443.875 419.582031 C 444.363281 419.828125 445.015625 420.113281 445.828125 420.4375 C 446.644531 420.765625 447.417969 420.886719 448.148438 420.804688 C 451.082031 420.804688 453.605469 418.972656 455.71875 415.308594 C 456.453125 414.003906 457.390625 411.234375 458.527344 407 C 459.667969 402.765625 460.808594 398.367188 461.949219 393.808594 C 463.085938 389.246094 463.738281 386.558594 463.902344 385.746094 C 464.308594 383.546875 464.511719 381.957031 464.511719 380.980469 C 464.511719 378.699219 463.902344 377.070312 462.679688 376.09375 C 461.460938 375.117188 460.074219 374.628906 458.527344 374.628906 C 455.273438 374.628906 452.21875 375.929688 449.371094 378.535156 C 446.523438 381.144531 444.527344 384.480469 443.386719 388.554688 C 443.226562 389.285156 443.019531 389.695312 442.777344 389.777344 C 442.53125 389.855469 441.882812 389.9375 440.824219 390.019531 L 439.113281 390.019531 C 438.625 389.53125 438.382812 389.082031 438.382812 388.675781 Z M 438.382812 388.675781 " fill-opacity="1" fill-rule="nonzero"/><path fill="#000000" d="M 535.847656 395.027344 C 535.847656 395.027344 535.847656 394.5 535.847656 393.441406 C 535.847656 392.382812 536.417969 391.566406 537.558594 390.996094 L 574.066406 390.996094 L 574.066406 372.671875 L 574.191406 354.347656 C 575.003906 353.289062 575.777344 352.761719 576.511719 352.761719 C 577.566406 352.761719 578.382812 353.371094 578.953125 354.59375 L 578.953125 390.996094 L 615.339844 390.996094 C 616.5625 391.648438 617.171875 392.464844 617.171875 393.441406 C 617.171875 394.417969 616.5625 395.230469 615.339844 395.882812 L 578.953125 395.882812 L 578.953125 432.289062 C 578.300781 433.429688 577.566406 434 576.753906 434 L 576.265625 434 C 575.289062 434 574.554688 433.429688 574.066406 432.289062 L 574.066406 395.882812 L 537.558594 395.882812 C 536.417969 395.3125 535.847656 394.5 535.847656 393.441406 Z M 535.847656 395.027344 " fill-opacity="1" fill-rule="nonzero"/><path fill="#000000" d="M 677.152344 353.371094 L 675.5625 353.980469 C 674.425781 354.390625 672.796875 354.796875 670.679688 355.203125 C 668.5625 355.609375 666.203125 355.894531 663.597656 356.058594 L 661.277344 356.058594 L 661.277344 350.4375 L 663.597656 350.4375 C 667.421875 350.277344 670.964844 349.664062 674.222656 348.605469 C 677.476562 347.546875 679.757812 346.570312 681.058594 345.675781 C 682.363281 344.777344 683.5 343.882812 684.476562 342.988281 C 684.640625 342.742188 685.128906 342.621094 685.941406 342.621094 C 686.675781 342.621094 687.367188 342.863281 688.019531 343.355469 L 688.019531 379.878906 L 688.140625 416.53125 C 688.710938 417.097656 689.199219 417.464844 689.605469 417.628906 C 690.011719 417.792969 690.992188 417.953125 692.539062 418.117188 C 694.082031 418.28125 696.609375 418.363281 700.109375 418.363281 L 703.28125 418.363281 L 703.28125 423.980469 L 701.941406 423.980469 C 700.230469 423.738281 693.757812 423.613281 682.523438 423.613281 C 671.453125 423.613281 665.0625 423.738281 663.351562 423.980469 L 661.886719 423.980469 L 661.886719 418.363281 L 665.0625 418.363281 C 666.855469 418.363281 668.402344 418.363281 669.703125 418.363281 C 671.003906 418.363281 672.023438 418.320312 672.753906 418.238281 C 673.488281 418.15625 674.140625 418.035156 674.710938 417.875 C 675.277344 417.710938 675.605469 417.628906 675.6875 417.628906 C 675.769531 417.628906 676.011719 417.425781 676.417969 417.019531 C 676.824219 416.609375 677.070312 416.449219 677.152344 416.53125 Z M 677.152344 353.371094 " fill-opacity="1" fill-rule="nonzero"/></svg>