<svg xmlns="http://www.w3.org/2000/svg" xmlns:xlink="http://www.w3.org/1999/xlink" width="1000" zoomAndPan="magnify" viewBox="0 0 750 749.999995" height="1000" preserveAspectRatio="xMidYMid meet" version="1.0"><rect x="-75" width="900" fill="#ffffff" y="-74.999999" height="899.999994" fill-opacity="1"/><rect x="-75" width="900" fill="#ffffff" y="-74.999999" height="899.999994" fill-opacity="1"/><path fill="#000000" d="M 51.738281 368.046875 C 49.722656 368.046875 48.152344 367.414062 47.03125 366.144531 C 45.910156 364.875 45.3125 363.230469 45.234375 361.214844 C 45.234375 357.109375 47.03125 353.449219 50.617188 350.238281 C 54.207031 347.023438 58.539062 345.417969 63.625 345.417969 C 66.238281 345.417969 67.882812 345.457031 68.554688 345.53125 C 74.085938 346.429688 78.3125 348.40625 81.226562 351.46875 C 84.140625 354.53125 85.636719 357.855469 85.710938 361.4375 C 85.710938 365.324219 84.441406 369.09375 81.898438 372.753906 C 79.355469 376.414062 75.84375 379.066406 71.359375 380.707031 L 71.023438 380.933594 C 71.023438 381.007812 71.359375 381.117188 72.03125 381.269531 C 72.703125 381.417969 73.789062 381.753906 75.285156 382.277344 C 76.777344 382.800781 78.199219 383.582031 79.542969 384.628906 C 85.671875 388.585938 88.738281 393.816406 88.738281 400.3125 C 88.738281 406.210938 86.421875 411.367188 81.785156 415.773438 C 77.152344 420.179688 71.285156 422.382812 64.183594 422.382812 C 58.203125 422.382812 53.046875 420.777344 48.710938 417.5625 C 44.375 414.351562 42.207031 410.28125 42.207031 405.351562 C 42.207031 403.261719 42.882812 401.582031 44.226562 400.3125 C 45.574219 399.042969 47.253906 398.371094 49.273438 398.296875 C 51.363281 398.296875 53.085938 398.96875 54.429688 400.3125 C 55.773438 401.65625 56.449219 403.335938 56.449219 405.351562 C 56.449219 406.175781 56.335938 406.921875 56.113281 407.59375 C 55.886719 408.265625 55.625 408.863281 55.328125 409.386719 C 55.027344 409.910156 54.617188 410.355469 54.09375 410.730469 C 53.570312 411.105469 53.121094 411.402344 52.746094 411.625 C 52.375 411.851562 52 412 51.625 412.074219 C 51.253906 412.148438 50.953125 412.261719 50.730469 412.410156 L 50.28125 412.523438 C 54.09375 415.882812 58.726562 417.5625 64.183594 417.5625 C 68.292969 417.5625 71.398438 415.585938 73.488281 411.625 C 74.761719 409.164062 75.394531 405.390625 75.394531 400.3125 L 75.394531 398.070312 C 75.394531 390.976562 73.003906 386.234375 68.21875 383.84375 C 67.097656 383.394531 64.820312 383.136719 61.382812 383.058594 L 56.671875 382.949219 L 56.335938 382.722656 C 56.1875 382.5 56.113281 381.902344 56.113281 380.933594 C 56.113281 379.585938 56.410156 378.914062 57.007812 378.914062 C 59.101562 378.914062 61.269531 378.730469 63.511719 378.355469 C 66.050781 377.980469 68.371094 376.414062 70.460938 373.648438 C 72.554688 370.886719 73.601562 366.703125 73.601562 361.101562 L 73.601562 360.207031 C 73.601562 355.949219 72.292969 353 69.675781 351.355469 C 68.035156 350.3125 66.277344 349.789062 64.40625 349.789062 C 62.015625 349.789062 59.8125 350.199219 57.792969 351.019531 C 55.773438 351.84375 54.355469 352.703125 53.53125 353.597656 C 52.710938 354.492188 52.300781 354.941406 52.300781 354.941406 L 52.636719 354.941406 C 52.859375 355.015625 53.160156 355.089844 53.53125 355.164062 C 53.90625 355.242188 54.28125 355.425781 54.652344 355.726562 C 55.027344 356.023438 55.476562 356.285156 56 356.511719 C 56.523438 356.734375 56.894531 357.144531 57.121094 357.742188 C 57.34375 358.339844 57.644531 358.898438 58.015625 359.421875 C 58.390625 359.945312 58.503906 360.691406 58.355469 361.664062 C 58.355469 363.304688 57.832031 364.761719 56.785156 366.03125 C 55.738281 367.300781 54.054688 367.972656 51.738281 368.046875 Z M 51.738281 368.046875 " fill-opacity="1" fill-rule="nonzero"/><path fill="#000000" d="M 99.390625 387.542969 C 99.910156 384.40625 101.929688 380.78125 105.441406 376.675781 C 108.957031 372.566406 113.292969 370.476562 118.449219 370.402344 C 121.066406 370.402344 123.457031 371.074219 125.625 372.417969 C 127.792969 373.761719 129.398438 375.441406 130.445312 377.457031 C 133.585938 372.753906 137.359375 370.402344 141.769531 370.402344 C 144.535156 370.402344 146.925781 371.222656 148.945312 372.867188 C 150.960938 374.507812 152.007812 376.710938 152.082031 379.476562 C 152.082031 381.640625 151.5625 383.394531 150.515625 384.742188 C 149.46875 386.085938 148.457031 386.90625 147.488281 387.207031 C 146.515625 387.503906 145.65625 387.652344 144.910156 387.652344 C 143.488281 387.652344 142.328125 387.242188 141.433594 386.421875 C 140.535156 385.597656 140.085938 384.515625 140.085938 383.171875 C 140.085938 379.738281 141.957031 377.382812 145.691406 376.113281 C 144.871094 375.144531 143.375 374.660156 141.207031 374.660156 C 140.238281 374.660156 139.527344 374.734375 139.078125 374.882812 C 136.238281 376.078125 134.144531 378.542969 132.800781 382.277344 C 128.316406 398.78125 126.074219 408.414062 126.074219 411.179688 C 126.074219 413.269531 126.671875 414.761719 127.867188 415.660156 C 129.0625 416.554688 130.371094 417.003906 131.789062 417.003906 C 134.554688 417.003906 137.285156 415.773438 139.976562 413.308594 C 142.664062 410.84375 144.496094 407.816406 145.46875 404.234375 C 145.691406 403.484375 145.917969 403.074219 146.140625 403 C 146.367188 402.925781 146.964844 402.851562 147.933594 402.777344 L 148.382812 402.777344 C 149.503906 402.777344 150.066406 403.074219 150.066406 403.671875 C 150.066406 403.746094 149.992188 404.160156 149.839844 404.90625 C 148.644531 409.164062 146.328125 412.933594 142.890625 416.21875 C 139.453125 419.507812 135.453125 421.148438 130.894531 421.148438 C 125.660156 421.148438 121.699219 418.796875 119.007812 414.089844 C 115.945312 418.722656 112.433594 421.035156 108.46875 421.035156 L 107.796875 421.035156 C 104.136719 421.035156 101.519531 420.066406 99.949219 418.125 C 98.378906 416.183594 97.558594 414.128906 97.484375 411.964844 C 97.484375 409.574219 98.191406 407.632812 99.613281 406.136719 C 101.03125 404.644531 102.714844 403.898438 104.660156 403.898438 C 107.871094 403.898438 109.480469 405.464844 109.480469 408.601562 C 109.480469 410.097656 109.03125 411.402344 108.132812 412.523438 C 107.238281 413.644531 106.378906 414.390625 105.554688 414.761719 C 104.734375 415.136719 104.246094 415.324219 104.097656 415.324219 L 103.761719 415.4375 C 103.761719 415.511719 103.984375 415.660156 104.433594 415.882812 C 104.882812 416.109375 105.480469 416.371094 106.226562 416.667969 C 106.976562 416.964844 107.683594 417.078125 108.359375 417.003906 C 111.050781 417.003906 113.367188 415.324219 115.308594 411.964844 C 115.980469 410.769531 116.839844 408.230469 117.886719 404.34375 C 118.933594 400.460938 119.980469 396.429688 121.027344 392.246094 C 122.074219 388.0625 122.671875 385.597656 122.820312 384.851562 C 123.195312 382.835938 123.382812 381.378906 123.382812 380.484375 C 123.382812 378.390625 122.820312 376.898438 121.699219 376.003906 C 120.578125 375.105469 119.308594 374.660156 117.886719 374.660156 C 114.898438 374.660156 112.09375 375.851562 109.480469 378.242188 C 106.863281 380.632812 105.03125 383.695312 103.984375 387.429688 C 103.835938 388.101562 103.648438 388.476562 103.425781 388.550781 C 103.199219 388.625 102.601562 388.699219 101.632812 388.773438 L 100.0625 388.773438 C 99.613281 388.324219 99.390625 387.914062 99.390625 387.542969 Z M 99.390625 387.542969 " fill-opacity="1" fill-rule="nonzero"/><path fill="#000000" d="M 170.03125 339.671875 C 168.601562 339.671875 167.464844 339.195312 166.621094 338.246094 C 165.777344 337.296875 165.351562 336.132812 165.351562 334.761719 C 165.351562 331.011719 166.753906 327.765625 169.554688 325.019531 C 172.355469 322.273438 175.84375 320.902344 180.015625 320.902344 C 184.824219 320.902344 188.84375 322.378906 192.066406 325.335938 C 195.289062 328.292969 196.925781 332.121094 196.980469 336.820312 C 196.980469 339.089844 196.453125 341.257812 195.394531 343.316406 C 194.339844 345.375 193.070312 347.171875 191.589844 348.703125 C 190.109375 350.234375 187.996094 352.1875 185.25 354.5625 C 183.347656 356.199219 180.703125 358.628906 177.320312 361.847656 L 172.644531 366.285156 L 178.667969 366.363281 C 186.964844 366.363281 191.378906 366.230469 191.90625 365.96875 C 192.277344 365.863281 192.910156 363.511719 193.808594 358.917969 L 193.808594 358.679688 L 196.980469 358.679688 L 196.980469 358.917969 C 196.925781 359.078125 196.585938 361.480469 195.949219 366.125 C 195.316406 370.773438 194.917969 373.203125 194.761719 373.414062 L 194.761719 373.648438 L 165.351562 373.648438 L 165.351562 371.195312 C 165.351562 370.824219 165.511719 370.429688 165.828125 370.007812 C 166.144531 369.585938 166.9375 368.660156 168.207031 367.234375 C 169.738281 365.546875 171.058594 364.066406 172.167969 362.800781 C 172.644531 362.269531 173.542969 361.292969 174.863281 359.867188 C 176.1875 358.441406 177.085938 357.464844 177.558594 356.9375 C 178.035156 356.410156 178.800781 355.539062 179.859375 354.324219 C 180.914062 353.109375 181.65625 352.210938 182.078125 351.632812 C 182.5 351.050781 183.109375 350.257812 183.902344 349.253906 C 184.695312 348.253906 185.25 347.40625 185.566406 346.722656 C 185.882812 346.035156 186.28125 345.269531 186.753906 344.425781 C 187.230469 343.578125 187.574219 342.734375 187.785156 341.890625 C 187.996094 341.046875 188.183594 340.253906 188.339844 339.515625 C 188.5 338.773438 188.578125 337.902344 188.578125 336.898438 C 188.578125 333.574219 187.679688 330.695312 185.882812 328.265625 C 184.085938 325.839844 181.523438 324.625 178.195312 324.625 C 176.449219 324.625 174.917969 325.074219 173.597656 325.96875 C 172.277344 326.867188 171.351562 327.738281 170.824219 328.585938 C 170.292969 329.429688 170.03125 329.929688 170.03125 330.089844 C 170.03125 330.140625 170.160156 330.167969 170.425781 330.167969 C 171.378906 330.167969 172.355469 330.539062 173.359375 331.277344 C 174.363281 332.015625 174.863281 333.230469 174.863281 334.921875 C 174.863281 336.242188 174.441406 337.347656 173.597656 338.246094 C 172.75 339.144531 171.5625 339.621094 170.03125 339.671875 Z M 170.03125 339.671875 " fill-opacity="1" fill-rule="nonzero"/><path fill="#000000" d="M 237.832031 393.367188 C 237.832031 393.367188 237.832031 392.882812 237.832031 391.910156 C 237.832031 390.9375 238.355469 390.191406 239.402344 389.667969 L 272.921875 389.667969 L 272.921875 372.867188 L 273.035156 356.0625 C 273.785156 355.089844 274.492188 354.605469 275.167969 354.605469 C 276.136719 354.605469 276.886719 355.164062 277.410156 356.285156 L 277.410156 389.667969 L 310.820312 389.667969 C 311.941406 390.265625 312.5 391.015625 312.5 391.910156 C 312.5 392.804688 311.941406 393.554688 310.820312 394.152344 L 277.410156 394.152344 L 277.410156 427.535156 C 276.808594 428.578125 276.136719 429.101562 275.390625 429.101562 L 274.941406 429.101562 C 274.042969 429.101562 273.371094 428.578125 272.921875 427.535156 L 272.921875 394.152344 L 239.402344 394.152344 C 238.355469 393.628906 237.832031 392.882812 237.832031 391.910156 Z M 237.832031 393.367188 " fill-opacity="1" fill-rule="nonzero"/><path fill="#000000" d="M 395.492188 419.917969 C 394.144531 419.691406 389.324219 419.582031 381.027344 419.582031 C 372.355469 419.582031 367.347656 419.691406 366.003906 419.917969 L 364.996094 419.917969 L 364.996094 414.761719 L 368.46875 414.761719 C 369.964844 414.761719 370.972656 414.761719 371.496094 414.761719 C 372.019531 414.761719 372.65625 414.6875 373.402344 414.539062 C 374.152344 414.390625 374.671875 414.203125 374.972656 413.980469 C 375.273438 413.753906 375.535156 413.457031 375.757812 413.082031 C 375.832031 412.933594 375.871094 410.917969 375.871094 407.035156 L 375.871094 401.433594 L 346.832031 401.433594 L 346.832031 396.28125 L 363.761719 370.402344 C 375.195312 353.074219 380.988281 344.375 381.140625 344.300781 C 381.289062 344.148438 382.074219 344.074219 383.492188 344.074219 L 385.511719 344.074219 L 386.183594 344.746094 L 386.183594 396.28125 L 396.5 396.28125 L 396.5 401.433594 L 386.183594 401.433594 L 386.183594 407.144531 C 386.183594 410.207031 386.183594 412 386.183594 412.523438 C 386.183594 413.046875 386.410156 413.492188 386.855469 413.867188 C 387.457031 414.390625 389.585938 414.6875 393.246094 414.761719 L 396.5 414.761719 L 396.5 419.917969 Z M 376.542969 396.28125 L 376.542969 358.863281 L 351.988281 396.167969 L 364.210938 396.28125 Z M 376.542969 396.28125 " fill-opacity="1" fill-rule="nonzero"/><path fill="#000000" d="M 413.988281 368.046875 C 411.972656 368.046875 410.402344 367.414062 409.28125 366.144531 C 408.160156 364.875 407.5625 363.230469 407.488281 361.214844 C 407.488281 357.109375 409.28125 353.449219 412.867188 350.238281 C 416.457031 347.023438 420.792969 345.417969 425.875 345.417969 C 428.488281 345.417969 430.132812 345.457031 430.808594 345.53125 C 436.339844 346.429688 440.5625 348.40625 443.476562 351.46875 C 446.390625 354.53125 447.886719 357.855469 447.960938 361.4375 C 447.960938 365.324219 446.691406 369.09375 444.148438 372.753906 C 441.609375 376.414062 438.09375 379.066406 433.609375 380.707031 L 433.273438 380.933594 C 433.273438 381.007812 433.609375 381.117188 434.28125 381.269531 C 434.957031 381.417969 436.039062 381.753906 437.535156 382.277344 C 439.027344 382.800781 440.449219 383.582031 441.792969 384.628906 C 447.921875 388.585938 450.988281 393.816406 450.988281 400.3125 C 450.988281 406.210938 448.671875 411.367188 444.035156 415.773438 C 439.402344 420.179688 433.535156 422.382812 426.433594 422.382812 C 420.453125 422.382812 415.296875 420.777344 410.960938 417.5625 C 406.628906 414.351562 404.460938 410.28125 404.460938 405.351562 C 404.460938 403.261719 405.132812 401.582031 406.476562 400.3125 C 407.824219 399.042969 409.503906 398.371094 411.523438 398.296875 C 413.617188 398.296875 415.335938 398.96875 416.679688 400.3125 C 418.027344 401.65625 418.699219 403.335938 418.699219 405.351562 C 418.699219 406.175781 418.585938 406.921875 418.363281 407.59375 C 418.136719 408.265625 417.875 408.863281 417.578125 409.386719 C 417.277344 409.910156 416.867188 410.355469 416.34375 410.730469 C 415.820312 411.105469 415.371094 411.402344 415 411.625 C 414.625 411.851562 414.25 412 413.878906 412.074219 C 413.503906 412.148438 413.203125 412.261719 412.980469 412.410156 L 412.53125 412.523438 C 416.34375 415.882812 420.976562 417.5625 426.433594 417.5625 C 430.546875 417.5625 433.648438 415.585938 435.742188 411.625 C 437.011719 409.164062 437.644531 405.390625 437.644531 400.3125 L 437.644531 398.070312 C 437.644531 390.976562 435.253906 386.234375 430.472656 383.84375 C 429.351562 383.394531 427.070312 383.136719 423.632812 383.058594 L 418.921875 382.949219 L 418.585938 382.722656 C 418.4375 382.5 418.363281 381.902344 418.363281 380.933594 C 418.363281 379.585938 418.660156 378.914062 419.257812 378.914062 C 421.351562 378.914062 423.519531 378.730469 425.761719 378.355469 C 428.304688 377.980469 430.621094 376.414062 432.714844 373.648438 C 434.804688 370.886719 435.851562 366.703125 435.851562 361.101562 L 435.851562 360.207031 C 435.851562 355.949219 434.542969 353 431.929688 351.355469 C 430.285156 350.3125 428.527344 349.789062 426.660156 349.789062 C 424.265625 349.789062 422.0625 350.199219 420.042969 351.019531 C 418.027344 351.84375 416.605469 352.703125 415.785156 353.597656 C 414.960938 354.492188 414.550781 354.941406 414.550781 354.941406 L 414.886719 354.941406 C 415.109375 355.015625 415.410156 355.089844 415.785156 355.164062 C 416.15625 355.242188 416.53125 355.425781 416.90625 355.726562 C 417.277344 356.023438 417.726562 356.285156 418.25 356.511719 C 418.773438 356.734375 419.148438 357.144531 419.371094 357.742188 C 419.59375 358.339844 419.894531 358.898438 420.269531 359.421875 C 420.640625 359.945312 420.753906 360.691406 420.605469 361.664062 C 420.605469 363.304688 420.082031 364.761719 419.035156 366.03125 C 417.988281 367.300781 416.308594 367.972656 413.988281 368.046875 Z M 413.988281 368.046875 " fill-opacity="1" fill-rule="nonzero"/><path fill="#000000" d="M 461.640625 387.542969 C 462.164062 384.40625 464.179688 380.78125 467.695312 376.675781 C 471.207031 372.566406 475.542969 370.476562 480.699219 370.402344 C 483.316406 370.402344 485.707031 371.074219 487.875 372.417969 C 490.042969 373.761719 491.648438 375.441406 492.695312 377.457031 C 495.835938 372.753906 499.609375 370.402344 504.019531 370.402344 C 506.785156 370.402344 509.175781 371.222656 511.195312 372.867188 C 513.214844 374.507812 514.257812 376.710938 514.335938 379.476562 C 514.335938 381.640625 513.8125 383.394531 512.765625 384.742188 C 511.71875 386.085938 510.710938 386.90625 509.738281 387.207031 C 508.765625 387.503906 507.90625 387.652344 507.160156 387.652344 C 505.738281 387.652344 504.582031 387.242188 503.683594 386.421875 C 502.785156 385.597656 502.339844 384.515625 502.339844 383.171875 C 502.339844 379.738281 504.207031 377.382812 507.945312 376.113281 C 507.121094 375.144531 505.625 374.660156 503.460938 374.660156 C 502.488281 374.660156 501.777344 374.734375 501.328125 374.882812 C 498.488281 376.078125 496.394531 378.542969 495.050781 382.277344 C 490.566406 398.78125 488.324219 408.414062 488.324219 411.179688 C 488.324219 413.269531 488.921875 414.761719 490.117188 415.660156 C 491.3125 416.554688 492.621094 417.003906 494.042969 417.003906 C 496.808594 417.003906 499.535156 415.773438 502.226562 413.308594 C 504.917969 410.84375 506.746094 407.816406 507.71875 404.234375 C 507.945312 403.484375 508.167969 403.074219 508.390625 403 C 508.617188 402.925781 509.214844 402.851562 510.1875 402.777344 L 510.632812 402.777344 C 511.753906 402.777344 512.316406 403.074219 512.316406 403.671875 C 512.316406 403.746094 512.242188 404.160156 512.09375 404.90625 C 510.894531 409.164062 508.578125 412.933594 505.140625 416.21875 C 501.703125 419.507812 497.703125 421.148438 493.144531 421.148438 C 487.914062 421.148438 483.949219 418.796875 481.261719 414.089844 C 478.195312 418.722656 474.683594 421.035156 470.722656 421.035156 L 470.046875 421.035156 C 466.386719 421.035156 463.769531 420.066406 462.199219 418.125 C 460.628906 416.183594 459.808594 414.128906 459.734375 411.964844 C 459.734375 409.574219 460.445312 407.632812 461.863281 406.136719 C 463.285156 404.644531 464.964844 403.898438 466.910156 403.898438 C 470.121094 403.898438 471.730469 405.464844 471.730469 408.601562 C 471.730469 410.097656 471.28125 411.402344 470.382812 412.523438 C 469.488281 413.644531 468.628906 414.390625 467.804688 414.761719 C 466.984375 415.136719 466.496094 415.324219 466.347656 415.324219 L 466.011719 415.4375 C 466.011719 415.511719 466.234375 415.660156 466.683594 415.882812 C 467.132812 416.109375 467.730469 416.371094 468.480469 416.667969 C 469.226562 416.964844 469.9375 417.078125 470.609375 417.003906 C 473.300781 417.003906 475.617188 415.324219 477.558594 411.964844 C 478.234375 410.769531 479.09375 408.230469 480.140625 404.34375 C 481.183594 400.460938 482.230469 396.429688 483.277344 392.246094 C 484.324219 388.0625 484.921875 385.597656 485.070312 384.851562 C 485.445312 382.835938 485.632812 381.378906 485.632812 380.484375 C 485.632812 378.390625 485.070312 376.898438 483.949219 376.003906 C 482.828125 375.105469 481.558594 374.660156 480.140625 374.660156 C 477.148438 374.660156 474.347656 375.851562 471.730469 378.242188 C 469.113281 380.632812 467.28125 383.695312 466.234375 387.429688 C 466.085938 388.101562 465.898438 388.476562 465.675781 388.550781 C 465.453125 388.625 464.851562 388.699219 463.882812 388.773438 L 462.3125 388.773438 C 461.863281 388.324219 461.640625 387.914062 461.640625 387.542969 Z M 461.640625 387.542969 " fill-opacity="1" fill-rule="nonzero"/><path fill="#000000" d="M 551.132812 393.367188 C 551.132812 393.367188 551.132812 392.882812 551.132812 391.910156 C 551.132812 390.9375 551.65625 390.191406 552.699219 389.667969 L 586.222656 389.667969 L 586.222656 372.867188 L 586.335938 356.0625 C 587.082031 355.089844 587.792969 354.605469 588.464844 354.605469 C 589.4375 354.605469 590.1875 355.164062 590.707031 356.285156 L 590.707031 389.667969 L 624.121094 389.667969 C 625.242188 390.265625 625.800781 391.015625 625.800781 391.910156 C 625.800781 392.804688 625.242188 393.554688 624.121094 394.152344 L 590.707031 394.152344 L 590.707031 427.535156 C 590.109375 428.578125 589.4375 429.101562 588.691406 429.101562 L 588.242188 429.101562 C 587.34375 429.101562 586.671875 428.578125 586.222656 427.535156 L 586.222656 394.152344 L 552.699219 394.152344 C 551.65625 393.628906 551.132812 392.882812 551.132812 391.910156 Z M 551.132812 393.367188 " fill-opacity="1" fill-rule="nonzero"/><path fill="#000000" d="M 708.789062 419.917969 C 707.445312 419.691406 702.625 419.582031 694.328125 419.582031 C 685.65625 419.582031 680.648438 419.691406 679.304688 419.917969 L 678.292969 419.917969 L 678.292969 414.761719 L 681.769531 414.761719 C 683.265625 414.761719 684.273438 414.761719 684.796875 414.761719 C 685.320312 414.761719 685.957031 414.6875 686.703125 414.539062 C 687.449219 414.390625 687.972656 414.203125 688.273438 413.980469 C 688.570312 413.753906 688.832031 413.457031 689.058594 413.082031 C 689.132812 412.933594 689.171875 410.917969 689.171875 407.035156 L 689.171875 401.433594 L 660.132812 401.433594 L 660.132812 396.28125 L 677.0625 370.402344 C 688.496094 353.074219 694.289062 344.375 694.441406 344.300781 C 694.589844 344.148438 695.375 344.074219 696.792969 344.074219 L 698.8125 344.074219 L 699.484375 344.746094 L 699.484375 396.28125 L 709.800781 396.28125 L 709.800781 401.433594 L 699.484375 401.433594 L 699.484375 407.144531 C 699.484375 410.207031 699.484375 412 699.484375 412.523438 C 699.484375 413.046875 699.710938 413.492188 700.15625 413.867188 C 700.753906 414.390625 702.886719 414.6875 706.546875 414.761719 L 709.800781 414.761719 L 709.800781 419.917969 Z M 689.84375 396.28125 L 689.84375 358.863281 L 665.289062 396.167969 L 677.511719 396.28125 Z M 689.84375 396.28125 " fill-opacity="1" fill-rule="nonzero"/></svg>