<svg xmlns="http://www.w3.org/2000/svg" xmlns:xlink="http://www.w3.org/1999/xlink" width="1000" zoomAndPan="magnify" viewBox="0 0 750 749.999995" height="1000" preserveAspectRatio="xMidYMid meet" version="1.0"><defs><g/><clipPath id="040700df0d"><path d="M 138.648438 100.96875 L 611 100.96875 L 611 649.21875 L 138.648438 649.21875 Z M 138.648438 100.96875 " clip-rule="nonzero"/></clipPath></defs><rect x="-75" width="900" fill="#ffffff" y="-74.999999" height="899.999994" fill-opacity="1"/><rect x="-75" width="900" fill="#ffffff" y="-74.999999" height="899.999994" fill-opacity="1"/><g clip-path="url(#040700df0d)"><path fill="#000000" d="M 610.867188 649.21875 L 138.925781 649.21875 L 374.898438 100.96875 Z M 165.636719 631.648438 L 584.15625 631.648438 L 374.898438 145.460938 Z M 165.636719 631.648438 " fill-opacity="1" fill-rule="nonzero"/></g><g fill="#000000" fill-opacity="1"><g transform="translate(186.049944, 66.250095)"><g><path d="M 14.609375 0 L 8.5625 0 L 8.5625 -23.515625 L 0.796875 -23.515625 L 0.796875 -28.5625 L 22.359375 -28.5625 L 22.359375 -23.515625 L 14.609375 -23.515625 Z M 14.609375 0 "/></g></g></g><g fill="#000000" fill-opacity="1"><g transform="translate(209.211743, 66.250095)"><g><path d="M 15.3125 -22.25 C 16.125 -22.25 16.796875 -22.191406 17.328125 -22.078125 L 16.875 -16.484375 C 16.394531 -16.617188 15.8125 -16.6875 15.125 -16.6875 C 13.21875 -16.6875 11.734375 -16.195312 10.671875 -15.21875 C 9.609375 -14.238281 9.078125 -12.867188 9.078125 -11.109375 L 9.078125 0 L 3.125 0 L 3.125 -21.84375 L 7.640625 -21.84375 L 8.515625 -18.171875 L 8.8125 -18.171875 C 9.488281 -19.390625 10.398438 -20.375 11.546875 -21.125 C 12.703125 -21.875 13.957031 -22.25 15.3125 -22.25 Z M 15.3125 -22.25 "/></g></g></g><g fill="#000000" fill-opacity="1"><g transform="translate(227.374031, 66.250095)"><g><path d="M 2.875 -27.484375 C 2.875 -29.421875 3.953125 -30.390625 6.109375 -30.390625 C 8.273438 -30.390625 9.359375 -29.421875 9.359375 -27.484375 C 9.359375 -26.554688 9.085938 -25.832031 8.546875 -25.3125 C 8.003906 -24.800781 7.191406 -24.546875 6.109375 -24.546875 C 3.953125 -24.546875 2.875 -25.523438 2.875 -27.484375 Z M 9.078125 0 L 3.125 0 L 3.125 -21.84375 L 9.078125 -21.84375 Z M 9.078125 0 "/></g></g></g><g fill="#000000" fill-opacity="1"><g transform="translate(239.579875, 66.250095)"><g><path d="M 17 0 L 15.84375 -2.96875 L 15.6875 -2.96875 C 14.6875 -1.707031 13.65625 -0.832031 12.59375 -0.34375 C 11.53125 0.144531 10.144531 0.390625 8.4375 0.390625 C 6.34375 0.390625 4.691406 -0.207031 3.484375 -1.40625 C 2.285156 -2.601562 1.6875 -4.3125 1.6875 -6.53125 C 1.6875 -8.84375 2.492188 -10.546875 4.109375 -11.640625 C 5.734375 -12.742188 8.179688 -13.359375 11.453125 -13.484375 L 15.234375 -13.59375 L 15.234375 -14.546875 C 15.234375 -16.765625 14.101562 -17.875 11.84375 -17.875 C 10.09375 -17.875 8.039062 -17.347656 5.6875 -16.296875 L 3.71875 -20.3125 C 6.226562 -21.625 9.015625 -22.28125 12.078125 -22.28125 C 15.003906 -22.28125 17.25 -21.640625 18.8125 -20.359375 C 20.375 -19.085938 21.15625 -17.148438 21.15625 -14.546875 L 21.15625 0 Z M 15.234375 -10.125 L 12.9375 -10.046875 C 11.195312 -9.992188 9.90625 -9.679688 9.0625 -9.109375 C 8.21875 -8.535156 7.796875 -7.660156 7.796875 -6.484375 C 7.796875 -4.804688 8.757812 -3.96875 10.6875 -3.96875 C 12.0625 -3.96875 13.160156 -4.363281 13.984375 -5.15625 C 14.816406 -5.945312 15.234375 -7.003906 15.234375 -8.328125 Z M 8.609375 -24.234375 L 8.609375 -24.765625 C 10.847656 -27.367188 12.378906 -29.328125 13.203125 -30.640625 L 19.875 -30.640625 L 19.875 -30.234375 C 19.195312 -29.554688 18.039062 -28.550781 16.40625 -27.21875 C 14.78125 -25.882812 13.503906 -24.890625 12.578125 -24.234375 Z M 8.609375 -24.234375 "/></g></g></g><g fill="#000000" fill-opacity="1"><g transform="translate(263.737677, 66.250095)"><g><path d="M 23.28125 0 L 17.328125 0 L 17.328125 -12.75 C 17.328125 -14.332031 17.046875 -15.515625 16.484375 -16.296875 C 15.921875 -17.085938 15.03125 -17.484375 13.8125 -17.484375 C 12.144531 -17.484375 10.9375 -16.925781 10.1875 -15.8125 C 9.445312 -14.695312 9.078125 -12.851562 9.078125 -10.28125 L 9.078125 0 L 3.125 0 L 3.125 -21.84375 L 7.671875 -21.84375 L 8.484375 -19.046875 L 8.8125 -19.046875 C 9.476562 -20.097656 10.390625 -20.894531 11.546875 -21.4375 C 12.710938 -21.976562 14.039062 -22.25 15.53125 -22.25 C 18.070312 -22.25 20 -21.5625 21.3125 -20.1875 C 22.625 -18.8125 23.28125 -16.828125 23.28125 -14.234375 Z M 23.28125 0 "/></g></g></g><g fill="#000000" fill-opacity="1"><g transform="translate(290.02417, 66.250095)"><g><path d="M 22.125 -21.84375 L 22.125 -18.8125 L 18.71875 -17.9375 C 19.34375 -16.957031 19.65625 -15.863281 19.65625 -14.65625 C 19.65625 -12.3125 18.835938 -10.484375 17.203125 -9.171875 C 15.566406 -7.859375 13.296875 -7.203125 10.390625 -7.203125 L 9.3125 -7.265625 L 8.4375 -7.359375 C 7.820312 -6.890625 7.515625 -6.367188 7.515625 -5.796875 C 7.515625 -4.941406 8.609375 -4.515625 10.796875 -4.515625 L 14.515625 -4.515625 C 16.910156 -4.515625 18.734375 -4 19.984375 -2.96875 C 21.242188 -1.9375 21.875 -0.425781 21.875 1.5625 C 21.875 4.113281 20.804688 6.09375 18.671875 7.5 C 16.546875 8.90625 13.492188 9.609375 9.515625 9.609375 C 6.460938 9.609375 4.132812 9.078125 2.53125 8.015625 C 0.925781 6.953125 0.125 5.46875 0.125 3.5625 C 0.125 2.238281 0.53125 1.132812 1.34375 0.25 C 2.164062 -0.632812 3.375 -1.265625 4.96875 -1.640625 C 4.351562 -1.898438 3.816406 -2.328125 3.359375 -2.921875 C 2.898438 -3.515625 2.671875 -4.144531 2.671875 -4.8125 C 2.671875 -5.644531 2.910156 -6.335938 3.390625 -6.890625 C 3.878906 -7.441406 4.578125 -7.984375 5.484375 -8.515625 C 4.335938 -9.015625 3.429688 -9.8125 2.765625 -10.90625 C 2.097656 -12 1.765625 -13.285156 1.765625 -14.765625 C 1.765625 -17.148438 2.535156 -18.992188 4.078125 -20.296875 C 5.628906 -21.597656 7.84375 -22.25 10.71875 -22.25 C 11.332031 -22.25 12.054688 -22.191406 12.890625 -22.078125 C 13.734375 -21.972656 14.273438 -21.894531 14.515625 -21.84375 Z M 5.28125 3.09375 C 5.28125 3.90625 5.671875 4.546875 6.453125 5.015625 C 7.242188 5.484375 8.347656 5.71875 9.765625 5.71875 C 11.898438 5.71875 13.570312 5.425781 14.78125 4.84375 C 16 4.257812 16.609375 3.457031 16.609375 2.4375 C 16.609375 1.625 16.25 1.0625 15.53125 0.75 C 14.8125 0.4375 13.703125 0.28125 12.203125 0.28125 L 9.125 0.28125 C 8.03125 0.28125 7.113281 0.535156 6.375 1.046875 C 5.644531 1.554688 5.28125 2.238281 5.28125 3.09375 Z M 7.4375 -14.6875 C 7.4375 -13.5 7.707031 -12.5625 8.25 -11.875 C 8.789062 -11.1875 9.613281 -10.84375 10.71875 -10.84375 C 11.84375 -10.84375 12.664062 -11.1875 13.1875 -11.875 C 13.707031 -12.5625 13.96875 -13.5 13.96875 -14.6875 C 13.96875 -17.320312 12.882812 -18.640625 10.71875 -18.640625 C 8.53125 -18.640625 7.4375 -17.320312 7.4375 -14.6875 Z M 7.4375 -14.6875 "/></g></g></g><g fill="#000000" fill-opacity="1"><g transform="translate(312.619625, 66.250095)"><g><path d="M 18.59375 0 L 17.796875 -2.796875 L 17.484375 -2.796875 C 16.847656 -1.773438 15.941406 -0.988281 14.765625 -0.4375 C 13.597656 0.113281 12.265625 0.390625 10.765625 0.390625 C 8.203125 0.390625 6.269531 -0.296875 4.96875 -1.671875 C 3.664062 -3.046875 3.015625 -5.019531 3.015625 -7.59375 L 3.015625 -21.84375 L 8.96875 -21.84375 L 8.96875 -9.078125 C 8.96875 -7.503906 9.242188 -6.320312 9.796875 -5.53125 C 10.359375 -4.75 11.253906 -4.359375 12.484375 -4.359375 C 14.148438 -4.359375 15.351562 -4.914062 16.09375 -6.03125 C 16.832031 -7.144531 17.203125 -8.988281 17.203125 -11.5625 L 17.203125 -21.84375 L 23.171875 -21.84375 L 23.171875 0 Z M 18.59375 0 "/></g></g></g><g fill="#000000" fill-opacity="1"><g transform="translate(338.906118, 66.250095)"><g><path d="M 9.078125 0 L 3.125 0 L 3.125 -30.390625 L 9.078125 -30.390625 Z M 9.078125 0 "/></g></g></g><g fill="#000000" fill-opacity="1"><g transform="translate(351.111963, 66.250095)"><g><path d="M 7.875 -10.953125 C 7.875 -8.796875 8.226562 -7.160156 8.9375 -6.046875 C 9.644531 -4.941406 10.800781 -4.390625 12.40625 -4.390625 C 13.988281 -4.390625 15.128906 -4.941406 15.828125 -6.046875 C 16.523438 -7.148438 16.875 -8.785156 16.875 -10.953125 C 16.875 -13.117188 16.519531 -14.738281 15.8125 -15.8125 C 15.113281 -16.894531 13.960938 -17.4375 12.359375 -17.4375 C 10.773438 -17.4375 9.628906 -16.898438 8.921875 -15.828125 C 8.222656 -14.753906 7.875 -13.128906 7.875 -10.953125 Z M 22.96875 -10.953125 C 22.96875 -7.398438 22.03125 -4.617188 20.15625 -2.609375 C 18.28125 -0.609375 15.671875 0.390625 12.328125 0.390625 C 10.234375 0.390625 8.382812 -0.0664062 6.78125 -0.984375 C 5.175781 -1.898438 3.941406 -3.21875 3.078125 -4.9375 C 2.222656 -6.65625 1.796875 -8.660156 1.796875 -10.953125 C 1.796875 -14.523438 2.726562 -17.300781 4.59375 -19.28125 C 6.457031 -21.257812 9.070312 -22.25 12.4375 -22.25 C 14.539062 -22.25 16.390625 -21.789062 17.984375 -20.875 C 19.585938 -19.96875 20.816406 -18.660156 21.671875 -16.953125 C 22.535156 -15.242188 22.96875 -13.242188 22.96875 -10.953125 Z M 22.96875 -10.953125 "/></g></g></g><g fill="#000000" fill-opacity="1"><g transform="translate(375.875168, 66.250095)"><g/></g></g><g fill="#000000" fill-opacity="1"><g transform="translate(386.264778, 66.250095)"><g><path d="M 3.59375 0 L 3.59375 -28.5625 L 9.65625 -28.5625 L 9.65625 0 Z M 3.59375 0 "/></g></g></g><g fill="#000000" fill-opacity="1"><g transform="translate(399.505683, 66.250095)"><g><path d="M 18.359375 -6.484375 C 18.359375 -4.242188 17.578125 -2.535156 16.015625 -1.359375 C 14.460938 -0.191406 12.140625 0.390625 9.046875 0.390625 C 7.453125 0.390625 6.09375 0.28125 4.96875 0.0625 C 3.851562 -0.144531 2.8125 -0.457031 1.84375 -0.875 L 1.84375 -5.796875 C 2.945312 -5.273438 4.191406 -4.835938 5.578125 -4.484375 C 6.960938 -4.140625 8.179688 -3.96875 9.234375 -3.96875 C 11.398438 -3.96875 12.484375 -4.59375 12.484375 -5.84375 C 12.484375 -6.3125 12.335938 -6.691406 12.046875 -6.984375 C 11.765625 -7.273438 11.269531 -7.601562 10.5625 -7.96875 C 9.863281 -8.34375 8.925781 -8.78125 7.75 -9.28125 C 6.070312 -9.976562 4.835938 -10.625 4.046875 -11.21875 C 3.265625 -11.820312 2.691406 -12.507812 2.328125 -13.28125 C 1.972656 -14.0625 1.796875 -15.019531 1.796875 -16.15625 C 1.796875 -18.09375 2.546875 -19.59375 4.046875 -20.65625 C 5.554688 -21.71875 7.691406 -22.25 10.453125 -22.25 C 13.078125 -22.25 15.632812 -21.675781 18.125 -20.53125 L 16.328125 -16.234375 C 15.234375 -16.703125 14.210938 -17.082031 13.265625 -17.375 C 12.316406 -17.675781 11.347656 -17.828125 10.359375 -17.828125 C 8.597656 -17.828125 7.71875 -17.351562 7.71875 -16.40625 C 7.71875 -15.875 8 -15.410156 8.5625 -15.015625 C 9.132812 -14.628906 10.375 -14.050781 12.28125 -13.28125 C 13.988281 -12.59375 15.238281 -11.945312 16.03125 -11.34375 C 16.832031 -10.75 17.421875 -10.0625 17.796875 -9.28125 C 18.171875 -8.5 18.359375 -7.566406 18.359375 -6.484375 Z M 18.359375 -6.484375 "/></g></g></g><g fill="#000000" fill-opacity="1"><g transform="translate(419.386542, 66.250095)"><g><path d="M 7.875 -10.953125 C 7.875 -8.796875 8.226562 -7.160156 8.9375 -6.046875 C 9.644531 -4.941406 10.800781 -4.390625 12.40625 -4.390625 C 13.988281 -4.390625 15.128906 -4.941406 15.828125 -6.046875 C 16.523438 -7.148438 16.875 -8.785156 16.875 -10.953125 C 16.875 -13.117188 16.519531 -14.738281 15.8125 -15.8125 C 15.113281 -16.894531 13.960938 -17.4375 12.359375 -17.4375 C 10.773438 -17.4375 9.628906 -16.898438 8.921875 -15.828125 C 8.222656 -14.753906 7.875 -13.128906 7.875 -10.953125 Z M 22.96875 -10.953125 C 22.96875 -7.398438 22.03125 -4.617188 20.15625 -2.609375 C 18.28125 -0.609375 15.671875 0.390625 12.328125 0.390625 C 10.234375 0.390625 8.382812 -0.0664062 6.78125 -0.984375 C 5.175781 -1.898438 3.941406 -3.21875 3.078125 -4.9375 C 2.222656 -6.65625 1.796875 -8.660156 1.796875 -10.953125 C 1.796875 -14.523438 2.726562 -17.300781 4.59375 -19.28125 C 6.457031 -21.257812 9.070312 -22.25 12.4375 -22.25 C 14.539062 -22.25 16.390625 -21.789062 17.984375 -20.875 C 19.585938 -19.96875 20.816406 -18.660156 21.671875 -16.953125 C 22.535156 -15.242188 22.96875 -13.242188 22.96875 -10.953125 Z M 22.96875 -10.953125 "/></g></g></g><g fill="#000000" fill-opacity="1"><g transform="translate(444.149747, 66.250095)"><g><path d="M 18.359375 -6.484375 C 18.359375 -4.242188 17.578125 -2.535156 16.015625 -1.359375 C 14.460938 -0.191406 12.140625 0.390625 9.046875 0.390625 C 7.453125 0.390625 6.09375 0.28125 4.96875 0.0625 C 3.851562 -0.144531 2.8125 -0.457031 1.84375 -0.875 L 1.84375 -5.796875 C 2.945312 -5.273438 4.191406 -4.835938 5.578125 -4.484375 C 6.960938 -4.140625 8.179688 -3.96875 9.234375 -3.96875 C 11.398438 -3.96875 12.484375 -4.59375 12.484375 -5.84375 C 12.484375 -6.3125 12.335938 -6.691406 12.046875 -6.984375 C 11.765625 -7.273438 11.269531 -7.601562 10.5625 -7.96875 C 9.863281 -8.34375 8.925781 -8.78125 7.75 -9.28125 C 6.070312 -9.976562 4.835938 -10.625 4.046875 -11.21875 C 3.265625 -11.820312 2.691406 -12.507812 2.328125 -13.28125 C 1.972656 -14.0625 1.796875 -15.019531 1.796875 -16.15625 C 1.796875 -18.09375 2.546875 -19.59375 4.046875 -20.65625 C 5.554688 -21.71875 7.691406 -22.25 10.453125 -22.25 C 13.078125 -22.25 15.632812 -21.675781 18.125 -20.53125 L 16.328125 -16.234375 C 15.234375 -16.703125 14.210938 -17.082031 13.265625 -17.375 C 12.316406 -17.675781 11.347656 -17.828125 10.359375 -17.828125 C 8.597656 -17.828125 7.71875 -17.351562 7.71875 -16.40625 C 7.71875 -15.875 8 -15.410156 8.5625 -15.015625 C 9.132812 -14.628906 10.375 -14.050781 12.28125 -13.28125 C 13.988281 -12.59375 15.238281 -11.945312 16.03125 -11.34375 C 16.832031 -10.75 17.421875 -10.0625 17.796875 -9.28125 C 18.171875 -8.5 18.359375 -7.566406 18.359375 -6.484375 Z M 18.359375 -6.484375 "/></g></g></g><g fill="#000000" fill-opacity="1"><g transform="translate(464.030629, 66.250095)"><g><path d="M 12 0.390625 C 5.195312 0.390625 1.796875 -3.335938 1.796875 -10.796875 C 1.796875 -14.515625 2.71875 -17.351562 4.5625 -19.3125 C 6.414062 -21.269531 9.066406 -22.25 12.515625 -22.25 C 15.046875 -22.25 17.3125 -21.753906 19.3125 -20.765625 L 17.5625 -16.15625 C 16.625 -16.53125 15.75 -16.835938 14.9375 -17.078125 C 14.132812 -17.316406 13.328125 -17.4375 12.515625 -17.4375 C 9.421875 -17.4375 7.875 -15.238281 7.875 -10.84375 C 7.875 -6.570312 9.421875 -4.4375 12.515625 -4.4375 C 13.660156 -4.4375 14.722656 -4.585938 15.703125 -4.890625 C 16.679688 -5.203125 17.660156 -5.679688 18.640625 -6.328125 L 18.640625 -1.234375 C 17.671875 -0.617188 16.691406 -0.195312 15.703125 0.03125 C 14.722656 0.269531 13.488281 0.390625 12 0.390625 Z M 12 0.390625 "/></g></g></g><g fill="#000000" fill-opacity="1"><g transform="translate(484.595019, 66.250095)"><g><path d="M 12.171875 -18.015625 C 10.910156 -18.015625 9.921875 -17.613281 9.203125 -16.8125 C 8.484375 -16.007812 8.070312 -14.875 7.96875 -13.40625 L 16.328125 -13.40625 C 16.304688 -14.875 15.921875 -16.007812 15.171875 -16.8125 C 14.429688 -17.613281 13.429688 -18.015625 12.171875 -18.015625 Z M 13.015625 0.390625 C 9.492188 0.390625 6.742188 -0.578125 4.765625 -2.515625 C 2.785156 -4.460938 1.796875 -7.210938 1.796875 -10.765625 C 1.796875 -14.421875 2.707031 -17.25 4.53125 -19.25 C 6.363281 -21.25 8.894531 -22.25 12.125 -22.25 C 15.21875 -22.25 17.625 -21.367188 19.34375 -19.609375 C 21.0625 -17.847656 21.921875 -15.421875 21.921875 -12.328125 L 21.921875 -9.4375 L 7.828125 -9.4375 C 7.898438 -7.738281 8.40625 -6.414062 9.34375 -5.46875 C 10.28125 -4.519531 11.59375 -4.046875 13.28125 -4.046875 C 14.59375 -4.046875 15.832031 -4.179688 17 -4.453125 C 18.175781 -4.722656 19.40625 -5.160156 20.6875 -5.765625 L 20.6875 -1.15625 C 19.644531 -0.632812 18.53125 -0.25 17.34375 0 C 16.15625 0.257812 14.710938 0.390625 13.015625 0.390625 Z M 13.015625 0.390625 "/></g></g></g><g fill="#000000" fill-opacity="1"><g transform="translate(508.225511, 66.250095)"><g><path d="M 9.078125 0 L 3.125 0 L 3.125 -30.390625 L 9.078125 -30.390625 Z M 9.078125 0 "/></g></g></g><g fill="#000000" fill-opacity="1"><g transform="translate(520.431367, 66.250095)"><g><path d="M 12.171875 -18.015625 C 10.910156 -18.015625 9.921875 -17.613281 9.203125 -16.8125 C 8.484375 -16.007812 8.070312 -14.875 7.96875 -13.40625 L 16.328125 -13.40625 C 16.304688 -14.875 15.921875 -16.007812 15.171875 -16.8125 C 14.429688 -17.613281 13.429688 -18.015625 12.171875 -18.015625 Z M 13.015625 0.390625 C 9.492188 0.390625 6.742188 -0.578125 4.765625 -2.515625 C 2.785156 -4.460938 1.796875 -7.210938 1.796875 -10.765625 C 1.796875 -14.421875 2.707031 -17.25 4.53125 -19.25 C 6.363281 -21.25 8.894531 -22.25 12.125 -22.25 C 15.21875 -22.25 17.625 -21.367188 19.34375 -19.609375 C 21.0625 -17.847656 21.921875 -15.421875 21.921875 -12.328125 L 21.921875 -9.4375 L 7.828125 -9.4375 C 7.898438 -7.738281 8.40625 -6.414062 9.34375 -5.46875 C 10.28125 -4.519531 11.59375 -4.046875 13.28125 -4.046875 C 14.59375 -4.046875 15.832031 -4.179688 17 -4.453125 C 18.175781 -4.722656 19.40625 -5.160156 20.6875 -5.765625 L 20.6875 -1.15625 C 19.644531 -0.632812 18.53125 -0.25 17.34375 0 C 16.15625 0.257812 14.710938 0.390625 13.015625 0.390625 Z M 13.015625 0.390625 "/></g></g></g><g fill="#000000" fill-opacity="1"><g transform="translate(544.061859, 66.250095)"><g><path d="M 18.359375 -6.484375 C 18.359375 -4.242188 17.578125 -2.535156 16.015625 -1.359375 C 14.460938 -0.191406 12.140625 0.390625 9.046875 0.390625 C 7.453125 0.390625 6.09375 0.28125 4.96875 0.0625 C 3.851562 -0.144531 2.8125 -0.457031 1.84375 -0.875 L 1.84375 -5.796875 C 2.945312 -5.273438 4.191406 -4.835938 5.578125 -4.484375 C 6.960938 -4.140625 8.179688 -3.96875 9.234375 -3.96875 C 11.398438 -3.96875 12.484375 -4.59375 12.484375 -5.84375 C 12.484375 -6.3125 12.335938 -6.691406 12.046875 -6.984375 C 11.765625 -7.273438 11.269531 -7.601562 10.5625 -7.96875 C 9.863281 -8.34375 8.925781 -8.78125 7.75 -9.28125 C 6.070312 -9.976562 4.835938 -10.625 4.046875 -11.21875 C 3.265625 -11.820312 2.691406 -12.507812 2.328125 -13.28125 C 1.972656 -14.0625 1.796875 -15.019531 1.796875 -16.15625 C 1.796875 -18.09375 2.546875 -19.59375 4.046875 -20.65625 C 5.554688 -21.71875 7.691406 -22.25 10.453125 -22.25 C 13.078125 -22.25 15.632812 -21.675781 18.125 -20.53125 L 16.328125 -16.234375 C 15.234375 -16.703125 14.210938 -17.082031 13.265625 -17.375 C 12.316406 -17.675781 11.347656 -17.828125 10.359375 -17.828125 C 8.597656 -17.828125 7.71875 -17.351562 7.71875 -16.40625 C 7.71875 -15.875 8 -15.410156 8.5625 -15.015625 C 9.132812 -14.628906 10.375 -14.050781 12.28125 -13.28125 C 13.988281 -12.59375 15.238281 -11.945312 16.03125 -11.34375 C 16.832031 -10.75 17.421875 -10.0625 17.796875 -9.28125 C 18.171875 -8.5 18.359375 -7.566406 18.359375 -6.484375 Z M 18.359375 -6.484375 "/></g></g></g><g fill="#000000" fill-opacity="1"><g transform="translate(347.135611, 706.215424)"><g><path d="M 49.34375 0 L 36.71875 0 L 36.71875 -27.03125 C 36.71875 -30.375 36.125 -32.878906 34.9375 -34.546875 C 33.75 -36.210938 31.859375 -37.046875 29.265625 -37.046875 C 25.734375 -37.046875 23.179688 -35.863281 21.609375 -33.5 C 20.035156 -31.144531 19.25 -27.238281 19.25 -21.78125 L 19.25 0 L 6.625 0 L 6.625 -46.28125 L 16.265625 -46.28125 L 17.96875 -40.359375 L 18.671875 -40.359375 C 20.078125 -42.597656 22.015625 -44.289062 24.484375 -45.4375 C 26.953125 -46.582031 29.757812 -47.15625 32.90625 -47.15625 C 38.289062 -47.15625 42.375 -45.695312 45.15625 -42.78125 C 47.945312 -39.875 49.34375 -35.671875 49.34375 -30.171875 Z M 49.34375 0 "/></g></g></g><g fill="#000000" fill-opacity="1"><g transform="translate(492.383207, 313.405067)"><g><path d="M 9.4375 21.875 L 5.984375 13.890625 L 27.859375 4.453125 L 31.484375 2.984375 L 35.484375 1.421875 C 33.578125 0.660156 32.300781 0.113281 31.65625 -0.21875 L 26.3125 -3.0625 L 29.453125 -8.984375 L 44.40625 -0.984375 L 47.25 5.578125 Z M 9.4375 21.875 "/></g></g></g><g fill="#000000" fill-opacity="1"><g transform="translate(505.412438, 343.631816)"><g><path d="M 47.140625 5.328125 L 3.234375 7.515625 L 0.15625 0.359375 L 44.046875 -1.84375 Z M 47.140625 5.328125 "/></g></g></g><g fill="#000000" fill-opacity="1"><g transform="translate(514.841631, 365.506772)"><g><path d="M 12.3125 28.546875 L 0.921875 2.125 L 6.46875 -0.265625 L 20.15625 5.078125 C 24.25 6.648438 27.035156 7.625 28.515625 8 C 30.003906 8.382812 31.300781 8.5625 32.40625 8.53125 C 33.519531 8.5 34.582031 8.265625 35.59375 7.828125 C 37.113281 7.171875 38.066406 6.265625 38.453125 5.109375 C 38.835938 3.960938 38.726562 2.691406 38.125 1.296875 C 37.5 -0.171875 36.546875 -1.445312 35.265625 -2.53125 C 33.992188 -3.625 32.414062 -4.65625 30.53125 -5.625 L 33.8125 -12.1875 C 36.207031 -11.007812 37.992188 -9.945312 39.171875 -9 C 40.359375 -8.0625 41.441406 -6.941406 42.421875 -5.640625 C 43.398438 -4.347656 44.273438 -2.804688 45.046875 -1.015625 C 46.066406 1.347656 46.535156 3.617188 46.453125 5.796875 C 46.367188 7.984375 45.765625 9.910156 44.640625 11.578125 C 43.515625 13.242188 41.953125 14.507812 39.953125 15.375 C 38.210938 16.125 36.445312 16.519531 34.65625 16.5625 C 32.875 16.613281 30.898438 16.335938 28.734375 15.734375 C 26.578125 15.140625 23.320312 13.863281 18.96875 11.90625 L 12.296875 9.015625 L 11.9375 9.171875 L 19.046875 25.640625 Z M 12.3125 28.546875 "/></g></g></g><g fill="#000000" fill-opacity="1"><g transform="translate(232.28167, 384.319269)"><g><path d="M 9.203125 -21.984375 L 5.84375 -13.953125 L -16.140625 -23.15625 L -19.703125 -24.734375 L -23.609375 -26.515625 C -22.835938 -24.617188 -22.347656 -23.328125 -22.140625 -22.640625 L -20.46875 -16.8125 L -26.921875 -14.953125 L -31.546875 -31.265625 L -28.78125 -37.875 Z M 9.203125 -21.984375 "/></g></g></g><g fill="#000000" fill-opacity="1"><g transform="translate(244.986956, 353.954933)"><g><path d="M -28.890625 -37.609375 L 3.15625 -7.546875 L 0.15625 -0.359375 L -31.90625 -30.40625 Z M -28.890625 -37.609375 "/></g></g></g><g fill="#000000" fill-opacity="1"><g transform="translate(254.181712, 331.980405)"><g><path d="M 12 -28.6875 L 0.890625 -2.140625 L -4.6875 -4.46875 L -10.34375 -18.03125 C -12.050781 -22.070312 -13.285156 -24.757812 -14.046875 -26.09375 C -14.804688 -27.425781 -15.578125 -28.476562 -16.359375 -29.25 C -17.148438 -30.019531 -18.054688 -30.617188 -19.078125 -31.046875 C -20.609375 -31.679688 -21.921875 -31.738281 -23.015625 -31.21875 C -24.109375 -30.695312 -24.953125 -29.734375 -25.546875 -28.328125 C -26.160156 -26.859375 -26.414062 -25.285156 -26.3125 -23.609375 C -26.21875 -21.941406 -25.863281 -20.097656 -25.25 -18.078125 L -32.25 -15.875 C -33.0625 -18.40625 -33.539062 -20.421875 -33.6875 -21.921875 C -33.832031 -23.429688 -33.773438 -24.988281 -33.515625 -26.59375 C -33.265625 -28.207031 -32.765625 -29.910156 -32.015625 -31.703125 C -31.015625 -34.078125 -29.703125 -35.992188 -28.078125 -37.453125 C -26.453125 -38.910156 -24.644531 -39.8125 -22.65625 -40.15625 C -20.675781 -40.507812 -18.679688 -40.265625 -16.671875 -39.421875 C -14.921875 -38.691406 -13.410156 -37.695312 -12.140625 -36.4375 C -10.867188 -35.1875 -9.695312 -33.578125 -8.625 -31.609375 C -7.5625 -29.640625 -6.222656 -26.410156 -4.609375 -21.921875 L -2.046875 -15.125 L -1.6875 -14.96875 L 5.234375 -31.515625 Z M 12 -28.6875 "/></g></g></g></svg>