<svg xmlns="http://www.w3.org/2000/svg" xmlns:xlink="http://www.w3.org/1999/xlink" width="1000" zoomAndPan="magnify" viewBox="0 0 750 749.999995" height="1000" preserveAspectRatio="xMidYMid meet" version="1.0"><defs><clipPath id="8b5f50efbb"><path d="M 112 349 L 159 349 L 159 423.914062 L 112 423.914062 Z M 112 349 " clip-rule="nonzero"/></clipPath><clipPath id="be2fae1efd"><path d="M 251 349 L 296 349 L 296 423.914062 L 251 423.914062 Z M 251 349 " clip-rule="nonzero"/></clipPath><clipPath id="d20b385f88"><path d="M 305 349 L 350 349 L 350 423.914062 L 305 423.914062 Z M 305 349 " clip-rule="nonzero"/></clipPath><clipPath id="3bd8e99bd3"><path d="M 544 349 L 591 349 L 591 423.914062 L 544 423.914062 Z M 544 349 " clip-rule="nonzero"/></clipPath><clipPath id="e5cfdd7755"><path d="M 601 326.085938 L 634 326.085938 L 634 379 L 601 379 Z M 601 326.085938 " clip-rule="nonzero"/></clipPath></defs><rect x="-75" width="900" fill="#ffffff" y="-74.999999" height="899.999994" fill-opacity="1"/><rect x="-75" width="900" fill="#ffffff" y="-74.999999" height="899.999994" fill-opacity="1"/><g clip-path="url(#8b5f50efbb)"><path fill="#000000" d="M 118.800781 358.363281 C 122.835938 352.53125 128.347656 349.617188 135.332031 349.617188 C 138.792969 349.617188 142.25 350.554688 145.707031 352.425781 C 149.164062 354.296875 151.972656 357.609375 154.136719 362.359375 C 156.800781 368.335938 158.132812 376.542969 158.132812 386.980469 C 158.132812 398.140625 156.585938 406.671875 153.488281 412.574219 C 152.046875 415.597656 150.066406 418.007812 147.542969 419.808594 C 145.023438 421.609375 142.824219 422.726562 140.953125 423.15625 C 139.078125 423.589844 137.242188 423.839844 135.441406 423.914062 C 133.570312 423.914062 131.695312 423.695312 129.824219 423.265625 C 127.949219 422.832031 125.753906 421.679688 123.230469 419.808594 C 120.710938 417.9375 118.730469 415.527344 117.289062 412.574219 C 114.191406 406.671875 112.640625 398.140625 112.640625 386.980469 C 112.640625 374.453125 114.695312 364.914062 118.800781 358.363281 Z M 143.113281 357.070312 C 140.953125 354.765625 138.394531 353.613281 135.441406 353.613281 C 132.417969 353.613281 129.824219 354.765625 127.660156 357.070312 C 125.859375 358.941406 124.671875 361.53125 124.097656 364.84375 C 123.519531 368.15625 123.230469 375.066406 123.230469 385.578125 C 123.230469 396.953125 123.519531 404.4375 124.097656 408.039062 C 124.671875 411.636719 125.96875 414.480469 127.984375 416.570312 C 130.003906 418.730469 132.488281 419.808594 135.441406 419.808594 C 138.324219 419.808594 140.773438 418.730469 142.789062 416.570312 C 144.878906 414.410156 146.175781 411.386719 146.679688 407.5 C 147.183594 403.613281 147.472656 396.304688 147.542969 385.578125 C 147.542969 375.136719 147.253906 368.261719 146.679688 364.953125 C 146.101562 361.640625 144.914062 359.011719 143.113281 357.070312 Z M 143.113281 357.070312 " fill-opacity="1" fill-rule="nonzero"/></g><path fill="#000000" d="M 170.882812 415.058594 C 170.882812 413.332031 171.496094 411.820312 172.722656 410.523438 C 173.945312 409.226562 175.496094 408.578125 177.367188 408.578125 C 179.097656 408.578125 180.609375 409.15625 181.90625 410.304688 C 183.203125 411.457031 183.886719 413.007812 183.957031 414.949219 C 183.957031 416.75 183.347656 418.296875 182.121094 419.59375 C 180.898438 420.890625 179.347656 421.539062 177.476562 421.539062 C 175.601562 421.539062 174.054688 420.925781 172.828125 419.703125 C 171.605469 418.476562 170.957031 416.929688 170.882812 415.058594 Z M 170.882812 415.058594 " fill-opacity="1" fill-rule="nonzero"/><path fill="#000000" d="M 242.417969 421.539062 C 241.121094 421.320312 236.472656 421.214844 228.476562 421.214844 C 220.121094 421.214844 215.292969 421.320312 214 421.539062 L 213.027344 421.539062 L 213.027344 416.570312 L 216.375 416.570312 C 217.816406 416.570312 218.789062 416.570312 219.292969 416.570312 C 219.796875 416.570312 220.410156 416.496094 221.128906 416.355469 C 221.851562 416.210938 222.355469 416.03125 222.640625 415.8125 C 222.929688 415.597656 223.183594 415.308594 223.398438 414.949219 C 223.472656 414.804688 223.507812 412.863281 223.507812 409.117188 L 223.507812 403.71875 L 195.519531 403.71875 L 195.519531 398.75 L 211.835938 373.808594 C 222.859375 357.105469 228.441406 348.71875 228.585938 348.644531 C 228.730469 348.5 229.484375 348.429688 230.855469 348.429688 L 232.800781 348.429688 L 233.449219 349.078125 L 233.449219 398.75 L 243.390625 398.75 L 243.390625 403.71875 L 233.449219 403.71875 L 233.449219 409.226562 C 233.449219 412.179688 233.449219 413.90625 233.449219 414.410156 C 233.449219 414.914062 233.664062 415.347656 234.097656 415.707031 C 234.671875 416.210938 236.726562 416.496094 240.253906 416.570312 L 243.390625 416.570312 L 243.390625 421.539062 Z M 224.15625 398.75 L 224.15625 362.683594 L 200.492188 398.644531 L 212.269531 398.75 Z M 224.15625 398.75 " fill-opacity="1" fill-rule="nonzero"/><g clip-path="url(#be2fae1efd)"><path fill="#000000" d="M 264.242188 404.582031 C 264.242188 406.3125 263.667969 407.75 262.515625 408.902344 C 261.363281 410.054688 259.957031 410.628906 258.300781 410.628906 L 257.542969 410.628906 C 260.859375 416.316406 265.253906 419.160156 270.726562 419.160156 C 275.769531 419.160156 279.445312 417 281.75 412.683594 C 283.117188 410.304688 283.800781 405.699219 283.800781 398.859375 C 283.800781 391.445312 282.828125 386.441406 280.882812 383.847656 C 279.011719 381.472656 276.921875 380.285156 274.617188 380.285156 L 273.96875 380.285156 C 268.351562 380.285156 264.101562 382.734375 261.21875 387.628906 C 260.929688 388.132812 260.679688 388.421875 260.460938 388.492188 C 260.246094 388.566406 259.707031 388.636719 258.839844 388.710938 C 257.617188 388.710938 256.933594 388.492188 256.789062 388.0625 C 256.644531 387.773438 256.570312 381.472656 256.570312 369.164062 L 256.570312 355.234375 C 256.570312 351.632812 256.753906 349.832031 257.113281 349.832031 C 257.257812 349.691406 257.402344 349.617188 257.542969 349.617188 C 257.617188 349.617188 258.371094 349.90625 259.8125 350.480469 C 261.253906 351.058594 263.234375 351.632812 265.757812 352.210938 C 268.277344 352.785156 270.980469 353.074219 273.859375 353.074219 C 278.976562 353.074219 283.875 352.066406 288.554688 350.050781 C 289.132812 349.761719 289.601562 349.617188 289.960938 349.617188 C 290.539062 349.617188 290.824219 350.265625 290.824219 351.5625 L 290.824219 352.964844 C 284.917969 359.949219 277.535156 363.441406 268.675781 363.441406 C 266.441406 363.441406 264.425781 363.222656 262.625 362.792969 L 261.542969 362.574219 L 261.542969 381.148438 C 262.910156 380.140625 263.992188 379.351562 264.785156 378.773438 C 265.578125 378.199219 266.875 377.621094 268.675781 377.046875 C 270.476562 376.46875 272.3125 376.183594 274.183594 376.183594 C 280.019531 376.183594 284.953125 378.523438 288.988281 383.203125 C 293.023438 387.882812 295.039062 393.425781 295.039062 399.832031 C 295.039062 406.453125 292.734375 412.105469 288.125 416.785156 C 283.515625 421.464844 277.894531 423.839844 271.265625 423.914062 C 265.433594 423.914062 260.75 421.96875 257.21875 418.082031 C 253.691406 414.195312 251.925781 409.800781 251.925781 404.90625 C 251.925781 403.179688 252.320312 401.8125 253.113281 400.804688 C 253.90625 399.796875 254.734375 399.148438 255.597656 398.859375 C 256.464844 398.570312 257.292969 398.429688 258.085938 398.429688 C 259.886719 398.429688 261.363281 399.039062 262.515625 400.265625 C 263.667969 401.488281 264.242188 402.925781 264.242188 404.582031 Z M 264.242188 404.582031 " fill-opacity="1" fill-rule="nonzero"/></g><g clip-path="url(#d20b385f88)"><path fill="#000000" d="M 305.089844 387.738281 C 305.089844 376.003906 308.007812 366.714844 313.839844 359.875 C 319.675781 353.035156 326.160156 349.617188 333.292969 349.617188 C 338.261719 349.617188 341.828125 350.914062 343.988281 353.503906 C 346.148438 356.097656 347.230469 358.976562 347.230469 362.144531 C 347.230469 363.945312 346.726562 365.382812 345.71875 366.464844 C 344.710938 367.542969 343.304688 368.082031 341.503906 368.082031 C 339.847656 368.082031 338.476562 367.578125 337.398438 366.570312 C 336.316406 365.5625 335.777344 364.160156 335.777344 362.359375 C 335.777344 359.191406 337.46875 357.285156 340.855469 356.636719 C 339.269531 355.054688 337.039062 354.152344 334.15625 353.9375 C 329.042969 353.9375 324.828125 356.097656 321.511719 360.417969 C 318.128906 365.167969 316.433594 372.4375 316.433594 382.230469 L 316.542969 382.660156 C 316.902344 382.230469 317.191406 381.761719 317.40625 381.257812 C 320.359375 376.9375 324.214844 374.777344 328.96875 374.777344 L 329.402344 374.777344 C 332.714844 374.777344 335.632812 375.460938 338.152344 376.832031 C 339.882812 377.839844 341.613281 379.277344 343.339844 381.148438 C 345.070312 383.023438 346.472656 385.074219 347.554688 387.304688 C 349.066406 390.832031 349.824219 394.683594 349.824219 398.859375 L 349.824219 400.804688 C 349.824219 402.460938 349.644531 404.007812 349.285156 405.445312 C 348.492188 409.695312 346.1875 413.835938 342.367188 417.867188 C 338.550781 421.898438 333.722656 423.914062 327.890625 423.914062 C 325.871094 423.914062 323.925781 423.625 322.054688 423.050781 C 320.179688 422.472656 318.164062 421.394531 316.003906 419.808594 C 313.839844 418.226562 312.003906 416.101562 310.492188 413.4375 C 308.980469 410.773438 307.683594 407.28125 306.601562 402.964844 C 305.519531 398.644531 305.015625 393.570312 305.089844 387.738281 Z M 328.320312 378.667969 C 326.160156 378.667969 324.285156 379.277344 322.703125 380.503906 C 321.117188 381.726562 319.894531 383.34375 319.027344 385.363281 C 318.164062 387.378906 317.550781 389.429688 317.191406 391.515625 C 316.832031 393.605469 316.613281 395.835938 316.542969 398.210938 C 316.542969 404.1875 316.976562 408.472656 317.839844 411.0625 C 318.703125 413.652344 320.074219 415.742188 321.945312 417.324219 C 323.675781 418.621094 325.582031 419.269531 327.671875 419.269531 C 331.347656 419.269531 334.15625 417.902344 336.101562 415.167969 C 337.039062 413.871094 337.6875 412.25 338.046875 410.304688 C 338.40625 408.363281 338.585938 404.582031 338.585938 398.96875 C 338.585938 393.207031 338.40625 389.355469 338.046875 387.414062 C 337.6875 385.46875 337.039062 383.847656 336.101562 382.554688 C 334.15625 379.960938 331.5625 378.667969 328.320312 378.667969 Z M 328.320312 378.667969 " fill-opacity="1" fill-rule="nonzero"/></g><path fill="#000000" d="M 446.664062 418.40625 C 446.664062 419.84375 445.90625 420.566406 444.394531 420.566406 C 444.035156 420.566406 443.242188 419.988281 442.015625 418.835938 C 440.792969 417.6875 437.40625 414.339844 431.859375 408.792969 L 420.621094 397.5625 L 409.277344 408.902344 C 401.640625 416.390625 397.714844 420.207031 397.5 420.347656 C 397.210938 420.492188 396.957031 420.566406 396.742188 420.566406 C 396.164062 420.566406 395.660156 420.347656 395.230469 419.917969 C 394.796875 419.484375 394.542969 418.980469 394.472656 418.40625 C 394.472656 417.902344 394.976562 417.109375 395.984375 416.03125 C 396.992188 414.949219 400.378906 411.53125 406.140625 405.769531 L 417.378906 394.539062 L 406.140625 383.308594 C 400.308594 377.476562 396.921875 374.058594 395.984375 373.050781 C 395.046875 372.042969 394.542969 371.25 394.472656 370.675781 C 394.472656 370.027344 394.6875 369.523438 395.121094 369.164062 C 395.554688 368.804688 396.09375 368.625 396.742188 368.625 C 397.101562 368.625 397.355469 368.660156 397.5 368.730469 C 397.714844 368.875 401.640625 372.691406 409.277344 380.179688 L 420.621094 391.515625 L 431.859375 380.285156 C 437.40625 374.742188 440.792969 371.394531 442.015625 370.242188 C 443.242188 369.089844 444.035156 368.515625 444.394531 368.515625 C 445.90625 368.515625 446.664062 369.234375 446.664062 370.675781 C 446.664062 371.179688 446.304688 371.828125 445.582031 372.617188 C 444.863281 373.410156 441.332031 376.9375 434.992188 383.203125 L 423.753906 394.539062 L 434.992188 405.878906 C 441.042969 411.925781 444.503906 415.417969 445.367188 416.355469 C 446.230469 417.289062 446.664062 417.972656 446.664062 418.40625 Z M 446.664062 418.40625 " fill-opacity="1" fill-rule="nonzero"/><path fill="#000000" d="M 509.679688 359.121094 L 508.277344 359.660156 C 507.269531 360.019531 505.828125 360.378906 503.953125 360.738281 C 502.082031 361.101562 499.992188 361.351562 497.6875 361.496094 L 495.632812 361.496094 L 495.632812 356.527344 L 497.6875 356.527344 C 501.074219 356.382812 504.207031 355.84375 507.089844 354.910156 C 509.96875 353.972656 511.988281 353.109375 513.140625 352.316406 C 514.292969 351.523438 515.300781 350.734375 516.164062 349.941406 C 516.308594 349.726562 516.742188 349.617188 517.460938 349.617188 C 518.109375 349.617188 518.722656 349.832031 519.296875 350.265625 L 519.296875 382.554688 L 519.40625 414.949219 C 519.910156 415.453125 520.34375 415.777344 520.703125 415.921875 C 521.0625 416.066406 521.929688 416.210938 523.296875 416.355469 C 524.664062 416.496094 526.898438 416.570312 529.996094 416.570312 L 532.804688 416.570312 L 532.804688 421.539062 L 531.617188 421.539062 C 530.105469 421.320312 524.378906 421.214844 514.4375 421.214844 C 504.640625 421.214844 498.984375 421.320312 497.472656 421.539062 L 496.175781 421.539062 L 496.175781 416.570312 L 498.984375 416.570312 C 500.570312 416.570312 501.9375 416.570312 503.089844 416.570312 C 504.242188 416.570312 505.144531 416.535156 505.792969 416.460938 C 506.441406 416.390625 507.015625 416.28125 507.519531 416.136719 C 508.023438 415.992188 508.3125 415.921875 508.386719 415.921875 C 508.457031 415.921875 508.671875 415.742188 509.03125 415.382812 C 509.394531 415.023438 509.609375 414.878906 509.679688 414.949219 Z M 509.679688 359.121094 " fill-opacity="1" fill-rule="nonzero"/><g clip-path="url(#3bd8e99bd3)"><path fill="#000000" d="M 551.066406 358.363281 C 555.101562 352.53125 560.613281 349.617188 567.597656 349.617188 C 571.058594 349.617188 574.515625 350.554688 577.972656 352.425781 C 581.429688 354.296875 584.238281 357.609375 586.402344 362.359375 C 589.066406 368.335938 590.398438 376.542969 590.398438 386.980469 C 590.398438 398.140625 588.851562 406.671875 585.753906 412.574219 C 584.3125 415.597656 582.332031 418.007812 579.808594 419.808594 C 577.289062 421.609375 575.089844 422.726562 573.21875 423.15625 C 571.34375 423.589844 569.507812 423.839844 567.707031 423.914062 C 565.835938 423.914062 563.960938 423.695312 562.089844 423.265625 C 560.214844 422.832031 558.019531 421.679688 555.496094 419.808594 C 552.976562 417.9375 550.996094 415.527344 549.554688 412.574219 C 546.457031 406.671875 544.90625 398.140625 544.90625 386.980469 C 544.90625 374.453125 546.960938 364.914062 551.066406 358.363281 Z M 575.378906 357.070312 C 573.21875 354.765625 570.660156 353.613281 567.707031 353.613281 C 564.683594 353.613281 562.089844 354.765625 559.925781 357.070312 C 558.125 358.941406 556.9375 361.53125 556.363281 364.84375 C 555.785156 368.15625 555.496094 375.066406 555.496094 385.578125 C 555.496094 396.953125 555.785156 404.4375 556.363281 408.039062 C 556.9375 411.636719 558.234375 414.480469 560.25 416.570312 C 562.269531 418.730469 564.753906 419.808594 567.707031 419.808594 C 570.589844 419.808594 573.039062 418.730469 575.054688 416.570312 C 577.144531 414.410156 578.441406 411.386719 578.945312 407.5 C 579.449219 403.613281 579.738281 396.304688 579.808594 385.578125 C 579.808594 375.136719 579.519531 368.261719 578.945312 364.953125 C 578.367188 361.640625 577.179688 359.011719 575.378906 357.070312 Z M 575.378906 357.070312 " fill-opacity="1" fill-rule="nonzero"/></g><g clip-path="url(#e5cfdd7755)"><path fill="#000000" d="M 601.496094 353.042969 C 601.496094 344.746094 603.558594 338.179688 607.683594 333.34375 C 611.808594 328.507812 616.394531 326.089844 621.433594 326.089844 C 624.949219 326.089844 627.46875 327.007812 628.996094 328.839844 C 630.527344 330.671875 631.289062 332.707031 631.289062 334.949219 C 631.289062 336.21875 630.933594 337.238281 630.21875 338 C 629.507812 338.765625 628.515625 339.144531 627.242188 339.144531 C 626.070312 339.144531 625.101562 338.789062 624.339844 338.078125 C 623.574219 337.363281 623.191406 336.371094 623.191406 335.101562 C 623.191406 332.859375 624.390625 331.511719 626.78125 331.054688 C 625.660156 329.933594 624.082031 329.296875 622.046875 329.144531 C 618.429688 329.144531 615.449219 330.671875 613.109375 333.726562 C 610.714844 337.085938 609.515625 342.226562 609.515625 349.148438 L 609.59375 349.453125 C 609.847656 349.148438 610.050781 348.816406 610.203125 348.460938 C 612.292969 345.40625 615.019531 343.878906 618.378906 343.878906 L 618.683594 343.878906 C 621.027344 343.878906 623.089844 344.363281 624.871094 345.332031 C 626.09375 346.042969 627.316406 347.0625 628.539062 348.382812 C 629.761719 349.707031 630.753906 351.160156 631.519531 352.734375 C 632.589844 355.230469 633.125 357.953125 633.125 360.90625 L 633.125 362.28125 C 633.125 363.449219 632.996094 364.542969 632.742188 365.5625 C 632.179688 368.566406 630.550781 371.492188 627.851562 374.34375 C 625.152344 377.191406 621.742188 378.617188 617.613281 378.617188 C 616.1875 378.617188 614.8125 378.414062 613.488281 378.007812 C 612.164062 377.601562 610.738281 376.835938 609.210938 375.71875 C 607.683594 374.597656 606.386719 373.09375 605.316406 371.210938 C 604.246094 369.328125 603.328125 366.859375 602.566406 363.808594 C 601.800781 360.753906 601.445312 357.164062 601.496094 353.042969 Z M 617.921875 346.628906 C 616.394531 346.628906 615.070312 347.0625 613.949219 347.925781 C 612.828125 348.792969 611.960938 349.9375 611.351562 351.363281 C 610.738281 352.789062 610.304688 354.238281 610.050781 355.714844 C 609.796875 357.191406 609.644531 358.769531 609.59375 360.449219 C 609.59375 364.671875 609.898438 367.699219 610.511719 369.53125 C 611.121094 371.363281 612.089844 372.839844 613.414062 373.960938 C 614.636719 374.878906 615.984375 375.335938 617.460938 375.335938 C 620.058594 375.335938 622.046875 374.367188 623.421875 372.433594 C 624.082031 371.519531 624.542969 370.371094 624.796875 369 C 625.050781 367.625 625.179688 364.953125 625.179688 360.980469 C 625.179688 356.910156 625.050781 354.1875 624.796875 352.8125 C 624.542969 351.4375 624.082031 350.292969 623.421875 349.378906 C 622.046875 347.542969 620.210938 346.628906 617.921875 346.628906 Z M 617.921875 346.628906 " fill-opacity="1" fill-rule="nonzero"/></g></svg>