<svg xmlns="http://www.w3.org/2000/svg" xmlns:xlink="http://www.w3.org/1999/xlink" width="1000" zoomAndPan="magnify" viewBox="0 0 750 749.999995" height="1000" preserveAspectRatio="xMidYMid meet" version="1.0"><defs><clipPath id="0b8c36b297"><path d="M 234 351 L 276 351 L 276 420.609375 L 234 420.609375 Z M 234 351 " clip-rule="nonzero"/></clipPath><clipPath id="be4cccba50"><path d="M 284 351 L 327 351 L 327 420.609375 L 284 420.609375 Z M 284 351 " clip-rule="nonzero"/></clipPath><clipPath id="68a5a60c29"><path d="M 507 351 L 551 351 L 551 420.609375 L 507 420.609375 Z M 507 351 " clip-rule="nonzero"/></clipPath><clipPath id="025ebe22b3"><path d="M 561 329.390625 L 590 329.390625 L 590 379 L 561 379 Z M 561 329.390625 " clip-rule="nonzero"/></clipPath></defs><rect x="-75" width="900" fill="#ffffff" y="-74.999999" height="899.999994" fill-opacity="1"/><rect x="-75" width="900" fill="#ffffff" y="-74.999999" height="899.999994" fill-opacity="1"/><path fill="#000000" d="M 198.101562 418.394531 C 196.894531 418.191406 192.566406 418.089844 185.121094 418.089844 C 177.339844 418.089844 172.84375 418.191406 171.636719 418.394531 L 170.730469 418.394531 L 170.730469 413.761719 L 173.851562 413.761719 C 175.191406 413.761719 176.097656 413.761719 176.566406 413.761719 C 177.039062 413.761719 177.609375 413.695312 178.277344 413.558594 C 178.949219 413.425781 179.417969 413.257812 179.6875 413.054688 C 179.957031 412.855469 180.191406 412.585938 180.390625 412.25 C 180.457031 412.117188 180.492188 410.304688 180.492188 406.8125 L 180.492188 401.777344 L 154.429688 401.777344 L 154.429688 397.148438 L 169.625 373.886719 C 179.886719 358.3125 185.085938 350.492188 185.222656 350.425781 C 185.355469 350.292969 186.058594 350.226562 187.335938 350.226562 L 189.144531 350.226562 L 189.75 350.828125 L 189.75 397.148438 L 199.007812 397.148438 L 199.007812 401.777344 L 189.75 401.777344 L 189.75 406.914062 C 189.75 409.667969 189.75 411.277344 189.75 411.746094 C 189.75 412.21875 189.949219 412.621094 190.351562 412.957031 C 190.890625 413.425781 192.800781 413.695312 196.089844 413.761719 L 199.007812 413.761719 L 199.007812 418.394531 Z M 181.097656 397.148438 L 181.097656 363.515625 L 159.058594 397.046875 L 170.027344 397.148438 Z M 181.097656 397.148438 " fill-opacity="1" fill-rule="nonzero"/><path fill="#000000" d="M 209.773438 412.351562 C 209.773438 410.742188 210.34375 409.332031 211.484375 408.121094 C 212.625 406.914062 214.066406 406.308594 215.8125 406.308594 C 217.421875 406.308594 218.828125 406.847656 220.039062 407.921875 C 221.246094 408.996094 221.882812 410.4375 221.949219 412.25 C 221.949219 413.929688 221.378906 415.371094 220.238281 416.582031 C 219.097656 417.789062 217.65625 418.394531 215.910156 418.394531 C 214.167969 418.394531 212.726562 417.824219 211.585938 416.679688 C 210.445312 415.539062 209.839844 414.097656 209.773438 412.351562 Z M 209.773438 412.351562 " fill-opacity="1" fill-rule="nonzero"/><g clip-path="url(#0b8c36b297)"><path fill="#000000" d="M 246.402344 402.585938 C 246.402344 404.195312 245.863281 405.539062 244.792969 406.613281 C 243.71875 407.6875 242.410156 408.222656 240.867188 408.222656 L 240.164062 408.222656 C 243.25 413.527344 247.339844 416.175781 252.4375 416.175781 C 257.132812 416.175781 260.554688 414.164062 262.703125 410.136719 C 263.976562 407.921875 264.613281 403.625 264.613281 397.246094 C 264.613281 390.332031 263.707031 385.667969 261.898438 383.25 C 260.152344 381.035156 258.207031 379.929688 256.0625 379.929688 L 255.457031 379.929688 C 250.226562 379.929688 246.265625 382.210938 243.582031 386.777344 C 243.316406 387.246094 243.082031 387.515625 242.878906 387.582031 C 242.679688 387.648438 242.175781 387.714844 241.371094 387.78125 C 240.230469 387.78125 239.59375 387.582031 239.457031 387.179688 C 239.324219 386.910156 239.257812 381.035156 239.257812 369.558594 L 239.257812 356.570312 C 239.257812 353.210938 239.425781 351.535156 239.761719 351.535156 C 239.894531 351.398438 240.027344 351.332031 240.164062 351.332031 C 240.230469 351.332031 240.933594 351.601562 242.277344 352.136719 C 243.617188 352.675781 245.460938 353.210938 247.808594 353.75 C 250.15625 354.285156 252.671875 354.554688 255.355469 354.554688 C 260.121094 354.554688 264.679688 353.613281 269.042969 351.734375 C 269.578125 351.464844 270.015625 351.332031 270.351562 351.332031 C 270.886719 351.332031 271.15625 351.9375 271.15625 353.144531 L 271.15625 354.453125 C 265.652344 360.964844 258.777344 364.222656 250.527344 364.222656 C 248.445312 364.222656 246.570312 364.019531 244.890625 363.617188 L 243.886719 363.414062 L 243.886719 380.734375 C 245.160156 379.792969 246.167969 379.054688 246.902344 378.519531 C 247.640625 377.980469 248.847656 377.445312 250.527344 376.90625 C 252.203125 376.371094 253.914062 376.101562 255.660156 376.101562 C 261.09375 376.101562 265.6875 378.285156 269.445312 382.648438 C 273.199219 387.011719 275.078125 392.179688 275.078125 398.152344 C 275.078125 404.328125 272.933594 409.597656 268.640625 413.960938 C 264.347656 418.324219 259.113281 420.539062 252.941406 420.609375 C 247.507812 420.609375 243.148438 418.796875 239.859375 415.171875 C 236.574219 411.546875 234.929688 407.449219 234.929688 402.886719 C 234.929688 401.273438 235.300781 400 236.035156 399.058594 C 236.773438 398.121094 237.546875 397.515625 238.351562 397.246094 C 239.15625 396.980469 239.925781 396.84375 240.664062 396.84375 C 242.34375 396.84375 243.71875 397.414062 244.792969 398.558594 C 245.863281 399.699219 246.402344 401.039062 246.402344 402.585938 Z M 246.402344 402.585938 " fill-opacity="1" fill-rule="nonzero"/></g><g clip-path="url(#be4cccba50)"><path fill="#000000" d="M 284.4375 386.875 C 284.4375 375.933594 287.152344 367.273438 292.585938 360.898438 C 298.019531 354.519531 304.058594 351.332031 310.699219 351.332031 C 315.328125 351.332031 318.648438 352.539062 320.660156 354.957031 C 322.675781 357.375 323.679688 360.058594 323.679688 363.011719 C 323.679688 364.691406 323.210938 366.035156 322.273438 367.039062 C 321.332031 368.046875 320.023438 368.550781 318.347656 368.550781 C 316.804688 368.550781 315.53125 368.082031 314.523438 367.140625 C 313.515625 366.203125 313.015625 364.890625 313.015625 363.214844 C 313.015625 360.261719 314.589844 358.480469 317.742188 357.878906 C 316.269531 356.402344 314.1875 355.5625 311.503906 355.359375 C 306.742188 355.359375 302.816406 357.375 299.730469 361.402344 C 296.578125 365.832031 295.003906 372.613281 295.003906 381.742188 L 295.101562 382.144531 C 295.4375 381.742188 295.707031 381.304688 295.910156 380.835938 C 298.660156 376.808594 302.246094 374.792969 306.675781 374.792969 L 307.078125 374.792969 C 310.164062 374.792969 312.878906 375.429688 315.226562 376.707031 C 316.839844 377.648438 318.449219 378.988281 320.058594 380.734375 C 321.667969 382.480469 322.976562 384.394531 323.980469 386.472656 C 325.390625 389.761719 326.09375 393.355469 326.09375 397.246094 L 326.09375 399.058594 C 326.09375 400.605469 325.929688 402.046875 325.59375 403.390625 C 324.855469 407.351562 322.707031 411.210938 319.152344 414.96875 C 315.597656 418.730469 311.101562 420.609375 305.667969 420.609375 C 303.789062 420.609375 301.980469 420.339844 300.234375 419.800781 C 298.492188 419.265625 296.613281 418.257812 294.601562 416.78125 C 292.585938 415.304688 290.878906 413.324219 289.46875 410.839844 C 288.058594 408.355469 286.851562 405.101562 285.847656 401.074219 C 284.839844 397.046875 284.371094 392.3125 284.4375 386.875 Z M 306.070312 378.417969 C 304.058594 378.417969 302.316406 378.988281 300.839844 380.128906 C 299.363281 381.269531 298.222656 382.78125 297.417969 384.660156 C 296.613281 386.539062 296.042969 388.453125 295.707031 390.402344 C 295.371094 392.347656 295.171875 394.429688 295.101562 396.644531 C 295.101562 402.214844 295.503906 406.210938 296.3125 408.625 C 297.117188 411.042969 298.390625 412.988281 300.132812 414.464844 C 301.746094 415.675781 303.523438 416.277344 305.46875 416.277344 C 308.890625 416.277344 311.503906 415.003906 313.316406 412.453125 C 314.1875 411.242188 314.792969 409.734375 315.128906 407.921875 C 315.460938 406.109375 315.628906 402.585938 315.628906 397.347656 C 315.628906 391.976562 315.460938 388.386719 315.128906 386.574219 C 314.792969 384.761719 314.1875 383.25 313.316406 382.042969 C 311.503906 379.625 309.089844 378.417969 306.070312 378.417969 Z M 306.070312 378.417969 " fill-opacity="1" fill-rule="nonzero"/></g><path fill="#000000" d="M 416.273438 415.472656 C 416.273438 416.816406 415.570312 417.488281 414.160156 417.488281 C 413.828125 417.488281 413.089844 416.949219 411.949219 415.875 C 410.808594 414.800781 407.65625 411.679688 402.488281 406.511719 L 392.023438 396.039062 L 381.457031 406.613281 C 374.347656 413.59375 370.691406 417.152344 370.492188 417.285156 C 370.222656 417.417969 369.988281 417.488281 369.785156 417.488281 C 369.25 417.488281 368.78125 417.285156 368.378906 416.882812 C 367.976562 416.480469 367.742188 416.011719 367.671875 415.472656 C 367.671875 415.003906 368.144531 414.265625 369.082031 413.257812 C 370.019531 412.25 373.175781 409.0625 378.539062 403.691406 L 389.003906 393.21875 L 378.539062 382.75 C 373.105469 377.3125 369.953125 374.121094 369.082031 373.183594 C 368.210938 372.242188 367.742188 371.503906 367.671875 370.96875 C 367.671875 370.363281 367.875 369.894531 368.277344 369.558594 C 368.679688 369.222656 369.183594 369.054688 369.785156 369.054688 C 370.121094 369.054688 370.355469 369.085938 370.492188 369.15625 C 370.691406 369.289062 374.347656 372.847656 381.457031 379.828125 L 392.023438 390.402344 L 402.488281 379.929688 C 407.65625 374.761719 410.808594 371.636719 411.949219 370.566406 C 413.089844 369.492188 413.828125 368.953125 414.160156 368.953125 C 415.570312 368.953125 416.273438 369.625 416.273438 370.96875 C 416.273438 371.4375 415.941406 372.042969 415.269531 372.78125 C 414.597656 373.519531 411.3125 376.808594 405.40625 382.648438 L 394.941406 393.21875 L 405.40625 403.792969 C 411.042969 409.429688 414.261719 412.6875 415.066406 413.558594 C 415.871094 414.433594 416.273438 415.070312 416.273438 415.472656 Z M 416.273438 415.472656 " fill-opacity="1" fill-rule="nonzero"/><path fill="#000000" d="M 474.960938 360.191406 L 473.652344 360.695312 C 472.710938 361.03125 471.371094 361.367188 469.625 361.703125 C 467.882812 362.039062 465.9375 362.273438 463.789062 362.410156 L 461.878906 362.410156 L 461.878906 357.777344 L 463.789062 357.777344 C 466.941406 357.640625 469.859375 357.140625 472.542969 356.265625 C 475.226562 355.394531 477.105469 354.589844 478.179688 353.851562 C 479.253906 353.113281 480.191406 352.371094 480.996094 351.632812 C 481.128906 351.433594 481.53125 351.332031 482.203125 351.332031 C 482.808594 351.332031 483.378906 351.535156 483.914062 351.9375 L 483.914062 382.042969 L 484.015625 412.25 C 484.484375 412.71875 484.886719 413.023438 485.222656 413.15625 C 485.558594 413.292969 486.363281 413.425781 487.636719 413.558594 C 488.914062 413.695312 490.992188 413.761719 493.875 413.761719 L 496.492188 413.761719 L 496.492188 418.394531 L 495.386719 418.394531 C 493.976562 418.191406 488.644531 418.089844 479.386719 418.089844 C 470.261719 418.089844 464.996094 418.191406 463.589844 418.394531 L 462.382812 418.394531 L 462.382812 413.761719 L 464.996094 413.761719 C 466.472656 413.761719 467.746094 413.761719 468.820312 413.761719 C 469.894531 413.761719 470.734375 413.726562 471.335938 413.660156 C 471.941406 413.59375 472.476562 413.492188 472.945312 413.359375 C 473.417969 413.222656 473.683594 413.15625 473.75 413.15625 C 473.820312 413.15625 474.019531 412.988281 474.355469 412.652344 C 474.691406 412.316406 474.890625 412.183594 474.960938 412.25 Z M 474.960938 360.191406 " fill-opacity="1" fill-rule="nonzero"/><g clip-path="url(#68a5a60c29)"><path fill="#000000" d="M 513.5 359.488281 C 517.253906 354.050781 522.386719 351.332031 528.894531 351.332031 C 532.113281 351.332031 535.332031 352.207031 538.554688 353.949219 C 541.773438 355.695312 544.390625 358.785156 546.402344 363.214844 C 548.882812 368.785156 550.125 376.4375 550.125 386.171875 C 550.125 396.578125 548.683594 404.53125 545.796875 410.035156 C 544.457031 412.855469 542.613281 415.105469 540.265625 416.78125 C 537.917969 418.460938 535.871094 419.5 534.125 419.902344 C 532.382812 420.304688 530.671875 420.539062 528.996094 420.609375 C 527.25 420.609375 525.507812 420.40625 523.761719 420.003906 C 522.019531 419.601562 519.972656 418.527344 517.625 416.78125 C 515.277344 415.035156 513.429688 412.789062 512.089844 410.035156 C 509.203125 404.53125 507.761719 396.578125 507.761719 386.171875 C 507.761719 374.492188 509.675781 365.597656 513.5 359.488281 Z M 536.136719 358.28125 C 534.125 356.132812 531.746094 355.058594 528.996094 355.058594 C 526.175781 355.058594 523.761719 356.132812 521.75 358.28125 C 520.074219 360.027344 518.964844 362.441406 518.429688 365.53125 C 517.890625 368.617188 517.625 375.0625 517.625 384.863281 C 517.625 395.46875 517.890625 402.449219 518.429688 405.804688 C 518.964844 409.164062 520.171875 411.8125 522.050781 413.761719 C 523.929688 415.773438 526.242188 416.78125 528.996094 416.78125 C 531.675781 416.78125 533.957031 415.773438 535.835938 413.761719 C 537.78125 411.746094 538.988281 408.929688 539.460938 405.304688 C 539.929688 401.679688 540.195312 394.863281 540.265625 384.863281 C 540.265625 375.128906 539.996094 368.71875 539.460938 365.628906 C 538.921875 362.542969 537.816406 360.09375 536.136719 358.28125 Z M 536.136719 358.28125 " fill-opacity="1" fill-rule="nonzero"/></g><g clip-path="url(#025ebe22b3)"><path fill="#000000" d="M 569.136719 365.628906 C 569.136719 366.769531 568.757812 367.71875 568 368.476562 C 567.242188 369.238281 566.316406 369.617188 565.226562 369.617188 L 564.726562 369.617188 C 566.910156 373.367188 569.800781 375.242188 573.40625 375.242188 C 576.726562 375.242188 579.144531 373.816406 580.664062 370.96875 C 581.5625 369.402344 582.015625 366.367188 582.015625 361.859375 C 582.015625 356.96875 581.375 353.671875 580.09375 351.960938 C 578.859375 350.394531 577.484375 349.613281 575.96875 349.613281 L 575.539062 349.613281 C 571.839844 349.613281 569.042969 351.226562 567.144531 354.453125 C 566.957031 354.785156 566.789062 354.976562 566.648438 355.023438 C 566.507812 355.070312 566.148438 355.117188 565.582031 355.167969 C 564.773438 355.167969 564.324219 355.023438 564.230469 354.738281 C 564.132812 354.550781 564.085938 350.394531 564.085938 342.28125 L 564.085938 333.097656 C 564.085938 330.722656 564.207031 329.539062 564.441406 329.539062 C 564.539062 329.441406 564.632812 329.394531 564.726562 329.394531 C 564.773438 329.394531 565.273438 329.585938 566.222656 329.964844 C 567.171875 330.34375 568.472656 330.722656 570.132812 331.105469 C 571.792969 331.484375 573.574219 331.671875 575.46875 331.671875 C 578.835938 331.671875 582.0625 331.007812 585.144531 329.679688 C 585.523438 329.492188 585.832031 329.394531 586.070312 329.394531 C 586.449219 329.394531 586.640625 329.824219 586.640625 330.675781 L 586.640625 331.601562 C 582.75 336.207031 577.886719 338.507812 572.054688 338.507812 C 570.585938 338.507812 569.257812 338.367188 568.070312 338.082031 L 567.359375 337.9375 L 567.359375 350.183594 C 568.261719 349.519531 568.972656 348.996094 569.492188 348.617188 C 570.015625 348.238281 570.871094 347.855469 572.054688 347.476562 C 573.242188 347.097656 574.449219 346.90625 575.683594 346.90625 C 579.523438 346.90625 582.773438 348.449219 585.429688 351.535156 C 588.085938 354.621094 589.414062 358.273438 589.414062 362.5 C 589.414062 366.863281 587.894531 370.589844 584.859375 373.675781 C 581.824219 376.761719 578.125 378.324219 573.761719 378.375 C 569.921875 378.375 566.839844 377.09375 564.515625 374.53125 C 562.191406 371.964844 561.027344 369.070312 561.027344 365.84375 C 561.027344 364.707031 561.289062 363.804688 561.8125 363.140625 C 562.332031 362.476562 562.878906 362.046875 563.445312 361.859375 C 564.015625 361.667969 564.5625 361.574219 565.082031 361.574219 C 566.269531 361.574219 567.242188 361.976562 568 362.785156 C 568.757812 363.589844 569.136719 364.539062 569.136719 365.628906 Z M 569.136719 365.628906 " fill-opacity="1" fill-rule="nonzero"/></g></svg>