<svg xmlns="http://www.w3.org/2000/svg" xmlns:xlink="http://www.w3.org/1999/xlink" width="1000" zoomAndPan="magnify" viewBox="0 0 750 749.999995" height="1000" preserveAspectRatio="xMidYMid meet" version="1.0"><defs><clipPath id="8e59d3efad"><path d="M 42 355 L 77 355 L 77 411.683594 L 42 411.683594 Z M 42 355 " clip-rule="nonzero"/></clipPath><clipPath id="d50f1592d9"><path d="M 105 355 L 140 355 L 140 411.683594 L 105 411.683594 Z M 105 355 " clip-rule="nonzero"/></clipPath><clipPath id="77d8b48610"><path d="M 145 355 L 181 355 L 181 411.683594 L 145 411.683594 Z M 145 355 " clip-rule="nonzero"/></clipPath><clipPath id="6dc7fd5357"><path d="M 186 355 L 221 355 L 221 411.683594 L 186 411.683594 Z M 186 355 " clip-rule="nonzero"/></clipPath><clipPath id="fa41c4221b"><path d="M 226 355 L 262 355 L 262 411.683594 L 226 411.683594 Z M 226 355 " clip-rule="nonzero"/></clipPath><clipPath id="47934d7198"><path d="M 267 355 L 302 355 L 302 411.683594 L 267 411.683594 Z M 267 355 " clip-rule="nonzero"/></clipPath><clipPath id="20a8f7c105"><path d="M 307 355 L 343 355 L 343 411.683594 L 307 411.683594 Z M 307 355 " clip-rule="nonzero"/></clipPath><clipPath id="438af9e189"><path d="M 389 355 L 423 355 L 423 411.683594 L 389 411.683594 Z M 389 355 " clip-rule="nonzero"/></clipPath><clipPath id="b5a45bce61"><path d="M 429 355 L 464 355 L 464 411.683594 L 429 411.683594 Z M 429 355 " clip-rule="nonzero"/></clipPath><clipPath id="deaef95b42"><path d="M 609 355 L 644 355 L 644 411.683594 L 609 411.683594 Z M 609 355 " clip-rule="nonzero"/></clipPath><clipPath id="4be6990550"><path d="M 654 338.316406 L 674 338.316406 L 674 377 L 654 377 Z M 654 338.316406 " clip-rule="nonzero"/></clipPath><clipPath id="249378d056"><path d="M 680 338.316406 L 704 338.316406 L 704 377 L 680 377 Z M 680 338.316406 " clip-rule="nonzero"/></clipPath></defs><rect x="-75" width="900" fill="#ffffff" y="-74.999999" height="899.999994" fill-opacity="1"/><rect x="-75" width="900" fill="#ffffff" y="-74.999999" height="899.999994" fill-opacity="1"/><g clip-path="url(#8e59d3efad)"><path fill="#000000" d="M 47.042969 362.523438 C 50.066406 358.148438 54.199219 355.964844 59.4375 355.964844 C 62.027344 355.964844 64.617188 356.664062 67.210938 358.070312 C 69.800781 359.472656 71.90625 361.957031 73.527344 365.519531 C 75.527344 370 76.523438 376.15625 76.523438 383.984375 C 76.523438 392.355469 75.363281 398.753906 73.042969 403.179688 C 71.960938 405.449219 70.476562 407.257812 68.585938 408.605469 C 66.699219 409.957031 65.050781 410.792969 63.648438 411.117188 C 62.242188 411.441406 60.867188 411.628906 59.515625 411.683594 C 58.113281 411.683594 56.707031 411.523438 55.304688 411.199219 C 53.902344 410.875 52.253906 410.011719 50.363281 408.605469 C 48.476562 407.203125 46.988281 405.394531 45.910156 403.179688 C 43.589844 398.753906 42.425781 392.355469 42.425781 383.984375 C 42.425781 374.589844 43.964844 367.4375 47.042969 362.523438 Z M 65.265625 361.550781 C 63.648438 359.824219 61.730469 358.960938 59.515625 358.960938 C 57.25 358.960938 55.304688 359.824219 53.683594 361.550781 C 52.335938 362.957031 51.445312 364.898438 51.011719 367.382812 C 50.582031 369.867188 50.363281 375.050781 50.363281 382.933594 C 50.363281 391.464844 50.582031 397.078125 51.011719 399.777344 C 51.445312 402.480469 52.417969 404.613281 53.929688 406.175781 C 55.441406 407.796875 57.304688 408.605469 59.515625 408.605469 C 61.675781 408.605469 63.511719 407.796875 65.023438 406.175781 C 66.589844 404.558594 67.5625 402.289062 67.941406 399.375 C 68.316406 396.457031 68.535156 390.976562 68.585938 382.933594 C 68.585938 375.105469 68.371094 369.949219 67.941406 367.464844 C 67.507812 364.980469 66.617188 363.007812 65.265625 361.550781 Z M 65.265625 361.550781 " fill-opacity="1" fill-rule="nonzero"/></g><path fill="#000000" d="M 86.082031 405.042969 C 86.082031 403.746094 86.539062 402.613281 87.457031 401.640625 C 88.375 400.671875 89.539062 400.183594 90.941406 400.183594 C 92.238281 400.183594 93.371094 400.617188 94.34375 401.480469 C 95.316406 402.34375 95.828125 403.503906 95.882812 404.960938 C 95.882812 406.3125 95.421875 407.472656 94.503906 408.445312 C 93.585938 409.417969 92.425781 409.902344 91.023438 409.902344 C 89.617188 409.902344 88.457031 409.445312 87.539062 408.527344 C 86.621094 407.609375 86.136719 406.449219 86.082031 405.042969 Z M 86.082031 405.042969 " fill-opacity="1" fill-rule="nonzero"/><g clip-path="url(#d50f1592d9)"><path fill="#000000" d="M 110.054688 362.523438 C 113.078125 358.148438 117.210938 355.964844 122.445312 355.964844 C 125.039062 355.964844 127.628906 356.664062 130.222656 358.070312 C 132.8125 359.472656 134.917969 361.957031 136.539062 365.519531 C 138.535156 370 139.535156 376.15625 139.535156 383.984375 C 139.535156 392.355469 138.375 398.753906 136.054688 403.179688 C 134.972656 405.449219 133.488281 407.257812 131.597656 408.605469 C 129.707031 409.957031 128.0625 410.792969 126.65625 411.117188 C 125.253906 411.441406 123.878906 411.628906 122.527344 411.683594 C 121.125 411.683594 119.71875 411.523438 118.316406 411.199219 C 116.910156 410.875 115.265625 410.011719 113.375 408.605469 C 111.484375 407.203125 110 405.394531 108.921875 403.179688 C 106.597656 398.753906 105.4375 392.355469 105.4375 383.984375 C 105.4375 374.589844 106.976562 367.4375 110.054688 362.523438 Z M 128.277344 361.550781 C 126.65625 359.824219 124.742188 358.960938 122.527344 358.960938 C 120.257812 358.960938 118.316406 359.824219 116.695312 361.550781 C 115.347656 362.957031 114.457031 364.898438 114.023438 367.382812 C 113.589844 369.867188 113.375 375.050781 113.375 382.933594 C 113.375 391.464844 113.589844 397.078125 114.023438 399.777344 C 114.457031 402.480469 115.425781 404.613281 116.9375 406.175781 C 118.449219 407.796875 120.3125 408.605469 122.527344 408.605469 C 124.6875 408.605469 126.523438 407.796875 128.035156 406.175781 C 129.601562 404.558594 130.574219 402.289062 130.949219 399.375 C 131.328125 396.457031 131.542969 390.976562 131.597656 382.933594 C 131.597656 375.105469 131.382812 369.949219 130.949219 367.464844 C 130.519531 364.980469 129.628906 363.007812 128.277344 361.550781 Z M 128.277344 361.550781 " fill-opacity="1" fill-rule="nonzero"/></g><g clip-path="url(#77d8b48610)"><path fill="#000000" d="M 150.550781 362.523438 C 153.574219 358.148438 157.703125 355.964844 162.941406 355.964844 C 165.535156 355.964844 168.125 356.664062 170.71875 358.070312 C 173.308594 359.472656 175.414062 361.957031 177.035156 365.519531 C 179.03125 370 180.03125 376.15625 180.03125 383.984375 C 180.03125 392.355469 178.871094 398.753906 176.546875 403.179688 C 175.46875 405.449219 173.984375 407.257812 172.09375 408.605469 C 170.203125 409.957031 168.558594 410.792969 167.152344 411.117188 C 165.75 411.441406 164.371094 411.628906 163.023438 411.683594 C 161.617188 411.683594 160.214844 411.523438 158.8125 411.199219 C 157.40625 410.875 155.761719 410.011719 153.871094 408.605469 C 151.980469 407.203125 150.496094 405.394531 149.417969 403.179688 C 147.09375 398.753906 145.933594 392.355469 145.933594 383.984375 C 145.933594 374.589844 147.472656 367.4375 150.550781 362.523438 Z M 168.773438 361.550781 C 167.152344 359.824219 165.238281 358.960938 163.023438 358.960938 C 160.753906 358.960938 158.8125 359.824219 157.191406 361.550781 C 155.839844 362.957031 154.949219 364.898438 154.519531 367.382812 C 154.085938 369.867188 153.871094 375.050781 153.871094 382.933594 C 153.871094 391.464844 154.085938 397.078125 154.519531 399.777344 C 154.949219 402.480469 155.921875 404.613281 157.433594 406.175781 C 158.945312 407.796875 160.808594 408.605469 163.023438 408.605469 C 165.183594 408.605469 167.019531 407.796875 168.53125 406.175781 C 170.097656 404.558594 171.066406 402.289062 171.445312 399.375 C 171.824219 396.457031 172.039062 390.976562 172.09375 382.933594 C 172.09375 375.105469 171.878906 369.949219 171.445312 367.464844 C 171.015625 364.980469 170.121094 363.007812 168.773438 361.550781 Z M 168.773438 361.550781 " fill-opacity="1" fill-rule="nonzero"/></g><g clip-path="url(#6dc7fd5357)"><path fill="#000000" d="M 191.046875 362.523438 C 194.070312 358.148438 198.199219 355.964844 203.4375 355.964844 C 206.027344 355.964844 208.621094 356.664062 211.210938 358.070312 C 213.804688 359.472656 215.910156 361.957031 217.53125 365.519531 C 219.527344 370 220.527344 376.15625 220.527344 383.984375 C 220.527344 392.355469 219.367188 398.753906 217.042969 403.179688 C 215.964844 405.449219 214.480469 407.257812 212.589844 408.605469 C 210.699219 409.957031 209.050781 410.792969 207.648438 411.117188 C 206.246094 411.441406 204.867188 411.628906 203.519531 411.683594 C 202.113281 411.683594 200.710938 411.523438 199.308594 411.199219 C 197.902344 410.875 196.257812 410.011719 194.367188 408.605469 C 192.476562 407.203125 190.992188 405.394531 189.910156 403.179688 C 187.589844 398.753906 186.429688 392.355469 186.429688 383.984375 C 186.429688 374.589844 187.96875 367.4375 191.046875 362.523438 Z M 209.269531 361.550781 C 207.648438 359.824219 205.730469 358.960938 203.519531 358.960938 C 201.25 358.960938 199.308594 359.824219 197.6875 361.550781 C 196.335938 362.957031 195.445312 364.898438 195.015625 367.382812 C 194.582031 369.867188 194.367188 375.050781 194.367188 382.933594 C 194.367188 391.464844 194.582031 397.078125 195.015625 399.777344 C 195.445312 402.480469 196.417969 404.613281 197.929688 406.175781 C 199.441406 407.796875 201.304688 408.605469 203.519531 408.605469 C 205.679688 408.605469 207.515625 407.796875 209.027344 406.175781 C 210.589844 404.558594 211.5625 402.289062 211.941406 399.375 C 212.320312 396.457031 212.535156 390.976562 212.589844 382.933594 C 212.589844 375.105469 212.375 369.949219 211.941406 367.464844 C 211.507812 364.980469 210.617188 363.007812 209.269531 361.550781 Z M 209.269531 361.550781 " fill-opacity="1" fill-rule="nonzero"/></g><g clip-path="url(#fa41c4221b)"><path fill="#000000" d="M 231.539062 362.523438 C 234.566406 358.148438 238.695312 355.964844 243.933594 355.964844 C 246.523438 355.964844 249.117188 356.664062 251.707031 358.070312 C 254.300781 359.472656 256.40625 361.957031 258.023438 365.519531 C 260.023438 370 261.023438 376.15625 261.023438 383.984375 C 261.023438 392.355469 259.859375 398.753906 257.539062 403.179688 C 256.460938 405.449219 254.972656 407.257812 253.085938 408.605469 C 251.195312 409.957031 249.546875 410.792969 248.144531 411.117188 C 246.742188 411.441406 245.363281 411.628906 244.011719 411.683594 C 242.609375 411.683594 241.207031 411.523438 239.800781 411.199219 C 238.398438 410.875 236.75 410.011719 234.863281 408.605469 C 232.972656 407.203125 231.488281 405.394531 230.40625 403.179688 C 228.085938 398.753906 226.925781 392.355469 226.925781 383.984375 C 226.925781 374.589844 228.464844 367.4375 231.539062 362.523438 Z M 249.765625 361.550781 C 248.144531 359.824219 246.226562 358.960938 244.011719 358.960938 C 241.746094 358.960938 239.800781 359.824219 238.183594 361.550781 C 236.832031 362.957031 235.941406 364.898438 235.507812 367.382812 C 235.078125 369.867188 234.863281 375.050781 234.863281 382.933594 C 234.863281 391.464844 235.078125 397.078125 235.507812 399.777344 C 235.941406 402.480469 236.914062 404.613281 238.425781 406.175781 C 239.9375 407.796875 241.800781 408.605469 244.011719 408.605469 C 246.171875 408.605469 248.007812 407.796875 249.519531 406.175781 C 251.085938 404.558594 252.058594 402.289062 252.4375 399.375 C 252.816406 396.457031 253.03125 390.976562 253.085938 382.933594 C 253.085938 375.105469 252.867188 369.949219 252.4375 367.464844 C 252.003906 364.980469 251.113281 363.007812 249.765625 361.550781 Z M 249.765625 361.550781 " fill-opacity="1" fill-rule="nonzero"/></g><g clip-path="url(#47934d7198)"><path fill="#000000" d="M 272.035156 362.523438 C 275.058594 358.148438 279.191406 355.964844 284.429688 355.964844 C 287.019531 355.964844 289.613281 356.664062 292.203125 358.070312 C 294.792969 359.472656 296.902344 361.957031 298.519531 365.519531 C 300.519531 370 301.515625 376.15625 301.515625 383.984375 C 301.515625 392.355469 300.355469 398.753906 298.035156 403.179688 C 296.953125 405.449219 295.46875 407.257812 293.578125 408.605469 C 291.691406 409.957031 290.042969 410.792969 288.640625 411.117188 C 287.234375 411.441406 285.859375 411.628906 284.507812 411.683594 C 283.105469 411.683594 281.703125 411.523438 280.296875 411.199219 C 278.894531 410.875 277.246094 410.011719 275.355469 408.605469 C 273.46875 407.203125 271.984375 405.394531 270.902344 403.179688 C 268.582031 398.753906 267.421875 392.355469 267.421875 383.984375 C 267.421875 374.589844 268.957031 367.4375 272.035156 362.523438 Z M 290.257812 361.550781 C 288.640625 359.824219 286.722656 358.960938 284.507812 358.960938 C 282.242188 358.960938 280.296875 359.824219 278.675781 361.550781 C 277.328125 362.957031 276.4375 364.898438 276.003906 367.382812 C 275.574219 369.867188 275.355469 375.050781 275.355469 382.933594 C 275.355469 391.464844 275.574219 397.078125 276.003906 399.777344 C 276.4375 402.480469 277.410156 404.613281 278.921875 406.175781 C 280.433594 407.796875 282.296875 408.605469 284.507812 408.605469 C 286.667969 408.605469 288.503906 407.796875 290.015625 406.175781 C 291.582031 404.558594 292.554688 402.289062 292.933594 399.375 C 293.308594 396.457031 293.527344 390.976562 293.578125 382.933594 C 293.578125 375.105469 293.363281 369.949219 292.933594 367.464844 C 292.5 364.980469 291.609375 363.007812 290.257812 361.550781 Z M 290.257812 361.550781 " fill-opacity="1" fill-rule="nonzero"/></g><g clip-path="url(#20a8f7c105)"><path fill="#000000" d="M 312.53125 362.523438 C 315.554688 358.148438 319.6875 355.964844 324.921875 355.964844 C 327.515625 355.964844 330.105469 356.664062 332.699219 358.070312 C 335.289062 359.472656 337.394531 361.957031 339.015625 365.519531 C 341.011719 370 342.011719 376.15625 342.011719 383.984375 C 342.011719 392.355469 340.851562 398.753906 338.53125 403.179688 C 337.449219 405.449219 335.964844 407.257812 334.074219 408.605469 C 332.1875 409.957031 330.539062 410.792969 329.136719 411.117188 C 327.730469 411.441406 326.355469 411.628906 325.003906 411.683594 C 323.601562 411.683594 322.195312 411.523438 320.792969 411.199219 C 319.390625 410.875 317.742188 410.011719 315.851562 408.605469 C 313.960938 407.203125 312.476562 405.394531 311.398438 403.179688 C 309.078125 398.753906 307.914062 392.355469 307.914062 383.984375 C 307.914062 374.589844 309.453125 367.4375 312.53125 362.523438 Z M 330.753906 361.550781 C 329.136719 359.824219 327.21875 358.960938 325.003906 358.960938 C 322.738281 358.960938 320.792969 359.824219 319.171875 361.550781 C 317.824219 362.957031 316.933594 364.898438 316.5 367.382812 C 316.070312 369.867188 315.851562 375.050781 315.851562 382.933594 C 315.851562 391.464844 316.070312 397.078125 316.5 399.777344 C 316.933594 402.480469 317.902344 404.613281 319.417969 406.175781 C 320.929688 407.796875 322.789062 408.605469 325.003906 408.605469 C 327.164062 408.605469 329 407.796875 330.511719 406.175781 C 332.078125 404.558594 333.050781 402.289062 333.425781 399.375 C 333.804688 396.457031 334.019531 390.976562 334.074219 382.933594 C 334.074219 375.105469 333.859375 369.949219 333.425781 367.464844 C 332.996094 364.980469 332.105469 363.007812 330.753906 361.550781 Z M 330.753906 361.550781 " fill-opacity="1" fill-rule="nonzero"/></g><path fill="#000000" d="M 382.667969 409.902344 C 381.699219 409.742188 378.214844 409.660156 372.222656 409.660156 C 365.957031 409.660156 362.339844 409.742188 361.371094 409.902344 L 360.640625 409.902344 L 360.640625 406.175781 L 363.152344 406.175781 C 364.230469 406.175781 364.960938 406.175781 365.335938 406.175781 C 365.714844 406.175781 366.175781 406.125 366.714844 406.015625 C 367.253906 405.90625 367.632812 405.773438 367.847656 405.609375 C 368.066406 405.449219 368.253906 405.234375 368.414062 404.960938 C 368.46875 404.855469 368.496094 403.398438 368.496094 400.589844 L 368.496094 396.539062 L 347.519531 396.539062 L 347.519531 392.8125 L 359.75 374.105469 C 368.011719 361.578125 372.195312 355.289062 372.304688 355.234375 C 372.410156 355.125 372.976562 355.070312 374.003906 355.070312 L 375.460938 355.070312 L 375.949219 355.558594 L 375.949219 392.8125 L 383.398438 392.8125 L 383.398438 396.539062 L 375.949219 396.539062 L 375.949219 400.671875 C 375.949219 402.882812 375.949219 404.179688 375.949219 404.558594 C 375.949219 404.9375 376.109375 405.257812 376.433594 405.53125 C 376.867188 405.90625 378.40625 406.125 381.050781 406.175781 L 383.398438 406.175781 L 383.398438 409.902344 Z M 368.980469 392.8125 L 368.980469 365.761719 L 351.246094 392.734375 L 360.074219 392.8125 Z M 368.980469 392.8125 " fill-opacity="1" fill-rule="nonzero"/><g clip-path="url(#438af9e189)"><path fill="#000000" d="M 399.03125 397.1875 C 399.03125 398.484375 398.597656 399.5625 397.734375 400.425781 C 396.871094 401.289062 395.816406 401.722656 394.574219 401.722656 L 394.007812 401.722656 C 396.492188 405.988281 399.785156 408.121094 403.890625 408.121094 C 407.667969 408.121094 410.421875 406.5 412.152344 403.261719 C 413.175781 401.480469 413.6875 398.023438 413.6875 392.894531 C 413.6875 387.332031 412.960938 383.582031 411.503906 381.636719 C 410.097656 379.855469 408.53125 378.964844 406.804688 378.964844 L 406.320312 378.964844 C 402.109375 378.964844 398.921875 380.800781 396.761719 384.472656 C 396.546875 384.851562 396.355469 385.066406 396.195312 385.121094 C 396.035156 385.171875 395.628906 385.226562 394.980469 385.28125 C 394.0625 385.28125 393.550781 385.121094 393.441406 384.796875 C 393.332031 384.578125 393.28125 379.855469 393.28125 370.621094 L 393.28125 360.175781 C 393.28125 357.476562 393.414062 356.125 393.683594 356.125 C 393.792969 356.015625 393.902344 355.964844 394.007812 355.964844 C 394.0625 355.964844 394.628906 356.179688 395.710938 356.609375 C 396.789062 357.042969 398.273438 357.476562 400.164062 357.90625 C 402.054688 358.339844 404.078125 358.554688 406.238281 358.554688 C 410.070312 358.554688 413.742188 357.800781 417.253906 356.285156 C 417.683594 356.070312 418.035156 355.964844 418.304688 355.964844 C 418.738281 355.964844 418.953125 356.449219 418.953125 357.421875 L 418.953125 358.472656 C 414.527344 363.710938 408.992188 366.328125 402.351562 366.328125 C 400.675781 366.328125 399.164062 366.167969 397.816406 365.84375 L 397.003906 365.683594 L 397.003906 379.613281 C 398.03125 378.855469 398.839844 378.261719 399.433594 377.832031 C 400.027344 377.398438 401 376.964844 402.351562 376.535156 C 403.699219 376.101562 405.078125 375.886719 406.480469 375.886719 C 410.855469 375.886719 414.554688 377.640625 417.578125 381.152344 C 420.601562 384.660156 422.113281 388.820312 422.113281 393.625 C 422.113281 398.589844 420.382812 402.828125 416.929688 406.339844 C 413.472656 409.847656 409.261719 411.628906 404.292969 411.683594 C 399.921875 411.683594 396.410156 410.226562 393.765625 407.3125 C 391.121094 404.394531 389.796875 401.101562 389.796875 397.429688 C 389.796875 396.132812 390.09375 395.109375 390.6875 394.351562 C 391.28125 393.597656 391.902344 393.109375 392.550781 392.894531 C 393.199219 392.679688 393.820312 392.570312 394.414062 392.570312 C 395.761719 392.570312 396.871094 393.03125 397.734375 393.949219 C 398.597656 394.867188 399.03125 395.945312 399.03125 397.1875 Z M 399.03125 397.1875 " fill-opacity="1" fill-rule="nonzero"/></g><g clip-path="url(#b5a45bce61)"><path fill="#000000" d="M 429.644531 384.554688 C 429.644531 375.75 431.832031 368.785156 436.203125 363.65625 C 440.578125 358.527344 445.4375 355.964844 450.78125 355.964844 C 454.507812 355.964844 457.179688 356.933594 458.800781 358.878906 C 460.421875 360.824219 461.230469 362.980469 461.230469 365.359375 C 461.230469 366.707031 460.851562 367.789062 460.097656 368.597656 C 459.339844 369.40625 458.289062 369.8125 456.9375 369.8125 C 455.695312 369.8125 454.671875 369.433594 453.859375 368.679688 C 453.050781 367.921875 452.644531 366.871094 452.644531 365.519531 C 452.644531 363.144531 453.914062 361.714844 456.453125 361.226562 C 455.265625 360.039062 453.589844 359.363281 451.429688 359.203125 C 447.597656 359.203125 444.4375 360.824219 441.957031 364.0625 C 439.417969 367.625 438.148438 373.078125 438.148438 380.421875 L 438.230469 380.746094 C 438.5 380.421875 438.714844 380.070312 438.878906 379.695312 C 441.089844 376.453125 443.980469 374.832031 447.542969 374.832031 L 447.867188 374.832031 C 450.351562 374.832031 452.539062 375.347656 454.425781 376.371094 C 455.722656 377.128906 457.019531 378.207031 458.316406 379.613281 C 459.609375 381.015625 460.664062 382.554688 461.472656 384.230469 C 462.609375 386.875 463.175781 389.761719 463.175781 392.894531 L 463.175781 394.351562 C 463.175781 395.59375 463.039062 396.753906 462.769531 397.835938 C 462.175781 401.019531 460.449219 404.125 457.585938 407.148438 C 454.726562 410.171875 451.105469 411.683594 446.734375 411.683594 C 445.222656 411.683594 443.765625 411.46875 442.359375 411.035156 C 440.957031 410.605469 439.445312 409.796875 437.824219 408.605469 C 436.203125 407.417969 434.828125 405.828125 433.695312 403.828125 C 432.558594 401.832031 431.589844 399.210938 430.777344 395.972656 C 429.96875 392.734375 429.589844 388.925781 429.644531 384.554688 Z M 447.058594 377.75 C 445.4375 377.75 444.035156 378.207031 442.847656 379.125 C 441.65625 380.042969 440.742188 381.257812 440.09375 382.769531 C 439.445312 384.28125 438.984375 385.820312 438.714844 387.386719 C 438.445312 388.953125 438.285156 390.628906 438.230469 392.410156 C 438.230469 396.890625 438.554688 400.101562 439.203125 402.046875 C 439.847656 403.992188 440.875 405.554688 442.277344 406.746094 C 443.574219 407.714844 445.003906 408.203125 446.570312 408.203125 C 449.324219 408.203125 451.429688 407.175781 452.890625 405.125 C 453.589844 404.152344 454.078125 402.9375 454.347656 401.480469 C 454.617188 400.023438 454.75 397.1875 454.75 392.976562 C 454.75 388.65625 454.617188 385.769531 454.347656 384.308594 C 454.078125 382.851562 453.589844 381.636719 452.890625 380.664062 C 451.429688 378.722656 449.488281 377.75 447.058594 377.75 Z M 447.058594 377.75 " fill-opacity="1" fill-rule="nonzero"/></g><path fill="#000000" d="M 535.757812 407.554688 C 535.757812 408.632812 535.191406 409.175781 534.058594 409.175781 C 533.789062 409.175781 533.195312 408.742188 532.277344 407.878906 C 531.359375 407.015625 528.820312 404.503906 524.664062 400.347656 L 516.238281 391.921875 L 507.734375 400.425781 C 502.011719 406.042969 499.070312 408.902344 498.90625 409.011719 C 498.691406 409.121094 498.503906 409.175781 498.339844 409.175781 C 497.910156 409.175781 497.53125 409.011719 497.207031 408.6875 C 496.882812 408.363281 496.695312 407.984375 496.640625 407.554688 C 496.640625 407.175781 497.019531 406.582031 497.773438 405.773438 C 498.53125 404.960938 501.066406 402.398438 505.386719 398.078125 L 513.808594 389.65625 L 505.386719 381.230469 C 501.011719 376.859375 498.476562 374.292969 497.773438 373.539062 C 497.070312 372.78125 496.695312 372.1875 496.640625 371.757812 C 496.640625 371.269531 496.800781 370.890625 497.125 370.621094 C 497.449219 370.351562 497.855469 370.21875 498.339844 370.21875 C 498.609375 370.21875 498.800781 370.246094 498.90625 370.296875 C 499.070312 370.40625 502.011719 373.269531 507.734375 378.882812 L 516.238281 387.386719 L 524.664062 378.964844 C 528.820312 374.808594 531.359375 372.296875 532.277344 371.433594 C 533.195312 370.570312 533.789062 370.136719 534.058594 370.136719 C 535.191406 370.136719 535.757812 370.675781 535.757812 371.757812 C 535.757812 372.132812 535.488281 372.621094 534.949219 373.214844 C 534.410156 373.808594 531.761719 376.453125 527.011719 381.152344 L 518.589844 389.65625 L 527.011719 398.160156 C 531.546875 402.695312 534.140625 405.3125 534.785156 406.015625 C 535.433594 406.71875 535.757812 407.230469 535.757812 407.554688 Z M 535.757812 407.554688 " fill-opacity="1" fill-rule="nonzero"/><path fill="#000000" d="M 582.992188 363.089844 L 581.941406 363.496094 C 581.183594 363.765625 580.105469 364.035156 578.699219 364.304688 C 577.296875 364.574219 575.730469 364.765625 574.003906 364.871094 L 572.464844 364.871094 L 572.464844 361.148438 L 574.003906 361.148438 C 576.539062 361.039062 578.890625 360.632812 581.046875 359.933594 C 583.207031 359.230469 584.71875 358.582031 585.585938 357.988281 C 586.449219 357.394531 587.203125 356.800781 587.851562 356.207031 C 587.960938 356.042969 588.285156 355.964844 588.824219 355.964844 C 589.308594 355.964844 589.769531 356.125 590.199219 356.449219 L 590.199219 380.664062 L 590.28125 404.960938 C 590.660156 405.339844 590.984375 405.582031 591.253906 405.691406 C 591.523438 405.800781 592.171875 405.90625 593.199219 406.015625 C 594.222656 406.125 595.898438 406.175781 598.21875 406.175781 L 600.324219 406.175781 L 600.324219 409.902344 L 599.433594 409.902344 C 598.300781 409.742188 594.007812 409.660156 586.554688 409.660156 C 579.214844 409.660156 574.972656 409.742188 573.839844 409.902344 L 572.867188 409.902344 L 572.867188 406.175781 L 574.972656 406.175781 C 576.164062 406.175781 577.1875 406.175781 578.050781 406.175781 C 578.914062 406.175781 579.589844 406.152344 580.078125 406.097656 C 580.5625 406.042969 580.996094 405.960938 581.371094 405.851562 C 581.75 405.746094 581.964844 405.691406 582.019531 405.691406 C 582.074219 405.691406 582.238281 405.554688 582.507812 405.285156 C 582.777344 405.015625 582.9375 404.910156 582.992188 404.960938 Z M 582.992188 363.089844 " fill-opacity="1" fill-rule="nonzero"/><g clip-path="url(#deaef95b42)"><path fill="#000000" d="M 614.011719 362.523438 C 617.035156 358.148438 621.167969 355.964844 626.402344 355.964844 C 628.996094 355.964844 631.585938 356.664062 634.179688 358.070312 C 636.769531 359.472656 638.875 361.957031 640.496094 365.519531 C 642.492188 370 643.492188 376.15625 643.492188 383.984375 C 643.492188 392.355469 642.332031 398.753906 640.011719 403.179688 C 638.929688 405.449219 637.445312 407.257812 635.554688 408.605469 C 633.664062 409.957031 632.019531 410.792969 630.613281 411.117188 C 629.210938 411.441406 627.835938 411.628906 626.484375 411.683594 C 625.082031 411.683594 623.675781 411.523438 622.273438 411.199219 C 620.871094 410.875 619.222656 410.011719 617.332031 408.605469 C 615.441406 407.203125 613.957031 405.394531 612.878906 403.179688 C 610.554688 398.753906 609.394531 392.355469 609.394531 383.984375 C 609.394531 374.589844 610.933594 367.4375 614.011719 362.523438 Z M 632.234375 361.550781 C 630.613281 359.824219 628.699219 358.960938 626.484375 358.960938 C 624.214844 358.960938 622.273438 359.824219 620.652344 361.550781 C 619.304688 362.957031 618.414062 364.898438 617.980469 367.382812 C 617.546875 369.867188 617.332031 375.050781 617.332031 382.933594 C 617.332031 391.464844 617.546875 397.078125 617.980469 399.777344 C 618.414062 402.480469 619.382812 404.613281 620.894531 406.175781 C 622.40625 407.796875 624.269531 408.605469 626.484375 408.605469 C 628.644531 408.605469 630.480469 407.796875 631.992188 406.175781 C 633.558594 404.558594 634.53125 402.289062 634.90625 399.375 C 635.285156 396.457031 635.5 390.976562 635.554688 382.933594 C 635.554688 375.105469 635.339844 369.949219 634.90625 367.464844 C 634.476562 364.980469 633.585938 363.007812 632.234375 361.550781 Z M 632.234375 361.550781 " fill-opacity="1" fill-rule="nonzero"/></g><g clip-path="url(#4be6990550)"><path fill="#000000" d="M 661.601562 343.355469 L 660.855469 343.644531 C 660.324219 343.835938 659.558594 344.023438 658.566406 344.214844 C 657.574219 344.40625 656.46875 344.539062 655.246094 344.617188 L 654.15625 344.617188 L 654.15625 341.984375 L 655.246094 341.984375 C 657.039062 341.90625 658.699219 341.621094 660.226562 341.125 C 661.753906 340.628906 662.824219 340.167969 663.433594 339.75 C 664.042969 339.328125 664.578125 338.910156 665.035156 338.488281 C 665.113281 338.375 665.34375 338.316406 665.722656 338.316406 C 666.066406 338.316406 666.390625 338.433594 666.699219 338.660156 L 666.699219 355.78125 L 666.753906 372.960938 C 667.023438 373.226562 667.25 373.398438 667.441406 373.476562 C 667.632812 373.550781 668.089844 373.628906 668.816406 373.707031 C 669.542969 373.78125 670.726562 373.820312 672.367188 373.820312 L 673.855469 373.820312 L 673.855469 376.453125 L 673.226562 376.453125 C 672.421875 376.339844 669.390625 376.28125 664.121094 376.28125 C 658.929688 376.28125 655.933594 376.339844 655.132812 376.453125 L 654.445312 376.453125 L 654.445312 373.820312 L 655.933594 373.820312 C 656.773438 373.820312 657.496094 373.820312 658.109375 373.820312 C 658.71875 373.820312 659.195312 373.800781 659.539062 373.761719 C 659.882812 373.722656 660.1875 373.667969 660.457031 373.589844 C 660.722656 373.515625 660.875 373.476562 660.914062 373.476562 C 660.953125 373.476562 661.066406 373.378906 661.257812 373.191406 C 661.449219 373 661.5625 372.921875 661.601562 372.960938 Z M 661.601562 343.355469 " fill-opacity="1" fill-rule="nonzero"/></g><g clip-path="url(#249378d056)"><path fill="#000000" d="M 684.277344 351.890625 C 683.246094 351.890625 682.425781 351.546875 681.8125 350.859375 C 681.203125 350.171875 680.898438 349.332031 680.898438 348.339844 C 680.898438 345.628906 681.910156 343.28125 683.933594 341.296875 C 685.957031 339.3125 688.476562 338.316406 691.492188 338.316406 C 694.964844 338.316406 697.867188 339.386719 700.195312 341.523438 C 702.523438 343.664062 703.707031 346.429688 703.746094 349.828125 C 703.746094 351.46875 703.363281 353.035156 702.601562 354.523438 C 701.835938 356.011719 700.921875 357.308594 699.851562 358.417969 C 698.78125 359.523438 697.253906 360.9375 695.269531 362.652344 C 693.894531 363.835938 691.988281 365.59375 689.542969 367.921875 L 686.167969 371.128906 L 690.519531 371.1875 C 696.511719 371.1875 699.699219 371.089844 700.082031 370.898438 C 700.347656 370.824219 700.804688 369.125 701.453125 365.804688 L 701.453125 365.632812 L 703.746094 365.632812 L 703.746094 365.804688 C 703.707031 365.917969 703.457031 367.65625 703 371.015625 C 702.542969 374.375 702.257812 376.128906 702.140625 376.28125 L 702.140625 376.453125 L 680.898438 376.453125 L 680.898438 374.679688 C 680.898438 374.410156 681.011719 374.125 681.242188 373.820312 C 681.472656 373.515625 682.042969 372.847656 682.960938 371.816406 C 684.066406 370.59375 685.019531 369.523438 685.824219 368.609375 C 686.167969 368.226562 686.816406 367.519531 687.769531 366.492188 C 688.722656 365.460938 689.371094 364.753906 689.714844 364.371094 C 690.058594 363.988281 690.613281 363.359375 691.375 362.480469 C 692.140625 361.605469 692.675781 360.957031 692.980469 360.535156 C 693.285156 360.117188 693.722656 359.542969 694.296875 358.816406 C 694.871094 358.09375 695.269531 357.480469 695.5 356.984375 C 695.730469 356.488281 696.015625 355.933594 696.359375 355.324219 C 696.703125 354.714844 696.949219 354.101562 697.101562 353.492188 C 697.253906 352.882812 697.390625 352.308594 697.503906 351.773438 C 697.617188 351.238281 697.675781 350.609375 697.675781 349.886719 C 697.675781 347.480469 697.027344 345.398438 695.730469 343.644531 C 694.429688 341.886719 692.578125 341.007812 690.175781 341.007812 C 688.914062 341.007812 687.808594 341.335938 686.851562 341.984375 C 685.898438 342.632812 685.230469 343.261719 684.847656 343.871094 C 684.46875 344.484375 684.277344 344.847656 684.277344 344.960938 C 684.277344 345 684.371094 345.019531 684.5625 345.019531 C 685.25 345.019531 685.957031 345.285156 686.679688 345.820312 C 687.40625 346.355469 687.769531 347.230469 687.769531 348.453125 C 687.769531 349.40625 687.464844 350.210938 686.851562 350.859375 C 686.242188 351.507812 685.382812 351.851562 684.277344 351.890625 Z M 684.277344 351.890625 " fill-opacity="1" fill-rule="nonzero"/></g></svg>