<svg xmlns="http://www.w3.org/2000/svg" xmlns:xlink="http://www.w3.org/1999/xlink" width="1000" zoomAndPan="magnify" viewBox="0 0 750 749.999995" height="1000" preserveAspectRatio="xMidYMid meet" version="1.0"><defs><clipPath id="8d459d3940"><path d="M 44 344 L 62 344 L 62 415.84375 L 44 415.84375 Z M 44 344 " clip-rule="nonzero"/></clipPath><clipPath id="5f89d4e7e4"><path d="M 498 334.15625 L 520 334.15625 L 520 370 L 498 370 Z M 498 334.15625 " clip-rule="nonzero"/></clipPath><clipPath id="7947cdbf26"><path d="M 529 344 L 547 344 L 547 415.84375 L 529 415.84375 Z M 529 344 " clip-rule="nonzero"/></clipPath></defs><rect x="-75" width="900" fill="#ffffff" y="-74.999999" height="899.999994" fill-opacity="1"/><rect x="-75" width="900" fill="#ffffff" y="-74.999999" height="899.999994" fill-opacity="1"/><g clip-path="url(#8d459d3940)"><path fill="#000000" d="M 44.21875 379.789062 C 44.21875 376.5 44.460938 373.375 44.9375 370.417969 C 45.414062 367.460938 45.960938 364.910156 46.578125 362.765625 C 47.199219 360.621094 48.082031 358.523438 49.226562 356.472656 C 50.371094 354.421875 51.273438 352.824219 51.941406 351.679688 C 52.609375 350.535156 53.609375 349.296875 54.945312 347.960938 C 56.28125 346.625 57.066406 345.816406 57.304688 345.527344 C 57.542969 345.242188 58.140625 344.742188 59.09375 344.027344 L 60.308594 344.027344 C 60.976562 344.027344 61.308594 344.242188 61.308594 344.671875 C 61.308594 344.8125 60.902344 345.3125 60.09375 346.171875 C 59.28125 347.03125 58.304688 348.292969 57.160156 349.964844 C 56.019531 351.632812 54.851562 353.683594 53.660156 356.113281 C 52.464844 358.546875 51.464844 361.835938 50.65625 365.984375 C 49.84375 370.132812 49.441406 374.734375 49.441406 379.789062 C 49.441406 384.84375 49.84375 389.421875 50.65625 393.519531 C 51.464844 397.621094 52.441406 400.9375 53.585938 403.460938 C 54.730469 405.988281 55.898438 408.039062 57.089844 409.613281 C 58.28125 411.1875 59.28125 412.449219 60.09375 413.40625 C 60.902344 414.359375 61.308594 414.859375 61.308594 414.90625 C 61.308594 415.335938 60.949219 415.550781 60.234375 415.550781 L 59.09375 415.550781 L 57.089844 413.832031 C 52.609375 409.78125 49.34375 404.726562 47.296875 398.671875 C 45.246094 392.613281 44.21875 386.320312 44.21875 379.789062 Z M 44.21875 379.789062 " fill-opacity="1" fill-rule="nonzero"/></g><path fill="#000000" d="M 72.175781 355.828125 C 74.84375 351.964844 78.492188 350.035156 83.113281 350.035156 C 85.402344 350.035156 87.691406 350.65625 89.976562 351.894531 C 92.265625 353.132812 94.125 355.328125 95.554688 358.472656 C 97.320312 362.433594 98.199219 367.867188 98.199219 374.78125 C 98.199219 382.171875 97.175781 387.824219 95.125 391.734375 C 94.171875 393.734375 92.863281 395.332031 91.195312 396.523438 C 89.527344 397.71875 88.070312 398.457031 86.832031 398.742188 C 85.59375 399.027344 84.378906 399.195312 83.1875 399.242188 C 81.945312 399.242188 80.707031 399.101562 79.46875 398.8125 C 78.230469 398.527344 76.777344 397.765625 75.105469 396.523438 C 73.4375 395.285156 72.128906 393.6875 71.175781 391.734375 C 69.125 387.824219 68.101562 382.171875 68.101562 374.78125 C 68.101562 366.484375 69.457031 360.167969 72.175781 355.828125 Z M 88.261719 354.96875 C 86.832031 353.445312 85.140625 352.679688 83.1875 352.679688 C 81.183594 352.679688 79.46875 353.445312 78.039062 354.96875 C 76.847656 356.210938 76.058594 357.925781 75.679688 360.121094 C 75.296875 362.3125 75.105469 366.890625 75.105469 373.851562 C 75.105469 381.386719 75.296875 386.34375 75.679688 388.730469 C 76.058594 391.113281 76.917969 392.996094 78.253906 394.378906 C 79.585938 395.808594 81.230469 396.523438 83.1875 396.523438 C 85.09375 396.523438 86.714844 395.808594 88.046875 394.378906 C 89.429688 392.949219 90.289062 390.945312 90.621094 388.371094 C 90.957031 385.796875 91.144531 380.957031 91.195312 373.851562 C 91.195312 366.9375 91.003906 362.382812 90.621094 360.191406 C 90.242188 357.996094 89.453125 356.257812 88.261719 354.96875 Z M 88.261719 354.96875 " fill-opacity="1" fill-rule="nonzero"/><path fill="#000000" d="M 106.636719 393.378906 C 106.636719 392.234375 107.042969 391.230469 107.851562 390.375 C 108.664062 389.515625 109.6875 389.085938 110.925781 389.085938 C 112.070312 389.085938 113.070312 389.46875 113.929688 390.230469 C 114.789062 390.992188 115.242188 392.019531 115.289062 393.304688 C 115.289062 394.5 114.882812 395.523438 114.074219 396.382812 C 113.261719 397.242188 112.238281 397.667969 111 397.667969 C 109.757812 397.667969 108.734375 397.265625 107.925781 396.453125 C 107.113281 395.644531 106.683594 394.617188 106.636719 393.378906 Z M 106.636719 393.378906 " fill-opacity="1" fill-rule="nonzero"/><path fill="#000000" d="M 127.800781 355.828125 C 130.46875 351.964844 134.117188 350.035156 138.738281 350.035156 C 141.027344 350.035156 143.316406 350.65625 145.601562 351.894531 C 147.890625 353.132812 149.75 355.328125 151.179688 358.472656 C 152.941406 362.433594 153.824219 367.867188 153.824219 374.78125 C 153.824219 382.171875 152.800781 387.824219 150.75 391.734375 C 149.796875 393.734375 148.488281 395.332031 146.816406 396.523438 C 145.148438 397.71875 143.695312 398.457031 142.457031 398.742188 C 141.21875 399.027344 140.003906 399.195312 138.8125 399.242188 C 137.570312 399.242188 136.332031 399.101562 135.09375 398.8125 C 133.855469 398.527344 132.398438 397.765625 130.730469 396.523438 C 129.0625 395.285156 127.753906 393.6875 126.800781 391.734375 C 124.75 387.824219 123.726562 382.171875 123.726562 374.78125 C 123.726562 366.484375 125.082031 360.167969 127.800781 355.828125 Z M 143.886719 354.96875 C 142.457031 353.445312 140.765625 352.679688 138.8125 352.679688 C 136.808594 352.679688 135.09375 353.445312 133.664062 354.96875 C 132.472656 356.210938 131.683594 357.925781 131.304688 360.121094 C 130.921875 362.3125 130.730469 366.890625 130.730469 373.851562 C 130.730469 381.386719 130.921875 386.34375 131.304688 388.730469 C 131.683594 391.113281 132.542969 392.996094 133.878906 394.378906 C 135.210938 395.808594 136.855469 396.523438 138.8125 396.523438 C 140.71875 396.523438 142.335938 395.808594 143.671875 394.378906 C 145.054688 392.949219 145.914062 390.945312 146.246094 388.371094 C 146.578125 385.796875 146.769531 380.957031 146.816406 373.851562 C 146.816406 366.9375 146.628906 362.382812 146.246094 360.191406 C 145.863281 357.996094 145.078125 356.257812 143.886719 354.96875 Z M 143.886719 354.96875 " fill-opacity="1" fill-rule="nonzero"/><path fill="#000000" d="M 163.546875 355.828125 C 166.21875 351.964844 169.863281 350.035156 174.488281 350.035156 C 176.773438 350.035156 179.0625 350.65625 181.351562 351.894531 C 183.640625 353.132812 185.496094 355.328125 186.929688 358.472656 C 188.691406 362.433594 189.574219 367.867188 189.574219 374.78125 C 189.574219 382.171875 188.546875 387.824219 186.5 391.734375 C 185.546875 393.734375 184.234375 395.332031 182.566406 396.523438 C 180.898438 397.71875 179.445312 398.457031 178.207031 398.742188 C 176.964844 399.027344 175.75 399.195312 174.558594 399.242188 C 173.320312 399.242188 172.082031 399.101562 170.839844 398.8125 C 169.601562 398.527344 168.148438 397.765625 166.480469 396.523438 C 164.8125 395.285156 163.5 393.6875 162.546875 391.734375 C 160.496094 387.824219 159.472656 382.171875 159.472656 374.78125 C 159.472656 366.484375 160.832031 360.167969 163.546875 355.828125 Z M 179.636719 354.96875 C 178.207031 353.445312 176.511719 352.679688 174.558594 352.679688 C 172.558594 352.679688 170.839844 353.445312 169.410156 354.96875 C 168.21875 356.210938 167.433594 357.925781 167.050781 360.121094 C 166.671875 362.3125 166.480469 366.890625 166.480469 373.851562 C 166.480469 381.386719 166.671875 386.34375 167.050781 388.730469 C 167.433594 391.113281 168.292969 392.996094 169.625 394.378906 C 170.960938 395.808594 172.605469 396.523438 174.558594 396.523438 C 176.464844 396.523438 178.085938 395.808594 179.421875 394.378906 C 180.804688 392.949219 181.660156 390.945312 181.996094 388.371094 C 182.328125 385.796875 182.519531 380.957031 182.566406 373.851562 C 182.566406 366.9375 182.375 362.382812 181.996094 360.191406 C 181.613281 357.996094 180.828125 356.257812 179.636719 354.96875 Z M 179.636719 354.96875 " fill-opacity="1" fill-rule="nonzero"/><path fill="#000000" d="M 199.296875 355.828125 C 201.964844 351.964844 205.613281 350.035156 210.234375 350.035156 C 212.523438 350.035156 214.8125 350.65625 217.097656 351.894531 C 219.386719 353.132812 221.246094 355.328125 222.675781 358.472656 C 224.441406 362.433594 225.320312 367.867188 225.320312 374.78125 C 225.320312 382.171875 224.296875 387.824219 222.246094 391.734375 C 221.292969 393.734375 219.984375 395.332031 218.316406 396.523438 C 216.648438 397.71875 215.191406 398.457031 213.953125 398.742188 C 212.714844 399.027344 211.5 399.195312 210.308594 399.242188 C 209.066406 399.242188 207.828125 399.101562 206.589844 398.8125 C 205.351562 398.527344 203.894531 397.765625 202.226562 396.523438 C 200.558594 395.285156 199.25 393.6875 198.296875 391.734375 C 196.246094 387.824219 195.222656 382.171875 195.222656 374.78125 C 195.222656 366.484375 196.578125 360.167969 199.296875 355.828125 Z M 215.382812 354.96875 C 213.953125 353.445312 212.261719 352.679688 210.308594 352.679688 C 208.304688 352.679688 206.589844 353.445312 205.160156 354.96875 C 203.96875 356.210938 203.179688 357.925781 202.800781 360.121094 C 202.417969 362.3125 202.226562 366.890625 202.226562 373.851562 C 202.226562 381.386719 202.417969 386.34375 202.800781 388.730469 C 203.179688 391.113281 204.039062 392.996094 205.375 394.378906 C 206.707031 395.808594 208.351562 396.523438 210.308594 396.523438 C 212.214844 396.523438 213.835938 395.808594 215.167969 394.378906 C 216.550781 392.949219 217.410156 390.945312 217.742188 388.371094 C 218.078125 385.796875 218.265625 380.957031 218.316406 373.851562 C 218.316406 366.9375 218.125 362.382812 217.742188 360.191406 C 217.363281 357.996094 216.574219 356.257812 215.382812 354.96875 Z M 215.382812 354.96875 " fill-opacity="1" fill-rule="nonzero"/><path fill="#000000" d="M 237.261719 364.554688 C 235.972656 364.554688 234.972656 364.148438 234.257812 363.339844 C 233.542969 362.527344 233.164062 361.476562 233.113281 360.191406 C 233.113281 357.570312 234.257812 355.230469 236.546875 353.183594 C 238.835938 351.132812 241.597656 350.105469 244.839844 350.105469 C 246.507812 350.105469 247.558594 350.128906 247.984375 350.175781 C 251.511719 350.75 254.207031 352.011719 256.066406 353.96875 C 257.925781 355.921875 258.878906 358.046875 258.925781 360.335938 C 258.925781 362.8125 258.113281 365.222656 256.492188 367.558594 C 254.875 369.894531 252.632812 371.585938 249.773438 372.636719 L 249.558594 372.777344 C 249.558594 372.828125 249.773438 372.898438 250.203125 372.992188 C 250.632812 373.089844 251.324219 373.304688 252.277344 373.636719 C 253.230469 373.972656 254.132812 374.472656 254.992188 375.140625 C 258.902344 377.667969 260.855469 381.003906 260.855469 385.152344 C 260.855469 388.917969 259.378906 392.210938 256.421875 395.023438 C 253.46875 397.835938 249.726562 399.242188 245.199219 399.242188 C 241.382812 399.242188 238.09375 398.21875 235.332031 396.167969 C 232.566406 394.117188 231.183594 391.519531 231.183594 388.371094 C 231.183594 387.035156 231.613281 385.964844 232.472656 385.152344 C 233.328125 384.34375 234.402344 383.914062 235.6875 383.867188 C 237.023438 383.867188 238.121094 384.292969 238.976562 385.152344 C 239.835938 386.011719 240.265625 387.082031 240.265625 388.371094 C 240.265625 388.894531 240.191406 389.371094 240.050781 389.800781 C 239.90625 390.230469 239.738281 390.613281 239.550781 390.945312 C 239.359375 391.28125 239.097656 391.566406 238.761719 391.804688 C 238.429688 392.042969 238.144531 392.234375 237.90625 392.375 C 237.667969 392.519531 237.429688 392.613281 237.191406 392.664062 C 236.953125 392.710938 236.761719 392.78125 236.617188 392.878906 L 236.332031 392.949219 C 238.761719 395.09375 241.71875 396.167969 245.199219 396.167969 C 247.820312 396.167969 249.796875 394.902344 251.132812 392.375 C 251.941406 390.804688 252.347656 388.394531 252.347656 385.152344 L 252.347656 383.722656 C 252.347656 379.191406 250.820312 376.164062 247.769531 374.640625 C 247.054688 374.351562 245.601562 374.1875 243.410156 374.136719 L 240.40625 374.066406 L 240.191406 373.921875 C 240.097656 373.78125 240.050781 373.398438 240.050781 372.777344 C 240.050781 371.921875 240.242188 371.492188 240.621094 371.492188 C 241.957031 371.492188 243.339844 371.371094 244.769531 371.132812 C 246.390625 370.894531 247.867188 369.894531 249.203125 368.128906 C 250.535156 366.367188 251.203125 363.695312 251.203125 360.121094 L 251.203125 359.546875 C 251.203125 356.828125 250.371094 354.945312 248.699219 353.898438 C 247.652344 353.230469 246.53125 352.894531 245.339844 352.894531 C 243.816406 352.894531 242.410156 353.15625 241.121094 353.683594 C 239.835938 354.207031 238.929688 354.753906 238.40625 355.328125 C 237.882812 355.898438 237.617188 356.1875 237.617188 356.1875 L 237.832031 356.1875 C 237.976562 356.234375 238.167969 356.28125 238.40625 356.328125 C 238.644531 356.375 238.882812 356.496094 239.121094 356.6875 C 239.359375 356.878906 239.644531 357.042969 239.976562 357.1875 C 240.3125 357.332031 240.550781 357.59375 240.691406 357.972656 C 240.835938 358.355469 241.027344 358.710938 241.265625 359.046875 C 241.503906 359.378906 241.574219 359.855469 241.480469 360.476562 C 241.480469 361.527344 241.144531 362.457031 240.480469 363.265625 C 239.8125 364.078125 238.738281 364.507812 237.261719 364.554688 Z M 237.261719 364.554688 " fill-opacity="1" fill-rule="nonzero"/><path fill="#000000" d="M 270.792969 355.828125 C 273.460938 351.964844 277.109375 350.035156 281.730469 350.035156 C 284.019531 350.035156 286.308594 350.65625 288.597656 351.894531 C 290.882812 353.132812 292.742188 355.328125 294.171875 358.472656 C 295.9375 362.433594 296.816406 367.867188 296.816406 374.78125 C 296.816406 382.171875 295.792969 387.824219 293.742188 391.734375 C 292.789062 393.734375 291.480469 395.332031 289.8125 396.523438 C 288.144531 397.71875 286.691406 398.457031 285.449219 398.742188 C 284.210938 399.027344 282.996094 399.195312 281.804688 399.242188 C 280.566406 399.242188 279.324219 399.101562 278.085938 398.8125 C 276.847656 398.527344 275.394531 397.765625 273.726562 396.523438 C 272.054688 395.285156 270.746094 393.6875 269.792969 391.734375 C 267.742188 387.824219 266.71875 382.171875 266.71875 374.78125 C 266.71875 366.484375 268.078125 360.167969 270.792969 355.828125 Z M 286.878906 354.96875 C 285.449219 353.445312 283.757812 352.679688 281.804688 352.679688 C 279.800781 352.679688 278.085938 353.445312 276.65625 354.96875 C 275.464844 356.210938 274.679688 357.925781 274.296875 360.121094 C 273.914062 362.3125 273.726562 366.890625 273.726562 373.851562 C 273.726562 381.386719 273.914062 386.34375 274.296875 388.730469 C 274.679688 391.113281 275.535156 392.996094 276.871094 394.378906 C 278.207031 395.808594 279.851562 396.523438 281.804688 396.523438 C 283.710938 396.523438 285.332031 395.808594 286.664062 394.378906 C 288.046875 392.949219 288.90625 390.945312 289.238281 388.371094 C 289.574219 385.796875 289.765625 380.957031 289.8125 373.851562 C 289.8125 366.9375 289.621094 362.382812 289.238281 360.191406 C 288.859375 357.996094 288.070312 356.257812 286.878906 354.96875 Z M 286.878906 354.96875 " fill-opacity="1" fill-rule="nonzero"/><path fill="#000000" d="M 332.710938 397.667969 C 331.851562 397.527344 328.777344 397.453125 323.488281 397.453125 C 317.957031 397.453125 314.765625 397.527344 313.90625 397.667969 L 313.261719 397.667969 L 313.261719 394.378906 L 315.480469 394.378906 C 316.433594 394.378906 317.074219 394.378906 317.410156 394.378906 C 317.742188 394.378906 318.148438 394.332031 318.625 394.234375 C 319.101562 394.140625 319.433594 394.023438 319.625 393.878906 C 319.816406 393.734375 319.984375 393.542969 320.125 393.304688 C 320.171875 393.210938 320.199219 391.921875 320.199219 389.445312 L 320.199219 385.867188 L 301.679688 385.867188 L 301.679688 382.578125 L 312.476562 366.054688 C 319.769531 354.992188 323.460938 349.4375 323.558594 349.390625 C 323.652344 349.296875 324.152344 349.246094 325.058594 349.246094 L 326.347656 349.246094 L 326.773438 349.675781 L 326.773438 382.578125 L 333.351562 382.578125 L 333.351562 385.867188 L 326.773438 385.867188 L 326.773438 389.515625 C 326.773438 391.472656 326.773438 392.613281 326.773438 392.949219 C 326.773438 393.28125 326.917969 393.570312 327.203125 393.808594 C 327.585938 394.140625 328.945312 394.332031 331.28125 394.378906 L 333.351562 394.378906 L 333.351562 397.667969 Z M 320.625 382.578125 L 320.625 358.6875 L 304.96875 382.507812 L 312.761719 382.578125 Z M 320.625 382.578125 " fill-opacity="1" fill-rule="nonzero"/><path fill="#000000" d="M 396.355469 395.59375 C 396.355469 396.550781 395.855469 397.027344 394.855469 397.027344 C 394.617188 397.027344 394.089844 396.644531 393.28125 395.882812 C 392.472656 395.117188 390.230469 392.902344 386.5625 389.230469 L 379.125 381.792969 L 371.617188 389.300781 C 366.566406 394.261719 363.96875 396.789062 363.824219 396.882812 C 363.632812 396.976562 363.46875 397.027344 363.324219 397.027344 C 362.941406 397.027344 362.609375 396.882812 362.324219 396.597656 C 362.039062 396.308594 361.871094 395.976562 361.824219 395.59375 C 361.824219 395.261719 362.15625 394.738281 362.824219 394.023438 C 363.492188 393.304688 365.730469 391.042969 369.542969 387.226562 L 376.980469 379.789062 L 369.542969 372.351562 C 365.683594 368.488281 363.445312 366.222656 362.824219 365.554688 C 362.203125 364.886719 361.871094 364.363281 361.824219 363.980469 C 361.824219 363.550781 361.964844 363.21875 362.25 362.980469 C 362.539062 362.742188 362.894531 362.621094 363.324219 362.621094 C 363.5625 362.621094 363.730469 362.648438 363.824219 362.695312 C 363.96875 362.789062 366.566406 365.316406 371.617188 370.277344 L 379.125 377.785156 L 386.5625 370.347656 C 390.230469 366.675781 392.472656 364.457031 393.28125 363.695312 C 394.089844 362.933594 394.617188 362.550781 394.855469 362.550781 C 395.855469 362.550781 396.355469 363.027344 396.355469 363.980469 C 396.355469 364.316406 396.117188 364.746094 395.640625 365.269531 C 395.164062 365.792969 392.828125 368.128906 388.632812 372.277344 L 381.199219 379.789062 L 388.632812 387.296875 C 392.636719 391.304688 394.925781 393.617188 395.496094 394.234375 C 396.070312 394.855469 396.355469 395.308594 396.355469 395.59375 Z M 396.355469 395.59375 " fill-opacity="1" fill-rule="nonzero"/><path fill="#000000" d="M 438.050781 356.328125 L 437.125 356.6875 C 436.457031 356.925781 435.503906 357.164062 434.261719 357.402344 C 433.023438 357.640625 431.640625 357.808594 430.117188 357.902344 L 428.757812 357.902344 L 428.757812 354.613281 L 430.117188 354.613281 C 432.355469 354.515625 434.429688 354.160156 436.335938 353.539062 C 438.242188 352.917969 439.578125 352.347656 440.339844 351.824219 C 441.101562 351.296875 441.769531 350.773438 442.34375 350.25 C 442.4375 350.105469 442.722656 350.035156 443.199219 350.035156 C 443.628906 350.035156 444.035156 350.175781 444.414062 350.464844 L 444.414062 371.847656 L 444.488281 393.304688 C 444.820312 393.640625 445.105469 393.855469 445.34375 393.949219 C 445.582031 394.046875 446.15625 394.140625 447.0625 394.234375 C 447.964844 394.332031 449.445312 394.378906 451.492188 394.378906 L 453.351562 394.378906 L 453.351562 397.667969 L 452.566406 397.667969 C 451.566406 397.527344 447.777344 397.453125 441.199219 397.453125 C 434.714844 397.453125 430.972656 397.527344 429.972656 397.667969 L 429.117188 397.667969 L 429.117188 394.378906 L 430.972656 394.378906 C 432.023438 394.378906 432.929688 394.378906 433.691406 394.378906 C 434.453125 394.378906 435.050781 394.355469 435.480469 394.308594 C 435.90625 394.261719 436.289062 394.1875 436.621094 394.09375 C 436.957031 393.996094 437.148438 393.949219 437.195312 393.949219 C 437.242188 393.949219 437.386719 393.832031 437.625 393.59375 C 437.863281 393.355469 438.003906 393.257812 438.050781 393.304688 Z M 438.050781 356.328125 " fill-opacity="1" fill-rule="nonzero"/><path fill="#000000" d="M 465.4375 355.828125 C 468.105469 351.964844 471.75 350.035156 476.375 350.035156 C 478.664062 350.035156 480.949219 350.65625 483.238281 351.894531 C 485.527344 353.132812 487.386719 355.328125 488.816406 358.472656 C 490.578125 362.433594 491.460938 367.867188 491.460938 374.78125 C 491.460938 382.171875 490.4375 387.824219 488.386719 391.734375 C 487.433594 393.734375 486.121094 395.332031 484.453125 396.523438 C 482.785156 397.71875 481.332031 398.457031 480.09375 398.742188 C 478.851562 399.027344 477.636719 399.195312 476.445312 399.242188 C 475.207031 399.242188 473.96875 399.101562 472.726562 398.8125 C 471.488281 398.527344 470.035156 397.765625 468.367188 396.523438 C 466.699219 395.285156 465.386719 393.6875 464.433594 391.734375 C 462.386719 387.824219 461.359375 382.171875 461.359375 374.78125 C 461.359375 366.484375 462.71875 360.167969 465.4375 355.828125 Z M 481.523438 354.96875 C 480.09375 353.445312 478.402344 352.679688 476.445312 352.679688 C 474.445312 352.679688 472.726562 353.445312 471.296875 354.96875 C 470.105469 356.210938 469.320312 357.925781 468.9375 360.121094 C 468.558594 362.3125 468.367188 366.890625 468.367188 373.851562 C 468.367188 381.386719 468.558594 386.34375 468.9375 388.730469 C 469.320312 391.113281 470.179688 392.996094 471.511719 394.378906 C 472.847656 395.808594 474.492188 396.523438 476.445312 396.523438 C 478.351562 396.523438 479.972656 395.808594 481.308594 394.378906 C 482.691406 392.949219 483.546875 390.945312 483.882812 388.371094 C 484.214844 385.796875 484.40625 380.957031 484.453125 373.851562 C 484.453125 366.9375 484.261719 362.382812 483.882812 360.191406 C 483.5 357.996094 482.714844 356.257812 481.523438 354.96875 Z M 481.523438 354.96875 " fill-opacity="1" fill-rule="nonzero"/><g clip-path="url(#5f89d4e7e4)"><path fill="#000000" d="M 500.21875 347.042969 C 500.21875 347.042969 500.21875 345.746094 500.21875 343.148438 C 500.21875 340.554688 501.128906 338.464844 502.949219 336.878906 C 504.765625 335.296875 506.855469 334.484375 509.214844 334.453125 C 511.609375 334.453125 513.730469 335.160156 515.585938 336.578125 C 517.4375 337.992188 518.363281 339.828125 518.363281 342.089844 C 518.363281 343.097656 518.179688 344.042969 517.808594 344.917969 C 517.4375 345.796875 517 346.503906 516.496094 347.042969 C 515.988281 347.582031 515.464844 348.054688 514.925781 348.460938 C 514.386719 348.863281 513.949219 349.167969 513.613281 349.371094 C 513.277344 349.570312 513.089844 349.707031 513.058594 349.773438 L 513.765625 350.230469 C 514.238281 350.566406 514.707031 350.902344 515.179688 351.242188 C 515.652344 351.578125 515.921875 351.761719 515.988281 351.796875 C 518.515625 353.785156 519.78125 356.296875 519.78125 359.332031 C 519.78125 361.996094 518.804688 364.304688 516.847656 366.257812 C 514.894531 368.214844 512.367188 369.207031 509.265625 369.242188 C 506.234375 369.242188 503.738281 368.382812 501.785156 366.664062 C 499.832031 364.945312 498.851562 362.820312 498.851562 360.292969 C 498.851562 356.652344 501.027344 353.617188 505.375 351.191406 L 504.464844 350.53125 C 503.757812 350.09375 503.300781 349.757812 503.097656 349.519531 C 501.179688 347.871094 500.21875 345.746094 500.21875 343.148438 Z M 511.136719 348.609375 L 511.441406 348.410156 C 511.640625 348.273438 511.792969 348.171875 511.894531 348.105469 C 511.996094 348.039062 512.164062 347.921875 512.398438 347.75 C 512.636719 347.582031 512.839844 347.414062 513.007812 347.246094 C 513.175781 347.078125 513.359375 346.875 513.5625 346.640625 C 513.765625 346.402344 513.949219 346.183594 514.117188 345.980469 C 514.289062 345.78125 514.457031 345.507812 514.625 345.171875 C 514.792969 344.835938 514.945312 344.550781 515.078125 344.3125 C 515.214844 344.078125 515.296875 343.738281 515.332031 343.300781 C 515.367188 342.863281 515.398438 342.492188 515.433594 342.1875 C 515.433594 340.738281 514.945312 339.507812 513.96875 338.496094 C 512.988281 337.488281 511.859375 336.847656 510.582031 336.578125 C 510.34375 336.542969 509.789062 336.527344 508.914062 336.527344 C 507.53125 336.527344 506.234375 336.964844 505.019531 337.839844 C 503.808594 338.71875 503.183594 339.8125 503.148438 341.128906 C 503.148438 341.902344 503.367188 342.609375 503.808594 343.25 C 504.246094 343.890625 504.683594 344.378906 505.121094 344.71875 C 505.558594 345.054688 506.402344 345.59375 507.648438 346.335938 C 507.882812 346.503906 508.070312 346.621094 508.203125 346.691406 Z M 509.316406 367.066406 C 511.269531 367.066406 512.957031 366.496094 514.371094 365.347656 C 515.785156 364.203125 516.496094 362.820312 516.496094 361.203125 C 516.496094 360.628906 516.410156 360.089844 516.242188 359.585938 C 516.074219 359.078125 515.871094 358.65625 515.636719 358.320312 C 515.398438 357.984375 515.027344 357.613281 514.523438 357.207031 C 514.019531 356.804688 513.628906 356.5 513.359375 356.296875 C 513.089844 356.09375 512.601562 355.773438 511.894531 355.335938 C 511.1875 354.898438 510.730469 354.613281 510.53125 354.476562 C 510.058594 354.171875 509.550781 353.851562 509.011719 353.515625 C 508.472656 353.179688 508.035156 352.890625 507.699219 352.65625 L 507.292969 352.402344 C 507.09375 352.402344 506.605469 352.691406 505.828125 353.261719 C 505.054688 353.835938 504.246094 354.761719 503.402344 356.042969 C 502.558594 357.324219 502.121094 358.707031 502.089844 360.191406 C 502.089844 362.179688 502.8125 363.816406 504.261719 365.097656 C 505.710938 366.378906 507.394531 367.035156 509.316406 367.066406 Z M 509.316406 367.066406 " fill-opacity="1" fill-rule="nonzero"/></g><g clip-path="url(#7947cdbf26)"><path fill="#000000" d="M 529.824219 344.097656 L 530.113281 344.027344 C 530.351562 344.027344 530.589844 344.027344 530.828125 344.027344 L 531.683594 344.027344 L 533.6875 345.742188 C 538.167969 349.796875 541.433594 354.851562 543.480469 360.90625 C 545.53125 366.960938 546.554688 373.257812 546.554688 379.789062 C 546.554688 383.03125 546.316406 386.152344 545.839844 389.15625 C 545.363281 392.160156 544.816406 394.714844 544.195312 396.8125 C 543.578125 398.910156 542.695312 401.007812 541.550781 403.105469 C 540.40625 405.203125 539.5 406.800781 538.835938 407.898438 C 538.167969 408.992188 537.191406 410.210938 535.902344 411.546875 C 534.617188 412.878906 533.851562 413.667969 533.613281 413.90625 C 533.375 414.144531 532.828125 414.597656 531.96875 415.265625 C 531.828125 415.40625 531.730469 415.503906 531.683594 415.550781 L 530.828125 415.550781 C 530.445312 415.550781 530.183594 415.550781 530.039062 415.550781 C 529.898438 415.550781 529.777344 415.480469 529.683594 415.335938 C 529.585938 415.191406 529.515625 414.976562 529.46875 414.691406 C 529.515625 414.644531 529.777344 414.335938 530.253906 413.761719 C 537.640625 406.085938 541.335938 394.761719 541.335938 379.789062 C 541.335938 364.816406 537.640625 353.492188 530.253906 345.816406 C 529.777344 345.242188 529.515625 344.933594 529.46875 344.886719 C 529.46875 344.503906 529.585938 344.242188 529.824219 344.097656 Z M 529.824219 344.097656 " fill-opacity="1" fill-rule="nonzero"/></g><path fill="#000000" d="M 614.277344 395.59375 C 614.277344 396.550781 613.777344 397.027344 612.777344 397.027344 C 612.539062 397.027344 612.011719 396.644531 611.203125 395.882812 C 610.394531 395.117188 608.152344 392.902344 604.480469 389.230469 L 597.046875 381.792969 L 589.539062 389.300781 C 584.488281 394.261719 581.890625 396.789062 581.746094 396.882812 C 581.554688 396.976562 581.390625 397.027344 581.246094 397.027344 C 580.863281 397.027344 580.53125 396.882812 580.246094 396.597656 C 579.957031 396.308594 579.792969 395.976562 579.746094 395.59375 C 579.746094 395.261719 580.078125 394.738281 580.746094 394.023438 C 581.414062 393.304688 583.652344 391.042969 587.464844 387.226562 L 594.902344 379.789062 L 587.464844 372.351562 C 583.605469 368.488281 581.363281 366.222656 580.746094 365.554688 C 580.125 364.886719 579.792969 364.363281 579.746094 363.980469 C 579.746094 363.550781 579.886719 363.21875 580.171875 362.980469 C 580.460938 362.742188 580.816406 362.621094 581.246094 362.621094 C 581.484375 362.621094 581.652344 362.648438 581.746094 362.695312 C 581.890625 362.789062 584.488281 365.316406 589.539062 370.277344 L 597.046875 377.785156 L 604.480469 370.347656 C 608.152344 366.675781 610.394531 364.457031 611.203125 363.695312 C 612.011719 362.933594 612.539062 362.550781 612.777344 362.550781 C 613.777344 362.550781 614.277344 363.027344 614.277344 363.980469 C 614.277344 364.316406 614.039062 364.746094 613.5625 365.269531 C 613.085938 365.792969 610.75 368.128906 606.554688 372.277344 L 599.121094 379.789062 L 606.554688 387.296875 C 610.558594 391.304688 612.847656 393.617188 613.417969 394.234375 C 613.992188 394.855469 614.277344 395.308594 614.277344 395.59375 Z M 614.277344 395.59375 " fill-opacity="1" fill-rule="nonzero"/><path fill="#000000" d="M 655.972656 356.328125 L 655.042969 356.6875 C 654.378906 356.925781 653.425781 357.164062 652.183594 357.402344 C 650.945312 357.640625 649.5625 357.808594 648.039062 357.902344 L 646.679688 357.902344 L 646.679688 354.613281 L 648.039062 354.613281 C 650.277344 354.515625 652.351562 354.160156 654.257812 353.539062 C 656.164062 352.917969 657.5 352.347656 658.261719 351.824219 C 659.023438 351.296875 659.691406 350.773438 660.265625 350.25 C 660.359375 350.105469 660.644531 350.035156 661.121094 350.035156 C 661.550781 350.035156 661.957031 350.175781 662.335938 350.464844 L 662.335938 371.847656 L 662.410156 393.304688 C 662.742188 393.640625 663.027344 393.855469 663.265625 393.949219 C 663.503906 394.046875 664.078125 394.140625 664.984375 394.234375 C 665.886719 394.332031 667.367188 394.378906 669.414062 394.378906 L 671.273438 394.378906 L 671.273438 397.667969 L 670.488281 397.667969 C 669.488281 397.527344 665.699219 397.453125 659.121094 397.453125 C 652.636719 397.453125 648.894531 397.527344 647.894531 397.667969 L 647.039062 397.667969 L 647.039062 394.378906 L 648.894531 394.378906 C 649.945312 394.378906 650.851562 394.378906 651.613281 394.378906 C 652.375 394.378906 652.972656 394.355469 653.398438 394.308594 C 653.828125 394.261719 654.210938 394.1875 654.542969 394.09375 C 654.878906 393.996094 655.070312 393.949219 655.117188 393.949219 C 655.164062 393.949219 655.308594 393.832031 655.546875 393.59375 C 655.785156 393.355469 655.925781 393.257812 655.972656 393.304688 Z M 655.972656 356.328125 " fill-opacity="1" fill-rule="nonzero"/><path fill="#000000" d="M 688.21875 386.441406 C 688.21875 387.585938 687.835938 388.539062 687.074219 389.300781 C 686.3125 390.0625 685.382812 390.445312 684.285156 390.445312 L 683.785156 390.445312 C 685.980469 394.210938 688.886719 396.097656 692.507812 396.097656 C 695.84375 396.097656 698.277344 394.664062 699.800781 391.804688 C 700.707031 390.230469 701.160156 387.179688 701.160156 382.648438 C 701.160156 377.738281 700.515625 374.425781 699.230469 372.707031 C 697.992188 371.132812 696.609375 370.347656 695.082031 370.347656 L 694.652344 370.347656 C 690.9375 370.347656 688.125 371.96875 686.21875 375.210938 C 686.027344 375.542969 685.859375 375.734375 685.714844 375.78125 C 685.574219 375.832031 685.214844 375.878906 684.644531 375.925781 C 683.835938 375.925781 683.382812 375.78125 683.285156 375.496094 C 683.191406 375.304688 683.144531 371.132812 683.144531 362.980469 L 683.144531 353.753906 C 683.144531 351.371094 683.261719 350.175781 683.5 350.175781 C 683.59375 350.082031 683.691406 350.035156 683.785156 350.035156 C 683.835938 350.035156 684.335938 350.226562 685.289062 350.605469 C 686.242188 350.988281 687.550781 351.371094 689.21875 351.75 C 690.886719 352.132812 692.675781 352.324219 694.582031 352.324219 C 697.964844 352.324219 701.207031 351.65625 704.304688 350.320312 C 704.6875 350.128906 704.996094 350.035156 705.234375 350.035156 C 705.617188 350.035156 705.808594 350.464844 705.808594 351.320312 L 705.808594 352.25 C 701.898438 356.878906 697.011719 359.191406 691.152344 359.191406 C 689.671875 359.191406 688.339844 359.046875 687.148438 358.761719 L 686.433594 358.617188 L 686.433594 370.917969 C 687.335938 370.253906 688.050781 369.726562 688.578125 369.347656 C 689.101562 368.964844 689.957031 368.582031 691.152344 368.203125 C 692.34375 367.820312 693.558594 367.628906 694.796875 367.628906 C 698.65625 367.628906 701.921875 369.179688 704.59375 372.277344 C 707.261719 375.378906 708.59375 379.050781 708.59375 383.292969 C 708.59375 387.679688 707.070312 391.421875 704.019531 394.523438 C 700.96875 397.621094 697.25 399.195312 692.867188 399.242188 C 689.003906 399.242188 685.90625 397.957031 683.570312 395.378906 C 681.234375 392.804688 680.070312 389.898438 680.070312 386.65625 C 680.070312 385.511719 680.332031 384.605469 680.855469 383.9375 C 681.378906 383.269531 681.925781 382.839844 682.5 382.648438 C 683.070312 382.457031 683.621094 382.363281 684.144531 382.363281 C 685.335938 382.363281 686.3125 382.769531 687.074219 383.578125 C 687.835938 384.390625 688.21875 385.34375 688.21875 386.441406 Z M 688.21875 386.441406 " fill-opacity="1" fill-rule="nonzero"/></svg>