<svg xmlns="http://www.w3.org/2000/svg" xmlns:xlink="http://www.w3.org/1999/xlink" width="1000" zoomAndPan="magnify" viewBox="0 0 750 749.999995" height="1000" preserveAspectRatio="xMidYMid meet" version="1.0"><defs><g/><clipPath id="542027c677"><path d="M 93.742188 243.679688 L 656.257812 243.679688 L 656.257812 506.320312 L 93.742188 506.320312 Z M 93.742188 243.679688 " clip-rule="nonzero"/></clipPath><clipPath id="0cd6eb43ea"><path d="M 93.742188 243.679688 L 656.242188 243.679688 L 656.242188 506.179688 L 93.742188 506.179688 Z M 93.742188 243.679688 " clip-rule="nonzero"/></clipPath></defs><rect x="-75" width="900" fill="#ffffff" y="-74.999999" height="899.999994" fill-opacity="1"/><rect x="-75" width="900" fill="#ffffff" y="-74.999999" height="899.999994" fill-opacity="1"/><g clip-path="url(#542027c677)"><path fill="#ffffff" d="M 93.742188 243.679688 L 656.242188 243.679688 L 656.242188 506.179688 L 93.742188 506.179688 Z M 93.742188 243.679688 " fill-opacity="1" fill-rule="nonzero"/></g><g clip-path="url(#0cd6eb43ea)"><path stroke-linecap="butt" transform="matrix(0.749984, 0, 0, 0.749598, 93.74282, 243.678875)" fill="none" stroke-linejoin="miter" d="M -0.000842926 0.00108455 L 750.014866 0.00108455 L 750.014866 350.1886 L -0.000842926 350.1886 L -0.000842926 0.00108455 " stroke="#000000" stroke-width="8" stroke-opacity="1" stroke-miterlimit="4"/></g><g fill="#000000" fill-opacity="1"><g transform="translate(296.548493, 228.873582)"><g><path d="M 39.390625 0 L 29.3125 0 L 29.3125 -21.578125 C 29.3125 -24.242188 28.835938 -26.242188 27.890625 -27.578125 C 26.941406 -28.910156 25.429688 -29.578125 23.359375 -29.578125 C 20.535156 -29.578125 18.492188 -28.632812 17.234375 -26.75 C 15.984375 -24.863281 15.359375 -21.738281 15.359375 -17.375 L 15.359375 0 L 5.28125 0 L 5.28125 -36.9375 L 12.984375 -36.9375 L 14.34375 -32.21875 L 14.90625 -32.21875 C 16.03125 -34 17.578125 -35.347656 19.546875 -36.265625 C 21.515625 -37.179688 23.753906 -37.640625 26.265625 -37.640625 C 30.566406 -37.640625 33.828125 -36.472656 36.046875 -34.140625 C 38.273438 -31.816406 39.390625 -28.46875 39.390625 -24.09375 Z M 39.390625 0 "/></g></g></g><g fill="#000000" fill-opacity="1"><g transform="translate(341.026098, 228.873582)"><g/></g></g><g fill="#000000" fill-opacity="1"><g transform="translate(358.605656, 228.873582)"><g><path d="M 15.703125 -20.21875 L 2.90625 -20.21875 L 2.90625 -27.453125 L 15.703125 -27.453125 L 15.703125 -40.34375 L 22.9375 -40.34375 L 22.9375 -27.453125 L 35.71875 -27.453125 L 35.71875 -20.21875 L 22.9375 -20.21875 L 22.9375 -7.5 L 15.703125 -7.5 Z M 15.703125 -20.21875 "/></g></g></g><g fill="#000000" fill-opacity="1"><g transform="translate(397.234432, 228.873582)"><g/></g></g><g fill="#000000" fill-opacity="1"><g transform="translate(414.813991, 228.873582)"><g><path d="M 36.484375 0 L 2.703125 0 L 2.703125 -7.109375 L 14.84375 -19.359375 C 18.425781 -23.035156 20.769531 -25.582031 21.875 -27 C 22.976562 -28.425781 23.769531 -29.742188 24.25 -30.953125 C 24.738281 -32.171875 24.984375 -33.429688 24.984375 -34.734375 C 24.984375 -36.671875 24.445312 -38.113281 23.375 -39.0625 C 22.3125 -40.007812 20.882812 -40.484375 19.09375 -40.484375 C 17.226562 -40.484375 15.410156 -40.050781 13.640625 -39.1875 C 11.878906 -38.332031 10.039062 -37.109375 8.125 -35.515625 L 2.578125 -42.09375 C 4.953125 -44.125 6.921875 -45.554688 8.484375 -46.390625 C 10.054688 -47.222656 11.765625 -47.863281 13.609375 -48.3125 C 15.460938 -48.769531 17.535156 -49 19.828125 -49 C 22.847656 -49 25.515625 -48.445312 27.828125 -47.34375 C 30.140625 -46.25 31.929688 -44.707031 33.203125 -42.71875 C 34.484375 -40.738281 35.125 -38.472656 35.125 -35.921875 C 35.125 -33.691406 34.734375 -31.601562 33.953125 -29.65625 C 33.171875 -27.707031 31.957031 -25.707031 30.3125 -23.65625 C 28.675781 -21.601562 25.785156 -18.6875 21.640625 -14.90625 L 15.4375 -9.046875 L 15.4375 -8.59375 L 36.484375 -8.59375 Z M 36.484375 0 "/></g></g></g><g fill="#000000" fill-opacity="1"><g transform="translate(239.775298, 623.239822)"><g><path d="M 11.640625 -19.140625 L 13.984375 -19.140625 C 16.296875 -19.140625 18 -19.523438 19.09375 -20.296875 C 20.195312 -21.066406 20.75 -22.273438 20.75 -23.921875 C 20.75 -25.554688 20.1875 -26.71875 19.0625 -27.40625 C 17.9375 -28.101562 16.195312 -28.453125 13.84375 -28.453125 L 11.640625 -28.453125 Z M 11.640625 -13.21875 L 11.640625 0 L 4.328125 0 L 4.328125 -34.4375 L 14.359375 -34.4375 C 19.046875 -34.4375 22.507812 -33.582031 24.75 -31.875 C 27 -30.175781 28.125 -27.59375 28.125 -24.125 C 28.125 -22.09375 27.566406 -20.285156 26.453125 -18.703125 C 25.335938 -17.128906 23.757812 -15.894531 21.71875 -15 C 26.894531 -7.257812 30.269531 -2.257812 31.84375 0 L 23.734375 0 L 15.515625 -13.21875 Z M 11.640625 -13.21875 "/></g></g></g><g fill="#000000" fill-opacity="1"><g transform="translate(271.616921, 623.239822)"><g><path d="M 14.671875 -21.71875 C 13.148438 -21.71875 11.957031 -21.234375 11.09375 -20.265625 C 10.226562 -19.296875 9.734375 -17.925781 9.609375 -16.15625 L 19.6875 -16.15625 C 19.65625 -17.925781 19.191406 -19.296875 18.296875 -20.265625 C 17.398438 -21.234375 16.191406 -21.71875 14.671875 -21.71875 Z M 15.6875 0.46875 C 11.445312 0.46875 8.132812 -0.695312 5.75 -3.03125 C 3.363281 -5.375 2.171875 -8.691406 2.171875 -12.984375 C 2.171875 -17.390625 3.269531 -20.796875 5.46875 -23.203125 C 7.675781 -25.617188 10.726562 -26.828125 14.625 -26.828125 C 18.34375 -26.828125 21.238281 -25.765625 23.3125 -23.640625 C 25.382812 -21.523438 26.421875 -18.597656 26.421875 -14.859375 L 26.421875 -11.375 L 9.4375 -11.375 C 9.519531 -9.332031 10.125 -7.738281 11.25 -6.59375 C 12.382812 -5.445312 13.972656 -4.875 16.015625 -4.875 C 17.597656 -4.875 19.097656 -5.035156 20.515625 -5.359375 C 21.929688 -5.691406 23.40625 -6.222656 24.9375 -6.953125 L 24.9375 -1.390625 C 23.6875 -0.765625 22.34375 -0.300781 20.90625 0 C 19.476562 0.3125 17.738281 0.46875 15.6875 0.46875 Z M 15.6875 0.46875 "/></g></g></g><g fill="#000000" fill-opacity="1"><g transform="translate(300.114231, 623.239822)"><g><path d="M 14.453125 0.46875 C 6.265625 0.46875 2.171875 -4.03125 2.171875 -13.03125 C 2.171875 -17.5 3.285156 -20.914062 5.515625 -23.28125 C 7.742188 -25.644531 10.9375 -26.828125 15.09375 -26.828125 C 18.144531 -26.828125 20.878906 -26.226562 23.296875 -25.03125 L 21.171875 -19.484375 C 20.046875 -19.929688 18.992188 -20.300781 18.015625 -20.59375 C 17.046875 -20.882812 16.070312 -21.03125 15.09375 -21.03125 C 11.351562 -21.03125 9.484375 -18.378906 9.484375 -13.078125 C 9.484375 -7.921875 11.351562 -5.34375 15.09375 -5.34375 C 16.476562 -5.34375 17.757812 -5.523438 18.9375 -5.890625 C 20.113281 -6.265625 21.289062 -6.84375 22.46875 -7.625 L 22.46875 -1.484375 C 21.300781 -0.742188 20.125 -0.234375 18.9375 0.046875 C 17.757812 0.328125 16.265625 0.46875 14.453125 0.46875 Z M 14.453125 0.46875 "/></g></g></g><g fill="#000000" fill-opacity="1"><g transform="translate(324.913964, 623.239822)"><g><path d="M 14.859375 -5.25 C 16.117188 -5.25 17.628906 -5.523438 19.390625 -6.078125 L 19.390625 -0.734375 C 17.597656 0.0664062 15.394531 0.46875 12.78125 0.46875 C 9.914062 0.46875 7.828125 -0.253906 6.515625 -1.703125 C 5.203125 -3.160156 4.546875 -5.34375 4.546875 -8.25 L 4.546875 -20.9375 L 1.109375 -20.9375 L 1.109375 -23.96875 L 5.0625 -26.375 L 7.140625 -31.9375 L 11.734375 -31.9375 L 11.734375 -26.328125 L 19.09375 -26.328125 L 19.09375 -20.9375 L 11.734375 -20.9375 L 11.734375 -8.25 C 11.734375 -7.226562 12.019531 -6.472656 12.59375 -5.984375 C 13.164062 -5.492188 13.921875 -5.25 14.859375 -5.25 Z M 14.859375 -5.25 "/></g></g></g><g fill="#000000" fill-opacity="1"><g transform="translate(345.85125, 623.239822)"><g><path d="M 20.484375 0 L 19.09375 -3.578125 L 18.90625 -3.578125 C 17.695312 -2.054688 16.453125 -1 15.171875 -0.40625 C 13.898438 0.175781 12.234375 0.46875 10.171875 0.46875 C 7.640625 0.46875 5.648438 -0.25 4.203125 -1.6875 C 2.753906 -3.132812 2.03125 -5.191406 2.03125 -7.859375 C 2.03125 -10.660156 3.003906 -12.722656 4.953125 -14.046875 C 6.910156 -15.367188 9.859375 -16.101562 13.796875 -16.25 L 18.375 -16.390625 L 18.375 -17.546875 C 18.375 -20.210938 17.003906 -21.546875 14.265625 -21.546875 C 12.160156 -21.546875 9.691406 -20.910156 6.859375 -19.640625 L 4.46875 -24.5 C 7.5 -26.082031 10.863281 -26.875 14.5625 -26.875 C 18.09375 -26.875 20.796875 -26.101562 22.671875 -24.5625 C 24.554688 -23.019531 25.5 -20.679688 25.5 -17.546875 L 25.5 0 Z M 18.375 -12.203125 L 15.59375 -12.109375 C 13.5 -12.046875 11.941406 -11.664062 10.921875 -10.96875 C 9.898438 -10.28125 9.390625 -9.226562 9.390625 -7.8125 C 9.390625 -5.789062 10.554688 -4.78125 12.890625 -4.78125 C 14.546875 -4.78125 15.875 -5.257812 16.875 -6.21875 C 17.875 -7.175781 18.375 -8.445312 18.375 -10.03125 Z M 10.375 -29.234375 L 10.375 -29.859375 C 13.082031 -33.003906 14.929688 -35.367188 15.921875 -36.953125 L 23.96875 -36.953125 L 23.96875 -36.453125 C 23.15625 -35.640625 21.757812 -34.425781 19.78125 -32.8125 C 17.8125 -31.207031 16.269531 -30.015625 15.15625 -29.234375 Z M 10.375 -29.234375 "/></g></g></g><g fill="#000000" fill-opacity="1"><g transform="translate(374.984457, 623.239822)"><g><path d="M 28.078125 0 L 20.890625 0 L 20.890625 -15.375 C 20.890625 -17.28125 20.550781 -18.707031 19.875 -19.65625 C 19.195312 -20.601562 18.125 -21.078125 16.65625 -21.078125 C 14.644531 -21.078125 13.191406 -20.40625 12.296875 -19.0625 C 11.398438 -17.71875 10.953125 -15.492188 10.953125 -12.390625 L 10.953125 0 L 3.765625 0 L 3.765625 -26.328125 L 9.25 -26.328125 L 10.21875 -22.96875 L 10.625 -22.96875 C 11.425781 -24.238281 12.523438 -25.195312 13.921875 -25.84375 C 15.328125 -26.5 16.925781 -26.828125 18.71875 -26.828125 C 21.78125 -26.828125 24.101562 -26 25.6875 -24.34375 C 27.28125 -22.6875 28.078125 -20.296875 28.078125 -17.171875 Z M 28.078125 0 "/></g></g></g><g fill="#000000" fill-opacity="1"><g transform="translate(406.684771, 623.239822)"><g><path d="M 26.6875 -26.328125 L 26.6875 -22.6875 L 22.5625 -21.625 C 23.3125 -20.445312 23.6875 -19.125 23.6875 -17.65625 C 23.6875 -14.832031 22.703125 -12.628906 20.734375 -11.046875 C 18.765625 -9.472656 16.03125 -8.6875 12.53125 -8.6875 L 11.234375 -8.765625 L 10.171875 -8.875 C 9.429688 -8.3125 9.0625 -7.6875 9.0625 -7 C 9.0625 -5.957031 10.382812 -5.4375 13.03125 -5.4375 L 17.5 -5.4375 C 20.382812 -5.4375 22.582031 -4.816406 24.09375 -3.578125 C 25.613281 -2.335938 26.375 -0.515625 26.375 1.890625 C 26.375 4.960938 25.085938 7.347656 22.515625 9.046875 C 19.953125 10.742188 16.269531 11.59375 11.46875 11.59375 C 7.789062 11.59375 4.984375 10.953125 3.046875 9.671875 C 1.109375 8.390625 0.140625 6.59375 0.140625 4.28125 C 0.140625 2.695312 0.632812 1.367188 1.625 0.296875 C 2.613281 -0.765625 4.066406 -1.523438 5.984375 -1.984375 C 5.242188 -2.296875 4.597656 -2.804688 4.046875 -3.515625 C 3.503906 -4.234375 3.234375 -4.992188 3.234375 -5.796875 C 3.234375 -6.796875 3.519531 -7.628906 4.09375 -8.296875 C 4.675781 -8.960938 5.519531 -9.617188 6.625 -10.265625 C 5.238281 -10.859375 4.140625 -11.816406 3.328125 -13.140625 C 2.523438 -14.460938 2.125 -16.019531 2.125 -17.8125 C 2.125 -20.675781 3.054688 -22.894531 4.921875 -24.46875 C 6.785156 -26.039062 9.457031 -26.828125 12.9375 -26.828125 C 13.664062 -26.828125 14.535156 -26.757812 15.546875 -26.625 C 16.566406 -26.488281 17.21875 -26.390625 17.5 -26.328125 Z M 6.359375 3.71875 C 6.359375 4.707031 6.832031 5.484375 7.78125 6.046875 C 8.726562 6.617188 10.0625 6.90625 11.78125 6.90625 C 14.351562 6.90625 16.367188 6.550781 17.828125 5.84375 C 19.285156 5.132812 20.015625 4.164062 20.015625 2.9375 C 20.015625 1.945312 19.582031 1.265625 18.71875 0.890625 C 17.851562 0.515625 16.519531 0.328125 14.71875 0.328125 L 11 0.328125 C 9.675781 0.328125 8.570312 0.632812 7.6875 1.25 C 6.800781 1.875 6.359375 2.695312 6.359375 3.71875 Z M 8.96875 -17.71875 C 8.96875 -16.28125 9.289062 -15.144531 9.9375 -14.3125 C 10.59375 -13.488281 11.59375 -13.078125 12.9375 -13.078125 C 14.28125 -13.078125 15.265625 -13.488281 15.890625 -14.3125 C 16.523438 -15.144531 16.84375 -16.28125 16.84375 -17.71875 C 16.84375 -20.882812 15.539062 -22.46875 12.9375 -22.46875 C 10.289062 -22.46875 8.96875 -20.882812 8.96875 -17.71875 Z M 8.96875 -17.71875 "/></g></g></g><g fill="#000000" fill-opacity="1"><g transform="translate(433.933859, 623.239822)"><g><path d="M 22.421875 0 L 21.453125 -3.375 L 21.078125 -3.375 C 20.304688 -2.144531 19.210938 -1.195312 17.796875 -0.53125 C 16.390625 0.132812 14.785156 0.46875 12.984375 0.46875 C 9.890625 0.46875 7.554688 -0.359375 5.984375 -2.015625 C 4.410156 -3.671875 3.625 -6.050781 3.625 -9.15625 L 3.625 -26.328125 L 10.8125 -26.328125 L 10.8125 -10.953125 C 10.8125 -9.054688 11.144531 -7.628906 11.8125 -6.671875 C 12.488281 -5.722656 13.566406 -5.25 15.046875 -5.25 C 17.054688 -5.25 18.507812 -5.921875 19.40625 -7.265625 C 20.300781 -8.609375 20.75 -10.832031 20.75 -13.9375 L 20.75 -26.328125 L 27.9375 -26.328125 L 27.9375 0 Z M 22.421875 0 "/></g></g></g><g fill="#000000" fill-opacity="1"><g transform="translate(465.634173, 623.239822)"><g><path d="M 10.953125 0 L 3.765625 0 L 3.765625 -36.640625 L 10.953125 -36.640625 Z M 10.953125 0 "/></g></g></g><g fill="#000000" fill-opacity="1"><g transform="translate(480.353865, 623.239822)"><g><path d="M 9.484375 -13.21875 C 9.484375 -10.601562 9.910156 -8.628906 10.765625 -7.296875 C 11.628906 -5.960938 13.023438 -5.296875 14.953125 -5.296875 C 16.867188 -5.296875 18.242188 -5.957031 19.078125 -7.28125 C 19.921875 -8.613281 20.34375 -10.59375 20.34375 -13.21875 C 20.34375 -15.820312 19.921875 -17.773438 19.078125 -19.078125 C 18.234375 -20.378906 16.84375 -21.03125 14.90625 -21.03125 C 12.988281 -21.03125 11.601562 -20.378906 10.75 -19.078125 C 9.90625 -17.785156 9.484375 -15.832031 9.484375 -13.21875 Z M 27.703125 -13.21875 C 27.703125 -8.925781 26.570312 -5.570312 24.3125 -3.15625 C 22.050781 -0.738281 18.898438 0.46875 14.859375 0.46875 C 12.328125 0.46875 10.097656 -0.0820312 8.171875 -1.1875 C 6.242188 -2.289062 4.757812 -3.878906 3.71875 -5.953125 C 2.6875 -8.023438 2.171875 -10.445312 2.171875 -13.21875 C 2.171875 -17.519531 3.289062 -20.863281 5.53125 -23.25 C 7.78125 -25.632812 10.9375 -26.828125 15 -26.828125 C 17.53125 -26.828125 19.757812 -26.273438 21.6875 -25.171875 C 23.625 -24.078125 25.109375 -22.5 26.140625 -20.4375 C 27.179688 -18.382812 27.703125 -15.976562 27.703125 -13.21875 Z M 27.703125 -13.21875 "/></g></g></g><g fill="#000000" fill-opacity="1"><g transform="translate(674.99997, 400.380528)"><g><path d="M 27.953125 0 L 17.75 0 L 17.75 -27.953125 L 17.84375 -32.546875 L 18.015625 -37.5625 C 16.316406 -35.875 15.132812 -34.765625 14.46875 -34.234375 L 8.921875 -29.765625 L 4 -35.921875 L 19.5625 -48.3125 L 27.953125 -48.3125 Z M 27.953125 0 "/></g></g></g></svg>