<svg xmlns="http://www.w3.org/2000/svg" xmlns:xlink="http://www.w3.org/1999/xlink" width="1000" zoomAndPan="magnify" viewBox="0 0 750 749.999995" height="1000" preserveAspectRatio="xMidYMid meet" version="1.0"><defs><g/></defs><rect x="-75" width="900" fill="#ffffff" y="-74.999999" height="899.999994" fill-opacity="1"/><rect x="-75" width="900" fill="#ffffff" y="-74.999999" height="899.999994" fill-opacity="1"/><g fill="#000000" fill-opacity="1"><g transform="translate(34.172754, 463.467973)"><g><path d="M 127.171875 0 L 9.453125 0 L 9.453125 -24.765625 L 51.71875 -67.5 C 64.238281 -80.332031 72.414062 -89.222656 76.25 -94.171875 C 80.09375 -99.128906 82.859375 -103.71875 84.546875 -107.9375 C 86.242188 -112.164062 87.09375 -116.546875 87.09375 -121.078125 C 87.09375 -127.828125 85.226562 -132.851562 81.5 -136.15625 C 77.78125 -139.457031 72.804688 -141.109375 66.578125 -141.109375 C 60.054688 -141.109375 53.722656 -139.609375 47.578125 -136.609375 C 41.429688 -133.617188 35.019531 -129.363281 28.34375 -123.84375 L 8.984375 -146.765625 C 17.273438 -153.828125 24.144531 -158.816406 29.59375 -161.734375 C 35.050781 -164.648438 41.003906 -166.894531 47.453125 -168.46875 C 53.910156 -170.050781 61.132812 -170.84375 69.125 -170.84375 C 79.644531 -170.84375 88.9375 -168.921875 97 -165.078125 C 105.0625 -161.234375 111.316406 -155.851562 115.765625 -148.9375 C 120.222656 -142.03125 122.453125 -134.125 122.453125 -125.21875 C 122.453125 -117.457031 121.085938 -110.175781 118.359375 -103.375 C 115.640625 -96.582031 111.414062 -89.613281 105.6875 -82.46875 C 99.96875 -75.332031 89.890625 -65.160156 75.453125 -51.953125 L 53.796875 -31.5625 L 53.796875 -29.953125 L 127.171875 -29.953125 Z M 127.171875 0 "/></g></g><g transform="translate(168.833016, 463.467973)"><g><path d="M 137.3125 0 L 102.171875 0 L 102.171875 -75.21875 C 102.171875 -84.507812 100.519531 -91.476562 97.21875 -96.125 C 93.914062 -100.769531 88.65625 -103.09375 81.4375 -103.09375 C 71.613281 -103.09375 64.507812 -99.8125 60.125 -93.25 C 55.75 -86.6875 53.5625 -75.800781 53.5625 -60.59375 L 53.5625 0 L 18.4375 0 L 18.4375 -128.796875 L 45.265625 -128.796875 L 50 -112.3125 L 51.953125 -112.3125 C 55.867188 -118.53125 61.265625 -123.234375 68.140625 -126.421875 C 75.015625 -129.609375 82.828125 -131.203125 91.578125 -131.203125 C 106.554688 -131.203125 117.921875 -127.148438 125.671875 -119.046875 C 133.429688 -110.953125 137.3125 -99.265625 137.3125 -83.984375 Z M 137.3125 0 "/></g></g><g transform="translate(323.882385, 463.467973)"><g/></g><g transform="translate(385.164901, 463.467973)"><g><path d="M 54.71875 -70.5 L 10.140625 -70.5 L 10.140625 -95.734375 L 54.71875 -95.734375 L 54.71875 -140.65625 L 79.953125 -140.65625 L 79.953125 -95.734375 L 124.53125 -95.734375 L 124.53125 -70.5 L 79.953125 -70.5 L 79.953125 -26.15625 L 54.71875 -26.15625 Z M 54.71875 -70.5 "/></g></g><g transform="translate(519.825163, 463.467973)"><g/></g><g transform="translate(581.107678, 463.467973)"><g><path d="M 8.296875 -71.53125 C 8.296875 -104.863281 15.34375 -129.671875 29.4375 -145.953125 C 43.53125 -162.234375 64.628906 -170.375 92.734375 -170.375 C 102.328125 -170.375 109.851562 -169.796875 115.3125 -168.640625 L 115.3125 -140.1875 C 108.476562 -141.726562 101.71875 -142.5 95.03125 -142.5 C 82.820312 -142.5 72.859375 -140.65625 65.140625 -136.96875 C 57.421875 -133.28125 51.640625 -127.828125 47.796875 -120.609375 C 43.960938 -113.390625 41.703125 -103.140625 41.015625 -89.859375 L 42.5 -89.859375 C 50.101562 -102.910156 62.28125 -109.4375 79.03125 -109.4375 C 94.082031 -109.4375 105.867188 -104.710938 114.390625 -95.265625 C 122.910156 -85.816406 127.171875 -72.757812 127.171875 -56.09375 C 127.171875 -38.125 122.101562 -23.898438 111.96875 -13.421875 C 101.832031 -2.941406 87.78125 2.296875 69.8125 2.296875 C 57.363281 2.296875 46.515625 -0.578125 37.265625 -6.328125 C 28.015625 -12.085938 20.875 -20.5 15.84375 -31.5625 C 10.8125 -42.625 8.296875 -55.945312 8.296875 -71.53125 Z M 69.125 -26.15625 C 76.71875 -26.15625 82.550781 -28.707031 86.625 -33.8125 C 90.695312 -38.914062 92.734375 -46.191406 92.734375 -55.640625 C 92.734375 -63.859375 90.832031 -70.328125 87.03125 -75.046875 C 83.226562 -79.773438 77.488281 -82.140625 69.8125 -82.140625 C 62.59375 -82.140625 56.425781 -79.796875 51.3125 -75.109375 C 46.207031 -70.421875 43.65625 -64.96875 43.65625 -58.75 C 43.65625 -49.613281 46.054688 -41.894531 50.859375 -35.59375 C 55.660156 -29.300781 61.75 -26.15625 69.125 -26.15625 Z M 69.125 -26.15625 "/></g></g></g></svg>