<svg xmlns="http://www.w3.org/2000/svg" xmlns:xlink="http://www.w3.org/1999/xlink" width="1000" zoomAndPan="magnify" viewBox="0 0 750 749.999995" height="1000" preserveAspectRatio="xMidYMid meet" version="1.0"><defs><clipPath id="aa501019d8"><path d="M 79 342.199219 L 120 342.199219 L 120 407.796875 L 79 407.796875 Z M 79 342.199219 " clip-rule="nonzero"/></clipPath><clipPath id="559b25a1dc"><path d="M 153 342.199219 L 194 342.199219 L 194 407.796875 L 153 407.796875 Z M 153 342.199219 " clip-rule="nonzero"/></clipPath><clipPath id="3627c949af"><path d="M 201 342.199219 L 242 342.199219 L 242 407.796875 L 201 407.796875 Z M 201 342.199219 " clip-rule="nonzero"/></clipPath><clipPath id="0f3761f76a"><path d="M 248 342.199219 L 289 342.199219 L 289 407.796875 L 248 407.796875 Z M 248 342.199219 " clip-rule="nonzero"/></clipPath><clipPath id="4128b54bc5"><path d="M 296 342.199219 L 337 342.199219 L 337 407.796875 L 296 407.796875 Z M 296 342.199219 " clip-rule="nonzero"/></clipPath><clipPath id="a559beabe4"><path d="M 344 342.199219 L 385 342.199219 L 385 407.796875 L 344 407.796875 Z M 344 342.199219 " clip-rule="nonzero"/></clipPath><clipPath id="a278eac995"><path d="M 391 342.199219 L 432 342.199219 L 432 407.796875 L 391 407.796875 Z M 391 342.199219 " clip-rule="nonzero"/></clipPath><clipPath id="828f3321ff"><path d="M 439 342.199219 L 480 342.199219 L 480 407.796875 L 439 407.796875 Z M 439 342.199219 " clip-rule="nonzero"/></clipPath><clipPath id="7db80f6f0c"><path d="M 487 342.199219 L 528 342.199219 L 528 407.796875 L 487 407.796875 Z M 487 342.199219 " clip-rule="nonzero"/></clipPath><clipPath id="8304fe5255"><path d="M 535 342.199219 L 575 342.199219 L 575 407.796875 L 535 407.796875 Z M 535 342.199219 " clip-rule="nonzero"/></clipPath><clipPath id="fdece9392f"><path d="M 586 342.199219 L 620 342.199219 L 620 406 L 586 406 Z M 586 342.199219 " clip-rule="nonzero"/></clipPath><clipPath id="1e9570d580"><path d="M 631 342.199219 L 670 342.199219 L 670 406 L 631 406 Z M 631 342.199219 " clip-rule="nonzero"/></clipPath></defs><rect x="-75" width="900" fill="#ffffff" y="-74.999999" height="899.999994" fill-opacity="1"/><rect x="-75" width="900" fill="#ffffff" y="-74.999999" height="899.999994" fill-opacity="1"/><g clip-path="url(#aa501019d8)"><path fill="#000000" d="M 84.855469 349.925781 C 88.410156 344.777344 93.273438 342.199219 99.433594 342.199219 C 102.484375 342.199219 105.535156 343.027344 108.582031 344.679688 C 111.632812 346.332031 114.109375 349.257812 116.015625 353.453125 C 118.367188 358.726562 119.542969 365.972656 119.542969 375.191406 C 119.542969 385.042969 118.175781 392.574219 115.445312 397.789062 C 114.175781 400.457031 112.425781 402.585938 110.203125 404.175781 C 107.980469 405.765625 106.042969 406.75 104.390625 407.132812 C 102.738281 407.511719 101.117188 407.734375 99.53125 407.800781 C 97.878906 407.800781 96.226562 407.609375 94.574219 407.226562 C 92.921875 406.84375 90.984375 405.828125 88.761719 404.175781 C 86.539062 402.523438 84.789062 400.394531 83.519531 397.789062 C 80.789062 392.574219 79.421875 385.042969 79.421875 375.191406 C 79.421875 364.128906 81.230469 355.707031 84.855469 349.925781 Z M 106.296875 348.78125 C 104.390625 346.746094 102.136719 345.730469 99.53125 345.730469 C 96.863281 345.730469 94.574219 346.746094 92.667969 348.78125 C 91.078125 350.433594 90.03125 352.722656 89.523438 355.644531 C 89.015625 358.570312 88.761719 364.671875 88.761719 373.953125 C 88.761719 383.996094 89.015625 390.605469 89.523438 393.78125 C 90.03125 396.960938 91.175781 399.472656 92.953125 401.316406 C 94.734375 403.222656 96.925781 404.175781 99.53125 404.175781 C 102.070312 404.175781 104.230469 403.222656 106.011719 401.316406 C 107.851562 399.410156 108.996094 396.738281 109.441406 393.304688 C 109.886719 389.875 110.140625 383.421875 110.203125 373.953125 C 110.203125 364.734375 109.949219 358.664062 109.441406 355.738281 C 108.933594 352.816406 107.882812 350.496094 106.296875 348.78125 Z M 106.296875 348.78125 " fill-opacity="1" fill-rule="nonzero"/></g><path fill="#000000" d="M 130.789062 399.980469 C 130.789062 398.453125 131.328125 397.121094 132.410156 395.976562 C 133.488281 394.832031 134.855469 394.261719 136.507812 394.261719 C 138.03125 394.261719 139.363281 394.769531 140.507812 395.785156 C 141.652344 396.800781 142.257812 398.167969 142.320312 399.886719 C 142.320312 401.472656 141.78125 402.839844 140.699219 403.984375 C 139.621094 405.128906 138.253906 405.703125 136.601562 405.703125 C 134.949219 405.703125 133.582031 405.160156 132.503906 404.082031 C 131.421875 403 130.851562 401.632812 130.789062 399.980469 Z M 130.789062 399.980469 " fill-opacity="1" fill-rule="nonzero"/><g clip-path="url(#559b25a1dc)"><path fill="#000000" d="M 158.996094 349.925781 C 162.554688 344.777344 167.414062 342.199219 173.578125 342.199219 C 176.628906 342.199219 179.675781 343.027344 182.726562 344.679688 C 185.777344 346.332031 188.253906 349.257812 190.160156 353.453125 C 192.511719 358.726562 193.6875 365.972656 193.6875 375.191406 C 193.6875 385.042969 192.320312 392.574219 189.589844 397.789062 C 188.316406 400.457031 186.570312 402.585938 184.347656 404.175781 C 182.121094 405.765625 180.183594 406.75 178.535156 407.132812 C 176.882812 407.511719 175.261719 407.734375 173.671875 407.800781 C 172.019531 407.800781 170.371094 407.609375 168.71875 407.226562 C 167.066406 406.84375 165.128906 405.828125 162.902344 404.175781 C 160.679688 402.523438 158.933594 400.394531 157.664062 397.789062 C 154.929688 392.574219 153.566406 385.042969 153.566406 375.191406 C 153.566406 364.128906 155.375 355.707031 158.996094 349.925781 Z M 180.4375 348.78125 C 178.535156 346.746094 176.277344 345.730469 173.671875 345.730469 C 171.003906 345.730469 168.71875 346.746094 166.8125 348.78125 C 165.222656 350.433594 164.175781 352.722656 163.667969 355.644531 C 163.160156 358.570312 162.902344 364.671875 162.902344 373.953125 C 162.902344 383.996094 163.160156 390.605469 163.667969 393.78125 C 164.175781 396.960938 165.320312 399.472656 167.097656 401.316406 C 168.875 403.222656 171.066406 404.175781 173.671875 404.175781 C 176.214844 404.175781 178.375 403.222656 180.152344 401.316406 C 181.996094 399.410156 183.140625 396.738281 183.585938 393.304688 C 184.027344 389.875 184.28125 383.421875 184.347656 373.953125 C 184.347656 364.734375 184.09375 358.664062 183.585938 355.738281 C 183.074219 352.816406 182.027344 350.496094 180.4375 348.78125 Z M 180.4375 348.78125 " fill-opacity="1" fill-rule="nonzero"/></g><g clip-path="url(#3627c949af)"><path fill="#000000" d="M 206.648438 349.925781 C 210.203125 344.777344 215.066406 342.199219 221.226562 342.199219 C 224.277344 342.199219 227.328125 343.027344 230.375 344.679688 C 233.425781 346.332031 235.902344 349.257812 237.808594 353.453125 C 240.160156 358.726562 241.335938 365.972656 241.335938 375.191406 C 241.335938 385.042969 239.96875 392.574219 237.238281 397.789062 C 235.96875 400.457031 234.21875 402.585938 231.996094 404.175781 C 229.773438 405.765625 227.835938 406.75 226.183594 407.132812 C 224.53125 407.511719 222.910156 407.734375 221.324219 407.800781 C 219.671875 407.800781 218.019531 407.609375 216.367188 407.226562 C 214.714844 406.84375 212.777344 405.828125 210.554688 404.175781 C 208.332031 402.523438 206.582031 400.394531 205.3125 397.789062 C 202.582031 392.574219 201.214844 385.042969 201.214844 375.191406 C 201.214844 364.128906 203.027344 355.707031 206.648438 349.925781 Z M 228.089844 348.78125 C 226.183594 346.746094 223.929688 345.730469 221.324219 345.730469 C 218.65625 345.730469 216.367188 346.746094 214.460938 348.78125 C 212.875 350.433594 211.824219 352.722656 211.316406 355.644531 C 210.808594 358.570312 210.554688 364.671875 210.554688 373.953125 C 210.554688 383.996094 210.808594 390.605469 211.316406 393.78125 C 211.824219 396.960938 212.96875 399.472656 214.746094 401.316406 C 216.527344 403.222656 218.71875 404.175781 221.324219 404.175781 C 223.863281 404.175781 226.023438 403.222656 227.804688 401.316406 C 229.644531 399.410156 230.789062 396.738281 231.234375 393.304688 C 231.679688 389.875 231.933594 383.421875 231.996094 373.953125 C 231.996094 364.734375 231.742188 358.664062 231.234375 355.738281 C 230.726562 352.816406 229.675781 350.496094 228.089844 348.78125 Z M 228.089844 348.78125 " fill-opacity="1" fill-rule="nonzero"/></g><g clip-path="url(#0f3761f76a)"><path fill="#000000" d="M 254.296875 349.925781 C 257.855469 344.777344 262.714844 342.199219 268.878906 342.199219 C 271.925781 342.199219 274.976562 343.027344 278.027344 344.679688 C 281.074219 346.332031 283.554688 349.257812 285.460938 353.453125 C 287.808594 358.726562 288.984375 365.972656 288.984375 375.191406 C 288.984375 385.042969 287.621094 392.574219 284.886719 397.789062 C 283.617188 400.457031 281.871094 402.585938 279.644531 404.175781 C 277.421875 405.765625 275.484375 406.75 273.832031 407.132812 C 272.179688 407.511719 270.5625 407.734375 268.972656 407.800781 C 267.320312 407.800781 265.667969 407.609375 264.015625 407.226562 C 262.367188 406.84375 260.425781 405.828125 258.203125 404.175781 C 255.980469 402.523438 254.234375 400.394531 252.960938 397.789062 C 250.230469 392.574219 248.863281 385.042969 248.863281 375.191406 C 248.863281 364.128906 250.675781 355.707031 254.296875 349.925781 Z M 275.738281 348.78125 C 273.832031 346.746094 271.578125 345.730469 268.972656 345.730469 C 266.304688 345.730469 264.015625 346.746094 262.109375 348.78125 C 260.523438 350.433594 259.476562 352.722656 258.964844 355.644531 C 258.457031 358.570312 258.203125 364.671875 258.203125 373.953125 C 258.203125 383.996094 258.457031 390.605469 258.964844 393.78125 C 259.476562 396.960938 260.617188 399.472656 262.398438 401.316406 C 264.175781 403.222656 266.367188 404.175781 268.972656 404.175781 C 271.515625 404.175781 273.675781 403.222656 275.453125 401.316406 C 277.296875 399.410156 278.4375 396.738281 278.882812 393.304688 C 279.328125 389.875 279.582031 383.421875 279.644531 373.953125 C 279.644531 364.734375 279.390625 358.664062 278.882812 355.738281 C 278.375 352.816406 277.328125 350.496094 275.738281 348.78125 Z M 275.738281 348.78125 " fill-opacity="1" fill-rule="nonzero"/></g><g clip-path="url(#4128b54bc5)"><path fill="#000000" d="M 301.945312 349.925781 C 305.503906 344.777344 310.363281 342.199219 316.527344 342.199219 C 319.578125 342.199219 322.625 343.027344 325.675781 344.679688 C 328.726562 346.332031 331.203125 349.257812 333.109375 353.453125 C 335.460938 358.726562 336.636719 365.972656 336.636719 375.191406 C 336.636719 385.042969 335.269531 392.574219 332.539062 397.789062 C 331.265625 400.457031 329.519531 402.585938 327.296875 404.175781 C 325.074219 405.765625 323.136719 406.75 321.484375 407.132812 C 319.832031 407.511719 318.210938 407.734375 316.621094 407.800781 C 314.972656 407.800781 313.320312 407.609375 311.667969 407.226562 C 310.015625 406.84375 308.078125 405.828125 305.855469 404.175781 C 303.628906 402.523438 301.882812 400.394531 300.613281 397.789062 C 297.878906 392.574219 296.515625 385.042969 296.515625 375.191406 C 296.515625 364.128906 298.324219 355.707031 301.945312 349.925781 Z M 323.390625 348.78125 C 321.484375 346.746094 319.226562 345.730469 316.621094 345.730469 C 313.953125 345.730469 311.667969 346.746094 309.761719 348.78125 C 308.171875 350.433594 307.125 352.722656 306.617188 355.644531 C 306.109375 358.570312 305.855469 364.671875 305.855469 373.953125 C 305.855469 383.996094 306.109375 390.605469 306.617188 393.78125 C 307.125 396.960938 308.269531 399.472656 310.046875 401.316406 C 311.824219 403.222656 314.019531 404.175781 316.621094 404.175781 C 319.164062 404.175781 321.324219 403.222656 323.101562 401.316406 C 324.945312 399.410156 326.089844 396.738281 326.535156 393.304688 C 326.980469 389.875 327.234375 383.421875 327.296875 373.953125 C 327.296875 364.734375 327.042969 358.664062 326.535156 355.738281 C 326.027344 352.816406 324.976562 350.496094 323.390625 348.78125 Z M 323.390625 348.78125 " fill-opacity="1" fill-rule="nonzero"/></g><g clip-path="url(#a559beabe4)"><path fill="#000000" d="M 349.597656 349.925781 C 353.152344 344.777344 358.015625 342.199219 364.175781 342.199219 C 367.226562 342.199219 370.277344 343.027344 373.324219 344.679688 C 376.375 346.332031 378.851562 349.257812 380.757812 353.453125 C 383.109375 358.726562 384.285156 365.972656 384.285156 375.191406 C 384.285156 385.042969 382.917969 392.574219 380.1875 397.789062 C 378.917969 400.457031 377.167969 402.585938 374.945312 404.175781 C 372.722656 405.765625 370.785156 406.75 369.132812 407.132812 C 367.480469 407.511719 365.859375 407.734375 364.273438 407.800781 C 362.621094 407.800781 360.96875 407.609375 359.316406 407.226562 C 357.664062 406.84375 355.726562 405.828125 353.503906 404.175781 C 351.28125 402.523438 349.53125 400.394531 348.261719 397.789062 C 345.53125 392.574219 344.164062 385.042969 344.164062 375.191406 C 344.164062 364.128906 345.976562 355.707031 349.597656 349.925781 Z M 371.039062 348.78125 C 369.132812 346.746094 366.878906 345.730469 364.273438 345.730469 C 361.605469 345.730469 359.316406 346.746094 357.410156 348.78125 C 355.824219 350.433594 354.773438 352.722656 354.265625 355.644531 C 353.757812 358.570312 353.503906 364.671875 353.503906 373.953125 C 353.503906 383.996094 353.757812 390.605469 354.265625 393.78125 C 354.773438 396.960938 355.917969 399.472656 357.695312 401.316406 C 359.476562 403.222656 361.667969 404.175781 364.273438 404.175781 C 366.8125 404.175781 368.972656 403.222656 370.753906 401.316406 C 372.59375 399.410156 373.738281 396.738281 374.183594 393.304688 C 374.628906 389.875 374.882812 383.421875 374.945312 373.953125 C 374.945312 364.734375 374.691406 358.664062 374.183594 355.738281 C 373.675781 352.816406 372.628906 350.496094 371.039062 348.78125 Z M 371.039062 348.78125 " fill-opacity="1" fill-rule="nonzero"/></g><g clip-path="url(#a278eac995)"><path fill="#000000" d="M 397.246094 349.925781 C 400.804688 344.777344 405.664062 342.199219 411.828125 342.199219 C 414.875 342.199219 417.925781 343.027344 420.976562 344.679688 C 424.027344 346.332031 426.503906 349.257812 428.410156 353.453125 C 430.761719 358.726562 431.933594 365.972656 431.933594 375.191406 C 431.933594 385.042969 430.570312 392.574219 427.835938 397.789062 C 426.566406 400.457031 424.820312 402.585938 422.597656 404.175781 C 420.371094 405.765625 418.433594 406.75 416.78125 407.132812 C 415.132812 407.511719 413.511719 407.734375 411.921875 407.800781 C 410.269531 407.800781 408.617188 407.609375 406.96875 407.226562 C 405.316406 406.84375 403.378906 405.828125 401.152344 404.175781 C 398.929688 402.523438 397.183594 400.394531 395.914062 397.789062 C 393.179688 392.574219 391.8125 385.042969 391.8125 375.191406 C 391.8125 364.128906 393.625 355.707031 397.246094 349.925781 Z M 418.6875 348.78125 C 416.78125 346.746094 414.527344 345.730469 411.921875 345.730469 C 409.253906 345.730469 406.96875 346.746094 405.0625 348.78125 C 403.472656 350.433594 402.425781 352.722656 401.914062 355.644531 C 401.40625 358.570312 401.152344 364.671875 401.152344 373.953125 C 401.152344 383.996094 401.40625 390.605469 401.914062 393.78125 C 402.425781 396.960938 403.566406 399.472656 405.347656 401.316406 C 407.125 403.222656 409.316406 404.175781 411.921875 404.175781 C 414.464844 404.175781 416.625 403.222656 418.402344 401.316406 C 420.246094 399.410156 421.390625 396.738281 421.832031 393.304688 C 422.277344 389.875 422.53125 383.421875 422.597656 373.953125 C 422.597656 364.734375 422.34375 358.664062 421.832031 355.738281 C 421.324219 352.816406 420.277344 350.496094 418.6875 348.78125 Z M 418.6875 348.78125 " fill-opacity="1" fill-rule="nonzero"/></g><g clip-path="url(#828f3321ff)"><path fill="#000000" d="M 444.894531 349.925781 C 448.453125 344.777344 453.3125 342.199219 459.476562 342.199219 C 462.527344 342.199219 465.578125 343.027344 468.625 344.679688 C 471.675781 346.332031 474.152344 349.257812 476.058594 353.453125 C 478.410156 358.726562 479.585938 365.972656 479.585938 375.191406 C 479.585938 385.042969 478.21875 392.574219 475.488281 397.789062 C 474.214844 400.457031 472.46875 402.585938 470.246094 404.175781 C 468.023438 405.765625 466.085938 406.75 464.433594 407.132812 C 462.78125 407.511719 461.160156 407.734375 459.574219 407.800781 C 457.921875 407.800781 456.269531 407.609375 454.617188 407.226562 C 452.964844 406.84375 451.027344 405.828125 448.804688 404.175781 C 446.578125 402.523438 444.832031 400.394531 443.5625 397.789062 C 440.828125 392.574219 439.464844 385.042969 439.464844 375.191406 C 439.464844 364.128906 441.273438 355.707031 444.894531 349.925781 Z M 466.339844 348.78125 C 464.433594 346.746094 462.175781 345.730469 459.574219 345.730469 C 456.902344 345.730469 454.617188 346.746094 452.710938 348.78125 C 451.121094 350.433594 450.074219 352.722656 449.566406 355.644531 C 449.058594 358.570312 448.804688 364.671875 448.804688 373.953125 C 448.804688 383.996094 449.058594 390.605469 449.566406 393.78125 C 450.074219 396.960938 451.21875 399.472656 452.996094 401.316406 C 454.777344 403.222656 456.96875 404.175781 459.574219 404.175781 C 462.113281 404.175781 464.273438 403.222656 466.050781 401.316406 C 467.894531 399.410156 469.039062 396.738281 469.484375 393.304688 C 469.929688 389.875 470.183594 383.421875 470.246094 373.953125 C 470.246094 364.734375 469.992188 358.664062 469.484375 355.738281 C 468.976562 352.816406 467.925781 350.496094 466.339844 348.78125 Z M 466.339844 348.78125 " fill-opacity="1" fill-rule="nonzero"/></g><g clip-path="url(#7db80f6f0c)"><path fill="#000000" d="M 492.546875 349.925781 C 496.105469 344.777344 500.964844 342.199219 507.125 342.199219 C 510.175781 342.199219 513.226562 343.027344 516.277344 344.679688 C 519.324219 346.332031 521.804688 349.257812 523.710938 353.453125 C 526.058594 358.726562 527.234375 365.972656 527.234375 375.191406 C 527.234375 385.042969 525.871094 392.574219 523.136719 397.789062 C 521.867188 400.457031 520.121094 402.585938 517.894531 404.175781 C 515.671875 405.765625 513.734375 406.75 512.082031 407.132812 C 510.429688 407.511719 508.808594 407.734375 507.222656 407.800781 C 505.570312 407.800781 503.917969 407.609375 502.265625 407.226562 C 500.613281 406.84375 498.675781 405.828125 496.453125 404.175781 C 494.230469 402.523438 492.484375 400.394531 491.210938 397.789062 C 488.480469 392.574219 487.113281 385.042969 487.113281 375.191406 C 487.113281 364.128906 488.925781 355.707031 492.546875 349.925781 Z M 513.988281 348.78125 C 512.082031 346.746094 509.828125 345.730469 507.222656 345.730469 C 504.554688 345.730469 502.265625 346.746094 500.359375 348.78125 C 498.773438 350.433594 497.722656 352.722656 497.214844 355.644531 C 496.707031 358.570312 496.453125 364.671875 496.453125 373.953125 C 496.453125 383.996094 496.707031 390.605469 497.214844 393.78125 C 497.722656 396.960938 498.867188 399.472656 500.648438 401.316406 C 502.425781 403.222656 504.617188 404.175781 507.222656 404.175781 C 509.761719 404.175781 511.921875 403.222656 513.703125 401.316406 C 515.546875 399.410156 516.6875 396.738281 517.132812 393.304688 C 517.578125 389.875 517.832031 383.421875 517.894531 373.953125 C 517.894531 364.734375 517.640625 358.664062 517.132812 355.738281 C 516.625 352.816406 515.578125 350.496094 513.988281 348.78125 Z M 513.988281 348.78125 " fill-opacity="1" fill-rule="nonzero"/></g><g clip-path="url(#8304fe5255)"><path fill="#000000" d="M 564.59375 378.335938 C 561.542969 383.167969 557.730469 385.582031 553.15625 385.582031 C 548.199219 385.582031 544.136719 383.707031 540.957031 379.957031 C 537.78125 376.207031 535.875 372.203125 535.242188 367.945312 C 535.113281 366.925781 535.050781 365.65625 535.050781 364.128906 L 535.050781 363.367188 C 535.050781 357.457031 537.242188 352.308594 541.625 347.921875 C 545.4375 344.109375 549.628906 342.199219 554.203125 342.199219 C 554.332031 342.199219 554.523438 342.199219 554.777344 342.199219 C 555.03125 342.199219 555.285156 342.234375 555.539062 342.296875 L 555.921875 342.296875 C 556.683594 342.296875 557.476562 342.359375 558.304688 342.488281 C 559.128906 342.613281 560.304688 342.996094 561.828125 343.632812 C 563.355469 344.265625 564.847656 345.285156 566.308594 346.683594 C 567.769531 348.082031 569.136719 349.957031 570.40625 352.308594 C 573.136719 357.902344 574.503906 365.085938 574.503906 373.855469 C 574.503906 382.753906 572.597656 390.285156 568.785156 396.453125 C 566.5625 400.011719 563.894531 402.777344 560.78125 404.746094 C 557.667969 406.71875 554.363281 407.734375 550.871094 407.800781 C 546.992188 407.800781 543.816406 406.878906 541.339844 405.035156 C 538.863281 403.191406 537.589844 400.457031 537.527344 396.835938 C 537.464844 393.210938 539.148438 391.429688 542.578125 391.496094 C 543.976562 391.496094 545.152344 391.941406 546.105469 392.828125 C 547.058594 393.71875 547.535156 394.957031 547.535156 396.546875 C 547.535156 397.691406 547.25 398.675781 546.675781 399.503906 C 546.105469 400.332031 545.597656 400.839844 545.152344 401.03125 C 544.707031 401.21875 544.292969 401.378906 543.914062 401.507812 L 543.53125 401.601562 C 543.53125 401.726562 543.753906 401.917969 544.199219 402.171875 C 544.644531 402.425781 545.46875 402.746094 546.675781 403.125 C 547.882812 403.507812 549.21875 403.667969 550.679688 403.605469 L 551.25 403.605469 C 555.0625 403.605469 558.269531 401.570312 560.875 397.5 C 563.355469 393.941406 564.59375 387.777344 564.59375 379.003906 Z M 554.300781 382.054688 C 557.351562 382.054688 559.796875 380.5 561.636719 377.382812 C 563.480469 374.269531 564.433594 370.042969 564.496094 364.703125 C 564.496094 359.746094 564.242188 356.183594 563.734375 354.023438 C 563.609375 353.386719 563.417969 352.753906 563.164062 352.117188 C 562.910156 351.480469 562.464844 350.65625 561.828125 349.636719 C 561.195312 348.621094 560.242188 347.761719 558.96875 347.0625 C 557.699219 346.363281 556.207031 346.046875 554.492188 346.109375 C 552.078125 346.109375 550.011719 346.96875 548.296875 348.683594 C 546.960938 350.082031 546.105469 351.734375 545.722656 353.644531 C 545.34375 355.550781 545.121094 358.886719 545.054688 363.652344 C 545.054688 368.929688 545.214844 372.488281 545.53125 374.332031 C 545.851562 376.175781 546.484375 377.667969 547.4375 378.8125 C 549.027344 380.976562 551.3125 382.054688 554.300781 382.054688 Z M 554.300781 382.054688 " fill-opacity="1" fill-rule="nonzero"/></g><g clip-path="url(#fdece9392f)"><path fill="#000000" d="M 598.996094 350.589844 L 597.757812 351.066406 C 596.867188 351.386719 595.597656 351.703125 593.945312 352.023438 C 592.292969 352.339844 590.449219 352.5625 588.417969 352.6875 L 586.605469 352.6875 L 586.605469 348.304688 L 588.417969 348.304688 C 591.402344 348.175781 594.167969 347.699219 596.707031 346.875 C 599.25 346.046875 601.027344 345.285156 602.046875 344.585938 C 603.0625 343.886719 603.953125 343.1875 604.714844 342.488281 C 604.839844 342.296875 605.222656 342.199219 605.859375 342.199219 C 606.429688 342.199219 606.96875 342.390625 607.476562 342.773438 L 607.476562 371.28125 L 607.574219 399.886719 C 608.019531 400.332031 608.398438 400.617188 608.714844 400.742188 C 609.035156 400.871094 609.796875 400.996094 611.003906 401.125 C 612.210938 401.25 614.179688 401.316406 616.914062 401.316406 L 619.390625 401.316406 L 619.390625 405.703125 L 618.339844 405.703125 C 617.007812 405.511719 611.957031 405.414062 603.1875 405.414062 C 594.546875 405.414062 589.5625 405.511719 588.226562 405.703125 L 587.082031 405.703125 L 587.082031 401.316406 L 589.5625 401.316406 C 590.957031 401.316406 592.167969 401.316406 593.183594 401.316406 C 594.199219 401.316406 594.992188 401.285156 595.566406 401.21875 C 596.136719 401.15625 596.644531 401.0625 597.089844 400.933594 C 597.535156 400.808594 597.789062 400.742188 597.851562 400.742188 C 597.914062 400.742188 598.105469 400.585938 598.425781 400.265625 C 598.742188 399.949219 598.933594 399.820312 598.996094 399.886719 Z M 598.996094 350.589844 " fill-opacity="1" fill-rule="nonzero"/></g><g clip-path="url(#1e9570d580)"><path fill="#000000" d="M 636.734375 364.796875 C 635.019531 364.796875 633.652344 364.226562 632.636719 363.082031 C 631.621094 361.9375 631.113281 360.539062 631.113281 358.886719 C 631.113281 354.375 632.796875 350.464844 636.164062 347.160156 C 639.53125 343.855469 643.722656 342.199219 648.742188 342.199219 C 654.523438 342.199219 659.351562 343.980469 663.226562 347.539062 C 667.101562 351.101562 669.074219 355.707031 669.136719 361.367188 C 669.136719 364.097656 668.5 366.703125 667.230469 369.183594 C 665.960938 371.664062 664.433594 373.824219 662.65625 375.667969 C 660.878906 377.511719 658.335938 379.863281 655.03125 382.722656 C 652.746094 384.695312 649.566406 387.617188 645.503906 391.496094 L 639.878906 396.835938 L 647.121094 396.929688 C 657.097656 396.929688 662.402344 396.769531 663.039062 396.453125 C 663.480469 396.324219 664.246094 393.496094 665.324219 387.96875 L 665.324219 387.679688 L 669.136719 387.679688 L 669.136719 387.96875 C 669.074219 388.15625 668.660156 391.050781 667.898438 396.644531 C 667.136719 402.238281 666.660156 405.160156 666.46875 405.414062 L 666.46875 405.703125 L 631.113281 405.703125 L 631.113281 402.746094 C 631.113281 402.300781 631.300781 401.824219 631.683594 401.316406 C 632.066406 400.808594 633.019531 399.695312 634.542969 397.976562 C 636.386719 395.945312 637.972656 394.164062 639.308594 392.640625 C 639.878906 392.003906 640.960938 390.828125 642.546875 389.109375 C 644.136719 387.394531 645.214844 386.21875 645.789062 385.582031 C 646.359375 384.949219 647.28125 383.898438 648.550781 382.4375 C 649.824219 380.976562 650.710938 379.894531 651.21875 379.195312 C 651.726562 378.496094 652.460938 377.542969 653.410156 376.335938 C 654.363281 375.128906 655.03125 374.109375 655.414062 373.285156 C 655.792969 372.457031 656.269531 371.535156 656.84375 370.519531 C 657.414062 369.5 657.828125 368.484375 658.082031 367.46875 C 658.335938 366.449219 658.558594 365.496094 658.75 364.605469 C 658.941406 363.71875 659.035156 362.667969 659.035156 361.460938 C 659.035156 357.457031 657.953125 353.992188 655.792969 351.066406 C 653.632812 348.144531 650.554688 346.683594 646.550781 346.683594 C 644.453125 346.683594 642.613281 347.222656 641.023438 348.304688 C 639.433594 349.382812 638.324219 350.433594 637.6875 351.449219 C 637.050781 352.464844 636.734375 353.070312 636.734375 353.261719 C 636.734375 353.324219 636.894531 353.355469 637.210938 353.355469 C 638.355469 353.355469 639.53125 353.800781 640.738281 354.691406 C 641.945312 355.582031 642.546875 357.042969 642.546875 359.078125 C 642.546875 360.667969 642.039062 362 641.023438 363.082031 C 640.007812 364.164062 638.578125 364.734375 636.734375 364.796875 Z M 636.734375 364.796875 " fill-opacity="1" fill-rule="nonzero"/></g></svg>