<svg xmlns="http://www.w3.org/2000/svg" xmlns:xlink="http://www.w3.org/1999/xlink" width="1000" zoomAndPan="magnify" viewBox="0 0 750 749.999995" height="1000" preserveAspectRatio="xMidYMid meet" version="1.0"><rect x="-75" width="900" fill="#ffffff" y="-74.999999" height="899.999994" fill-opacity="1"/><rect x="-75" width="900" fill="#ffffff" y="-74.999999" height="899.999994" fill-opacity="1"/><path fill="#000000" d="M 44.558594 380.027344 C 44.558594 376.574219 44.808594 373.292969 45.308594 370.191406 C 45.808594 367.085938 46.386719 364.40625 47.035156 362.152344 C 47.6875 359.902344 48.613281 357.699219 49.8125 355.542969 C 51.015625 353.390625 51.964844 351.714844 52.667969 350.511719 C 53.367188 349.3125 54.417969 348.007812 55.820312 346.605469 C 57.222656 345.207031 58.046875 344.355469 58.296875 344.054688 C 58.546875 343.753906 59.175781 343.226562 60.175781 342.476562 L 61.453125 342.476562 C 62.152344 342.476562 62.503906 342.703125 62.503906 343.152344 C 62.503906 343.304688 62.078125 343.828125 61.226562 344.730469 C 60.375 345.632812 59.347656 346.957031 58.148438 348.710938 C 56.945312 350.460938 55.71875 352.617188 54.46875 355.167969 C 53.21875 357.722656 52.167969 361.175781 51.316406 365.535156 C 50.464844 369.890625 50.039062 374.722656 50.039062 380.027344 C 50.039062 385.335938 50.464844 390.140625 51.316406 394.449219 C 52.167969 398.753906 53.191406 402.234375 54.394531 404.886719 C 55.59375 407.539062 56.820312 409.695312 58.074219 411.347656 C 59.324219 413 60.375 414.324219 61.226562 415.328125 C 62.078125 416.328125 62.503906 416.855469 62.503906 416.902344 C 62.503906 417.355469 62.128906 417.578125 61.375 417.578125 L 60.175781 417.578125 L 58.074219 415.777344 C 53.367188 411.519531 49.9375 406.214844 47.785156 399.855469 C 45.632812 393.496094 44.558594 386.886719 44.558594 380.027344 Z M 44.558594 380.027344 " fill-opacity="1" fill-rule="nonzero"/><path fill="#000000" d="M 73.914062 354.867188 C 76.71875 350.8125 80.546875 348.785156 85.402344 348.785156 C 87.804688 348.785156 90.207031 349.4375 92.609375 350.738281 C 95.015625 352.039062 96.964844 354.34375 98.46875 357.648438 C 100.320312 361.804688 101.246094 367.511719 101.246094 374.769531 C 101.246094 382.53125 100.167969 388.464844 98.015625 392.570312 C 97.015625 394.671875 95.640625 396.351562 93.886719 397.601562 C 92.136719 398.855469 90.609375 399.628906 89.308594 399.929688 C 88.007812 400.230469 86.730469 400.40625 85.476562 400.457031 C 84.175781 400.457031 82.875 400.304688 81.574219 400.003906 C 80.273438 399.703125 78.746094 398.902344 76.992188 397.601562 C 75.242188 396.300781 73.867188 394.625 72.863281 392.570312 C 70.710938 388.464844 69.636719 382.53125 69.636719 374.769531 C 69.636719 366.058594 71.0625 359.425781 73.914062 354.867188 Z M 90.808594 353.96875 C 89.308594 352.367188 87.53125 351.5625 85.476562 351.5625 C 83.375 351.5625 81.574219 352.367188 80.070312 353.96875 C 78.820312 355.269531 77.996094 357.070312 77.59375 359.375 C 77.195312 361.679688 76.992188 366.484375 76.992188 373.792969 C 76.992188 381.707031 77.195312 386.914062 77.59375 389.414062 C 77.996094 391.917969 78.894531 393.898438 80.296875 395.347656 C 81.699219 396.851562 83.425781 397.601562 85.476562 397.601562 C 87.480469 397.601562 89.183594 396.851562 90.582031 395.347656 C 92.035156 393.847656 92.9375 391.746094 93.285156 389.039062 C 93.636719 386.335938 93.835938 381.253906 93.886719 373.792969 C 93.886719 366.535156 93.6875 361.753906 93.285156 359.449219 C 92.886719 357.148438 92.058594 355.320312 90.808594 353.96875 Z M 90.808594 353.96875 " fill-opacity="1" fill-rule="nonzero"/><path fill="#000000" d="M 110.105469 394.296875 C 110.105469 393.097656 110.53125 392.042969 111.382812 391.144531 C 112.234375 390.242188 113.308594 389.792969 114.609375 389.792969 C 115.8125 389.792969 116.863281 390.191406 117.765625 390.992188 C 118.664062 391.792969 119.140625 392.871094 119.191406 394.222656 C 119.191406 395.472656 118.765625 396.550781 117.914062 397.453125 C 117.0625 398.351562 115.988281 398.804688 114.6875 398.804688 C 113.382812 398.804688 112.308594 398.378906 111.457031 397.527344 C 110.605469 396.675781 110.15625 395.597656 110.105469 394.296875 Z M 110.105469 394.296875 " fill-opacity="1" fill-rule="nonzero"/><path fill="#000000" d="M 132.332031 354.867188 C 135.132812 350.8125 138.960938 348.785156 143.816406 348.785156 C 146.21875 348.785156 148.625 349.4375 151.027344 350.738281 C 153.429688 352.039062 155.378906 354.34375 156.882812 357.648438 C 158.734375 361.804688 159.660156 367.511719 159.660156 374.769531 C 159.660156 382.53125 158.585938 388.464844 156.433594 392.570312 C 155.429688 394.671875 154.054688 396.351562 152.300781 397.601562 C 150.550781 398.855469 149.023438 399.628906 147.722656 399.929688 C 146.421875 400.230469 145.144531 400.40625 143.894531 400.457031 C 142.589844 400.457031 141.289062 400.304688 139.988281 400.003906 C 138.6875 399.703125 137.160156 398.902344 135.410156 397.601562 C 133.65625 396.300781 132.28125 394.625 131.277344 392.570312 C 129.125 388.464844 128.050781 382.53125 128.050781 374.769531 C 128.050781 366.058594 129.476562 359.425781 132.332031 354.867188 Z M 149.222656 353.96875 C 147.722656 352.367188 145.945312 351.5625 143.894531 351.5625 C 141.789062 351.5625 139.988281 352.367188 138.488281 353.96875 C 137.234375 355.269531 136.410156 357.070312 136.007812 359.375 C 135.609375 361.679688 135.410156 366.484375 135.410156 373.792969 C 135.410156 381.707031 135.609375 386.914062 136.007812 389.414062 C 136.410156 391.917969 137.3125 393.898438 138.710938 395.347656 C 140.113281 396.851562 141.839844 397.601562 143.894531 397.601562 C 145.894531 397.601562 147.597656 396.851562 149 395.347656 C 150.449219 393.847656 151.351562 391.746094 151.703125 389.039062 C 152.050781 386.335938 152.253906 381.253906 152.300781 373.792969 C 152.300781 366.535156 152.101562 361.753906 151.703125 359.449219 C 151.300781 357.148438 150.476562 355.320312 149.222656 353.96875 Z M 149.222656 353.96875 " fill-opacity="1" fill-rule="nonzero"/><path fill="#000000" d="M 169.871094 354.867188 C 172.675781 350.8125 176.503906 348.785156 181.359375 348.785156 C 183.761719 348.785156 186.164062 349.4375 188.566406 350.738281 C 190.96875 352.039062 192.921875 354.34375 194.425781 357.648438 C 196.277344 361.804688 197.203125 367.511719 197.203125 374.769531 C 197.203125 382.53125 196.125 388.464844 193.972656 392.570312 C 192.972656 394.671875 191.597656 396.351562 189.84375 397.601562 C 188.09375 398.855469 186.566406 399.628906 185.265625 399.929688 C 183.960938 400.230469 182.6875 400.40625 181.433594 400.457031 C 180.132812 400.457031 178.832031 400.304688 177.53125 400.003906 C 176.230469 399.703125 174.703125 398.902344 172.949219 397.601562 C 171.199219 396.300781 169.820312 394.625 168.820312 392.570312 C 166.667969 388.464844 165.59375 382.53125 165.59375 374.769531 C 165.59375 366.058594 167.019531 359.425781 169.871094 354.867188 Z M 186.765625 353.96875 C 185.265625 352.367188 183.488281 351.5625 181.433594 351.5625 C 179.332031 351.5625 177.53125 352.367188 176.027344 353.96875 C 174.777344 355.269531 173.953125 357.070312 173.550781 359.375 C 173.152344 361.679688 172.949219 366.484375 172.949219 373.792969 C 172.949219 381.707031 173.152344 386.914062 173.550781 389.414062 C 173.953125 391.917969 174.851562 393.898438 176.253906 395.347656 C 177.65625 396.851562 179.382812 397.601562 181.433594 397.601562 C 183.4375 397.601562 185.140625 396.851562 186.539062 395.347656 C 187.992188 393.847656 188.894531 391.746094 189.242188 389.039062 C 189.59375 386.335938 189.792969 381.253906 189.84375 373.792969 C 189.84375 366.535156 189.644531 361.753906 189.242188 359.449219 C 188.84375 357.148438 188.015625 355.320312 186.765625 353.96875 Z M 186.765625 353.96875 " fill-opacity="1" fill-rule="nonzero"/><path fill="#000000" d="M 234.894531 398.804688 C 233.992188 398.652344 230.765625 398.578125 225.207031 398.578125 C 219.402344 398.578125 216.046875 398.652344 215.148438 398.804688 L 214.472656 398.804688 L 214.472656 395.347656 L 216.800781 395.347656 C 217.800781 395.347656 218.476562 395.347656 218.828125 395.347656 C 219.175781 395.347656 219.601562 395.300781 220.101562 395.199219 C 220.601562 395.097656 220.953125 394.972656 221.152344 394.824219 C 221.355469 394.671875 221.527344 394.472656 221.679688 394.222656 C 221.730469 394.121094 221.753906 392.769531 221.753906 390.167969 L 221.753906 386.410156 L 202.308594 386.410156 L 202.308594 382.957031 L 213.644531 365.609375 C 221.304688 353.992188 225.183594 348.160156 225.285156 348.109375 C 225.382812 348.007812 225.910156 347.960938 226.859375 347.960938 L 228.210938 347.960938 L 228.664062 348.410156 L 228.664062 382.957031 L 235.570312 382.957031 L 235.570312 386.410156 L 228.664062 386.410156 L 228.664062 390.242188 C 228.664062 392.296875 228.664062 393.496094 228.664062 393.847656 C 228.664062 394.199219 228.8125 394.496094 229.113281 394.75 C 229.511719 395.097656 230.941406 395.300781 233.390625 395.347656 L 235.570312 395.347656 L 235.570312 398.804688 Z M 222.203125 382.957031 L 222.203125 357.871094 L 205.761719 382.882812 L 213.945312 382.957031 Z M 222.203125 382.957031 " fill-opacity="1" fill-rule="nonzero"/><path fill="#000000" d="M 250.0625 387.011719 C 250.0625 388.214844 249.660156 389.214844 248.859375 390.015625 C 248.058594 390.816406 247.082031 391.21875 245.929688 391.21875 L 245.40625 391.21875 C 247.707031 395.175781 250.761719 397.152344 254.566406 397.152344 C 258.070312 397.152344 260.621094 395.648438 262.222656 392.644531 C 263.175781 390.992188 263.652344 387.789062 263.652344 383.03125 C 263.652344 377.875 262.976562 374.394531 261.625 372.59375 C 260.320312 370.941406 258.871094 370.113281 257.269531 370.113281 L 256.816406 370.113281 C 252.914062 370.113281 249.960938 371.816406 247.957031 375.222656 C 247.757812 375.570312 247.582031 375.773438 247.433594 375.824219 C 247.28125 375.871094 246.90625 375.921875 246.308594 375.972656 C 245.457031 375.972656 244.980469 375.824219 244.878906 375.523438 C 244.78125 375.320312 244.730469 370.941406 244.730469 362.378906 L 244.730469 352.691406 C 244.730469 350.1875 244.855469 348.9375 245.105469 348.9375 C 245.207031 348.835938 245.304688 348.785156 245.40625 348.785156 C 245.457031 348.785156 245.980469 348.984375 246.984375 349.386719 C 247.984375 349.785156 249.359375 350.1875 251.113281 350.585938 C 252.863281 350.988281 254.742188 351.1875 256.742188 351.1875 C 260.296875 351.1875 263.699219 350.488281 266.953125 349.085938 C 267.355469 348.886719 267.679688 348.785156 267.929688 348.785156 C 268.332031 348.785156 268.53125 349.234375 268.53125 350.136719 L 268.53125 351.113281 C 264.425781 355.96875 259.296875 358.398438 253.140625 358.398438 C 251.585938 358.398438 250.1875 358.25 248.933594 357.949219 L 248.183594 357.796875 L 248.183594 370.714844 C 249.136719 370.015625 249.886719 369.464844 250.4375 369.0625 C 250.988281 368.664062 251.886719 368.261719 253.140625 367.863281 C 254.390625 367.460938 255.667969 367.261719 256.96875 367.261719 C 261.023438 367.261719 264.453125 368.886719 267.253906 372.140625 C 270.058594 375.398438 271.460938 379.253906 271.460938 383.707031 C 271.460938 388.316406 269.859375 392.246094 266.652344 395.5 C 263.449219 398.753906 259.546875 400.40625 254.941406 400.457031 C 250.886719 400.457031 247.632812 399.105469 245.179688 396.402344 C 242.726562 393.695312 241.5 390.644531 241.5 387.238281 C 241.5 386.035156 241.777344 385.085938 242.328125 384.382812 C 242.878906 383.683594 243.453125 383.234375 244.054688 383.03125 C 244.65625 382.832031 245.230469 382.730469 245.78125 382.730469 C 247.03125 382.730469 248.058594 383.15625 248.859375 384.007812 C 249.660156 384.859375 250.0625 385.859375 250.0625 387.011719 Z M 250.0625 387.011719 " fill-opacity="1" fill-rule="nonzero"/><path fill="#000000" d="M 278.441406 375.296875 C 278.441406 367.136719 280.46875 360.675781 284.523438 355.921875 C 288.578125 351.164062 293.082031 348.785156 298.039062 348.785156 C 301.492188 348.785156 303.96875 349.6875 305.472656 351.488281 C 306.972656 353.292969 307.726562 355.292969 307.726562 357.496094 C 307.726562 358.75 307.375 359.75 306.671875 360.5 C 305.972656 361.253906 304.996094 361.628906 303.746094 361.628906 C 302.59375 361.628906 301.644531 361.277344 300.890625 360.578125 C 300.140625 359.875 299.765625 358.898438 299.765625 357.648438 C 299.765625 355.445312 300.941406 354.117188 303.292969 353.667969 C 302.195312 352.566406 300.640625 351.941406 298.640625 351.789062 C 295.085938 351.789062 292.15625 353.292969 289.855469 356.296875 C 287.503906 359.601562 286.324219 364.65625 286.324219 371.464844 L 286.402344 371.765625 C 286.652344 371.464844 286.851562 371.140625 287 370.789062 C 289.054688 367.785156 291.730469 366.285156 295.035156 366.285156 L 295.335938 366.285156 C 297.636719 366.285156 299.664062 366.761719 301.417969 367.710938 C 302.621094 368.414062 303.820312 369.414062 305.023438 370.714844 C 306.222656 372.015625 307.199219 373.445312 307.949219 374.996094 C 309 377.449219 309.527344 380.128906 309.527344 383.03125 L 309.527344 384.382812 C 309.527344 385.535156 309.402344 386.613281 309.152344 387.613281 C 308.601562 390.566406 307 393.445312 304.347656 396.25 C 301.691406 399.054688 298.339844 400.457031 294.285156 400.457031 C 292.882812 400.457031 291.53125 400.253906 290.230469 399.855469 C 288.929688 399.453125 287.527344 398.703125 286.027344 397.601562 C 284.523438 396.5 283.246094 395.023438 282.195312 393.171875 C 281.144531 391.320312 280.246094 388.890625 279.492188 385.886719 C 278.742188 382.882812 278.390625 379.351562 278.441406 375.296875 Z M 294.585938 368.988281 C 293.082031 368.988281 291.78125 369.414062 290.679688 370.265625 C 289.578125 371.117188 288.730469 372.242188 288.128906 373.644531 C 287.527344 375.046875 287.101562 376.472656 286.851562 377.925781 C 286.601562 379.378906 286.453125 380.929688 286.402344 382.582031 C 286.402344 386.738281 286.703125 389.714844 287.300781 391.519531 C 287.902344 393.320312 288.855469 394.773438 290.15625 395.875 C 291.355469 396.777344 292.683594 397.226562 294.132812 397.226562 C 296.6875 397.226562 298.640625 396.273438 299.992188 394.371094 C 300.640625 393.472656 301.09375 392.34375 301.34375 390.992188 C 301.59375 389.640625 301.71875 387.011719 301.71875 383.105469 C 301.71875 379.101562 301.59375 376.421875 301.34375 375.070312 C 301.09375 373.71875 300.640625 372.59375 299.992188 371.691406 C 298.640625 369.890625 296.835938 368.988281 294.585938 368.988281 Z M 294.585938 368.988281 " fill-opacity="1" fill-rule="nonzero"/><path fill="#000000" d="M 376.816406 396.625 C 376.816406 397.628906 376.289062 398.128906 375.238281 398.128906 C 374.988281 398.128906 374.4375 397.726562 373.589844 396.925781 C 372.738281 396.125 370.382812 393.796875 366.53125 389.941406 L 358.722656 382.132812 L 350.835938 390.015625 C 345.53125 395.222656 342.804688 397.878906 342.652344 397.976562 C 342.453125 398.078125 342.277344 398.128906 342.128906 398.128906 C 341.726562 398.128906 341.378906 397.976562 341.078125 397.675781 C 340.777344 397.375 340.601562 397.027344 340.550781 396.625 C 340.550781 396.273438 340.902344 395.726562 341.601562 394.972656 C 342.304688 394.222656 344.65625 391.84375 348.660156 387.839844 L 356.46875 380.027344 L 348.660156 372.21875 C 344.605469 368.160156 342.253906 365.785156 341.601562 365.082031 C 340.953125 364.382812 340.601562 363.832031 340.550781 363.429688 C 340.550781 362.980469 340.703125 362.628906 341 362.378906 C 341.300781 362.128906 341.675781 362.003906 342.128906 362.003906 C 342.378906 362.003906 342.554688 362.027344 342.652344 362.078125 C 342.804688 362.179688 345.53125 364.832031 350.835938 370.039062 L 358.722656 377.925781 L 366.53125 370.113281 C 370.382812 366.257812 372.738281 363.929688 373.589844 363.128906 C 374.4375 362.328125 374.988281 361.929688 375.238281 361.929688 C 376.289062 361.929688 376.816406 362.429688 376.816406 363.429688 C 376.816406 363.78125 376.566406 364.230469 376.066406 364.78125 C 375.566406 365.332031 373.113281 367.785156 368.707031 372.140625 L 360.898438 380.027344 L 368.707031 387.914062 C 372.914062 392.121094 375.316406 394.546875 375.914062 395.199219 C 376.515625 395.851562 376.816406 396.324219 376.816406 396.625 Z M 376.816406 396.625 " fill-opacity="1" fill-rule="nonzero"/><path fill="#000000" d="M 420.605469 355.394531 L 419.628906 355.769531 C 418.929688 356.019531 417.925781 356.269531 416.625 356.519531 C 415.324219 356.769531 413.871094 356.945312 412.269531 357.046875 L 410.84375 357.046875 L 410.84375 353.59375 L 412.269531 353.59375 C 414.625 353.492188 416.800781 353.117188 418.804688 352.464844 C 420.804688 351.816406 422.207031 351.214844 423.007812 350.664062 C 423.808594 350.113281 424.507812 349.5625 425.109375 349.011719 C 425.210938 348.859375 425.511719 348.785156 426.011719 348.785156 C 426.460938 348.785156 426.886719 348.9375 427.289062 349.234375 L 427.289062 371.691406 L 427.363281 394.222656 C 427.714844 394.574219 428.011719 394.796875 428.261719 394.898438 C 428.515625 395 429.113281 395.097656 430.066406 395.199219 C 431.015625 395.300781 432.566406 395.347656 434.722656 395.347656 L 436.671875 395.347656 L 436.671875 398.804688 L 435.847656 398.804688 C 434.796875 398.652344 430.816406 398.578125 423.910156 398.578125 C 417.101562 398.578125 413.171875 398.652344 412.121094 398.804688 L 411.21875 398.804688 L 411.21875 395.347656 L 413.171875 395.347656 C 414.273438 395.347656 415.222656 395.347656 416.023438 395.347656 C 416.824219 395.347656 417.453125 395.324219 417.902344 395.273438 C 418.351562 395.222656 418.753906 395.148438 419.101562 395.046875 C 419.453125 394.949219 419.652344 394.898438 419.703125 394.898438 C 419.753906 394.898438 419.90625 394.773438 420.15625 394.523438 C 420.40625 394.273438 420.554688 394.171875 420.605469 394.222656 Z M 420.605469 355.394531 " fill-opacity="1" fill-rule="nonzero"/><path fill="#000000" d="M 449.363281 354.867188 C 452.164062 350.8125 455.996094 348.785156 460.851562 348.785156 C 463.253906 348.785156 465.65625 349.4375 468.058594 350.738281 C 470.460938 352.039062 472.414062 354.34375 473.914062 357.648438 C 475.765625 361.804688 476.691406 367.511719 476.691406 374.769531 C 476.691406 382.53125 475.617188 388.464844 473.464844 392.570312 C 472.460938 394.671875 471.085938 396.351562 469.335938 397.601562 C 467.582031 398.855469 466.054688 399.628906 464.753906 399.929688 C 463.453125 400.230469 462.175781 400.40625 460.925781 400.457031 C 459.625 400.457031 458.320312 400.304688 457.019531 400.003906 C 455.71875 399.703125 454.191406 398.902344 452.441406 397.601562 C 450.6875 396.300781 449.3125 394.625 448.3125 392.570312 C 446.160156 388.464844 445.082031 382.53125 445.082031 374.769531 C 445.082031 366.058594 446.507812 359.425781 449.363281 354.867188 Z M 466.253906 353.96875 C 464.753906 352.367188 462.976562 351.5625 460.925781 351.5625 C 458.824219 351.5625 457.019531 352.367188 455.519531 353.96875 C 454.265625 355.269531 453.441406 357.070312 453.042969 359.375 C 452.640625 361.679688 452.441406 366.484375 452.441406 373.792969 C 452.441406 381.707031 452.640625 386.914062 453.042969 389.414062 C 453.441406 391.917969 454.34375 393.898438 455.742188 395.347656 C 457.144531 396.851562 458.871094 397.601562 460.925781 397.601562 C 462.925781 397.601562 464.628906 396.851562 466.03125 395.347656 C 467.480469 393.847656 468.382812 391.746094 468.734375 389.039062 C 469.082031 386.335938 469.285156 381.253906 469.335938 373.792969 C 469.335938 366.535156 469.132812 361.753906 468.734375 359.449219 C 468.332031 357.148438 467.507812 355.320312 466.253906 353.96875 Z M 466.253906 353.96875 " fill-opacity="1" fill-rule="nonzero"/><path fill="#000000" d="M 486.632812 355.203125 C 486.632812 355.203125 486.632812 354.972656 486.632812 354.511719 C 486.632812 354.050781 486.878906 353.699219 487.375 353.449219 L 518.21875 353.449219 C 518.75 353.734375 519.011719 354.085938 519.011719 354.511719 C 519.011719 354.9375 518.75 355.289062 518.21875 355.574219 L 487.375 355.574219 C 486.878906 355.324219 486.632812 354.972656 486.632812 354.511719 Z M 486.632812 355.203125 " fill-opacity="1" fill-rule="nonzero"/><path fill="#000000" d="M 529.257812 345.007812 C 528.304688 345.007812 527.542969 344.6875 526.976562 344.050781 C 526.410156 343.414062 526.125 342.636719 526.125 341.714844 C 526.125 339.203125 527.066406 337.023438 528.941406 335.183594 C 530.816406 333.34375 533.152344 332.421875 535.949219 332.421875 C 539.167969 332.421875 541.855469 333.414062 544.015625 335.398438 C 546.175781 337.378906 547.273438 339.945312 547.308594 343.097656 C 547.308594 344.617188 546.953125 346.070312 546.246094 347.449219 C 545.539062 348.832031 544.6875 350.035156 543.699219 351.0625 C 542.707031 352.085938 541.292969 353.398438 539.449219 354.988281 C 538.175781 356.085938 536.40625 357.714844 534.140625 359.875 L 531.011719 362.847656 L 535.046875 362.902344 C 540.601562 362.902344 543.554688 362.8125 543.910156 362.636719 C 544.15625 362.566406 544.582031 360.988281 545.183594 357.910156 L 545.183594 357.75 L 547.308594 357.75 L 547.308594 357.910156 C 547.273438 358.015625 547.042969 359.628906 546.617188 362.742188 C 546.191406 365.855469 545.925781 367.484375 545.820312 367.628906 L 545.820312 367.785156 L 526.125 367.785156 L 526.125 366.140625 C 526.125 365.890625 526.234375 365.628906 526.445312 365.34375 C 526.65625 365.0625 527.1875 364.441406 528.039062 363.484375 C 529.0625 362.351562 529.949219 361.363281 530.691406 360.511719 C 531.011719 360.15625 531.613281 359.503906 532.496094 358.546875 C 533.382812 357.589844 533.984375 356.9375 534.300781 356.582031 C 534.621094 356.230469 535.132812 355.644531 535.839844 354.832031 C 536.550781 354.015625 537.042969 353.414062 537.328125 353.023438 C 537.609375 352.636719 538.019531 352.105469 538.546875 351.433594 C 539.078125 350.757812 539.449219 350.191406 539.664062 349.734375 C 539.875 349.273438 540.140625 348.757812 540.460938 348.191406 C 540.777344 347.628906 541.007812 347.0625 541.148438 346.496094 C 541.292969 345.929688 541.414062 345.398438 541.519531 344.902344 C 541.628906 344.40625 541.679688 343.820312 541.679688 343.148438 C 541.679688 340.917969 541.078125 338.988281 539.875 337.363281 C 538.671875 335.734375 536.957031 334.917969 534.726562 334.917969 C 533.558594 334.917969 532.53125 335.21875 531.648438 335.820312 C 530.761719 336.421875 530.144531 337.007812 529.789062 337.574219 C 529.4375 338.140625 529.257812 338.476562 529.257812 338.582031 C 529.257812 338.617188 529.347656 338.636719 529.523438 338.636719 C 530.160156 338.636719 530.816406 338.882812 531.488281 339.378906 C 532.160156 339.875 532.496094 340.6875 532.496094 341.820312 C 532.496094 342.707031 532.214844 343.449219 531.648438 344.050781 C 531.082031 344.652344 530.285156 344.972656 529.257812 345.007812 Z M 529.257812 345.007812 " fill-opacity="1" fill-rule="nonzero"/><path fill="#000000" d="M 558.285156 342.550781 L 558.585938 342.476562 C 558.835938 342.476562 559.085938 342.476562 559.335938 342.476562 L 560.238281 342.476562 L 562.339844 344.277344 C 567.046875 348.535156 570.472656 353.84375 572.625 360.199219 C 574.777344 366.558594 575.855469 373.167969 575.855469 380.027344 C 575.855469 383.433594 575.605469 386.710938 575.105469 389.867188 C 574.601562 393.019531 574.027344 395.699219 573.378906 397.902344 C 572.726562 400.105469 571.800781 402.308594 570.597656 404.511719 C 569.398438 406.714844 568.445312 408.390625 567.746094 409.542969 C 567.046875 410.695312 566.019531 411.972656 564.667969 413.375 C 563.316406 414.777344 562.515625 415.601562 562.265625 415.851562 C 562.015625 416.101562 561.4375 416.578125 560.539062 417.277344 C 560.386719 417.429688 560.289062 417.53125 560.238281 417.578125 L 559.335938 417.578125 C 558.9375 417.578125 558.660156 417.578125 558.511719 417.578125 C 558.359375 417.578125 558.234375 417.503906 558.136719 417.355469 C 558.035156 417.203125 557.960938 416.980469 557.910156 416.679688 C 557.960938 416.628906 558.234375 416.304688 558.734375 415.703125 C 566.496094 407.640625 570.375 395.75 570.375 380.027344 C 570.375 364.304688 566.496094 352.414062 558.734375 344.355469 C 558.234375 343.753906 557.960938 343.429688 557.910156 343.378906 C 557.910156 342.976562 558.035156 342.703125 558.285156 342.550781 Z M 558.285156 342.550781 " fill-opacity="1" fill-rule="nonzero"/><path fill="#000000" d="M 646.972656 396.625 C 646.972656 397.628906 646.449219 398.128906 645.398438 398.128906 C 645.148438 398.128906 644.597656 397.726562 643.746094 396.925781 C 642.894531 396.125 640.542969 393.796875 636.6875 389.941406 L 628.878906 382.132812 L 620.996094 390.015625 C 615.6875 395.222656 612.960938 397.878906 612.8125 397.976562 C 612.609375 398.078125 612.433594 398.128906 612.285156 398.128906 C 611.886719 398.128906 611.535156 397.976562 611.234375 397.675781 C 610.933594 397.375 610.757812 397.027344 610.707031 396.625 C 610.707031 396.273438 611.058594 395.726562 611.757812 394.972656 C 612.460938 394.222656 614.8125 391.84375 618.816406 387.839844 L 626.625 380.027344 L 618.816406 372.21875 C 614.761719 368.160156 612.410156 365.785156 611.757812 365.082031 C 611.109375 364.382812 610.757812 363.832031 610.707031 363.429688 C 610.707031 362.980469 610.859375 362.628906 611.160156 362.378906 C 611.460938 362.128906 611.835938 362.003906 612.285156 362.003906 C 612.535156 362.003906 612.710938 362.027344 612.8125 362.078125 C 612.960938 362.179688 615.6875 364.832031 620.996094 370.039062 L 628.878906 377.925781 L 636.6875 370.113281 C 640.542969 366.257812 642.894531 363.929688 643.746094 363.128906 C 644.597656 362.328125 645.148438 361.929688 645.398438 361.929688 C 646.449219 361.929688 646.972656 362.429688 646.972656 363.429688 C 646.972656 363.78125 646.722656 364.230469 646.222656 364.78125 C 645.722656 365.332031 643.269531 367.785156 638.863281 372.140625 L 631.054688 380.027344 L 638.863281 387.914062 C 643.070312 392.121094 645.472656 394.546875 646.074219 395.199219 C 646.671875 395.851562 646.972656 396.324219 646.972656 396.625 Z M 646.972656 396.625 " fill-opacity="1" fill-rule="nonzero"/><path fill="#000000" d="M 682.960938 366.585938 C 681.609375 366.585938 680.535156 366.132812 679.734375 365.234375 C 678.933594 364.332031 678.53125 363.230469 678.53125 361.929688 C 678.53125 358.375 679.859375 355.292969 682.511719 352.691406 C 685.164062 350.085938 688.46875 348.785156 692.421875 348.785156 C 696.976562 348.785156 700.78125 350.1875 703.835938 352.992188 C 706.886719 355.796875 708.4375 359.425781 708.488281 363.882812 C 708.488281 366.035156 707.988281 368.085938 706.988281 370.039062 C 705.988281 371.992188 704.785156 373.695312 703.382812 375.144531 C 701.980469 376.597656 699.980469 378.449219 697.378906 380.703125 C 695.574219 382.257812 693.074219 384.558594 689.867188 387.613281 L 685.4375 391.820312 L 691.144531 391.894531 C 699.003906 391.894531 703.183594 391.769531 703.683594 391.519531 C 704.035156 391.417969 704.636719 389.191406 705.484375 384.835938 L 705.484375 384.609375 L 708.488281 384.609375 L 708.488281 384.835938 C 708.4375 384.984375 708.113281 387.261719 707.511719 391.667969 C 706.914062 396.074219 706.539062 398.378906 706.386719 398.578125 L 706.386719 398.804688 L 678.53125 398.804688 L 678.53125 396.476562 C 678.53125 396.125 678.679688 395.75 678.980469 395.347656 C 679.28125 394.949219 680.03125 394.074219 681.234375 392.71875 C 682.6875 391.117188 683.9375 389.714844 684.988281 388.515625 C 685.4375 388.015625 686.289062 387.085938 687.542969 385.734375 C 688.792969 384.382812 689.644531 383.457031 690.09375 382.957031 C 690.542969 382.457031 691.269531 381.628906 692.273438 380.480469 C 693.273438 379.328125 693.972656 378.476562 694.375 377.925781 C 694.773438 377.375 695.351562 376.625 696.101562 375.671875 C 696.851562 374.722656 697.378906 373.917969 697.675781 373.269531 C 697.976562 372.617188 698.351562 371.890625 698.804688 371.089844 C 699.253906 370.289062 699.578125 369.488281 699.78125 368.6875 C 699.980469 367.886719 700.15625 367.136719 700.304688 366.433594 C 700.457031 365.734375 700.53125 364.90625 700.53125 363.957031 C 700.53125 360.800781 699.679688 358.074219 697.976562 355.769531 C 696.277344 353.464844 693.847656 352.316406 690.695312 352.316406 C 689.042969 352.316406 687.589844 352.742188 686.339844 353.59375 C 685.089844 354.441406 684.210938 355.269531 683.710938 356.070312 C 683.210938 356.871094 682.960938 357.347656 682.960938 357.496094 C 682.960938 357.546875 683.085938 357.574219 683.335938 357.574219 C 684.238281 357.574219 685.164062 357.921875 686.113281 358.625 C 687.066406 359.324219 687.542969 360.476562 687.542969 362.078125 C 687.542969 363.332031 687.140625 364.382812 686.339844 365.234375 C 685.539062 366.085938 684.414062 366.535156 682.960938 366.585938 Z M 682.960938 366.585938 " fill-opacity="1" fill-rule="nonzero"/></svg>