<svg xmlns="http://www.w3.org/2000/svg" xmlns:xlink="http://www.w3.org/1999/xlink" width="1000" zoomAndPan="magnify" viewBox="0 0 750 749.999995" height="1000" preserveAspectRatio="xMidYMid meet" version="1.0"><defs><g/></defs><rect x="-75" width="900" fill="#ffffff" y="-74.999999" height="899.999994" fill-opacity="1"/><rect x="-75" width="900" fill="#ffffff" y="-74.999999" height="899.999994" fill-opacity="1"/><g fill="#000000" fill-opacity="1"><g transform="translate(101.522084, 463.467973)"><g><path d="M 137.3125 0 L 102.171875 0 L 102.171875 -75.21875 C 102.171875 -84.507812 100.519531 -91.476562 97.21875 -96.125 C 93.914062 -100.769531 88.65625 -103.09375 81.4375 -103.09375 C 71.613281 -103.09375 64.507812 -99.8125 60.125 -93.25 C 55.75 -86.6875 53.5625 -75.800781 53.5625 -60.59375 L 53.5625 0 L 18.4375 0 L 18.4375 -128.796875 L 45.265625 -128.796875 L 50 -112.3125 L 51.953125 -112.3125 C 55.867188 -118.53125 61.265625 -123.234375 68.140625 -126.421875 C 75.015625 -129.609375 82.828125 -131.203125 91.578125 -131.203125 C 106.554688 -131.203125 117.921875 -127.148438 125.671875 -119.046875 C 133.429688 -110.953125 137.3125 -99.265625 137.3125 -83.984375 Z M 137.3125 0 "/></g></g><g transform="translate(256.571453, 463.467973)"><g/></g><g transform="translate(317.853969, 463.467973)"><g><path d="M 54.71875 -70.5 L 10.140625 -70.5 L 10.140625 -95.734375 L 54.71875 -95.734375 L 54.71875 -140.65625 L 79.953125 -140.65625 L 79.953125 -95.734375 L 124.53125 -95.734375 L 124.53125 -70.5 L 79.953125 -70.5 L 79.953125 -26.15625 L 54.71875 -26.15625 Z M 54.71875 -70.5 "/></g></g><g transform="translate(452.514231, 463.467973)"><g/></g><g transform="translate(513.796746, 463.467973)"><g><path d="M 97.453125 0 L 61.859375 0 L 61.859375 -97.453125 L 62.203125 -113.46875 L 62.78125 -130.984375 C 56.863281 -125.066406 52.753906 -121.1875 50.453125 -119.34375 L 31.109375 -103.796875 L 13.9375 -125.21875 L 68.203125 -168.421875 L 97.453125 -168.421875 Z M 97.453125 0 "/></g></g></g></svg>