<svg xmlns="http://www.w3.org/2000/svg" xmlns:xlink="http://www.w3.org/1999/xlink" width="1000" zoomAndPan="magnify" viewBox="0 0 750 749.999995" height="1000" preserveAspectRatio="xMidYMid meet" version="1.0"><rect x="-75" width="900" fill="#ffffff" y="-74.999999" height="899.999994" fill-opacity="1"/><rect x="-75" width="900" fill="#ffffff" y="-74.999999" height="899.999994" fill-opacity="1"/><path fill="#000000" d="M 366.664062 169.527344 L 363.785156 170.636719 C 361.714844 171.375 358.757812 172.117188 354.917969 172.855469 C 351.074219 173.59375 346.789062 174.113281 342.058594 174.410156 L 337.847656 174.410156 L 337.847656 164.203125 L 342.058594 164.203125 C 349.003906 163.90625 355.433594 162.796875 361.34375 160.871094 C 367.257812 158.949219 371.394531 157.175781 373.757812 155.546875 C 376.125 153.921875 378.191406 152.292969 379.964844 150.664062 C 380.261719 150.222656 381.148438 150 382.625 150 C 383.957031 150 385.210938 150.445312 386.394531 151.332031 L 386.394531 217.675781 L 386.617188 284.246094 C 387.652344 285.28125 388.539062 285.945312 389.277344 286.242188 C 390.015625 286.539062 391.789062 286.835938 394.597656 287.128906 C 397.40625 287.425781 401.984375 287.574219 408.339844 287.574219 L 414.105469 287.574219 L 414.105469 297.78125 L 411.664062 297.78125 C 408.5625 297.335938 396.8125 297.117188 376.417969 297.117188 C 356.320312 297.117188 344.71875 297.335938 341.617188 297.78125 L 338.957031 297.78125 L 338.957031 287.574219 L 344.71875 287.574219 C 347.972656 287.574219 350.777344 287.574219 353.144531 287.574219 C 355.507812 287.574219 357.355469 287.5 358.683594 287.351562 C 360.015625 287.203125 361.199219 286.980469 362.230469 286.6875 C 363.265625 286.390625 363.859375 286.242188 364.003906 286.242188 C 364.152344 286.242188 364.597656 285.871094 365.335938 285.132812 C 366.074219 284.394531 366.519531 284.097656 366.664062 284.246094 Z M 366.664062 169.527344 " fill-opacity="1" fill-rule="nonzero"/><path fill="#000000" d="M 421.863281 600 C 419.203125 599.554688 409.671875 599.335938 393.265625 599.335938 C 376.125 599.335938 366.222656 599.554688 363.5625 600 L 361.566406 600 L 361.566406 589.792969 L 368.4375 589.792969 C 371.394531 589.792969 373.390625 589.792969 374.425781 589.792969 C 375.457031 589.792969 376.714844 589.644531 378.191406 589.347656 C 379.671875 589.054688 380.703125 588.683594 381.296875 588.238281 C 381.886719 587.796875 382.40625 587.203125 382.847656 586.464844 C 382.996094 586.167969 383.070312 582.175781 383.070312 574.480469 L 383.070312 563.386719 L 325.65625 563.386719 L 325.65625 553.179688 L 359.128906 501.921875 C 381.738281 467.605469 393.191406 450.371094 393.488281 450.222656 C 393.785156 449.925781 395.335938 449.777344 398.144531 449.777344 L 402.132812 449.777344 L 403.464844 451.109375 L 403.464844 553.179688 L 423.855469 553.179688 L 423.855469 563.386719 L 403.464844 563.386719 L 403.464844 574.703125 C 403.464844 580.769531 403.464844 584.320312 403.464844 585.355469 C 403.464844 586.390625 403.90625 587.277344 404.792969 588.019531 C 405.976562 589.054688 410.1875 589.644531 417.429688 589.792969 L 423.855469 589.792969 L 423.855469 600 Z M 384.398438 553.179688 L 384.398438 479.066406 L 335.851562 552.957031 L 360.015625 553.179688 Z M 384.398438 553.179688 " fill-opacity="1" fill-rule="nonzero"/><path fill="#000000" d="M 297.28125 398.964844 L 452.453125 398.964844 L 452.453125 385.652344 L 297.28125 385.652344 Z M 297.28125 398.964844 " fill-opacity="1" fill-rule="nonzero"/></svg>