<svg xmlns="http://www.w3.org/2000/svg" xmlns:xlink="http://www.w3.org/1999/xlink" width="1000" zoomAndPan="magnify" viewBox="0 0 750 749.999995" height="1000" preserveAspectRatio="xMidYMid meet" version="1.0"><rect x="-75" width="900" fill="#ffffff" y="-74.999999" height="899.999994" fill-opacity="1"/><rect x="-75" width="900" fill="#ffffff" y="-74.999999" height="899.999994" fill-opacity="1"/><path fill="#000000" d="M 343.945312 202.023438 C 340 202.023438 336.855469 200.707031 334.519531 198.074219 C 332.179688 195.4375 331.007812 192.21875 331.007812 188.414062 C 331.007812 178.023438 334.882812 169.023438 342.632812 161.414062 C 350.378906 153.804688 360.027344 150 371.578125 150 C 384.882812 150 395.992188 154.097656 404.910156 162.292969 C 413.828125 170.488281 418.359375 181.097656 418.507812 194.121094 C 418.507812 200.414062 417.046875 206.414062 414.121094 212.121094 C 411.195312 217.828125 407.6875 222.804688 403.59375 227.046875 C 399.5 231.292969 393.652344 236.707031 386.050781 243.292969 C 380.789062 247.828125 373.480469 254.5625 364.121094 263.488281 L 351.183594 275.78125 L 367.851562 276 C 390.804688 276 403.011719 275.632812 404.472656 274.902344 C 405.496094 274.609375 407.25 268.097656 409.734375 255.367188 L 409.734375 254.707031 L 418.507812 254.707031 L 418.507812 255.367188 C 418.359375 255.804688 417.410156 262.464844 415.65625 275.339844 C 413.902344 288.21875 412.804688 294.953125 412.367188 295.535156 L 412.367188 296.195312 L 331.007812 296.195312 L 331.007812 289.390625 C 331.007812 288.367188 331.449219 287.269531 332.324219 286.097656 C 333.203125 284.925781 335.394531 282.367188 338.902344 278.414062 C 343.144531 273.730469 346.796875 269.632812 349.867188 266.121094 C 351.183594 264.660156 353.667969 261.953125 357.324219 258 C 360.980469 254.046875 363.464844 251.339844 364.78125 249.878906 C 366.097656 248.414062 368.214844 246 371.140625 242.632812 C 374.0625 239.269531 376.109375 236.78125 377.28125 235.171875 C 378.449219 233.5625 380.128906 231.367188 382.324219 228.585938 C 384.515625 225.804688 386.050781 223.464844 386.929688 221.5625 C 387.804688 219.660156 388.902344 217.535156 390.21875 215.195312 C 391.535156 212.855469 392.484375 210.511719 393.070312 208.171875 C 393.652344 205.828125 394.164062 203.632812 394.605469 201.585938 C 395.042969 199.535156 395.261719 197.121094 395.261719 194.339844 C 395.261719 185.121094 392.777344 177.144531 387.804688 170.414062 C 382.835938 163.683594 375.746094 160.316406 366.535156 160.316406 C 361.710938 160.316406 357.46875 161.5625 353.816406 164.046875 C 350.160156 166.535156 347.601562 168.953125 346.140625 171.292969 C 344.679688 173.632812 343.945312 175.023438 343.945312 175.464844 C 343.945312 175.609375 344.3125 175.683594 345.042969 175.683594 C 347.675781 175.683594 350.378906 176.707031 353.15625 178.757812 C 355.933594 180.804688 357.324219 184.171875 357.324219 188.855469 C 357.324219 192.511719 356.15625 195.585938 353.816406 198.074219 C 351.476562 200.5625 348.1875 201.878906 343.945312 202.023438 Z M 343.945312 202.023438 " fill-opacity="1" fill-rule="nonzero"/><path fill="#000000" d="M 335.394531 503.632812 C 335.394531 503.632812 335.394531 498 335.394531 486.730469 C 335.394531 475.464844 339.34375 466.390625 347.238281 459.511719 C 355.132812 452.632812 364.195312 449.121094 374.429688 448.976562 C 384.808594 448.976562 394.019531 452.046875 402.058594 458.195312 C 410.101562 464.339844 414.121094 472.316406 414.121094 482.121094 C 414.121094 486.511719 413.316406 490.609375 411.707031 494.414062 C 410.101562 498.21875 408.199219 501.292969 406.007812 503.632812 C 403.8125 505.976562 401.546875 508.023438 399.210938 509.78125 C 396.871094 511.535156 394.96875 512.855469 393.507812 513.730469 C 392.046875 514.609375 391.242188 515.195312 391.09375 515.488281 L 394.164062 517.464844 C 396.210938 518.925781 398.257812 520.390625 400.304688 521.855469 C 402.351562 523.316406 403.523438 524.121094 403.8125 524.269531 C 414.777344 532.902344 420.261719 543.804688 420.261719 556.976562 C 420.261719 568.535156 416.023438 578.5625 407.542969 587.046875 C 399.0625 595.535156 388.097656 599.855469 374.648438 600 C 361.492188 600 350.671875 596.269531 342.191406 588.804688 C 333.714844 581.339844 329.472656 572.121094 329.472656 561.144531 C 329.472656 545.339844 338.902344 532.171875 357.761719 521.632812 L 353.816406 518.78125 C 350.746094 516.878906 348.773438 515.414062 347.894531 514.390625 C 339.5625 507.21875 335.394531 498 335.394531 486.730469 Z M 382.761719 510.4375 L 384.078125 509.5625 C 384.957031 508.976562 385.613281 508.535156 386.050781 508.242188 C 386.488281 507.953125 387.222656 507.4375 388.246094 506.707031 C 389.269531 505.976562 390.144531 505.242188 390.875 504.511719 C 391.605469 503.78125 392.410156 502.902344 393.289062 501.878906 C 394.164062 500.855469 394.96875 499.902344 395.699219 499.023438 C 396.429688 498.144531 397.164062 496.976562 397.894531 495.511719 C 398.625 494.046875 399.28125 492.804688 399.867188 491.78125 C 400.453125 490.757812 400.816406 489.292969 400.964844 487.390625 C 401.109375 485.488281 401.257812 483.878906 401.402344 482.5625 C 401.402344 476.269531 399.28125 470.925781 395.042969 466.535156 C 390.804688 462.144531 385.90625 459.367188 380.351562 458.195312 C 379.328125 458.046875 376.914062 457.976562 373.113281 457.976562 C 367.121094 457.976562 361.492188 459.878906 356.226562 463.683594 C 350.964844 467.488281 348.261719 472.242188 348.113281 477.953125 C 348.113281 481.316406 349.0625 484.390625 350.964844 487.171875 C 352.863281 489.953125 354.765625 492.074219 356.667969 493.535156 C 358.566406 495 362.222656 497.339844 367.632812 500.5625 C 368.65625 501.292969 369.457031 501.804688 370.042969 502.097656 Z M 374.867188 590.5625 C 383.347656 590.5625 390.65625 588.074219 396.796875 583.097656 C 402.9375 578.121094 406.007812 572.121094 406.007812 565.097656 C 406.007812 562.609375 405.640625 560.269531 404.910156 558.074219 C 404.179688 555.878906 403.300781 554.046875 402.28125 552.585938 C 401.257812 551.121094 399.648438 549.511719 397.453125 547.757812 C 395.261719 546 393.582031 544.683594 392.410156 543.804688 C 391.242188 542.925781 389.121094 541.535156 386.050781 539.632812 C 382.980469 537.730469 381.007812 536.488281 380.128906 535.902344 C 378.082031 534.585938 375.890625 533.195312 373.550781 531.730469 C 371.210938 530.269531 369.3125 529.023438 367.851562 528 L 366.097656 526.902344 C 365.21875 526.902344 363.097656 528.144531 359.738281 530.632812 C 356.375 533.121094 352.863281 537.144531 349.210938 542.707031 C 345.554688 548.269531 343.65625 554.269531 343.507812 560.707031 C 343.507812 569.339844 346.652344 576.4375 352.9375 582 C 359.226562 587.5625 366.535156 590.414062 374.867188 590.5625 Z M 374.867188 590.5625 " fill-opacity="1" fill-rule="nonzero"/><path fill="#000000" d="M 298.113281 396.292969 L 451.621094 396.292969 L 451.621094 383.121094 L 298.113281 383.121094 Z M 298.113281 396.292969 " fill-opacity="1" fill-rule="nonzero"/></svg>