<svg xmlns="http://www.w3.org/2000/svg" xmlns:xlink="http://www.w3.org/1999/xlink" width="1000" zoomAndPan="magnify" viewBox="0 0 750 749.999995" height="1000" preserveAspectRatio="xMidYMid meet" version="1.0"><defs><clipPath id="f727ba1051"><path d="M 169 257.144531 L 314 257.144531 L 314 492.855469 L 169 492.855469 Z M 169 257.144531 " clip-rule="nonzero"/></clipPath><clipPath id="a93e4451bd"><path d="M 439 257.144531 L 577 257.144531 L 577 486 L 439 486 Z M 439 257.144531 " clip-rule="nonzero"/></clipPath></defs><rect x="-75" width="900" fill="#ffffff" y="-74.999999" height="899.999994" fill-opacity="1"/><rect x="-75" width="900" fill="#ffffff" y="-74.999999" height="899.999994" fill-opacity="1"/><g clip-path="url(#f727ba1051)"><path fill="#000000" d="M 188.980469 284.894531 C 201.777344 266.394531 219.257812 257.144531 241.425781 257.144531 C 252.394531 257.144531 263.363281 260.113281 274.332031 266.050781 C 285.300781 271.988281 294.210938 282.496094 301.066406 297.570312 C 309.523438 316.527344 313.75 342.566406 313.75 375.683594 C 313.75 411.089844 308.835938 438.152344 299.011719 456.882812 C 294.441406 466.476562 288.15625 474.128906 280.15625 479.839844 C 272.160156 485.546875 265.191406 489.089844 259.25 490.457031 C 253.308594 491.828125 247.480469 492.628906 241.765625 492.855469 C 235.824219 492.855469 229.882812 492.171875 223.941406 490.800781 C 218 489.429688 211.03125 485.777344 203.035156 479.839844 C 195.035156 473.898438 188.75 466.246094 184.179688 456.882812 C 174.355469 438.152344 169.441406 411.089844 169.441406 375.683594 C 169.441406 335.941406 175.953125 305.679688 188.980469 284.894531 Z M 266.105469 280.78125 C 259.25 273.472656 251.136719 269.820312 241.765625 269.820312 C 232.167969 269.820312 223.941406 273.472656 217.085938 280.78125 C 211.375 286.722656 207.605469 294.945312 205.777344 305.449219 C 203.949219 315.957031 203.035156 337.882812 203.035156 371.230469 C 203.035156 407.320312 203.949219 431.074219 205.777344 442.492188 C 207.605469 453.914062 211.71875 462.9375 218.117188 469.558594 C 224.515625 476.410156 232.398438 479.839844 241.765625 479.839844 C 250.90625 479.839844 258.675781 476.410156 265.074219 469.558594 C 271.703125 462.707031 275.816406 453.113281 277.414062 440.78125 C 279.015625 428.445312 279.929688 405.265625 280.15625 371.230469 C 280.15625 338.113281 279.242188 316.300781 277.414062 305.792969 C 275.585938 295.285156 271.816406 286.949219 266.105469 280.78125 Z M 266.105469 280.78125 " fill-opacity="1" fill-rule="nonzero"/></g><path fill="#000000" d="M 354.199219 464.761719 C 354.199219 459.28125 356.140625 454.484375 360.023438 450.375 C 363.910156 446.261719 368.824219 444.207031 374.765625 444.207031 C 380.25 444.207031 385.046875 446.035156 389.160156 449.6875 C 393.273438 453.34375 395.445312 458.253906 395.671875 464.421875 C 395.671875 470.128906 393.730469 475.042969 389.847656 479.152344 C 385.960938 483.265625 381.046875 485.320312 375.105469 485.320312 C 369.164062 485.320312 364.253906 483.378906 360.367188 479.496094 C 356.484375 475.613281 354.425781 470.703125 354.199219 464.761719 Z M 354.199219 464.761719 " fill-opacity="1" fill-rule="nonzero"/><g clip-path="url(#a93e4451bd)"><path fill="#000000" d="M 460.117188 338.339844 C 453.945312 338.339844 449.03125 336.285156 445.375 332.175781 C 441.71875 328.0625 439.890625 323.039062 439.890625 317.097656 C 439.890625 300.882812 445.949219 286.835938 458.058594 274.957031 C 470.171875 263.082031 485.253906 257.144531 503.304688 257.144531 C 524.101562 257.144531 541.46875 263.539062 555.40625 276.328125 C 569.347656 289.121094 576.429688 305.679688 576.660156 326.007812 C 576.660156 335.828125 574.375 345.191406 569.804688 354.101562 C 565.234375 363.007812 559.75 370.773438 553.351562 377.398438 C 546.953125 384.023438 537.8125 392.472656 525.929688 402.75 C 517.703125 409.832031 506.277344 420.339844 491.652344 434.269531 L 471.425781 453.457031 L 497.476562 453.800781 C 533.355469 453.800781 552.4375 453.230469 554.722656 452.085938 C 556.320312 451.628906 559.0625 441.464844 562.949219 421.59375 L 562.949219 420.566406 L 576.660156 420.566406 L 576.660156 421.59375 C 576.429688 422.28125 574.945312 432.671875 572.203125 452.773438 C 569.460938 472.871094 567.746094 483.378906 567.0625 484.292969 L 567.0625 485.320312 L 439.890625 485.320312 L 439.890625 474.699219 C 439.890625 473.101562 440.578125 471.386719 441.949219 469.558594 C 443.320312 467.734375 446.746094 463.734375 452.230469 457.570312 C 458.859375 450.257812 464.570312 443.863281 469.371094 438.382812 C 471.425781 436.097656 475.3125 431.871094 481.023438 425.707031 C 486.738281 419.539062 490.621094 415.3125 492.679688 413.03125 C 494.734375 410.746094 498.050781 406.976562 502.621094 401.722656 C 507.191406 396.46875 510.390625 392.585938 512.21875 390.074219 C 514.046875 387.5625 516.671875 384.136719 520.101562 379.796875 C 523.527344 375.457031 525.929688 371.800781 527.300781 368.832031 C 528.671875 365.863281 530.382812 362.550781 532.441406 358.898438 C 534.5 355.242188 535.984375 351.589844 536.898438 347.933594 C 537.8125 344.28125 538.613281 340.851562 539.296875 337.65625 C 539.984375 334.457031 540.324219 330.6875 540.324219 326.351562 C 540.324219 311.960938 536.441406 299.511719 528.671875 289.003906 C 520.902344 278.5 509.816406 273.246094 495.421875 273.246094 C 487.878906 273.246094 481.253906 275.1875 475.539062 279.070312 C 469.828125 282.953125 465.828125 286.722656 463.542969 290.375 C 461.257812 294.03125 460.117188 296.199219 460.117188 296.886719 C 460.117188 297.113281 460.6875 297.226562 461.828125 297.226562 C 465.941406 297.226562 470.171875 298.828125 474.511719 302.023438 C 478.855469 305.222656 481.023438 310.476562 481.023438 317.785156 C 481.023438 323.496094 479.195312 328.292969 475.539062 332.175781 C 471.882812 336.058594 466.742188 338.113281 460.117188 338.339844 Z M 460.117188 338.339844 " fill-opacity="1" fill-rule="nonzero"/></g></svg>