<svg xmlns="http://www.w3.org/2000/svg" xmlns:xlink="http://www.w3.org/1999/xlink" width="1000" zoomAndPan="magnify" viewBox="0 0 750 749.999995" height="1000" preserveAspectRatio="xMidYMid meet" version="1.0"><defs><clipPath id="8e2d7d4668"><path d="M 112.5 378 L 371 378 L 371 561 L 112.5 561 Z M 112.5 378 " clip-rule="nonzero"/></clipPath><clipPath id="c26a5301fa"><path d="M 191 112.5 L 374 112.5 L 374 371 L 191 371 Z M 191 112.5 " clip-rule="nonzero"/></clipPath><clipPath id="eee84855d3"><path d="M 378 112.5 L 561 112.5 L 561 371 L 378 371 Z M 378 112.5 " clip-rule="nonzero"/></clipPath><clipPath id="4f49b95599"><path d="M 112.5 190 L 371 190 L 371 374 L 112.5 374 Z M 112.5 190 " clip-rule="nonzero"/></clipPath><clipPath id="1d94419078"><path d="M 192 381 L 374 381 L 374 637.5 L 192 637.5 Z M 192 381 " clip-rule="nonzero"/></clipPath><clipPath id="2cebdd528e"><path d="M 381 192 L 637.5 192 L 637.5 374 L 381 374 Z M 381 192 " clip-rule="nonzero"/></clipPath><clipPath id="74ae91542c"><path d="M 378 381 L 560 381 L 560 637.5 L 378 637.5 Z M 378 381 " clip-rule="nonzero"/></clipPath><clipPath id="ef69fb0f78"><path d="M 381 378 L 637.5 378 L 637.5 559 L 381 559 Z M 381 378 " clip-rule="nonzero"/></clipPath></defs><rect x="-75" width="900" fill="#ffffff" y="-74.999999" height="899.999994" fill-opacity="1"/><rect x="-75" width="900" fill="#ffffff" y="-74.999999" height="899.999994" fill-opacity="1"/><g clip-path="url(#8e2d7d4668)"><path fill="#a6a6a6" d="M 370.726562 378.371094 L 112.628906 378.371094 C 113.53125 449.273438 142.488281 513.402344 188.976562 560.125 Z M 370.726562 378.371094 " fill-opacity="1" fill-rule="evenodd"/></g><g clip-path="url(#c26a5301fa)"><path fill="#a6a6a6" d="M 373.925781 112.484375 C 302.699219 112.785156 238.191406 141.460938 191.070312 187.78125 L 373.925781 370.640625 Z M 373.925781 112.484375 " fill-opacity="1" fill-rule="evenodd"/></g><g clip-path="url(#eee84855d3)"><path fill="#a6a6a6" d="M 378.453125 112.539062 L 378.453125 370.636719 L 560.210938 188.886719 C 513.488281 142.398438 449.355469 113.441406 378.453125 112.539062 " fill-opacity="1" fill-rule="evenodd"/></g><g clip-path="url(#4f49b95599)"><path fill="#a6a6a6" d="M 370.726562 373.839844 L 187.871094 190.984375 C 141.546875 238.109375 112.875 302.613281 112.570312 373.839844 Z M 370.726562 373.839844 " fill-opacity="1" fill-rule="evenodd"/></g><g clip-path="url(#1d94419078)"><path fill="#cf4a49" d="M 373.925781 381.574219 L 192.226562 563.273438 C 239.246094 608.9375 303.273438 637.167969 373.925781 637.464844 Z M 373.925781 381.574219 " fill-opacity="1" fill-rule="evenodd"/></g><g clip-path="url(#2cebdd528e)"><path fill="#a6a6a6" d="M 381.65625 373.839844 L 637.546875 373.839844 C 637.25 303.1875 609.019531 239.160156 563.355469 192.140625 Z M 381.65625 373.839844 " fill-opacity="1" fill-rule="evenodd"/></g><g clip-path="url(#74ae91542c)"><path fill="#cf4a49" d="M 378.453125 381.574219 L 378.453125 637.410156 C 448.78125 636.515625 512.425781 608 559.046875 562.167969 Z M 378.453125 381.574219 " fill-opacity="1" fill-rule="evenodd"/></g><g clip-path="url(#ef69fb0f78)"><path fill="#a6a6a6" d="M 381.65625 378.371094 L 562.25 558.96875 C 608.078125 512.347656 636.597656 448.699219 637.492188 378.371094 Z M 381.65625 378.371094 " fill-opacity="1" fill-rule="evenodd"/></g></svg>