<svg xmlns="http://www.w3.org/2000/svg" xmlns:xlink="http://www.w3.org/1999/xlink" width="1000" zoomAndPan="magnify" viewBox="0 0 750 749.999995" height="1000" preserveAspectRatio="xMidYMid meet" version="1.0"><defs><clipPath id="b0dec4438c"><path d="M 112.875 112.875 L 637.125 112.875 L 637.125 637.125 L 112.875 637.125 Z M 112.875 112.875 " clip-rule="nonzero"/></clipPath><clipPath id="6b49c203aa"><path d="M 120 228 L 370 228 L 370 375 L 120 375 Z M 120 228 " clip-rule="nonzero"/></clipPath><clipPath id="c18189ec45"><path d="M 19.628906 433.625 L 317.265625 19.484375 L 730.1875 316.242188 L 432.554688 730.382812 Z M 19.628906 433.625 " clip-rule="nonzero"/></clipPath><clipPath id="b2bfca266c"><path d="M 19.628906 433.625 L 317.265625 19.484375 L 730.1875 316.242188 L 432.554688 730.382812 Z M 19.628906 433.625 " clip-rule="nonzero"/></clipPath><clipPath id="f26ae51884"><path d="M 380 381 L 581 381 L 581 616 L 380 616 Z M 380 381 " clip-rule="nonzero"/></clipPath><clipPath id="deb911cd5f"><path d="M 19.628906 433.625 L 317.265625 19.484375 L 730.1875 316.242188 L 432.554688 730.382812 Z M 19.628906 433.625 " clip-rule="nonzero"/></clipPath><clipPath id="98ebd0d67f"><path d="M 19.628906 433.625 L 317.265625 19.484375 L 730.1875 316.242188 L 432.554688 730.382812 Z M 19.628906 433.625 " clip-rule="nonzero"/></clipPath><clipPath id="7887c1468a"><path d="M 382 376 L 630 376 L 630 522 L 382 522 Z M 382 376 " clip-rule="nonzero"/></clipPath><clipPath id="1369a01b85"><path d="M 19.628906 433.625 L 317.265625 19.484375 L 730.1875 316.242188 L 432.554688 730.382812 Z M 19.628906 433.625 " clip-rule="nonzero"/></clipPath><clipPath id="efa63f839c"><path d="M 19.628906 433.625 L 317.265625 19.484375 L 730.1875 316.242188 L 432.554688 730.382812 Z M 19.628906 433.625 " clip-rule="nonzero"/></clipPath><clipPath id="63668efa8d"><path d="M 297 120 L 452 120 L 452 369 L 297 369 Z M 297 120 " clip-rule="nonzero"/></clipPath><clipPath id="54ae923980"><path d="M 19.628906 433.625 L 317.265625 19.484375 L 730.1875 316.242188 L 432.554688 730.382812 Z M 19.628906 433.625 " clip-rule="nonzero"/></clipPath><clipPath id="0f3b7aa328"><path d="M 19.628906 433.625 L 317.265625 19.484375 L 730.1875 316.242188 L 432.554688 730.382812 Z M 19.628906 433.625 " clip-rule="nonzero"/></clipPath><clipPath id="11c23e0107"><path d="M 380 133 L 580 133 L 580 370 L 380 370 Z M 380 133 " clip-rule="nonzero"/></clipPath><clipPath id="4a1ebcce2f"><path d="M 19.628906 433.625 L 317.265625 19.484375 L 730.1875 316.242188 L 432.554688 730.382812 Z M 19.628906 433.625 " clip-rule="nonzero"/></clipPath><clipPath id="7be12a6f9f"><path d="M 19.628906 433.625 L 317.265625 19.484375 L 730.1875 316.242188 L 432.554688 730.382812 Z M 19.628906 433.625 " clip-rule="nonzero"/></clipPath><clipPath id="2e527deaba"><path d="M 300 382 L 454 382 L 454 630 L 300 630 Z M 300 382 " clip-rule="nonzero"/></clipPath><clipPath id="06e0521964"><path d="M 19.628906 433.625 L 317.265625 19.484375 L 730.1875 316.242188 L 432.554688 730.382812 Z M 19.628906 433.625 " clip-rule="nonzero"/></clipPath><clipPath id="312c0b0def"><path d="M 19.628906 433.625 L 317.265625 19.484375 L 730.1875 316.242188 L 432.554688 730.382812 Z M 19.628906 433.625 " clip-rule="nonzero"/></clipPath><clipPath id="40615c2b8e"><path d="M 171 381 L 372 381 L 372 618 L 171 618 Z M 171 381 " clip-rule="nonzero"/></clipPath><clipPath id="739dd2a02f"><path d="M 19.628906 433.625 L 317.265625 19.484375 L 730.1875 316.242188 L 432.554688 730.382812 Z M 19.628906 433.625 " clip-rule="nonzero"/></clipPath><clipPath id="25d1da24e9"><path d="M 19.628906 433.625 L 317.265625 19.484375 L 730.1875 316.242188 L 432.554688 730.382812 Z M 19.628906 433.625 " clip-rule="nonzero"/></clipPath><clipPath id="216ae03705"><path d="M 169 133 L 372 133 L 372 370 L 169 370 Z M 169 133 " clip-rule="nonzero"/></clipPath><clipPath id="b1fef4f525"><path d="M 19.628906 433.625 L 317.265625 19.484375 L 730.1875 316.242188 L 432.554688 730.382812 Z M 19.628906 433.625 " clip-rule="nonzero"/></clipPath><clipPath id="d78284743b"><path d="M 19.628906 433.625 L 317.265625 19.484375 L 730.1875 316.242188 L 432.554688 730.382812 Z M 19.628906 433.625 " clip-rule="nonzero"/></clipPath><clipPath id="7cfd4c1dd1"><path d="M 382 227 L 630 227 L 630 374 L 382 374 Z M 382 227 " clip-rule="nonzero"/></clipPath><clipPath id="5e17840e23"><path d="M 19.628906 433.625 L 317.265625 19.484375 L 730.1875 316.242188 L 432.554688 730.382812 Z M 19.628906 433.625 " clip-rule="nonzero"/></clipPath><clipPath id="7f6702799d"><path d="M 19.628906 433.625 L 317.265625 19.484375 L 730.1875 316.242188 L 432.554688 730.382812 Z M 19.628906 433.625 " clip-rule="nonzero"/></clipPath><clipPath id="04b53d1737"><path d="M 120 377 L 370 377 L 370 525 L 120 525 Z M 120 377 " clip-rule="nonzero"/></clipPath><clipPath id="dfddb638ec"><path d="M 19.628906 433.625 L 317.265625 19.484375 L 730.1875 316.242188 L 432.554688 730.382812 Z M 19.628906 433.625 " clip-rule="nonzero"/></clipPath><clipPath id="1a2f87c2c0"><path d="M 19.628906 433.625 L 317.265625 19.484375 L 730.1875 316.242188 L 432.554688 730.382812 Z M 19.628906 433.625 " clip-rule="nonzero"/></clipPath></defs><rect x="-75" width="900" fill="#ffffff" y="-74.999999" height="899.999994" fill-opacity="1"/><rect x="-75" width="900" fill="#ffffff" y="-74.999999" height="899.999994" fill-opacity="1"/><path fill="#ffffff" d="M 631.933594 373.621094 C 631.933594 377.84375 631.828125 382.058594 631.621094 386.273438 C 631.414062 390.488281 631.105469 394.695312 630.691406 398.894531 C 630.277344 403.09375 629.761719 407.28125 629.140625 411.453125 C 628.523438 415.628906 627.800781 419.785156 626.976562 423.921875 C 626.15625 428.0625 625.230469 432.175781 624.207031 436.269531 C 623.179688 440.363281 622.054688 444.429688 620.828125 448.46875 C 619.605469 452.503906 618.28125 456.511719 616.859375 460.484375 C 615.4375 464.457031 613.921875 468.390625 612.304688 472.289062 C 610.691406 476.1875 608.980469 480.046875 607.175781 483.859375 C 605.375 487.675781 603.476562 491.441406 601.488281 495.164062 C 599.5 498.886719 597.417969 502.554688 595.25 506.175781 C 593.082031 509.792969 590.824219 513.359375 588.480469 516.867188 C 586.136719 520.375 583.707031 523.824219 581.191406 527.214844 C 578.679688 530.601562 576.082031 533.929688 573.40625 537.191406 C 570.730469 540.453125 567.972656 543.644531 565.140625 546.773438 C 562.308594 549.898438 559.398438 552.953125 556.414062 555.9375 C 553.429688 558.921875 550.375 561.832031 547.25 564.664062 C 544.121094 567.496094 540.929688 570.253906 537.667969 572.929688 C 534.40625 575.605469 531.078125 578.203125 527.691406 580.714844 C 524.300781 583.230469 520.851562 585.660156 517.34375 588.003906 C 513.835938 590.347656 510.269531 592.605469 506.652344 594.773438 C 503.03125 596.941406 499.363281 599.023438 495.640625 601.011719 C 491.917969 603 488.152344 604.898438 484.335938 606.699219 C 480.523438 608.503906 476.664062 610.214844 472.769531 611.828125 C 468.871094 613.445312 464.933594 614.960938 460.960938 616.382812 C 456.988281 617.804688 452.980469 619.128906 448.945312 620.351562 C 444.90625 621.578125 440.839844 622.703125 436.746094 623.726562 C 432.652344 624.753906 428.539062 625.679688 424.398438 626.5 C 420.261719 627.324219 416.105469 628.046875 411.929688 628.664062 C 407.757812 629.285156 403.570312 629.800781 399.371094 630.214844 C 395.171875 630.628906 390.964844 630.9375 386.75 631.144531 C 382.535156 631.351562 378.320312 631.457031 374.097656 631.457031 C 369.878906 631.457031 365.664062 631.351562 361.449219 631.144531 C 357.234375 630.9375 353.027344 630.628906 348.828125 630.214844 C 344.628906 629.800781 340.441406 629.285156 336.265625 628.664062 C 332.09375 628.046875 327.9375 627.324219 323.796875 626.5 C 319.660156 625.679688 315.542969 624.753906 311.449219 623.726562 C 307.359375 622.703125 303.292969 621.578125 299.253906 620.351562 C 295.214844 619.128906 291.210938 617.804688 287.238281 616.382812 C 283.265625 614.960938 279.328125 613.445312 275.429688 611.828125 C 271.53125 610.214844 267.675781 608.503906 263.863281 606.699219 C 260.046875 604.898438 256.277344 603 252.558594 601.011719 C 248.835938 599.023438 245.164062 596.941406 241.546875 594.773438 C 237.925781 592.605469 234.363281 590.347656 230.855469 588.003906 C 227.347656 585.660156 223.898438 583.230469 220.507812 580.714844 C 217.117188 578.203125 213.792969 575.605469 210.53125 572.929688 C 207.269531 570.253906 204.074219 567.496094 200.949219 564.664062 C 197.824219 561.832031 194.765625 558.921875 191.785156 555.9375 C 188.800781 552.953125 185.890625 549.898438 183.058594 546.773438 C 180.222656 543.644531 177.46875 540.453125 174.792969 537.191406 C 172.113281 533.929688 169.519531 530.601562 167.003906 527.214844 C 164.492188 523.824219 162.0625 520.375 159.71875 516.867188 C 157.375 513.359375 155.117188 509.792969 152.949219 506.175781 C 150.777344 502.554688 148.699219 498.886719 146.710938 495.164062 C 144.722656 491.441406 142.824219 487.675781 141.019531 483.859375 C 139.214844 480.046875 137.507812 476.1875 135.890625 472.289062 C 134.277344 468.390625 132.757812 464.457031 131.339844 460.484375 C 129.917969 456.511719 128.59375 452.503906 127.367188 448.46875 C 126.144531 444.429688 125.019531 440.363281 123.992188 436.269531 C 122.96875 432.175781 122.042969 428.0625 121.21875 423.921875 C 120.398438 419.785156 119.675781 415.628906 119.058594 411.453125 C 118.4375 407.28125 117.921875 403.09375 117.507812 398.894531 C 117.09375 394.695312 116.785156 390.488281 116.578125 386.273438 C 116.371094 382.058594 116.265625 377.84375 116.265625 373.621094 C 116.265625 369.402344 116.371094 365.1875 116.578125 360.972656 C 116.785156 356.757812 117.09375 352.550781 117.507812 348.351562 C 117.921875 344.152344 118.4375 339.964844 119.058594 335.789062 C 119.675781 331.617188 120.398438 327.460938 121.21875 323.320312 C 122.042969 319.183594 122.96875 315.066406 123.992188 310.972656 C 125.019531 306.878906 126.144531 302.816406 127.367188 298.777344 C 128.59375 294.738281 129.917969 290.734375 131.339844 286.761719 C 132.757812 282.789062 134.277344 278.851562 135.890625 274.953125 C 137.507812 271.054688 139.214844 267.199219 141.019531 263.382812 C 142.824219 259.570312 144.722656 255.800781 146.710938 252.082031 C 148.699219 248.359375 150.777344 244.6875 152.949219 241.070312 C 155.117188 237.449219 157.375 233.886719 159.71875 230.378906 C 162.0625 226.871094 164.492188 223.421875 167.003906 220.03125 C 169.519531 216.640625 172.113281 213.316406 174.792969 210.054688 C 177.46875 206.792969 180.222656 203.597656 183.058594 200.472656 C 185.890625 197.34375 188.800781 194.289062 191.785156 191.308594 C 194.765625 188.324219 197.824219 185.414062 200.949219 182.582031 C 204.074219 179.746094 207.269531 176.992188 210.53125 174.316406 C 213.792969 171.636719 217.117188 169.042969 220.507812 166.527344 C 223.898438 164.015625 227.347656 161.585938 230.855469 159.242188 C 234.363281 156.898438 237.925781 154.640625 241.546875 152.472656 C 245.164062 150.300781 248.835938 148.222656 252.558594 146.234375 C 256.277344 144.246094 260.046875 142.347656 263.863281 140.542969 C 267.675781 138.738281 271.53125 137.03125 275.429688 135.414062 C 279.328125 133.800781 283.265625 132.28125 287.238281 130.859375 C 291.210938 129.441406 295.214844 128.117188 299.253906 126.890625 C 303.292969 125.667969 307.359375 124.542969 311.449219 123.515625 C 315.542969 122.492188 319.660156 121.566406 323.796875 120.742188 C 327.9375 119.921875 332.09375 119.199219 336.265625 118.578125 C 340.441406 117.960938 344.628906 117.445312 348.828125 117.03125 C 353.027344 116.617188 357.234375 116.308594 361.449219 116.101562 C 365.664062 115.894531 369.878906 115.789062 374.097656 115.789062 C 378.320312 115.789062 382.535156 115.894531 386.75 116.101562 C 390.964844 116.308594 395.171875 116.617188 399.371094 117.03125 C 403.570312 117.445312 407.757812 117.960938 411.929688 118.578125 C 416.105469 119.199219 420.261719 119.921875 424.398438 120.742188 C 428.539062 121.566406 432.652344 122.492188 436.746094 123.515625 C 440.839844 124.542969 444.90625 125.667969 448.945312 126.890625 C 452.980469 128.117188 456.988281 129.441406 460.960938 130.859375 C 464.933594 132.28125 468.871094 133.800781 472.769531 135.414062 C 476.664062 137.03125 480.523438 138.738281 484.335938 140.542969 C 488.152344 142.347656 491.917969 144.246094 495.640625 146.234375 C 499.363281 148.222656 503.03125 150.300781 506.652344 152.472656 C 510.269531 154.640625 513.835938 156.898438 517.34375 159.242188 C 520.851562 161.585938 524.300781 164.015625 527.691406 166.527344 C 531.078125 169.042969 534.40625 171.636719 537.667969 174.316406 C 540.929688 176.992188 544.121094 179.746094 547.25 182.582031 C 550.375 185.414062 553.429688 188.324219 556.414062 191.308594 C 559.398438 194.289062 562.308594 197.34375 565.140625 200.472656 C 567.972656 203.597656 570.730469 206.792969 573.40625 210.054688 C 576.082031 213.316406 578.679688 216.640625 581.191406 220.03125 C 583.707031 223.421875 586.136719 226.871094 588.480469 230.378906 C 590.824219 233.886719 593.082031 237.449219 595.25 241.070312 C 597.417969 244.6875 599.5 248.359375 601.488281 252.082031 C 603.476562 255.800781 605.375 259.570312 607.175781 263.382812 C 608.980469 267.199219 610.691406 271.054688 612.304688 274.953125 C 613.921875 278.851562 615.4375 282.789062 616.859375 286.761719 C 618.28125 290.734375 619.605469 294.738281 620.828125 298.777344 C 622.054688 302.816406 623.179688 306.878906 624.207031 310.972656 C 625.230469 315.066406 626.15625 319.183594 626.976562 323.320312 C 627.800781 327.460938 628.523438 331.617188 629.140625 335.789062 C 629.761719 339.964844 630.277344 344.152344 630.691406 348.351562 C 631.105469 352.550781 631.414062 356.757812 631.621094 360.972656 C 631.828125 365.1875 631.933594 369.402344 631.933594 373.621094 Z M 631.933594 373.621094 " fill-opacity="1" fill-rule="nonzero"/><path fill="#4fbe88" d="M 377.703125 375.847656 L 117.433594 375.847656 C 117.433594 348.507812 121.777344 321.378906 130.148438 295.414062 C 138.519531 269.449219 151.023438 244.972656 167.132812 222.929688 Z M 377.703125 375.847656 " fill-opacity="1" fill-rule="nonzero"/><g clip-path="url(#b0dec4438c)"><path fill="#323232" d="M 637.125 370.867188 C 636.699219 344.796875 632.460938 318.941406 624.300781 294.140625 C 616.25 269.238281 604.484375 245.925781 589.542969 224.519531 L 587 221.125 L 584.457031 217.734375 C 568.773438 196.859375 550.121094 178.527344 529.03125 163.160156 C 507.835938 147.792969 484.628906 135.710938 459.9375 127.234375 L 455.910156 125.960938 L 451.882812 124.691406 C 427.085938 116.847656 401.226562 112.929688 375.054688 112.929688 C 348.878906 112.929688 323.019531 116.847656 298.117188 124.480469 L 294.089844 125.75 L 290.0625 127.023438 C 265.371094 135.5 242.164062 147.582031 220.96875 162.949219 C 199.773438 178.3125 181.121094 196.753906 165.4375 217.628906 L 160.351562 224.410156 C 145.304688 245.820312 133.644531 269.132812 125.589844 294.035156 C 117.644531 318.941406 113.300781 344.691406 112.875 370.867188 L 112.875 379.34375 C 113.300781 405.414062 117.539062 431.273438 125.699219 456.070312 C 133.75 480.972656 145.515625 504.289062 160.457031 525.695312 L 163 529.085938 L 165.4375 532.476562 C 181.121094 553.351562 199.773438 571.6875 220.863281 587.050781 C 242.054688 602.417969 265.265625 614.5 289.957031 622.976562 L 293.984375 624.25 L 298.011719 625.519531 C 323.019531 633.152344 348.878906 637.070312 374.945312 637.070312 C 401.121094 637.070312 426.980469 633.152344 451.882812 625.519531 L 455.910156 624.25 L 459.9375 622.976562 C 484.628906 614.5 507.835938 602.417969 529.03125 587.050781 C 550.226562 571.6875 568.773438 553.351562 584.457031 532.476562 L 589.542969 525.695312 C 604.589844 504.289062 616.25 480.972656 624.300781 456.070312 C 632.355469 431.164062 636.699219 405.414062 637.125 379.34375 Z M 628.648438 370.867188 L 388.085938 370.867188 L 582.761719 229.394531 C 597.277344 250.058594 608.511719 272.628906 616.355469 296.6875 C 624.195312 320.742188 628.222656 345.644531 628.648438 370.867188 Z M 524.15625 169.835938 C 544.609375 184.671875 562.625 202.371094 577.78125 222.503906 L 383.105469 363.980469 L 441.921875 182.871094 L 457.5 135.183594 C 481.34375 143.34375 503.703125 155 524.15625 169.835938 Z M 375.054688 121.40625 C 400.273438 121.40625 425.285156 125.113281 449.445312 132.53125 L 443.511719 150.65625 L 375.054688 361.328125 L 300.660156 132.53125 C 324.820312 125.113281 349.832031 121.40625 375.054688 121.40625 Z M 225.949219 169.835938 C 246.402344 155 268.761719 143.34375 292.605469 135.183594 L 367 363.980469 L 172.324219 222.609375 C 187.480469 202.371094 205.496094 184.671875 225.949219 169.835938 Z M 133.75 296.6875 C 141.59375 272.628906 152.828125 250.058594 167.34375 229.394531 L 362.019531 370.867188 L 121.351562 370.867188 C 121.777344 345.644531 126.015625 320.742188 133.75 296.6875 Z M 133.75 453.527344 C 125.910156 429.46875 121.777344 404.566406 121.351562 379.34375 L 361.914062 379.34375 L 167.34375 520.714844 C 152.828125 500.15625 141.59375 477.476562 133.75 453.527344 Z M 292.605469 615.03125 C 268.761719 606.871094 246.296875 595.210938 225.949219 580.375 C 205.496094 565.539062 187.480469 547.84375 172.324219 527.707031 L 281.585938 448.332031 L 367 386.339844 L 363.5 397.042969 Z M 449.339844 617.679688 C 425.179688 625.097656 400.273438 628.804688 374.945312 628.804688 C 349.726562 628.804688 324.714844 625.097656 300.554688 617.679688 L 316.132812 569.671875 L 374.839844 388.882812 L 397.835938 459.671875 Z M 577.78125 527.601562 C 562.625 547.738281 544.609375 565.433594 524.15625 580.269531 C 503.703125 595.105469 481.34375 606.761719 457.5 614.921875 L 383.105469 386.234375 L 479.117188 455.964844 Z M 616.355469 453.527344 C 608.511719 477.582031 597.277344 500.15625 582.761719 520.820312 L 388.085938 379.34375 L 628.648438 379.34375 C 628.222656 404.566406 624.089844 429.46875 616.355469 453.527344 Z M 616.355469 453.527344 " fill-opacity="1" fill-rule="nonzero"/></g><g clip-path="url(#6b49c203aa)"><g clip-path="url(#c18189ec45)"><g clip-path="url(#b2bfca266c)"><path fill="#ffffff" d="M 120.605469 374.78125 L 369.132812 373.496094 L 167.144531 228.332031 C 135.71875 272.859375 120.609375 324.046875 120.605469 374.78125 " fill-opacity="1" fill-rule="evenodd"/></g></g></g><g clip-path="url(#f26ae51884)"><g clip-path="url(#deb911cd5f)"><g clip-path="url(#98ebd0d67f)"><path fill="#6d5764" d="M 580.304688 525.257812 L 380.105469 381.378906 L 457.5625 615.640625 C 505.164062 599.355469 548.398438 568.867188 580.304688 525.257812 " fill-opacity="1" fill-rule="evenodd"/></g></g></g><g clip-path="url(#7887c1468a)"><g clip-path="url(#1369a01b85)"><g clip-path="url(#efa63f839c)"><path fill="#6d5764" d="M 382.664062 377.816406 L 582.867188 521.695312 C 614.027344 477.546875 629.136719 426.851562 629.394531 376.539062 Z M 382.664062 377.816406 " fill-opacity="1" fill-rule="evenodd"/></g></g></g><g clip-path="url(#63668efa8d)"><g clip-path="url(#54ae923980)"><g clip-path="url(#0f3b7aa328)"><path fill="#ffffff" d="M 375.863281 368.550781 L 451.292969 132.269531 C 400.855469 116.410156 347.179688 116.882812 297.828125 132.542969 Z M 375.863281 368.550781 " fill-opacity="1" fill-rule="evenodd"/></g></g></g><g clip-path="url(#11c23e0107)"><g clip-path="url(#4a1ebcce2f)"><g clip-path="url(#7be12a6f9f)"><path fill="#ffffff" d="M 579.429688 223.453125 C 564.132812 202.832031 545.46875 184.175781 523.503906 168.390625 C 502.136719 153.039062 479.199219 141.46875 455.484375 133.558594 L 380.042969 369.890625 Z M 579.429688 223.453125 " fill-opacity="1" fill-rule="evenodd"/></g></g></g><g clip-path="url(#2e527deaba)"><g clip-path="url(#06e0521964)"><g clip-path="url(#312c0b0def)"><path fill="#ffffff" d="M 375.933594 382.757812 L 300.726562 618.375 C 351 633.722656 404.371094 632.902344 453.40625 617.0625 Z M 375.933594 382.757812 " fill-opacity="1" fill-rule="evenodd"/></g></g></g><g clip-path="url(#40615c2b8e)"><g clip-path="url(#739dd2a02f)"><g clip-path="url(#25d1da24e9)"><path fill="#ffffff" d="M 171.816406 528.28125 C 186.875 548.230469 205.148438 566.285156 226.515625 581.644531 C 248.476562 597.425781 272.109375 609.167969 296.53125 617.089844 L 371.753906 381.421875 Z M 171.816406 528.28125 " fill-opacity="1" fill-rule="evenodd"/></g></g></g><g clip-path="url(#216ae03705)"><g clip-path="url(#b1fef4f525)"><g clip-path="url(#d78284743b)"><path fill="#ffffff" d="M 169.707031 224.769531 L 371.695312 369.933594 L 293.671875 133.964844 C 245.585938 150.144531 201.886719 180.785156 169.707031 224.769531 " fill-opacity="1" fill-rule="evenodd"/></g></g></g><g clip-path="url(#7cfd4c1dd1)"><g clip-path="url(#5e17840e23)"><g clip-path="url(#7f6702799d)"><path fill="#ffffff" d="M 382.644531 373.425781 L 629.421875 372.148438 C 628.800781 320.621094 612.558594 269.773438 581.984375 227.019531 Z M 382.644531 373.425781 " fill-opacity="1" fill-rule="evenodd"/></g></g></g><g clip-path="url(#04b53d1737)"><g clip-path="url(#dfddb638ec)"><g clip-path="url(#1a2f87c2c0)"><path fill="#ffffff" d="M 369.15625 377.882812 L 120.585938 379.171875 C 121.476562 430.9375 138.144531 481.964844 169.25 524.707031 Z M 369.15625 377.882812 " fill-opacity="1" fill-rule="evenodd"/></g></g></g></svg>