<svg xmlns="http://www.w3.org/2000/svg" xmlns:xlink="http://www.w3.org/1999/xlink" width="1000" zoomAndPan="magnify" viewBox="0 0 750 749.999995" height="1000" preserveAspectRatio="xMidYMid meet" version="1.0"><rect x="-75" width="900" fill="#ffffff" y="-74.999999" height="899.999994" fill-opacity="1"/><rect x="-75" width="900" fill="#ffffff" y="-74.999999" height="899.999994" fill-opacity="1"/><path fill="#000000" d="M 348.636719 196.019531 C 344.640625 196.019531 341.535156 194.769531 339.316406 192.269531 C 337.097656 189.769531 335.914062 186.535156 335.765625 182.5625 C 335.765625 174.476562 339.316406 167.273438 346.417969 160.949219 C 353.515625 154.628906 362.097656 151.464844 372.15625 151.464844 C 377.332031 151.464844 380.585938 151.539062 381.917969 151.6875 C 392.863281 153.449219 401.21875 157.347656 406.988281 163.375 C 412.757812 169.40625 415.714844 175.949219 415.863281 183.003906 C 415.863281 190.652344 413.347656 198.078125 408.320312 205.28125 C 403.292969 212.488281 396.339844 217.707031 387.464844 220.941406 L 386.796875 221.382812 C 386.796875 221.53125 387.464844 221.75 388.796875 222.042969 C 390.125 222.339844 392.269531 223 395.230469 224.027344 C 398.1875 225.058594 401 226.601562 403.660156 228.660156 C 415.789062 236.453125 421.855469 246.746094 421.855469 259.539062 C 421.855469 271.15625 417.269531 281.300781 408.097656 289.976562 C 398.925781 298.652344 387.316406 302.988281 373.265625 302.988281 C 361.429688 302.988281 351.222656 299.828125 342.644531 293.503906 C 334.066406 287.183594 329.777344 279.167969 329.777344 269.464844 C 329.777344 265.347656 331.109375 262.039062 333.769531 259.539062 C 336.433594 257.039062 339.761719 255.714844 343.753906 255.570312 C 347.894531 255.570312 351.296875 256.890625 353.960938 259.539062 C 356.625 262.183594 357.953125 265.492188 357.953125 269.464844 C 357.953125 271.082031 357.734375 272.550781 357.289062 273.875 C 356.84375 275.199219 356.328125 276.375 355.734375 277.402344 C 355.144531 278.433594 354.332031 279.316406 353.296875 280.050781 C 352.261719 280.785156 351.371094 281.375 350.632812 281.816406 C 349.894531 282.257812 349.152344 282.550781 348.414062 282.695312 C 347.675781 282.84375 347.082031 283.066406 346.640625 283.359375 L 345.75 283.578125 C 353.296875 290.195312 362.464844 293.503906 373.265625 293.503906 C 381.398438 293.503906 387.539062 289.609375 391.679688 281.816406 C 394.195312 276.960938 395.453125 269.539062 395.453125 259.539062 L 395.453125 255.128906 C 395.453125 241.160156 390.71875 231.820312 381.25 227.117188 C 379.03125 226.234375 374.519531 225.71875 367.71875 225.574219 L 358.398438 225.351562 L 357.734375 224.910156 C 357.4375 224.46875 357.289062 223.292969 357.289062 221.382812 C 357.289062 218.734375 357.878906 217.414062 359.0625 217.414062 C 363.207031 217.414062 367.496094 217.042969 371.933594 216.308594 C 376.960938 215.574219 381.546875 212.488281 385.6875 207.046875 C 389.832031 201.605469 391.902344 193.371094 391.902344 182.34375 L 391.902344 180.578125 C 391.902344 172.199219 389.3125 166.390625 384.136719 163.15625 C 380.882812 161.097656 377.40625 160.066406 373.707031 160.066406 C 368.972656 160.066406 364.609375 160.875 360.617188 162.492188 C 356.625 164.109375 353.8125 165.800781 352.1875 167.566406 C 350.558594 169.332031 349.746094 170.214844 349.746094 170.214844 L 350.410156 170.214844 C 350.855469 170.359375 351.445312 170.507812 352.1875 170.652344 C 352.925781 170.800781 353.664062 171.167969 354.40625 171.757812 C 355.144531 172.34375 356.03125 172.859375 357.066406 173.300781 C 358.101562 173.742188 358.84375 174.550781 359.285156 175.726562 C 359.730469 176.902344 360.320312 178.007812 361.0625 179.035156 C 361.800781 180.066406 362.023438 181.535156 361.726562 183.445312 C 361.726562 186.679688 360.691406 189.546875 358.621094 192.046875 C 356.550781 194.546875 353.222656 195.871094 348.636719 196.019531 Z M 348.636719 196.019531 " fill-opacity="1" fill-rule="nonzero"/><path fill="#000000" d="M 312.25 471.050781 L 309.363281 472.15625 C 307.292969 472.890625 304.335938 473.625 300.488281 474.359375 C 296.644531 475.097656 292.355469 475.609375 287.621094 475.90625 L 283.40625 475.90625 L 283.40625 465.757812 L 287.621094 465.757812 C 294.574219 465.464844 301.007812 464.363281 306.921875 462.449219 C 312.839844 460.539062 316.980469 458.773438 319.347656 457.15625 C 321.714844 455.539062 323.785156 453.921875 325.5625 452.304688 C 325.855469 451.863281 326.746094 451.644531 328.222656 451.644531 C 329.554688 451.644531 330.8125 452.085938 331.996094 452.964844 L 331.996094 518.914062 L 332.21875 585.082031 C 333.253906 586.109375 334.140625 586.769531 334.878906 587.066406 C 335.621094 587.359375 337.394531 587.652344 340.203125 587.949219 C 343.015625 588.242188 347.601562 588.386719 353.960938 588.386719 L 359.730469 588.386719 L 359.730469 598.535156 L 357.289062 598.535156 C 354.183594 598.09375 342.421875 597.871094 322.011719 597.871094 C 301.894531 597.871094 290.28125 598.09375 287.175781 598.535156 L 284.515625 598.535156 L 284.515625 588.386719 L 290.28125 588.386719 C 293.535156 588.386719 296.347656 588.386719 298.714844 588.386719 C 301.082031 588.386719 302.929688 588.316406 304.261719 588.167969 C 305.59375 588.019531 306.777344 587.800781 307.8125 587.507812 C 308.847656 587.210938 309.4375 587.066406 309.585938 587.066406 C 309.734375 587.066406 310.175781 586.699219 310.917969 585.960938 C 311.65625 585.226562 312.101562 584.933594 312.25 585.082031 Z M 312.25 471.050781 " fill-opacity="1" fill-rule="nonzero"/><path fill="#000000" d="M 400.109375 503.914062 C 396.117188 503.914062 392.9375 502.59375 390.570312 499.945312 C 388.203125 497.296875 387.019531 494.0625 387.019531 490.242188 C 387.019531 479.800781 390.941406 470.757812 398.78125 463.113281 C 406.621094 455.464844 416.382812 451.644531 428.066406 451.644531 C 441.527344 451.644531 452.769531 455.761719 461.792969 463.996094 C 470.816406 472.230469 475.402344 482.890625 475.546875 495.976562 C 475.546875 502.296875 474.070312 508.328125 471.109375 514.0625 C 468.152344 519.796875 464.601562 524.792969 460.460938 529.058594 C 456.320312 533.324219 450.402344 538.761719 442.710938 545.378906 C 437.386719 549.9375 429.988281 556.703125 420.523438 565.671875 L 407.433594 578.023438 L 424.296875 578.242188 C 447.519531 578.242188 459.871094 577.875 461.347656 577.140625 C 462.382812 576.847656 464.160156 570.304688 466.671875 557.511719 L 466.671875 556.847656 L 475.546875 556.847656 L 475.546875 557.511719 C 475.402344 557.953125 474.4375 564.640625 472.664062 577.582031 C 470.890625 590.519531 469.78125 597.285156 469.335938 597.871094 L 469.335938 598.535156 L 387.019531 598.535156 L 387.019531 591.695312 C 387.019531 590.667969 387.464844 589.566406 388.351562 588.386719 C 389.238281 587.210938 391.457031 584.640625 395.007812 580.667969 C 399.296875 575.964844 402.996094 571.847656 406.101562 568.316406 C 407.433594 566.847656 409.949219 564.128906 413.644531 560.15625 C 417.34375 556.1875 419.859375 553.46875 421.1875 551.996094 C 422.519531 550.527344 424.664062 548.101562 427.625 544.71875 C 430.582031 541.335938 432.652344 538.835938 433.835938 537.21875 C 435.019531 535.601562 436.71875 533.394531 438.9375 530.601562 C 441.15625 527.808594 442.710938 525.457031 443.597656 523.542969 C 444.484375 521.632812 445.59375 519.5 446.925781 517.148438 C 448.257812 514.796875 449.21875 512.445312 449.8125 510.089844 C 450.402344 507.738281 450.921875 505.53125 451.363281 503.472656 C 451.808594 501.414062 452.03125 498.988281 452.03125 496.195312 C 452.03125 486.933594 449.515625 478.917969 444.484375 472.15625 C 439.457031 465.390625 432.28125 462.007812 422.964844 462.007812 C 418.082031 462.007812 413.792969 463.257812 410.09375 465.757812 C 406.398438 468.257812 403.808594 470.683594 402.328125 473.039062 C 400.851562 475.390625 400.109375 476.785156 400.109375 477.226562 C 400.109375 477.375 400.480469 477.449219 401.21875 477.449219 C 403.882812 477.449219 406.621094 478.476562 409.429688 480.535156 C 412.238281 482.59375 413.644531 485.976562 413.644531 490.683594 C 413.644531 494.359375 412.460938 497.445312 410.09375 499.945312 C 407.730469 502.445312 404.402344 503.769531 400.109375 503.914062 Z M 400.109375 503.914062 " fill-opacity="1" fill-rule="nonzero"/><path fill="#000000" d="M 242.800781 398.710938 L 509.050781 398.710938 L 509.050781 385.476562 L 242.800781 385.476562 Z M 242.800781 398.710938 " fill-opacity="1" fill-rule="nonzero"/></svg>