<svg xmlns="http://www.w3.org/2000/svg" xmlns:xlink="http://www.w3.org/1999/xlink" width="1000" zoomAndPan="magnify" viewBox="0 0 750 749.999995" height="1000" preserveAspectRatio="xMidYMid meet" version="1.0"><rect x="-75" width="900" fill="#ffffff" y="-74.999999" height="899.999994" fill-opacity="1"/><rect x="-75" width="900" fill="#ffffff" y="-74.999999" height="899.999994" fill-opacity="1"/><path fill="#000000" d="M 422.492188 297.816406 C 419.855469 297.378906 410.410156 297.160156 394.15625 297.160156 C 377.171875 297.160156 367.359375 297.378906 364.722656 297.816406 L 362.746094 297.816406 L 362.746094 287.773438 L 369.558594 287.773438 C 372.484375 287.773438 374.460938 287.773438 375.488281 287.773438 C 376.511719 287.773438 377.757812 287.628906 379.222656 287.335938 C 380.683594 287.046875 381.710938 286.679688 382.296875 286.246094 C 382.882812 285.808594 383.394531 285.226562 383.832031 284.496094 C 383.980469 284.207031 384.054688 280.277344 384.054688 272.707031 L 384.054688 261.789062 L 327.164062 261.789062 L 327.164062 251.746094 L 360.332031 201.308594 C 382.734375 167.539062 394.082031 150.582031 394.375 150.4375 C 394.667969 150.144531 396.207031 150 398.988281 150 L 402.941406 150 L 404.261719 151.308594 L 404.261719 251.746094 L 424.46875 251.746094 L 424.46875 261.789062 L 404.261719 261.789062 L 404.261719 272.925781 C 404.261719 278.894531 404.261719 282.386719 404.261719 283.40625 C 404.261719 284.425781 404.699219 285.296875 405.578125 286.027344 C 406.75 287.046875 410.921875 287.628906 418.097656 287.773438 L 424.46875 287.773438 L 424.46875 297.816406 Z M 385.371094 251.746094 L 385.371094 178.820312 L 337.269531 251.527344 L 361.210938 251.746094 Z M 385.371094 251.746094 " fill-opacity="1" fill-rule="nonzero"/><path fill="#000000" d="M 312.886719 468.996094 L 310.03125 470.085938 C 307.984375 470.816406 305.054688 471.542969 301.246094 472.269531 C 297.441406 473 293.191406 473.507812 288.507812 473.800781 L 284.335938 473.800781 L 284.335938 463.753906 L 288.507812 463.753906 C 295.390625 463.464844 301.757812 462.371094 307.617188 460.480469 C 313.472656 458.589844 317.574219 456.839844 319.917969 455.238281 C 322.257812 453.640625 324.308594 452.039062 326.066406 450.4375 C 326.359375 450 327.238281 449.78125 328.703125 449.78125 C 330.019531 449.78125 331.265625 450.21875 332.4375 451.089844 L 332.4375 516.375 L 332.65625 581.878906 C 333.679688 582.898438 334.558594 583.550781 335.292969 583.84375 C 336.023438 584.132812 337.78125 584.425781 340.5625 584.714844 C 343.34375 585.007812 347.886719 585.152344 354.179688 585.152344 L 359.890625 585.152344 L 359.890625 595.195312 L 357.476562 595.195312 C 354.402344 594.761719 342.761719 594.542969 322.550781 594.542969 C 302.636719 594.542969 291.144531 594.761719 288.066406 595.195312 L 285.433594 595.195312 L 285.433594 585.152344 L 291.144531 585.152344 C 294.363281 585.152344 297.148438 585.152344 299.488281 585.152344 C 301.832031 585.152344 303.664062 585.078125 304.980469 584.933594 C 306.296875 584.789062 307.46875 584.570312 308.496094 584.28125 C 309.519531 583.988281 310.105469 583.84375 310.253906 583.84375 C 310.398438 583.84375 310.839844 583.480469 311.570312 582.75 C 312.300781 582.023438 312.742188 581.730469 312.886719 581.878906 Z M 312.886719 468.996094 " fill-opacity="1" fill-rule="nonzero"/><path fill="#000000" d="M 385.152344 526.855469 C 385.152344 503.128906 391.082031 484.351562 402.941406 470.523438 C 414.804688 456.695312 427.984375 449.78125 442.480469 449.78125 C 452.582031 449.78125 459.832031 452.402344 464.222656 457.640625 C 468.617188 462.882812 470.8125 468.703125 470.8125 475.109375 C 470.8125 478.75 469.789062 481.660156 467.738281 483.84375 C 465.6875 486.027344 462.832031 487.117188 459.171875 487.117188 C 455.804688 487.117188 453.023438 486.097656 450.824219 484.0625 C 448.628906 482.023438 447.53125 479.183594 447.53125 475.546875 C 447.53125 469.140625 450.972656 465.285156 457.855469 463.972656 C 454.632812 460.769531 450.09375 458.953125 444.234375 458.515625 C 433.839844 458.515625 425.273438 462.882812 418.539062 471.617188 C 411.65625 481.222656 408.214844 495.925781 408.214844 515.71875 L 408.433594 516.59375 C 409.167969 515.71875 409.75 514.773438 410.191406 513.753906 C 416.195312 505.023438 424.027344 500.65625 433.691406 500.65625 L 434.570312 500.65625 C 441.308594 500.65625 447.238281 502.039062 452.363281 504.804688 C 455.878906 506.839844 459.390625 509.753906 462.90625 513.535156 C 466.421875 517.320312 469.277344 521.46875 471.472656 525.984375 C 474.546875 533.113281 476.085938 540.902344 476.085938 549.34375 L 476.085938 553.273438 C 476.085938 556.621094 475.71875 559.753906 474.988281 562.664062 C 473.375 571.25 468.691406 579.621094 460.929688 587.773438 C 453.167969 595.925781 443.359375 600 431.496094 600 C 427.398438 600 423.441406 599.417969 419.636719 598.253906 C 415.828125 597.089844 411.730469 594.90625 407.335938 591.703125 C 402.941406 588.5 399.207031 584.207031 396.132812 578.820312 C 393.058594 573.433594 390.421875 566.375 388.226562 557.640625 C 386.03125 548.910156 385.003906 538.644531 385.152344 526.855469 Z M 432.375 508.515625 C 427.984375 508.515625 424.175781 509.753906 420.953125 512.226562 C 417.730469 514.703125 415.242188 517.976562 413.484375 522.050781 C 411.730469 526.128906 410.484375 530.277344 409.75 534.496094 C 409.019531 538.71875 408.582031 543.230469 408.433594 548.035156 C 408.433594 560.117188 409.3125 568.777344 411.070312 574.015625 C 412.828125 579.257812 415.609375 583.480469 419.417969 586.679688 C 422.929688 589.300781 426.8125 590.613281 431.058594 590.613281 C 438.527344 590.613281 444.234375 587.84375 448.191406 582.3125 C 450.09375 579.695312 451.410156 576.417969 452.144531 572.488281 C 452.875 568.558594 453.242188 560.917969 453.242188 549.5625 C 453.242188 537.917969 452.875 530.132812 452.144531 526.199219 C 451.410156 522.269531 450.09375 518.996094 448.191406 516.375 C 444.234375 511.136719 438.964844 508.515625 432.375 508.515625 Z M 432.375 508.515625 " fill-opacity="1" fill-rule="nonzero"/><path fill="#000000" d="M 244.140625 397.378906 L 507.714844 397.378906 L 507.714844 384.28125 L 244.140625 384.28125 Z M 244.140625 397.378906 " fill-opacity="1" fill-rule="nonzero"/></svg>