<svg xmlns="http://www.w3.org/2000/svg" xmlns:xlink="http://www.w3.org/1999/xlink" width="1000" zoomAndPan="magnify" viewBox="0 0 750 749.999995" height="1000" preserveAspectRatio="xMidYMid meet" version="1.0"><rect x="-75" width="900" fill="#ffffff" y="-74.999999" height="899.999994" fill-opacity="1"/><rect x="-75" width="900" fill="#ffffff" y="-74.999999" height="899.999994" fill-opacity="1"/><path fill="#000000" d="M 422.492188 297.816406 C 419.855469 297.378906 410.410156 297.160156 394.15625 297.160156 C 377.171875 297.160156 367.359375 297.378906 364.722656 297.816406 L 362.746094 297.816406 L 362.746094 287.773438 L 369.558594 287.773438 C 372.484375 287.773438 374.460938 287.773438 375.488281 287.773438 C 376.511719 287.773438 377.757812 287.628906 379.222656 287.335938 C 380.683594 287.046875 381.710938 286.679688 382.296875 286.246094 C 382.882812 285.808594 383.394531 285.226562 383.832031 284.496094 C 383.980469 284.207031 384.054688 280.277344 384.054688 272.707031 L 384.054688 261.789062 L 327.164062 261.789062 L 327.164062 251.746094 L 360.332031 201.308594 C 382.734375 167.539062 394.082031 150.582031 394.375 150.4375 C 394.667969 150.144531 396.207031 150 398.988281 150 L 402.941406 150 L 404.261719 151.308594 L 404.261719 251.746094 L 424.46875 251.746094 L 424.46875 261.789062 L 404.261719 261.789062 L 404.261719 272.925781 C 404.261719 278.894531 404.261719 282.386719 404.261719 283.40625 C 404.261719 284.425781 404.699219 285.296875 405.578125 286.027344 C 406.75 287.046875 410.921875 287.628906 418.097656 287.773438 L 424.46875 287.773438 L 424.46875 297.816406 Z M 385.371094 251.746094 L 385.371094 178.820312 L 337.269531 251.527344 L 361.210938 251.746094 Z M 385.371094 251.746094 " fill-opacity="1" fill-rule="nonzero"/><path fill="#000000" d="M 290.046875 501.527344 C 286.089844 501.527344 282.941406 500.21875 280.601562 497.597656 C 278.257812 494.976562 277.085938 491.777344 277.085938 487.992188 C 277.085938 477.65625 280.964844 468.703125 288.726562 461.136719 C 296.488281 453.566406 306.152344 449.78125 317.71875 449.78125 C 331.046875 449.78125 342.175781 453.855469 351.105469 462.007812 C 360.039062 470.160156 364.578125 480.714844 364.722656 493.667969 C 364.722656 499.925781 363.261719 505.894531 360.332031 511.570312 C 357.402344 517.25 353.886719 522.199219 349.789062 526.417969 C 345.6875 530.640625 339.832031 536.027344 332.21875 542.578125 C 326.945312 547.089844 319.625 553.785156 310.253906 562.664062 L 297.292969 574.890625 L 313.988281 575.109375 C 336.976562 575.109375 349.203125 574.746094 350.667969 574.015625 C 351.691406 573.726562 353.449219 567.25 355.9375 554.585938 L 355.9375 553.929688 L 364.722656 553.929688 L 364.722656 554.585938 C 364.578125 555.023438 363.625 561.644531 361.867188 574.453125 C 360.113281 587.261719 359.015625 593.960938 358.574219 594.542969 L 358.574219 595.195312 L 277.085938 595.195312 L 277.085938 588.429688 C 277.085938 587.410156 277.523438 586.316406 278.402344 585.152344 C 279.28125 583.988281 281.480469 581.441406 284.992188 577.511719 C 289.238281 572.851562 292.898438 568.777344 295.976562 565.285156 C 297.292969 563.828125 299.78125 561.136719 303.445312 557.207031 C 307.105469 553.273438 309.59375 550.582031 310.910156 549.125 C 312.230469 547.671875 314.351562 545.269531 317.28125 541.921875 C 320.210938 538.574219 322.257812 536.097656 323.429688 534.496094 C 324.601562 532.898438 326.285156 530.714844 328.484375 527.949219 C 330.679688 525.183594 332.21875 522.851562 333.09375 520.960938 C 333.972656 519.070312 335.074219 516.957031 336.390625 514.628906 C 337.707031 512.300781 338.660156 509.972656 339.246094 507.640625 C 339.832031 505.3125 340.34375 503.128906 340.78125 501.089844 C 341.222656 499.054688 341.441406 496.652344 341.441406 493.886719 C 341.441406 484.714844 338.953125 476.78125 333.972656 470.085938 C 328.996094 463.390625 321.894531 460.042969 312.667969 460.042969 C 307.835938 460.042969 303.589844 461.28125 299.929688 463.753906 C 296.269531 466.230469 293.707031 468.632812 292.242188 470.960938 C 290.777344 473.289062 290.046875 474.671875 290.046875 475.109375 C 290.046875 475.253906 290.410156 475.328125 291.144531 475.328125 C 293.777344 475.328125 296.488281 476.347656 299.269531 478.382812 C 302.050781 480.421875 303.445312 483.769531 303.445312 488.429688 C 303.445312 492.066406 302.273438 495.125 299.929688 497.597656 C 297.585938 500.074219 294.292969 501.382812 290.046875 501.527344 Z M 290.046875 501.527344 " fill-opacity="1" fill-rule="nonzero"/><path fill="#000000" d="M 411.949219 560.917969 C 411.949219 564.410156 410.777344 567.320312 408.433594 569.652344 C 406.089844 571.980469 403.234375 573.144531 399.867188 573.144531 L 398.332031 573.144531 C 405.066406 584.644531 414 590.394531 425.128906 590.394531 C 435.378906 590.394531 442.84375 586.027344 447.53125 577.292969 C 450.3125 572.488281 451.703125 563.171875 451.703125 549.34375 C 451.703125 534.351562 449.726562 524.234375 445.773438 518.996094 C 441.964844 514.191406 437.71875 511.789062 433.035156 511.789062 L 431.714844 511.789062 C 420.292969 511.789062 411.65625 516.738281 405.796875 526.636719 C 405.210938 527.65625 404.699219 528.238281 404.261719 528.382812 C 403.820312 528.53125 402.722656 528.675781 400.964844 528.820312 C 398.476562 528.820312 397.085938 528.382812 396.792969 527.511719 C 396.5 526.929688 396.355469 514.191406 396.355469 489.300781 L 396.355469 461.136719 C 396.355469 453.855469 396.71875 450.21875 397.453125 450.21875 C 397.746094 449.925781 398.039062 449.78125 398.332031 449.78125 C 398.476562 449.78125 400.015625 450.363281 402.941406 451.527344 C 405.871094 452.691406 409.898438 453.855469 415.023438 455.023438 C 420.148438 456.1875 425.640625 456.769531 431.496094 456.769531 C 441.894531 456.769531 451.851562 454.730469 461.367188 450.65625 C 462.539062 450.074219 463.492188 449.78125 464.222656 449.78125 C 465.394531 449.78125 465.980469 451.089844 465.980469 453.710938 L 465.980469 456.550781 C 453.972656 470.667969 438.964844 477.730469 420.953125 477.730469 C 416.414062 477.730469 412.3125 477.292969 408.652344 476.417969 L 406.457031 475.984375 L 406.457031 513.535156 C 409.238281 511.5 411.4375 509.898438 413.046875 508.734375 C 414.65625 507.570312 417.292969 506.40625 420.953125 505.238281 C 424.613281 504.074219 428.347656 503.492188 432.15625 503.492188 C 444.015625 503.492188 454.046875 508.222656 462.246094 517.6875 C 470.449219 527.148438 474.546875 538.355469 474.546875 551.308594 C 474.546875 564.703125 469.863281 576.128906 460.488281 585.589844 C 451.117188 595.050781 439.695312 599.855469 426.226562 600 C 414.363281 600 404.847656 596.070312 397.671875 588.210938 C 390.496094 580.347656 386.910156 571.46875 386.910156 561.570312 C 386.910156 558.078125 387.714844 555.3125 389.324219 553.273438 C 390.9375 551.238281 392.621094 549.925781 394.375 549.34375 C 396.132812 548.761719 397.816406 548.472656 399.429688 548.472656 C 403.089844 548.472656 406.089844 549.707031 408.433594 552.183594 C 410.777344 554.65625 411.949219 557.570312 411.949219 560.917969 Z M 411.949219 560.917969 " fill-opacity="1" fill-rule="nonzero"/><path fill="#000000" d="M 244.140625 397.378906 L 507.714844 397.378906 L 507.714844 384.28125 L 244.140625 384.28125 Z M 244.140625 397.378906 " fill-opacity="1" fill-rule="nonzero"/></svg>