<svg xmlns="http://www.w3.org/2000/svg" xmlns:xlink="http://www.w3.org/1999/xlink" width="1000" zoomAndPan="magnify" viewBox="0 0 750 749.999995" height="1000" preserveAspectRatio="xMidYMid meet" version="1.0"><rect x="-75" width="900" fill="#ffffff" y="-74.999999" height="899.999994" fill-opacity="1"/><rect x="-75" width="900" fill="#ffffff" y="-74.999999" height="899.999994" fill-opacity="1"/><path fill="#000000" d="M 329.777344 229.210938 C 329.777344 205.246094 335.765625 186.277344 347.75 172.308594 C 359.730469 158.339844 373.042969 151.355469 387.6875 151.355469 C 397.890625 151.355469 405.214844 154.003906 409.652344 159.296875 C 414.089844 164.589844 416.308594 170.46875 416.308594 176.941406 C 416.308594 180.617188 415.273438 183.558594 413.203125 185.761719 C 411.128906 187.96875 408.246094 189.070312 404.546875 189.070312 C 401.144531 189.070312 398.335938 188.042969 396.117188 185.984375 C 393.898438 183.925781 392.789062 181.058594 392.789062 177.382812 C 392.789062 170.910156 396.265625 167.015625 403.21875 165.691406 C 399.964844 162.457031 395.378906 160.617188 389.460938 160.179688 C 378.957031 160.179688 370.304688 164.589844 363.5 173.410156 C 356.550781 183.117188 353.074219 197.964844 353.074219 217.964844 L 353.296875 218.847656 C 354.035156 217.964844 354.625 217.007812 355.070312 215.980469 C 361.136719 207.15625 369.046875 202.746094 378.8125 202.746094 L 379.699219 202.746094 C 386.503906 202.746094 392.492188 204.140625 397.671875 206.9375 C 401.21875 208.996094 404.769531 211.933594 408.320312 215.757812 C 411.871094 219.582031 414.753906 223.773438 416.972656 228.328125 C 420.078125 235.535156 421.632812 243.402344 421.632812 251.929688 L 421.632812 255.898438 C 421.632812 259.28125 421.261719 262.441406 420.523438 265.382812 C 418.894531 274.058594 414.164062 282.511719 406.324219 290.746094 C 398.484375 298.980469 388.574219 303.097656 376.59375 303.097656 C 372.449219 303.097656 368.457031 302.511719 364.609375 301.335938 C 360.765625 300.15625 356.625 297.953125 352.1875 294.71875 C 347.75 291.484375 343.976562 287.144531 340.871094 281.703125 C 337.765625 276.265625 335.101562 269.132812 332.882812 260.3125 C 330.664062 251.488281 329.628906 241.121094 329.777344 229.210938 Z M 377.480469 210.683594 C 373.042969 210.683594 369.195312 211.933594 365.941406 214.433594 C 362.6875 216.933594 360.171875 220.242188 358.398438 224.359375 C 356.625 228.476562 355.367188 232.667969 354.625 236.929688 C 353.886719 241.195312 353.441406 245.753906 353.296875 250.605469 C 353.296875 262.808594 354.183594 271.558594 355.957031 276.851562 C 357.734375 282.144531 360.542969 286.410156 364.390625 289.644531 C 367.9375 292.292969 371.859375 293.613281 376.148438 293.613281 C 383.691406 293.613281 389.460938 290.820312 393.453125 285.234375 C 395.378906 282.585938 396.707031 279.277344 397.449219 275.308594 C 398.1875 271.339844 398.558594 263.617188 398.558594 252.148438 C 398.558594 240.386719 398.1875 232.519531 397.449219 228.550781 C 396.707031 224.582031 395.378906 221.273438 393.453125 218.625 C 389.460938 213.332031 384.136719 210.683594 377.480469 210.683594 Z M 377.480469 210.683594 " fill-opacity="1" fill-rule="nonzero"/><path fill="#000000" d="M 289.171875 504.027344 C 285.179688 504.027344 282 502.703125 279.632812 500.054688 C 277.265625 497.410156 276.082031 494.175781 276.082031 490.351562 C 276.082031 479.910156 280.003906 470.867188 287.84375 463.222656 C 295.683594 455.578125 305.445312 451.753906 317.128906 451.753906 C 330.589844 451.753906 341.832031 455.871094 350.855469 464.105469 C 359.878906 472.339844 364.464844 483 364.609375 496.085938 C 364.609375 502.410156 363.132812 508.4375 360.171875 514.171875 C 357.214844 519.90625 353.664062 524.90625 349.523438 529.167969 C 345.382812 533.433594 339.464844 538.875 331.773438 545.492188 C 326.449219 550.046875 319.050781 556.8125 309.585938 565.78125 L 296.496094 578.132812 L 313.359375 578.351562 C 336.582031 578.351562 348.933594 577.984375 350.410156 577.25 C 351.445312 576.957031 353.222656 570.414062 355.734375 557.621094 L 355.734375 556.960938 L 364.609375 556.960938 L 364.609375 557.621094 C 364.464844 558.0625 363.5 564.753906 361.726562 577.691406 C 359.953125 590.632812 358.84375 597.394531 358.398438 597.984375 L 358.398438 598.644531 L 276.082031 598.644531 L 276.082031 591.808594 C 276.082031 590.777344 276.527344 589.675781 277.414062 588.5 C 278.300781 587.324219 280.519531 584.75 284.070312 580.78125 C 288.359375 576.074219 292.058594 571.957031 295.164062 568.429688 C 296.496094 566.957031 299.011719 564.238281 302.707031 560.265625 C 306.40625 556.296875 308.921875 553.578125 310.25 552.105469 C 311.582031 550.636719 313.726562 548.210938 316.6875 544.828125 C 319.644531 541.445312 321.714844 538.945312 322.898438 537.328125 C 324.082031 535.710938 325.78125 533.507812 328 530.714844 C 330.21875 527.917969 331.773438 525.566406 332.660156 523.65625 C 333.546875 521.742188 334.65625 519.613281 335.988281 517.257812 C 337.320312 514.90625 338.28125 512.554688 338.875 510.203125 C 339.464844 507.847656 339.984375 505.644531 340.425781 503.585938 C 340.871094 501.527344 341.09375 499.101562 341.09375 496.304688 C 341.09375 487.042969 338.578125 479.027344 333.546875 472.265625 C 328.519531 465.5 321.34375 462.121094 312.027344 462.121094 C 307.144531 462.121094 302.855469 463.371094 299.15625 465.871094 C 295.460938 468.367188 292.871094 470.796875 291.390625 473.148438 C 289.914062 475.5 289.171875 476.898438 289.171875 477.339844 C 289.171875 477.484375 289.542969 477.558594 290.28125 477.558594 C 292.945312 477.558594 295.683594 478.589844 298.492188 480.648438 C 301.300781 482.707031 302.707031 486.085938 302.707031 490.792969 C 302.707031 494.46875 301.523438 497.554688 299.15625 500.054688 C 296.792969 502.554688 293.464844 503.878906 289.171875 504.027344 Z M 289.171875 504.027344 " fill-opacity="1" fill-rule="nonzero"/><path fill="#000000" d="M 478.433594 598.644531 C 475.769531 598.203125 466.230469 597.984375 449.8125 597.984375 C 432.652344 597.984375 422.742188 598.203125 420.078125 598.644531 L 418.082031 598.644531 L 418.082031 588.5 L 424.960938 588.5 C 427.917969 588.5 429.917969 588.5 430.953125 588.5 C 431.988281 588.5 433.246094 588.351562 434.722656 588.058594 C 436.203125 587.761719 437.238281 587.394531 437.828125 586.953125 C 438.421875 586.515625 438.9375 585.925781 439.382812 585.191406 C 439.53125 584.894531 439.605469 580.925781 439.605469 573.28125 L 439.605469 562.253906 L 382.140625 562.253906 L 382.140625 552.105469 L 415.640625 501.160156 C 438.273438 467.046875 449.738281 449.914062 450.03125 449.769531 C 450.328125 449.476562 451.882812 449.328125 454.691406 449.328125 L 458.6875 449.328125 L 460.015625 450.652344 L 460.015625 552.105469 L 480.429688 552.105469 L 480.429688 562.253906 L 460.015625 562.253906 L 460.015625 573.5 C 460.015625 579.53125 460.015625 583.058594 460.015625 584.085938 C 460.015625 585.117188 460.460938 586 461.347656 586.734375 C 462.53125 587.761719 466.746094 588.351562 473.996094 588.5 L 480.429688 588.5 L 480.429688 598.644531 Z M 440.9375 552.105469 L 440.9375 478.441406 L 392.34375 551.886719 L 416.53125 552.105469 Z M 440.9375 552.105469 " fill-opacity="1" fill-rule="nonzero"/><path fill="#000000" d="M 242.800781 398.820312 L 509.050781 398.820312 L 509.050781 385.585938 L 242.800781 385.585938 Z M 242.800781 398.820312 " fill-opacity="1" fill-rule="nonzero"/></svg>