<svg xmlns="http://www.w3.org/2000/svg" xmlns:xlink="http://www.w3.org/1999/xlink" width="1000" zoomAndPan="magnify" viewBox="0 0 750 749.999995" height="1000" preserveAspectRatio="xMidYMid meet" version="1.0"><defs><clipPath id="4309fec6c8"><path d="M 409 277.5 L 584 277.5 L 584 472.5 L 409 472.5 Z M 409 277.5 " clip-rule="nonzero"/></clipPath></defs><rect x="-75" width="900" fill="#ffffff" y="-74.999999" height="899.999994" fill-opacity="1"/><rect x="-75" width="900" fill="#ffffff" y="-74.999999" height="899.999994" fill-opacity="1"/><path fill="#000000" d="M 179.664062 355.160156 C 175.304688 355.160156 171.832031 353.710938 169.25 350.804688 C 166.667969 347.902344 165.375 344.355469 165.375 340.160156 C 165.375 328.710938 169.652344 318.789062 178.210938 310.402344 C 186.769531 302.015625 197.421875 297.824219 210.179688 297.824219 C 224.871094 297.824219 237.140625 302.339844 246.988281 311.371094 C 256.839844 320.402344 261.84375 332.097656 262.003906 346.453125 C 262.003906 353.386719 260.390625 360 257.160156 366.289062 C 253.933594 372.582031 250.058594 378.066406 245.535156 382.742188 C 241.015625 387.417969 234.558594 393.386719 226.164062 400.644531 C 220.351562 405.644531 212.277344 413.066406 201.945312 422.902344 L 187.65625 436.453125 L 206.0625 436.695312 C 231.410156 436.695312 244.890625 436.289062 246.503906 435.484375 C 247.636719 435.160156 249.574219 427.984375 252.316406 413.953125 L 252.316406 413.226562 L 262.003906 413.226562 L 262.003906 413.953125 C 261.84375 414.433594 260.792969 421.773438 258.855469 435.96875 C 256.917969 450.160156 255.707031 457.582031 255.222656 458.226562 L 255.222656 458.953125 L 165.375 458.953125 L 165.375 451.453125 C 165.375 450.324219 165.859375 449.113281 166.828125 447.824219 C 167.796875 446.53125 170.21875 443.710938 174.09375 439.355469 C 178.777344 434.195312 182.8125 429.675781 186.203125 425.804688 C 187.65625 424.195312 190.398438 421.210938 194.4375 416.855469 C 198.472656 412.5 201.21875 409.515625 202.671875 407.902344 C 204.125 406.289062 206.464844 403.628906 209.695312 399.917969 C 212.921875 396.210938 215.183594 393.46875 216.476562 391.695312 C 217.765625 389.917969 219.625 387.5 222.046875 384.433594 C 224.46875 381.371094 226.164062 378.789062 227.132812 376.695312 C 228.101562 374.597656 229.3125 372.257812 230.765625 369.675781 C 232.21875 367.097656 233.265625 364.515625 233.914062 361.933594 C 234.558594 359.355469 235.125 356.933594 235.609375 354.675781 C 236.09375 352.417969 236.335938 349.757812 236.335938 346.695312 C 236.335938 336.53125 233.589844 327.742188 228.101562 320.324219 C 222.609375 312.902344 214.78125 309.195312 204.609375 309.195312 C 199.28125 309.195312 194.597656 310.566406 190.5625 313.304688 C 186.527344 316.046875 183.699219 318.710938 182.085938 321.289062 C 180.472656 323.871094 179.664062 325.402344 179.664062 325.886719 C 179.664062 326.046875 180.066406 326.128906 180.875 326.128906 C 183.78125 326.128906 186.769531 327.257812 189.835938 329.515625 C 192.902344 331.773438 194.4375 335.484375 194.4375 340.644531 C 194.4375 344.675781 193.144531 348.066406 190.5625 350.804688 C 187.980469 353.546875 184.347656 355 179.664062 355.160156 Z M 179.664062 355.160156 " fill-opacity="1" fill-rule="nonzero"/><path fill="#000000" d="M 314.074219 420.96875 C 314.074219 424.839844 312.78125 428.066406 310.199219 430.644531 C 307.617188 433.226562 304.46875 434.515625 300.753906 434.515625 L 299.058594 434.515625 C 306.484375 447.257812 316.335938 453.628906 328.605469 453.628906 C 339.90625 453.628906 348.140625 448.789062 353.308594 439.113281 C 356.375 433.789062 357.910156 423.46875 357.910156 408.144531 C 357.910156 391.53125 355.730469 380.324219 351.371094 374.515625 C 347.171875 369.195312 342.488281 366.53125 337.324219 366.53125 L 335.871094 366.53125 C 323.277344 366.53125 313.75 372.015625 307.292969 382.984375 C 306.648438 384.113281 306.082031 384.757812 305.597656 384.917969 C 305.113281 385.082031 303.902344 385.242188 301.964844 385.402344 C 299.21875 385.402344 297.6875 384.917969 297.363281 383.953125 C 297.039062 383.304688 296.878906 369.195312 296.878906 341.613281 L 296.878906 310.402344 C 296.878906 302.339844 297.28125 298.304688 298.089844 298.304688 C 298.414062 297.984375 298.734375 297.824219 299.058594 297.824219 C 299.21875 297.824219 300.914062 298.46875 304.144531 299.757812 C 307.375 301.046875 311.8125 302.339844 317.464844 303.628906 C 323.117188 304.917969 329.171875 305.566406 335.628906 305.566406 C 347.089844 305.566406 358.070312 303.304688 368.566406 298.789062 C 369.855469 298.144531 370.90625 297.824219 371.714844 297.824219 C 373.003906 297.824219 373.652344 299.273438 373.652344 302.175781 L 373.652344 305.324219 C 360.410156 320.96875 343.863281 328.789062 324.003906 328.789062 C 319 328.789062 314.476562 328.304688 310.441406 327.339844 L 308.019531 326.855469 L 308.019531 368.46875 C 311.085938 366.210938 313.507812 364.433594 315.285156 363.144531 C 317.0625 361.855469 319.96875 360.566406 324.003906 359.273438 C 328.039062 357.984375 332.15625 357.339844 336.355469 357.339844 C 349.433594 357.339844 360.492188 362.582031 369.535156 373.066406 C 378.574219 383.546875 383.097656 395.96875 383.097656 410.324219 C 383.097656 425.160156 377.929688 437.824219 367.597656 448.304688 C 357.261719 458.789062 344.667969 464.113281 329.816406 464.273438 C 316.738281 464.273438 306.242188 459.917969 298.332031 451.210938 C 290.421875 442.5 286.464844 432.660156 286.464844 421.695312 C 286.464844 417.824219 287.355469 414.757812 289.128906 412.5 C 290.90625 410.242188 292.761719 408.789062 294.699219 408.144531 C 296.636719 407.5 298.492188 407.175781 300.269531 407.175781 C 304.304688 407.175781 307.617188 408.546875 310.199219 411.289062 C 312.78125 414.03125 314.074219 417.257812 314.074219 420.96875 Z M 314.074219 420.96875 " fill-opacity="1" fill-rule="nonzero"/><g clip-path="url(#4309fec6c8)"><path fill="#000000" d="M 508.0625 312.582031 C 502.085938 312.582031 496.355469 311.855469 490.867188 310.402344 C 485.378906 308.953125 481.019531 307.5 477.789062 306.046875 C 474.558594 304.597656 472.863281 303.871094 472.703125 303.871094 C 474.800781 309.195312 475.851562 316.695312 475.851562 326.371094 C 475.851562 340.886719 472.703125 352.582031 466.40625 361.453125 C 460.109375 370.324219 452.761719 374.839844 444.367188 375 C 435.164062 375 427.011719 370.566406 419.90625 361.695312 C 412.804688 352.824219 409.171875 341.046875 409.007812 326.371094 C 409.007812 312.015625 412.640625 300.324219 419.90625 291.289062 C 427.171875 282.257812 435.328125 277.660156 444.367188 277.5 C 450.664062 277.5 456.316406 280 461.320312 285 C 475.367188 297.417969 490.867188 303.628906 507.820312 303.628906 C 526.546875 303.628906 541.5625 296.371094 552.863281 281.855469 C 554.800781 279.273438 556.253906 277.902344 557.222656 277.742188 C 557.546875 277.582031 557.949219 277.5 558.433594 277.5 C 559.886719 277.5 561.097656 278.066406 562.066406 279.195312 C 563.035156 280.324219 563.441406 281.695312 563.277344 283.304688 C 480.128906 407.984375 437.910156 470.726562 436.617188 471.53125 C 435.972656 472.175781 435.164062 472.5 434.195312 472.5 C 432.097656 472.5 430.644531 471.613281 429.835938 469.839844 C 429.03125 468.386719 429.03125 466.933594 429.835938 465.484375 C 430 465 447.839844 438.304688 483.359375 385.402344 C 500.472656 359.917969 513.550781 340.402344 522.59375 326.855469 C 531.632812 313.304688 536.15625 306.53125 536.15625 306.53125 C 527.597656 310.566406 518.234375 312.582031 508.0625 312.582031 Z M 445.578125 365.804688 C 450.097656 365.804688 454.621094 362.417969 459.140625 355.644531 C 463.660156 348.871094 466.003906 339.113281 466.164062 326.371094 C 466.164062 315.242188 464.144531 305.886719 460.109375 298.304688 C 456.074219 290.726562 450.664062 286.855469 443.882812 286.695312 C 442.753906 286.695312 441.621094 286.933594 440.492188 287.417969 C 439.363281 287.902344 437.828125 288.789062 435.890625 290.082031 C 433.953125 291.371094 432.339844 293.789062 431.046875 297.339844 C 429.757812 300.886719 428.707031 305.160156 427.898438 310.160156 C 427.578125 313.386719 427.414062 318.789062 427.414062 326.371094 L 427.414062 331.453125 C 427.414062 346.128906 430.078125 356.128906 435.40625 361.453125 C 438.3125 364.355469 441.378906 365.804688 444.609375 365.804688 Z M 516.539062 423.628906 C 516.539062 409.433594 520.089844 397.824219 527.195312 388.789062 C 534.296875 379.757812 542.613281 375.160156 552.136719 375 C 560.535156 375 567.800781 379.433594 573.933594 388.304688 C 580.070312 397.175781 583.21875 408.953125 583.378906 423.628906 C 583.542969 438.304688 580.394531 450.082031 573.933594 458.953125 C 567.476562 467.824219 560.128906 472.339844 551.894531 472.5 C 542.855469 472.5 534.703125 467.984375 527.4375 458.953125 C 520.171875 449.917969 516.539062 438.144531 516.539062 423.628906 Z M 553.105469 463.304688 C 557.628906 463.304688 562.148438 459.917969 566.667969 453.144531 C 571.191406 446.371094 573.53125 436.53125 573.691406 423.628906 C 573.691406 412.5 571.675781 403.144531 567.636719 395.566406 C 563.601562 387.984375 558.191406 384.195312 551.410156 384.195312 C 550.28125 384.195312 549.152344 384.433594 548.019531 384.917969 C 546.890625 385.402344 545.355469 386.289062 543.417969 387.582031 C 541.480469 388.871094 539.867188 391.289062 538.578125 394.839844 C 537.285156 398.386719 536.234375 402.660156 535.429688 407.660156 C 535.265625 409.597656 535.1875 414.917969 535.1875 423.628906 L 535.1875 428.953125 C 535.1875 451.855469 540.835938 463.304688 552.136719 463.304688 Z M 553.105469 463.304688 " fill-opacity="1" fill-rule="nonzero"/></g></svg>