<svg xmlns="http://www.w3.org/2000/svg" xmlns:xlink="http://www.w3.org/1999/xlink" width="1000" zoomAndPan="magnify" viewBox="0 0 750 749.999995" height="1000" preserveAspectRatio="xMidYMid meet" version="1.0"><rect x="-75" width="900" fill="#ffffff" y="-74.999999" height="899.999994" fill-opacity="1"/><rect x="-75" width="900" fill="#ffffff" y="-74.999999" height="899.999994" fill-opacity="1"/><path fill="#000000" d="M 163.179688 339.652344 C 168.304688 332.238281 175.304688 328.53125 184.183594 328.53125 C 188.574219 328.53125 192.96875 329.722656 197.359375 332.101562 C 201.753906 334.480469 205.324219 338.691406 208.070312 344.730469 C 211.457031 352.324219 213.148438 362.757812 213.148438 376.03125 C 213.148438 390.214844 211.179688 401.058594 207.246094 408.566406 C 205.414062 412.410156 202.898438 415.472656 199.695312 417.761719 C 196.492188 420.050781 193.699219 421.46875 191.320312 422.019531 C 188.941406 422.566406 186.609375 422.886719 184.320312 422.980469 C 181.941406 422.980469 179.5625 422.703125 177.179688 422.15625 C 174.800781 421.605469 172.011719 420.140625 168.808594 417.761719 C 165.605469 415.382812 163.085938 412.316406 161.257812 408.566406 C 157.320312 401.058594 155.355469 390.214844 155.355469 376.03125 C 155.355469 360.105469 157.960938 347.980469 163.179688 339.652344 Z M 194.066406 338.003906 C 191.320312 335.074219 188.070312 333.609375 184.320312 333.609375 C 180.476562 333.609375 177.179688 335.074219 174.4375 338.003906 C 172.148438 340.382812 170.636719 343.675781 169.90625 347.886719 C 169.171875 352.097656 168.808594 360.882812 168.808594 374.246094 C 168.808594 388.703125 169.171875 398.222656 169.90625 402.800781 C 170.636719 407.375 172.285156 410.988281 174.847656 413.644531 C 177.410156 416.390625 180.566406 417.761719 184.320312 417.761719 C 187.980469 417.761719 191.09375 416.390625 193.65625 413.644531 C 196.308594 410.898438 197.957031 407.054688 198.597656 402.113281 C 199.238281 397.171875 199.601562 387.882812 199.695312 374.246094 C 199.695312 360.976562 199.328125 352.234375 198.597656 348.023438 C 197.863281 343.816406 196.355469 340.472656 194.066406 338.003906 Z M 194.066406 338.003906 " fill-opacity="1" fill-rule="nonzero"/><path fill="#000000" d="M 229.347656 411.722656 C 229.347656 409.527344 230.125 407.605469 231.679688 405.957031 C 233.238281 404.308594 235.203125 403.484375 237.582031 403.484375 C 239.78125 403.484375 241.703125 404.21875 243.347656 405.683594 C 244.996094 407.144531 245.867188 409.113281 245.957031 411.585938 C 245.957031 413.871094 245.179688 415.839844 243.625 417.488281 C 242.066406 419.136719 240.101562 419.957031 237.722656 419.957031 C 235.339844 419.957031 233.375 419.179688 231.816406 417.625 C 230.261719 416.070312 229.4375 414.101562 229.347656 411.722656 Z M 229.347656 411.722656 " fill-opacity="1" fill-rule="nonzero"/><path fill="#000000" d="M 269.980469 339.652344 C 275.105469 332.238281 282.109375 328.53125 290.984375 328.53125 C 295.378906 328.53125 299.769531 329.722656 304.164062 332.101562 C 308.558594 334.480469 312.125 338.691406 314.871094 344.730469 C 318.257812 352.324219 319.953125 362.757812 319.953125 376.03125 C 319.953125 390.214844 317.984375 401.058594 314.046875 408.566406 C 312.21875 412.410156 309.699219 415.472656 306.496094 417.761719 C 303.292969 420.050781 300.503906 421.46875 298.125 422.019531 C 295.746094 422.566406 293.410156 422.886719 291.121094 422.980469 C 288.742188 422.980469 286.363281 422.703125 283.984375 422.15625 C 281.605469 421.605469 278.8125 420.140625 275.609375 417.761719 C 272.40625 415.382812 269.890625 412.316406 268.058594 408.566406 C 264.125 401.058594 262.15625 390.214844 262.15625 376.03125 C 262.15625 360.105469 264.765625 347.980469 269.980469 339.652344 Z M 300.871094 338.003906 C 298.125 335.074219 294.875 333.609375 291.121094 333.609375 C 287.277344 333.609375 283.984375 335.074219 281.238281 338.003906 C 278.949219 340.382812 277.441406 343.675781 276.707031 347.886719 C 275.976562 352.097656 275.609375 360.882812 275.609375 374.246094 C 275.609375 388.703125 275.976562 398.222656 276.707031 402.800781 C 277.441406 407.375 279.085938 410.988281 281.648438 413.644531 C 284.214844 416.390625 287.371094 417.761719 291.121094 417.761719 C 294.785156 417.761719 297.894531 416.390625 300.457031 413.644531 C 303.113281 410.898438 304.757812 407.054688 305.398438 402.113281 C 306.039062 397.171875 306.40625 387.882812 306.496094 374.246094 C 306.496094 360.976562 306.132812 352.234375 305.398438 348.023438 C 304.667969 343.816406 303.15625 340.472656 300.871094 338.003906 Z M 300.871094 338.003906 " fill-opacity="1" fill-rule="nonzero"/><path fill="#000000" d="M 338.621094 339.652344 C 343.746094 332.238281 350.746094 328.53125 359.625 328.53125 C 364.019531 328.53125 368.410156 329.722656 372.804688 332.101562 C 377.195312 334.480469 380.765625 338.691406 383.511719 344.730469 C 386.898438 352.324219 388.589844 362.757812 388.589844 376.03125 C 388.589844 390.214844 386.621094 401.058594 382.6875 408.566406 C 380.855469 412.410156 378.339844 415.472656 375.136719 417.761719 C 371.933594 420.050781 369.144531 421.46875 366.761719 422.019531 C 364.382812 422.566406 362.050781 422.886719 359.761719 422.980469 C 357.382812 422.980469 355.003906 422.703125 352.625 422.15625 C 350.242188 421.605469 347.453125 420.140625 344.25 417.761719 C 341.046875 415.382812 338.53125 412.316406 336.699219 408.566406 C 332.765625 401.058594 330.796875 390.214844 330.796875 376.03125 C 330.796875 360.105469 333.40625 347.980469 338.621094 339.652344 Z M 369.507812 338.003906 C 366.761719 335.074219 363.515625 333.609375 359.761719 333.609375 C 355.917969 333.609375 352.625 335.074219 349.878906 338.003906 C 347.589844 340.382812 346.078125 343.675781 345.347656 347.886719 C 344.617188 352.097656 344.25 360.882812 344.25 374.246094 C 344.25 388.703125 344.617188 398.222656 345.347656 402.800781 C 346.078125 407.375 347.726562 410.988281 350.289062 413.644531 C 352.851562 416.390625 356.007812 417.761719 359.761719 417.761719 C 363.421875 417.761719 366.535156 416.390625 369.097656 413.644531 C 371.75 410.898438 373.398438 407.054688 374.039062 402.113281 C 374.679688 397.171875 375.046875 387.882812 375.136719 374.246094 C 375.136719 360.976562 374.769531 352.234375 374.039062 348.023438 C 373.308594 343.816406 371.796875 340.472656 369.507812 338.003906 Z M 369.507812 338.003906 " fill-opacity="1" fill-rule="nonzero"/><path fill="#000000" d="M 409.046875 361.066406 C 406.574219 361.066406 404.605469 360.242188 403.140625 358.59375 C 401.679688 356.949219 400.945312 354.933594 400.945312 352.554688 C 400.945312 346.058594 403.371094 340.429688 408.222656 335.667969 C 413.070312 330.910156 419.113281 328.53125 426.34375 328.53125 C 434.671875 328.53125 441.625 331.09375 447.207031 336.21875 C 452.792969 341.34375 455.628906 347.980469 455.71875 356.125 C 455.71875 360.058594 454.804688 363.8125 452.972656 367.382812 C 451.144531 370.949219 448.949219 374.0625 446.386719 376.714844 C 443.824219 379.371094 440.160156 382.757812 435.402344 386.875 C 432.109375 389.710938 427.53125 393.921875 421.675781 399.503906 L 413.574219 407.191406 L 424.007812 407.328125 C 438.378906 407.328125 446.019531 407.101562 446.933594 406.644531 C 447.574219 406.460938 448.671875 402.386719 450.230469 394.425781 L 450.230469 394.011719 L 455.71875 394.011719 L 455.71875 394.425781 C 455.628906 394.699219 455.035156 398.863281 453.933594 406.917969 C 452.835938 414.972656 452.152344 419.179688 451.875 419.546875 L 451.875 419.957031 L 400.945312 419.957031 L 400.945312 415.703125 C 400.945312 415.0625 401.21875 414.375 401.769531 413.644531 C 402.320312 412.910156 403.691406 411.308594 405.886719 408.839844 C 408.542969 405.910156 410.828125 403.347656 412.75 401.152344 C 413.574219 400.238281 415.132812 398.542969 417.417969 396.074219 C 419.707031 393.601562 421.261719 391.90625 422.085938 390.992188 C 422.910156 390.078125 424.238281 388.566406 426.066406 386.460938 C 427.898438 384.359375 429.179688 382.800781 429.910156 381.796875 C 430.644531 380.789062 431.695312 379.414062 433.070312 377.675781 C 434.441406 375.9375 435.402344 374.472656 435.953125 373.285156 C 436.5 372.09375 437.1875 370.765625 438.011719 369.304688 C 438.835938 367.839844 439.429688 366.375 439.796875 364.910156 C 440.160156 363.445312 440.480469 362.074219 440.757812 360.792969 C 441.03125 359.511719 441.167969 358 441.167969 356.261719 C 441.167969 350.496094 439.613281 345.507812 436.5 341.296875 C 433.390625 337.089844 428.949219 334.984375 423.183594 334.984375 C 420.164062 334.984375 417.511719 335.761719 415.222656 337.316406 C 412.933594 338.871094 411.332031 340.382812 410.417969 341.847656 C 409.503906 343.3125 409.046875 344.179688 409.046875 344.457031 C 409.046875 344.546875 409.273438 344.59375 409.730469 344.59375 C 411.378906 344.59375 413.070312 345.234375 414.8125 346.515625 C 416.550781 347.796875 417.417969 349.902344 417.417969 352.828125 C 417.417969 355.117188 416.6875 357.039062 415.222656 358.59375 C 413.757812 360.152344 411.699219 360.976562 409.046875 361.066406 Z M 409.046875 361.066406 " fill-opacity="1" fill-rule="nonzero"/><path fill="#000000" d="M 480.15625 356.398438 C 477.683594 356.398438 475.761719 355.621094 474.390625 354.066406 C 473.015625 352.507812 472.285156 350.496094 472.195312 348.023438 C 472.195312 342.992188 474.390625 338.507812 478.78125 334.570312 C 483.175781 330.636719 488.484375 328.667969 494.707031 328.667969 C 497.910156 328.667969 499.921875 328.714844 500.746094 328.804688 C 507.519531 329.902344 512.691406 332.328125 516.261719 336.082031 C 519.828125 339.832031 521.660156 343.90625 521.75 348.300781 C 521.75 353.058594 520.195312 357.679688 517.082031 362.164062 C 513.972656 366.648438 509.671875 369.898438 504.179688 371.910156 L 503.765625 372.1875 C 503.765625 372.277344 504.179688 372.414062 505.003906 372.597656 C 505.828125 372.78125 507.152344 373.191406 508.984375 373.832031 C 510.816406 374.472656 512.554688 375.433594 514.199219 376.714844 C 521.707031 381.566406 525.457031 387.972656 525.457031 395.933594 C 525.457031 403.164062 522.621094 409.480469 516.945312 414.878906 C 511.273438 420.277344 504.085938 422.980469 495.394531 422.980469 C 488.070312 422.980469 481.757812 421.011719 476.449219 417.074219 C 471.140625 413.140625 468.488281 408.152344 468.488281 402.113281 C 468.488281 399.550781 469.308594 397.492188 470.957031 395.933594 C 472.605469 394.378906 474.664062 393.554688 477.136719 393.464844 C 479.699219 393.464844 481.804688 394.289062 483.449219 395.933594 C 485.097656 397.582031 485.921875 399.640625 485.921875 402.113281 C 485.921875 403.121094 485.785156 404.035156 485.507812 404.859375 C 485.234375 405.683594 484.914062 406.414062 484.546875 407.054688 C 484.183594 407.695312 483.679688 408.246094 483.039062 408.703125 C 482.398438 409.160156 481.847656 409.527344 481.390625 409.800781 C 480.933594 410.074219 480.476562 410.257812 480.019531 410.347656 C 479.5625 410.441406 479.195312 410.578125 478.921875 410.761719 L 478.371094 410.898438 C 483.039062 415.015625 488.710938 417.074219 495.394531 417.074219 C 500.425781 417.074219 504.226562 414.652344 506.789062 409.800781 C 508.34375 406.78125 509.121094 402.160156 509.121094 395.933594 L 509.121094 393.191406 C 509.121094 384.496094 506.191406 378.683594 500.335938 375.753906 C 498.960938 375.207031 496.171875 374.886719 491.960938 374.792969 L 486.195312 374.65625 L 485.785156 374.382812 C 485.601562 374.109375 485.507812 373.375 485.507812 372.1875 C 485.507812 370.539062 485.875 369.714844 486.609375 369.714844 C 489.171875 369.714844 491.824219 369.484375 494.570312 369.027344 C 497.679688 368.570312 500.519531 366.648438 503.082031 363.261719 C 505.644531 359.875 506.925781 354.75 506.925781 347.886719 L 506.925781 346.789062 C 506.925781 341.574219 505.324219 337.957031 502.121094 335.945312 C 500.105469 334.664062 497.957031 334.023438 495.667969 334.023438 C 492.738281 334.023438 490.039062 334.527344 487.570312 335.53125 C 485.097656 336.539062 483.359375 337.589844 482.351562 338.691406 C 481.34375 339.789062 480.84375 340.335938 480.84375 340.335938 L 481.253906 340.335938 C 481.527344 340.429688 481.894531 340.519531 482.351562 340.613281 C 482.808594 340.703125 483.265625 340.933594 483.726562 341.296875 C 484.183594 341.664062 484.730469 341.984375 485.371094 342.257812 C 486.011719 342.535156 486.46875 343.035156 486.746094 343.769531 C 487.019531 344.5 487.386719 345.1875 487.84375 345.828125 C 488.300781 346.46875 488.4375 347.382812 488.253906 348.574219 C 488.253906 350.585938 487.613281 352.371094 486.332031 353.925781 C 485.050781 355.484375 482.992188 356.308594 480.15625 356.398438 Z M 480.15625 356.398438 " fill-opacity="1" fill-rule="nonzero"/><path fill="#000000" d="M 594.785156 419.957031 C 593.136719 419.683594 587.234375 419.546875 577.074219 419.546875 C 566.457031 419.546875 560.328125 419.683594 558.679688 419.957031 L 557.445312 419.957031 L 557.445312 413.644531 L 561.699219 413.644531 C 563.53125 413.644531 564.765625 413.644531 565.40625 413.644531 C 566.046875 413.644531 566.824219 413.550781 567.738281 413.371094 C 568.65625 413.1875 569.296875 412.957031 569.660156 412.683594 C 570.027344 412.410156 570.347656 412.042969 570.621094 411.585938 C 570.714844 411.402344 570.757812 408.929688 570.757812 404.171875 L 570.757812 397.308594 L 535.203125 397.308594 L 535.203125 390.992188 L 555.933594 359.28125 C 569.9375 338.050781 577.027344 327.386719 577.210938 327.296875 C 577.394531 327.113281 578.355469 327.019531 580.09375 327.019531 L 582.566406 327.019531 L 583.390625 327.84375 L 583.390625 390.992188 L 596.019531 390.992188 L 596.019531 397.308594 L 583.390625 397.308594 L 583.390625 404.308594 C 583.390625 408.0625 583.390625 410.257812 583.390625 410.898438 C 583.390625 411.539062 583.664062 412.089844 584.214844 412.546875 C 584.945312 413.1875 587.554688 413.550781 592.039062 413.644531 L 596.019531 413.644531 L 596.019531 419.957031 Z M 571.582031 390.992188 L 571.582031 345.140625 L 541.519531 390.855469 L 556.484375 390.992188 Z M 571.582031 390.992188 " fill-opacity="1" fill-rule="nonzero"/></svg>