<svg xmlns="http://www.w3.org/2000/svg" xmlns:xlink="http://www.w3.org/1999/xlink" width="1000" zoomAndPan="magnify" viewBox="0 0 750 749.999995" height="1000" preserveAspectRatio="xMidYMid meet" version="1.0"><defs><clipPath id="d96bede964"><path d="M 199 350 L 244 350 L 244 422.441406 L 199 422.441406 Z M 199 350 " clip-rule="nonzero"/></clipPath><clipPath id="be364ae1b1"><path d="M 484 350 L 529 350 L 529 422.441406 L 484 422.441406 Z M 484 350 " clip-rule="nonzero"/></clipPath><clipPath id="48a79ebf0d"><path d="M 596 327.558594 L 628 327.558594 L 628 379 L 596 379 Z M 596 327.558594 " clip-rule="nonzero"/></clipPath></defs><rect x="-75" width="900" fill="#ffffff" y="-74.999999" height="899.999994" fill-opacity="1"/><rect x="-75" width="900" fill="#ffffff" y="-74.999999" height="899.999994" fill-opacity="1"/><path fill="#000000" d="M 125.050781 375.167969 C 123.164062 375.167969 121.664062 374.539062 120.546875 373.28125 C 119.429688 372.023438 118.871094 370.484375 118.871094 368.667969 C 118.871094 363.707031 120.722656 359.410156 124.421875 355.777344 C 128.125 352.144531 132.734375 350.328125 138.25 350.328125 C 144.605469 350.328125 149.914062 352.28125 154.171875 356.195312 C 158.433594 360.109375 160.597656 365.175781 160.667969 371.394531 C 160.667969 374.398438 159.96875 377.265625 158.570312 379.988281 C 157.175781 382.714844 155.5 385.089844 153.542969 387.117188 C 151.589844 389.144531 148.796875 391.730469 145.164062 394.875 C 142.648438 397.039062 139.15625 400.253906 134.6875 404.515625 L 128.507812 410.386719 L 136.46875 410.492188 C 147.433594 410.492188 153.265625 410.316406 153.964844 409.964844 C 154.453125 409.828125 155.289062 406.71875 156.476562 400.636719 L 156.476562 400.324219 L 160.667969 400.324219 L 160.667969 400.636719 C 160.597656 400.847656 160.144531 404.027344 159.304688 410.175781 C 158.46875 416.324219 157.945312 419.539062 157.734375 419.820312 L 157.734375 420.132812 L 118.871094 420.132812 L 118.871094 416.882812 C 118.871094 416.394531 119.078125 415.871094 119.5 415.3125 C 119.917969 414.753906 120.964844 413.53125 122.640625 411.644531 C 124.667969 409.40625 126.414062 407.449219 127.878906 405.773438 C 128.507812 405.074219 129.695312 403.78125 131.441406 401.894531 C 133.1875 400.007812 134.375 398.714844 135.003906 398.019531 C 135.632812 397.320312 136.644531 396.164062 138.039062 394.558594 C 139.4375 392.953125 140.414062 391.761719 140.972656 390.996094 C 141.53125 390.226562 142.335938 389.179688 143.382812 387.851562 C 144.429688 386.523438 145.164062 385.40625 145.582031 384.496094 C 146 383.589844 146.527344 382.574219 147.152344 381.457031 C 147.78125 380.339844 148.238281 379.21875 148.515625 378.101562 C 148.796875 376.984375 149.039062 375.9375 149.25 374.957031 C 149.457031 373.980469 149.5625 372.828125 149.5625 371.5 C 149.5625 367.097656 148.375 363.289062 146 360.074219 C 143.628906 356.859375 140.238281 355.253906 135.839844 355.253906 C 133.535156 355.253906 131.511719 355.847656 129.765625 357.035156 C 128.019531 358.222656 126.796875 359.375 126.097656 360.492188 C 125.398438 361.613281 125.050781 362.273438 125.050781 362.484375 C 125.050781 362.554688 125.226562 362.589844 125.574219 362.589844 C 126.832031 362.589844 128.125 363.078125 129.449219 364.058594 C 130.777344 365.035156 131.441406 366.644531 131.441406 368.878906 C 131.441406 370.625 130.882812 372.09375 129.765625 373.28125 C 128.648438 374.46875 127.074219 375.097656 125.050781 375.167969 Z M 125.050781 375.167969 " fill-opacity="1" fill-rule="nonzero"/><path fill="#000000" d="M 174.179688 413.84375 C 174.179688 412.167969 174.773438 410.699219 175.960938 409.441406 C 177.148438 408.183594 178.648438 407.554688 180.464844 407.554688 C 182.140625 407.554688 183.609375 408.113281 184.867188 409.234375 C 186.121094 410.351562 186.785156 411.851562 186.855469 413.738281 C 186.855469 415.488281 186.261719 416.988281 185.074219 418.246094 C 183.886719 419.503906 182.386719 420.132812 180.570312 420.132812 C 178.753906 420.132812 177.253906 419.539062 176.066406 418.351562 C 174.878906 417.164062 174.25 415.660156 174.179688 413.84375 Z M 174.179688 413.84375 " fill-opacity="1" fill-rule="nonzero"/><g clip-path="url(#d96bede964)"><path fill="#000000" d="M 208.433594 371.605469 C 206.550781 371.605469 205.082031 371.011719 204.035156 369.820312 C 202.988281 368.632812 202.429688 367.097656 202.359375 365.210938 C 202.359375 361.367188 204.035156 357.941406 207.386719 354.9375 C 210.738281 351.933594 214.789062 350.429688 219.539062 350.429688 C 221.984375 350.429688 223.519531 350.464844 224.148438 350.535156 C 229.316406 351.375 233.261719 353.226562 235.984375 356.089844 C 238.707031 358.957031 240.105469 362.066406 240.175781 365.417969 C 240.175781 369.054688 238.988281 372.582031 236.613281 376.007812 C 234.238281 379.429688 230.957031 381.910156 226.765625 383.449219 L 226.453125 383.65625 C 226.453125 383.726562 226.765625 383.832031 227.394531 383.972656 C 228.023438 384.113281 229.035156 384.425781 230.433594 384.914062 C 231.828125 385.40625 233.15625 386.136719 234.414062 387.117188 C 240.140625 390.820312 243.003906 395.710938 243.003906 401.789062 C 243.003906 407.3125 240.839844 412.132812 236.507812 416.253906 C 232.179688 420.378906 226.695312 422.441406 220.0625 422.441406 C 214.476562 422.441406 209.65625 420.9375 205.605469 417.933594 C 201.554688 414.929688 199.53125 411.121094 199.53125 406.507812 C 199.53125 404.550781 200.160156 402.980469 201.417969 401.789062 C 202.671875 400.601562 204.246094 399.972656 206.128906 399.90625 C 208.085938 399.90625 209.691406 400.53125 210.949219 401.789062 C 212.207031 403.046875 212.835938 404.621094 212.835938 406.507812 C 212.835938 407.277344 212.730469 407.976562 212.519531 408.605469 C 212.3125 409.234375 212.066406 409.792969 211.789062 410.28125 C 211.507812 410.769531 211.125 411.191406 210.636719 411.539062 C 210.144531 411.886719 209.726562 412.167969 209.378906 412.378906 C 209.027344 412.585938 208.679688 412.726562 208.332031 412.796875 C 207.980469 412.867188 207.703125 412.972656 207.492188 413.109375 L 207.074219 413.214844 C 210.636719 416.359375 214.964844 417.933594 220.0625 417.933594 C 223.902344 417.933594 226.800781 416.082031 228.757812 412.378906 C 229.945312 410.070312 230.539062 406.542969 230.539062 401.789062 L 230.539062 399.695312 C 230.539062 393.054688 228.304688 388.617188 223.832031 386.382812 C 222.785156 385.964844 220.65625 385.71875 217.445312 385.648438 L 213.042969 385.542969 L 212.730469 385.335938 C 212.589844 385.125 212.519531 384.566406 212.519531 383.65625 C 212.519531 382.398438 212.800781 381.769531 213.359375 381.769531 C 215.3125 381.769531 217.339844 381.597656 219.433594 381.246094 C 221.808594 380.898438 223.972656 379.429688 225.929688 376.84375 C 227.882812 374.257812 228.863281 370.347656 228.863281 365.105469 L 228.863281 364.265625 C 228.863281 360.285156 227.640625 357.523438 225.195312 355.988281 C 223.660156 355.007812 222.019531 354.519531 220.273438 354.519531 C 218.039062 354.519531 215.976562 354.902344 214.089844 355.671875 C 212.207031 356.441406 210.878906 357.246094 210.109375 358.082031 C 209.34375 358.921875 208.957031 359.339844 208.957031 359.339844 L 209.273438 359.339844 C 209.484375 359.410156 209.761719 359.480469 210.109375 359.550781 C 210.460938 359.621094 210.808594 359.792969 211.160156 360.074219 C 211.507812 360.355469 211.925781 360.597656 212.414062 360.808594 C 212.90625 361.015625 213.253906 361.402344 213.464844 361.960938 C 213.671875 362.519531 213.953125 363.042969 214.300781 363.53125 C 214.648438 364.023438 214.753906 364.722656 214.617188 365.628906 C 214.617188 367.167969 214.125 368.53125 213.148438 369.71875 C 212.171875 370.90625 210.601562 371.535156 208.433594 371.605469 Z M 208.433594 371.605469 " fill-opacity="1" fill-rule="nonzero"/></g><path fill="#000000" d="M 295.90625 420.132812 C 294.648438 419.925781 290.144531 419.820312 282.390625 419.820312 C 274.289062 419.820312 269.609375 419.925781 268.355469 420.132812 L 267.410156 420.132812 L 267.410156 415.3125 L 270.660156 415.3125 C 272.054688 415.3125 273 415.3125 273.488281 415.3125 C 273.976562 415.3125 274.570312 415.242188 275.269531 415.101562 C 275.964844 414.960938 276.457031 414.789062 276.734375 414.578125 C 277.015625 414.367188 277.257812 414.089844 277.46875 413.738281 C 277.539062 413.601562 277.574219 411.714844 277.574219 408.078125 L 277.574219 402.839844 L 250.441406 402.839844 L 250.441406 398.019531 L 266.257812 373.804688 C 276.945312 357.59375 282.355469 349.453125 282.496094 349.382812 C 282.636719 349.242188 283.367188 349.171875 284.695312 349.171875 L 286.582031 349.171875 L 287.210938 349.800781 L 287.210938 398.019531 L 296.847656 398.019531 L 296.847656 402.839844 L 287.210938 402.839844 L 287.210938 408.183594 C 287.210938 411.050781 287.210938 412.726562 287.210938 413.214844 C 287.210938 413.707031 287.417969 414.125 287.839844 414.472656 C 288.398438 414.960938 290.386719 415.242188 293.808594 415.3125 L 296.847656 415.3125 L 296.847656 420.132812 Z M 278.199219 398.019531 L 278.199219 363.007812 L 255.261719 397.914062 L 266.679688 398.019531 Z M 278.199219 398.019531 " fill-opacity="1" fill-rule="nonzero"/><path fill="#000000" d="M 389.15625 417.09375 C 389.15625 418.492188 388.421875 419.191406 386.957031 419.191406 C 386.609375 419.191406 385.839844 418.632812 384.652344 417.511719 C 383.464844 416.394531 380.183594 413.144531 374.804688 407.765625 L 363.910156 396.863281 L 352.910156 407.871094 C 345.507812 415.136719 341.703125 418.839844 341.492188 418.980469 C 341.214844 419.121094 340.96875 419.191406 340.761719 419.191406 C 340.203125 419.191406 339.710938 418.980469 339.292969 418.5625 C 338.875 418.140625 338.628906 417.652344 338.558594 417.09375 C 338.558594 416.605469 339.050781 415.835938 340.027344 414.789062 C 341.003906 413.738281 344.285156 410.421875 349.875 404.832031 L 360.769531 393.929688 L 349.875 383.027344 C 344.21875 377.367188 340.933594 374.050781 340.027344 373.070312 C 339.117188 372.09375 338.628906 371.324219 338.558594 370.765625 C 338.558594 370.136719 338.769531 369.648438 339.1875 369.296875 C 339.609375 368.949219 340.132812 368.773438 340.761719 368.773438 C 341.109375 368.773438 341.355469 368.808594 341.492188 368.878906 C 341.703125 369.019531 345.507812 372.722656 352.910156 379.988281 L 363.910156 390.996094 L 374.804688 380.09375 C 380.183594 374.714844 383.464844 371.464844 384.652344 370.347656 C 385.839844 369.226562 386.609375 368.667969 386.957031 368.667969 C 388.421875 368.667969 389.15625 369.367188 389.15625 370.765625 C 389.15625 371.253906 388.808594 371.882812 388.109375 372.652344 C 387.410156 373.421875 383.988281 376.84375 377.84375 382.925781 L 366.949219 393.929688 L 377.84375 404.933594 C 383.710938 410.804688 387.0625 414.195312 387.898438 415.101562 C 388.738281 416.011719 389.15625 416.675781 389.15625 417.09375 Z M 389.15625 417.09375 " fill-opacity="1" fill-rule="nonzero"/><path fill="#000000" d="M 450.25 359.550781 L 448.886719 360.074219 C 447.910156 360.421875 446.511719 360.773438 444.695312 361.121094 C 442.882812 361.472656 440.855469 361.714844 438.621094 361.855469 L 436.632812 361.855469 L 436.632812 357.035156 L 438.621094 357.035156 C 441.902344 356.894531 444.941406 356.371094 447.734375 355.460938 C 450.527344 354.554688 452.484375 353.714844 453.601562 352.945312 C 454.71875 352.179688 455.695312 351.410156 456.535156 350.640625 C 456.675781 350.429688 457.09375 350.328125 457.792969 350.328125 C 458.417969 350.328125 459.011719 350.535156 459.570312 350.957031 L 459.570312 382.296875 L 459.675781 413.738281 C 460.164062 414.230469 460.585938 414.542969 460.933594 414.683594 C 461.28125 414.824219 462.121094 414.960938 463.449219 415.101562 C 464.773438 415.242188 466.941406 415.3125 469.941406 415.3125 L 472.667969 415.3125 L 472.667969 420.132812 L 471.515625 420.132812 C 470.046875 419.925781 464.496094 419.820312 454.859375 419.820312 C 445.359375 419.820312 439.878906 419.925781 438.410156 420.132812 L 437.15625 420.132812 L 437.15625 415.3125 L 439.878906 415.3125 C 441.414062 415.3125 442.742188 415.3125 443.859375 415.3125 C 444.976562 415.3125 445.847656 415.277344 446.476562 415.207031 C 447.105469 415.136719 447.664062 415.03125 448.152344 414.894531 C 448.644531 414.753906 448.921875 414.683594 448.992188 414.683594 C 449.0625 414.683594 449.269531 414.507812 449.621094 414.160156 C 449.96875 413.808594 450.179688 413.671875 450.25 413.738281 Z M 450.25 359.550781 " fill-opacity="1" fill-rule="nonzero"/><g clip-path="url(#be364ae1b1)"><path fill="#000000" d="M 490.371094 358.816406 C 494.28125 353.15625 499.621094 350.328125 506.398438 350.328125 C 509.75 350.328125 513.101562 351.234375 516.453125 353.050781 C 519.804688 354.867188 522.527344 358.082031 524.625 362.695312 C 527.207031 368.496094 528.5 376.460938 528.5 386.59375 C 528.5 397.421875 527 405.703125 523.996094 411.433594 C 522.597656 414.367188 520.679688 416.710938 518.234375 418.457031 C 515.789062 420.203125 513.660156 421.285156 511.84375 421.707031 C 510.027344 422.125 508.246094 422.371094 506.5 422.441406 C 504.6875 422.441406 502.871094 422.230469 501.054688 421.8125 C 499.238281 421.390625 497.109375 420.273438 494.664062 418.457031 C 492.21875 416.640625 490.300781 414.300781 488.902344 411.433594 C 485.898438 405.703125 484.398438 397.421875 484.398438 386.59375 C 484.398438 374.433594 486.390625 365.175781 490.371094 358.816406 Z M 513.9375 357.558594 C 511.84375 355.324219 509.363281 354.203125 506.5 354.203125 C 503.570312 354.203125 501.054688 355.324219 498.960938 357.558594 C 497.214844 359.375 496.0625 361.890625 495.503906 365.105469 C 494.945312 368.320312 494.664062 375.027344 494.664062 385.230469 C 494.664062 396.269531 494.945312 403.539062 495.503906 407.03125 C 496.0625 410.527344 497.316406 413.285156 499.273438 415.3125 C 501.230469 417.410156 503.636719 418.457031 506.5 418.457031 C 509.296875 418.457031 511.667969 417.410156 513.625 415.3125 C 515.648438 413.214844 516.90625 410.28125 517.394531 406.507812 C 517.886719 402.734375 518.164062 395.640625 518.234375 385.230469 C 518.234375 375.097656 517.953125 368.425781 517.394531 365.210938 C 516.835938 361.996094 515.683594 359.445312 513.9375 357.558594 Z M 513.9375 357.558594 " fill-opacity="1" fill-rule="nonzero"/></g><path fill="#000000" d="M 542.367188 359.28125 C 542.367188 359.28125 542.367188 358.960938 542.367188 358.320312 C 542.367188 357.675781 542.714844 357.183594 543.40625 356.835938 L 586.433594 356.835938 C 587.175781 357.230469 587.546875 357.726562 587.546875 358.320312 C 587.546875 358.910156 587.175781 359.40625 586.433594 359.800781 L 543.40625 359.800781 C 542.714844 359.453125 542.367188 358.960938 542.367188 358.320312 Z M 542.367188 359.28125 " fill-opacity="1" fill-rule="nonzero"/><g clip-path="url(#48a79ebf0d)"><path fill="#000000" d="M 603.171875 342.535156 C 601.839844 342.535156 600.800781 342.113281 600.0625 341.273438 C 599.320312 340.433594 598.925781 339.347656 598.875 338.015625 C 598.875 335.296875 600.0625 332.875 602.433594 330.75 C 604.800781 328.628906 607.664062 327.566406 611.023438 327.566406 C 612.75 327.566406 613.835938 327.589844 614.28125 327.640625 C 617.933594 328.230469 620.726562 329.542969 622.652344 331.566406 C 624.574219 333.59375 625.5625 335.789062 625.613281 338.160156 C 625.613281 340.730469 624.773438 343.226562 623.09375 345.648438 C 621.417969 348.066406 619.09375 349.820312 616.132812 350.90625 L 615.910156 351.054688 C 615.910156 351.105469 616.132812 351.179688 616.578125 351.277344 C 617.023438 351.378906 617.738281 351.601562 618.726562 351.945312 C 619.710938 352.292969 620.652344 352.808594 621.539062 353.5 C 625.589844 356.121094 627.613281 359.578125 627.613281 363.875 C 627.613281 367.777344 626.082031 371.1875 623.019531 374.101562 C 619.960938 377.019531 616.082031 378.476562 611.394531 378.476562 C 607.441406 378.476562 604.035156 377.414062 601.171875 375.289062 C 598.308594 373.164062 596.878906 370.472656 596.878906 367.210938 C 596.878906 365.828125 597.320312 364.714844 598.210938 363.875 C 599.097656 363.035156 600.210938 362.59375 601.542969 362.542969 C 602.925781 362.542969 604.0625 362.988281 604.949219 363.875 C 605.839844 364.765625 606.28125 365.878906 606.28125 367.210938 C 606.28125 367.753906 606.207031 368.25 606.0625 368.691406 C 605.914062 369.136719 605.738281 369.53125 605.542969 369.878906 C 605.34375 370.226562 605.074219 370.519531 604.726562 370.769531 C 604.382812 371.015625 604.085938 371.210938 603.839844 371.359375 C 603.59375 371.507812 603.34375 371.609375 603.097656 371.65625 C 602.851562 371.707031 602.652344 371.78125 602.503906 371.878906 L 602.210938 371.953125 C 604.726562 374.175781 607.789062 375.289062 611.394531 375.289062 C 614.109375 375.289062 616.15625 373.980469 617.539062 371.359375 C 618.378906 369.730469 618.800781 367.234375 618.800781 363.875 L 618.800781 362.394531 C 618.800781 357.699219 617.21875 354.5625 614.058594 352.984375 C 613.320312 352.6875 611.8125 352.511719 609.542969 352.464844 L 606.429688 352.390625 L 606.207031 352.242188 C 606.109375 352.09375 606.0625 351.699219 606.0625 351.054688 C 606.0625 350.167969 606.257812 349.722656 606.652344 349.722656 C 608.035156 349.722656 609.46875 349.597656 610.949219 349.351562 C 612.628906 349.105469 614.15625 348.066406 615.539062 346.238281 C 616.921875 344.410156 617.613281 341.644531 617.613281 337.941406 L 617.613281 337.347656 C 617.613281 334.53125 616.75 332.578125 615.023438 331.492188 C 613.9375 330.800781 612.777344 330.453125 611.542969 330.453125 C 609.960938 330.453125 608.503906 330.726562 607.171875 331.269531 C 605.839844 331.8125 604.902344 332.382812 604.355469 332.976562 C 603.8125 333.566406 603.542969 333.863281 603.542969 333.863281 L 603.765625 333.863281 C 603.914062 333.914062 604.109375 333.960938 604.355469 334.011719 C 604.605469 334.0625 604.851562 334.183594 605.097656 334.382812 C 605.34375 334.582031 605.640625 334.753906 605.988281 334.902344 C 606.332031 335.050781 606.578125 335.320312 606.726562 335.714844 C 606.875 336.113281 607.074219 336.480469 607.320312 336.828125 C 607.566406 337.175781 607.640625 337.667969 607.542969 338.308594 C 607.542969 339.398438 607.195312 340.359375 606.503906 341.199219 C 605.8125 342.039062 604.703125 342.484375 603.171875 342.535156 Z M 603.171875 342.535156 " fill-opacity="1" fill-rule="nonzero"/></g></svg>