<svg xmlns="http://www.w3.org/2000/svg" xmlns:xlink="http://www.w3.org/1999/xlink" width="1000" zoomAndPan="magnify" viewBox="0 0 750 749.999995" height="1000" preserveAspectRatio="xMidYMid meet" version="1.0"><defs><clipPath id="30865a41f7"><path d="M 41 352 L 83 352 L 83 419.023438 L 41 419.023438 Z M 41 352 " clip-rule="nonzero"/></clipPath><clipPath id="29be89a82d"><path d="M 117 352 L 159 352 L 159 419.023438 L 117 419.023438 Z M 117 352 " clip-rule="nonzero"/></clipPath><clipPath id="4d2ed61e41"><path d="M 165 352 L 207 352 L 207 419.023438 L 165 419.023438 Z M 165 352 " clip-rule="nonzero"/></clipPath><clipPath id="0c4c8385bc"><path d="M 214 352 L 256 352 L 256 419.023438 L 214 419.023438 Z M 214 352 " clip-rule="nonzero"/></clipPath><clipPath id="2236c4dddf"><path d="M 263 352 L 305 352 L 305 419.023438 L 263 419.023438 Z M 263 352 " clip-rule="nonzero"/></clipPath><clipPath id="837cb97fe3"><path d="M 360 352 L 402 352 L 402 419.023438 L 360 419.023438 Z M 360 352 " clip-rule="nonzero"/></clipPath><clipPath id="5cbf4351f3"><path d="M 625 352 L 667 352 L 667 419.023438 L 625 419.023438 Z M 625 352 " clip-rule="nonzero"/></clipPath><clipPath id="36f69a6778"><path d="M 676 330.976562 L 705 330.976562 L 705 377 L 676 377 Z M 676 330.976562 " clip-rule="nonzero"/></clipPath></defs><rect x="-75" width="900" fill="#ffffff" y="-74.999999" height="899.999994" fill-opacity="1"/><rect x="-75" width="900" fill="#ffffff" y="-74.999999" height="899.999994" fill-opacity="1"/><g clip-path="url(#30865a41f7)"><path fill="#000000" d="M 47.230469 360.027344 C 50.859375 354.78125 55.820312 352.15625 62.105469 352.15625 C 65.21875 352.15625 68.328125 352.996094 71.441406 354.683594 C 74.550781 356.367188 77.082031 359.347656 79.023438 363.625 C 81.421875 369 82.621094 376.386719 82.621094 385.78125 C 82.621094 395.824219 81.230469 403.503906 78.441406 408.816406 C 77.144531 411.539062 75.363281 413.707031 73.09375 415.328125 C 70.824219 416.949219 68.847656 417.953125 67.164062 418.339844 C 65.476562 418.730469 63.824219 418.957031 62.203125 419.023438 C 60.519531 419.023438 58.832031 418.828125 57.148438 418.4375 C 55.460938 418.050781 53.484375 417.011719 51.214844 415.328125 C 48.949219 413.644531 47.164062 411.472656 45.867188 408.816406 C 43.082031 403.503906 41.6875 395.824219 41.6875 385.78125 C 41.6875 374.507812 43.535156 365.925781 47.230469 360.027344 Z M 69.105469 358.863281 C 67.164062 356.789062 64.863281 355.75 62.203125 355.75 C 59.480469 355.75 57.148438 356.789062 55.203125 358.863281 C 53.582031 360.546875 52.511719 362.878906 51.996094 365.859375 C 51.476562 368.839844 51.214844 375.058594 51.214844 384.519531 C 51.214844 394.757812 51.476562 401.496094 51.996094 404.734375 C 52.511719 407.972656 53.679688 410.535156 55.496094 412.414062 C 57.308594 414.355469 59.546875 415.328125 62.203125 415.328125 C 64.796875 415.328125 67 414.355469 68.816406 412.414062 C 70.695312 410.46875 71.863281 407.746094 72.316406 404.25 C 72.769531 400.75 73.027344 394.171875 73.09375 384.519531 C 73.09375 375.125 72.835938 368.9375 72.316406 365.957031 C 71.796875 362.976562 70.726562 360.609375 69.105469 358.863281 Z M 69.105469 358.863281 " fill-opacity="1" fill-rule="nonzero"/></g><path fill="#000000" d="M 94.097656 411.050781 C 94.097656 409.496094 94.648438 408.136719 95.75 406.96875 C 96.851562 405.804688 98.246094 405.222656 99.929688 405.222656 C 101.484375 405.222656 102.847656 405.738281 104.015625 406.777344 C 105.179688 407.8125 105.796875 409.207031 105.859375 410.953125 C 105.859375 412.574219 105.308594 413.96875 104.207031 415.132812 C 103.105469 416.300781 101.710938 416.882812 100.027344 416.882812 C 98.34375 416.882812 96.949219 416.332031 95.847656 415.230469 C 94.746094 414.128906 94.160156 412.738281 94.097656 411.050781 Z M 94.097656 411.050781 " fill-opacity="1" fill-rule="nonzero"/><g clip-path="url(#29be89a82d)"><path fill="#000000" d="M 122.875 360.027344 C 126.507812 354.78125 131.464844 352.15625 137.753906 352.15625 C 140.863281 352.15625 143.976562 352.996094 147.085938 354.683594 C 150.199219 356.367188 152.726562 359.347656 154.671875 363.625 C 157.070312 369 158.269531 376.386719 158.269531 385.78125 C 158.269531 395.824219 156.875 403.503906 154.089844 408.816406 C 152.792969 411.539062 151.007812 413.707031 148.742188 415.328125 C 146.472656 416.949219 144.496094 417.953125 142.808594 418.339844 C 141.125 418.730469 139.472656 418.957031 137.851562 419.023438 C 136.164062 419.023438 134.480469 418.828125 132.792969 418.4375 C 131.109375 418.050781 129.132812 417.011719 126.863281 415.328125 C 124.59375 413.644531 122.8125 411.472656 121.515625 408.816406 C 118.726562 403.503906 117.335938 395.824219 117.335938 385.78125 C 117.335938 374.507812 119.183594 365.925781 122.875 360.027344 Z M 144.753906 358.863281 C 142.808594 356.789062 140.507812 355.75 137.851562 355.75 C 135.128906 355.75 132.792969 356.789062 130.851562 358.863281 C 129.230469 360.546875 128.160156 362.878906 127.640625 365.859375 C 127.121094 368.839844 126.863281 375.058594 126.863281 384.519531 C 126.863281 394.757812 127.121094 401.496094 127.640625 404.734375 C 128.160156 407.972656 129.328125 410.535156 131.140625 412.414062 C 132.957031 414.355469 135.191406 415.328125 137.851562 415.328125 C 140.445312 415.328125 142.648438 414.355469 144.460938 412.414062 C 146.34375 410.46875 147.507812 407.746094 147.964844 404.25 C 148.417969 400.75 148.675781 394.171875 148.742188 384.519531 C 148.742188 375.125 148.480469 368.9375 147.964844 365.957031 C 147.445312 362.976562 146.375 360.609375 144.753906 358.863281 Z M 144.753906 358.863281 " fill-opacity="1" fill-rule="nonzero"/></g><g clip-path="url(#4d2ed61e41)"><path fill="#000000" d="M 171.492188 360.027344 C 175.125 354.78125 180.082031 352.15625 186.371094 352.15625 C 189.480469 352.15625 192.59375 352.996094 195.703125 354.683594 C 198.816406 356.367188 201.34375 359.347656 203.289062 363.625 C 205.6875 369 206.886719 376.386719 206.886719 385.78125 C 206.886719 395.824219 205.492188 403.503906 202.703125 408.816406 C 201.410156 411.539062 199.625 413.707031 197.355469 415.328125 C 195.089844 416.949219 193.109375 417.953125 191.425781 418.339844 C 189.742188 418.730469 188.085938 418.957031 186.46875 419.023438 C 184.78125 419.023438 183.097656 418.828125 181.410156 418.4375 C 179.726562 418.050781 177.75 417.011719 175.480469 415.328125 C 173.210938 413.644531 171.429688 411.472656 170.132812 408.816406 C 167.34375 403.503906 165.949219 395.824219 165.949219 385.78125 C 165.949219 374.507812 167.796875 365.925781 171.492188 360.027344 Z M 193.371094 358.863281 C 191.425781 356.789062 189.125 355.75 186.46875 355.75 C 183.746094 355.75 181.410156 356.789062 179.464844 358.863281 C 177.84375 360.546875 176.777344 362.878906 176.257812 365.859375 C 175.738281 368.839844 175.480469 375.058594 175.480469 384.519531 C 175.480469 394.757812 175.738281 401.496094 176.257812 404.734375 C 176.777344 407.972656 177.941406 410.535156 179.757812 412.414062 C 181.574219 414.355469 183.808594 415.328125 186.46875 415.328125 C 189.058594 415.328125 191.265625 414.355469 193.078125 412.414062 C 194.957031 410.46875 196.125 407.746094 196.578125 404.25 C 197.03125 400.75 197.292969 394.171875 197.355469 384.519531 C 197.355469 375.125 197.097656 368.9375 196.578125 365.957031 C 196.0625 362.976562 194.992188 360.609375 193.371094 358.863281 Z M 193.371094 358.863281 " fill-opacity="1" fill-rule="nonzero"/></g><g clip-path="url(#0c4c8385bc)"><path fill="#000000" d="M 220.109375 360.027344 C 223.738281 354.78125 228.699219 352.15625 234.984375 352.15625 C 238.097656 352.15625 241.207031 352.996094 244.320312 354.683594 C 247.433594 356.367188 249.960938 359.347656 251.90625 363.625 C 254.304688 369 255.503906 376.386719 255.503906 385.78125 C 255.503906 395.824219 254.109375 403.503906 251.320312 408.816406 C 250.023438 411.539062 248.242188 413.707031 245.972656 415.328125 C 243.703125 416.949219 241.726562 417.953125 240.042969 418.339844 C 238.355469 418.730469 236.703125 418.957031 235.082031 419.023438 C 233.398438 419.023438 231.710938 418.828125 230.027344 418.4375 C 228.339844 418.050781 226.363281 417.011719 224.097656 415.328125 C 221.828125 413.644531 220.042969 411.472656 218.75 408.816406 C 215.960938 403.503906 214.566406 395.824219 214.566406 385.78125 C 214.566406 374.507812 216.414062 365.925781 220.109375 360.027344 Z M 241.988281 358.863281 C 240.042969 356.789062 237.742188 355.75 235.082031 355.75 C 232.359375 355.75 230.027344 356.789062 228.082031 358.863281 C 226.460938 360.546875 225.390625 362.878906 224.875 365.859375 C 224.355469 368.839844 224.097656 375.058594 224.097656 384.519531 C 224.097656 394.757812 224.355469 401.496094 224.875 404.734375 C 225.390625 407.972656 226.558594 410.535156 228.375 412.414062 C 230.1875 414.355469 232.425781 415.328125 235.082031 415.328125 C 237.675781 415.328125 239.878906 414.355469 241.695312 412.414062 C 243.574219 410.46875 244.742188 407.746094 245.195312 404.25 C 245.648438 400.75 245.910156 394.171875 245.972656 384.519531 C 245.972656 375.125 245.714844 368.9375 245.195312 365.957031 C 244.675781 362.976562 243.605469 360.609375 241.988281 358.863281 Z M 241.988281 358.863281 " fill-opacity="1" fill-rule="nonzero"/></g><g clip-path="url(#2236c4dddf)"><path fill="#000000" d="M 268.726562 360.027344 C 272.355469 354.78125 277.316406 352.15625 283.601562 352.15625 C 286.714844 352.15625 289.824219 352.996094 292.9375 354.683594 C 296.046875 356.367188 298.574219 359.347656 300.519531 363.625 C 302.917969 369 304.117188 376.386719 304.117188 385.78125 C 304.117188 395.824219 302.726562 403.503906 299.9375 408.816406 C 298.640625 411.539062 296.859375 413.707031 294.589844 415.328125 C 292.320312 416.949219 290.34375 417.953125 288.660156 418.339844 C 286.972656 418.730469 285.320312 418.957031 283.699219 419.023438 C 282.015625 419.023438 280.328125 418.828125 278.644531 418.4375 C 276.957031 418.050781 274.980469 417.011719 272.710938 415.328125 C 270.445312 413.644531 268.660156 411.472656 267.363281 408.816406 C 264.578125 403.503906 263.183594 395.824219 263.183594 385.78125 C 263.183594 374.507812 265.03125 365.925781 268.726562 360.027344 Z M 290.601562 358.863281 C 288.660156 356.789062 286.355469 355.75 283.699219 355.75 C 280.976562 355.75 278.644531 356.789062 276.699219 358.863281 C 275.078125 360.546875 274.007812 362.878906 273.488281 365.859375 C 272.972656 368.839844 272.710938 375.058594 272.710938 384.519531 C 272.710938 394.757812 272.972656 401.496094 273.488281 404.734375 C 274.007812 407.972656 275.175781 410.535156 276.992188 412.414062 C 278.804688 414.355469 281.042969 415.328125 283.699219 415.328125 C 286.292969 415.328125 288.496094 414.355469 290.3125 412.414062 C 292.191406 410.46875 293.359375 407.746094 293.8125 404.25 C 294.265625 400.75 294.523438 394.171875 294.589844 384.519531 C 294.589844 375.125 294.332031 368.9375 293.8125 365.957031 C 293.292969 362.976562 292.222656 360.609375 290.601562 358.863281 Z M 290.601562 358.863281 " fill-opacity="1" fill-rule="nonzero"/></g><path fill="#000000" d="M 318.605469 375.191406 C 316.855469 375.191406 315.460938 374.605469 314.425781 373.441406 C 313.386719 372.273438 312.871094 370.847656 312.871094 369.164062 C 312.871094 364.5625 314.585938 360.578125 318.023438 357.210938 C 321.457031 353.839844 325.738281 352.15625 330.855469 352.15625 C 336.757812 352.15625 341.683594 353.96875 345.636719 357.597656 C 349.589844 361.226562 351.601562 365.925781 351.664062 371.691406 C 351.664062 374.476562 351.015625 377.132812 349.71875 379.660156 C 348.425781 382.1875 346.867188 384.390625 345.054688 386.269531 C 343.238281 388.148438 340.644531 390.546875 337.273438 393.460938 C 334.941406 395.46875 331.699219 398.449219 327.550781 402.402344 L 321.816406 407.84375 L 329.203125 407.941406 C 339.382812 407.941406 344.792969 407.78125 345.441406 407.457031 C 345.894531 407.328125 346.671875 404.445312 347.777344 398.804688 L 347.777344 398.515625 L 351.664062 398.515625 L 351.664062 398.804688 C 351.601562 399 351.179688 401.949219 350.402344 407.652344 C 349.625 413.351562 349.136719 416.332031 348.941406 416.59375 L 348.941406 416.882812 L 312.871094 416.882812 L 312.871094 413.871094 C 312.871094 413.417969 313.0625 412.929688 313.453125 412.414062 C 313.839844 411.894531 314.8125 410.761719 316.371094 409.011719 C 318.25 406.9375 319.871094 405.125 321.230469 403.570312 C 321.816406 402.921875 322.917969 401.722656 324.539062 399.972656 C 326.15625 398.222656 327.257812 397.023438 327.84375 396.375 C 328.425781 395.730469 329.367188 394.660156 330.664062 393.167969 C 331.960938 391.679688 332.867188 390.578125 333.386719 389.863281 C 333.902344 389.152344 334.648438 388.179688 335.621094 386.949219 C 336.59375 385.71875 337.273438 384.679688 337.664062 383.839844 C 338.050781 382.996094 338.539062 382.058594 339.121094 381.019531 C 339.707031 379.984375 340.125 378.949219 340.386719 377.910156 C 340.644531 376.875 340.871094 375.902344 341.066406 374.996094 C 341.261719 374.089844 341.359375 373.019531 341.359375 371.789062 C 341.359375 367.707031 340.257812 364.175781 338.050781 361.195312 C 335.847656 358.214844 332.703125 356.722656 328.621094 356.722656 C 326.480469 356.722656 324.601562 357.273438 322.980469 358.375 C 321.359375 359.476562 320.226562 360.546875 319.578125 361.582031 C 318.929688 362.621094 318.605469 363.234375 318.605469 363.429688 C 318.605469 363.496094 318.769531 363.527344 319.09375 363.527344 C 320.257812 363.527344 321.457031 363.980469 322.691406 364.886719 C 323.921875 365.792969 324.539062 367.285156 324.539062 369.359375 C 324.539062 370.976562 324.019531 372.339844 322.980469 373.441406 C 321.945312 374.542969 320.484375 375.125 318.605469 375.191406 Z M 318.605469 375.191406 " fill-opacity="1" fill-rule="nonzero"/><g clip-path="url(#837cb97fe3)"><path fill="#000000" d="M 368.972656 371.886719 C 367.222656 371.886719 365.859375 371.335938 364.886719 370.234375 C 363.917969 369.132812 363.398438 367.707031 363.332031 365.957031 C 363.332031 362.394531 364.886719 359.21875 368 356.433594 C 371.113281 353.644531 374.871094 352.253906 379.277344 352.253906 C 381.546875 352.253906 382.972656 352.285156 383.558594 352.351562 C 388.355469 353.128906 392.015625 354.84375 394.542969 357.5 C 397.074219 360.15625 398.367188 363.039062 398.433594 366.152344 C 398.433594 369.519531 397.332031 372.792969 395.128906 375.96875 C 392.925781 379.140625 389.878906 381.441406 385.988281 382.867188 L 385.695312 383.0625 C 385.695312 383.125 385.988281 383.222656 386.570312 383.351562 C 387.15625 383.484375 388.09375 383.773438 389.390625 384.226562 C 390.6875 384.679688 391.917969 385.363281 393.085938 386.269531 C 398.402344 389.703125 401.058594 394.238281 401.058594 399.875 C 401.058594 404.992188 399.050781 409.464844 395.03125 413.289062 C 391.011719 417.109375 385.921875 419.023438 379.765625 419.023438 C 374.578125 419.023438 370.105469 417.628906 366.347656 414.84375 C 362.585938 412.054688 360.707031 408.523438 360.707031 404.25 C 360.707031 402.433594 361.292969 400.976562 362.457031 399.875 C 363.625 398.773438 365.082031 398.191406 366.832031 398.125 C 368.648438 398.125 370.140625 398.710938 371.304688 399.875 C 372.472656 401.042969 373.054688 402.5 373.054688 404.25 C 373.054688 404.960938 372.957031 405.609375 372.765625 406.191406 C 372.570312 406.777344 372.34375 407.292969 372.082031 407.746094 C 371.824219 408.203125 371.46875 408.589844 371.015625 408.914062 C 370.5625 409.238281 370.171875 409.496094 369.847656 409.691406 C 369.523438 409.886719 369.199219 410.015625 368.875 410.082031 C 368.550781 410.144531 368.292969 410.242188 368.097656 410.371094 L 367.707031 410.46875 C 371.015625 413.386719 375.035156 414.84375 379.765625 414.84375 C 383.332031 414.84375 386.019531 413.125 387.835938 409.691406 C 388.9375 407.554688 389.488281 404.28125 389.488281 399.875 L 389.488281 397.933594 C 389.488281 391.777344 387.414062 387.660156 383.265625 385.589844 C 382.292969 385.199219 380.316406 384.972656 377.335938 384.910156 L 373.25 384.8125 L 372.957031 384.617188 C 372.828125 384.421875 372.765625 383.902344 372.765625 383.0625 C 372.765625 381.894531 373.023438 381.3125 373.542969 381.3125 C 375.355469 381.3125 377.238281 381.152344 379.183594 380.828125 C 381.386719 380.503906 383.394531 379.140625 385.210938 376.746094 C 387.023438 374.347656 387.933594 370.71875 387.933594 365.859375 L 387.933594 365.082031 C 387.933594 361.390625 386.796875 358.828125 384.53125 357.402344 C 383.105469 356.496094 381.582031 356.042969 379.960938 356.042969 C 377.886719 356.042969 375.972656 356.398438 374.222656 357.113281 C 372.472656 357.824219 371.242188 358.570312 370.527344 359.347656 C 369.816406 360.125 369.457031 360.515625 369.457031 360.515625 L 369.75 360.515625 C 369.945312 360.578125 370.203125 360.644531 370.527344 360.707031 C 370.851562 360.773438 371.175781 360.933594 371.5 361.195312 C 371.824219 361.453125 372.214844 361.679688 372.667969 361.875 C 373.121094 362.070312 373.445312 362.425781 373.640625 362.945312 C 373.835938 363.460938 374.09375 363.949219 374.417969 364.402344 C 374.742188 364.855469 374.839844 365.503906 374.710938 366.34375 C 374.710938 367.769531 374.253906 369.035156 373.347656 370.136719 C 372.441406 371.238281 370.980469 371.820312 368.972656 371.886719 Z M 368.972656 371.886719 " fill-opacity="1" fill-rule="nonzero"/></g><path fill="#000000" d="M 450.160156 416.882812 C 448.996094 416.6875 444.8125 416.59375 437.617188 416.59375 C 430.097656 416.59375 425.757812 416.6875 424.589844 416.882812 L 423.714844 416.882812 L 423.714844 412.414062 L 426.730469 412.414062 C 428.023438 412.414062 428.898438 412.414062 429.355469 412.414062 C 429.808594 412.414062 430.359375 412.347656 431.007812 412.21875 C 431.65625 412.089844 432.109375 411.925781 432.367188 411.734375 C 432.628906 411.539062 432.855469 411.277344 433.046875 410.953125 C 433.113281 410.824219 433.144531 409.074219 433.144531 405.707031 L 433.144531 400.847656 L 407.960938 400.847656 L 407.960938 396.375 L 422.644531 373.925781 C 432.5625 358.894531 437.585938 351.347656 437.714844 351.28125 C 437.84375 351.152344 438.527344 351.085938 439.757812 351.085938 L 441.507812 351.085938 L 442.089844 351.667969 L 442.089844 396.375 L 451.035156 396.375 L 451.035156 400.847656 L 442.089844 400.847656 L 442.089844 405.804688 C 442.089844 408.460938 442.089844 410.015625 442.089844 410.46875 C 442.089844 410.921875 442.285156 411.3125 442.675781 411.636719 C 443.191406 412.089844 445.039062 412.347656 448.21875 412.414062 L 451.035156 412.414062 L 451.035156 416.882812 Z M 433.730469 396.375 L 433.730469 363.914062 L 412.433594 396.28125 L 423.035156 396.375 Z M 433.730469 396.375 " fill-opacity="1" fill-rule="nonzero"/><path fill="#000000" d="M 536.71875 414.066406 C 536.71875 415.359375 536.039062 416.007812 534.675781 416.007812 C 534.351562 416.007812 533.640625 415.492188 532.535156 414.453125 C 531.433594 413.417969 528.386719 410.40625 523.398438 405.414062 L 513.285156 395.308594 L 503.074219 405.511719 C 496.203125 412.25 492.671875 415.683594 492.476562 415.816406 C 492.21875 415.945312 491.992188 416.007812 491.796875 416.007812 C 491.277344 416.007812 490.824219 415.816406 490.433594 415.425781 C 490.046875 415.035156 489.820312 414.582031 489.753906 414.066406 C 489.753906 413.613281 490.207031 412.898438 491.117188 411.925781 C 492.023438 410.953125 495.070312 407.878906 500.253906 402.695312 L 510.367188 392.585938 L 500.253906 382.480469 C 495.003906 377.230469 491.957031 374.152344 491.117188 373.246094 C 490.273438 372.339844 489.820312 371.625 489.753906 371.109375 C 489.753906 370.523438 489.949219 370.070312 490.339844 369.746094 C 490.726562 369.421875 491.214844 369.261719 491.796875 369.261719 C 492.121094 369.261719 492.347656 369.292969 492.476562 369.359375 C 492.671875 369.488281 496.203125 372.921875 503.074219 379.660156 L 513.285156 389.863281 L 523.398438 379.757812 C 528.386719 374.769531 531.433594 371.753906 532.535156 370.71875 C 533.640625 369.683594 534.351562 369.164062 534.675781 369.164062 C 536.039062 369.164062 536.71875 369.8125 536.71875 371.109375 C 536.71875 371.5625 536.394531 372.144531 535.746094 372.855469 C 535.097656 373.570312 531.921875 376.746094 526.21875 382.382812 L 516.105469 392.585938 L 526.21875 402.792969 C 531.660156 408.234375 534.773438 411.375 535.550781 412.21875 C 536.328125 413.0625 536.71875 413.675781 536.71875 414.066406 Z M 536.71875 414.066406 " fill-opacity="1" fill-rule="nonzero"/><path fill="#000000" d="M 593.425781 360.707031 L 592.160156 361.195312 C 591.253906 361.519531 589.957031 361.84375 588.269531 362.167969 C 586.585938 362.488281 584.707031 362.71875 582.632812 362.847656 L 580.785156 362.847656 L 580.785156 358.375 L 582.632812 358.375 C 585.675781 358.246094 588.496094 357.761719 591.089844 356.917969 C 593.683594 356.074219 595.5 355.296875 596.535156 354.585938 C 597.574219 353.871094 598.480469 353.160156 599.257812 352.449219 C 599.386719 352.253906 599.777344 352.15625 600.425781 352.15625 C 601.007812 352.15625 601.558594 352.351562 602.078125 352.738281 L 602.078125 381.796875 L 602.175781 410.953125 C 602.628906 411.410156 603.015625 411.699219 603.339844 411.828125 C 603.664062 411.960938 604.445312 412.089844 605.675781 412.21875 C 606.90625 412.347656 608.917969 412.414062 611.703125 412.414062 L 614.230469 412.414062 L 614.230469 416.882812 L 613.164062 416.882812 C 611.800781 416.6875 606.648438 416.59375 597.703125 416.59375 C 588.886719 416.59375 583.796875 416.6875 582.4375 416.882812 L 581.269531 416.882812 L 581.269531 412.414062 L 583.796875 412.414062 C 585.222656 412.414062 586.457031 412.414062 587.492188 412.414062 C 588.53125 412.414062 589.339844 412.378906 589.921875 412.316406 C 590.507812 412.25 591.027344 412.152344 591.480469 412.023438 C 591.933594 411.894531 592.191406 411.828125 592.257812 411.828125 C 592.320312 411.828125 592.515625 411.667969 592.839844 411.34375 C 593.164062 411.019531 593.359375 410.890625 593.425781 410.953125 Z M 593.425781 360.707031 " fill-opacity="1" fill-rule="nonzero"/><g clip-path="url(#5cbf4351f3)"><path fill="#000000" d="M 630.664062 360.027344 C 634.292969 354.78125 639.253906 352.15625 645.539062 352.15625 C 648.652344 352.15625 651.761719 352.996094 654.875 354.683594 C 657.988281 356.367188 660.515625 359.347656 662.460938 363.625 C 664.859375 369 666.058594 376.386719 666.058594 385.78125 C 666.058594 395.824219 664.664062 403.503906 661.875 408.816406 C 660.578125 411.539062 658.796875 413.707031 656.527344 415.328125 C 654.257812 416.949219 652.28125 417.953125 650.597656 418.339844 C 648.910156 418.730469 647.257812 418.957031 645.636719 419.023438 C 643.953125 419.023438 642.265625 418.828125 640.582031 418.4375 C 638.894531 418.050781 636.917969 417.011719 634.652344 415.328125 C 632.382812 413.644531 630.597656 411.472656 629.304688 408.816406 C 626.515625 403.503906 625.121094 395.824219 625.121094 385.78125 C 625.121094 374.507812 626.96875 365.925781 630.664062 360.027344 Z M 652.542969 358.863281 C 650.597656 356.789062 648.296875 355.75 645.636719 355.75 C 642.914062 355.75 640.582031 356.789062 638.636719 358.863281 C 637.015625 360.546875 635.945312 362.878906 635.429688 365.859375 C 634.910156 368.839844 634.652344 375.058594 634.652344 384.519531 C 634.652344 394.757812 634.910156 401.496094 635.429688 404.734375 C 635.945312 407.972656 637.113281 410.535156 638.929688 412.414062 C 640.742188 414.355469 642.980469 415.328125 645.636719 415.328125 C 648.230469 415.328125 650.433594 414.355469 652.25 412.414062 C 654.128906 410.46875 655.296875 407.746094 655.75 404.25 C 656.203125 400.75 656.464844 394.171875 656.527344 384.519531 C 656.527344 375.125 656.269531 368.9375 655.75 365.957031 C 655.230469 362.976562 654.160156 360.609375 652.542969 358.863281 Z M 652.542969 358.863281 " fill-opacity="1" fill-rule="nonzero"/></g><g clip-path="url(#36f69a6778)"><path fill="#000000" d="M 680.648438 347.265625 C 679.410156 347.265625 678.425781 346.855469 677.691406 346.03125 C 676.957031 345.207031 676.59375 344.199219 676.59375 343.007812 C 676.59375 339.753906 677.804688 336.9375 680.234375 334.554688 C 682.664062 332.171875 685.6875 330.980469 689.308594 330.980469 C 693.480469 330.980469 696.960938 332.265625 699.757812 334.828125 C 702.554688 337.394531 703.976562 340.714844 704.019531 344.792969 C 704.019531 346.761719 703.5625 348.640625 702.644531 350.425781 C 701.730469 352.214844 700.628906 353.773438 699.347656 355.101562 C 698.0625 356.429688 696.230469 358.125 693.847656 360.183594 C 692.195312 361.605469 689.90625 363.710938 686.972656 366.507812 L 682.917969 370.355469 L 688.140625 370.421875 C 695.335938 370.421875 699.164062 370.308594 699.621094 370.078125 C 699.941406 369.988281 700.492188 367.949219 701.269531 363.964844 L 701.269531 363.757812 L 704.019531 363.757812 L 704.019531 363.964844 C 703.976562 364.101562 703.675781 366.1875 703.125 370.21875 C 702.578125 374.246094 702.234375 376.355469 702.09375 376.539062 L 702.09375 376.746094 L 676.59375 376.746094 L 676.59375 374.613281 C 676.59375 374.292969 676.730469 373.949219 677.003906 373.582031 C 677.277344 373.21875 677.964844 372.414062 679.066406 371.179688 C 680.394531 369.714844 681.542969 368.429688 682.503906 367.332031 C 682.917969 366.871094 683.695312 366.023438 684.839844 364.789062 C 685.988281 363.550781 686.765625 362.703125 687.179688 362.246094 C 687.589844 361.789062 688.253906 361.03125 689.171875 359.980469 C 690.089844 358.925781 690.730469 358.144531 691.097656 357.640625 C 691.464844 357.136719 691.992188 356.453125 692.679688 355.582031 C 693.367188 354.710938 693.847656 353.976562 694.121094 353.382812 C 694.394531 352.785156 694.738281 352.121094 695.152344 351.390625 C 695.566406 350.65625 695.863281 349.921875 696.046875 349.191406 C 696.230469 348.457031 696.390625 347.769531 696.527344 347.128906 C 696.664062 346.488281 696.734375 345.730469 696.734375 344.863281 C 696.734375 341.976562 695.953125 339.480469 694.394531 337.371094 C 692.839844 335.265625 690.617188 334.210938 687.726562 334.210938 C 686.214844 334.210938 684.886719 334.601562 683.742188 335.378906 C 682.59375 336.160156 681.792969 336.914062 681.335938 337.648438 C 680.875 338.378906 680.648438 338.816406 680.648438 338.953125 C 680.648438 339 680.761719 339.019531 680.992188 339.019531 C 681.816406 339.019531 682.664062 339.34375 683.535156 339.984375 C 684.40625 340.625 684.839844 341.679688 684.839844 343.144531 C 684.839844 344.289062 684.472656 345.25 683.742188 346.03125 C 683.007812 346.808594 681.976562 347.222656 680.648438 347.265625 Z M 680.648438 347.265625 " fill-opacity="1" fill-rule="nonzero"/></g></svg>