<svg xmlns="http://www.w3.org/2000/svg" xmlns:xlink="http://www.w3.org/1999/xlink" width="1000" zoomAndPan="magnify" viewBox="0 0 750 749.999995" height="1000" preserveAspectRatio="xMidYMid meet" version="1.0"><rect x="-75" width="900" fill="#ffffff" y="-74.999999" height="899.999994" fill-opacity="1"/><rect x="-75" width="900" fill="#ffffff" y="-74.999999" height="899.999994" fill-opacity="1"/><path fill="#000000" d="M 44.558594 380.027344 C 44.558594 376.574219 44.808594 373.292969 45.308594 370.191406 C 45.808594 367.085938 46.386719 364.40625 47.035156 362.152344 C 47.6875 359.902344 48.613281 357.699219 49.8125 355.542969 C 51.015625 353.390625 51.964844 351.714844 52.667969 350.511719 C 53.367188 349.3125 54.417969 348.007812 55.820312 346.605469 C 57.222656 345.207031 58.046875 344.355469 58.296875 344.054688 C 58.546875 343.753906 59.175781 343.226562 60.175781 342.476562 L 61.453125 342.476562 C 62.152344 342.476562 62.503906 342.703125 62.503906 343.152344 C 62.503906 343.304688 62.078125 343.828125 61.226562 344.730469 C 60.375 345.632812 59.347656 346.957031 58.148438 348.710938 C 56.945312 350.460938 55.71875 352.617188 54.46875 355.167969 C 53.21875 357.722656 52.167969 361.175781 51.316406 365.535156 C 50.464844 369.890625 50.039062 374.722656 50.039062 380.027344 C 50.039062 385.335938 50.464844 390.140625 51.316406 394.449219 C 52.167969 398.753906 53.191406 402.234375 54.394531 404.886719 C 55.59375 407.539062 56.820312 409.695312 58.074219 411.347656 C 59.324219 413 60.375 414.324219 61.226562 415.328125 C 62.078125 416.328125 62.503906 416.855469 62.503906 416.902344 C 62.503906 417.355469 62.128906 417.578125 61.375 417.578125 L 60.175781 417.578125 L 58.074219 415.777344 C 53.367188 411.519531 49.9375 406.214844 47.785156 399.855469 C 45.632812 393.496094 44.558594 386.886719 44.558594 380.027344 Z M 44.558594 380.027344 " fill-opacity="1" fill-rule="nonzero"/><path fill="#000000" d="M 73.914062 354.867188 C 76.71875 350.8125 80.546875 348.785156 85.402344 348.785156 C 87.804688 348.785156 90.207031 349.4375 92.609375 350.738281 C 95.015625 352.039062 96.964844 354.34375 98.46875 357.648438 C 100.320312 361.804688 101.246094 367.511719 101.246094 374.769531 C 101.246094 382.53125 100.167969 388.464844 98.015625 392.570312 C 97.015625 394.671875 95.640625 396.351562 93.886719 397.601562 C 92.136719 398.855469 90.609375 399.628906 89.308594 399.929688 C 88.007812 400.230469 86.730469 400.40625 85.476562 400.457031 C 84.175781 400.457031 82.875 400.304688 81.574219 400.003906 C 80.273438 399.703125 78.746094 398.902344 76.992188 397.601562 C 75.242188 396.300781 73.867188 394.625 72.863281 392.570312 C 70.710938 388.464844 69.636719 382.53125 69.636719 374.769531 C 69.636719 366.058594 71.0625 359.425781 73.914062 354.867188 Z M 90.808594 353.96875 C 89.308594 352.367188 87.53125 351.5625 85.476562 351.5625 C 83.375 351.5625 81.574219 352.367188 80.070312 353.96875 C 78.820312 355.269531 77.996094 357.070312 77.59375 359.375 C 77.195312 361.679688 76.992188 366.484375 76.992188 373.792969 C 76.992188 381.707031 77.195312 386.914062 77.59375 389.414062 C 77.996094 391.917969 78.894531 393.898438 80.296875 395.347656 C 81.699219 396.851562 83.425781 397.601562 85.476562 397.601562 C 87.480469 397.601562 89.183594 396.851562 90.582031 395.347656 C 92.035156 393.847656 92.9375 391.746094 93.285156 389.039062 C 93.636719 386.335938 93.835938 381.253906 93.886719 373.792969 C 93.886719 366.535156 93.6875 361.753906 93.285156 359.449219 C 92.886719 357.148438 92.058594 355.320312 90.808594 353.96875 Z M 90.808594 353.96875 " fill-opacity="1" fill-rule="nonzero"/><path fill="#000000" d="M 110.105469 394.296875 C 110.105469 393.097656 110.53125 392.042969 111.382812 391.144531 C 112.234375 390.242188 113.308594 389.792969 114.609375 389.792969 C 115.8125 389.792969 116.863281 390.191406 117.765625 390.992188 C 118.664062 391.792969 119.140625 392.871094 119.191406 394.222656 C 119.191406 395.472656 118.765625 396.550781 117.914062 397.453125 C 117.0625 398.351562 115.988281 398.804688 114.6875 398.804688 C 113.382812 398.804688 112.308594 398.378906 111.457031 397.527344 C 110.605469 396.675781 110.15625 395.597656 110.105469 394.296875 Z M 110.105469 394.296875 " fill-opacity="1" fill-rule="nonzero"/><path fill="#000000" d="M 132.332031 354.867188 C 135.132812 350.8125 138.960938 348.785156 143.816406 348.785156 C 146.21875 348.785156 148.625 349.4375 151.027344 350.738281 C 153.429688 352.039062 155.378906 354.34375 156.882812 357.648438 C 158.734375 361.804688 159.660156 367.511719 159.660156 374.769531 C 159.660156 382.53125 158.585938 388.464844 156.433594 392.570312 C 155.429688 394.671875 154.054688 396.351562 152.300781 397.601562 C 150.550781 398.855469 149.023438 399.628906 147.722656 399.929688 C 146.421875 400.230469 145.144531 400.40625 143.894531 400.457031 C 142.589844 400.457031 141.289062 400.304688 139.988281 400.003906 C 138.6875 399.703125 137.160156 398.902344 135.410156 397.601562 C 133.65625 396.300781 132.28125 394.625 131.277344 392.570312 C 129.125 388.464844 128.050781 382.53125 128.050781 374.769531 C 128.050781 366.058594 129.476562 359.425781 132.332031 354.867188 Z M 149.222656 353.96875 C 147.722656 352.367188 145.945312 351.5625 143.894531 351.5625 C 141.789062 351.5625 139.988281 352.367188 138.488281 353.96875 C 137.234375 355.269531 136.410156 357.070312 136.007812 359.375 C 135.609375 361.679688 135.410156 366.484375 135.410156 373.792969 C 135.410156 381.707031 135.609375 386.914062 136.007812 389.414062 C 136.410156 391.917969 137.3125 393.898438 138.710938 395.347656 C 140.113281 396.851562 141.839844 397.601562 143.894531 397.601562 C 145.894531 397.601562 147.597656 396.851562 149 395.347656 C 150.449219 393.847656 151.351562 391.746094 151.703125 389.039062 C 152.050781 386.335938 152.253906 381.253906 152.300781 373.792969 C 152.300781 366.535156 152.101562 361.753906 151.703125 359.449219 C 151.300781 357.148438 150.476562 355.320312 149.222656 353.96875 Z M 149.222656 353.96875 " fill-opacity="1" fill-rule="nonzero"/><path fill="#000000" d="M 169.871094 354.867188 C 172.675781 350.8125 176.503906 348.785156 181.359375 348.785156 C 183.761719 348.785156 186.164062 349.4375 188.566406 350.738281 C 190.96875 352.039062 192.921875 354.34375 194.425781 357.648438 C 196.277344 361.804688 197.203125 367.511719 197.203125 374.769531 C 197.203125 382.53125 196.125 388.464844 193.972656 392.570312 C 192.972656 394.671875 191.597656 396.351562 189.84375 397.601562 C 188.09375 398.855469 186.566406 399.628906 185.265625 399.929688 C 183.960938 400.230469 182.6875 400.40625 181.433594 400.457031 C 180.132812 400.457031 178.832031 400.304688 177.53125 400.003906 C 176.230469 399.703125 174.703125 398.902344 172.949219 397.601562 C 171.199219 396.300781 169.820312 394.625 168.820312 392.570312 C 166.667969 388.464844 165.59375 382.53125 165.59375 374.769531 C 165.59375 366.058594 167.019531 359.425781 169.871094 354.867188 Z M 186.765625 353.96875 C 185.265625 352.367188 183.488281 351.5625 181.433594 351.5625 C 179.332031 351.5625 177.53125 352.367188 176.027344 353.96875 C 174.777344 355.269531 173.953125 357.070312 173.550781 359.375 C 173.152344 361.679688 172.949219 366.484375 172.949219 373.792969 C 172.949219 381.707031 173.152344 386.914062 173.550781 389.414062 C 173.953125 391.917969 174.851562 393.898438 176.253906 395.347656 C 177.65625 396.851562 179.382812 397.601562 181.433594 397.601562 C 183.4375 397.601562 185.140625 396.851562 186.539062 395.347656 C 187.992188 393.847656 188.894531 391.746094 189.242188 389.039062 C 189.59375 386.335938 189.792969 381.253906 189.84375 373.792969 C 189.84375 366.535156 189.644531 361.753906 189.242188 359.449219 C 188.84375 357.148438 188.015625 355.320312 186.765625 353.96875 Z M 186.765625 353.96875 " fill-opacity="1" fill-rule="nonzero"/><path fill="#000000" d="M 212.519531 387.011719 C 212.519531 388.214844 212.117188 389.214844 211.316406 390.015625 C 210.515625 390.816406 209.539062 391.21875 208.390625 391.21875 L 207.863281 391.21875 C 210.167969 395.175781 213.21875 397.152344 217.023438 397.152344 C 220.527344 397.152344 223.082031 395.648438 224.683594 392.644531 C 225.632812 390.992188 226.109375 387.789062 226.109375 383.03125 C 226.109375 377.875 225.433594 374.394531 224.082031 372.59375 C 222.78125 370.941406 221.328125 370.113281 219.726562 370.113281 L 219.277344 370.113281 C 215.371094 370.113281 212.417969 371.816406 210.417969 375.222656 C 210.214844 375.570312 210.042969 375.773438 209.890625 375.824219 C 209.742188 375.871094 209.367188 375.921875 208.765625 375.972656 C 207.914062 375.972656 207.4375 375.824219 207.339844 375.523438 C 207.238281 375.320312 207.1875 370.941406 207.1875 362.378906 L 207.1875 352.691406 C 207.1875 350.1875 207.3125 348.9375 207.5625 348.9375 C 207.664062 348.835938 207.765625 348.785156 207.863281 348.785156 C 207.914062 348.785156 208.441406 348.984375 209.441406 349.386719 C 210.441406 349.785156 211.820312 350.1875 213.570312 350.585938 C 215.324219 350.988281 217.199219 351.1875 219.203125 351.1875 C 222.753906 351.1875 226.160156 350.488281 229.414062 349.085938 C 229.8125 348.886719 230.140625 348.785156 230.390625 348.785156 C 230.789062 348.785156 230.988281 349.234375 230.988281 350.136719 L 230.988281 351.113281 C 226.886719 355.96875 221.753906 358.398438 215.597656 358.398438 C 214.046875 358.398438 212.644531 358.25 211.394531 357.949219 L 210.640625 357.796875 L 210.640625 370.714844 C 211.59375 370.015625 212.34375 369.464844 212.894531 369.0625 C 213.445312 368.664062 214.347656 368.261719 215.597656 367.863281 C 216.847656 367.460938 218.125 367.261719 219.425781 367.261719 C 223.480469 367.261719 226.910156 368.886719 229.714844 372.140625 C 232.515625 375.398438 233.917969 379.253906 233.917969 383.707031 C 233.917969 388.316406 232.316406 392.246094 229.113281 395.5 C 225.910156 398.753906 222.003906 400.40625 217.398438 400.457031 C 213.34375 400.457031 210.089844 399.105469 207.640625 396.402344 C 205.1875 393.695312 203.960938 390.644531 203.960938 387.238281 C 203.960938 386.035156 204.234375 385.085938 204.785156 384.382812 C 205.335938 383.683594 205.910156 383.234375 206.511719 383.03125 C 207.113281 382.832031 207.6875 382.730469 208.238281 382.730469 C 209.492188 382.730469 210.515625 383.15625 211.316406 384.007812 C 212.117188 384.859375 212.519531 385.859375 212.519531 387.011719 Z M 212.519531 387.011719 " fill-opacity="1" fill-rule="nonzero"/><path fill="#000000" d="M 243.003906 367.484375 C 243.003906 367.484375 243.003906 365.558594 243.003906 361.703125 C 243.003906 357.847656 244.355469 354.742188 247.058594 352.390625 C 249.761719 350.035156 252.863281 348.835938 256.367188 348.785156 C 259.921875 348.785156 263.074219 349.835938 265.828125 351.941406 C 268.582031 354.042969 269.957031 356.769531 269.957031 360.125 C 269.957031 361.628906 269.683594 363.03125 269.132812 364.332031 C 268.582031 365.632812 267.929688 366.683594 267.179688 367.484375 C 266.429688 368.285156 265.652344 368.988281 264.851562 369.589844 C 264.050781 370.191406 263.402344 370.640625 262.898438 370.941406 C 262.398438 371.242188 262.125 371.441406 262.074219 371.542969 L 263.125 372.21875 C 263.824219 372.71875 264.527344 373.21875 265.226562 373.71875 C 265.929688 374.21875 266.328125 374.496094 266.429688 374.546875 C 270.183594 377.5 272.058594 381.230469 272.058594 385.734375 C 272.058594 389.691406 270.609375 393.121094 267.707031 396.023438 C 264.800781 398.929688 261.046875 400.40625 256.441406 400.457031 C 251.9375 400.457031 248.234375 399.179688 245.332031 396.625 C 242.425781 394.074219 240.976562 390.917969 240.976562 387.164062 C 240.976562 381.753906 244.203125 377.25 250.660156 373.644531 L 249.308594 372.667969 C 248.257812 372.015625 247.582031 371.515625 247.28125 371.164062 C 244.429688 368.710938 243.003906 365.558594 243.003906 361.703125 Z M 259.222656 369.8125 L 259.671875 369.515625 C 259.972656 369.3125 260.195312 369.164062 260.347656 369.0625 C 260.496094 368.964844 260.746094 368.789062 261.097656 368.539062 C 261.449219 368.285156 261.75 368.035156 262 367.785156 C 262.25 367.535156 262.523438 367.234375 262.824219 366.886719 C 263.125 366.535156 263.402344 366.210938 263.652344 365.910156 C 263.902344 365.609375 264.152344 365.207031 264.402344 364.707031 C 264.652344 364.207031 264.878906 363.78125 265.078125 363.429688 C 265.277344 363.078125 265.402344 362.578125 265.453125 361.929688 C 265.503906 361.277344 265.554688 360.726562 265.601562 360.277344 C 265.601562 358.125 264.878906 356.296875 263.425781 354.792969 C 261.972656 353.292969 260.296875 352.339844 258.394531 351.941406 C 258.042969 351.890625 257.21875 351.863281 255.917969 351.863281 C 253.863281 351.863281 251.9375 352.515625 250.136719 353.816406 C 248.332031 355.117188 247.40625 356.746094 247.359375 358.699219 C 247.359375 359.851562 247.683594 360.902344 248.332031 361.851562 C 248.984375 362.804688 249.636719 363.53125 250.285156 364.03125 C 250.9375 364.53125 252.1875 365.332031 254.039062 366.433594 C 254.390625 366.683594 254.664062 366.859375 254.867188 366.960938 Z M 256.519531 397.226562 C 259.421875 397.226562 261.925781 396.375 264.027344 394.671875 C 266.128906 392.972656 267.179688 390.917969 267.179688 388.515625 C 267.179688 387.664062 267.054688 386.863281 266.804688 386.113281 C 266.554688 385.359375 266.253906 384.734375 265.902344 384.234375 C 265.554688 383.734375 265.003906 383.183594 264.25 382.582031 C 263.5 381.980469 262.925781 381.53125 262.523438 381.230469 C 262.125 380.929688 261.398438 380.453125 260.347656 379.804688 C 259.296875 379.152344 258.621094 378.726562 258.320312 378.527344 C 257.621094 378.074219 256.867188 377.601562 256.066406 377.097656 C 255.265625 376.597656 254.617188 376.171875 254.117188 375.824219 L 253.515625 375.445312 C 253.214844 375.445312 252.488281 375.871094 251.335938 376.722656 C 250.1875 377.574219 248.984375 378.953125 247.734375 380.855469 C 246.480469 382.757812 245.832031 384.808594 245.78125 387.011719 C 245.78125 389.964844 246.855469 392.394531 249.007812 394.296875 C 251.160156 396.199219 253.664062 397.175781 256.519531 397.226562 Z M 256.519531 397.226562 " fill-opacity="1" fill-rule="nonzero"/><path fill="#000000" d="M 287.601562 387.011719 C 287.601562 388.214844 287.203125 389.214844 286.402344 390.015625 C 285.601562 390.816406 284.625 391.21875 283.472656 391.21875 L 282.949219 391.21875 C 285.25 395.175781 288.304688 397.152344 292.109375 397.152344 C 295.613281 397.152344 298.164062 395.648438 299.765625 392.644531 C 300.71875 390.992188 301.191406 387.789062 301.191406 383.03125 C 301.191406 377.875 300.515625 374.394531 299.164062 372.59375 C 297.863281 370.941406 296.414062 370.113281 294.808594 370.113281 L 294.359375 370.113281 C 290.457031 370.113281 287.503906 371.816406 285.5 375.222656 C 285.300781 375.570312 285.125 375.773438 284.972656 375.824219 C 284.824219 375.871094 284.449219 375.921875 283.847656 375.972656 C 282.996094 375.972656 282.523438 375.824219 282.421875 375.523438 C 282.320312 375.320312 282.273438 370.941406 282.273438 362.378906 L 282.273438 352.691406 C 282.273438 350.1875 282.398438 348.9375 282.648438 348.9375 C 282.746094 348.835938 282.847656 348.785156 282.949219 348.785156 C 282.996094 348.785156 283.523438 348.984375 284.523438 349.386719 C 285.523438 349.785156 286.902344 350.1875 288.652344 350.585938 C 290.40625 350.988281 292.28125 351.1875 294.285156 351.1875 C 297.839844 351.1875 301.242188 350.488281 304.496094 349.085938 C 304.898438 348.886719 305.222656 348.785156 305.472656 348.785156 C 305.871094 348.785156 306.074219 349.234375 306.074219 350.136719 L 306.074219 351.113281 C 301.96875 355.96875 296.835938 358.398438 290.679688 358.398438 C 289.128906 358.398438 287.726562 358.25 286.476562 357.949219 L 285.726562 357.796875 L 285.726562 370.714844 C 286.675781 370.015625 287.425781 369.464844 287.976562 369.0625 C 288.527344 368.664062 289.429688 368.261719 290.679688 367.863281 C 291.933594 367.460938 293.207031 367.261719 294.511719 367.261719 C 298.566406 367.261719 301.992188 368.886719 304.796875 372.140625 C 307.601562 375.398438 309 379.253906 309 383.707031 C 309 388.316406 307.398438 392.246094 304.195312 395.5 C 300.992188 398.753906 297.089844 400.40625 292.484375 400.457031 C 288.429688 400.457031 285.175781 399.105469 282.722656 396.402344 C 280.269531 393.695312 279.042969 390.644531 279.042969 387.238281 C 279.042969 386.035156 279.316406 385.085938 279.867188 384.382812 C 280.417969 383.683594 280.996094 383.234375 281.597656 383.03125 C 282.195312 382.832031 282.773438 382.730469 283.324219 382.730469 C 284.574219 382.730469 285.601562 383.15625 286.402344 384.007812 C 287.203125 384.859375 287.601562 385.859375 287.601562 387.011719 Z M 287.601562 387.011719 " fill-opacity="1" fill-rule="nonzero"/><path fill="#000000" d="M 376.816406 396.625 C 376.816406 397.628906 376.289062 398.128906 375.238281 398.128906 C 374.988281 398.128906 374.4375 397.726562 373.589844 396.925781 C 372.738281 396.125 370.382812 393.796875 366.53125 389.941406 L 358.722656 382.132812 L 350.835938 390.015625 C 345.53125 395.222656 342.804688 397.878906 342.652344 397.976562 C 342.453125 398.078125 342.277344 398.128906 342.128906 398.128906 C 341.726562 398.128906 341.378906 397.976562 341.078125 397.675781 C 340.777344 397.375 340.601562 397.027344 340.550781 396.625 C 340.550781 396.273438 340.902344 395.726562 341.601562 394.972656 C 342.304688 394.222656 344.65625 391.84375 348.660156 387.839844 L 356.46875 380.027344 L 348.660156 372.21875 C 344.605469 368.160156 342.253906 365.785156 341.601562 365.082031 C 340.953125 364.382812 340.601562 363.832031 340.550781 363.429688 C 340.550781 362.980469 340.703125 362.628906 341 362.378906 C 341.300781 362.128906 341.675781 362.003906 342.128906 362.003906 C 342.378906 362.003906 342.554688 362.027344 342.652344 362.078125 C 342.804688 362.179688 345.53125 364.832031 350.835938 370.039062 L 358.722656 377.925781 L 366.53125 370.113281 C 370.382812 366.257812 372.738281 363.929688 373.589844 363.128906 C 374.4375 362.328125 374.988281 361.929688 375.238281 361.929688 C 376.289062 361.929688 376.816406 362.429688 376.816406 363.429688 C 376.816406 363.78125 376.566406 364.230469 376.066406 364.78125 C 375.566406 365.332031 373.113281 367.785156 368.707031 372.140625 L 360.898438 380.027344 L 368.707031 387.914062 C 372.914062 392.121094 375.316406 394.546875 375.914062 395.199219 C 376.515625 395.851562 376.816406 396.324219 376.816406 396.625 Z M 376.816406 396.625 " fill-opacity="1" fill-rule="nonzero"/><path fill="#000000" d="M 420.605469 355.394531 L 419.628906 355.769531 C 418.929688 356.019531 417.925781 356.269531 416.625 356.519531 C 415.324219 356.769531 413.871094 356.945312 412.269531 357.046875 L 410.84375 357.046875 L 410.84375 353.59375 L 412.269531 353.59375 C 414.625 353.492188 416.800781 353.117188 418.804688 352.464844 C 420.804688 351.816406 422.207031 351.214844 423.007812 350.664062 C 423.808594 350.113281 424.507812 349.5625 425.109375 349.011719 C 425.210938 348.859375 425.511719 348.785156 426.011719 348.785156 C 426.460938 348.785156 426.886719 348.9375 427.289062 349.234375 L 427.289062 371.691406 L 427.363281 394.222656 C 427.714844 394.574219 428.011719 394.796875 428.261719 394.898438 C 428.515625 395 429.113281 395.097656 430.066406 395.199219 C 431.015625 395.300781 432.566406 395.347656 434.722656 395.347656 L 436.671875 395.347656 L 436.671875 398.804688 L 435.847656 398.804688 C 434.796875 398.652344 430.816406 398.578125 423.910156 398.578125 C 417.101562 398.578125 413.171875 398.652344 412.121094 398.804688 L 411.21875 398.804688 L 411.21875 395.347656 L 413.171875 395.347656 C 414.273438 395.347656 415.222656 395.347656 416.023438 395.347656 C 416.824219 395.347656 417.453125 395.324219 417.902344 395.273438 C 418.351562 395.222656 418.753906 395.148438 419.101562 395.046875 C 419.453125 394.949219 419.652344 394.898438 419.703125 394.898438 C 419.753906 394.898438 419.90625 394.773438 420.15625 394.523438 C 420.40625 394.273438 420.554688 394.171875 420.605469 394.222656 Z M 420.605469 355.394531 " fill-opacity="1" fill-rule="nonzero"/><path fill="#000000" d="M 449.363281 354.867188 C 452.164062 350.8125 455.996094 348.785156 460.851562 348.785156 C 463.253906 348.785156 465.65625 349.4375 468.058594 350.738281 C 470.460938 352.039062 472.414062 354.34375 473.914062 357.648438 C 475.765625 361.804688 476.691406 367.511719 476.691406 374.769531 C 476.691406 382.53125 475.617188 388.464844 473.464844 392.570312 C 472.460938 394.671875 471.085938 396.351562 469.335938 397.601562 C 467.582031 398.855469 466.054688 399.628906 464.753906 399.929688 C 463.453125 400.230469 462.175781 400.40625 460.925781 400.457031 C 459.625 400.457031 458.320312 400.304688 457.019531 400.003906 C 455.71875 399.703125 454.191406 398.902344 452.441406 397.601562 C 450.6875 396.300781 449.3125 394.625 448.3125 392.570312 C 446.160156 388.464844 445.082031 382.53125 445.082031 374.769531 C 445.082031 366.058594 446.507812 359.425781 449.363281 354.867188 Z M 466.253906 353.96875 C 464.753906 352.367188 462.976562 351.5625 460.925781 351.5625 C 458.824219 351.5625 457.019531 352.367188 455.519531 353.96875 C 454.265625 355.269531 453.441406 357.070312 453.042969 359.375 C 452.640625 361.679688 452.441406 366.484375 452.441406 373.792969 C 452.441406 381.707031 452.640625 386.914062 453.042969 389.414062 C 453.441406 391.917969 454.34375 393.898438 455.742188 395.347656 C 457.144531 396.851562 458.871094 397.601562 460.925781 397.601562 C 462.925781 397.601562 464.628906 396.851562 466.03125 395.347656 C 467.480469 393.847656 468.382812 391.746094 468.734375 389.039062 C 469.082031 386.335938 469.285156 381.253906 469.335938 373.792969 C 469.335938 366.535156 469.132812 361.753906 468.734375 359.449219 C 468.332031 357.148438 467.507812 355.320312 466.253906 353.96875 Z M 466.253906 353.96875 " fill-opacity="1" fill-rule="nonzero"/><path fill="#000000" d="M 486.632812 355.203125 C 486.632812 355.203125 486.632812 354.972656 486.632812 354.511719 C 486.632812 354.050781 486.878906 353.699219 487.375 353.449219 L 518.21875 353.449219 C 518.75 353.734375 519.011719 354.085938 519.011719 354.511719 C 519.011719 354.9375 518.75 355.289062 518.21875 355.574219 L 487.375 355.574219 C 486.878906 355.324219 486.632812 354.972656 486.632812 354.511719 Z M 486.632812 355.203125 " fill-opacity="1" fill-rule="nonzero"/><path fill="#000000" d="M 534.78125 337.097656 L 534.089844 337.363281 C 533.59375 337.539062 532.886719 337.714844 531.964844 337.890625 C 531.046875 338.070312 530.019531 338.191406 528.886719 338.265625 L 527.878906 338.265625 L 527.878906 335.820312 L 528.886719 335.820312 C 530.550781 335.75 532.089844 335.484375 533.503906 335.023438 C 534.921875 334.566406 535.910156 334.140625 536.476562 333.75 C 537.042969 333.363281 537.539062 332.972656 537.964844 332.582031 C 538.035156 332.476562 538.246094 332.421875 538.601562 332.421875 C 538.921875 332.421875 539.222656 332.53125 539.503906 332.742188 L 539.503906 348.617188 L 539.558594 364.546875 C 539.804688 364.796875 540.015625 364.953125 540.195312 365.023438 C 540.371094 365.097656 540.796875 365.167969 541.46875 365.238281 C 542.140625 365.308594 543.238281 365.34375 544.757812 365.34375 L 546.140625 365.34375 L 546.140625 367.785156 L 545.554688 367.785156 C 544.8125 367.679688 542 367.628906 537.113281 367.628906 C 532.300781 367.628906 529.523438 367.679688 528.78125 367.785156 L 528.144531 367.785156 L 528.144531 365.34375 L 529.523438 365.34375 C 530.304688 365.34375 530.976562 365.34375 531.542969 365.34375 C 532.109375 365.34375 532.550781 365.328125 532.867188 365.289062 C 533.1875 365.253906 533.46875 365.203125 533.71875 365.132812 C 533.964844 365.0625 534.105469 365.023438 534.140625 365.023438 C 534.179688 365.023438 534.285156 364.9375 534.460938 364.761719 C 534.636719 364.582031 534.746094 364.511719 534.78125 364.546875 Z M 534.78125 337.097656 " fill-opacity="1" fill-rule="nonzero"/><path fill="#000000" d="M 558.285156 342.550781 L 558.585938 342.476562 C 558.835938 342.476562 559.085938 342.476562 559.335938 342.476562 L 560.238281 342.476562 L 562.339844 344.277344 C 567.046875 348.535156 570.472656 353.84375 572.625 360.199219 C 574.777344 366.558594 575.855469 373.167969 575.855469 380.027344 C 575.855469 383.433594 575.605469 386.710938 575.105469 389.867188 C 574.601562 393.019531 574.027344 395.699219 573.378906 397.902344 C 572.726562 400.105469 571.800781 402.308594 570.597656 404.511719 C 569.398438 406.714844 568.445312 408.390625 567.746094 409.542969 C 567.046875 410.695312 566.019531 411.972656 564.667969 413.375 C 563.316406 414.777344 562.515625 415.601562 562.265625 415.851562 C 562.015625 416.101562 561.4375 416.578125 560.539062 417.277344 C 560.386719 417.429688 560.289062 417.53125 560.238281 417.578125 L 559.335938 417.578125 C 558.9375 417.578125 558.660156 417.578125 558.511719 417.578125 C 558.359375 417.578125 558.234375 417.503906 558.136719 417.355469 C 558.035156 417.203125 557.960938 416.980469 557.910156 416.679688 C 557.960938 416.628906 558.234375 416.304688 558.734375 415.703125 C 566.496094 407.640625 570.375 395.75 570.375 380.027344 C 570.375 364.304688 566.496094 352.414062 558.734375 344.355469 C 558.234375 343.753906 557.960938 343.429688 557.910156 343.378906 C 557.910156 342.976562 558.035156 342.703125 558.285156 342.550781 Z M 558.285156 342.550781 " fill-opacity="1" fill-rule="nonzero"/><path fill="#000000" d="M 646.972656 396.625 C 646.972656 397.628906 646.449219 398.128906 645.398438 398.128906 C 645.148438 398.128906 644.597656 397.726562 643.746094 396.925781 C 642.894531 396.125 640.542969 393.796875 636.6875 389.941406 L 628.878906 382.132812 L 620.996094 390.015625 C 615.6875 395.222656 612.960938 397.878906 612.8125 397.976562 C 612.609375 398.078125 612.433594 398.128906 612.285156 398.128906 C 611.886719 398.128906 611.535156 397.976562 611.234375 397.675781 C 610.933594 397.375 610.757812 397.027344 610.707031 396.625 C 610.707031 396.273438 611.058594 395.726562 611.757812 394.972656 C 612.460938 394.222656 614.8125 391.84375 618.816406 387.839844 L 626.625 380.027344 L 618.816406 372.21875 C 614.761719 368.160156 612.410156 365.785156 611.757812 365.082031 C 611.109375 364.382812 610.757812 363.832031 610.707031 363.429688 C 610.707031 362.980469 610.859375 362.628906 611.160156 362.378906 C 611.460938 362.128906 611.835938 362.003906 612.285156 362.003906 C 612.535156 362.003906 612.710938 362.027344 612.8125 362.078125 C 612.960938 362.179688 615.6875 364.832031 620.996094 370.039062 L 628.878906 377.925781 L 636.6875 370.113281 C 640.542969 366.257812 642.894531 363.929688 643.746094 363.128906 C 644.597656 362.328125 645.148438 361.929688 645.398438 361.929688 C 646.449219 361.929688 646.972656 362.429688 646.972656 363.429688 C 646.972656 363.78125 646.722656 364.230469 646.222656 364.78125 C 645.722656 365.332031 643.269531 367.785156 638.863281 372.140625 L 631.054688 380.027344 L 638.863281 387.914062 C 643.070312 392.121094 645.472656 394.546875 646.074219 395.199219 C 646.671875 395.851562 646.972656 396.324219 646.972656 396.625 Z M 646.972656 396.625 " fill-opacity="1" fill-rule="nonzero"/><path fill="#000000" d="M 709.464844 398.804688 C 708.566406 398.652344 705.335938 398.578125 699.78125 398.578125 C 693.972656 398.578125 690.621094 398.652344 689.71875 398.804688 L 689.042969 398.804688 L 689.042969 395.347656 L 691.371094 395.347656 C 692.371094 395.347656 693.046875 395.347656 693.398438 395.347656 C 693.75 395.347656 694.171875 395.300781 694.675781 395.199219 C 695.175781 395.097656 695.523438 394.972656 695.726562 394.824219 C 695.925781 394.671875 696.101562 394.472656 696.25 394.222656 C 696.300781 394.121094 696.324219 392.769531 696.324219 390.167969 L 696.324219 386.410156 L 676.878906 386.410156 L 676.878906 382.957031 L 688.21875 365.609375 C 695.875 353.992188 699.753906 348.160156 699.855469 348.109375 C 699.953125 348.007812 700.480469 347.960938 701.433594 347.960938 L 702.78125 347.960938 L 703.234375 348.410156 L 703.234375 382.957031 L 710.140625 382.957031 L 710.140625 386.410156 L 703.234375 386.410156 L 703.234375 390.242188 C 703.234375 392.296875 703.234375 393.496094 703.234375 393.847656 C 703.234375 394.199219 703.382812 394.496094 703.683594 394.75 C 704.085938 395.097656 705.511719 395.300781 707.964844 395.347656 L 710.140625 395.347656 L 710.140625 398.804688 Z M 696.777344 382.957031 L 696.777344 357.871094 L 680.332031 382.882812 L 688.515625 382.957031 Z M 696.777344 382.957031 " fill-opacity="1" fill-rule="nonzero"/></svg>