<svg id="svg" version="1.1" xmlns="http://www.w3.org/2000/svg" xmlns:xlink="http://www.w3.org/1999/xlink" width="400" height="400" viewBox="0, 0, 400,400"><g id="svgg"><path id="path0" d="M245.094 90.353 C 237.739 90.768,231.772 92.468,216.500 98.498 C 200.349 104.875,190.698 108.130,184.841 109.178 C 181.952 109.695,181.624 109.818,182.341 110.120 C 186.827 112.007,194.069 115.820,193.758 116.131 C 193.198 116.691,190.983 116.168,187.433 114.637 C 171.418 107.731,165.289 106.105,156.500 106.431 C 146.359 106.807,134.098 111.969,126.505 119.060 C 123.593 121.779,123.513 122.000,125.433 122.000 C 127.004 122.000,127.661 122.434,127.677 123.483 C 127.693 124.529,128.342 125.136,130.167 125.812 C 132.579 126.707,134.948 127.923,136.682 129.156 L 138.197 130.235 139.342 129.279 C 143.422 125.873,149.696 126.369,153.121 130.370 C 156.679 134.527,155.972 142.545,151.611 147.513 L 150.599 148.666 152.104 151.583 C 162.444 171.625,156.473 195.773,140.334 199.177 C 139.692 199.312,138.492 200.019,137.667 200.747 C 129.431 208.014,106.660 207.526,96.206 199.857 C 95.451 199.303,93.834 198.529,92.612 198.136 L 90.391 197.423 90.185 198.522 C 89.287 203.309,85.065 207.935,73.925 216.343 C 54.827 230.757,48.730 240.888,51.608 253.424 C 52.958 259.301,60.087 261.958,64.478 258.221 L 65.790 257.104 65.056 256.316 C 62.953 254.059,63.714 248.906,66.454 246.859 C 68.934 245.006,76.124 246.034,78.342 248.561 L 79.391 249.755 81.945 249.072 C 83.350 248.696,85.175 248.287,86.000 248.164 C 86.825 248.040,88.406 247.717,89.513 247.447 C 91.410 246.983,91.627 246.994,93.275 247.644 C 95.574 248.550,96.449 248.556,96.166 247.665 C 95.849 246.665,96.761 246.491,99.024 247.120 C 102.064 247.965,102.829 247.890,102.125 246.816 C 101.219 245.434,101.953 245.196,104.097 246.177 C 106.590 247.319,108.333 247.611,108.333 246.887 C 108.333 246.426,108.692 246.382,111.000 246.560 C 112.509 246.676,113.661 246.636,113.654 246.466 C 113.635 246.023,111.081 244.333,110.429 244.333 C 109.284 244.333,110.553 243.717,113.167 243.003 C 118.332 241.592,120.165 240.454,124.377 236.050 C 127.692 232.584,134.305 224.170,133.958 223.860 C 133.890 223.799,133.213 223.436,132.454 223.053 C 129.213 221.419,122.333 215.055,122.333 213.691 C 122.333 212.720,122.518 212.797,124.473 214.583 C 127.620 217.458,131.109 219.910,135.491 222.325 C 141.279 225.515,141.991 226.257,145.070 232.305 C 150.703 243.368,151.250 262.531,146.091 268.047 C 144.472 269.778,143.201 270.371,137.953 271.847 C 132.219 273.459,128.333 276.740,128.333 279.969 C 128.333 280.247,128.671 279.805,129.083 278.987 C 129.818 277.529,131.424 276.514,130.829 277.883 C 129.297 281.410,129.369 288.134,130.942 288.437 C 132.072 288.654,132.048 288.701,131.619 287.149 C 130.954 284.741,131.829 279.224,132.988 278.507 C 133.624 278.114,133.685 278.459,133.316 280.361 C 133.095 281.500,133.064 283.398,133.233 285.500 L 133.500 288.833 134.936 288.937 L 136.371 289.040 136.102 287.770 C 135.375 284.334,136.213 278.667,137.448 278.667 C 137.844 278.667,137.871 278.918,137.600 280.083 C 137.237 281.646,137.452 285.521,138.031 287.817 L 138.403 289.294 140.285 289.564 C 145.480 290.308,162.424 289.640,168.167 288.464 C 175.682 286.925,177.837 285.691,178.138 282.751 C 178.744 276.824,180.081 273.721,183.582 270.110 C 193.423 259.957,195.008 245.410,189.821 212.823 C 188.890 206.976,188.663 204.670,188.738 201.823 C 188.866 196.972,189.379 197.006,190.113 201.912 C 190.436 204.069,191.060 208.083,191.501 210.833 C 191.943 213.583,192.693 218.533,193.170 221.833 C 193.647 225.133,194.107 228.307,194.194 228.885 C 194.487 230.840,210.281 236.696,212.964 235.845 C 213.427 235.698,213.889 235.985,214.669 236.905 C 215.332 237.687,215.799 238.008,215.897 237.750 C 216.121 237.160,216.599 237.231,217.576 238.000 C 218.581 238.791,219.333 238.862,219.333 238.167 C 219.333 237.417,220.067 237.574,220.960 238.514 C 221.485 239.067,221.965 239.284,222.378 239.152 C 222.755 239.033,223.354 239.230,223.886 239.648 C 224.973 240.504,225.074 240.420,224.668 239.004 C 224.341 237.865,224.749 236.806,225.367 237.187 C 225.527 237.286,228.149 237.360,231.195 237.352 C 239.658 237.327,242.649 236.765,251.083 233.611 C 252.310 233.152,252.252 232.878,250.520 230.952 C 246.741 226.749,243.364 221.765,242.681 219.382 C 242.242 217.851,242.865 217.761,243.622 219.246 C 246.991 225.850,263.152 242.526,271.347 247.854 C 273.925 249.531,274.889 250.403,276.438 252.461 C 278.387 255.051,279.000 255.503,279.000 254.353 C 279.000 253.315,279.715 253.151,280.405 254.030 C 282.422 256.600,283.159 257.208,283.275 256.397 C 283.441 255.236,284.157 255.623,285.569 257.637 C 287.854 260.897,289.461 261.537,288.754 258.906 C 288.248 257.023,288.495 256.886,291.192 257.557 C 303.682 260.663,324.664 252.154,332.353 240.865 C 334.077 238.334,334.127 239.733,332.417 242.639 C 330.149 246.492,325.016 251.058,319.739 253.918 C 317.905 254.912,317.416 255.319,317.739 255.582 C 318.334 256.067,320.622 256.663,321.901 256.665 L 322.969 256.667 322.432 255.731 C 322.086 255.128,321.975 254.477,322.121 253.898 C 322.384 252.848,323.333 252.680,323.333 253.683 C 323.333 255.471,324.240 256.335,326.092 256.310 C 327.610 256.289,329.896 255.753,328.734 255.690 C 328.180 255.660,327.017 253.117,327.007 251.917 C 326.999 250.883,327.521 250.683,327.814 251.607 C 328.907 255.048,330.275 255.732,333.194 254.295 L 335.303 253.257 334.287 251.993 C 333.277 250.736,332.824 248.693,333.502 248.452 C 333.686 248.386,334.020 248.747,334.245 249.253 C 334.469 249.760,335.069 250.674,335.578 251.284 L 336.505 252.393 338.103 250.987 C 339.698 249.583,339.700 249.578,339.059 248.873 C 338.138 247.860,337.667 246.838,337.667 245.855 C 337.667 244.529,338.241 244.839,339.167 246.667 C 340.249 248.803,340.380 248.776,341.944 246.083 C 346.755 237.796,347.672 232.575,345.674 224.833 C 341.593 209.020,338.551 204.333,332.366 204.333 C 328.204 204.333,320.926 207.843,320.296 210.154 C 319.405 213.425,317.914 217.000,317.442 217.000 C 317.079 217.000,316.997 216.755,317.132 216.083 C 317.234 215.579,317.483 214.117,317.685 212.833 C 317.887 211.550,318.406 208.625,318.838 206.333 C 320.538 197.315,322.999 178.942,323.000 175.270 C 323.000 173.087,323.425 172.571,324.123 173.906 C 324.904 175.402,326.667 176.955,326.665 176.146 C 326.665 175.791,326.355 174.992,325.977 174.372 C 325.161 173.035,325.552 172.227,326.675 172.928 C 327.225 173.271,327.333 173.253,327.333 172.820 C 327.333 172.093,326.384 170.333,325.991 170.333 C 325.470 170.333,325.618 169.276,326.198 168.851 C 326.802 168.410,326.203 166.479,325.075 165.232 C 324.541 164.642,324.544 164.581,325.121 164.159 C 325.830 163.641,325.536 162.286,324.172 159.784 C 323.635 158.800,323.350 157.549,323.184 155.450 C 319.906 114.030,288.560 87.899,245.094 90.353 M120.667 122.366 C 120.025 122.749,119.258 123.370,118.962 123.746 C 118.354 124.519,117.667 124.287,117.667 123.309 C 117.667 122.482,115.700 123.191,114.315 124.518 C 113.707 125.100,113.087 125.334,112.148 125.336 C 108.198 125.343,102.486 127.521,99.829 130.034 C 97.917 131.842,97.265 131.980,97.973 130.425 C 98.591 129.070,96.557 127.232,93.806 126.661 C 84.670 124.764,75.294 133.620,78.578 141.045 C 79.433 142.977,81.224 145.021,81.852 144.780 C 82.769 144.428,82.335 145.565,80.738 147.700 C 67.527 165.360,72.190 187.635,90.849 196.007 L 93.019 196.980 91.958 195.438 C 87.611 189.120,88.398 181.431,94.144 174.087 C 99.704 166.982,113.066 161.765,120.500 163.797 C 136.934 168.288,147.770 185.610,141.010 196.583 C 140.643 197.179,140.397 197.667,140.463 197.667 C 140.946 197.667,144.169 196.008,145.702 194.971 C 157.317 187.112,159.437 168.686,150.700 151.541 C 148.487 147.199,148.143 146.089,149.349 147.181 C 151.030 148.702,154.759 140.043,154.159 136.012 C 153.330 130.441,148.036 126.992,142.966 128.720 C 141.123 129.348,138.879 131.012,139.303 131.437 C 139.772 131.905,139.772 132.667,139.304 132.667 C 139.104 132.667,138.194 132.013,137.280 131.214 C 135.289 129.472,131.747 127.659,128.336 126.635 C 124.999 125.634,124.491 125.127,125.583 123.894 C 126.341 123.040,123.661 123.266,122.698 124.138 C 122.377 124.429,121.938 124.667,121.724 124.667 C 121.249 124.667,121.201 123.454,121.665 123.168 C 121.847 123.055,122.152 122.671,122.343 122.315 C 122.812 121.440,122.185 121.459,120.667 122.366 M92.135 130.755 C 94.698 132.222,94.613 132.912,91.570 135.303 C 90.398 136.225,88.559 138.033,87.485 139.323 C 84.903 142.423,83.288 142.211,82.328 138.645 C 80.770 132.860,87.021 127.830,92.135 130.755 M84.830 132.731 C 83.161 134.715,82.746 137.563,83.823 139.646 C 84.538 141.029,84.862 140.947,86.676 138.923 L 88.238 137.179 87.071 135.422 C 86.429 134.455,85.888 133.215,85.869 132.666 C 85.826 131.452,85.911 131.446,84.830 132.731 M148.916 133.027 C 150.505 134.162,151.135 137.413,150.162 139.463 C 149.421 141.025,147.658 143.049,147.141 142.934 C 146.319 142.750,141.000 136.539,141.000 135.763 C 140.999 133.141,146.441 131.260,148.916 133.027 M143.432 134.029 C 141.774 135.090,141.720 135.852,143.196 137.363 L 144.458 138.656 145.146 137.443 C 145.524 136.776,146.058 136.104,146.333 135.948 C 147.239 135.437,148.827 134.891,149.167 134.974 C 149.350 135.018,149.136 134.668,148.692 134.194 C 147.639 133.072,145.052 132.991,143.432 134.029 M130.867 145.133 C 131.967 146.234,132.310 147.000,131.702 147.000 C 131.539 147.000,131.322 146.784,131.220 146.519 C 130.777 145.363,129.488 144.927,128.158 145.482 C 126.646 146.114,126.667 146.114,126.667 145.511 C 126.667 144.959,128.180 144.034,129.117 144.013 C 129.456 144.006,130.243 144.510,130.867 145.133 M103.355 145.345 C 103.710 145.535,104.000 145.915,104.000 146.190 C 104.000 146.581,103.859 146.615,103.355 146.345 C 101.827 145.527,99.000 146.825,99.000 148.343 C 99.000 149.160,98.383 149.517,98.126 148.848 C 97.279 146.642,101.053 144.113,103.355 145.345 M108.295 153.680 C 110.980 156.365,109.355 161.009,105.714 161.060 C 102.834 161.099,101.179 157.944,102.465 154.866 C 103.473 152.453,106.460 151.845,108.295 153.680 M127.832 153.417 C 130.350 155.587,129.015 161.333,125.994 161.333 C 124.526 161.333,123.683 160.788,123.138 159.484 C 121.409 155.346,124.875 150.866,127.832 153.417 M108.833 165.983 C 91.647 172.406,85.046 187.115,94.918 196.987 C 96.827 198.896,101.723 202.000,102.826 202.000 C 103.519 202.000,102.744 200.913,101.554 200.216 C 99.603 199.073,96.741 196.143,95.413 193.932 C 89.004 183.259,94.130 172.244,108.037 166.805 C 110.223 165.950,112.093 165.119,112.192 164.959 C 112.291 164.798,112.326 164.682,112.270 164.702 C 112.213 164.721,110.667 165.297,108.833 165.983 M194.716 233.917 C 194.853 235.154,194.973 237.114,194.983 238.272 C 195.027 243.685,202.914 255.708,208.465 258.823 C 211.620 260.594,214.333 262.883,214.333 263.773 C 214.333 264.796,213.142 264.362,210.301 262.303 C 204.583 258.158,193.009 254.745,192.997 257.200 C 192.995 257.549,192.473 259.333,191.837 261.167 C 190.205 265.870,190.673 268.270,193.815 271.315 L 194.915 272.382 194.438 270.607 C 193.753 268.059,193.765 263.755,194.461 262.409 C 195.347 260.696,195.617 261.139,195.422 263.984 C 195.155 267.877,196.355 273.000,197.534 273.000 C 197.761 273.000,198.198 273.097,198.506 273.215 C 199.017 273.411,199.013 273.329,198.463 272.299 C 197.719 270.906,197.363 263.858,197.978 262.708 C 198.657 261.440,199.000 261.957,199.003 264.250 C 199.009 269.723,200.034 273.128,201.717 273.268 L 202.935 273.370 202.453 271.973 C 201.352 268.776,201.581 263.000,202.809 263.000 C 203.109 263.000,203.246 263.724,203.279 265.492 C 203.324 267.834,203.578 269.463,204.361 272.417 L 204.692 273.667 211.263 273.659 C 214.877 273.654,219.633 273.501,221.833 273.317 C 224.033 273.134,229.578 272.905,234.155 272.809 C 238.731 272.714,242.543 272.568,242.625 272.486 C 243.016 272.096,241.885 265.611,241.296 264.862 C 238.207 260.935,240.959 246.622,246.392 238.353 C 247.101 237.274,247.107 237.221,246.490 237.465 C 244.162 238.382,239.034 239.059,233.101 239.232 L 226.702 239.419 226.601 240.626 C 226.479 242.080,225.215 242.443,223.728 241.451 C 223.236 241.123,222.648 240.893,222.420 240.941 C 222.193 240.988,221.668 240.846,221.254 240.623 C 220.513 240.226,218.718 240.008,216.247 240.013 C 215.266 240.016,214.750 239.772,213.867 238.889 C 212.987 238.009,212.359 237.712,211.004 237.532 C 208.172 237.156,201.816 235.086,198.066 233.317 C 196.142 232.409,194.545 231.667,194.517 231.667 C 194.489 231.667,194.578 232.679,194.716 233.917 M64.620 243.462 C 65.431 245.159,64.408 246.735,62.580 246.602 C 61.223 246.504,61.163 246.452,61.067 245.312 C 60.863 242.879,63.648 241.428,64.620 243.462 M61.148 248.408 C 61.944 249.544,61.799 250.847,60.788 251.642 C 59.734 252.472,57.828 252.568,57.536 251.806 C 56.570 249.290,59.702 246.344,61.148 248.408 M62.203 255.172 C 63.657 256.627,62.349 259.667,60.269 259.667 C 59.593 259.667,58.334 257.987,58.344 257.098 C 58.370 254.815,60.688 253.658,62.203 255.172 " stroke="none" fill="#b76f41" fill-rule="evenodd"></path><path id="path1" d="M245.833 88.040 C 239.121 88.381,231.417 90.377,221.000 94.473 C 218.342 95.518,214.142 97.173,211.667 98.152 C 199.465 102.974,189.522 106.360,185.167 107.177 C 178.860 108.359,178.630 108.355,173.786 106.963 C 155.136 101.602,139.296 105.161,124.833 117.964 C 123.367 119.262,121.942 120.327,121.667 120.331 C 121.392 120.335,120.727 120.628,120.190 120.982 C 119.444 121.473,119.061 121.545,118.571 121.282 C 117.569 120.746,115.744 121.266,114.397 122.472 C 113.373 123.389,112.804 123.612,111.000 123.806 C 106.884 124.248,103.085 125.519,100.753 127.234 L 99.673 128.029 98.527 126.882 C 95.483 123.839,89.067 123.685,83.661 126.526 C 76.128 130.485,73.726 139.155,78.619 144.728 C 79.895 146.181,79.894 146.052,78.645 147.474 C 65.937 161.948,70.474 187.172,87.386 196.065 L 88.938 196.881 88.346 198.629 C 86.827 203.118,80.538 209.964,71.833 216.605 C 62.173 223.976,61.542 224.480,59.130 226.758 C 51.764 233.714,47.711 244.862,49.474 253.317 C 50.468 258.084,51.769 259.541,56.354 261.023 C 61.431 262.664,62.587 262.386,67.071 258.445 C 68.674 257.037,70.357 255.984,73.384 254.496 C 74.731 253.834,76.071 253.165,76.362 253.011 C 77.141 252.596,84.007 250.725,85.704 250.465 C 86.508 250.342,87.542 250.057,88.000 249.833 C 89.468 249.115,92.566 248.931,93.659 249.496 C 95.158 250.271,96.895 250.156,97.367 249.250 C 97.581 248.838,97.795 248.454,97.842 248.397 C 97.889 248.341,98.487 248.528,99.171 248.814 C 101.023 249.587,103.179 249.500,103.790 248.627 C 104.272 247.940,104.327 247.935,105.868 248.460 C 107.818 249.125,108.809 249.143,109.425 248.527 C 109.776 248.176,110.425 248.102,111.939 248.239 C 114.751 248.494,117.105 246.595,115.333 245.500 C 114.630 245.065,115.073 244.697,117.120 244.016 C 122.140 242.345,128.300 236.501,133.651 228.333 C 134.792 226.592,135.769 225.123,135.821 225.069 C 136.012 224.875,139.853 227.293,140.560 228.053 C 145.901 233.791,148.806 250.519,146.397 261.667 C 145.261 266.926,144.669 267.457,137.667 269.498 C 128.881 272.059,125.643 275.894,125.571 283.820 C 125.523 289.103,127.046 290.210,135.979 291.387 C 148.403 293.024,165.056 292.041,174.036 289.140 C 179.250 287.455,179.745 287.042,180.218 283.987 C 181.198 277.655,183.116 272.585,184.892 271.635 C 185.357 271.386,186.465 270.386,187.355 269.412 L 188.974 267.642 189.658 268.984 C 190.035 269.722,191.203 271.222,192.255 272.318 L 194.167 274.310 198.500 274.847 C 204.439 275.584,216.207 275.841,223.305 275.387 C 226.529 275.182,232.317 274.925,236.167 274.816 C 243.644 274.606,244.401 274.437,244.788 272.896 C 245.100 271.654,244.170 264.963,243.508 263.683 C 240.501 257.867,246.519 237.914,252.026 235.445 L 253.636 234.723 255.352 236.611 C 259.107 240.743,265.274 246.088,269.836 249.166 C 273.344 251.533,274.671 252.626,275.170 253.559 C 276.629 256.292,278.715 257.604,279.523 256.297 C 279.665 256.066,280.223 256.442,281.004 257.297 C 281.876 258.251,282.528 258.667,283.153 258.667 C 283.812 258.667,284.484 259.143,285.692 260.464 C 287.912 262.893,290.667 263.229,290.667 261.071 C 290.667 260.141,291.941 259.789,294.167 260.103 C 299.056 260.794,306.596 259.651,312.562 257.314 L 315.290 256.246 316.062 257.120 C 318.472 259.850,327.411 259.255,334.333 255.902 C 344.306 251.072,350.872 236.295,348.306 224.452 C 344.121 205.135,334.603 197.403,323.696 204.458 L 321.472 205.897 322.387 201.365 C 323.260 197.044,323.692 194.180,324.831 185.167 C 325.109 182.967,325.418 180.539,325.518 179.773 C 325.685 178.503,325.784 178.381,326.636 178.405 C 328.140 178.448,328.430 178.086,328.240 176.398 C 328.122 175.355,328.214 174.739,328.534 174.418 C 329.137 173.816,329.123 172.941,328.489 171.421 C 328.207 170.747,328.064 169.801,328.171 169.315 C 328.277 168.830,328.144 167.795,327.876 167.014 C 327.607 166.234,327.463 165.124,327.557 164.547 C 327.660 163.912,327.453 162.778,327.031 161.668 C 326.646 160.653,326.256 158.647,326.158 157.168 C 325.902 153.312,325.342 148.849,324.779 146.167 C 324.509 144.883,324.147 143.158,323.975 142.333 C 316.757 107.694,285.564 86.021,245.833 88.040 M260.282 90.503 C 296.183 94.514,320.183 118.682,323.336 154.000 C 323.638 157.388,323.884 158.540,324.654 160.167 C 325.917 162.838,326.231 164.333,325.526 164.333 C 324.839 164.333,324.862 164.553,325.658 165.565 C 326.629 166.799,326.909 168.671,326.184 169.077 C 325.651 169.375,325.658 169.448,326.283 170.116 C 326.936 170.812,327.667 172.361,327.667 173.048 C 327.667 173.250,327.265 173.298,326.667 173.167 C 325.478 172.906,325.466 172.956,326.358 174.467 C 327.745 176.817,327.034 177.403,325.128 175.481 L 323.455 173.796 323.053 178.691 C 322.539 184.930,321.107 194.908,318.972 207.117 C 318.047 212.407,317.353 216.797,317.429 216.873 C 317.572 217.016,319.289 212.587,320.072 210.057 C 320.934 207.267,329.022 203.645,333.167 204.192 C 338.786 204.935,340.858 207.756,344.495 219.615 C 347.985 230.995,347.886 234.458,343.829 242.930 C 340.798 249.260,340.496 249.509,339.010 246.917 C 338.019 245.189,338.006 245.181,338.003 246.238 C 338.001 246.958,338.330 247.686,339.004 248.454 L 340.008 249.597 338.291 251.142 C 336.314 252.919,336.051 252.844,334.401 250.028 C 333.926 249.217,333.477 248.736,333.403 248.958 C 333.153 249.708,333.671 250.982,334.706 252.161 L 335.736 253.333 333.200 254.538 C 330.173 255.975,329.651 255.813,328.350 253.036 C 327.908 252.092,327.423 251.444,327.271 251.595 C 326.863 252.003,327.963 254.936,328.724 255.469 C 329.624 256.100,329.077 256.377,326.530 256.582 C 324.243 256.765,323.568 256.255,323.117 254.004 C 323.008 253.458,322.787 253.092,322.626 253.192 C 322.143 253.490,322.296 255.554,322.833 256.000 C 324.084 257.038,322.707 257.305,319.692 256.609 C 316.513 255.876,316.536 255.301,319.813 253.558 C 324.763 250.925,330.141 246.098,332.481 242.186 C 334.028 239.601,333.988 239.203,332.383 241.220 C 322.051 254.205,303.843 261.070,289.368 257.437 C 288.641 257.255,288.588 257.313,288.821 258.034 C 290.076 261.927,287.897 261.592,285.163 257.472 C 284.487 256.454,283.837 255.719,283.717 255.838 C 283.512 256.043,283.478 256.163,283.375 257.012 C 283.300 257.630,282.214 256.793,281.021 255.198 C 279.707 253.441,279.609 253.399,279.162 254.417 C 278.675 255.527,278.337 255.335,276.460 252.888 C 274.558 250.410,274.339 250.218,270.333 247.503 C 262.130 241.944,247.102 226.177,243.484 219.333 C 243.044 218.501,242.833 218.326,242.748 218.723 C 242.477 219.983,245.670 224.845,250.466 230.477 C 253.088 233.557,253.330 233.115,247.916 235.133 C 243.000 236.966,238.056 237.696,230.890 237.649 C 224.163 237.605,224.502 237.516,224.967 239.200 C 225.405 240.787,225.215 240.985,224.184 240.016 C 223.600 239.468,223.140 239.310,222.555 239.456 C 221.923 239.615,221.505 239.420,220.692 238.589 C 219.666 237.539,219.639 237.532,219.450 238.258 C 219.197 239.224,218.617 239.196,217.381 238.156 C 216.445 237.368,216.355 237.352,216.030 237.906 C 215.716 238.441,215.571 238.371,214.565 237.195 C 213.937 236.460,213.286 235.990,213.078 236.119 C 211.857 236.873,195.054 231.436,194.166 229.998 C 194.073 229.849,193.693 227.426,193.321 224.613 C 192.948 221.801,192.353 217.775,191.999 215.667 C 191.093 210.284,189.691 200.741,189.587 199.251 C 189.539 198.564,189.390 198.001,189.256 198.001 C 188.288 197.998,188.715 204.758,190.319 214.833 C 195.222 245.624,193.243 261.094,183.153 270.850 C 180.359 273.551,178.892 277.180,178.397 282.612 L 178.167 285.147 176.333 286.066 C 171.930 288.274,165.453 289.472,154.915 290.028 C 148.104 290.387,138.911 290.044,138.274 289.407 C 137.724 288.858,137.278 285.110,137.388 281.961 C 137.471 279.566,137.401 278.804,137.120 279.038 C 136.045 279.932,135.641 285.745,136.489 288.123 L 136.949 289.413 135.300 289.255 C 133.084 289.042,133.167 289.259,133.167 283.666 C 133.167 279.870,133.074 278.800,132.768 279.054 C 131.773 279.880,131.353 286.461,132.169 288.434 C 132.435 289.076,130.991 288.960,130.110 288.269 C 129.049 287.436,129.311 281.053,130.537 277.833 C 130.757 277.257,130.720 277.225,130.266 277.594 C 128.730 278.841,127.569 284.230,128.282 286.805 C 128.566 287.829,128.556 288.022,128.238 287.704 C 127.969 287.433,127.833 286.048,127.833 283.565 C 127.833 276.772,130.403 273.615,137.500 271.689 C 146.025 269.376,147.604 267.761,148.870 260.064 C 150.268 251.559,148.715 240.549,145.027 232.833 C 142.138 226.788,140.511 225.131,134.370 221.979 C 131.217 220.361,128.793 218.652,125.175 215.497 C 122.390 213.068,122.103 212.922,122.814 214.295 C 123.561 215.741,129.090 220.750,131.357 222.036 C 134.808 223.994,134.715 223.531,132.330 226.870 C 124.666 237.601,117.199 243.667,111.653 243.667 C 110.580 243.667,110.906 244.250,112.500 245.184 C 114.831 246.550,113.959 247.355,110.746 246.804 C 108.536 246.425,108.488 246.431,108.598 247.083 C 108.757 248.032,105.239 247.321,103.069 245.966 C 102.144 245.388,101.879 245.703,102.375 246.792 C 103.043 248.258,102.226 248.257,97.035 246.789 C 96.307 246.584,96.251 246.645,96.410 247.475 C 96.656 248.760,96.017 248.879,93.637 247.989 C 91.381 247.145,91.042 247.184,82.727 249.222 L 79.287 250.066 78.139 248.725 C 76.036 246.268,69.818 245.215,67.000 246.839 C 63.831 248.664,63.014 255.705,65.845 256.792 C 66.426 257.015,65.852 257.602,63.354 259.338 C 61.293 260.771,55.912 259.980,53.772 257.929 C 50.093 254.404,49.984 244.891,53.536 237.333 C 56.968 230.030,60.507 226.302,72.950 216.878 C 85.723 207.205,90.000 202.542,90.000 198.289 C 90.000 197.744,90.179 197.335,90.417 197.338 C 91.590 197.350,95.125 198.766,96.397 199.733 C 106.293 207.255,129.379 207.745,137.491 200.605 C 138.377 199.825,139.492 199.142,139.968 199.088 C 140.444 199.034,142.252 198.295,143.986 197.446 C 157.672 190.744,161.329 170.399,152.141 152.070 L 150.378 148.552 151.673 147.080 C 155.095 143.193,156.304 136.570,154.334 132.501 C 151.726 127.115,144.653 125.505,139.816 129.197 C 138.024 130.565,138.210 130.554,136.715 129.377 C 135.237 128.213,132.866 127.005,130.083 125.998 C 128.913 125.574,128.000 125.045,128.000 124.789 C 128.000 124.538,127.852 124.333,127.671 124.333 C 127.489 124.333,127.377 124.005,127.421 123.604 C 127.521 122.679,126.186 121.927,124.917 122.194 C 121.280 122.958,128.606 116.011,134.870 112.757 C 152.337 103.681,162.949 103.762,184.441 113.132 C 190.923 115.958,192.695 116.561,193.343 116.160 C 193.741 115.915,187.636 112.680,183.569 110.981 C 180.473 109.687,180.535 109.586,184.841 108.892 C 190.557 107.971,199.073 105.065,219.500 97.064 C 237.192 90.136,245.305 88.830,260.282 90.503 M122.667 121.955 C 122.667 122.114,122.350 122.647,121.962 123.139 C 121.087 124.252,121.392 124.637,122.594 123.938 C 124.452 122.857,127.162 122.898,125.849 123.987 C 125.075 124.629,125.187 125.449,126.019 125.232 C 126.455 125.118,126.657 125.194,126.574 125.443 C 126.495 125.679,127.569 126.200,129.299 126.765 C 132.729 127.883,135.607 129.443,137.796 131.370 L 139.414 132.795 139.190 131.773 C 138.732 129.688,143.600 127.625,147.316 128.330 C 154.353 129.665,156.577 138.331,151.750 145.604 C 150.468 147.534,149.763 148.029,149.318 147.308 C 148.102 145.340,149.108 148.046,150.946 151.686 C 160.655 170.915,156.824 190.699,142.132 197.196 C 141.132 197.638,140.258 198.000,140.189 198.000 C 140.121 198.000,140.565 197.006,141.176 195.791 C 146.757 184.699,137.402 169.612,121.667 164.327 C 116.585 162.620,109.782 163.822,102.177 167.771 C 90.421 173.876,85.563 188.548,92.748 196.249 C 93.959 197.546,93.197 197.402,89.797 195.691 C 71.358 186.409,67.323 164.513,80.849 147.132 C 82.224 145.366,82.310 145.156,81.701 145.062 C 79.829 144.772,77.843 140.957,77.851 137.667 C 77.871 129.888,88.037 123.887,95.741 127.107 C 97.181 127.708,98.843 129.623,98.352 130.115 C 97.123 131.344,98.290 131.153,99.622 129.907 C 102.368 127.339,106.689 125.574,111.328 125.126 C 112.909 124.973,113.727 124.712,114.333 124.166 C 115.935 122.722,118.309 122.047,117.884 123.156 C 117.546 124.037,118.368 124.091,119.277 123.248 C 120.764 121.869,122.667 121.143,122.667 121.955 M86.552 130.467 C 82.905 131.822,81.041 136.979,83.095 140.034 C 84.358 141.913,85.013 141.730,87.863 138.700 C 89.250 137.226,91.107 135.488,91.991 134.840 C 94.440 133.042,94.510 132.263,92.331 131.038 C 90.649 130.093,88.208 129.852,86.552 130.467 M91.719 131.527 C 93.265 132.327,93.288 132.963,91.812 134.135 C 91.097 134.702,89.251 136.480,87.708 138.084 C 84.648 141.269,84.384 141.331,83.448 139.094 C 81.314 133.989,86.791 128.978,91.719 131.527 M144.435 132.701 C 143.158 133.071,141.000 135.021,141.000 135.807 C 141.000 136.116,142.012 137.465,143.250 138.806 C 144.487 140.146,145.845 141.660,146.268 142.170 L 147.035 143.096 148.162 142.004 C 152.795 137.514,150.200 131.034,144.435 132.701 M148.664 133.946 C 150.614 135.896,150.168 139.252,147.659 141.500 C 146.928 142.155,146.909 142.156,146.541 141.526 C 146.335 141.174,145.159 139.726,143.927 138.308 L 141.687 135.731 142.398 134.826 C 143.968 132.831,147.108 132.390,148.664 133.946 M127.583 144.693 C 127.263 144.880,127.000 145.259,127.000 145.535 C 127.000 145.978,127.088 145.976,127.741 145.519 C 128.806 144.773,129.909 144.879,130.848 145.818 C 131.298 146.268,131.667 146.521,131.667 146.381 C 131.667 145.123,128.847 143.958,127.583 144.693 M100.298 145.485 C 99.208 146.095,98.329 147.409,98.346 148.405 C 98.358 149.085,98.407 149.059,98.801 148.167 C 99.687 146.158,101.268 145.448,103.333 146.130 C 104.087 146.379,104.118 146.354,103.662 145.877 C 102.929 145.108,101.309 144.920,100.298 145.485 M104.254 153.188 C 101.810 154.515,101.703 158.820,104.072 160.480 C 106.248 162.004,109.333 160.071,109.333 157.183 C 109.333 153.773,106.820 151.796,104.254 153.188 M124.794 153.303 C 121.781 155.140,122.715 161.333,126.004 161.333 C 126.790 161.333,128.670 159.643,128.662 158.942 C 128.658 158.613,128.574 158.628,128.333 159.000 C 128.052 159.436,128.010 159.431,128.005 158.962 C 127.986 156.897,125.549 156.085,124.196 157.692 L 123.333 158.718 123.333 157.242 C 123.333 152.447,128.028 151.862,128.690 156.574 L 128.961 158.500 128.865 156.527 C 128.715 153.444,126.909 152.013,124.794 153.303 M108.022 154.190 C 108.983 155.213,109.278 157.875,108.537 158.833 C 108.035 159.482,108.021 159.475,108.011 158.568 C 107.985 156.350,105.308 155.274,103.817 156.882 L 103.000 157.764 103.000 156.594 C 103.000 153.678,106.132 152.179,108.022 154.190 M121.608 165.186 C 133.982 169.307,143.534 181.319,142.003 190.832 C 140.383 200.896,130.761 205.889,115.333 204.671 C 92.915 202.900,83.646 189.134,95.175 174.732 C 101.347 167.021,113.711 162.556,121.608 165.186 M112.500 183.964 C 110.271 184.303,110.573 186.096,113.332 188.899 C 114.919 190.511,114.847 190.987,112.776 192.566 C 111.093 193.850,106.973 194.148,106.278 193.035 C 105.772 192.225,105.333 192.120,105.333 192.809 C 105.333 195.071,111.049 195.232,113.670 193.045 L 114.740 192.151 115.997 193.409 C 117.716 195.128,120.055 195.227,121.745 193.653 L 122.833 192.638 121.667 193.318 C 119.126 194.798,116.373 193.979,115.516 191.488 C 115.010 190.016,115.097 189.667,115.968 189.667 C 116.911 189.667,120.580 187.133,120.845 186.298 C 121.414 184.503,117.026 183.276,112.500 183.964 M197.257 232.625 C 201.157 234.580,205.805 236.214,209.681 236.993 C 212.762 237.612,213.267 237.814,214.034 238.732 C 214.795 239.644,215.047 239.746,216.111 239.574 C 216.812 239.460,217.412 239.524,217.537 239.727 C 217.657 239.920,218.300 240.003,218.978 239.912 C 219.734 239.810,220.445 239.924,220.832 240.207 C 221.178 240.460,221.873 240.667,222.377 240.667 C 222.882 240.667,223.392 240.826,223.513 241.021 C 224.423 242.494,226.333 242.004,226.333 240.298 L 226.333 239.000 231.583 238.998 C 236.840 238.996,241.549 238.481,245.379 237.488 C 247.821 236.855,247.894 236.900,246.802 238.357 C 241.665 245.209,238.365 261.413,241.474 264.522 C 242.100 265.147,242.226 265.654,242.654 269.248 C 243.126 273.219,243.963 272.862,233.568 273.117 C 228.581 273.239,223.000 273.483,221.167 273.658 C 217.229 274.034,205.335 274.097,204.782 273.745 C 204.154 273.345,203.325 269.720,203.106 266.417 C 202.905 263.384,202.606 262.605,202.210 264.083 C 201.664 266.120,202.148 270.725,203.155 273.083 C 203.372 273.589,203.206 273.667,201.915 273.667 L 200.425 273.667 199.846 271.827 C 199.202 269.780,198.699 266.371,198.667 263.833 C 198.641 261.738,198.170 262.429,197.858 265.022 C 197.606 267.113,198.126 271.009,198.853 272.471 C 199.434 273.639,199.463 273.609,197.953 273.420 C 196.015 273.178,194.177 265.840,195.270 262.706 C 195.473 262.122,195.499 261.667,195.328 261.667 C 194.037 261.667,193.750 267.801,194.888 271.064 C 195.682 273.339,195.228 273.302,193.156 270.921 C 190.474 267.837,189.878 265.495,191.039 262.596 C 191.427 261.626,192.001 259.943,192.314 258.854 C 193.065 256.238,193.319 256.112,196.898 256.569 C 202.290 257.258,205.939 258.847,212.132 263.201 C 213.029 263.831,213.830 264.281,213.912 264.199 C 214.663 263.448,211.349 260.529,207.589 258.629 C 202.953 256.285,194.685 243.264,194.650 238.251 C 194.640 236.921,194.520 234.821,194.382 233.583 C 194.088 230.940,193.973 230.978,197.257 232.625 M62.163 243.218 C 60.608 244.773,60.908 246.605,62.701 246.498 C 63.921 246.425,64.667 245.605,64.667 244.336 C 64.667 242.755,63.256 242.125,62.163 243.218 M63.845 243.686 C 64.166 244.204,63.720 245.667,63.244 245.662 C 62.240 245.649,61.858 245.077,62.262 244.191 C 62.662 243.312,63.457 243.058,63.845 243.686 M199.042 252.093 C 199.805 253.234,200.724 254.495,201.086 254.896 L 201.743 255.624 200.152 255.146 C 199.277 254.882,197.515 254.667,196.238 254.667 L 193.915 254.667 194.151 253.250 C 194.742 249.712,194.988 247.722,195.007 246.333 L 195.028 244.833 196.342 247.427 C 197.064 248.853,198.280 250.953,199.042 252.093 M75.146 247.688 C 76.272 248.109,77.246 248.743,77.660 249.324 L 78.336 250.273 74.519 252.108 C 72.420 253.118,70.030 254.406,69.208 254.972 C 65.595 257.457,63.367 253.842,65.696 249.275 C 66.907 246.902,71.144 246.190,75.146 247.688 M58.621 248.661 C 57.288 249.994,57.326 252.108,58.685 252.266 C 60.757 252.507,62.231 249.582,60.724 248.218 C 59.907 247.479,59.775 247.507,58.621 248.661 M60.531 249.504 C 60.792 250.543,60.185 251.333,59.126 251.333 C 58.187 251.333,58.071 250.522,58.852 249.408 C 59.540 248.426,60.271 248.468,60.531 249.504 M59.396 255.346 C 58.482 256.198,58.419 258.006,59.276 258.782 C 61.192 260.515,63.836 257.169,62.000 255.333 C 61.150 254.483,60.318 254.487,59.396 255.346 M61.600 255.733 C 62.171 256.305,62.094 257.559,61.473 257.798 C 60.312 258.243,59.333 258.021,59.333 257.311 C 59.333 255.677,60.636 254.770,61.600 255.733 " stroke="none" fill="#0b0705" fill-rule="evenodd"></path><path id="path2" d="M86.554 131.539 C 85.761 131.969,85.643 132.197,85.827 132.943 C 86.044 133.821,87.923 137.000,88.225 137.000 C 88.495 137.000,93.000 132.875,93.000 132.628 C 93.000 131.450,88.212 130.641,86.554 131.539 M148.333 135.017 C 148.058 135.172,147.383 135.496,146.833 135.736 C 146.283 135.977,145.545 136.711,145.192 137.368 L 144.551 138.562 145.689 140.031 C 146.314 140.839,146.865 141.562,146.911 141.637 C 147.100 141.941,148.446 140.418,149.072 139.192 C 150.082 137.212,149.571 134.320,148.333 135.017 M104.420 153.843 C 103.742 154.318,102.826 156.603,103.174 156.951 C 103.259 157.037,103.604 156.858,103.941 156.554 C 105.337 155.290,107.550 156.091,107.981 158.016 L 108.238 159.167 108.641 158.170 C 109.819 155.258,106.807 152.171,104.420 153.843 M125.039 153.877 C 124.187 154.473,123.333 156.228,123.333 157.381 L 123.333 158.116 124.130 157.368 C 125.345 156.227,126.999 156.497,127.727 157.956 L 128.288 159.080 128.514 157.875 C 129.093 154.790,127.066 152.457,125.039 153.877 M113.870 164.564 C 113.157 164.646,112.257 164.913,111.870 165.159 C 111.483 165.404,109.568 166.225,107.615 166.982 C 94.170 172.195,89.093 183.408,95.413 193.932 C 96.741 196.143,99.603 199.073,101.554 200.216 C 102.349 200.682,103.000 201.268,103.000 201.518 C 103.000 202.893,111.698 204.474,119.167 204.456 C 132.912 204.424,139.939 200.349,141.684 191.400 C 144.087 179.076,127.439 163.014,113.870 164.564 M118.662 184.027 C 120.229 184.389,121.333 185.145,121.333 185.858 C 121.333 186.804,117.030 190.000,115.755 190.000 C 114.723 190.000,115.953 192.786,117.291 193.478 C 118.661 194.186,119.280 194.139,121.177 193.178 C 123.178 192.165,123.466 192.355,122.060 193.761 C 120.391 195.430,117.430 195.358,115.827 193.609 C 114.860 192.554,114.648 192.454,114.292 192.884 C 111.918 195.744,104.460 195.302,105.233 192.347 C 105.438 191.564,106.000 191.426,106.000 192.159 C 106.000 194.468,112.189 193.723,113.832 191.215 C 114.351 190.424,114.325 190.355,112.990 188.949 C 110.738 186.580,110.089 184.544,111.417 184.010 C 112.445 183.597,116.839 183.607,118.662 184.027 " stroke="none" fill="#e3a38b" fill-rule="evenodd"></path><path id="path3" d="M245.909 90.241 C 246.501 90.314,247.551 90.315,248.243 90.243 C 248.934 90.171,248.450 90.111,247.167 90.109 C 245.883 90.108,245.317 90.167,245.909 90.241 M253.917 90.235 C 254.329 90.315,255.004 90.315,255.417 90.235 C 255.829 90.156,255.492 90.091,254.667 90.091 C 253.842 90.091,253.504 90.156,253.917 90.235 M260.750 90.896 C 261.071 90.980,261.596 90.980,261.917 90.896 C 262.237 90.813,261.975 90.744,261.333 90.744 C 260.692 90.744,260.429 90.813,260.750 90.896 M304.000 110.833 C 305.550 112.392,306.894 113.667,306.985 113.667 C 307.077 113.667,305.884 112.392,304.333 110.833 C 302.783 109.275,301.440 108.000,301.348 108.000 C 301.256 108.000,302.450 109.275,304.000 110.833 M125.487 119.750 L 123.833 121.500 125.583 119.846 C 126.546 118.936,127.333 118.149,127.333 118.096 C 127.333 117.847,127.025 118.124,125.487 119.750 M111.921 125.236 C 112.335 125.315,112.935 125.312,113.254 125.229 C 113.573 125.146,113.233 125.080,112.500 125.084 C 111.767 125.088,111.506 125.156,111.921 125.236 M99.479 130.083 L 98.500 131.167 99.583 130.188 C 100.179 129.649,100.667 129.162,100.667 129.104 C 100.667 128.847,100.392 129.074,99.479 130.083 M323.077 154.333 C 323.077 154.975,323.146 155.237,323.230 154.917 C 323.314 154.596,323.314 154.071,323.230 153.750 C 323.146 153.429,323.077 153.692,323.077 154.333 M156.107 172.333 C 156.107 173.525,156.167 174.012,156.241 173.417 C 156.315 172.821,156.315 171.846,156.241 171.250 C 156.167 170.654,156.107 171.142,156.107 172.333 M134.653 172.083 C 136.034 173.555,136.333 173.820,136.333 173.569 C 136.333 173.516,135.621 172.803,134.750 171.986 L 133.167 170.500 134.653 172.083 M95.812 172.083 L 94.833 173.167 95.917 172.188 C 96.926 171.275,97.153 171.000,96.896 171.000 C 96.838 171.000,96.351 171.487,95.812 172.083 M323.134 173.465 C 323.036 173.721,323.015 174.508,323.088 175.215 C 323.213 176.420,323.225 176.401,323.277 174.897 C 323.316 173.780,323.450 173.366,323.718 173.532 C 323.957 173.679,324.013 173.623,323.865 173.385 C 323.551 172.877,323.351 172.899,323.134 173.465 M89.091 186.333 C 89.091 187.158,89.156 187.496,89.235 187.083 C 89.315 186.671,89.315 185.996,89.235 185.583 C 89.156 185.171,89.091 185.508,89.091 186.333 M81.500 189.667 C 82.589 190.767,83.554 191.667,83.646 191.667 C 83.737 191.667,82.922 190.767,81.833 189.667 C 80.745 188.567,79.779 187.667,79.688 187.667 C 79.596 187.667,80.411 188.567,81.500 189.667 M148.649 192.583 L 147.500 193.833 148.750 192.685 C 149.913 191.615,150.153 191.333,149.899 191.333 C 149.843 191.333,149.281 191.896,148.649 192.583 M149.649 193.583 L 148.500 194.833 149.750 193.685 C 150.913 192.615,151.153 192.333,150.899 192.333 C 150.843 192.333,150.281 192.896,149.649 193.583 M117.760 205.912 C 118.636 205.981,119.986 205.980,120.760 205.910 C 121.534 205.840,120.817 205.784,119.167 205.785 C 117.517 205.786,116.884 205.843,117.760 205.912 M122.363 213.083 C 122.440 213.129,123.028 213.617,123.668 214.167 L 124.833 215.167 123.854 214.083 C 123.316 213.487,122.728 213.000,122.549 213.000 C 122.369 213.000,122.285 213.037,122.363 213.083 M63.146 224.750 L 62.167 225.833 63.250 224.854 C 64.260 223.942,64.487 223.667,64.229 223.667 C 64.172 223.667,63.684 224.154,63.146 224.750 M139.667 224.771 C 139.667 224.828,140.154 225.316,140.750 225.854 L 141.833 226.833 140.854 225.750 C 139.942 224.740,139.667 224.513,139.667 224.771 M253.333 231.833 C 253.955 232.475,254.539 233.000,254.631 233.000 C 254.722 233.000,254.289 232.475,253.667 231.833 C 253.045 231.192,252.461 230.667,252.369 230.667 C 252.278 230.667,252.711 231.192,253.333 231.833 M123.492 237.083 L 120.833 239.833 123.583 237.174 C 126.137 234.705,126.485 234.333,126.242 234.333 C 126.192 234.333,124.955 235.571,123.492 237.083 M258.667 237.500 C 260.401 239.242,261.895 240.667,261.987 240.667 C 262.078 240.667,260.734 239.242,259.000 237.500 C 257.266 235.758,255.772 234.333,255.680 234.333 C 255.588 234.333,256.932 235.758,258.667 237.500 M194.762 236.833 C 194.765 237.750,194.829 238.085,194.906 237.579 C 194.982 237.072,194.980 236.322,194.901 235.912 C 194.822 235.502,194.760 235.917,194.762 236.833 M226.589 237.575 C 227.188 237.649,228.088 237.648,228.589 237.572 C 229.090 237.495,228.600 237.435,227.500 237.437 C 226.400 237.438,225.990 237.501,226.589 237.575 M231.261 237.579 C 232.230 237.647,233.730 237.646,234.595 237.578 C 235.459 237.509,234.667 237.454,232.833 237.455 C 231.000 237.456,230.293 237.512,231.261 237.579 M226.338 239.583 C 226.342 239.943,226.437 240.026,226.588 239.800 C 226.723 239.598,227.058 239.348,227.333 239.243 C 227.667 239.116,227.584 239.044,227.083 239.026 C 226.579 239.009,226.335 239.191,226.338 239.583 M234.589 239.242 C 235.188 239.316,236.088 239.314,236.589 239.238 C 237.090 239.162,236.600 239.101,235.500 239.103 C 234.400 239.105,233.990 239.167,234.589 239.242 M329.322 244.250 L 327.500 246.167 329.417 244.345 C 331.197 242.652,331.486 242.333,331.239 242.333 C 331.187 242.333,330.324 243.196,329.322 244.250 M62.357 244.290 C 61.977 245.000,62.188 245.333,63.020 245.333 C 63.631 245.333,64.129 244.478,63.815 243.970 C 63.499 243.459,62.709 243.632,62.357 244.290 M68.601 247.298 C 65.667 247.912,64.011 252.207,65.663 254.917 C 66.513 256.311,66.860 256.283,69.368 254.617 C 70.513 253.857,72.957 252.529,74.800 251.667 L 78.151 250.100 77.128 249.077 C 75.626 247.575,71.448 246.703,68.601 247.298 M59.027 249.542 C 58.255 250.522,58.178 250.865,58.660 251.162 C 59.250 251.527,60.333 250.671,60.333 249.841 C 60.333 248.661,59.813 248.542,59.027 249.542 M149.461 253.500 C 149.461 255.700,149.515 256.557,149.580 255.404 C 149.646 254.251,149.645 252.451,149.579 251.404 C 149.513 250.357,149.460 251.300,149.461 253.500 M279.222 253.556 C 279.100 253.678,279.002 253.940,279.005 254.139 C 279.008 254.338,279.146 254.285,279.313 254.021 C 279.576 253.606,279.696 253.606,280.225 254.021 C 280.782 254.460,280.795 254.451,280.376 253.917 C 279.888 253.294,279.580 253.198,279.222 253.556 M59.992 256.008 C 59.165 256.835,59.162 257.218,59.976 257.654 C 61.097 258.254,62.237 257.339,61.797 256.192 C 61.491 255.396,60.687 255.313,59.992 256.008 M325.254 256.569 C 325.669 256.649,326.269 256.646,326.587 256.562 C 326.906 256.479,326.567 256.414,325.833 256.417 C 325.100 256.421,324.839 256.489,325.254 256.569 M321.587 256.902 C 322.002 256.982,322.602 256.979,322.921 256.896 C 323.239 256.812,322.900 256.747,322.167 256.751 C 321.433 256.754,321.173 256.823,321.587 256.902 M297.254 258.569 C 297.669 258.649,298.269 258.646,298.587 258.562 C 298.906 258.479,298.567 258.414,297.833 258.417 C 297.100 258.421,296.839 258.489,297.254 258.569 M198.751 263.833 C 198.754 264.567,198.823 264.827,198.902 264.413 C 198.982 263.998,198.979 263.398,198.896 263.079 C 198.812 262.761,198.747 263.100,198.751 263.833 M195.095 265.167 C 195.098 266.083,195.163 266.419,195.239 265.912 C 195.316 265.405,195.314 264.655,195.235 264.245 C 195.156 263.835,195.093 264.250,195.095 265.167 M201.776 266.833 C 201.778 268.117,201.838 268.601,201.910 267.909 C 201.982 267.218,201.981 266.168,201.907 265.576 C 201.834 264.984,201.775 265.550,201.776 266.833 M203.084 266.167 C 203.088 266.900,203.156 267.161,203.236 266.746 C 203.315 266.331,203.312 265.731,203.229 265.413 C 203.146 265.094,203.080 265.433,203.084 266.167 M145.854 267.979 C 145.149 268.701,144.139 269.471,143.609 269.691 C 143.079 269.910,142.711 270.156,142.792 270.236 C 143.083 270.528,144.863 269.358,146.151 268.027 C 146.876 267.279,147.394 266.667,147.302 266.667 C 147.210 266.667,146.559 267.257,145.854 267.979 M193.632 271.406 C 194.410 272.290,195.027 272.362,194.974 271.564 C 194.956 271.301,194.888 271.316,194.771 271.608 C 194.640 271.936,194.370 271.851,193.714 271.274 L 192.833 270.500 193.632 271.406 M233.433 272.915 C 235.046 272.976,237.596 272.976,239.100 272.914 C 240.603 272.853,239.283 272.803,236.167 272.803 C 233.050 272.803,231.820 272.854,233.433 272.915 M200.638 273.438 C 200.789 273.589,201.494 273.661,202.206 273.599 L 203.500 273.486 201.932 273.325 C 201.070 273.237,200.488 273.288,200.638 273.438 M225.088 273.239 C 225.595 273.316,226.345 273.314,226.755 273.235 C 227.165 273.156,226.750 273.093,225.833 273.095 C 224.917 273.098,224.581 273.163,225.088 273.239 M219.921 273.569 C 220.335 273.649,220.935 273.646,221.254 273.562 C 221.573 273.479,221.233 273.414,220.500 273.417 C 219.767 273.421,219.506 273.489,219.921 273.569 M209.735 273.914 C 210.965 273.977,213.065 273.978,214.402 273.914 C 215.739 273.851,214.733 273.799,212.167 273.798 C 209.600 273.798,208.506 273.850,209.735 273.914 M127.875 281.846 C 127.760 282.144,127.690 283.238,127.719 284.277 L 127.772 286.167 127.988 283.833 C 128.220 281.332,128.201 280.996,127.875 281.846 M177.992 283.735 C 177.903 284.597,177.954 285.179,178.105 285.028 C 178.256 284.878,178.328 284.172,178.266 283.461 L 178.153 282.167 177.992 283.735 M131.437 284.833 C 131.438 285.933,131.501 286.343,131.575 285.744 C 131.649 285.145,131.648 284.245,131.572 283.744 C 131.495 283.243,131.435 283.733,131.437 284.833 M133.091 285.667 C 133.091 286.492,133.156 286.829,133.235 286.417 C 133.315 286.004,133.315 285.329,133.235 284.917 C 133.156 284.504,133.091 284.842,133.091 285.667 M154.921 289.902 C 155.335 289.982,155.935 289.979,156.254 289.896 C 156.573 289.812,156.233 289.747,155.500 289.751 C 154.767 289.754,154.506 289.823,154.921 289.902 " stroke="none" fill="#754227" fill-rule="evenodd"></path><path id="path4" d="M243.417 90.230 C 243.737 90.314,244.262 90.314,244.583 90.230 C 244.904 90.146,244.642 90.077,244.000 90.077 C 243.358 90.077,243.096 90.146,243.417 90.230 M154.417 106.230 C 154.737 106.314,155.262 106.314,155.583 106.230 C 155.904 106.146,155.642 106.077,155.000 106.077 C 154.358 106.077,154.096 106.146,154.417 106.230 M159.250 106.235 C 159.662 106.315,160.337 106.315,160.750 106.235 C 161.162 106.156,160.825 106.091,160.000 106.091 C 159.175 106.091,158.837 106.156,159.250 106.235 M137.000 130.771 C 137.000 130.828,137.487 131.316,138.083 131.854 L 139.167 132.833 138.188 131.750 C 137.275 130.740,137.000 130.513,137.000 130.771 M87.818 137.750 L 86.500 139.167 87.917 137.849 C 89.234 136.624,89.487 136.333,89.234 136.333 C 89.180 136.333,88.542 136.971,87.818 137.750 M130.460 145.126 C 130.504 145.427,130.708 145.842,130.914 146.047 C 131.189 146.323,131.266 146.277,131.207 145.874 C 131.163 145.573,130.958 145.158,130.753 144.953 C 130.477 144.677,130.401 144.723,130.460 145.126 M72.762 168.833 C 72.765 169.750,72.829 170.085,72.906 169.579 C 72.982 169.072,72.980 168.322,72.901 167.912 C 72.822 167.502,72.760 167.917,72.762 168.833 M157.077 170.333 C 157.077 170.975,157.146 171.237,157.230 170.917 C 157.314 170.596,157.314 170.071,157.230 169.750 C 157.146 169.429,157.077 169.692,157.077 170.333 M331.417 204.230 C 331.737 204.314,332.262 204.314,332.583 204.230 C 332.904 204.146,332.642 204.077,332.000 204.077 C 331.358 204.077,331.096 204.146,331.417 204.230 M118.417 204.905 C 118.921 204.982,119.746 204.982,120.250 204.905 C 120.754 204.829,120.342 204.767,119.333 204.767 C 118.325 204.767,117.912 204.829,118.417 204.905 M124.653 216.750 C 126.034 218.222,126.333 218.486,126.333 218.236 C 126.333 218.183,125.621 217.470,124.750 216.653 L 123.167 215.167 124.653 216.750 M59.818 227.750 L 58.500 229.167 59.917 227.849 C 61.234 226.624,61.487 226.333,61.234 226.333 C 61.180 226.333,60.542 226.971,59.818 227.750 M194.751 239.500 C 194.754 240.233,194.823 240.494,194.902 240.079 C 194.982 239.665,194.979 239.065,194.896 238.746 C 194.812 238.427,194.747 238.767,194.751 239.500 M228.417 239.239 C 228.921 239.315,229.746 239.315,230.250 239.239 C 230.754 239.162,230.342 239.100,229.333 239.100 C 228.325 239.100,227.912 239.162,228.417 239.239 M328.322 247.250 L 326.500 249.167 328.417 247.345 C 330.197 245.652,330.486 245.333,330.239 245.333 C 330.187 245.333,329.324 246.196,328.322 247.250 M60.372 249.900 C 60.351 250.303,60.071 250.786,59.750 250.973 C 59.429 251.160,59.336 251.318,59.543 251.323 C 60.136 251.339,60.737 250.424,60.566 249.766 C 60.441 249.285,60.403 249.312,60.372 249.900 M338.484 250.750 L 337.167 252.167 338.583 250.849 C 339.362 250.124,340.000 249.487,340.000 249.432 C 340.000 249.180,339.710 249.433,338.484 250.750 M77.760 249.846 C 77.904 250.003,77.679 250.322,77.260 250.554 C 76.842 250.786,76.659 250.982,76.853 250.988 C 77.609 251.013,78.468 250.121,77.967 249.831 C 77.709 249.681,77.617 249.688,77.760 249.846 M72.917 252.521 C 71.679 253.156,70.667 253.751,70.667 253.842 C 70.667 253.991,75.300 251.772,75.639 251.461 C 76.095 251.042,74.865 251.521,72.917 252.521 M205.000 256.833 C 205.622 257.475,206.206 258.000,206.297 258.000 C 206.389 258.000,205.955 257.475,205.333 256.833 C 204.711 256.192,204.128 255.667,204.036 255.667 C 203.944 255.667,204.378 256.192,205.000 256.833 M240.095 257.500 C 240.098 258.417,240.163 258.752,240.239 258.245 C 240.316 257.739,240.314 256.989,240.235 256.579 C 240.156 256.169,240.093 256.583,240.095 257.500 M194.083 256.572 C 194.588 256.648,195.412 256.648,195.917 256.572 C 196.421 256.496,196.008 256.433,195.000 256.433 C 193.992 256.433,193.579 256.496,194.083 256.572 M227.921 273.236 C 228.335 273.315,228.935 273.312,229.254 273.229 C 229.573 273.146,229.233 273.080,228.500 273.084 C 227.767 273.088,227.506 273.156,227.921 273.236 M205.583 273.902 C 205.996 273.981,206.671 273.981,207.083 273.902 C 207.496 273.822,207.158 273.757,206.333 273.757 C 205.508 273.757,205.171 273.822,205.583 273.902 M217.254 273.902 C 217.669 273.982,218.269 273.979,218.587 273.896 C 218.906 273.812,218.567 273.747,217.833 273.751 C 217.100 273.754,216.839 273.823,217.254 273.902 M157.254 289.902 C 157.669 289.982,158.269 289.979,158.587 289.896 C 158.906 289.812,158.567 289.747,157.833 289.751 C 157.100 289.754,156.839 289.823,157.254 289.902 M146.917 290.246 C 147.879 290.313,149.454 290.313,150.417 290.246 C 151.379 290.178,150.592 290.123,148.667 290.123 C 146.742 290.123,145.954 290.178,146.917 290.246 " stroke="none" fill="#62321b" fill-rule="evenodd"></path></g></svg>