<svg xmlns="http://www.w3.org/2000/svg" xmlns:xlink="http://www.w3.org/1999/xlink" width="1000" zoomAndPan="magnify" viewBox="0 0 750 749.999995" height="1000" preserveAspectRatio="xMidYMid meet" version="1.0"><defs><g/></defs><rect x="-75" width="900" fill="#ffffff" y="-74.999999" height="899.999994" fill-opacity="1"/><rect x="-75" width="900" fill="#ffffff" y="-74.999999" height="899.999994" fill-opacity="1"/><g fill="#000000" fill-opacity="1"><g transform="translate(63.546892, 463.468323)"><g><path d="M 67.5 -170.609375 C 83.632812 -170.609375 96.632812 -166.941406 106.5 -159.609375 C 116.363281 -152.273438 121.296875 -142.382812 121.296875 -129.9375 C 121.296875 -121.34375 118.914062 -113.679688 114.15625 -106.953125 C 109.394531 -100.234375 101.71875 -94.226562 91.125 -88.9375 C 103.71875 -82.175781 112.757812 -75.128906 118.25 -67.796875 C 123.738281 -60.460938 126.484375 -52.414062 126.484375 -43.65625 C 126.484375 -29.832031 121.066406 -18.71875 110.234375 -10.3125 C 99.410156 -1.90625 85.164062 2.296875 67.5 2.296875 C 49.070312 2.296875 34.597656 -1.617188 24.078125 -9.453125 C 13.554688 -17.285156 8.296875 -28.378906 8.296875 -42.734375 C 8.296875 -52.335938 10.847656 -60.863281 15.953125 -68.3125 C 21.054688 -75.757812 29.253906 -82.328125 40.546875 -88.015625 C 30.953125 -94.078125 24.039062 -100.5625 19.8125 -107.46875 C 15.59375 -114.382812 13.484375 -121.953125 13.484375 -130.171875 C 13.484375 -142.222656 18.472656 -151.972656 28.453125 -159.421875 C 38.429688 -166.878906 51.445312 -170.609375 67.5 -170.609375 Z M 41.234375 -44.8125 C 41.234375 -38.207031 43.535156 -33.0625 48.140625 -29.375 C 52.753906 -25.6875 59.054688 -23.84375 67.046875 -23.84375 C 75.878906 -23.84375 82.484375 -25.742188 86.859375 -29.546875 C 91.234375 -33.347656 93.421875 -38.359375 93.421875 -44.578125 C 93.421875 -49.722656 91.25 -54.539062 86.90625 -59.03125 C 82.570312 -63.53125 75.53125 -68.3125 65.78125 -73.375 C 49.414062 -65.851562 41.234375 -56.332031 41.234375 -44.8125 Z M 67.28125 -144.578125 C 61.207031 -144.578125 56.304688 -143.019531 52.578125 -139.90625 C 48.859375 -136.789062 47 -132.625 47 -127.40625 C 47 -122.800781 48.476562 -118.671875 51.4375 -115.015625 C 54.394531 -111.367188 59.75 -107.628906 67.5 -103.796875 C 75.03125 -107.328125 80.289062 -110.9375 83.28125 -114.625 C 86.28125 -118.3125 87.78125 -122.570312 87.78125 -127.40625 C 87.78125 -132.707031 85.859375 -136.894531 82.015625 -139.96875 C 78.179688 -143.039062 73.269531 -144.578125 67.28125 -144.578125 Z M 67.28125 -144.578125 "/></g></g><g transform="translate(198.207154, 463.468323)"><g><path d="M 137.3125 0 L 102.171875 0 L 102.171875 -75.21875 C 102.171875 -84.507812 100.519531 -91.476562 97.21875 -96.125 C 93.914062 -100.769531 88.65625 -103.09375 81.4375 -103.09375 C 71.613281 -103.09375 64.507812 -99.8125 60.125 -93.25 C 55.75 -86.6875 53.5625 -75.800781 53.5625 -60.59375 L 53.5625 0 L 18.4375 0 L 18.4375 -128.796875 L 45.265625 -128.796875 L 50 -112.3125 L 51.953125 -112.3125 C 55.867188 -118.53125 61.265625 -123.234375 68.140625 -126.421875 C 75.015625 -129.609375 82.828125 -131.203125 91.578125 -131.203125 C 106.554688 -131.203125 117.921875 -127.148438 125.671875 -119.046875 C 133.429688 -110.953125 137.3125 -99.265625 137.3125 -83.984375 Z M 137.3125 0 "/></g></g><g transform="translate(353.256522, 463.468323)"><g/></g><g transform="translate(414.539038, 463.468323)"><g><path d="M 7.03125 -48.84375 L 7.03125 -77.640625 L 68.890625 -77.640625 L 68.890625 -48.84375 Z M 7.03125 -48.84375 "/></g></g><g transform="translate(490.451024, 463.468323)"><g/></g><g transform="translate(551.73354, 463.468323)"><g><path d="M 70.734375 -107.59375 C 87.015625 -107.59375 99.972656 -103.019531 109.609375 -93.875 C 119.242188 -84.738281 124.0625 -72.222656 124.0625 -56.328125 C 124.0625 -37.515625 118.265625 -23.039062 106.671875 -12.90625 C 95.078125 -2.769531 78.488281 2.296875 56.90625 2.296875 C 38.164062 2.296875 23.035156 -0.734375 11.515625 -6.796875 L 11.515625 -37.546875 C 17.585938 -34.328125 24.65625 -31.695312 32.71875 -29.65625 C 40.78125 -27.625 48.421875 -26.609375 55.640625 -26.609375 C 77.367188 -26.609375 88.234375 -35.515625 88.234375 -53.328125 C 88.234375 -70.304688 76.984375 -78.796875 54.484375 -78.796875 C 50.410156 -78.796875 45.914062 -78.390625 41 -77.578125 C 36.09375 -76.773438 32.101562 -75.914062 29.03125 -75 L 14.859375 -82.59375 L 21.203125 -168.421875 L 112.546875 -168.421875 L 112.546875 -138.234375 L 52.421875 -138.234375 L 49.296875 -105.171875 L 53.328125 -105.984375 C 58.015625 -107.054688 63.816406 -107.59375 70.734375 -107.59375 Z M 70.734375 -107.59375 "/></g></g></g></svg>