<svg xmlns="http://www.w3.org/2000/svg" xmlns:xlink="http://www.w3.org/1999/xlink" width="1000" zoomAndPan="magnify" viewBox="0 0 750 749.999995" height="1000" preserveAspectRatio="xMidYMid meet" version="1.0"><rect x="-75" width="900" fill="#ffffff" y="-74.999999" height="899.999994" fill-opacity="1"/><rect x="-75" width="900" fill="#ffffff" y="-74.999999" height="899.999994" fill-opacity="1"/><path fill="#000000" d="M 312.550781 169.316406 L 309.679688 170.414062 C 307.617188 171.144531 304.671875 171.878906 300.847656 172.609375 C 297.019531 173.339844 292.75 173.855469 288.039062 174.144531 L 283.84375 174.144531 L 283.84375 164.046875 L 288.039062 164.046875 C 294.957031 163.757812 301.363281 162.660156 307.25 160.757812 C 313.140625 158.855469 317.261719 157.097656 319.617188 155.488281 C 321.972656 153.878906 324.03125 152.269531 325.800781 150.660156 C 326.09375 150.21875 326.976562 150 328.449219 150 C 329.773438 150 331.027344 150.4375 332.203125 151.316406 L 332.203125 216.953125 L 332.425781 282.804688 C 333.453125 283.828125 334.335938 284.488281 335.074219 284.78125 C 335.808594 285.074219 337.578125 285.367188 340.375 285.660156 C 343.171875 285.953125 347.734375 286.097656 354.066406 286.097656 L 359.804688 286.097656 L 359.804688 296.195312 L 357.378906 296.195312 C 354.285156 295.757812 342.582031 295.535156 322.265625 295.535156 C 302.246094 295.535156 290.6875 295.757812 287.597656 296.195312 L 284.945312 296.195312 L 284.945312 286.097656 L 290.6875 286.097656 C 293.925781 286.097656 296.722656 286.097656 299.078125 286.097656 C 301.433594 286.097656 303.273438 286.023438 304.601562 285.878906 C 305.925781 285.730469 307.101562 285.511719 308.132812 285.21875 C 309.164062 284.925781 309.753906 284.78125 309.898438 284.78125 C 310.046875 284.78125 310.488281 284.414062 311.226562 283.683594 C 311.960938 282.953125 312.402344 282.660156 312.550781 282.804688 Z M 312.550781 169.316406 " fill-opacity="1" fill-rule="nonzero"/><path fill="#000000" d="M 397.125 167.78125 C 405.371094 155.925781 416.632812 150 430.910156 150 C 437.976562 150 445.042969 151.902344 452.109375 155.707031 C 459.175781 159.511719 464.917969 166.242188 469.335938 175.902344 C 474.78125 188.046875 477.503906 204.730469 477.503906 225.953125 C 477.503906 248.632812 474.339844 265.976562 468.011719 277.976562 C 465.066406 284.121094 461.015625 289.023438 455.863281 292.683594 C 450.710938 296.339844 446.222656 298.609375 442.394531 299.488281 C 438.566406 300.367188 434.8125 300.878906 431.132812 301.023438 C 427.304688 301.023438 423.476562 300.585938 419.648438 299.707031 C 415.820312 298.828125 411.332031 296.488281 406.179688 292.683594 C 401.027344 288.878906 396.976562 283.976562 394.035156 277.976562 C 387.703125 265.976562 384.539062 248.632812 384.539062 225.953125 C 384.539062 200.488281 388.734375 181.097656 397.125 167.78125 Z M 446.8125 165.144531 C 442.394531 160.464844 437.167969 158.121094 431.132812 158.121094 C 424.949219 158.121094 419.648438 160.464844 415.234375 165.144531 C 411.554688 168.953125 409.125 174.21875 407.945312 180.953125 C 406.769531 187.683594 406.179688 201.730469 406.179688 223.097656 C 406.179688 246.21875 406.769531 261.4375 407.945312 268.757812 C 409.125 276.074219 411.773438 281.855469 415.894531 286.097656 C 420.019531 290.488281 425.097656 292.683594 431.132812 292.683594 C 437.019531 292.683594 442.027344 290.488281 446.148438 286.097656 C 450.417969 281.707031 453.066406 275.5625 454.097656 267.660156 C 455.128906 259.757812 455.71875 244.902344 455.863281 223.097656 C 455.863281 201.878906 455.277344 187.902344 454.097656 181.171875 C 452.921875 174.4375 450.492188 169.097656 446.8125 165.144531 Z M 446.8125 165.144531 " fill-opacity="1" fill-rule="nonzero"/><path fill="#000000" d="M 312.550781 468.292969 L 309.679688 469.390625 C 307.617188 470.121094 304.671875 470.855469 300.847656 471.585938 C 297.019531 472.316406 292.75 472.828125 288.039062 473.121094 L 283.84375 473.121094 L 283.84375 463.023438 L 288.039062 463.023438 C 294.957031 462.730469 301.363281 461.632812 307.25 459.730469 C 313.140625 457.828125 317.261719 456.074219 319.617188 454.464844 C 321.972656 452.855469 324.03125 451.242188 325.800781 449.632812 C 326.09375 449.195312 326.976562 448.976562 328.449219 448.976562 C 329.773438 448.976562 331.027344 449.414062 332.203125 450.292969 L 332.203125 515.925781 L 332.425781 581.78125 C 333.453125 582.804688 334.335938 583.464844 335.074219 583.757812 C 335.808594 584.046875 337.578125 584.339844 340.375 584.632812 C 343.171875 584.925781 347.734375 585.074219 354.066406 585.074219 L 359.804688 585.074219 L 359.804688 595.171875 L 357.378906 595.171875 C 354.285156 594.730469 342.582031 594.511719 322.265625 594.511719 C 302.246094 594.511719 290.6875 594.730469 287.597656 595.171875 L 284.945312 595.171875 L 284.945312 585.074219 L 290.6875 585.074219 C 293.925781 585.074219 296.722656 585.074219 299.078125 585.074219 C 301.433594 585.074219 303.273438 585 304.601562 584.855469 C 305.925781 584.707031 307.101562 584.488281 308.132812 584.195312 C 309.164062 583.902344 309.753906 583.757812 309.898438 583.757812 C 310.046875 583.757812 310.488281 583.390625 311.226562 582.660156 C 311.960938 581.925781 312.402344 581.632812 312.550781 581.78125 Z M 312.550781 468.292969 " fill-opacity="1" fill-rule="nonzero"/><path fill="#000000" d="M 385.199219 526.464844 C 385.199219 502.609375 391.164062 483.730469 403.085938 469.828125 C 415.011719 455.925781 428.261719 448.976562 442.835938 448.976562 C 452.996094 448.976562 460.28125 451.609375 464.699219 456.878906 C 469.113281 462.144531 471.324219 468 471.324219 474.4375 C 471.324219 478.097656 470.292969 481.023438 468.230469 483.21875 C 466.171875 485.414062 463.300781 486.511719 459.617188 486.511719 C 456.234375 486.511719 453.4375 485.488281 451.226562 483.4375 C 449.019531 481.390625 447.914062 478.535156 447.914062 474.878906 C 447.914062 468.4375 451.375 464.5625 458.292969 463.242188 C 455.054688 460.023438 450.492188 458.195312 444.601562 457.757812 C 434.152344 457.757812 425.539062 462.144531 418.765625 470.925781 C 411.847656 480.585938 408.386719 495.367188 408.386719 515.269531 L 408.609375 516.144531 C 409.34375 515.269531 409.933594 514.316406 410.375 513.292969 C 416.410156 504.511719 424.285156 500.121094 434.003906 500.121094 L 434.886719 500.121094 C 441.660156 500.121094 447.621094 501.511719 452.773438 504.292969 C 456.304688 506.339844 459.839844 509.269531 463.371094 513.074219 C 466.90625 516.878906 469.777344 521.046875 471.984375 525.585938 C 475.078125 532.757812 476.621094 540.585938 476.621094 549.074219 L 476.621094 553.023438 C 476.621094 556.390625 476.253906 559.535156 475.519531 562.464844 C 473.898438 571.097656 469.1875 579.511719 461.386719 587.707031 C 453.582031 595.902344 443.71875 600 431.796875 600 C 427.671875 600 423.699219 599.414062 419.871094 598.242188 C 416.042969 597.074219 411.921875 594.878906 407.503906 591.660156 C 403.085938 588.4375 399.332031 584.121094 396.242188 578.707031 C 393.152344 573.292969 390.5 566.195312 388.292969 557.414062 C 386.085938 548.632812 385.054688 538.316406 385.199219 526.464844 Z M 432.679688 508.023438 C 428.261719 508.023438 424.433594 509.269531 421.195312 511.757812 C 417.957031 514.242188 415.453125 517.535156 413.6875 521.632812 C 411.921875 525.730469 410.667969 529.902344 409.933594 534.144531 C 409.199219 538.390625 408.753906 542.925781 408.609375 547.757812 C 408.609375 559.902344 409.492188 568.609375 411.257812 573.878906 C 413.023438 579.144531 415.820312 583.390625 419.648438 586.609375 C 423.183594 589.242188 427.085938 590.5625 431.351562 590.5625 C 438.863281 590.5625 444.601562 587.78125 448.578125 582.21875 C 450.492188 579.585938 451.816406 576.292969 452.550781 572.339844 C 453.289062 568.390625 453.65625 560.707031 453.65625 549.292969 C 453.65625 537.585938 453.289062 529.757812 452.550781 525.804688 C 451.816406 521.855469 450.492188 518.5625 448.578125 515.925781 C 444.601562 510.660156 439.304688 508.023438 432.679688 508.023438 Z M 432.679688 508.023438 " fill-opacity="1" fill-rule="nonzero"/><path fill="#000000" d="M 243.433594 396.292969 L 508.421875 396.292969 L 508.421875 383.121094 L 243.433594 383.121094 Z M 243.433594 396.292969 " fill-opacity="1" fill-rule="nonzero"/></svg>