<svg xmlns="http://www.w3.org/2000/svg" xmlns:xlink="http://www.w3.org/1999/xlink" width="1000" zoomAndPan="magnify" viewBox="0 0 750 749.999995" height="1000" preserveAspectRatio="xMidYMid meet" version="1.0"><defs><clipPath id="bf3b56c907"><path d="M 414 261.25 L 619 261.25 L 619 488.75 L 414 488.75 Z M 414 261.25 " clip-rule="nonzero"/></clipPath></defs><rect x="-75" width="900" fill="#ffffff" y="-74.999999" height="899.999994" fill-opacity="1"/><rect x="-75" width="900" fill="#ffffff" y="-74.999999" height="899.999994" fill-opacity="1"/><path fill="#000000" d="M 147.109375 351.855469 C 142.023438 351.855469 137.972656 350.160156 134.957031 346.773438 C 131.945312 343.386719 130.4375 339.246094 130.4375 334.355469 C 130.4375 320.996094 135.429688 309.421875 145.414062 299.636719 C 155.394531 289.851562 167.828125 284.960938 182.707031 284.960938 C 199.847656 284.960938 214.164062 290.226562 225.65625 300.765625 C 237.144531 311.304688 242.984375 324.945312 243.171875 341.695312 C 243.171875 349.785156 241.289062 357.5 237.523438 364.839844 C 233.753906 372.175781 229.234375 378.574219 223.960938 384.03125 C 218.6875 389.488281 211.152344 396.453125 201.355469 404.917969 C 194.574219 410.753906 185.15625 419.410156 173.101562 430.886719 L 156.429688 446.695312 L 177.90625 446.976562 C 207.476562 446.976562 223.207031 446.503906 225.089844 445.566406 C 226.410156 445.1875 228.667969 436.816406 231.871094 420.445312 L 231.871094 419.597656 L 243.171875 419.597656 L 243.171875 420.445312 C 242.984375 421.007812 241.761719 429.570312 239.5 446.128906 C 237.238281 462.6875 235.828125 471.34375 235.261719 472.097656 L 235.261719 472.945312 L 130.4375 472.945312 L 130.4375 464.195312 C 130.4375 462.875 131.003906 461.464844 132.132812 459.960938 C 133.261719 458.453125 136.089844 455.160156 140.609375 450.082031 C 146.070312 444.058594 150.78125 438.789062 154.738281 434.273438 C 156.429688 432.390625 159.632812 428.910156 164.34375 423.832031 C 169.050781 418.75 172.253906 415.269531 173.949219 413.386719 C 175.644531 411.503906 178.375 408.402344 182.144531 404.074219 C 185.910156 399.746094 188.546875 396.546875 190.054688 394.476562 C 191.5625 392.40625 193.726562 389.582031 196.554688 386.007812 C 199.378906 382.433594 201.355469 379.421875 202.488281 376.976562 C 203.617188 374.53125 205.027344 371.800781 206.722656 368.789062 C 208.417969 365.78125 209.644531 362.769531 210.398438 359.757812 C 211.152344 356.746094 211.808594 353.925781 212.375 351.289062 C 212.941406 348.65625 213.222656 345.550781 213.222656 341.976562 C 213.222656 330.121094 210.019531 319.867188 203.617188 311.210938 C 197.210938 302.554688 188.078125 298.226562 176.210938 298.226562 C 169.992188 298.226562 164.53125 299.824219 159.820312 303.023438 C 155.113281 306.222656 151.816406 309.328125 149.933594 312.339844 C 148.050781 315.347656 147.109375 317.136719 147.109375 317.703125 C 147.109375 317.890625 147.578125 317.984375 148.519531 317.984375 C 151.910156 317.984375 155.394531 319.300781 158.972656 321.933594 C 162.554688 324.570312 164.34375 328.898438 164.34375 334.917969 C 164.34375 339.625 162.835938 343.574219 159.820312 346.773438 C 156.808594 349.972656 152.570312 351.667969 147.109375 351.855469 Z M 147.109375 351.855469 " fill-opacity="1" fill-rule="nonzero"/><path fill="#000000" d="M 303.921875 428.628906 C 303.921875 433.144531 302.414062 436.910156 299.398438 439.917969 C 296.386719 442.929688 292.710938 444.433594 288.378906 444.433594 L 286.402344 444.433594 C 295.066406 459.300781 306.558594 466.734375 320.871094 466.734375 C 334.058594 466.734375 343.664062 461.089844 349.691406 449.796875 C 353.269531 443.589844 355.0625 431.546875 355.0625 413.667969 C 355.0625 394.289062 352.519531 381.210938 347.433594 374.433594 C 342.535156 368.226562 337.070312 365.121094 331.042969 365.121094 L 329.347656 365.121094 C 314.65625 365.121094 303.542969 371.519531 296.007812 384.316406 C 295.253906 385.632812 294.597656 386.382812 294.03125 386.574219 C 293.464844 386.761719 292.054688 386.949219 289.792969 387.136719 C 286.589844 387.136719 284.800781 386.574219 284.425781 385.445312 C 284.046875 384.691406 283.859375 368.226562 283.859375 336.046875 L 283.859375 299.636719 C 283.859375 290.226562 284.332031 285.523438 285.273438 285.523438 C 285.648438 285.148438 286.027344 284.960938 286.402344 284.960938 C 286.589844 284.960938 288.570312 285.710938 292.335938 287.21875 C 296.101562 288.722656 301.28125 290.226562 307.875 291.734375 C 314.46875 293.238281 321.53125 293.992188 329.066406 293.992188 C 342.441406 293.992188 355.25 291.359375 367.492188 286.089844 C 369 285.335938 370.222656 284.960938 371.164062 284.960938 C 372.671875 284.960938 373.425781 286.652344 373.425781 290.039062 L 373.425781 293.710938 C 357.980469 311.960938 338.671875 321.089844 315.503906 321.089844 C 309.664062 321.089844 304.390625 320.523438 299.683594 319.394531 L 296.855469 318.832031 L 296.855469 367.378906 C 300.433594 364.746094 303.261719 362.675781 305.332031 361.167969 C 307.40625 359.664062 310.796875 358.160156 315.503906 356.652344 C 320.214844 355.148438 325.015625 354.394531 329.914062 354.394531 C 345.171875 354.394531 358.074219 360.511719 368.621094 372.742188 C 379.171875 384.972656 384.445312 399.460938 384.445312 416.210938 C 384.445312 433.523438 378.417969 448.292969 366.363281 460.523438 C 354.308594 472.753906 339.613281 478.964844 322.285156 479.152344 C 307.027344 479.152344 294.785156 474.074219 285.554688 463.910156 C 276.324219 453.75 271.710938 442.273438 271.710938 429.476562 C 271.710938 424.960938 272.746094 421.382812 274.816406 418.75 C 276.890625 416.117188 279.054688 414.421875 281.316406 413.667969 C 283.578125 412.917969 285.742188 412.539062 287.816406 412.539062 C 292.523438 412.539062 296.386719 414.140625 299.398438 417.339844 C 302.414062 420.539062 303.921875 424.300781 303.921875 428.628906 Z M 303.921875 428.628906 " fill-opacity="1" fill-rule="nonzero"/><g clip-path="url(#bf3b56c907)"><path fill="#000000" d="M 530.238281 302.175781 C 523.269531 302.175781 516.582031 301.332031 510.175781 299.636719 C 503.773438 297.945312 498.6875 296.25 494.921875 294.554688 C 491.152344 292.863281 489.175781 292.015625 488.988281 292.015625 C 491.433594 298.226562 492.660156 306.976562 492.660156 318.265625 C 492.660156 335.203125 488.988281 348.84375 481.640625 359.195312 C 474.292969 369.542969 465.722656 374.8125 455.929688 375 C 445.191406 375 435.679688 369.824219 427.390625 359.476562 C 419.105469 349.125 414.867188 335.390625 414.675781 318.265625 C 414.675781 301.519531 418.914062 287.875 427.390625 277.339844 C 435.867188 266.800781 445.378906 261.4375 455.929688 261.25 C 463.273438 261.25 469.867188 264.167969 475.707031 270 C 492.09375 284.488281 510.175781 291.734375 529.957031 291.734375 C 551.804688 291.734375 569.324219 283.265625 582.507812 266.332031 C 584.769531 263.320312 586.464844 261.71875 587.59375 261.53125 C 587.972656 261.34375 588.441406 261.25 589.007812 261.25 C 590.703125 261.25 592.117188 261.910156 593.246094 263.226562 C 594.375 264.542969 594.847656 266.140625 594.660156 268.023438 C 497.652344 413.480469 448.394531 486.679688 446.886719 487.621094 C 446.132812 488.375 445.191406 488.75 444.0625 488.75 C 441.613281 488.75 439.917969 487.714844 438.976562 485.644531 C 438.035156 483.953125 438.035156 482.257812 438.976562 480.566406 C 439.164062 480 459.980469 448.859375 501.417969 387.136719 C 521.386719 357.40625 536.644531 334.636719 547.191406 318.832031 C 557.738281 303.023438 563.011719 295.121094 563.011719 295.121094 C 553.03125 299.824219 542.105469 302.175781 530.238281 302.175781 Z M 457.339844 364.273438 C 462.617188 364.273438 467.890625 360.324219 473.164062 352.417969 C 478.4375 344.515625 481.167969 333.132812 481.359375 318.265625 C 481.359375 305.28125 479.003906 294.367188 474.292969 285.523438 C 469.585938 276.679688 463.273438 272.164062 455.363281 271.976562 C 454.046875 271.976562 452.726562 272.257812 451.410156 272.824219 C 450.089844 273.386719 448.300781 274.421875 446.039062 275.925781 C 443.78125 277.433594 441.894531 280.253906 440.390625 284.394531 C 438.882812 288.535156 437.65625 293.523438 436.714844 299.355469 C 436.339844 303.117188 436.152344 309.421875 436.152344 318.265625 L 436.152344 324.195312 C 436.152344 341.316406 439.257812 352.984375 445.476562 359.195312 C 448.867188 362.582031 452.445312 364.273438 456.210938 364.273438 Z M 540.128906 431.734375 C 540.128906 415.175781 544.269531 401.625 552.558594 391.089844 C 560.847656 380.550781 570.546875 375.1875 581.660156 375 C 591.457031 375 599.933594 380.175781 607.089844 390.523438 C 614.25 400.875 617.921875 414.609375 618.109375 431.734375 C 618.296875 448.859375 614.625 462.59375 607.089844 472.945312 C 599.554688 483.292969 590.984375 488.5625 581.378906 488.75 C 570.832031 488.75 561.316406 483.480469 552.84375 472.945312 C 544.367188 462.40625 540.128906 448.667969 540.128906 431.734375 Z M 582.792969 478.023438 C 588.066406 478.023438 593.339844 474.074219 598.613281 466.167969 C 603.886719 458.265625 606.621094 446.789062 606.808594 431.734375 C 606.808594 418.75 604.453125 407.835938 599.746094 398.992188 C 595.035156 390.148438 588.726562 385.726562 580.8125 385.726562 C 579.496094 385.726562 578.175781 386.007812 576.859375 386.574219 C 575.539062 387.136719 573.75 388.171875 571.488281 389.675781 C 569.230469 391.183594 567.347656 394.003906 565.839844 398.144531 C 564.332031 402.285156 563.109375 407.273438 562.164062 413.105469 C 561.976562 415.363281 561.882812 421.574219 561.882812 431.734375 L 561.882812 437.945312 C 561.882812 464.664062 568.476562 478.023438 581.660156 478.023438 Z M 582.792969 478.023438 " fill-opacity="1" fill-rule="nonzero"/></g></svg>