<svg xmlns="http://www.w3.org/2000/svg" xmlns:xlink="http://www.w3.org/1999/xlink" width="1000" zoomAndPan="magnify" viewBox="0 0 750 749.999995" height="1000" preserveAspectRatio="xMidYMid meet" version="1.0"><rect x="-75" width="900" fill="#ffffff" y="-74.999999" height="899.999994" fill-opacity="1"/><rect x="-75" width="900" fill="#ffffff" y="-74.999999" height="899.999994" fill-opacity="1"/><path fill="#000000" d="M 356.007812 261.730469 C 356.007812 265.242188 354.839844 268.171875 352.5 270.511719 C 350.160156 272.855469 347.308594 274.023438 343.945312 274.023438 L 342.414062 274.023438 C 349.136719 285.585938 358.054688 291.367188 369.164062 291.367188 C 379.398438 291.367188 386.855469 286.976562 391.535156 278.195312 C 394.3125 273.367188 395.699219 264 395.699219 250.097656 C 395.699219 235.023438 393.726562 224.855469 389.78125 219.585938 C 385.976562 214.757812 381.738281 212.339844 377.0625 212.339844 L 375.746094 212.339844 C 364.339844 212.339844 355.714844 217.316406 349.867188 227.269531 C 349.285156 228.292969 348.773438 228.878906 348.332031 229.023438 C 347.894531 229.171875 346.796875 229.316406 345.042969 229.464844 C 342.558594 229.464844 341.167969 229.023438 340.878906 228.144531 C 340.585938 227.5625 340.4375 214.757812 340.4375 189.730469 L 340.4375 161.414062 C 340.4375 154.097656 340.804688 150.4375 341.535156 150.4375 C 341.828125 150.144531 342.121094 150 342.414062 150 C 342.558594 150 344.09375 150.585938 347.015625 151.757812 C 349.941406 152.925781 353.960938 154.097656 359.078125 155.269531 C 364.195312 156.4375 369.675781 157.023438 375.527344 157.023438 C 385.90625 157.023438 395.847656 154.976562 405.347656 150.878906 C 406.519531 150.292969 407.46875 150 408.199219 150 C 409.371094 150 409.953125 151.316406 409.953125 153.953125 L 409.953125 156.804688 C 397.964844 171 382.980469 178.097656 365 178.097656 C 360.46875 178.097656 356.375 177.660156 352.71875 176.78125 L 350.527344 176.339844 L 350.527344 214.097656 C 353.304688 212.046875 355.496094 210.4375 357.105469 209.269531 C 358.714844 208.097656 361.34375 206.925781 365 205.757812 C 368.65625 204.585938 372.382812 204 376.183594 204 C 388.023438 204 398.039062 208.757812 406.226562 218.269531 C 414.414062 227.78125 418.507812 239.046875 418.507812 252.074219 C 418.507812 265.535156 413.828125 277.023438 404.472656 286.535156 C 395.117188 296.046875 383.710938 300.878906 370.261719 301.023438 C 358.421875 301.023438 348.917969 297.074219 341.753906 289.171875 C 334.589844 281.269531 331.007812 272.339844 331.007812 262.390625 C 331.007812 258.878906 331.8125 256.097656 333.421875 254.046875 C 335.03125 252 336.710938 250.683594 338.464844 250.097656 C 340.21875 249.511719 341.902344 249.21875 343.507812 249.21875 C 347.164062 249.21875 350.160156 250.464844 352.5 252.953125 C 354.839844 255.4375 356.007812 258.367188 356.007812 261.730469 Z M 356.007812 261.730469 " fill-opacity="1" fill-rule="nonzero"/><path fill="#000000" d="M 335.394531 503.632812 C 335.394531 503.632812 335.394531 498 335.394531 486.730469 C 335.394531 475.464844 339.34375 466.390625 347.238281 459.511719 C 355.132812 452.632812 364.195312 449.121094 374.429688 448.976562 C 384.808594 448.976562 394.019531 452.046875 402.058594 458.195312 C 410.101562 464.339844 414.121094 472.316406 414.121094 482.121094 C 414.121094 486.511719 413.316406 490.609375 411.707031 494.414062 C 410.101562 498.21875 408.199219 501.292969 406.007812 503.632812 C 403.8125 505.976562 401.546875 508.023438 399.210938 509.78125 C 396.871094 511.535156 394.96875 512.855469 393.507812 513.730469 C 392.046875 514.609375 391.242188 515.195312 391.09375 515.488281 L 394.164062 517.464844 C 396.210938 518.925781 398.257812 520.390625 400.304688 521.855469 C 402.351562 523.316406 403.523438 524.121094 403.8125 524.269531 C 414.777344 532.902344 420.261719 543.804688 420.261719 556.976562 C 420.261719 568.535156 416.023438 578.5625 407.542969 587.046875 C 399.0625 595.535156 388.097656 599.855469 374.648438 600 C 361.492188 600 350.671875 596.269531 342.191406 588.804688 C 333.714844 581.339844 329.472656 572.121094 329.472656 561.144531 C 329.472656 545.339844 338.902344 532.171875 357.761719 521.632812 L 353.816406 518.78125 C 350.746094 516.878906 348.773438 515.414062 347.894531 514.390625 C 339.5625 507.21875 335.394531 498 335.394531 486.730469 Z M 382.761719 510.4375 L 384.078125 509.5625 C 384.957031 508.976562 385.613281 508.535156 386.050781 508.242188 C 386.488281 507.953125 387.222656 507.4375 388.246094 506.707031 C 389.269531 505.976562 390.144531 505.242188 390.875 504.511719 C 391.605469 503.78125 392.410156 502.902344 393.289062 501.878906 C 394.164062 500.855469 394.96875 499.902344 395.699219 499.023438 C 396.429688 498.144531 397.164062 496.976562 397.894531 495.511719 C 398.625 494.046875 399.28125 492.804688 399.867188 491.78125 C 400.453125 490.757812 400.816406 489.292969 400.964844 487.390625 C 401.109375 485.488281 401.257812 483.878906 401.402344 482.5625 C 401.402344 476.269531 399.28125 470.925781 395.042969 466.535156 C 390.804688 462.144531 385.90625 459.367188 380.351562 458.195312 C 379.328125 458.046875 376.914062 457.976562 373.113281 457.976562 C 367.121094 457.976562 361.492188 459.878906 356.226562 463.683594 C 350.964844 467.488281 348.261719 472.242188 348.113281 477.953125 C 348.113281 481.316406 349.0625 484.390625 350.964844 487.171875 C 352.863281 489.953125 354.765625 492.074219 356.667969 493.535156 C 358.566406 495 362.222656 497.339844 367.632812 500.5625 C 368.65625 501.292969 369.457031 501.804688 370.042969 502.097656 Z M 374.867188 590.5625 C 383.347656 590.5625 390.65625 588.074219 396.796875 583.097656 C 402.9375 578.121094 406.007812 572.121094 406.007812 565.097656 C 406.007812 562.609375 405.640625 560.269531 404.910156 558.074219 C 404.179688 555.878906 403.300781 554.046875 402.28125 552.585938 C 401.257812 551.121094 399.648438 549.511719 397.453125 547.757812 C 395.261719 546 393.582031 544.683594 392.410156 543.804688 C 391.242188 542.925781 389.121094 541.535156 386.050781 539.632812 C 382.980469 537.730469 381.007812 536.488281 380.128906 535.902344 C 378.082031 534.585938 375.890625 533.195312 373.550781 531.730469 C 371.210938 530.269531 369.3125 529.023438 367.851562 528 L 366.097656 526.902344 C 365.21875 526.902344 363.097656 528.144531 359.738281 530.632812 C 356.375 533.121094 352.863281 537.144531 349.210938 542.707031 C 345.554688 548.269531 343.65625 554.269531 343.507812 560.707031 C 343.507812 569.339844 346.652344 576.4375 352.9375 582 C 359.226562 587.5625 366.535156 590.414062 374.867188 590.5625 Z M 374.867188 590.5625 " fill-opacity="1" fill-rule="nonzero"/><path fill="#000000" d="M 298.113281 396.292969 L 451.621094 396.292969 L 451.621094 383.121094 L 298.113281 383.121094 Z M 298.113281 396.292969 " fill-opacity="1" fill-rule="nonzero"/></svg>