<svg xmlns="http://www.w3.org/2000/svg" xmlns:xlink="http://www.w3.org/1999/xlink" width="1000" zoomAndPan="magnify" viewBox="0 0 750 749.999995" height="1000" preserveAspectRatio="xMidYMid meet" version="1.0"><rect x="-75" width="900" fill="#ffffff" y="-74.999999" height="899.999994" fill-opacity="1"/><rect x="-75" width="900" fill="#ffffff" y="-74.999999" height="899.999994" fill-opacity="1"/><path fill="#000000" d="M 312.25 170.765625 L 309.363281 171.867188 C 307.292969 172.601562 304.335938 173.335938 300.488281 174.074219 C 296.644531 174.808594 292.355469 175.324219 287.621094 175.617188 L 283.40625 175.617188 L 283.40625 165.472656 L 287.621094 165.472656 C 294.574219 165.175781 301.007812 164.074219 306.921875 162.164062 C 312.839844 160.25 316.980469 158.488281 319.347656 156.871094 C 321.714844 155.253906 323.785156 153.632812 325.5625 152.015625 C 325.855469 151.574219 326.746094 151.355469 328.222656 151.355469 C 329.554688 151.355469 330.8125 151.796875 331.996094 152.679688 L 331.996094 218.625 L 332.21875 284.792969 C 333.253906 285.820312 334.140625 286.484375 334.878906 286.777344 C 335.621094 287.070312 337.394531 287.367188 340.203125 287.660156 C 343.015625 287.953125 347.601562 288.101562 353.960938 288.101562 L 359.730469 288.101562 L 359.730469 298.246094 L 357.289062 298.246094 C 354.183594 297.804688 342.421875 297.585938 322.011719 297.585938 C 301.894531 297.585938 290.28125 297.804688 287.175781 298.246094 L 284.515625 298.246094 L 284.515625 288.101562 L 290.28125 288.101562 C 293.535156 288.101562 296.347656 288.101562 298.714844 288.101562 C 301.082031 288.101562 302.929688 288.027344 304.261719 287.878906 C 305.59375 287.734375 306.777344 287.511719 307.8125 287.21875 C 308.847656 286.925781 309.4375 286.777344 309.585938 286.777344 C 309.734375 286.777344 310.175781 286.410156 310.917969 285.675781 C 311.65625 284.9375 312.101562 284.644531 312.25 284.792969 Z M 312.25 170.765625 " fill-opacity="1" fill-rule="nonzero"/><path fill="#000000" d="M 412.3125 263.617188 C 412.3125 267.148438 411.128906 270.089844 408.765625 272.441406 C 406.398438 274.792969 403.511719 275.96875 400.109375 275.96875 L 398.558594 275.96875 C 405.363281 287.585938 414.386719 293.394531 425.625 293.394531 C 435.980469 293.394531 443.523438 288.984375 448.257812 280.160156 C 451.066406 275.308594 452.472656 265.898438 452.472656 251.929688 C 452.472656 236.785156 450.476562 226.566406 446.484375 221.273438 C 442.636719 216.417969 438.347656 213.992188 433.613281 213.992188 L 432.28125 213.992188 C 420.746094 213.992188 412.019531 218.992188 406.101562 228.992188 C 405.511719 230.019531 404.992188 230.609375 404.546875 230.757812 C 404.105469 230.902344 402.996094 231.050781 401.21875 231.195312 C 398.707031 231.195312 397.300781 230.757812 397.003906 229.875 C 396.707031 229.285156 396.5625 216.417969 396.5625 191.277344 L 396.5625 162.824219 C 396.5625 155.472656 396.929688 151.796875 397.671875 151.796875 C 397.964844 151.503906 398.261719 151.355469 398.558594 151.355469 C 398.707031 151.355469 400.257812 151.945312 403.21875 153.121094 C 406.175781 154.296875 410.242188 155.472656 415.421875 156.648438 C 420.597656 157.824219 426.144531 158.414062 432.0625 158.414062 C 442.5625 158.414062 452.621094 156.355469 462.234375 152.238281 C 463.417969 151.648438 464.378906 151.355469 465.121094 151.355469 C 466.304688 151.355469 466.894531 152.679688 466.894531 155.324219 L 466.894531 158.191406 C 454.765625 172.457031 439.605469 179.585938 421.410156 179.585938 C 416.824219 179.585938 412.683594 179.144531 408.984375 178.261719 L 406.765625 177.824219 L 406.765625 215.757812 C 409.578125 213.699219 411.796875 212.082031 413.421875 210.90625 C 415.050781 209.730469 417.714844 208.554688 421.410156 207.378906 C 425.109375 206.199219 428.878906 205.613281 432.726562 205.613281 C 444.707031 205.613281 454.839844 210.390625 463.125 219.949219 C 471.40625 229.507812 475.546875 240.828125 475.546875 253.914062 C 475.546875 267.441406 470.816406 278.984375 461.347656 288.542969 C 451.882812 298.097656 440.34375 302.953125 426.734375 303.097656 C 414.753906 303.097656 405.140625 299.128906 397.890625 291.1875 C 390.644531 283.25 387.019531 274.277344 387.019531 264.28125 C 387.019531 260.75 387.832031 257.957031 389.460938 255.898438 C 391.089844 253.839844 392.789062 252.515625 394.5625 251.929688 C 396.339844 251.339844 398.039062 251.046875 399.667969 251.046875 C 403.363281 251.046875 406.398438 252.296875 408.765625 254.796875 C 411.128906 257.296875 412.3125 260.238281 412.3125 263.617188 Z M 412.3125 263.617188 " fill-opacity="1" fill-rule="nonzero"/><path fill="#000000" d="M 289.171875 504.027344 C 285.179688 504.027344 282 502.703125 279.632812 500.054688 C 277.265625 497.410156 276.082031 494.175781 276.082031 490.351562 C 276.082031 479.910156 280.003906 470.867188 287.84375 463.222656 C 295.683594 455.578125 305.445312 451.753906 317.128906 451.753906 C 330.589844 451.753906 341.832031 455.871094 350.855469 464.105469 C 359.878906 472.339844 364.464844 483 364.609375 496.085938 C 364.609375 502.410156 363.132812 508.4375 360.171875 514.171875 C 357.214844 519.90625 353.664062 524.90625 349.523438 529.167969 C 345.382812 533.433594 339.464844 538.875 331.773438 545.492188 C 326.449219 550.046875 319.050781 556.8125 309.585938 565.78125 L 296.496094 578.132812 L 313.359375 578.351562 C 336.582031 578.351562 348.933594 577.984375 350.410156 577.25 C 351.445312 576.957031 353.222656 570.414062 355.734375 557.621094 L 355.734375 556.960938 L 364.609375 556.960938 L 364.609375 557.621094 C 364.464844 558.0625 363.5 564.753906 361.726562 577.691406 C 359.953125 590.632812 358.84375 597.394531 358.398438 597.984375 L 358.398438 598.644531 L 276.082031 598.644531 L 276.082031 591.808594 C 276.082031 590.777344 276.527344 589.675781 277.414062 588.5 C 278.300781 587.324219 280.519531 584.75 284.070312 580.78125 C 288.359375 576.074219 292.058594 571.957031 295.164062 568.429688 C 296.496094 566.957031 299.011719 564.238281 302.707031 560.265625 C 306.40625 556.296875 308.921875 553.578125 310.25 552.105469 C 311.582031 550.636719 313.726562 548.210938 316.6875 544.828125 C 319.644531 541.445312 321.714844 538.945312 322.898438 537.328125 C 324.082031 535.710938 325.78125 533.507812 328 530.714844 C 330.21875 527.917969 331.773438 525.566406 332.660156 523.65625 C 333.546875 521.742188 334.65625 519.613281 335.988281 517.257812 C 337.320312 514.90625 338.28125 512.554688 338.875 510.203125 C 339.464844 507.847656 339.984375 505.644531 340.425781 503.585938 C 340.871094 501.527344 341.09375 499.101562 341.09375 496.304688 C 341.09375 487.042969 338.578125 479.027344 333.546875 472.265625 C 328.519531 465.5 321.34375 462.121094 312.027344 462.121094 C 307.144531 462.121094 302.855469 463.371094 299.15625 465.871094 C 295.460938 468.367188 292.871094 470.796875 291.390625 473.148438 C 289.914062 475.5 289.171875 476.898438 289.171875 477.339844 C 289.171875 477.484375 289.542969 477.558594 290.28125 477.558594 C 292.945312 477.558594 295.683594 478.589844 298.492188 480.648438 C 301.300781 482.707031 302.707031 486.085938 302.707031 490.792969 C 302.707031 494.46875 301.523438 497.554688 299.15625 500.054688 C 296.792969 502.554688 293.464844 503.878906 289.171875 504.027344 Z M 289.171875 504.027344 " fill-opacity="1" fill-rule="nonzero"/><path fill="#000000" d="M 478.433594 598.644531 C 475.769531 598.203125 466.230469 597.984375 449.8125 597.984375 C 432.652344 597.984375 422.742188 598.203125 420.078125 598.644531 L 418.082031 598.644531 L 418.082031 588.5 L 424.960938 588.5 C 427.917969 588.5 429.917969 588.5 430.953125 588.5 C 431.988281 588.5 433.246094 588.351562 434.722656 588.058594 C 436.203125 587.761719 437.238281 587.394531 437.828125 586.953125 C 438.421875 586.515625 438.9375 585.925781 439.382812 585.191406 C 439.53125 584.894531 439.605469 580.925781 439.605469 573.28125 L 439.605469 562.253906 L 382.140625 562.253906 L 382.140625 552.105469 L 415.640625 501.160156 C 438.273438 467.046875 449.738281 449.914062 450.03125 449.769531 C 450.328125 449.476562 451.882812 449.328125 454.691406 449.328125 L 458.6875 449.328125 L 460.015625 450.652344 L 460.015625 552.105469 L 480.429688 552.105469 L 480.429688 562.253906 L 460.015625 562.253906 L 460.015625 573.5 C 460.015625 579.53125 460.015625 583.058594 460.015625 584.085938 C 460.015625 585.117188 460.460938 586 461.347656 586.734375 C 462.53125 587.761719 466.746094 588.351562 473.996094 588.5 L 480.429688 588.5 L 480.429688 598.644531 Z M 440.9375 552.105469 L 440.9375 478.441406 L 392.34375 551.886719 L 416.53125 552.105469 Z M 440.9375 552.105469 " fill-opacity="1" fill-rule="nonzero"/><path fill="#000000" d="M 242.800781 398.820312 L 509.050781 398.820312 L 509.050781 385.585938 L 242.800781 385.585938 Z M 242.800781 398.820312 " fill-opacity="1" fill-rule="nonzero"/></svg>