<svg xmlns="http://www.w3.org/2000/svg" xmlns:xlink="http://www.w3.org/1999/xlink" width="1000" zoomAndPan="magnify" viewBox="0 0 750 749.999995" height="1000" preserveAspectRatio="xMidYMid meet" version="1.0"><defs><clipPath id="68445113b5"><path d="M 112.5 378 L 371 378 L 371 561 L 112.5 561 Z M 112.5 378 " clip-rule="nonzero"/></clipPath><clipPath id="2304261857"><path d="M 190 112.5 L 374 112.5 L 374 371 L 190 371 Z M 190 112.5 " clip-rule="nonzero"/></clipPath><clipPath id="75abf78670"><path d="M 378 112.5 L 561 112.5 L 561 371 L 378 371 Z M 378 112.5 " clip-rule="nonzero"/></clipPath><clipPath id="a6ad2e9728"><path d="M 112.5 190 L 371 190 L 371 374 L 112.5 374 Z M 112.5 190 " clip-rule="nonzero"/></clipPath><clipPath id="354e0a0bd4"><path d="M 192 381 L 374 381 L 374 637.5 L 192 637.5 Z M 192 381 " clip-rule="nonzero"/></clipPath><clipPath id="f2fb938662"><path d="M 381 192 L 637.5 192 L 637.5 374 L 381 374 Z M 381 192 " clip-rule="nonzero"/></clipPath><clipPath id="053be934f0"><path d="M 378 381 L 559 381 L 559 637.5 L 378 637.5 Z M 378 381 " clip-rule="nonzero"/></clipPath><clipPath id="f6c2629d66"><path d="M 381 378 L 637.5 378 L 637.5 559 L 381 559 Z M 381 378 " clip-rule="nonzero"/></clipPath></defs><rect x="-75" width="900" fill="#ffffff" y="-74.999999" height="899.999994" fill-opacity="1"/><rect x="-75" width="900" fill="#ffffff" y="-74.999999" height="899.999994" fill-opacity="1"/><g clip-path="url(#68445113b5)"><path fill="#cf4a49" d="M 370.585938 378.371094 L 112.488281 378.371094 C 113.390625 449.273438 142.347656 513.402344 188.835938 560.125 Z M 370.585938 378.371094 " fill-opacity="1" fill-rule="evenodd"/></g><g clip-path="url(#2304261857)"><path fill="#a6a6a6" d="M 373.785156 112.484375 C 302.558594 112.785156 238.050781 141.460938 190.929688 187.78125 L 373.785156 370.640625 Z M 373.785156 112.484375 " fill-opacity="1" fill-rule="evenodd"/></g><g clip-path="url(#75abf78670)"><path fill="#a6a6a6" d="M 378.3125 112.539062 L 378.3125 370.636719 L 560.066406 188.886719 C 513.347656 142.398438 449.214844 113.441406 378.3125 112.539062 " fill-opacity="1" fill-rule="evenodd"/></g><g clip-path="url(#a6ad2e9728)"><path fill="#a6a6a6" d="M 370.585938 373.839844 L 187.730469 190.984375 C 141.40625 238.109375 112.734375 302.613281 112.429688 373.839844 Z M 370.585938 373.839844 " fill-opacity="1" fill-rule="evenodd"/></g><g clip-path="url(#354e0a0bd4)"><path fill="#cf4a49" d="M 373.785156 381.574219 L 192.085938 563.273438 C 239.105469 608.9375 303.132812 637.167969 373.785156 637.464844 Z M 373.785156 381.574219 " fill-opacity="1" fill-rule="evenodd"/></g><g clip-path="url(#f2fb938662)"><path fill="#cf4a49" d="M 381.515625 373.839844 L 637.40625 373.839844 C 637.109375 303.1875 608.878906 239.160156 563.214844 192.140625 Z M 381.515625 373.839844 " fill-opacity="1" fill-rule="evenodd"/></g><g clip-path="url(#053be934f0)"><path fill="#cf4a49" d="M 378.3125 381.574219 L 378.3125 637.410156 C 448.640625 636.515625 512.285156 608 558.90625 562.167969 Z M 378.3125 381.574219 " fill-opacity="1" fill-rule="evenodd"/></g><g clip-path="url(#f6c2629d66)"><path fill="#cf4a49" d="M 381.515625 378.371094 L 562.109375 558.96875 C 607.9375 512.347656 636.457031 448.699219 637.351562 378.371094 Z M 381.515625 378.371094 " fill-opacity="1" fill-rule="evenodd"/></g></svg>