<svg xmlns="http://www.w3.org/2000/svg" xmlns:xlink="http://www.w3.org/1999/xlink" width="1000" zoomAndPan="magnify" viewBox="0 0 750 749.999995" height="1000" preserveAspectRatio="xMidYMid meet" version="1.0"><rect x="-75" width="900" fill="#ffffff" y="-74.999999" height="899.999994" fill-opacity="1"/><rect x="-75" width="900" fill="#ffffff" y="-74.999999" height="899.999994" fill-opacity="1"/><path fill="#000000" d="M 289.585938 202.023438 C 285.609375 202.023438 282.445312 200.707031 280.089844 198.074219 C 277.734375 195.4375 276.554688 192.21875 276.554688 188.414062 C 276.554688 178.023438 280.457031 169.023438 288.257812 161.414062 C 296.0625 153.804688 305.777344 150 317.40625 150 C 330.804688 150 341.992188 154.097656 350.972656 162.292969 C 359.953125 170.488281 364.515625 181.097656 364.664062 194.121094 C 364.664062 200.414062 363.191406 206.414062 360.246094 212.121094 C 357.304688 217.828125 353.769531 222.804688 349.648438 227.046875 C 345.527344 231.292969 339.636719 236.707031 331.984375 243.292969 C 326.683594 247.828125 319.320312 254.5625 309.898438 263.488281 L 296.871094 275.78125 L 313.652344 276 C 336.765625 276 349.058594 275.632812 350.53125 274.902344 C 351.5625 274.609375 353.328125 268.097656 355.832031 255.367188 L 355.832031 254.707031 L 364.664062 254.707031 L 364.664062 255.367188 C 364.515625 255.804688 363.558594 262.464844 361.792969 275.339844 C 360.027344 288.21875 358.921875 294.953125 358.480469 295.535156 L 358.480469 296.195312 L 276.554688 296.195312 L 276.554688 289.390625 C 276.554688 288.367188 276.996094 287.269531 277.878906 286.097656 C 278.765625 284.925781 280.972656 282.367188 284.503906 278.414062 C 288.773438 273.730469 292.453125 269.632812 295.546875 266.121094 C 296.871094 264.660156 299.375 261.953125 303.054688 258 C 306.734375 254.046875 309.238281 251.339844 310.5625 249.878906 C 311.886719 248.414062 314.023438 246 316.964844 242.632812 C 319.910156 239.269531 321.972656 236.78125 323.148438 235.171875 C 324.328125 233.5625 326.019531 231.367188 328.226562 228.585938 C 330.4375 225.804688 331.984375 223.464844 332.867188 221.5625 C 333.75 219.660156 334.851562 217.535156 336.179688 215.195312 C 337.503906 212.855469 338.460938 210.511719 339.046875 208.171875 C 339.636719 205.828125 340.152344 203.632812 340.59375 201.585938 C 341.035156 199.535156 341.257812 197.121094 341.257812 194.339844 C 341.257812 185.121094 338.753906 177.144531 333.75 170.414062 C 328.742188 163.683594 321.605469 160.316406 312.328125 160.316406 C 307.472656 160.316406 303.203125 161.5625 299.519531 164.046875 C 295.839844 166.535156 293.265625 168.953125 291.792969 171.292969 C 290.320312 173.632812 289.585938 175.023438 289.585938 175.464844 C 289.585938 175.609375 289.953125 175.683594 290.6875 175.683594 C 293.339844 175.683594 296.0625 176.707031 298.859375 178.757812 C 301.65625 180.804688 303.054688 184.171875 303.054688 188.855469 C 303.054688 192.511719 301.875 195.585938 299.519531 198.074219 C 297.164062 200.5625 293.851562 201.878906 289.585938 202.023438 Z M 289.585938 202.023438 " fill-opacity="1" fill-rule="nonzero"/><path fill="#000000" d="M 397.125 167.78125 C 405.371094 155.925781 416.632812 150 430.910156 150 C 437.976562 150 445.042969 151.902344 452.109375 155.707031 C 459.175781 159.511719 464.917969 166.242188 469.335938 175.902344 C 474.78125 188.046875 477.503906 204.730469 477.503906 225.953125 C 477.503906 248.632812 474.339844 265.976562 468.011719 277.976562 C 465.066406 284.121094 461.015625 289.023438 455.863281 292.683594 C 450.710938 296.339844 446.222656 298.609375 442.394531 299.488281 C 438.566406 300.367188 434.8125 300.878906 431.132812 301.023438 C 427.304688 301.023438 423.476562 300.585938 419.648438 299.707031 C 415.820312 298.828125 411.332031 296.488281 406.179688 292.683594 C 401.027344 288.878906 396.976562 283.976562 394.035156 277.976562 C 387.703125 265.976562 384.539062 248.632812 384.539062 225.953125 C 384.539062 200.488281 388.734375 181.097656 397.125 167.78125 Z M 446.8125 165.144531 C 442.394531 160.464844 437.167969 158.121094 431.132812 158.121094 C 424.949219 158.121094 419.648438 160.464844 415.234375 165.144531 C 411.554688 168.953125 409.125 174.21875 407.945312 180.953125 C 406.769531 187.683594 406.179688 201.730469 406.179688 223.097656 C 406.179688 246.21875 406.769531 261.4375 407.945312 268.757812 C 409.125 276.074219 411.773438 281.855469 415.894531 286.097656 C 420.019531 290.488281 425.097656 292.683594 431.132812 292.683594 C 437.019531 292.683594 442.027344 290.488281 446.148438 286.097656 C 450.417969 281.707031 453.066406 275.5625 454.097656 267.660156 C 455.128906 259.757812 455.71875 244.902344 455.863281 223.097656 C 455.863281 201.878906 455.277344 187.902344 454.097656 181.171875 C 452.921875 174.4375 450.492188 169.097656 446.8125 165.144531 Z M 446.8125 165.144531 " fill-opacity="1" fill-rule="nonzero"/><path fill="#000000" d="M 293.558594 493.535156 C 289.585938 493.535156 286.492188 492.292969 284.285156 489.804688 C 282.074219 487.316406 280.898438 484.097656 280.75 480.144531 C 280.75 472.097656 284.285156 464.925781 291.351562 458.632812 C 298.417969 452.339844 306.957031 449.195312 316.964844 449.195312 C 322.117188 449.195312 325.359375 449.269531 326.683594 449.414062 C 337.578125 451.171875 345.894531 455.046875 351.636719 461.046875 C 357.378906 467.046875 360.320312 473.5625 360.46875 480.585938 C 360.46875 488.195312 357.964844 495.585938 352.960938 502.757812 C 347.957031 509.925781 341.035156 515.121094 332.203125 518.339844 L 331.539062 518.78125 C 331.539062 518.925781 332.203125 519.144531 333.527344 519.4375 C 334.851562 519.730469 336.988281 520.390625 339.933594 521.414062 C 342.875 522.4375 345.671875 523.976562 348.324219 526.023438 C 360.394531 533.78125 366.429688 544.023438 366.429688 556.757812 C 366.429688 568.316406 361.867188 578.414062 352.738281 587.046875 C 343.613281 595.683594 332.054688 600 318.070312 600 C 306.292969 600 296.136719 596.855469 287.597656 590.5625 C 279.058594 584.269531 274.789062 576.292969 274.789062 566.632812 C 274.789062 562.535156 276.113281 559.242188 278.765625 556.757812 C 281.414062 554.269531 284.726562 552.953125 288.699219 552.804688 C 292.824219 552.804688 296.207031 554.121094 298.859375 556.757812 C 301.507812 559.390625 302.832031 562.683594 302.832031 566.632812 C 302.832031 568.242188 302.613281 569.707031 302.171875 571.023438 C 301.730469 572.339844 301.214844 573.511719 300.625 574.535156 C 300.035156 575.5625 299.226562 576.4375 298.195312 577.171875 C 297.164062 577.902344 296.28125 578.488281 295.546875 578.925781 C 294.808594 579.367188 294.074219 579.660156 293.339844 579.804688 C 292.601562 579.953125 292.011719 580.171875 291.570312 580.464844 L 290.6875 580.683594 C 298.195312 587.269531 307.324219 590.5625 318.070312 590.5625 C 326.167969 590.5625 332.277344 586.683594 336.398438 578.925781 C 338.902344 574.097656 340.152344 566.707031 340.152344 556.757812 L 340.152344 552.367188 C 340.152344 538.464844 335.441406 529.171875 326.019531 524.488281 C 323.8125 523.609375 319.320312 523.097656 312.550781 522.953125 L 303.273438 522.730469 L 302.613281 522.292969 C 302.320312 521.855469 302.171875 520.683594 302.171875 518.78125 C 302.171875 516.144531 302.761719 514.828125 303.9375 514.828125 C 308.058594 514.828125 312.328125 514.464844 316.746094 513.730469 C 321.75 513 326.316406 509.925781 330.4375 504.511719 C 334.558594 499.097656 336.621094 490.902344 336.621094 479.925781 L 336.621094 478.171875 C 336.621094 469.828125 334.042969 464.046875 328.890625 460.828125 C 325.652344 458.78125 322.191406 457.757812 318.511719 457.757812 C 313.800781 457.757812 309.457031 458.5625 305.484375 460.171875 C 301.507812 461.78125 298.710938 463.464844 297.09375 465.21875 C 295.472656 466.976562 294.664062 467.855469 294.664062 467.855469 L 295.324219 467.855469 C 295.765625 468 296.355469 468.144531 297.09375 468.292969 C 297.828125 468.4375 298.5625 468.804688 299.300781 469.390625 C 300.035156 469.976562 300.917969 470.488281 301.949219 470.925781 C 302.980469 471.367188 303.71875 472.171875 304.160156 473.339844 C 304.601562 474.511719 305.1875 475.609375 305.925781 476.632812 C 306.660156 477.660156 306.882812 479.121094 306.585938 481.023438 C 306.585938 484.242188 305.558594 487.097656 303.496094 489.585938 C 301.433594 492.074219 298.121094 493.390625 293.558594 493.535156 Z M 293.558594 493.535156 " fill-opacity="1" fill-rule="nonzero"/><path fill="#000000" d="M 399.996094 501 C 396.019531 501 392.855469 499.683594 390.5 497.046875 C 388.144531 494.414062 386.96875 491.195312 386.96875 487.390625 C 386.96875 477 390.867188 468 398.671875 460.390625 C 406.472656 452.78125 416.191406 448.976562 427.820312 448.976562 C 441.21875 448.976562 452.40625 453.074219 461.386719 461.269531 C 470.367188 469.464844 474.929688 480.074219 475.078125 493.097656 C 475.078125 499.390625 473.605469 505.390625 470.660156 511.097656 C 467.714844 516.804688 464.183594 521.78125 460.058594 526.023438 C 455.9375 530.269531 450.050781 535.683594 442.394531 542.269531 C 437.09375 546.804688 429.734375 553.535156 420.3125 562.464844 L 407.285156 574.757812 L 424.066406 574.976562 C 447.179688 574.976562 459.472656 574.609375 460.945312 573.878906 C 461.972656 573.585938 463.742188 567.074219 466.242188 554.339844 L 466.242188 553.683594 L 475.078125 553.683594 L 475.078125 554.339844 C 474.929688 554.78125 473.972656 561.4375 472.207031 574.316406 C 470.4375 587.195312 469.335938 593.925781 468.894531 594.511719 L 468.894531 595.171875 L 386.96875 595.171875 L 386.96875 588.367188 C 386.96875 587.339844 387.410156 586.242188 388.292969 585.074219 C 389.175781 583.902344 391.382812 581.339844 394.917969 577.390625 C 399.1875 572.707031 402.867188 568.609375 405.957031 565.097656 C 407.285156 563.632812 409.785156 560.925781 413.464844 556.976562 C 417.148438 553.023438 419.648438 550.316406 420.976562 548.855469 C 422.300781 547.390625 424.433594 544.976562 427.378906 541.609375 C 430.324219 538.242188 432.382812 535.757812 433.5625 534.144531 C 434.738281 532.535156 436.433594 530.339844 438.640625 527.5625 C 440.847656 524.78125 442.394531 522.4375 443.277344 520.535156 C 444.160156 518.632812 445.265625 516.511719 446.589844 514.171875 C 447.914062 511.828125 448.871094 509.488281 449.460938 507.144531 C 450.050781 504.804688 450.566406 502.609375 451.007812 500.5625 C 451.449219 498.511719 451.667969 496.097656 451.667969 493.316406 C 451.667969 484.097656 449.167969 476.121094 444.160156 469.390625 C 439.15625 462.660156 432.015625 459.292969 422.742188 459.292969 C 417.882812 459.292969 413.613281 460.535156 409.933594 463.023438 C 406.253906 465.511719 403.675781 467.925781 402.203125 470.269531 C 400.730469 472.609375 399.996094 474 399.996094 474.4375 C 399.996094 474.585938 400.363281 474.660156 401.101562 474.660156 C 403.75 474.660156 406.472656 475.683594 409.269531 477.730469 C 412.066406 479.78125 413.464844 483.144531 413.464844 487.828125 C 413.464844 491.488281 412.289062 494.5625 409.933594 497.046875 C 407.578125 499.535156 404.265625 500.855469 399.996094 501 Z M 399.996094 501 " fill-opacity="1" fill-rule="nonzero"/><path fill="#000000" d="M 243.433594 396.292969 L 508.421875 396.292969 L 508.421875 383.121094 L 243.433594 383.121094 Z M 243.433594 396.292969 " fill-opacity="1" fill-rule="nonzero"/></svg>