<svg xmlns="http://www.w3.org/2000/svg" xmlns:xlink="http://www.w3.org/1999/xlink" width="1000" zoomAndPan="magnify" viewBox="0 0 750 749.999995" height="1000" preserveAspectRatio="xMidYMid meet" version="1.0"><defs><clipPath id="8a7637eea2"><path d="M 171 292.5 L 273 292.5 L 273 457.5 L 171 457.5 Z M 171 292.5 " clip-rule="nonzero"/></clipPath><clipPath id="e13c3a6be4"><path d="M 360 292.5 L 457 292.5 L 457 453 L 360 453 Z M 360 292.5 " clip-rule="nonzero"/></clipPath><clipPath id="15239c5406"><path d="M 480 292.5 L 577 292.5 L 577 457.5 L 480 457.5 Z M 480 292.5 " clip-rule="nonzero"/></clipPath></defs><rect x="-75" width="900" fill="#ffffff" y="-74.999999" height="899.999994" fill-opacity="1"/><rect x="-75" width="900" fill="#ffffff" y="-74.999999" height="899.999994" fill-opacity="1"/><g clip-path="url(#8a7637eea2)"><path fill="#000000" d="M 184.847656 311.925781 C 193.808594 298.976562 206.054688 292.5 221.578125 292.5 C 229.261719 292.5 236.941406 294.578125 244.625 298.734375 C 252.308594 302.890625 258.550781 310.246094 263.351562 320.800781 C 269.273438 334.070312 272.234375 352.296875 272.234375 375.480469 C 272.234375 400.261719 268.792969 419.207031 261.910156 432.316406 C 258.710938 439.035156 254.308594 444.390625 248.707031 448.386719 C 243.105469 452.382812 238.222656 454.863281 234.0625 455.820312 C 229.902344 456.78125 225.820312 457.339844 221.820312 457.5 C 217.65625 457.5 213.496094 457.019531 209.335938 456.0625 C 205.171875 455.101562 200.292969 452.542969 194.691406 448.386719 C 189.089844 444.230469 184.6875 438.875 181.484375 432.316406 C 174.605469 419.207031 171.164062 400.261719 171.164062 375.480469 C 171.164062 347.660156 175.722656 326.476562 184.847656 311.925781 Z M 238.863281 309.046875 C 234.0625 303.933594 228.378906 301.375 221.820312 301.375 C 215.097656 301.375 209.335938 303.933594 204.53125 309.046875 C 200.53125 313.203125 197.890625 318.960938 196.609375 326.316406 C 195.332031 333.671875 194.691406 349.019531 194.691406 372.363281 C 194.691406 397.625 195.332031 414.25 196.609375 422.246094 C 197.890625 430.238281 200.773438 436.554688 205.253906 441.191406 C 209.734375 445.988281 215.257812 448.386719 221.820312 448.386719 C 228.21875 448.386719 233.660156 445.988281 238.144531 441.191406 C 242.785156 436.394531 245.664062 429.679688 246.785156 421.046875 C 247.90625 412.414062 248.546875 396.183594 248.707031 372.363281 C 248.707031 349.179688 248.066406 333.910156 246.785156 326.554688 C 245.503906 319.199219 242.863281 313.363281 238.863281 309.046875 Z M 238.863281 309.046875 " fill-opacity="1" fill-rule="nonzero"/></g><path fill="#000000" d="M 300.5625 437.835938 C 300.5625 433.996094 301.921875 430.640625 304.644531 427.761719 C 307.363281 424.882812 310.804688 423.445312 314.964844 423.445312 C 318.808594 423.445312 322.167969 424.722656 325.050781 427.28125 C 327.929688 429.839844 329.449219 433.277344 329.609375 437.59375 C 329.609375 441.589844 328.25 445.027344 325.53125 447.90625 C 322.808594 450.785156 319.367188 452.222656 315.207031 452.222656 C 311.046875 452.222656 307.605469 450.863281 304.882812 448.148438 C 302.164062 445.429688 300.722656 441.992188 300.5625 437.835938 Z M 300.5625 437.835938 " fill-opacity="1" fill-rule="nonzero"/><g clip-path="url(#e13c3a6be4)"><path fill="#000000" d="M 374.746094 349.339844 C 370.421875 349.339844 366.984375 347.898438 364.421875 345.023438 C 361.859375 342.144531 360.582031 338.625 360.582031 334.46875 C 360.582031 323.117188 364.820312 313.285156 373.304688 304.972656 C 381.785156 296.65625 392.351562 292.5 404.992188 292.5 C 419.558594 292.5 431.722656 296.976562 441.484375 305.929688 C 451.25 314.882812 456.210938 326.476562 456.371094 340.703125 C 456.371094 347.578125 454.769531 354.136719 451.566406 360.371094 C 448.367188 366.605469 444.527344 372.042969 440.042969 376.679688 C 435.5625 381.316406 429.160156 387.230469 420.839844 394.425781 C 415.078125 399.382812 407.074219 406.738281 396.832031 416.488281 L 382.667969 429.921875 L 400.914062 430.160156 C 426.039062 430.160156 439.40625 429.761719 441.003906 428.960938 C 442.125 428.640625 444.046875 421.527344 446.765625 407.617188 L 446.765625 406.898438 L 456.371094 406.898438 L 456.371094 407.617188 C 456.210938 408.097656 455.167969 415.371094 453.25 429.441406 C 451.328125 443.511719 450.128906 450.863281 449.648438 451.503906 L 449.648438 452.222656 L 360.582031 452.222656 L 360.582031 444.789062 C 360.582031 443.671875 361.0625 442.472656 362.019531 441.191406 C 362.980469 439.914062 365.382812 437.113281 369.222656 432.796875 C 373.863281 427.683594 377.867188 423.203125 381.226562 419.367188 C 382.667969 417.769531 385.386719 414.8125 389.390625 410.496094 C 393.390625 406.175781 396.113281 403.21875 397.550781 401.621094 C 398.992188 400.023438 401.3125 397.382812 404.515625 393.707031 C 407.714844 390.027344 409.957031 387.3125 411.234375 385.550781 C 412.515625 383.792969 414.355469 381.394531 416.757812 378.359375 C 419.160156 375.320312 420.839844 372.761719 421.800781 370.683594 C 422.757812 368.605469 423.960938 366.285156 425.398438 363.726562 C 426.839844 361.171875 427.882812 358.613281 428.519531 356.054688 C 429.160156 353.496094 429.722656 351.097656 430.203125 348.859375 C 430.683594 346.621094 430.921875 343.984375 430.921875 340.945312 C 430.921875 330.871094 428.199219 322.160156 422.757812 314.804688 C 417.316406 307.449219 409.554688 303.773438 399.472656 303.773438 C 394.191406 303.773438 389.550781 305.128906 385.546875 307.847656 C 381.546875 310.566406 378.746094 313.203125 377.144531 315.761719 C 375.546875 318.320312 374.746094 319.839844 374.746094 320.320312 C 374.746094 320.480469 375.144531 320.558594 375.945312 320.558594 C 378.824219 320.558594 381.785156 321.679688 384.828125 323.917969 C 387.867188 326.15625 389.390625 329.832031 389.390625 334.949219 C 389.390625 338.945312 388.109375 342.304688 385.546875 345.023438 C 382.988281 347.738281 379.386719 349.179688 374.746094 349.339844 Z M 374.746094 349.339844 " fill-opacity="1" fill-rule="nonzero"/></g><g clip-path="url(#15239c5406)"><path fill="#000000" d="M 507.984375 414.570312 C 507.984375 418.410156 506.703125 421.605469 504.144531 424.164062 C 501.582031 426.722656 498.460938 428 494.78125 428 L 493.101562 428 C 500.464844 440.632812 510.226562 446.949219 522.390625 446.949219 C 533.59375 446.949219 541.753906 442.152344 546.878906 432.558594 C 549.917969 427.28125 551.4375 417.050781 551.4375 401.859375 C 551.4375 385.390625 549.277344 374.28125 544.957031 368.523438 C 540.796875 363.25 536.152344 360.609375 531.03125 360.609375 L 529.59375 360.609375 C 517.109375 360.609375 507.664062 366.046875 501.261719 376.917969 C 500.625 378.039062 500.0625 378.675781 499.582031 378.835938 C 499.101562 378.996094 497.902344 379.15625 495.980469 379.316406 C 493.261719 379.316406 491.742188 378.835938 491.421875 377.878906 C 491.101562 377.238281 490.941406 363.25 490.941406 335.910156 L 490.941406 304.972656 C 490.941406 296.976562 491.339844 292.980469 492.140625 292.980469 C 492.460938 292.660156 492.78125 292.5 493.101562 292.5 C 493.261719 292.5 494.941406 293.140625 498.140625 294.417969 C 501.34375 295.699219 505.746094 296.976562 511.347656 298.253906 C 516.949219 299.535156 522.949219 300.175781 529.351562 300.175781 C 540.714844 300.175781 551.597656 297.9375 562 293.460938 C 563.28125 292.820312 564.324219 292.5 565.121094 292.5 C 566.402344 292.5 567.042969 293.9375 567.042969 296.816406 L 567.042969 299.933594 C 553.917969 315.441406 537.515625 323.199219 517.828125 323.199219 C 512.867188 323.199219 508.386719 322.71875 504.382812 321.757812 L 501.984375 321.277344 L 501.984375 362.527344 C 505.023438 360.289062 507.425781 358.53125 509.1875 357.253906 C 510.945312 355.972656 513.828125 354.695312 517.828125 353.414062 C 521.828125 352.136719 525.910156 351.496094 530.070312 351.496094 C 543.035156 351.496094 554 356.691406 562.960938 367.085938 C 571.925781 377.476562 576.40625 389.789062 576.40625 404.019531 C 576.40625 418.726562 571.285156 431.277344 561.042969 441.671875 C 550.796875 452.0625 538.316406 457.339844 523.589844 457.5 C 510.625 457.5 500.222656 453.183594 492.378906 444.550781 C 484.539062 435.914062 480.617188 426.164062 480.617188 415.289062 C 480.617188 411.453125 481.496094 408.414062 483.257812 406.175781 C 485.019531 403.9375 486.859375 402.5 488.78125 401.859375 C 490.699219 401.222656 492.539062 400.902344 494.300781 400.902344 C 498.300781 400.902344 501.582031 402.261719 504.144531 404.976562 C 506.703125 407.695312 507.984375 410.894531 507.984375 414.570312 Z M 507.984375 414.570312 " fill-opacity="1" fill-rule="nonzero"/></g></svg>