<svg xmlns="http://www.w3.org/2000/svg" xmlns:xlink="http://www.w3.org/1999/xlink" width="1000" zoomAndPan="magnify" viewBox="0 0 750 749.999995" height="1000" preserveAspectRatio="xMidYMid meet" version="1.0"><defs><clipPath id="de9d19fa34"><path d="M 112.5 126.054688 L 637.5 126.054688 L 637.5 659 L 112.5 659 Z M 112.5 126.054688 " clip-rule="nonzero"/></clipPath><clipPath id="d6ea8d6436"><path d="M 375 126.054688 C 230.023438 126.054688 112.5 245.34375 112.5 392.492188 C 112.5 539.640625 230.023438 658.929688 375 658.929688 C 519.976562 658.929688 637.5 539.640625 637.5 392.492188 C 637.5 245.34375 519.976562 126.054688 375 126.054688 Z M 375 126.054688 " clip-rule="nonzero"/></clipPath><clipPath id="977f2cee46"><path d="M 372 398 L 497 398 L 497 645 L 372 645 Z M 372 398 " clip-rule="nonzero"/></clipPath><clipPath id="34b6efa263"><path d="M 120.1875 392 L 363 392 L 363 514 L 120.1875 514 Z M 120.1875 392 " clip-rule="nonzero"/></clipPath><clipPath id="346b10f61d"><path d="M 120.1875 266 L 363 266 L 363 389 L 120.1875 389 Z M 120.1875 266 " clip-rule="nonzero"/></clipPath></defs><rect x="-75" width="900" fill="#ffffff" y="-74.999999" height="899.999994" fill-opacity="1"/><rect x="-75" width="900" fill="#ffffff" y="-74.999999" height="899.999994" fill-opacity="1"/><g clip-path="url(#de9d19fa34)"><g clip-path="url(#d6ea8d6436)"><path fill="#00010d" d="M 112.5 126.054688 L 637.5 126.054688 L 637.5 659.257812 L 112.5 659.257812 Z M 112.5 126.054688 " fill-opacity="1" fill-rule="nonzero"/></g></g><path fill="#ffffff" d="M 246.007812 170.746094 L 368.058594 382.144531 L 368.058594 135.804688 C 323.585938 137.003906 281.976562 149.566406 246.007812 170.746094 " fill-opacity="1" fill-rule="evenodd"/><path fill="#6d5764" d="M 368.054688 644.886719 L 368.054688 398.546875 L 246.003906 609.945312 C 281.972656 631.125 323.585938 643.691406 368.054688 644.886719 " fill-opacity="1" fill-rule="evenodd"/><path fill="#ffffff" d="M 372.453125 382.148438 L 496.882812 166.625 C 460.6875 146.867188 419.175781 135.628906 375.03125 135.628906 C 374.167969 135.632812 373.316406 135.683594 372.449219 135.691406 Z M 372.453125 382.148438 " fill-opacity="1" fill-rule="evenodd"/><path fill="#ffffff" d="M 378.449219 388.144531 L 629.695312 388.144531 C 629.308594 342.5 616.898438 299.746094 595.5 262.832031 Z M 378.449219 388.144531 " fill-opacity="1" fill-rule="evenodd"/><path fill="#ffffff" d="M 595.503906 517.855469 C 616.898438 480.9375 629.308594 438.1875 629.695312 392.539062 L 378.449219 392.539062 Z M 595.503906 517.855469 " fill-opacity="1" fill-rule="evenodd"/><path fill="#ffffff" d="M 376.25 384.339844 L 593.3125 259.023438 C 570.730469 221.570312 538.761719 190.453125 500.695312 168.8125 Z M 376.25 384.339844 " fill-opacity="1" fill-rule="evenodd"/><g clip-path="url(#977f2cee46)"><path fill="#6d5764" d="M 372.453125 398.542969 L 372.453125 645 C 373.316406 645.007812 374.167969 645.0625 375.03125 645.0625 C 419.175781 645.0625 460.6875 633.824219 496.882812 614.070312 Z M 372.453125 398.542969 " fill-opacity="1" fill-rule="evenodd"/></g><path fill="#ffffff" d="M 364.25 384.34375 L 242.214844 172.976562 C 205.921875 195.199219 175.679688 226.273438 154.367188 263.167969 Z M 364.25 384.34375 " fill-opacity="1" fill-rule="evenodd"/><path fill="#ffffff" d="M 376.25 396.347656 L 500.695312 611.875 C 538.761719 590.234375 570.730469 559.117188 593.3125 521.664062 Z M 376.25 396.347656 " fill-opacity="1" fill-rule="evenodd"/><path fill="#6d5764" d="M 364.25 396.34375 L 154.367188 517.519531 C 175.679688 554.414062 205.921875 585.488281 242.214844 607.710938 Z M 364.25 396.34375 " fill-opacity="1" fill-rule="evenodd"/><g clip-path="url(#34b6efa263)"><path fill="#ffffff" d="M 120.371094 392.542969 C 120.742188 436.484375 132.234375 477.761719 152.183594 513.710938 L 362.058594 392.542969 Z M 120.371094 392.542969 " fill-opacity="1" fill-rule="evenodd"/></g><g clip-path="url(#346b10f61d)"><path fill="#ffffff" d="M 152.179688 266.976562 C 132.234375 302.929688 120.742188 344.207031 120.367188 388.148438 L 362.054688 388.148438 Z M 152.179688 266.976562 " fill-opacity="1" fill-rule="evenodd"/></g></svg>