<svg xmlns="http://www.w3.org/2000/svg" xmlns:xlink="http://www.w3.org/1999/xlink" width="1000" zoomAndPan="magnify" viewBox="0 0 750 749.999995" height="1000" preserveAspectRatio="xMidYMid meet" version="1.0"><rect x="-75" width="900" fill="#ffffff" y="-74.999999" height="899.999994" fill-opacity="1"/><rect x="-75" width="900" fill="#ffffff" y="-74.999999" height="899.999994" fill-opacity="1"/><path fill="#000000" d="M 293.558594 194.5625 C 289.585938 194.5625 286.492188 193.316406 284.285156 190.828125 C 282.074219 188.339844 280.898438 185.121094 280.75 181.171875 C 280.75 173.121094 284.285156 165.953125 291.351562 159.660156 C 298.417969 153.367188 306.957031 150.21875 316.964844 150.21875 C 322.117188 150.21875 325.359375 150.292969 326.683594 150.4375 C 337.578125 152.195312 345.894531 156.074219 351.636719 162.074219 C 357.378906 168.074219 360.320312 174.585938 360.46875 181.609375 C 360.46875 189.21875 357.964844 196.609375 352.960938 203.78125 C 347.957031 210.953125 341.035156 216.144531 332.203125 219.367188 L 331.539062 219.804688 C 331.539062 219.953125 332.203125 220.171875 333.527344 220.464844 C 334.851562 220.757812 336.988281 221.414062 339.933594 222.4375 C 342.875 223.464844 345.671875 225 348.324219 227.046875 C 360.394531 234.804688 366.429688 245.046875 366.429688 257.78125 C 366.429688 269.339844 361.867188 279.4375 352.738281 288.074219 C 343.613281 296.707031 332.054688 301.023438 318.070312 301.023438 C 306.292969 301.023438 296.136719 297.878906 287.597656 291.585938 C 279.058594 285.292969 274.789062 277.316406 274.789062 267.660156 C 274.789062 263.5625 276.113281 260.269531 278.765625 257.78125 C 281.414062 255.292969 284.726562 253.976562 288.699219 253.828125 C 292.824219 253.828125 296.207031 255.144531 298.859375 257.78125 C 301.507812 260.414062 302.832031 263.707031 302.832031 267.660156 C 302.832031 269.269531 302.613281 270.730469 302.171875 272.046875 C 301.730469 273.367188 301.214844 274.535156 300.625 275.5625 C 300.035156 276.585938 299.226562 277.464844 298.195312 278.195312 C 297.164062 278.925781 296.28125 279.511719 295.546875 279.953125 C 294.808594 280.390625 294.074219 280.683594 293.339844 280.828125 C 292.601562 280.976562 292.011719 281.195312 291.570312 281.488281 L 290.6875 281.707031 C 298.195312 288.292969 307.324219 291.585938 318.070312 291.585938 C 326.167969 291.585938 332.277344 287.707031 336.398438 279.953125 C 338.902344 275.121094 340.152344 267.730469 340.152344 257.78125 L 340.152344 253.390625 C 340.152344 239.488281 335.441406 230.195312 326.019531 225.511719 C 323.8125 224.632812 319.320312 224.121094 312.550781 223.976562 L 303.273438 223.757812 L 302.613281 223.316406 C 302.320312 222.878906 302.171875 221.707031 302.171875 219.804688 C 302.171875 217.171875 302.761719 215.855469 303.9375 215.855469 C 308.058594 215.855469 312.328125 215.488281 316.746094 214.757812 C 321.75 214.023438 326.316406 210.953125 330.4375 205.535156 C 334.558594 200.121094 336.621094 191.925781 336.621094 180.953125 L 336.621094 179.195312 C 336.621094 170.855469 334.042969 165.074219 328.890625 161.855469 C 325.652344 159.804688 322.191406 158.78125 318.511719 158.78125 C 313.800781 158.78125 309.457031 159.585938 305.484375 161.195312 C 301.507812 162.804688 298.710938 164.488281 297.09375 166.242188 C 295.472656 168 294.664062 168.878906 294.664062 168.878906 L 295.324219 168.878906 C 295.765625 169.023438 296.355469 169.171875 297.09375 169.316406 C 297.828125 169.464844 298.5625 169.828125 299.300781 170.414062 C 300.035156 171 300.917969 171.511719 301.949219 171.953125 C 302.980469 172.390625 303.71875 173.195312 304.160156 174.367188 C 304.601562 175.535156 305.1875 176.632812 305.925781 177.660156 C 306.660156 178.683594 306.882812 180.144531 306.585938 182.046875 C 306.585938 185.269531 305.558594 188.121094 303.496094 190.609375 C 301.433594 193.097656 298.121094 194.414062 293.558594 194.5625 Z M 293.558594 194.5625 " fill-opacity="1" fill-rule="nonzero"/><path fill="#000000" d="M 397.125 167.78125 C 405.371094 155.925781 416.632812 150 430.910156 150 C 437.976562 150 445.042969 151.902344 452.109375 155.707031 C 459.175781 159.511719 464.917969 166.242188 469.335938 175.902344 C 474.78125 188.046875 477.503906 204.730469 477.503906 225.953125 C 477.503906 248.632812 474.339844 265.976562 468.011719 277.976562 C 465.066406 284.121094 461.015625 289.023438 455.863281 292.683594 C 450.710938 296.339844 446.222656 298.609375 442.394531 299.488281 C 438.566406 300.367188 434.8125 300.878906 431.132812 301.023438 C 427.304688 301.023438 423.476562 300.585938 419.648438 299.707031 C 415.820312 298.828125 411.332031 296.488281 406.179688 292.683594 C 401.027344 288.878906 396.976562 283.976562 394.035156 277.976562 C 387.703125 265.976562 384.539062 248.632812 384.539062 225.953125 C 384.539062 200.488281 388.734375 181.097656 397.125 167.78125 Z M 446.8125 165.144531 C 442.394531 160.464844 437.167969 158.121094 431.132812 158.121094 C 424.949219 158.121094 419.648438 160.464844 415.234375 165.144531 C 411.554688 168.953125 409.125 174.21875 407.945312 180.953125 C 406.769531 187.683594 406.179688 201.730469 406.179688 223.097656 C 406.179688 246.21875 406.769531 261.4375 407.945312 268.757812 C 409.125 276.074219 411.773438 281.855469 415.894531 286.097656 C 420.019531 290.488281 425.097656 292.683594 431.132812 292.683594 C 437.019531 292.683594 442.027344 290.488281 446.148438 286.097656 C 450.417969 281.707031 453.066406 275.5625 454.097656 267.660156 C 455.128906 259.757812 455.71875 244.902344 455.863281 223.097656 C 455.863281 201.878906 455.277344 187.902344 454.097656 181.171875 C 452.921875 174.4375 450.492188 169.097656 446.8125 165.144531 Z M 446.8125 165.144531 " fill-opacity="1" fill-rule="nonzero"/><path fill="#000000" d="M 367.535156 595.171875 C 364.886719 594.730469 355.390625 594.511719 339.046875 594.511719 C 321.972656 594.511719 312.109375 594.730469 309.457031 595.171875 L 307.472656 595.171875 L 307.472656 585.074219 L 314.316406 585.074219 C 317.261719 585.074219 319.25 585.074219 320.277344 585.074219 C 321.308594 585.074219 322.5625 584.925781 324.03125 584.632812 C 325.503906 584.339844 326.535156 583.976562 327.125 583.535156 C 327.714844 583.097656 328.226562 582.511719 328.671875 581.78125 C 328.816406 581.488281 328.890625 577.535156 328.890625 569.925781 L 328.890625 558.953125 L 271.699219 558.953125 L 271.699219 548.855469 L 305.042969 498.144531 C 327.566406 464.195312 338.976562 447.144531 339.269531 447 C 339.5625 446.707031 341.109375 446.5625 343.90625 446.5625 L 347.882812 446.5625 L 349.207031 447.878906 L 349.207031 548.855469 L 369.523438 548.855469 L 369.523438 558.953125 L 349.207031 558.953125 L 349.207031 570.144531 C 349.207031 576.144531 349.207031 579.660156 349.207031 580.683594 C 349.207031 581.707031 349.648438 582.585938 350.53125 583.316406 C 351.710938 584.339844 355.90625 584.925781 363.117188 585.074219 L 369.523438 585.074219 L 369.523438 595.171875 Z M 330.214844 548.855469 L 330.214844 475.535156 L 281.855469 548.632812 L 305.925781 548.855469 Z M 330.214844 548.855469 " fill-opacity="1" fill-rule="nonzero"/><path fill="#000000" d="M 391.382812 503.632812 C 391.382812 503.632812 391.382812 498 391.382812 486.730469 C 391.382812 475.464844 395.359375 466.390625 403.308594 459.511719 C 411.257812 452.632812 420.386719 449.121094 430.691406 448.976562 C 441.144531 448.976562 450.417969 452.046875 458.515625 458.195312 C 466.613281 464.339844 470.660156 472.316406 470.660156 482.121094 C 470.660156 486.511719 469.851562 490.609375 468.230469 494.414062 C 466.613281 498.21875 464.699219 501.292969 462.488281 503.632812 C 460.28125 505.976562 458 508.023438 455.644531 509.78125 C 453.289062 511.535156 451.375 512.855469 449.902344 513.730469 C 448.429688 514.609375 447.621094 515.195312 447.472656 515.488281 L 450.566406 517.464844 C 452.625 518.925781 454.6875 520.390625 456.75 521.855469 C 458.808594 523.316406 459.988281 524.121094 460.28125 524.269531 C 471.324219 532.902344 476.84375 543.804688 476.84375 556.976562 C 476.84375 568.535156 472.574219 578.5625 464.035156 587.046875 C 455.496094 595.535156 444.457031 599.855469 430.910156 600 C 417.664062 600 406.769531 596.269531 398.230469 588.804688 C 389.691406 581.339844 385.421875 572.121094 385.421875 561.144531 C 385.421875 545.339844 394.917969 532.171875 413.910156 521.632812 L 409.933594 518.78125 C 406.84375 516.878906 404.855469 515.414062 403.972656 514.390625 C 395.578125 507.21875 391.382812 498 391.382812 486.730469 Z M 439.082031 510.4375 L 440.40625 509.5625 C 441.289062 508.976562 441.953125 508.535156 442.394531 508.242188 C 442.835938 507.953125 443.574219 507.4375 444.601562 506.707031 C 445.632812 505.976562 446.515625 505.242188 447.253906 504.511719 C 447.988281 503.78125 448.796875 502.902344 449.683594 501.878906 C 450.566406 500.855469 451.375 499.902344 452.109375 499.023438 C 452.847656 498.144531 453.582031 496.976562 454.320312 495.511719 C 455.054688 494.046875 455.71875 492.804688 456.304688 491.78125 C 456.894531 490.757812 457.261719 489.292969 457.410156 487.390625 C 457.558594 485.488281 457.703125 483.878906 457.851562 482.5625 C 457.851562 476.269531 455.71875 470.925781 451.449219 466.535156 C 447.179688 462.144531 442.246094 459.367188 436.652344 458.195312 C 435.621094 458.046875 433.195312 457.976562 429.367188 457.976562 C 423.332031 457.976562 417.664062 459.878906 412.363281 463.683594 C 407.0625 467.488281 404.339844 472.242188 404.191406 477.953125 C 404.191406 481.316406 405.148438 484.390625 407.0625 487.171875 C 408.976562 489.953125 410.890625 492.074219 412.804688 493.535156 C 414.71875 495 418.398438 497.339844 423.84375 500.5625 C 424.875 501.292969 425.683594 501.804688 426.273438 502.097656 Z M 431.132812 590.5625 C 439.671875 590.5625 447.03125 588.074219 453.214844 583.097656 C 459.398438 578.121094 462.488281 572.121094 462.488281 565.097656 C 462.488281 562.609375 462.121094 560.269531 461.386719 558.074219 C 460.648438 555.878906 459.765625 554.046875 458.734375 552.585938 C 457.703125 551.121094 456.085938 549.511719 453.878906 547.757812 C 451.667969 546 449.976562 544.683594 448.796875 543.804688 C 447.621094 542.925781 445.484375 541.535156 442.394531 539.632812 C 439.304688 537.730469 437.316406 536.488281 436.433594 535.902344 C 434.371094 534.585938 432.164062 533.195312 429.808594 531.730469 C 427.453125 530.269531 425.539062 529.023438 424.066406 528 L 422.300781 526.902344 C 421.417969 526.902344 419.28125 528.144531 415.894531 530.632812 C 412.507812 533.121094 408.976562 537.144531 405.296875 542.707031 C 401.617188 548.269531 399.703125 554.269531 399.554688 560.707031 C 399.554688 569.339844 402.71875 576.4375 409.050781 582 C 415.378906 587.5625 422.742188 590.414062 431.132812 590.5625 Z M 431.132812 590.5625 " fill-opacity="1" fill-rule="nonzero"/><path fill="#000000" d="M 243.433594 396.292969 L 508.421875 396.292969 L 508.421875 383.121094 L 243.433594 383.121094 Z M 243.433594 396.292969 " fill-opacity="1" fill-rule="nonzero"/></svg>