<svg xmlns="http://www.w3.org/2000/svg" xmlns:xlink="http://www.w3.org/1999/xlink" width="1000" zoomAndPan="magnify" viewBox="0 0 750 749.999995" height="1000" preserveAspectRatio="xMidYMid meet" version="1.0"><defs><clipPath id="84b5badd48"><path d="M 115 115 L 632 115 L 632 633 L 115 633 Z M 115 115 " clip-rule="nonzero"/></clipPath><clipPath id="5f31397f5a"><path d="M 21.421875 261.882812 L 488.117188 21.421875 L 728.578125 488.117188 L 261.882812 728.578125 Z M 21.421875 261.882812 " clip-rule="nonzero"/></clipPath><clipPath id="67276b026e"><path d="M 21.421875 261.882812 L 488.117188 21.421875 L 728.578125 488.117188 L 261.882812 728.578125 Z M 21.421875 261.882812 " clip-rule="nonzero"/></clipPath><clipPath id="c5985eaa7c"><path d="M 21.421875 261.882812 L 488.117188 21.421875 L 728.578125 488.117188 L 261.882812 728.578125 Z M 21.421875 261.882812 " clip-rule="nonzero"/></clipPath><clipPath id="06bc916f6b"><path d="M 127 145 L 376 145 L 376 378 L 127 378 Z M 127 145 " clip-rule="nonzero"/></clipPath><clipPath id="446b7cb947"><path d="M 21.421875 261.882812 L 488.117188 21.421875 L 728.578125 488.117188 L 261.882812 728.578125 Z M 21.421875 261.882812 " clip-rule="nonzero"/></clipPath><clipPath id="399b408662"><path d="M 21.421875 261.882812 L 488.117188 21.421875 L 728.578125 488.117188 L 261.882812 728.578125 Z M 21.421875 261.882812 " clip-rule="nonzero"/></clipPath><clipPath id="9dd4960e76"><path d="M 21.421875 261.882812 L 488.117188 21.421875 L 728.578125 488.117188 L 261.882812 728.578125 Z M 21.421875 261.882812 " clip-rule="nonzero"/></clipPath><clipPath id="b51c95ba4f"><path d="M 112 112 L 638 112 L 638 638 L 112 638 Z M 112 112 " clip-rule="nonzero"/></clipPath><clipPath id="b004818386"><path d="M 21.421875 261.882812 L 488.117188 21.421875 L 728.578125 488.117188 L 261.882812 728.578125 Z M 21.421875 261.882812 " clip-rule="nonzero"/></clipPath><clipPath id="72f8927164"><path d="M 21.421875 261.882812 L 488.117188 21.421875 L 728.578125 488.117188 L 261.882812 728.578125 Z M 21.421875 261.882812 " clip-rule="nonzero"/></clipPath><clipPath id="b881eea469"><path d="M 21.421875 261.882812 L 488.117188 21.421875 L 728.578125 488.117188 L 261.882812 728.578125 Z M 21.421875 261.882812 " clip-rule="nonzero"/></clipPath><clipPath id="c877909a75"><path d="M 300 379 L 492 379 L 492 630 L 300 630 Z M 300 379 " clip-rule="nonzero"/></clipPath><clipPath id="a26094a54b"><path d="M 54.507812 540.332031 L 209.667969 54.507812 L 695.492188 209.667969 L 540.332031 695.492188 Z M 54.507812 540.332031 " clip-rule="nonzero"/></clipPath><clipPath id="ce16b308f2"><path d="M 54.507812 540.332031 L 209.667969 54.507812 L 695.492188 209.667969 L 540.332031 695.492188 Z M 54.507812 540.332031 " clip-rule="nonzero"/></clipPath><clipPath id="8c2de1bb7e"><path d="M 119 298 L 371 298 L 371 490 L 119 490 Z M 119 298 " clip-rule="nonzero"/></clipPath><clipPath id="59b5a074e4"><path d="M 54.507812 540.332031 L 209.667969 54.507812 L 695.492188 209.667969 L 540.332031 695.492188 Z M 54.507812 540.332031 " clip-rule="nonzero"/></clipPath><clipPath id="168f4d8d6c"><path d="M 54.507812 540.332031 L 209.667969 54.507812 L 695.492188 209.667969 L 540.332031 695.492188 Z M 54.507812 540.332031 " clip-rule="nonzero"/></clipPath><clipPath id="ae5bf8e154"><path d="M 133 148 L 372 148 L 372 371 L 133 371 Z M 133 148 " clip-rule="nonzero"/></clipPath><clipPath id="03d3e0a17e"><path d="M 54.507812 540.332031 L 209.667969 54.507812 L 695.492188 209.667969 L 540.332031 695.492188 Z M 54.507812 540.332031 " clip-rule="nonzero"/></clipPath><clipPath id="700a43d767"><path d="M 54.507812 540.332031 L 209.667969 54.507812 L 695.492188 209.667969 L 540.332031 695.492188 Z M 54.507812 540.332031 " clip-rule="nonzero"/></clipPath><clipPath id="c13412e44f"><path d="M 149 378 L 373 378 L 373 618 L 149 618 Z M 149 378 " clip-rule="nonzero"/></clipPath><clipPath id="29c7d2cb3a"><path d="M 54.507812 540.332031 L 209.667969 54.507812 L 695.492188 209.667969 L 540.332031 695.492188 Z M 54.507812 540.332031 " clip-rule="nonzero"/></clipPath><clipPath id="86ca98e897"><path d="M 54.507812 540.332031 L 209.667969 54.507812 L 695.492188 209.667969 L 540.332031 695.492188 Z M 54.507812 540.332031 " clip-rule="nonzero"/></clipPath><clipPath id="eddc245df1"><path d="M 380 377 L 618 377 L 618 600 L 380 600 Z M 380 377 " clip-rule="nonzero"/></clipPath><clipPath id="51f35656d3"><path d="M 54.507812 540.332031 L 209.667969 54.507812 L 695.492188 209.667969 L 540.332031 695.492188 Z M 54.507812 540.332031 " clip-rule="nonzero"/></clipPath><clipPath id="0e51e4b0e1"><path d="M 54.507812 540.332031 L 209.667969 54.507812 L 695.492188 209.667969 L 540.332031 695.492188 Z M 54.507812 540.332031 " clip-rule="nonzero"/></clipPath><clipPath id="508d2d3c31"><path d="M 261 119 L 452 119 L 452 369 L 261 369 Z M 261 119 " clip-rule="nonzero"/></clipPath><clipPath id="4ae73ab139"><path d="M 54.507812 540.332031 L 209.667969 54.507812 L 695.492188 209.667969 L 540.332031 695.492188 Z M 54.507812 540.332031 " clip-rule="nonzero"/></clipPath><clipPath id="cf3b7c2ac6"><path d="M 54.507812 540.332031 L 209.667969 54.507812 L 695.492188 209.667969 L 540.332031 695.492188 Z M 54.507812 540.332031 " clip-rule="nonzero"/></clipPath><clipPath id="43ed8b5c3a"><path d="M 382 260 L 631 260 L 631 450 L 382 450 Z M 382 260 " clip-rule="nonzero"/></clipPath><clipPath id="fef8cdf8d0"><path d="M 54.507812 540.332031 L 209.667969 54.507812 L 695.492188 209.667969 L 540.332031 695.492188 Z M 54.507812 540.332031 " clip-rule="nonzero"/></clipPath><clipPath id="1ba0a117c8"><path d="M 54.507812 540.332031 L 209.667969 54.507812 L 695.492188 209.667969 L 540.332031 695.492188 Z M 54.507812 540.332031 " clip-rule="nonzero"/></clipPath><clipPath id="e906aa9d0e"><path d="M 380 133 L 601 133 L 601 370 L 380 370 Z M 380 133 " clip-rule="nonzero"/></clipPath><clipPath id="1620f82f02"><path d="M 54.507812 540.332031 L 209.667969 54.507812 L 695.492188 209.667969 L 540.332031 695.492188 Z M 54.507812 540.332031 " clip-rule="nonzero"/></clipPath><clipPath id="36e6a21f4b"><path d="M 54.507812 540.332031 L 209.667969 54.507812 L 695.492188 209.667969 L 540.332031 695.492188 Z M 54.507812 540.332031 " clip-rule="nonzero"/></clipPath></defs><rect x="-75" width="900" fill="#ffffff" y="-74.999999" height="899.999994" fill-opacity="1"/><rect x="-75" width="900" fill="#ffffff" y="-74.999999" height="899.999994" fill-opacity="1"/><g clip-path="url(#84b5badd48)"><g clip-path="url(#5f31397f5a)"><g clip-path="url(#67276b026e)"><g clip-path="url(#c5985eaa7c)"><path fill="#ffffff" d="M 603.066406 255.878906 C 605.003906 259.632812 606.847656 263.433594 608.59375 267.28125 C 610.34375 271.128906 611.996094 275.015625 613.554688 278.945312 C 615.113281 282.871094 616.574219 286.835938 617.9375 290.835938 C 619.300781 294.835938 620.5625 298.867188 621.730469 302.929688 C 622.894531 306.988281 623.960938 311.078125 624.925781 315.191406 C 625.890625 319.304688 626.753906 323.441406 627.515625 327.597656 C 628.277344 331.753906 628.933594 335.925781 629.492188 340.117188 C 630.050781 344.304688 630.503906 348.503906 630.851562 352.714844 C 631.203125 356.925781 631.449219 361.144531 631.59375 365.367188 C 631.738281 369.589844 631.777344 373.816406 631.714844 378.039062 C 631.652344 382.265625 631.484375 386.484375 631.210938 390.703125 C 630.941406 394.917969 630.566406 399.128906 630.089844 403.328125 C 629.609375 407.523438 629.03125 411.710938 628.347656 415.878906 C 627.664062 420.050781 626.878906 424.199219 625.992188 428.332031 C 625.105469 432.464844 624.117188 436.570312 623.03125 440.652344 C 621.941406 444.738281 620.753906 448.789062 619.464844 452.816406 C 618.179688 456.839844 616.792969 460.832031 615.308594 464.789062 C 613.824219 468.742188 612.246094 472.660156 610.570312 476.542969 C 608.894531 480.421875 607.125 484.257812 605.257812 488.046875 C 603.394531 491.839844 601.4375 495.585938 599.390625 499.28125 C 597.34375 502.976562 595.207031 506.621094 592.980469 510.210938 C 590.75 513.804688 588.4375 517.335938 586.039062 520.816406 C 583.636719 524.292969 581.152344 527.710938 578.585938 531.066406 C 576.015625 534.421875 573.367188 537.710938 570.636719 540.9375 C 567.90625 544.164062 565.101562 547.320312 562.214844 550.40625 C 559.332031 553.496094 556.371094 556.511719 553.339844 559.453125 C 550.308594 562.394531 547.203125 565.261719 544.03125 568.050781 C 540.855469 570.84375 537.617188 573.550781 534.308594 576.183594 C 531.003906 578.816406 527.632812 581.363281 524.203125 583.828125 C 520.769531 586.292969 517.28125 588.675781 513.730469 590.96875 C 510.183594 593.261719 506.582031 595.46875 502.921875 597.585938 C 499.265625 599.703125 495.558594 601.730469 491.804688 603.664062 C 488.046875 605.601562 484.246094 607.445312 480.398438 609.191406 C 476.550781 610.941406 472.664062 612.59375 468.738281 614.152344 C 464.808594 615.710938 460.84375 617.171875 456.84375 618.535156 C 452.847656 619.898438 448.816406 621.160156 444.753906 622.328125 C 440.691406 623.492188 436.601562 624.558594 432.488281 625.523438 C 428.375 626.488281 424.238281 627.351562 420.082031 628.113281 C 415.925781 628.875 411.753906 629.53125 407.566406 630.089844 C 403.375 630.648438 399.175781 631.101562 394.964844 631.449219 C 390.753906 631.800781 386.539062 632.050781 382.3125 632.191406 C 378.089844 632.335938 373.867188 632.375 369.640625 632.3125 C 365.417969 632.25 361.195312 632.082031 356.980469 631.808594 C 352.761719 631.539062 348.554688 631.164062 344.355469 630.6875 C 340.15625 630.207031 335.972656 629.628906 331.800781 628.945312 C 327.632812 628.261719 323.480469 627.476562 319.351562 626.589844 C 315.21875 625.703125 311.109375 624.714844 307.027344 623.628906 C 302.945312 622.539062 298.890625 621.351562 294.867188 620.0625 C 290.839844 618.777344 286.851562 617.390625 282.894531 615.90625 C 278.9375 614.421875 275.019531 612.84375 271.140625 611.167969 C 267.261719 609.492188 263.425781 607.722656 259.632812 605.855469 C 255.839844 603.992188 252.097656 602.035156 248.402344 599.988281 C 244.703125 597.941406 241.0625 595.804688 237.46875 593.578125 C 233.878906 591.347656 230.34375 589.035156 226.867188 586.636719 C 223.386719 584.234375 219.972656 581.75 216.617188 579.183594 C 213.261719 576.613281 209.96875 573.964844 206.746094 571.234375 C 203.519531 568.503906 200.363281 565.699219 197.273438 562.8125 C 194.1875 559.929688 191.171875 556.96875 188.230469 553.9375 C 185.285156 550.90625 182.417969 547.800781 179.628906 544.628906 C 176.839844 541.453125 174.128906 538.214844 171.496094 534.90625 C 168.867188 531.601562 166.316406 528.230469 163.851562 524.800781 C 161.386719 521.367188 159.007812 517.878906 156.710938 514.328125 C 154.417969 510.78125 152.210938 507.179688 150.09375 503.523438 C 147.976562 499.863281 145.949219 496.15625 144.015625 492.402344 C 142.082031 488.644531 140.238281 484.84375 138.488281 480.996094 C 136.742188 477.148438 135.085938 473.261719 133.527344 469.335938 C 131.972656 465.40625 130.511719 461.441406 129.148438 457.441406 C 127.785156 453.445312 126.519531 449.414062 125.355469 445.351562 C 124.1875 441.289062 123.125 437.203125 122.160156 433.085938 C 121.195312 428.972656 120.332031 424.835938 119.570312 420.679688 C 118.808594 416.523438 118.148438 412.351562 117.589844 408.164062 C 117.035156 403.976562 116.582031 399.773438 116.230469 395.5625 C 115.878906 391.351562 115.632812 387.136719 115.488281 382.910156 C 115.34375 378.6875 115.304688 374.464844 115.371094 370.238281 C 115.433594 366.015625 115.601562 361.792969 115.871094 357.578125 C 116.144531 353.359375 116.515625 349.152344 116.996094 344.953125 C 117.472656 340.753906 118.054688 336.570312 118.734375 332.398438 C 119.417969 328.230469 120.203125 324.078125 121.089844 319.949219 C 121.976562 315.816406 122.964844 311.707031 124.054688 307.625 C 125.144531 303.542969 126.332031 299.488281 127.617188 295.464844 C 128.90625 291.4375 130.292969 287.449219 131.773438 283.492188 C 133.257812 279.535156 134.839844 275.617188 136.515625 271.738281 C 138.191406 267.859375 139.960938 264.023438 141.824219 260.230469 C 143.6875 256.4375 145.644531 252.695312 147.691406 249 C 149.742188 245.300781 151.878906 241.660156 154.105469 238.066406 C 156.332031 234.476562 158.644531 230.941406 161.046875 227.464844 C 163.445312 223.984375 165.929688 220.570312 168.5 217.214844 C 171.066406 213.859375 173.714844 210.566406 176.445312 207.34375 C 179.175781 204.117188 181.984375 200.960938 184.867188 197.871094 C 187.753906 194.785156 190.710938 191.769531 193.746094 188.828125 C 196.777344 185.882812 199.878906 183.015625 203.054688 180.226562 C 206.226562 177.4375 209.46875 174.726562 212.773438 172.09375 C 216.082031 169.464844 219.449219 166.914062 222.882812 164.449219 C 226.3125 161.984375 229.804688 159.605469 233.351562 157.308594 C 236.898438 155.015625 240.503906 152.808594 244.160156 150.691406 C 247.816406 148.574219 251.523438 146.546875 255.28125 144.613281 C 259.035156 142.679688 262.835938 140.835938 266.683594 139.085938 C 270.53125 137.339844 274.417969 135.683594 278.347656 134.125 C 282.273438 132.570312 286.238281 131.109375 290.238281 129.746094 C 294.238281 128.382812 298.269531 127.117188 302.332031 125.953125 C 306.390625 124.785156 310.480469 123.722656 314.59375 122.757812 C 318.707031 121.792969 322.84375 120.929688 327 120.167969 C 331.15625 119.40625 335.328125 118.746094 339.519531 118.1875 C 343.707031 117.632812 347.90625 117.179688 352.117188 116.828125 C 356.328125 116.476562 360.546875 116.230469 364.769531 116.085938 C 368.992188 115.941406 373.214844 115.902344 377.441406 115.96875 C 381.667969 116.03125 385.886719 116.199219 390.105469 116.46875 C 394.320312 116.742188 398.53125 117.113281 402.730469 117.59375 C 406.925781 118.070312 411.113281 118.652344 415.28125 119.332031 C 419.453125 120.015625 423.601562 120.800781 427.734375 121.6875 C 431.867188 122.574219 435.972656 123.5625 440.054688 124.652344 C 444.140625 125.742188 448.191406 126.929688 452.21875 128.214844 C 456.242188 129.503906 460.234375 130.890625 464.191406 132.371094 C 468.144531 133.855469 472.0625 135.4375 475.945312 137.113281 C 479.824219 138.789062 483.660156 140.558594 487.449219 142.421875 C 491.242188 144.285156 494.988281 146.242188 498.683594 148.289062 C 502.378906 150.339844 506.023438 152.476562 509.613281 154.703125 C 513.207031 156.929688 516.738281 159.242188 520.21875 161.644531 C 523.695312 164.042969 527.113281 166.527344 530.46875 169.097656 C 533.824219 171.664062 537.113281 174.3125 540.339844 177.042969 C 543.566406 179.773438 546.722656 182.582031 549.808594 185.464844 C 552.898438 188.351562 555.914062 191.308594 558.855469 194.34375 C 561.796875 197.375 564.664062 200.476562 567.453125 203.652344 C 570.246094 206.824219 572.953125 210.066406 575.585938 213.371094 C 578.21875 216.679688 580.765625 220.046875 583.230469 223.480469 C 585.695312 226.910156 588.078125 230.402344 590.371094 233.949219 C 592.664062 237.5 594.871094 241.101562 596.988281 244.757812 C 599.105469 248.414062 601.132812 252.121094 603.066406 255.878906 Z M 603.066406 255.878906 " fill-opacity="1" fill-rule="nonzero"/></g></g></g></g><g clip-path="url(#06bc916f6b)"><g clip-path="url(#446b7cb947)"><g clip-path="url(#399b408662)"><g clip-path="url(#9dd4960e76)"><path fill="#fdcd4f" d="M 256.527344 145.878906 L 375.859375 377.480469 L 127.707031 298.09375 C 138.132812 265.5 154.804688 235.300781 176.941406 209.210938 C 199.074219 183.125 226.058594 161.578125 256.527344 145.878906 Z M 256.527344 145.878906 " fill-opacity="1" fill-rule="nonzero"/></g></g></g></g><g clip-path="url(#b51c95ba4f)"><g clip-path="url(#b004818386)"><g clip-path="url(#72f8927164)"><g clip-path="url(#b881eea469)"><path fill="#323232" d="M 606.425781 251.042969 C 590.742188 221.757812 570.019531 196.140625 544.605469 174.617188 C 519.234375 153.183594 490.464844 136.96875 459.058594 126.289062 L 455.054688 125.007812 L 451.054688 123.730469 C 419.230469 114.101562 386.390625 110.605469 353.292969 113.332031 C 320.101562 116.109375 288.265625 124.992188 258.589844 139.683594 L 251.042969 143.574219 C 221.757812 159.257812 196.140625 179.980469 174.617188 205.394531 C 153.183594 230.765625 136.96875 259.535156 126.289062 290.941406 L 125.011719 294.945312 L 123.730469 298.945312 C 114.195312 330.722656 110.699219 363.5625 113.425781 396.65625 C 116.109375 429.898438 124.992188 461.734375 139.734375 491.503906 L 141.675781 495.277344 L 143.621094 499.050781 C 159.308594 528.335938 180.027344 553.953125 205.445312 575.476562 C 230.8125 596.910156 259.582031 613.125 290.992188 623.804688 L 294.992188 625.085938 L 298.996094 626.363281 C 330.675781 635.949219 363.609375 639.394531 396.707031 636.667969 C 429.804688 633.941406 461.640625 625.058594 491.410156 610.316406 L 498.957031 606.425781 C 528.242188 590.742188 553.859375 570.019531 575.382812 544.605469 C 596.816406 519.234375 613.03125 490.464844 623.710938 459.058594 L 624.988281 455.054688 L 626.269531 451.054688 C 635.855469 419.375 639.300781 386.4375 636.574219 353.34375 C 633.84375 320.246094 624.964844 288.410156 610.222656 258.640625 L 608.277344 254.863281 Z M 539.128906 181.136719 C 563.683594 201.914062 583.730469 226.683594 598.878906 254.929688 L 382.183594 366.582031 L 456.546875 134.390625 C 486.90625 144.652344 514.671875 160.3125 539.128906 181.136719 Z M 353.964844 121.820312 C 386.019531 119.152344 417.71875 122.519531 448.398438 131.78125 L 374.128906 363.925781 L 262.480469 147.230469 C 291.210938 133.023438 321.914062 124.488281 353.964844 121.820312 Z M 181.136719 210.871094 C 201.914062 186.316406 226.683594 166.269531 254.929688 151.121094 L 366.582031 367.816406 L 134.4375 293.546875 C 144.703125 263.191406 160.359375 235.421875 181.136719 210.871094 Z M 121.871094 396.128906 C 119.203125 364.074219 122.566406 332.375 131.832031 301.695312 L 363.976562 375.964844 L 147.28125 487.617188 C 133.074219 458.882812 124.488281 428.085938 121.871094 396.128906 Z M 210.917969 568.957031 C 186.363281 548.179688 166.320312 523.410156 151.167969 495.164062 L 367.863281 383.511719 L 293.597656 615.65625 C 263.238281 605.390625 235.472656 589.734375 210.917969 568.957031 Z M 396.128906 628.128906 C 364.074219 630.796875 332.375 627.433594 301.695312 618.167969 L 375.964844 386.023438 L 487.617188 602.71875 C 458.882812 616.925781 428.085938 625.511719 396.128906 628.128906 Z M 568.957031 539.082031 C 548.179688 563.636719 523.410156 583.679688 495.164062 598.832031 L 383.511719 382.136719 L 457.699219 405.871094 L 615.65625 456.402344 C 605.441406 486.855469 589.78125 514.621094 568.957031 539.082031 Z M 628.179688 353.964844 C 630.847656 386.019531 627.480469 417.71875 618.21875 448.398438 L 460.355469 397.816406 L 386.074219 374.128906 L 602.769531 262.480469 C 616.976562 291.210938 625.511719 321.914062 628.179688 353.964844 Z M 628.179688 353.964844 " fill-opacity="1" fill-rule="nonzero"/></g></g></g></g><g clip-path="url(#c877909a75)"><g clip-path="url(#a26094a54b)"><g clip-path="url(#ce16b308f2)"><path fill="#ffffff" d="M 376.855469 379.953125 L 300.574219 618.789062 C 366.453125 638.910156 434.355469 631.066406 491.332031 601.855469 Z M 376.855469 379.953125 " fill-opacity="1" fill-rule="evenodd"/></g></g></g><g clip-path="url(#8c2de1bb7e)"><g clip-path="url(#59b5a074e4)"><g clip-path="url(#168f4d8d6c)"><path fill="#ffffff" d="M 131.753906 298.410156 C 110.984375 364.410156 118.457031 432.578125 147.390625 489.875 L 370.648438 374.707031 Z M 131.753906 298.410156 " fill-opacity="1" fill-rule="evenodd"/></g></g></g><g clip-path="url(#ae5bf8e154)"><g clip-path="url(#03d3e0a17e)"><g clip-path="url(#700a43d767)"><path fill="#ffffff" d="M 133.144531 294.234375 L 371.984375 370.511719 L 257.511719 148.605469 C 200.683594 178.101562 154.933594 228.890625 133.144531 294.234375 " fill-opacity="1" fill-rule="evenodd"/></g></g></g><g clip-path="url(#c13412e44f)"><g clip-path="url(#29c7d2cb3a)"><g clip-path="url(#86ca98e897)"><path fill="#ffffff" d="M 372.664062 378.613281 L 149.410156 493.78125 C 179.324219 550.574219 230.546875 596.171875 296.367188 617.503906 Z M 372.664062 378.613281 " fill-opacity="1" fill-rule="evenodd"/></g></g></g><g clip-path="url(#eddc245df1)"><g clip-path="url(#51f35656d3)"><g clip-path="url(#0e51e4b0e1)"><path fill="#6d5764" d="M 380.765625 377.9375 L 495.207031 599.777344 C 551.359375 569.761719 596.40625 518.855469 617.5625 453.566406 Z M 380.765625 377.9375 " fill-opacity="1" fill-rule="evenodd"/></g></g></g><g clip-path="url(#508d2d3c31)"><g clip-path="url(#4ae73ab139)"><g clip-path="url(#cf3b7c2ac6)"><path fill="#ffffff" d="M 375.894531 368.496094 L 451.523438 131.699219 C 386.054688 111.09375 318.460938 118.296875 261.453125 146.65625 Z M 375.894531 368.496094 " fill-opacity="1" fill-rule="evenodd"/></g></g></g><g clip-path="url(#43ed8b5c3a)"><g clip-path="url(#fef8cdf8d0)"><g clip-path="url(#1ba0a117c8)"><path fill="#6d5764" d="M 382.105469 373.746094 L 618.847656 449.355469 C 638.804688 384.011719 631.226562 316.691406 602.59375 260.003906 Z M 382.105469 373.746094 " fill-opacity="1" fill-rule="evenodd"/></g></g></g><g clip-path="url(#e906aa9d0e)"><g clip-path="url(#1620f82f02)"><g clip-path="url(#36e6a21f4b)"><path fill="#ffffff" d="M 380.085938 369.835938 L 600.582031 256.09375 C 570.984375 199.90625 520.511719 154.703125 455.699219 133.089844 Z M 380.085938 369.835938 " fill-opacity="1" fill-rule="evenodd"/></g></g></g></svg>