<svg xmlns="http://www.w3.org/2000/svg" xmlns:xlink="http://www.w3.org/1999/xlink" width="1000" zoomAndPan="magnify" viewBox="0 0 750 749.999995" height="1000" preserveAspectRatio="xMidYMid meet" version="1.0"><defs><clipPath id="5d6c61c730"><path d="M 464 306.976562 L 587 306.976562 L 587 443.023438 L 464 443.023438 Z M 464 306.976562 " clip-rule="nonzero"/></clipPath></defs><rect x="-75" width="900" fill="#ffffff" y="-74.999999" height="899.999994" fill-opacity="1"/><rect x="-75" width="900" fill="#ffffff" y="-74.999999" height="899.999994" fill-opacity="1"/><path fill="#000000" d="M 161.738281 380.738281 C 161.738281 362.398438 166.296875 347.878906 175.417969 337.191406 C 184.539062 326.5 194.675781 321.15625 205.824219 321.15625 C 213.59375 321.15625 219.167969 323.179688 222.546875 327.230469 C 225.921875 331.28125 227.613281 335.785156 227.613281 340.734375 C 227.613281 343.546875 226.824219 345.800781 225.246094 347.488281 C 223.671875 349.175781 221.476562 350.019531 218.660156 350.019531 C 216.070312 350.019531 213.929688 349.230469 212.242188 347.65625 C 210.550781 346.082031 209.707031 343.886719 209.707031 341.074219 C 209.707031 336.121094 212.355469 333.140625 217.648438 332.125 C 215.167969 329.652344 211.679688 328.246094 207.175781 327.90625 C 199.179688 327.90625 192.589844 331.28125 187.410156 338.035156 C 182.117188 345.460938 179.472656 356.828125 179.472656 372.128906 L 179.640625 372.804688 C 180.203125 372.128906 180.65625 371.398438 180.992188 370.613281 C 185.609375 363.859375 191.632812 360.484375 199.066406 360.484375 L 199.742188 360.484375 C 204.921875 360.484375 209.484375 361.554688 213.425781 363.691406 C 216.125 365.265625 218.828125 367.515625 221.53125 370.441406 C 224.234375 373.367188 226.429688 376.574219 228.121094 380.0625 C 230.484375 385.578125 231.667969 391.597656 231.667969 398.125 L 231.667969 401.164062 C 231.667969 403.75 231.386719 406.171875 230.820312 408.421875 C 229.582031 415.058594 225.980469 421.53125 220.011719 427.832031 C 214.042969 434.132812 206.5 437.285156 197.378906 437.285156 C 194.222656 437.285156 191.183594 436.835938 188.257812 435.933594 C 185.328125 435.035156 182.175781 433.347656 178.796875 430.871094 C 175.417969 428.394531 172.546875 425.074219 170.183594 420.910156 C 167.816406 416.746094 165.789062 411.289062 164.101562 404.539062 C 162.414062 397.785156 161.625 389.855469 161.738281 380.738281 Z M 198.054688 366.558594 C 194.675781 366.558594 191.746094 367.515625 189.269531 369.429688 C 186.792969 371.34375 184.878906 373.875 183.527344 377.027344 C 182.175781 380.175781 181.21875 383.382812 180.65625 386.648438 C 180.09375 389.910156 179.753906 393.398438 179.640625 397.113281 C 179.640625 406.453125 180.316406 413.148438 181.667969 417.199219 C 183.019531 421.25 185.160156 424.511719 188.085938 426.988281 C 190.789062 429.011719 193.773438 430.027344 197.039062 430.027344 C 202.78125 430.027344 207.175781 427.886719 210.214844 423.613281 C 211.679688 421.585938 212.691406 419.054688 213.253906 416.015625 C 213.816406 412.976562 214.097656 407.070312 214.097656 398.292969 C 214.097656 389.292969 213.816406 383.269531 213.253906 380.234375 C 212.691406 377.195312 211.679688 374.664062 210.214844 372.636719 C 207.175781 368.585938 203.121094 366.558594 198.054688 366.558594 Z M 198.054688 366.558594 " fill-opacity="1" fill-rule="nonzero"/><path fill="#000000" d="M 257.511719 361.160156 C 254.46875 361.160156 252.046875 360.144531 250.246094 358.121094 C 248.445312 356.09375 247.542969 353.621094 247.542969 350.695312 C 247.542969 342.703125 250.527344 335.785156 256.496094 329.933594 C 262.464844 324.082031 269.898438 321.15625 278.792969 321.15625 C 289.039062 321.15625 297.597656 324.304688 304.46875 330.609375 C 311.335938 336.910156 314.828125 345.066406 314.941406 355.082031 C 314.941406 359.921875 313.8125 364.535156 311.5625 368.921875 C 309.308594 373.3125 306.605469 377.136719 303.453125 380.402344 C 300.300781 383.664062 295.796875 387.828125 289.941406 392.890625 C 285.886719 396.378906 280.257812 401.554688 273.050781 408.421875 L 263.085938 417.875 L 275.921875 418.042969 C 293.601562 418.042969 303.003906 417.761719 304.128906 417.199219 C 304.917969 416.972656 306.269531 411.964844 308.183594 402.175781 L 308.183594 401.667969 L 314.941406 401.667969 L 314.941406 402.175781 C 314.828125 402.511719 314.09375 407.632812 312.742188 417.535156 C 311.394531 427.4375 310.546875 432.613281 310.210938 433.066406 L 310.210938 433.570312 L 247.542969 433.570312 L 247.542969 428.339844 C 247.542969 427.550781 247.882812 426.707031 248.558594 425.804688 C 249.234375 424.90625 250.921875 422.9375 253.625 419.898438 C 256.890625 416.296875 259.707031 413.148438 262.070312 410.445312 C 263.085938 409.320312 265 407.238281 267.8125 404.199219 C 270.628906 401.164062 272.542969 399.082031 273.554688 397.957031 C 274.570312 396.832031 276.203125 394.972656 278.453125 392.386719 C 280.707031 389.796875 282.285156 387.882812 283.183594 386.648438 C 284.085938 385.410156 285.378906 383.722656 287.070312 381.582031 C 288.757812 379.445312 289.941406 377.644531 290.617188 376.179688 C 291.292969 374.71875 292.136719 373.085938 293.148438 371.285156 C 294.164062 369.484375 294.894531 367.6875 295.347656 365.886719 C 295.796875 364.085938 296.191406 362.398438 296.527344 360.820312 C 296.867188 359.246094 297.035156 357.390625 297.035156 355.25 C 297.035156 348.160156 295.121094 342.027344 291.292969 336.851562 C 287.464844 331.675781 282.003906 329.089844 274.90625 329.089844 C 271.191406 329.089844 267.925781 330.046875 265.109375 331.957031 C 262.296875 333.871094 260.324219 335.726562 259.199219 337.527344 C 258.074219 339.328125 257.511719 340.398438 257.511719 340.734375 C 257.511719 340.847656 257.792969 340.902344 258.355469 340.902344 C 260.382812 340.902344 262.464844 341.691406 264.605469 343.265625 C 266.742188 344.84375 267.8125 347.429688 267.8125 351.03125 C 267.8125 353.84375 266.914062 356.207031 265.109375 358.121094 C 263.308594 360.035156 260.777344 361.046875 257.511719 361.160156 Z M 257.511719 361.160156 " fill-opacity="1" fill-rule="nonzero"/><path fill="#000000" d="M 336.730469 423.445312 C 336.730469 420.742188 337.6875 418.378906 339.601562 416.355469 C 341.515625 414.328125 343.9375 413.316406 346.863281 413.316406 C 349.566406 413.316406 351.929688 414.214844 353.957031 416.015625 C 355.984375 417.816406 357.054688 420.234375 357.167969 423.273438 C 357.167969 426.085938 356.210938 428.507812 354.296875 430.53125 C 352.382812 432.558594 349.960938 433.570312 347.03125 433.570312 C 344.105469 433.570312 341.683594 432.613281 339.769531 430.703125 C 337.855469 428.789062 336.84375 426.367188 336.730469 423.445312 Z M 336.730469 423.445312 " fill-opacity="1" fill-rule="nonzero"/><path fill="#000000" d="M 398.214844 407.070312 C 398.214844 409.769531 397.3125 412.023438 395.511719 413.820312 C 393.710938 415.621094 391.511719 416.523438 388.921875 416.523438 L 387.742188 416.523438 C 392.921875 425.414062 399.789062 429.859375 408.347656 429.859375 C 416.230469 429.859375 421.972656 426.480469 425.578125 419.730469 C 427.714844 416.015625 428.785156 408.816406 428.785156 398.125 C 428.785156 386.535156 427.265625 378.714844 424.226562 374.664062 C 421.296875 370.949219 418.03125 369.09375 414.429688 369.09375 L 413.414062 369.09375 C 404.632812 369.09375 397.988281 372.917969 393.484375 380.570312 C 393.035156 381.359375 392.640625 381.808594 392.300781 381.921875 C 391.964844 382.03125 391.121094 382.144531 389.769531 382.257812 C 387.855469 382.257812 386.785156 381.921875 386.558594 381.246094 C 386.332031 380.796875 386.222656 370.949219 386.222656 351.707031 L 386.222656 329.933594 C 386.222656 324.304688 386.503906 321.492188 387.066406 321.492188 C 387.289062 321.269531 387.515625 321.15625 387.742188 321.15625 C 387.855469 321.15625 389.035156 321.605469 391.289062 322.503906 C 393.539062 323.40625 396.636719 324.304688 400.578125 325.207031 C 404.519531 326.105469 408.742188 326.554688 413.246094 326.554688 C 421.242188 326.554688 428.898438 324.980469 436.21875 321.832031 C 437.121094 321.378906 437.851562 321.15625 438.414062 321.15625 C 439.316406 321.15625 439.765625 322.167969 439.765625 324.195312 L 439.765625 326.386719 C 430.53125 337.304688 418.988281 342.761719 405.140625 342.761719 C 401.648438 342.761719 398.496094 342.421875 395.679688 341.746094 L 393.992188 341.410156 L 393.992188 370.441406 C 396.128906 368.867188 397.820312 367.628906 399.058594 366.730469 C 400.296875 365.828125 402.324219 364.929688 405.140625 364.027344 C 407.953125 363.128906 410.824219 362.679688 413.753906 362.679688 C 422.875 362.679688 430.589844 366.335938 436.894531 373.648438 C 443.199219 380.964844 446.351562 389.628906 446.351562 399.644531 C 446.351562 409.996094 442.75 418.828125 435.542969 426.144531 C 428.335938 433.457031 419.550781 437.171875 409.191406 437.285156 C 400.070312 437.285156 392.753906 434.246094 387.234375 428.167969 C 381.714844 422.09375 378.957031 415.230469 378.957031 407.578125 C 378.957031 404.875 379.578125 402.738281 380.816406 401.164062 C 382.054688 399.585938 383.347656 398.574219 384.699219 398.125 C 386.050781 397.675781 387.347656 397.449219 388.585938 397.449219 C 391.402344 397.449219 393.710938 398.40625 395.511719 400.320312 C 397.3125 402.230469 398.214844 404.480469 398.214844 407.070312 Z M 398.214844 407.070312 " fill-opacity="1" fill-rule="nonzero"/><g clip-path="url(#5d6c61c730)"><path fill="#000000" d="M 533.511719 331.453125 C 529.34375 331.453125 525.347656 330.945312 521.519531 329.933594 C 517.691406 328.917969 514.648438 327.90625 512.398438 326.894531 C 510.144531 325.882812 508.964844 325.375 508.851562 325.375 C 510.316406 329.089844 511.046875 334.320312 511.046875 341.074219 C 511.046875 351.199219 508.851562 359.359375 504.457031 365.546875 C 500.066406 371.738281 494.945312 374.886719 489.089844 375 C 482.667969 375 476.984375 371.90625 472.027344 365.714844 C 467.074219 359.527344 464.539062 351.3125 464.425781 341.074219 C 464.425781 331.058594 466.960938 322.898438 472.027344 316.597656 C 477.09375 310.296875 482.78125 307.089844 489.089844 306.976562 C 493.480469 306.976562 497.421875 308.722656 500.910156 312.210938 C 510.707031 320.875 521.519531 325.207031 533.34375 325.207031 C 546.40625 325.207031 556.878906 320.140625 564.761719 310.015625 C 566.113281 308.214844 567.125 307.257812 567.800781 307.144531 C 568.027344 307.03125 568.308594 306.976562 568.644531 306.976562 C 569.660156 306.976562 570.503906 307.371094 571.179688 308.160156 C 571.855469 308.945312 572.136719 309.902344 572.023438 311.027344 C 514.03125 398.011719 484.582031 441.785156 483.683594 442.347656 C 483.230469 442.796875 482.667969 443.023438 481.992188 443.023438 C 480.53125 443.023438 479.515625 442.40625 478.953125 441.167969 C 478.390625 440.152344 478.390625 439.140625 478.953125 438.128906 C 479.066406 437.789062 491.507812 419.167969 516.28125 382.257812 C 528.21875 364.480469 537.339844 350.863281 543.644531 341.410156 C 549.953125 331.957031 553.105469 327.230469 553.105469 327.230469 C 547.136719 330.046875 540.605469 331.453125 533.511719 331.453125 Z M 489.933594 368.585938 C 493.085938 368.585938 496.238281 366.222656 499.390625 361.496094 C 502.542969 356.769531 504.175781 349.960938 504.289062 341.074219 C 504.289062 333.308594 502.882812 326.78125 500.066406 321.492188 C 497.253906 316.203125 493.480469 313.503906 488.75 313.390625 C 487.960938 313.390625 487.171875 313.558594 486.386719 313.898438 C 485.597656 314.234375 484.527344 314.855469 483.175781 315.753906 C 481.824219 316.652344 480.699219 318.34375 479.796875 320.816406 C 478.898438 323.292969 478.164062 326.273438 477.601562 329.765625 C 477.375 332.015625 477.265625 335.785156 477.265625 341.074219 L 477.265625 344.617188 C 477.265625 354.859375 479.121094 361.835938 482.839844 365.546875 C 484.863281 367.574219 487.003906 368.585938 489.257812 368.585938 Z M 539.421875 408.925781 C 539.421875 399.023438 541.902344 390.921875 546.855469 384.621094 C 551.8125 378.320312 557.609375 375.113281 564.253906 375 C 570.109375 375 575.175781 378.09375 579.457031 384.285156 C 583.734375 390.472656 585.929688 398.6875 586.042969 408.925781 C 586.15625 419.167969 583.960938 427.382812 579.457031 433.570312 C 574.953125 439.761719 569.828125 442.910156 564.085938 443.023438 C 557.777344 443.023438 552.09375 439.871094 547.023438 433.570312 C 541.957031 427.269531 539.421875 419.054688 539.421875 408.925781 Z M 564.929688 436.609375 C 568.082031 436.609375 571.234375 434.246094 574.386719 429.519531 C 577.542969 424.792969 579.175781 417.929688 579.285156 408.925781 C 579.285156 401.164062 577.878906 394.636719 575.0625 389.347656 C 572.25 384.058594 568.476562 381.414062 563.746094 381.414062 C 562.957031 381.414062 562.171875 381.582031 561.382812 381.921875 C 560.59375 382.257812 559.523438 382.878906 558.171875 383.777344 C 556.820312 384.675781 555.695312 386.367188 554.792969 388.839844 C 553.894531 391.316406 553.160156 394.296875 552.597656 397.785156 C 552.484375 399.136719 552.429688 402.851562 552.429688 408.925781 L 552.429688 412.640625 C 552.429688 428.621094 556.371094 436.609375 564.253906 436.609375 Z M 564.929688 436.609375 " fill-opacity="1" fill-rule="nonzero"/></g></svg>