<svg xmlns="http://www.w3.org/2000/svg" xmlns:xlink="http://www.w3.org/1999/xlink" width="1000" zoomAndPan="magnify" viewBox="0 0 750 749.999995" height="1000" preserveAspectRatio="xMidYMid meet" version="1.0"><defs><g/></defs><rect x="-75" width="900" fill="#ffffff" y="-74.999999" height="899.999994" fill-opacity="1"/><rect x="-75" width="900" fill="#ffffff" y="-74.999999" height="899.999994" fill-opacity="1"/><g fill="#000000" fill-opacity="1"><g transform="translate(63.546892, 463.467973)"><g><path d="M 120.609375 -130.75 C 120.609375 -120.226562 117.421875 -111.28125 111.046875 -103.90625 C 104.671875 -96.53125 95.722656 -91.460938 84.203125 -88.703125 L 84.203125 -88.015625 C 97.796875 -86.316406 108.085938 -82.1875 115.078125 -75.625 C 122.066406 -69.0625 125.5625 -60.210938 125.5625 -49.078125 C 125.5625 -32.867188 119.6875 -20.253906 107.9375 -11.234375 C 96.1875 -2.210938 79.40625 2.296875 57.59375 2.296875 C 39.320312 2.296875 23.117188 -0.734375 8.984375 -6.796875 L 8.984375 -37.09375 C 15.515625 -33.789062 22.695312 -31.101562 30.53125 -29.03125 C 38.363281 -26.957031 46.117188 -25.921875 53.796875 -25.921875 C 65.546875 -25.921875 74.222656 -27.914062 79.828125 -31.90625 C 85.429688 -35.90625 88.234375 -42.316406 88.234375 -51.140625 C 88.234375 -59.054688 85.007812 -64.664062 78.5625 -67.96875 C 72.113281 -71.269531 61.820312 -72.921875 47.6875 -72.921875 L 34.90625 -72.921875 L 34.90625 -100.21875 L 47.921875 -100.21875 C 60.972656 -100.21875 70.515625 -101.925781 76.546875 -105.34375 C 82.578125 -108.757812 85.59375 -114.617188 85.59375 -122.921875 C 85.59375 -135.660156 77.601562 -142.03125 61.625 -142.03125 C 56.09375 -142.03125 50.46875 -141.109375 44.75 -139.265625 C 39.03125 -137.421875 32.675781 -134.238281 25.6875 -129.71875 L 9.21875 -154.25 C 24.570312 -165.3125 42.890625 -170.84375 64.171875 -170.84375 C 81.597656 -170.84375 95.359375 -167.304688 105.453125 -160.234375 C 115.554688 -153.171875 120.609375 -143.34375 120.609375 -130.75 Z M 120.609375 -130.75 "/></g></g><g transform="translate(198.207154, 463.467973)"><g><path d="M 137.3125 0 L 102.171875 0 L 102.171875 -75.21875 C 102.171875 -84.507812 100.519531 -91.476562 97.21875 -96.125 C 93.914062 -100.769531 88.65625 -103.09375 81.4375 -103.09375 C 71.613281 -103.09375 64.507812 -99.8125 60.125 -93.25 C 55.75 -86.6875 53.5625 -75.800781 53.5625 -60.59375 L 53.5625 0 L 18.4375 0 L 18.4375 -128.796875 L 45.265625 -128.796875 L 50 -112.3125 L 51.953125 -112.3125 C 55.867188 -118.53125 61.265625 -123.234375 68.140625 -126.421875 C 75.015625 -129.609375 82.828125 -131.203125 91.578125 -131.203125 C 106.554688 -131.203125 117.921875 -127.148438 125.671875 -119.046875 C 133.429688 -110.953125 137.3125 -99.265625 137.3125 -83.984375 Z M 137.3125 0 "/></g></g><g transform="translate(353.256522, 463.467973)"><g/></g><g transform="translate(414.539038, 463.467973)"><g><path d="M 7.03125 -48.84375 L 7.03125 -77.640625 L 68.890625 -77.640625 L 68.890625 -48.84375 Z M 7.03125 -48.84375 "/></g></g><g transform="translate(490.451024, 463.467973)"><g/></g><g transform="translate(551.73354, 463.467973)"><g><path d="M 8.296875 -71.53125 C 8.296875 -104.863281 15.34375 -129.671875 29.4375 -145.953125 C 43.53125 -162.234375 64.628906 -170.375 92.734375 -170.375 C 102.328125 -170.375 109.851562 -169.796875 115.3125 -168.640625 L 115.3125 -140.1875 C 108.476562 -141.726562 101.71875 -142.5 95.03125 -142.5 C 82.820312 -142.5 72.859375 -140.65625 65.140625 -136.96875 C 57.421875 -133.28125 51.640625 -127.828125 47.796875 -120.609375 C 43.960938 -113.390625 41.703125 -103.140625 41.015625 -89.859375 L 42.5 -89.859375 C 50.101562 -102.910156 62.28125 -109.4375 79.03125 -109.4375 C 94.082031 -109.4375 105.867188 -104.710938 114.390625 -95.265625 C 122.910156 -85.816406 127.171875 -72.757812 127.171875 -56.09375 C 127.171875 -38.125 122.101562 -23.898438 111.96875 -13.421875 C 101.832031 -2.941406 87.78125 2.296875 69.8125 2.296875 C 57.363281 2.296875 46.515625 -0.578125 37.265625 -6.328125 C 28.015625 -12.085938 20.875 -20.5 15.84375 -31.5625 C 10.8125 -42.625 8.296875 -55.945312 8.296875 -71.53125 Z M 69.125 -26.15625 C 76.71875 -26.15625 82.550781 -28.707031 86.625 -33.8125 C 90.695312 -38.914062 92.734375 -46.191406 92.734375 -55.640625 C 92.734375 -63.859375 90.832031 -70.328125 87.03125 -75.046875 C 83.226562 -79.773438 77.488281 -82.140625 69.8125 -82.140625 C 62.59375 -82.140625 56.425781 -79.796875 51.3125 -75.109375 C 46.207031 -70.421875 43.65625 -64.96875 43.65625 -58.75 C 43.65625 -49.613281 46.054688 -41.894531 50.859375 -35.59375 C 55.660156 -29.300781 61.75 -26.15625 69.125 -26.15625 Z M 69.125 -26.15625 "/></g></g></g></svg>