<svg xmlns="http://www.w3.org/2000/svg" xmlns:xlink="http://www.w3.org/1999/xlink" width="1000" zoomAndPan="magnify" viewBox="0 0 750 749.999995" height="1000" preserveAspectRatio="xMidYMid meet" version="1.0"><defs><clipPath id="4cd5d3d033"><path d="M 306 395 L 330 395 L 330 450 L 306 450 Z M 306 395 " clip-rule="nonzero"/></clipPath></defs><rect x="-75" width="900" fill="#ffffff" y="-74.999999" height="899.999994" fill-opacity="1"/><rect x="-75" width="900" fill="#ffffff" y="-74.999999" height="899.999994" fill-opacity="1"/><path fill="#000000" d="M 155.347656 315.347656 L 153.078125 316.222656 C 151.449219 316.800781 149.125 317.382812 146.101562 317.964844 C 143.078125 318.546875 139.707031 318.953125 135.984375 319.1875 L 132.671875 319.1875 L 132.671875 311.164062 L 135.984375 311.164062 C 141.449219 310.929688 146.507812 310.058594 151.160156 308.546875 C 155.8125 307.035156 159.066406 305.640625 160.925781 304.359375 C 162.789062 303.082031 164.414062 301.800781 165.8125 300.523438 C 166.042969 300.175781 166.742188 300 167.902344 300 C 168.949219 300 169.9375 300.347656 170.871094 301.046875 L 170.871094 353.199219 L 171.042969 405.523438 C 171.859375 406.335938 172.554688 406.859375 173.136719 407.09375 C 173.71875 407.324219 175.113281 407.558594 177.324219 407.789062 C 179.53125 408.023438 183.136719 408.140625 188.136719 408.140625 L 192.671875 408.140625 L 192.671875 416.164062 L 190.753906 416.164062 C 188.3125 415.8125 179.066406 415.640625 163.019531 415.640625 C 147.207031 415.640625 138.078125 415.8125 135.636719 416.164062 L 133.542969 416.164062 L 133.542969 408.140625 L 138.078125 408.140625 C 140.636719 408.140625 142.847656 408.140625 144.707031 408.140625 C 146.566406 408.140625 148.019531 408.082031 149.066406 407.964844 C 150.113281 407.847656 151.042969 407.675781 151.859375 407.441406 C 152.671875 407.210938 153.136719 407.09375 153.253906 407.09375 C 153.371094 407.09375 153.71875 406.800781 154.300781 406.222656 C 154.878906 405.640625 155.230469 405.40625 155.347656 405.523438 Z M 155.347656 315.347656 " fill-opacity="1" fill-rule="nonzero"/><path fill="#000000" d="M 224.414062 341.335938 C 221.277344 341.335938 218.777344 340.289062 216.914062 338.199219 C 215.054688 336.105469 214.125 333.546875 214.125 330.523438 C 214.125 322.265625 217.207031 315.117188 223.371094 309.070312 C 229.53125 303.023438 237.207031 300 246.390625 300 C 256.972656 300 265.8125 303.253906 272.902344 309.765625 C 279.996094 316.277344 283.601562 324.710938 283.71875 335.058594 C 283.71875 340.058594 282.554688 344.824219 280.230469 349.359375 C 277.902344 353.894531 275.113281 357.847656 271.859375 361.222656 C 268.601562 364.59375 263.949219 368.894531 257.902344 374.128906 C 253.71875 377.734375 247.902344 383.082031 240.460938 390.175781 L 230.171875 399.941406 L 243.425781 400.117188 C 261.683594 400.117188 271.390625 399.824219 272.554688 399.246094 C 273.371094 399.011719 274.765625 393.835938 276.742188 383.722656 L 276.742188 383.199219 L 283.71875 383.199219 L 283.71875 383.722656 C 283.601562 384.070312 282.847656 389.359375 281.449219 399.59375 C 280.054688 409.824219 279.183594 415.175781 278.835938 415.640625 L 278.835938 416.164062 L 214.125 416.164062 L 214.125 410.753906 C 214.125 409.941406 214.472656 409.070312 215.171875 408.140625 C 215.871094 407.210938 217.613281 405.175781 220.402344 402.035156 C 223.777344 398.3125 226.683594 395.058594 229.125 392.265625 C 230.171875 391.105469 232.148438 388.953125 235.054688 385.8125 C 237.960938 382.675781 239.9375 380.523438 240.984375 379.359375 C 242.03125 378.199219 243.71875 376.277344 246.042969 373.605469 C 248.371094 370.929688 249.996094 368.953125 250.925781 367.675781 C 251.859375 366.394531 253.195312 364.652344 254.9375 362.441406 C 256.683594 360.234375 257.902344 358.371094 258.601562 356.859375 C 259.300781 355.347656 260.171875 353.664062 261.21875 351.800781 C 262.265625 349.941406 263.019531 348.082031 263.484375 346.222656 C 263.949219 344.359375 264.359375 342.617188 264.707031 340.988281 C 265.054688 339.359375 265.230469 337.441406 265.230469 335.234375 C 265.230469 327.90625 263.253906 321.570312 259.300781 316.222656 C 255.347656 310.871094 249.707031 308.199219 242.378906 308.199219 C 238.542969 308.199219 235.171875 309.1875 232.265625 311.164062 C 229.359375 313.140625 227.324219 315.058594 226.160156 316.917969 C 224.996094 318.777344 224.414062 319.882812 224.414062 320.234375 C 224.414062 320.347656 224.707031 320.40625 225.289062 320.40625 C 227.378906 320.40625 229.53125 321.222656 231.742188 322.847656 C 233.949219 324.476562 235.054688 327.152344 235.054688 330.871094 C 235.054688 333.777344 234.125 336.222656 232.265625 338.199219 C 230.402344 340.175781 227.789062 341.222656 224.414062 341.335938 Z M 224.414062 341.335938 " fill-opacity="1" fill-rule="nonzero"/><g clip-path="url(#4cd5d3d033)"><path fill="#000000" d="M 306.21875 410.058594 C 306.21875 410.058594 306.21875 408.605469 306.21875 405.699219 C 306.21875 402.789062 307.148438 400.289062 309.007812 398.199219 C 310.871094 396.105469 313.371094 395.058594 316.507812 395.058594 C 319.765625 395.058594 322.671875 396.511719 325.230469 399.417969 C 327.789062 402.324219 329.125 407.441406 329.242188 414.765625 C 329.242188 418.835938 328.71875 422.789062 327.671875 426.628906 C 326.625 430.464844 325.402344 433.777344 324.007812 436.570312 C 322.613281 439.359375 321.101562 441.746094 319.472656 443.722656 C 317.847656 445.699219 316.449219 447.265625 315.289062 448.429688 C 314.125 449.59375 313.371094 450.117188 313.019531 450 C 312.554688 450 311.800781 449.476562 310.753906 448.429688 C 309.707031 447.382812 309.183594 446.628906 309.183594 446.164062 C 309.183594 445.699219 309.824219 444.765625 311.101562 443.371094 C 312.378906 441.976562 313.835938 440.234375 315.460938 438.140625 C 317.089844 436.046875 318.601562 433.140625 319.996094 429.417969 C 321.390625 425.699219 322.324219 421.453125 322.789062 416.6875 L 322.789062 414.59375 L 322.613281 414.765625 C 322.378906 414.882812 322.089844 415 321.742188 415.117188 C 321.390625 415.234375 321.042969 415.40625 320.695312 415.640625 C 320.347656 415.871094 319.824219 415.988281 319.125 415.988281 C 318.425781 415.988281 317.730469 416.046875 317.03125 416.164062 C 313.890625 416.164062 311.335938 415.175781 309.359375 413.199219 Z M 306.21875 410.058594 " fill-opacity="1" fill-rule="nonzero"/></g><path fill="#000000" d="M 392.328125 335.40625 C 389.1875 335.40625 386.746094 334.417969 385.003906 332.441406 C 383.257812 330.464844 382.328125 327.90625 382.210938 324.765625 C 382.210938 318.371094 385.003906 312.675781 390.585938 307.675781 C 396.164062 302.675781 402.910156 300.175781 410.816406 300.175781 C 414.886719 300.175781 417.445312 300.234375 418.492188 300.347656 C 427.097656 301.746094 433.664062 304.824219 438.199219 309.59375 C 442.734375 314.359375 445.0625 319.535156 445.175781 325.117188 C 445.175781 331.164062 443.199219 337.035156 439.246094 342.734375 C 435.292969 348.429688 429.828125 352.558594 422.851562 355.117188 L 422.328125 355.464844 C 422.328125 355.582031 422.851562 355.753906 423.898438 355.988281 C 424.945312 356.222656 426.628906 356.746094 428.957031 357.558594 C 431.28125 358.371094 433.492188 359.59375 435.585938 361.222656 C 445.121094 367.382812 449.886719 375.523438 449.886719 385.640625 C 449.886719 394.824219 446.28125 402.847656 439.074219 409.710938 C 431.863281 416.570312 422.734375 420 411.6875 420 C 402.386719 420 394.363281 417.5 387.621094 412.5 C 380.875 407.5 377.503906 401.164062 377.503906 393.488281 C 377.503906 390.234375 378.550781 387.617188 380.640625 385.640625 C 382.734375 383.664062 385.351562 382.617188 388.492188 382.5 C 391.746094 382.5 394.421875 383.546875 396.515625 385.640625 C 398.609375 387.734375 399.652344 390.347656 399.652344 393.488281 C 399.652344 394.765625 399.480469 395.929688 399.128906 396.976562 C 398.78125 398.023438 398.375 398.953125 397.910156 399.765625 C 397.445312 400.582031 396.804688 401.277344 395.992188 401.859375 C 395.175781 402.441406 394.480469 402.90625 393.898438 403.253906 C 393.316406 403.605469 392.734375 403.835938 392.152344 403.953125 C 391.574219 404.070312 391.109375 404.246094 390.757812 404.476562 L 390.0625 404.652344 C 395.992188 409.882812 403.199219 412.5 411.6875 412.5 C 418.085938 412.5 422.910156 409.417969 426.164062 403.253906 C 428.140625 399.417969 429.128906 393.546875 429.128906 385.640625 L 429.128906 382.152344 C 429.128906 371.105469 425.410156 363.722656 417.96875 360 C 416.222656 359.300781 412.675781 358.894531 407.328125 358.777344 L 400.003906 358.605469 L 399.480469 358.253906 C 399.246094 357.90625 399.128906 356.976562 399.128906 355.464844 C 399.128906 353.371094 399.597656 352.324219 400.527344 352.324219 C 403.78125 352.324219 407.152344 352.035156 410.640625 351.453125 C 414.597656 350.871094 418.199219 348.429688 421.457031 344.128906 C 424.710938 339.824219 426.339844 333.3125 426.339844 324.59375 L 426.339844 323.199219 C 426.339844 316.570312 424.304688 311.976562 420.234375 309.417969 C 417.675781 307.789062 414.945312 306.976562 412.039062 306.976562 C 408.316406 306.976562 404.886719 307.617188 401.746094 308.894531 C 398.609375 310.175781 396.398438 311.511719 395.121094 312.90625 C 393.839844 314.300781 393.199219 315 393.199219 315 L 393.722656 315 C 394.074219 315.117188 394.539062 315.234375 395.121094 315.347656 C 395.699219 315.464844 396.28125 315.753906 396.863281 316.222656 C 397.445312 316.6875 398.140625 317.09375 398.957031 317.441406 C 399.769531 317.789062 400.351562 318.429688 400.699219 319.359375 C 401.050781 320.289062 401.515625 321.164062 402.097656 321.976562 C 402.675781 322.789062 402.851562 323.953125 402.621094 325.464844 C 402.621094 328.023438 401.804688 330.289062 400.175781 332.265625 C 398.550781 334.246094 395.933594 335.289062 392.328125 335.40625 Z M 392.328125 335.40625 " fill-opacity="1" fill-rule="nonzero"/><path fill="#000000" d="M 474.128906 314.128906 C 480.640625 304.710938 489.539062 300 500.816406 300 C 506.398438 300 511.980469 301.511719 517.5625 304.535156 C 523.140625 307.558594 527.675781 312.90625 531.164062 320.582031 C 535.46875 330.234375 537.621094 343.488281 537.621094 360.347656 C 537.621094 378.371094 535.121094 392.152344 530.121094 401.6875 C 527.792969 406.570312 524.597656 410.464844 520.527344 413.371094 C 516.457031 416.277344 512.910156 418.082031 509.886719 418.777344 C 506.863281 419.476562 503.898438 419.882812 500.992188 420 C 497.96875 420 494.945312 419.652344 491.921875 418.953125 C 488.898438 418.253906 485.351562 416.394531 481.28125 413.371094 C 477.210938 410.347656 474.015625 406.453125 471.6875 401.6875 C 466.6875 392.152344 464.1875 378.371094 464.1875 360.347656 C 464.1875 340.117188 467.503906 324.710938 474.128906 314.128906 Z M 513.375 312.035156 C 509.886719 308.3125 505.757812 306.453125 500.992188 306.453125 C 496.109375 306.453125 491.921875 308.3125 488.433594 312.035156 C 485.527344 315.058594 483.609375 319.246094 482.675781 324.59375 C 481.746094 329.941406 481.28125 341.105469 481.28125 358.082031 C 481.28125 376.453125 481.746094 388.546875 482.675781 394.359375 C 483.609375 400.175781 485.699219 404.765625 488.957031 408.140625 C 492.210938 411.628906 496.222656 413.371094 500.992188 413.371094 C 505.640625 413.371094 509.597656 411.628906 512.851562 408.140625 C 516.222656 404.652344 518.316406 399.765625 519.128906 393.488281 C 519.945312 387.210938 520.410156 375.40625 520.527344 358.082031 C 520.527344 341.222656 520.0625 330.117188 519.128906 324.765625 C 518.199219 319.417969 516.28125 315.175781 513.375 312.035156 Z M 513.375 312.035156 " fill-opacity="1" fill-rule="nonzero"/><path fill="#000000" d="M 561.339844 314.128906 C 567.851562 304.710938 576.746094 300 588.027344 300 C 593.609375 300 599.1875 301.511719 604.769531 304.535156 C 610.351562 307.558594 614.886719 312.90625 618.375 320.582031 C 622.675781 330.234375 624.828125 343.488281 624.828125 360.347656 C 624.828125 378.371094 622.328125 392.152344 617.328125 401.6875 C 615.003906 406.570312 611.804688 410.464844 607.734375 413.371094 C 603.664062 416.277344 600.121094 418.082031 597.097656 418.777344 C 594.074219 419.476562 591.109375 419.882812 588.199219 420 C 585.175781 420 582.152344 419.652344 579.128906 418.953125 C 576.109375 418.253906 572.5625 416.394531 568.492188 413.371094 C 564.421875 410.347656 561.222656 406.453125 558.898438 401.6875 C 553.898438 392.152344 551.398438 378.371094 551.398438 360.347656 C 551.398438 340.117188 554.710938 324.710938 561.339844 314.128906 Z M 600.585938 312.035156 C 597.097656 308.3125 592.96875 306.453125 588.199219 306.453125 C 583.316406 306.453125 579.128906 308.3125 575.640625 312.035156 C 572.734375 315.058594 570.816406 319.246094 569.886719 324.59375 C 568.957031 329.941406 568.492188 341.105469 568.492188 358.082031 C 568.492188 376.453125 568.957031 388.546875 569.886719 394.359375 C 570.816406 400.175781 572.910156 404.765625 576.164062 408.140625 C 579.421875 411.628906 583.433594 413.371094 588.199219 413.371094 C 592.851562 413.371094 596.804688 411.628906 600.0625 408.140625 C 603.433594 404.652344 605.527344 399.765625 606.339844 393.488281 C 607.152344 387.210938 607.621094 375.40625 607.734375 358.082031 C 607.734375 341.222656 607.269531 330.117188 606.339844 324.765625 C 605.410156 319.417969 603.492188 315.175781 600.585938 312.035156 Z M 600.585938 312.035156 " fill-opacity="1" fill-rule="nonzero"/></svg>