<svg xmlns="http://www.w3.org/2000/svg" xmlns:xlink="http://www.w3.org/1999/xlink" width="1000" zoomAndPan="magnify" viewBox="0 0 750 749.999995" height="1000" preserveAspectRatio="xMidYMid meet" version="1.0"><defs><clipPath id="751af255ff"><path d="M 240 340 L 303 340 L 303 443.414062 L 240 443.414062 Z M 240 340 " clip-rule="nonzero"/></clipPath><clipPath id="2f5f8fd9db"><path d="M 572 340 L 636 340 L 636 443.414062 L 572 443.414062 Z M 572 340 " clip-rule="nonzero"/></clipPath><clipPath id="80b652f55f"><path d="M 649 306.585938 L 697 306.585938 L 697 379 L 649 379 Z M 649 306.585938 " clip-rule="nonzero"/></clipPath></defs><rect x="-75" width="900" fill="#ffffff" y="-74.999999" height="899.999994" fill-opacity="1"/><rect x="-75" width="900" fill="#ffffff" y="-74.999999" height="899.999994" fill-opacity="1"/><path fill="#000000" d="M 74.652344 353.5625 L 72.707031 354.3125 C 71.3125 354.8125 69.316406 355.3125 66.722656 355.808594 C 64.128906 356.308594 61.234375 356.660156 58.042969 356.859375 L 55.199219 356.859375 L 55.199219 349.96875 L 58.042969 349.96875 C 62.730469 349.769531 67.070312 349.019531 71.0625 347.722656 C 75.050781 346.425781 77.84375 345.226562 79.441406 344.128906 C 81.039062 343.03125 82.433594 341.933594 83.632812 340.835938 C 83.832031 340.535156 84.429688 340.386719 85.425781 340.386719 C 86.324219 340.386719 87.171875 340.683594 87.972656 341.285156 L 87.972656 386.058594 L 88.121094 430.984375 C 88.820312 431.683594 89.417969 432.132812 89.917969 432.332031 C 90.414062 432.53125 91.613281 432.730469 93.507812 432.929688 C 95.402344 433.128906 98.496094 433.230469 102.785156 433.230469 L 106.675781 433.230469 L 106.675781 440.117188 L 105.03125 440.117188 C 102.9375 439.816406 95.003906 439.667969 81.238281 439.667969 C 67.667969 439.667969 59.835938 439.816406 57.742188 440.117188 L 55.945312 440.117188 L 55.945312 433.230469 L 59.835938 433.230469 C 62.03125 433.230469 63.929688 433.230469 65.523438 433.230469 C 67.121094 433.230469 68.367188 433.179688 69.265625 433.078125 C 70.164062 432.980469 70.960938 432.828125 71.660156 432.628906 C 72.359375 432.429688 72.757812 432.332031 72.855469 432.332031 C 72.957031 432.332031 73.257812 432.082031 73.753906 431.582031 C 74.253906 431.082031 74.554688 430.882812 74.652344 430.984375 Z M 74.652344 353.5625 " fill-opacity="1" fill-rule="nonzero"/><path fill="#000000" d="M 129.273438 431.132812 C 129.273438 428.738281 130.121094 426.640625 131.820312 424.84375 C 133.515625 423.046875 135.660156 422.148438 138.253906 422.148438 C 140.648438 422.148438 142.742188 422.945312 144.539062 424.542969 C 146.335938 426.140625 147.28125 428.289062 147.382812 430.984375 C 147.382812 433.480469 146.535156 435.625 144.839844 437.421875 C 143.140625 439.21875 140.996094 440.117188 138.402344 440.117188 C 135.808594 440.117188 133.664062 439.269531 131.96875 437.570312 C 130.273438 435.875 129.375 433.726562 129.273438 431.132812 Z M 129.273438 431.132812 " fill-opacity="1" fill-rule="nonzero"/><path fill="#000000" d="M 175.515625 375.875 C 172.820312 375.875 170.675781 374.976562 169.082031 373.179688 C 167.484375 371.382812 166.6875 369.1875 166.6875 366.589844 C 166.6875 359.503906 169.332031 353.363281 174.617188 348.171875 C 179.90625 342.980469 186.488281 340.386719 194.371094 340.386719 C 203.449219 340.386719 211.03125 343.179688 217.117188 348.773438 C 223.203125 354.363281 226.296875 361.601562 226.394531 370.484375 C 226.394531 374.777344 225.398438 378.871094 223.402344 382.765625 C 221.40625 386.65625 219.011719 390.050781 216.21875 392.945312 C 213.425781 395.84375 209.4375 399.535156 204.25 404.027344 C 200.65625 407.125 195.667969 411.714844 189.285156 417.804688 L 180.453125 426.191406 L 191.828125 426.339844 C 207.492188 426.339844 215.820312 426.089844 216.820312 425.59375 C 217.515625 425.390625 218.714844 420.949219 220.410156 412.265625 L 220.410156 411.816406 L 226.394531 411.816406 L 226.394531 412.265625 C 226.296875 412.5625 225.648438 417.105469 224.449219 425.890625 C 223.253906 434.675781 222.503906 439.269531 222.207031 439.667969 L 222.207031 440.117188 L 166.6875 440.117188 L 166.6875 435.476562 C 166.6875 434.777344 166.984375 434.027344 167.585938 433.230469 C 168.183594 432.429688 169.679688 430.683594 172.074219 427.988281 C 174.96875 424.792969 177.460938 422 179.554688 419.601562 C 180.453125 418.605469 182.148438 416.757812 184.644531 414.0625 C 187.136719 411.367188 188.835938 409.519531 189.730469 408.519531 C 190.628906 407.523438 192.078125 405.875 194.070312 403.578125 C 196.066406 401.285156 197.464844 399.585938 198.261719 398.488281 C 199.058594 397.390625 200.207031 395.890625 201.703125 393.996094 C 203.199219 392.097656 204.25 390.5 204.847656 389.203125 C 205.445312 387.90625 206.195312 386.457031 207.089844 384.859375 C 207.988281 383.261719 208.636719 381.667969 209.035156 380.070312 C 209.4375 378.472656 209.785156 376.972656 210.085938 375.578125 C 210.382812 374.179688 210.535156 372.53125 210.535156 370.636719 C 210.535156 364.34375 208.835938 358.90625 205.445312 354.3125 C 202.054688 349.71875 197.214844 347.425781 190.929688 347.425781 C 187.636719 347.425781 184.742188 348.273438 182.25 349.96875 C 179.753906 351.667969 178.011719 353.3125 177.011719 354.910156 C 176.015625 356.507812 175.515625 357.457031 175.515625 357.757812 C 175.515625 357.855469 175.765625 357.90625 176.265625 357.90625 C 178.058594 357.90625 179.90625 358.605469 181.800781 360.003906 C 183.695312 361.402344 184.644531 363.695312 184.644531 366.890625 C 184.644531 369.386719 183.847656 371.484375 182.25 373.179688 C 180.652344 374.878906 178.410156 375.777344 175.515625 375.875 Z M 175.515625 375.875 " fill-opacity="1" fill-rule="nonzero"/><g clip-path="url(#751af255ff)"><path fill="#000000" d="M 253.035156 370.785156 C 250.339844 370.785156 248.246094 369.9375 246.75 368.238281 C 245.25 366.542969 244.453125 364.34375 244.355469 361.648438 C 244.355469 356.160156 246.75 351.265625 251.535156 346.976562 C 256.324219 342.683594 262.113281 340.535156 268.894531 340.535156 C 272.386719 340.535156 274.582031 340.585938 275.480469 340.683594 C 282.863281 341.882812 288.5 344.527344 292.390625 348.621094 C 296.28125 352.714844 298.277344 357.15625 298.375 361.949219 C 298.375 367.140625 296.679688 372.183594 293.289062 377.074219 C 289.898438 381.964844 285.207031 385.511719 279.222656 387.707031 L 278.773438 388.003906 C 278.773438 388.105469 279.222656 388.253906 280.121094 388.453125 C 281.015625 388.65625 282.464844 389.105469 284.460938 389.800781 C 286.453125 390.5 288.351562 391.550781 290.144531 392.945312 C 298.328125 398.238281 302.417969 405.226562 302.417969 413.910156 C 302.417969 421.796875 299.324219 428.6875 293.140625 434.578125 C 286.953125 440.46875 279.121094 443.414062 269.644531 443.414062 C 261.664062 443.414062 254.777344 441.265625 248.992188 436.972656 C 243.207031 432.679688 240.3125 427.238281 240.3125 420.652344 C 240.3125 417.855469 241.210938 415.609375 243.007812 413.910156 C 244.800781 412.214844 247.046875 411.316406 249.742188 411.214844 C 252.535156 411.214844 254.828125 412.113281 256.625 413.910156 C 258.421875 415.707031 259.320312 417.957031 259.320312 420.652344 C 259.320312 421.75 259.167969 422.746094 258.871094 423.644531 C 258.570312 424.542969 258.222656 425.34375 257.820312 426.042969 C 257.421875 426.742188 256.875 427.339844 256.175781 427.839844 C 255.476562 428.335938 254.878906 428.738281 254.378906 429.035156 C 253.882812 429.335938 253.382812 429.535156 252.882812 429.636719 C 252.386719 429.734375 251.984375 429.886719 251.6875 430.085938 L 251.089844 430.234375 C 256.175781 434.726562 262.363281 436.972656 269.644531 436.972656 C 275.132812 436.972656 279.273438 434.328125 282.066406 429.035156 C 283.761719 425.742188 284.609375 420.699219 284.609375 413.910156 L 284.609375 410.917969 C 284.609375 401.433594 281.417969 395.09375 275.03125 391.898438 C 273.535156 391.300781 270.492188 390.949219 265.902344 390.851562 L 259.617188 390.699219 L 259.167969 390.402344 C 258.96875 390.101562 258.871094 389.304688 258.871094 388.003906 C 258.871094 386.207031 259.269531 385.308594 260.066406 385.308594 C 262.859375 385.308594 265.753906 385.0625 268.746094 384.5625 C 272.136719 384.0625 275.230469 381.964844 278.023438 378.273438 C 280.816406 374.578125 282.214844 368.988281 282.214844 361.5 L 282.214844 360.300781 C 282.214844 354.613281 280.46875 350.667969 276.976562 348.472656 C 274.78125 347.074219 272.4375 346.375 269.945312 346.375 C 266.75 346.375 263.808594 346.925781 261.113281 348.023438 C 258.421875 349.121094 256.523438 350.269531 255.425781 351.46875 C 254.332031 352.664062 253.78125 353.265625 253.78125 353.265625 L 254.230469 353.265625 C 254.53125 353.363281 254.929688 353.464844 255.425781 353.5625 C 255.925781 353.664062 256.425781 353.914062 256.925781 354.3125 C 257.421875 354.710938 258.023438 355.0625 258.71875 355.359375 C 259.417969 355.660156 259.917969 356.210938 260.214844 357.007812 C 260.515625 357.804688 260.914062 358.554688 261.414062 359.253906 C 261.914062 359.953125 262.0625 360.953125 261.863281 362.25 C 261.863281 364.445312 261.164062 366.390625 259.765625 368.089844 C 258.371094 369.785156 256.125 370.683594 253.035156 370.785156 Z M 253.035156 370.785156 " fill-opacity="1" fill-rule="nonzero"/></g><path fill="#000000" d="M 436.382812 435.773438 C 436.382812 437.773438 435.335938 438.769531 433.238281 438.769531 C 432.742188 438.769531 431.644531 437.972656 429.945312 436.375 C 428.25 434.777344 423.5625 430.132812 415.878906 422.449219 L 400.316406 406.875 L 384.605469 422.597656 C 374.027344 432.980469 368.589844 438.269531 368.292969 438.46875 C 367.894531 438.671875 367.542969 438.769531 367.246094 438.769531 C 366.445312 438.769531 365.75 438.46875 365.148438 437.871094 C 364.550781 437.273438 364.203125 436.574219 364.101562 435.773438 C 364.101562 435.078125 364.800781 433.976562 366.195312 432.480469 C 367.59375 430.984375 372.28125 426.242188 380.265625 418.253906 L 395.828125 402.679688 L 380.265625 387.105469 C 372.183594 379.019531 367.492188 374.277344 366.195312 372.882812 C 364.898438 371.484375 364.203125 370.386719 364.101562 369.585938 C 364.101562 368.6875 364.402344 367.988281 365 367.488281 C 365.597656 366.992188 366.347656 366.742188 367.246094 366.742188 C 367.742188 366.742188 368.09375 366.792969 368.292969 366.890625 C 368.589844 367.089844 374.027344 372.382812 384.605469 382.765625 L 400.316406 398.488281 L 415.878906 382.914062 C 423.5625 375.226562 428.25 370.585938 429.945312 368.988281 C 431.644531 367.390625 432.742188 366.589844 433.238281 366.589844 C 435.335938 366.589844 436.382812 367.589844 436.382812 369.585938 C 436.382812 370.285156 435.882812 371.183594 434.886719 372.28125 C 433.886719 373.378906 429 378.273438 420.21875 386.957031 L 404.65625 402.679688 L 420.21875 418.40625 C 428.601562 426.789062 433.390625 431.632812 434.585938 432.929688 C 435.785156 434.226562 436.382812 435.175781 436.382812 435.773438 Z M 436.382812 435.773438 " fill-opacity="1" fill-rule="nonzero"/><path fill="#000000" d="M 523.65625 353.5625 L 521.710938 354.3125 C 520.316406 354.8125 518.320312 355.3125 515.726562 355.808594 C 513.132812 356.308594 510.238281 356.660156 507.046875 356.859375 L 504.203125 356.859375 L 504.203125 349.96875 L 507.046875 349.96875 C 511.734375 349.769531 516.074219 349.019531 520.066406 347.722656 C 524.054688 346.425781 526.847656 345.226562 528.445312 344.128906 C 530.042969 343.03125 531.4375 341.933594 532.636719 340.835938 C 532.835938 340.535156 533.433594 340.386719 534.429688 340.386719 C 535.328125 340.386719 536.175781 340.683594 536.976562 341.285156 L 536.976562 386.058594 L 537.125 430.984375 C 537.824219 431.683594 538.421875 432.132812 538.921875 432.332031 C 539.417969 432.53125 540.617188 432.730469 542.511719 432.929688 C 544.40625 433.128906 547.5 433.230469 551.789062 433.230469 L 555.679688 433.230469 L 555.679688 440.117188 L 554.035156 440.117188 C 551.941406 439.816406 544.007812 439.667969 530.242188 439.667969 C 516.671875 439.667969 508.839844 439.816406 506.746094 440.117188 L 504.949219 440.117188 L 504.949219 433.230469 L 508.839844 433.230469 C 511.035156 433.230469 512.933594 433.230469 514.527344 433.230469 C 516.125 433.230469 517.371094 433.179688 518.269531 433.078125 C 519.167969 432.980469 519.964844 432.828125 520.664062 432.628906 C 521.363281 432.429688 521.761719 432.332031 521.859375 432.332031 C 521.960938 432.332031 522.261719 432.082031 522.757812 431.582031 C 523.257812 431.082031 523.558594 430.882812 523.65625 430.984375 Z M 523.65625 353.5625 " fill-opacity="1" fill-rule="nonzero"/><g clip-path="url(#2f5f8fd9db)"><path fill="#000000" d="M 580.972656 352.515625 C 586.558594 344.429688 594.191406 340.386719 603.867188 340.386719 C 608.65625 340.386719 613.445312 341.683594 618.234375 344.28125 C 623.023438 346.875 626.914062 351.46875 629.90625 358.054688 C 633.597656 366.34375 635.445312 377.722656 635.445312 392.199219 C 635.445312 407.671875 633.296875 419.503906 629.007812 427.6875 C 627.011719 431.882812 624.269531 435.226562 620.777344 437.722656 C 617.285156 440.21875 614.242188 441.765625 611.648438 442.363281 C 609.054688 442.964844 606.511719 443.3125 604.019531 443.414062 C 601.421875 443.414062 598.828125 443.113281 596.234375 442.515625 C 593.640625 441.914062 590.597656 440.316406 587.105469 437.722656 C 583.617188 435.125 580.871094 431.78125 578.875 427.6875 C 574.585938 419.503906 572.441406 407.671875 572.441406 392.199219 C 572.441406 374.828125 575.285156 361.601562 580.972656 352.515625 Z M 614.644531 350.71875 C 611.648438 347.523438 608.109375 345.925781 604.019531 345.925781 C 599.828125 345.925781 596.234375 347.523438 593.242188 350.71875 C 590.75 353.3125 589.101562 356.90625 588.304688 361.5 C 587.507812 366.09375 587.105469 375.675781 587.105469 390.25 C 587.105469 406.023438 587.507812 416.40625 588.304688 421.398438 C 589.101562 426.390625 590.898438 430.335938 593.691406 433.230469 C 596.484375 436.222656 599.925781 437.722656 604.019531 437.722656 C 608.007812 437.722656 611.398438 436.222656 614.195312 433.230469 C 617.085938 430.234375 618.882812 426.042969 619.582031 420.652344 C 620.28125 415.257812 620.679688 405.125 620.777344 390.25 C 620.777344 375.777344 620.378906 366.242188 619.582031 361.648438 C 618.78125 357.058594 617.136719 353.414062 614.644531 350.71875 Z M 614.644531 350.71875 " fill-opacity="1" fill-rule="nonzero"/></g><g clip-path="url(#80b652f55f)"><path fill="#000000" d="M 695.25 378.273438 C 693.976562 378.058594 689.429688 377.953125 681.601562 377.953125 C 673.417969 377.953125 668.691406 378.058594 667.421875 378.273438 L 666.46875 378.273438 L 666.46875 373.402344 L 669.75 373.402344 C 671.160156 373.402344 672.113281 373.402344 672.605469 373.402344 C 673.101562 373.402344 673.699219 373.332031 674.40625 373.191406 C 675.109375 373.050781 675.605469 372.871094 675.886719 372.660156 C 676.167969 372.449219 676.414062 372.167969 676.628906 371.8125 C 676.699219 371.671875 676.734375 369.765625 676.734375 366.097656 L 676.734375 360.804688 L 649.332031 360.804688 L 649.332031 355.933594 L 665.304688 331.476562 C 676.097656 315.101562 681.566406 306.878906 681.707031 306.808594 C 681.847656 306.667969 682.585938 306.597656 683.925781 306.597656 L 685.832031 306.597656 L 686.464844 307.230469 L 686.464844 355.933594 L 696.199219 355.933594 L 696.199219 360.804688 L 686.464844 360.804688 L 686.464844 366.203125 C 686.464844 369.097656 686.464844 370.789062 686.464844 371.285156 C 686.464844 371.777344 686.679688 372.203125 687.101562 372.554688 C 687.664062 373.050781 689.675781 373.332031 693.132812 373.402344 L 696.199219 373.402344 L 696.199219 378.273438 Z M 677.367188 355.933594 L 677.367188 320.570312 L 654.195312 355.828125 L 665.730469 355.933594 Z M 677.367188 355.933594 " fill-opacity="1" fill-rule="nonzero"/></g></svg>