<svg xmlns="http://www.w3.org/2000/svg" xmlns:xlink="http://www.w3.org/1999/xlink" width="1000" zoomAndPan="magnify" viewBox="0 0 750 749.999995" height="1000" preserveAspectRatio="xMidYMid meet" version="1.0"><defs><clipPath id="a2529b436f"><path d="M 46 335 L 68 335 L 68 426.714844 L 46 426.714844 Z M 46 335 " clip-rule="nonzero"/></clipPath><clipPath id="bad9d97d00"><path d="M 444 323.285156 L 467 323.285156 L 467 367 L 444 367 Z M 444 323.285156 " clip-rule="nonzero"/></clipPath><clipPath id="be2737e81e"><path d="M 480 335 L 503 335 L 503 426.714844 L 480 426.714844 Z M 480 335 " clip-rule="nonzero"/></clipPath></defs><rect x="-75" width="900" fill="#ffffff" y="-74.999999" height="899.999994" fill-opacity="1"/><rect x="-75" width="900" fill="#ffffff" y="-74.999999" height="899.999994" fill-opacity="1"/><g clip-path="url(#a2529b436f)"><path fill="#000000" d="M 46.035156 381.074219 C 46.035156 376.902344 46.339844 372.9375 46.945312 369.1875 C 47.550781 365.4375 48.246094 362.199219 49.03125 359.476562 C 49.820312 356.753906 50.941406 354.089844 52.394531 351.488281 C 53.84375 348.886719 54.996094 346.859375 55.84375 345.410156 C 56.691406 343.957031 57.960938 342.382812 59.65625 340.691406 C 61.351562 338.996094 62.351562 337.964844 62.652344 337.605469 C 62.957031 337.242188 63.714844 336.605469 64.925781 335.699219 L 66.46875 335.699219 C 67.316406 335.699219 67.738281 335.96875 67.738281 336.515625 C 67.738281 336.695312 67.226562 337.332031 66.195312 338.421875 C 65.167969 339.507812 63.925781 341.113281 62.472656 343.230469 C 61.019531 345.347656 59.535156 347.949219 58.023438 351.035156 C 56.507812 354.121094 55.238281 358.296875 54.207031 363.558594 C 53.179688 368.824219 52.664062 374.664062 52.664062 381.074219 C 52.664062 387.488281 53.179688 393.296875 54.207031 398.5 C 55.238281 403.703125 56.480469 407.910156 57.933594 411.117188 C 59.386719 414.324219 60.867188 416.925781 62.382812 418.921875 C 63.894531 420.917969 65.167969 422.523438 66.195312 423.730469 C 67.226562 424.941406 67.738281 425.578125 67.738281 425.636719 C 67.738281 426.183594 67.285156 426.453125 66.378906 426.453125 L 64.925781 426.453125 L 62.382812 424.277344 C 56.691406 419.132812 52.542969 412.71875 49.941406 405.035156 C 47.335938 397.351562 46.035156 389.367188 46.035156 381.074219 Z M 46.035156 381.074219 " fill-opacity="1" fill-rule="nonzero"/></g><path fill="#000000" d="M 76.636719 375.359375 C 76.636719 365.496094 79.089844 357.691406 83.992188 351.941406 C 88.898438 346.195312 94.347656 343.320312 100.339844 343.320312 C 104.515625 343.320312 107.511719 344.410156 109.328125 346.589844 C 111.144531 348.765625 112.054688 351.1875 112.054688 353.847656 C 112.054688 355.363281 111.628906 356.570312 110.78125 357.480469 C 109.933594 358.386719 108.753906 358.839844 107.242188 358.839844 C 105.847656 358.839844 104.699219 358.417969 103.789062 357.570312 C 102.882812 356.722656 102.429688 355.542969 102.429688 354.03125 C 102.429688 351.367188 103.851562 349.765625 106.695312 349.21875 C 105.363281 347.890625 103.488281 347.132812 101.066406 346.953125 C 96.769531 346.953125 93.226562 348.765625 90.441406 352.398438 C 87.597656 356.390625 86.171875 362.5 86.171875 370.730469 L 86.265625 371.09375 C 86.566406 370.730469 86.808594 370.335938 86.992188 369.914062 C 89.472656 366.28125 92.710938 364.46875 96.707031 364.46875 L 97.070312 364.46875 C 99.855469 364.46875 102.308594 365.042969 104.425781 366.191406 C 105.878906 367.039062 107.332031 368.25 108.785156 369.824219 C 110.238281 371.394531 111.417969 373.121094 112.328125 374.996094 C 113.597656 377.960938 114.234375 381.195312 114.234375 384.707031 L 114.234375 386.339844 C 114.234375 387.730469 114.082031 389.03125 113.78125 390.242188 C 113.113281 393.8125 111.175781 397.292969 107.96875 400.679688 C 104.757812 404.066406 100.703125 405.761719 95.800781 405.761719 C 94.105469 405.761719 92.46875 405.519531 90.894531 405.035156 C 89.320312 404.550781 87.625 403.644531 85.808594 402.3125 C 83.992188 400.980469 82.449219 399.195312 81.179688 396.957031 C 79.90625 394.71875 78.816406 391.785156 77.910156 388.15625 C 77 384.523438 76.578125 380.257812 76.636719 375.359375 Z M 96.164062 367.734375 C 94.347656 367.734375 92.773438 368.25 91.441406 369.277344 C 90.109375 370.304688 89.078125 371.667969 88.351562 373.363281 C 87.625 375.054688 87.113281 376.78125 86.808594 378.535156 C 86.507812 380.289062 86.324219 382.164062 86.265625 384.160156 C 86.265625 389.183594 86.628906 392.785156 87.355469 394.960938 C 88.082031 397.140625 89.230469 398.894531 90.804688 400.226562 C 92.257812 401.316406 93.863281 401.859375 95.617188 401.859375 C 98.707031 401.859375 101.066406 400.710938 102.699219 398.410156 C 103.488281 397.320312 104.03125 395.960938 104.335938 394.328125 C 104.636719 392.691406 104.789062 389.515625 104.789062 384.796875 C 104.789062 379.957031 104.636719 376.71875 104.335938 375.085938 C 104.03125 373.453125 103.488281 372.089844 102.699219 371.003906 C 101.066406 368.824219 98.886719 367.734375 96.164062 367.734375 Z M 96.164062 367.734375 " fill-opacity="1" fill-rule="nonzero"/><path fill="#000000" d="M 137.570312 351.308594 L 136.390625 351.761719 C 135.542969 352.0625 134.332031 352.367188 132.757812 352.667969 C 131.183594 352.972656 129.429688 353.183594 127.492188 353.304688 L 125.765625 353.304688 L 125.765625 349.128906 L 127.492188 349.128906 C 130.335938 349.007812 132.96875 348.554688 135.390625 347.769531 C 137.8125 346.980469 139.507812 346.257812 140.476562 345.589844 C 141.445312 344.925781 142.292969 344.257812 143.019531 343.59375 C 143.140625 343.414062 143.503906 343.320312 144.109375 343.320312 C 144.65625 343.320312 145.167969 343.503906 145.652344 343.867188 L 145.652344 371.003906 L 145.742188 398.230469 C 146.167969 398.652344 146.53125 398.925781 146.832031 399.046875 C 147.136719 399.167969 147.863281 399.289062 149.011719 399.410156 C 150.164062 399.53125 152.039062 399.589844 154.644531 399.589844 L 157.003906 399.589844 L 157.003906 403.765625 L 156.003906 403.765625 C 154.734375 403.582031 149.921875 403.492188 141.566406 403.492188 C 133.332031 403.492188 128.582031 403.582031 127.308594 403.765625 L 126.21875 403.765625 L 126.21875 399.589844 L 128.582031 399.589844 C 129.914062 399.589844 131.0625 399.589844 132.03125 399.589844 C 133 399.589844 133.757812 399.558594 134.300781 399.5 C 134.847656 399.4375 135.332031 399.347656 135.753906 399.226562 C 136.179688 399.105469 136.421875 399.046875 136.480469 399.046875 C 136.542969 399.046875 136.722656 398.894531 137.027344 398.59375 C 137.328125 398.289062 137.511719 398.167969 137.570312 398.230469 Z M 137.570312 351.308594 " fill-opacity="1" fill-rule="nonzero"/><path fill="#000000" d="M 170.714844 398.320312 C 170.714844 396.867188 171.230469 395.597656 172.261719 394.507812 C 173.289062 393.417969 174.589844 392.875 176.164062 392.875 C 177.617188 392.875 178.890625 393.359375 179.980469 394.328125 C 181.070312 395.292969 181.644531 396.59375 181.703125 398.230469 C 181.703125 399.742188 181.191406 401.042969 180.160156 402.132812 C 179.132812 403.222656 177.828125 403.765625 176.253906 403.765625 C 174.683594 403.765625 173.378906 403.25 172.351562 402.222656 C 171.320312 401.195312 170.777344 399.894531 170.714844 398.320312 Z M 170.714844 398.320312 " fill-opacity="1" fill-rule="nonzero"/><path fill="#000000" d="M 203.769531 389.515625 C 203.769531 390.96875 203.285156 392.179688 202.316406 393.148438 C 201.347656 394.113281 200.167969 394.597656 198.777344 394.597656 L 198.140625 394.597656 C 200.925781 399.378906 204.617188 401.769531 209.21875 401.769531 C 213.457031 401.769531 216.542969 399.953125 218.480469 396.324219 C 219.632812 394.328125 220.207031 390.453125 220.207031 384.707031 C 220.207031 378.472656 219.390625 374.269531 217.753906 372.089844 C 216.179688 370.09375 214.425781 369.097656 212.488281 369.097656 L 211.945312 369.097656 C 207.222656 369.097656 203.648438 371.152344 201.226562 375.269531 C 200.984375 375.691406 200.773438 375.933594 200.59375 375.992188 C 200.410156 376.054688 199.957031 376.113281 199.230469 376.175781 C 198.203125 376.175781 197.625 375.992188 197.503906 375.628906 C 197.382812 375.390625 197.324219 370.09375 197.324219 359.75 L 197.324219 348.039062 C 197.324219 345.015625 197.476562 343.503906 197.777344 343.503906 C 197.898438 343.382812 198.019531 343.320312 198.140625 343.320312 C 198.203125 343.320312 198.835938 343.5625 200.046875 344.046875 C 201.257812 344.53125 202.921875 345.015625 205.042969 345.5 C 207.160156 345.984375 209.429688 346.226562 211.851562 346.226562 C 216.152344 346.226562 220.269531 345.378906 224.203125 343.683594 C 224.6875 343.441406 225.082031 343.320312 225.382812 343.320312 C 225.867188 343.320312 226.109375 343.867188 226.109375 344.953125 L 226.109375 346.136719 C 221.144531 352.003906 214.941406 354.9375 207.492188 354.9375 C 205.617188 354.9375 203.921875 354.757812 202.410156 354.394531 L 201.5 354.210938 L 201.5 369.824219 C 202.652344 368.976562 203.558594 368.308594 204.226562 367.824219 C 204.890625 367.339844 205.980469 366.859375 207.492188 366.375 C 209.007812 365.890625 210.550781 365.648438 212.125 365.648438 C 217.027344 365.648438 221.175781 367.613281 224.566406 371.546875 C 227.957031 375.480469 229.652344 380.136719 229.652344 385.523438 C 229.652344 391.089844 227.714844 395.839844 223.839844 399.773438 C 219.964844 403.703125 215.242188 405.703125 209.671875 405.761719 C 204.769531 405.761719 200.835938 404.128906 197.867188 400.859375 C 194.902344 397.59375 193.417969 393.902344 193.417969 389.789062 C 193.417969 388.335938 193.75 387.1875 194.417969 386.339844 C 195.082031 385.492188 195.78125 384.949219 196.507812 384.707031 C 197.234375 384.464844 197.929688 384.34375 198.59375 384.34375 C 200.109375 384.34375 201.347656 384.859375 202.316406 385.886719 C 203.285156 386.914062 203.769531 388.125 203.769531 389.515625 Z M 203.769531 389.515625 " fill-opacity="1" fill-rule="nonzero"/><path fill="#000000" d="M 311.667969 401.132812 C 311.667969 402.34375 311.035156 402.949219 309.761719 402.949219 C 309.460938 402.949219 308.792969 402.464844 307.765625 401.496094 C 306.734375 400.527344 303.890625 397.714844 299.230469 393.054688 L 289.785156 383.617188 L 280.25 393.148438 C 273.832031 399.4375 270.535156 402.644531 270.351562 402.765625 C 270.109375 402.886719 269.898438 402.949219 269.714844 402.949219 C 269.230469 402.949219 268.808594 402.765625 268.445312 402.402344 C 268.082031 402.039062 267.871094 401.617188 267.808594 401.132812 C 267.808594 400.710938 268.234375 400.042969 269.082031 399.136719 C 269.929688 398.230469 272.773438 395.355469 277.617188 390.515625 L 287.0625 381.074219 L 277.617188 371.636719 C 272.710938 366.738281 269.867188 363.863281 269.082031 363.015625 C 268.292969 362.167969 267.871094 361.503906 267.808594 361.019531 C 267.808594 360.472656 267.992188 360.050781 268.355469 359.75 C 268.71875 359.445312 269.171875 359.292969 269.714844 359.292969 C 270.019531 359.292969 270.230469 359.324219 270.351562 359.386719 C 270.535156 359.507812 273.832031 362.714844 280.25 369.003906 L 289.785156 378.535156 L 299.230469 369.097656 C 303.890625 364.4375 306.734375 361.625 307.765625 360.65625 C 308.792969 359.6875 309.460938 359.203125 309.761719 359.203125 C 311.035156 359.203125 311.667969 359.808594 311.667969 361.019531 C 311.667969 361.441406 311.367188 361.988281 310.761719 362.652344 C 310.15625 363.316406 307.191406 366.28125 301.863281 371.546875 L 292.417969 381.074219 L 301.863281 390.605469 C 306.949219 395.6875 309.855469 398.621094 310.582031 399.410156 C 311.304688 400.195312 311.667969 400.769531 311.667969 401.132812 Z M 311.667969 401.132812 " fill-opacity="1" fill-rule="nonzero"/><path fill="#000000" d="M 364.628906 351.308594 L 363.449219 351.761719 C 362.601562 352.0625 361.390625 352.367188 359.816406 352.667969 C 358.242188 352.972656 356.488281 353.183594 354.550781 353.304688 L 352.824219 353.304688 L 352.824219 349.128906 L 354.550781 349.128906 C 357.394531 349.007812 360.027344 348.554688 362.449219 347.769531 C 364.871094 346.980469 366.566406 346.257812 367.535156 345.589844 C 368.503906 344.925781 369.351562 344.257812 370.078125 343.59375 C 370.199219 343.414062 370.5625 343.320312 371.167969 343.320312 C 371.710938 343.320312 372.226562 343.503906 372.710938 343.867188 L 372.710938 371.003906 L 372.800781 398.230469 C 373.226562 398.652344 373.589844 398.925781 373.890625 399.046875 C 374.195312 399.167969 374.921875 399.289062 376.070312 399.410156 C 377.222656 399.53125 379.097656 399.589844 381.703125 399.589844 L 384.0625 399.589844 L 384.0625 403.765625 L 383.0625 403.765625 C 381.792969 403.582031 376.980469 403.492188 368.625 403.492188 C 360.390625 403.492188 355.640625 403.582031 354.367188 403.765625 L 353.277344 403.765625 L 353.277344 399.589844 L 355.640625 399.589844 C 356.972656 399.589844 358.121094 399.589844 359.089844 399.589844 C 360.058594 399.589844 360.816406 399.558594 361.359375 399.5 C 361.90625 399.4375 362.390625 399.347656 362.8125 399.226562 C 363.238281 399.105469 363.480469 399.046875 363.539062 399.046875 C 363.601562 399.046875 363.78125 398.894531 364.085938 398.59375 C 364.386719 398.289062 364.570312 398.167969 364.628906 398.230469 Z M 364.628906 351.308594 " fill-opacity="1" fill-rule="nonzero"/><path fill="#000000" d="M 399.410156 350.671875 C 402.800781 345.773438 407.429688 343.320312 413.304688 343.320312 C 416.207031 343.320312 419.113281 344.109375 422.019531 345.679688 C 424.925781 347.253906 427.289062 350.039062 429.105469 354.03125 C 431.34375 359.050781 432.464844 365.949219 432.464844 374.722656 C 432.464844 384.101562 431.160156 391.269531 428.558594 396.234375 C 427.347656 398.773438 425.683594 400.800781 423.5625 402.3125 C 421.445312 403.824219 419.597656 404.761719 418.023438 405.125 C 416.449219 405.488281 414.90625 405.703125 413.394531 405.761719 C 411.820312 405.761719 410.246094 405.582031 408.671875 405.21875 C 407.097656 404.855469 405.25 403.886719 403.132812 402.3125 C 401.011719 400.738281 399.347656 398.714844 398.136719 396.234375 C 395.535156 391.269531 394.234375 384.101562 394.234375 374.722656 C 394.234375 364.195312 395.957031 356.179688 399.410156 350.671875 Z M 419.839844 349.582031 C 418.023438 347.648438 415.875 346.679688 413.394531 346.679688 C 410.851562 346.679688 408.671875 347.648438 406.855469 349.582031 C 405.34375 351.15625 404.34375 353.335938 403.859375 356.117188 C 403.375 358.902344 403.132812 364.710938 403.132812 373.542969 C 403.132812 383.101562 403.375 389.394531 403.859375 392.421875 C 404.34375 395.445312 405.433594 397.835938 407.128906 399.589844 C 408.824219 401.40625 410.910156 402.3125 413.394531 402.3125 C 415.816406 402.3125 417.875 401.40625 419.570312 399.589844 C 421.324219 397.773438 422.414062 395.234375 422.835938 391.96875 C 423.261719 388.699219 423.503906 382.558594 423.5625 373.542969 C 423.5625 364.769531 423.320312 358.992188 422.835938 356.207031 C 422.355469 353.425781 421.355469 351.21875 419.839844 349.582031 Z M 419.839844 349.582031 " fill-opacity="1" fill-rule="nonzero"/><g clip-path="url(#bad9d97d00)"><path fill="#000000" d="M 452.769531 329.195312 L 451.933594 329.515625 C 451.332031 329.730469 450.476562 329.945312 449.363281 330.15625 C 448.253906 330.371094 447.011719 330.523438 445.640625 330.605469 L 444.421875 330.605469 L 444.421875 327.65625 L 445.640625 327.65625 C 447.652344 327.570312 449.515625 327.25 451.226562 326.691406 C 452.9375 326.136719 454.136719 325.625 454.820312 325.152344 C 455.507812 324.683594 456.105469 324.210938 456.621094 323.742188 C 456.707031 323.613281 456.960938 323.550781 457.390625 323.550781 C 457.773438 323.550781 458.140625 323.675781 458.480469 323.933594 L 458.480469 343.121094 L 458.546875 362.367188 C 458.84375 362.667969 459.101562 362.859375 459.316406 362.945312 C 459.53125 363.03125 460.042969 363.117188 460.855469 363.203125 C 461.671875 363.289062 462.996094 363.332031 464.835938 363.332031 L 466.507812 363.332031 L 466.507812 366.28125 L 465.800781 366.28125 C 464.902344 366.15625 461.5 366.089844 455.59375 366.089844 C 449.773438 366.089844 446.410156 366.15625 445.511719 366.28125 L 444.742188 366.28125 L 444.742188 363.332031 L 446.410156 363.332031 C 447.351562 363.332031 448.167969 363.332031 448.851562 363.332031 C 449.535156 363.332031 450.070312 363.308594 450.457031 363.265625 C 450.839844 363.222656 451.183594 363.160156 451.484375 363.074219 C 451.78125 362.988281 451.953125 362.945312 451.996094 362.945312 C 452.039062 362.945312 452.167969 362.839844 452.382812 362.625 C 452.597656 362.410156 452.726562 362.324219 452.769531 362.367188 Z M 452.769531 329.195312 " fill-opacity="1" fill-rule="nonzero"/></g><g clip-path="url(#be2737e81e)"><path fill="#000000" d="M 481.191406 335.789062 L 481.554688 335.699219 C 481.859375 335.699219 482.160156 335.699219 482.464844 335.699219 L 483.550781 335.699219 L 486.09375 337.875 C 491.785156 343.019531 495.933594 349.433594 498.535156 357.117188 C 501.140625 364.800781 502.441406 372.785156 502.441406 381.074219 C 502.441406 385.191406 502.136719 389.152344 501.53125 392.964844 C 500.925781 396.777344 500.230469 400.015625 499.445312 402.675781 C 498.65625 405.339844 497.539062 408 496.085938 410.664062 C 494.632812 413.324219 493.480469 415.351562 492.632812 416.742188 C 491.785156 418.136719 490.542969 419.679688 488.910156 421.371094 C 487.277344 423.066406 486.308594 424.066406 486.003906 424.367188 C 485.703125 424.667969 485.003906 425.246094 483.914062 426.089844 C 483.734375 426.273438 483.613281 426.394531 483.550781 426.453125 L 482.464844 426.453125 C 481.980469 426.453125 481.644531 426.453125 481.464844 426.453125 C 481.28125 426.453125 481.132812 426.363281 481.011719 426.183594 C 480.890625 426 480.796875 425.726562 480.738281 425.367188 C 480.796875 425.304688 481.132812 424.910156 481.738281 424.1875 C 491.121094 414.445312 495.8125 400.074219 495.8125 381.074219 C 495.8125 362.078125 491.121094 347.707031 481.738281 337.964844 C 481.132812 337.242188 480.796875 336.847656 480.738281 336.785156 C 480.738281 336.304688 480.890625 335.96875 481.191406 335.789062 Z M 481.191406 335.789062 " fill-opacity="1" fill-rule="nonzero"/></g><path fill="#000000" d="M 588.453125 401.132812 C 588.453125 402.34375 587.820312 402.949219 586.546875 402.949219 C 586.246094 402.949219 585.578125 402.464844 584.550781 401.496094 C 583.519531 400.527344 580.675781 397.714844 576.015625 393.054688 L 566.570312 383.617188 L 557.035156 393.148438 C 550.617188 399.4375 547.320312 402.644531 547.136719 402.765625 C 546.894531 402.886719 546.683594 402.949219 546.5 402.949219 C 546.015625 402.949219 545.59375 402.765625 545.230469 402.402344 C 544.867188 402.039062 544.65625 401.617188 544.59375 401.132812 C 544.59375 400.710938 545.019531 400.042969 545.867188 399.136719 C 546.714844 398.230469 549.558594 395.355469 554.402344 390.515625 L 563.847656 381.074219 L 554.402344 371.636719 C 549.496094 366.738281 546.652344 363.863281 545.867188 363.015625 C 545.078125 362.167969 544.65625 361.503906 544.59375 361.019531 C 544.59375 360.472656 544.777344 360.050781 545.140625 359.75 C 545.503906 359.445312 545.957031 359.292969 546.5 359.292969 C 546.804688 359.292969 547.015625 359.324219 547.136719 359.386719 C 547.320312 359.507812 550.617188 362.714844 557.035156 369.003906 L 566.570312 378.535156 L 576.015625 369.097656 C 580.675781 364.4375 583.519531 361.625 584.550781 360.65625 C 585.578125 359.6875 586.246094 359.203125 586.546875 359.203125 C 587.820312 359.203125 588.453125 359.808594 588.453125 361.019531 C 588.453125 361.441406 588.152344 361.988281 587.546875 362.652344 C 586.941406 363.316406 583.976562 366.28125 578.648438 371.546875 L 569.203125 381.074219 L 578.648438 390.605469 C 583.734375 395.6875 586.640625 398.621094 587.363281 399.410156 C 588.089844 400.195312 588.453125 400.769531 588.453125 401.132812 Z M 588.453125 401.132812 " fill-opacity="1" fill-rule="nonzero"/><path fill="#000000" d="M 631.96875 364.832031 C 630.335938 364.832031 629.035156 364.285156 628.066406 363.195312 C 627.097656 362.109375 626.613281 360.777344 626.613281 359.203125 C 626.613281 354.90625 628.21875 351.1875 631.425781 348.039062 C 634.632812 344.894531 638.628906 343.320312 643.414062 343.320312 C 648.921875 343.320312 653.523438 345.015625 657.214844 348.402344 C 660.90625 351.792969 662.785156 356.179688 662.84375 361.5625 C 662.84375 364.164062 662.238281 366.644531 661.027344 369.003906 C 659.820312 371.363281 658.367188 373.421875 656.671875 375.175781 C 654.976562 376.929688 652.554688 379.171875 649.40625 381.894531 C 647.226562 383.769531 644.199219 386.550781 640.324219 390.242188 L 634.96875 395.324219 L 641.867188 395.414062 C 651.375 395.414062 656.429688 395.265625 657.035156 394.960938 C 657.457031 394.839844 658.183594 392.148438 659.214844 386.882812 L 659.214844 386.613281 L 662.84375 386.613281 L 662.84375 386.882812 C 662.785156 387.066406 662.390625 389.820312 661.664062 395.144531 C 660.9375 400.46875 660.484375 403.25 660.304688 403.492188 L 660.304688 403.765625 L 626.613281 403.765625 L 626.613281 400.953125 C 626.613281 400.527344 626.792969 400.074219 627.15625 399.589844 C 627.519531 399.105469 628.429688 398.046875 629.882812 396.414062 C 631.636719 394.476562 633.152344 392.785156 634.421875 391.332031 C 634.96875 390.726562 635.996094 389.605469 637.511719 387.972656 C 639.023438 386.339844 640.050781 385.222656 640.597656 384.617188 C 641.140625 384.011719 642.019531 383.011719 643.230469 381.621094 C 644.441406 380.230469 645.289062 379.199219 645.773438 378.535156 C 646.257812 377.871094 646.953125 376.960938 647.863281 375.8125 C 648.769531 374.664062 649.40625 373.695312 649.769531 372.90625 C 650.132812 372.121094 650.585938 371.246094 651.132812 370.277344 C 651.675781 369.308594 652.070312 368.339844 652.3125 367.371094 C 652.554688 366.402344 652.765625 365.496094 652.949219 364.648438 C 653.128906 363.800781 653.21875 362.804688 653.21875 361.652344 C 653.21875 357.84375 652.191406 354.546875 650.132812 351.761719 C 648.074219 348.980469 645.136719 347.585938 641.324219 347.585938 C 639.324219 347.585938 637.570312 348.101562 636.058594 349.128906 C 634.542969 350.160156 633.484375 351.15625 632.878906 352.125 C 632.273438 353.09375 631.96875 353.667969 631.96875 353.847656 C 631.96875 353.910156 632.121094 353.941406 632.425781 353.941406 C 633.515625 353.941406 634.632812 354.363281 635.785156 355.210938 C 636.933594 356.058594 637.511719 357.449219 637.511719 359.386719 C 637.511719 360.898438 637.027344 362.167969 636.058594 363.195312 C 635.089844 364.226562 633.726562 364.769531 631.96875 364.832031 Z M 631.96875 364.832031 " fill-opacity="1" fill-rule="nonzero"/><path fill="#000000" d="M 676.195312 350.671875 C 679.585938 345.773438 684.214844 343.320312 690.089844 343.320312 C 692.992188 343.320312 695.898438 344.109375 698.804688 345.679688 C 701.710938 347.253906 704.074219 350.039062 705.890625 354.03125 C 708.128906 359.050781 709.25 365.949219 709.25 374.722656 C 709.25 384.101562 707.945312 391.269531 705.34375 396.234375 C 704.132812 398.773438 702.46875 400.800781 700.347656 402.3125 C 698.230469 403.824219 696.382812 404.761719 694.808594 405.125 C 693.234375 405.488281 691.691406 405.703125 690.179688 405.761719 C 688.605469 405.761719 687.03125 405.582031 685.457031 405.21875 C 683.882812 404.855469 682.035156 403.886719 679.917969 402.3125 C 677.796875 400.738281 676.132812 398.714844 674.921875 396.234375 C 672.320312 391.269531 671.019531 384.101562 671.019531 374.722656 C 671.019531 364.195312 672.742188 356.179688 676.195312 350.671875 Z M 696.625 349.582031 C 694.808594 347.648438 692.660156 346.679688 690.179688 346.679688 C 687.636719 346.679688 685.457031 347.648438 683.640625 349.582031 C 682.128906 351.15625 681.128906 353.335938 680.644531 356.117188 C 680.160156 358.902344 679.917969 364.710938 679.917969 373.542969 C 679.917969 383.101562 680.160156 389.394531 680.644531 392.421875 C 681.128906 395.445312 682.21875 397.835938 683.914062 399.589844 C 685.609375 401.40625 687.695312 402.3125 690.179688 402.3125 C 692.601562 402.3125 694.660156 401.40625 696.355469 399.589844 C 698.109375 397.773438 699.199219 395.234375 699.621094 391.96875 C 700.046875 388.699219 700.289062 382.558594 700.347656 373.542969 C 700.347656 364.769531 700.105469 358.992188 699.621094 356.207031 C 699.136719 353.425781 698.140625 351.21875 696.625 349.582031 Z M 696.625 349.582031 " fill-opacity="1" fill-rule="nonzero"/></svg>