<svg xmlns="http://www.w3.org/2000/svg" xmlns:xlink="http://www.w3.org/1999/xlink" width="1000" zoomAndPan="magnify" viewBox="0 0 750 749.999995" height="1000" preserveAspectRatio="xMidYMid meet" version="1.0"><defs><clipPath id="f5daaf4ec8"><path d="M 47 331 L 72 331 L 72 432.769531 L 47 432.769531 Z M 47 331 " clip-rule="nonzero"/></clipPath><clipPath id="899b666fa8"><path d="M 412 317.230469 L 438 317.230469 L 438 366 L 412 366 Z M 412 317.230469 " clip-rule="nonzero"/></clipPath><clipPath id="a186162b72"><path d="M 453 331 L 478 331 L 478 432.769531 L 453 432.769531 Z M 453 331 " clip-rule="nonzero"/></clipPath></defs><rect x="-75" width="900" fill="#ffffff" y="-74.999999" height="899.999994" fill-opacity="1"/><rect x="-75" width="900" fill="#ffffff" y="-74.999999" height="899.999994" fill-opacity="1"/><g clip-path="url(#f5daaf4ec8)"><path fill="#000000" d="M 47.023438 381.785156 C 47.023438 377.125 47.363281 372.699219 48.039062 368.507812 C 48.714844 364.320312 49.488281 360.703125 50.367188 357.664062 C 51.246094 354.621094 52.496094 351.648438 54.117188 348.742188 C 55.738281 345.835938 57.023438 343.574219 57.96875 341.953125 C 58.914062 340.332031 60.332031 338.574219 62.222656 336.679688 C 64.113281 334.789062 65.230469 333.640625 65.566406 333.234375 C 65.90625 332.828125 66.75 332.121094 68.101562 331.105469 L 69.824219 331.105469 C 70.769531 331.105469 71.242188 331.410156 71.242188 332.019531 C 71.242188 332.222656 70.667969 332.929688 69.519531 334.148438 C 68.371094 335.363281 66.984375 337.152344 65.363281 339.519531 C 63.742188 341.882812 62.089844 344.789062 60.398438 348.234375 C 58.710938 351.683594 57.292969 356.34375 56.144531 362.222656 C 54.996094 368.101562 54.421875 374.625 54.421875 381.785156 C 54.421875 388.949219 54.996094 395.4375 56.144531 401.246094 C 57.292969 407.058594 58.675781 411.753906 60.296875 415.335938 C 61.917969 418.917969 63.574219 421.824219 65.261719 424.054688 C 66.953125 426.28125 68.371094 428.074219 69.519531 429.425781 C 70.667969 430.777344 71.242188 431.484375 71.242188 431.554688 C 71.242188 432.160156 70.734375 432.464844 69.722656 432.464844 L 68.101562 432.464844 L 65.261719 430.03125 C 58.914062 424.289062 54.285156 417.125 51.382812 408.542969 C 48.476562 399.964844 47.023438 391.042969 47.023438 381.785156 Z M 47.023438 381.785156 " fill-opacity="1" fill-rule="nonzero"/></g><path fill="#000000" d="M 123.726562 407.125 C 122.511719 406.921875 118.152344 406.820312 110.65625 406.820312 C 102.820312 406.820312 98.292969 406.921875 97.078125 407.125 L 96.167969 407.125 L 96.167969 402.464844 L 99.308594 402.464844 C 100.660156 402.464844 101.570312 402.464844 102.042969 402.464844 C 102.515625 402.464844 103.089844 402.394531 103.765625 402.261719 C 104.441406 402.125 104.914062 401.957031 105.183594 401.753906 C 105.453125 401.550781 105.691406 401.28125 105.894531 400.941406 C 105.960938 400.808594 105.996094 398.984375 105.996094 395.46875 L 105.996094 390.402344 L 79.753906 390.402344 L 79.753906 385.738281 L 95.050781 362.324219 C 105.386719 346.648438 110.621094 338.777344 110.757812 338.707031 C 110.890625 338.574219 111.601562 338.503906 112.886719 338.503906 L 114.707031 338.503906 L 115.316406 339.113281 L 115.316406 385.738281 L 124.636719 385.738281 L 124.636719 390.402344 L 115.316406 390.402344 L 115.316406 395.570312 C 115.316406 398.339844 115.316406 399.964844 115.316406 400.4375 C 115.316406 400.910156 115.519531 401.316406 115.925781 401.652344 C 116.464844 402.125 118.390625 402.394531 121.699219 402.464844 L 124.636719 402.464844 L 124.636719 407.125 Z M 106.601562 385.738281 L 106.601562 351.886719 L 84.414062 385.636719 L 95.457031 385.738281 Z M 106.601562 385.738281 " fill-opacity="1" fill-rule="nonzero"/><path fill="#000000" d="M 149.160156 348.539062 L 147.839844 349.046875 C 146.894531 349.386719 145.546875 349.722656 143.789062 350.0625 C 142.03125 350.398438 140.074219 350.636719 137.910156 350.769531 L 135.988281 350.769531 L 135.988281 346.109375 L 137.910156 346.109375 C 141.085938 345.972656 144.023438 345.464844 146.726562 344.585938 C 149.429688 343.707031 151.320312 342.898438 152.402344 342.15625 C 153.480469 341.410156 154.429688 340.667969 155.238281 339.925781 C 155.375 339.722656 155.777344 339.621094 156.453125 339.621094 C 157.0625 339.621094 157.636719 339.824219 158.175781 340.230469 L 158.175781 370.535156 L 158.277344 400.941406 C 158.75 401.414062 159.15625 401.71875 159.492188 401.855469 C 159.832031 401.992188 160.640625 402.125 161.925781 402.261719 C 163.210938 402.394531 165.304688 402.464844 168.207031 402.464844 L 170.84375 402.464844 L 170.84375 407.125 L 169.726562 407.125 C 168.308594 406.921875 162.9375 406.820312 153.617188 406.820312 C 144.429688 406.820312 139.128906 406.921875 137.710938 407.125 L 136.492188 407.125 L 136.492188 402.464844 L 139.128906 402.464844 C 140.613281 402.464844 141.898438 402.464844 142.976562 402.464844 C 144.058594 402.464844 144.902344 402.429688 145.511719 402.363281 C 146.121094 402.292969 146.660156 402.191406 147.132812 402.058594 C 147.605469 401.921875 147.875 401.855469 147.941406 401.855469 C 148.011719 401.855469 148.214844 401.6875 148.550781 401.347656 C 148.890625 401.011719 149.089844 400.875 149.160156 400.941406 Z M 149.160156 348.539062 " fill-opacity="1" fill-rule="nonzero"/><path fill="#000000" d="M 264.585938 404.1875 C 264.585938 405.539062 263.878906 406.214844 262.460938 406.214844 C 262.121094 406.214844 261.378906 405.671875 260.230469 404.59375 C 259.082031 403.511719 255.90625 400.367188 250.707031 395.164062 L 240.167969 384.625 L 229.527344 395.265625 C 222.367188 402.292969 218.6875 405.875 218.484375 406.011719 C 218.214844 406.144531 217.976562 406.214844 217.777344 406.214844 C 217.234375 406.214844 216.761719 406.011719 216.355469 405.605469 C 215.953125 405.199219 215.714844 404.726562 215.648438 404.1875 C 215.648438 403.714844 216.121094 402.96875 217.066406 401.957031 C 218.011719 400.941406 221.1875 397.734375 226.589844 392.328125 L 237.128906 381.785156 L 226.589844 371.246094 C 221.121094 365.769531 217.945312 362.5625 217.066406 361.617188 C 216.1875 360.667969 215.714844 359.925781 215.648438 359.386719 C 215.648438 358.777344 215.851562 358.304688 216.253906 357.964844 C 216.660156 357.628906 217.167969 357.460938 217.777344 357.460938 C 218.113281 357.460938 218.351562 357.492188 218.484375 357.5625 C 218.6875 357.695312 222.367188 361.277344 229.527344 368.304688 L 240.167969 378.949219 L 250.707031 368.40625 C 255.90625 363.203125 259.082031 360.0625 260.230469 358.980469 C 261.378906 357.898438 262.121094 357.359375 262.460938 357.359375 C 263.878906 357.359375 264.585938 358.035156 264.585938 359.386719 C 264.585938 359.859375 264.25 360.464844 263.574219 361.210938 C 262.898438 361.953125 259.589844 365.265625 253.644531 371.144531 L 243.105469 381.785156 L 253.644531 392.429688 C 259.320312 398.105469 262.5625 401.382812 263.371094 402.261719 C 264.183594 403.140625 264.585938 403.78125 264.585938 404.1875 Z M 264.585938 404.1875 " fill-opacity="1" fill-rule="nonzero"/><path fill="#000000" d="M 323.679688 348.539062 L 322.363281 349.046875 C 321.417969 349.386719 320.066406 349.722656 318.308594 350.0625 C 316.554688 350.398438 314.59375 350.636719 312.433594 350.769531 L 310.507812 350.769531 L 310.507812 346.109375 L 312.433594 346.109375 C 315.605469 345.972656 318.546875 345.464844 321.246094 344.585938 C 323.949219 343.707031 325.839844 342.898438 326.921875 342.15625 C 328.003906 341.410156 328.949219 340.667969 329.757812 339.925781 C 329.894531 339.722656 330.300781 339.621094 330.976562 339.621094 C 331.582031 339.621094 332.15625 339.824219 332.695312 340.230469 L 332.695312 370.535156 L 332.796875 400.941406 C 333.269531 401.414062 333.675781 401.71875 334.015625 401.855469 C 334.351562 401.992188 335.164062 402.125 336.445312 402.261719 C 337.730469 402.394531 339.824219 402.464844 342.726562 402.464844 L 345.363281 402.464844 L 345.363281 407.125 L 344.25 407.125 C 342.828125 406.921875 337.460938 406.820312 328.136719 406.820312 C 318.949219 406.820312 313.648438 406.921875 312.230469 407.125 L 311.015625 407.125 L 311.015625 402.464844 L 313.648438 402.464844 C 315.132812 402.464844 316.417969 402.464844 317.5 402.464844 C 318.578125 402.464844 319.421875 402.429688 320.03125 402.363281 C 320.640625 402.292969 321.179688 402.191406 321.652344 402.058594 C 322.125 401.921875 322.394531 401.855469 322.464844 401.855469 C 322.53125 401.855469 322.734375 401.6875 323.070312 401.347656 C 323.410156 401.011719 323.613281 400.875 323.679688 400.941406 Z M 323.679688 348.539062 " fill-opacity="1" fill-rule="nonzero"/><path fill="#000000" d="M 362.488281 347.832031 C 366.269531 342.355469 371.4375 339.621094 377.988281 339.621094 C 381.230469 339.621094 384.472656 340.5 387.714844 342.257812 C 390.957031 344.011719 393.59375 347.121094 395.621094 351.582031 C 398.117188 357.191406 399.367188 364.894531 399.367188 374.691406 C 399.367188 385.164062 397.917969 393.171875 395.011719 398.714844 C 393.660156 401.550781 391.804688 403.816406 389.4375 405.503906 C 387.074219 407.195312 385.015625 408.242188 383.257812 408.644531 C 381.5 409.050781 379.777344 409.289062 378.089844 409.355469 C 376.335938 409.355469 374.578125 409.152344 372.820312 408.746094 C 371.066406 408.34375 369.003906 407.261719 366.640625 405.503906 C 364.277344 403.746094 362.417969 401.484375 361.066406 398.714844 C 358.164062 393.171875 356.710938 385.164062 356.710938 374.691406 C 356.710938 362.933594 358.636719 353.980469 362.488281 347.832031 Z M 385.285156 346.613281 C 383.257812 344.453125 380.859375 343.371094 378.089844 343.371094 C 375.253906 343.371094 372.820312 344.453125 370.796875 346.613281 C 369.105469 348.371094 367.992188 350.804688 367.453125 353.914062 C 366.910156 357.019531 366.640625 363.507812 366.640625 373.375 C 366.640625 384.050781 366.910156 391.078125 367.453125 394.457031 C 367.992188 397.835938 369.207031 400.503906 371.097656 402.464844 C 372.992188 404.492188 375.320312 405.503906 378.089844 405.503906 C 380.792969 405.503906 383.089844 404.492188 384.980469 402.464844 C 386.9375 400.4375 388.15625 397.597656 388.628906 393.949219 C 389.101562 390.300781 389.371094 383.441406 389.4375 373.375 C 389.4375 363.574219 389.167969 357.121094 388.628906 354.011719 C 388.085938 350.90625 386.972656 348.4375 385.285156 346.613281 Z M 385.285156 346.613281 " fill-opacity="1" fill-rule="nonzero"/><g clip-path="url(#899b666fa8)"><path fill="#000000" d="M 422.023438 323.84375 L 421.09375 324.203125 C 420.421875 324.441406 419.46875 324.679688 418.226562 324.917969 C 416.984375 325.15625 415.601562 325.324219 414.070312 325.421875 L 412.710938 325.421875 L 412.710938 322.125 L 414.070312 322.125 C 416.316406 322.027344 418.394531 321.671875 420.304688 321.050781 C 422.214844 320.429688 423.550781 319.855469 424.316406 319.328125 C 425.078125 318.804688 425.75 318.277344 426.320312 317.753906 C 426.417969 317.609375 426.703125 317.539062 427.179688 317.539062 C 427.609375 317.539062 428.015625 317.679688 428.398438 317.96875 L 428.398438 339.394531 L 428.472656 360.894531 C 428.804688 361.226562 429.089844 361.441406 429.332031 361.539062 C 429.570312 361.632812 430.140625 361.730469 431.050781 361.824219 C 431.957031 361.921875 433.4375 361.96875 435.492188 361.96875 L 437.355469 361.96875 L 437.355469 365.265625 L 436.566406 365.265625 C 435.5625 365.121094 431.765625 365.050781 425.175781 365.050781 C 418.679688 365.050781 414.929688 365.121094 413.929688 365.265625 L 413.070312 365.265625 L 413.070312 361.96875 L 414.929688 361.96875 C 415.980469 361.96875 416.890625 361.96875 417.652344 361.96875 C 418.417969 361.96875 419.015625 361.945312 419.445312 361.894531 C 419.875 361.847656 420.257812 361.777344 420.589844 361.679688 C 420.925781 361.585938 421.117188 361.539062 421.164062 361.539062 C 421.210938 361.539062 421.355469 361.417969 421.59375 361.179688 C 421.832031 360.941406 421.976562 360.84375 422.023438 360.894531 Z M 422.023438 323.84375 " fill-opacity="1" fill-rule="nonzero"/></g><g clip-path="url(#a186162b72)"><path fill="#000000" d="M 453.738281 331.207031 L 454.144531 331.105469 C 454.480469 331.105469 454.820312 331.105469 455.15625 331.105469 L 456.375 331.105469 L 459.210938 333.539062 C 465.558594 339.28125 470.1875 346.445312 473.089844 355.027344 C 475.996094 363.609375 477.449219 372.527344 477.449219 381.785156 C 477.449219 386.382812 477.109375 390.808594 476.433594 395.0625 C 475.761719 399.320312 474.984375 402.9375 474.105469 405.910156 C 473.226562 408.882812 471.976562 411.855469 470.355469 414.828125 C 468.734375 417.800781 467.453125 420.066406 466.503906 421.621094 C 465.558594 423.175781 464.175781 424.898438 462.351562 426.789062 C 460.527344 428.679688 459.445312 429.796875 459.109375 430.132812 C 458.769531 430.472656 457.996094 431.113281 456.777344 432.058594 C 456.574219 432.261719 456.441406 432.398438 456.375 432.464844 L 455.15625 432.464844 C 454.617188 432.464844 454.246094 432.464844 454.042969 432.464844 C 453.839844 432.464844 453.671875 432.363281 453.535156 432.160156 C 453.402344 431.957031 453.300781 431.65625 453.230469 431.25 C 453.300781 431.183594 453.671875 430.742188 454.347656 429.929688 C 464.816406 419.050781 470.050781 403.003906 470.050781 381.785156 C 470.050781 360.566406 464.816406 344.519531 454.347656 333.640625 C 453.671875 332.828125 453.300781 332.390625 453.230469 332.324219 C 453.230469 331.78125 453.402344 331.410156 453.738281 331.207031 Z M 453.738281 331.207031 " fill-opacity="1" fill-rule="nonzero"/></g><path fill="#000000" d="M 573.421875 404.1875 C 573.421875 405.539062 572.714844 406.214844 571.296875 406.214844 C 570.957031 406.214844 570.214844 405.671875 569.066406 404.59375 C 567.917969 403.511719 564.742188 400.367188 559.542969 395.164062 L 549.003906 384.625 L 538.363281 395.265625 C 531.203125 402.292969 527.523438 405.875 527.320312 406.011719 C 527.050781 406.144531 526.8125 406.214844 526.609375 406.214844 C 526.070312 406.214844 525.597656 406.011719 525.191406 405.605469 C 524.789062 405.199219 524.550781 404.726562 524.484375 404.1875 C 524.484375 403.714844 524.957031 402.96875 525.902344 401.957031 C 526.847656 400.941406 530.023438 397.734375 535.425781 392.328125 L 545.964844 381.785156 L 535.425781 371.246094 C 529.953125 365.769531 526.78125 362.5625 525.902344 361.617188 C 525.023438 360.667969 524.550781 359.925781 524.484375 359.386719 C 524.484375 358.777344 524.6875 358.304688 525.089844 357.964844 C 525.496094 357.628906 526.003906 357.460938 526.609375 357.460938 C 526.949219 357.460938 527.183594 357.492188 527.320312 357.5625 C 527.523438 357.695312 531.203125 361.277344 538.363281 368.304688 L 549.003906 378.949219 L 559.542969 368.40625 C 564.742188 363.203125 567.917969 360.0625 569.066406 358.980469 C 570.214844 357.898438 570.957031 357.359375 571.296875 357.359375 C 572.714844 357.359375 573.421875 358.035156 573.421875 359.386719 C 573.421875 359.859375 573.085938 360.464844 572.410156 361.210938 C 571.734375 361.953125 568.425781 365.265625 562.480469 371.144531 L 551.941406 381.785156 L 562.480469 392.429688 C 568.152344 398.105469 571.394531 401.382812 572.207031 402.261719 C 573.015625 403.140625 573.421875 403.78125 573.421875 404.1875 Z M 573.421875 404.1875 " fill-opacity="1" fill-rule="nonzero"/><path fill="#000000" d="M 623.800781 360.195312 C 621.976562 360.195312 620.558594 359.621094 619.546875 358.472656 C 618.53125 357.324219 617.992188 355.839844 617.925781 354.011719 C 617.925781 350.296875 619.546875 346.984375 622.789062 344.082031 C 626.03125 341.175781 629.949219 339.722656 634.542969 339.722656 C 636.90625 339.722656 638.390625 339.753906 639 339.824219 C 644 340.632812 647.816406 342.425781 650.449219 345.195312 C 653.082031 347.964844 654.433594 350.972656 654.503906 354.214844 C 654.503906 357.730469 653.355469 361.140625 651.058594 364.453125 C 648.761719 367.765625 645.585938 370.164062 641.53125 371.648438 L 641.230469 371.851562 C 641.230469 371.921875 641.53125 372.023438 642.140625 372.15625 C 642.75 372.292969 643.726562 372.597656 645.078125 373.070312 C 646.429688 373.542969 647.714844 374.25 648.929688 375.199219 C 654.46875 378.777344 657.238281 383.507812 657.238281 389.386719 C 657.238281 394.726562 655.144531 399.390625 650.957031 403.375 C 646.769531 407.363281 641.464844 409.355469 635.046875 409.355469 C 629.644531 409.355469 624.984375 407.902344 621.066406 404.996094 C 617.148438 402.089844 615.1875 398.410156 615.1875 393.949219 C 615.1875 392.058594 615.796875 390.535156 617.011719 389.386719 C 618.226562 388.238281 619.746094 387.632812 621.570312 387.5625 C 623.464844 387.5625 625.015625 388.171875 626.234375 389.386719 C 627.449219 390.605469 628.054688 392.125 628.054688 393.949219 C 628.054688 394.691406 627.957031 395.367188 627.753906 395.976562 C 627.550781 396.585938 627.3125 397.125 627.042969 397.597656 C 626.773438 398.070312 626.402344 398.476562 625.929688 398.8125 C 625.457031 399.152344 625.050781 399.421875 624.710938 399.625 C 624.375 399.828125 624.039062 399.964844 623.699219 400.03125 C 623.363281 400.097656 623.089844 400.199219 622.890625 400.335938 L 622.484375 400.4375 C 625.929688 403.476562 630.117188 404.996094 635.046875 404.996094 C 638.761719 404.996094 641.566406 403.207031 643.457031 399.625 C 644.605469 397.394531 645.179688 393.984375 645.179688 389.386719 L 645.179688 387.359375 C 645.179688 380.941406 643.019531 376.652344 638.695312 374.488281 C 637.683594 374.082031 635.621094 373.847656 632.515625 373.777344 L 628.257812 373.675781 L 627.957031 373.472656 C 627.820312 373.273438 627.753906 372.730469 627.753906 371.851562 C 627.753906 370.636719 628.023438 370.027344 628.5625 370.027344 C 630.453125 370.027344 632.414062 369.859375 634.441406 369.523438 C 636.738281 369.183594 638.832031 367.765625 640.722656 365.265625 C 642.613281 362.765625 643.558594 358.980469 643.558594 353.914062 L 643.558594 353.101562 C 643.558594 349.25 642.378906 346.582031 640.011719 345.09375 C 638.527344 344.148438 636.9375 343.675781 635.25 343.675781 C 633.089844 343.675781 631.097656 344.046875 629.273438 344.789062 C 627.449219 345.53125 626.164062 346.308594 625.421875 347.121094 C 624.679688 347.933594 624.308594 348.335938 624.308594 348.335938 L 624.613281 348.335938 C 624.8125 348.40625 625.085938 348.472656 625.421875 348.539062 C 625.761719 348.609375 626.097656 348.777344 626.433594 349.046875 C 626.773438 349.316406 627.179688 349.554688 627.652344 349.757812 C 628.125 349.960938 628.460938 350.332031 628.664062 350.871094 C 628.867188 351.410156 629.136719 351.917969 629.476562 352.390625 C 629.8125 352.863281 629.914062 353.539062 629.777344 354.417969 C 629.777344 355.90625 629.304688 357.222656 628.359375 358.371094 C 627.414062 359.519531 625.894531 360.128906 623.800781 360.195312 Z M 623.800781 360.195312 " fill-opacity="1" fill-rule="nonzero"/><path fill="#000000" d="M 671.320312 347.832031 C 675.105469 342.355469 680.273438 339.621094 686.824219 339.621094 C 690.066406 339.621094 693.308594 340.5 696.550781 342.257812 C 699.792969 344.011719 702.429688 347.121094 704.453125 351.582031 C 706.953125 357.191406 708.203125 364.894531 708.203125 374.691406 C 708.203125 385.164062 706.75 393.171875 703.847656 398.714844 C 702.496094 401.550781 700.636719 403.816406 698.273438 405.503906 C 695.910156 407.195312 693.847656 408.242188 692.09375 408.644531 C 690.335938 409.050781 688.613281 409.289062 686.925781 409.355469 C 685.167969 409.355469 683.414062 409.152344 681.65625 408.746094 C 679.902344 408.34375 677.839844 407.261719 675.476562 405.503906 C 673.113281 403.746094 671.253906 401.484375 669.902344 398.714844 C 667 393.171875 665.546875 385.164062 665.546875 374.691406 C 665.546875 362.933594 667.472656 353.980469 671.320312 347.832031 Z M 694.121094 346.613281 C 692.09375 344.453125 689.695312 343.371094 686.925781 343.371094 C 684.089844 343.371094 681.65625 344.453125 679.628906 346.613281 C 677.941406 348.371094 676.828125 350.804688 676.285156 353.914062 C 675.746094 357.019531 675.476562 363.507812 675.476562 373.375 C 675.476562 384.050781 675.746094 391.078125 676.285156 394.457031 C 676.828125 397.835938 678.042969 400.503906 679.933594 402.464844 C 681.824219 404.492188 684.15625 405.503906 686.925781 405.503906 C 689.628906 405.503906 691.925781 404.492188 693.816406 402.464844 C 695.773438 400.4375 696.992188 397.597656 697.464844 393.949219 C 697.9375 390.300781 698.207031 383.441406 698.273438 373.375 C 698.273438 363.574219 698.003906 357.121094 697.464844 354.011719 C 696.921875 350.90625 695.808594 348.4375 694.121094 346.613281 Z M 694.121094 346.613281 " fill-opacity="1" fill-rule="nonzero"/></svg>