<svg xmlns="http://www.w3.org/2000/svg" xmlns:xlink="http://www.w3.org/1999/xlink" width="1000" zoomAndPan="magnify" viewBox="0 0 750 749.999995" height="1000" preserveAspectRatio="xMidYMid meet" version="1.0"><rect x="-75" width="900" fill="#ffffff" y="-74.999999" height="899.999994" fill-opacity="1"/><rect x="-75" width="900" fill="#ffffff" y="-74.999999" height="899.999994" fill-opacity="1"/><path fill="#000000" d="M 289.585938 202.023438 C 285.609375 202.023438 282.445312 200.707031 280.089844 198.074219 C 277.734375 195.4375 276.554688 192.21875 276.554688 188.414062 C 276.554688 178.023438 280.457031 169.023438 288.257812 161.414062 C 296.0625 153.804688 305.777344 150 317.40625 150 C 330.804688 150 341.992188 154.097656 350.972656 162.292969 C 359.953125 170.488281 364.515625 181.097656 364.664062 194.121094 C 364.664062 200.414062 363.191406 206.414062 360.246094 212.121094 C 357.304688 217.828125 353.769531 222.804688 349.648438 227.046875 C 345.527344 231.292969 339.636719 236.707031 331.984375 243.292969 C 326.683594 247.828125 319.320312 254.5625 309.898438 263.488281 L 296.871094 275.78125 L 313.652344 276 C 336.765625 276 349.058594 275.632812 350.53125 274.902344 C 351.5625 274.609375 353.328125 268.097656 355.832031 255.367188 L 355.832031 254.707031 L 364.664062 254.707031 L 364.664062 255.367188 C 364.515625 255.804688 363.558594 262.464844 361.792969 275.339844 C 360.027344 288.21875 358.921875 294.953125 358.480469 295.535156 L 358.480469 296.195312 L 276.554688 296.195312 L 276.554688 289.390625 C 276.554688 288.367188 276.996094 287.269531 277.878906 286.097656 C 278.765625 284.925781 280.972656 282.367188 284.503906 278.414062 C 288.773438 273.730469 292.453125 269.632812 295.546875 266.121094 C 296.871094 264.660156 299.375 261.953125 303.054688 258 C 306.734375 254.046875 309.238281 251.339844 310.5625 249.878906 C 311.886719 248.414062 314.023438 246 316.964844 242.632812 C 319.910156 239.269531 321.972656 236.78125 323.148438 235.171875 C 324.328125 233.5625 326.019531 231.367188 328.226562 228.585938 C 330.4375 225.804688 331.984375 223.464844 332.867188 221.5625 C 333.75 219.660156 334.851562 217.535156 336.179688 215.195312 C 337.503906 212.855469 338.460938 210.511719 339.046875 208.171875 C 339.636719 205.828125 340.152344 203.632812 340.59375 201.585938 C 341.035156 199.535156 341.257812 197.121094 341.257812 194.339844 C 341.257812 185.121094 338.753906 177.144531 333.75 170.414062 C 328.742188 163.683594 321.605469 160.316406 312.328125 160.316406 C 307.472656 160.316406 303.203125 161.5625 299.519531 164.046875 C 295.839844 166.535156 293.265625 168.953125 291.792969 171.292969 C 290.320312 173.632812 289.585938 175.023438 289.585938 175.464844 C 289.585938 175.609375 289.953125 175.683594 290.6875 175.683594 C 293.339844 175.683594 296.0625 176.707031 298.859375 178.757812 C 301.65625 180.804688 303.054688 184.171875 303.054688 188.855469 C 303.054688 192.511719 301.875 195.585938 299.519531 198.074219 C 297.164062 200.5625 293.851562 201.878906 289.585938 202.023438 Z M 289.585938 202.023438 " fill-opacity="1" fill-rule="nonzero"/><path fill="#000000" d="M 422.960938 169.316406 L 420.089844 170.414062 C 418.03125 171.144531 415.085938 171.878906 411.257812 172.609375 C 407.429688 173.339844 403.160156 173.855469 398.449219 174.144531 L 394.253906 174.144531 L 394.253906 164.046875 L 398.449219 164.046875 C 405.371094 163.757812 411.773438 162.660156 417.664062 160.757812 C 423.550781 158.855469 427.671875 157.097656 430.027344 155.488281 C 432.382812 153.878906 434.445312 152.269531 436.210938 150.660156 C 436.507812 150.21875 437.390625 150 438.863281 150 C 440.1875 150 441.4375 150.4375 442.617188 151.316406 L 442.617188 216.953125 L 442.835938 282.804688 C 443.867188 283.828125 444.75 284.488281 445.484375 284.78125 C 446.222656 285.074219 447.988281 285.367188 450.785156 285.660156 C 453.582031 285.953125 458.148438 286.097656 464.476562 286.097656 L 470.21875 286.097656 L 470.21875 296.195312 L 467.789062 296.195312 C 464.699219 295.757812 452.996094 295.535156 432.679688 295.535156 C 412.65625 295.535156 401.101562 295.757812 398.007812 296.195312 L 395.359375 296.195312 L 395.359375 286.097656 L 401.101562 286.097656 C 404.339844 286.097656 407.136719 286.097656 409.492188 286.097656 C 411.847656 286.097656 413.6875 286.023438 415.011719 285.878906 C 416.335938 285.730469 417.515625 285.511719 418.546875 285.21875 C 419.574219 284.925781 420.164062 284.78125 420.3125 284.78125 C 420.460938 284.78125 420.902344 284.414062 421.636719 283.683594 C 422.375 282.953125 422.816406 282.660156 422.960938 282.804688 Z M 422.960938 169.316406 " fill-opacity="1" fill-rule="nonzero"/><path fill="#000000" d="M 293.558594 493.535156 C 289.585938 493.535156 286.492188 492.292969 284.285156 489.804688 C 282.074219 487.316406 280.898438 484.097656 280.75 480.144531 C 280.75 472.097656 284.285156 464.925781 291.351562 458.632812 C 298.417969 452.339844 306.957031 449.195312 316.964844 449.195312 C 322.117188 449.195312 325.359375 449.269531 326.683594 449.414062 C 337.578125 451.171875 345.894531 455.046875 351.636719 461.046875 C 357.378906 467.046875 360.320312 473.5625 360.46875 480.585938 C 360.46875 488.195312 357.964844 495.585938 352.960938 502.757812 C 347.957031 509.925781 341.035156 515.121094 332.203125 518.339844 L 331.539062 518.78125 C 331.539062 518.925781 332.203125 519.144531 333.527344 519.4375 C 334.851562 519.730469 336.988281 520.390625 339.933594 521.414062 C 342.875 522.4375 345.671875 523.976562 348.324219 526.023438 C 360.394531 533.78125 366.429688 544.023438 366.429688 556.757812 C 366.429688 568.316406 361.867188 578.414062 352.738281 587.046875 C 343.613281 595.683594 332.054688 600 318.070312 600 C 306.292969 600 296.136719 596.855469 287.597656 590.5625 C 279.058594 584.269531 274.789062 576.292969 274.789062 566.632812 C 274.789062 562.535156 276.113281 559.242188 278.765625 556.757812 C 281.414062 554.269531 284.726562 552.953125 288.699219 552.804688 C 292.824219 552.804688 296.207031 554.121094 298.859375 556.757812 C 301.507812 559.390625 302.832031 562.683594 302.832031 566.632812 C 302.832031 568.242188 302.613281 569.707031 302.171875 571.023438 C 301.730469 572.339844 301.214844 573.511719 300.625 574.535156 C 300.035156 575.5625 299.226562 576.4375 298.195312 577.171875 C 297.164062 577.902344 296.28125 578.488281 295.546875 578.925781 C 294.808594 579.367188 294.074219 579.660156 293.339844 579.804688 C 292.601562 579.953125 292.011719 580.171875 291.570312 580.464844 L 290.6875 580.683594 C 298.195312 587.269531 307.324219 590.5625 318.070312 590.5625 C 326.167969 590.5625 332.277344 586.683594 336.398438 578.925781 C 338.902344 574.097656 340.152344 566.707031 340.152344 556.757812 L 340.152344 552.367188 C 340.152344 538.464844 335.441406 529.171875 326.019531 524.488281 C 323.8125 523.609375 319.320312 523.097656 312.550781 522.953125 L 303.273438 522.730469 L 302.613281 522.292969 C 302.320312 521.855469 302.171875 520.683594 302.171875 518.78125 C 302.171875 516.144531 302.761719 514.828125 303.9375 514.828125 C 308.058594 514.828125 312.328125 514.464844 316.746094 513.730469 C 321.75 513 326.316406 509.925781 330.4375 504.511719 C 334.558594 499.097656 336.621094 490.902344 336.621094 479.925781 L 336.621094 478.171875 C 336.621094 469.828125 334.042969 464.046875 328.890625 460.828125 C 325.652344 458.78125 322.191406 457.757812 318.511719 457.757812 C 313.800781 457.757812 309.457031 458.5625 305.484375 460.171875 C 301.507812 461.78125 298.710938 463.464844 297.09375 465.21875 C 295.472656 466.976562 294.664062 467.855469 294.664062 467.855469 L 295.324219 467.855469 C 295.765625 468 296.355469 468.144531 297.09375 468.292969 C 297.828125 468.4375 298.5625 468.804688 299.300781 469.390625 C 300.035156 469.976562 300.917969 470.488281 301.949219 470.925781 C 302.980469 471.367188 303.71875 472.171875 304.160156 473.339844 C 304.601562 474.511719 305.1875 475.609375 305.925781 476.632812 C 306.660156 477.660156 306.882812 479.121094 306.585938 481.023438 C 306.585938 484.242188 305.558594 487.097656 303.496094 489.585938 C 301.433594 492.074219 298.121094 493.390625 293.558594 493.535156 Z M 293.558594 493.535156 " fill-opacity="1" fill-rule="nonzero"/><path fill="#000000" d="M 412.140625 560.707031 C 412.140625 564.21875 410.964844 567.144531 408.609375 569.488281 C 406.253906 571.828125 403.382812 573 399.996094 573 L 398.449219 573 C 405.222656 584.5625 414.203125 590.339844 425.390625 590.339844 C 435.695312 590.339844 443.203125 585.953125 447.914062 577.171875 C 450.710938 572.339844 452.109375 562.976562 452.109375 549.074219 C 452.109375 534 450.125 523.828125 446.148438 518.5625 C 442.320312 513.730469 438.050781 511.316406 433.339844 511.316406 L 432.015625 511.316406 C 420.53125 511.316406 411.847656 516.292969 405.957031 526.242188 C 405.371094 527.269531 404.855469 527.855469 404.414062 528 C 403.972656 528.144531 402.867188 528.292969 401.101562 528.4375 C 398.597656 528.4375 397.199219 528 396.90625 527.121094 C 396.609375 526.535156 396.464844 513.730469 396.464844 488.707031 L 396.464844 460.390625 C 396.464844 453.074219 396.832031 449.414062 397.566406 449.414062 C 397.863281 449.121094 398.15625 448.976562 398.449219 448.976562 C 398.597656 448.976562 400.144531 449.5625 403.085938 450.730469 C 406.03125 451.902344 410.082031 453.074219 415.234375 454.242188 C 420.386719 455.414062 425.90625 456 431.796875 456 C 442.246094 456 452.257812 453.953125 461.828125 449.855469 C 463.003906 449.269531 463.960938 448.976562 464.699219 448.976562 C 465.875 448.976562 466.464844 450.292969 466.464844 452.925781 L 466.464844 455.78125 C 454.394531 469.976562 439.304688 477.074219 421.195312 477.074219 C 416.632812 477.074219 412.507812 476.632812 408.828125 475.757812 L 406.621094 475.316406 L 406.621094 513.074219 C 409.417969 511.023438 411.625 509.414062 413.246094 508.242188 C 414.863281 507.074219 417.515625 505.902344 421.195312 504.730469 C 424.875 503.5625 428.628906 502.976562 432.457031 502.976562 C 444.382812 502.976562 454.464844 507.730469 462.710938 517.242188 C 470.953125 526.757812 475.078125 538.023438 475.078125 551.046875 C 475.078125 564.511719 470.367188 576 460.945312 585.511719 C 451.523438 595.023438 440.039062 599.855469 426.496094 600 C 414.570312 600 405 596.046875 397.789062 588.144531 C 390.574219 580.242188 386.96875 571.316406 386.96875 561.367188 C 386.96875 557.855469 387.777344 555.074219 389.398438 553.023438 C 391.015625 550.976562 392.710938 549.660156 394.476562 549.074219 C 396.242188 548.488281 397.933594 548.195312 399.554688 548.195312 C 403.234375 548.195312 406.253906 549.4375 408.609375 551.925781 C 410.964844 554.414062 412.140625 557.339844 412.140625 560.707031 Z M 412.140625 560.707031 " fill-opacity="1" fill-rule="nonzero"/><path fill="#000000" d="M 243.433594 396.292969 L 508.421875 396.292969 L 508.421875 383.121094 L 243.433594 383.121094 Z M 243.433594 396.292969 " fill-opacity="1" fill-rule="nonzero"/></svg>