<svg xmlns="http://www.w3.org/2000/svg" xmlns:xlink="http://www.w3.org/1999/xlink" width="1000" zoomAndPan="magnify" viewBox="0 0 750 749.999995" height="1000" preserveAspectRatio="xMidYMid meet" version="1.0"><rect x="-75" width="900" fill="#ffffff" y="-74.999999" height="899.999994" fill-opacity="1"/><rect x="-75" width="900" fill="#ffffff" y="-74.999999" height="899.999994" fill-opacity="1"/><path fill="#000000" d="M 329.996094 227.488281 C 329.996094 203.632812 335.957031 184.757812 347.882812 170.855469 C 359.804688 156.953125 373.054688 150 387.628906 150 C 397.789062 150 405.074219 152.632812 409.492188 157.902344 C 413.910156 163.171875 416.117188 169.023438 416.117188 175.464844 C 416.117188 179.121094 415.085938 182.046875 413.023438 184.242188 C 410.964844 186.4375 408.09375 187.535156 404.414062 187.535156 C 401.027344 187.535156 398.230469 186.511719 396.019531 184.464844 C 393.8125 182.414062 392.710938 179.5625 392.710938 175.902344 C 392.710938 169.464844 396.167969 165.585938 403.085938 164.269531 C 399.847656 161.046875 395.285156 159.21875 389.398438 158.78125 C 378.945312 158.78125 370.332031 163.171875 363.558594 171.953125 C 356.640625 181.609375 353.179688 196.390625 353.179688 216.292969 L 353.402344 217.171875 C 354.136719 216.292969 354.726562 215.339844 355.167969 214.316406 C 361.203125 205.535156 369.082031 201.144531 378.796875 201.144531 L 379.679688 201.144531 C 386.453125 201.144531 392.414062 202.535156 397.566406 205.316406 C 401.101562 207.367188 404.632812 210.292969 408.167969 214.097656 C 411.699219 217.902344 414.570312 222.074219 416.777344 226.609375 C 419.871094 233.78125 421.417969 241.609375 421.417969 250.097656 L 421.417969 254.046875 C 421.417969 257.414062 421.046875 260.5625 420.3125 263.488281 C 418.691406 272.121094 413.980469 280.535156 406.179688 288.730469 C 398.375 296.925781 388.511719 301.023438 376.589844 301.023438 C 372.46875 301.023438 368.492188 300.4375 364.664062 299.269531 C 360.835938 298.097656 356.714844 295.902344 352.296875 292.683594 C 347.882812 289.464844 344.128906 285.144531 341.035156 279.730469 C 337.945312 274.316406 335.292969 267.21875 333.085938 258.4375 C 330.878906 249.660156 329.847656 239.339844 329.996094 227.488281 Z M 377.472656 209.046875 C 373.054688 209.046875 369.226562 210.292969 365.988281 212.78125 C 362.75 215.269531 360.246094 218.5625 358.480469 222.660156 C 356.714844 226.757812 355.464844 230.925781 354.726562 235.171875 C 353.992188 239.414062 353.550781 243.953125 353.402344 248.78125 C 353.402344 260.925781 354.285156 269.632812 356.050781 274.902344 C 357.820312 280.171875 360.617188 284.414062 364.445312 287.632812 C 367.976562 290.269531 371.878906 291.585938 376.148438 291.585938 C 383.65625 291.585938 389.398438 288.804688 393.371094 283.242188 C 395.285156 280.609375 396.609375 277.316406 397.347656 273.367188 C 398.082031 269.414062 398.449219 261.730469 398.449219 250.316406 C 398.449219 238.609375 398.082031 230.78125 397.347656 226.828125 C 396.609375 222.878906 395.285156 219.585938 393.371094 216.953125 C 389.398438 211.683594 384.097656 209.046875 377.472656 209.046875 Z M 377.472656 209.046875 " fill-opacity="1" fill-rule="nonzero"/><path fill="#000000" d="M 312.550781 468.292969 L 309.679688 469.390625 C 307.617188 470.121094 304.671875 470.855469 300.847656 471.585938 C 297.019531 472.316406 292.75 472.828125 288.039062 473.121094 L 283.84375 473.121094 L 283.84375 463.023438 L 288.039062 463.023438 C 294.957031 462.730469 301.363281 461.632812 307.25 459.730469 C 313.140625 457.828125 317.261719 456.074219 319.617188 454.464844 C 321.972656 452.855469 324.03125 451.242188 325.800781 449.632812 C 326.09375 449.195312 326.976562 448.976562 328.449219 448.976562 C 329.773438 448.976562 331.027344 449.414062 332.203125 450.292969 L 332.203125 515.925781 L 332.425781 581.78125 C 333.453125 582.804688 334.335938 583.464844 335.074219 583.757812 C 335.808594 584.046875 337.578125 584.339844 340.375 584.632812 C 343.171875 584.925781 347.734375 585.074219 354.066406 585.074219 L 359.804688 585.074219 L 359.804688 595.171875 L 357.378906 595.171875 C 354.285156 594.730469 342.582031 594.511719 322.265625 594.511719 C 302.246094 594.511719 290.6875 594.730469 287.597656 595.171875 L 284.945312 595.171875 L 284.945312 585.074219 L 290.6875 585.074219 C 293.925781 585.074219 296.722656 585.074219 299.078125 585.074219 C 301.433594 585.074219 303.273438 585 304.601562 584.855469 C 305.925781 584.707031 307.101562 584.488281 308.132812 584.195312 C 309.164062 583.902344 309.753906 583.757812 309.898438 583.757812 C 310.046875 583.757812 310.488281 583.390625 311.226562 582.660156 C 311.960938 581.925781 312.402344 581.632812 312.550781 581.78125 Z M 312.550781 468.292969 " fill-opacity="1" fill-rule="nonzero"/><path fill="#000000" d="M 397.125 466.757812 C 405.371094 454.902344 416.632812 448.976562 430.910156 448.976562 C 437.976562 448.976562 445.042969 450.878906 452.109375 454.683594 C 459.175781 458.488281 464.917969 465.21875 469.335938 474.878906 C 474.78125 487.023438 477.503906 503.707031 477.503906 524.925781 C 477.503906 547.609375 474.339844 564.953125 468.011719 576.953125 C 465.066406 583.097656 461.015625 588 455.863281 591.660156 C 450.710938 595.316406 446.222656 597.585938 442.394531 598.464844 C 438.566406 599.339844 434.8125 599.855469 431.132812 600 C 427.304688 600 423.476562 599.5625 419.648438 598.683594 C 415.820312 597.804688 411.332031 595.464844 406.179688 591.660156 C 401.027344 587.855469 396.976562 582.953125 394.035156 576.953125 C 387.703125 564.953125 384.539062 547.609375 384.539062 524.925781 C 384.539062 499.464844 388.734375 480.074219 397.125 466.757812 Z M 446.8125 464.121094 C 442.394531 459.4375 437.167969 457.097656 431.132812 457.097656 C 424.949219 457.097656 419.648438 459.4375 415.234375 464.121094 C 411.554688 467.925781 409.125 473.195312 407.945312 479.925781 C 406.769531 486.660156 406.179688 500.707031 406.179688 522.074219 C 406.179688 545.195312 406.769531 560.414062 407.945312 567.730469 C 409.125 575.046875 411.773438 580.828125 415.894531 585.074219 C 420.019531 589.464844 425.097656 591.660156 431.132812 591.660156 C 437.019531 591.660156 442.027344 589.464844 446.148438 585.074219 C 450.417969 580.683594 453.066406 574.535156 454.097656 566.632812 C 455.128906 558.730469 455.71875 543.878906 455.863281 522.074219 C 455.863281 500.855469 455.277344 486.878906 454.097656 480.144531 C 452.921875 473.414062 450.492188 468.074219 446.8125 464.121094 Z M 446.8125 464.121094 " fill-opacity="1" fill-rule="nonzero"/><path fill="#000000" d="M 243.433594 396.292969 L 508.421875 396.292969 L 508.421875 383.121094 L 243.433594 383.121094 Z M 243.433594 396.292969 " fill-opacity="1" fill-rule="nonzero"/></svg>