<svg xmlns="http://www.w3.org/2000/svg" xmlns:xlink="http://www.w3.org/1999/xlink" width="1000" zoomAndPan="magnify" viewBox="0 0 750 749.999995" height="1000" preserveAspectRatio="xMidYMid meet" version="1.0"><rect x="-75" width="900" fill="#ffffff" y="-74.999999" height="899.999994" fill-opacity="1"/><rect x="-75" width="900" fill="#ffffff" y="-74.999999" height="899.999994" fill-opacity="1"/><path fill="#000000" d="M 398.449219 233.195312 C 391.382812 244.316406 382.550781 249.878906 371.953125 249.878906 C 360.46875 249.878906 351.046875 245.5625 343.6875 236.925781 C 336.324219 228.292969 331.910156 219.074219 330.4375 209.269531 C 330.140625 206.925781 329.996094 204 329.996094 200.488281 L 329.996094 198.730469 C 329.996094 185.121094 335.074219 173.269531 345.230469 163.171875 C 354.066406 154.390625 363.78125 150 374.378906 150 C 374.675781 150 375.117188 150 375.707031 150 C 376.292969 150 376.882812 150.074219 377.472656 150.21875 L 378.355469 150.21875 C 380.121094 150.21875 381.960938 150.367188 383.875 150.660156 C 385.789062 150.953125 388.511719 151.828125 392.046875 153.292969 C 395.578125 154.757812 399.039062 157.097656 402.425781 160.316406 C 405.8125 163.535156 408.976562 167.855469 411.921875 173.269531 C 418.25 186.144531 421.417969 202.683594 421.417969 222.878906 C 421.417969 243.367188 417 260.707031 408.167969 274.902344 C 403.015625 283.097656 396.832031 289.464844 389.617188 294 C 382.402344 298.535156 374.75 300.878906 366.652344 301.023438 C 357.671875 301.023438 350.3125 298.902344 344.570312 294.660156 C 338.828125 290.414062 335.882812 284.121094 335.738281 275.78125 C 335.589844 267.4375 339.492188 263.339844 347.441406 263.488281 C 350.679688 263.488281 353.402344 264.511719 355.609375 266.5625 C 357.820312 268.609375 358.921875 271.464844 358.921875 275.121094 C 358.921875 277.757812 358.261719 280.023438 356.9375 281.925781 C 355.609375 283.828125 354.433594 285 353.402344 285.4375 C 352.371094 285.878906 351.414062 286.242188 350.53125 286.535156 L 349.648438 286.757812 C 349.648438 287.046875 350.164062 287.488281 351.195312 288.074219 C 352.226562 288.660156 354.136719 289.390625 356.9375 290.269531 C 359.734375 291.144531 362.824219 291.511719 366.210938 291.367188 L 367.535156 291.367188 C 376.367188 291.367188 383.800781 286.683594 389.839844 277.316406 C 395.578125 269.121094 398.449219 254.925781 398.449219 234.730469 Z M 374.601562 241.757812 C 381.667969 241.757812 387.335938 238.171875 391.605469 231 C 395.875 223.828125 398.082031 214.097656 398.230469 201.804688 C 398.230469 190.390625 397.640625 182.195312 396.464844 177.21875 C 396.167969 175.757812 395.726562 174.292969 395.136719 172.828125 C 394.550781 171.367188 393.519531 169.464844 392.046875 167.121094 C 390.574219 164.78125 388.367188 162.804688 385.421875 161.195312 C 382.476562 159.585938 379.019531 158.855469 375.042969 159 C 369.449219 159 364.664062 160.976562 360.691406 164.925781 C 357.597656 168.144531 355.609375 171.953125 354.726562 176.339844 C 353.84375 180.730469 353.328125 188.414062 353.179688 199.390625 C 353.179688 211.535156 353.550781 219.730469 354.285156 223.976562 C 355.023438 228.21875 356.492188 231.660156 358.703125 234.292969 C 362.382812 239.269531 367.683594 241.757812 374.601562 241.757812 Z M 374.601562 241.757812 " fill-opacity="1" fill-rule="nonzero"/><path fill="#000000" d="M 312.550781 468.292969 L 309.679688 469.390625 C 307.617188 470.121094 304.671875 470.855469 300.847656 471.585938 C 297.019531 472.316406 292.75 472.828125 288.039062 473.121094 L 283.84375 473.121094 L 283.84375 463.023438 L 288.039062 463.023438 C 294.957031 462.730469 301.363281 461.632812 307.25 459.730469 C 313.140625 457.828125 317.261719 456.074219 319.617188 454.464844 C 321.972656 452.855469 324.03125 451.242188 325.800781 449.632812 C 326.09375 449.195312 326.976562 448.976562 328.449219 448.976562 C 329.773438 448.976562 331.027344 449.414062 332.203125 450.292969 L 332.203125 515.925781 L 332.425781 581.78125 C 333.453125 582.804688 334.335938 583.464844 335.074219 583.757812 C 335.808594 584.046875 337.578125 584.339844 340.375 584.632812 C 343.171875 584.925781 347.734375 585.074219 354.066406 585.074219 L 359.804688 585.074219 L 359.804688 595.171875 L 357.378906 595.171875 C 354.285156 594.730469 342.582031 594.511719 322.265625 594.511719 C 302.246094 594.511719 290.6875 594.730469 287.597656 595.171875 L 284.945312 595.171875 L 284.945312 585.074219 L 290.6875 585.074219 C 293.925781 585.074219 296.722656 585.074219 299.078125 585.074219 C 301.433594 585.074219 303.273438 585 304.601562 584.855469 C 305.925781 584.707031 307.101562 584.488281 308.132812 584.195312 C 309.164062 583.902344 309.753906 583.757812 309.898438 583.757812 C 310.046875 583.757812 310.488281 583.390625 311.226562 582.660156 C 311.960938 581.925781 312.402344 581.632812 312.550781 581.78125 Z M 312.550781 468.292969 " fill-opacity="1" fill-rule="nonzero"/><path fill="#000000" d="M 412.140625 560.707031 C 412.140625 564.21875 410.964844 567.144531 408.609375 569.488281 C 406.253906 571.828125 403.382812 573 399.996094 573 L 398.449219 573 C 405.222656 584.5625 414.203125 590.339844 425.390625 590.339844 C 435.695312 590.339844 443.203125 585.953125 447.914062 577.171875 C 450.710938 572.339844 452.109375 562.976562 452.109375 549.074219 C 452.109375 534 450.125 523.828125 446.148438 518.5625 C 442.320312 513.730469 438.050781 511.316406 433.339844 511.316406 L 432.015625 511.316406 C 420.53125 511.316406 411.847656 516.292969 405.957031 526.242188 C 405.371094 527.269531 404.855469 527.855469 404.414062 528 C 403.972656 528.144531 402.867188 528.292969 401.101562 528.4375 C 398.597656 528.4375 397.199219 528 396.90625 527.121094 C 396.609375 526.535156 396.464844 513.730469 396.464844 488.707031 L 396.464844 460.390625 C 396.464844 453.074219 396.832031 449.414062 397.566406 449.414062 C 397.863281 449.121094 398.15625 448.976562 398.449219 448.976562 C 398.597656 448.976562 400.144531 449.5625 403.085938 450.730469 C 406.03125 451.902344 410.082031 453.074219 415.234375 454.242188 C 420.386719 455.414062 425.90625 456 431.796875 456 C 442.246094 456 452.257812 453.953125 461.828125 449.855469 C 463.003906 449.269531 463.960938 448.976562 464.699219 448.976562 C 465.875 448.976562 466.464844 450.292969 466.464844 452.925781 L 466.464844 455.78125 C 454.394531 469.976562 439.304688 477.074219 421.195312 477.074219 C 416.632812 477.074219 412.507812 476.632812 408.828125 475.757812 L 406.621094 475.316406 L 406.621094 513.074219 C 409.417969 511.023438 411.625 509.414062 413.246094 508.242188 C 414.863281 507.074219 417.515625 505.902344 421.195312 504.730469 C 424.875 503.5625 428.628906 502.976562 432.457031 502.976562 C 444.382812 502.976562 454.464844 507.730469 462.710938 517.242188 C 470.953125 526.757812 475.078125 538.023438 475.078125 551.046875 C 475.078125 564.511719 470.367188 576 460.945312 585.511719 C 451.523438 595.023438 440.039062 599.855469 426.496094 600 C 414.570312 600 405 596.046875 397.789062 588.144531 C 390.574219 580.242188 386.96875 571.316406 386.96875 561.367188 C 386.96875 557.855469 387.777344 555.074219 389.398438 553.023438 C 391.015625 550.976562 392.710938 549.660156 394.476562 549.074219 C 396.242188 548.488281 397.933594 548.195312 399.554688 548.195312 C 403.234375 548.195312 406.253906 549.4375 408.609375 551.925781 C 410.964844 554.414062 412.140625 557.339844 412.140625 560.707031 Z M 412.140625 560.707031 " fill-opacity="1" fill-rule="nonzero"/><path fill="#000000" d="M 243.433594 396.292969 L 508.421875 396.292969 L 508.421875 383.121094 L 243.433594 383.121094 Z M 243.433594 396.292969 " fill-opacity="1" fill-rule="nonzero"/></svg>