<svg xmlns="http://www.w3.org/2000/svg" xmlns:xlink="http://www.w3.org/1999/xlink" width="1000" zoomAndPan="magnify" viewBox="0 0 750 749.999995" height="1000" preserveAspectRatio="xMidYMid meet" version="1.0"><defs><clipPath id="366707b534"><path d="M 117.375 116.25 L 632.625 116.25 L 632.625 631.5 L 117.375 631.5 Z M 117.375 116.25 " clip-rule="nonzero"/></clipPath><clipPath id="3df66698d6"><path d="M 249 380 L 369 380 L 369 619.632812 L 249 619.632812 Z M 249 380 " clip-rule="nonzero"/></clipPath><clipPath id="eca46a48cc"><path d="M 378 248 L 622.621094 248 L 622.621094 371 L 378 371 Z M 378 248 " clip-rule="nonzero"/></clipPath><clipPath id="9b0d5f68c8"><path d="M 378 374 L 622.621094 374 L 622.621094 497 L 378 497 Z M 378 374 " clip-rule="nonzero"/></clipPath><clipPath id="6fb27d236d"><path d="M 372 380 L 494 380 L 494 619.632812 L 372 619.632812 Z M 372 380 " clip-rule="nonzero"/></clipPath><clipPath id="b65b6cc09f"><path d="M 127.621094 374 L 363 374 L 363 493 L 127.621094 493 Z M 127.621094 374 " clip-rule="nonzero"/></clipPath><clipPath id="c228c452f2"><path d="M 127.621094 252 L 363 252 L 363 371 L 127.621094 371 Z M 127.621094 252 " clip-rule="nonzero"/></clipPath></defs><rect x="-75" width="900" fill="#ffffff" y="-74.999999" height="899.999994" fill-opacity="1"/><rect x="-75" width="900" fill="#ffffff" y="-74.999999" height="899.999994" fill-opacity="1"/><g clip-path="url(#366707b534)"><path fill="#000000" d="M 632.625 373.875 C 632.625 378.089844 632.519531 382.304688 632.316406 386.515625 C 632.109375 390.726562 631.796875 394.929688 631.382812 399.125 C 630.972656 403.324219 630.457031 407.503906 629.835938 411.675781 C 629.21875 415.847656 628.496094 420 627.675781 424.136719 C 626.851562 428.269531 625.929688 432.382812 624.902344 436.472656 C 623.878906 440.5625 622.753906 444.625 621.53125 448.660156 C 620.308594 452.695312 618.984375 456.695312 617.566406 460.667969 C 616.144531 464.636719 614.628906 468.570312 613.015625 472.464844 C 611.402344 476.359375 609.691406 480.210938 607.890625 484.023438 C 606.085938 487.835938 604.191406 491.601562 602.203125 495.320312 C 600.21875 499.035156 598.140625 502.703125 595.972656 506.320312 C 593.804688 509.9375 591.550781 513.5 589.207031 517.003906 C 586.863281 520.507812 584.4375 523.957031 581.925781 527.34375 C 579.414062 530.726562 576.820312 534.050781 574.148438 537.308594 C 571.472656 540.570312 568.71875 543.761719 565.886719 546.886719 C 563.054688 550.007812 560.148438 553.0625 557.167969 556.042969 C 554.1875 559.023438 551.132812 561.929688 548.011719 564.761719 C 544.886719 567.59375 541.695312 570.347656 538.433594 573.023438 C 535.175781 575.695312 531.851562 578.289062 528.46875 580.800781 C 525.082031 583.3125 521.632812 585.738281 518.128906 588.082031 C 514.621094 590.425781 511.0625 592.679688 507.445312 594.847656 C 503.828125 597.015625 500.160156 599.09375 496.445312 601.078125 C 492.726562 603.066406 488.960938 604.960938 485.148438 606.765625 C 481.335938 608.566406 477.484375 610.277344 473.589844 611.890625 C 469.695312 613.503906 465.761719 615.019531 461.792969 616.441406 C 457.820312 617.859375 453.820312 619.183594 449.785156 620.40625 C 445.75 621.628906 441.6875 622.753906 437.597656 623.777344 C 433.507812 624.804688 429.394531 625.726562 425.261719 626.550781 C 421.125 627.371094 416.972656 628.09375 412.800781 628.710938 C 408.628906 629.332031 404.449219 629.847656 400.25 630.257812 C 396.054688 630.671875 391.851562 630.984375 387.640625 631.191406 C 383.429688 631.398438 379.214844 631.5 375 631.5 C 370.785156 631.5 366.570312 631.398438 362.359375 631.191406 C 358.148438 630.984375 353.945312 630.671875 349.75 630.257812 C 345.550781 629.847656 341.367188 629.332031 337.199219 628.710938 C 333.027344 628.09375 328.875 627.371094 324.738281 626.550781 C 320.605469 625.726562 316.492188 624.804688 312.402344 623.777344 C 308.3125 622.753906 304.25 621.628906 300.214844 620.40625 C 296.179688 619.183594 292.179688 617.859375 288.207031 616.441406 C 284.238281 615.019531 280.304688 613.503906 276.410156 611.890625 C 272.515625 610.277344 268.664062 608.566406 264.851562 606.765625 C 261.039062 604.960938 257.273438 603.066406 253.554688 601.078125 C 249.839844 599.09375 246.171875 597.015625 242.554688 594.847656 C 238.9375 592.679688 235.375 590.425781 231.871094 588.082031 C 228.367188 585.738281 224.917969 583.3125 221.53125 580.800781 C 218.144531 578.289062 214.824219 575.695312 211.5625 573.023438 C 208.304688 570.347656 205.113281 567.59375 201.988281 564.761719 C 198.867188 561.929688 195.8125 559.023438 192.832031 556.042969 C 189.851562 553.0625 186.945312 550.007812 184.113281 546.886719 C 181.28125 543.761719 178.527344 540.570312 175.851562 537.308594 C 173.179688 534.050781 170.585938 530.726562 168.074219 527.34375 C 165.5625 523.957031 163.136719 520.507812 160.792969 517.003906 C 158.449219 513.5 156.195312 509.9375 154.027344 506.320312 C 151.859375 502.703125 149.78125 499.035156 147.796875 495.320312 C 145.808594 491.601562 143.914062 487.835938 142.109375 484.023438 C 140.308594 480.210938 138.597656 476.359375 136.984375 472.464844 C 135.371094 468.570312 133.855469 464.636719 132.433594 460.667969 C 131.015625 456.695312 129.691406 452.695312 128.46875 448.660156 C 127.246094 444.625 126.121094 440.5625 125.09375 436.472656 C 124.070312 432.382812 123.148438 428.269531 122.324219 424.136719 C 121.503906 420 120.78125 415.847656 120.164062 411.675781 C 119.542969 407.503906 119.027344 403.324219 118.617188 399.125 C 118.203125 394.929688 117.890625 390.726562 117.683594 386.515625 C 117.476562 382.304688 117.375 378.089844 117.375 373.875 C 117.375 369.660156 117.476562 365.445312 117.683594 361.234375 C 117.890625 357.023438 118.203125 352.820312 118.617188 348.625 C 119.027344 344.425781 119.542969 340.242188 120.164062 336.074219 C 120.78125 331.902344 121.503906 327.75 122.324219 323.613281 C 123.148438 319.480469 124.070312 315.367188 125.09375 311.277344 C 126.121094 307.1875 127.246094 303.125 128.46875 299.089844 C 129.691406 295.054688 131.015625 291.054688 132.433594 287.082031 C 133.855469 283.113281 135.371094 279.179688 136.984375 275.285156 C 138.597656 271.390625 140.308594 267.539062 142.109375 263.726562 C 143.914062 259.914062 145.808594 256.148438 147.796875 252.429688 C 149.78125 248.714844 151.859375 245.046875 154.027344 241.429688 C 156.195312 237.8125 158.449219 234.25 160.792969 230.746094 C 163.136719 227.242188 165.5625 223.792969 168.074219 220.40625 C 170.585938 217.019531 173.179688 213.699219 175.851562 210.4375 C 178.527344 207.179688 181.28125 203.988281 184.113281 200.863281 C 186.945312 197.742188 189.851562 194.6875 192.832031 191.707031 C 195.8125 188.726562 198.867188 185.820312 201.988281 182.988281 C 205.113281 180.15625 208.304688 177.402344 211.5625 174.726562 C 214.824219 172.054688 218.144531 169.460938 221.53125 166.949219 C 224.917969 164.4375 228.367188 162.011719 231.871094 159.667969 C 235.375 157.324219 238.9375 155.070312 242.554688 152.902344 C 246.171875 150.734375 249.839844 148.65625 253.554688 146.671875 C 257.273438 144.683594 261.039062 142.789062 264.851562 140.984375 C 268.664062 139.183594 272.515625 137.472656 276.410156 135.859375 C 280.304688 134.246094 284.238281 132.730469 288.207031 131.308594 C 292.179688 129.890625 296.179688 128.566406 300.214844 127.34375 C 304.25 126.121094 308.3125 124.996094 312.402344 123.972656 C 316.492188 122.945312 320.605469 122.023438 324.738281 121.199219 C 328.875 120.378906 333.027344 119.65625 337.199219 119.039062 C 341.367188 118.417969 345.550781 117.902344 349.75 117.492188 C 353.945312 117.078125 358.148438 116.765625 362.359375 116.558594 C 366.570312 116.351562 370.785156 116.25 375 116.25 C 379.214844 116.25 383.429688 116.351562 387.640625 116.558594 C 391.851562 116.765625 396.054688 117.078125 400.25 117.492188 C 404.449219 117.902344 408.628906 118.417969 412.800781 119.039062 C 416.972656 119.65625 421.125 120.378906 425.261719 121.199219 C 429.394531 122.023438 433.507812 122.945312 437.597656 123.972656 C 441.6875 124.996094 445.75 126.121094 449.785156 127.34375 C 453.820312 128.566406 457.820312 129.890625 461.792969 131.308594 C 465.761719 132.730469 469.695312 134.246094 473.589844 135.859375 C 477.484375 137.472656 481.335938 139.183594 485.148438 140.984375 C 488.960938 142.789062 492.726562 144.683594 496.445312 146.671875 C 500.160156 148.65625 503.828125 150.734375 507.445312 152.902344 C 511.0625 155.070312 514.621094 157.324219 518.128906 159.667969 C 521.632812 162.011719 525.082031 164.4375 528.46875 166.949219 C 531.851562 169.460938 535.175781 172.054688 538.433594 174.726562 C 541.695312 177.402344 544.886719 180.15625 548.011719 182.988281 C 551.132812 185.820312 554.1875 188.726562 557.167969 191.707031 C 560.148438 194.6875 563.054688 197.742188 565.886719 200.863281 C 568.71875 203.988281 571.472656 207.179688 574.148438 210.4375 C 576.820312 213.699219 579.414062 217.019531 581.925781 220.40625 C 584.4375 223.792969 586.863281 227.242188 589.207031 230.746094 C 591.550781 234.25 593.804688 237.8125 595.972656 241.429688 C 598.140625 245.046875 600.21875 248.714844 602.203125 252.429688 C 604.191406 256.148438 606.085938 259.914062 607.890625 263.726562 C 609.691406 267.539062 611.402344 271.390625 613.015625 275.285156 C 614.628906 279.179688 616.144531 283.113281 617.566406 287.082031 C 618.984375 291.054688 620.308594 295.054688 621.53125 299.089844 C 622.753906 303.125 623.878906 307.1875 624.902344 311.277344 C 625.929688 315.367188 626.851562 319.480469 627.675781 323.613281 C 628.496094 327.75 629.21875 331.902344 629.835938 336.074219 C 630.457031 340.242188 630.972656 344.425781 631.382812 348.625 C 631.796875 352.820312 632.109375 357.023438 632.316406 361.234375 C 632.519531 365.445312 632.625 369.660156 632.625 373.875 Z M 632.625 373.875 " fill-opacity="1" fill-rule="nonzero"/></g><path fill="#6d5764" d="M 249.753906 159.210938 L 368.246094 364.445312 L 368.246094 125.289062 C 325.074219 126.453125 284.675781 138.648438 249.753906 159.210938 " fill-opacity="1" fill-rule="evenodd"/><g clip-path="url(#3df66698d6)"><path fill="#ffffff" d="M 368.242188 619.523438 L 368.242188 380.367188 L 249.75 585.601562 C 284.671875 606.160156 325.070312 618.359375 368.242188 619.523438 " fill-opacity="1" fill-rule="evenodd"/></g><path fill="#6d5764" d="M 372.511719 364.449219 L 493.3125 155.207031 C 458.171875 136.03125 417.871094 125.121094 375.015625 125.121094 C 374.175781 125.121094 373.347656 125.171875 372.507812 125.179688 Z M 372.511719 364.449219 " fill-opacity="1" fill-rule="evenodd"/><g clip-path="url(#eca46a48cc)"><path fill="#6d5764" d="M 378.332031 370.269531 L 622.246094 370.269531 C 621.875 325.953125 609.824219 284.449219 589.054688 248.609375 Z M 378.332031 370.269531 " fill-opacity="1" fill-rule="evenodd"/></g><g clip-path="url(#9b0d5f68c8)"><path fill="#6d5764" d="M 589.054688 496.195312 C 609.828125 460.355469 621.875 418.851562 622.25 374.535156 L 378.332031 374.535156 Z M 589.054688 496.195312 " fill-opacity="1" fill-rule="evenodd"/></g><path fill="#6d5764" d="M 376.199219 366.578125 L 586.929688 244.914062 C 565.007812 208.554688 533.972656 178.34375 497.015625 157.332031 Z M 376.199219 366.578125 " fill-opacity="1" fill-rule="evenodd"/><g clip-path="url(#6fb27d236d)"><path fill="#6d5764" d="M 372.507812 380.367188 L 372.507812 619.632812 C 373.347656 619.640625 374.175781 619.691406 375.015625 619.691406 C 417.871094 619.691406 458.171875 608.785156 493.308594 589.605469 Z M 372.507812 380.367188 " fill-opacity="1" fill-rule="evenodd"/></g><path fill="#6d5764" d="M 364.550781 366.578125 L 246.074219 161.375 C 210.839844 182.949219 181.480469 213.117188 160.789062 248.9375 Z M 364.550781 366.578125 " fill-opacity="1" fill-rule="evenodd"/><path fill="#6d5764" d="M 376.199219 378.230469 L 497.015625 587.476562 C 533.972656 566.460938 565.007812 536.253906 586.929688 499.894531 Z M 376.199219 378.230469 " fill-opacity="1" fill-rule="evenodd"/><path fill="#ffffff" d="M 364.550781 378.230469 L 160.789062 495.871094 C 181.480469 531.6875 210.839844 561.859375 246.074219 583.433594 Z M 364.550781 378.230469 " fill-opacity="1" fill-rule="evenodd"/><g clip-path="url(#b65b6cc09f)"><path fill="#6d5764" d="M 127.78125 374.539062 C 128.144531 417.199219 139.300781 457.269531 158.667969 492.175781 L 362.417969 374.539062 Z M 127.78125 374.539062 " fill-opacity="1" fill-rule="evenodd"/></g><g clip-path="url(#c228c452f2)"><path fill="#6d5764" d="M 158.664062 252.632812 C 139.296875 287.539062 128.140625 327.609375 127.777344 370.269531 L 362.417969 370.269531 Z M 158.664062 252.632812 " fill-opacity="1" fill-rule="evenodd"/></g></svg>