<svg xmlns="http://www.w3.org/2000/svg" xmlns:xlink="http://www.w3.org/1999/xlink" width="1000" zoomAndPan="magnify" viewBox="0 0 750 749.999995" height="1000" preserveAspectRatio="xMidYMid meet" version="1.0"><rect x="-75" width="900" fill="#ffffff" y="-74.999999" height="899.999994" fill-opacity="1"/><rect x="-75" width="900" fill="#ffffff" y="-74.999999" height="899.999994" fill-opacity="1"/><path fill="#000000" d="M 312.550781 169.316406 L 309.679688 170.414062 C 307.617188 171.144531 304.671875 171.878906 300.847656 172.609375 C 297.019531 173.339844 292.75 173.855469 288.039062 174.144531 L 283.84375 174.144531 L 283.84375 164.046875 L 288.039062 164.046875 C 294.957031 163.757812 301.363281 162.660156 307.25 160.757812 C 313.140625 158.855469 317.261719 157.097656 319.617188 155.488281 C 321.972656 153.878906 324.03125 152.269531 325.800781 150.660156 C 326.09375 150.21875 326.976562 150 328.449219 150 C 329.773438 150 331.027344 150.4375 332.203125 151.316406 L 332.203125 216.953125 L 332.425781 282.804688 C 333.453125 283.828125 334.335938 284.488281 335.074219 284.78125 C 335.808594 285.074219 337.578125 285.367188 340.375 285.660156 C 343.171875 285.953125 347.734375 286.097656 354.066406 286.097656 L 359.804688 286.097656 L 359.804688 296.195312 L 357.378906 296.195312 C 354.285156 295.757812 342.582031 295.535156 322.265625 295.535156 C 302.246094 295.535156 290.6875 295.757812 287.597656 296.195312 L 284.945312 296.195312 L 284.945312 286.097656 L 290.6875 286.097656 C 293.925781 286.097656 296.722656 286.097656 299.078125 286.097656 C 301.433594 286.097656 303.273438 286.023438 304.601562 285.878906 C 305.925781 285.730469 307.101562 285.511719 308.132812 285.21875 C 309.164062 284.925781 309.753906 284.78125 309.898438 284.78125 C 310.046875 284.78125 310.488281 284.414062 311.226562 283.683594 C 311.960938 282.953125 312.402344 282.660156 312.550781 282.804688 Z M 312.550781 169.316406 " fill-opacity="1" fill-rule="nonzero"/><path fill="#000000" d="M 399.996094 202.023438 C 396.019531 202.023438 392.855469 200.707031 390.5 198.074219 C 388.144531 195.4375 386.96875 192.21875 386.96875 188.414062 C 386.96875 178.023438 390.867188 169.023438 398.671875 161.414062 C 406.472656 153.804688 416.191406 150 427.820312 150 C 441.21875 150 452.40625 154.097656 461.386719 162.292969 C 470.367188 170.488281 474.929688 181.097656 475.078125 194.121094 C 475.078125 200.414062 473.605469 206.414062 470.660156 212.121094 C 467.714844 217.828125 464.183594 222.804688 460.058594 227.046875 C 455.9375 231.292969 450.050781 236.707031 442.394531 243.292969 C 437.09375 247.828125 429.734375 254.5625 420.3125 263.488281 L 407.285156 275.78125 L 424.066406 276 C 447.179688 276 459.472656 275.632812 460.945312 274.902344 C 461.972656 274.609375 463.742188 268.097656 466.242188 255.367188 L 466.242188 254.707031 L 475.078125 254.707031 L 475.078125 255.367188 C 474.929688 255.804688 473.972656 262.464844 472.207031 275.339844 C 470.4375 288.21875 469.335938 294.953125 468.894531 295.535156 L 468.894531 296.195312 L 386.96875 296.195312 L 386.96875 289.390625 C 386.96875 288.367188 387.410156 287.269531 388.292969 286.097656 C 389.175781 284.925781 391.382812 282.367188 394.917969 278.414062 C 399.1875 273.730469 402.867188 269.632812 405.957031 266.121094 C 407.285156 264.660156 409.785156 261.953125 413.464844 258 C 417.148438 254.046875 419.648438 251.339844 420.976562 249.878906 C 422.300781 248.414062 424.433594 246 427.378906 242.632812 C 430.324219 239.269531 432.382812 236.78125 433.5625 235.171875 C 434.738281 233.5625 436.433594 231.367188 438.640625 228.585938 C 440.847656 225.804688 442.394531 223.464844 443.277344 221.5625 C 444.160156 219.660156 445.265625 217.535156 446.589844 215.195312 C 447.914062 212.855469 448.871094 210.511719 449.460938 208.171875 C 450.050781 205.828125 450.566406 203.632812 451.007812 201.585938 C 451.449219 199.535156 451.667969 197.121094 451.667969 194.339844 C 451.667969 185.121094 449.167969 177.144531 444.160156 170.414062 C 439.15625 163.683594 432.015625 160.316406 422.742188 160.316406 C 417.882812 160.316406 413.613281 161.5625 409.933594 164.046875 C 406.253906 166.535156 403.675781 168.953125 402.203125 171.292969 C 400.730469 173.632812 399.996094 175.023438 399.996094 175.464844 C 399.996094 175.609375 400.363281 175.683594 401.101562 175.683594 C 403.75 175.683594 406.472656 176.707031 409.269531 178.757812 C 412.066406 180.804688 413.464844 184.171875 413.464844 188.855469 C 413.464844 192.511719 412.289062 195.585938 409.933594 198.074219 C 407.578125 200.5625 404.265625 201.878906 399.996094 202.023438 Z M 399.996094 202.023438 " fill-opacity="1" fill-rule="nonzero"/><path fill="#000000" d="M 289.585938 501 C 285.609375 501 282.445312 499.683594 280.089844 497.046875 C 277.734375 494.414062 276.554688 491.195312 276.554688 487.390625 C 276.554688 477 280.457031 468 288.257812 460.390625 C 296.0625 452.78125 305.777344 448.976562 317.40625 448.976562 C 330.804688 448.976562 341.992188 453.074219 350.972656 461.269531 C 359.953125 469.464844 364.515625 480.074219 364.664062 493.097656 C 364.664062 499.390625 363.191406 505.390625 360.246094 511.097656 C 357.304688 516.804688 353.769531 521.78125 349.648438 526.023438 C 345.527344 530.269531 339.636719 535.683594 331.984375 542.269531 C 326.683594 546.804688 319.320312 553.535156 309.898438 562.464844 L 296.871094 574.757812 L 313.652344 574.976562 C 336.765625 574.976562 349.058594 574.609375 350.53125 573.878906 C 351.5625 573.585938 353.328125 567.074219 355.832031 554.339844 L 355.832031 553.683594 L 364.664062 553.683594 L 364.664062 554.339844 C 364.515625 554.78125 363.558594 561.4375 361.792969 574.316406 C 360.027344 587.195312 358.921875 593.925781 358.480469 594.511719 L 358.480469 595.171875 L 276.554688 595.171875 L 276.554688 588.367188 C 276.554688 587.339844 276.996094 586.242188 277.878906 585.074219 C 278.765625 583.902344 280.972656 581.339844 284.503906 577.390625 C 288.773438 572.707031 292.453125 568.609375 295.546875 565.097656 C 296.871094 563.632812 299.375 560.925781 303.054688 556.976562 C 306.734375 553.023438 309.238281 550.316406 310.5625 548.855469 C 311.886719 547.390625 314.023438 544.976562 316.964844 541.609375 C 319.910156 538.242188 321.972656 535.757812 323.148438 534.144531 C 324.328125 532.535156 326.019531 530.339844 328.226562 527.5625 C 330.4375 524.78125 331.984375 522.4375 332.867188 520.535156 C 333.75 518.632812 334.851562 516.511719 336.179688 514.171875 C 337.503906 511.828125 338.460938 509.488281 339.046875 507.144531 C 339.636719 504.804688 340.152344 502.609375 340.59375 500.5625 C 341.035156 498.511719 341.257812 496.097656 341.257812 493.316406 C 341.257812 484.097656 338.753906 476.121094 333.75 469.390625 C 328.742188 462.660156 321.605469 459.292969 312.328125 459.292969 C 307.472656 459.292969 303.203125 460.535156 299.519531 463.023438 C 295.839844 465.511719 293.265625 467.925781 291.792969 470.269531 C 290.320312 472.609375 289.585938 474 289.585938 474.4375 C 289.585938 474.585938 289.953125 474.660156 290.6875 474.660156 C 293.339844 474.660156 296.0625 475.683594 298.859375 477.730469 C 301.65625 479.78125 303.054688 483.144531 303.054688 487.828125 C 303.054688 491.488281 301.875 494.5625 299.519531 497.046875 C 297.164062 499.535156 293.851562 500.855469 289.585938 501 Z M 289.585938 501 " fill-opacity="1" fill-rule="nonzero"/><path fill="#000000" d="M 397.125 466.757812 C 405.371094 454.902344 416.632812 448.976562 430.910156 448.976562 C 437.976562 448.976562 445.042969 450.878906 452.109375 454.683594 C 459.175781 458.488281 464.917969 465.21875 469.335938 474.878906 C 474.78125 487.023438 477.503906 503.707031 477.503906 524.925781 C 477.503906 547.609375 474.339844 564.953125 468.011719 576.953125 C 465.066406 583.097656 461.015625 588 455.863281 591.660156 C 450.710938 595.316406 446.222656 597.585938 442.394531 598.464844 C 438.566406 599.339844 434.8125 599.855469 431.132812 600 C 427.304688 600 423.476562 599.5625 419.648438 598.683594 C 415.820312 597.804688 411.332031 595.464844 406.179688 591.660156 C 401.027344 587.855469 396.976562 582.953125 394.035156 576.953125 C 387.703125 564.953125 384.539062 547.609375 384.539062 524.925781 C 384.539062 499.464844 388.734375 480.074219 397.125 466.757812 Z M 446.8125 464.121094 C 442.394531 459.4375 437.167969 457.097656 431.132812 457.097656 C 424.949219 457.097656 419.648438 459.4375 415.234375 464.121094 C 411.554688 467.925781 409.125 473.195312 407.945312 479.925781 C 406.769531 486.660156 406.179688 500.707031 406.179688 522.074219 C 406.179688 545.195312 406.769531 560.414062 407.945312 567.730469 C 409.125 575.046875 411.773438 580.828125 415.894531 585.074219 C 420.019531 589.464844 425.097656 591.660156 431.132812 591.660156 C 437.019531 591.660156 442.027344 589.464844 446.148438 585.074219 C 450.417969 580.683594 453.066406 574.535156 454.097656 566.632812 C 455.128906 558.730469 455.71875 543.878906 455.863281 522.074219 C 455.863281 500.855469 455.277344 486.878906 454.097656 480.144531 C 452.921875 473.414062 450.492188 468.074219 446.8125 464.121094 Z M 446.8125 464.121094 " fill-opacity="1" fill-rule="nonzero"/><path fill="#000000" d="M 243.433594 396.292969 L 508.421875 396.292969 L 508.421875 383.121094 L 243.433594 383.121094 Z M 243.433594 396.292969 " fill-opacity="1" fill-rule="nonzero"/></svg>