<svg xmlns="http://www.w3.org/2000/svg" xmlns:xlink="http://www.w3.org/1999/xlink" width="1000" zoomAndPan="magnify" viewBox="0 0 750 749.999995" height="1000" preserveAspectRatio="xMidYMid meet" version="1.0"><defs><clipPath id="7251bd2d7d"><path d="M 166 309.867188 L 247 309.867188 L 247 440.132812 L 166 440.132812 Z M 166 309.867188 " clip-rule="nonzero"/></clipPath><clipPath id="a83df546a1"><path d="M 314 309.867188 L 393 309.867188 L 393 440.132812 L 314 440.132812 Z M 314 309.867188 " clip-rule="nonzero"/></clipPath><clipPath id="177859a66d"><path d="M 408 310 L 488 310 L 488 440.132812 L 408 440.132812 Z M 408 310 " clip-rule="nonzero"/></clipPath><clipPath id="eccc2e75a1"><path d="M 503 310 L 582 310 L 582 440.132812 L 503 440.132812 Z M 503 310 " clip-rule="nonzero"/></clipPath></defs><rect x="-75" width="900" fill="#ffffff" y="-74.999999" height="899.999994" fill-opacity="1"/><rect x="-75" width="900" fill="#ffffff" y="-74.999999" height="899.999994" fill-opacity="1"/><g clip-path="url(#7251bd2d7d)"><path fill="#000000" d="M 177.484375 325.203125 C 184.542969 314.980469 194.1875 309.867188 206.414062 309.867188 C 212.464844 309.867188 218.515625 311.507812 224.570312 314.792969 C 230.621094 318.074219 235.535156 323.878906 239.316406 332.210938 C 243.980469 342.6875 246.3125 357.078125 246.3125 375.378906 C 246.3125 394.945312 243.601562 409.902344 238.183594 420.25 C 235.660156 425.550781 232.195312 429.78125 227.78125 432.9375 C 223.371094 436.09375 219.527344 438.050781 216.25 438.804688 C 212.972656 439.5625 209.757812 440.003906 206.605469 440.132812 C 203.328125 440.132812 200.050781 439.753906 196.773438 438.996094 C 193.496094 438.238281 189.648438 436.21875 185.238281 432.9375 C 180.824219 429.65625 177.359375 425.425781 174.839844 420.25 C 169.417969 409.902344 166.707031 394.945312 166.707031 375.378906 C 166.707031 353.414062 170.300781 336.691406 177.484375 325.203125 Z M 220.03125 322.933594 C 216.25 318.894531 211.773438 316.875 206.605469 316.875 C 201.3125 316.875 196.773438 318.894531 192.992188 322.933594 C 189.839844 326.214844 187.757812 330.757812 186.75 336.566406 C 185.742188 342.371094 185.238281 354.488281 185.238281 372.917969 C 185.238281 392.859375 185.742188 405.988281 186.75 412.300781 C 187.757812 418.609375 190.027344 423.597656 193.558594 427.257812 C 197.085938 431.042969 201.4375 432.9375 206.605469 432.9375 C 211.648438 432.9375 215.933594 431.042969 219.464844 427.257812 C 223.117188 423.46875 225.386719 418.167969 226.269531 411.351562 C 227.152344 404.535156 227.65625 391.726562 227.78125 372.917969 C 227.78125 354.613281 227.277344 342.558594 226.269531 336.753906 C 225.261719 330.949219 223.183594 326.339844 220.03125 322.933594 Z M 220.03125 322.933594 " fill-opacity="1" fill-rule="nonzero"/></g><path fill="#000000" d="M 268.625 424.605469 C 268.625 421.578125 269.699219 418.925781 271.839844 416.652344 C 273.984375 414.382812 276.695312 413.246094 279.972656 413.246094 C 282.996094 413.246094 285.644531 414.253906 287.914062 416.273438 C 290.183594 418.292969 291.378906 421.007812 291.503906 424.417969 C 291.503906 427.574219 290.433594 430.285156 288.289062 432.558594 C 286.148438 434.832031 283.4375 435.964844 280.160156 435.964844 C 276.882812 435.964844 274.171875 434.894531 272.03125 432.746094 C 269.886719 430.601562 268.75 427.886719 268.625 424.605469 Z M 268.625 424.605469 " fill-opacity="1" fill-rule="nonzero"/><g clip-path="url(#a83df546a1)"><path fill="#000000" d="M 319.679688 357.011719 C 319.679688 357.011719 319.679688 352.152344 319.679688 342.433594 C 319.679688 332.714844 323.082031 324.890625 329.890625 318.957031 C 336.699219 313.023438 344.511719 309.996094 353.335938 309.867188 C 362.289062 309.867188 370.230469 312.519531 377.160156 317.820312 C 384.09375 323.121094 387.5625 330 387.5625 338.457031 C 387.5625 342.246094 386.867188 345.777344 385.480469 349.0625 C 384.09375 352.34375 382.457031 354.992188 380.566406 357.011719 C 378.675781 359.03125 376.722656 360.800781 374.703125 362.316406 C 372.6875 363.828125 371.046875 364.964844 369.789062 365.722656 C 368.527344 366.480469 367.832031 366.984375 367.707031 367.238281 L 370.355469 368.941406 C 372.121094 370.203125 373.882812 371.464844 375.648438 372.726562 C 377.414062 373.988281 378.421875 374.683594 378.675781 374.8125 C 388.128906 382.257812 392.855469 391.660156 392.855469 403.023438 C 392.855469 412.992188 389.199219 421.640625 381.890625 428.960938 C 374.578125 436.28125 365.125 440.003906 353.527344 440.132812 C 342.179688 440.132812 332.851562 436.914062 325.542969 430.476562 C 318.230469 424.039062 314.574219 416.085938 314.574219 406.617188 C 314.574219 392.988281 322.703125 381.625 338.964844 372.539062 L 335.5625 370.078125 C 332.914062 368.4375 331.214844 367.175781 330.457031 366.289062 C 323.273438 360.105469 319.679688 352.152344 319.679688 342.433594 Z M 360.523438 362.882812 L 361.65625 362.125 C 362.414062 361.621094 362.980469 361.242188 363.359375 360.988281 C 363.738281 360.738281 364.367188 360.292969 365.25 359.664062 C 366.132812 359.03125 366.886719 358.402344 367.519531 357.769531 C 368.148438 357.140625 368.84375 356.382812 369.597656 355.5 C 370.355469 354.613281 371.046875 353.792969 371.679688 353.035156 C 372.308594 352.28125 372.9375 351.269531 373.570312 350.007812 C 374.199219 348.746094 374.765625 347.671875 375.269531 346.789062 C 375.777344 345.90625 376.089844 344.644531 376.214844 343.003906 C 376.34375 341.359375 376.46875 339.972656 376.59375 338.835938 C 376.59375 333.410156 374.765625 328.800781 371.109375 325.015625 C 367.457031 321.230469 363.234375 318.832031 358.441406 317.820312 C 357.558594 317.695312 355.480469 317.632812 352.203125 317.632812 C 347.035156 317.632812 342.179688 319.273438 337.644531 322.554688 C 333.105469 325.835938 330.773438 329.9375 330.648438 334.859375 C 330.648438 337.765625 331.464844 340.414062 333.105469 342.8125 C 334.742188 345.210938 336.382812 347.042969 338.019531 348.304688 C 339.660156 349.566406 342.8125 351.585938 347.476562 354.363281 C 348.359375 354.992188 349.050781 355.433594 349.554688 355.6875 Z M 353.714844 431.988281 C 361.027344 431.988281 367.328125 429.84375 372.625 425.550781 C 377.917969 421.261719 380.566406 416.085938 380.566406 410.027344 C 380.566406 407.882812 380.25 405.863281 379.621094 403.96875 C 378.988281 402.074219 378.234375 400.496094 377.351562 399.234375 C 376.46875 397.972656 375.082031 396.585938 373.191406 395.070312 C 371.300781 393.554688 369.851562 392.417969 368.84375 391.660156 C 367.832031 390.902344 366.007812 389.707031 363.359375 388.0625 C 360.710938 386.421875 359.007812 385.351562 358.253906 384.84375 C 356.488281 383.710938 354.597656 382.511719 352.582031 381.25 C 350.5625 379.984375 348.925781 378.914062 347.664062 378.03125 L 346.152344 377.082031 C 345.394531 377.082031 343.566406 378.15625 340.667969 380.300781 C 337.769531 382.445312 334.742188 385.917969 331.59375 390.714844 C 328.441406 395.511719 326.800781 400.6875 326.675781 406.242188 C 326.675781 413.6875 329.386719 419.808594 334.804688 424.605469 C 340.226562 429.402344 346.53125 431.863281 353.714844 431.988281 Z M 353.714844 431.988281 " fill-opacity="1" fill-rule="nonzero"/></g><g clip-path="url(#177859a66d)"><path fill="#000000" d="M 425 348.304688 C 421.597656 348.304688 418.949219 347.230469 417.058594 345.085938 C 415.167969 342.9375 414.160156 340.164062 414.035156 336.753906 C 414.035156 329.8125 417.058594 323.625 423.109375 318.199219 C 429.160156 312.773438 436.472656 310.058594 445.042969 310.058594 C 449.457031 310.058594 452.230469 310.121094 453.363281 310.246094 C 462.691406 311.761719 469.816406 315.105469 474.730469 320.28125 C 479.648438 325.457031 482.167969 331.074219 482.292969 337.132812 C 482.292969 343.695312 480.152344 350.070312 475.867188 356.253906 C 471.578125 362.441406 465.65625 366.921875 458.089844 369.699219 L 457.523438 370.078125 C 457.523438 370.203125 458.089844 370.394531 459.226562 370.644531 C 460.359375 370.898438 462.1875 371.464844 464.710938 372.347656 C 467.230469 373.234375 469.625 374.558594 471.894531 376.324219 C 482.230469 383.015625 487.398438 391.851562 487.398438 402.832031 C 487.398438 412.804688 483.492188 421.511719 475.675781 428.960938 C 467.859375 436.40625 457.964844 440.132812 445.988281 440.132812 C 435.90625 440.132812 427.207031 437.417969 419.894531 431.988281 C 412.585938 426.5625 408.929688 419.683594 408.929688 411.351562 C 408.929688 407.816406 410.0625 404.976562 412.332031 402.832031 C 414.601562 400.6875 417.4375 399.550781 420.839844 399.425781 C 424.371094 399.425781 427.269531 400.558594 429.539062 402.832031 C 431.808594 405.105469 432.941406 407.945312 432.941406 411.351562 C 432.941406 412.742188 432.753906 414.003906 432.375 415.140625 C 431.996094 416.273438 431.554688 417.285156 431.050781 418.167969 C 430.546875 419.050781 429.855469 419.808594 428.972656 420.441406 C 428.089844 421.070312 427.332031 421.578125 426.703125 421.957031 C 426.074219 422.335938 425.441406 422.585938 424.8125 422.710938 C 424.183594 422.839844 423.675781 423.027344 423.300781 423.28125 L 422.542969 423.46875 C 428.972656 429.148438 436.789062 431.988281 445.988281 431.988281 C 452.921875 431.988281 458.15625 428.644531 461.683594 421.957031 C 463.828125 417.789062 464.898438 411.414062 464.898438 402.832031 L 464.898438 399.046875 C 464.898438 387.054688 460.863281 379.039062 452.796875 375 C 450.90625 374.242188 447.0625 373.800781 441.261719 373.675781 L 433.320312 373.484375 L 432.753906 373.105469 C 432.5 372.726562 432.375 371.71875 432.375 370.078125 C 432.375 367.804688 432.878906 366.667969 433.886719 366.667969 C 437.417969 366.667969 441.074219 366.355469 444.855469 365.722656 C 449.140625 365.089844 453.050781 362.441406 456.578125 357.769531 C 460.109375 353.101562 461.875 346.03125 461.875 336.566406 L 461.875 335.050781 C 461.875 327.855469 459.667969 322.871094 455.253906 320.09375 C 452.480469 318.324219 449.519531 317.441406 446.367188 317.441406 C 442.335938 317.441406 438.617188 318.136719 435.210938 319.523438 C 431.808594 320.914062 429.414062 322.363281 428.027344 323.878906 C 426.640625 325.394531 425.945312 326.152344 425.945312 326.152344 L 426.515625 326.152344 C 426.890625 326.277344 427.394531 326.402344 428.027344 326.53125 C 428.65625 326.65625 429.289062 326.972656 429.917969 327.476562 C 430.546875 327.980469 431.304688 328.421875 432.1875 328.800781 C 433.070312 329.179688 433.699219 329.875 434.078125 330.882812 C 434.457031 331.894531 434.960938 332.839844 435.589844 333.726562 C 436.21875 334.609375 436.410156 335.871094 436.15625 337.511719 C 436.15625 340.289062 435.273438 342.75 433.511719 344.894531 C 431.746094 347.042969 428.910156 348.175781 425 348.304688 Z M 425 348.304688 " fill-opacity="1" fill-rule="nonzero"/></g><g clip-path="url(#eccc2e75a1)"><path fill="#000000" d="M 519.546875 348.304688 C 516.140625 348.304688 513.496094 347.230469 511.601562 345.085938 C 509.710938 342.9375 508.703125 340.164062 508.578125 336.753906 C 508.578125 329.8125 511.601562 323.625 517.652344 318.199219 C 523.703125 312.773438 531.015625 310.058594 539.589844 310.058594 C 544 310.058594 546.773438 310.121094 547.910156 310.246094 C 557.238281 311.761719 564.359375 315.105469 569.273438 320.28125 C 574.191406 325.457031 576.710938 331.074219 576.839844 337.132812 C 576.839844 343.695312 574.695312 350.070312 570.410156 356.253906 C 566.125 362.441406 560.199219 366.921875 552.636719 369.699219 L 552.066406 370.078125 C 552.066406 370.203125 552.636719 370.394531 553.769531 370.644531 C 554.90625 370.898438 556.730469 371.464844 559.253906 372.347656 C 561.773438 373.234375 564.167969 374.558594 566.4375 376.324219 C 576.777344 383.015625 581.945312 391.851562 581.945312 402.832031 C 581.945312 412.804688 578.035156 421.511719 570.21875 428.960938 C 562.40625 436.40625 552.507812 440.132812 540.535156 440.132812 C 530.449219 440.132812 521.75 437.417969 514.441406 431.988281 C 507.128906 426.5625 503.472656 419.683594 503.472656 411.351562 C 503.472656 407.816406 504.605469 404.976562 506.875 402.832031 C 509.144531 400.6875 511.980469 399.550781 515.386719 399.425781 C 518.914062 399.425781 521.8125 400.558594 524.082031 402.832031 C 526.351562 405.105469 527.488281 407.945312 527.488281 411.351562 C 527.488281 412.742188 527.296875 414.003906 526.917969 415.140625 C 526.542969 416.273438 526.101562 417.285156 525.597656 418.167969 C 525.089844 419.050781 524.398438 419.808594 523.515625 420.441406 C 522.632812 421.070312 521.878906 421.578125 521.246094 421.957031 C 520.617188 422.335938 519.984375 422.585938 519.355469 422.710938 C 518.726562 422.839844 518.222656 423.027344 517.84375 423.28125 L 517.085938 423.46875 C 523.515625 429.148438 531.332031 431.988281 540.535156 431.988281 C 547.46875 431.988281 552.699219 428.644531 556.226562 421.957031 C 558.371094 417.789062 559.441406 411.414062 559.441406 402.832031 L 559.441406 399.046875 C 559.441406 387.054688 555.410156 379.039062 547.339844 375 C 545.449219 374.242188 541.605469 373.800781 535.804688 373.675781 L 527.863281 373.484375 L 527.296875 373.105469 C 527.046875 372.726562 526.917969 371.71875 526.917969 370.078125 C 526.917969 367.804688 527.421875 366.667969 528.433594 366.667969 C 531.960938 366.667969 535.617188 366.355469 539.398438 365.722656 C 543.683594 365.089844 547.59375 362.441406 551.121094 357.769531 C 554.652344 353.101562 556.417969 346.03125 556.417969 336.566406 L 556.417969 335.050781 C 556.417969 327.855469 554.210938 322.871094 549.800781 320.09375 C 547.027344 318.324219 544.0625 317.441406 540.910156 317.441406 C 536.878906 317.441406 533.160156 318.136719 529.753906 319.523438 C 526.351562 320.914062 523.957031 322.363281 522.570312 323.878906 C 521.183594 325.394531 520.492188 326.152344 520.492188 326.152344 L 521.058594 326.152344 C 521.4375 326.277344 521.941406 326.402344 522.570312 326.53125 C 523.199219 326.65625 523.832031 326.972656 524.460938 327.476562 C 525.089844 327.980469 525.847656 328.421875 526.730469 328.800781 C 527.613281 329.179688 528.242188 329.875 528.621094 330.882812 C 529 331.894531 529.503906 332.839844 530.132812 333.726562 C 530.765625 334.609375 530.953125 335.871094 530.703125 337.511719 C 530.703125 340.289062 529.820312 342.75 528.054688 344.894531 C 526.289062 347.042969 523.453125 348.175781 519.546875 348.304688 Z M 519.546875 348.304688 " fill-opacity="1" fill-rule="nonzero"/></g><path stroke-linecap="butt" transform="matrix(0.75, 0, 0, 0.75, 513.958154, 283.577701)" fill="none" stroke-linejoin="miter" d="M -0.00149647 2.000565 L 78.779757 2.000565 " stroke="#000000" stroke-width="4" stroke-opacity="1" stroke-miterlimit="4"/></svg>