<svg xmlns="http://www.w3.org/2000/svg" xmlns:xlink="http://www.w3.org/1999/xlink" width="1000" zoomAndPan="magnify" viewBox="0 0 750 749.999995" height="1000" preserveAspectRatio="xMidYMid meet" version="1.0"><rect x="-75" width="900" fill="#ffffff" y="-74.999999" height="899.999994" fill-opacity="1"/><rect x="-75" width="900" fill="#ffffff" y="-74.999999" height="899.999994" fill-opacity="1"/><path fill="#000000" d="M 312.550781 169.316406 L 309.679688 170.414062 C 307.617188 171.144531 304.671875 171.878906 300.847656 172.609375 C 297.019531 173.339844 292.75 173.855469 288.039062 174.144531 L 283.84375 174.144531 L 283.84375 164.046875 L 288.039062 164.046875 C 294.957031 163.757812 301.363281 162.660156 307.25 160.757812 C 313.140625 158.855469 317.261719 157.097656 319.617188 155.488281 C 321.972656 153.878906 324.03125 152.269531 325.800781 150.660156 C 326.09375 150.21875 326.976562 150 328.449219 150 C 329.773438 150 331.027344 150.4375 332.203125 151.316406 L 332.203125 216.953125 L 332.425781 282.804688 C 333.453125 283.828125 334.335938 284.488281 335.074219 284.78125 C 335.808594 285.074219 337.578125 285.367188 340.375 285.660156 C 343.171875 285.953125 347.734375 286.097656 354.066406 286.097656 L 359.804688 286.097656 L 359.804688 296.195312 L 357.378906 296.195312 C 354.285156 295.757812 342.582031 295.535156 322.265625 295.535156 C 302.246094 295.535156 290.6875 295.757812 287.597656 296.195312 L 284.945312 296.195312 L 284.945312 286.097656 L 290.6875 286.097656 C 293.925781 286.097656 296.722656 286.097656 299.078125 286.097656 C 301.433594 286.097656 303.273438 286.023438 304.601562 285.878906 C 305.925781 285.730469 307.101562 285.511719 308.132812 285.21875 C 309.164062 284.925781 309.753906 284.78125 309.898438 284.78125 C 310.046875 284.78125 310.488281 284.414062 311.226562 283.683594 C 311.960938 282.953125 312.402344 282.660156 312.550781 282.804688 Z M 312.550781 169.316406 " fill-opacity="1" fill-rule="nonzero"/><path fill="#000000" d="M 391.382812 204.660156 C 391.382812 204.660156 391.382812 199.023438 391.382812 187.757812 C 391.382812 176.488281 395.359375 167.414062 403.308594 160.535156 C 411.257812 153.660156 420.386719 150.144531 430.691406 150 C 441.144531 150 450.417969 153.074219 458.515625 159.21875 C 466.613281 165.367188 470.660156 173.339844 470.660156 183.144531 C 470.660156 187.535156 469.851562 191.632812 468.230469 195.4375 C 466.613281 199.242188 464.699219 202.316406 462.488281 204.660156 C 460.28125 207 458 209.046875 455.644531 210.804688 C 453.289062 212.5625 451.375 213.878906 449.902344 214.757812 C 448.429688 215.632812 447.621094 216.21875 447.472656 216.511719 L 450.566406 218.488281 C 452.625 219.953125 454.6875 221.414062 456.75 222.878906 C 458.808594 224.339844 459.988281 225.144531 460.28125 225.292969 C 471.324219 233.925781 476.84375 244.828125 476.84375 258 C 476.84375 269.5625 472.574219 279.585938 464.035156 288.074219 C 455.496094 296.5625 444.457031 300.878906 430.910156 301.023438 C 417.664062 301.023438 406.769531 297.292969 398.230469 289.828125 C 389.691406 282.367188 385.421875 273.144531 385.421875 262.171875 C 385.421875 246.367188 394.917969 233.195312 413.910156 222.660156 L 409.933594 219.804688 C 406.84375 217.902344 404.855469 216.4375 403.972656 215.414062 C 395.578125 208.242188 391.382812 199.023438 391.382812 187.757812 Z M 439.082031 211.464844 L 440.40625 210.585938 C 441.289062 210 441.953125 209.5625 442.394531 209.269531 C 442.835938 208.976562 443.574219 208.464844 444.601562 207.730469 C 445.632812 207 446.515625 206.269531 447.253906 205.535156 C 447.988281 204.804688 448.796875 203.925781 449.683594 202.902344 C 450.566406 201.878906 451.375 200.925781 452.109375 200.046875 C 452.847656 199.171875 453.582031 198 454.320312 196.535156 C 455.054688 195.074219 455.71875 193.828125 456.304688 192.804688 C 456.894531 191.78125 457.261719 190.316406 457.410156 188.414062 C 457.558594 186.511719 457.703125 184.902344 457.851562 183.585938 C 457.851562 177.292969 455.71875 171.953125 451.449219 167.5625 C 447.179688 163.171875 442.246094 160.390625 436.652344 159.21875 C 435.621094 159.074219 433.195312 159 429.367188 159 C 423.332031 159 417.664062 160.902344 412.363281 164.707031 C 407.0625 168.511719 404.339844 173.269531 404.191406 178.976562 C 404.191406 182.339844 405.148438 185.414062 407.0625 188.195312 C 408.976562 190.976562 410.890625 193.097656 412.804688 194.5625 C 414.71875 196.023438 418.398438 198.367188 423.84375 201.585938 C 424.875 202.316406 425.683594 202.828125 426.273438 203.121094 Z M 431.132812 291.585938 C 439.671875 291.585938 447.03125 289.097656 453.214844 284.121094 C 459.398438 279.144531 462.488281 273.144531 462.488281 266.121094 C 462.488281 263.632812 462.121094 261.292969 461.386719 259.097656 C 460.648438 256.902344 459.765625 255.074219 458.734375 253.609375 C 457.703125 252.144531 456.085938 250.535156 453.878906 248.78125 C 451.667969 247.023438 449.976562 245.707031 448.796875 244.828125 C 447.621094 243.953125 445.484375 242.5625 442.394531 240.660156 C 439.304688 238.757812 437.316406 237.511719 436.433594 236.925781 C 434.371094 235.609375 432.164062 234.21875 429.808594 232.757812 C 427.453125 231.292969 425.539062 230.046875 424.066406 229.023438 L 422.300781 227.925781 C 421.417969 227.925781 419.28125 229.171875 415.894531 231.660156 C 412.507812 234.144531 408.976562 238.171875 405.296875 243.730469 C 401.617188 249.292969 399.703125 255.292969 399.554688 261.730469 C 399.554688 270.367188 402.71875 277.464844 409.050781 283.023438 C 415.378906 288.585938 422.742188 291.4375 431.132812 291.585938 Z M 431.132812 291.585938 " fill-opacity="1" fill-rule="nonzero"/><path fill="#000000" d="M 293.558594 493.535156 C 289.585938 493.535156 286.492188 492.292969 284.285156 489.804688 C 282.074219 487.316406 280.898438 484.097656 280.75 480.144531 C 280.75 472.097656 284.285156 464.925781 291.351562 458.632812 C 298.417969 452.339844 306.957031 449.195312 316.964844 449.195312 C 322.117188 449.195312 325.359375 449.269531 326.683594 449.414062 C 337.578125 451.171875 345.894531 455.046875 351.636719 461.046875 C 357.378906 467.046875 360.320312 473.5625 360.46875 480.585938 C 360.46875 488.195312 357.964844 495.585938 352.960938 502.757812 C 347.957031 509.925781 341.035156 515.121094 332.203125 518.339844 L 331.539062 518.78125 C 331.539062 518.925781 332.203125 519.144531 333.527344 519.4375 C 334.851562 519.730469 336.988281 520.390625 339.933594 521.414062 C 342.875 522.4375 345.671875 523.976562 348.324219 526.023438 C 360.394531 533.78125 366.429688 544.023438 366.429688 556.757812 C 366.429688 568.316406 361.867188 578.414062 352.738281 587.046875 C 343.613281 595.683594 332.054688 600 318.070312 600 C 306.292969 600 296.136719 596.855469 287.597656 590.5625 C 279.058594 584.269531 274.789062 576.292969 274.789062 566.632812 C 274.789062 562.535156 276.113281 559.242188 278.765625 556.757812 C 281.414062 554.269531 284.726562 552.953125 288.699219 552.804688 C 292.824219 552.804688 296.207031 554.121094 298.859375 556.757812 C 301.507812 559.390625 302.832031 562.683594 302.832031 566.632812 C 302.832031 568.242188 302.613281 569.707031 302.171875 571.023438 C 301.730469 572.339844 301.214844 573.511719 300.625 574.535156 C 300.035156 575.5625 299.226562 576.4375 298.195312 577.171875 C 297.164062 577.902344 296.28125 578.488281 295.546875 578.925781 C 294.808594 579.367188 294.074219 579.660156 293.339844 579.804688 C 292.601562 579.953125 292.011719 580.171875 291.570312 580.464844 L 290.6875 580.683594 C 298.195312 587.269531 307.324219 590.5625 318.070312 590.5625 C 326.167969 590.5625 332.277344 586.683594 336.398438 578.925781 C 338.902344 574.097656 340.152344 566.707031 340.152344 556.757812 L 340.152344 552.367188 C 340.152344 538.464844 335.441406 529.171875 326.019531 524.488281 C 323.8125 523.609375 319.320312 523.097656 312.550781 522.953125 L 303.273438 522.730469 L 302.613281 522.292969 C 302.320312 521.855469 302.171875 520.683594 302.171875 518.78125 C 302.171875 516.144531 302.761719 514.828125 303.9375 514.828125 C 308.058594 514.828125 312.328125 514.464844 316.746094 513.730469 C 321.75 513 326.316406 509.925781 330.4375 504.511719 C 334.558594 499.097656 336.621094 490.902344 336.621094 479.925781 L 336.621094 478.171875 C 336.621094 469.828125 334.042969 464.046875 328.890625 460.828125 C 325.652344 458.78125 322.191406 457.757812 318.511719 457.757812 C 313.800781 457.757812 309.457031 458.5625 305.484375 460.171875 C 301.507812 461.78125 298.710938 463.464844 297.09375 465.21875 C 295.472656 466.976562 294.664062 467.855469 294.664062 467.855469 L 295.324219 467.855469 C 295.765625 468 296.355469 468.144531 297.09375 468.292969 C 297.828125 468.4375 298.5625 468.804688 299.300781 469.390625 C 300.035156 469.976562 300.917969 470.488281 301.949219 470.925781 C 302.980469 471.367188 303.71875 472.171875 304.160156 473.339844 C 304.601562 474.511719 305.1875 475.609375 305.925781 476.632812 C 306.660156 477.660156 306.882812 479.121094 306.585938 481.023438 C 306.585938 484.242188 305.558594 487.097656 303.496094 489.585938 C 301.433594 492.074219 298.121094 493.390625 293.558594 493.535156 Z M 293.558594 493.535156 " fill-opacity="1" fill-rule="nonzero"/><path fill="#000000" d="M 397.125 466.757812 C 405.371094 454.902344 416.632812 448.976562 430.910156 448.976562 C 437.976562 448.976562 445.042969 450.878906 452.109375 454.683594 C 459.175781 458.488281 464.917969 465.21875 469.335938 474.878906 C 474.78125 487.023438 477.503906 503.707031 477.503906 524.925781 C 477.503906 547.609375 474.339844 564.953125 468.011719 576.953125 C 465.066406 583.097656 461.015625 588 455.863281 591.660156 C 450.710938 595.316406 446.222656 597.585938 442.394531 598.464844 C 438.566406 599.339844 434.8125 599.855469 431.132812 600 C 427.304688 600 423.476562 599.5625 419.648438 598.683594 C 415.820312 597.804688 411.332031 595.464844 406.179688 591.660156 C 401.027344 587.855469 396.976562 582.953125 394.035156 576.953125 C 387.703125 564.953125 384.539062 547.609375 384.539062 524.925781 C 384.539062 499.464844 388.734375 480.074219 397.125 466.757812 Z M 446.8125 464.121094 C 442.394531 459.4375 437.167969 457.097656 431.132812 457.097656 C 424.949219 457.097656 419.648438 459.4375 415.234375 464.121094 C 411.554688 467.925781 409.125 473.195312 407.945312 479.925781 C 406.769531 486.660156 406.179688 500.707031 406.179688 522.074219 C 406.179688 545.195312 406.769531 560.414062 407.945312 567.730469 C 409.125 575.046875 411.773438 580.828125 415.894531 585.074219 C 420.019531 589.464844 425.097656 591.660156 431.132812 591.660156 C 437.019531 591.660156 442.027344 589.464844 446.148438 585.074219 C 450.417969 580.683594 453.066406 574.535156 454.097656 566.632812 C 455.128906 558.730469 455.71875 543.878906 455.863281 522.074219 C 455.863281 500.855469 455.277344 486.878906 454.097656 480.144531 C 452.921875 473.414062 450.492188 468.074219 446.8125 464.121094 Z M 446.8125 464.121094 " fill-opacity="1" fill-rule="nonzero"/><path fill="#000000" d="M 243.433594 396.292969 L 508.421875 396.292969 L 508.421875 383.121094 L 243.433594 383.121094 Z M 243.433594 396.292969 " fill-opacity="1" fill-rule="nonzero"/></svg>