<svg xmlns="http://www.w3.org/2000/svg" xmlns:xlink="http://www.w3.org/1999/xlink" width="1000" zoomAndPan="magnify" viewBox="0 0 750 749.999995" height="1000" preserveAspectRatio="xMidYMid meet" version="1.0"><rect x="-75" width="900" fill="#ffffff" y="-74.999999" height="899.999994" fill-opacity="1"/><rect x="-75" width="900" fill="#ffffff" y="-74.999999" height="899.999994" fill-opacity="1"/><path fill="#fefefe" d="M 145.226562 430.351562 C 145.226562 430.351562 140.984375 361.683594 140.984375 361.683594 C 139.582031 338.96875 162.675781 247.214844 221.078125 195.035156 C 275.148438 146.734375 364.511719 136.914062 371.632812 137.1875 C 555.296875 144.3125 610.105469 298.9375 610.824219 374.84375 C 611.566406 453.335938 572.332031 507.152344 493.757812 574.738281 C 360.195312 637.429688 262.796875 577.304688 262.796875 577.304688 C 204.941406 541.589844 378.046875 373.320312 378.046875 373.320312 Z M 145.226562 430.351562 " fill-opacity="1" fill-rule="nonzero"/><path fill="#6d5764" d="M 378.828125 370.402344 C 427.703125 458.925781 462.441406 524.242188 494.589844 570.941406 C 506.492188 588.230469 615.84375 471.253906 609.179688 369.492188 C 608.125 353.386719 588.722656 222.066406 491.339844 169.25 C 475.113281 160.445312 362.269531 112.5625 263.121094 167.789062 C 221.125 191.183594 134.144531 268.253906 139.148438 376.324219 C 145.472656 512.832031 266.03125 577.863281 266.03125 577.863281 Z M 378.828125 370.402344 " fill-opacity="1" fill-rule="nonzero"/><path fill="#000000" d="M 608.269531 374.769531 L 144.3125 377.28125 C 141.796875 377.292969 139.746094 375.265625 139.734375 372.75 C 139.71875 370.234375 141.746094 368.183594 144.261719 368.171875 L 608.21875 365.660156 C 610.734375 365.644531 612.785156 367.671875 612.800781 370.1875 C 612.8125 372.703125 610.785156 374.753906 608.269531 374.769531 Z M 608.269531 374.769531 " fill-opacity="1" fill-rule="nonzero"/><path fill="#000000" d="M 497.78125 171.59375 L 269.820312 579.464844 C 268.589844 581.660156 265.816406 582.445312 263.621094 581.21875 C 261.425781 579.992188 260.640625 577.214844 261.867188 575.019531 L 489.828125 167.148438 C 491.058594 164.953125 493.832031 164.167969 496.027344 165.394531 C 498.222656 166.621094 499.007812 169.394531 497.78125 171.59375 Z M 497.78125 171.59375 " fill-opacity="1" fill-rule="nonzero"/><path fill="#000000" d="M 489.621094 574.488281 L 258.132812 167.488281 C 256.890625 165.304688 257.652344 162.523438 259.839844 161.277344 C 262.027344 160.035156 264.808594 160.800781 266.050781 162.984375 L 497.539062 569.984375 C 498.78125 572.171875 498.015625 574.953125 495.832031 576.195312 C 493.644531 577.441406 490.863281 576.675781 489.621094 574.488281 Z M 489.621094 574.488281 " fill-opacity="1" fill-rule="nonzero"/><path fill="#000000" d="M 135.265625 371.074219 C 135.265625 238.78125 242.507812 131.539062 374.800781 131.539062 C 507.09375 131.539062 614.335938 238.78125 614.335938 371.074219 C 614.335938 503.363281 507.09375 610.609375 374.800781 610.609375 C 242.507812 610.609375 135.265625 503.363281 135.265625 371.074219 M 145.835938 371.074219 C 145.835938 497.527344 248.347656 600.035156 374.800781 600.035156 C 501.253906 600.035156 603.765625 497.527344 603.765625 371.074219 C 603.765625 244.621094 501.253906 142.109375 374.800781 142.109375 C 248.347656 142.109375 145.835938 244.621094 145.835938 371.074219 Z M 145.835938 371.074219 " fill-opacity="1" fill-rule="nonzero"/><path fill="#6d5764" d="M 244.320312 505.925781 C 244.253906 505.683594 244.222656 505.472656 244.222656 505.296875 C 244.15625 503.679688 244.15625 502.074219 244.222656 500.476562 C 244.265625 499.324219 244.898438 498.695312 246.117188 498.582031 C 246.558594 498.539062 247.234375 498.515625 248.144531 498.515625 L 252.332031 498.515625 C 253.683594 498.515625 254.835938 498.503906 255.789062 498.484375 C 256.519531 498.460938 257.019531 498.339844 257.285156 498.117188 C 257.550781 497.875 257.75 497.375 257.882812 496.621094 C 258.039062 495.648438 258.058594 494.769531 257.949219 493.996094 C 257.75 494.019531 257.515625 494.050781 257.25 494.09375 C 257.273438 494.671875 257.230469 495.269531 257.117188 495.890625 C 256.964844 496.734375 256.71875 497.296875 256.386719 497.585938 C 256.054688 497.894531 255.46875 498.0625 254.625 498.085938 C 254.667969 498.085938 252.265625 498.09375 247.410156 498.117188 C 246.191406 498.117188 245.394531 498.140625 245.019531 498.183594 C 244.023438 498.273438 243.5 498.769531 243.457031 499.679688 C 243.390625 501.273438 243.390625 502.882812 243.457031 504.5 C 243.480469 505.230469 243.765625 505.707031 244.316406 505.925781 Z M 255.191406 485.121094 C 256.078125 485.121094 256.695312 484.753906 257.050781 484.023438 C 257.207031 483.714844 257.40625 483.226562 257.648438 482.5625 C 257.78125 482.25 257.882812 482.007812 257.949219 481.828125 C 258.324219 480.875 258.980469 480.390625 259.910156 480.367188 C 260.707031 480.34375 261.429688 480.332031 262.070312 480.332031 C 262.800781 480.332031 263.542969 480.355469 264.296875 480.398438 C 264.054688 480.15625 263.722656 480.023438 263.300781 480 C 262.597656 479.960938 261.773438 479.941406 260.828125 479.941406 C 260.199219 479.941406 259.515625 479.949219 258.78125 479.96875 C 258.003906 479.992188 257.460938 480.390625 257.152344 481.164062 C 256.597656 482.605469 256.308594 483.347656 256.289062 483.390625 C 255.933594 484.125 255.367188 484.554688 254.59375 484.6875 L 254.625 484.6875 L 254.625 484.722656 C 254.691406 484.832031 254.78125 484.964844 254.890625 485.121094 Z M 258.714844 471.457031 C 258.648438 471.257812 258.589844 470.992188 258.546875 470.660156 C 258.480469 470.328125 258.425781 470.097656 258.382812 469.964844 C 258.335938 469.828125 258.28125 469.675781 258.214844 469.496094 C 258.015625 469.34375 257.828125 469.21875 257.648438 469.132812 C 258.027344 470.460938 258.269531 471.171875 258.382812 471.257812 C 258.492188 471.347656 258.601562 471.414062 258.710938 471.457031 Z M 259.070312 508.039062 C 261.746094 508.039062 263.542969 508.035156 264.464844 508.023438 C 265.660156 508.023438 266.414062 507.867188 266.722656 507.558594 C 267.035156 507.226562 267.191406 506.4375 267.191406 505.199219 C 267.210938 504.6875 267.222656 501.296875 267.222656 495.027344 C 267.222656 489.417969 267.222656 486.21875 267.222656 485.417969 C 267.222656 484.488281 267.191406 483.78125 267.125 483.292969 C 267.011719 482.40625 266.546875 481.941406 265.726562 481.894531 C 264.945312 481.867188 264.011719 481.851562 262.933594 481.851562 C 262.394531 481.851562 261.820312 481.855469 261.207031 481.863281 C 260.429688 481.886719 259.898438 482.296875 259.609375 483.09375 C 259.035156 484.511719 258.734375 485.253906 258.714844 485.320312 C 258.269531 486.207031 257.511719 486.652344 256.441406 486.652344 C 256.390625 486.652344 256.339844 486.652344 256.289062 486.648438 C 255.269531 486.582031 254.480469 486.074219 253.925781 485.121094 C 253.527344 484.433594 253.328125 483.570312 253.328125 482.527344 C 253.304688 479.25 253.304688 475.957031 253.328125 472.65625 C 253.328125 472.191406 253.363281 471.746094 253.429688 471.324219 C 253.605469 470.4375 253.992188 469.695312 254.59375 469.097656 C 255.167969 468.5 255.832031 468.179688 256.585938 468.136719 C 256.671875 468.128906 256.753906 468.125 256.835938 468.125 C 257.476562 468.125 258.078125 468.347656 258.648438 468.800781 C 259.289062 469.332031 259.753906 470.039062 260.042969 470.925781 C 260.554688 472.410156 260.808594 473.152344 260.808594 473.152344 C 261.09375 473.382812 261.441406 473.496094 261.859375 473.496094 C 261.925781 473.496094 262 473.492188 262.070312 473.488281 C 263.050781 473.359375 263.5 473.292969 263.414062 473.289062 C 263.609375 473.292969 263.800781 473.292969 263.984375 473.292969 C 264.746094 473.292969 265.4375 473.257812 266.058594 473.1875 C 266.878906 473.121094 267.445312 472.921875 267.753906 472.589844 C 268.066406 472.234375 268.21875 471.636719 268.21875 470.792969 C 268.21875 469.554688 267.976562 468.335938 267.488281 467.136719 C 266.027344 463.527344 263.6875 461.242188 260.476562 460.289062 C 259.28125 459.9375 258.097656 459.761719 256.929688 459.761719 C 255.296875 459.761719 253.6875 460.105469 252.097656 460.789062 C 250.945312 461.277344 249.917969 461.964844 249.007812 462.847656 C 246.59375 465.199219 245.363281 468.066406 245.316406 471.457031 C 245.25 474.515625 245.25 478.25 245.316406 482.660156 C 245.339844 484.789062 245.714844 486.792969 246.449219 488.675781 C 247.578125 491.625 249.726562 493.253906 252.898438 493.5625 C 253.339844 493.601562 253.773438 493.617188 254.195312 493.617188 C 255.042969 493.617188 255.851562 493.546875 256.621094 493.398438 C 257.304688 493.265625 257.75 493.199219 257.949219 493.199219 C 257.992188 493.195312 258.035156 493.195312 258.078125 493.195312 C 258.84375 493.195312 259.320312 493.582031 259.511719 494.359375 C 259.753906 495.335938 259.765625 496.476562 259.542969 497.785156 C 259.390625 498.628906 259.144531 499.203125 258.8125 499.511719 C 258.480469 499.800781 257.894531 499.957031 257.050781 499.980469 C 257.097656 499.980469 254.691406 500 249.839844 500.046875 C 248.640625 500.046875 247.84375 500.054688 247.445312 500.078125 C 246.449219 500.167969 245.925781 500.664062 245.882812 501.574219 C 245.816406 503.191406 245.816406 504.796875 245.882812 506.394531 C 245.925781 507.324219 246.414062 507.855469 247.34375 507.988281 C 247.632812 508.011719 247.988281 508.023438 248.410156 508.023438 C 252.839844 508.035156 256.394531 508.039062 259.070312 508.039062 Z M 245.742188 489.53125 C 245.347656 488.957031 245.027344 488.351562 244.785156 487.714844 C 244.03125 485.785156 243.644531 483.734375 243.621094 481.5625 C 243.578125 477.152344 243.578125 473.410156 243.621094 470.328125 C 243.6875 466.847656 244.964844 463.890625 247.445312 461.453125 C 248.375 460.546875 249.449219 459.824219 250.667969 459.292969 C 252.289062 458.605469 253.949219 458.261719 255.65625 458.261719 C 256.714844 458.261719 257.800781 458.417969 258.90625 458.726562 C 258.511719 458.550781 258.226562 458.441406 258.050781 458.394531 C 256.832031 458.039062 255.632812 457.863281 254.445312 457.863281 C 252.824219 457.863281 251.234375 458.195312 249.671875 458.859375 C 248.496094 459.371094 247.46875 460.058594 246.582031 460.921875 C 244.164062 463.292969 242.925781 466.164062 242.859375 469.53125 C 242.8125 472.609375 242.8125 476.355469 242.859375 480.765625 C 242.878906 482.871094 243.269531 484.875 244.023438 486.78125 C 244.441406 487.863281 245.011719 488.777344 245.738281 489.53125 Z M 245.714844 434.695312 C 244.296875 432.722656 243.65625 430.519531 243.789062 428.082031 C 243.878906 426.683594 244.609375 425.953125 245.984375 425.886719 C 246.46875 425.863281 247.035156 425.851562 247.679688 425.851562 L 250.402344 425.851562 C 250.054688 425.585938 249.578125 425.453125 248.980469 425.453125 C 248.9375 425.453125 248.890625 425.453125 248.839844 425.453125 L 246.847656 425.453125 C 246.574219 425.445312 246.316406 425.441406 246.078125 425.441406 C 245.601562 425.441406 245.191406 425.457031 244.851562 425.488281 C 244.210938 425.511719 243.753906 425.664062 243.488281 425.953125 C 243.222656 426.21875 243.078125 426.660156 243.058594 427.28125 C 242.902344 430.074219 243.753906 432.523438 245.617188 434.628906 C 245.640625 434.628906 245.648438 434.640625 245.648438 434.660156 C 245.671875 434.683594 245.691406 434.695312 245.714844 434.695312 Z M 255.097656 430.574219 C 255.714844 430.570312 256.265625 430.328125 256.753906 429.84375 C 257.21875 429.398438 257.539062 428.855469 257.714844 428.214844 C 258.160156 426.617188 258.25 424.722656 257.980469 422.527344 C 257.847656 422.550781 257.792969 422.5625 257.816406 422.5625 C 257.75 422.5625 257.671875 422.574219 257.582031 422.59375 C 257.449219 422.59375 257.371094 422.605469 257.351562 422.628906 C 257.507812 424.445312 257.371094 426.074219 256.953125 427.515625 C 256.753906 428.246094 256.398438 428.855469 255.886719 429.34375 C 255.554688 429.652344 255.179688 429.875 254.757812 430.007812 C 254.757812 430.03125 254.769531 430.0625 254.792969 430.109375 C 254.792969 430.152344 254.800781 430.175781 254.824219 430.175781 C 254.867188 430.285156 254.945312 430.40625 255.058594 430.539062 C 255.144531 430.5625 255.15625 430.574219 255.09375 430.574219 Z M 255.355469 413.886719 L 255.421875 413.621094 C 256.441406 413.578125 257.128906 413.089844 257.484375 412.160156 C 257.640625 411.714844 257.75 411.304688 257.816406 410.929688 C 258.214844 408.667969 258.257812 405.796875 257.949219 402.320312 C 257.90625 401.921875 257.804688 401.542969 257.648438 401.1875 C 257.472656 401.035156 257.273438 400.921875 257.050781 400.855469 C 257.140625 401.144531 257.183594 401.355469 257.183594 401.488281 C 257.496094 404.988281 257.449219 407.890625 257.050781 410.195312 C 256.984375 410.617188 256.875 411.050781 256.71875 411.492188 C 256.363281 412.402344 255.722656 412.945312 254.792969 413.121094 C 254.824219 413.1875 254.839844 413.222656 254.835938 413.226562 L 254.832031 413.226562 C 254.832031 413.226562 254.828125 413.226562 254.828125 413.226562 C 254.871094 413.3125 254.949219 413.433594 255.058594 413.585938 C 255.324219 413.609375 255.410156 413.621094 255.324219 413.621094 L 255.324219 413.855469 C 255.324219 413.855469 255.335938 413.863281 255.355469 413.886719 Z M 256.613281 415.117188 C 255.453125 415.117188 254.625 414.597656 254.125 413.554688 C 253.707031 412.710938 253.484375 411.769531 253.460938 410.730469 C 253.460938 410.574219 253.460938 409.511719 253.460938 407.539062 C 253.460938 405.253906 253.460938 404.015625 253.460938 403.816406 C 253.507812 402.550781 253.960938 401.53125 254.824219 400.757812 C 255.378906 400.242188 255.96875 399.988281 256.601562 399.988281 C 256.652344 399.988281 256.703125 399.988281 256.753906 399.992188 C 257.417969 400.035156 258.027344 400.359375 258.582031 400.957031 C 259.179688 401.621094 259.523438 402.429688 259.609375 403.382812 C 259.921875 406.882812 259.878906 409.789062 259.476562 412.09375 C 259.410156 412.511719 259.300781 412.945312 259.144531 413.386719 C 258.726562 414.496094 257.90625 415.074219 256.6875 415.117188 C 256.660156 415.117188 256.636719 415.117188 256.613281 415.117188 Z M 256.253906 440.148438 C 259.511719 440.148438 262.214844 439.050781 264.363281 436.855469 C 266.269531 434.882812 267.234375 432.480469 267.257812 429.644531 C 267.257812 428.824219 267.257812 424.300781 267.257812 416.082031 C 267.257812 407.882812 267.257812 403.273438 267.257812 402.253906 C 267.234375 399.238281 266.160156 396.703125 264.03125 394.640625 C 262.035156 392.683594 259.449219 391.707031 256.273438 391.707031 C 256.101562 391.707031 255.929688 391.710938 255.753906 391.714844 C 252.898438 391.804688 250.492188 392.800781 248.542969 394.707031 C 246.59375 396.613281 245.574219 398.996094 245.484375 401.855469 C 245.441406 402.984375 245.429688 406.707031 245.449219 413.023438 C 245.472656 414.730469 245.972656 416.402344 246.945312 418.042969 C 248.496094 420.613281 250.667969 421.929688 253.460938 421.996094 C 253.738281 422.003906 254.015625 422.007812 254.285156 422.007812 C 255.5 422.007812 256.632812 421.929688 257.683594 421.765625 C 257.839844 421.738281 257.988281 421.726562 258.128906 421.726562 C 258.960938 421.726562 259.445312 422.183594 259.578125 423.09375 C 259.953125 425.507812 259.886719 427.613281 259.378906 429.410156 C 259.179688 430.140625 258.824219 430.75 258.316406 431.238281 C 257.722656 431.792969 257.085938 432.070312 256.402344 432.070312 C 256.265625 432.070312 256.128906 432.058594 255.988281 432.035156 C 255.167969 431.902344 254.535156 431.40625 254.09375 430.539062 C 253.871094 430.074219 253.707031 429.574219 253.59375 429.042969 C 253.339844 427.914062 252.609375 427.347656 251.40625 427.347656 C 251.359375 427.347656 251.316406 427.347656 251.269531 427.347656 L 249.273438 427.347656 C 248.453125 427.347656 247.789062 427.359375 247.277344 427.382812 C 246.636719 427.40625 246.183594 427.558594 245.917969 427.847656 C 245.648438 428.113281 245.507812 428.558594 245.484375 429.175781 C 245.328125 431.96875 246.183594 434.417969 248.042969 436.523438 C 250.171875 438.9375 252.90625 440.148438 256.253906 440.148438 Z M 245.773438 417.796875 C 245.558594 417.492188 245.417969 417.277344 245.351562 417.144531 C 244.308594 415.460938 243.789062 413.71875 243.789062 411.925781 C 243.789062 411.4375 243.777344 410.464844 243.753906 409 C 243.734375 405.34375 243.753906 402.585938 243.820312 400.722656 C 243.910156 397.777344 244.964844 395.316406 246.980469 393.34375 C 248.996094 391.351562 251.5 390.308594 254.492188 390.21875 L 255.058594 390.21875 C 256.207031 390.21875 257.289062 390.339844 258.308594 390.582031 C 257 390.066406 255.53125 389.808594 253.898438 389.808594 C 253.710938 389.808594 253.519531 389.8125 253.328125 389.820312 C 250.46875 389.910156 248.078125 390.90625 246.148438 392.8125 C 244.175781 394.71875 243.144531 397.101562 243.058594 399.960938 C 243.011719 401.046875 243.011719 404.757812 243.058594 411.09375 C 243.058594 412.824219 243.546875 414.507812 244.519531 416.148438 C 244.894531 416.761719 245.308594 417.3125 245.769531 417.796875 Z M 245.773438 417.796875 " fill-opacity="1" fill-rule="nonzero"/><path fill="#6d5764" d="M 280.8125 454.277344 C 281.941406 454.234375 282.59375 453.957031 282.777344 453.4375 C 282.484375 453.527344 282.066406 453.582031 281.527344 453.601562 C 281.367188 453.601562 281.121094 453.601562 280.78125 453.597656 L 267.429688 453.542969 C 249.832031 453.46875 236.636719 453.414062 227.847656 453.378906 C 226.15625 453.371094 225.121094 453.175781 224.738281 452.789062 C 224.359375 452.382812 224.171875 451.3125 224.179688 449.578125 L 224.179688 449.238281 C 224.183594 448.496094 224.207031 447.863281 224.253906 447.34375 C 224.050781 447.546875 223.925781 447.839844 223.878906 448.222656 C 223.832031 448.761719 223.804688 449.5625 223.800781 450.621094 C 223.792969 452.246094 223.949219 453.214844 224.261719 453.53125 C 224.578125 453.871094 225.523438 454.042969 227.101562 454.050781 C 232.125 454.070312 249.714844 454.144531 279.867188 454.273438 C 280.363281 454.273438 280.679688 454.273438 280.8125 454.277344 Z M 282.511719 452.121094 C 283.414062 452.078125 283.988281 451.933594 284.238281 451.6875 C 284.511719 451.441406 284.671875 450.890625 284.71875 450.03125 C 284.71875 449.808594 284.722656 449.253906 284.726562 448.375 C 284.734375 446.707031 284.601562 445.726562 284.332031 445.433594 C 284.039062 445.140625 283.082031 444.988281 281.460938 444.980469 L 229.199219 444.761719 C 229.101562 444.761719 229.003906 444.761719 228.910156 444.761719 C 227.992188 444.761719 227.289062 444.78125 226.800781 444.820312 C 226.078125 444.90625 225.683594 445.324219 225.613281 446.066406 C 225.542969 446.605469 225.503906 447.394531 225.5 448.433594 C 225.515625 450.054688 225.679688 451.035156 225.996094 451.375 C 226.308594 451.714844 227.253906 451.886719 228.832031 451.894531 C 234.691406 451.917969 252.269531 451.992188 281.566406 452.117188 C 282.0625 452.117188 282.378906 452.117188 282.511719 452.121094 Z M 282.511719 452.121094 " fill-opacity="1" fill-rule="nonzero"/></svg>