<svg xmlns="http://www.w3.org/2000/svg" xmlns:xlink="http://www.w3.org/1999/xlink" width="1000" zoomAndPan="magnify" viewBox="0 0 750 749.999995" height="1000" preserveAspectRatio="xMidYMid meet" version="1.0"><defs><clipPath id="cc0ca96f53"><path d="M 392 300 L 637.5 300 L 637.5 584 L 392 584 Z M 392 300 " clip-rule="nonzero"/></clipPath><clipPath id="8db1f1e614"><path d="M 381 112.5 L 623 112.5 L 623 363 L 381 363 Z M 381 112.5 " clip-rule="nonzero"/></clipPath><clipPath id="8cf092013c"><path d="M 226 393 L 525 393 L 525 637.5 L 226 637.5 Z M 226 393 " clip-rule="nonzero"/></clipPath><clipPath id="8a94afe70d"><path d="M 127 112.5 L 369 112.5 L 369 363 L 127 363 Z M 127 112.5 " clip-rule="nonzero"/></clipPath><clipPath id="fb57936dc6"><path d="M 112.5 300 L 358 300 L 358 584 L 112.5 584 Z M 112.5 300 " clip-rule="nonzero"/></clipPath></defs><rect x="-75" width="900" fill="#ffffff" y="-74.999999" height="899.999994" fill-opacity="1"/><rect x="-75" width="900" fill="#ffffff" y="-74.999999" height="899.999994" fill-opacity="1"/><g clip-path="url(#cc0ca96f53)"><path fill="#a6a6a6" d="M 626.824219 300.140625 C 633.910156 323.917969 637.6875 349.082031 637.6875 375.125 C 637.6875 460.128906 597.28125 535.710938 534.640625 583.675781 L 394.496094 390.777344 C 390.117188 384.730469 392.886719 376.164062 400.007812 373.835938 Z M 626.824219 300.140625 " fill-opacity="1" fill-rule="nonzero"/></g><g clip-path="url(#8db1f1e614)"><path fill="#cf4a49" d="M 622.855469 287.855469 L 396.007812 361.519531 C 388.890625 363.820312 381.613281 358.527344 381.613281 351.066406 L 381.613281 112.65625 C 493.195312 115.335938 587.550781 187.707031 622.855469 287.855469 Z M 622.855469 287.855469 " fill-opacity="1" fill-rule="nonzero"/></g><g clip-path="url(#8cf092013c)"><path fill="#a6a6a6" d="M 384.039062 398.367188 L 524.1875 591.265625 C 481.828125 620.523438 430.492188 637.65625 375.15625 637.65625 C 319.824219 637.65625 268.457031 620.523438 226.097656 591.234375 L 366.246094 398.335938 C 370.652344 392.289062 379.660156 392.289062 384.039062 398.335938 Z M 384.039062 398.367188 " fill-opacity="1" fill-rule="nonzero"/></g><g clip-path="url(#8a94afe70d)"><path fill="#cf4a49" d="M 368.703125 112.65625 L 368.703125 351.066406 C 368.703125 358.558594 361.425781 363.851562 354.308594 361.519531 L 127.460938 287.855469 C 162.734375 187.675781 257.054688 115.335938 368.703125 112.65625 Z M 368.703125 112.65625 " fill-opacity="1" fill-rule="nonzero"/></g><g clip-path="url(#fb57936dc6)"><path fill="#cf4a49" d="M 350.277344 373.835938 C 357.394531 376.164062 360.167969 384.730469 355.789062 390.777344 L 215.671875 583.675781 C 153 535.710938 112.625 460.128906 112.625 375.125 C 112.625 349.082031 116.4375 323.917969 123.492188 300.140625 Z M 350.277344 373.835938 " fill-opacity="1" fill-rule="nonzero"/></g></svg>