<svg xmlns="http://www.w3.org/2000/svg" xmlns:xlink="http://www.w3.org/1999/xlink" width="1000" zoomAndPan="magnify" viewBox="0 0 750 749.999995" height="1000" preserveAspectRatio="xMidYMid meet" version="1.0"><defs><clipPath id="eebb5cba7a"><path d="M 409 277.5 L 584 277.5 L 584 472.5 L 409 472.5 Z M 409 277.5 " clip-rule="nonzero"/></clipPath></defs><rect x="-75" width="900" fill="#ffffff" y="-74.999999" height="899.999994" fill-opacity="1"/><rect x="-75" width="900" fill="#ffffff" y="-74.999999" height="899.999994" fill-opacity="1"/><path fill="#000000" d="M 163.4375 383.226562 C 163.4375 356.933594 169.976562 336.128906 183.054688 320.804688 C 196.132812 305.484375 210.664062 297.824219 226.648438 297.824219 C 237.789062 297.824219 245.777344 300.726562 250.621094 306.53125 C 255.464844 312.339844 257.886719 318.789062 257.886719 325.886719 C 257.886719 329.917969 256.757812 333.144531 254.496094 335.566406 C 252.238281 337.984375 249.089844 339.195312 245.050781 339.195312 C 241.339844 339.195312 238.273438 338.066406 235.851562 335.804688 C 233.429688 333.546875 232.21875 330.402344 232.21875 326.371094 C 232.21875 319.273438 236.011719 315 243.597656 313.546875 C 240.046875 310 235.042969 307.984375 228.585938 307.5 C 217.121094 307.5 207.675781 312.339844 200.25 322.015625 C 192.660156 332.660156 188.867188 348.953125 188.867188 370.886719 L 189.109375 371.855469 C 189.914062 370.886719 190.5625 369.839844 191.046875 368.710938 C 197.664062 359.03125 206.304688 354.195312 216.960938 354.195312 L 217.929688 354.195312 C 225.355469 354.195312 231.894531 355.726562 237.546875 358.789062 C 241.417969 361.046875 245.292969 364.273438 249.167969 368.46875 C 253.042969 372.660156 256.191406 377.257812 258.613281 382.257812 C 262.003906 390.160156 263.699219 398.789062 263.699219 408.144531 L 263.699219 412.5 C 263.699219 416.210938 263.296875 419.675781 262.488281 422.902344 C 260.714844 432.417969 255.546875 441.695312 246.988281 450.726562 C 238.433594 459.757812 227.617188 464.273438 214.539062 464.273438 C 210.015625 464.273438 205.65625 463.628906 201.460938 462.339844 C 197.261719 461.046875 192.742188 458.628906 187.898438 455.082031 C 183.054688 451.53125 178.9375 446.773438 175.546875 440.804688 C 172.15625 434.839844 169.25 427.015625 166.828125 417.339844 C 164.40625 407.660156 163.277344 396.289062 163.4375 383.226562 Z M 215.507812 362.902344 C 210.664062 362.902344 206.464844 364.273438 202.914062 367.015625 C 199.359375 369.757812 196.617188 373.386719 194.679688 377.902344 C 192.742188 382.417969 191.367188 387.015625 190.5625 391.695312 C 189.753906 396.371094 189.269531 401.371094 189.109375 406.695312 C 189.109375 420.082031 190.078125 429.675781 192.015625 435.484375 C 193.953125 441.289062 197.019531 445.96875 201.21875 449.515625 C 205.09375 452.417969 209.371094 453.871094 214.054688 453.871094 C 222.289062 453.871094 228.585938 450.804688 232.945312 444.675781 C 235.042969 441.773438 236.496094 438.144531 237.304688 433.789062 C 238.109375 429.433594 238.515625 420.96875 238.515625 408.386719 C 238.515625 395.484375 238.109375 386.855469 237.304688 382.5 C 236.496094 378.144531 235.042969 374.515625 232.945312 371.613281 C 228.585938 365.804688 222.773438 362.902344 215.507812 362.902344 Z M 215.507812 362.902344 " fill-opacity="1" fill-rule="nonzero"/><path fill="#000000" d="M 297.605469 317.417969 C 306.648438 304.355469 319 297.824219 334.660156 297.824219 C 342.410156 297.824219 350.160156 299.917969 357.910156 304.113281 C 365.660156 308.304688 371.957031 315.726562 376.800781 326.371094 C 382.773438 339.757812 385.761719 358.144531 385.761719 381.53125 C 385.761719 406.53125 382.289062 425.644531 375.347656 438.871094 C 372.117188 445.644531 367.675781 451.046875 362.027344 455.082031 C 356.375 459.113281 351.449219 461.613281 347.253906 462.582031 C 343.054688 463.546875 338.9375 464.113281 334.902344 464.273438 C 330.703125 464.273438 326.507812 463.789062 322.308594 462.824219 C 318.109375 461.855469 313.1875 459.273438 307.535156 455.082031 C 301.882812 450.886719 297.445312 445.484375 294.214844 438.871094 C 287.273438 425.644531 283.800781 406.53125 283.800781 381.53125 C 283.800781 353.46875 288.402344 332.097656 297.605469 317.417969 Z M 352.097656 314.515625 C 347.253906 309.355469 341.519531 306.773438 334.902344 306.773438 C 328.121094 306.773438 322.308594 309.355469 317.464844 314.515625 C 313.429688 318.710938 310.765625 324.515625 309.472656 331.933594 C 308.179688 339.355469 307.535156 354.839844 307.535156 378.386719 C 307.535156 403.871094 308.179688 420.644531 309.472656 428.710938 C 310.765625 436.773438 313.671875 443.144531 318.191406 447.824219 C 322.710938 452.660156 328.28125 455.082031 334.902344 455.082031 C 341.359375 455.082031 346.847656 452.660156 351.371094 447.824219 C 356.050781 442.984375 358.957031 436.210938 360.089844 427.5 C 361.21875 418.789062 361.863281 402.417969 362.027344 378.386719 C 362.027344 355 361.378906 339.597656 360.089844 332.175781 C 358.796875 324.757812 356.132812 318.871094 352.097656 314.515625 Z M 352.097656 314.515625 " fill-opacity="1" fill-rule="nonzero"/><g clip-path="url(#eebb5cba7a)"><path fill="#000000" d="M 508.0625 312.582031 C 502.085938 312.582031 496.355469 311.855469 490.867188 310.402344 C 485.378906 308.953125 481.019531 307.5 477.789062 306.046875 C 474.558594 304.597656 472.863281 303.871094 472.703125 303.871094 C 474.800781 309.195312 475.851562 316.695312 475.851562 326.371094 C 475.851562 340.886719 472.703125 352.582031 466.40625 361.453125 C 460.109375 370.324219 452.761719 374.839844 444.367188 375 C 435.164062 375 427.011719 370.566406 419.90625 361.695312 C 412.804688 352.824219 409.171875 341.046875 409.007812 326.371094 C 409.007812 312.015625 412.640625 300.324219 419.90625 291.289062 C 427.171875 282.257812 435.328125 277.660156 444.367188 277.5 C 450.664062 277.5 456.316406 280 461.320312 285 C 475.367188 297.417969 490.867188 303.628906 507.820312 303.628906 C 526.546875 303.628906 541.5625 296.371094 552.863281 281.855469 C 554.800781 279.273438 556.253906 277.902344 557.222656 277.742188 C 557.546875 277.582031 557.949219 277.5 558.433594 277.5 C 559.886719 277.5 561.097656 278.066406 562.066406 279.195312 C 563.035156 280.324219 563.441406 281.695312 563.277344 283.304688 C 480.128906 407.984375 437.910156 470.726562 436.617188 471.53125 C 435.972656 472.175781 435.164062 472.5 434.195312 472.5 C 432.097656 472.5 430.644531 471.613281 429.835938 469.839844 C 429.03125 468.386719 429.03125 466.933594 429.835938 465.484375 C 430 465 447.839844 438.304688 483.359375 385.402344 C 500.472656 359.917969 513.550781 340.402344 522.59375 326.855469 C 531.632812 313.304688 536.15625 306.53125 536.15625 306.53125 C 527.597656 310.566406 518.234375 312.582031 508.0625 312.582031 Z M 445.578125 365.804688 C 450.097656 365.804688 454.621094 362.417969 459.140625 355.644531 C 463.660156 348.871094 466.003906 339.113281 466.164062 326.371094 C 466.164062 315.242188 464.144531 305.886719 460.109375 298.304688 C 456.074219 290.726562 450.664062 286.855469 443.882812 286.695312 C 442.753906 286.695312 441.621094 286.933594 440.492188 287.417969 C 439.363281 287.902344 437.828125 288.789062 435.890625 290.082031 C 433.953125 291.371094 432.339844 293.789062 431.046875 297.339844 C 429.757812 300.886719 428.707031 305.160156 427.898438 310.160156 C 427.578125 313.386719 427.414062 318.789062 427.414062 326.371094 L 427.414062 331.453125 C 427.414062 346.128906 430.078125 356.128906 435.40625 361.453125 C 438.3125 364.355469 441.378906 365.804688 444.609375 365.804688 Z M 516.539062 423.628906 C 516.539062 409.433594 520.089844 397.824219 527.195312 388.789062 C 534.296875 379.757812 542.613281 375.160156 552.136719 375 C 560.535156 375 567.800781 379.433594 573.933594 388.304688 C 580.070312 397.175781 583.21875 408.953125 583.378906 423.628906 C 583.542969 438.304688 580.394531 450.082031 573.933594 458.953125 C 567.476562 467.824219 560.128906 472.339844 551.894531 472.5 C 542.855469 472.5 534.703125 467.984375 527.4375 458.953125 C 520.171875 449.917969 516.539062 438.144531 516.539062 423.628906 Z M 553.105469 463.304688 C 557.628906 463.304688 562.148438 459.917969 566.667969 453.144531 C 571.191406 446.371094 573.53125 436.53125 573.691406 423.628906 C 573.691406 412.5 571.675781 403.144531 567.636719 395.566406 C 563.601562 387.984375 558.191406 384.195312 551.410156 384.195312 C 550.28125 384.195312 549.152344 384.433594 548.019531 384.917969 C 546.890625 385.402344 545.355469 386.289062 543.417969 387.582031 C 541.480469 388.871094 539.867188 391.289062 538.578125 394.839844 C 537.285156 398.386719 536.234375 402.660156 535.429688 407.660156 C 535.265625 409.597656 535.1875 414.917969 535.1875 423.628906 L 535.1875 428.953125 C 535.1875 451.855469 540.835938 463.304688 552.136719 463.304688 Z M 553.105469 463.304688 " fill-opacity="1" fill-rule="nonzero"/></g></svg>