<svg xmlns="http://www.w3.org/2000/svg" xmlns:xlink="http://www.w3.org/1999/xlink" width="1000" zoomAndPan="magnify" viewBox="0 0 750 749.999995" height="1000" preserveAspectRatio="xMidYMid meet" version="1.0"><defs><clipPath id="6f27fd2d1e"><path d="M 118 348 L 163 348 L 163 425.480469 L 118 425.480469 Z M 118 348 " clip-rule="nonzero"/></clipPath><clipPath id="d317159fc6"><path d="M 172 348 L 220 348 L 220 425.480469 L 172 425.480469 Z M 172 348 " clip-rule="nonzero"/></clipPath><clipPath id="4f6255ba7d"><path d="M 230 347 L 279 347 L 279 425.480469 L 230 425.480469 Z M 230 347 " clip-rule="nonzero"/></clipPath><clipPath id="7a21fc8b32"><path d="M 476 348 L 523 348 L 523 425.480469 L 476 425.480469 Z M 476 348 " clip-rule="nonzero"/></clipPath><clipPath id="a7266e5226"><path d="M 595 324.519531 L 629 324.519531 L 629 379 L 595 379 Z M 595 324.519531 " clip-rule="nonzero"/></clipPath></defs><rect x="-75" width="900" fill="#ffffff" y="-74.999999" height="899.999994" fill-opacity="1"/><rect x="-75" width="900" fill="#ffffff" y="-74.999999" height="899.999994" fill-opacity="1"/><g clip-path="url(#6f27fd2d1e)"><path fill="#000000" d="M 130.867188 405.53125 C 130.867188 407.316406 130.269531 408.800781 129.082031 409.988281 C 127.894531 411.179688 126.445312 411.773438 124.734375 411.773438 L 123.957031 411.773438 C 127.375 417.640625 131.90625 420.578125 137.550781 420.578125 C 142.753906 420.578125 146.542969 418.347656 148.921875 413.890625 C 150.332031 411.4375 151.039062 406.683594 151.039062 399.625 C 151.039062 391.972656 150.035156 386.808594 148.027344 384.132812 C 146.097656 381.679688 143.941406 380.457031 141.566406 380.457031 L 140.894531 380.457031 C 135.101562 380.457031 130.71875 382.980469 127.746094 388.035156 C 127.449219 388.554688 127.1875 388.851562 126.964844 388.925781 C 126.742188 389 126.183594 389.074219 125.292969 389.148438 C 124.03125 389.148438 123.324219 388.925781 123.175781 388.480469 C 123.027344 388.183594 122.953125 381.679688 122.953125 368.976562 L 122.953125 354.597656 C 122.953125 350.882812 123.136719 349.027344 123.511719 349.027344 C 123.660156 348.878906 123.808594 348.804688 123.957031 348.804688 C 124.03125 348.804688 124.808594 349.101562 126.296875 349.695312 C 127.78125 350.289062 129.824219 350.882812 132.425781 351.480469 C 135.027344 352.074219 137.8125 352.371094 140.785156 352.371094 C 146.058594 352.371094 151.113281 351.332031 155.941406 349.25 C 156.535156 348.953125 157.019531 348.804688 157.390625 348.804688 C 157.984375 348.804688 158.28125 349.472656 158.28125 350.808594 L 158.28125 352.257812 C 152.191406 359.464844 144.574219 363.070312 135.433594 363.070312 C 133.132812 363.070312 131.050781 362.847656 129.195312 362.402344 L 128.078125 362.179688 L 128.078125 381.347656 C 129.492188 380.308594 130.605469 379.488281 131.421875 378.894531 C 132.238281 378.300781 133.578125 377.707031 135.433594 377.113281 C 137.292969 376.515625 139.1875 376.21875 141.117188 376.21875 C 147.136719 376.21875 152.226562 378.636719 156.386719 383.464844 C 160.546875 388.292969 162.628906 394.015625 162.628906 400.628906 C 162.628906 407.464844 160.25 413.296875 155.496094 418.125 C 150.742188 422.953125 144.945312 425.40625 138.109375 425.480469 C 132.089844 425.480469 127.261719 423.476562 123.621094 419.460938 C 119.980469 415.449219 118.160156 410.917969 118.160156 405.867188 C 118.160156 404.082031 118.570312 402.671875 119.386719 401.628906 C 120.203125 400.589844 121.058594 399.921875 121.949219 399.625 C 122.839844 399.328125 123.695312 399.179688 124.511719 399.179688 C 126.371094 399.179688 127.894531 399.808594 129.082031 401.074219 C 130.269531 402.335938 130.867188 403.824219 130.867188 405.53125 Z M 130.867188 405.53125 " fill-opacity="1" fill-rule="nonzero"/></g><g clip-path="url(#d317159fc6)"><path fill="#000000" d="M 172.992188 388.144531 C 172.992188 376.035156 176.003906 366.449219 182.019531 359.390625 C 188.039062 352.332031 194.726562 348.804688 202.082031 348.804688 C 207.207031 348.804688 210.886719 350.140625 213.113281 352.816406 C 215.34375 355.492188 216.457031 358.460938 216.457031 361.730469 C 216.457031 363.589844 215.9375 365.074219 214.898438 366.191406 C 213.859375 367.304688 212.410156 367.863281 210.550781 367.863281 C 208.84375 367.863281 207.429688 367.339844 206.316406 366.300781 C 205.203125 365.261719 204.644531 363.8125 204.644531 361.953125 C 204.644531 358.6875 206.390625 356.71875 209.882812 356.046875 C 208.25 354.414062 205.945312 353.484375 202.972656 353.261719 C 197.699219 353.261719 193.351562 355.492188 189.933594 359.949219 C 186.441406 364.851562 184.695312 372.355469 184.695312 382.460938 L 184.808594 382.90625 C 185.179688 382.460938 185.476562 381.980469 185.699219 381.457031 C 188.746094 377 192.71875 374.773438 197.625 374.773438 L 198.070312 374.773438 C 201.488281 374.773438 204.496094 375.476562 207.097656 376.890625 C 208.878906 377.929688 210.664062 379.414062 212.445312 381.347656 C 214.230469 383.277344 215.679688 385.394531 216.792969 387.699219 C 218.351562 391.339844 219.132812 395.316406 219.132812 399.625 L 219.132812 401.628906 C 219.132812 403.339844 218.949219 404.9375 218.574219 406.421875 C 217.757812 410.808594 215.382812 415.078125 211.441406 419.238281 C 207.503906 423.402344 202.527344 425.480469 196.507812 425.480469 C 194.429688 425.480469 192.421875 425.183594 190.492188 424.589844 C 188.558594 423.996094 186.480469 422.878906 184.25 421.246094 C 182.019531 419.609375 180.125 417.417969 178.566406 414.671875 C 177.003906 411.921875 175.667969 408.316406 174.554688 403.859375 C 173.4375 399.402344 172.917969 394.164062 172.992188 388.144531 Z M 196.953125 378.785156 C 194.726562 378.785156 192.792969 379.414062 191.160156 380.679688 C 189.523438 381.941406 188.261719 383.613281 187.371094 385.695312 C 186.480469 387.773438 185.847656 389.890625 185.476562 392.046875 C 185.105469 394.199219 184.882812 396.503906 184.808594 398.957031 C 184.808594 405.121094 185.253906 409.542969 186.144531 412.21875 C 187.035156 414.894531 188.449219 417.046875 190.378906 418.683594 C 192.164062 420.019531 194.132812 420.6875 196.285156 420.6875 C 200.074219 420.6875 202.972656 419.277344 204.980469 416.453125 C 205.945312 415.117188 206.613281 413.445312 206.984375 411.4375 C 207.355469 409.433594 207.542969 405.53125 207.542969 399.734375 C 207.542969 393.792969 207.355469 389.816406 206.984375 387.8125 C 206.613281 385.804688 205.945312 384.132812 204.980469 382.796875 C 202.972656 380.121094 200.296875 378.785156 196.953125 378.785156 Z M 196.953125 378.785156 " fill-opacity="1" fill-rule="nonzero"/></g><g clip-path="url(#4f6255ba7d)"><path fill="#000000" d="M 230.167969 371.984375 C 230.242188 371.835938 230.871094 367.789062 232.0625 359.835938 L 233.84375 347.914062 C 233.84375 347.765625 234.585938 347.691406 236.074219 347.691406 L 238.300781 347.691406 L 238.300781 348.136719 C 238.300781 348.878906 238.859375 349.511719 239.972656 350.03125 C 241.089844 350.550781 243.019531 350.882812 245.769531 351.03125 C 248.519531 351.179688 254.796875 351.253906 264.605469 351.253906 L 278.089844 351.253906 L 278.089844 355.601562 L 270.511719 365.96875 C 269.84375 366.859375 268.726562 368.34375 267.167969 370.425781 C 265.605469 372.503906 264.605469 373.878906 264.160156 374.546875 C 263.710938 375.21875 262.933594 376.40625 261.816406 378.113281 C 260.703125 379.824219 259.960938 381.160156 259.589844 382.128906 C 259.21875 383.09375 258.699219 384.46875 258.027344 386.25 C 257.359375 388.035156 256.878906 389.742188 256.578125 391.378906 C 256.28125 393.011719 255.984375 395.019531 255.6875 397.394531 C 255.390625 399.773438 255.167969 402.300781 255.019531 404.972656 C 254.871094 407.648438 254.757812 410.695312 254.683594 414.113281 C 254.683594 415.152344 254.683594 416.195312 254.683594 417.234375 C 254.683594 418.273438 254.648438 419.164062 254.574219 419.910156 L 254.574219 420.910156 C 254.277344 422.175781 253.570312 423.25 252.457031 424.144531 C 251.34375 425.035156 250.078125 425.480469 248.667969 425.480469 C 247.851562 425.480469 247.070312 425.371094 246.328125 425.144531 C 245.582031 424.921875 244.804688 424.21875 243.984375 423.027344 C 243.167969 421.839844 242.761719 420.355469 242.761719 418.570312 C 242.761719 406.832031 246.363281 394.648438 253.570312 382.015625 C 255.058594 379.636719 258.175781 375.144531 262.933594 368.53125 L 268.058594 361.507812 L 257.695312 361.507812 C 244.765625 361.507812 237.96875 361.730469 237.300781 362.179688 C 236.855469 362.402344 236.445312 363.292969 236.074219 364.851562 C 235.703125 366.414062 235.332031 368.011719 234.957031 369.644531 L 234.625 371.984375 L 234.625 372.320312 L 230.167969 372.320312 Z M 230.167969 371.984375 " fill-opacity="1" fill-rule="nonzero"/></g><path fill="#000000" d="M 374.738281 419.796875 C 374.738281 421.28125 373.957031 422.027344 372.398438 422.027344 C 372.027344 422.027344 371.207031 421.429688 369.945312 420.242188 C 368.683594 419.054688 365.191406 415.597656 359.46875 409.878906 L 347.878906 398.289062 L 336.175781 409.988281 C 328.300781 417.714844 324.25 421.65625 324.027344 421.804688 C 323.730469 421.953125 323.472656 422.027344 323.25 422.027344 C 322.65625 422.027344 322.132812 421.804688 321.6875 421.355469 C 321.242188 420.910156 320.984375 420.390625 320.910156 419.796875 C 320.910156 419.277344 321.429688 418.460938 322.46875 417.34375 C 323.507812 416.230469 327 412.703125 332.945312 406.757812 L 344.535156 395.167969 L 332.945312 383.574219 C 326.925781 377.558594 323.433594 374.027344 322.46875 372.988281 C 321.503906 371.949219 320.984375 371.132812 320.910156 370.535156 C 320.910156 369.867188 321.132812 369.347656 321.578125 368.976562 C 322.023438 368.605469 322.578125 368.417969 323.25 368.417969 C 323.621094 368.417969 323.878906 368.457031 324.027344 368.53125 C 324.25 368.679688 328.300781 372.617188 336.175781 380.34375 L 347.878906 392.046875 L 359.46875 380.457031 C 365.191406 374.734375 368.683594 371.28125 369.945312 370.089844 C 371.207031 368.902344 372.027344 368.308594 372.398438 368.308594 C 373.957031 368.308594 374.738281 369.050781 374.738281 370.535156 C 374.738281 371.054688 374.367188 371.726562 373.625 372.542969 C 372.878906 373.359375 369.238281 377 362.703125 383.464844 L 351.109375 395.167969 L 362.703125 406.867188 C 368.941406 413.109375 372.507812 416.714844 373.402344 417.679688 C 374.292969 418.644531 374.738281 419.351562 374.738281 419.796875 Z M 374.738281 419.796875 " fill-opacity="1" fill-rule="nonzero"/><path fill="#000000" d="M 439.734375 358.613281 L 438.285156 359.167969 C 437.246094 359.539062 435.761719 359.910156 433.828125 360.28125 C 431.898438 360.65625 429.742188 360.914062 427.363281 361.0625 L 425.246094 361.0625 L 425.246094 355.9375 L 427.363281 355.9375 C 430.855469 355.789062 434.089844 355.230469 437.058594 354.265625 C 440.03125 353.300781 442.113281 352.40625 443.300781 351.589844 C 444.488281 350.773438 445.53125 349.957031 446.421875 349.136719 C 446.570312 348.914062 447.015625 348.804688 447.757812 348.804688 C 448.429688 348.804688 449.058594 349.027344 449.652344 349.472656 L 449.652344 382.796875 L 449.765625 416.230469 C 450.285156 416.75 450.730469 417.085938 451.101562 417.234375 C 451.472656 417.382812 452.367188 417.53125 453.777344 417.679688 C 455.1875 417.828125 457.492188 417.902344 460.6875 417.902344 L 463.585938 417.902344 L 463.585938 423.027344 L 462.359375 423.027344 C 460.800781 422.804688 454.890625 422.695312 444.640625 422.695312 C 434.535156 422.695312 428.703125 422.804688 427.140625 423.027344 L 425.804688 423.027344 L 425.804688 417.902344 L 428.703125 417.902344 C 430.335938 417.902344 431.746094 417.902344 432.9375 417.902344 C 434.125 417.902344 435.054688 417.863281 435.722656 417.789062 C 436.390625 417.714844 436.984375 417.605469 437.507812 417.457031 C 438.027344 417.308594 438.324219 417.234375 438.398438 417.234375 C 438.472656 417.234375 438.695312 417.046875 439.066406 416.675781 C 439.4375 416.304688 439.660156 416.15625 439.734375 416.230469 Z M 439.734375 358.613281 " fill-opacity="1" fill-rule="nonzero"/><g clip-path="url(#7a21fc8b32)"><path fill="#000000" d="M 482.421875 357.832031 C 486.582031 351.8125 492.265625 348.804688 499.472656 348.804688 C 503.039062 348.804688 506.605469 349.769531 510.171875 351.703125 C 513.738281 353.632812 516.636719 357.050781 518.863281 361.953125 C 521.613281 368.121094 522.988281 376.59375 522.988281 387.367188 C 522.988281 398.882812 521.390625 407.6875 518.195312 413.777344 C 516.710938 416.898438 514.664062 419.386719 512.066406 421.246094 C 509.464844 423.101562 507.199219 424.253906 505.265625 424.699219 C 503.335938 425.144531 501.441406 425.40625 499.582031 425.480469 C 497.652344 425.480469 495.71875 425.257812 493.789062 424.8125 C 491.855469 424.367188 489.589844 423.175781 486.988281 421.246094 C 484.390625 419.3125 482.34375 416.824219 480.859375 413.777344 C 477.664062 407.6875 476.066406 398.882812 476.066406 387.367188 C 476.066406 374.4375 478.183594 364.59375 482.421875 357.832031 Z M 507.496094 356.492188 C 505.265625 354.117188 502.628906 352.925781 499.582031 352.925781 C 496.460938 352.925781 493.789062 354.117188 491.558594 356.492188 C 489.703125 358.425781 488.476562 361.101562 487.882812 364.519531 C 487.285156 367.9375 486.988281 375.070312 486.988281 385.917969 C 486.988281 397.65625 487.285156 405.382812 487.882812 409.097656 C 488.476562 412.8125 489.8125 415.746094 491.894531 417.902344 C 493.972656 420.132812 496.535156 421.246094 499.582031 421.246094 C 502.554688 421.246094 505.082031 420.132812 507.160156 417.902344 C 509.316406 415.671875 510.652344 412.550781 511.171875 408.539062 C 511.695312 404.527344 511.992188 396.988281 512.066406 385.917969 C 512.066406 375.144531 511.769531 368.046875 511.171875 364.628906 C 510.578125 361.210938 509.351562 358.5 507.496094 356.492188 Z M 507.496094 356.492188 " fill-opacity="1" fill-rule="nonzero"/></g><path fill="#000000" d="M 537.742188 358.328125 C 537.742188 358.328125 537.742188 357.984375 537.742188 357.300781 C 537.742188 356.617188 538.109375 356.09375 538.84375 355.726562 L 584.625 355.726562 C 585.414062 356.144531 585.804688 356.671875 585.804688 357.300781 C 585.804688 357.933594 585.414062 358.457031 584.625 358.878906 L 538.84375 358.878906 C 538.109375 358.511719 537.742188 357.984375 537.742188 357.300781 Z M 537.742188 358.328125 " fill-opacity="1" fill-rule="nonzero"/><g clip-path="url(#a7266e5226)"><path fill="#000000" d="M 597.941406 344.144531 C 597.941406 344.144531 597.941406 342.121094 597.941406 338.074219 C 597.941406 334.03125 599.359375 330.773438 602.195312 328.304688 C 605.03125 325.835938 608.289062 324.574219 611.964844 324.523438 C 615.695312 324.523438 619.003906 325.625 621.894531 327.832031 C 624.785156 330.039062 626.226562 332.902344 626.226562 336.421875 C 626.226562 337.996094 625.9375 339.46875 625.359375 340.832031 C 624.785156 342.199219 624.101562 343.304688 623.3125 344.144531 C 622.523438 344.984375 621.710938 345.71875 620.871094 346.347656 C 620.03125 346.980469 619.347656 347.453125 618.820312 347.769531 C 618.296875 348.082031 618.007812 348.292969 617.953125 348.398438 L 619.058594 349.105469 C 619.792969 349.632812 620.527344 350.15625 621.265625 350.683594 C 622 351.207031 622.417969 351.496094 622.523438 351.550781 C 626.464844 354.648438 628.433594 358.5625 628.433594 363.289062 C 628.433594 367.441406 626.910156 371.039062 623.863281 374.085938 C 620.816406 377.132812 616.878906 378.679688 612.042969 378.734375 C 607.316406 378.734375 603.429688 377.394531 600.382812 374.714844 C 597.335938 372.035156 595.8125 368.726562 595.8125 364.789062 C 595.8125 359.113281 599.203125 354.386719 605.976562 350.605469 L 604.558594 349.578125 C 603.457031 348.898438 602.746094 348.371094 602.433594 348.003906 C 599.4375 345.429688 597.941406 342.121094 597.941406 338.074219 Z M 614.960938 346.585938 L 615.433594 346.269531 C 615.75 346.0625 615.984375 345.902344 616.140625 345.796875 C 616.300781 345.691406 616.5625 345.507812 616.929688 345.246094 C 617.296875 344.984375 617.613281 344.722656 617.875 344.457031 C 618.136719 344.195312 618.425781 343.878906 618.742188 343.511719 C 619.058594 343.144531 619.347656 342.804688 619.609375 342.488281 C 619.871094 342.171875 620.132812 341.753906 620.398438 341.226562 C 620.660156 340.703125 620.894531 340.257812 621.105469 339.886719 C 621.316406 339.519531 621.449219 338.996094 621.5 338.3125 C 621.554688 337.628906 621.605469 337.050781 621.65625 336.578125 C 621.65625 334.320312 620.894531 332.402344 619.371094 330.828125 C 617.847656 329.25 616.089844 328.253906 614.09375 327.832031 C 613.726562 327.78125 612.859375 327.753906 611.492188 327.753906 C 609.339844 327.753906 607.316406 328.4375 605.425781 329.800781 C 603.535156 331.167969 602.5625 332.875 602.511719 334.925781 C 602.511719 336.132812 602.851562 337.234375 603.535156 338.234375 C 604.21875 339.230469 604.902344 339.992188 605.582031 340.519531 C 606.265625 341.042969 607.578125 341.882812 609.523438 343.039062 C 609.890625 343.304688 610.179688 343.488281 610.390625 343.589844 Z M 612.125 375.347656 C 615.171875 375.347656 617.796875 374.453125 620.003906 372.667969 C 622.210938 370.878906 623.3125 368.726562 623.3125 366.207031 C 623.3125 365.3125 623.179688 364.472656 622.917969 363.683594 C 622.65625 362.894531 622.339844 362.238281 621.972656 361.714844 C 621.605469 361.1875 621.027344 360.609375 620.238281 359.980469 C 619.453125 359.351562 618.847656 358.878906 618.425781 358.5625 C 618.007812 358.246094 617.246094 357.75 616.140625 357.066406 C 615.039062 356.382812 614.328125 355.9375 614.015625 355.726562 C 613.28125 355.253906 612.492188 354.753906 611.652344 354.230469 C 610.808594 353.703125 610.128906 353.257812 609.601562 352.890625 L 608.972656 352.496094 C 608.65625 352.496094 607.894531 352.941406 606.6875 353.835938 C 605.480469 354.726562 604.21875 356.171875 602.90625 358.167969 C 601.589844 360.164062 600.910156 362.320312 600.855469 364.628906 C 600.855469 367.730469 601.984375 370.277344 604.246094 372.273438 C 606.503906 374.269531 609.128906 375.292969 612.125 375.347656 Z M 612.125 375.347656 " fill-opacity="1" fill-rule="nonzero"/></g></svg>