<svg xmlns="http://www.w3.org/2000/svg" xmlns:xlink="http://www.w3.org/1999/xlink" width="1000" zoomAndPan="magnify" viewBox="0 0 750 749.999995" height="1000" preserveAspectRatio="xMidYMid meet" version="1.0"><defs><clipPath id="f555405cf7"><path d="M 119 350 L 161 350 L 161 422.441406 L 119 422.441406 Z M 119 350 " clip-rule="nonzero"/></clipPath><clipPath id="4ed48bd645"><path d="M 199 350 L 243 350 L 243 422.441406 L 199 422.441406 Z M 199 350 " clip-rule="nonzero"/></clipPath><clipPath id="5004ec113f"><path d="M 253 349 L 299 349 L 299 422.441406 L 253 422.441406 Z M 253 349 " clip-rule="nonzero"/></clipPath><clipPath id="b354514f07"><path d="M 484 350 L 529 350 L 529 422.441406 L 484 422.441406 Z M 484 350 " clip-rule="nonzero"/></clipPath><clipPath id="3bc50d1b3a"><path d="M 596 327.558594 L 628 327.558594 L 628 379 L 596 379 Z M 596 327.558594 " clip-rule="nonzero"/></clipPath></defs><rect x="-75" width="900" fill="#ffffff" y="-74.999999" height="899.999994" fill-opacity="1"/><rect x="-75" width="900" fill="#ffffff" y="-74.999999" height="899.999994" fill-opacity="1"/><g clip-path="url(#f555405cf7)"><path fill="#000000" d="M 131 403.691406 C 131 405.367188 130.441406 406.765625 129.324219 407.882812 C 128.210938 409 126.847656 409.558594 125.242188 409.558594 L 124.511719 409.558594 C 127.722656 415.074219 131.976562 417.832031 137.28125 417.832031 C 142.167969 417.832031 145.726562 415.738281 147.957031 411.546875 C 149.285156 409.242188 149.945312 404.773438 149.945312 398.140625 C 149.945312 390.949219 149.003906 386.097656 147.121094 383.582031 C 145.304688 381.277344 143.28125 380.125 141.050781 380.125 L 140.421875 380.125 C 134.976562 380.125 130.863281 382.5 128.070312 387.25 C 127.789062 387.738281 127.546875 388.015625 127.335938 388.085938 C 127.128906 388.15625 126.605469 388.226562 125.765625 388.296875 C 124.582031 388.296875 123.917969 388.085938 123.777344 387.667969 C 123.640625 387.386719 123.570312 381.277344 123.570312 369.339844 L 123.570312 355.828125 C 123.570312 352.335938 123.742188 350.589844 124.09375 350.589844 C 124.230469 350.453125 124.371094 350.382812 124.511719 350.382812 C 124.582031 350.382812 125.3125 350.660156 126.710938 351.21875 C 128.105469 351.777344 130.023438 352.335938 132.464844 352.894531 C 134.910156 353.453125 137.527344 353.734375 140.316406 353.734375 C 145.269531 353.734375 150.015625 352.757812 154.550781 350.800781 C 155.109375 350.523438 155.5625 350.382812 155.914062 350.382812 C 156.472656 350.382812 156.75 351.011719 156.75 352.265625 L 156.75 353.628906 C 151.027344 360.402344 143.875 363.789062 135.292969 363.789062 C 133.128906 363.789062 131.175781 363.578125 129.429688 363.160156 L 128.382812 362.949219 L 128.382812 380.964844 C 129.710938 379.988281 130.757812 379.21875 131.523438 378.660156 C 132.292969 378.101562 133.546875 377.542969 135.292969 376.984375 C 137.035156 376.425781 138.816406 376.148438 140.628906 376.148438 C 146.28125 376.148438 151.0625 378.417969 154.972656 382.953125 C 158.878906 387.492188 160.832031 392.871094 160.832031 399.082031 C 160.832031 405.507812 158.601562 410.988281 154.132812 415.527344 C 149.667969 420.066406 144.222656 422.371094 137.804688 422.441406 C 132.152344 422.441406 127.617188 420.554688 124.195312 416.785156 C 120.777344 413.011719 119.066406 408.753906 119.066406 404.007812 C 119.066406 402.332031 119.453125 401.003906 120.21875 400.027344 C 120.988281 399.050781 121.789062 398.421875 122.628906 398.140625 C 123.464844 397.863281 124.265625 397.722656 125.035156 397.722656 C 126.777344 397.722656 128.210938 398.316406 129.324219 399.503906 C 130.441406 400.691406 131 402.085938 131 403.691406 Z M 131 403.691406 " fill-opacity="1" fill-rule="nonzero"/></g><path fill="#000000" d="M 174.335938 413.851562 C 174.335938 412.175781 174.929688 410.710938 176.113281 409.453125 C 177.300781 408.195312 178.800781 407.566406 180.617188 407.566406 C 182.289062 407.566406 183.757812 408.125 185.011719 409.242188 C 186.269531 410.359375 186.929688 411.863281 187 413.746094 C 187 415.492188 186.40625 416.992188 185.222656 418.25 C 184.035156 419.507812 182.535156 420.136719 180.71875 420.136719 C 178.90625 420.136719 177.40625 419.542969 176.21875 418.355469 C 175.035156 417.167969 174.40625 415.667969 174.335938 413.851562 Z M 174.335938 413.851562 " fill-opacity="1" fill-rule="nonzero"/><g clip-path="url(#4ed48bd645)"><path fill="#000000" d="M 199.667969 387.351562 C 199.667969 375.972656 202.492188 366.964844 208.144531 360.332031 C 213.796875 353.699219 220.078125 350.382812 226.984375 350.382812 C 231.800781 350.382812 235.253906 351.640625 237.347656 354.152344 C 239.441406 356.667969 240.488281 359.460938 240.488281 362.53125 C 240.488281 364.277344 240 365.671875 239.023438 366.71875 C 238.046875 367.769531 236.6875 368.292969 234.941406 368.292969 C 233.335938 368.292969 232.011719 367.804688 230.964844 366.824219 C 229.917969 365.847656 229.394531 364.488281 229.394531 362.742188 C 229.394531 359.667969 231.035156 357.816406 234.3125 357.191406 C 232.777344 355.652344 230.613281 354.78125 227.824219 354.570312 C 222.867188 354.570312 218.785156 356.667969 215.578125 360.855469 C 212.296875 365.464844 210.65625 372.515625 210.65625 382.011719 L 210.761719 382.429688 C 211.109375 382.011719 211.390625 381.558594 211.597656 381.070312 C 214.460938 376.878906 218.195312 374.785156 222.800781 374.785156 L 223.21875 374.785156 C 226.429688 374.785156 229.253906 375.449219 231.695312 376.773438 C 233.371094 377.753906 235.046875 379.148438 236.71875 380.964844 C 238.394531 382.78125 239.757812 384.769531 240.804688 386.933594 C 242.269531 390.355469 243 394.089844 243 398.140625 L 243 400.027344 C 243 401.632812 242.828125 403.132812 242.476562 404.53125 C 241.710938 408.648438 239.476562 412.664062 235.777344 416.574219 C 232.082031 420.484375 227.40625 422.441406 221.753906 422.441406 C 219.796875 422.441406 217.914062 422.160156 216.101562 421.601562 C 214.285156 421.042969 212.332031 419.996094 210.238281 418.460938 C 208.144531 416.921875 206.367188 414.863281 204.898438 412.28125 C 203.433594 409.695312 202.179688 406.308594 201.132812 402.121094 C 200.085938 397.933594 199.597656 393.007812 199.667969 387.351562 Z M 222.171875 378.554688 C 220.078125 378.554688 218.261719 379.148438 216.726562 380.335938 C 215.191406 381.523438 214.007812 383.09375 213.167969 385.050781 C 212.332031 387.003906 211.738281 388.996094 211.390625 391.019531 C 211.039062 393.042969 210.832031 395.207031 210.761719 397.511719 C 210.761719 403.308594 211.179688 407.460938 212.019531 409.976562 C 212.855469 412.488281 214.179688 414.515625 215.996094 416.050781 C 217.671875 417.308594 219.519531 417.9375 221.542969 417.9375 C 225.101562 417.9375 227.824219 416.609375 229.707031 413.957031 C 230.613281 412.699219 231.242188 411.128906 231.589844 409.242188 C 231.941406 407.359375 232.113281 403.691406 232.113281 398.246094 C 232.113281 392.660156 231.941406 388.925781 231.589844 387.039062 C 231.242188 385.152344 230.613281 383.582031 229.707031 382.328125 C 227.824219 379.8125 225.3125 378.554688 222.171875 378.554688 Z M 222.171875 378.554688 " fill-opacity="1" fill-rule="nonzero"/></g><g clip-path="url(#5004ec113f)"><path fill="#000000" d="M 253.363281 372.167969 C 253.433594 372.027344 254.027344 368.222656 255.144531 360.75 L 256.816406 349.542969 C 256.816406 349.40625 257.515625 349.335938 258.910156 349.335938 L 261.003906 349.335938 L 261.003906 349.753906 C 261.003906 350.453125 261.527344 351.046875 262.574219 351.535156 C 263.621094 352.023438 265.4375 352.335938 268.019531 352.476562 C 270.601562 352.617188 276.496094 352.6875 285.707031 352.6875 L 298.371094 352.6875 L 298.371094 356.769531 L 291.253906 366.511719 C 290.628906 367.347656 289.582031 368.746094 288.113281 370.699219 C 286.648438 372.65625 285.707031 373.949219 285.289062 374.574219 C 284.871094 375.203125 284.136719 376.320312 283.089844 377.925781 C 282.042969 379.535156 281.347656 380.789062 280.996094 381.699219 C 280.648438 382.605469 280.160156 383.898438 279.53125 385.574219 C 278.902344 387.25 278.449219 388.855469 278.171875 390.390625 C 277.890625 391.925781 277.613281 393.8125 277.332031 396.046875 C 277.054688 398.28125 276.84375 400.65625 276.707031 403.167969 C 276.566406 405.683594 276.460938 408.542969 276.390625 411.757812 C 276.390625 412.734375 276.390625 413.710938 276.390625 414.6875 C 276.390625 415.667969 276.355469 416.503906 276.285156 417.203125 L 276.285156 418.144531 C 276.007812 419.332031 275.34375 420.34375 274.296875 421.183594 C 273.25 422.019531 272.066406 422.441406 270.738281 422.441406 C 269.972656 422.441406 269.238281 422.335938 268.542969 422.125 C 267.84375 421.917969 267.109375 421.253906 266.34375 420.136719 C 265.574219 419.019531 265.191406 417.621094 265.191406 415.945312 C 265.191406 404.914062 268.574219 393.464844 275.34375 381.59375 C 276.742188 379.359375 279.671875 375.132812 284.136719 368.921875 L 288.953125 362.320312 L 279.21875 362.320312 C 267.074219 362.320312 260.691406 362.53125 260.0625 362.949219 C 259.644531 363.160156 259.261719 363.996094 258.910156 365.464844 C 258.5625 366.929688 258.214844 368.429688 257.863281 369.96875 L 257.550781 372.167969 L 257.550781 372.480469 L 253.363281 372.480469 Z M 253.363281 372.167969 " fill-opacity="1" fill-rule="nonzero"/></g><path fill="#000000" d="M 389.144531 417.097656 C 389.144531 418.496094 388.414062 419.191406 386.945312 419.191406 C 386.597656 419.191406 385.832031 418.632812 384.644531 417.515625 C 383.457031 416.398438 380.179688 413.152344 374.804688 407.777344 L 363.917969 396.882812 L 352.929688 407.882812 C 345.53125 415.144531 341.730469 418.84375 341.519531 418.984375 C 341.238281 419.125 340.996094 419.191406 340.785156 419.191406 C 340.226562 419.191406 339.738281 418.984375 339.320312 418.566406 C 338.902344 418.144531 338.65625 417.65625 338.589844 417.097656 C 338.589844 416.609375 339.078125 415.839844 340.054688 414.792969 C 341.03125 413.746094 344.308594 410.429688 349.894531 404.84375 L 360.777344 393.953125 L 349.894531 383.058594 C 344.242188 377.402344 340.960938 374.085938 340.054688 373.109375 C 339.148438 372.132812 338.65625 371.363281 338.589844 370.804688 C 338.589844 370.175781 338.796875 369.6875 339.214844 369.339844 C 339.636719 368.988281 340.160156 368.816406 340.785156 368.816406 C 341.136719 368.816406 341.378906 368.851562 341.519531 368.921875 C 341.730469 369.058594 345.53125 372.761719 352.929688 380.023438 L 363.917969 391.019531 L 374.804688 380.125 C 380.179688 374.75 383.457031 371.503906 384.644531 370.386719 C 385.832031 369.269531 386.597656 368.710938 386.945312 368.710938 C 388.414062 368.710938 389.144531 369.410156 389.144531 370.804688 C 389.144531 371.292969 388.796875 371.921875 388.097656 372.691406 C 387.402344 373.457031 383.980469 376.878906 377.839844 382.953125 L 366.953125 393.953125 L 377.839844 404.949219 C 383.703125 410.8125 387.050781 414.199219 387.890625 415.109375 C 388.726562 416.015625 389.144531 416.679688 389.144531 417.097656 Z M 389.144531 417.097656 " fill-opacity="1" fill-rule="nonzero"/><path fill="#000000" d="M 450.191406 359.597656 L 448.828125 360.121094 C 447.851562 360.472656 446.457031 360.820312 444.644531 361.167969 C 442.828125 361.519531 440.804688 361.761719 438.570312 361.902344 L 436.582031 361.902344 L 436.582031 357.085938 L 438.570312 357.085938 C 441.851562 356.945312 444.886719 356.421875 447.679688 355.515625 C 450.46875 354.605469 452.421875 353.769531 453.539062 353 C 454.65625 352.230469 455.632812 351.464844 456.472656 350.695312 C 456.609375 350.488281 457.027344 350.382812 457.726562 350.382812 C 458.355469 350.382812 458.949219 350.589844 459.507812 351.011719 L 459.507812 382.328125 L 459.609375 413.746094 C 460.101562 414.234375 460.519531 414.550781 460.867188 414.6875 C 461.214844 414.828125 462.054688 414.96875 463.378906 415.109375 C 464.707031 415.246094 466.867188 415.316406 469.871094 415.316406 L 472.589844 415.316406 L 472.589844 420.136719 L 471.4375 420.136719 C 469.972656 419.925781 464.425781 419.820312 454.796875 419.820312 C 445.304688 419.820312 439.828125 419.925781 438.363281 420.136719 L 437.105469 420.136719 L 437.105469 415.316406 L 439.828125 415.316406 C 441.363281 415.316406 442.6875 415.316406 443.804688 415.316406 C 444.921875 415.316406 445.792969 415.28125 446.421875 415.214844 C 447.050781 415.144531 447.609375 415.039062 448.097656 414.898438 C 448.585938 414.757812 448.863281 414.6875 448.933594 414.6875 C 449.003906 414.6875 449.214844 414.515625 449.5625 414.164062 C 449.910156 413.816406 450.121094 413.675781 450.191406 413.746094 Z M 450.191406 359.597656 " fill-opacity="1" fill-rule="nonzero"/><g clip-path="url(#b354514f07)"><path fill="#000000" d="M 490.28125 358.867188 C 494.1875 353.210938 499.527344 350.382812 506.296875 350.382812 C 509.644531 350.382812 512.996094 351.289062 516.34375 353.105469 C 519.695312 354.921875 522.414062 358.132812 524.507812 362.742188 C 527.089844 368.535156 528.382812 376.496094 528.382812 386.621094 C 528.382812 397.441406 526.882812 405.71875 523.878906 411.441406 C 522.484375 414.375 520.566406 416.714844 518.125 418.460938 C 515.679688 420.207031 513.550781 421.289062 511.738281 421.707031 C 509.925781 422.125 508.144531 422.371094 506.398438 422.441406 C 504.585938 422.441406 502.769531 422.230469 500.957031 421.8125 C 499.144531 421.390625 497.015625 420.273438 494.570312 418.460938 C 492.128906 416.644531 490.210938 414.304688 488.816406 411.441406 C 485.8125 405.71875 484.3125 397.441406 484.3125 386.621094 C 484.3125 374.472656 486.304688 365.21875 490.28125 358.867188 Z M 513.832031 357.609375 C 511.738281 355.375 509.261719 354.257812 506.398438 354.257812 C 503.46875 354.257812 500.957031 355.375 498.863281 357.609375 C 497.117188 359.425781 495.96875 361.9375 495.410156 365.148438 C 494.851562 368.363281 494.570312 375.066406 494.570312 385.257812 C 494.570312 396.289062 494.851562 403.550781 495.410156 407.042969 C 495.96875 410.535156 497.222656 413.292969 499.175781 415.316406 C 501.132812 417.414062 503.539062 418.460938 506.398438 418.460938 C 509.191406 418.460938 511.5625 417.414062 513.519531 415.316406 C 515.542969 413.222656 516.796875 410.289062 517.285156 406.519531 C 517.773438 402.75 518.054688 395.664062 518.125 385.257812 C 518.125 375.132812 517.84375 368.464844 517.285156 365.253906 C 516.726562 362.042969 515.578125 359.492188 513.832031 357.609375 Z M 513.832031 357.609375 " fill-opacity="1" fill-rule="nonzero"/></g><path fill="#000000" d="M 542.238281 359.332031 C 542.238281 359.332031 542.238281 359.011719 542.238281 358.367188 C 542.238281 357.726562 542.585938 357.234375 543.273438 356.886719 L 586.269531 356.886719 C 587.011719 357.28125 587.382812 357.777344 587.382812 358.367188 C 587.382812 358.960938 587.011719 359.453125 586.269531 359.847656 L 543.273438 359.847656 C 542.585938 359.503906 542.238281 359.011719 542.238281 358.367188 Z M 542.238281 359.332031 " fill-opacity="1" fill-rule="nonzero"/><g clip-path="url(#3bc50d1b3a)"><path fill="#000000" d="M 596.707031 353.703125 C 596.707031 345.65625 598.703125 339.289062 602.699219 334.597656 C 606.695312 329.910156 611.136719 327.5625 616.019531 327.5625 C 619.425781 327.5625 621.867188 328.453125 623.347656 330.230469 C 624.828125 332.007812 625.566406 333.980469 625.566406 336.152344 C 625.566406 337.386719 625.222656 338.375 624.53125 339.117188 C 623.839844 339.855469 622.878906 340.226562 621.644531 340.226562 C 620.511719 340.226562 619.574219 339.878906 618.832031 339.191406 C 618.09375 338.5 617.722656 337.535156 617.722656 336.300781 C 617.722656 334.128906 618.882812 332.820312 621.199219 332.378906 C 620.117188 331.292969 618.585938 330.675781 616.613281 330.527344 C 613.109375 330.527344 610.222656 332.007812 607.953125 334.96875 C 605.636719 338.226562 604.476562 343.214844 604.476562 349.925781 L 604.550781 350.222656 C 604.796875 349.925781 604.992188 349.605469 605.140625 349.261719 C 607.164062 346.296875 609.804688 344.816406 613.058594 344.816406 L 613.355469 344.816406 C 615.625 344.816406 617.625 345.285156 619.351562 346.222656 C 620.535156 346.914062 621.71875 347.902344 622.902344 349.1875 C 624.085938 350.46875 625.050781 351.875 625.789062 353.40625 C 626.824219 355.824219 627.34375 358.46875 627.34375 361.328125 L 627.34375 362.664062 C 627.34375 363.796875 627.21875 364.859375 626.972656 365.847656 C 626.429688 368.757812 624.851562 371.597656 622.238281 374.363281 C 619.621094 377.125 616.316406 378.507812 612.320312 378.507812 C 610.9375 378.507812 609.605469 378.3125 608.324219 377.917969 C 607.042969 377.523438 605.660156 376.78125 604.179688 375.695312 C 602.699219 374.609375 601.441406 373.152344 600.40625 371.328125 C 599.371094 369.5 598.480469 367.105469 597.742188 364.144531 C 597 361.183594 596.65625 357.703125 596.707031 353.703125 Z M 612.617188 347.484375 C 611.136719 347.484375 609.855469 347.902344 608.769531 348.742188 C 607.683594 349.582031 606.84375 350.691406 606.253906 352.074219 C 605.660156 353.457031 605.242188 354.863281 604.992188 356.292969 C 604.746094 357.726562 604.597656 359.257812 604.550781 360.886719 C 604.550781 364.984375 604.847656 367.921875 605.4375 369.699219 C 606.03125 371.472656 606.96875 372.90625 608.25 373.992188 C 609.433594 374.878906 610.742188 375.324219 612.171875 375.324219 C 614.6875 375.324219 616.613281 374.386719 617.945312 372.511719 C 618.585938 371.621094 619.03125 370.511719 619.277344 369.179688 C 619.523438 367.847656 619.648438 365.253906 619.648438 361.402344 C 619.648438 357.453125 619.523438 354.8125 619.277344 353.480469 C 619.03125 352.148438 618.585938 351.039062 617.945312 350.148438 C 616.613281 348.371094 614.835938 347.484375 612.617188 347.484375 Z M 612.617188 347.484375 " fill-opacity="1" fill-rule="nonzero"/></g></svg>