<svg xmlns="http://www.w3.org/2000/svg" xmlns:xlink="http://www.w3.org/1999/xlink" width="1000" zoomAndPan="magnify" viewBox="0 0 750 749.999995" height="1000" preserveAspectRatio="xMidYMid meet" version="1.0"><defs><clipPath id="a36261fa68"><path d="M 117 353 L 155 353 L 155 417.339844 L 117 417.339844 Z M 117 353 " clip-rule="nonzero"/></clipPath><clipPath id="4c7027ff01"><path d="M 163 353 L 202 353 L 202 417.339844 L 163 417.339844 Z M 163 353 " clip-rule="nonzero"/></clipPath><clipPath id="0ca39ab1d5"><path d="M 211 352 L 252 352 L 252 417.339844 L 211 417.339844 Z M 211 352 " clip-rule="nonzero"/></clipPath><clipPath id="1b92c1e3fa"><path d="M 256 353 L 296 353 L 296 417.339844 L 256 417.339844 Z M 256 353 " clip-rule="nonzero"/></clipPath><clipPath id="dcd753d4c2"><path d="M 303 353 L 343 353 L 343 417.339844 L 303 417.339844 Z M 303 353 " clip-rule="nonzero"/></clipPath><clipPath id="5fc3a224a8"><path d="M 469 353 L 509 353 L 509 417.339844 L 469 417.339844 Z M 469 353 " clip-rule="nonzero"/></clipPath><clipPath id="9dc2244b96"><path d="M 572 332.660156 L 595 332.660156 L 595 377 L 572 377 Z M 572 332.660156 " clip-rule="nonzero"/></clipPath><clipPath id="617c2808cf"><path d="M 605 332.660156 L 628 332.660156 L 628 377 L 605 377 Z M 605 332.660156 " clip-rule="nonzero"/></clipPath></defs><rect x="-75" width="900" fill="#ffffff" y="-74.999999" height="899.999994" fill-opacity="1"/><rect x="-75" width="900" fill="#ffffff" y="-74.999999" height="899.999994" fill-opacity="1"/><g clip-path="url(#a36261fa68)"><path fill="#000000" d="M 127.824219 400.601562 C 127.824219 402.09375 127.328125 403.339844 126.328125 404.335938 C 125.332031 405.335938 124.117188 405.832031 122.6875 405.832031 L 122.03125 405.832031 C 124.898438 410.753906 128.699219 413.214844 133.433594 413.214844 C 137.792969 413.214844 140.96875 411.347656 142.964844 407.609375 C 144.148438 405.550781 144.738281 401.566406 144.738281 395.648438 C 144.738281 389.230469 143.898438 384.902344 142.214844 382.65625 C 140.597656 380.601562 138.789062 379.574219 136.796875 379.574219 L 136.234375 379.574219 C 131.375 379.574219 127.699219 381.691406 125.207031 385.929688 C 124.960938 386.363281 124.742188 386.613281 124.554688 386.675781 C 124.367188 386.738281 123.902344 386.800781 123.152344 386.863281 C 122.09375 386.863281 121.503906 386.675781 121.378906 386.300781 C 121.253906 386.054688 121.191406 380.601562 121.191406 369.949219 L 121.191406 357.894531 C 121.191406 354.78125 121.347656 353.222656 121.65625 353.222656 C 121.78125 353.097656 121.90625 353.035156 122.03125 353.035156 C 122.09375 353.035156 122.746094 353.285156 123.992188 353.78125 C 125.238281 354.28125 126.953125 354.78125 129.132812 355.277344 C 131.3125 355.777344 133.648438 356.027344 136.140625 356.027344 C 140.566406 356.027344 144.800781 355.152344 148.851562 353.410156 C 149.347656 353.160156 149.753906 353.035156 150.066406 353.035156 C 150.5625 353.035156 150.8125 353.597656 150.8125 354.71875 L 150.8125 355.933594 C 145.703125 361.976562 139.320312 364.996094 131.65625 364.996094 C 129.726562 364.996094 127.980469 364.808594 126.421875 364.4375 L 125.488281 364.25 L 125.488281 380.320312 C 126.671875 379.449219 127.605469 378.765625 128.292969 378.265625 C 128.976562 377.769531 130.097656 377.269531 131.65625 376.769531 C 133.214844 376.273438 134.800781 376.023438 136.421875 376.023438 C 141.46875 376.023438 145.734375 378.046875 149.222656 382.097656 C 152.714844 386.148438 154.457031 390.945312 154.457031 396.488281 C 154.457031 402.21875 152.464844 407.109375 148.476562 411.160156 C 144.488281 415.207031 139.628906 417.265625 133.898438 417.328125 C 128.851562 417.328125 124.804688 415.644531 121.75 412.28125 C 118.699219 408.917969 117.171875 405.117188 117.171875 400.878906 C 117.171875 399.386719 117.515625 398.203125 118.199219 397.328125 C 118.886719 396.457031 119.601562 395.894531 120.347656 395.648438 C 121.097656 395.398438 121.8125 395.273438 122.5 395.273438 C 124.054688 395.273438 125.332031 395.800781 126.328125 396.863281 C 127.328125 397.921875 127.824219 399.167969 127.824219 400.601562 Z M 127.824219 400.601562 " fill-opacity="1" fill-rule="nonzero"/></g><g clip-path="url(#4c7027ff01)"><path fill="#000000" d="M 163.148438 386.023438 C 163.148438 375.867188 165.671875 367.832031 170.71875 361.914062 C 175.761719 355.996094 181.371094 353.035156 187.539062 353.035156 C 191.835938 353.035156 194.917969 354.15625 196.789062 356.398438 C 198.65625 358.640625 199.59375 361.132812 199.59375 363.875 C 199.59375 365.433594 199.15625 366.679688 198.285156 367.613281 C 197.410156 368.546875 196.195312 369.015625 194.640625 369.015625 C 193.207031 369.015625 192.023438 368.578125 191.089844 367.707031 C 190.152344 366.835938 189.6875 365.621094 189.6875 364.0625 C 189.6875 361.320312 191.152344 359.671875 194.078125 359.109375 C 192.707031 357.738281 190.777344 356.960938 188.285156 356.773438 C 183.863281 356.773438 180.21875 358.640625 177.351562 362.378906 C 174.421875 366.492188 172.960938 372.785156 172.960938 381.257812 L 173.054688 381.628906 C 173.363281 381.257812 173.613281 380.851562 173.800781 380.414062 C 176.355469 376.675781 179.6875 374.808594 183.800781 374.808594 L 184.171875 374.808594 C 187.039062 374.808594 189.5625 375.398438 191.742188 376.582031 C 193.238281 377.457031 194.734375 378.703125 196.226562 380.320312 C 197.722656 381.941406 198.9375 383.71875 199.871094 385.648438 C 201.179688 388.699219 201.835938 392.035156 201.835938 395.648438 L 201.835938 397.328125 C 201.835938 398.761719 201.679688 400.101562 201.367188 401.347656 C 200.683594 405.023438 198.6875 408.605469 195.386719 412.09375 C 192.085938 415.582031 187.910156 417.328125 182.863281 417.328125 C 181.121094 417.328125 179.4375 417.078125 177.820312 416.578125 C 176.199219 416.082031 174.453125 415.144531 172.585938 413.777344 C 170.71875 412.40625 169.128906 410.566406 167.820312 408.261719 C 166.511719 405.957031 165.390625 402.9375 164.457031 399.199219 C 163.523438 395.460938 163.085938 391.066406 163.148438 386.023438 Z M 183.238281 378.171875 C 181.371094 378.171875 179.75 378.703125 178.378906 379.761719 C 177.007812 380.820312 175.949219 382.222656 175.203125 383.964844 C 174.453125 385.710938 173.925781 387.484375 173.613281 389.292969 C 173.300781 391.097656 173.117188 393.03125 173.054688 395.085938 C 173.054688 400.257812 173.425781 403.964844 174.175781 406.207031 C 174.921875 408.449219 176.105469 410.253906 177.726562 411.625 C 179.21875 412.746094 180.871094 413.308594 182.679688 413.308594 C 185.855469 413.308594 188.285156 412.125 189.96875 409.757812 C 190.777344 408.636719 191.335938 407.234375 191.648438 405.550781 C 191.960938 403.871094 192.117188 400.601562 192.117188 395.742188 C 192.117188 390.757812 191.960938 387.421875 191.648438 385.742188 C 191.335938 384.058594 190.777344 382.65625 189.96875 381.535156 C 188.285156 379.292969 186.042969 378.171875 183.238281 378.171875 Z M 183.238281 378.171875 " fill-opacity="1" fill-rule="nonzero"/></g><g clip-path="url(#0ca39ab1d5)"><path fill="#000000" d="M 211.085938 372.472656 C 211.148438 372.347656 211.675781 368.953125 212.675781 362.285156 L 214.167969 352.289062 C 214.167969 352.164062 214.792969 352.101562 216.039062 352.101562 L 217.90625 352.101562 L 217.90625 352.476562 C 217.90625 353.097656 218.375 353.628906 219.308594 354.0625 C 220.242188 354.5 221.863281 354.78125 224.167969 354.90625 C 226.472656 355.027344 231.738281 355.089844 239.960938 355.089844 L 251.269531 355.089844 L 251.269531 358.734375 L 244.914062 367.425781 C 244.351562 368.171875 243.417969 369.417969 242.109375 371.164062 C 240.800781 372.910156 239.960938 374.0625 239.585938 374.621094 C 239.214844 375.183594 238.558594 376.179688 237.625 377.613281 C 236.691406 379.042969 236.066406 380.167969 235.753906 380.976562 C 235.445312 381.785156 235.007812 382.9375 234.449219 384.433594 C 233.886719 385.929688 233.480469 387.363281 233.234375 388.730469 C 232.984375 390.101562 232.734375 391.785156 232.484375 393.777344 C 232.234375 395.773438 232.050781 397.890625 231.925781 400.132812 C 231.800781 402.375 231.707031 404.929688 231.644531 407.796875 C 231.644531 408.667969 231.644531 409.539062 231.644531 410.410156 C 231.644531 411.285156 231.613281 412.03125 231.550781 412.652344 L 231.550781 413.496094 C 231.300781 414.554688 230.710938 415.457031 229.773438 416.207031 C 228.839844 416.953125 227.78125 417.328125 226.597656 417.328125 C 225.914062 417.328125 225.257812 417.234375 224.636719 417.046875 C 224.011719 416.859375 223.359375 416.265625 222.671875 415.269531 C 221.988281 414.273438 221.644531 413.027344 221.644531 411.53125 C 221.644531 401.691406 224.667969 391.472656 230.710938 380.882812 C 231.957031 378.890625 234.570312 375.121094 238.558594 369.574219 L 242.859375 363.6875 L 234.167969 363.6875 C 223.328125 363.6875 217.628906 363.875 217.066406 364.25 C 216.691406 364.4375 216.351562 365.183594 216.039062 366.492188 C 215.726562 367.800781 215.414062 369.140625 215.105469 370.511719 L 214.824219 372.472656 L 214.824219 372.753906 L 211.085938 372.753906 Z M 211.085938 372.472656 " fill-opacity="1" fill-rule="nonzero"/></g><g clip-path="url(#1b92c1e3fa)"><path fill="#000000" d="M 261.640625 360.605469 C 265.128906 355.558594 269.894531 353.035156 275.9375 353.035156 C 278.929688 353.035156 281.917969 353.84375 284.910156 355.464844 C 287.898438 357.085938 290.328125 359.949219 292.195312 364.0625 C 294.503906 369.234375 295.65625 376.335938 295.65625 385.367188 C 295.65625 395.023438 294.316406 402.40625 291.636719 407.515625 C 290.390625 410.132812 288.675781 412.21875 286.496094 413.777344 C 284.316406 415.332031 282.417969 416.296875 280.796875 416.671875 C 279.175781 417.046875 277.589844 417.265625 276.03125 417.328125 C 274.410156 417.328125 272.792969 417.140625 271.171875 416.765625 C 269.550781 416.390625 267.652344 415.394531 265.472656 413.777344 C 263.292969 412.15625 261.578125 410.070312 260.332031 407.515625 C 257.652344 402.40625 256.3125 395.023438 256.3125 385.367188 C 256.3125 374.527344 258.089844 366.273438 261.640625 360.605469 Z M 282.664062 359.484375 C 280.796875 357.488281 278.585938 356.492188 276.03125 356.492188 C 273.414062 356.492188 271.171875 357.488281 269.304688 359.484375 C 267.746094 361.101562 266.71875 363.347656 266.21875 366.210938 C 265.722656 369.078125 265.472656 375.058594 265.472656 384.152344 C 265.472656 393.996094 265.722656 400.476562 266.21875 403.589844 C 266.71875 406.703125 267.839844 409.164062 269.582031 410.972656 C 271.328125 412.839844 273.476562 413.777344 276.03125 413.777344 C 278.523438 413.777344 280.640625 412.839844 282.386719 410.972656 C 284.191406 409.101562 285.3125 406.488281 285.75 403.121094 C 286.183594 399.757812 286.433594 393.433594 286.496094 384.152344 C 286.496094 375.121094 286.246094 369.171875 285.75 366.304688 C 285.25 363.4375 284.222656 361.164062 282.664062 359.484375 Z M 282.664062 359.484375 " fill-opacity="1" fill-rule="nonzero"/></g><g clip-path="url(#dcd753d4c2)"><path fill="#000000" d="M 308.363281 360.605469 C 311.851562 355.558594 316.617188 353.035156 322.660156 353.035156 C 325.652344 353.035156 328.640625 353.84375 331.632812 355.464844 C 334.621094 357.085938 337.050781 359.949219 338.921875 364.0625 C 341.226562 369.234375 342.378906 376.335938 342.378906 385.367188 C 342.378906 395.023438 341.039062 402.40625 338.359375 407.515625 C 337.113281 410.132812 335.402344 412.21875 333.21875 413.777344 C 331.039062 415.332031 329.140625 416.296875 327.519531 416.671875 C 325.898438 417.046875 324.3125 417.265625 322.753906 417.328125 C 321.132812 417.328125 319.515625 417.140625 317.894531 416.765625 C 316.273438 416.390625 314.375 415.394531 312.195312 413.777344 C 310.015625 412.15625 308.300781 410.070312 307.054688 407.515625 C 304.375 402.40625 303.035156 395.023438 303.035156 385.367188 C 303.035156 374.527344 304.8125 366.273438 308.363281 360.605469 Z M 329.390625 359.484375 C 327.519531 357.488281 325.308594 356.492188 322.753906 356.492188 C 320.136719 356.492188 317.894531 357.488281 316.027344 359.484375 C 314.46875 361.101562 313.441406 363.347656 312.941406 366.210938 C 312.445312 369.078125 312.195312 375.058594 312.195312 384.152344 C 312.195312 393.996094 312.445312 400.476562 312.941406 403.589844 C 313.441406 406.703125 314.5625 409.164062 316.304688 410.972656 C 318.050781 412.839844 320.199219 413.777344 322.753906 413.777344 C 325.246094 413.777344 327.363281 412.839844 329.109375 410.972656 C 330.914062 409.101562 332.035156 406.488281 332.472656 403.121094 C 332.910156 399.757812 333.15625 393.433594 333.21875 384.152344 C 333.21875 375.121094 332.972656 369.171875 332.472656 366.304688 C 331.972656 363.4375 330.945312 361.164062 329.390625 359.484375 Z M 329.390625 359.484375 " fill-opacity="1" fill-rule="nonzero"/></g><path fill="#000000" d="M 404.988281 412.5625 C 404.988281 413.808594 404.332031 414.429688 403.023438 414.429688 C 402.714844 414.429688 402.027344 413.929688 400.96875 412.933594 C 399.910156 411.9375 396.980469 409.039062 392.183594 404.242188 L 382.464844 394.527344 L 372.65625 404.335938 C 366.050781 410.816406 362.65625 414.117188 362.46875 414.242188 C 362.21875 414.367188 362 414.429688 361.816406 414.429688 C 361.316406 414.429688 360.878906 414.242188 360.507812 413.867188 C 360.132812 413.496094 359.914062 413.058594 359.851562 412.5625 C 359.851562 412.125 360.289062 411.4375 361.160156 410.503906 C 362.03125 409.570312 364.960938 406.613281 369.945312 401.628906 L 379.664062 391.910156 L 369.945312 382.191406 C 364.898438 377.144531 361.96875 374.183594 361.160156 373.3125 C 360.351562 372.441406 359.914062 371.757812 359.851562 371.257812 C 359.851562 370.695312 360.039062 370.261719 360.414062 369.949219 C 360.785156 369.636719 361.253906 369.480469 361.816406 369.480469 C 362.125 369.480469 362.34375 369.511719 362.46875 369.574219 C 362.65625 369.699219 366.050781 373 372.65625 379.480469 L 382.464844 389.292969 L 392.183594 379.574219 C 396.980469 374.777344 399.910156 371.878906 400.96875 370.882812 C 402.027344 369.886719 402.714844 369.386719 403.023438 369.386719 C 404.332031 369.386719 404.988281 370.011719 404.988281 371.257812 C 404.988281 371.695312 404.675781 372.253906 404.050781 372.941406 C 403.429688 373.625 400.375 376.675781 394.894531 382.097656 L 385.175781 391.910156 L 394.894531 401.722656 C 400.128906 406.953125 403.117188 409.976562 403.867188 410.785156 C 404.613281 411.59375 404.988281 412.1875 404.988281 412.5625 Z M 404.988281 412.5625 " fill-opacity="1" fill-rule="nonzero"/><path fill="#000000" d="M 438.722656 361.257812 L 437.507812 361.726562 C 436.632812 362.039062 435.386719 362.347656 433.769531 362.660156 C 432.148438 362.972656 430.34375 363.191406 428.347656 363.316406 L 426.574219 363.316406 L 426.574219 359.015625 L 428.347656 359.015625 C 431.277344 358.890625 433.988281 358.425781 436.476562 357.613281 C 438.96875 356.804688 440.714844 356.058594 441.710938 355.371094 C 442.707031 354.6875 443.582031 354 444.328125 353.316406 C 444.453125 353.128906 444.824219 353.035156 445.449219 353.035156 C 446.011719 353.035156 446.539062 353.222656 447.039062 353.597656 L 447.039062 381.535156 L 447.132812 409.570312 C 447.566406 410.007812 447.941406 410.285156 448.253906 410.410156 C 448.5625 410.535156 449.3125 410.660156 450.496094 410.785156 C 451.679688 410.910156 453.609375 410.972656 456.289062 410.972656 L 458.71875 410.972656 L 458.71875 415.269531 L 457.691406 415.269531 C 456.382812 415.082031 451.429688 414.992188 442.832031 414.992188 C 434.359375 414.992188 429.46875 415.082031 428.160156 415.269531 L 427.039062 415.269531 L 427.039062 410.972656 L 429.46875 410.972656 C 430.839844 410.972656 432.023438 410.972656 433.019531 410.972656 C 434.015625 410.972656 434.796875 410.941406 435.355469 410.878906 C 435.917969 410.816406 436.414062 410.722656 436.851562 410.597656 C 437.289062 410.472656 437.539062 410.410156 437.601562 410.410156 C 437.660156 410.410156 437.847656 410.253906 438.160156 409.945312 C 438.472656 409.632812 438.660156 409.507812 438.722656 409.570312 Z M 438.722656 361.257812 " fill-opacity="1" fill-rule="nonzero"/><g clip-path="url(#5fc3a224a8)"><path fill="#000000" d="M 474.511719 360.605469 C 478 355.558594 482.765625 353.035156 488.808594 353.035156 C 491.796875 353.035156 494.789062 353.84375 497.777344 355.464844 C 500.769531 357.085938 503.199219 359.949219 505.066406 364.0625 C 507.371094 369.234375 508.527344 376.335938 508.527344 385.367188 C 508.527344 395.023438 507.1875 402.40625 504.507812 407.515625 C 503.261719 410.132812 501.546875 412.21875 499.367188 413.777344 C 497.1875 415.332031 495.289062 416.296875 493.667969 416.671875 C 492.046875 417.046875 490.460938 417.265625 488.902344 417.328125 C 487.28125 417.328125 485.664062 417.140625 484.042969 416.765625 C 482.421875 416.390625 480.523438 415.394531 478.34375 413.777344 C 476.160156 412.15625 474.449219 410.070312 473.203125 407.515625 C 470.523438 402.40625 469.183594 395.023438 469.183594 385.367188 C 469.183594 374.527344 470.960938 366.273438 474.511719 360.605469 Z M 495.535156 359.484375 C 493.667969 357.488281 491.457031 356.492188 488.902344 356.492188 C 486.285156 356.492188 484.042969 357.488281 482.171875 359.484375 C 480.617188 361.101562 479.589844 363.347656 479.089844 366.210938 C 478.589844 369.078125 478.34375 375.058594 478.34375 384.152344 C 478.34375 393.996094 478.589844 400.476562 479.089844 403.589844 C 479.589844 406.703125 480.710938 409.164062 482.453125 410.972656 C 484.199219 412.839844 486.347656 413.777344 488.902344 413.777344 C 491.394531 413.777344 493.511719 412.839844 495.257812 410.972656 C 497.0625 409.101562 498.183594 406.488281 498.621094 403.121094 C 499.054688 399.757812 499.304688 393.433594 499.367188 384.152344 C 499.367188 375.121094 499.117188 369.171875 498.621094 366.304688 C 498.121094 363.4375 497.09375 361.164062 495.535156 359.484375 Z M 495.535156 359.484375 " fill-opacity="1" fill-rule="nonzero"/></g><path fill="#000000" d="M 520.898438 361.019531 C 520.898438 361.019531 520.898438 360.734375 520.898438 360.160156 C 520.898438 359.589844 521.203125 359.148438 521.820312 358.839844 L 560.207031 358.839844 C 560.867188 359.191406 561.195312 359.632812 561.195312 360.160156 C 561.195312 360.6875 560.867188 361.128906 560.207031 361.480469 L 521.820312 361.480469 C 521.203125 361.171875 520.898438 360.734375 520.898438 360.160156 Z M 520.898438 361.019531 " fill-opacity="1" fill-rule="nonzero"/><g clip-path="url(#9dc2244b96)"><path fill="#000000" d="M 580.820312 338.492188 L 579.960938 338.820312 C 579.34375 339.042969 578.460938 339.261719 577.316406 339.480469 C 576.171875 339.703125 574.894531 339.855469 573.484375 339.945312 L 572.230469 339.945312 L 572.230469 336.90625 L 573.484375 336.90625 C 575.554688 336.816406 577.472656 336.488281 579.234375 335.914062 C 580.996094 335.339844 582.226562 334.8125 582.933594 334.328125 C 583.636719 333.84375 584.253906 333.359375 584.78125 332.875 C 584.871094 332.742188 585.136719 332.675781 585.574219 332.675781 C 585.972656 332.675781 586.347656 332.808594 586.699219 333.074219 L 586.699219 352.828125 L 586.765625 372.648438 C 587.074219 372.957031 587.335938 373.152344 587.558594 373.242188 C 587.777344 373.328125 588.304688 373.417969 589.144531 373.507812 C 589.980469 373.59375 591.34375 373.636719 593.238281 373.636719 L 594.957031 373.636719 L 594.957031 376.675781 L 594.230469 376.675781 C 593.304688 376.546875 589.804688 376.480469 583.726562 376.480469 C 577.734375 376.480469 574.277344 376.546875 573.351562 376.675781 L 572.5625 376.675781 L 572.5625 373.636719 L 574.277344 373.636719 C 575.246094 373.636719 576.085938 373.636719 576.789062 373.636719 C 577.492188 373.636719 578.042969 373.617188 578.441406 373.570312 C 578.835938 373.527344 579.1875 373.460938 579.496094 373.375 C 579.804688 373.285156 579.980469 373.242188 580.027344 373.242188 C 580.070312 373.242188 580.203125 373.132812 580.421875 372.910156 C 580.644531 372.691406 580.773438 372.601562 580.820312 372.648438 Z M 580.820312 338.492188 " fill-opacity="1" fill-rule="nonzero"/></g><g clip-path="url(#617c2808cf)"><path fill="#000000" d="M 613.851562 338.492188 L 612.992188 338.820312 C 612.375 339.042969 611.496094 339.261719 610.351562 339.480469 C 609.207031 339.703125 607.929688 339.855469 606.519531 339.945312 L 605.261719 339.945312 L 605.261719 336.90625 L 606.519531 336.90625 C 608.589844 336.816406 610.503906 336.488281 612.265625 335.914062 C 614.027344 335.339844 615.261719 334.8125 615.964844 334.328125 C 616.671875 333.84375 617.289062 333.359375 617.816406 332.875 C 617.902344 332.742188 618.167969 332.675781 618.609375 332.675781 C 619.003906 332.675781 619.378906 332.808594 619.730469 333.074219 L 619.730469 352.828125 L 619.796875 372.648438 C 620.105469 372.957031 620.371094 373.152344 620.589844 373.242188 C 620.8125 373.328125 621.339844 373.417969 622.175781 373.507812 C 623.011719 373.59375 624.378906 373.636719 626.273438 373.636719 L 627.992188 373.636719 L 627.992188 376.675781 L 627.265625 376.675781 C 626.339844 376.546875 622.835938 376.480469 616.757812 376.480469 C 610.769531 376.480469 607.3125 376.546875 606.386719 376.675781 L 605.59375 376.675781 L 605.59375 373.636719 L 607.3125 373.636719 C 608.28125 373.636719 609.117188 373.636719 609.820312 373.636719 C 610.527344 373.636719 611.078125 373.617188 611.472656 373.570312 C 611.871094 373.527344 612.222656 373.460938 612.53125 373.375 C 612.839844 373.285156 613.015625 373.242188 613.058594 373.242188 C 613.101562 373.242188 613.234375 373.132812 613.457031 372.910156 C 613.675781 372.691406 613.808594 372.601562 613.851562 372.648438 Z M 613.851562 338.492188 " fill-opacity="1" fill-rule="nonzero"/></g></svg>