<svg xmlns="http://www.w3.org/2000/svg" xmlns:xlink="http://www.w3.org/1999/xlink" width="1000" zoomAndPan="magnify" viewBox="0 0 750 749.999995" height="1000" preserveAspectRatio="xMidYMid meet" version="1.0"><defs><clipPath id="4eec815d2a"><path d="M 43 345 L 61 345 L 61 413.628906 L 43 413.628906 Z M 43 345 " clip-rule="nonzero"/></clipPath><clipPath id="6f5ff1a395"><path d="M 545 336.371094 L 565 336.371094 L 565 369 L 545 369 Z M 545 336.371094 " clip-rule="nonzero"/></clipPath><clipPath id="75c23b5d10"><path d="M 573 345 L 590 345 L 590 413.628906 L 573 413.628906 Z M 573 345 " clip-rule="nonzero"/></clipPath></defs><rect x="-75" width="900" fill="#ffffff" y="-74.999999" height="899.999994" fill-opacity="1"/><rect x="-75" width="900" fill="#ffffff" y="-74.999999" height="899.999994" fill-opacity="1"/><g clip-path="url(#4eec815d2a)"><path fill="#000000" d="M 43.855469 379.523438 C 43.855469 376.414062 44.082031 373.464844 44.53125 370.671875 C 44.980469 367.878906 45.5 365.46875 46.085938 363.441406 C 46.671875 361.414062 47.507812 359.429688 48.585938 357.492188 C 49.667969 355.554688 50.527344 354.046875 51.15625 352.964844 C 51.789062 351.882812 52.734375 350.710938 53.996094 349.449219 C 55.257812 348.1875 56.003906 347.421875 56.226562 347.152344 C 56.453125 346.882812 57.015625 346.410156 57.917969 345.734375 L 59.066406 345.734375 C 59.699219 345.734375 60.011719 345.9375 60.011719 346.339844 C 60.011719 346.476562 59.628906 346.949219 58.863281 347.761719 C 58.097656 348.570312 57.175781 349.765625 56.09375 351.34375 C 55.011719 352.917969 53.90625 354.855469 52.78125 357.15625 C 51.652344 359.453125 50.707031 362.5625 49.941406 366.480469 C 49.171875 370.402344 48.789062 374.75 48.789062 379.523438 C 48.789062 384.300781 49.171875 388.625 49.941406 392.5 C 50.707031 396.375 51.628906 399.507812 52.710938 401.894531 C 53.792969 404.28125 54.898438 406.21875 56.023438 407.707031 C 57.152344 409.195312 58.097656 410.386719 58.863281 411.289062 C 59.628906 412.191406 60.011719 412.664062 60.011719 412.707031 C 60.011719 413.113281 59.675781 413.316406 59 413.316406 L 57.917969 413.316406 L 56.023438 411.695312 C 51.789062 407.863281 48.699219 403.089844 46.761719 397.367188 C 44.824219 391.644531 43.855469 385.695312 43.855469 379.523438 Z M 43.855469 379.523438 " fill-opacity="1" fill-rule="nonzero"/></g><path fill="#000000" d="M 70.289062 356.882812 C 72.8125 353.234375 76.261719 351.410156 80.632812 351.410156 C 82.796875 351.410156 84.960938 351.996094 87.125 353.167969 C 89.289062 354.339844 91.046875 356.410156 92.398438 359.386719 C 94.066406 363.125 94.898438 368.261719 94.898438 374.792969 C 94.898438 381.777344 93.929688 387.117188 91.992188 390.8125 C 91.089844 392.703125 89.851562 394.210938 88.273438 395.339844 C 86.695312 396.464844 85.320312 397.164062 84.148438 397.433594 C 82.976562 397.703125 81.828125 397.863281 80.703125 397.90625 C 79.53125 397.90625 78.359375 397.773438 77.1875 397.5 C 76.015625 397.230469 74.640625 396.511719 73.0625 395.339844 C 71.484375 394.167969 70.246094 392.660156 69.34375 390.8125 C 67.40625 387.117188 66.4375 381.777344 66.4375 374.792969 C 66.4375 366.953125 67.722656 360.984375 70.289062 356.882812 Z M 85.5 356.074219 C 84.148438 354.632812 82.550781 353.910156 80.703125 353.910156 C 78.808594 353.910156 77.1875 354.632812 75.832031 356.074219 C 74.707031 357.246094 73.964844 358.867188 73.601562 360.9375 C 73.242188 363.011719 73.0625 367.335938 73.0625 373.914062 C 73.0625 381.035156 73.242188 385.71875 73.601562 387.972656 C 73.964844 390.226562 74.773438 392.003906 76.035156 393.3125 C 77.296875 394.664062 78.855469 395.339844 80.703125 395.339844 C 82.503906 395.339844 84.035156 394.664062 85.300781 393.3125 C 86.605469 391.960938 87.417969 390.066406 87.734375 387.632812 C 88.046875 385.203125 88.230469 380.628906 88.273438 373.914062 C 88.273438 367.382812 88.09375 363.078125 87.734375 361.007812 C 87.371094 358.933594 86.628906 357.289062 85.5 356.074219 Z M 85.5 356.074219 " fill-opacity="1" fill-rule="nonzero"/><path fill="#000000" d="M 102.878906 392.367188 C 102.878906 391.285156 103.261719 390.339844 104.027344 389.527344 C 104.792969 388.714844 105.761719 388.308594 106.933594 388.308594 C 108.015625 388.308594 108.960938 388.671875 109.773438 389.390625 C 110.585938 390.113281 111.011719 391.082031 111.058594 392.296875 C 111.058594 393.425781 110.675781 394.394531 109.910156 395.203125 C 109.140625 396.015625 108.171875 396.421875 107 396.421875 C 105.828125 396.421875 104.859375 396.039062 104.09375 395.269531 C 103.328125 394.503906 102.921875 393.535156 102.878906 392.367188 Z M 102.878906 392.367188 " fill-opacity="1" fill-rule="nonzero"/><path fill="#000000" d="M 122.890625 356.882812 C 125.414062 353.234375 128.859375 351.410156 133.234375 351.410156 C 135.398438 351.410156 137.558594 351.996094 139.722656 353.167969 C 141.886719 354.339844 143.644531 356.410156 144.996094 359.386719 C 146.664062 363.125 147.5 368.261719 147.5 374.792969 C 147.5 381.777344 146.53125 387.117188 144.589844 390.8125 C 143.691406 392.703125 142.449219 394.210938 140.871094 395.339844 C 139.296875 396.464844 137.921875 397.164062 136.75 397.433594 C 135.578125 397.703125 134.425781 397.863281 133.300781 397.90625 C 132.128906 397.90625 130.957031 397.773438 129.785156 397.5 C 128.613281 397.230469 127.238281 396.511719 125.660156 395.339844 C 124.082031 394.167969 122.84375 392.660156 121.941406 390.8125 C 120.003906 387.117188 119.035156 381.777344 119.035156 374.792969 C 119.035156 366.953125 120.320312 360.984375 122.890625 356.882812 Z M 138.101562 356.074219 C 136.75 354.632812 135.148438 353.910156 133.300781 353.910156 C 131.40625 353.910156 129.785156 354.632812 128.433594 356.074219 C 127.304688 357.246094 126.5625 358.867188 126.203125 360.9375 C 125.839844 363.011719 125.660156 367.335938 125.660156 373.914062 C 125.660156 381.035156 125.839844 385.71875 126.203125 387.972656 C 126.5625 390.226562 127.375 392.003906 128.636719 393.3125 C 129.898438 394.664062 131.453125 395.339844 133.300781 395.339844 C 135.105469 395.339844 136.636719 394.664062 137.898438 393.3125 C 139.207031 391.960938 140.015625 390.066406 140.332031 387.632812 C 140.648438 385.203125 140.828125 380.628906 140.871094 373.914062 C 140.871094 367.382812 140.691406 363.078125 140.332031 361.007812 C 139.972656 358.933594 139.226562 357.289062 138.101562 356.074219 Z M 138.101562 356.074219 " fill-opacity="1" fill-rule="nonzero"/><path fill="#000000" d="M 156.691406 356.882812 C 159.21875 353.234375 162.664062 351.410156 167.039062 351.410156 C 169.199219 351.410156 171.363281 351.996094 173.527344 353.167969 C 175.691406 354.339844 177.449219 356.410156 178.800781 359.386719 C 180.46875 363.125 181.300781 368.261719 181.300781 374.792969 C 181.300781 381.777344 180.332031 387.117188 178.394531 390.8125 C 177.492188 392.703125 176.253906 394.210938 174.675781 395.339844 C 173.097656 396.464844 171.726562 397.164062 170.554688 397.433594 C 169.382812 397.703125 168.230469 397.863281 167.105469 397.90625 C 165.933594 397.90625 164.761719 397.773438 163.589844 397.5 C 162.417969 397.230469 161.042969 396.511719 159.464844 395.339844 C 157.886719 394.167969 156.648438 392.660156 155.746094 390.8125 C 153.808594 387.117188 152.839844 381.777344 152.839844 374.792969 C 152.839844 366.953125 154.125 360.984375 156.691406 356.882812 Z M 171.90625 356.074219 C 170.554688 354.632812 168.953125 353.910156 167.105469 353.910156 C 165.210938 353.910156 163.589844 354.632812 162.238281 356.074219 C 161.109375 357.246094 160.367188 358.867188 160.007812 360.9375 C 159.644531 363.011719 159.464844 367.335938 159.464844 373.914062 C 159.464844 381.035156 159.644531 385.71875 160.007812 387.972656 C 160.367188 390.226562 161.179688 392.003906 162.441406 393.3125 C 163.703125 394.664062 165.257812 395.339844 167.105469 395.339844 C 168.90625 395.339844 170.441406 394.664062 171.703125 393.3125 C 173.007812 391.960938 173.820312 390.066406 174.136719 387.632812 C 174.453125 385.203125 174.632812 380.628906 174.675781 373.914062 C 174.675781 367.382812 174.496094 363.078125 174.136719 361.007812 C 173.777344 358.933594 173.03125 357.289062 171.90625 356.074219 Z M 171.90625 356.074219 " fill-opacity="1" fill-rule="nonzero"/><path fill="#000000" d="M 190.496094 356.882812 C 193.019531 353.234375 196.46875 351.410156 200.839844 351.410156 C 203.003906 351.410156 205.167969 351.996094 207.332031 353.167969 C 209.496094 354.339844 211.253906 356.410156 212.605469 359.386719 C 214.273438 363.125 215.105469 368.261719 215.105469 374.792969 C 215.105469 381.777344 214.136719 387.117188 212.199219 390.8125 C 211.296875 392.703125 210.058594 394.210938 208.480469 395.339844 C 206.902344 396.464844 205.527344 397.164062 204.355469 397.433594 C 203.183594 397.703125 202.035156 397.863281 200.910156 397.90625 C 199.738281 397.90625 198.566406 397.773438 197.394531 397.5 C 196.222656 397.230469 194.847656 396.511719 193.269531 395.339844 C 191.691406 394.167969 190.453125 392.660156 189.550781 390.8125 C 187.613281 387.117188 186.644531 381.777344 186.644531 374.792969 C 186.644531 366.953125 187.929688 360.984375 190.496094 356.882812 Z M 205.710938 356.074219 C 204.355469 354.632812 202.757812 353.910156 200.910156 353.910156 C 199.015625 353.910156 197.394531 354.632812 196.042969 356.074219 C 194.914062 357.246094 194.171875 358.867188 193.808594 360.9375 C 193.449219 363.011719 193.269531 367.335938 193.269531 373.914062 C 193.269531 381.035156 193.449219 385.71875 193.808594 387.972656 C 194.171875 390.226562 194.980469 392.003906 196.242188 393.3125 C 197.507812 394.664062 199.0625 395.339844 200.910156 395.339844 C 202.710938 395.339844 204.246094 394.664062 205.507812 393.3125 C 206.8125 391.960938 207.625 390.066406 207.941406 387.632812 C 208.257812 385.203125 208.4375 380.628906 208.480469 373.914062 C 208.480469 367.382812 208.300781 363.078125 207.941406 361.007812 C 207.578125 358.933594 206.835938 357.289062 205.710938 356.074219 Z M 205.710938 356.074219 " fill-opacity="1" fill-rule="nonzero"/><path fill="#000000" d="M 225.179688 367.425781 C 223.964844 367.425781 222.996094 367.023438 222.273438 366.210938 C 221.550781 365.398438 221.191406 364.410156 221.191406 363.238281 C 221.191406 360.039062 222.386719 357.265625 224.773438 354.925781 C 227.164062 352.582031 230.136719 351.410156 233.699219 351.410156 C 237.800781 351.410156 241.226562 352.671875 243.976562 355.195312 C 246.726562 357.71875 248.121094 360.984375 248.167969 364.996094 C 248.167969 366.933594 247.714844 368.777344 246.816406 370.535156 C 245.914062 372.292969 244.832031 373.824219 243.570312 375.132812 C 242.308594 376.4375 240.503906 378.105469 238.160156 380.132812 C 236.539062 381.53125 234.285156 383.601562 231.402344 386.351562 L 227.410156 390.136719 L 232.550781 390.203125 C 239.625 390.203125 243.390625 390.089844 243.839844 389.863281 C 244.15625 389.773438 244.695312 387.769531 245.464844 383.851562 L 245.464844 383.648438 L 248.167969 383.648438 L 248.167969 383.851562 C 248.121094 383.984375 247.828125 386.035156 247.289062 390 C 246.746094 393.964844 246.410156 396.039062 246.273438 396.21875 L 246.273438 396.421875 L 221.191406 396.421875 L 221.191406 394.324219 C 221.191406 394.011719 221.328125 393.671875 221.597656 393.3125 C 221.867188 392.949219 222.542969 392.164062 223.625 390.945312 C 224.933594 389.503906 226.058594 388.242188 227.007812 387.160156 C 227.410156 386.710938 228.179688 385.878906 229.304688 384.660156 C 230.429688 383.445312 231.199219 382.609375 231.601562 382.160156 C 232.007812 381.710938 232.664062 380.964844 233.5625 379.929688 C 234.464844 378.894531 235.097656 378.128906 235.457031 377.632812 C 235.816406 377.136719 236.335938 376.460938 237.011719 375.605469 C 237.6875 374.75 238.160156 374.027344 238.433594 373.441406 C 238.703125 372.855469 239.039062 372.203125 239.445312 371.480469 C 239.851562 370.761719 240.144531 370.039062 240.324219 369.320312 C 240.503906 368.597656 240.664062 367.921875 240.796875 367.292969 C 240.933594 366.660156 241 365.917969 241 365.0625 C 241 362.222656 240.234375 359.769531 238.703125 357.695312 C 237.167969 355.621094 234.984375 354.585938 232.144531 354.585938 C 230.65625 354.585938 229.351562 354.96875 228.222656 355.734375 C 227.097656 356.5 226.308594 357.246094 225.855469 357.964844 C 225.40625 358.6875 225.179688 359.113281 225.179688 359.25 C 225.179688 359.292969 225.292969 359.316406 225.519531 359.316406 C 226.328125 359.316406 227.164062 359.632812 228.019531 360.261719 C 228.875 360.894531 229.304688 361.929688 229.304688 363.371094 C 229.304688 364.5 228.945312 365.445312 228.222656 366.210938 C 227.5 366.976562 226.488281 367.382812 225.179688 367.425781 Z M 225.179688 367.425781 " fill-opacity="1" fill-rule="nonzero"/><path fill="#000000" d="M 256.347656 368.238281 C 256.347656 368.238281 256.347656 366.503906 256.347656 363.035156 C 256.347656 359.566406 257.566406 356.773438 260 354.652344 C 262.433594 352.535156 265.226562 351.457031 268.382812 351.410156 C 271.582031 351.410156 274.421875 352.355469 276.902344 354.25 C 279.378906 356.140625 280.621094 358.597656 280.621094 361.613281 C 280.621094 362.96875 280.371094 364.226562 279.875 365.398438 C 279.378906 366.570312 278.792969 367.515625 278.117188 368.238281 C 277.441406 368.960938 276.742188 369.589844 276.023438 370.128906 C 275.300781 370.671875 274.714844 371.078125 274.265625 371.347656 C 273.8125 371.617188 273.566406 371.796875 273.519531 371.886719 L 274.46875 372.496094 C 275.097656 372.945312 275.730469 373.398438 276.359375 373.847656 C 276.992188 374.296875 277.351562 374.546875 277.441406 374.589844 C 280.820312 377.25 282.511719 380.605469 282.511719 384.660156 C 282.511719 388.21875 281.207031 391.304688 278.589844 393.917969 C 275.976562 396.53125 272.597656 397.863281 268.449219 397.90625 C 264.394531 397.90625 261.058594 396.757812 258.445312 394.460938 C 255.828125 392.164062 254.523438 389.324219 254.523438 385.945312 C 254.523438 381.078125 257.429688 377.023438 263.242188 373.78125 L 262.027344 372.902344 C 261.082031 372.316406 260.472656 371.867188 260.203125 371.550781 C 257.632812 369.34375 256.347656 366.503906 256.347656 363.035156 Z M 270.953125 370.332031 L 271.355469 370.0625 C 271.628906 369.882812 271.832031 369.746094 271.964844 369.65625 C 272.101562 369.566406 272.324219 369.410156 272.640625 369.183594 C 272.957031 368.960938 273.226562 368.734375 273.453125 368.507812 C 273.679688 368.285156 273.925781 368.011719 274.195312 367.699219 C 274.46875 367.382812 274.714844 367.089844 274.941406 366.820312 C 275.164062 366.546875 275.390625 366.1875 275.617188 365.738281 C 275.839844 365.289062 276.042969 364.902344 276.226562 364.589844 C 276.40625 364.273438 276.519531 363.824219 276.5625 363.238281 C 276.609375 362.652344 276.652344 362.15625 276.699219 361.75 C 276.699219 359.8125 276.042969 358.167969 274.738281 356.816406 C 273.429688 355.464844 271.921875 354.609375 270.207031 354.25 C 269.890625 354.203125 269.148438 354.179688 267.976562 354.179688 C 266.128906 354.179688 264.394531 354.765625 262.769531 355.9375 C 261.148438 357.109375 260.3125 358.574219 260.269531 360.332031 C 260.269531 361.367188 260.5625 362.3125 261.148438 363.167969 C 261.734375 364.027344 262.320312 364.679688 262.90625 365.128906 C 263.492188 365.578125 264.617188 366.300781 266.285156 367.292969 C 266.601562 367.515625 266.851562 367.675781 267.03125 367.765625 Z M 268.515625 395 C 271.132812 395 273.386719 394.234375 275.277344 392.703125 C 277.171875 391.171875 278.117188 389.324219 278.117188 387.160156 C 278.117188 386.394531 278.003906 385.675781 277.78125 385 C 277.554688 384.324219 277.285156 383.761719 276.96875 383.308594 C 276.652344 382.859375 276.15625 382.363281 275.480469 381.824219 C 274.804688 381.28125 274.285156 380.875 273.925781 380.605469 C 273.566406 380.335938 272.910156 379.90625 271.964844 379.320312 C 271.019531 378.734375 270.410156 378.351562 270.140625 378.171875 C 269.507812 377.765625 268.832031 377.339844 268.113281 376.890625 C 267.390625 376.4375 266.804688 376.054688 266.355469 375.738281 L 265.8125 375.402344 C 265.542969 375.402344 264.890625 375.785156 263.851562 376.550781 C 262.816406 377.316406 261.734375 378.554688 260.605469 380.269531 C 259.480469 381.980469 258.894531 383.828125 258.847656 385.808594 C 258.847656 388.46875 259.820312 390.652344 261.757812 392.367188 C 263.695312 394.078125 265.949219 394.957031 268.515625 395 Z M 268.515625 395 " fill-opacity="1" fill-rule="nonzero"/><path fill="#000000" d="M 294.003906 365.128906 C 292.789062 365.128906 291.84375 364.746094 291.167969 363.980469 C 290.488281 363.214844 290.128906 362.222656 290.085938 361.007812 C 290.085938 358.527344 291.167969 356.320312 293.328125 354.382812 C 295.492188 352.445312 298.105469 351.476562 301.171875 351.476562 C 302.75 351.476562 303.742188 351.5 304.148438 351.546875 C 307.480469 352.085938 310.027344 353.28125 311.785156 355.128906 C 313.542969 356.972656 314.445312 358.980469 314.492188 361.140625 C 314.492188 363.484375 313.726562 365.761719 312.191406 367.96875 C 310.660156 370.175781 308.542969 371.773438 305.835938 372.765625 L 305.632812 372.902344 C 305.632812 372.945312 305.835938 373.015625 306.242188 373.105469 C 306.648438 373.195312 307.300781 373.398438 308.203125 373.710938 C 309.105469 374.027344 309.960938 374.5 310.773438 375.132812 C 314.46875 377.519531 316.316406 380.671875 316.316406 384.59375 C 316.316406 388.152344 314.917969 391.261719 312.125 393.917969 C 309.332031 396.578125 305.792969 397.90625 301.511719 397.90625 C 297.90625 397.90625 294.792969 396.9375 292.179688 395 C 289.566406 393.0625 288.257812 390.609375 288.257812 387.632812 C 288.257812 386.375 288.664062 385.359375 289.476562 384.59375 C 290.289062 383.828125 291.300781 383.421875 292.519531 383.375 C 293.78125 383.375 294.816406 383.78125 295.628906 384.59375 C 296.441406 385.40625 296.84375 386.417969 296.84375 387.632812 C 296.84375 388.128906 296.777344 388.582031 296.640625 388.984375 C 296.507812 389.390625 296.347656 389.753906 296.167969 390.066406 C 295.988281 390.382812 295.742188 390.652344 295.425781 390.878906 C 295.109375 391.105469 294.839844 391.285156 294.613281 391.417969 C 294.390625 391.554688 294.164062 391.644531 293.9375 391.691406 C 293.710938 391.734375 293.53125 391.800781 293.398438 391.890625 L 293.125 391.960938 C 295.425781 393.988281 298.21875 395 301.511719 395 C 303.988281 395 305.859375 393.808594 307.121094 391.417969 C 307.886719 389.933594 308.269531 387.65625 308.269531 384.59375 L 308.269531 383.242188 C 308.269531 378.960938 306.828125 376.101562 303.945312 374.660156 C 303.269531 374.386719 301.894531 374.230469 299.820312 374.1875 L 296.980469 374.117188 L 296.777344 373.984375 C 296.6875 373.847656 296.640625 373.488281 296.640625 372.902344 C 296.640625 372.089844 296.824219 371.683594 297.183594 371.683594 C 298.445312 371.683594 299.753906 371.574219 301.105469 371.347656 C 302.636719 371.121094 304.035156 370.175781 305.296875 368.507812 C 306.558594 366.839844 307.1875 364.320312 307.1875 360.9375 L 307.1875 360.398438 C 307.1875 357.832031 306.402344 356.050781 304.824219 355.058594 C 303.832031 354.429688 302.773438 354.113281 301.644531 354.113281 C 300.203125 354.113281 298.875 354.359375 297.65625 354.855469 C 296.441406 355.351562 295.582031 355.871094 295.085938 356.410156 C 294.589844 356.953125 294.34375 357.222656 294.34375 357.222656 L 294.546875 357.222656 C 294.683594 357.265625 294.863281 357.3125 295.085938 357.359375 C 295.3125 357.402344 295.539062 357.515625 295.761719 357.695312 C 295.988281 357.875 296.257812 358.035156 296.574219 358.167969 C 296.890625 358.304688 297.117188 358.550781 297.25 358.910156 C 297.386719 359.273438 297.566406 359.609375 297.792969 359.925781 C 298.015625 360.242188 298.085938 360.691406 297.996094 361.277344 C 297.996094 362.269531 297.679688 363.148438 297.046875 363.914062 C 296.417969 364.679688 295.402344 365.085938 294.003906 365.128906 Z M 294.003906 365.128906 " fill-opacity="1" fill-rule="nonzero"/><path fill="#000000" d="M 330.3125 385.808594 C 330.3125 386.890625 329.949219 387.792969 329.230469 388.511719 C 328.507812 389.234375 327.628906 389.59375 326.59375 389.59375 L 326.121094 389.59375 C 328.191406 393.152344 330.941406 394.933594 334.367188 394.933594 C 337.523438 394.933594 339.820312 393.582031 341.265625 390.878906 C 342.121094 389.390625 342.546875 386.507812 342.546875 382.226562 C 342.546875 377.585938 341.941406 374.457031 340.722656 372.832031 C 339.550781 371.347656 338.242188 370.605469 336.800781 370.605469 L 336.394531 370.605469 C 332.878906 370.605469 330.222656 372.136719 328.417969 375.199219 C 328.238281 375.515625 328.082031 375.695312 327.945312 375.738281 C 327.808594 375.785156 327.472656 375.832031 326.929688 375.875 C 326.164062 375.875 325.738281 375.738281 325.644531 375.46875 C 325.554688 375.289062 325.511719 371.347656 325.511719 363.644531 L 325.511719 354.925781 C 325.511719 352.671875 325.625 351.546875 325.847656 351.546875 C 325.9375 351.457031 326.03125 351.410156 326.121094 351.410156 C 326.164062 351.410156 326.636719 351.589844 327.539062 351.949219 C 328.441406 352.3125 329.679688 352.671875 331.257812 353.03125 C 332.835938 353.394531 334.527344 353.574219 336.328125 353.574219 C 339.527344 353.574219 342.59375 352.941406 345.523438 351.679688 C 345.882812 351.5 346.175781 351.410156 346.402344 351.410156 C 346.761719 351.410156 346.941406 351.816406 346.941406 352.625 L 346.941406 353.503906 C 343.246094 357.875 338.628906 360.0625 333.082031 360.0625 C 331.6875 360.0625 330.425781 359.925781 329.296875 359.65625 L 328.621094 359.519531 L 328.621094 371.144531 C 329.476562 370.511719 330.152344 370.019531 330.648438 369.65625 C 331.144531 369.296875 331.957031 368.9375 333.082031 368.578125 C 334.210938 368.214844 335.359375 368.035156 336.53125 368.035156 C 340.183594 368.035156 343.269531 369.5 345.792969 372.429688 C 348.316406 375.355469 349.578125 378.828125 349.578125 382.835938 C 349.578125 386.980469 348.136719 390.519531 345.253906 393.445312 C 342.367188 396.375 338.851562 397.863281 334.707031 397.90625 C 331.054688 397.90625 328.125 396.691406 325.917969 394.257812 C 323.707031 391.824219 322.605469 389.078125 322.605469 386.011719 C 322.605469 384.929688 322.851562 384.074219 323.347656 383.445312 C 323.84375 382.8125 324.363281 382.410156 324.902344 382.226562 C 325.445312 382.046875 325.960938 381.957031 326.457031 381.957031 C 327.585938 381.957031 328.507812 382.339844 329.230469 383.105469 C 329.949219 383.871094 330.3125 384.773438 330.3125 385.808594 Z M 330.3125 385.808594 " fill-opacity="1" fill-rule="nonzero"/><path fill="#000000" d="M 410.644531 394.460938 C 410.644531 395.363281 410.171875 395.8125 409.222656 395.8125 C 409 395.8125 408.503906 395.453125 407.734375 394.730469 C 406.96875 394.011719 404.851562 391.914062 401.382812 388.445312 L 394.351562 381.417969 L 387.25 388.511719 C 382.472656 393.199219 380.015625 395.585938 379.882812 395.675781 C 379.703125 395.765625 379.542969 395.8125 379.410156 395.8125 C 379.046875 395.8125 378.730469 395.675781 378.460938 395.40625 C 378.191406 395.136719 378.035156 394.820312 377.988281 394.460938 C 377.988281 394.144531 378.304688 393.648438 378.933594 392.972656 C 379.566406 392.296875 381.683594 390.15625 385.289062 386.554688 L 392.320312 379.523438 L 385.289062 372.496094 C 381.640625 368.847656 379.519531 366.707031 378.933594 366.074219 C 378.347656 365.445312 378.035156 364.949219 377.988281 364.589844 C 377.988281 364.183594 378.125 363.867188 378.394531 363.644531 C 378.664062 363.417969 379.003906 363.304688 379.410156 363.304688 C 379.632812 363.304688 379.792969 363.328125 379.882812 363.371094 C 380.015625 363.460938 382.472656 365.851562 387.25 370.535156 L 394.351562 377.632812 L 401.382812 370.605469 C 404.851562 367.132812 406.96875 365.039062 407.734375 364.320312 C 408.503906 363.597656 409 363.238281 409.222656 363.238281 C 410.171875 363.238281 410.644531 363.6875 410.644531 364.589844 C 410.644531 364.902344 410.417969 365.308594 409.96875 365.804688 C 409.515625 366.300781 407.308594 368.507812 403.339844 372.429688 L 396.308594 379.523438 L 403.339844 386.621094 C 407.128906 390.40625 409.292969 392.589844 409.832031 393.175781 C 410.371094 393.761719 410.644531 394.191406 410.644531 394.460938 Z M 410.644531 394.460938 " fill-opacity="1" fill-rule="nonzero"/><path fill="#000000" d="M 450.074219 357.359375 L 449.195312 357.695312 C 448.5625 357.921875 447.660156 358.144531 446.488281 358.371094 C 445.316406 358.597656 444.011719 358.753906 442.566406 358.84375 L 441.285156 358.84375 L 441.285156 355.734375 L 442.566406 355.734375 C 444.6875 355.644531 446.648438 355.308594 448.449219 354.722656 C 450.253906 354.136719 451.515625 353.59375 452.234375 353.101562 C 452.957031 352.605469 453.589844 352.109375 454.128906 351.613281 C 454.21875 351.476562 454.488281 351.410156 454.941406 351.410156 C 455.347656 351.410156 455.730469 351.546875 456.089844 351.816406 L 456.089844 372.023438 L 456.15625 392.296875 C 456.472656 392.613281 456.742188 392.816406 456.96875 392.90625 C 457.195312 392.996094 457.734375 393.085938 458.589844 393.175781 C 459.449219 393.265625 460.84375 393.3125 462.78125 393.3125 L 464.539062 393.3125 L 464.539062 396.421875 L 463.796875 396.421875 C 462.851562 396.285156 459.265625 396.21875 453.046875 396.21875 C 446.917969 396.21875 443.378906 396.285156 442.433594 396.421875 L 441.621094 396.421875 L 441.621094 393.3125 L 443.378906 393.3125 C 444.371094 393.3125 445.226562 393.3125 445.949219 393.3125 C 446.667969 393.3125 447.234375 393.289062 447.636719 393.242188 C 448.042969 393.199219 448.40625 393.132812 448.71875 393.042969 C 449.035156 392.949219 449.214844 392.90625 449.261719 392.90625 C 449.304688 392.90625 449.441406 392.792969 449.667969 392.566406 C 449.890625 392.34375 450.027344 392.253906 450.074219 392.296875 Z M 450.074219 357.359375 " fill-opacity="1" fill-rule="nonzero"/><path fill="#000000" d="M 475.964844 356.882812 C 478.492188 353.234375 481.9375 351.410156 486.308594 351.410156 C 488.472656 351.410156 490.636719 351.996094 492.800781 353.167969 C 494.964844 354.339844 496.722656 356.410156 498.074219 359.386719 C 499.742188 363.125 500.574219 368.261719 500.574219 374.792969 C 500.574219 381.777344 499.605469 387.117188 497.667969 390.8125 C 496.765625 392.703125 495.527344 394.210938 493.949219 395.339844 C 492.371094 396.464844 490.996094 397.164062 489.824219 397.433594 C 488.652344 397.703125 487.503906 397.863281 486.378906 397.90625 C 485.207031 397.90625 484.035156 397.773438 482.863281 397.5 C 481.691406 397.230469 480.316406 396.511719 478.738281 395.339844 C 477.160156 394.167969 475.921875 392.660156 475.019531 390.8125 C 473.082031 387.117188 472.113281 381.777344 472.113281 374.792969 C 472.113281 366.953125 473.398438 360.984375 475.964844 356.882812 Z M 491.179688 356.074219 C 489.824219 354.632812 488.226562 353.910156 486.378906 353.910156 C 484.484375 353.910156 482.863281 354.632812 481.511719 356.074219 C 480.382812 357.246094 479.640625 358.867188 479.277344 360.9375 C 478.917969 363.011719 478.738281 367.335938 478.738281 373.914062 C 478.738281 381.035156 478.917969 385.71875 479.277344 387.972656 C 479.640625 390.226562 480.449219 392.003906 481.714844 393.3125 C 482.976562 394.664062 484.53125 395.339844 486.378906 395.339844 C 488.179688 395.339844 489.714844 394.664062 490.976562 393.3125 C 492.28125 391.960938 493.09375 390.066406 493.410156 387.632812 C 493.726562 385.203125 493.90625 380.628906 493.949219 373.914062 C 493.949219 367.382812 493.769531 363.078125 493.410156 361.007812 C 493.046875 358.933594 492.304688 357.289062 491.179688 356.074219 Z M 491.179688 356.074219 " fill-opacity="1" fill-rule="nonzero"/><path fill="#000000" d="M 509.527344 357.183594 C 509.527344 357.183594 509.527344 356.976562 509.527344 356.5625 C 509.527344 356.148438 509.75 355.832031 510.195312 355.609375 L 537.964844 355.609375 C 538.445312 355.863281 538.683594 356.179688 538.683594 356.5625 C 538.683594 356.945312 538.445312 357.265625 537.964844 357.519531 L 510.195312 357.519531 C 509.75 357.296875 509.527344 356.976562 509.527344 356.5625 Z M 509.527344 357.183594 " fill-opacity="1" fill-rule="nonzero"/><g clip-path="url(#6f5ff1a395)"><path fill="#000000" d="M 547.910156 348.011719 C 547.046875 348.011719 546.363281 347.722656 545.855469 347.152344 C 545.34375 346.578125 545.089844 345.875 545.089844 345.046875 C 545.089844 342.785156 545.933594 340.828125 547.621094 339.171875 C 549.3125 337.515625 551.414062 336.6875 553.929688 336.6875 C 556.832031 336.6875 559.253906 337.578125 561.195312 339.363281 C 563.140625 341.144531 564.128906 343.457031 564.160156 346.289062 C 564.160156 347.660156 563.84375 348.964844 563.203125 350.207031 C 562.566406 351.449219 561.800781 352.535156 560.910156 353.457031 C 560.019531 354.382812 558.742188 355.558594 557.085938 356.992188 C 555.9375 357.980469 554.347656 359.445312 552.304688 361.390625 L 549.484375 364.066406 L 553.117188 364.113281 C 558.121094 364.113281 560.78125 364.03125 561.101562 363.875 C 561.324219 363.808594 561.707031 362.394531 562.25 359.621094 L 562.25 359.476562 L 564.160156 359.476562 L 564.160156 359.621094 C 564.128906 359.71875 563.921875 361.167969 563.539062 363.96875 C 563.15625 366.773438 562.917969 368.238281 562.820312 368.367188 L 562.820312 368.507812 L 545.089844 368.507812 L 545.089844 367.027344 C 545.089844 366.804688 545.183594 366.566406 545.375 366.3125 C 545.566406 366.054688 546.042969 365.5 546.808594 364.636719 C 547.734375 363.617188 548.53125 362.726562 549.199219 361.960938 C 549.484375 361.644531 550.027344 361.054688 550.824219 360.195312 C 551.621094 359.335938 552.164062 358.746094 552.449219 358.425781 C 552.738281 358.109375 553.199219 357.582031 553.835938 356.851562 C 554.472656 356.117188 554.917969 355.574219 555.175781 355.226562 C 555.429688 354.875 555.796875 354.398438 556.273438 353.792969 C 556.75 353.1875 557.085938 352.675781 557.277344 352.261719 C 557.46875 351.847656 557.707031 351.386719 557.996094 350.878906 C 558.28125 350.367188 558.488281 349.859375 558.617188 349.347656 C 558.742188 348.839844 558.855469 348.359375 558.949219 347.914062 C 559.046875 347.46875 559.09375 346.945312 559.09375 346.339844 C 559.09375 344.332031 558.550781 342.59375 557.46875 341.128906 C 556.386719 339.664062 554.839844 338.933594 552.832031 338.933594 C 551.78125 338.933594 550.855469 339.203125 550.058594 339.746094 C 549.261719 340.285156 548.707031 340.8125 548.386719 341.320312 C 548.066406 341.832031 547.910156 342.132812 547.910156 342.230469 C 547.910156 342.261719 547.988281 342.277344 548.148438 342.277344 C 548.722656 342.277344 549.3125 342.5 549.917969 342.945312 C 550.523438 343.390625 550.824219 344.125 550.824219 345.144531 C 550.824219 345.941406 550.570312 346.609375 550.058594 347.152344 C 549.550781 347.691406 548.832031 347.980469 547.910156 348.011719 Z M 547.910156 348.011719 " fill-opacity="1" fill-rule="nonzero"/></g><g clip-path="url(#75c23b5d10)"><path fill="#000000" d="M 574.046875 345.800781 L 574.316406 345.734375 C 574.542969 345.734375 574.765625 345.734375 574.992188 345.734375 L 575.804688 345.734375 L 577.695312 347.355469 C 581.933594 351.183594 585.019531 355.960938 586.957031 361.683594 C 588.898438 367.40625 589.867188 373.351562 589.867188 379.523438 C 589.867188 382.589844 589.640625 385.539062 589.191406 388.378906 C 588.738281 391.214844 588.222656 393.628906 587.636719 395.609375 C 587.050781 397.59375 586.214844 399.574219 585.132812 401.558594 C 584.050781 403.539062 583.195312 405.046875 582.5625 406.085938 C 581.933594 407.121094 581.007812 408.269531 579.792969 409.53125 C 578.574219 410.792969 577.855469 411.535156 577.628906 411.761719 C 577.402344 411.988281 576.886719 412.414062 576.074219 413.046875 C 575.9375 413.179688 575.847656 413.269531 575.804688 413.316406 L 574.992188 413.316406 C 574.632812 413.316406 574.382812 413.316406 574.25 413.316406 C 574.113281 413.316406 574 413.25 573.910156 413.113281 C 573.820312 412.976562 573.753906 412.777344 573.707031 412.503906 C 573.753906 412.460938 574 412.167969 574.453125 411.625 C 581.4375 404.371094 584.929688 393.671875 584.929688 379.523438 C 584.929688 365.378906 581.4375 354.675781 574.453125 347.421875 C 574 346.882812 573.753906 346.589844 573.707031 346.542969 C 573.707031 346.183594 573.820312 345.9375 574.046875 345.800781 Z M 574.046875 345.800781 " fill-opacity="1" fill-rule="nonzero"/></g><path fill="#000000" d="M 653.90625 394.460938 C 653.90625 395.363281 653.429688 395.8125 652.484375 395.8125 C 652.257812 395.8125 651.761719 395.453125 650.996094 394.730469 C 650.230469 394.011719 648.113281 391.914062 644.640625 388.445312 L 637.609375 381.417969 L 630.511719 388.511719 C 625.734375 393.199219 623.277344 395.585938 623.144531 395.675781 C 622.960938 395.765625 622.804688 395.8125 622.667969 395.8125 C 622.308594 395.8125 621.992188 395.675781 621.722656 395.40625 C 621.453125 395.136719 621.292969 394.820312 621.25 394.460938 C 621.25 394.144531 621.566406 393.648438 622.195312 392.972656 C 622.828125 392.296875 624.945312 390.15625 628.550781 386.554688 L 635.582031 379.523438 L 628.550781 372.496094 C 624.902344 368.847656 622.78125 366.707031 622.195312 366.074219 C 621.609375 365.445312 621.292969 364.949219 621.25 364.589844 C 621.25 364.183594 621.386719 363.867188 621.65625 363.644531 C 621.925781 363.417969 622.265625 363.304688 622.667969 363.304688 C 622.894531 363.304688 623.050781 363.328125 623.144531 363.371094 C 623.277344 363.460938 625.734375 365.851562 630.511719 370.535156 L 637.609375 377.632812 L 644.640625 370.605469 C 648.113281 367.132812 650.230469 365.039062 650.996094 364.320312 C 651.761719 363.597656 652.257812 363.238281 652.484375 363.238281 C 653.429688 363.238281 653.90625 363.6875 653.90625 364.589844 C 653.90625 364.902344 653.679688 365.308594 653.226562 365.804688 C 652.777344 366.300781 650.570312 368.507812 646.601562 372.429688 L 639.570312 379.523438 L 646.601562 386.621094 C 650.390625 390.40625 652.550781 392.589844 653.09375 393.175781 C 653.632812 393.761719 653.90625 394.191406 653.90625 394.460938 Z M 653.90625 394.460938 " fill-opacity="1" fill-rule="nonzero"/><path fill="#000000" d="M 686.308594 367.425781 C 685.09375 367.425781 684.125 367.023438 683.402344 366.210938 C 682.679688 365.398438 682.320312 364.410156 682.320312 363.238281 C 682.320312 360.039062 683.515625 357.265625 685.902344 354.925781 C 688.292969 352.582031 691.265625 351.410156 694.828125 351.410156 C 698.929688 351.410156 702.355469 352.671875 705.105469 355.195312 C 707.855469 357.71875 709.25 360.984375 709.296875 364.996094 C 709.296875 366.933594 708.84375 368.777344 707.945312 370.535156 C 707.042969 372.292969 705.960938 373.824219 704.699219 375.132812 C 703.4375 376.4375 701.632812 378.105469 699.289062 380.132812 C 697.667969 381.53125 695.414062 383.601562 692.527344 386.351562 L 688.539062 390.136719 L 693.679688 390.203125 C 700.753906 390.203125 704.519531 390.089844 704.96875 389.863281 C 705.285156 389.773438 705.824219 387.769531 706.589844 383.851562 L 706.589844 383.648438 L 709.296875 383.648438 L 709.296875 383.851562 C 709.25 383.984375 708.957031 386.035156 708.417969 390 C 707.875 393.964844 707.539062 396.039062 707.402344 396.21875 L 707.402344 396.421875 L 682.320312 396.421875 L 682.320312 394.324219 C 682.320312 394.011719 682.457031 393.671875 682.726562 393.3125 C 682.996094 392.949219 683.671875 392.164062 684.753906 390.945312 C 686.0625 389.503906 687.1875 388.242188 688.132812 387.160156 C 688.539062 386.710938 689.304688 385.878906 690.433594 384.660156 C 691.558594 383.445312 692.328125 382.609375 692.730469 382.160156 C 693.136719 381.710938 693.792969 380.964844 694.691406 379.929688 C 695.59375 378.894531 696.226562 378.128906 696.585938 377.632812 C 696.945312 377.136719 697.464844 376.460938 698.140625 375.605469 C 698.816406 374.75 699.289062 374.027344 699.558594 373.441406 C 699.832031 372.855469 700.167969 372.203125 700.574219 371.480469 C 700.980469 370.761719 701.273438 370.039062 701.453125 369.320312 C 701.632812 368.597656 701.792969 367.921875 701.925781 367.292969 C 702.0625 366.660156 702.128906 365.917969 702.128906 365.0625 C 702.128906 362.222656 701.363281 359.769531 699.832031 357.695312 C 698.296875 355.621094 696.113281 354.585938 693.273438 354.585938 C 691.785156 354.585938 690.476562 354.96875 689.351562 355.734375 C 688.226562 356.5 687.4375 357.246094 686.984375 357.964844 C 686.535156 358.6875 686.308594 359.113281 686.308594 359.25 C 686.308594 359.292969 686.421875 359.316406 686.648438 359.316406 C 687.457031 359.316406 688.292969 359.632812 689.148438 360.261719 C 690.003906 360.894531 690.433594 361.929688 690.433594 363.371094 C 690.433594 364.5 690.074219 365.445312 689.351562 366.210938 C 688.628906 366.976562 687.617188 367.382812 686.308594 367.425781 Z M 686.308594 367.425781 " fill-opacity="1" fill-rule="nonzero"/></svg>