<svg xmlns="http://www.w3.org/2000/svg" xmlns:xlink="http://www.w3.org/1999/xlink" width="1000" zoomAndPan="magnify" viewBox="0 0 750 749.999995" height="1000" preserveAspectRatio="xMidYMid meet" version="1.0"><defs><clipPath id="7ba7b3115a"><path d="M 44 344 L 62 344 L 62 415.585938 L 44 415.585938 Z M 44 344 " clip-rule="nonzero"/></clipPath><clipPath id="0c6ca60b64"><path d="M 535 334.414062 L 557 334.414062 L 557 370 L 535 370 Z M 535 334.414062 " clip-rule="nonzero"/></clipPath><clipPath id="a3025c05e8"><path d="M 566 344 L 584 344 L 584 415.585938 L 566 415.585938 Z M 566 344 " clip-rule="nonzero"/></clipPath></defs><rect x="-75" width="900" fill="#ffffff" y="-74.999999" height="899.999994" fill-opacity="1"/><rect x="-75" width="900" fill="#ffffff" y="-74.999999" height="899.999994" fill-opacity="1"/><g clip-path="url(#7ba7b3115a)"><path fill="#000000" d="M 44.191406 379.738281 C 44.191406 376.464844 44.429688 373.359375 44.902344 370.417969 C 45.378906 367.476562 45.921875 364.941406 46.539062 362.804688 C 47.15625 360.671875 48.035156 358.585938 49.171875 356.542969 C 50.3125 354.503906 51.214844 352.917969 51.878906 351.777344 C 52.542969 350.640625 53.539062 349.40625 54.867188 348.078125 C 56.195312 346.75 56.980469 345.945312 57.21875 345.660156 C 57.453125 345.375 58.046875 344.878906 58.996094 344.164062 L 60.207031 344.164062 C 60.871094 344.164062 61.203125 344.378906 61.203125 344.804688 C 61.203125 344.949219 60.800781 345.445312 59.992188 346.300781 C 59.1875 347.152344 58.214844 348.410156 57.074219 350.070312 C 55.9375 351.730469 54.773438 353.769531 53.585938 356.1875 C 52.402344 358.609375 51.402344 361.878906 50.597656 366.007812 C 49.789062 370.132812 49.386719 374.710938 49.386719 379.738281 C 49.386719 384.765625 49.789062 389.320312 50.597656 393.398438 C 51.402344 397.476562 52.375 400.773438 53.515625 403.289062 C 54.65625 405.800781 55.816406 407.839844 57.003906 409.40625 C 58.191406 410.972656 59.1875 412.226562 59.992188 413.175781 C 60.800781 414.125 61.203125 414.625 61.203125 414.671875 C 61.203125 415.097656 60.847656 415.3125 60.136719 415.3125 L 58.996094 415.3125 L 57.003906 413.605469 C 52.542969 409.570312 49.292969 404.542969 47.25 398.519531 C 45.210938 392.496094 44.191406 386.234375 44.191406 379.738281 Z M 44.191406 379.738281 " fill-opacity="1" fill-rule="nonzero"/></g><path fill="#000000" d="M 72.023438 355.90625 C 74.679688 352.0625 78.3125 350.140625 82.914062 350.140625 C 85.191406 350.140625 87.46875 350.757812 89.746094 351.992188 C 92.023438 353.226562 93.875 355.40625 95.300781 358.535156 C 97.054688 362.472656 97.933594 367.878906 97.933594 374.757812 C 97.933594 382.109375 96.914062 387.730469 94.871094 391.621094 C 93.921875 393.613281 92.617188 395.199219 90.957031 396.386719 C 89.296875 397.570312 87.847656 398.308594 86.617188 398.59375 C 85.382812 398.875 84.171875 399.042969 82.984375 399.089844 C 81.75 399.089844 80.515625 398.949219 79.285156 398.664062 C 78.050781 398.378906 76.601562 397.621094 74.941406 396.386719 C 73.28125 395.152344 71.976562 393.5625 71.027344 391.621094 C 68.984375 387.730469 67.964844 382.109375 67.964844 374.757812 C 67.964844 366.503906 69.316406 360.222656 72.023438 355.90625 Z M 88.039062 355.050781 C 86.617188 353.53125 84.929688 352.773438 82.984375 352.773438 C 80.992188 352.773438 79.285156 353.53125 77.859375 355.050781 C 76.671875 356.285156 75.890625 357.992188 75.511719 360.171875 C 75.132812 362.355469 74.941406 366.910156 74.941406 373.832031 C 74.941406 381.328125 75.132812 386.261719 75.511719 388.632812 C 75.890625 391.003906 76.746094 392.875 78.074219 394.253906 C 79.402344 395.675781 81.039062 396.386719 82.984375 396.386719 C 84.882812 396.386719 86.496094 395.675781 87.824219 394.253906 C 89.203125 392.828125 90.054688 390.835938 90.386719 388.277344 C 90.71875 385.714844 90.910156 380.898438 90.957031 373.832031 C 90.957031 366.957031 90.765625 362.425781 90.386719 360.246094 C 90.007812 358.0625 89.226562 356.332031 88.039062 355.050781 Z M 88.039062 355.050781 " fill-opacity="1" fill-rule="nonzero"/><path fill="#000000" d="M 106.332031 393.257812 C 106.332031 392.117188 106.734375 391.121094 107.542969 390.269531 C 108.347656 389.414062 109.371094 388.988281 110.601562 388.988281 C 111.742188 388.988281 112.738281 389.367188 113.59375 390.125 C 114.445312 390.882812 114.898438 391.902344 114.945312 393.183594 C 114.945312 394.371094 114.542969 395.390625 113.734375 396.242188 C 112.929688 397.097656 111.910156 397.523438 110.675781 397.523438 C 109.441406 397.523438 108.421875 397.121094 107.613281 396.316406 C 106.808594 395.507812 106.378906 394.488281 106.332031 393.257812 Z M 106.332031 393.257812 " fill-opacity="1" fill-rule="nonzero"/><path fill="#000000" d="M 127.402344 355.90625 C 130.058594 352.0625 133.691406 350.140625 138.292969 350.140625 C 140.570312 350.140625 142.847656 350.757812 145.125 351.992188 C 147.402344 353.226562 149.253906 355.40625 150.679688 358.535156 C 152.433594 362.472656 153.3125 367.878906 153.3125 374.757812 C 153.3125 382.109375 152.292969 387.730469 150.25 391.621094 C 149.300781 393.613281 147.996094 395.199219 146.335938 396.386719 C 144.675781 397.570312 143.226562 398.308594 141.996094 398.59375 C 140.761719 398.875 139.550781 399.042969 138.363281 399.089844 C 137.128906 399.089844 135.898438 398.949219 134.664062 398.664062 C 133.429688 398.378906 131.980469 397.621094 130.320312 396.386719 C 128.660156 395.152344 127.355469 393.5625 126.40625 391.621094 C 124.363281 387.730469 123.34375 382.109375 123.34375 374.757812 C 123.34375 366.503906 124.699219 360.222656 127.402344 355.90625 Z M 143.417969 355.050781 C 141.996094 353.53125 140.308594 352.773438 138.363281 352.773438 C 136.371094 352.773438 134.664062 353.53125 133.238281 355.050781 C 132.054688 356.285156 131.269531 357.992188 130.890625 360.171875 C 130.511719 362.355469 130.320312 366.910156 130.320312 373.832031 C 130.320312 381.328125 130.511719 386.261719 130.890625 388.632812 C 131.269531 391.003906 132.125 392.875 133.453125 394.253906 C 134.78125 395.675781 136.417969 396.386719 138.363281 396.386719 C 140.261719 396.386719 141.875 395.675781 143.203125 394.253906 C 144.582031 392.828125 145.433594 390.835938 145.765625 388.277344 C 146.097656 385.714844 146.289062 380.898438 146.335938 373.832031 C 146.335938 366.957031 146.148438 362.425781 145.765625 360.246094 C 145.386719 358.0625 144.605469 356.332031 143.417969 355.050781 Z M 143.417969 355.050781 " fill-opacity="1" fill-rule="nonzero"/><path fill="#000000" d="M 162.992188 355.90625 C 165.652344 352.0625 169.28125 350.140625 173.882812 350.140625 C 176.160156 350.140625 178.4375 350.757812 180.71875 351.992188 C 182.996094 353.226562 184.847656 355.40625 186.269531 358.535156 C 188.023438 362.472656 188.902344 367.878906 188.902344 374.757812 C 188.902344 382.109375 187.882812 387.730469 185.84375 391.621094 C 184.894531 393.613281 183.589844 395.199219 181.925781 396.386719 C 180.265625 397.570312 178.820312 398.308594 177.585938 398.59375 C 176.351562 398.875 175.140625 399.042969 173.953125 399.089844 C 172.722656 399.089844 171.488281 398.949219 170.253906 398.664062 C 169.019531 398.378906 167.574219 397.621094 165.910156 396.386719 C 164.25 395.152344 162.945312 393.5625 161.996094 391.621094 C 159.957031 387.730469 158.9375 382.109375 158.9375 374.757812 C 158.9375 366.503906 160.289062 360.222656 162.992188 355.90625 Z M 179.007812 355.050781 C 177.585938 353.53125 175.902344 352.773438 173.953125 352.773438 C 171.960938 352.773438 170.253906 353.53125 168.828125 355.050781 C 167.644531 356.285156 166.859375 357.992188 166.480469 360.171875 C 166.101562 362.355469 165.910156 366.910156 165.910156 373.832031 C 165.910156 381.328125 166.101562 386.261719 166.480469 388.632812 C 166.859375 391.003906 167.714844 392.875 169.042969 394.253906 C 170.371094 395.675781 172.007812 396.386719 173.953125 396.386719 C 175.851562 396.386719 177.464844 395.675781 178.796875 394.253906 C 180.171875 392.828125 181.027344 390.835938 181.359375 388.277344 C 181.691406 385.714844 181.878906 380.898438 181.925781 373.832031 C 181.925781 366.957031 181.738281 362.425781 181.359375 360.246094 C 180.976562 358.0625 180.195312 356.332031 179.007812 355.050781 Z M 179.007812 355.050781 " fill-opacity="1" fill-rule="nonzero"/><path fill="#000000" d="M 206.910156 356.402344 L 205.988281 356.757812 C 205.324219 356.996094 204.375 357.234375 203.140625 357.46875 C 201.90625 357.707031 200.53125 357.871094 199.011719 357.96875 L 197.660156 357.96875 L 197.660156 354.695312 L 199.011719 354.695312 C 201.242188 354.601562 203.304688 354.246094 205.203125 353.628906 C 207.101562 353.011719 208.429688 352.441406 209.191406 351.921875 C 209.949219 351.398438 210.613281 350.878906 211.183594 350.355469 C 211.277344 350.214844 211.5625 350.140625 212.035156 350.140625 C 212.464844 350.140625 212.867188 350.285156 213.246094 350.570312 L 213.246094 371.839844 L 213.316406 393.183594 C 213.652344 393.515625 213.933594 393.730469 214.171875 393.824219 C 214.410156 393.921875 214.980469 394.015625 215.882812 394.109375 C 216.78125 394.203125 218.253906 394.253906 220.292969 394.253906 L 222.144531 394.253906 L 222.144531 397.523438 L 221.363281 397.523438 C 220.367188 397.382812 216.59375 397.3125 210.042969 397.3125 C 203.589844 397.3125 199.863281 397.382812 198.867188 397.523438 L 198.015625 397.523438 L 198.015625 394.253906 L 199.863281 394.253906 C 200.910156 394.253906 201.8125 394.253906 202.570312 394.253906 C 203.328125 394.253906 203.921875 394.226562 204.347656 394.179688 C 204.777344 394.132812 205.15625 394.0625 205.488281 393.96875 C 205.820312 393.871094 206.011719 393.824219 206.058594 393.824219 C 206.105469 393.824219 206.246094 393.707031 206.484375 393.46875 C 206.722656 393.230469 206.863281 393.136719 206.910156 393.183594 Z M 206.910156 356.402344 " fill-opacity="1" fill-rule="nonzero"/><path fill="#000000" d="M 242.503906 356.402344 L 241.578125 356.757812 C 240.914062 356.996094 239.964844 357.234375 238.730469 357.46875 C 237.496094 357.707031 236.121094 357.871094 234.601562 357.96875 L 233.25 357.96875 L 233.25 354.695312 L 234.601562 354.695312 C 236.832031 354.601562 238.894531 354.246094 240.792969 353.628906 C 242.691406 353.011719 244.019531 352.441406 244.78125 351.921875 C 245.539062 351.398438 246.203125 350.878906 246.773438 350.355469 C 246.867188 350.214844 247.152344 350.140625 247.628906 350.140625 C 248.054688 350.140625 248.457031 350.285156 248.839844 350.570312 L 248.839844 371.839844 L 248.910156 393.183594 C 249.242188 393.515625 249.527344 393.730469 249.761719 393.824219 C 250 393.921875 250.570312 394.015625 251.472656 394.109375 C 252.375 394.203125 253.84375 394.253906 255.886719 394.253906 L 257.734375 394.253906 L 257.734375 397.523438 L 256.953125 397.523438 C 255.957031 397.382812 252.183594 397.3125 245.636719 397.3125 C 239.179688 397.3125 235.457031 397.382812 234.460938 397.523438 L 233.605469 397.523438 L 233.605469 394.253906 L 235.457031 394.253906 C 236.5 394.253906 237.402344 394.253906 238.160156 394.253906 C 238.921875 394.253906 239.511719 394.226562 239.941406 394.179688 C 240.367188 394.132812 240.746094 394.0625 241.078125 393.96875 C 241.410156 393.871094 241.601562 393.824219 241.648438 393.824219 C 241.695312 393.824219 241.839844 393.707031 242.074219 393.46875 C 242.3125 393.230469 242.457031 393.136719 242.503906 393.183594 Z M 242.503906 356.402344 " fill-opacity="1" fill-rule="nonzero"/><path fill="#000000" d="M 271.972656 364.585938 C 270.691406 364.585938 269.695312 364.179688 268.980469 363.375 C 268.269531 362.570312 267.890625 361.523438 267.84375 360.246094 C 267.84375 357.636719 268.980469 355.3125 271.261719 353.273438 C 273.539062 351.234375 276.289062 350.214844 279.515625 350.214844 C 281.179688 350.214844 282.222656 350.238281 282.648438 350.285156 C 286.160156 350.851562 288.84375 352.109375 290.691406 354.054688 C 292.542969 356 293.492188 358.109375 293.539062 360.386719 C 293.539062 362.851562 292.734375 365.25 291.121094 367.574219 C 289.507812 369.898438 287.277344 371.582031 284.429688 372.625 L 284.214844 372.765625 C 284.214844 372.8125 284.429688 372.882812 284.855469 372.980469 C 285.28125 373.074219 285.972656 373.289062 286.921875 373.621094 C 287.871094 373.953125 288.769531 374.449219 289.625 375.113281 C 293.515625 377.628906 295.460938 380.949219 295.460938 385.074219 C 295.460938 388.820312 293.992188 392.09375 291.046875 394.890625 C 288.105469 397.691406 284.382812 399.089844 279.875 399.089844 C 276.078125 399.089844 272.800781 398.070312 270.050781 396.03125 C 267.296875 393.992188 265.921875 391.40625 265.921875 388.277344 C 265.921875 386.949219 266.347656 385.878906 267.203125 385.074219 C 268.058594 384.269531 269.125 383.839844 270.40625 383.792969 C 271.734375 383.792969 272.824219 384.21875 273.679688 385.074219 C 274.535156 385.929688 274.960938 386.996094 274.960938 388.277344 C 274.960938 388.796875 274.890625 389.273438 274.746094 389.699219 C 274.605469 390.125 274.441406 390.503906 274.25 390.835938 C 274.058594 391.167969 273.800781 391.453125 273.464844 391.691406 C 273.132812 391.929688 272.851562 392.117188 272.613281 392.261719 C 272.375 392.402344 272.136719 392.496094 271.902344 392.542969 C 271.664062 392.59375 271.472656 392.664062 271.332031 392.757812 L 271.046875 392.828125 C 273.464844 394.964844 276.410156 396.03125 279.875 396.03125 C 282.484375 396.03125 284.453125 394.773438 285.78125 392.261719 C 286.585938 390.695312 286.992188 388.300781 286.992188 385.074219 L 286.992188 383.652344 C 286.992188 379.144531 285.472656 376.132812 282.4375 374.617188 C 281.722656 374.332031 280.277344 374.164062 278.09375 374.117188 L 275.105469 374.046875 L 274.890625 373.90625 C 274.796875 373.761719 274.746094 373.382812 274.746094 372.765625 C 274.746094 371.914062 274.9375 371.484375 275.316406 371.484375 C 276.644531 371.484375 278.023438 371.367188 279.445312 371.128906 C 281.058594 370.890625 282.53125 369.898438 283.859375 368.140625 C 285.1875 366.386719 285.851562 363.730469 285.851562 360.171875 L 285.851562 359.605469 C 285.851562 356.902344 285.023438 355.027344 283.359375 353.984375 C 282.316406 353.320312 281.203125 352.988281 280.015625 352.988281 C 278.496094 352.988281 277.097656 353.25 275.816406 353.769531 C 274.535156 354.292969 273.632812 354.835938 273.109375 355.40625 C 272.589844 355.976562 272.328125 356.261719 272.328125 356.261719 L 272.542969 356.261719 C 272.683594 356.308594 272.875 356.355469 273.109375 356.402344 C 273.347656 356.449219 273.585938 356.570312 273.824219 356.757812 C 274.058594 356.949219 274.34375 357.113281 274.675781 357.257812 C 275.007812 357.398438 275.246094 357.660156 275.386719 358.039062 C 275.53125 358.417969 275.722656 358.773438 275.957031 359.105469 C 276.195312 359.4375 276.265625 359.914062 276.171875 360.527344 C 276.171875 361.574219 275.839844 362.496094 275.175781 363.304688 C 274.511719 364.109375 273.441406 364.535156 271.972656 364.585938 Z M 271.972656 364.585938 " fill-opacity="1" fill-rule="nonzero"/><path fill="#000000" d="M 331.410156 397.523438 C 330.554688 397.382812 327.492188 397.3125 322.226562 397.3125 C 316.722656 397.3125 313.542969 397.382812 312.6875 397.523438 L 312.046875 397.523438 L 312.046875 394.253906 L 314.253906 394.253906 C 315.203125 394.253906 315.84375 394.253906 316.175781 394.253906 C 316.507812 394.253906 316.910156 394.203125 317.386719 394.109375 C 317.859375 394.015625 318.191406 393.894531 318.382812 393.753906 C 318.570312 393.613281 318.738281 393.421875 318.878906 393.183594 C 318.929688 393.089844 318.953125 391.808594 318.953125 389.34375 L 318.953125 385.785156 L 300.515625 385.785156 L 300.515625 382.511719 L 311.265625 366.078125 C 318.523438 355.074219 322.203125 349.550781 322.296875 349.5 C 322.390625 349.40625 322.890625 349.359375 323.792969 349.359375 L 325.074219 349.359375 L 325.5 349.785156 L 325.5 382.511719 L 332.050781 382.511719 L 332.050781 385.785156 L 325.5 385.785156 L 325.5 389.414062 C 325.5 391.359375 325.5 392.496094 325.5 392.828125 C 325.5 393.160156 325.644531 393.445312 325.925781 393.683594 C 326.308594 394.015625 327.660156 394.203125 329.984375 394.253906 L 332.050781 394.253906 L 332.050781 397.523438 Z M 319.378906 382.511719 L 319.378906 358.75 L 303.789062 382.441406 L 311.550781 382.511719 Z M 319.378906 382.511719 " fill-opacity="1" fill-rule="nonzero"/><path fill="#000000" d="M 394.773438 395.460938 C 394.773438 396.410156 394.277344 396.882812 393.28125 396.882812 C 393.042969 396.882812 392.519531 396.503906 391.714844 395.746094 C 390.90625 394.988281 388.675781 392.78125 385.023438 389.128906 L 377.621094 381.730469 L 370.144531 389.199219 C 365.117188 394.132812 362.527344 396.648438 362.386719 396.742188 C 362.195312 396.835938 362.03125 396.882812 361.886719 396.882812 C 361.507812 396.882812 361.175781 396.742188 360.890625 396.457031 C 360.605469 396.171875 360.441406 395.839844 360.394531 395.460938 C 360.394531 395.128906 360.726562 394.609375 361.390625 393.894531 C 362.054688 393.183594 364.285156 390.933594 368.082031 387.136719 L 375.484375 379.738281 L 368.082031 372.339844 C 364.238281 368.496094 362.007812 366.246094 361.390625 365.582031 C 360.773438 364.917969 360.441406 364.394531 360.394531 364.015625 C 360.394531 363.589844 360.535156 363.257812 360.820312 363.019531 C 361.105469 362.78125 361.460938 362.664062 361.886719 362.664062 C 362.125 362.664062 362.292969 362.6875 362.386719 362.734375 C 362.527344 362.828125 365.117188 365.34375 370.144531 370.277344 L 377.621094 377.746094 L 385.023438 370.347656 C 388.675781 366.695312 390.90625 364.488281 391.714844 363.730469 C 392.519531 362.972656 393.042969 362.59375 393.28125 362.59375 C 394.277344 362.59375 394.773438 363.066406 394.773438 364.015625 C 394.773438 364.347656 394.535156 364.773438 394.0625 365.296875 C 393.589844 365.816406 391.261719 368.140625 387.085938 372.269531 L 379.683594 379.738281 L 387.085938 387.207031 C 391.074219 391.191406 393.351562 393.492188 393.921875 394.109375 C 394.488281 394.726562 394.773438 395.175781 394.773438 395.460938 Z M 394.773438 395.460938 " fill-opacity="1" fill-rule="nonzero"/><path fill="#000000" d="M 436.289062 356.402344 L 435.363281 356.757812 C 434.699219 356.996094 433.75 357.234375 432.515625 357.46875 C 431.28125 357.707031 429.90625 357.871094 428.386719 357.96875 L 427.035156 357.96875 L 427.035156 354.695312 L 428.386719 354.695312 C 430.617188 354.601562 432.679688 354.246094 434.578125 353.628906 C 436.476562 353.011719 437.804688 352.441406 438.566406 351.921875 C 439.324219 351.398438 439.988281 350.878906 440.558594 350.355469 C 440.652344 350.214844 440.9375 350.140625 441.414062 350.140625 C 441.839844 350.140625 442.242188 350.285156 442.621094 350.570312 L 442.621094 371.839844 L 442.695312 393.183594 C 443.027344 393.515625 443.3125 393.730469 443.546875 393.824219 C 443.785156 393.921875 444.355469 394.015625 445.257812 394.109375 C 446.15625 394.203125 447.628906 394.253906 449.667969 394.253906 L 451.519531 394.253906 L 451.519531 397.523438 L 450.738281 397.523438 C 449.742188 397.382812 445.96875 397.3125 439.417969 397.3125 C 432.964844 397.3125 429.242188 397.382812 428.242188 397.523438 L 427.390625 397.523438 L 427.390625 394.253906 L 429.242188 394.253906 C 430.285156 394.253906 431.1875 394.253906 431.945312 394.253906 C 432.703125 394.253906 433.296875 394.226562 433.726562 394.179688 C 434.152344 394.132812 434.53125 394.0625 434.863281 393.96875 C 435.195312 393.871094 435.386719 393.824219 435.433594 393.824219 C 435.480469 393.824219 435.621094 393.707031 435.859375 393.46875 C 436.097656 393.230469 436.238281 393.136719 436.289062 393.183594 Z M 436.289062 356.402344 " fill-opacity="1" fill-rule="nonzero"/><path fill="#000000" d="M 463.550781 355.90625 C 466.207031 352.0625 469.835938 350.140625 474.441406 350.140625 C 476.71875 350.140625 478.996094 350.757812 481.273438 351.992188 C 483.550781 353.226562 485.402344 355.40625 486.828125 358.535156 C 488.582031 362.472656 489.460938 367.878906 489.460938 374.757812 C 489.460938 382.109375 488.441406 387.730469 486.398438 391.621094 C 485.449219 393.613281 484.144531 395.199219 482.484375 396.386719 C 480.824219 397.570312 479.375 398.308594 478.140625 398.59375 C 476.910156 398.875 475.699219 399.042969 474.511719 399.089844 C 473.277344 399.089844 472.042969 398.949219 470.808594 398.664062 C 469.578125 398.378906 468.128906 397.621094 466.46875 396.386719 C 464.808594 395.152344 463.503906 393.5625 462.554688 391.621094 C 460.511719 387.730469 459.492188 382.109375 459.492188 374.757812 C 459.492188 366.503906 460.84375 360.222656 463.550781 355.90625 Z M 479.566406 355.050781 C 478.140625 353.53125 476.457031 352.773438 474.511719 352.773438 C 472.519531 352.773438 470.808594 353.53125 469.386719 355.050781 C 468.199219 356.285156 467.417969 357.992188 467.039062 360.171875 C 466.65625 362.355469 466.46875 366.910156 466.46875 373.832031 C 466.46875 381.328125 466.65625 386.261719 467.039062 388.632812 C 467.417969 391.003906 468.273438 392.875 469.601562 394.253906 C 470.929688 395.675781 472.566406 396.386719 474.511719 396.386719 C 476.410156 396.386719 478.023438 395.675781 479.351562 394.253906 C 480.726562 392.828125 481.582031 390.835938 481.914062 388.277344 C 482.246094 385.714844 482.4375 380.898438 482.484375 373.832031 C 482.484375 366.957031 482.292969 362.425781 481.914062 360.246094 C 481.535156 358.0625 480.753906 356.332031 479.566406 355.050781 Z M 479.566406 355.050781 " fill-opacity="1" fill-rule="nonzero"/><path fill="#000000" d="M 498.882812 356.21875 C 498.882812 356.21875 498.882812 356.003906 498.882812 355.566406 C 498.882812 355.128906 499.117188 354.796875 499.589844 354.5625 L 528.828125 354.5625 C 529.332031 354.828125 529.582031 355.164062 529.582031 355.566406 C 529.582031 355.96875 529.332031 356.304688 528.828125 356.574219 L 499.589844 356.574219 C 499.117188 356.339844 498.882812 356.003906 498.882812 355.566406 Z M 498.882812 356.21875 " fill-opacity="1" fill-rule="nonzero"/><g clip-path="url(#0c6ca60b64)"><path fill="#000000" d="M 540.199219 344.851562 C 539.292969 344.851562 538.589844 344.566406 538.085938 343.996094 C 537.582031 343.425781 537.316406 342.691406 537.28125 341.785156 C 537.28125 339.941406 538.085938 338.296875 539.699219 336.855469 C 541.308594 335.414062 543.253906 334.691406 545.535156 334.691406 C 546.710938 334.691406 547.449219 334.710938 547.75 334.742188 C 550.230469 335.144531 552.128906 336.035156 553.4375 337.410156 C 554.746094 338.785156 555.414062 340.277344 555.449219 341.886719 C 555.449219 343.628906 554.878906 345.320312 553.738281 346.964844 C 552.597656 348.609375 551.019531 349.800781 549.007812 350.535156 L 548.855469 350.636719 C 548.855469 350.671875 549.007812 350.722656 549.308594 350.789062 C 549.613281 350.855469 550.097656 351.007812 550.769531 351.242188 C 551.441406 351.476562 552.078125 351.828125 552.679688 352.296875 C 555.433594 354.074219 556.808594 356.421875 556.808594 359.339844 C 556.808594 361.988281 555.769531 364.300781 553.6875 366.28125 C 551.609375 368.257812 548.972656 369.25 545.785156 369.25 C 543.101562 369.25 540.789062 368.527344 538.84375 367.085938 C 536.894531 365.644531 535.921875 363.816406 535.921875 361.601562 C 535.921875 360.664062 536.226562 359.910156 536.828125 359.339844 C 537.433594 358.769531 538.1875 358.46875 539.09375 358.433594 C 540.03125 358.433594 540.804688 358.734375 541.410156 359.339844 C 542.011719 359.941406 542.3125 360.695312 542.3125 361.601562 C 542.3125 361.972656 542.265625 362.308594 542.164062 362.609375 C 542.0625 362.910156 541.945312 363.179688 541.8125 363.414062 C 541.675781 363.648438 541.492188 363.847656 541.257812 364.015625 C 541.023438 364.183594 540.820312 364.320312 540.652344 364.417969 C 540.484375 364.519531 540.316406 364.585938 540.148438 364.621094 C 539.984375 364.652344 539.847656 364.703125 539.746094 364.773438 L 539.546875 364.820312 C 541.257812 366.332031 543.335938 367.085938 545.785156 367.085938 C 547.632812 367.085938 549.023438 366.195312 549.964844 364.417969 C 550.535156 363.3125 550.820312 361.621094 550.820312 359.339844 L 550.820312 358.332031 C 550.820312 355.148438 549.746094 353.019531 547.597656 351.945312 C 547.09375 351.742188 546.070312 351.625 544.527344 351.59375 L 542.414062 351.542969 L 542.265625 351.441406 C 542.195312 351.339844 542.164062 351.074219 542.164062 350.636719 C 542.164062 350.035156 542.296875 349.730469 542.566406 349.730469 C 543.503906 349.730469 544.476562 349.648438 545.484375 349.480469 C 546.625 349.3125 547.664062 348.609375 548.605469 347.367188 C 549.542969 346.128906 550.015625 344.25 550.015625 341.734375 L 550.015625 341.332031 C 550.015625 339.421875 549.425781 338.097656 548.253906 337.359375 C 547.515625 336.886719 546.726562 336.652344 545.886719 336.652344 C 544.8125 336.652344 543.824219 336.839844 542.917969 337.207031 C 542.011719 337.574219 541.375 337.960938 541.003906 338.363281 C 540.636719 338.765625 540.453125 338.96875 540.453125 338.96875 L 540.601562 338.96875 C 540.703125 339 540.839844 339.035156 541.003906 339.066406 C 541.171875 339.101562 541.339844 339.1875 541.507812 339.320312 C 541.675781 339.453125 541.878906 339.570312 542.113281 339.671875 C 542.347656 339.773438 542.515625 339.957031 542.617188 340.226562 C 542.71875 340.492188 542.851562 340.746094 543.019531 340.980469 C 543.1875 341.214844 543.238281 341.550781 543.167969 341.984375 C 543.167969 342.722656 542.933594 343.378906 542.464844 343.949219 C 541.996094 344.515625 541.242188 344.820312 540.199219 344.851562 Z M 540.199219 344.851562 " fill-opacity="1" fill-rule="nonzero"/></g><g clip-path="url(#a3025c05e8)"><path fill="#000000" d="M 566.8125 344.238281 L 567.097656 344.164062 C 567.335938 344.164062 567.570312 344.164062 567.808594 344.164062 L 568.664062 344.164062 L 570.65625 345.875 C 575.117188 349.90625 578.367188 354.933594 580.410156 360.957031 C 582.449219 366.980469 583.46875 373.242188 583.46875 379.738281 C 583.46875 382.964844 583.230469 386.070312 582.757812 389.058594 C 582.28125 392.046875 581.738281 394.585938 581.121094 396.671875 C 580.503906 398.757812 579.625 400.84375 578.488281 402.933594 C 577.347656 405.019531 576.445312 406.609375 575.78125 407.699219 C 575.117188 408.789062 574.144531 410 572.863281 411.328125 C 571.582031 412.65625 570.824219 413.4375 570.585938 413.675781 C 570.347656 413.910156 569.800781 414.363281 568.949219 415.027344 C 568.804688 415.167969 568.710938 415.261719 568.664062 415.3125 L 567.808594 415.3125 C 567.429688 415.3125 567.167969 415.3125 567.027344 415.3125 C 566.882812 415.3125 566.765625 415.238281 566.671875 415.097656 C 566.574219 414.957031 566.503906 414.742188 566.457031 414.457031 C 566.503906 414.410156 566.765625 414.101562 567.238281 413.53125 C 574.59375 405.894531 578.273438 394.632812 578.273438 379.738281 C 578.273438 364.84375 574.59375 353.582031 567.238281 345.945312 C 566.765625 345.375 566.503906 345.066406 566.457031 345.019531 C 566.457031 344.640625 566.574219 344.378906 566.8125 344.238281 Z M 566.8125 344.238281 " fill-opacity="1" fill-rule="nonzero"/></g><path fill="#000000" d="M 650.890625 395.460938 C 650.890625 396.410156 650.394531 396.882812 649.398438 396.882812 C 649.160156 396.882812 648.636719 396.503906 647.832031 395.746094 C 647.023438 394.988281 644.792969 392.78125 641.140625 389.128906 L 633.738281 381.730469 L 626.265625 389.199219 C 621.234375 394.132812 618.648438 396.648438 618.503906 396.742188 C 618.316406 396.835938 618.148438 396.882812 618.007812 396.882812 C 617.628906 396.882812 617.292969 396.742188 617.011719 396.457031 C 616.726562 396.171875 616.558594 395.839844 616.511719 395.460938 C 616.511719 395.128906 616.84375 394.609375 617.507812 393.894531 C 618.171875 393.183594 620.402344 390.933594 624.199219 387.136719 L 631.601562 379.738281 L 624.199219 372.339844 C 620.355469 368.496094 618.125 366.246094 617.507812 365.582031 C 616.890625 364.917969 616.558594 364.394531 616.511719 364.015625 C 616.511719 363.589844 616.652344 363.257812 616.9375 363.019531 C 617.222656 362.78125 617.578125 362.664062 618.007812 362.664062 C 618.242188 362.664062 618.410156 362.6875 618.503906 362.734375 C 618.648438 362.828125 621.234375 365.34375 626.265625 370.277344 L 633.738281 377.746094 L 641.140625 370.347656 C 644.792969 366.695312 647.023438 364.488281 647.832031 363.730469 C 648.636719 362.972656 649.160156 362.59375 649.398438 362.59375 C 650.394531 362.59375 650.890625 363.066406 650.890625 364.015625 C 650.890625 364.347656 650.65625 364.773438 650.179688 365.296875 C 649.707031 365.816406 647.382812 368.140625 643.203125 372.269531 L 635.800781 379.738281 L 643.203125 387.207031 C 647.191406 391.191406 649.46875 393.492188 650.039062 394.109375 C 650.609375 394.726562 650.890625 395.175781 650.890625 395.460938 Z M 650.890625 395.460938 " fill-opacity="1" fill-rule="nonzero"/><path fill="#000000" d="M 688.925781 386.355469 C 688.925781 387.492188 688.546875 388.441406 687.785156 389.199219 C 687.027344 389.960938 686.101562 390.339844 685.011719 390.339844 L 684.511719 390.339844 C 686.695312 394.085938 689.589844 395.960938 693.195312 395.960938 C 696.515625 395.960938 698.9375 394.535156 700.457031 391.691406 C 701.359375 390.125 701.808594 387.089844 701.808594 382.585938 C 701.808594 377.699219 701.167969 374.402344 699.886719 372.695312 C 698.652344 371.128906 697.277344 370.347656 695.757812 370.347656 L 695.332031 370.347656 C 691.628906 370.347656 688.828125 371.960938 686.933594 375.183594 C 686.742188 375.515625 686.574219 375.707031 686.433594 375.753906 C 686.292969 375.800781 685.933594 375.847656 685.367188 375.894531 C 684.558594 375.894531 684.109375 375.753906 684.011719 375.46875 C 683.917969 375.28125 683.871094 371.128906 683.871094 363.019531 L 683.871094 353.839844 C 683.871094 351.46875 683.988281 350.285156 684.226562 350.285156 C 684.320312 350.1875 684.417969 350.140625 684.511719 350.140625 C 684.558594 350.140625 685.058594 350.332031 686.007812 350.710938 C 686.957031 351.089844 688.261719 351.46875 689.921875 351.847656 C 691.582031 352.230469 693.363281 352.417969 695.261719 352.417969 C 698.628906 352.417969 701.855469 351.753906 704.941406 350.425781 C 705.320312 350.238281 705.628906 350.140625 705.867188 350.140625 C 706.246094 350.140625 706.433594 350.570312 706.433594 351.421875 L 706.433594 352.347656 C 702.542969 356.949219 697.679688 359.25 691.84375 359.25 C 690.371094 359.25 689.042969 359.105469 687.855469 358.820312 L 687.144531 358.679688 L 687.144531 370.917969 C 688.046875 370.253906 688.757812 369.730469 689.28125 369.351562 C 689.800781 368.972656 690.65625 368.59375 691.84375 368.210938 C 693.03125 367.832031 694.238281 367.644531 695.472656 367.644531 C 699.316406 367.644531 702.566406 369.183594 705.226562 372.269531 C 707.882812 375.351562 709.210938 379.003906 709.210938 383.222656 C 709.210938 387.589844 707.691406 391.3125 704.65625 394.394531 C 701.617188 397.476562 697.917969 399.042969 693.550781 399.089844 C 689.707031 399.089844 686.625 397.808594 684.296875 395.246094 C 681.972656 392.6875 680.808594 389.792969 680.808594 386.566406 C 680.808594 385.429688 681.070312 384.527344 681.59375 383.863281 C 682.113281 383.199219 682.660156 382.773438 683.230469 382.585938 C 683.800781 382.394531 684.34375 382.300781 684.867188 382.300781 C 686.054688 382.300781 687.027344 382.703125 687.785156 383.507812 C 688.546875 384.316406 688.925781 385.265625 688.925781 386.355469 Z M 688.925781 386.355469 " fill-opacity="1" fill-rule="nonzero"/></svg>