<svg xmlns="http://www.w3.org/2000/svg" xmlns:xlink="http://www.w3.org/1999/xlink" width="1000" zoomAndPan="magnify" viewBox="0 0 750 749.999995" height="1000" preserveAspectRatio="xMidYMid meet" version="1.0"><defs><clipPath id="220248a0bb"><path d="M 128 325 L 156 325 L 156 439.726562 L 128 439.726562 Z M 128 325 " clip-rule="nonzero"/></clipPath><clipPath id="078e26e26d"><path d="M 544 325 L 573 325 L 573 439.726562 L 544 439.726562 Z M 544 325 " clip-rule="nonzero"/></clipPath><clipPath id="2828b79be5"><path d="M 590 310.273438 L 624 310.273438 L 624 365 L 590 365 Z M 590 310.273438 " clip-rule="nonzero"/></clipPath></defs><rect x="-75" width="900" fill="#ffffff" y="-74.999999" height="899.999994" fill-opacity="1"/><rect x="-75" width="900" fill="#ffffff" y="-74.999999" height="899.999994" fill-opacity="1"/><g clip-path="url(#220248a0bb)"><path fill="#000000" d="M 128.359375 382.644531 C 128.359375 377.390625 128.738281 372.40625 129.5 367.6875 C 130.261719 362.96875 131.140625 358.898438 132.128906 355.472656 C 133.121094 352.046875 134.53125 348.699219 136.359375 345.425781 C 138.1875 342.152344 139.636719 339.601562 140.703125 337.777344 C 141.769531 335.949219 143.367188 333.972656 145.5 331.839844 C 147.636719 329.707031 148.890625 328.414062 149.273438 327.957031 C 149.65625 327.5 150.605469 326.703125 152.128906 325.5625 L 154.074219 325.5625 C 155.140625 325.5625 155.675781 325.902344 155.675781 326.589844 C 155.675781 326.816406 155.027344 327.617188 153.730469 328.984375 C 152.4375 330.355469 150.875 332.371094 149.046875 335.035156 C 147.214844 337.699219 145.347656 340.972656 143.445312 344.855469 C 141.539062 348.734375 139.941406 353.988281 138.644531 360.609375 C 137.347656 367.230469 136.703125 374.574219 136.703125 382.644531 C 136.703125 390.710938 137.347656 398.019531 138.644531 404.5625 C 139.941406 411.109375 141.5 416.398438 143.332031 420.433594 C 145.160156 424.464844 147.027344 427.738281 148.929688 430.25 C 150.835938 432.761719 152.4375 434.777344 153.730469 436.300781 C 155.027344 437.824219 155.675781 438.621094 155.675781 438.699219 C 155.675781 439.382812 155.101562 439.726562 153.960938 439.726562 L 152.128906 439.726562 L 148.929688 436.984375 C 141.769531 430.515625 136.550781 422.449219 133.273438 412.78125 C 129.996094 403.117188 128.359375 393.070312 128.359375 382.644531 Z M 128.359375 382.644531 " fill-opacity="1" fill-rule="nonzero"/></g><path fill="#000000" d="M 186.417969 345.195312 L 184.933594 345.769531 C 183.867188 346.148438 182.34375 346.527344 180.359375 346.910156 C 178.378906 347.289062 176.171875 347.554688 173.730469 347.707031 L 171.5625 347.707031 L 171.5625 342.457031 L 173.730469 342.457031 C 177.3125 342.304688 180.628906 341.734375 183.675781 340.746094 C 186.722656 339.753906 188.855469 338.84375 190.074219 338.003906 C 191.296875 337.167969 192.363281 336.332031 193.277344 335.492188 C 193.429688 335.265625 193.886719 335.152344 194.648438 335.152344 C 195.332031 335.152344 195.980469 335.378906 196.589844 335.835938 L 196.589844 369.972656 L 196.703125 404.21875 C 197.238281 404.753906 197.695312 405.097656 198.078125 405.25 C 198.457031 405.398438 199.371094 405.550781 200.820312 405.703125 C 202.265625 405.855469 204.628906 405.933594 207.90625 405.933594 L 210.878906 405.933594 L 210.878906 411.183594 L 209.621094 411.183594 C 208.019531 410.957031 201.960938 410.84375 191.449219 410.84375 C 181.085938 410.84375 175.105469 410.957031 173.503906 411.183594 L 172.132812 411.183594 L 172.132812 405.933594 L 175.105469 405.933594 C 176.78125 405.933594 178.226562 405.933594 179.445312 405.933594 C 180.664062 405.933594 181.617188 405.894531 182.304688 405.820312 C 182.988281 405.742188 183.597656 405.628906 184.132812 405.476562 C 184.667969 405.324219 184.972656 405.25 185.046875 405.25 C 185.125 405.25 185.351562 405.058594 185.734375 404.675781 C 186.113281 404.296875 186.34375 404.144531 186.417969 404.21875 Z M 186.417969 345.195312 " fill-opacity="1" fill-rule="nonzero"/><path fill="#000000" d="M 230.191406 344.398438 C 234.460938 338.234375 240.289062 335.152344 247.679688 335.152344 C 251.335938 335.152344 254.996094 336.140625 258.652344 338.117188 C 262.308594 340.097656 265.28125 343.597656 267.566406 348.621094 C 270.386719 354.9375 271.796875 363.617188 271.796875 374.652344 C 271.796875 386.449219 270.15625 395.46875 266.882812 401.707031 C 265.355469 404.90625 263.261719 407.457031 260.59375 409.359375 C 257.929688 411.261719 255.605469 412.441406 253.621094 412.898438 C 251.640625 413.355469 249.699219 413.621094 247.792969 413.695312 C 245.8125 413.695312 243.832031 413.46875 241.851562 413.011719 C 239.871094 412.554688 237.546875 411.335938 234.878906 409.359375 C 232.210938 407.378906 230.117188 404.828125 228.59375 401.707031 C 225.316406 395.46875 223.679688 386.449219 223.679688 374.652344 C 223.679688 361.410156 225.851562 351.324219 230.191406 344.398438 Z M 255.910156 343.027344 C 253.621094 340.59375 250.917969 339.375 247.792969 339.375 C 244.59375 339.375 241.851562 340.59375 239.566406 343.027344 C 237.660156 345.007812 236.402344 347.746094 235.792969 351.246094 C 235.183594 354.75 234.878906 362.054688 234.878906 373.167969 C 234.878906 385.191406 235.183594 393.109375 235.792969 396.914062 C 236.402344 400.71875 237.773438 403.726562 239.90625 405.933594 C 242.042969 408.214844 244.671875 409.359375 247.792969 409.359375 C 250.839844 409.359375 253.433594 408.214844 255.566406 405.933594 C 257.777344 403.648438 259.148438 400.453125 259.679688 396.34375 C 260.214844 392.234375 260.519531 384.507812 260.59375 373.167969 C 260.59375 362.132812 260.289062 354.863281 259.679688 351.363281 C 259.070312 347.859375 257.8125 345.082031 255.910156 343.027344 Z M 255.910156 343.027344 " fill-opacity="1" fill-rule="nonzero"/><path fill="#000000" d="M 282.308594 378.191406 C 282.84375 374.996094 284.902344 371.304688 288.480469 367.117188 C 292.0625 362.929688 296.484375 360.800781 301.738281 360.722656 C 304.40625 360.722656 306.84375 361.410156 309.054688 362.777344 C 311.265625 364.148438 312.902344 365.859375 313.96875 367.917969 C 317.167969 363.121094 321.019531 360.722656 325.511719 360.722656 C 328.332031 360.722656 330.769531 361.5625 332.828125 363.234375 C 334.886719 364.910156 335.953125 367.15625 336.027344 369.972656 C 336.027344 372.179688 335.496094 373.964844 334.429688 375.335938 C 333.359375 376.707031 332.332031 377.542969 331.34375 377.847656 C 330.351562 378.152344 329.476562 378.304688 328.714844 378.304688 C 327.265625 378.304688 326.085938 377.886719 325.171875 377.050781 C 324.257812 376.210938 323.796875 375.109375 323.796875 373.738281 C 323.796875 370.238281 325.703125 367.839844 329.511719 366.546875 C 328.675781 365.554688 327.152344 365.0625 324.941406 365.0625 C 323.949219 365.0625 323.226562 365.136719 322.769531 365.289062 C 319.875 366.507812 317.742188 369.019531 316.371094 372.824219 C 311.796875 389.644531 309.511719 399.464844 309.511719 402.28125 C 309.511719 404.410156 310.121094 405.933594 311.339844 406.847656 C 312.558594 407.757812 313.894531 408.214844 315.339844 408.214844 C 318.160156 408.214844 320.941406 406.960938 323.683594 404.449219 C 326.425781 401.9375 328.292969 398.855469 329.285156 395.203125 C 329.511719 394.441406 329.742188 394.023438 329.96875 393.945312 C 330.199219 393.871094 330.808594 393.792969 331.800781 393.71875 L 332.257812 393.71875 C 333.398438 393.71875 333.972656 394.023438 333.972656 394.628906 C 333.972656 394.707031 333.894531 395.125 333.742188 395.886719 C 332.523438 400.226562 330.160156 404.070312 326.65625 407.417969 C 323.152344 410.765625 319.074219 412.441406 314.425781 412.441406 C 309.09375 412.441406 305.054688 410.042969 302.3125 405.25 C 299.1875 409.96875 295.605469 412.328125 291.566406 412.328125 L 290.882812 412.328125 C 287.148438 412.328125 284.480469 411.335938 282.882812 409.359375 C 281.28125 407.378906 280.445312 405.285156 280.367188 403.078125 C 280.367188 400.644531 281.089844 398.664062 282.539062 397.140625 C 283.988281 395.621094 285.699219 394.859375 287.683594 394.859375 C 290.957031 394.859375 292.597656 396.457031 292.597656 399.652344 C 292.597656 401.175781 292.140625 402.507812 291.226562 403.648438 C 290.3125 404.792969 289.433594 405.550781 288.597656 405.933594 C 287.757812 406.3125 287.261719 406.503906 287.109375 406.503906 L 286.769531 406.617188 C 286.769531 406.695312 286.996094 406.847656 287.453125 407.074219 C 287.910156 407.304688 288.519531 407.570312 289.28125 407.875 C 290.042969 408.179688 290.769531 408.292969 291.453125 408.214844 C 294.195312 408.214844 296.558594 406.503906 298.539062 403.078125 C 299.226562 401.859375 300.101562 399.273438 301.167969 395.316406 C 302.234375 391.359375 303.300781 387.246094 304.367188 382.984375 C 305.4375 378.722656 306.046875 376.210938 306.199219 375.449219 C 306.578125 373.394531 306.769531 371.910156 306.769531 371 C 306.769531 368.867188 306.199219 367.34375 305.054688 366.433594 C 303.910156 365.519531 302.617188 365.0625 301.167969 365.0625 C 298.121094 365.0625 295.261719 366.28125 292.597656 368.714844 C 289.929688 371.152344 288.0625 374.269531 286.996094 378.078125 C 286.84375 378.761719 286.652344 379.140625 286.425781 379.21875 C 286.195312 379.292969 285.585938 379.371094 284.597656 379.445312 L 282.996094 379.445312 C 282.539062 378.988281 282.308594 378.570312 282.308594 378.191406 Z M 282.308594 378.191406 " fill-opacity="1" fill-rule="nonzero"/><path fill="#000000" d="M 373.539062 384.128906 C 373.539062 384.128906 373.539062 383.632812 373.539062 382.644531 C 373.539062 381.652344 374.074219 380.894531 375.140625 380.359375 L 409.3125 380.359375 L 409.3125 363.234375 L 409.425781 346.109375 C 410.1875 345.121094 410.914062 344.625 411.597656 344.625 C 412.589844 344.625 413.351562 345.195312 413.882812 346.339844 L 413.882812 380.359375 L 447.945312 380.359375 C 449.085938 380.96875 449.65625 381.730469 449.65625 382.644531 C 449.65625 383.558594 449.085938 384.316406 447.945312 384.925781 L 413.882812 384.925781 L 413.882812 418.949219 C 413.273438 420.011719 412.589844 420.546875 411.828125 420.546875 L 411.371094 420.546875 C 410.457031 420.546875 409.769531 420.011719 409.3125 418.949219 L 409.3125 384.925781 L 375.140625 384.925781 C 374.074219 384.394531 373.539062 383.632812 373.539062 382.644531 Z M 373.539062 384.128906 " fill-opacity="1" fill-rule="nonzero"/><path fill="#000000" d="M 492.425781 344.398438 C 496.691406 338.234375 502.523438 335.152344 509.914062 335.152344 C 513.570312 335.152344 517.226562 336.140625 520.886719 338.117188 C 524.542969 340.097656 527.515625 343.597656 529.800781 348.621094 C 532.621094 354.9375 534.027344 363.617188 534.027344 374.652344 C 534.027344 386.449219 532.390625 395.46875 529.113281 401.707031 C 527.589844 404.90625 525.496094 407.457031 522.828125 409.359375 C 520.160156 411.261719 517.835938 412.441406 515.855469 412.898438 C 513.875 413.355469 511.933594 413.621094 510.027344 413.695312 C 508.046875 413.695312 506.066406 413.46875 504.085938 413.011719 C 502.101562 412.554688 499.777344 411.335938 497.113281 409.359375 C 494.445312 407.378906 492.351562 404.828125 490.828125 401.707031 C 487.550781 395.46875 485.910156 386.449219 485.910156 374.652344 C 485.910156 361.410156 488.082031 351.324219 492.425781 344.398438 Z M 518.140625 343.027344 C 515.855469 340.59375 513.152344 339.375 510.027344 339.375 C 506.828125 339.375 504.085938 340.59375 501.796875 343.027344 C 499.894531 345.007812 498.636719 347.746094 498.027344 351.246094 C 497.417969 354.75 497.113281 362.054688 497.113281 373.167969 C 497.113281 385.191406 497.417969 393.109375 498.027344 396.914062 C 498.636719 400.71875 500.007812 403.726562 502.140625 405.933594 C 504.273438 408.214844 506.902344 409.359375 510.027344 409.359375 C 513.074219 409.359375 515.664062 408.214844 517.800781 405.933594 C 520.007812 403.648438 521.378906 400.453125 521.914062 396.34375 C 522.449219 392.234375 522.753906 384.507812 522.828125 373.167969 C 522.828125 362.132812 522.523438 354.863281 521.914062 351.363281 C 521.304688 347.859375 520.046875 345.082031 518.140625 343.027344 Z M 518.140625 343.027344 " fill-opacity="1" fill-rule="nonzero"/><g clip-path="url(#078e26e26d)"><path fill="#000000" d="M 545.457031 325.675781 L 545.914062 325.5625 C 546.296875 325.5625 546.675781 325.5625 547.058594 325.5625 L 548.429688 325.5625 L 551.628906 328.300781 C 558.792969 334.769531 564.011719 342.835938 567.289062 352.503906 C 570.566406 362.167969 572.203125 372.214844 572.203125 382.644531 C 572.203125 387.820312 571.820312 392.804688 571.058594 397.597656 C 570.296875 402.394531 569.421875 406.464844 568.429688 409.816406 C 567.441406 413.164062 566.03125 416.511719 564.203125 419.859375 C 562.375 423.210938 560.925781 425.761719 559.859375 427.511719 C 558.792969 429.261719 557.230469 431.203125 555.171875 433.332031 C 553.117188 435.464844 551.898438 436.71875 551.515625 437.101562 C 551.136719 437.480469 550.257812 438.203125 548.886719 439.269531 C 548.660156 439.496094 548.507812 439.648438 548.429688 439.726562 L 547.058594 439.726562 C 546.449219 439.726562 546.03125 439.726562 545.800781 439.726562 C 545.574219 439.726562 545.382812 439.613281 545.230469 439.382812 C 545.078125 439.15625 544.964844 438.8125 544.886719 438.355469 C 544.964844 438.28125 545.382812 437.785156 546.144531 436.871094 C 557.953125 424.617188 563.859375 406.542969 563.859375 382.644531 C 563.859375 358.746094 557.953125 340.667969 546.144531 328.414062 C 545.382812 327.5 544.964844 327.007812 544.886719 326.929688 C 544.886719 326.320312 545.078125 325.902344 545.457031 325.675781 Z M 545.457031 325.675781 " fill-opacity="1" fill-rule="nonzero"/></g><g clip-path="url(#2828b79be5)"><path fill="#000000" d="M 595.640625 329.40625 C 594.1875 329.40625 593.027344 328.921875 592.164062 327.953125 C 591.304688 326.984375 590.871094 325.800781 590.871094 324.402344 C 590.871094 320.582031 592.300781 317.273438 595.15625 314.476562 C 598.011719 311.675781 601.566406 310.277344 605.820312 310.277344 C 610.722656 310.277344 614.816406 311.785156 618.105469 314.796875 C 621.390625 317.8125 623.058594 321.714844 623.113281 326.503906 C 623.113281 328.816406 622.574219 331.023438 621.496094 333.121094 C 620.421875 335.21875 619.128906 337.046875 617.617188 338.609375 C 616.109375 340.167969 613.957031 342.160156 611.15625 344.582031 C 609.214844 346.25 606.523438 348.726562 603.074219 352.007812 L 598.308594 356.527344 L 604.449219 356.609375 C 612.90625 356.609375 617.402344 356.472656 617.941406 356.203125 C 618.320312 356.097656 618.964844 353.703125 619.882812 349.019531 L 619.882812 348.78125 L 623.113281 348.78125 L 623.113281 349.019531 C 623.058594 349.183594 622.710938 351.632812 622.0625 356.367188 C 621.417969 361.101562 621.011719 363.578125 620.851562 363.792969 L 620.851562 364.035156 L 590.871094 364.035156 L 590.871094 361.53125 C 590.871094 361.15625 591.035156 360.753906 591.355469 360.320312 C 591.679688 359.890625 592.488281 358.949219 593.78125 357.496094 C 595.34375 355.773438 596.691406 354.269531 597.820312 352.976562 C 598.308594 352.4375 599.222656 351.441406 600.570312 349.988281 C 601.914062 348.539062 602.832031 347.542969 603.316406 347.003906 C 603.800781 346.464844 604.582031 345.578125 605.660156 344.339844 C 606.738281 343.101562 607.492188 342.1875 607.921875 341.59375 C 608.351562 341.003906 608.972656 340.195312 609.78125 339.175781 C 610.589844 338.152344 611.15625 337.289062 611.476562 336.589844 C 611.800781 335.890625 612.207031 335.113281 612.691406 334.25 C 613.175781 333.390625 613.523438 332.527344 613.742188 331.667969 C 613.957031 330.808594 614.144531 330 614.304688 329.246094 C 614.46875 328.492188 614.546875 327.605469 614.546875 326.582031 C 614.546875 323.191406 613.632812 320.261719 611.800781 317.785156 C 609.96875 315.308594 607.355469 314.070312 603.964844 314.070312 C 602.183594 314.070312 600.625 314.527344 599.277344 315.445312 C 597.929688 316.359375 596.988281 317.246094 596.449219 318.109375 C 595.910156 318.96875 595.640625 319.480469 595.640625 319.640625 C 595.640625 319.695312 595.773438 319.722656 596.042969 319.722656 C 597.015625 319.722656 598.011719 320.097656 599.035156 320.851562 C 600.058594 321.605469 600.570312 322.84375 600.570312 324.566406 C 600.570312 325.910156 600.136719 327.039062 599.277344 327.953125 C 598.414062 328.871094 597.203125 329.355469 595.640625 329.40625 Z M 595.640625 329.40625 " fill-opacity="1" fill-rule="nonzero"/></g></svg>