<svg xmlns="http://www.w3.org/2000/svg" xmlns:xlink="http://www.w3.org/1999/xlink" width="1000" zoomAndPan="magnify" viewBox="0 0 750 749.999995" height="1000" preserveAspectRatio="xMidYMid meet" version="1.0"><rect x="-75" width="900" fill="#ffffff" y="-74.999999" height="899.999994" fill-opacity="1"/><rect x="-75" width="900" fill="#ffffff" y="-74.999999" height="899.999994" fill-opacity="1"/><path fill="#000000" d="M 63.863281 353.085938 L 62.253906 353.703125 C 61.101562 354.117188 59.449219 354.53125 57.304688 354.941406 C 55.160156 355.355469 52.765625 355.644531 50.125 355.808594 L 47.773438 355.808594 L 47.773438 350.113281 L 50.125 350.113281 C 54.003906 349.949219 57.59375 349.332031 60.894531 348.257812 C 64.195312 347.183594 66.503906 346.195312 67.824219 345.289062 C 69.144531 344.378906 70.300781 343.472656 71.289062 342.566406 C 71.457031 342.316406 71.949219 342.191406 72.777344 342.191406 C 73.519531 342.191406 74.21875 342.441406 74.878906 342.9375 L 74.878906 379.945312 L 75.003906 417.078125 C 75.582031 417.65625 76.078125 418.027344 76.488281 418.191406 C 76.902344 418.355469 77.890625 418.523438 79.460938 418.6875 C 81.027344 418.851562 83.585938 418.933594 87.132812 418.933594 L 90.351562 418.933594 L 90.351562 424.628906 L 88.992188 424.628906 C 87.257812 424.378906 80.699219 424.257812 69.308594 424.257812 C 58.089844 424.257812 51.609375 424.378906 49.878906 424.628906 L 48.390625 424.628906 L 48.390625 418.933594 L 51.609375 418.933594 C 53.425781 418.933594 54.992188 418.933594 56.3125 418.933594 C 57.632812 418.933594 58.664062 418.894531 59.410156 418.808594 C 60.152344 418.726562 60.8125 418.605469 61.390625 418.4375 C 61.964844 418.273438 62.296875 418.191406 62.378906 418.191406 C 62.460938 418.191406 62.710938 417.984375 63.121094 417.574219 C 63.535156 417.160156 63.78125 416.996094 63.863281 417.078125 Z M 63.863281 353.085938 " fill-opacity="1" fill-rule="nonzero"/><path fill="#000000" d="M 111.269531 352.21875 C 115.890625 345.535156 122.203125 342.191406 130.207031 342.191406 C 134.167969 342.191406 138.128906 343.265625 142.089844 345.410156 C 146.050781 347.558594 149.269531 351.351562 151.746094 356.796875 C 154.796875 363.648438 156.324219 373.054688 156.324219 385.019531 C 156.324219 397.808594 154.550781 407.589844 151.003906 414.355469 C 149.351562 417.820312 147.082031 420.585938 144.195312 422.648438 C 141.308594 424.710938 138.789062 425.988281 136.644531 426.484375 C 134.5 426.980469 132.394531 427.269531 130.332031 427.351562 C 128.1875 427.351562 126.042969 427.101562 123.894531 426.609375 C 121.75 426.113281 119.234375 424.792969 116.34375 422.648438 C 113.457031 420.503906 111.1875 417.738281 109.539062 414.355469 C 105.988281 407.589844 104.214844 397.808594 104.214844 385.019531 C 104.214844 370.660156 106.566406 359.726562 111.269531 352.21875 Z M 139.121094 350.734375 C 136.644531 348.09375 133.714844 346.773438 130.332031 346.773438 C 126.867188 346.773438 123.894531 348.09375 121.421875 350.734375 C 119.355469 352.878906 117.996094 355.851562 117.335938 359.644531 C 116.675781 363.441406 116.34375 371.363281 116.34375 383.410156 C 116.34375 396.449219 116.675781 405.03125 117.335938 409.15625 C 117.996094 413.28125 119.480469 416.542969 121.792969 418.933594 C 124.101562 421.410156 126.949219 422.648438 130.332031 422.648438 C 133.632812 422.648438 136.4375 421.410156 138.75 418.933594 C 141.140625 416.457031 142.628906 412.992188 143.203125 408.539062 C 143.78125 404.082031 144.113281 395.707031 144.195312 383.410156 C 144.195312 371.445312 143.863281 363.566406 143.203125 359.769531 C 142.542969 355.972656 141.183594 352.960938 139.121094 350.734375 Z M 139.121094 350.734375 " fill-opacity="1" fill-rule="nonzero"/><path fill="#000000" d="M 167.710938 388.855469 C 168.289062 385.390625 170.519531 381.390625 174.394531 376.851562 C 178.273438 372.3125 183.0625 370 188.753906 369.917969 C 191.640625 369.917969 194.28125 370.660156 196.675781 372.148438 C 199.070312 373.632812 200.84375 375.488281 202 377.71875 C 205.464844 372.519531 209.632812 369.917969 214.5 369.917969 C 217.554688 369.917969 220.195312 370.828125 222.421875 372.640625 C 224.648438 374.457031 225.804688 376.890625 225.886719 379.945312 C 225.886719 382.335938 225.308594 384.277344 224.152344 385.761719 C 223 387.246094 221.886719 388.15625 220.8125 388.484375 C 219.738281 388.816406 218.789062 388.980469 217.964844 388.980469 C 216.398438 388.980469 215.117188 388.527344 214.128906 387.617188 C 213.136719 386.710938 212.644531 385.515625 212.644531 384.03125 C 212.644531 380.234375 214.707031 377.632812 218.832031 376.230469 C 217.925781 375.160156 216.273438 374.621094 213.878906 374.621094 C 212.808594 374.621094 212.023438 374.703125 211.527344 374.871094 C 208.394531 376.191406 206.082031 378.914062 204.597656 383.039062 C 199.648438 401.277344 197.171875 411.921875 197.171875 414.972656 C 197.171875 417.285156 197.832031 418.933594 199.152344 419.925781 C 200.472656 420.914062 201.914062 421.410156 203.484375 421.410156 C 206.535156 421.410156 209.546875 420.046875 212.519531 417.324219 C 215.488281 414.601562 217.511719 411.261719 218.585938 407.300781 C 218.832031 406.472656 219.078125 406.019531 219.328125 405.9375 C 219.574219 405.855469 220.234375 405.773438 221.308594 405.691406 L 221.800781 405.691406 C 223.039062 405.691406 223.660156 406.019531 223.660156 406.679688 C 223.660156 406.761719 223.578125 407.21875 223.410156 408.042969 C 222.089844 412.746094 219.535156 416.914062 215.738281 420.542969 C 211.941406 424.175781 207.527344 425.988281 202.492188 425.988281 C 196.71875 425.988281 192.34375 423.390625 189.375 418.191406 C 185.988281 423.308594 182.113281 425.867188 177.738281 425.867188 L 176.996094 425.867188 C 172.953125 425.867188 170.0625 424.792969 168.332031 422.648438 C 166.597656 420.503906 165.691406 418.234375 165.609375 415.839844 C 165.609375 413.199219 166.390625 411.054688 167.960938 409.402344 C 169.527344 407.753906 171.382812 406.929688 173.53125 406.929688 C 177.078125 406.929688 178.851562 408.660156 178.851562 412.125 C 178.851562 413.777344 178.355469 415.222656 177.367188 416.457031 C 176.375 417.695312 175.425781 418.523438 174.519531 418.933594 C 173.613281 419.347656 173.074219 419.554688 172.910156 419.554688 L 172.539062 419.675781 C 172.539062 419.757812 172.789062 419.925781 173.28125 420.171875 C 173.777344 420.417969 174.4375 420.707031 175.261719 421.039062 C 176.085938 421.367188 176.871094 421.492188 177.613281 421.410156 C 180.585938 421.410156 183.144531 419.554688 185.289062 415.839844 C 186.03125 414.519531 186.980469 411.714844 188.136719 407.421875 C 189.289062 403.132812 190.445312 398.675781 191.601562 394.054688 C 192.757812 389.433594 193.417969 386.710938 193.582031 385.886719 C 193.992188 383.65625 194.199219 382.050781 194.199219 381.058594 C 194.199219 378.75 193.582031 377.097656 192.34375 376.109375 C 191.105469 375.117188 189.703125 374.621094 188.136719 374.621094 C 184.835938 374.621094 181.742188 375.941406 178.851562 378.582031 C 175.964844 381.222656 173.941406 384.605469 172.789062 388.734375 C 172.621094 389.476562 172.414062 389.886719 172.167969 389.972656 C 171.921875 390.054688 171.261719 390.136719 170.1875 390.21875 L 168.453125 390.21875 C 167.960938 389.722656 167.710938 389.269531 167.710938 388.855469 Z M 167.710938 388.855469 " fill-opacity="1" fill-rule="nonzero"/><path fill="#000000" d="M 245.699219 335.96875 C 244.125 335.96875 242.871094 335.441406 241.9375 334.390625 C 241.003906 333.339844 240.535156 332.058594 240.535156 330.542969 C 240.535156 326.398438 242.082031 322.8125 245.175781 319.777344 C 248.265625 316.742188 252.117188 315.226562 256.726562 315.226562 C 262.035156 315.226562 266.46875 316.859375 270.027344 320.128906 C 273.585938 323.394531 275.394531 327.625 275.453125 332.816406 C 275.453125 335.324219 274.867188 337.71875 273.703125 339.992188 C 272.535156 342.269531 271.136719 344.25 269.5 345.941406 C 267.867188 347.636719 265.535156 349.792969 262.5 352.417969 C 260.402344 354.226562 257.484375 356.910156 253.75 360.46875 L 248.585938 365.371094 L 255.238281 365.457031 C 264.398438 365.457031 269.269531 365.3125 269.851562 365.019531 C 270.261719 364.902344 270.960938 362.308594 271.953125 357.230469 L 271.953125 356.96875 L 275.453125 356.96875 L 275.453125 357.230469 C 275.394531 357.40625 275.015625 360.0625 274.316406 365.195312 C 273.613281 370.328125 273.175781 373.011719 273.003906 373.246094 L 273.003906 373.507812 L 240.535156 373.507812 L 240.535156 370.796875 C 240.535156 370.386719 240.710938 369.949219 241.0625 369.484375 C 241.410156 369.015625 242.285156 367.996094 243.6875 366.421875 C 245.378906 364.554688 246.835938 362.917969 248.0625 361.519531 C 248.585938 360.9375 249.578125 359.855469 251.035156 358.28125 C 252.496094 356.707031 253.488281 355.628906 254.011719 355.042969 C 254.539062 354.460938 255.382812 353.496094 256.550781 352.15625 C 257.71875 350.8125 258.535156 349.824219 259 349.179688 C 259.46875 348.539062 260.136719 347.664062 261.011719 346.554688 C 261.886719 345.445312 262.5 344.511719 262.851562 343.753906 C 263.199219 342.996094 263.636719 342.152344 264.164062 341.21875 C 264.6875 340.285156 265.066406 339.351562 265.300781 338.417969 C 265.535156 337.484375 265.738281 336.609375 265.914062 335.792969 C 266.089844 334.976562 266.175781 334.011719 266.175781 332.902344 C 266.175781 329.230469 265.183594 326.050781 263.199219 323.367188 C 261.21875 320.683594 258.386719 319.339844 254.710938 319.339844 C 252.789062 319.339844 251.09375 319.835938 249.636719 320.828125 C 248.179688 321.820312 247.15625 322.78125 246.574219 323.714844 C 245.992188 324.648438 245.699219 325.203125 245.699219 325.378906 C 245.699219 325.4375 245.84375 325.464844 246.136719 325.464844 C 247.1875 325.464844 248.265625 325.875 249.375 326.691406 C 250.484375 327.507812 251.035156 328.847656 251.035156 330.714844 C 251.035156 332.175781 250.570312 333.398438 249.636719 334.390625 C 248.703125 335.382812 247.390625 335.910156 245.699219 335.96875 Z M 245.699219 335.96875 " fill-opacity="1" fill-rule="nonzero"/><path fill="#000000" d="M 320.550781 395.292969 C 320.550781 395.292969 320.550781 394.757812 320.550781 393.683594 C 320.550781 392.609375 321.128906 391.785156 322.285156 391.207031 L 359.292969 391.207031 L 359.292969 372.640625 L 359.417969 354.074219 C 360.242188 353.003906 361.027344 352.464844 361.769531 352.464844 C 362.839844 352.464844 363.667969 353.085938 364.242188 354.324219 L 364.242188 391.207031 L 401.128906 391.207031 C 402.367188 391.867188 402.984375 392.695312 402.984375 393.683594 C 402.984375 394.675781 402.367188 395.5 401.128906 396.160156 L 364.242188 396.160156 L 364.242188 433.042969 C 363.582031 434.199219 362.839844 434.777344 362.015625 434.777344 L 361.519531 434.777344 C 360.53125 434.777344 359.789062 434.199219 359.292969 433.042969 L 359.292969 396.160156 L 322.285156 396.160156 C 321.128906 395.582031 320.550781 394.757812 320.550781 393.683594 Z M 320.550781 395.292969 " fill-opacity="1" fill-rule="nonzero"/><path fill="#000000" d="M 449.300781 352.21875 C 453.921875 345.535156 460.234375 342.191406 468.242188 342.191406 C 472.203125 342.191406 476.164062 343.265625 480.121094 345.410156 C 484.082031 347.558594 487.300781 351.351562 489.777344 356.796875 C 492.832031 363.648438 494.355469 373.054688 494.355469 385.019531 C 494.355469 397.808594 492.582031 407.589844 489.035156 414.355469 C 487.382812 417.820312 485.117188 420.585938 482.226562 422.648438 C 479.339844 424.710938 476.820312 425.988281 474.675781 426.484375 C 472.53125 426.980469 470.425781 427.269531 468.363281 427.351562 C 466.21875 427.351562 464.074219 427.101562 461.929688 426.609375 C 459.78125 426.113281 457.265625 424.792969 454.378906 422.648438 C 451.488281 420.503906 449.21875 417.738281 447.570312 414.355469 C 444.023438 407.589844 442.246094 397.808594 442.246094 385.019531 C 442.246094 370.660156 444.597656 359.726562 449.300781 352.21875 Z M 477.152344 350.734375 C 474.675781 348.09375 471.746094 346.773438 468.363281 346.773438 C 464.898438 346.773438 461.929688 348.09375 459.453125 350.734375 C 457.390625 352.878906 456.027344 355.851562 455.367188 359.644531 C 454.707031 363.441406 454.378906 371.363281 454.378906 383.410156 C 454.378906 396.449219 454.707031 405.03125 455.367188 409.15625 C 456.027344 413.28125 457.511719 416.542969 459.824219 418.933594 C 462.132812 421.410156 464.980469 422.648438 468.363281 422.648438 C 471.664062 422.648438 474.46875 421.410156 476.78125 418.933594 C 479.175781 416.457031 480.660156 412.992188 481.238281 408.539062 C 481.816406 404.082031 482.144531 395.707031 482.226562 383.410156 C 482.226562 371.445312 481.898438 363.566406 481.238281 359.769531 C 480.578125 355.972656 479.214844 352.960938 477.152344 350.734375 Z M 477.152344 350.734375 " fill-opacity="1" fill-rule="nonzero"/><path fill="#000000" d="M 533.742188 395.292969 C 533.742188 395.292969 533.742188 394.757812 533.742188 393.683594 C 533.742188 392.609375 534.320312 391.785156 535.476562 391.207031 L 572.484375 391.207031 L 572.484375 372.640625 L 572.609375 354.074219 C 573.433594 353.003906 574.21875 352.464844 574.960938 352.464844 C 576.03125 352.464844 576.859375 353.085938 577.4375 354.324219 L 577.4375 391.207031 L 614.320312 391.207031 C 615.558594 391.867188 616.175781 392.695312 616.175781 393.683594 C 616.175781 394.675781 615.558594 395.5 614.320312 396.160156 L 577.4375 396.160156 L 577.4375 433.042969 C 576.777344 434.199219 576.03125 434.777344 575.207031 434.777344 L 574.710938 434.777344 C 573.722656 434.777344 572.980469 434.199219 572.484375 433.042969 L 572.484375 396.160156 L 535.476562 396.160156 C 534.320312 395.582031 533.742188 394.757812 533.742188 393.683594 Z M 533.742188 395.292969 " fill-opacity="1" fill-rule="nonzero"/><path fill="#000000" d="M 662.496094 352.21875 C 667.117188 345.535156 673.429688 342.191406 681.433594 342.191406 C 685.394531 342.191406 689.355469 343.265625 693.316406 345.410156 C 697.277344 347.558594 700.492188 351.351562 702.96875 356.796875 C 706.023438 363.648438 707.550781 373.054688 707.550781 385.019531 C 707.550781 397.808594 705.773438 407.589844 702.226562 414.355469 C 700.578125 417.820312 698.308594 420.585938 695.417969 422.648438 C 692.53125 424.710938 690.015625 425.988281 687.867188 426.484375 C 685.722656 426.980469 683.617188 427.269531 681.554688 427.351562 C 679.410156 427.351562 677.265625 427.101562 675.121094 426.609375 C 672.972656 426.113281 670.457031 424.792969 667.570312 422.648438 C 664.679688 420.503906 662.410156 417.738281 660.761719 414.355469 C 657.214844 407.589844 655.4375 397.808594 655.4375 385.019531 C 655.4375 370.660156 657.792969 359.726562 662.496094 352.21875 Z M 690.34375 350.734375 C 687.867188 348.09375 684.9375 346.773438 681.554688 346.773438 C 678.089844 346.773438 675.121094 348.09375 672.644531 350.734375 C 670.582031 352.878906 669.21875 355.851562 668.558594 359.644531 C 667.898438 363.441406 667.570312 371.363281 667.570312 383.410156 C 667.570312 396.449219 667.898438 405.03125 668.558594 409.15625 C 669.21875 413.28125 670.703125 416.542969 673.015625 418.933594 C 675.324219 421.410156 678.171875 422.648438 681.554688 422.648438 C 684.855469 422.648438 687.664062 421.410156 689.972656 418.933594 C 692.367188 416.457031 693.851562 412.992188 694.429688 408.539062 C 695.007812 404.082031 695.335938 395.707031 695.417969 383.410156 C 695.417969 371.445312 695.089844 363.566406 694.429688 359.769531 C 693.769531 355.972656 692.40625 352.960938 690.34375 350.734375 Z M 690.34375 350.734375 " fill-opacity="1" fill-rule="nonzero"/></svg>