<svg xmlns="http://www.w3.org/2000/svg" xmlns:xlink="http://www.w3.org/1999/xlink" width="1000" zoomAndPan="magnify" viewBox="0 0 750 749.999995" height="1000" preserveAspectRatio="xMidYMid meet" version="1.0"><defs><clipPath id="34b1b62ef6"><path d="M 118 350 L 162 350 L 162 422.441406 L 118 422.441406 Z M 118 350 " clip-rule="nonzero"/></clipPath><clipPath id="3163c8664a"><path d="M 484 350 L 529 350 L 529 422.441406 L 484 422.441406 Z M 484 350 " clip-rule="nonzero"/></clipPath><clipPath id="afd2235326"><path d="M 596 327.558594 L 628 327.558594 L 628 379 L 596 379 Z M 596 327.558594 " clip-rule="nonzero"/></clipPath></defs><rect x="-75" width="900" fill="#ffffff" y="-74.999999" height="899.999994" fill-opacity="1"/><rect x="-75" width="900" fill="#ffffff" y="-74.999999" height="899.999994" fill-opacity="1"/><g clip-path="url(#34b1b62ef6)"><path fill="#000000" d="M 150.679688 390.078125 C 147.328125 395.382812 143.144531 398.035156 138.117188 398.035156 C 132.675781 398.035156 128.210938 395.976562 124.71875 391.855469 C 121.230469 387.738281 119.136719 383.339844 118.441406 378.660156 C 118.300781 377.542969 118.230469 376.148438 118.230469 374.472656 L 118.230469 373.632812 C 118.230469 367.140625 120.636719 361.484375 125.453125 356.667969 C 129.640625 352.476562 134.246094 350.382812 139.269531 350.382812 C 139.410156 350.382812 139.617188 350.382812 139.898438 350.382812 C 140.175781 350.382812 140.457031 350.417969 140.734375 350.488281 L 141.152344 350.488281 C 141.992188 350.488281 142.863281 350.554688 143.769531 350.695312 C 144.679688 350.835938 145.96875 351.253906 147.644531 351.953125 C 149.320312 352.652344 150.957031 353.769531 152.5625 355.304688 C 154.167969 356.839844 155.667969 358.902344 157.066406 361.484375 C 160.066406 367.628906 161.566406 375.519531 161.566406 385.152344 C 161.566406 394.929688 159.472656 403.203125 155.285156 409.976562 C 152.84375 413.886719 149.910156 416.921875 146.492188 419.089844 C 143.074219 421.253906 139.445312 422.371094 135.605469 422.441406 C 131.351562 422.441406 127.859375 421.425781 125.140625 419.402344 C 122.417969 417.378906 121.023438 414.375 120.953125 410.394531 C 120.882812 406.414062 122.730469 404.460938 126.5 404.53125 C 128.035156 404.53125 129.324219 405.019531 130.371094 405.996094 C 131.417969 406.972656 131.941406 408.335938 131.941406 410.082031 C 131.941406 411.335938 131.628906 412.421875 131 413.328125 C 130.371094 414.234375 129.816406 414.792969 129.324219 415.003906 C 128.835938 415.214844 128.382812 415.386719 127.964844 415.527344 L 127.546875 415.632812 C 127.546875 415.773438 127.789062 415.980469 128.28125 416.261719 C 128.769531 416.539062 129.675781 416.890625 131 417.308594 C 132.328125 417.726562 133.792969 417.902344 135.398438 417.832031 L 136.023438 417.832031 C 140.210938 417.832031 143.734375 415.597656 146.597656 411.128906 C 149.320312 407.21875 150.679688 400.445312 150.679688 390.808594 Z M 139.375 394.160156 C 142.722656 394.160156 145.410156 392.449219 147.433594 389.027344 C 149.457031 385.609375 150.503906 380.964844 150.574219 375.097656 C 150.574219 369.652344 150.296875 365.742188 149.738281 363.371094 C 149.597656 362.671875 149.386719 361.972656 149.109375 361.273438 C 148.832031 360.578125 148.339844 359.667969 147.644531 358.550781 C 146.945312 357.433594 145.898438 356.492188 144.503906 355.722656 C 143.109375 354.957031 141.46875 354.605469 139.585938 354.675781 C 136.933594 354.675781 134.664062 355.617188 132.78125 357.503906 C 131.316406 359.039062 130.371094 360.855469 129.953125 362.949219 C 129.535156 365.046875 129.292969 368.710938 129.222656 373.949219 C 129.222656 379.742188 129.394531 383.652344 129.746094 385.679688 C 130.09375 387.703125 130.792969 389.34375 131.839844 390.601562 C 133.582031 392.972656 136.09375 394.160156 139.375 394.160156 Z M 139.375 394.160156 " fill-opacity="1" fill-rule="nonzero"/></g><path fill="#000000" d="M 174.335938 413.851562 C 174.335938 412.175781 174.929688 410.710938 176.113281 409.453125 C 177.300781 408.195312 178.800781 407.566406 180.617188 407.566406 C 182.289062 407.566406 183.757812 408.125 185.011719 409.242188 C 186.269531 410.359375 186.929688 411.863281 187 413.746094 C 187 415.492188 186.40625 416.992188 185.222656 418.25 C 184.035156 419.507812 182.535156 420.136719 180.71875 420.136719 C 178.90625 420.136719 177.40625 419.542969 176.21875 418.355469 C 175.035156 417.167969 174.40625 415.667969 174.335938 413.851562 Z M 174.335938 413.851562 " fill-opacity="1" fill-rule="nonzero"/><path fill="#000000" d="M 217.566406 359.597656 L 216.203125 360.121094 C 215.226562 360.472656 213.832031 360.820312 212.019531 361.167969 C 210.203125 361.519531 208.179688 361.761719 205.945312 361.902344 L 203.957031 361.902344 L 203.957031 357.085938 L 205.945312 357.085938 C 209.226562 356.945312 212.261719 356.421875 215.054688 355.515625 C 217.84375 354.605469 219.796875 353.769531 220.914062 353 C 222.03125 352.230469 223.007812 351.464844 223.847656 350.695312 C 223.984375 350.488281 224.402344 350.382812 225.101562 350.382812 C 225.730469 350.382812 226.324219 350.589844 226.882812 351.011719 L 226.882812 382.328125 L 226.984375 413.746094 C 227.472656 414.234375 227.894531 414.550781 228.242188 414.6875 C 228.589844 414.828125 229.429688 414.96875 230.753906 415.109375 C 232.082031 415.246094 234.242188 415.316406 237.242188 415.316406 L 239.964844 415.316406 L 239.964844 420.136719 L 238.8125 420.136719 C 237.347656 419.925781 231.800781 419.820312 222.171875 419.820312 C 212.679688 419.820312 207.203125 419.925781 205.738281 420.136719 L 204.480469 420.136719 L 204.480469 415.316406 L 207.203125 415.316406 C 208.738281 415.316406 210.0625 415.316406 211.179688 415.316406 C 212.296875 415.316406 213.167969 415.28125 213.796875 415.214844 C 214.425781 415.144531 214.984375 415.039062 215.472656 414.898438 C 215.960938 414.757812 216.238281 414.6875 216.308594 414.6875 C 216.378906 414.6875 216.589844 414.515625 216.9375 414.164062 C 217.285156 413.816406 217.496094 413.675781 217.566406 413.746094 Z M 217.566406 359.597656 " fill-opacity="1" fill-rule="nonzero"/><path fill="#000000" d="M 259.015625 375.203125 C 257.132812 375.203125 255.632812 374.574219 254.515625 373.320312 C 253.398438 372.0625 252.839844 370.527344 252.839844 368.710938 C 252.839844 363.753906 254.691406 359.460938 258.386719 355.828125 C 262.085938 352.199219 266.691406 350.382812 272.203125 350.382812 C 278.554688 350.382812 283.859375 352.335938 288.113281 356.246094 C 292.371094 360.15625 294.535156 365.21875 294.605469 371.433594 C 294.605469 374.4375 293.90625 377.300781 292.511719 380.023438 C 291.117188 382.746094 289.441406 385.121094 287.488281 387.144531 C 285.53125 389.167969 282.742188 391.753906 279.113281 394.894531 C 276.601562 397.058594 273.113281 400.269531 268.644531 404.53125 L 262.46875 410.394531 L 270.425781 410.5 C 281.382812 410.5 287.207031 410.324219 287.90625 409.976562 C 288.394531 409.835938 289.230469 406.730469 290.417969 400.65625 L 290.417969 400.339844 L 294.605469 400.339844 L 294.605469 400.65625 C 294.535156 400.863281 294.082031 404.042969 293.242188 410.1875 C 292.40625 416.332031 291.882812 419.542969 291.675781 419.820312 L 291.675781 420.136719 L 252.839844 420.136719 L 252.839844 416.890625 C 252.839844 416.398438 253.050781 415.875 253.46875 415.316406 C 253.886719 414.757812 254.933594 413.539062 256.609375 411.652344 C 258.632812 409.417969 260.375 407.460938 261.84375 405.785156 C 262.46875 405.089844 263.65625 403.796875 265.402344 401.910156 C 267.144531 400.027344 268.332031 398.734375 268.960938 398.035156 C 269.589844 397.339844 270.601562 396.1875 271.996094 394.582031 C 273.390625 392.972656 274.367188 391.789062 274.925781 391.019531 C 275.484375 390.25 276.285156 389.203125 277.332031 387.878906 C 278.378906 386.550781 279.113281 385.433594 279.53125 384.527344 C 279.949219 383.617188 280.472656 382.605469 281.101562 381.488281 C 281.730469 380.371094 282.183594 379.253906 282.460938 378.136719 C 282.742188 377.019531 282.984375 375.972656 283.195312 374.996094 C 283.40625 374.015625 283.507812 372.863281 283.507812 371.539062 C 283.507812 367.140625 282.324219 363.335938 279.949219 360.121094 C 277.578125 356.910156 274.195312 355.304688 269.796875 355.304688 C 267.496094 355.304688 265.472656 355.898438 263.726562 357.085938 C 261.980469 358.273438 260.761719 359.425781 260.0625 360.542969 C 259.363281 361.660156 259.015625 362.320312 259.015625 362.53125 C 259.015625 362.601562 259.191406 362.636719 259.539062 362.636719 C 260.796875 362.636719 262.085938 363.125 263.414062 364.101562 C 264.738281 365.078125 265.402344 366.6875 265.402344 368.921875 C 265.402344 370.664062 264.84375 372.132812 263.726562 373.320312 C 262.609375 374.507812 261.039062 375.132812 259.015625 375.203125 Z M 259.015625 375.203125 " fill-opacity="1" fill-rule="nonzero"/><path fill="#000000" d="M 389.144531 417.097656 C 389.144531 418.496094 388.414062 419.191406 386.945312 419.191406 C 386.597656 419.191406 385.832031 418.632812 384.644531 417.515625 C 383.457031 416.398438 380.179688 413.152344 374.804688 407.777344 L 363.917969 396.882812 L 352.929688 407.882812 C 345.53125 415.144531 341.730469 418.84375 341.519531 418.984375 C 341.238281 419.125 340.996094 419.191406 340.785156 419.191406 C 340.226562 419.191406 339.738281 418.984375 339.320312 418.566406 C 338.902344 418.144531 338.65625 417.65625 338.589844 417.097656 C 338.589844 416.609375 339.078125 415.839844 340.054688 414.792969 C 341.03125 413.746094 344.308594 410.429688 349.894531 404.84375 L 360.777344 393.953125 L 349.894531 383.058594 C 344.242188 377.402344 340.960938 374.085938 340.054688 373.109375 C 339.148438 372.132812 338.65625 371.363281 338.589844 370.804688 C 338.589844 370.175781 338.796875 369.6875 339.214844 369.339844 C 339.636719 368.988281 340.160156 368.816406 340.785156 368.816406 C 341.136719 368.816406 341.378906 368.851562 341.519531 368.921875 C 341.730469 369.058594 345.53125 372.761719 352.929688 380.023438 L 363.917969 391.019531 L 374.804688 380.125 C 380.179688 374.75 383.457031 371.503906 384.644531 370.386719 C 385.832031 369.269531 386.597656 368.710938 386.945312 368.710938 C 388.414062 368.710938 389.144531 369.410156 389.144531 370.804688 C 389.144531 371.292969 388.796875 371.921875 388.097656 372.691406 C 387.402344 373.457031 383.980469 376.878906 377.839844 382.953125 L 366.953125 393.953125 L 377.839844 404.949219 C 383.703125 410.8125 387.050781 414.199219 387.890625 415.109375 C 388.726562 416.015625 389.144531 416.679688 389.144531 417.097656 Z M 389.144531 417.097656 " fill-opacity="1" fill-rule="nonzero"/><path fill="#000000" d="M 450.191406 359.597656 L 448.828125 360.121094 C 447.851562 360.472656 446.457031 360.820312 444.644531 361.167969 C 442.828125 361.519531 440.804688 361.761719 438.570312 361.902344 L 436.582031 361.902344 L 436.582031 357.085938 L 438.570312 357.085938 C 441.851562 356.945312 444.886719 356.421875 447.679688 355.515625 C 450.46875 354.605469 452.421875 353.769531 453.539062 353 C 454.65625 352.230469 455.632812 351.464844 456.472656 350.695312 C 456.609375 350.488281 457.027344 350.382812 457.726562 350.382812 C 458.355469 350.382812 458.949219 350.589844 459.507812 351.011719 L 459.507812 382.328125 L 459.609375 413.746094 C 460.101562 414.234375 460.519531 414.550781 460.867188 414.6875 C 461.214844 414.828125 462.054688 414.96875 463.378906 415.109375 C 464.707031 415.246094 466.867188 415.316406 469.871094 415.316406 L 472.589844 415.316406 L 472.589844 420.136719 L 471.4375 420.136719 C 469.972656 419.925781 464.425781 419.820312 454.796875 419.820312 C 445.304688 419.820312 439.828125 419.925781 438.363281 420.136719 L 437.105469 420.136719 L 437.105469 415.316406 L 439.828125 415.316406 C 441.363281 415.316406 442.6875 415.316406 443.804688 415.316406 C 444.921875 415.316406 445.792969 415.28125 446.421875 415.214844 C 447.050781 415.144531 447.609375 415.039062 448.097656 414.898438 C 448.585938 414.757812 448.863281 414.6875 448.933594 414.6875 C 449.003906 414.6875 449.214844 414.515625 449.5625 414.164062 C 449.910156 413.816406 450.121094 413.675781 450.191406 413.746094 Z M 450.191406 359.597656 " fill-opacity="1" fill-rule="nonzero"/><g clip-path="url(#3163c8664a)"><path fill="#000000" d="M 490.28125 358.867188 C 494.1875 353.210938 499.527344 350.382812 506.296875 350.382812 C 509.644531 350.382812 512.996094 351.289062 516.34375 353.105469 C 519.695312 354.921875 522.414062 358.132812 524.507812 362.742188 C 527.089844 368.535156 528.382812 376.496094 528.382812 386.621094 C 528.382812 397.441406 526.882812 405.71875 523.878906 411.441406 C 522.484375 414.375 520.566406 416.714844 518.125 418.460938 C 515.679688 420.207031 513.550781 421.289062 511.738281 421.707031 C 509.925781 422.125 508.144531 422.371094 506.398438 422.441406 C 504.585938 422.441406 502.769531 422.230469 500.957031 421.8125 C 499.144531 421.390625 497.015625 420.273438 494.570312 418.460938 C 492.128906 416.644531 490.210938 414.304688 488.816406 411.441406 C 485.8125 405.71875 484.3125 397.441406 484.3125 386.621094 C 484.3125 374.472656 486.304688 365.21875 490.28125 358.867188 Z M 513.832031 357.609375 C 511.738281 355.375 509.261719 354.257812 506.398438 354.257812 C 503.46875 354.257812 500.957031 355.375 498.863281 357.609375 C 497.117188 359.425781 495.96875 361.9375 495.410156 365.148438 C 494.851562 368.363281 494.570312 375.066406 494.570312 385.257812 C 494.570312 396.289062 494.851562 403.550781 495.410156 407.042969 C 495.96875 410.535156 497.222656 413.292969 499.175781 415.316406 C 501.132812 417.414062 503.539062 418.460938 506.398438 418.460938 C 509.191406 418.460938 511.5625 417.414062 513.519531 415.316406 C 515.542969 413.222656 516.796875 410.289062 517.285156 406.519531 C 517.773438 402.75 518.054688 395.664062 518.125 385.257812 C 518.125 375.132812 517.84375 368.464844 517.285156 365.253906 C 516.726562 362.042969 515.578125 359.492188 513.832031 357.609375 Z M 513.832031 357.609375 " fill-opacity="1" fill-rule="nonzero"/></g><path fill="#000000" d="M 542.238281 359.332031 C 542.238281 359.332031 542.238281 359.011719 542.238281 358.367188 C 542.238281 357.726562 542.585938 357.234375 543.273438 356.886719 L 586.269531 356.886719 C 587.011719 357.28125 587.382812 357.777344 587.382812 358.367188 C 587.382812 358.960938 587.011719 359.453125 586.269531 359.847656 L 543.273438 359.847656 C 542.585938 359.503906 542.238281 359.011719 542.238281 358.367188 Z M 542.238281 359.332031 " fill-opacity="1" fill-rule="nonzero"/><g clip-path="url(#afd2235326)"><path fill="#000000" d="M 619.648438 355.628906 C 617.277344 359.378906 614.320312 361.257812 610.765625 361.257812 C 606.917969 361.257812 603.761719 359.800781 601.292969 356.886719 C 598.828125 353.972656 597.347656 350.863281 596.855469 347.558594 C 596.753906 346.765625 596.707031 345.78125 596.707031 344.59375 L 596.707031 344.003906 C 596.707031 339.410156 598.40625 335.414062 601.8125 332.007812 C 604.773438 329.046875 608.027344 327.5625 611.582031 327.5625 C 611.679688 327.5625 611.828125 327.5625 612.023438 327.5625 C 612.222656 327.5625 612.417969 327.589844 612.617188 327.636719 L 612.914062 327.636719 C 613.503906 327.636719 614.121094 327.6875 614.761719 327.785156 C 615.402344 327.886719 616.316406 328.179688 617.5 328.675781 C 618.683594 329.167969 619.84375 329.957031 620.980469 331.042969 C 622.113281 332.128906 623.175781 333.585938 624.160156 335.414062 C 626.28125 339.757812 627.34375 345.335938 627.34375 352.148438 C 627.34375 359.058594 625.863281 364.910156 622.902344 369.699219 C 621.175781 372.460938 619.105469 374.609375 616.6875 376.140625 C 614.269531 377.667969 611.703125 378.460938 608.992188 378.507812 C 605.980469 378.507812 603.515625 377.792969 601.589844 376.363281 C 599.664062 374.929688 598.679688 372.808594 598.628906 369.992188 C 598.582031 367.179688 599.886719 365.796875 602.550781 365.847656 C 603.636719 365.847656 604.550781 366.191406 605.289062 366.882812 C 606.03125 367.574219 606.398438 368.539062 606.398438 369.769531 C 606.398438 370.660156 606.179688 371.425781 605.734375 372.066406 C 605.289062 372.707031 604.894531 373.105469 604.550781 373.25 C 604.203125 373.398438 603.882812 373.523438 603.589844 373.621094 L 603.292969 373.695312 C 603.292969 373.792969 603.464844 373.941406 603.808594 374.140625 C 604.15625 374.335938 604.796875 374.585938 605.734375 374.878906 C 606.671875 375.175781 607.707031 375.300781 608.84375 375.25 L 609.285156 375.25 C 612.246094 375.25 614.738281 373.671875 616.761719 370.511719 C 618.683594 367.746094 619.648438 362.960938 619.648438 356.148438 Z M 611.65625 358.515625 C 614.023438 358.515625 615.921875 357.308594 617.351562 354.886719 C 618.785156 352.46875 619.523438 349.1875 619.574219 345.039062 C 619.574219 341.1875 619.375 338.425781 618.980469 336.746094 C 618.882812 336.253906 618.734375 335.757812 618.535156 335.265625 C 618.339844 334.773438 617.992188 334.128906 617.5 333.339844 C 617.007812 332.550781 616.265625 331.882812 615.28125 331.339844 C 614.292969 330.796875 613.132812 330.550781 611.800781 330.601562 C 609.925781 330.601562 608.324219 331.265625 606.992188 332.597656 C 605.957031 333.683594 605.289062 334.96875 604.992188 336.449219 C 604.699219 337.929688 604.523438 340.523438 604.476562 344.226562 C 604.476562 348.324219 604.597656 351.085938 604.847656 352.519531 C 605.09375 353.949219 605.585938 355.109375 606.324219 356 C 607.558594 357.675781 609.335938 358.515625 611.65625 358.515625 Z M 611.65625 358.515625 " fill-opacity="1" fill-rule="nonzero"/></g></svg>