<svg xmlns="http://www.w3.org/2000/svg" xmlns:xlink="http://www.w3.org/1999/xlink" width="1000" zoomAndPan="magnify" viewBox="0 0 750 749.999995" height="1000" preserveAspectRatio="xMidYMid meet" version="1.0"><defs><clipPath id="bccde9e7ed"><path d="M 117 350 L 161 350 L 161 421.875 L 117 421.875 Z M 117 350 " clip-rule="nonzero"/></clipPath><clipPath id="cc90518325"><path d="M 450 350 L 495 350 L 495 421.875 L 450 421.875 Z M 450 350 " clip-rule="nonzero"/></clipPath><clipPath id="6043febb7e"><path d="M 564 328.125 L 590 328.125 L 590 377 L 564 377 Z M 564 328.125 " clip-rule="nonzero"/></clipPath><clipPath id="d62a94ab36"><path d="M 601 328.125 L 627 328.125 L 627 377 L 601 377 Z M 601 328.125 " clip-rule="nonzero"/></clipPath></defs><rect x="-75" width="900" fill="#ffffff" y="-74.999999" height="899.999994" fill-opacity="1"/><rect x="-75" width="900" fill="#ffffff" y="-74.999999" height="899.999994" fill-opacity="1"/><g clip-path="url(#bccde9e7ed)"><path fill="#000000" d="M 149.464844 389.898438 C 146.152344 395.140625 142.011719 397.761719 137.042969 397.761719 C 131.664062 397.761719 127.246094 395.726562 123.796875 391.65625 C 120.347656 387.585938 118.277344 383.238281 117.589844 378.617188 C 117.449219 377.511719 117.382812 376.132812 117.382812 374.476562 L 117.382812 373.648438 C 117.382812 367.234375 119.761719 361.644531 124.523438 356.882812 C 128.660156 352.746094 133.214844 350.675781 138.183594 350.675781 C 138.320312 350.675781 138.527344 350.675781 138.804688 350.675781 C 139.078125 350.675781 139.355469 350.710938 139.632812 350.777344 L 140.046875 350.777344 C 140.875 350.777344 141.734375 350.847656 142.632812 350.984375 C 143.53125 351.125 144.804688 351.539062 146.460938 352.226562 C 148.117188 352.917969 149.738281 354.019531 151.324219 355.539062 C 152.914062 357.058594 154.394531 359.09375 155.777344 361.644531 C 158.742188 367.714844 160.226562 375.511719 160.226562 385.03125 C 160.226562 394.691406 158.15625 402.867188 154.015625 409.558594 C 151.601562 413.421875 148.703125 416.425781 145.324219 418.5625 C 141.941406 420.703125 138.355469 421.804688 134.5625 421.875 C 130.351562 421.875 126.902344 420.875 124.210938 418.875 C 121.519531 416.875 120.140625 413.90625 120.070312 409.972656 C 120.003906 406.042969 121.832031 404.109375 125.558594 404.179688 C 127.074219 404.179688 128.351562 404.660156 129.386719 405.628906 C 130.421875 406.59375 130.9375 407.9375 130.9375 409.664062 C 130.9375 410.90625 130.628906 411.972656 130.007812 412.871094 C 129.386719 413.769531 128.835938 414.320312 128.351562 414.527344 C 127.867188 414.734375 127.417969 414.90625 127.007812 415.042969 L 126.59375 415.148438 C 126.59375 415.285156 126.832031 415.492188 127.316406 415.769531 C 127.800781 416.046875 128.695312 416.390625 130.007812 416.804688 C 131.316406 417.21875 132.765625 417.390625 134.355469 417.320312 L 134.972656 417.320312 C 139.113281 417.320312 142.597656 415.113281 145.425781 410.699219 C 148.117188 406.835938 149.464844 400.140625 149.464844 390.621094 Z M 138.285156 393.933594 C 141.597656 393.933594 144.253906 392.242188 146.253906 388.863281 C 148.253906 385.480469 149.289062 380.894531 149.359375 375.097656 C 149.359375 369.71875 149.082031 365.851562 148.53125 363.507812 C 148.394531 362.816406 148.1875 362.128906 147.910156 361.4375 C 147.632812 360.746094 147.152344 359.851562 146.460938 358.746094 C 145.773438 357.644531 144.738281 356.710938 143.355469 355.953125 C 141.976562 355.195312 140.355469 354.847656 138.492188 354.917969 C 135.871094 354.917969 133.628906 355.847656 131.765625 357.710938 C 130.316406 359.230469 129.386719 361.023438 128.972656 363.09375 C 128.558594 365.164062 128.316406 368.785156 128.246094 373.960938 C 128.246094 379.6875 128.421875 383.550781 128.765625 385.550781 C 129.109375 387.550781 129.800781 389.171875 130.835938 390.414062 C 132.558594 392.761719 135.042969 393.933594 138.285156 393.933594 Z M 138.285156 393.933594 " fill-opacity="1" fill-rule="nonzero"/></g><path fill="#000000" d="M 186.820312 359.78125 L 185.476562 360.300781 C 184.511719 360.644531 183.132812 360.988281 181.335938 361.335938 C 179.542969 361.679688 177.542969 361.921875 175.335938 362.058594 L 173.367188 362.058594 L 173.367188 357.296875 L 175.335938 357.296875 C 178.578125 357.160156 181.578125 356.644531 184.339844 355.746094 C 187.097656 354.847656 189.03125 354.019531 190.132812 353.261719 C 191.238281 352.503906 192.203125 351.746094 193.03125 350.984375 C 193.167969 350.777344 193.582031 350.675781 194.273438 350.675781 C 194.894531 350.675781 195.480469 350.882812 196.03125 351.296875 L 196.03125 382.238281 L 196.136719 413.285156 C 196.617188 413.769531 197.03125 414.078125 197.378906 414.21875 C 197.722656 414.355469 198.550781 414.492188 199.863281 414.628906 C 201.171875 414.769531 203.3125 414.835938 206.277344 414.835938 L 208.96875 414.835938 L 208.96875 419.597656 L 207.832031 419.597656 C 206.382812 419.390625 200.898438 419.289062 191.375 419.289062 C 181.992188 419.289062 176.578125 419.390625 175.128906 419.597656 L 173.886719 419.597656 L 173.886719 414.835938 L 176.578125 414.835938 C 178.09375 414.835938 179.40625 414.835938 180.507812 414.835938 C 181.613281 414.835938 182.476562 414.804688 183.097656 414.734375 C 183.71875 414.664062 184.269531 414.5625 184.753906 414.421875 C 185.234375 414.285156 185.511719 414.21875 185.582031 414.21875 C 185.648438 414.21875 185.855469 414.042969 186.203125 413.699219 C 186.546875 413.355469 186.753906 413.214844 186.820312 413.285156 Z M 186.820312 359.78125 " fill-opacity="1" fill-rule="nonzero"/><path fill="#000000" d="M 227.804688 375.203125 C 225.941406 375.203125 224.457031 374.582031 223.351562 373.339844 C 222.25 372.097656 221.699219 370.578125 221.699219 368.785156 C 221.699219 363.886719 223.527344 359.644531 227.183594 356.054688 C 230.839844 352.46875 235.394531 350.675781 240.84375 350.675781 C 247.121094 350.675781 252.363281 352.605469 256.574219 356.46875 C 260.78125 360.332031 262.921875 365.335938 262.988281 371.476562 C 262.988281 374.441406 262.300781 377.273438 260.917969 379.960938 C 259.539062 382.652344 257.882812 385 255.953125 387 C 254.019531 389 251.261719 391.554688 247.671875 394.65625 C 245.191406 396.796875 241.738281 399.96875 237.324219 404.179688 L 231.21875 409.972656 L 239.082031 410.078125 C 249.914062 410.078125 255.675781 409.90625 256.367188 409.558594 C 256.847656 409.421875 257.675781 406.351562 258.851562 400.347656 L 258.851562 400.039062 L 262.988281 400.039062 L 262.988281 400.347656 C 262.921875 400.554688 262.472656 403.695312 261.644531 409.765625 C 260.816406 415.839844 260.296875 419.011719 260.09375 419.289062 L 260.09375 419.597656 L 221.699219 419.597656 L 221.699219 416.390625 C 221.699219 415.90625 221.90625 415.390625 222.320312 414.835938 C 222.734375 414.285156 223.765625 413.078125 225.421875 411.214844 C 227.425781 409.007812 229.148438 407.074219 230.597656 405.421875 C 231.21875 404.730469 232.390625 403.453125 234.117188 401.589844 C 235.839844 399.726562 237.015625 398.453125 237.636719 397.761719 C 238.253906 397.074219 239.257812 395.933594 240.636719 394.347656 C 242.015625 392.761719 242.980469 391.585938 243.535156 390.828125 C 244.085938 390.070312 244.878906 389.035156 245.914062 387.722656 C 246.949219 386.414062 247.671875 385.308594 248.085938 384.414062 C 248.5 383.515625 249.019531 382.515625 249.640625 381.410156 C 250.261719 380.308594 250.707031 379.203125 250.984375 378.097656 C 251.261719 376.996094 251.503906 375.960938 251.710938 374.996094 C 251.917969 374.027344 252.019531 372.890625 252.019531 371.578125 C 252.019531 367.234375 250.847656 363.472656 248.5 360.300781 C 246.15625 357.125 242.808594 355.539062 238.460938 355.539062 C 236.1875 355.539062 234.183594 356.125 232.460938 357.296875 C 230.734375 358.472656 229.527344 359.609375 228.839844 360.714844 C 228.148438 361.816406 227.804688 362.472656 227.804688 362.679688 C 227.804688 362.75 227.976562 362.78125 228.320312 362.78125 C 229.5625 362.78125 230.839844 363.265625 232.148438 364.230469 C 233.460938 365.199219 234.117188 366.785156 234.117188 368.992188 C 234.117188 370.71875 233.5625 372.167969 232.460938 373.339844 C 231.355469 374.511719 229.804688 375.132812 227.804688 375.203125 Z M 227.804688 375.203125 " fill-opacity="1" fill-rule="nonzero"/><path fill="#000000" d="M 356.460938 416.597656 C 356.460938 417.976562 355.734375 418.667969 354.285156 418.667969 C 353.941406 418.667969 353.183594 418.113281 352.011719 417.011719 C 350.835938 415.90625 347.59375 412.699219 342.28125 407.386719 L 331.519531 396.625 L 320.652344 407.488281 C 313.339844 414.664062 309.578125 418.320312 309.371094 418.460938 C 309.097656 418.597656 308.855469 418.667969 308.648438 418.667969 C 308.097656 418.667969 307.613281 418.460938 307.199219 418.046875 C 306.785156 417.632812 306.542969 417.148438 306.476562 416.597656 C 306.476562 416.113281 306.957031 415.355469 307.925781 414.320312 C 308.890625 413.285156 312.132812 410.007812 317.652344 404.488281 L 328.414062 393.726562 L 317.652344 382.964844 C 312.0625 377.375 308.820312 374.097656 307.925781 373.132812 C 307.027344 372.167969 306.542969 371.40625 306.476562 370.855469 C 306.476562 370.234375 306.683594 369.75 307.097656 369.40625 C 307.511719 369.0625 308.027344 368.890625 308.648438 368.890625 C 308.992188 368.890625 309.234375 368.921875 309.371094 368.992188 C 309.578125 369.128906 313.339844 372.785156 320.652344 379.960938 L 331.519531 390.828125 L 342.28125 380.066406 C 347.59375 374.753906 350.835938 371.546875 352.011719 370.441406 C 353.183594 369.335938 353.941406 368.785156 354.285156 368.785156 C 355.734375 368.785156 356.460938 369.476562 356.460938 370.855469 C 356.460938 371.339844 356.113281 371.960938 355.425781 372.71875 C 354.734375 373.476562 351.355469 376.859375 345.285156 382.859375 L 334.519531 393.726562 L 345.285156 404.59375 C 351.078125 410.386719 354.390625 413.734375 355.21875 414.628906 C 356.046875 415.527344 356.460938 416.183594 356.460938 416.597656 Z M 356.460938 416.597656 " fill-opacity="1" fill-rule="nonzero"/><path fill="#000000" d="M 416.8125 359.78125 L 415.46875 360.300781 C 414.503906 360.644531 413.125 360.988281 411.328125 361.335938 C 409.535156 361.679688 407.535156 361.921875 405.328125 362.058594 L 403.359375 362.058594 L 403.359375 357.296875 L 405.328125 357.296875 C 408.570312 357.160156 411.570312 356.644531 414.332031 355.746094 C 417.089844 354.847656 419.023438 354.019531 420.125 353.261719 C 421.230469 352.503906 422.195312 351.746094 423.023438 350.984375 C 423.160156 350.777344 423.574219 350.675781 424.265625 350.675781 C 424.886719 350.675781 425.472656 350.882812 426.023438 351.296875 L 426.023438 382.238281 L 426.128906 413.285156 C 426.609375 413.769531 427.023438 414.078125 427.371094 414.21875 C 427.714844 414.355469 428.542969 414.492188 429.855469 414.628906 C 431.164062 414.769531 433.304688 414.835938 436.269531 414.835938 L 438.960938 414.835938 L 438.960938 419.597656 L 437.824219 419.597656 C 436.375 419.390625 430.890625 419.289062 421.367188 419.289062 C 411.984375 419.289062 406.570312 419.390625 405.121094 419.597656 L 403.878906 419.597656 L 403.878906 414.835938 L 406.570312 414.835938 C 408.085938 414.835938 409.398438 414.835938 410.5 414.835938 C 411.605469 414.835938 412.46875 414.804688 413.089844 414.734375 C 413.710938 414.664062 414.261719 414.5625 414.746094 414.421875 C 415.226562 414.285156 415.503906 414.21875 415.574219 414.21875 C 415.640625 414.21875 415.847656 414.042969 416.195312 413.699219 C 416.539062 413.355469 416.746094 413.214844 416.8125 413.285156 Z M 416.8125 359.78125 " fill-opacity="1" fill-rule="nonzero"/><g clip-path="url(#cc90518325)"><path fill="#000000" d="M 456.449219 359.058594 C 460.3125 353.46875 465.59375 350.675781 472.285156 350.675781 C 475.59375 350.675781 478.90625 351.570312 482.21875 353.367188 C 485.53125 355.160156 488.222656 358.332031 490.292969 362.886719 C 492.84375 368.613281 494.121094 376.476562 494.121094 386.480469 C 494.121094 397.175781 492.636719 405.351562 489.671875 411.007812 C 488.289062 413.90625 486.394531 416.21875 483.976562 417.941406 C 481.5625 419.667969 479.460938 420.738281 477.664062 421.152344 C 475.871094 421.566406 474.113281 421.804688 472.386719 421.875 C 470.59375 421.875 468.800781 421.667969 467.007812 421.253906 C 465.210938 420.839844 463.109375 419.734375 460.695312 417.941406 C 458.277344 416.148438 456.382812 413.835938 455 411.007812 C 452.035156 405.351562 450.550781 397.175781 450.550781 386.480469 C 450.550781 374.476562 452.519531 365.335938 456.449219 359.058594 Z M 479.734375 357.816406 C 477.664062 355.609375 475.214844 354.503906 472.386719 354.503906 C 469.488281 354.503906 467.007812 355.609375 464.9375 357.816406 C 463.210938 359.609375 462.074219 362.09375 461.519531 365.265625 C 460.96875 368.441406 460.695312 375.0625 460.695312 385.136719 C 460.695312 396.039062 460.96875 403.210938 461.519531 406.664062 C 462.074219 410.113281 463.316406 412.835938 465.246094 414.835938 C 467.179688 416.90625 469.558594 417.941406 472.386719 417.941406 C 475.148438 417.941406 477.492188 416.90625 479.425781 414.835938 C 481.425781 412.769531 482.667969 409.871094 483.148438 406.144531 C 483.632812 402.417969 483.910156 395.417969 483.976562 385.136719 C 483.976562 375.132812 483.703125 368.542969 483.148438 365.371094 C 482.597656 362.195312 481.460938 359.679688 479.734375 357.816406 Z M 479.734375 357.816406 " fill-opacity="1" fill-rule="nonzero"/></g><path fill="#000000" d="M 507.820312 359.515625 C 507.820312 359.515625 507.820312 359.199219 507.820312 358.566406 C 507.820312 357.933594 508.164062 357.445312 508.84375 357.101562 L 551.355469 357.101562 C 552.085938 357.492188 552.453125 357.980469 552.453125 358.566406 C 552.453125 359.152344 552.085938 359.640625 551.355469 360.03125 L 508.84375 360.03125 C 508.164062 359.6875 507.820312 359.199219 507.820312 358.566406 Z M 507.820312 359.515625 " fill-opacity="1" fill-rule="nonzero"/><g clip-path="url(#6043febb7e)"><path fill="#000000" d="M 574.183594 334.566406 L 573.230469 334.933594 C 572.546875 335.175781 571.574219 335.421875 570.304688 335.664062 C 569.035156 335.910156 567.621094 336.078125 566.0625 336.175781 L 564.671875 336.175781 L 564.671875 332.8125 L 566.0625 332.8125 C 568.351562 332.714844 570.476562 332.347656 572.425781 331.714844 C 574.378906 331.078125 575.742188 330.496094 576.523438 329.957031 C 577.304688 329.421875 577.988281 328.886719 578.574219 328.347656 C 578.667969 328.203125 578.960938 328.128906 579.449219 328.128906 C 579.890625 328.128906 580.304688 328.273438 580.695312 328.566406 L 580.695312 350.445312 L 580.765625 372.394531 C 581.109375 372.734375 581.402344 372.957031 581.644531 373.054688 C 581.890625 373.152344 582.472656 373.25 583.402344 373.34375 C 584.328125 373.441406 585.839844 373.492188 587.9375 373.492188 L 589.839844 373.492188 L 589.839844 376.859375 L 589.035156 376.859375 C 588.011719 376.710938 584.132812 376.636719 577.402344 376.636719 C 570.769531 376.636719 566.9375 376.710938 565.914062 376.859375 L 565.035156 376.859375 L 565.035156 373.492188 L 566.9375 373.492188 C 568.011719 373.492188 568.9375 373.492188 569.71875 373.492188 C 570.5 373.492188 571.109375 373.46875 571.546875 373.417969 C 571.988281 373.371094 572.378906 373.296875 572.71875 373.199219 C 573.058594 373.101562 573.253906 373.054688 573.304688 373.054688 C 573.351562 373.054688 573.5 372.929688 573.742188 372.6875 C 573.988281 372.441406 574.132812 372.347656 574.183594 372.394531 Z M 574.183594 334.566406 " fill-opacity="1" fill-rule="nonzero"/></g><g clip-path="url(#d62a94ab36)"><path fill="#000000" d="M 610.765625 334.566406 L 609.8125 334.933594 C 609.132812 335.175781 608.15625 335.421875 606.886719 335.664062 C 605.621094 335.910156 604.203125 336.078125 602.644531 336.175781 L 601.253906 336.175781 L 601.253906 332.8125 L 602.644531 332.8125 C 604.9375 332.714844 607.058594 332.347656 609.007812 331.714844 C 610.960938 331.078125 612.328125 330.496094 613.105469 329.957031 C 613.886719 329.421875 614.570312 328.886719 615.15625 328.347656 C 615.253906 328.203125 615.546875 328.128906 616.035156 328.128906 C 616.472656 328.128906 616.886719 328.273438 617.277344 328.566406 L 617.277344 350.445312 L 617.351562 372.394531 C 617.691406 372.734375 617.984375 372.957031 618.226562 373.054688 C 618.472656 373.152344 619.058594 373.25 619.984375 373.34375 C 620.910156 373.441406 622.421875 373.492188 624.519531 373.492188 L 626.421875 373.492188 L 626.421875 376.859375 L 625.617188 376.859375 C 624.59375 376.710938 620.714844 376.636719 613.984375 376.636719 C 607.351562 376.636719 603.523438 376.710938 602.496094 376.859375 L 601.621094 376.859375 L 601.621094 373.492188 L 603.523438 373.492188 C 604.59375 373.492188 605.523438 373.492188 606.300781 373.492188 C 607.082031 373.492188 607.691406 373.46875 608.132812 373.417969 C 608.570312 373.371094 608.960938 373.296875 609.300781 373.199219 C 609.644531 373.101562 609.839844 373.054688 609.886719 373.054688 C 609.9375 373.054688 610.082031 372.929688 610.328125 372.6875 C 610.570312 372.441406 610.714844 372.347656 610.765625 372.394531 Z M 610.765625 334.566406 " fill-opacity="1" fill-rule="nonzero"/></g></svg>