<svg xmlns="http://www.w3.org/2000/svg" xmlns:xlink="http://www.w3.org/1999/xlink" width="1000" zoomAndPan="magnify" viewBox="0 0 750 749.999995" height="1000" preserveAspectRatio="xMidYMid meet" version="1.0"><defs><clipPath id="2de71d38a5"><path d="M 43 354 L 82 354 L 82 415.828125 L 43 415.828125 Z M 43 354 " clip-rule="nonzero"/></clipPath><clipPath id="0ad52d2972"><path d="M 113 354 L 152 354 L 152 415.828125 L 113 415.828125 Z M 113 354 " clip-rule="nonzero"/></clipPath><clipPath id="803e5e040f"><path d="M 158 354 L 196 354 L 196 415.828125 L 158 415.828125 Z M 158 354 " clip-rule="nonzero"/></clipPath><clipPath id="dd1e299a5e"><path d="M 202 354 L 241 354 L 241 415.828125 L 202 415.828125 Z M 202 354 " clip-rule="nonzero"/></clipPath><clipPath id="d84979bb9e"><path d="M 247 354 L 286 354 L 286 415.828125 L 247 415.828125 Z M 247 354 " clip-rule="nonzero"/></clipPath><clipPath id="8e154bc70d"><path d="M 292 354 L 330 354 L 330 415.828125 L 292 415.828125 Z M 292 354 " clip-rule="nonzero"/></clipPath><clipPath id="1614534933"><path d="M 580 354 L 619 354 L 619 415.828125 L 580 415.828125 Z M 580 354 " clip-rule="nonzero"/></clipPath><clipPath id="5b48a9bb6f"><path d="M 675 334.171875 L 704 334.171875 L 704 377 L 675 377 Z M 675 334.171875 " clip-rule="nonzero"/></clipPath></defs><rect x="-75" width="900" fill="#ffffff" y="-74.999999" height="899.999994" fill-opacity="1"/><rect x="-75" width="900" fill="#ffffff" y="-74.999999" height="899.999994" fill-opacity="1"/><g clip-path="url(#2de71d38a5)"><path fill="#000000" d="M 49.035156 361.582031 C 52.375 356.757812 56.933594 354.34375 62.714844 354.34375 C 65.574219 354.34375 68.4375 355.117188 71.296875 356.667969 C 74.15625 358.214844 76.480469 360.957031 78.269531 364.886719 C 80.476562 369.832031 81.578125 376.625 81.578125 385.261719 C 81.578125 394.5 80.296875 401.558594 77.734375 406.441406 C 76.542969 408.945312 74.902344 410.941406 72.816406 412.429688 C 70.730469 413.921875 68.914062 414.84375 67.363281 415.199219 C 65.8125 415.558594 64.292969 415.765625 62.804688 415.828125 C 61.253906 415.828125 59.703125 415.648438 58.15625 415.289062 C 56.605469 414.933594 54.785156 413.980469 52.699219 412.429688 C 50.613281 410.882812 48.976562 408.886719 47.785156 406.441406 C 45.222656 401.558594 43.941406 394.5 43.941406 385.261719 C 43.941406 374.898438 45.636719 367.003906 49.035156 361.582031 Z M 69.152344 360.507812 C 67.363281 358.601562 65.246094 357.648438 62.804688 357.648438 C 60.300781 357.648438 58.15625 358.601562 56.367188 360.507812 C 54.875 362.058594 53.894531 364.203125 53.417969 366.945312 C 52.941406 369.683594 52.699219 375.402344 52.699219 384.101562 C 52.699219 393.515625 52.941406 399.710938 53.417969 402.691406 C 53.894531 405.667969 54.964844 408.023438 56.632812 409.75 C 58.304688 411.535156 60.359375 412.429688 62.804688 412.429688 C 65.1875 412.429688 67.214844 411.535156 68.882812 409.75 C 70.613281 407.960938 71.683594 405.460938 72.101562 402.242188 C 72.519531 399.027344 72.757812 392.980469 72.816406 384.101562 C 72.816406 375.464844 72.578125 369.773438 72.101562 367.03125 C 71.625 364.292969 70.640625 362.117188 69.152344 360.507812 Z M 69.152344 360.507812 " fill-opacity="1" fill-rule="nonzero"/></g><path fill="#000000" d="M 92.128906 408.5 C 92.128906 407.070312 92.632812 405.816406 93.648438 404.746094 C 94.660156 403.671875 95.941406 403.136719 97.492188 403.136719 C 98.921875 403.136719 100.175781 403.613281 101.246094 404.566406 C 102.320312 405.519531 102.886719 406.800781 102.945312 408.410156 C 102.945312 409.898438 102.4375 411.179688 101.425781 412.253906 C 100.414062 413.324219 99.128906 413.859375 97.582031 413.859375 C 96.03125 413.859375 94.75 413.355469 93.738281 412.339844 C 92.722656 411.328125 92.1875 410.046875 92.128906 408.5 Z M 92.128906 408.5 " fill-opacity="1" fill-rule="nonzero"/><g clip-path="url(#0ad52d2972)"><path fill="#000000" d="M 118.589844 361.582031 C 121.929688 356.757812 126.488281 354.34375 132.269531 354.34375 C 135.128906 354.34375 137.992188 355.117188 140.851562 356.667969 C 143.714844 358.214844 146.039062 360.957031 147.824219 364.886719 C 150.03125 369.832031 151.132812 376.625 151.132812 385.261719 C 151.132812 394.5 149.851562 401.558594 147.289062 406.441406 C 146.097656 408.945312 144.457031 410.941406 142.371094 412.429688 C 140.285156 413.921875 138.46875 414.84375 136.917969 415.199219 C 135.367188 415.558594 133.847656 415.765625 132.359375 415.828125 C 130.808594 415.828125 129.257812 415.648438 127.710938 415.289062 C 126.160156 414.933594 124.34375 413.980469 122.257812 412.429688 C 120.171875 410.882812 118.53125 408.886719 117.339844 406.441406 C 114.777344 401.558594 113.496094 394.5 113.496094 385.261719 C 113.496094 374.898438 115.195312 367.003906 118.589844 361.582031 Z M 138.707031 360.507812 C 136.917969 358.601562 134.800781 357.648438 132.359375 357.648438 C 129.855469 357.648438 127.710938 358.601562 125.921875 360.507812 C 124.433594 362.058594 123.449219 364.203125 122.972656 366.945312 C 122.496094 369.683594 122.257812 375.402344 122.257812 384.101562 C 122.257812 393.515625 122.496094 399.710938 122.972656 402.691406 C 123.449219 405.667969 124.519531 408.023438 126.191406 409.75 C 127.859375 411.535156 129.914062 412.429688 132.359375 412.429688 C 134.742188 412.429688 136.769531 411.535156 138.4375 409.75 C 140.167969 407.960938 141.238281 405.460938 141.65625 402.242188 C 142.074219 399.027344 142.3125 392.980469 142.371094 384.101562 C 142.371094 375.464844 142.132812 369.773438 141.65625 367.03125 C 141.179688 364.292969 140.195312 362.117188 138.707031 360.507812 Z M 138.707031 360.507812 " fill-opacity="1" fill-rule="nonzero"/></g><g clip-path="url(#803e5e040f)"><path fill="#000000" d="M 163.292969 361.582031 C 166.628906 356.757812 171.1875 354.34375 176.96875 354.34375 C 179.832031 354.34375 182.691406 355.117188 185.554688 356.667969 C 188.414062 358.214844 190.738281 360.957031 192.527344 364.886719 C 194.730469 369.832031 195.835938 376.625 195.835938 385.261719 C 195.835938 394.5 194.554688 401.558594 191.992188 406.441406 C 190.796875 408.945312 189.160156 410.941406 187.074219 412.429688 C 184.988281 413.921875 183.167969 414.84375 181.621094 415.199219 C 180.070312 415.558594 178.550781 415.765625 177.058594 415.828125 C 175.511719 415.828125 173.960938 415.648438 172.410156 415.289062 C 170.863281 414.933594 169.042969 413.980469 166.957031 412.429688 C 164.871094 410.882812 163.234375 408.886719 162.039062 406.441406 C 159.476562 401.558594 158.195312 394.5 158.195312 385.261719 C 158.195312 374.898438 159.894531 367.003906 163.292969 361.582031 Z M 183.40625 360.507812 C 181.621094 358.601562 179.503906 357.648438 177.058594 357.648438 C 174.558594 357.648438 172.410156 358.601562 170.625 360.507812 C 169.132812 362.058594 168.148438 364.203125 167.671875 366.945312 C 167.195312 369.683594 166.957031 375.402344 166.957031 384.101562 C 166.957031 393.515625 167.195312 399.710938 167.671875 402.691406 C 168.148438 405.667969 169.222656 408.023438 170.890625 409.75 C 172.558594 411.535156 174.617188 412.429688 177.058594 412.429688 C 179.445312 412.429688 181.46875 411.535156 183.140625 409.75 C 184.867188 407.960938 185.941406 405.460938 186.359375 402.242188 C 186.773438 399.027344 187.011719 392.980469 187.074219 384.101562 C 187.074219 375.464844 186.835938 369.773438 186.359375 367.03125 C 185.882812 364.292969 184.898438 362.117188 183.40625 360.507812 Z M 183.40625 360.507812 " fill-opacity="1" fill-rule="nonzero"/></g><g clip-path="url(#dd1e299a5e)"><path fill="#000000" d="M 207.992188 361.582031 C 211.332031 356.757812 215.890625 354.34375 221.671875 354.34375 C 224.53125 354.34375 227.394531 355.117188 230.253906 356.667969 C 233.117188 358.214844 235.441406 360.957031 237.226562 364.886719 C 239.433594 369.832031 240.535156 376.625 240.535156 385.261719 C 240.535156 394.5 239.253906 401.558594 236.691406 406.441406 C 235.5 408.945312 233.859375 410.941406 231.773438 412.429688 C 229.6875 413.921875 227.871094 414.84375 226.320312 415.199219 C 224.769531 415.558594 223.25 415.765625 221.761719 415.828125 C 220.210938 415.828125 218.664062 415.648438 217.113281 415.289062 C 215.5625 414.933594 213.746094 413.980469 211.660156 412.429688 C 209.574219 410.882812 207.933594 408.886719 206.742188 406.441406 C 204.179688 401.558594 202.898438 394.5 202.898438 385.261719 C 202.898438 374.898438 204.597656 367.003906 207.992188 361.582031 Z M 228.109375 360.507812 C 226.320312 358.601562 224.207031 357.648438 221.761719 357.648438 C 219.257812 357.648438 217.113281 358.601562 215.324219 360.507812 C 213.835938 362.058594 212.851562 364.203125 212.375 366.945312 C 211.898438 369.683594 211.660156 375.402344 211.660156 384.101562 C 211.660156 393.515625 211.898438 399.710938 212.375 402.691406 C 212.851562 405.667969 213.921875 408.023438 215.59375 409.75 C 217.261719 411.535156 219.316406 412.429688 221.761719 412.429688 C 224.144531 412.429688 226.171875 411.535156 227.839844 409.75 C 229.570312 407.960938 230.640625 405.460938 231.058594 402.242188 C 231.476562 399.027344 231.714844 392.980469 231.773438 384.101562 C 231.773438 375.464844 231.535156 369.773438 231.058594 367.03125 C 230.582031 364.292969 229.597656 362.117188 228.109375 360.507812 Z M 228.109375 360.507812 " fill-opacity="1" fill-rule="nonzero"/></g><g clip-path="url(#d84979bb9e)"><path fill="#000000" d="M 252.695312 361.582031 C 256.03125 356.757812 260.59375 354.34375 266.375 354.34375 C 269.234375 354.34375 272.09375 355.117188 274.957031 356.667969 C 277.816406 358.214844 280.140625 360.957031 281.929688 364.886719 C 284.132812 369.832031 285.238281 376.625 285.238281 385.261719 C 285.238281 394.5 283.957031 401.558594 281.394531 406.441406 C 280.199219 408.945312 278.5625 410.941406 276.476562 412.429688 C 274.390625 413.921875 272.570312 414.84375 271.023438 415.199219 C 269.472656 415.558594 267.953125 415.765625 266.460938 415.828125 C 264.914062 415.828125 263.363281 415.648438 261.8125 415.289062 C 260.265625 414.933594 258.445312 413.980469 256.359375 412.429688 C 254.273438 410.882812 252.636719 408.886719 251.441406 406.441406 C 248.878906 401.558594 247.597656 394.5 247.597656 385.261719 C 247.597656 374.898438 249.296875 367.003906 252.695312 361.582031 Z M 272.808594 360.507812 C 271.023438 358.601562 268.90625 357.648438 266.460938 357.648438 C 263.960938 357.648438 261.8125 358.601562 260.027344 360.507812 C 258.535156 362.058594 257.550781 364.203125 257.074219 366.945312 C 256.597656 369.683594 256.359375 375.402344 256.359375 384.101562 C 256.359375 393.515625 256.597656 399.710938 257.074219 402.691406 C 257.550781 405.667969 258.625 408.023438 260.292969 409.75 C 261.960938 411.535156 264.019531 412.429688 266.460938 412.429688 C 268.847656 412.429688 270.875 411.535156 272.542969 409.75 C 274.269531 407.960938 275.34375 405.460938 275.761719 402.242188 C 276.179688 399.027344 276.417969 392.980469 276.476562 384.101562 C 276.476562 375.464844 276.238281 369.773438 275.761719 367.03125 C 275.285156 364.292969 274.300781 362.117188 272.808594 360.507812 Z M 272.808594 360.507812 " fill-opacity="1" fill-rule="nonzero"/></g><g clip-path="url(#8e154bc70d)"><path fill="#000000" d="M 320.28125 388.210938 C 317.421875 392.742188 313.847656 395.003906 309.554688 395.003906 C 304.90625 395.003906 301.089844 393.246094 298.109375 389.730469 C 295.132812 386.21875 293.34375 382.464844 292.746094 378.472656 C 292.628906 377.519531 292.566406 376.328125 292.566406 374.898438 L 292.566406 374.183594 C 292.566406 368.640625 294.625 363.816406 298.738281 359.707031 C 302.3125 356.128906 306.246094 354.34375 310.539062 354.34375 C 310.65625 354.34375 310.835938 354.34375 311.074219 354.34375 C 311.3125 354.34375 311.550781 354.371094 311.789062 354.433594 L 312.148438 354.433594 C 312.863281 354.433594 313.609375 354.492188 314.382812 354.609375 C 315.15625 354.730469 316.261719 355.089844 317.691406 355.683594 C 319.121094 356.28125 320.523438 357.234375 321.890625 358.542969 C 323.261719 359.855469 324.542969 361.613281 325.738281 363.816406 C 328.300781 369.058594 329.582031 375.789062 329.582031 384.011719 C 329.582031 392.351562 327.792969 399.414062 324.214844 405.191406 C 322.128906 408.527344 319.628906 411.121094 316.707031 412.96875 C 313.785156 414.8125 310.6875 415.765625 307.410156 415.828125 C 303.773438 415.828125 300.792969 414.960938 298.46875 413.234375 C 296.144531 411.507812 294.953125 408.945312 294.894531 405.550781 C 294.832031 402.152344 296.414062 400.484375 299.632812 400.546875 C 300.941406 400.546875 302.046875 400.960938 302.9375 401.796875 C 303.832031 402.628906 304.28125 403.792969 304.28125 405.28125 C 304.28125 406.355469 304.011719 407.277344 303.476562 408.050781 C 302.9375 408.828125 302.460938 409.304688 302.046875 409.480469 C 301.628906 409.660156 301.242188 409.808594 300.882812 409.929688 L 300.523438 410.019531 C 300.523438 410.136719 300.734375 410.316406 301.152344 410.554688 C 301.566406 410.792969 302.34375 411.089844 303.476562 411.449219 C 304.609375 411.804688 305.859375 411.953125 307.230469 411.894531 L 307.765625 411.894531 C 311.34375 411.894531 314.351562 409.988281 316.796875 406.175781 C 319.121094 402.839844 320.28125 397.058594 320.28125 388.839844 Z M 310.628906 391.699219 C 313.488281 391.699219 315.78125 390.238281 317.511719 387.320312 C 319.238281 384.398438 320.132812 380.4375 320.195312 375.433594 C 320.195312 370.785156 319.957031 367.449219 319.476562 365.425781 C 319.359375 364.828125 319.179688 364.234375 318.941406 363.636719 C 318.703125 363.042969 318.285156 362.265625 317.691406 361.3125 C 317.09375 360.359375 316.199219 359.554688 315.007812 358.902344 C 313.816406 358.246094 312.414062 357.949219 310.804688 358.007812 C 308.542969 358.007812 306.605469 358.8125 304.996094 360.421875 C 303.742188 361.730469 302.9375 363.28125 302.582031 365.066406 C 302.222656 366.855469 302.015625 369.980469 301.957031 374.449219 C 301.957031 379.394531 302.105469 382.730469 302.402344 384.460938 C 302.699219 386.1875 303.296875 387.585938 304.191406 388.660156 C 305.679688 390.683594 307.828125 391.699219 310.628906 391.699219 Z M 310.628906 391.699219 " fill-opacity="1" fill-rule="nonzero"/></g><path fill="#000000" d="M 352.558594 362.207031 L 351.394531 362.652344 C 350.5625 362.953125 349.367188 363.25 347.820312 363.546875 C 346.269531 363.847656 344.539062 364.054688 342.632812 364.171875 L 340.933594 364.171875 L 340.933594 360.0625 L 342.632812 360.0625 C 345.433594 359.945312 348.027344 359.496094 350.410156 358.722656 C 352.796875 357.949219 354.464844 357.234375 355.417969 356.578125 C 356.371094 355.921875 357.207031 355.265625 357.921875 354.609375 C 358.039062 354.433594 358.398438 354.34375 358.996094 354.34375 C 359.53125 354.34375 360.039062 354.523438 360.515625 354.878906 L 360.515625 381.601562 L 360.605469 408.410156 C 361.019531 408.828125 361.378906 409.09375 361.675781 409.214844 C 361.972656 409.332031 362.691406 409.453125 363.820312 409.570312 C 364.953125 409.691406 366.800781 409.75 369.363281 409.75 L 371.691406 409.75 L 371.691406 413.859375 L 370.707031 413.859375 C 369.453125 413.683594 364.714844 413.59375 356.492188 413.59375 C 348.386719 413.59375 343.707031 413.683594 342.453125 413.859375 L 341.382812 413.859375 L 341.382812 409.75 L 343.707031 409.75 C 345.019531 409.75 346.148438 409.75 347.105469 409.75 C 348.058594 409.75 348.800781 409.71875 349.339844 409.660156 C 349.875 409.601562 350.351562 409.511719 350.769531 409.390625 C 351.1875 409.273438 351.425781 409.214844 351.484375 409.214844 C 351.542969 409.214844 351.722656 409.066406 352.019531 408.765625 C 352.320312 408.46875 352.496094 408.351562 352.558594 408.410156 Z M 352.558594 362.207031 " fill-opacity="1" fill-rule="nonzero"/><path fill="#000000" d="M 387.960938 375.523438 C 386.351562 375.523438 385.070312 374.988281 384.117188 373.914062 C 383.164062 372.84375 382.6875 371.53125 382.6875 369.980469 C 382.6875 365.753906 384.265625 362.089844 387.425781 358.988281 C 390.582031 355.890625 394.515625 354.34375 399.226562 354.34375 C 404.648438 354.34375 409.179688 356.011719 412.816406 359.347656 C 416.449219 362.683594 418.296875 367.003906 418.359375 372.304688 C 418.359375 374.867188 417.761719 377.308594 416.570312 379.632812 C 415.378906 381.957031 413.945312 383.984375 412.277344 385.710938 C 410.609375 387.4375 408.226562 389.640625 405.125 392.324219 C 402.980469 394.171875 400 396.910156 396.1875 400.546875 L 390.910156 405.550781 L 397.707031 405.640625 C 407.0625 405.640625 412.039062 405.488281 412.636719 405.191406 C 413.054688 405.074219 413.769531 402.421875 414.78125 397.238281 L 414.78125 396.96875 L 418.359375 396.96875 L 418.359375 397.238281 C 418.296875 397.417969 417.910156 400.128906 417.195312 405.371094 C 416.480469 410.613281 416.035156 413.355469 415.855469 413.59375 L 415.855469 413.859375 L 382.6875 413.859375 L 382.6875 411.089844 C 382.6875 410.671875 382.863281 410.226562 383.222656 409.75 C 383.582031 409.273438 384.472656 408.230469 385.90625 406.621094 C 387.632812 404.714844 389.125 403.046875 390.375 401.617188 C 390.910156 401.023438 391.925781 399.917969 393.414062 398.3125 C 394.90625 396.703125 395.917969 395.601562 396.453125 395.003906 C 396.992188 394.410156 397.855469 393.425781 399.046875 392.054688 C 400.238281 390.683594 401.074219 389.671875 401.550781 389.015625 C 402.027344 388.363281 402.710938 387.46875 403.605469 386.335938 C 404.5 385.203125 405.125 384.25 405.484375 383.476562 C 405.839844 382.703125 406.289062 381.839844 406.824219 380.882812 C 407.359375 379.929688 407.75 378.976562 407.988281 378.023438 C 408.226562 377.070312 408.433594 376.179688 408.613281 375.34375 C 408.792969 374.511719 408.882812 373.527344 408.882812 372.394531 C 408.882812 368.640625 407.867188 365.394531 405.839844 362.652344 C 403.816406 359.914062 400.925781 358.542969 397.167969 358.542969 C 395.203125 358.542969 393.472656 359.050781 391.984375 360.0625 C 390.492188 361.074219 389.449219 362.058594 388.855469 363.011719 C 388.257812 363.964844 387.960938 364.53125 387.960938 364.710938 C 387.960938 364.769531 388.109375 364.800781 388.40625 364.800781 C 389.480469 364.800781 390.582031 365.214844 391.714844 366.050781 C 392.847656 366.882812 393.414062 368.253906 393.414062 370.160156 C 393.414062 371.648438 392.9375 372.902344 391.984375 373.914062 C 391.03125 374.925781 389.6875 375.464844 387.960938 375.523438 Z M 387.960938 375.523438 " fill-opacity="1" fill-rule="nonzero"/><path fill="#000000" d="M 499.105469 411.269531 C 499.105469 412.460938 498.480469 413.054688 497.230469 413.054688 C 496.929688 413.054688 496.273438 412.578125 495.261719 411.625 C 494.25 410.671875 491.449219 407.902344 486.859375 403.316406 L 477.558594 394.019531 L 468.171875 403.40625 C 461.855469 409.601562 458.605469 412.757812 458.429688 412.878906 C 458.191406 412.996094 457.980469 413.054688 457.800781 413.054688 C 457.324219 413.054688 456.90625 412.878906 456.550781 412.519531 C 456.191406 412.164062 455.984375 411.746094 455.925781 411.269531 C 455.925781 410.851562 456.34375 410.195312 457.175781 409.304688 C 458.011719 408.410156 460.8125 405.578125 465.582031 400.8125 L 474.878906 391.519531 L 465.582031 382.226562 C 460.753906 377.398438 457.953125 374.570312 457.175781 373.734375 C 456.402344 372.902344 455.984375 372.246094 455.925781 371.769531 C 455.925781 371.234375 456.105469 370.816406 456.460938 370.519531 C 456.820312 370.21875 457.265625 370.070312 457.800781 370.070312 C 458.101562 370.070312 458.308594 370.101562 458.429688 370.160156 C 458.605469 370.28125 461.855469 373.4375 468.171875 379.632812 L 477.558594 389.015625 L 486.859375 379.722656 C 491.449219 375.136719 494.25 372.367188 495.261719 371.410156 C 496.273438 370.457031 496.929688 369.980469 497.230469 369.980469 C 498.480469 369.980469 499.105469 370.578125 499.105469 371.769531 C 499.105469 372.1875 498.808594 372.722656 498.210938 373.378906 C 497.617188 374.035156 494.695312 376.953125 489.449219 382.136719 L 480.152344 391.519531 L 489.449219 400.902344 C 494.457031 405.90625 497.316406 408.796875 498.035156 409.570312 C 498.75 410.34375 499.105469 410.910156 499.105469 411.269531 Z M 499.105469 411.269531 " fill-opacity="1" fill-rule="nonzero"/><path fill="#000000" d="M 551.246094 362.207031 L 550.082031 362.652344 C 549.25 362.953125 548.058594 363.25 546.507812 363.546875 C 544.957031 363.847656 543.230469 364.054688 541.320312 364.171875 L 539.625 364.171875 L 539.625 360.0625 L 541.320312 360.0625 C 544.125 359.945312 546.714844 359.496094 549.101562 358.722656 C 551.484375 357.949219 553.152344 357.234375 554.105469 356.578125 C 555.058594 355.921875 555.894531 355.265625 556.609375 354.609375 C 556.730469 354.433594 557.085938 354.34375 557.683594 354.34375 C 558.21875 354.34375 558.726562 354.523438 559.203125 354.878906 L 559.203125 381.601562 L 559.292969 408.410156 C 559.710938 408.828125 560.066406 409.09375 560.363281 409.214844 C 560.664062 409.332031 561.378906 409.453125 562.511719 409.570312 C 563.644531 409.691406 565.492188 409.75 568.054688 409.75 L 570.378906 409.75 L 570.378906 413.859375 L 569.394531 413.859375 C 568.144531 413.683594 563.40625 413.59375 555.179688 413.59375 C 547.074219 413.59375 542.394531 413.683594 541.144531 413.859375 L 540.070312 413.859375 L 540.070312 409.75 L 542.394531 409.75 C 543.707031 409.75 544.839844 409.75 545.792969 409.75 C 546.746094 409.75 547.492188 409.71875 548.027344 409.660156 C 548.5625 409.601562 549.039062 409.511719 549.457031 409.390625 C 549.875 409.273438 550.113281 409.214844 550.171875 409.214844 C 550.234375 409.214844 550.410156 409.066406 550.710938 408.765625 C 551.007812 408.46875 551.1875 408.351562 551.246094 408.410156 Z M 551.246094 362.207031 " fill-opacity="1" fill-rule="nonzero"/><g clip-path="url(#1614534933)"><path fill="#000000" d="M 585.488281 361.582031 C 588.824219 356.757812 593.382812 354.34375 599.164062 354.34375 C 602.027344 354.34375 604.886719 355.117188 607.75 356.667969 C 610.609375 358.214844 612.933594 360.957031 614.722656 364.886719 C 616.925781 369.832031 618.03125 376.625 618.03125 385.261719 C 618.03125 394.5 616.75 401.558594 614.183594 406.441406 C 612.992188 408.945312 611.355469 410.941406 609.269531 412.429688 C 607.183594 413.921875 605.363281 414.84375 603.816406 415.199219 C 602.265625 415.558594 600.746094 415.765625 599.253906 415.828125 C 597.707031 415.828125 596.15625 415.648438 594.605469 415.289062 C 593.054688 414.933594 591.238281 413.980469 589.152344 412.429688 C 587.066406 410.882812 585.425781 408.886719 584.234375 406.441406 C 581.671875 401.558594 580.390625 394.5 580.390625 385.261719 C 580.390625 374.898438 582.089844 367.003906 585.488281 361.582031 Z M 605.601562 360.507812 C 603.816406 358.601562 601.699219 357.648438 599.253906 357.648438 C 596.75 357.648438 594.605469 358.601562 592.816406 360.507812 C 591.328125 362.058594 590.34375 364.203125 589.867188 366.945312 C 589.390625 369.683594 589.152344 375.402344 589.152344 384.101562 C 589.152344 393.515625 589.390625 399.710938 589.867188 402.691406 C 590.34375 405.667969 591.417969 408.023438 593.085938 409.75 C 594.753906 411.535156 596.8125 412.429688 599.253906 412.429688 C 601.640625 412.429688 603.664062 411.535156 605.335938 409.75 C 607.0625 407.960938 608.136719 405.460938 608.554688 402.242188 C 608.96875 399.027344 609.207031 392.980469 609.269531 384.101562 C 609.269531 375.464844 609.03125 369.773438 608.554688 367.03125 C 608.074219 364.292969 607.09375 362.117188 605.601562 360.507812 Z M 605.601562 360.507812 " fill-opacity="1" fill-rule="nonzero"/></g><path fill="#000000" d="M 629.867188 361.980469 C 629.867188 361.980469 629.867188 361.703125 629.867188 361.15625 C 629.867188 360.609375 630.160156 360.1875 630.75 359.894531 L 667.472656 359.894531 C 668.105469 360.230469 668.421875 360.652344 668.421875 361.15625 C 668.421875 361.664062 668.105469 362.082031 667.472656 362.421875 L 630.75 362.421875 C 630.160156 362.125 629.867188 361.703125 629.867188 361.15625 Z M 629.867188 361.980469 " fill-opacity="1" fill-rule="nonzero"/><g clip-path="url(#5b48a9bb6f)"><path fill="#000000" d="M 702.933594 376.953125 C 702.175781 376.828125 699.457031 376.761719 694.78125 376.761719 C 689.890625 376.761719 687.066406 376.828125 686.308594 376.953125 L 685.742188 376.953125 L 685.742188 374.046875 L 687.699219 374.046875 C 688.542969 374.046875 689.113281 374.046875 689.40625 374.046875 C 689.703125 374.046875 690.058594 374.003906 690.480469 373.921875 C 690.902344 373.835938 691.199219 373.730469 691.367188 373.605469 C 691.535156 373.476562 691.683594 373.308594 691.808594 373.097656 C 691.851562 373.015625 691.871094 371.878906 691.871094 369.6875 L 691.871094 366.527344 L 675.5 366.527344 L 675.5 363.621094 L 685.046875 349.027344 C 691.492188 339.253906 694.757812 334.347656 694.84375 334.304688 C 694.925781 334.222656 695.371094 334.179688 696.171875 334.179688 L 697.308594 334.179688 L 697.6875 334.558594 L 697.6875 363.621094 L 703.503906 363.621094 L 703.503906 366.527344 L 697.6875 366.527344 L 697.6875 369.75 C 697.6875 371.476562 697.6875 372.488281 697.6875 372.78125 C 697.6875 373.078125 697.8125 373.332031 698.066406 373.539062 C 698.402344 373.835938 699.605469 374.003906 701.667969 374.046875 L 703.503906 374.046875 L 703.503906 376.953125 Z M 692.25 363.621094 L 692.25 342.519531 L 678.410156 363.558594 L 685.296875 363.621094 Z M 692.25 363.621094 " fill-opacity="1" fill-rule="nonzero"/></g></svg>