<svg xmlns="http://www.w3.org/2000/svg" xmlns:xlink="http://www.w3.org/1999/xlink" width="1000" zoomAndPan="magnify" viewBox="0 0 750 749.999995" height="1000" preserveAspectRatio="xMidYMid meet" version="1.0"><rect x="-75" width="900" fill="#ffffff" y="-74.999999" height="899.999994" fill-opacity="1"/><rect x="-75" width="900" fill="#ffffff" y="-74.999999" height="899.999994" fill-opacity="1"/><path fill="#000000" d="M 44.558594 380 C 44.558594 376.546875 44.808594 373.269531 45.308594 370.164062 C 45.808594 367.058594 46.386719 364.378906 47.035156 362.128906 C 47.6875 359.875 48.613281 357.671875 49.8125 355.519531 C 51.015625 353.367188 51.964844 351.6875 52.667969 350.488281 C 53.367188 349.285156 54.417969 347.984375 55.820312 346.582031 C 57.222656 345.179688 58.046875 344.328125 58.296875 344.027344 C 58.546875 343.726562 59.175781 343.203125 60.175781 342.449219 L 61.453125 342.449219 C 62.152344 342.449219 62.503906 342.675781 62.503906 343.125 C 62.503906 343.277344 62.078125 343.800781 61.226562 344.703125 C 60.375 345.605469 59.347656 346.929688 58.148438 348.683594 C 56.945312 350.4375 55.71875 352.589844 54.46875 355.144531 C 53.21875 357.695312 52.167969 361.152344 51.316406 365.507812 C 50.464844 369.863281 50.039062 374.695312 50.039062 380 C 50.039062 385.308594 50.464844 390.117188 51.316406 394.421875 C 52.167969 398.726562 53.191406 402.207031 54.394531 404.859375 C 55.59375 407.515625 56.820312 409.667969 58.074219 411.320312 C 59.324219 412.972656 60.375 414.296875 61.226562 415.300781 C 62.078125 416.300781 62.503906 416.828125 62.503906 416.878906 C 62.503906 417.328125 62.128906 417.554688 61.375 417.554688 L 60.175781 417.554688 L 58.074219 415.75 C 53.367188 411.496094 49.9375 406.1875 47.785156 399.828125 C 45.632812 393.46875 44.558594 386.859375 44.558594 380 Z M 44.558594 380 " fill-opacity="1" fill-rule="nonzero"/><path fill="#000000" d="M 73.914062 354.84375 C 76.71875 350.785156 80.546875 348.757812 85.402344 348.757812 C 87.804688 348.757812 90.207031 349.410156 92.609375 350.710938 C 95.015625 352.011719 96.964844 354.316406 98.46875 357.621094 C 100.320312 361.777344 101.246094 367.484375 101.246094 374.746094 C 101.246094 382.503906 100.167969 388.4375 98.015625 392.542969 C 97.015625 394.648438 95.640625 396.324219 93.886719 397.574219 C 92.136719 398.828125 90.609375 399.605469 89.308594 399.902344 C 88.007812 400.203125 86.730469 400.378906 85.476562 400.429688 C 84.175781 400.429688 82.875 400.28125 81.574219 399.980469 C 80.273438 399.679688 78.746094 398.878906 76.992188 397.574219 C 75.242188 396.273438 73.867188 394.597656 72.863281 392.542969 C 70.710938 388.4375 69.636719 382.503906 69.636719 374.746094 C 69.636719 366.03125 71.0625 359.398438 73.914062 354.84375 Z M 90.808594 353.941406 C 89.308594 352.339844 87.53125 351.539062 85.476562 351.539062 C 83.375 351.539062 81.574219 352.339844 80.070312 353.941406 C 78.820312 355.242188 77.996094 357.046875 77.59375 359.347656 C 77.195312 361.652344 76.992188 366.457031 76.992188 373.769531 C 76.992188 381.679688 77.195312 386.886719 77.59375 389.390625 C 77.996094 391.894531 78.894531 393.871094 80.296875 395.324219 C 81.699219 396.824219 83.425781 397.574219 85.476562 397.574219 C 87.480469 397.574219 89.183594 396.824219 90.582031 395.324219 C 92.035156 393.820312 92.9375 391.71875 93.285156 389.015625 C 93.636719 386.308594 93.835938 381.230469 93.886719 373.769531 C 93.886719 366.507812 93.6875 361.726562 93.285156 359.421875 C 92.886719 357.121094 92.058594 355.292969 90.808594 353.941406 Z M 90.808594 353.941406 " fill-opacity="1" fill-rule="nonzero"/><path fill="#000000" d="M 110.105469 394.269531 C 110.105469 393.070312 110.53125 392.019531 111.382812 391.117188 C 112.234375 390.214844 113.308594 389.765625 114.609375 389.765625 C 115.8125 389.765625 116.863281 390.164062 117.765625 390.96875 C 118.664062 391.769531 119.140625 392.84375 119.191406 394.195312 C 119.191406 395.449219 118.765625 396.523438 117.914062 397.425781 C 117.0625 398.328125 115.988281 398.777344 114.6875 398.777344 C 113.382812 398.777344 112.308594 398.351562 111.457031 397.5 C 110.605469 396.648438 110.15625 395.574219 110.105469 394.269531 Z M 110.105469 394.269531 " fill-opacity="1" fill-rule="nonzero"/><path fill="#000000" d="M 132.332031 354.84375 C 135.132812 350.785156 138.960938 348.757812 143.816406 348.757812 C 146.21875 348.757812 148.625 349.410156 151.027344 350.710938 C 153.429688 352.011719 155.378906 354.316406 156.882812 357.621094 C 158.734375 361.777344 159.660156 367.484375 159.660156 374.746094 C 159.660156 382.503906 158.585938 388.4375 156.433594 392.542969 C 155.429688 394.648438 154.054688 396.324219 152.300781 397.574219 C 150.550781 398.828125 149.023438 399.605469 147.722656 399.902344 C 146.421875 400.203125 145.144531 400.378906 143.894531 400.429688 C 142.589844 400.429688 141.289062 400.28125 139.988281 399.980469 C 138.6875 399.679688 137.160156 398.878906 135.410156 397.574219 C 133.65625 396.273438 132.28125 394.597656 131.277344 392.542969 C 129.125 388.4375 128.050781 382.503906 128.050781 374.746094 C 128.050781 366.03125 129.476562 359.398438 132.332031 354.84375 Z M 149.222656 353.941406 C 147.722656 352.339844 145.945312 351.539062 143.894531 351.539062 C 141.789062 351.539062 139.988281 352.339844 138.488281 353.941406 C 137.234375 355.242188 136.410156 357.046875 136.007812 359.347656 C 135.609375 361.652344 135.410156 366.457031 135.410156 373.769531 C 135.410156 381.679688 135.609375 386.886719 136.007812 389.390625 C 136.410156 391.894531 137.3125 393.871094 138.710938 395.324219 C 140.113281 396.824219 141.839844 397.574219 143.894531 397.574219 C 145.894531 397.574219 147.597656 396.824219 149 395.324219 C 150.449219 393.820312 151.351562 391.71875 151.703125 389.015625 C 152.050781 386.308594 152.253906 381.230469 152.300781 373.769531 C 152.300781 366.507812 152.101562 361.726562 151.703125 359.421875 C 151.300781 357.121094 150.476562 355.292969 149.222656 353.941406 Z M 149.222656 353.941406 " fill-opacity="1" fill-rule="nonzero"/><path fill="#000000" d="M 169.871094 354.84375 C 172.675781 350.785156 176.503906 348.757812 181.359375 348.757812 C 183.761719 348.757812 186.164062 349.410156 188.566406 350.710938 C 190.96875 352.011719 192.921875 354.316406 194.425781 357.621094 C 196.277344 361.777344 197.203125 367.484375 197.203125 374.746094 C 197.203125 382.503906 196.125 388.4375 193.972656 392.542969 C 192.972656 394.648438 191.597656 396.324219 189.84375 397.574219 C 188.09375 398.828125 186.566406 399.605469 185.265625 399.902344 C 183.960938 400.203125 182.6875 400.378906 181.433594 400.429688 C 180.132812 400.429688 178.832031 400.28125 177.53125 399.980469 C 176.230469 399.679688 174.703125 398.878906 172.949219 397.574219 C 171.199219 396.273438 169.820312 394.597656 168.820312 392.542969 C 166.667969 388.4375 165.59375 382.503906 165.59375 374.746094 C 165.59375 366.03125 167.019531 359.398438 169.871094 354.84375 Z M 186.765625 353.941406 C 185.265625 352.339844 183.488281 351.539062 181.433594 351.539062 C 179.332031 351.539062 177.53125 352.339844 176.027344 353.941406 C 174.777344 355.242188 173.953125 357.046875 173.550781 359.347656 C 173.152344 361.652344 172.949219 366.457031 172.949219 373.769531 C 172.949219 381.679688 173.152344 386.886719 173.550781 389.390625 C 173.953125 391.894531 174.851562 393.871094 176.253906 395.324219 C 177.65625 396.824219 179.382812 397.574219 181.433594 397.574219 C 183.4375 397.574219 185.140625 396.824219 186.539062 395.324219 C 187.992188 393.820312 188.894531 391.71875 189.242188 389.015625 C 189.59375 386.308594 189.792969 381.230469 189.84375 373.769531 C 189.84375 366.507812 189.644531 361.726562 189.242188 359.421875 C 188.84375 357.121094 188.015625 355.292969 186.765625 353.941406 Z M 186.765625 353.941406 " fill-opacity="1" fill-rule="nonzero"/><path fill="#000000" d="M 204.335938 364.378906 C 204.386719 364.28125 204.8125 361.550781 205.613281 356.195312 L 206.8125 348.160156 C 206.8125 348.058594 207.3125 348.007812 208.316406 348.007812 L 209.816406 348.007812 L 209.816406 348.308594 C 209.816406 348.808594 210.191406 349.234375 210.941406 349.585938 C 211.691406 349.9375 212.996094 350.160156 214.847656 350.261719 C 216.699219 350.359375 220.929688 350.410156 227.535156 350.410156 L 236.621094 350.410156 L 236.621094 353.339844 L 231.515625 360.324219 C 231.066406 360.925781 230.3125 361.925781 229.261719 363.328125 C 228.210938 364.730469 227.535156 365.65625 227.234375 366.109375 C 226.933594 366.558594 226.410156 367.359375 225.660156 368.511719 C 224.90625 369.664062 224.40625 370.5625 224.15625 371.214844 C 223.90625 371.867188 223.554688 372.792969 223.105469 373.992188 C 222.65625 375.195312 222.332031 376.347656 222.128906 377.449219 C 221.929688 378.550781 221.730469 379.902344 221.527344 381.503906 C 221.328125 383.105469 221.179688 384.808594 221.078125 386.609375 C 220.980469 388.414062 220.902344 390.464844 220.851562 392.769531 C 220.851562 393.46875 220.851562 394.171875 220.851562 394.871094 C 220.851562 395.574219 220.828125 396.175781 220.777344 396.675781 L 220.777344 397.351562 C 220.578125 398.203125 220.101562 398.929688 219.351562 399.527344 C 218.601562 400.128906 217.75 400.429688 216.800781 400.429688 C 216.25 400.429688 215.722656 400.355469 215.222656 400.203125 C 214.722656 400.054688 214.195312 399.578125 213.644531 398.777344 C 213.09375 397.976562 212.820312 396.976562 212.820312 395.773438 C 212.820312 387.863281 215.246094 379.652344 220.101562 371.140625 C 221.105469 369.539062 223.207031 366.507812 226.410156 362.050781 L 229.863281 357.320312 L 222.878906 357.320312 C 214.171875 357.320312 209.589844 357.472656 209.140625 357.769531 C 208.839844 357.921875 208.566406 358.523438 208.316406 359.574219 C 208.0625 360.625 207.8125 361.703125 207.5625 362.804688 L 207.339844 364.378906 L 207.339844 364.605469 L 204.335938 364.605469 Z M 204.335938 364.378906 " fill-opacity="1" fill-rule="nonzero"/><path fill="#000000" d="M 240.902344 375.269531 C 240.902344 367.109375 242.929688 360.648438 246.984375 355.894531 C 251.035156 351.136719 255.542969 348.757812 260.496094 348.757812 C 263.953125 348.757812 266.429688 349.660156 267.929688 351.460938 C 269.433594 353.265625 270.183594 355.269531 270.183594 357.472656 C 270.183594 358.722656 269.832031 359.722656 269.132812 360.476562 C 268.429688 361.226562 267.457031 361.601562 266.203125 361.601562 C 265.050781 361.601562 264.101562 361.25 263.351562 360.550781 C 262.601562 359.847656 262.222656 358.871094 262.222656 357.621094 C 262.222656 355.417969 263.402344 354.089844 265.753906 353.640625 C 264.652344 352.539062 263.101562 351.914062 261.097656 351.761719 C 257.542969 351.761719 254.617188 353.265625 252.3125 356.269531 C 249.960938 359.574219 248.785156 364.628906 248.785156 371.441406 L 248.859375 371.742188 C 249.109375 371.441406 249.308594 371.113281 249.460938 370.765625 C 251.511719 367.761719 254.191406 366.257812 257.492188 366.257812 L 257.792969 366.257812 C 260.097656 366.257812 262.125 366.734375 263.875 367.683594 C 265.078125 368.386719 266.277344 369.386719 267.480469 370.6875 C 268.679688 371.992188 269.65625 373.417969 270.410156 374.96875 C 271.460938 377.421875 271.984375 380.101562 271.984375 383.007812 L 271.984375 384.359375 C 271.984375 385.507812 271.859375 386.585938 271.609375 387.585938 C 271.058594 390.542969 269.457031 393.421875 266.804688 396.222656 C 264.152344 399.027344 260.796875 400.429688 256.742188 400.429688 C 255.339844 400.429688 253.988281 400.230469 252.6875 399.828125 C 251.386719 399.429688 249.984375 398.675781 248.484375 397.574219 C 246.984375 396.472656 245.707031 394.996094 244.65625 393.144531 C 243.605469 391.292969 242.703125 388.863281 241.953125 385.859375 C 241.199219 382.855469 240.851562 379.324219 240.902344 375.269531 Z M 257.042969 368.960938 C 255.542969 368.960938 254.242188 369.386719 253.140625 370.238281 C 252.039062 371.089844 251.1875 372.214844 250.585938 373.617188 C 249.984375 375.019531 249.558594 376.445312 249.308594 377.898438 C 249.058594 379.351562 248.910156 380.902344 248.859375 382.554688 C 248.859375 386.710938 249.160156 389.691406 249.761719 391.492188 C 250.359375 393.296875 251.3125 394.746094 252.613281 395.847656 C 253.816406 396.75 255.140625 397.199219 256.59375 397.199219 C 259.144531 397.199219 261.097656 396.25 262.449219 394.347656 C 263.101562 393.445312 263.550781 392.320312 263.800781 390.96875 C 264.050781 389.613281 264.175781 386.988281 264.175781 383.082031 C 264.175781 379.074219 264.050781 376.398438 263.800781 375.046875 C 263.550781 373.691406 263.101562 372.566406 262.449219 371.664062 C 261.097656 369.863281 259.296875 368.960938 257.042969 368.960938 Z M 257.042969 368.960938 " fill-opacity="1" fill-rule="nonzero"/><path fill="#000000" d="M 339.273438 396.597656 C 339.273438 397.601562 338.75 398.101562 337.699219 398.101562 C 337.449219 398.101562 336.898438 397.699219 336.046875 396.898438 C 335.195312 396.097656 332.84375 393.769531 328.988281 389.914062 L 321.179688 382.105469 L 313.296875 389.992188 C 307.988281 395.199219 305.261719 397.851562 305.113281 397.953125 C 304.910156 398.050781 304.738281 398.101562 304.585938 398.101562 C 304.1875 398.101562 303.835938 397.953125 303.535156 397.652344 C 303.234375 397.351562 303.058594 397 303.007812 396.597656 C 303.007812 396.25 303.359375 395.699219 304.0625 394.949219 C 304.761719 394.195312 307.113281 391.816406 311.117188 387.8125 L 318.925781 380 L 311.117188 372.191406 C 307.0625 368.136719 304.710938 365.757812 304.0625 365.054688 C 303.410156 364.355469 303.058594 363.804688 303.007812 363.402344 C 303.007812 362.953125 303.160156 362.601562 303.460938 362.351562 C 303.761719 362.101562 304.136719 361.976562 304.585938 361.976562 C 304.835938 361.976562 305.011719 362.003906 305.113281 362.050781 C 305.261719 362.152344 307.988281 364.804688 313.296875 370.011719 L 321.179688 377.898438 L 328.988281 370.089844 C 332.84375 366.234375 335.195312 363.90625 336.046875 363.105469 C 336.898438 362.300781 337.449219 361.902344 337.699219 361.902344 C 338.75 361.902344 339.273438 362.402344 339.273438 363.402344 C 339.273438 363.753906 339.023438 364.207031 338.523438 364.757812 C 338.023438 365.308594 335.570312 367.761719 331.164062 372.117188 L 323.355469 380 L 331.164062 387.886719 C 335.371094 392.09375 337.773438 394.523438 338.375 395.171875 C 338.972656 395.824219 339.273438 396.300781 339.273438 396.597656 Z M 339.273438 396.597656 " fill-opacity="1" fill-rule="nonzero"/><path fill="#000000" d="M 383.0625 355.367188 L 382.085938 355.742188 C 381.386719 355.992188 380.386719 356.246094 379.085938 356.496094 C 377.78125 356.746094 376.332031 356.921875 374.730469 357.019531 L 373.300781 357.019531 L 373.300781 353.566406 L 374.730469 353.566406 C 377.082031 353.464844 379.257812 353.089844 381.261719 352.4375 C 383.261719 351.789062 384.664062 351.1875 385.464844 350.636719 C 386.265625 350.085938 386.96875 349.535156 387.570312 348.984375 C 387.667969 348.835938 387.96875 348.757812 388.46875 348.757812 C 388.921875 348.757812 389.34375 348.910156 389.746094 349.210938 L 389.746094 371.664062 L 389.820312 394.195312 C 390.171875 394.546875 390.472656 394.773438 390.722656 394.871094 C 390.972656 394.972656 391.574219 395.074219 392.523438 395.171875 C 393.476562 395.273438 395.027344 395.324219 397.179688 395.324219 L 399.132812 395.324219 L 399.132812 398.777344 L 398.304688 398.777344 C 397.253906 398.628906 393.273438 398.550781 386.367188 398.550781 C 379.558594 398.550781 375.628906 398.628906 374.578125 398.777344 L 373.679688 398.777344 L 373.679688 395.324219 L 375.628906 395.324219 C 376.730469 395.324219 377.683594 395.324219 378.484375 395.324219 C 379.285156 395.324219 379.910156 395.296875 380.359375 395.246094 C 380.8125 395.199219 381.210938 395.121094 381.5625 395.023438 C 381.914062 394.921875 382.113281 394.871094 382.164062 394.871094 C 382.210938 394.871094 382.363281 394.746094 382.613281 394.496094 C 382.863281 394.246094 383.011719 394.144531 383.0625 394.195312 Z M 383.0625 355.367188 " fill-opacity="1" fill-rule="nonzero"/><path fill="#000000" d="M 411.820312 354.84375 C 414.625 350.785156 418.453125 348.757812 423.308594 348.757812 C 425.710938 348.757812 428.113281 349.410156 430.515625 350.710938 C 432.917969 352.011719 434.871094 354.316406 436.371094 357.621094 C 438.226562 361.777344 439.152344 367.484375 439.152344 374.746094 C 439.152344 382.503906 438.074219 388.4375 435.921875 392.542969 C 434.921875 394.648438 433.542969 396.324219 431.792969 397.574219 C 430.039062 398.828125 428.515625 399.605469 427.210938 399.902344 C 425.910156 400.203125 424.632812 400.378906 423.382812 400.429688 C 422.082031 400.429688 420.78125 400.28125 419.480469 399.980469 C 418.175781 399.679688 416.652344 398.878906 414.898438 397.574219 C 413.148438 396.273438 411.769531 394.597656 410.769531 392.542969 C 408.617188 388.4375 407.539062 382.503906 407.539062 374.746094 C 407.539062 366.03125 408.96875 359.398438 411.820312 354.84375 Z M 428.714844 353.941406 C 427.210938 352.339844 425.433594 351.539062 423.382812 351.539062 C 421.28125 351.539062 419.480469 352.339844 417.976562 353.941406 C 416.726562 355.242188 415.898438 357.046875 415.5 359.347656 C 415.097656 361.652344 414.898438 366.457031 414.898438 373.769531 C 414.898438 381.679688 415.097656 386.886719 415.5 389.390625 C 415.898438 391.894531 416.800781 393.871094 418.203125 395.324219 C 419.605469 396.824219 421.332031 397.574219 423.382812 397.574219 C 425.386719 397.574219 427.085938 396.824219 428.488281 395.324219 C 429.941406 393.820312 430.839844 391.71875 431.191406 389.015625 C 431.542969 386.308594 431.742188 381.230469 431.792969 373.769531 C 431.792969 366.507812 431.59375 361.726562 431.191406 359.421875 C 430.792969 357.121094 429.964844 355.292969 428.714844 353.941406 Z M 428.714844 353.941406 " fill-opacity="1" fill-rule="nonzero"/><path fill="#000000" d="M 449.089844 355.175781 C 449.089844 355.175781 449.089844 354.945312 449.089844 354.484375 C 449.089844 354.027344 449.339844 353.671875 449.832031 353.421875 L 480.675781 353.421875 C 481.207031 353.707031 481.472656 354.0625 481.472656 354.484375 C 481.472656 354.910156 481.207031 355.265625 480.675781 355.546875 L 449.832031 355.546875 C 449.339844 355.300781 449.089844 354.945312 449.089844 354.484375 Z M 449.089844 355.175781 " fill-opacity="1" fill-rule="nonzero"/><path fill="#000000" d="M 492.671875 343.175781 C 491.71875 343.175781 490.972656 342.875 490.441406 342.273438 C 489.914062 341.671875 489.628906 340.894531 489.59375 339.9375 C 489.59375 337.988281 490.441406 336.253906 492.140625 334.734375 C 493.839844 333.210938 495.894531 332.449219 498.300781 332.449219 C 499.539062 332.449219 500.316406 332.46875 500.636719 332.503906 C 503.253906 332.929688 505.253906 333.867188 506.632812 335.316406 C 508.015625 336.769531 508.722656 338.34375 508.757812 340.042969 C 508.757812 341.882812 508.15625 343.671875 506.953125 345.40625 C 505.75 347.140625 504.085938 348.398438 501.960938 349.175781 L 501.804688 349.28125 C 501.804688 349.316406 501.960938 349.371094 502.28125 349.441406 C 502.597656 349.511719 503.113281 349.671875 503.820312 349.917969 C 504.527344 350.167969 505.199219 350.539062 505.835938 351.035156 C 508.738281 352.910156 510.191406 355.386719 510.191406 358.46875 C 510.191406 361.265625 509.09375 363.707031 506.898438 365.796875 C 504.703125 367.882812 501.925781 368.929688 498.566406 368.929688 C 495.734375 368.929688 493.292969 368.167969 491.238281 366.644531 C 489.1875 365.121094 488.160156 363.195312 488.160156 360.855469 C 488.160156 359.867188 488.480469 359.070312 489.117188 358.46875 C 489.753906 357.867188 490.550781 357.546875 491.503906 357.511719 C 492.496094 357.511719 493.308594 357.832031 493.945312 358.46875 C 494.582031 359.105469 494.902344 359.902344 494.902344 360.855469 C 494.902344 361.246094 494.847656 361.601562 494.742188 361.917969 C 494.636719 362.238281 494.511719 362.519531 494.371094 362.769531 C 494.230469 363.015625 494.035156 363.230469 493.789062 363.40625 C 493.539062 363.582031 493.328125 363.726562 493.148438 363.832031 C 492.972656 363.9375 492.796875 364.007812 492.621094 364.042969 C 492.441406 364.078125 492.300781 364.132812 492.195312 364.203125 L 491.984375 364.253906 C 493.789062 365.847656 495.980469 366.644531 498.566406 366.644531 C 500.511719 366.644531 501.980469 365.707031 502.972656 363.832031 C 503.574219 362.664062 503.875 360.875 503.875 358.46875 L 503.875 357.40625 C 503.875 354.042969 502.742188 351.796875 500.476562 350.664062 C 499.945312 350.449219 498.867188 350.328125 497.238281 350.289062 L 495.007812 350.238281 L 494.847656 350.132812 C 494.777344 350.027344 494.742188 349.742188 494.742188 349.28125 C 494.742188 348.644531 494.882812 348.328125 495.167969 348.328125 C 496.160156 348.328125 497.183594 348.238281 498.246094 348.0625 C 499.449219 347.882812 500.546875 347.140625 501.539062 345.832031 C 502.527344 344.519531 503.023438 342.539062 503.023438 339.882812 L 503.023438 339.460938 C 503.023438 337.441406 502.40625 336.042969 501.167969 335.265625 C 500.386719 334.769531 499.554688 334.519531 498.671875 334.519531 C 497.539062 334.519531 496.496094 334.714844 495.539062 335.105469 C 494.582031 335.496094 493.910156 335.902344 493.523438 336.328125 C 493.132812 336.75 492.9375 336.964844 492.9375 336.964844 L 493.097656 336.964844 C 493.203125 337 493.34375 337.035156 493.523438 337.070312 C 493.699219 337.105469 493.875 337.195312 494.054688 337.335938 C 494.230469 337.476562 494.441406 337.601562 494.691406 337.707031 C 494.9375 337.8125 495.113281 338.007812 495.21875 338.289062 C 495.328125 338.574219 495.46875 338.839844 495.644531 339.085938 C 495.824219 339.335938 495.875 339.6875 495.804688 340.148438 C 495.804688 340.929688 495.558594 341.617188 495.0625 342.21875 C 494.566406 342.820312 493.769531 343.140625 492.671875 343.175781 Z M 492.671875 343.175781 " fill-opacity="1" fill-rule="nonzero"/><path fill="#000000" d="M 520.742188 342.527344 L 521.042969 342.449219 C 521.292969 342.449219 521.542969 342.449219 521.792969 342.449219 L 522.695312 342.449219 L 524.796875 344.253906 C 529.503906 348.507812 532.933594 353.816406 535.085938 360.175781 C 537.238281 366.535156 538.3125 373.140625 538.3125 380 C 538.3125 383.40625 538.0625 386.6875 537.5625 389.839844 C 537.0625 392.996094 536.484375 395.671875 535.835938 397.875 C 535.183594 400.078125 534.257812 402.28125 533.058594 404.484375 C 531.855469 406.6875 530.90625 408.367188 530.203125 409.515625 C 529.503906 410.667969 528.476562 411.945312 527.125 413.347656 C 525.773438 414.75 524.972656 415.574219 524.722656 415.824219 C 524.472656 416.078125 523.898438 416.550781 522.996094 417.253906 C 522.847656 417.402344 522.746094 417.503906 522.695312 417.554688 L 521.792969 417.554688 C 521.394531 417.554688 521.117188 417.554688 520.96875 417.554688 C 520.820312 417.554688 520.695312 417.476562 520.59375 417.328125 C 520.492188 417.175781 520.417969 416.953125 520.367188 416.652344 C 520.417969 416.601562 520.695312 416.277344 521.195312 415.675781 C 528.953125 407.613281 532.832031 395.722656 532.832031 380 C 532.832031 364.28125 528.953125 352.390625 521.195312 344.328125 C 520.695312 343.726562 520.417969 343.402344 520.367188 343.351562 C 520.367188 342.949219 520.492188 342.675781 520.742188 342.527344 Z M 520.742188 342.527344 " fill-opacity="1" fill-rule="nonzero"/><path fill="#000000" d="M 609.433594 396.597656 C 609.433594 397.601562 608.90625 398.101562 607.855469 398.101562 C 607.605469 398.101562 607.054688 397.699219 606.203125 396.898438 C 605.351562 396.097656 603 393.769531 599.144531 389.914062 L 591.335938 382.105469 L 583.453125 389.992188 C 578.148438 395.199219 575.417969 397.851562 575.269531 397.953125 C 575.070312 398.050781 574.894531 398.101562 574.742188 398.101562 C 574.34375 398.101562 573.992188 397.953125 573.691406 397.652344 C 573.390625 397.351562 573.21875 397 573.167969 396.597656 C 573.167969 396.25 573.515625 395.699219 574.21875 394.949219 C 574.917969 394.195312 577.269531 391.816406 581.277344 387.8125 L 589.085938 380 L 581.277344 372.191406 C 577.222656 368.136719 574.867188 365.757812 574.21875 365.054688 C 573.566406 364.355469 573.21875 363.804688 573.167969 363.402344 C 573.167969 362.953125 573.316406 362.601562 573.617188 362.351562 C 573.917969 362.101562 574.292969 361.976562 574.742188 361.976562 C 574.992188 361.976562 575.167969 362.003906 575.269531 362.050781 C 575.417969 362.152344 578.148438 364.804688 583.453125 370.011719 L 591.335938 377.898438 L 599.144531 370.089844 C 603 366.234375 605.351562 363.90625 606.203125 363.105469 C 607.054688 362.300781 607.605469 361.902344 607.855469 361.902344 C 608.90625 361.902344 609.433594 362.402344 609.433594 363.402344 C 609.433594 363.753906 609.183594 364.207031 608.679688 364.757812 C 608.179688 365.308594 605.726562 367.761719 601.324219 372.117188 L 593.515625 380 L 601.324219 387.886719 C 605.527344 392.09375 607.929688 394.523438 608.53125 395.171875 C 609.132812 395.824219 609.433594 396.300781 609.433594 396.597656 Z M 609.433594 396.597656 " fill-opacity="1" fill-rule="nonzero"/><path fill="#000000" d="M 653.226562 355.367188 L 652.253906 355.742188 C 651.550781 355.992188 650.550781 356.246094 649.25 356.496094 C 647.949219 356.746094 646.496094 356.921875 644.894531 357.019531 L 643.46875 357.019531 L 643.46875 353.566406 L 644.894531 353.566406 C 647.246094 353.464844 649.425781 353.089844 651.425781 352.4375 C 653.429688 351.789062 654.828125 351.1875 655.632812 350.636719 C 656.433594 350.085938 657.132812 349.535156 657.734375 348.984375 C 657.832031 348.835938 658.132812 348.757812 658.632812 348.757812 C 659.085938 348.757812 659.511719 348.910156 659.910156 349.210938 L 659.910156 371.664062 L 659.984375 394.195312 C 660.335938 394.546875 660.636719 394.773438 660.886719 394.871094 C 661.136719 394.972656 661.738281 395.074219 662.6875 395.171875 C 663.640625 395.273438 665.191406 395.324219 667.34375 395.324219 L 669.296875 395.324219 L 669.296875 398.777344 L 668.46875 398.777344 C 667.417969 398.628906 663.441406 398.550781 656.53125 398.550781 C 649.722656 398.550781 645.796875 398.628906 644.742188 398.777344 L 643.84375 398.777344 L 643.84375 395.324219 L 645.796875 395.324219 C 646.894531 395.324219 647.847656 395.324219 648.648438 395.324219 C 649.449219 395.324219 650.074219 395.296875 650.523438 395.246094 C 650.976562 395.199219 651.375 395.121094 651.726562 395.023438 C 652.078125 394.921875 652.277344 394.871094 652.328125 394.871094 C 652.378906 394.871094 652.527344 394.746094 652.777344 394.496094 C 653.027344 394.246094 653.179688 394.144531 653.226562 394.195312 Z M 653.226562 355.367188 " fill-opacity="1" fill-rule="nonzero"/><path fill="#000000" d="M 682.960938 366.558594 C 681.609375 366.558594 680.535156 366.109375 679.734375 365.207031 C 678.933594 364.304688 678.53125 363.203125 678.53125 361.902344 C 678.53125 358.347656 679.859375 355.269531 682.511719 352.664062 C 685.164062 350.0625 688.46875 348.757812 692.421875 348.757812 C 696.976562 348.757812 700.78125 350.160156 703.835938 352.964844 C 706.886719 355.769531 708.4375 359.398438 708.488281 363.855469 C 708.488281 366.007812 707.988281 368.058594 706.988281 370.011719 C 705.988281 371.964844 704.785156 373.667969 703.382812 375.121094 C 701.980469 376.570312 699.980469 378.425781 697.378906 380.679688 C 695.574219 382.230469 693.074219 384.53125 689.867188 387.585938 L 685.4375 391.792969 L 691.144531 391.867188 C 699.003906 391.867188 703.183594 391.742188 703.683594 391.492188 C 704.035156 391.390625 704.636719 389.164062 705.484375 384.808594 L 705.484375 384.582031 L 708.488281 384.582031 L 708.488281 384.808594 C 708.4375 384.957031 708.113281 387.238281 707.511719 391.644531 C 706.914062 396.046875 706.539062 398.351562 706.386719 398.550781 L 706.386719 398.777344 L 678.53125 398.777344 L 678.53125 396.449219 C 678.53125 396.097656 678.679688 395.722656 678.980469 395.324219 C 679.28125 394.921875 680.03125 394.046875 681.234375 392.695312 C 682.6875 391.09375 683.9375 389.691406 684.988281 388.488281 C 685.4375 387.988281 686.289062 387.0625 687.542969 385.710938 C 688.792969 384.359375 689.644531 383.429688 690.09375 382.929688 C 690.542969 382.429688 691.269531 381.605469 692.273438 380.453125 C 693.273438 379.300781 693.972656 378.449219 694.375 377.898438 C 694.773438 377.347656 695.351562 376.597656 696.101562 375.644531 C 696.851562 374.695312 697.378906 373.894531 697.675781 373.242188 C 697.976562 372.589844 698.351562 371.867188 698.804688 371.066406 C 699.253906 370.261719 699.578125 369.460938 699.78125 368.660156 C 699.980469 367.859375 700.15625 367.109375 700.304688 366.410156 C 700.457031 365.707031 700.53125 364.882812 700.53125 363.929688 C 700.53125 360.777344 699.679688 358.046875 697.976562 355.742188 C 696.277344 353.441406 693.847656 352.289062 690.695312 352.289062 C 689.042969 352.289062 687.589844 352.714844 686.339844 353.566406 C 685.089844 354.417969 684.210938 355.242188 683.710938 356.042969 C 683.210938 356.84375 682.960938 357.320312 682.960938 357.472656 C 682.960938 357.519531 683.085938 357.546875 683.335938 357.546875 C 684.238281 357.546875 685.164062 357.898438 686.113281 358.597656 C 687.066406 359.296875 687.542969 360.449219 687.542969 362.050781 C 687.542969 363.304688 687.140625 364.355469 686.339844 365.207031 C 685.539062 366.058594 684.414062 366.507812 682.960938 366.558594 Z M 682.960938 366.558594 " fill-opacity="1" fill-rule="nonzero"/></svg>