<svg xmlns="http://www.w3.org/2000/svg" xmlns:xlink="http://www.w3.org/1999/xlink" width="1000" zoomAndPan="magnify" viewBox="0 0 750 749.999995" height="1000" preserveAspectRatio="xMidYMid meet" version="1.0"><defs><clipPath id="aa1a9edd9b"><path d="M 45 338 L 66 338 L 66 423.214844 L 45 423.214844 Z M 45 338 " clip-rule="nonzero"/></clipPath><clipPath id="a4badbd97b"><path d="M 501 326.785156 L 529 326.785156 L 529 368 L 501 368 Z M 501 326.785156 " clip-rule="nonzero"/></clipPath><clipPath id="5ff712c9f7"><path d="M 538 338 L 559 338 L 559 423.214844 L 538 423.214844 Z M 538 338 " clip-rule="nonzero"/></clipPath></defs><rect x="-75" width="900" fill="#ffffff" y="-74.999999" height="899.999994" fill-opacity="1"/><rect x="-75" width="900" fill="#ffffff" y="-74.999999" height="899.999994" fill-opacity="1"/><g clip-path="url(#aa1a9edd9b)"><path fill="#000000" d="M 45.621094 380.984375 C 45.621094 377.097656 45.902344 373.410156 46.464844 369.917969 C 47.027344 366.429688 47.675781 363.417969 48.40625 360.882812 C 49.140625 358.347656 50.183594 355.871094 51.53125 353.449219 C 52.882812 351.027344 53.953125 349.140625 54.742188 347.792969 C 55.53125 346.441406 56.714844 344.976562 58.289062 343.398438 C 59.867188 341.824219 60.796875 340.867188 61.078125 340.527344 C 61.359375 340.191406 62.0625 339.597656 63.1875 338.753906 L 64.625 338.753906 C 65.414062 338.753906 65.808594 339.007812 65.808594 339.515625 C 65.808594 339.683594 65.328125 340.273438 64.371094 341.289062 C 63.414062 342.300781 62.257812 343.792969 60.910156 345.765625 C 59.558594 347.734375 58.175781 350.15625 56.769531 353.027344 C 55.363281 355.898438 54.179688 359.785156 53.222656 364.683594 C 52.265625 369.582031 51.785156 375.015625 51.785156 380.984375 C 51.785156 386.953125 52.265625 392.359375 53.222656 397.199219 C 54.179688 402.042969 55.332031 405.957031 56.683594 408.941406 C 58.035156 411.925781 59.417969 414.347656 60.824219 416.203125 C 62.230469 418.0625 63.414062 419.554688 64.371094 420.679688 C 65.328125 421.804688 65.808594 422.398438 65.808594 422.453125 C 65.808594 422.960938 65.382812 423.214844 64.539062 423.214844 L 63.1875 423.214844 L 60.824219 421.1875 C 55.53125 416.402344 51.675781 410.433594 49.253906 403.28125 C 46.832031 396.128906 45.621094 388.699219 45.621094 380.984375 Z M 45.621094 380.984375 " fill-opacity="1" fill-rule="nonzero"/></g><path fill="#000000" d="M 78.644531 352.691406 C 81.796875 348.128906 86.105469 345.847656 91.566406 345.847656 C 94.269531 345.847656 96.972656 346.582031 99.675781 348.042969 C 102.378906 349.507812 104.574219 352.097656 106.261719 355.816406 C 108.347656 360.488281 109.386719 366.90625 109.386719 375.070312 C 109.386719 383.800781 108.179688 390.472656 105.757812 395.089844 C 104.628906 397.453125 103.082031 399.339844 101.113281 400.746094 C 99.140625 402.15625 97.421875 403.027344 95.960938 403.367188 C 94.496094 403.703125 93.058594 403.902344 91.652344 403.957031 C 90.1875 403.957031 88.722656 403.789062 87.261719 403.449219 C 85.796875 403.113281 84.078125 402.210938 82.109375 400.746094 C 80.136719 399.285156 78.589844 397.398438 77.460938 395.089844 C 75.042969 390.472656 73.832031 383.800781 73.832031 375.070312 C 73.832031 365.273438 75.433594 357.8125 78.644531 352.691406 Z M 97.648438 351.675781 C 95.960938 349.875 93.960938 348.972656 91.652344 348.972656 C 89.285156 348.972656 87.261719 349.875 85.570312 351.675781 C 84.164062 353.140625 83.234375 355.167969 82.785156 357.757812 C 82.332031 360.347656 82.109375 365.753906 82.109375 373.972656 C 82.109375 382.871094 82.332031 388.726562 82.785156 391.542969 C 83.234375 394.355469 84.246094 396.582031 85.824219 398.214844 C 87.402344 399.902344 89.34375 400.746094 91.652344 400.746094 C 93.902344 400.746094 95.820312 399.902344 97.394531 398.214844 C 99.027344 396.523438 100.042969 394.160156 100.4375 391.121094 C 100.828125 388.078125 101.054688 382.363281 101.113281 373.972656 C 101.113281 365.808594 100.886719 360.433594 100.4375 357.84375 C 99.984375 355.25 99.054688 353.195312 97.648438 351.675781 Z M 97.648438 351.675781 " fill-opacity="1" fill-rule="nonzero"/><path fill="#000000" d="M 119.355469 397.03125 C 119.355469 395.679688 119.832031 394.496094 120.789062 393.484375 C 121.746094 392.46875 122.957031 391.964844 124.421875 391.964844 C 125.773438 391.964844 126.957031 392.414062 127.96875 393.316406 C 128.984375 394.214844 129.519531 395.425781 129.574219 396.945312 C 129.574219 398.355469 129.097656 399.566406 128.140625 400.578125 C 127.179688 401.59375 125.972656 402.097656 124.507812 402.097656 C 123.042969 402.097656 121.832031 401.621094 120.875 400.664062 C 119.917969 399.707031 119.410156 398.496094 119.355469 397.03125 Z M 119.355469 397.03125 " fill-opacity="1" fill-rule="nonzero"/><path fill="#000000" d="M 154.238281 353.28125 L 153.140625 353.703125 C 152.351562 353.984375 151.226562 354.265625 149.761719 354.546875 C 148.296875 354.828125 146.664062 355.027344 144.863281 355.140625 L 143.257812 355.140625 L 143.257812 351.253906 L 144.863281 351.253906 C 147.507812 351.140625 149.957031 350.71875 152.210938 349.988281 C 154.460938 349.253906 156.039062 348.578125 156.941406 347.960938 C 157.839844 347.339844 158.628906 346.722656 159.304688 346.101562 C 159.417969 345.933594 159.753906 345.847656 160.316406 345.847656 C 160.824219 345.847656 161.304688 346.015625 161.753906 346.355469 L 161.753906 371.609375 L 161.839844 396.945312 C 162.234375 397.339844 162.570312 397.59375 162.851562 397.707031 C 163.132812 397.820312 163.808594 397.933594 164.878906 398.046875 C 165.949219 398.15625 167.695312 398.214844 170.117188 398.214844 L 172.3125 398.214844 L 172.3125 402.097656 L 171.382812 402.097656 C 170.199219 401.929688 165.722656 401.847656 157.953125 401.847656 C 150.296875 401.847656 145.875 401.929688 144.691406 402.097656 L 143.679688 402.097656 L 143.679688 398.214844 L 145.875 398.214844 C 147.113281 398.214844 148.183594 398.214844 149.085938 398.214844 C 149.984375 398.214844 150.691406 398.1875 151.195312 398.128906 C 151.703125 398.074219 152.152344 397.988281 152.546875 397.875 C 152.941406 397.761719 153.167969 397.707031 153.222656 397.707031 C 153.28125 397.707031 153.449219 397.566406 153.730469 397.285156 C 154.011719 397.003906 154.179688 396.890625 154.238281 396.945312 Z M 154.238281 353.28125 " fill-opacity="1" fill-rule="nonzero"/><path fill="#000000" d="M 196.46875 353.28125 L 195.371094 353.703125 C 194.582031 353.984375 193.453125 354.265625 191.992188 354.546875 C 190.527344 354.828125 188.894531 355.027344 187.09375 355.140625 L 185.488281 355.140625 L 185.488281 351.253906 L 187.09375 351.253906 C 189.738281 351.140625 192.1875 350.71875 194.441406 349.988281 C 196.691406 349.253906 198.269531 348.578125 199.171875 347.960938 C 200.070312 347.339844 200.859375 346.722656 201.535156 346.101562 C 201.648438 345.933594 201.984375 345.847656 202.546875 345.847656 C 203.054688 345.847656 203.535156 346.015625 203.984375 346.355469 L 203.984375 371.609375 L 204.070312 396.945312 C 204.464844 397.339844 204.800781 397.59375 205.082031 397.707031 C 205.363281 397.820312 206.039062 397.933594 207.109375 398.046875 C 208.179688 398.15625 209.925781 398.214844 212.347656 398.214844 L 214.542969 398.214844 L 214.542969 402.097656 L 213.613281 402.097656 C 212.429688 401.929688 207.953125 401.847656 200.183594 401.847656 C 192.527344 401.847656 188.105469 401.929688 186.921875 402.097656 L 185.910156 402.097656 L 185.910156 398.214844 L 188.105469 398.214844 C 189.34375 398.214844 190.414062 398.214844 191.316406 398.214844 C 192.214844 398.214844 192.921875 398.1875 193.425781 398.128906 C 193.933594 398.074219 194.382812 397.988281 194.777344 397.875 C 195.171875 397.761719 195.398438 397.707031 195.453125 397.707031 C 195.511719 397.707031 195.679688 397.566406 195.960938 397.285156 C 196.242188 397.003906 196.410156 396.890625 196.46875 396.945312 Z M 196.46875 353.28125 " fill-opacity="1" fill-rule="nonzero"/><path fill="#000000" d="M 259.726562 402.097656 C 258.714844 401.929688 255.082031 401.847656 248.832031 401.847656 C 242.300781 401.847656 238.527344 401.929688 237.515625 402.097656 L 236.753906 402.097656 L 236.753906 398.214844 L 239.375 398.214844 C 240.5 398.214844 241.257812 398.214844 241.652344 398.214844 C 242.046875 398.214844 242.527344 398.15625 243.089844 398.046875 C 243.652344 397.933594 244.046875 397.792969 244.273438 397.621094 C 244.496094 397.453125 244.695312 397.230469 244.863281 396.945312 C 244.917969 396.835938 244.949219 395.3125 244.949219 392.386719 L 244.949219 388.164062 L 223.074219 388.164062 L 223.074219 384.277344 L 235.824219 364.769531 C 244.441406 351.703125 248.804688 345.144531 248.917969 345.089844 C 249.03125 344.976562 249.621094 344.917969 250.691406 344.917969 L 252.210938 344.917969 L 252.71875 345.425781 L 252.71875 384.277344 L 260.488281 384.277344 L 260.488281 388.164062 L 252.71875 388.164062 L 252.71875 392.46875 C 252.71875 394.777344 252.71875 396.128906 252.71875 396.523438 C 252.71875 396.917969 252.886719 397.257812 253.226562 397.539062 C 253.675781 397.933594 255.28125 398.15625 258.039062 398.214844 L 260.488281 398.214844 L 260.488281 402.097656 Z M 245.453125 384.277344 L 245.453125 356.066406 L 226.957031 384.195312 L 236.164062 384.277344 Z M 245.453125 384.277344 " fill-opacity="1" fill-rule="nonzero"/><path fill="#000000" d="M 334.914062 399.648438 C 334.914062 400.777344 334.324219 401.339844 333.140625 401.339844 C 332.859375 401.339844 332.242188 400.886719 331.285156 399.988281 C 330.324219 399.085938 327.679688 396.46875 323.34375 392.132812 L 314.558594 383.347656 L 305.691406 392.21875 C 299.722656 398.074219 296.65625 401.058594 296.484375 401.171875 C 296.261719 401.28125 296.0625 401.339844 295.894531 401.339844 C 295.445312 401.339844 295.050781 401.171875 294.710938 400.832031 C 294.375 400.496094 294.175781 400.101562 294.121094 399.648438 C 294.121094 399.253906 294.515625 398.636719 295.304688 397.792969 C 296.089844 396.945312 298.738281 394.273438 303.242188 389.769531 L 312.027344 380.984375 L 303.242188 372.199219 C 298.679688 367.640625 296.035156 364.964844 295.304688 364.175781 C 294.570312 363.386719 294.175781 362.769531 294.121094 362.316406 C 294.121094 361.8125 294.289062 361.417969 294.628906 361.136719 C 294.964844 360.855469 295.386719 360.714844 295.894531 360.714844 C 296.175781 360.714844 296.371094 360.742188 296.484375 360.796875 C 296.65625 360.910156 299.722656 363.894531 305.691406 369.75 L 314.558594 378.621094 L 323.34375 369.835938 C 327.679688 365.5 330.324219 362.882812 331.285156 361.980469 C 332.242188 361.078125 332.859375 360.628906 333.140625 360.628906 C 334.324219 360.628906 334.914062 361.191406 334.914062 362.316406 C 334.914062 362.710938 334.632812 363.21875 334.070312 363.839844 C 333.507812 364.457031 330.75 367.21875 325.792969 372.117188 L 317.007812 380.984375 L 325.792969 389.851562 C 330.523438 394.582031 333.226562 397.3125 333.902344 398.046875 C 334.578125 398.777344 334.914062 399.3125 334.914062 399.648438 Z M 334.914062 399.648438 " fill-opacity="1" fill-rule="nonzero"/><path fill="#000000" d="M 384.171875 353.28125 L 383.074219 353.703125 C 382.285156 353.984375 381.160156 354.265625 379.695312 354.546875 C 378.230469 354.828125 376.597656 355.027344 374.796875 355.140625 L 373.191406 355.140625 L 373.191406 351.253906 L 374.796875 351.253906 C 377.445312 351.140625 379.894531 350.71875 382.144531 349.988281 C 384.398438 349.253906 385.972656 348.578125 386.875 347.960938 C 387.777344 347.339844 388.5625 346.722656 389.238281 346.101562 C 389.351562 345.933594 389.691406 345.847656 390.253906 345.847656 C 390.761719 345.847656 391.238281 346.015625 391.6875 346.355469 L 391.6875 371.609375 L 391.773438 396.945312 C 392.167969 397.339844 392.503906 397.59375 392.789062 397.707031 C 393.070312 397.820312 393.746094 397.933594 394.8125 398.046875 C 395.882812 398.15625 397.628906 398.214844 400.050781 398.214844 L 402.246094 398.214844 L 402.246094 402.097656 L 401.316406 402.097656 C 400.136719 401.929688 395.660156 401.847656 387.886719 401.847656 C 380.230469 401.847656 375.8125 401.929688 374.628906 402.097656 L 373.613281 402.097656 L 373.613281 398.214844 L 375.8125 398.214844 C 377.050781 398.214844 378.121094 398.214844 379.019531 398.214844 C 379.921875 398.214844 380.625 398.1875 381.132812 398.128906 C 381.636719 398.074219 382.089844 397.988281 382.484375 397.875 C 382.878906 397.761719 383.101562 397.707031 383.160156 397.707031 C 383.214844 397.707031 383.382812 397.566406 383.664062 397.285156 C 383.945312 397.003906 384.117188 396.890625 384.171875 396.945312 Z M 384.171875 353.28125 " fill-opacity="1" fill-rule="nonzero"/><path fill="#000000" d="M 416.519531 352.691406 C 419.675781 348.128906 423.980469 345.847656 429.441406 345.847656 C 432.144531 345.847656 434.847656 346.582031 437.550781 348.042969 C 440.253906 349.507812 442.449219 352.097656 444.140625 355.816406 C 446.222656 360.488281 447.265625 366.90625 447.265625 375.070312 C 447.265625 383.800781 446.054688 390.472656 443.632812 395.089844 C 442.507812 397.453125 440.957031 399.339844 438.988281 400.746094 C 437.015625 402.15625 435.300781 403.027344 433.835938 403.367188 C 432.371094 403.703125 430.933594 403.902344 429.527344 403.957031 C 428.0625 403.957031 426.601562 403.789062 425.136719 403.449219 C 423.671875 403.113281 421.953125 402.210938 419.984375 400.746094 C 418.011719 399.285156 416.464844 397.398438 415.339844 395.089844 C 412.917969 390.472656 411.707031 383.800781 411.707031 375.070312 C 411.707031 365.273438 413.3125 357.8125 416.519531 352.691406 Z M 435.523438 351.675781 C 433.835938 349.875 431.835938 348.972656 429.527344 348.972656 C 427.164062 348.972656 425.136719 349.875 423.445312 351.675781 C 422.039062 353.140625 421.109375 355.167969 420.660156 357.757812 C 420.207031 360.347656 419.984375 365.753906 419.984375 373.972656 C 419.984375 382.871094 420.207031 388.726562 420.660156 391.542969 C 421.109375 394.355469 422.125 396.582031 423.699219 398.214844 C 425.277344 399.902344 427.21875 400.746094 429.527344 400.746094 C 431.78125 400.746094 433.695312 399.902344 435.269531 398.214844 C 436.902344 396.523438 437.917969 394.160156 438.3125 391.121094 C 438.707031 388.078125 438.929688 382.363281 438.988281 373.972656 C 438.988281 365.808594 438.761719 360.433594 438.3125 357.84375 C 437.859375 355.25 436.933594 353.195312 435.523438 351.675781 Z M 435.523438 351.675781 " fill-opacity="1" fill-rule="nonzero"/><path fill="#000000" d="M 458.445312 353.066406 C 458.445312 353.066406 458.445312 352.804688 458.445312 352.289062 C 458.445312 351.769531 458.722656 351.371094 459.28125 351.09375 L 493.976562 351.09375 C 494.574219 351.414062 494.871094 351.8125 494.871094 352.289062 C 494.871094 352.765625 494.574219 353.164062 493.976562 353.484375 L 459.28125 353.484375 C 458.722656 353.203125 458.445312 352.804688 458.445312 352.289062 Z M 458.445312 353.066406 " fill-opacity="1" fill-rule="nonzero"/><g clip-path="url(#a4badbd97b)"><path fill="#000000" d="M 527.476562 367.21875 C 526.757812 367.097656 524.191406 367.039062 519.773438 367.039062 C 515.152344 367.039062 512.488281 367.097656 511.769531 367.21875 L 511.234375 367.21875 L 511.234375 364.46875 L 513.082031 364.46875 C 513.878906 364.46875 514.417969 364.46875 514.695312 364.46875 C 514.976562 364.46875 515.3125 364.429688 515.710938 364.351562 C 516.109375 364.269531 516.386719 364.171875 516.546875 364.050781 C 516.707031 363.933594 516.847656 363.773438 516.964844 363.574219 C 517.003906 363.496094 517.023438 362.421875 517.023438 360.351562 L 517.023438 357.363281 L 501.558594 357.363281 L 501.558594 354.617188 L 510.574219 340.824219 C 516.667969 331.585938 519.75 326.949219 519.832031 326.910156 C 519.910156 326.832031 520.328125 326.789062 521.085938 326.789062 L 522.160156 326.789062 L 522.519531 327.148438 L 522.519531 354.617188 L 528.011719 354.617188 L 528.011719 357.363281 L 522.519531 357.363281 L 522.519531 360.410156 C 522.519531 362.042969 522.519531 362.996094 522.519531 363.277344 C 522.519531 363.554688 522.636719 363.792969 522.875 363.992188 C 523.195312 364.269531 524.328125 364.429688 526.28125 364.46875 L 528.011719 364.46875 L 528.011719 367.21875 Z M 517.382812 354.617188 L 517.382812 334.671875 L 504.304688 354.558594 L 510.816406 354.617188 Z M 517.382812 354.617188 " fill-opacity="1" fill-rule="nonzero"/></g><g clip-path="url(#5ff712c9f7)"><path fill="#000000" d="M 539.046875 338.839844 L 539.386719 338.753906 C 539.667969 338.753906 539.949219 338.753906 540.230469 338.753906 L 541.242188 338.753906 L 543.609375 340.78125 C 548.902344 345.566406 552.757812 351.535156 555.179688 358.6875 C 557.601562 365.835938 558.8125 373.269531 558.8125 380.984375 C 558.8125 384.8125 558.53125 388.5 557.964844 392.046875 C 557.402344 395.597656 556.757812 398.609375 556.023438 401.085938 C 555.292969 403.5625 554.25 406.039062 552.898438 408.519531 C 551.546875 410.996094 550.476562 412.882812 549.691406 414.175781 C 548.902344 415.472656 547.746094 416.90625 546.226562 418.484375 C 544.707031 420.0625 543.804688 420.988281 543.523438 421.273438 C 543.242188 421.554688 542.59375 422.089844 541.582031 422.875 C 541.414062 423.046875 541.300781 423.15625 541.242188 423.214844 L 540.230469 423.214844 C 539.78125 423.214844 539.46875 423.214844 539.300781 423.214844 C 539.132812 423.214844 538.992188 423.128906 538.878906 422.960938 C 538.765625 422.792969 538.679688 422.539062 538.625 422.199219 C 538.679688 422.144531 538.992188 421.777344 539.554688 421.101562 C 548.28125 412.039062 552.644531 398.664062 552.644531 380.984375 C 552.644531 363.304688 548.28125 349.929688 539.554688 340.867188 C 538.992188 340.191406 538.679688 339.824219 538.625 339.765625 C 538.625 339.316406 538.765625 339.007812 539.046875 338.839844 Z M 539.046875 338.839844 " fill-opacity="1" fill-rule="nonzero"/></g><path fill="#000000" d="M 638.8125 399.648438 C 638.8125 400.777344 638.222656 401.339844 637.039062 401.339844 C 636.757812 401.339844 636.136719 400.886719 635.179688 399.988281 C 634.222656 399.085938 631.578125 396.46875 627.242188 392.132812 L 618.457031 383.347656 L 609.589844 392.21875 C 603.621094 398.074219 600.550781 401.058594 600.382812 401.171875 C 600.15625 401.28125 599.960938 401.339844 599.792969 401.339844 C 599.339844 401.339844 598.945312 401.171875 598.609375 400.832031 C 598.269531 400.496094 598.074219 400.101562 598.019531 399.648438 C 598.019531 399.253906 598.410156 398.636719 599.199219 397.792969 C 599.988281 396.945312 602.636719 394.273438 607.140625 389.769531 L 615.921875 380.984375 L 607.140625 372.199219 C 602.578125 367.640625 599.933594 364.964844 599.199219 364.175781 C 598.46875 363.386719 598.074219 362.769531 598.019531 362.316406 C 598.019531 361.8125 598.1875 361.417969 598.523438 361.136719 C 598.863281 360.855469 599.285156 360.714844 599.792969 360.714844 C 600.074219 360.714844 600.269531 360.742188 600.382812 360.796875 C 600.550781 360.910156 603.621094 363.894531 609.589844 369.75 L 618.457031 378.621094 L 627.242188 369.835938 C 631.578125 365.5 634.222656 362.882812 635.179688 361.980469 C 636.136719 361.078125 636.757812 360.628906 637.039062 360.628906 C 638.222656 360.628906 638.8125 361.191406 638.8125 362.316406 C 638.8125 362.710938 638.53125 363.21875 637.96875 363.839844 C 637.40625 364.457031 634.644531 367.21875 629.691406 372.117188 L 620.90625 380.984375 L 629.691406 389.851562 C 634.421875 394.582031 637.125 397.3125 637.796875 398.046875 C 638.472656 398.777344 638.8125 399.3125 638.8125 399.648438 Z M 638.8125 399.648438 " fill-opacity="1" fill-rule="nonzero"/><path fill="#000000" d="M 676 366.878906 C 676 366.878906 676 364.710938 676 360.375 C 676 356.039062 677.519531 352.550781 680.5625 349.902344 C 683.601562 347.257812 687.09375 345.90625 691.035156 345.847656 C 695.03125 345.847656 698.578125 347.03125 701.675781 349.394531 C 704.773438 351.761719 706.320312 354.828125 706.320312 358.601562 C 706.320312 360.292969 706.011719 361.867188 705.394531 363.332031 C 704.773438 364.796875 704.042969 365.976562 703.195312 366.878906 C 702.351562 367.78125 701.480469 368.566406 700.578125 369.242188 C 699.675781 369.917969 698.945312 370.425781 698.382812 370.765625 C 697.820312 371.101562 697.507812 371.328125 697.453125 371.441406 L 698.636719 372.199219 C 699.425781 372.761719 700.210938 373.328125 701 373.890625 C 701.789062 374.453125 702.238281 374.761719 702.351562 374.820312 C 706.574219 378.140625 708.6875 382.335938 708.6875 387.402344 C 708.6875 391.851562 707.054688 395.707031 703.789062 398.972656 C 700.523438 402.238281 696.300781 403.902344 691.117188 403.957031 C 686.050781 403.957031 681.882812 402.519531 678.617188 399.648438 C 675.351562 396.777344 673.71875 393.230469 673.71875 389.007812 C 673.71875 382.925781 677.351562 377.859375 684.617188 373.804688 L 683.09375 372.707031 C 681.914062 371.976562 681.152344 371.410156 680.816406 371.019531 C 677.605469 368.257812 676 364.710938 676 360.375 Z M 694.242188 369.496094 L 694.75 369.160156 C 695.089844 368.933594 695.34375 368.765625 695.511719 368.652344 C 695.679688 368.539062 695.960938 368.34375 696.355469 368.0625 C 696.75 367.78125 697.085938 367.5 697.367188 367.21875 C 697.648438 366.933594 697.960938 366.597656 698.296875 366.203125 C 698.636719 365.808594 698.945312 365.441406 699.226562 365.105469 C 699.507812 364.769531 699.789062 364.316406 700.070312 363.753906 C 700.351562 363.191406 700.605469 362.710938 700.832031 362.316406 C 701.058594 361.925781 701.199219 361.359375 701.253906 360.628906 C 701.308594 359.898438 701.367188 359.277344 701.421875 358.769531 C 701.421875 356.351562 700.605469 354.292969 698.972656 352.605469 C 697.339844 350.917969 695.453125 349.847656 693.316406 349.394531 C 692.921875 349.339844 691.992188 349.3125 690.527344 349.3125 C 688.21875 349.3125 686.050781 350.042969 684.023438 351.507812 C 681.996094 352.972656 680.957031 354.800781 680.898438 356.996094 C 680.898438 358.292969 681.265625 359.476562 681.996094 360.542969 C 682.730469 361.613281 683.460938 362.429688 684.191406 362.992188 C 684.925781 363.558594 686.332031 364.457031 688.417969 365.695312 C 688.808594 365.976562 689.121094 366.175781 689.34375 366.289062 Z M 691.203125 400.324219 C 694.46875 400.324219 697.285156 399.367188 699.648438 397.453125 C 702.015625 395.539062 703.195312 393.230469 703.195312 390.527344 C 703.195312 389.570312 703.054688 388.671875 702.773438 387.824219 C 702.492188 386.980469 702.15625 386.277344 701.761719 385.714844 C 701.367188 385.152344 700.746094 384.53125 699.902344 383.855469 C 699.058594 383.179688 698.410156 382.671875 697.960938 382.335938 C 697.507812 381.996094 696.691406 381.460938 695.511719 380.730469 C 694.328125 380 693.566406 379.519531 693.230469 379.292969 C 692.441406 378.789062 691.597656 378.253906 690.695312 377.691406 C 689.796875 377.128906 689.0625 376.648438 688.5 376.253906 L 687.824219 375.832031 C 687.488281 375.832031 686.671875 376.3125 685.375 377.269531 C 684.082031 378.226562 682.730469 379.773438 681.320312 381.914062 C 679.914062 384.054688 679.183594 386.363281 679.125 388.839844 C 679.125 392.160156 680.335938 394.890625 682.757812 397.03125 C 685.179688 399.171875 687.992188 400.269531 691.203125 400.324219 Z M 691.203125 400.324219 " fill-opacity="1" fill-rule="nonzero"/></svg>