<svg xmlns="http://www.w3.org/2000/svg" xmlns:xlink="http://www.w3.org/1999/xlink" width="1000" zoomAndPan="magnify" viewBox="0 0 750 749.999995" height="1000" preserveAspectRatio="xMidYMid meet" version="1.0"><defs><clipPath id="8462c9b23c"><path d="M 129 319 L 161 319 L 161 447.691406 L 129 447.691406 Z M 129 319 " clip-rule="nonzero"/></clipPath><clipPath id="d4377a0ad6"><path d="M 533 319 L 564 319 L 564 447.691406 L 533 447.691406 Z M 533 319 " clip-rule="nonzero"/></clipPath><clipPath id="72132dab11"><path d="M 584 302.308594 L 622 302.308594 L 622 365 L 584 365 Z M 584 302.308594 " clip-rule="nonzero"/></clipPath></defs><rect x="-75" width="900" fill="#ffffff" y="-74.999999" height="899.999994" fill-opacity="1"/><rect x="-75" width="900" fill="#ffffff" y="-74.999999" height="899.999994" fill-opacity="1"/><g clip-path="url(#8462c9b23c)"><path fill="#000000" d="M 129.882812 383.542969 C 129.882812 377.644531 130.3125 372.039062 131.167969 366.738281 C 132.023438 361.433594 133.003906 356.859375 134.117188 353.011719 C 135.230469 349.160156 136.808594 345.398438 138.863281 341.71875 C 140.914062 338.042969 142.539062 335.175781 143.738281 333.125 C 144.933594 331.070312 146.730469 328.847656 149.125 326.453125 C 151.515625 324.058594 152.929688 322.605469 153.355469 322.089844 C 153.78125 321.578125 154.851562 320.679688 156.5625 319.398438 L 158.742188 319.398438 C 159.941406 319.398438 160.539062 319.78125 160.539062 320.550781 C 160.539062 320.808594 159.8125 321.707031 158.359375 323.246094 C 156.902344 324.785156 155.152344 327.050781 153.097656 330.046875 C 151.046875 333.039062 148.953125 336.714844 146.816406 341.078125 C 144.675781 345.441406 142.882812 351.34375 141.429688 358.785156 C 139.972656 366.222656 139.246094 374.476562 139.246094 383.542969 C 139.246094 392.609375 139.972656 400.820312 141.429688 408.175781 C 142.882812 415.53125 144.632812 421.476562 146.6875 426.011719 C 148.738281 430.542969 150.832031 434.222656 152.972656 437.042969 C 155.109375 439.867188 156.902344 442.132812 158.359375 443.84375 C 159.8125 445.554688 160.539062 446.453125 160.539062 446.539062 C 160.539062 447.308594 159.898438 447.691406 158.613281 447.691406 L 156.5625 447.691406 L 152.972656 444.613281 C 144.933594 437.34375 139.078125 428.277344 135.398438 417.414062 C 131.722656 406.550781 129.882812 395.261719 129.882812 383.542969 Z M 129.882812 383.542969 " fill-opacity="1" fill-rule="nonzero"/></g><path fill="#000000" d="M 226.976562 415.617188 C 225.4375 415.363281 219.921875 415.234375 210.429688 415.234375 C 200.511719 415.234375 194.78125 415.363281 193.242188 415.617188 L 192.089844 415.617188 L 192.089844 409.71875 L 196.066406 409.71875 C 197.773438 409.71875 198.929688 409.71875 199.527344 409.71875 C 200.125 409.71875 200.851562 409.632812 201.707031 409.460938 C 202.5625 409.289062 203.160156 409.074219 203.503906 408.820312 C 203.847656 408.5625 204.144531 408.21875 204.402344 407.792969 C 204.488281 407.621094 204.53125 405.3125 204.53125 400.863281 L 204.53125 394.449219 L 171.3125 394.449219 L 171.3125 388.546875 L 190.679688 358.910156 C 203.761719 339.070312 210.386719 329.105469 210.558594 329.019531 C 210.730469 328.847656 211.628906 328.761719 213.25 328.761719 L 215.558594 328.761719 L 216.328125 329.53125 L 216.328125 388.546875 L 228.128906 388.546875 L 228.128906 394.449219 L 216.328125 394.449219 L 216.328125 400.992188 C 216.328125 404.5 216.328125 406.550781 216.328125 407.152344 C 216.328125 407.75 216.585938 408.261719 217.097656 408.691406 C 217.785156 409.289062 220.21875 409.632812 224.410156 409.71875 L 228.128906 409.71875 L 228.128906 415.617188 Z M 205.300781 388.546875 L 205.300781 345.699219 L 177.210938 388.417969 L 191.191406 388.546875 Z M 205.300781 388.546875 " fill-opacity="1" fill-rule="nonzero"/><path fill="#000000" d="M 238.519531 378.539062 C 239.117188 374.949219 241.425781 370.800781 245.445312 366.097656 C 249.460938 361.390625 254.421875 358.996094 260.320312 358.910156 C 263.3125 358.910156 266.050781 359.679688 268.53125 361.222656 C 271.011719 362.761719 272.847656 364.683594 274.046875 366.996094 C 277.636719 361.605469 281.953125 358.910156 287 358.910156 C 290.164062 358.910156 292.898438 359.851562 295.207031 361.734375 C 297.515625 363.617188 298.714844 366.140625 298.796875 369.304688 C 298.796875 371.785156 298.199219 373.792969 297.003906 375.332031 C 295.804688 376.875 294.652344 377.8125 293.539062 378.15625 C 292.429688 378.5 291.445312 378.667969 290.589844 378.667969 C 288.964844 378.667969 287.640625 378.199219 286.613281 377.257812 C 285.589844 376.316406 285.074219 375.078125 285.074219 373.539062 C 285.074219 369.601562 287.214844 366.910156 291.488281 365.453125 C 290.546875 364.34375 288.835938 363.785156 286.359375 363.785156 C 285.246094 363.785156 284.433594 363.871094 283.921875 364.042969 C 280.671875 365.410156 278.277344 368.234375 276.738281 372.511719 C 271.609375 391.414062 269.042969 402.445312 269.042969 405.613281 C 269.042969 408.007812 269.726562 409.71875 271.09375 410.742188 C 272.464844 411.769531 273.960938 412.28125 275.585938 412.28125 C 278.746094 412.28125 281.867188 410.871094 284.945312 408.050781 C 288.023438 405.226562 290.121094 401.761719 291.230469 397.65625 C 291.488281 396.800781 291.746094 396.332031 292 396.246094 C 292.257812 396.160156 292.941406 396.074219 294.054688 395.988281 L 294.566406 395.988281 C 295.847656 395.988281 296.488281 396.332031 296.488281 397.015625 C 296.488281 397.101562 296.40625 397.570312 296.234375 398.425781 C 294.867188 403.300781 292.214844 407.621094 288.28125 411.382812 C 284.347656 415.148438 279.773438 417.03125 274.558594 417.03125 C 268.574219 417.03125 264.042969 414.335938 260.964844 408.945312 C 257.457031 414.25 253.4375 416.902344 248.90625 416.902344 L 248.136719 416.902344 C 243.949219 416.902344 240.953125 415.789062 239.160156 413.566406 C 237.363281 411.34375 236.421875 408.988281 236.335938 406.507812 C 236.335938 403.773438 237.148438 401.546875 238.773438 399.839844 C 240.398438 398.128906 242.324219 397.273438 244.546875 397.273438 C 248.222656 397.273438 250.0625 399.066406 250.0625 402.660156 C 250.0625 404.371094 249.546875 405.867188 248.523438 407.152344 C 247.496094 408.433594 246.511719 409.289062 245.570312 409.71875 C 244.632812 410.144531 244.074219 410.359375 243.90625 410.359375 L 243.519531 410.488281 C 243.519531 410.570312 243.777344 410.742188 244.289062 411 C 244.800781 411.257812 245.488281 411.554688 246.339844 411.898438 C 247.195312 412.238281 248.007812 412.367188 248.777344 412.28125 C 251.855469 412.28125 254.507812 410.359375 256.730469 406.507812 C 257.5 405.140625 258.484375 402.234375 259.679688 397.785156 C 260.878906 393.335938 262.074219 388.71875 263.273438 383.929688 C 264.46875 379.140625 265.152344 376.316406 265.324219 375.460938 C 265.75 373.152344 265.964844 371.484375 265.964844 370.457031 C 265.964844 368.0625 265.324219 366.351562 264.042969 365.328125 C 262.757812 364.300781 261.304688 363.785156 259.679688 363.785156 C 256.261719 363.785156 253.054688 365.15625 250.0625 367.890625 C 247.070312 370.628906 244.972656 374.136719 243.777344 378.414062 C 243.605469 379.183594 243.390625 379.609375 243.136719 379.695312 C 242.878906 379.78125 242.195312 379.867188 241.082031 379.953125 L 239.289062 379.953125 C 238.773438 379.4375 238.519531 378.96875 238.519531 378.539062 Z M 238.519531 378.539062 " fill-opacity="1" fill-rule="nonzero"/><path fill="#000000" d="M 344.484375 385.210938 C 344.484375 385.210938 344.484375 384.65625 344.484375 383.542969 C 344.484375 382.433594 345.082031 381.578125 346.28125 380.980469 L 420.796875 380.980469 C 422.078125 381.664062 422.71875 382.519531 422.71875 383.542969 C 422.71875 384.570312 422.078125 385.425781 420.796875 386.109375 L 346.28125 386.109375 C 345.082031 385.511719 344.484375 384.65625 344.484375 383.542969 Z M 344.484375 385.210938 " fill-opacity="1" fill-rule="nonzero"/><path fill="#000000" d="M 489.3125 341.464844 L 487.644531 342.105469 C 486.445312 342.53125 484.738281 342.960938 482.515625 343.386719 C 480.289062 343.816406 477.8125 344.113281 475.074219 344.285156 L 472.636719 344.285156 L 472.636719 338.382812 L 475.074219 338.382812 C 479.09375 338.214844 482.8125 337.570312 486.234375 336.460938 C 489.652344 335.347656 492.046875 334.320312 493.414062 333.382812 C 494.785156 332.441406 495.980469 331.5 497.007812 330.558594 C 497.179688 330.300781 497.691406 330.171875 498.546875 330.171875 C 499.316406 330.171875 500.042969 330.429688 500.726562 330.941406 L 500.726562 369.304688 L 500.855469 407.792969 C 501.453125 408.390625 501.964844 408.777344 502.394531 408.945312 C 502.820312 409.117188 503.847656 409.289062 505.472656 409.460938 C 507.097656 409.632812 509.746094 409.71875 513.421875 409.71875 L 516.757812 409.71875 L 516.757812 415.617188 L 515.347656 415.617188 C 513.550781 415.363281 506.753906 415.234375 494.953125 415.234375 C 483.324219 415.234375 476.613281 415.363281 474.820312 415.617188 L 473.28125 415.617188 L 473.28125 409.71875 L 476.613281 409.71875 C 478.496094 409.71875 480.121094 409.71875 481.488281 409.71875 C 482.855469 409.71875 483.925781 409.675781 484.695312 409.589844 C 485.464844 409.503906 486.148438 409.375 486.746094 409.203125 C 487.34375 409.03125 487.6875 408.945312 487.773438 408.945312 C 487.859375 408.945312 488.113281 408.734375 488.542969 408.304688 C 488.96875 407.878906 489.226562 407.707031 489.3125 407.792969 Z M 489.3125 341.464844 " fill-opacity="1" fill-rule="nonzero"/><g clip-path="url(#d4377a0ad6)"><path fill="#000000" d="M 533.816406 319.523438 L 534.328125 319.398438 C 534.757812 319.398438 535.183594 319.398438 535.613281 319.398438 L 537.152344 319.398438 L 540.742188 322.476562 C 548.78125 329.746094 554.636719 338.8125 558.3125 349.675781 C 561.992188 360.535156 563.828125 371.828125 563.828125 383.542969 C 563.828125 389.359375 563.402344 394.960938 562.546875 400.351562 C 561.691406 405.738281 560.707031 410.316406 559.597656 414.078125 C 558.484375 417.84375 556.902344 421.605469 554.851562 425.367188 C 552.796875 429.132812 551.175781 431.996094 549.976562 433.964844 C 548.78125 435.933594 547.027344 438.113281 544.71875 440.507812 C 542.410156 442.902344 541.042969 444.3125 540.613281 444.742188 C 540.1875 445.167969 539.203125 445.980469 537.664062 447.179688 C 537.40625 447.4375 537.238281 447.605469 537.152344 447.691406 L 535.613281 447.691406 C 534.929688 447.691406 534.457031 447.691406 534.203125 447.691406 C 533.945312 447.691406 533.730469 447.5625 533.558594 447.308594 C 533.390625 447.050781 533.261719 446.664062 533.175781 446.152344 C 533.261719 446.066406 533.730469 445.511719 534.585938 444.484375 C 547.839844 430.714844 554.464844 410.402344 554.464844 383.542969 C 554.464844 356.6875 547.839844 336.375 534.585938 322.605469 C 533.730469 321.578125 533.261719 321.023438 533.175781 320.9375 C 533.175781 320.253906 533.390625 319.78125 533.816406 319.523438 Z M 533.816406 319.523438 " fill-opacity="1" fill-rule="nonzero"/></g><g clip-path="url(#72132dab11)"><path fill="#000000" d="M 591.761719 320.636719 C 590.128906 320.636719 588.859375 320.121094 587.953125 319.09375 C 587.046875 318.066406 586.5625 316.734375 586.503906 315.101562 C 586.503906 311.777344 587.953125 308.8125 590.855469 306.214844 C 593.757812 303.613281 597.261719 302.3125 601.375 302.3125 C 603.488281 302.3125 604.820312 302.34375 605.363281 302.402344 C 609.835938 303.128906 613.253906 304.730469 615.609375 307.210938 C 617.96875 309.691406 619.175781 312.382812 619.238281 315.285156 C 619.238281 318.429688 618.210938 321.484375 616.152344 324.445312 C 614.097656 327.410156 611.257812 329.554688 607.628906 330.886719 L 607.359375 331.066406 C 607.359375 331.128906 607.628906 331.21875 608.175781 331.339844 C 608.71875 331.460938 609.59375 331.730469 610.804688 332.15625 C 612.011719 332.578125 613.160156 333.214844 614.25 334.058594 C 619.207031 337.265625 621.683594 341.5 621.683594 346.757812 C 621.683594 351.535156 619.8125 355.707031 616.0625 359.277344 C 612.316406 362.84375 607.570312 364.628906 601.828125 364.628906 C 596.992188 364.628906 592.820312 363.328125 589.3125 360.726562 C 585.808594 358.128906 584.054688 354.832031 584.054688 350.839844 C 584.054688 349.148438 584.597656 347.785156 585.6875 346.757812 C 586.773438 345.730469 588.132812 345.1875 589.765625 345.125 C 591.460938 345.125 592.851562 345.671875 593.9375 346.757812 C 595.027344 347.847656 595.570312 349.207031 595.570312 350.839844 C 595.570312 351.503906 595.480469 352.109375 595.296875 352.65625 C 595.117188 353.199219 594.90625 353.683594 594.664062 354.105469 C 594.421875 354.53125 594.089844 354.890625 593.664062 355.195312 C 593.242188 355.496094 592.878906 355.738281 592.578125 355.921875 C 592.273438 356.101562 591.972656 356.222656 591.671875 356.28125 C 591.367188 356.34375 591.125 356.433594 590.945312 356.554688 L 590.582031 356.644531 C 593.664062 359.367188 597.414062 360.726562 601.828125 360.726562 C 605.152344 360.726562 607.660156 359.125 609.351562 355.921875 C 610.378906 353.925781 610.894531 350.871094 610.894531 346.757812 L 610.894531 344.945312 C 610.894531 339.199219 608.960938 335.359375 605.089844 333.425781 C 604.183594 333.0625 602.339844 332.851562 599.558594 332.789062 L 595.75 332.699219 L 595.480469 332.519531 C 595.359375 332.335938 595.296875 331.851562 595.296875 331.066406 C 595.296875 329.980469 595.539062 329.433594 596.023438 329.433594 C 597.714844 329.433594 599.46875 329.28125 601.28125 328.980469 C 603.339844 328.679688 605.210938 327.410156 606.90625 325.171875 C 608.597656 322.933594 609.445312 319.546875 609.445312 315.011719 L 609.445312 314.285156 C 609.445312 310.839844 608.386719 308.453125 606.269531 307.121094 C 604.941406 306.273438 603.519531 305.851562 602.007812 305.851562 C 600.074219 305.851562 598.289062 306.183594 596.65625 306.847656 C 595.027344 307.515625 593.878906 308.210938 593.210938 308.933594 C 592.546875 309.660156 592.214844 310.023438 592.214844 310.023438 L 592.488281 310.023438 C 592.667969 310.082031 592.910156 310.144531 593.210938 310.203125 C 593.515625 310.265625 593.816406 310.417969 594.117188 310.660156 C 594.421875 310.898438 594.785156 311.113281 595.207031 311.292969 C 595.628906 311.476562 595.933594 311.808594 596.113281 312.292969 C 596.296875 312.773438 596.539062 313.226562 596.839844 313.652344 C 597.140625 314.074219 597.230469 314.679688 597.113281 315.464844 C 597.113281 316.796875 596.6875 317.976562 595.84375 319.003906 C 594.996094 320.03125 593.636719 320.574219 591.761719 320.636719 Z M 591.761719 320.636719 " fill-opacity="1" fill-rule="nonzero"/></g></svg>