<svg xmlns="http://www.w3.org/2000/svg" xmlns:xlink="http://www.w3.org/1999/xlink" width="1000" zoomAndPan="magnify" viewBox="0 0 750 749.999995" height="1000" preserveAspectRatio="xMidYMid meet" version="1.0"><defs><clipPath id="d0849acbcd"><path d="M 130 319 L 161 319 L 161 447.691406 L 130 447.691406 Z M 130 319 " clip-rule="nonzero"/></clipPath><clipPath id="a0896f47ed"><path d="M 533 319 L 564 319 L 564 447.691406 L 533 447.691406 Z M 533 319 " clip-rule="nonzero"/></clipPath><clipPath id="f21deee761"><path d="M 584 302.308594 L 621 302.308594 L 621 363 L 584 363 Z M 584 302.308594 " clip-rule="nonzero"/></clipPath></defs><rect x="-75" width="900" fill="#ffffff" y="-74.999999" height="899.999994" fill-opacity="1"/><rect x="-75" width="900" fill="#ffffff" y="-74.999999" height="899.999994" fill-opacity="1"/><g clip-path="url(#d0849acbcd)"><path fill="#000000" d="M 130.035156 383.585938 C 130.035156 377.6875 130.464844 372.085938 131.316406 366.789062 C 132.171875 361.488281 133.15625 356.914062 134.265625 353.070312 C 135.375 349.222656 136.957031 345.460938 139.007812 341.785156 C 141.058594 338.109375 142.683594 335.246094 143.878906 333.195312 C 145.074219 331.144531 146.871094 328.921875 149.261719 326.527344 C 151.65625 324.132812 153.066406 322.679688 153.492188 322.167969 C 153.917969 321.65625 154.988281 320.757812 156.695312 319.476562 L 158.875 319.476562 C 160.070312 319.476562 160.671875 319.859375 160.671875 320.628906 C 160.671875 320.886719 159.945312 321.785156 158.492188 323.324219 C 157.039062 324.859375 155.285156 327.125 153.234375 330.117188 C 151.183594 333.109375 149.089844 336.785156 146.957031 341.144531 C 144.820312 345.503906 143.023438 351.402344 141.570312 358.839844 C 140.121094 366.273438 139.394531 374.523438 139.394531 383.585938 C 139.394531 392.644531 140.121094 400.851562 141.570312 408.203125 C 143.023438 415.554688 144.777344 421.492188 146.828125 426.023438 C 148.878906 430.554688 150.972656 434.230469 153.109375 437.050781 C 155.246094 439.871094 157.039062 442.136719 158.492188 443.847656 C 159.945312 445.554688 160.671875 446.453125 160.671875 446.539062 C 160.671875 447.308594 160.03125 447.691406 158.746094 447.691406 L 156.695312 447.691406 L 153.109375 444.613281 C 145.074219 437.347656 139.222656 428.289062 135.546875 417.433594 C 131.875 406.578125 130.035156 395.292969 130.035156 383.585938 Z M 130.035156 383.585938 " fill-opacity="1" fill-rule="nonzero"/></g><path fill="#000000" d="M 188.871094 395.507812 C 188.871094 397.558594 188.1875 399.269531 186.820312 400.636719 C 185.453125 402.003906 183.785156 402.6875 181.820312 402.6875 L 180.921875 402.6875 C 184.851562 409.441406 190.066406 412.816406 196.558594 412.816406 C 202.542969 412.816406 206.898438 410.253906 209.632812 405.125 C 211.257812 402.304688 212.070312 396.832031 212.070312 388.710938 C 212.070312 379.910156 210.914062 373.96875 208.609375 370.890625 C 206.386719 368.070312 203.910156 366.660156 201.175781 366.660156 L 200.40625 366.660156 C 193.738281 366.660156 188.699219 369.566406 185.28125 375.378906 C 184.9375 375.976562 184.640625 376.320312 184.382812 376.402344 C 184.125 376.488281 183.484375 376.574219 182.460938 376.660156 C 181.007812 376.660156 180.195312 376.402344 180.023438 375.890625 C 179.855469 375.550781 179.769531 368.070312 179.769531 353.453125 L 179.769531 336.914062 C 179.769531 332.640625 179.984375 330.503906 180.410156 330.503906 C 180.582031 330.332031 180.75 330.246094 180.921875 330.246094 C 181.007812 330.246094 181.90625 330.589844 183.613281 331.273438 C 185.324219 331.957031 187.671875 332.640625 190.664062 333.324219 C 193.65625 334.007812 196.859375 334.347656 200.277344 334.347656 C 206.34375 334.347656 212.15625 333.152344 217.710938 330.757812 C 218.394531 330.417969 218.949219 330.246094 219.375 330.246094 C 220.058594 330.246094 220.402344 331.015625 220.402344 332.554688 L 220.402344 334.222656 C 213.394531 342.511719 204.636719 346.65625 194.125 346.65625 C 191.476562 346.65625 189.082031 346.402344 186.945312 345.886719 L 185.664062 345.632812 L 185.664062 367.683594 C 187.289062 366.488281 188.570312 365.546875 189.511719 364.863281 C 190.449219 364.179688 191.988281 363.496094 194.125 362.8125 C 196.261719 362.128906 198.441406 361.789062 200.660156 361.789062 C 207.582031 361.789062 213.4375 364.566406 218.222656 370.121094 C 223.007812 375.675781 225.398438 382.257812 225.398438 389.867188 C 225.398438 397.730469 222.664062 404.441406 217.195312 409.996094 C 211.726562 415.554688 205.0625 418.375 197.199219 418.457031 C 190.28125 418.457031 184.726562 416.152344 180.539062 411.535156 C 176.351562 406.917969 174.257812 401.707031 174.257812 395.894531 C 174.257812 393.839844 174.726562 392.21875 175.667969 391.019531 C 176.605469 389.824219 177.589844 389.054688 178.617188 388.710938 C 179.640625 388.371094 180.625 388.199219 181.5625 388.199219 C 183.699219 388.199219 185.453125 388.925781 186.820312 390.378906 C 188.1875 391.832031 188.871094 393.542969 188.871094 395.507812 Z M 188.871094 395.507812 " fill-opacity="1" fill-rule="nonzero"/><path fill="#000000" d="M 238.601562 378.582031 C 239.199219 374.992188 241.507812 370.847656 245.523438 366.148438 C 249.539062 361.445312 254.496094 359.050781 260.390625 358.964844 C 263.382812 358.964844 266.117188 359.734375 268.597656 361.273438 C 271.074219 362.8125 272.910156 364.734375 274.109375 367.042969 C 277.695312 361.660156 282.011719 358.964844 287.054688 358.964844 C 290.214844 358.964844 292.949219 359.90625 295.257812 361.789062 C 297.5625 363.667969 298.761719 366.1875 298.847656 369.351562 C 298.847656 371.832031 298.246094 373.839844 297.050781 375.378906 C 295.855469 376.917969 294.703125 377.855469 293.589844 378.199219 C 292.480469 378.539062 291.496094 378.710938 290.640625 378.710938 C 289.019531 378.710938 287.695312 378.242188 286.667969 377.300781 C 285.644531 376.359375 285.128906 375.121094 285.128906 373.582031 C 285.128906 369.652344 287.265625 366.957031 291.539062 365.503906 C 290.601562 364.394531 288.890625 363.839844 286.414062 363.839844 C 285.300781 363.839844 284.488281 363.925781 283.976562 364.09375 C 280.730469 365.460938 278.335938 368.285156 276.800781 372.558594 C 271.671875 391.449219 269.109375 402.476562 269.109375 405.636719 C 269.109375 408.03125 269.792969 409.742188 271.160156 410.765625 C 272.527344 411.792969 274.023438 412.304688 275.644531 412.304688 C 278.808594 412.304688 281.925781 410.894531 285.003906 408.074219 C 288.078125 405.253906 290.171875 401.789062 291.285156 397.6875 C 291.539062 396.832031 291.796875 396.363281 292.050781 396.277344 C 292.308594 396.191406 292.992188 396.105469 294.101562 396.019531 L 294.617188 396.019531 C 295.898438 396.019531 296.539062 396.363281 296.539062 397.046875 C 296.539062 397.132812 296.453125 397.601562 296.28125 398.457031 C 294.914062 403.328125 292.265625 407.644531 288.335938 411.40625 C 284.40625 415.167969 279.832031 417.046875 274.621094 417.046875 C 268.636719 417.046875 264.109375 414.355469 261.035156 408.972656 C 257.53125 414.269531 253.515625 416.921875 248.984375 416.921875 L 248.214844 416.921875 C 244.027344 416.921875 241.039062 415.808594 239.242188 413.585938 C 237.449219 411.363281 236.507812 409.015625 236.421875 406.535156 C 236.421875 403.800781 237.234375 401.578125 238.859375 399.867188 C 240.480469 398.15625 242.40625 397.304688 244.625 397.304688 C 248.300781 397.304688 250.136719 399.097656 250.136719 402.6875 C 250.136719 404.398438 249.625 405.894531 248.601562 407.175781 C 247.574219 408.457031 246.59375 409.3125 245.652344 409.742188 C 244.710938 410.167969 244.15625 410.382812 243.984375 410.382812 L 243.601562 410.507812 C 243.601562 410.59375 243.859375 410.765625 244.371094 411.023438 C 244.882812 411.277344 245.566406 411.578125 246.421875 411.921875 C 247.277344 412.261719 248.085938 412.390625 248.855469 412.304688 C 251.933594 412.304688 254.582031 410.382812 256.804688 406.535156 C 257.574219 405.167969 258.554688 402.261719 259.75 397.816406 C 260.949219 393.371094 262.144531 388.753906 263.339844 383.96875 C 264.535156 379.183594 265.21875 376.359375 265.390625 375.507812 C 265.820312 373.199219 266.03125 371.53125 266.03125 370.507812 C 266.03125 368.113281 265.390625 366.402344 264.109375 365.378906 C 262.828125 364.351562 261.375 363.839844 259.75 363.839844 C 256.332031 363.839844 253.128906 365.207031 250.136719 367.941406 C 247.148438 370.675781 245.054688 374.179688 243.859375 378.457031 C 243.6875 379.226562 243.472656 379.652344 243.214844 379.738281 C 242.960938 379.824219 242.277344 379.910156 241.164062 379.992188 L 239.371094 379.992188 C 238.859375 379.480469 238.601562 379.011719 238.601562 378.582031 Z M 238.601562 378.582031 " fill-opacity="1" fill-rule="nonzero"/><path fill="#000000" d="M 344.503906 385.25 C 344.503906 385.25 344.503906 384.695312 344.503906 383.585938 C 344.503906 382.472656 345.101562 381.617188 346.296875 381.019531 L 420.769531 381.019531 C 422.050781 381.703125 422.691406 382.558594 422.691406 383.585938 C 422.691406 384.609375 422.050781 385.464844 420.769531 386.148438 L 346.296875 386.148438 C 345.101562 385.550781 344.503906 384.695312 344.503906 383.585938 Z M 344.503906 385.25 " fill-opacity="1" fill-rule="nonzero"/><path fill="#000000" d="M 475.910156 360.632812 C 473.601562 360.632812 471.765625 359.863281 470.398438 358.324219 C 469.03125 356.785156 468.347656 354.90625 468.347656 352.683594 C 468.347656 346.613281 470.613281 341.359375 475.140625 336.914062 C 479.671875 332.46875 485.308594 330.246094 492.0625 330.246094 C 499.835938 330.246094 506.332031 332.640625 511.542969 337.425781 C 516.757812 342.214844 519.40625 348.410156 519.492188 356.015625 C 519.492188 359.691406 518.636719 363.199219 516.925781 366.53125 C 515.21875 369.863281 513.167969 372.769531 510.773438 375.25 C 508.382812 377.730469 504.964844 380.890625 500.519531 384.738281 C 497.445312 387.386719 493.171875 391.320312 487.703125 396.535156 L 480.140625 403.714844 L 489.882812 403.84375 C 503.296875 403.84375 510.433594 403.628906 511.289062 403.203125 C 511.886719 403.03125 512.910156 399.226562 514.363281 391.789062 L 514.363281 391.40625 L 519.492188 391.40625 L 519.492188 391.789062 C 519.40625 392.046875 518.851562 395.9375 517.824219 403.457031 C 516.800781 410.980469 516.15625 414.910156 515.902344 415.253906 L 515.902344 415.636719 L 468.347656 415.636719 L 468.347656 411.664062 C 468.347656 411.066406 468.605469 410.425781 469.117188 409.742188 C 469.628906 409.054688 470.910156 407.5625 472.960938 405.253906 C 475.441406 402.515625 477.578125 400.125 479.371094 398.074219 C 480.140625 397.21875 481.59375 395.636719 483.730469 393.328125 C 485.867188 391.019531 487.316406 389.4375 488.085938 388.585938 C 488.855469 387.730469 490.09375 386.320312 491.804688 384.351562 C 493.511719 382.386719 494.710938 380.933594 495.394531 379.992188 C 496.078125 379.054688 497.058594 377.773438 498.339844 376.148438 C 499.625 374.523438 500.519531 373.15625 501.03125 372.042969 C 501.546875 370.933594 502.1875 369.695312 502.957031 368.328125 C 503.726562 366.957031 504.28125 365.589844 504.621094 364.222656 C 504.964844 362.855469 505.261719 361.574219 505.519531 360.375 C 505.777344 359.179688 505.902344 357.769531 505.902344 356.144531 C 505.902344 350.761719 504.453125 346.101562 501.546875 342.171875 C 498.640625 338.238281 494.496094 336.273438 489.113281 336.273438 C 486.292969 336.273438 483.816406 337 481.679688 338.453125 C 479.542969 339.90625 478.046875 341.316406 477.191406 342.683594 C 476.335938 344.050781 475.910156 344.863281 475.910156 345.121094 C 475.910156 345.203125 476.125 345.246094 476.550781 345.246094 C 478.089844 345.246094 479.671875 345.847656 481.292969 347.042969 C 482.917969 348.238281 483.730469 350.207031 483.730469 352.941406 C 483.730469 355.078125 483.046875 356.871094 481.679688 358.324219 C 480.3125 359.777344 478.386719 360.546875 475.910156 360.632812 Z M 475.910156 360.632812 " fill-opacity="1" fill-rule="nonzero"/><g clip-path="url(#a0896f47ed)"><path fill="#000000" d="M 533.71875 319.605469 L 534.230469 319.476562 C 534.660156 319.476562 535.085938 319.476562 535.511719 319.476562 L 537.050781 319.476562 L 540.640625 322.554688 C 548.671875 329.820312 554.527344 338.878906 558.199219 349.734375 C 561.875 360.589844 563.710938 371.875 563.710938 383.585938 C 563.710938 389.398438 563.285156 394.996094 562.429688 400.378906 C 561.574219 405.765625 560.59375 410.339844 559.480469 414.101562 C 558.371094 417.859375 556.789062 421.621094 554.738281 425.382812 C 552.6875 429.144531 551.066406 432.007812 549.867188 433.972656 C 548.671875 435.9375 546.921875 438.117188 544.613281 440.511719 C 542.304688 442.90625 540.9375 444.316406 540.511719 444.742188 C 540.085938 445.171875 539.101562 445.984375 537.5625 447.179688 C 537.308594 447.4375 537.136719 447.605469 537.050781 447.691406 L 535.511719 447.691406 C 534.828125 447.691406 534.359375 447.691406 534.101562 447.691406 C 533.847656 447.691406 533.632812 447.5625 533.460938 447.308594 C 533.292969 447.050781 533.164062 446.667969 533.078125 446.152344 C 533.164062 446.066406 533.632812 445.511719 534.488281 444.488281 C 547.734375 430.726562 554.355469 410.425781 554.355469 383.585938 C 554.355469 356.742188 547.734375 336.441406 534.488281 322.679688 C 533.632812 321.65625 533.164062 321.101562 533.078125 321.015625 C 533.078125 320.332031 533.292969 319.859375 533.71875 319.605469 Z M 533.71875 319.605469 " fill-opacity="1" fill-rule="nonzero"/></g><g clip-path="url(#f21deee761)"><path fill="#000000" d="M 589.996094 323.796875 C 588.367188 323.796875 587.066406 323.253906 586.101562 322.164062 C 585.132812 321.078125 584.648438 319.746094 584.648438 318.175781 C 584.648438 313.886719 586.25 310.167969 589.453125 307.027344 C 592.65625 303.882812 596.640625 302.3125 601.414062 302.3125 C 606.914062 302.3125 611.503906 304.003906 615.1875 307.390625 C 618.875 310.773438 620.746094 315.15625 620.808594 320.53125 C 620.808594 323.132812 620.203125 325.609375 618.996094 327.964844 C 617.789062 330.324219 616.335938 332.378906 614.644531 334.128906 C 612.953125 335.882812 610.539062 338.117188 607.394531 340.839844 C 605.222656 342.710938 602.199219 345.492188 598.332031 349.179688 L 592.988281 354.253906 L 599.875 354.34375 C 609.359375 354.34375 614.402344 354.195312 615.007812 353.890625 C 615.429688 353.769531 616.15625 351.082031 617.183594 345.824219 L 617.183594 345.550781 L 620.808594 345.550781 L 620.808594 345.824219 C 620.746094 346.003906 620.355469 348.753906 619.628906 354.074219 C 618.90625 359.390625 618.453125 362.171875 618.269531 362.414062 L 618.269531 362.683594 L 584.648438 362.683594 L 584.648438 359.875 C 584.648438 359.453125 584.832031 359 585.195312 358.515625 C 585.554688 358.03125 586.460938 356.972656 587.914062 355.34375 C 589.664062 353.410156 591.175781 351.714844 592.441406 350.265625 C 592.988281 349.660156 594.015625 348.542969 595.523438 346.910156 C 597.035156 345.28125 598.0625 344.164062 598.605469 343.558594 C 599.148438 342.953125 600.023438 341.957031 601.234375 340.566406 C 602.441406 339.175781 603.289062 338.148438 603.769531 337.484375 C 604.253906 336.820312 604.949219 335.914062 605.855469 334.765625 C 606.761719 333.617188 607.394531 332.648438 607.757812 331.863281 C 608.121094 331.078125 608.574219 330.203125 609.117188 329.234375 C 609.660156 328.269531 610.054688 327.300781 610.296875 326.335938 C 610.539062 325.367188 610.75 324.460938 610.929688 323.613281 C 611.113281 322.769531 611.203125 321.773438 611.203125 320.625 C 611.203125 316.816406 610.175781 313.523438 608.121094 310.742188 C 606.066406 307.964844 603.136719 306.574219 599.332031 306.574219 C 597.335938 306.574219 595.585938 307.085938 594.074219 308.113281 C 592.5625 309.140625 591.507812 310.136719 590.902344 311.105469 C 590.296875 312.074219 589.996094 312.648438 589.996094 312.828125 C 589.996094 312.886719 590.148438 312.917969 590.449219 312.917969 C 591.535156 312.917969 592.65625 313.339844 593.800781 314.1875 C 594.949219 315.035156 595.523438 316.421875 595.523438 318.359375 C 595.523438 319.867188 595.042969 321.136719 594.074219 322.164062 C 593.109375 323.191406 591.75 323.734375 589.996094 323.796875 Z M 589.996094 323.796875 " fill-opacity="1" fill-rule="nonzero"/></g></svg>