<svg xmlns="http://www.w3.org/2000/svg" xmlns:xlink="http://www.w3.org/1999/xlink" width="1000" zoomAndPan="magnify" viewBox="0 0 750 749.999995" height="1000" preserveAspectRatio="xMidYMid meet" version="1.0"><rect x="-75" width="900" fill="#ffffff" y="-74.999999" height="899.999994" fill-opacity="1"/><rect x="-75" width="900" fill="#ffffff" y="-74.999999" height="899.999994" fill-opacity="1"/><path fill="#000000" d="M 352.066406 227.851562 C 348.835938 227.851562 346.320312 226.824219 344.527344 224.769531 C 342.730469 222.714844 341.773438 220.054688 341.65625 216.789062 C 341.65625 210.140625 344.527344 204.21875 350.269531 199.019531 C 356.015625 193.820312 362.957031 191.222656 371.097656 191.222656 C 375.285156 191.222656 377.917969 191.285156 378.996094 191.40625 C 387.851562 192.855469 394.613281 196.058594 399.28125 201.015625 C 403.949219 205.972656 406.34375 211.351562 406.460938 217.152344 C 406.460938 223.4375 404.425781 229.542969 400.359375 235.46875 C 396.289062 241.390625 390.664062 245.683594 383.484375 248.339844 L 382.945312 248.703125 C 382.945312 248.824219 383.484375 249.007812 384.558594 249.25 C 385.636719 249.488281 387.371094 250.035156 389.765625 250.878906 C 392.160156 251.726562 394.433594 252.996094 396.585938 254.6875 C 406.402344 261.09375 411.308594 269.558594 411.308594 280.074219 C 411.308594 289.625 407.597656 297.964844 400.179688 305.097656 C 392.757812 312.230469 383.363281 315.796875 371.992188 315.796875 C 362.417969 315.796875 354.160156 313.195312 347.21875 308 C 340.277344 302.800781 336.808594 296.210938 336.808594 288.234375 C 336.808594 284.847656 337.882812 282.128906 340.039062 280.074219 C 342.191406 278.019531 344.886719 276.929688 348.117188 276.808594 C 351.46875 276.808594 354.222656 277.898438 356.375 280.074219 C 358.53125 282.25 359.605469 284.96875 359.605469 288.234375 C 359.605469 289.5625 359.425781 290.773438 359.066406 291.859375 C 358.707031 292.949219 358.289062 293.914062 357.8125 294.761719 C 357.332031 295.609375 356.675781 296.332031 355.835938 296.9375 C 355 297.542969 354.28125 298.027344 353.683594 298.386719 C 353.082031 298.75 352.484375 298.992188 351.886719 299.113281 C 351.289062 299.234375 350.808594 299.417969 350.449219 299.65625 L 349.734375 299.839844 C 355.835938 305.277344 363.257812 308 371.992188 308 C 378.574219 308 383.542969 304.796875 386.894531 298.386719 C 388.929688 294.398438 389.945312 288.292969 389.945312 280.074219 L 389.945312 276.449219 C 389.945312 264.964844 386.117188 257.289062 378.457031 253.417969 C 376.660156 252.695312 373.011719 252.269531 367.503906 252.148438 L 359.964844 251.96875 L 359.425781 251.605469 C 359.1875 251.242188 359.066406 250.277344 359.066406 248.703125 C 359.066406 246.527344 359.546875 245.441406 360.503906 245.441406 C 363.855469 245.441406 367.324219 245.136719 370.917969 244.535156 C 374.984375 243.929688 378.695312 241.390625 382.046875 236.917969 C 385.398438 232.445312 387.074219 225.675781 387.074219 216.609375 L 387.074219 215.160156 C 387.074219 208.269531 384.980469 203.492188 380.789062 200.832031 C 378.15625 199.140625 375.34375 198.296875 372.351562 198.296875 C 368.523438 198.296875 364.992188 198.960938 361.761719 200.289062 C 358.53125 201.621094 356.253906 203.007812 354.9375 204.460938 C 353.621094 205.910156 352.964844 206.636719 352.964844 206.636719 L 353.503906 206.636719 C 353.863281 206.757812 354.339844 206.878906 354.9375 207 C 355.539062 207.121094 356.136719 207.421875 356.734375 207.90625 C 357.332031 208.390625 358.050781 208.8125 358.886719 209.175781 C 359.726562 209.539062 360.324219 210.203125 360.683594 211.167969 C 361.042969 212.136719 361.519531 213.042969 362.121094 213.890625 C 362.71875 214.734375 362.898438 215.945312 362.660156 217.515625 C 362.660156 220.175781 361.820312 222.53125 360.144531 224.585938 C 358.46875 226.644531 355.777344 227.730469 352.066406 227.851562 Z M 352.066406 227.851562 " fill-opacity="1" fill-rule="nonzero"/><path fill="#000000" d="M 412.207031 558.777344 C 410.050781 558.414062 402.332031 558.234375 389.046875 558.234375 C 375.164062 558.234375 367.144531 558.414062 364.992188 558.777344 L 363.375 558.777344 L 363.375 550.4375 L 368.941406 550.4375 C 371.335938 550.4375 372.949219 550.4375 373.789062 550.4375 C 374.625 550.4375 375.644531 550.316406 376.839844 550.074219 C 378.039062 549.832031 378.875 549.527344 379.355469 549.167969 C 379.832031 548.804688 380.25 548.320312 380.609375 547.714844 C 380.730469 547.472656 380.789062 544.210938 380.789062 537.925781 L 380.789062 528.859375 L 334.292969 528.859375 L 334.292969 520.515625 L 361.402344 478.628906 C 379.710938 450.582031 388.988281 436.5 389.226562 436.378906 C 389.46875 436.136719 390.722656 436.015625 392.996094 436.015625 L 396.230469 436.015625 L 397.304688 437.105469 L 397.304688 520.515625 L 413.820312 520.515625 L 413.820312 528.859375 L 397.304688 528.859375 L 397.304688 538.105469 C 397.304688 543.0625 397.304688 545.964844 397.304688 546.808594 C 397.304688 547.65625 397.664062 548.378906 398.382812 548.984375 C 399.339844 549.832031 402.75 550.316406 408.617188 550.4375 L 413.820312 550.4375 L 413.820312 558.777344 Z M 381.867188 520.515625 L 381.867188 459.953125 L 342.550781 520.335938 L 362.121094 520.515625 Z M 381.867188 520.515625 " fill-opacity="1" fill-rule="nonzero"/><path fill="#000000" d="M 311.316406 394.492188 L 436.980469 394.492188 L 436.980469 383.613281 L 311.316406 383.613281 Z M 311.316406 394.492188 " fill-opacity="1" fill-rule="nonzero"/></svg>