<svg xmlns="http://www.w3.org/2000/svg" xmlns:xlink="http://www.w3.org/1999/xlink" width="1000" zoomAndPan="magnify" viewBox="0 0 750 749.999995" height="1000" preserveAspectRatio="xMidYMid meet" version="1.0"><defs><clipPath id="db3bb6607a"><path d="M 157 201.75 L 228 201.75 L 228 319 L 157 319 Z M 157 201.75 " clip-rule="nonzero"/></clipPath><clipPath id="2bc6701a6b"><path d="M 525 201.75 L 593 201.75 L 593 319 L 525 319 Z M 525 201.75 " clip-rule="nonzero"/></clipPath><clipPath id="f647c891b4"><path d="M 525 431 L 593 431 L 593 548.25 L 525 548.25 Z M 525 431 " clip-rule="nonzero"/></clipPath></defs><rect x="-75" width="900" fill="#ffffff" y="-74.999999" height="899.999994" fill-opacity="1"/><rect x="-75" width="900" fill="#ffffff" y="-74.999999" height="899.999994" fill-opacity="1"/><g clip-path="url(#db3bb6607a)"><path fill="#000000" d="M 171.628906 236.0625 C 168.578125 236.0625 166.203125 235.105469 164.507812 233.1875 C 162.8125 231.273438 161.90625 228.792969 161.792969 225.75 C 161.792969 219.554688 164.507812 214.03125 169.933594 209.1875 C 175.359375 204.339844 181.917969 201.917969 189.605469 201.917969 C 193.5625 201.917969 196.050781 201.976562 197.066406 202.089844 C 205.433594 203.441406 211.820312 206.425781 216.230469 211.046875 C 220.636719 215.667969 222.898438 220.679688 223.011719 226.089844 C 223.011719 231.949219 221.089844 237.640625 217.246094 243.160156 C 213.402344 248.683594 208.089844 252.683594 201.304688 255.160156 L 200.796875 255.5 C 200.796875 255.613281 201.304688 255.78125 202.324219 256.007812 C 203.339844 256.230469 204.980469 256.738281 207.242188 257.527344 C 209.503906 258.316406 211.652344 259.5 213.683594 261.078125 C 222.957031 267.050781 227.589844 274.9375 227.589844 284.742188 C 227.589844 293.644531 224.085938 301.417969 217.078125 308.066406 C 210.066406 314.714844 201.191406 318.039062 190.453125 318.039062 C 181.410156 318.039062 173.609375 315.617188 167.050781 310.769531 C 160.492188 305.925781 157.214844 299.785156 157.214844 292.347656 C 157.214844 289.191406 158.230469 286.65625 160.265625 284.742188 C 162.300781 282.824219 164.847656 281.8125 167.898438 281.699219 C 171.0625 281.699219 173.664062 282.710938 175.699219 284.742188 C 177.734375 286.769531 178.75 289.304688 178.75 292.347656 C 178.75 293.585938 178.582031 294.714844 178.242188 295.726562 C 177.902344 296.742188 177.507812 297.644531 177.054688 298.433594 C 176.601562 299.222656 175.980469 299.898438 175.191406 300.460938 C 174.398438 301.023438 173.71875 301.472656 173.15625 301.8125 C 172.589844 302.152344 172.023438 302.375 171.460938 302.488281 C 170.894531 302.601562 170.441406 302.769531 170.101562 302.996094 L 169.425781 303.164062 C 175.191406 308.234375 182.199219 310.769531 190.453125 310.769531 C 196.671875 310.769531 201.363281 307.785156 204.527344 301.8125 C 206.449219 298.09375 207.410156 292.402344 207.410156 284.742188 L 207.410156 281.359375 C 207.410156 270.65625 203.792969 263.5 196.558594 259.894531 C 194.863281 259.21875 191.414062 258.824219 186.214844 258.710938 L 179.089844 258.542969 L 178.582031 258.203125 C 178.355469 257.867188 178.242188 256.964844 178.242188 255.5 C 178.242188 253.472656 178.695312 252.457031 179.597656 252.457031 C 182.765625 252.457031 186.042969 252.175781 189.433594 251.613281 C 193.277344 251.046875 196.785156 248.683594 199.949219 244.511719 C 203.113281 240.34375 204.699219 234.035156 204.699219 225.582031 L 204.699219 224.230469 C 204.699219 217.808594 202.71875 213.355469 198.761719 210.878906 C 196.273438 209.300781 193.617188 208.511719 190.792969 208.511719 C 187.175781 208.511719 183.839844 209.128906 180.785156 210.371094 C 177.734375 211.609375 175.585938 212.90625 174.34375 214.257812 C 173.097656 215.609375 172.476562 216.285156 172.476562 216.285156 L 172.984375 216.285156 C 173.324219 216.398438 173.777344 216.511719 174.34375 216.625 C 174.90625 216.738281 175.472656 217.019531 176.039062 217.46875 C 176.601562 217.921875 177.28125 218.3125 178.074219 218.652344 C 178.863281 218.992188 179.429688 219.609375 179.769531 220.511719 C 180.109375 221.414062 180.558594 222.257812 181.125 223.046875 C 181.691406 223.835938 181.859375 224.960938 181.632812 226.425781 C 181.632812 228.90625 180.84375 231.105469 179.261719 233.019531 C 177.675781 234.933594 175.132812 235.949219 171.628906 236.0625 Z M 171.628906 236.0625 " fill-opacity="1" fill-rule="nonzero"/></g><path fill="#000000" d="M 228.4375 544.53125 C 226.402344 544.195312 219.113281 544.023438 206.5625 544.023438 C 193.449219 544.023438 185.875 544.195312 183.839844 544.53125 L 182.3125 544.53125 L 182.3125 536.757812 L 187.570312 536.757812 C 189.832031 536.757812 191.355469 536.757812 192.148438 536.757812 C 192.941406 536.757812 193.902344 536.644531 195.03125 536.417969 C 196.160156 536.191406 196.953125 535.910156 197.40625 535.574219 C 197.859375 535.234375 198.253906 534.785156 198.59375 534.222656 C 198.707031 533.996094 198.761719 530.953125 198.761719 525.09375 L 198.761719 516.640625 L 154.839844 516.640625 L 154.839844 508.867188 L 180.449219 469.824219 C 197.746094 443.679688 206.507812 430.550781 206.734375 430.441406 C 206.957031 430.214844 208.144531 430.101562 210.292969 430.101562 L 213.347656 430.101562 L 214.363281 431.117188 L 214.363281 508.867188 L 229.964844 508.867188 L 229.964844 516.640625 L 214.363281 516.640625 L 214.363281 525.261719 C 214.363281 529.882812 214.363281 532.585938 214.363281 533.375 C 214.363281 534.164062 214.703125 534.839844 215.382812 535.402344 C 216.285156 536.191406 219.507812 536.644531 225.046875 536.757812 L 229.964844 536.757812 L 229.964844 544.53125 Z M 199.78125 508.867188 L 199.78125 452.414062 L 162.640625 508.699219 L 181.125 508.867188 Z M 199.78125 508.867188 " fill-opacity="1" fill-rule="nonzero"/><path fill="#000000" d="M 133.132812 391.394531 L 251.839844 391.394531 L 251.839844 381.253906 L 133.132812 381.253906 Z M 133.132812 391.394531 " fill-opacity="1" fill-rule="nonzero"/><path fill="#000000" d="M 416.710938 423.679688 C 416.710938 425.933594 415.523438 427.058594 413.148438 427.058594 C 412.582031 427.058594 411.339844 426.15625 409.417969 424.355469 C 407.496094 422.550781 402.183594 417.3125 393.476562 408.636719 L 375.839844 391.058594 L 358.035156 408.804688 C 346.050781 420.523438 339.886719 426.496094 339.550781 426.722656 C 339.097656 426.945312 338.703125 427.058594 338.363281 427.058594 C 337.457031 427.058594 336.667969 426.722656 335.988281 426.046875 C 335.308594 425.371094 334.914062 424.582031 334.800781 423.679688 C 334.800781 422.890625 335.59375 421.652344 337.175781 419.960938 C 338.757812 418.269531 344.070312 412.917969 353.117188 403.902344 L 370.753906 386.324219 L 353.117188 368.746094 C 343.957031 359.617188 338.644531 354.265625 337.175781 352.6875 C 335.707031 351.109375 334.914062 349.871094 334.800781 348.96875 C 334.800781 347.957031 335.140625 347.167969 335.820312 346.605469 C 336.496094 346.039062 337.34375 345.757812 338.363281 345.757812 C 338.925781 345.757812 339.324219 345.816406 339.550781 345.929688 C 339.886719 346.152344 346.050781 352.125 358.035156 363.84375 L 375.839844 381.59375 L 393.476562 364.011719 C 402.183594 355.335938 407.496094 350.097656 409.417969 348.292969 C 411.339844 346.492188 412.582031 345.589844 413.148438 345.589844 C 415.523438 345.589844 416.710938 346.714844 416.710938 348.96875 C 416.710938 349.757812 416.144531 350.773438 415.011719 352.011719 C 413.882812 353.253906 408.34375 358.773438 398.394531 368.578125 L 380.757812 386.324219 L 398.394531 404.070312 C 407.890625 413.539062 413.316406 419.003906 414.675781 420.46875 C 416.03125 421.933594 416.710938 423.003906 416.710938 423.679688 Z M 416.710938 423.679688 " fill-opacity="1" fill-rule="nonzero"/><g clip-path="url(#2bc6701a6b)"><path fill="#000000" d="M 544.609375 287.785156 C 544.609375 290.488281 543.703125 292.742188 541.894531 294.542969 C 540.085938 296.347656 537.882812 297.25 535.28125 297.25 L 534.09375 297.25 C 539.292969 306.152344 546.191406 310.601562 554.78125 310.601562 C 562.695312 310.601562 568.460938 307.222656 572.082031 300.460938 C 574.230469 296.742188 575.300781 289.53125 575.300781 278.824219 C 575.300781 267.21875 573.777344 259.386719 570.722656 255.332031 C 567.785156 251.613281 564.507812 249.753906 560.886719 249.753906 L 559.871094 249.753906 C 551.050781 249.753906 544.382812 253.585938 539.859375 261.246094 C 539.40625 262.035156 539.011719 262.484375 538.671875 262.597656 C 538.332031 262.710938 537.484375 262.824219 536.128906 262.9375 C 534.207031 262.9375 533.132812 262.597656 532.90625 261.921875 C 532.679688 261.472656 532.566406 251.613281 532.566406 232.34375 L 532.566406 210.539062 C 532.566406 204.90625 532.851562 202.089844 533.414062 202.089844 C 533.640625 201.863281 533.867188 201.75 534.09375 201.75 C 534.207031 201.75 535.394531 202.199219 537.65625 203.101562 C 539.917969 204.003906 543.027344 204.90625 546.980469 205.804688 C 550.9375 206.707031 555.179688 207.160156 559.699219 207.160156 C 567.726562 207.160156 575.414062 205.582031 582.765625 202.425781 C 583.667969 201.976562 584.402344 201.75 584.96875 201.75 C 585.875 201.75 586.324219 202.765625 586.324219 204.792969 L 586.324219 206.988281 C 577.054688 217.921875 565.46875 223.386719 551.5625 223.386719 C 548.054688 223.386719 544.890625 223.046875 542.066406 222.371094 L 540.367188 222.03125 L 540.367188 251.105469 C 542.515625 249.527344 544.210938 248.289062 545.457031 247.386719 C 546.699219 246.484375 548.734375 245.582031 551.5625 244.683594 C 554.386719 243.78125 557.269531 243.328125 560.210938 243.328125 C 569.367188 243.328125 577.113281 246.992188 583.441406 254.316406 C 589.773438 261.640625 592.9375 270.316406 592.9375 280.347656 C 592.9375 290.714844 589.320312 299.558594 582.085938 306.882812 C 574.851562 314.207031 566.03125 317.925781 555.632812 318.039062 C 546.472656 318.039062 539.125 314.996094 533.585938 308.910156 C 528.046875 302.828125 525.277344 295.953125 525.277344 288.289062 C 525.277344 285.585938 525.898438 283.445312 527.140625 281.867188 C 528.386719 280.289062 529.683594 279.277344 531.042969 278.824219 C 532.398438 278.375 533.699219 278.148438 534.941406 278.148438 C 537.769531 278.148438 540.085938 279.105469 541.894531 281.023438 C 543.703125 282.9375 544.609375 285.191406 544.609375 287.785156 Z M 544.609375 287.785156 " fill-opacity="1" fill-rule="nonzero"/></g><g clip-path="url(#f647c891b4)"><path fill="#000000" d="M 544.609375 517.996094 C 544.609375 520.699219 543.703125 522.953125 541.894531 524.753906 C 540.085938 526.558594 537.882812 527.460938 535.28125 527.460938 L 534.09375 527.460938 C 539.292969 536.363281 546.191406 540.8125 554.78125 540.8125 C 562.695312 540.8125 568.460938 537.433594 572.082031 530.671875 C 574.230469 526.953125 575.300781 519.742188 575.300781 509.035156 C 575.300781 497.429688 573.777344 489.597656 570.722656 485.542969 C 567.785156 481.824219 564.507812 479.964844 560.886719 479.964844 L 559.871094 479.964844 C 551.050781 479.964844 544.382812 483.796875 539.859375 491.457031 C 539.40625 492.246094 539.011719 492.699219 538.671875 492.808594 C 538.332031 492.921875 537.484375 493.035156 536.128906 493.148438 C 534.207031 493.148438 533.132812 492.808594 532.90625 492.132812 C 532.679688 491.683594 532.566406 481.824219 532.566406 462.554688 L 532.566406 440.75 C 532.566406 435.117188 532.851562 432.300781 533.414062 432.300781 C 533.640625 432.074219 533.867188 431.960938 534.09375 431.960938 C 534.207031 431.960938 535.394531 432.410156 537.65625 433.3125 C 539.917969 434.214844 543.027344 435.117188 546.980469 436.019531 C 550.9375 436.917969 555.179688 437.371094 559.699219 437.371094 C 567.726562 437.371094 575.414062 435.792969 582.765625 432.636719 C 583.667969 432.1875 584.402344 431.960938 584.96875 431.960938 C 585.875 431.960938 586.324219 432.976562 586.324219 435.003906 L 586.324219 437.199219 C 577.054688 448.132812 565.46875 453.597656 551.5625 453.597656 C 548.054688 453.597656 544.890625 453.257812 542.066406 452.582031 L 540.367188 452.246094 L 540.367188 481.316406 C 542.515625 479.738281 544.210938 478.5 545.457031 477.597656 C 546.699219 476.695312 548.734375 475.792969 551.5625 474.894531 C 554.386719 473.992188 557.269531 473.542969 560.210938 473.542969 C 569.367188 473.542969 577.113281 477.203125 583.441406 484.527344 C 589.773438 491.851562 592.9375 500.527344 592.9375 510.558594 C 592.9375 520.925781 589.320312 529.769531 582.085938 537.09375 C 574.851562 544.417969 566.03125 548.136719 555.632812 548.25 C 546.472656 548.25 539.125 545.207031 533.585938 539.121094 C 528.046875 533.039062 525.277344 526.164062 525.277344 518.5 C 525.277344 515.796875 525.898438 513.65625 527.140625 512.078125 C 528.386719 510.5 529.683594 509.488281 531.042969 509.035156 C 532.398438 508.585938 533.699219 508.359375 534.941406 508.359375 C 537.769531 508.359375 540.085938 509.316406 541.894531 511.234375 C 543.703125 513.148438 544.609375 515.402344 544.609375 517.996094 Z M 544.609375 517.996094 " fill-opacity="1" fill-rule="nonzero"/></g><path fill="#000000" d="M 499.839844 391.394531 L 618.546875 391.394531 L 618.546875 381.253906 L 499.839844 381.253906 Z M 499.839844 391.394531 " fill-opacity="1" fill-rule="nonzero"/></svg>