<svg xmlns="http://www.w3.org/2000/svg" xmlns:xlink="http://www.w3.org/1999/xlink" width="1000" zoomAndPan="magnify" viewBox="0 0 750 749.999995" height="1000" preserveAspectRatio="xMidYMid meet" version="1.0"><defs><clipPath id="612929954e"><path d="M 158 201.75 L 227 201.75 L 227 319 L 158 319 Z M 158 201.75 " clip-rule="nonzero"/></clipPath><clipPath id="fda16fc10d"><path d="M 157 431 L 228 431 L 228 548.25 L 157 548.25 Z M 157 431 " clip-rule="nonzero"/></clipPath><clipPath id="699f46411b"><path d="M 523 201.75 L 595 201.75 L 595 319 L 523 319 Z M 523 201.75 " clip-rule="nonzero"/></clipPath><clipPath id="bf5a500fc1"><path d="M 525 431 L 593 431 L 593 548.25 L 525 548.25 Z M 525 431 " clip-rule="nonzero"/></clipPath></defs><rect x="-75" width="900" fill="#ffffff" y="-74.999999" height="899.999994" fill-opacity="1"/><rect x="-75" width="900" fill="#ffffff" y="-74.999999" height="899.999994" fill-opacity="1"/><g clip-path="url(#612929954e)"><path fill="#000000" d="M 177.902344 287.785156 C 177.902344 290.488281 177 292.742188 175.191406 294.542969 C 173.382812 296.347656 171.175781 297.25 168.578125 297.25 L 167.390625 297.25 C 172.589844 306.152344 179.488281 310.601562 188.078125 310.601562 C 195.992188 310.601562 201.757812 307.222656 205.375 300.460938 C 207.523438 296.742188 208.597656 289.53125 208.597656 278.824219 C 208.597656 267.21875 207.070312 259.386719 204.019531 255.332031 C 201.078125 251.613281 197.800781 249.753906 194.183594 249.753906 L 193.167969 249.753906 C 184.347656 249.753906 177.675781 253.585938 173.15625 261.246094 C 172.703125 262.035156 172.308594 262.484375 171.96875 262.597656 C 171.628906 262.710938 170.78125 262.824219 169.425781 262.9375 C 167.503906 262.9375 166.429688 262.597656 166.203125 261.921875 C 165.976562 261.472656 165.863281 251.613281 165.863281 232.34375 L 165.863281 210.539062 C 165.863281 204.90625 166.144531 202.089844 166.710938 202.089844 C 166.9375 201.863281 167.164062 201.75 167.390625 201.75 C 167.503906 201.75 168.691406 202.199219 170.949219 203.101562 C 173.210938 204.003906 176.320312 204.90625 180.277344 205.804688 C 184.234375 206.707031 188.472656 207.160156 192.996094 207.160156 C 201.023438 207.160156 208.710938 205.582031 216.058594 202.425781 C 216.964844 201.976562 217.699219 201.75 218.265625 201.75 C 219.167969 201.75 219.621094 202.765625 219.621094 204.792969 L 219.621094 206.988281 C 210.351562 217.921875 198.761719 223.386719 184.855469 223.386719 C 181.351562 223.386719 178.1875 223.046875 175.359375 222.371094 L 173.664062 222.03125 L 173.664062 251.105469 C 175.8125 249.527344 177.507812 248.289062 178.75 247.386719 C 179.996094 246.484375 182.03125 245.582031 184.855469 244.683594 C 187.683594 243.78125 190.566406 243.328125 193.503906 243.328125 C 202.664062 243.328125 210.40625 246.992188 216.738281 254.316406 C 223.070312 261.640625 226.234375 270.316406 226.234375 280.347656 C 226.234375 290.714844 222.617188 299.558594 215.382812 306.882812 C 208.144531 314.207031 199.328125 317.925781 188.925781 318.039062 C 179.769531 318.039062 172.421875 314.996094 166.878906 308.910156 C 161.339844 302.828125 158.570312 295.953125 158.570312 288.289062 C 158.570312 285.585938 159.191406 283.445312 160.4375 281.867188 C 161.679688 280.289062 162.980469 279.277344 164.335938 278.824219 C 165.695312 278.375 166.992188 278.148438 168.238281 278.148438 C 171.0625 278.148438 173.382812 279.105469 175.191406 281.023438 C 177 282.9375 177.902344 285.191406 177.902344 287.785156 Z M 177.902344 287.785156 " fill-opacity="1" fill-rule="nonzero"/></g><g clip-path="url(#fda16fc10d)"><path fill="#000000" d="M 161.964844 474.046875 C 161.964844 474.046875 161.964844 469.710938 161.964844 461.035156 C 161.964844 452.355469 165.015625 445.371094 171.121094 440.074219 C 177.226562 434.777344 184.234375 432.074219 192.148438 431.960938 C 200.175781 431.960938 207.296875 434.328125 213.515625 439.058594 C 219.734375 443.792969 222.84375 449.933594 222.84375 457.484375 C 222.84375 460.863281 222.222656 464.019531 220.976562 466.949219 C 219.734375 469.878906 218.265625 472.246094 216.570312 474.046875 C 214.871094 475.851562 213.121094 477.429688 211.3125 478.78125 C 209.503906 480.132812 208.03125 481.148438 206.902344 481.824219 C 205.773438 482.5 205.148438 482.949219 205.035156 483.175781 L 207.410156 484.695312 C 208.992188 485.824219 210.578125 486.949219 212.160156 488.078125 C 213.742188 489.203125 214.644531 489.824219 214.871094 489.9375 C 223.351562 496.585938 227.589844 504.980469 227.589844 515.121094 C 227.589844 524.023438 224.3125 531.742188 217.753906 538.277344 C 211.199219 544.8125 202.71875 548.136719 192.316406 548.25 C 182.144531 548.25 173.777344 545.375 167.21875 539.628906 C 160.664062 533.882812 157.382812 526.785156 157.382812 518.332031 C 157.382812 506.164062 164.675781 496.019531 179.261719 487.910156 L 176.207031 485.710938 C 173.832031 484.246094 172.308594 483.121094 171.628906 482.332031 C 165.183594 476.808594 161.964844 469.710938 161.964844 461.035156 Z M 198.59375 479.289062 L 199.609375 478.613281 C 200.289062 478.160156 200.796875 477.824219 201.136719 477.597656 C 201.476562 477.371094 202.039062 476.976562 202.832031 476.414062 C 203.625 475.851562 204.300781 475.289062 204.867188 474.722656 C 205.433594 474.160156 206.054688 473.484375 206.734375 472.695312 C 207.410156 471.90625 208.03125 471.175781 208.597656 470.5 C 209.164062 469.824219 209.730469 468.921875 210.292969 467.792969 C 210.859375 466.667969 211.367188 465.710938 211.820312 464.921875 C 212.273438 464.132812 212.554688 463.003906 212.667969 461.539062 C 212.78125 460.074219 212.894531 458.835938 213.007812 457.820312 C 213.007812 452.976562 211.367188 448.863281 208.089844 445.484375 C 204.8125 442.101562 201.023438 439.960938 196.726562 439.058594 C 195.9375 438.949219 194.070312 438.890625 191.132812 438.890625 C 186.496094 438.890625 182.144531 440.355469 178.074219 443.285156 C 174.003906 446.214844 171.910156 449.878906 171.796875 454.273438 C 171.796875 456.863281 172.535156 459.230469 174.003906 461.371094 C 175.472656 463.511719 176.941406 465.144531 178.414062 466.273438 C 179.882812 467.398438 182.707031 469.203125 186.890625 471.683594 C 187.683594 472.246094 188.304688 472.640625 188.757812 472.863281 Z M 192.488281 540.980469 C 199.042969 540.980469 204.699219 539.066406 209.445312 535.234375 C 214.195312 531.402344 216.570312 526.785156 216.570312 521.375 C 216.570312 519.460938 216.285156 517.65625 215.71875 515.964844 C 215.15625 514.277344 214.476562 512.867188 213.683594 511.742188 C 212.894531 510.613281 211.652344 509.375 209.953125 508.023438 C 208.257812 506.671875 206.957031 505.65625 206.054688 504.980469 C 205.148438 504.304688 203.511719 503.234375 201.136719 501.769531 C 198.761719 500.304688 197.234375 499.34375 196.558594 498.894531 C 194.976562 497.878906 193.277344 496.808594 191.46875 495.683594 C 189.660156 494.554688 188.191406 493.597656 187.0625 492.808594 L 185.703125 491.964844 C 185.027344 491.964844 183.386719 492.921875 180.785156 494.839844 C 178.1875 496.753906 175.472656 499.851562 172.648438 504.132812 C 169.820312 508.417969 168.351562 513.035156 168.238281 517.996094 C 168.238281 524.644531 170.667969 530.109375 175.53125 534.390625 C 180.390625 538.671875 186.042969 540.871094 192.488281 540.980469 Z M 192.488281 540.980469 " fill-opacity="1" fill-rule="nonzero"/></g><path fill="#000000" d="M 133.132812 391.394531 L 251.839844 391.394531 L 251.839844 381.253906 L 133.132812 381.253906 Z M 133.132812 391.394531 " fill-opacity="1" fill-rule="nonzero"/><path fill="#000000" d="M 416.710938 423.679688 C 416.710938 425.933594 415.523438 427.058594 413.148438 427.058594 C 412.582031 427.058594 411.339844 426.15625 409.417969 424.355469 C 407.496094 422.550781 402.183594 417.3125 393.476562 408.636719 L 375.839844 391.058594 L 358.035156 408.804688 C 346.050781 420.523438 339.886719 426.496094 339.550781 426.722656 C 339.097656 426.945312 338.703125 427.058594 338.363281 427.058594 C 337.457031 427.058594 336.667969 426.722656 335.988281 426.046875 C 335.308594 425.371094 334.914062 424.582031 334.800781 423.679688 C 334.800781 422.890625 335.59375 421.652344 337.175781 419.960938 C 338.757812 418.269531 344.070312 412.917969 353.117188 403.902344 L 370.753906 386.324219 L 353.117188 368.746094 C 343.957031 359.617188 338.644531 354.265625 337.175781 352.6875 C 335.707031 351.109375 334.914062 349.871094 334.800781 348.96875 C 334.800781 347.957031 335.140625 347.167969 335.820312 346.605469 C 336.496094 346.039062 337.34375 345.757812 338.363281 345.757812 C 338.925781 345.757812 339.324219 345.816406 339.550781 345.929688 C 339.886719 346.152344 346.050781 352.125 358.035156 363.84375 L 375.839844 381.59375 L 393.476562 364.011719 C 402.183594 355.335938 407.496094 350.097656 409.417969 348.292969 C 411.339844 346.492188 412.582031 345.589844 413.148438 345.589844 C 415.523438 345.589844 416.710938 346.714844 416.710938 348.96875 C 416.710938 349.757812 416.144531 350.773438 415.011719 352.011719 C 413.882812 353.253906 408.34375 358.773438 398.394531 368.578125 L 380.757812 386.324219 L 398.394531 404.070312 C 407.890625 413.539062 413.316406 419.003906 414.675781 420.46875 C 416.03125 421.933594 416.710938 423.003906 416.710938 423.679688 Z M 416.710938 423.679688 " fill-opacity="1" fill-rule="nonzero"/><g clip-path="url(#699f46411b)"><path fill="#000000" d="M 523.917969 261.414062 C 523.917969 243.046875 528.496094 228.511719 537.65625 217.808594 C 546.8125 207.101562 556.988281 201.75 568.179688 201.75 C 575.980469 201.75 581.578125 203.777344 584.96875 207.835938 C 588.359375 211.890625 590.054688 216.398438 590.054688 221.355469 C 590.054688 224.175781 589.265625 226.425781 587.683594 228.117188 C 586.097656 229.808594 583.894531 230.652344 581.070312 230.652344 C 578.46875 230.652344 576.320312 229.863281 574.625 228.285156 C 572.929688 226.710938 572.082031 224.511719 572.082031 221.695312 C 572.082031 216.738281 574.738281 213.75 580.050781 212.738281 C 577.5625 210.257812 574.058594 208.847656 569.535156 208.511719 C 561.511719 208.511719 554.894531 211.890625 549.695312 218.652344 C 544.382812 226.089844 541.726562 237.46875 541.726562 252.796875 L 541.894531 253.472656 C 542.460938 252.796875 542.914062 252.0625 543.25 251.273438 C 547.886719 244.511719 553.933594 241.132812 561.398438 241.132812 L 562.074219 241.132812 C 567.277344 241.132812 571.855469 242.203125 575.8125 244.34375 C 578.523438 245.921875 581.238281 248.175781 583.953125 251.105469 C 586.664062 254.035156 588.871094 257.246094 590.566406 260.738281 C 592.9375 266.261719 594.125 272.289062 594.125 278.824219 L 594.125 281.867188 C 594.125 284.460938 593.84375 286.882812 593.277344 289.136719 C 592.035156 295.785156 588.417969 302.261719 582.425781 308.574219 C 576.433594 314.882812 568.859375 318.039062 559.699219 318.039062 C 556.535156 318.039062 553.484375 317.589844 550.542969 316.6875 C 547.605469 315.785156 544.4375 314.09375 541.046875 311.617188 C 537.65625 309.136719 534.773438 305.8125 532.398438 301.644531 C 530.023438 297.472656 527.988281 292.007812 526.292969 285.25 C 524.597656 278.488281 523.804688 270.542969 523.917969 261.414062 Z M 560.378906 247.21875 C 556.988281 247.21875 554.046875 248.175781 551.5625 250.089844 C 549.074219 252.007812 547.152344 254.542969 545.796875 257.695312 C 544.4375 260.851562 543.476562 264.0625 542.914062 267.332031 C 542.347656 270.597656 542.007812 274.09375 541.894531 277.8125 C 541.894531 287.164062 542.574219 293.867188 543.929688 297.925781 C 545.285156 301.980469 547.433594 305.25 550.375 307.726562 C 553.085938 309.757812 556.082031 310.769531 559.363281 310.769531 C 565.128906 310.769531 569.535156 308.628906 572.589844 304.347656 C 574.058594 302.320312 575.078125 299.785156 575.640625 296.742188 C 576.207031 293.699219 576.488281 287.785156 576.488281 278.996094 C 576.488281 269.980469 576.207031 263.949219 575.640625 260.910156 C 575.078125 257.867188 574.058594 255.332031 572.589844 253.300781 C 569.535156 249.246094 565.46875 247.21875 560.378906 247.21875 Z M 560.378906 247.21875 " fill-opacity="1" fill-rule="nonzero"/></g><g clip-path="url(#bf5a500fc1)"><path fill="#000000" d="M 544.609375 517.996094 C 544.609375 520.699219 543.703125 522.953125 541.894531 524.753906 C 540.085938 526.558594 537.882812 527.460938 535.28125 527.460938 L 534.09375 527.460938 C 539.292969 536.363281 546.191406 540.8125 554.78125 540.8125 C 562.695312 540.8125 568.460938 537.433594 572.082031 530.671875 C 574.230469 526.953125 575.300781 519.742188 575.300781 509.035156 C 575.300781 497.429688 573.777344 489.597656 570.722656 485.542969 C 567.785156 481.824219 564.507812 479.964844 560.886719 479.964844 L 559.871094 479.964844 C 551.050781 479.964844 544.382812 483.796875 539.859375 491.457031 C 539.40625 492.246094 539.011719 492.699219 538.671875 492.808594 C 538.332031 492.921875 537.484375 493.035156 536.128906 493.148438 C 534.207031 493.148438 533.132812 492.808594 532.90625 492.132812 C 532.679688 491.683594 532.566406 481.824219 532.566406 462.554688 L 532.566406 440.75 C 532.566406 435.117188 532.851562 432.300781 533.414062 432.300781 C 533.640625 432.074219 533.867188 431.960938 534.09375 431.960938 C 534.207031 431.960938 535.394531 432.410156 537.65625 433.3125 C 539.917969 434.214844 543.027344 435.117188 546.980469 436.019531 C 550.9375 436.917969 555.179688 437.371094 559.699219 437.371094 C 567.726562 437.371094 575.414062 435.792969 582.765625 432.636719 C 583.667969 432.1875 584.402344 431.960938 584.96875 431.960938 C 585.875 431.960938 586.324219 432.976562 586.324219 435.003906 L 586.324219 437.199219 C 577.054688 448.132812 565.46875 453.597656 551.5625 453.597656 C 548.054688 453.597656 544.890625 453.257812 542.066406 452.582031 L 540.367188 452.246094 L 540.367188 481.316406 C 542.515625 479.738281 544.210938 478.5 545.457031 477.597656 C 546.699219 476.695312 548.734375 475.792969 551.5625 474.894531 C 554.386719 473.992188 557.269531 473.542969 560.210938 473.542969 C 569.367188 473.542969 577.113281 477.203125 583.441406 484.527344 C 589.773438 491.851562 592.9375 500.527344 592.9375 510.558594 C 592.9375 520.925781 589.320312 529.769531 582.085938 537.09375 C 574.851562 544.417969 566.03125 548.136719 555.632812 548.25 C 546.472656 548.25 539.125 545.207031 533.585938 539.121094 C 528.046875 533.039062 525.277344 526.164062 525.277344 518.5 C 525.277344 515.796875 525.898438 513.65625 527.140625 512.078125 C 528.386719 510.5 529.683594 509.488281 531.042969 509.035156 C 532.398438 508.585938 533.699219 508.359375 534.941406 508.359375 C 537.769531 508.359375 540.085938 509.316406 541.894531 511.234375 C 543.703125 513.148438 544.609375 515.402344 544.609375 517.996094 Z M 544.609375 517.996094 " fill-opacity="1" fill-rule="nonzero"/></g><path fill="#000000" d="M 499.839844 391.394531 L 618.546875 391.394531 L 618.546875 381.253906 L 499.839844 381.253906 Z M 499.839844 391.394531 " fill-opacity="1" fill-rule="nonzero"/></svg>