<svg xmlns="http://www.w3.org/2000/svg" xmlns:xlink="http://www.w3.org/1999/xlink" width="1000" zoomAndPan="magnify" viewBox="0 0 750 749.999995" height="1000" preserveAspectRatio="xMidYMid meet" version="1.0"><defs><clipPath id="d78248d84e"><path d="M 161 204.308594 L 229 204.308594 L 229 319 L 161 319 Z M 161 204.308594 " clip-rule="nonzero"/></clipPath><clipPath id="5a85d2b52f"><path d="M 562 204.308594 L 632 204.308594 L 632 319 L 562 319 Z M 562 204.308594 " clip-rule="nonzero"/></clipPath><clipPath id="a840daf987"><path d="M 564 431 L 631 431 L 631 545.691406 L 564 545.691406 Z M 564 431 " clip-rule="nonzero"/></clipPath></defs><rect x="-75" width="900" fill="#ffffff" y="-74.999999" height="899.999994" fill-opacity="1"/><rect x="-75" width="900" fill="#ffffff" y="-74.999999" height="899.999994" fill-opacity="1"/><g clip-path="url(#d78248d84e)"><path fill="#000000" d="M 180.765625 289.074219 C 180.765625 291.738281 179.878906 293.957031 178.097656 295.734375 C 176.320312 297.507812 174.152344 298.398438 171.59375 298.398438 L 170.429688 298.398438 C 175.542969 307.167969 182.324219 311.554688 190.773438 311.554688 C 198.554688 311.554688 204.226562 308.222656 207.785156 301.5625 C 209.894531 297.898438 210.953125 290.792969 210.953125 280.246094 C 210.953125 268.8125 209.449219 261.097656 206.449219 257.097656 C 203.558594 253.4375 200.335938 251.605469 196.777344 251.605469 L 195.777344 251.605469 C 187.105469 251.605469 180.546875 255.378906 176.097656 262.925781 C 175.652344 263.703125 175.265625 264.148438 174.929688 264.261719 C 174.597656 264.371094 173.761719 264.480469 172.429688 264.59375 C 170.539062 264.59375 169.484375 264.261719 169.261719 263.59375 C 169.039062 263.148438 168.925781 253.4375 168.925781 234.453125 L 168.925781 212.96875 C 168.925781 207.417969 169.207031 204.644531 169.761719 204.644531 C 169.984375 204.421875 170.207031 204.308594 170.429688 204.308594 C 170.539062 204.308594 171.707031 204.753906 173.929688 205.640625 C 176.152344 206.53125 179.210938 207.417969 183.101562 208.308594 C 186.992188 209.195312 191.164062 209.640625 195.609375 209.640625 C 203.503906 209.640625 211.0625 208.085938 218.289062 204.976562 C 219.179688 204.53125 219.902344 204.308594 220.457031 204.308594 C 221.347656 204.308594 221.792969 205.308594 221.792969 207.308594 L 221.792969 209.472656 C 212.675781 220.242188 201.28125 225.625 187.605469 225.625 C 184.160156 225.625 181.046875 225.292969 178.265625 224.625 L 176.597656 224.292969 L 176.597656 252.9375 C 178.710938 251.382812 180.378906 250.160156 181.601562 249.273438 C 182.824219 248.382812 184.824219 247.496094 187.605469 246.609375 C 190.382812 245.71875 193.21875 245.277344 196.109375 245.277344 C 205.113281 245.277344 212.730469 248.882812 218.957031 256.101562 C 225.183594 263.316406 228.296875 271.863281 228.296875 281.746094 C 228.296875 291.957031 224.738281 300.671875 217.621094 307.890625 C 210.507812 315.105469 201.835938 318.769531 191.605469 318.878906 C 182.601562 318.878906 175.375 315.882812 169.929688 309.886719 C 164.480469 303.894531 161.757812 297.121094 161.757812 289.570312 C 161.757812 286.90625 162.367188 284.796875 163.589844 283.242188 C 164.8125 281.691406 166.09375 280.691406 167.425781 280.246094 C 168.761719 279.800781 170.039062 279.582031 171.261719 279.582031 C 174.042969 279.582031 176.320312 280.523438 178.097656 282.410156 C 179.878906 284.296875 180.765625 286.519531 180.765625 289.074219 Z M 180.765625 289.074219 " fill-opacity="1" fill-rule="nonzero"/></g><path fill="#000000" d="M 147.25 445.773438 L 145.082031 446.605469 C 143.523438 447.160156 141.300781 447.714844 138.410156 448.273438 C 135.519531 448.828125 132.296875 449.214844 128.738281 449.4375 L 125.570312 449.4375 L 125.570312 441.777344 L 128.738281 441.777344 C 133.960938 441.554688 138.796875 440.722656 143.246094 439.277344 C 147.691406 437.835938 150.804688 436.503906 152.585938 435.28125 C 154.363281 434.0625 155.917969 432.839844 157.253906 431.617188 C 157.476562 431.285156 158.144531 431.121094 159.253906 431.121094 C 160.253906 431.121094 161.199219 431.453125 162.089844 432.117188 L 162.089844 481.910156 L 162.257812 531.867188 C 163.035156 532.644531 163.703125 533.144531 164.257812 533.367188 C 164.8125 533.589844 166.148438 533.8125 168.261719 534.03125 C 170.371094 534.253906 173.820312 534.367188 178.601562 534.367188 L 182.933594 534.367188 L 182.933594 542.027344 L 181.101562 542.027344 C 178.765625 541.691406 169.929688 541.527344 154.585938 541.527344 C 139.464844 541.527344 130.738281 541.691406 128.402344 542.027344 L 126.402344 542.027344 L 126.402344 534.367188 L 130.738281 534.367188 C 133.183594 534.367188 135.296875 534.367188 137.074219 534.367188 C 138.855469 534.367188 140.242188 534.308594 141.246094 534.199219 C 142.246094 534.089844 143.132812 533.921875 143.914062 533.699219 C 144.691406 533.476562 145.136719 533.367188 145.246094 533.367188 C 145.359375 533.367188 145.691406 533.089844 146.246094 532.535156 C 146.804688 531.980469 147.136719 531.757812 147.25 531.867188 Z M 147.25 445.773438 " fill-opacity="1" fill-rule="nonzero"/><path fill="#000000" d="M 213.285156 470.585938 C 210.285156 470.585938 207.894531 469.585938 206.117188 467.589844 C 204.335938 465.589844 203.449219 463.148438 203.449219 460.261719 C 203.449219 452.378906 206.394531 445.550781 212.285156 439.777344 C 218.179688 434.007812 225.515625 431.121094 234.296875 431.121094 C 244.414062 431.121094 252.863281 434.226562 259.648438 440.445312 C 266.429688 446.660156 269.875 454.710938 269.984375 464.589844 C 269.984375 469.363281 268.875 473.917969 266.652344 478.246094 C 264.425781 482.574219 261.757812 486.351562 258.644531 489.570312 C 255.53125 492.789062 251.085938 496.898438 245.304688 501.894531 C 241.300781 505.335938 235.742188 510.441406 228.628906 517.214844 L 218.789062 526.539062 L 231.464844 526.707031 C 248.917969 526.707031 258.203125 526.429688 259.3125 525.871094 C 260.089844 525.652344 261.425781 520.710938 263.316406 511.050781 L 263.316406 510.550781 L 269.984375 510.550781 L 269.984375 511.050781 C 269.875 511.386719 269.152344 516.4375 267.816406 526.207031 C 266.484375 535.976562 265.648438 541.082031 265.316406 541.527344 L 265.316406 542.027344 L 203.449219 542.027344 L 203.449219 536.863281 C 203.449219 536.085938 203.78125 535.253906 204.449219 534.367188 C 205.113281 533.476562 206.78125 531.535156 209.449219 528.539062 C 212.675781 524.984375 215.453125 521.875 217.789062 519.210938 C 218.789062 518.101562 220.679688 516.046875 223.460938 513.050781 C 226.238281 510.054688 228.128906 508 229.128906 506.890625 C 230.128906 505.777344 231.742188 503.945312 233.964844 501.394531 C 236.1875 498.839844 237.746094 496.953125 238.632812 495.730469 C 239.523438 494.511719 240.800781 492.84375 242.46875 490.734375 C 244.136719 488.625 245.304688 486.851562 245.972656 485.40625 C 246.640625 483.964844 247.472656 482.355469 248.472656 480.578125 C 249.472656 478.800781 250.195312 477.023438 250.640625 475.25 C 251.085938 473.472656 251.476562 471.808594 251.808594 470.253906 C 252.140625 468.699219 252.308594 466.867188 252.308594 464.757812 C 252.308594 457.761719 250.417969 451.714844 246.640625 446.605469 C 242.859375 441.5 237.46875 438.945312 230.464844 438.945312 C 226.792969 438.945312 223.570312 439.890625 220.789062 441.777344 C 218.011719 443.664062 216.066406 445.496094 214.953125 447.273438 C 213.84375 449.046875 213.285156 450.101562 213.285156 450.4375 C 213.285156 450.546875 213.5625 450.601562 214.121094 450.601562 C 216.121094 450.601562 218.179688 451.378906 220.289062 452.933594 C 222.402344 454.488281 223.460938 457.042969 223.460938 460.59375 C 223.460938 463.371094 222.570312 465.703125 220.789062 467.589844 C 219.011719 469.476562 216.511719 470.476562 213.285156 470.585938 Z M 213.285156 470.585938 " fill-opacity="1" fill-rule="nonzero"/><path fill="#000000" d="M 95.050781 391.152344 L 295.167969 391.152344 L 295.167969 381.160156 L 95.050781 381.160156 Z M 95.050781 391.152344 " fill-opacity="1" fill-rule="nonzero"/><path fill="#000000" d="M 457.292969 422.960938 C 457.292969 425.179688 456.128906 426.289062 453.792969 426.289062 C 453.238281 426.289062 452.015625 425.402344 450.125 423.625 C 448.234375 421.847656 443.007812 416.6875 434.449219 408.140625 L 417.105469 390.820312 L 399.59375 408.304688 C 387.808594 419.851562 381.75 425.734375 381.417969 425.957031 C 380.972656 426.179688 380.582031 426.289062 380.25 426.289062 C 379.359375 426.289062 378.582031 425.957031 377.914062 425.289062 C 377.25 424.625 376.859375 423.847656 376.746094 422.960938 C 376.746094 422.183594 377.527344 420.960938 379.082031 419.296875 C 380.640625 417.628906 385.863281 412.359375 394.757812 403.476562 L 412.101562 386.15625 L 394.757812 368.839844 C 385.753906 359.847656 380.527344 354.574219 379.082031 353.019531 C 377.636719 351.464844 376.859375 350.242188 376.746094 349.355469 C 376.746094 348.355469 377.082031 347.578125 377.75 347.023438 C 378.414062 346.46875 379.25 346.191406 380.25 346.191406 C 380.804688 346.191406 381.195312 346.246094 381.417969 346.359375 C 381.75 346.578125 387.808594 352.464844 399.59375 364.007812 L 417.105469 381.496094 L 434.449219 364.175781 C 443.007812 355.628906 448.234375 350.464844 450.125 348.6875 C 452.015625 346.914062 453.238281 346.023438 453.792969 346.023438 C 456.128906 346.023438 457.292969 347.132812 457.292969 349.355469 C 457.292969 350.132812 456.738281 351.132812 455.625 352.351562 C 454.515625 353.574219 449.066406 359.011719 439.285156 368.671875 L 421.941406 386.15625 L 439.285156 403.640625 C 448.621094 412.96875 453.960938 418.351562 455.292969 419.796875 C 456.628906 421.238281 457.292969 422.292969 457.292969 422.960938 Z M 457.292969 422.960938 " fill-opacity="1" fill-rule="nonzero"/><g clip-path="url(#5a85d2b52f)"><path fill="#000000" d="M 614.417969 267.425781 C 609.082031 275.859375 602.410156 280.078125 594.40625 280.078125 C 585.734375 280.078125 578.621094 276.804688 573.0625 270.253906 C 567.503906 263.703125 564.167969 256.710938 563.054688 249.273438 C 562.832031 247.496094 562.722656 245.277344 562.722656 242.613281 L 562.722656 241.277344 C 562.722656 230.953125 566.558594 221.960938 574.230469 214.300781 C 580.898438 207.640625 588.238281 204.308594 596.242188 204.308594 C 596.464844 204.308594 596.796875 204.308594 597.242188 204.308594 C 597.6875 204.308594 598.132812 204.367188 598.578125 204.476562 L 599.242188 204.476562 C 600.578125 204.476562 601.96875 204.589844 603.414062 204.808594 C 604.859375 205.03125 606.914062 205.699219 609.582031 206.808594 C 612.25 207.917969 614.863281 209.695312 617.421875 212.136719 C 619.976562 214.578125 622.367188 217.855469 624.589844 221.960938 C 629.371094 231.730469 631.761719 244.277344 631.761719 259.597656 C 631.761719 275.140625 628.425781 288.296875 621.757812 299.0625 C 617.867188 305.28125 613.195312 310.109375 607.75 313.550781 C 602.300781 316.992188 596.519531 318.769531 590.40625 318.878906 C 583.625 318.878906 578.066406 317.269531 573.730469 314.050781 C 569.394531 310.832031 567.167969 306.058594 567.058594 299.730469 C 566.945312 293.402344 569.894531 290.292969 575.898438 290.40625 C 578.34375 290.40625 580.398438 291.183594 582.066406 292.734375 C 583.734375 294.289062 584.570312 296.453125 584.570312 299.230469 C 584.570312 301.230469 584.066406 302.949219 583.066406 304.394531 C 582.066406 305.835938 581.175781 306.722656 580.398438 307.058594 C 579.621094 307.390625 578.898438 307.667969 578.230469 307.890625 L 577.5625 308.054688 C 577.5625 308.277344 577.953125 308.613281 578.730469 309.054688 C 579.511719 309.5 580.957031 310.054688 583.066406 310.722656 C 585.179688 311.386719 587.515625 311.664062 590.070312 311.554688 L 591.070312 311.554688 C 597.742188 311.554688 603.355469 308 607.914062 300.894531 C 612.25 294.679688 614.417969 283.910156 614.417969 268.589844 Z M 596.410156 273.917969 C 601.746094 273.917969 606.023438 271.199219 609.25 265.757812 C 612.472656 260.320312 614.140625 252.9375 614.253906 243.609375 C 614.253906 234.953125 613.808594 228.734375 612.917969 224.960938 C 612.695312 223.847656 612.363281 222.738281 611.917969 221.628906 C 611.472656 220.519531 610.695312 219.074219 609.582031 217.300781 C 608.472656 215.523438 606.804688 214.023438 604.578125 212.804688 C 602.355469 211.582031 599.742188 211.027344 596.742188 211.136719 C 592.515625 211.136719 588.902344 212.636719 585.902344 215.632812 C 583.566406 218.078125 582.066406 220.964844 581.398438 224.292969 C 580.734375 227.625 580.34375 233.453125 580.234375 241.777344 C 580.234375 250.992188 580.511719 257.210938 581.066406 260.429688 C 581.621094 263.648438 582.734375 266.257812 584.402344 268.257812 C 587.179688 272.03125 591.183594 273.917969 596.410156 273.917969 Z M 596.410156 273.917969 " fill-opacity="1" fill-rule="nonzero"/></g><g clip-path="url(#a840daf987)"><path fill="#000000" d="M 583.066406 515.882812 C 583.066406 518.546875 582.179688 520.765625 580.398438 522.542969 C 578.621094 524.320312 576.453125 525.207031 573.894531 525.207031 L 572.726562 525.207031 C 577.84375 533.976562 584.625 538.363281 593.074219 538.363281 C 600.855469 538.363281 606.527344 535.03125 610.082031 528.371094 C 612.195312 524.707031 613.25 517.601562 613.25 507.054688 C 613.25 495.621094 611.75 487.90625 608.75 483.910156 C 605.859375 480.246094 602.632812 478.414062 599.078125 478.414062 L 598.078125 478.414062 C 589.40625 478.414062 582.84375 482.1875 578.398438 489.738281 C 577.953125 490.515625 577.5625 490.957031 577.230469 491.070312 C 576.898438 491.179688 576.0625 491.289062 574.730469 491.402344 C 572.839844 491.402344 571.785156 491.070312 571.5625 490.402344 C 571.339844 489.957031 571.226562 480.246094 571.226562 461.261719 L 571.226562 439.777344 C 571.226562 434.226562 571.503906 431.453125 572.0625 431.453125 C 572.285156 431.230469 572.503906 431.121094 572.726562 431.121094 C 572.839844 431.121094 574.007812 431.5625 576.230469 432.453125 C 578.453125 433.339844 581.511719 434.226562 585.402344 435.117188 C 589.292969 436.003906 593.460938 436.449219 597.910156 436.449219 C 605.804688 436.449219 613.363281 434.894531 620.589844 431.785156 C 621.480469 431.339844 622.203125 431.121094 622.757812 431.121094 C 623.648438 431.121094 624.089844 432.117188 624.089844 434.117188 L 624.089844 436.28125 C 614.976562 447.050781 603.578125 452.433594 589.90625 452.433594 C 586.457031 452.433594 583.34375 452.101562 580.566406 451.4375 L 578.898438 451.101562 L 578.898438 479.746094 C 581.011719 478.191406 582.679688 476.96875 583.902344 476.082031 C 585.125 475.195312 587.125 474.304688 589.90625 473.417969 C 592.683594 472.527344 595.519531 472.085938 598.410156 472.085938 C 607.414062 472.085938 615.03125 475.691406 621.257812 482.910156 C 627.480469 490.125 630.59375 498.671875 630.59375 508.554688 C 630.59375 518.769531 627.039062 527.484375 619.921875 534.699219 C 612.808594 541.914062 604.136719 545.578125 593.90625 545.691406 C 584.902344 545.691406 577.675781 542.691406 572.226562 536.695312 C 566.78125 530.703125 564.054688 523.929688 564.054688 516.382812 C 564.054688 513.714844 564.667969 511.605469 565.890625 510.054688 C 567.113281 508.5 568.390625 507.5 569.726562 507.054688 C 571.0625 506.613281 572.339844 506.390625 573.5625 506.390625 C 576.339844 506.390625 578.621094 507.332031 580.398438 509.21875 C 582.179688 511.109375 583.066406 513.328125 583.066406 515.882812 Z M 583.066406 515.882812 " fill-opacity="1" fill-rule="nonzero"/></g><path fill="#000000" d="M 539.042969 391.152344 L 655.777344 391.152344 L 655.777344 381.160156 L 539.042969 381.160156 Z M 539.042969 391.152344 " fill-opacity="1" fill-rule="nonzero"/></svg>