<svg xmlns="http://www.w3.org/2000/svg" xmlns:xlink="http://www.w3.org/1999/xlink" width="1000" zoomAndPan="magnify" viewBox="0 0 750 749.999995" height="1000" preserveAspectRatio="xMidYMid meet" version="1.0"><defs><clipPath id="09e6665633"><path d="M 156 201.75 L 231 201.75 L 231 316 L 156 316 Z M 156 201.75 " clip-rule="nonzero"/></clipPath><clipPath id="d1904d77be"><path d="M 158 432 L 229 432 L 229 548.25 L 158 548.25 Z M 158 432 " clip-rule="nonzero"/></clipPath></defs><rect x="-75" width="900" fill="#ffffff" y="-74.999999" height="899.999994" fill-opacity="1"/><rect x="-75" width="900" fill="#ffffff" y="-74.999999" height="899.999994" fill-opacity="1"/><g clip-path="url(#09e6665633)"><path fill="#000000" d="M 229.226562 315.570312 C 227.203125 315.234375 219.949219 315.0625 207.464844 315.0625 C 194.421875 315.0625 186.886719 315.234375 184.863281 315.570312 L 183.34375 315.570312 L 183.34375 307.835938 L 188.574219 307.835938 C 190.824219 307.835938 192.339844 307.835938 193.128906 307.835938 C 193.917969 307.835938 194.871094 307.722656 195.996094 307.5 C 197.121094 307.273438 197.90625 306.996094 198.359375 306.660156 C 198.808594 306.320312 199.203125 305.875 199.539062 305.3125 C 199.652344 305.089844 199.707031 302.0625 199.707031 296.234375 L 199.707031 287.828125 L 156.019531 287.828125 L 156.019531 280.09375 L 181.488281 241.257812 C 198.695312 215.253906 207.410156 202.199219 207.636719 202.085938 C 207.859375 201.863281 209.039062 201.75 211.175781 201.75 L 214.214844 201.75 L 215.226562 202.757812 L 215.226562 280.09375 L 230.742188 280.09375 L 230.742188 287.828125 L 215.226562 287.828125 L 215.226562 296.402344 C 215.226562 301 215.226562 303.6875 215.226562 304.472656 C 215.226562 305.257812 215.5625 305.929688 216.238281 306.488281 C 217.136719 307.273438 220.34375 307.722656 225.851562 307.835938 L 230.742188 307.835938 L 230.742188 315.570312 Z M 200.71875 280.09375 L 200.71875 223.941406 L 163.777344 279.925781 L 182.164062 280.09375 Z M 200.71875 280.09375 " fill-opacity="1" fill-rule="nonzero"/></g><g clip-path="url(#d1904d77be)"><path fill="#000000" d="M 163.105469 474.445312 C 163.105469 474.445312 163.105469 470.128906 163.105469 461.5 C 163.105469 452.867188 166.140625 445.917969 172.214844 440.652344 C 178.285156 435.382812 185.257812 432.695312 193.128906 432.582031 C 201.113281 432.582031 208.199219 434.9375 214.382812 439.644531 C 220.566406 444.351562 223.660156 450.457031 223.660156 457.96875 C 223.660156 461.332031 223.042969 464.46875 221.804688 467.382812 C 220.566406 470.296875 219.105469 472.652344 217.417969 474.445312 C 215.730469 476.238281 213.988281 477.808594 212.191406 479.152344 C 210.390625 480.496094 208.929688 481.503906 207.804688 482.179688 C 206.679688 482.851562 206.0625 483.296875 205.949219 483.523438 L 208.308594 485.035156 C 209.882812 486.15625 211.457031 487.277344 213.03125 488.398438 C 214.605469 489.519531 215.507812 490.136719 215.730469 490.246094 C 224.164062 496.859375 228.382812 505.210938 228.382812 515.296875 C 228.382812 524.152344 225.121094 531.828125 218.597656 538.332031 C 212.078125 544.832031 203.644531 548.136719 193.296875 548.25 C 183.175781 548.25 174.855469 545.390625 168.332031 539.675781 C 161.8125 533.960938 158.550781 526.898438 158.550781 518.492188 C 158.550781 506.386719 165.804688 496.300781 180.308594 488.230469 L 177.273438 486.042969 C 174.910156 484.585938 173.394531 483.46875 172.71875 482.683594 C 166.308594 477.191406 163.105469 470.128906 163.105469 461.5 Z M 199.539062 479.65625 L 200.550781 478.984375 C 201.226562 478.535156 201.730469 478.199219 202.070312 477.976562 C 202.40625 477.75 202.96875 477.359375 203.753906 476.796875 C 204.542969 476.238281 205.21875 475.675781 205.78125 475.117188 C 206.34375 474.554688 206.960938 473.882812 207.636719 473.097656 C 208.308594 472.316406 208.929688 471.585938 209.492188 470.914062 C 210.054688 470.242188 210.613281 469.34375 211.175781 468.222656 C 211.738281 467.101562 212.246094 466.148438 212.695312 465.367188 C 213.144531 464.582031 213.425781 463.460938 213.539062 462.003906 C 213.652344 460.546875 213.765625 459.3125 213.875 458.304688 C 213.875 453.484375 212.246094 449.394531 208.984375 446.03125 C 205.722656 442.667969 201.957031 440.539062 197.683594 439.644531 C 196.894531 439.53125 195.039062 439.476562 192.117188 439.476562 C 187.507812 439.476562 183.175781 440.933594 179.128906 443.847656 C 175.082031 446.761719 173 450.402344 172.886719 454.773438 C 172.886719 457.351562 173.617188 459.707031 175.082031 461.835938 C 176.542969 463.964844 178.003906 465.589844 179.464844 466.710938 C 180.929688 467.832031 183.738281 469.625 187.898438 472.089844 C 188.6875 472.652344 189.304688 473.042969 189.753906 473.265625 Z M 193.464844 541.019531 C 199.988281 541.019531 205.609375 539.117188 210.335938 535.304688 C 215.058594 531.492188 217.417969 526.898438 217.417969 521.519531 C 217.417969 519.613281 217.136719 517.820312 216.574219 516.136719 C 216.011719 514.457031 215.339844 513.054688 214.550781 511.9375 C 213.765625 510.816406 212.527344 509.582031 210.839844 508.238281 C 209.152344 506.890625 207.859375 505.882812 206.960938 505.210938 C 206.0625 504.539062 204.429688 503.472656 202.070312 502.015625 C 199.707031 500.558594 198.1875 499.605469 197.515625 499.160156 C 195.941406 498.148438 194.253906 497.085938 192.453125 495.964844 C 190.65625 494.84375 189.191406 493.890625 188.070312 493.105469 L 186.71875 492.265625 C 186.042969 492.265625 184.414062 493.21875 181.828125 495.125 C 179.242188 497.027344 176.542969 500.109375 173.730469 504.371094 C 170.917969 508.628906 169.457031 513.222656 169.34375 518.15625 C 169.34375 524.769531 171.761719 530.203125 176.597656 534.464844 C 181.433594 538.722656 187.054688 540.910156 193.464844 541.019531 Z M 193.464844 541.019531 " fill-opacity="1" fill-rule="nonzero"/></g><path fill="#000000" d="M 134.429688 392.234375 L 252.503906 392.234375 L 252.503906 382.144531 L 134.429688 382.144531 Z M 134.429688 392.234375 " fill-opacity="1" fill-rule="nonzero"/><path fill="#000000" d="M 416.492188 424.34375 C 416.492188 426.585938 415.308594 427.707031 412.949219 427.707031 C 412.386719 427.707031 411.148438 426.808594 409.238281 425.015625 C 407.328125 423.222656 402.042969 418.011719 393.382812 409.382812 L 375.839844 391.894531 L 358.128906 409.550781 C 346.210938 421.207031 340.082031 427.144531 339.742188 427.371094 C 339.292969 427.59375 338.898438 427.707031 338.5625 427.707031 C 337.664062 427.707031 336.875 427.371094 336.199219 426.699219 C 335.527344 426.023438 335.132812 425.242188 335.019531 424.34375 C 335.019531 423.558594 335.808594 422.328125 337.382812 420.644531 C 338.957031 418.964844 344.242188 413.640625 353.238281 404.671875 L 370.78125 387.1875 L 353.238281 369.703125 C 344.128906 360.625 338.84375 355.300781 337.382812 353.734375 C 335.917969 352.164062 335.132812 350.929688 335.019531 350.035156 C 335.019531 349.023438 335.359375 348.242188 336.03125 347.679688 C 336.707031 347.121094 337.550781 346.839844 338.5625 346.839844 C 339.125 346.839844 339.519531 346.894531 339.742188 347.007812 C 340.082031 347.230469 346.210938 353.171875 358.128906 364.828125 L 375.839844 382.480469 L 393.382812 364.996094 C 402.042969 356.367188 407.328125 351.15625 409.238281 349.363281 C 411.148438 347.566406 412.386719 346.671875 412.949219 346.671875 C 415.308594 346.671875 416.492188 347.792969 416.492188 350.035156 C 416.492188 350.820312 415.929688 351.828125 414.804688 353.058594 C 413.679688 354.292969 408.167969 359.785156 398.273438 369.535156 L 380.730469 387.1875 L 398.273438 404.839844 C 407.71875 414.257812 413.117188 419.691406 414.46875 421.148438 C 415.816406 422.605469 416.492188 423.671875 416.492188 424.34375 Z M 416.492188 424.34375 " fill-opacity="1" fill-rule="nonzero"/><path fill="#000000" d="M 537.464844 237.726562 C 534.429688 237.726562 532.070312 236.777344 530.382812 234.871094 C 528.695312 232.964844 527.796875 230.5 527.683594 227.472656 C 527.683594 221.308594 530.382812 215.816406 535.78125 210.996094 C 541.175781 206.175781 547.699219 203.765625 555.347656 203.765625 C 559.28125 203.765625 561.757812 203.824219 562.769531 203.9375 C 571.089844 205.28125 577.441406 208.25 581.828125 212.847656 C 586.214844 217.441406 588.464844 222.429688 588.574219 227.808594 C 588.574219 233.636719 586.664062 239.296875 582.839844 244.789062 C 579.015625 250.28125 573.730469 254.261719 566.984375 256.726562 L 566.480469 257.0625 C 566.480469 257.175781 566.984375 257.34375 567.996094 257.566406 C 569.007812 257.789062 570.640625 258.296875 572.886719 259.078125 C 575.136719 259.863281 577.273438 261.042969 579.296875 262.609375 C 588.519531 268.550781 593.128906 276.394531 593.128906 286.148438 C 593.128906 295 589.644531 302.734375 582.671875 309.347656 C 575.699219 315.960938 566.871094 319.265625 556.191406 319.265625 C 547.195312 319.265625 539.433594 316.859375 532.914062 312.039062 C 526.390625 307.21875 523.128906 301.109375 523.128906 293.710938 C 523.128906 290.574219 524.140625 288.054688 526.164062 286.148438 C 528.1875 284.242188 530.71875 283.234375 533.753906 283.121094 C 536.902344 283.121094 539.492188 284.128906 541.515625 286.148438 C 543.539062 288.164062 544.550781 290.6875 544.550781 293.710938 C 544.550781 294.945312 544.382812 296.066406 544.042969 297.074219 C 543.707031 298.085938 543.3125 298.980469 542.863281 299.765625 C 542.414062 300.550781 541.796875 301.222656 541.007812 301.78125 C 540.222656 302.34375 539.546875 302.792969 538.984375 303.128906 C 538.421875 303.464844 537.859375 303.6875 537.296875 303.800781 C 536.734375 303.914062 536.285156 304.082031 535.949219 304.304688 L 535.273438 304.472656 C 541.007812 309.515625 547.980469 312.039062 556.191406 312.039062 C 562.375 312.039062 567.042969 309.066406 570.191406 303.128906 C 572.101562 299.429688 573.058594 293.769531 573.058594 286.148438 L 573.058594 282.785156 C 573.058594 272.136719 569.457031 265.019531 562.261719 261.433594 C 560.574219 260.761719 557.144531 260.367188 551.972656 260.257812 L 544.886719 260.089844 L 544.382812 259.753906 C 544.15625 259.414062 544.042969 258.519531 544.042969 257.0625 C 544.042969 255.042969 544.496094 254.035156 545.394531 254.035156 C 548.542969 254.035156 551.804688 253.753906 555.175781 253.195312 C 559 252.636719 562.488281 250.28125 565.636719 246.132812 C 568.785156 241.988281 570.359375 235.710938 570.359375 227.304688 L 570.359375 225.960938 C 570.359375 219.570312 568.390625 215.144531 564.453125 212.679688 C 561.980469 211.109375 559.339844 210.324219 556.527344 210.324219 C 552.929688 210.324219 549.609375 210.941406 546.574219 212.171875 C 543.539062 213.40625 541.402344 214.695312 540.164062 216.039062 C 538.929688 217.386719 538.308594 218.058594 538.308594 218.058594 L 538.816406 218.058594 C 539.152344 218.171875 539.601562 218.28125 540.164062 218.394531 C 540.726562 218.507812 541.289062 218.785156 541.851562 219.234375 C 542.414062 219.683594 543.089844 220.074219 543.875 220.410156 C 544.664062 220.746094 545.226562 221.363281 545.5625 222.261719 C 545.898438 223.15625 546.351562 224 546.914062 224.78125 C 547.472656 225.566406 547.644531 226.6875 547.417969 228.144531 C 547.417969 230.609375 546.632812 232.796875 545.058594 234.703125 C 543.484375 236.605469 540.953125 237.617188 537.464844 237.726562 Z M 537.464844 237.726562 " fill-opacity="1" fill-rule="nonzero"/><path fill="#000000" d="M 534.429688 472.425781 C 531.394531 472.425781 528.976562 471.417969 527.175781 469.402344 C 525.378906 467.382812 524.476562 464.917969 524.476562 462.003906 C 524.476562 454.046875 527.457031 447.152344 533.417969 441.324219 C 539.378906 435.496094 546.800781 432.582031 555.683594 432.582031 C 565.917969 432.582031 574.464844 435.71875 581.324219 441.996094 C 588.183594 448.273438 591.667969 456.398438 591.78125 466.375 C 591.78125 471.195312 590.65625 475.789062 588.40625 480.160156 C 586.15625 484.53125 583.460938 488.34375 580.308594 491.59375 C 577.160156 494.84375 572.664062 498.988281 566.816406 504.035156 C 562.769531 507.507812 557.144531 512.664062 549.949219 519.5 L 539.996094 528.914062 L 552.816406 529.085938 C 570.472656 529.085938 579.859375 528.804688 580.984375 528.242188 C 581.773438 528.019531 583.121094 523.03125 585.035156 513.28125 L 585.035156 512.777344 L 591.78125 512.777344 L 591.78125 513.28125 C 591.667969 513.617188 590.9375 518.714844 589.585938 528.578125 C 588.238281 538.441406 587.394531 543.597656 587.058594 544.046875 L 587.058594 544.550781 L 524.476562 544.550781 L 524.476562 539.339844 C 524.476562 538.554688 524.816406 537.714844 525.492188 536.816406 C 526.164062 535.921875 527.851562 533.960938 530.550781 530.933594 C 533.8125 527.347656 536.621094 524.207031 538.984375 521.519531 C 539.996094 520.398438 541.910156 518.324219 544.71875 515.296875 C 547.53125 512.273438 549.441406 510.199219 550.453125 509.078125 C 551.464844 507.957031 553.097656 506.105469 555.347656 503.53125 C 557.59375 500.953125 559.167969 499.046875 560.070312 497.8125 C 560.96875 496.582031 562.261719 494.898438 563.949219 492.769531 C 565.636719 490.640625 566.816406 488.847656 567.492188 487.390625 C 568.164062 485.933594 569.007812 484.308594 570.019531 482.515625 C 571.03125 480.722656 571.765625 478.925781 572.214844 477.132812 C 572.664062 475.339844 573.058594 473.660156 573.394531 472.089844 C 573.730469 470.523438 573.902344 468.671875 573.902344 466.542969 C 573.902344 459.480469 571.988281 453.371094 568.164062 448.21875 C 564.34375 443.0625 558.886719 440.484375 551.804688 440.484375 C 548.09375 440.484375 544.832031 441.4375 542.019531 443.339844 C 539.210938 445.246094 537.242188 447.097656 536.117188 448.890625 C 534.992188 450.683594 534.429688 451.746094 534.429688 452.085938 C 534.429688 452.195312 534.710938 452.253906 535.273438 452.253906 C 537.296875 452.253906 539.378906 453.035156 541.515625 454.605469 C 543.652344 456.175781 544.71875 458.753906 544.71875 462.339844 C 544.71875 465.140625 543.820312 467.496094 542.019531 469.402344 C 540.222656 471.304688 537.691406 472.316406 534.429688 472.425781 Z M 534.429688 472.425781 " fill-opacity="1" fill-rule="nonzero"/><path fill="#000000" d="M 499.175781 392.234375 L 617.25 392.234375 L 617.25 382.144531 L 499.175781 382.144531 Z M 499.175781 392.234375 " fill-opacity="1" fill-rule="nonzero"/></svg>