<svg xmlns="http://www.w3.org/2000/svg" xmlns:xlink="http://www.w3.org/1999/xlink" width="1000" zoomAndPan="magnify" viewBox="0 0 750 749.999995" height="1000" preserveAspectRatio="xMidYMid meet" version="1.0"><defs><clipPath id="6a5cd2a4e6"><path d="M 160 201.75 L 234 201.75 L 234 320 L 160 320 Z M 160 201.75 " clip-rule="nonzero"/></clipPath><clipPath id="167a839405"><path d="M 525 430 L 598 430 L 598 548.25 L 525 548.25 Z M 525 430 " clip-rule="nonzero"/></clipPath></defs><rect x="-75" width="900" fill="#ffffff" y="-74.999999" height="899.999994" fill-opacity="1"/><rect x="-75" width="900" fill="#ffffff" y="-74.999999" height="899.999994" fill-opacity="1"/><g clip-path="url(#6a5cd2a4e6)"><path fill="#000000" d="M 160.46875 238.417969 C 160.582031 238.195312 161.539062 232.082031 163.339844 220.085938 L 166.039062 202.085938 C 166.039062 201.863281 167.164062 201.75 169.414062 201.75 L 172.789062 201.75 L 172.789062 202.421875 C 172.789062 203.542969 173.632812 204.496094 175.320312 205.28125 C 177.007812 206.066406 179.933594 206.570312 184.097656 206.796875 C 188.257812 207.019531 197.765625 207.132812 212.617188 207.132812 L 233.035156 207.132812 L 233.035156 213.691406 L 221.558594 229.335938 C 220.546875 230.679688 218.859375 232.921875 216.496094 236.0625 C 214.136719 239.203125 212.617188 241.277344 211.941406 242.289062 C 211.265625 243.296875 210.085938 245.089844 208.398438 247.667969 C 206.710938 250.25 205.585938 252.265625 205.023438 253.726562 C 204.460938 255.183594 203.671875 257.257812 202.660156 259.949219 C 201.648438 262.640625 200.914062 265.21875 200.464844 267.6875 C 200.015625 270.152344 199.566406 273.179688 199.117188 276.769531 C 198.664062 280.355469 198.328125 284.167969 198.101562 288.207031 C 197.878906 292.242188 197.710938 296.839844 197.597656 302 C 197.597656 303.570312 197.597656 305.140625 197.597656 306.710938 C 197.597656 308.277344 197.539062 309.625 197.429688 310.746094 L 197.429688 312.261719 C 196.976562 314.167969 195.910156 315.792969 194.222656 317.136719 C 192.535156 318.484375 190.621094 319.15625 188.484375 319.15625 C 187.246094 319.15625 186.066406 318.988281 184.941406 318.652344 C 183.816406 318.316406 182.632812 317.25 181.394531 315.457031 C 180.160156 313.660156 179.539062 311.417969 179.539062 308.726562 C 179.539062 291.011719 184.996094 272.621094 195.910156 253.558594 C 198.160156 249.96875 202.882812 243.183594 210.085938 233.203125 L 217.847656 222.605469 L 202.152344 222.605469 C 182.578125 222.605469 172.28125 222.945312 171.269531 223.617188 C 170.59375 223.953125 169.976562 225.296875 169.414062 227.652344 C 168.851562 230.007812 168.289062 232.417969 167.726562 234.886719 L 167.21875 238.417969 L 167.21875 238.921875 L 160.46875 238.921875 Z M 160.46875 238.417969 " fill-opacity="1" fill-rule="nonzero"/></g><path fill="#000000" d="M 229.15625 544.550781 C 227.128906 544.214844 219.871094 544.042969 207.382812 544.042969 C 194.335938 544.042969 186.796875 544.214844 184.769531 544.550781 L 183.253906 544.550781 L 183.253906 536.8125 L 188.484375 536.8125 C 190.734375 536.8125 192.253906 536.8125 193.039062 536.8125 C 193.828125 536.8125 194.785156 536.699219 195.910156 536.476562 C 197.035156 536.25 197.820312 535.972656 198.273438 535.632812 C 198.722656 535.296875 199.117188 534.851562 199.453125 534.289062 C 199.566406 534.066406 199.621094 531.039062 199.621094 525.207031 L 199.621094 516.796875 L 155.914062 516.796875 L 155.914062 509.058594 L 181.394531 470.203125 C 198.609375 444.1875 207.328125 431.125 207.554688 431.011719 C 207.777344 430.789062 208.960938 430.675781 211.097656 430.675781 L 214.136719 430.675781 L 215.148438 431.683594 L 215.148438 509.058594 L 230.671875 509.058594 L 230.671875 516.796875 L 215.148438 516.796875 L 215.148438 525.375 C 215.148438 529.972656 215.148438 532.664062 215.148438 533.449219 C 215.148438 534.234375 215.484375 534.90625 216.160156 535.464844 C 217.058594 536.25 220.265625 536.699219 225.78125 536.8125 L 230.671875 536.8125 L 230.671875 544.550781 Z M 200.632812 509.058594 L 200.632812 452.878906 L 163.675781 508.890625 L 182.070312 509.058594 Z M 200.632812 509.058594 " fill-opacity="1" fill-rule="nonzero"/><path fill="#000000" d="M 134.3125 392.15625 L 252.445312 392.15625 L 252.445312 382.066406 L 134.3125 382.066406 Z M 134.3125 392.15625 " fill-opacity="1" fill-rule="nonzero"/><path fill="#000000" d="M 416.511719 424.285156 C 416.511719 426.527344 415.328125 427.648438 412.96875 427.648438 C 412.40625 427.648438 411.167969 426.75 409.253906 424.957031 C 407.339844 423.164062 402.054688 417.949219 393.390625 409.3125 L 375.839844 391.820312 L 358.121094 409.480469 C 346.195312 421.144531 340.0625 427.085938 339.726562 427.3125 C 339.277344 427.535156 338.882812 427.648438 338.542969 427.648438 C 337.644531 427.648438 336.855469 427.3125 336.179688 426.636719 C 335.507812 425.964844 335.113281 425.179688 335 424.285156 C 335 423.5 335.789062 422.265625 337.363281 420.582031 C 338.9375 418.902344 344.226562 413.574219 353.226562 404.605469 L 370.777344 387.109375 L 353.226562 369.617188 C 344.113281 360.535156 338.824219 355.207031 337.363281 353.636719 C 335.898438 352.066406 335.113281 350.835938 335 349.9375 C 335 348.929688 335.335938 348.144531 336.011719 347.582031 C 336.6875 347.023438 337.53125 346.742188 338.542969 346.742188 C 339.105469 346.742188 339.5 346.796875 339.726562 346.910156 C 340.0625 347.132812 346.195312 353.078125 358.121094 364.738281 L 375.839844 382.402344 L 393.390625 364.90625 C 402.054688 356.273438 407.339844 351.058594 409.253906 349.265625 C 411.167969 347.46875 412.40625 346.574219 412.96875 346.574219 C 415.328125 346.574219 416.511719 347.695312 416.511719 349.9375 C 416.511719 350.722656 415.949219 351.730469 414.824219 352.964844 C 413.699219 354.199219 408.183594 359.695312 398.285156 369.449219 L 380.734375 387.109375 L 398.285156 404.773438 C 407.734375 414.191406 413.136719 419.628906 414.484375 421.085938 C 415.835938 422.546875 416.511719 423.609375 416.511719 424.285156 Z M 416.511719 424.285156 " fill-opacity="1" fill-rule="nonzero"/><path fill="#000000" d="M 537.542969 237.578125 C 534.507812 237.578125 532.144531 236.625 530.457031 234.71875 C 528.769531 232.8125 527.871094 230.34375 527.757812 227.316406 C 527.757812 221.148438 530.457031 215.65625 535.855469 210.832031 C 541.257812 206.011719 547.78125 203.601562 555.433594 203.601562 C 559.371094 203.601562 561.847656 203.65625 562.859375 203.769531 C 571.183594 205.113281 577.539062 208.085938 581.929688 212.683594 C 586.316406 217.28125 588.566406 222.269531 588.679688 227.652344 C 588.679688 233.484375 586.765625 239.148438 582.941406 244.640625 C 579.117188 250.136719 573.828125 254.117188 567.078125 256.585938 L 566.570312 256.921875 C 566.570312 257.03125 567.078125 257.203125 568.089844 257.425781 C 569.101562 257.648438 570.734375 258.15625 572.984375 258.9375 C 575.234375 259.722656 577.371094 260.902344 579.398438 262.472656 C 588.621094 268.414062 593.234375 276.265625 593.234375 286.019531 C 593.234375 294.878906 589.746094 302.617188 582.773438 309.230469 C 575.796875 315.847656 566.964844 319.15625 556.277344 319.15625 C 547.277344 319.15625 539.515625 316.746094 532.988281 311.921875 C 526.464844 307.101562 523.199219 300.992188 523.199219 293.589844 C 523.199219 290.449219 524.214844 287.925781 526.238281 286.019531 C 528.261719 284.113281 530.792969 283.105469 533.832031 282.992188 C 536.980469 282.992188 539.570312 284 541.59375 286.019531 C 543.621094 288.039062 544.632812 290.5625 544.632812 293.589844 C 544.632812 294.824219 544.464844 295.945312 544.125 296.953125 C 543.789062 297.960938 543.394531 298.859375 542.945312 299.644531 C 542.496094 300.429688 541.875 301.101562 541.089844 301.664062 C 540.300781 302.222656 539.625 302.671875 539.0625 303.007812 C 538.5 303.34375 537.9375 303.570312 537.375 303.679688 C 536.8125 303.792969 536.363281 303.960938 536.027344 304.1875 L 535.351562 304.355469 C 541.089844 309.402344 548.0625 311.921875 556.277344 311.921875 C 562.464844 311.921875 567.132812 308.953125 570.285156 303.007812 C 572.195312 299.308594 573.152344 293.644531 573.152344 286.019531 L 573.152344 282.65625 C 573.152344 272.003906 569.554688 264.882812 562.351562 261.292969 C 560.664062 260.621094 557.234375 260.230469 552.058594 260.117188 L 544.96875 259.949219 L 544.464844 259.613281 C 544.238281 259.277344 544.125 258.378906 544.125 256.921875 C 544.125 254.902344 544.578125 253.894531 545.476562 253.894531 C 548.625 253.894531 551.890625 253.613281 555.265625 253.050781 C 559.089844 252.492188 562.578125 250.136719 565.726562 245.988281 C 568.878906 241.839844 570.453125 235.558594 570.453125 227.148438 L 570.453125 225.804688 C 570.453125 219.410156 568.484375 214.980469 564.546875 212.515625 C 562.070312 210.945312 559.425781 210.160156 556.613281 210.160156 C 553.015625 210.160156 549.695312 210.777344 546.65625 212.011719 C 543.621094 213.242188 541.484375 214.535156 540.246094 215.878906 C 539.007812 217.226562 538.390625 217.898438 538.390625 217.898438 L 538.894531 217.898438 C 539.234375 218.007812 539.683594 218.121094 540.246094 218.234375 C 540.808594 218.347656 541.371094 218.625 541.933594 219.074219 C 542.496094 219.523438 543.171875 219.917969 543.957031 220.253906 C 544.746094 220.589844 545.308594 221.207031 545.644531 222.101562 C 545.984375 223 546.433594 223.839844 546.996094 224.625 C 547.558594 225.410156 547.726562 226.53125 547.5 227.988281 C 547.5 230.457031 546.714844 232.644531 545.140625 234.550781 C 543.5625 236.457031 541.03125 237.464844 537.542969 237.578125 Z M 537.542969 237.578125 " fill-opacity="1" fill-rule="nonzero"/><g clip-path="url(#167a839405)"><path fill="#000000" d="M 525.394531 467.511719 C 525.507812 467.289062 526.464844 461.175781 528.261719 449.179688 L 530.964844 431.179688 C 530.964844 430.957031 532.089844 430.84375 534.339844 430.84375 L 537.714844 430.84375 L 537.714844 431.515625 C 537.714844 432.636719 538.558594 433.589844 540.246094 434.375 C 541.933594 435.160156 544.859375 435.664062 549.019531 435.890625 C 553.183594 436.113281 562.691406 436.226562 577.539062 436.226562 L 597.960938 436.226562 L 597.960938 442.785156 L 586.484375 458.429688 C 585.472656 459.773438 583.785156 462.015625 581.421875 465.15625 C 579.058594 468.296875 577.539062 470.371094 576.867188 471.378906 C 576.191406 472.390625 575.007812 474.183594 573.320312 476.761719 C 571.632812 479.34375 570.507812 481.359375 569.945312 482.820312 C 569.382812 484.277344 568.597656 486.351562 567.585938 489.042969 C 566.570312 491.734375 565.839844 494.3125 565.390625 496.78125 C 564.941406 499.246094 564.488281 502.273438 564.039062 505.863281 C 563.589844 509.449219 563.253906 513.261719 563.027344 517.300781 C 562.800781 521.335938 562.632812 525.933594 562.519531 531.09375 C 562.519531 532.664062 562.519531 534.234375 562.519531 535.804688 C 562.519531 537.371094 562.464844 538.71875 562.351562 539.839844 L 562.351562 541.355469 C 561.902344 543.261719 560.832031 544.886719 559.144531 546.230469 C 557.457031 547.578125 555.546875 548.25 553.410156 548.25 C 552.171875 548.25 550.988281 548.082031 549.863281 547.746094 C 548.738281 547.410156 547.558594 546.34375 546.320312 544.550781 C 545.082031 542.753906 544.464844 540.511719 544.464844 537.820312 C 544.464844 520.105469 549.921875 501.714844 560.832031 482.652344 C 563.082031 479.0625 567.808594 472.277344 575.007812 462.296875 L 582.773438 451.699219 L 567.078125 451.699219 C 547.5 451.699219 537.207031 452.039062 536.195312 452.710938 C 535.519531 453.046875 534.902344 454.390625 534.339844 456.746094 C 533.777344 459.101562 533.214844 461.511719 532.652344 463.980469 L 532.144531 467.511719 L 532.144531 468.015625 L 525.394531 468.015625 Z M 525.394531 467.511719 " fill-opacity="1" fill-rule="nonzero"/></g><path fill="#000000" d="M 499.238281 392.15625 L 617.367188 392.15625 L 617.367188 382.066406 L 499.238281 382.066406 Z M 499.238281 392.15625 " fill-opacity="1" fill-rule="nonzero"/></svg>