<svg xmlns="http://www.w3.org/2000/svg" xmlns:xlink="http://www.w3.org/1999/xlink" width="1000" zoomAndPan="magnify" viewBox="0 0 750 749.999995" height="1000" preserveAspectRatio="xMidYMid meet" version="1.0"><defs><clipPath id="e6614d15d7"><path d="M 203 431 L 272 431 L 272 545.691406 L 203 545.691406 Z M 203 431 " clip-rule="nonzero"/></clipPath><clipPath id="f858405c2b"><path d="M 559 204.308594 L 633 204.308594 L 633 317 L 559 317 Z M 559 204.308594 " clip-rule="nonzero"/></clipPath><clipPath id="4b91a99203"><path d="M 563 431 L 630 431 L 630 545.691406 L 563 545.691406 Z M 563 431 " clip-rule="nonzero"/></clipPath></defs><rect x="-75" width="900" fill="#ffffff" y="-74.999999" height="899.999994" fill-opacity="1"/><rect x="-75" width="900" fill="#ffffff" y="-74.999999" height="899.999994" fill-opacity="1"/><path fill="#000000" d="M 166.214844 247.375 C 166.214844 247.375 166.214844 243.125 166.214844 234.621094 C 166.214844 226.121094 169.199219 219.273438 175.171875 214.082031 C 181.144531 208.894531 188 206.242188 195.738281 206.132812 C 203.589844 206.132812 210.558594 208.453125 216.640625 213.089844 C 222.722656 217.726562 225.761719 223.746094 225.761719 231.144531 C 225.761719 234.457031 225.15625 237.546875 223.9375 240.417969 C 222.722656 243.289062 221.285156 245.609375 219.625 247.375 C 217.96875 249.144531 216.253906 250.6875 214.484375 252.015625 C 212.714844 253.339844 211.277344 254.332031 210.171875 254.996094 C 209.066406 255.65625 208.457031 256.101562 208.347656 256.320312 L 210.667969 257.8125 C 212.214844 258.914062 213.765625 260.019531 215.3125 261.125 C 216.859375 262.226562 217.746094 262.835938 217.96875 262.945312 C 226.261719 269.460938 230.40625 277.6875 230.40625 287.625 C 230.40625 296.351562 227.199219 303.914062 220.785156 310.320312 C 214.371094 316.722656 206.078125 319.980469 195.90625 320.089844 C 185.953125 320.089844 177.769531 317.273438 171.355469 311.644531 C 164.941406 306.011719 161.734375 299.054688 161.734375 290.773438 C 161.734375 278.847656 168.867188 268.910156 183.132812 260.957031 L 180.148438 258.804688 C 177.824219 257.371094 176.332031 256.265625 175.667969 255.492188 C 169.367188 250.082031 166.214844 243.125 166.214844 234.621094 Z M 202.042969 252.511719 L 203.039062 251.847656 C 203.703125 251.40625 204.199219 251.074219 204.53125 250.855469 C 204.863281 250.632812 205.414062 250.246094 206.191406 249.695312 C 206.964844 249.144531 207.628906 248.589844 208.179688 248.039062 C 208.734375 247.488281 209.339844 246.824219 210.003906 246.050781 C 210.667969 245.277344 211.277344 244.558594 211.828125 243.898438 C 212.382812 243.234375 212.933594 242.351562 213.488281 241.246094 C 214.042969 240.144531 214.539062 239.203125 214.980469 238.433594 C 215.421875 237.660156 215.699219 236.554688 215.808594 235.117188 C 215.921875 233.683594 216.03125 232.46875 216.140625 231.476562 C 216.140625 226.726562 214.539062 222.695312 211.332031 219.382812 C 208.125 216.070312 204.421875 213.972656 200.21875 213.089844 C 199.445312 212.980469 197.621094 212.921875 194.746094 212.921875 C 190.210938 212.921875 185.953125 214.359375 181.972656 217.230469 C 177.992188 220.101562 175.945312 223.691406 175.835938 227.996094 C 175.835938 230.535156 176.554688 232.855469 177.992188 234.953125 C 179.429688 237.050781 180.867188 238.652344 182.304688 239.757812 C 183.742188 240.859375 186.507812 242.628906 190.597656 245.058594 C 191.371094 245.609375 191.980469 245.996094 192.421875 246.214844 Z M 196.070312 312.96875 C 202.484375 312.96875 208.015625 311.089844 212.660156 307.335938 C 217.304688 303.582031 219.625 299.054688 219.625 293.753906 C 219.625 291.878906 219.347656 290.109375 218.796875 288.453125 C 218.242188 286.796875 217.578125 285.417969 216.804688 284.3125 C 216.03125 283.210938 214.816406 281.996094 213.15625 280.667969 C 211.496094 279.34375 210.226562 278.351562 209.339844 277.6875 C 208.457031 277.023438 206.851562 275.976562 204.53125 274.539062 C 202.207031 273.105469 200.714844 272.167969 200.050781 271.726562 C 198.503906 270.730469 196.84375 269.683594 195.078125 268.578125 C 193.308594 267.472656 191.871094 266.535156 190.761719 265.761719 L 189.4375 264.933594 C 188.773438 264.933594 187.167969 265.871094 184.625 267.75 C 182.082031 269.625 179.429688 272.664062 176.664062 276.859375 C 173.898438 281.054688 172.460938 285.582031 172.351562 290.441406 C 172.351562 296.957031 174.730469 302.3125 179.484375 306.507812 C 184.238281 310.703125 189.769531 312.859375 196.070312 312.96875 Z M 196.070312 312.96875 " fill-opacity="1" fill-rule="nonzero"/><path fill="#000000" d="M 148.464844 446.308594 L 146.308594 447.136719 C 144.761719 447.6875 142.550781 448.238281 139.675781 448.792969 C 136.800781 449.34375 133.59375 449.730469 130.054688 449.949219 L 126.902344 449.949219 L 126.902344 442.332031 L 130.054688 442.332031 C 135.25 442.109375 140.0625 441.28125 144.484375 439.847656 C 148.910156 438.410156 152.003906 437.085938 153.773438 435.871094 C 155.542969 434.65625 157.089844 433.441406 158.417969 432.226562 C 158.640625 431.898438 159.304688 431.730469 160.410156 431.730469 C 161.402344 431.730469 162.34375 432.0625 163.230469 432.726562 L 163.230469 482.25 L 163.394531 531.941406 C 164.167969 532.714844 164.832031 533.210938 165.386719 533.433594 C 165.9375 533.652344 167.265625 533.875 169.367188 534.09375 C 171.46875 534.316406 174.894531 534.425781 179.648438 534.425781 L 183.960938 534.425781 L 183.960938 542.046875 L 182.136719 542.046875 C 179.816406 541.714844 171.023438 541.546875 155.765625 541.546875 C 140.726562 541.546875 132.042969 541.714844 129.722656 542.046875 L 127.730469 542.046875 L 127.730469 534.425781 L 132.042969 534.425781 C 134.476562 534.425781 136.578125 534.425781 138.347656 534.425781 C 140.117188 534.425781 141.5 534.371094 142.496094 534.261719 C 143.488281 534.148438 144.375 533.984375 145.148438 533.765625 C 145.921875 533.542969 146.363281 533.433594 146.476562 533.433594 C 146.585938 533.433594 146.917969 533.15625 147.46875 532.605469 C 148.023438 532.050781 148.355469 531.832031 148.464844 531.941406 Z M 148.464844 446.308594 " fill-opacity="1" fill-rule="nonzero"/><g clip-path="url(#e6614d15d7)"><path fill="#000000" d="M 203.039062 490.199219 C 203.039062 472.203125 207.515625 457.957031 216.472656 447.464844 C 225.429688 436.976562 235.382812 431.730469 246.332031 431.730469 C 253.960938 431.730469 259.433594 433.71875 262.753906 437.695312 C 266.070312 441.667969 267.730469 446.085938 267.730469 450.945312 C 267.730469 453.707031 266.953125 455.914062 265.40625 457.570312 C 263.859375 459.226562 261.703125 460.054688 258.9375 460.054688 C 256.394531 460.054688 254.292969 459.28125 252.632812 457.734375 C 250.976562 456.191406 250.144531 454.035156 250.144531 451.277344 C 250.144531 446.417969 252.746094 443.492188 257.941406 442.496094 C 255.507812 440.066406 252.082031 438.6875 247.65625 438.355469 C 239.808594 438.355469 233.335938 441.667969 228.25 448.292969 C 223.054688 455.582031 220.453125 466.734375 220.453125 481.753906 L 220.621094 482.417969 C 221.171875 481.753906 221.617188 481.035156 221.949219 480.261719 C 226.480469 473.636719 232.398438 470.324219 239.695312 470.324219 L 240.359375 470.324219 C 245.445312 470.324219 249.925781 471.375 253.796875 473.472656 C 256.449219 475.015625 259.101562 477.226562 261.757812 480.097656 C 264.410156 482.96875 266.566406 486.117188 268.226562 489.539062 C 270.546875 494.949219 271.710938 500.855469 271.710938 507.261719 L 271.710938 510.242188 C 271.710938 512.78125 271.433594 515.15625 270.878906 517.367188 C 269.664062 523.878906 266.125 530.230469 260.265625 536.414062 C 254.402344 542.597656 246.996094 545.691406 238.039062 545.691406 C 234.941406 545.691406 231.957031 545.246094 229.082031 544.363281 C 226.207031 543.480469 223.109375 541.824219 219.792969 539.394531 C 216.472656 536.964844 213.652344 533.707031 211.332031 529.621094 C 209.007812 525.535156 207.019531 520.179688 205.359375 513.554688 C 203.703125 506.929688 202.925781 499.144531 203.039062 490.199219 Z M 238.699219 476.289062 C 235.382812 476.289062 232.507812 477.226562 230.074219 479.101562 C 227.644531 480.980469 225.761719 483.464844 224.4375 486.558594 C 223.109375 489.648438 222.167969 492.796875 221.617188 496 C 221.0625 499.199219 220.730469 502.625 220.621094 506.269531 C 220.621094 515.433594 221.285156 522.003906 222.609375 525.980469 C 223.9375 529.953125 226.039062 533.15625 228.914062 535.585938 C 231.570312 537.574219 234.5 538.566406 237.707031 538.566406 C 243.34375 538.566406 247.65625 536.46875 250.644531 532.273438 C 252.082031 530.285156 253.078125 527.800781 253.628906 524.820312 C 254.183594 521.835938 254.457031 516.039062 254.457031 507.425781 C 254.457031 498.59375 254.183594 492.6875 253.628906 489.703125 C 253.078125 486.722656 252.082031 484.238281 250.644531 482.25 C 247.65625 478.273438 243.675781 476.289062 238.699219 476.289062 Z M 238.699219 476.289062 " fill-opacity="1" fill-rule="nonzero"/></g><path fill="#000000" d="M 96.546875 391.976562 L 295.59375 391.976562 L 295.59375 382.039062 L 96.546875 382.039062 Z M 96.546875 391.976562 " fill-opacity="1" fill-rule="nonzero"/><path fill="#000000" d="M 456.859375 423.613281 C 456.859375 425.824219 455.695312 426.925781 453.375 426.925781 C 452.820312 426.925781 451.605469 426.042969 449.726562 424.277344 C 447.84375 422.511719 442.648438 417.375 434.132812 408.871094 L 416.882812 391.648438 L 399.464844 409.039062 C 387.742188 420.523438 381.71875 426.375 381.386719 426.597656 C 380.941406 426.816406 380.554688 426.925781 380.222656 426.925781 C 379.339844 426.925781 378.566406 426.597656 377.902344 425.933594 C 377.238281 425.269531 376.851562 424.5 376.742188 423.613281 C 376.742188 422.839844 377.515625 421.628906 379.0625 419.96875 C 380.609375 418.3125 385.808594 413.070312 394.65625 404.234375 L 411.90625 387.007812 L 394.65625 369.78125 C 385.699219 360.839844 380.5 355.59375 379.0625 354.046875 C 377.625 352.5 376.851562 351.285156 376.742188 350.402344 C 376.742188 349.410156 377.074219 348.636719 377.734375 348.082031 C 378.398438 347.53125 379.230469 347.253906 380.222656 347.253906 C 380.777344 347.253906 381.164062 347.3125 381.386719 347.421875 C 381.71875 347.640625 387.742188 353.496094 399.464844 364.980469 L 416.882812 382.371094 L 434.132812 365.144531 C 442.648438 356.640625 447.84375 351.507812 449.726562 349.742188 C 451.605469 347.972656 452.820312 347.089844 453.375 347.089844 C 455.695312 347.089844 456.859375 348.195312 456.859375 350.402344 C 456.859375 351.175781 456.304688 352.167969 455.199219 353.382812 C 454.09375 354.597656 448.675781 360.011719 438.941406 369.617188 L 421.691406 387.007812 L 438.941406 404.402344 C 448.230469 413.675781 453.539062 419.03125 454.867188 420.46875 C 456.195312 421.902344 456.859375 422.953125 456.859375 423.613281 Z M 456.859375 423.613281 " fill-opacity="1" fill-rule="nonzero"/><g clip-path="url(#f858405c2b)"><path fill="#000000" d="M 631.390625 316.445312 C 629.398438 316.117188 622.265625 315.949219 609.992188 315.949219 C 597.164062 315.949219 589.753906 316.117188 587.765625 316.445312 L 586.273438 316.445312 L 586.273438 308.828125 L 591.414062 308.828125 C 593.625 308.828125 595.117188 308.828125 595.890625 308.828125 C 596.667969 308.828125 597.605469 308.71875 598.710938 308.496094 C 599.816406 308.277344 600.59375 308 601.035156 307.667969 C 601.476562 307.335938 601.863281 306.894531 602.195312 306.34375 C 602.304688 306.121094 602.363281 303.140625 602.363281 297.398438 L 602.363281 289.117188 L 559.402344 289.117188 L 559.402344 281.496094 L 584.445312 243.234375 C 601.367188 217.617188 609.9375 204.753906 610.15625 204.640625 C 610.378906 204.421875 611.539062 204.308594 613.640625 204.308594 L 616.625 204.308594 L 617.621094 205.304688 L 617.621094 281.496094 L 632.882812 281.496094 L 632.882812 289.117188 L 617.621094 289.117188 L 617.621094 297.5625 C 617.621094 302.09375 617.621094 304.742188 617.621094 305.515625 C 617.621094 306.289062 617.953125 306.949219 618.617188 307.503906 C 619.5 308.277344 622.652344 308.71875 628.070312 308.828125 L 632.882812 308.828125 L 632.882812 316.445312 Z M 603.355469 281.496094 L 603.355469 226.175781 L 567.03125 281.332031 L 585.109375 281.496094 Z M 603.355469 281.496094 " fill-opacity="1" fill-rule="nonzero"/></g><g clip-path="url(#4b91a99203)"><path fill="#000000" d="M 581.960938 516.039062 C 581.960938 518.691406 581.074219 520.898438 579.304688 522.664062 C 577.535156 524.433594 575.378906 525.316406 572.835938 525.316406 L 571.675781 525.316406 C 576.761719 534.039062 583.507812 538.402344 591.910156 538.402344 C 599.652344 538.402344 605.292969 535.089844 608.832031 528.464844 C 610.933594 524.820312 611.980469 517.753906 611.980469 507.261719 C 611.980469 495.886719 610.488281 488.214844 607.503906 484.238281 C 604.628906 480.59375 601.421875 478.773438 597.882812 478.773438 L 596.886719 478.773438 C 588.261719 478.773438 581.738281 482.527344 577.316406 490.035156 C 576.871094 490.808594 576.484375 491.25 576.152344 491.359375 C 575.820312 491.472656 574.992188 491.582031 573.664062 491.691406 C 571.785156 491.691406 570.734375 491.359375 570.515625 490.699219 C 570.292969 490.257812 570.183594 480.59375 570.183594 461.710938 L 570.183594 440.34375 C 570.183594 434.824219 570.457031 432.0625 571.011719 432.0625 C 571.234375 431.839844 571.453125 431.730469 571.675781 431.730469 C 571.785156 431.730469 572.945312 432.171875 575.160156 433.054688 C 577.371094 433.9375 580.410156 434.824219 584.28125 435.707031 C 588.152344 436.589844 592.296875 437.03125 596.722656 437.03125 C 604.574219 437.03125 612.09375 435.484375 619.28125 432.394531 C 620.164062 431.953125 620.882812 431.730469 621.4375 431.730469 C 622.320312 431.730469 622.765625 432.726562 622.765625 434.710938 L 622.765625 436.867188 C 613.695312 447.578125 602.363281 452.933594 588.761719 452.933594 C 585.332031 452.933594 582.234375 452.601562 579.472656 451.9375 L 577.8125 451.609375 L 577.8125 480.097656 C 579.914062 478.550781 581.570312 477.335938 582.789062 476.453125 C 584.003906 475.570312 585.996094 474.6875 588.761719 473.804688 C 591.523438 472.917969 594.34375 472.476562 597.21875 472.476562 C 606.175781 472.476562 613.75 476.066406 619.945312 483.246094 C 626.136719 490.421875 629.234375 498.925781 629.234375 508.753906 C 629.234375 518.910156 625.695312 527.578125 618.617188 534.757812 C 611.539062 541.933594 602.914062 545.578125 592.742188 545.691406 C 583.785156 545.691406 576.597656 542.707031 571.175781 536.746094 C 565.757812 530.78125 563.050781 524.046875 563.050781 516.539062 C 563.050781 513.886719 563.65625 511.789062 564.875 510.242188 C 566.089844 508.695312 567.363281 507.703125 568.6875 507.261719 C 570.015625 506.820312 571.289062 506.597656 572.503906 506.597656 C 575.269531 506.597656 577.535156 507.539062 579.304688 509.414062 C 581.074219 511.292969 581.960938 513.5 581.960938 516.039062 Z M 581.960938 516.039062 " fill-opacity="1" fill-rule="nonzero"/></g><path fill="#000000" d="M 538.167969 391.976562 L 654.28125 391.976562 L 654.28125 382.039062 L 538.167969 382.039062 Z M 538.167969 391.976562 " fill-opacity="1" fill-rule="nonzero"/></svg>