<svg xmlns="http://www.w3.org/2000/svg" xmlns:xlink="http://www.w3.org/1999/xlink" width="1000" zoomAndPan="magnify" viewBox="0 0 750 749.999995" height="1000" preserveAspectRatio="xMidYMid meet" version="1.0"><defs><clipPath id="a8c0a46d67"><path d="M 160 204.308594 L 230 204.308594 L 230 319 L 160 319 Z M 160 204.308594 " clip-rule="nonzero"/></clipPath><clipPath id="fa9bb0c901"><path d="M 201 431 L 272 431 L 272 545.691406 L 201 545.691406 Z M 201 431 " clip-rule="nonzero"/></clipPath><clipPath id="7249ad1712"><path d="M 562 204.308594 L 632 204.308594 L 632 319 L 562 319 Z M 562 204.308594 " clip-rule="nonzero"/></clipPath><clipPath id="8b40c05832"><path d="M 562 431 L 632 431 L 632 545.691406 L 562 545.691406 Z M 562 431 " clip-rule="nonzero"/></clipPath></defs><rect x="-75" width="900" fill="#ffffff" y="-74.999999" height="899.999994" fill-opacity="1"/><rect x="-75" width="900" fill="#ffffff" y="-74.999999" height="899.999994" fill-opacity="1"/><g clip-path="url(#a8c0a46d67)"><path fill="#000000" d="M 160.421875 263.09375 C 160.421875 245 164.925781 230.675781 173.929688 220.128906 C 182.933594 209.582031 192.941406 204.308594 203.949219 204.308594 C 211.617188 204.308594 217.121094 206.308594 220.457031 210.304688 C 223.792969 214.300781 225.460938 218.742188 225.460938 223.628906 C 225.460938 226.402344 224.683594 228.625 223.125 230.289062 C 221.570312 231.953125 219.402344 232.785156 216.621094 232.785156 C 214.066406 232.785156 211.953125 232.007812 210.285156 230.453125 C 208.617188 228.902344 207.785156 226.734375 207.785156 223.960938 C 207.785156 219.074219 210.394531 216.132812 215.621094 215.132812 C 213.175781 212.691406 209.730469 211.304688 205.28125 210.972656 C 197.386719 210.972656 190.882812 214.300781 185.769531 220.964844 C 180.546875 228.289062 177.933594 239.503906 177.933594 254.601562 L 178.097656 255.265625 C 178.65625 254.601562 179.101562 253.878906 179.433594 253.101562 C 183.992188 246.441406 189.941406 243.109375 197.277344 243.109375 L 197.945312 243.109375 C 203.058594 243.109375 207.5625 244.164062 211.453125 246.273438 C 214.121094 247.828125 216.789062 250.050781 219.457031 252.9375 C 222.125 255.824219 224.292969 258.988281 225.960938 262.429688 C 228.296875 267.867188 229.460938 273.808594 229.460938 280.246094 L 229.460938 283.242188 C 229.460938 285.796875 229.183594 288.183594 228.628906 290.40625 C 227.40625 296.953125 223.847656 303.339844 217.957031 309.554688 C 212.0625 315.773438 204.613281 318.878906 195.609375 318.878906 C 192.496094 318.878906 189.496094 318.4375 186.605469 317.546875 C 183.714844 316.660156 180.601562 314.996094 177.265625 312.550781 C 173.929688 310.109375 171.09375 306.835938 168.761719 302.726562 C 166.425781 298.621094 164.425781 293.234375 162.757812 286.574219 C 161.089844 279.914062 160.3125 272.085938 160.421875 263.09375 Z M 196.277344 249.105469 C 192.941406 249.105469 190.050781 250.050781 187.605469 251.9375 C 185.160156 253.824219 183.269531 256.320312 181.933594 259.429688 C 180.601562 262.539062 179.65625 265.703125 179.101562 268.921875 C 178.542969 272.140625 178.210938 275.582031 178.097656 279.246094 C 178.097656 288.460938 178.765625 295.066406 180.101562 299.0625 C 181.433594 303.058594 183.546875 306.28125 186.4375 308.722656 C 189.105469 310.722656 192.050781 311.71875 195.277344 311.71875 C 200.945312 311.71875 205.28125 309.609375 208.285156 305.390625 C 209.730469 303.394531 210.730469 300.894531 211.285156 297.898438 C 211.839844 294.902344 212.117188 289.074219 212.117188 280.414062 C 212.117188 271.53125 211.839844 265.59375 211.285156 262.59375 C 210.730469 259.597656 209.730469 257.097656 208.285156 255.101562 C 205.28125 251.105469 201.28125 249.105469 196.277344 249.105469 Z M 196.277344 249.105469 " fill-opacity="1" fill-rule="nonzero"/></g><path fill="#000000" d="M 147.25 445.773438 L 145.082031 446.605469 C 143.523438 447.160156 141.300781 447.714844 138.410156 448.273438 C 135.519531 448.828125 132.296875 449.214844 128.738281 449.4375 L 125.570312 449.4375 L 125.570312 441.777344 L 128.738281 441.777344 C 133.960938 441.554688 138.796875 440.722656 143.246094 439.277344 C 147.691406 437.835938 150.804688 436.503906 152.585938 435.28125 C 154.363281 434.0625 155.917969 432.839844 157.253906 431.617188 C 157.476562 431.285156 158.144531 431.121094 159.253906 431.121094 C 160.253906 431.121094 161.199219 431.453125 162.089844 432.117188 L 162.089844 481.910156 L 162.257812 531.867188 C 163.035156 532.644531 163.703125 533.144531 164.257812 533.367188 C 164.8125 533.589844 166.148438 533.8125 168.261719 534.03125 C 170.371094 534.253906 173.820312 534.367188 178.601562 534.367188 L 182.933594 534.367188 L 182.933594 542.027344 L 181.101562 542.027344 C 178.765625 541.691406 169.929688 541.527344 154.585938 541.527344 C 139.464844 541.527344 130.738281 541.691406 128.402344 542.027344 L 126.402344 542.027344 L 126.402344 534.367188 L 130.738281 534.367188 C 133.183594 534.367188 135.296875 534.367188 137.074219 534.367188 C 138.855469 534.367188 140.242188 534.308594 141.246094 534.199219 C 142.246094 534.089844 143.132812 533.921875 143.914062 533.699219 C 144.691406 533.476562 145.136719 533.367188 145.246094 533.367188 C 145.359375 533.367188 145.691406 533.089844 146.246094 532.535156 C 146.804688 531.980469 147.136719 531.757812 147.25 531.867188 Z M 147.25 445.773438 " fill-opacity="1" fill-rule="nonzero"/><g clip-path="url(#fa9bb0c901)"><path fill="#000000" d="M 211.117188 444.609375 C 217.34375 435.617188 225.847656 431.121094 236.632812 431.121094 C 241.96875 431.121094 247.304688 432.5625 252.644531 435.449219 C 257.980469 438.335938 262.316406 443.441406 265.648438 450.769531 C 269.761719 459.984375 271.820312 472.640625 271.820312 488.738281 C 271.820312 505.945312 269.429688 519.101562 264.648438 528.203125 C 262.425781 532.867188 259.367188 536.585938 255.476562 539.363281 C 251.585938 542.136719 248.195312 543.859375 245.304688 544.523438 C 242.414062 545.191406 239.578125 545.578125 236.800781 545.691406 C 233.910156 545.691406 231.019531 545.355469 228.128906 544.691406 C 225.238281 544.023438 221.847656 542.25 217.957031 539.363281 C 214.066406 536.476562 211.007812 532.757812 208.785156 528.203125 C 204.003906 519.101562 201.613281 505.945312 201.613281 488.738281 C 201.613281 469.421875 204.78125 454.710938 211.117188 444.609375 Z M 248.640625 442.609375 C 245.304688 439.058594 241.359375 437.28125 236.800781 437.28125 C 232.128906 437.28125 228.128906 439.058594 224.792969 442.609375 C 222.015625 445.496094 220.179688 449.492188 219.289062 454.601562 C 218.402344 459.707031 217.957031 470.363281 217.957031 486.574219 C 217.957031 504.113281 218.402344 515.660156 219.289062 521.210938 C 220.179688 526.761719 222.179688 531.144531 225.292969 534.367188 C 228.40625 537.695312 232.242188 539.363281 236.800781 539.363281 C 241.246094 539.363281 245.027344 537.695312 248.140625 534.367188 C 251.363281 531.035156 253.363281 526.371094 254.144531 520.378906 C 254.921875 514.382812 255.367188 503.113281 255.476562 486.574219 C 255.476562 470.476562 255.03125 459.871094 254.144531 454.765625 C 253.253906 449.660156 251.417969 445.605469 248.640625 442.609375 Z M 248.640625 442.609375 " fill-opacity="1" fill-rule="nonzero"/></g><path fill="#000000" d="M 95.050781 391.152344 L 295.167969 391.152344 L 295.167969 381.160156 L 95.050781 381.160156 Z M 95.050781 391.152344 " fill-opacity="1" fill-rule="nonzero"/><path fill="#000000" d="M 457.292969 422.960938 C 457.292969 425.179688 456.128906 426.289062 453.792969 426.289062 C 453.238281 426.289062 452.015625 425.402344 450.125 423.625 C 448.234375 421.847656 443.007812 416.6875 434.449219 408.140625 L 417.105469 390.820312 L 399.59375 408.304688 C 387.808594 419.851562 381.75 425.734375 381.417969 425.957031 C 380.972656 426.179688 380.582031 426.289062 380.25 426.289062 C 379.359375 426.289062 378.582031 425.957031 377.914062 425.289062 C 377.25 424.625 376.859375 423.847656 376.746094 422.960938 C 376.746094 422.183594 377.527344 420.960938 379.082031 419.296875 C 380.640625 417.628906 385.863281 412.359375 394.757812 403.476562 L 412.101562 386.15625 L 394.757812 368.839844 C 385.753906 359.847656 380.527344 354.574219 379.082031 353.019531 C 377.636719 351.464844 376.859375 350.242188 376.746094 349.355469 C 376.746094 348.355469 377.082031 347.578125 377.75 347.023438 C 378.414062 346.46875 379.25 346.191406 380.25 346.191406 C 380.804688 346.191406 381.195312 346.246094 381.417969 346.359375 C 381.75 346.578125 387.808594 352.464844 399.59375 364.007812 L 417.105469 381.496094 L 434.449219 364.175781 C 443.007812 355.628906 448.234375 350.464844 450.125 348.6875 C 452.015625 346.914062 453.238281 346.023438 453.792969 346.023438 C 456.128906 346.023438 457.292969 347.132812 457.292969 349.355469 C 457.292969 350.132812 456.738281 351.132812 455.625 352.351562 C 454.515625 353.574219 449.066406 359.011719 439.285156 368.671875 L 421.941406 386.15625 L 439.285156 403.640625 C 448.621094 412.96875 453.960938 418.351562 455.292969 419.796875 C 456.628906 421.238281 457.292969 422.292969 457.292969 422.960938 Z M 457.292969 422.960938 " fill-opacity="1" fill-rule="nonzero"/><g clip-path="url(#7249ad1712)"><path fill="#000000" d="M 562.722656 263.09375 C 562.722656 245 567.226562 230.675781 576.230469 220.128906 C 585.234375 209.582031 595.242188 204.308594 606.246094 204.308594 C 613.917969 204.308594 619.421875 206.308594 622.757812 210.304688 C 626.09375 214.300781 627.761719 218.742188 627.761719 223.628906 C 627.761719 226.402344 626.980469 228.625 625.425781 230.289062 C 623.867188 231.953125 621.699219 232.785156 618.921875 232.785156 C 616.363281 232.785156 614.253906 232.007812 612.585938 230.453125 C 610.917969 228.902344 610.082031 226.734375 610.082031 223.960938 C 610.082031 219.074219 612.695312 216.132812 617.921875 215.132812 C 615.476562 212.691406 612.027344 211.304688 607.582031 210.972656 C 599.6875 210.972656 593.183594 214.300781 588.070312 220.964844 C 582.84375 228.289062 580.234375 239.503906 580.234375 254.601562 L 580.398438 255.265625 C 580.957031 254.601562 581.398438 253.878906 581.734375 253.101562 C 586.292969 246.441406 592.238281 243.109375 599.578125 243.109375 L 600.246094 243.109375 C 605.359375 243.109375 609.859375 244.164062 613.753906 246.273438 C 616.421875 247.828125 619.089844 250.050781 621.757812 252.9375 C 624.425781 255.824219 626.59375 258.988281 628.261719 262.429688 C 630.59375 267.867188 631.761719 273.808594 631.761719 280.246094 L 631.761719 283.242188 C 631.761719 285.796875 631.484375 288.183594 630.929688 290.40625 C 629.707031 296.953125 626.148438 303.339844 620.253906 309.554688 C 614.363281 315.773438 606.914062 318.878906 597.910156 318.878906 C 594.796875 318.878906 591.792969 318.4375 588.902344 317.546875 C 586.015625 316.660156 582.902344 314.996094 579.566406 312.550781 C 576.230469 310.109375 573.394531 306.835938 571.0625 302.726562 C 568.726562 298.621094 566.726562 293.234375 565.058594 286.574219 C 563.390625 279.914062 562.609375 272.085938 562.722656 263.09375 Z M 598.578125 249.105469 C 595.242188 249.105469 592.351562 250.050781 589.90625 251.9375 C 587.457031 253.824219 585.570312 256.320312 584.234375 259.429688 C 582.902344 262.539062 581.957031 265.703125 581.398438 268.921875 C 580.84375 272.140625 580.511719 275.582031 580.398438 279.246094 C 580.398438 288.460938 581.066406 295.066406 582.402344 299.0625 C 583.734375 303.058594 585.847656 306.28125 588.738281 308.722656 C 591.40625 310.722656 594.351562 311.71875 597.574219 311.71875 C 603.246094 311.71875 607.582031 309.609375 610.582031 305.390625 C 612.027344 303.394531 613.03125 300.894531 613.585938 297.898438 C 614.140625 294.902344 614.417969 289.074219 614.417969 280.414062 C 614.417969 271.53125 614.140625 265.59375 613.585938 262.59375 C 613.03125 259.597656 612.027344 257.097656 610.582031 255.101562 C 607.582031 251.105469 603.578125 249.105469 598.578125 249.105469 Z M 598.578125 249.105469 " fill-opacity="1" fill-rule="nonzero"/></g><g clip-path="url(#8b40c05832)"><path fill="#000000" d="M 614.417969 494.234375 C 609.082031 502.671875 602.410156 506.890625 594.40625 506.890625 C 585.734375 506.890625 578.621094 503.613281 573.0625 497.0625 C 567.503906 490.515625 564.167969 483.519531 563.054688 476.082031 C 562.832031 474.304688 562.722656 472.085938 562.722656 469.421875 L 562.722656 468.089844 C 562.722656 457.761719 566.558594 448.769531 574.230469 441.109375 C 580.898438 434.449219 588.238281 431.121094 596.242188 431.121094 C 596.464844 431.121094 596.796875 431.121094 597.242188 431.121094 C 597.6875 431.121094 598.132812 431.175781 598.578125 431.285156 L 599.242188 431.285156 C 600.578125 431.285156 601.96875 431.398438 603.414062 431.617188 C 604.859375 431.839844 606.914062 432.507812 609.582031 433.617188 C 612.25 434.726562 614.863281 436.503906 617.421875 438.945312 C 619.976562 441.386719 622.367188 444.664062 624.589844 448.769531 C 629.371094 458.539062 631.761719 471.085938 631.761719 486.40625 C 631.761719 501.949219 628.425781 515.105469 621.757812 525.871094 C 617.867188 532.089844 613.195312 536.917969 607.75 540.359375 C 602.300781 543.800781 596.519531 545.578125 590.40625 545.691406 C 583.625 545.691406 578.066406 544.078125 573.730469 540.859375 C 569.394531 537.640625 567.167969 532.867188 567.058594 526.539062 C 566.945312 520.210938 569.894531 517.101562 575.898438 517.214844 C 578.34375 517.214844 580.398438 517.992188 582.066406 519.546875 C 583.734375 521.097656 584.570312 523.265625 584.570312 526.039062 C 584.570312 528.039062 584.066406 529.757812 583.066406 531.203125 C 582.066406 532.644531 581.175781 533.53125 580.398438 533.867188 C 579.621094 534.199219 578.898438 534.476562 578.230469 534.699219 L 577.5625 534.867188 C 577.5625 535.085938 577.953125 535.421875 578.730469 535.863281 C 579.511719 536.308594 580.957031 536.863281 583.066406 537.53125 C 585.179688 538.195312 587.515625 538.472656 590.070312 538.363281 L 591.070312 538.363281 C 597.742188 538.363281 603.355469 534.808594 607.914062 527.703125 C 612.25 521.488281 614.417969 510.71875 614.417969 495.398438 Z M 596.410156 500.726562 C 601.746094 500.726562 606.023438 498.007812 609.25 492.566406 C 612.472656 487.128906 614.140625 479.746094 614.253906 470.417969 C 614.253906 461.761719 613.808594 455.542969 612.917969 451.769531 C 612.695312 450.660156 612.363281 449.546875 611.917969 448.4375 C 611.472656 447.328125 610.695312 445.886719 609.582031 444.109375 C 608.472656 442.332031 606.804688 440.832031 604.578125 439.613281 C 602.355469 438.390625 599.742188 437.835938 596.742188 437.945312 C 592.515625 437.945312 588.902344 439.445312 585.902344 442.441406 C 583.566406 444.886719 582.066406 447.773438 581.398438 451.101562 C 580.734375 454.433594 580.34375 460.261719 580.234375 468.585938 C 580.234375 477.800781 580.511719 484.019531 581.066406 487.238281 C 581.621094 490.457031 582.734375 493.066406 584.402344 495.066406 C 587.179688 498.839844 591.183594 500.726562 596.410156 500.726562 Z M 596.410156 500.726562 " fill-opacity="1" fill-rule="nonzero"/></g><path fill="#000000" d="M 539.042969 391.152344 L 655.777344 391.152344 L 655.777344 381.160156 L 539.042969 381.160156 Z M 539.042969 391.152344 " fill-opacity="1" fill-rule="nonzero"/></svg>