<svg xmlns="http://www.w3.org/2000/svg" xmlns:xlink="http://www.w3.org/1999/xlink" width="1000" zoomAndPan="magnify" viewBox="0 0 750 749.999995" height="1000" preserveAspectRatio="xMidYMid meet" version="1.0"><defs><clipPath id="48b9c0deed"><path d="M 273 325.5 L 333 325.5 L 333 424.5 L 273 424.5 Z M 273 325.5 " clip-rule="nonzero"/></clipPath><clipPath id="258ed08c8f"><path d="M 344 325.5 L 405 325.5 L 405 424.5 L 344 424.5 Z M 344 325.5 " clip-rule="nonzero"/></clipPath><clipPath id="2a0f9fc7da"><path d="M 416 325.5 L 477 325.5 L 477 424.5 L 416 424.5 Z M 416 325.5 " clip-rule="nonzero"/></clipPath></defs><rect x="-75" width="900" fill="#ffffff" y="-74.999999" height="899.999994" fill-opacity="1"/><rect x="-75" width="900" fill="#ffffff" y="-74.999999" height="899.999994" fill-opacity="1"/><g clip-path="url(#48b9c0deed)"><path fill="#000000" d="M 277.128906 361.328125 C 277.128906 361.328125 277.128906 357.636719 277.128906 350.25 C 277.128906 342.863281 279.71875 336.914062 284.890625 332.40625 C 290.066406 327.898438 296.007812 325.597656 302.714844 325.5 C 309.515625 325.5 315.554688 327.515625 320.824219 331.542969 C 326.09375 335.574219 328.730469 340.800781 328.730469 347.226562 C 328.730469 350.105469 328.203125 352.792969 327.148438 355.285156 C 326.09375 357.78125 324.847656 359.796875 323.410156 361.328125 C 321.972656 362.863281 320.488281 364.207031 318.957031 365.359375 C 317.421875 366.511719 316.175781 367.375 315.21875 367.949219 C 314.261719 368.523438 313.734375 368.910156 313.636719 369.101562 L 315.648438 370.394531 C 316.992188 371.355469 318.332031 372.3125 319.671875 373.273438 C 321.015625 374.234375 321.78125 374.761719 321.972656 374.855469 C 329.160156 380.515625 332.753906 387.664062 332.753906 396.296875 C 332.753906 403.875 329.972656 410.445312 324.417969 416.011719 C 318.859375 421.574219 311.671875 424.402344 302.859375 424.5 C 294.234375 424.5 287.144531 422.054688 281.585938 417.160156 C 276.027344 412.269531 273.25 406.226562 273.25 399.03125 C 273.25 388.671875 279.429688 380.035156 291.789062 373.128906 L 289.203125 371.257812 C 287.191406 370.011719 285.898438 369.050781 285.324219 368.378906 C 279.863281 363.679688 277.128906 357.636719 277.128906 350.25 Z M 308.175781 365.789062 L 309.039062 365.214844 C 309.613281 364.832031 310.042969 364.542969 310.332031 364.351562 C 310.617188 364.160156 311.097656 363.824219 311.769531 363.34375 C 312.441406 362.863281 313.015625 362.386719 313.492188 361.90625 C 313.972656 361.425781 314.5 360.851562 315.074219 360.179688 C 315.648438 359.507812 316.175781 358.882812 316.65625 358.308594 C 317.132812 357.734375 317.613281 356.964844 318.09375 356.003906 C 318.570312 355.046875 319.003906 354.230469 319.386719 353.558594 C 319.769531 352.886719 320.007812 351.929688 320.105469 350.683594 C 320.199219 349.433594 320.296875 348.378906 320.390625 347.515625 C 320.390625 343.390625 319.003906 339.890625 316.222656 337.011719 C 313.445312 334.132812 310.234375 332.3125 306.59375 331.542969 C 305.925781 331.449219 304.34375 331.398438 301.851562 331.398438 C 297.921875 331.398438 294.234375 332.648438 290.785156 335.140625 C 287.335938 337.636719 285.5625 340.753906 285.464844 344.496094 C 285.464844 346.699219 286.089844 348.714844 287.335938 350.539062 C 288.582031 352.359375 289.828125 353.75 291.070312 354.710938 C 292.316406 355.671875 294.714844 357.203125 298.257812 359.316406 C 298.929688 359.796875 299.457031 360.128906 299.839844 360.324219 Z M 303 418.3125 C 308.558594 418.3125 313.351562 416.683594 317.375 413.421875 C 321.398438 410.160156 323.410156 406.226562 323.410156 401.621094 C 323.410156 399.988281 323.171875 398.453125 322.691406 397.015625 C 322.214844 395.578125 321.636719 394.378906 320.96875 393.417969 C 320.296875 392.460938 319.242188 391.402344 317.804688 390.253906 C 316.367188 389.101562 315.265625 388.238281 314.5 387.664062 C 313.734375 387.085938 312.34375 386.175781 310.332031 384.929688 C 308.320312 383.683594 307.027344 382.867188 306.449219 382.484375 C 305.109375 381.621094 303.671875 380.707031 302.140625 379.75 C 300.605469 378.789062 299.359375 377.972656 298.402344 377.300781 L 297.253906 376.582031 C 296.675781 376.582031 295.289062 377.398438 293.085938 379.027344 C 290.878906 380.660156 288.582031 383.296875 286.183594 386.941406 C 283.789062 390.589844 282.542969 394.523438 282.449219 398.742188 C 282.449219 404.402344 284.507812 409.054688 288.628906 412.699219 C 292.75 416.347656 297.539062 418.214844 303 418.3125 Z M 303 418.3125 " fill-opacity="1" fill-rule="nonzero"/></g><g clip-path="url(#258ed08c8f)"><path fill="#000000" d="M 389.523438 380.035156 C 384.925781 387.328125 379.175781 390.972656 372.277344 390.972656 C 364.804688 390.972656 358.671875 388.140625 353.878906 382.484375 C 349.089844 376.824219 346.214844 370.777344 345.257812 364.351562 C 345.066406 362.816406 344.96875 360.898438 344.96875 358.597656 L 344.96875 357.445312 C 344.96875 348.523438 348.277344 340.753906 354.886719 334.132812 C 360.636719 328.378906 366.960938 325.5 373.859375 325.5 C 374.050781 325.5 374.339844 325.5 374.722656 325.5 C 375.105469 325.5 375.488281 325.546875 375.871094 325.644531 L 376.445312 325.644531 C 377.597656 325.644531 378.792969 325.738281 380.039062 325.933594 C 381.285156 326.125 383.058594 326.699219 385.355469 327.660156 C 387.65625 328.617188 389.910156 330.152344 392.113281 332.261719 C 394.316406 334.375 396.375 337.203125 398.292969 340.753906 C 402.414062 349.195312 404.472656 360.035156 404.472656 373.273438 C 404.472656 386.703125 401.597656 398.070312 395.847656 407.375 C 392.496094 412.75 388.472656 416.921875 383.777344 419.894531 C 379.082031 422.871094 374.097656 424.402344 368.828125 424.5 C 362.984375 424.5 358.191406 423.109375 354.457031 420.328125 C 350.71875 417.546875 348.800781 413.421875 348.707031 407.953125 C 348.609375 402.484375 351.148438 399.796875 356.324219 399.894531 C 358.433594 399.894531 360.203125 400.566406 361.640625 401.910156 C 363.078125 403.25 363.796875 405.121094 363.796875 407.519531 C 363.796875 409.246094 363.367188 410.734375 362.503906 411.980469 C 361.640625 413.226562 360.875 413.996094 360.203125 414.285156 C 359.535156 414.570312 358.910156 414.8125 358.335938 415.003906 L 357.761719 415.148438 C 357.761719 415.339844 358.097656 415.625 358.765625 416.011719 C 359.4375 416.394531 360.683594 416.875 362.503906 417.449219 C 364.324219 418.023438 366.335938 418.265625 368.539062 418.167969 L 369.402344 418.167969 C 375.152344 418.167969 379.992188 415.097656 383.917969 408.960938 C 387.65625 403.585938 389.523438 394.28125 389.523438 381.042969 Z M 374.003906 385.648438 C 378.601562 385.648438 382.289062 383.296875 385.070312 378.597656 C 387.847656 373.898438 389.285156 367.515625 389.382812 359.460938 C 389.382812 351.976562 389 346.605469 388.230469 343.34375 C 388.039062 342.382812 387.753906 341.425781 387.371094 340.464844 C 386.984375 339.503906 386.316406 338.257812 385.355469 336.722656 C 384.398438 335.1875 382.960938 333.894531 381.046875 332.839844 C 379.128906 331.785156 376.878906 331.304688 374.289062 331.398438 C 370.648438 331.398438 367.535156 332.695312 364.949219 335.285156 C 362.9375 337.394531 361.640625 339.890625 361.066406 342.765625 C 360.492188 345.644531 360.15625 350.683594 360.0625 357.875 C 360.0625 365.839844 360.300781 371.210938 360.78125 373.992188 C 361.257812 376.773438 362.21875 379.027344 363.652344 380.753906 C 366.050781 384.015625 369.5 385.648438 374.003906 385.648438 Z M 374.003906 385.648438 " fill-opacity="1" fill-rule="nonzero"/></g><g clip-path="url(#2a0f9fc7da)"><path fill="#000000" d="M 424.59375 337.15625 C 429.960938 329.386719 437.289062 325.5 446.585938 325.5 C 451.183594 325.5 455.785156 326.746094 460.382812 329.242188 C 464.980469 331.734375 468.71875 336.148438 471.59375 342.480469 C 475.136719 350.441406 476.910156 361.378906 476.910156 375.289062 C 476.910156 390.15625 474.851562 401.523438 470.730469 409.390625 C 468.816406 413.421875 466.179688 416.632812 462.824219 419.03125 C 459.472656 421.429688 456.550781 422.917969 454.058594 423.492188 C 451.566406 424.066406 449.125 424.402344 446.730469 424.5 C 444.238281 424.5 441.746094 424.210938 439.253906 423.636719 C 436.761719 423.0625 433.839844 421.527344 430.488281 419.03125 C 427.132812 416.539062 424.5 413.324219 422.582031 409.390625 C 418.460938 401.523438 416.402344 390.15625 416.402344 375.289062 C 416.402344 358.597656 419.132812 345.886719 424.59375 337.15625 Z M 456.933594 335.429688 C 454.058594 332.359375 450.65625 330.824219 446.730469 330.824219 C 442.703125 330.824219 439.253906 332.359375 436.378906 335.429688 C 433.984375 337.921875 432.402344 341.375 431.636719 345.789062 C 430.871094 350.203125 430.488281 359.410156 430.488281 373.417969 C 430.488281 388.574219 430.871094 398.550781 431.636719 403.347656 C 432.402344 408.144531 434.128906 411.933594 436.8125 414.714844 C 439.496094 417.59375 442.800781 419.03125 446.730469 419.03125 C 450.5625 419.03125 453.820312 417.59375 456.503906 414.714844 C 459.28125 411.835938 461.003906 407.808594 461.675781 402.628906 C 462.347656 397.449219 462.730469 387.710938 462.824219 373.417969 C 462.824219 359.507812 462.441406 350.347656 461.675781 345.933594 C 460.910156 341.519531 459.328125 338.019531 456.933594 335.429688 Z M 456.933594 335.429688 " fill-opacity="1" fill-rule="nonzero"/></g></svg>