<svg xmlns="http://www.w3.org/2000/svg" xmlns:xlink="http://www.w3.org/1999/xlink" width="1000" zoomAndPan="magnify" viewBox="0 0 750 749.999995" height="1000" preserveAspectRatio="xMidYMid meet" version="1.0"><defs><clipPath id="715af15e1d"><path d="M 191 352 L 231 352 L 231 418.269531 L 191 418.269531 Z M 191 352 " clip-rule="nonzero"/></clipPath><clipPath id="6ddf51cfeb"><path d="M 265 352 L 305 352 L 305 418.269531 L 265 418.269531 Z M 265 352 " clip-rule="nonzero"/></clipPath><clipPath id="c21d16f3a6"><path d="M 476 352 L 517 352 L 517 418.269531 L 476 418.269531 Z M 476 352 " clip-rule="nonzero"/></clipPath><clipPath id="b3e6211797"><path d="M 527 331.730469 L 555 331.730469 L 555 377 L 527 377 Z M 527 331.730469 " clip-rule="nonzero"/></clipPath></defs><rect x="-75" width="900" fill="#ffffff" y="-74.999999" height="899.999994" fill-opacity="1"/><rect x="-75" width="900" fill="#ffffff" y="-74.999999" height="899.999994" fill-opacity="1"/><g clip-path="url(#715af15e1d)"><path fill="#000000" d="M 194.164062 376.328125 C 194.164062 376.328125 194.164062 373.882812 194.164062 368.996094 C 194.164062 364.105469 195.875 360.167969 199.300781 357.183594 C 202.726562 354.199219 206.664062 352.675781 211.105469 352.613281 C 215.609375 352.613281 219.605469 353.945312 223.097656 356.613281 C 226.585938 359.277344 228.332031 362.738281 228.332031 366.996094 C 228.332031 368.898438 227.980469 370.675781 227.285156 372.328125 C 226.585938 373.980469 225.761719 375.3125 224.808594 376.328125 C 223.859375 377.34375 222.875 378.234375 221.859375 378.996094 C 220.84375 379.757812 220.019531 380.328125 219.382812 380.710938 C 218.75 381.089844 218.402344 381.34375 218.335938 381.472656 L 219.667969 382.328125 C 220.558594 382.964844 221.445312 383.597656 222.335938 384.234375 C 223.222656 384.871094 223.730469 385.21875 223.859375 385.28125 C 228.617188 389.027344 230.996094 393.757812 230.996094 399.472656 C 230.996094 404.492188 229.15625 408.839844 225.476562 412.523438 C 221.796875 416.207031 217.035156 418.078125 211.199219 418.144531 C 205.488281 418.144531 200.792969 416.523438 197.113281 413.285156 C 193.433594 410.046875 191.59375 406.046875 191.59375 401.285156 C 191.59375 394.425781 195.683594 388.710938 203.871094 384.140625 L 202.15625 382.902344 C 200.824219 382.074219 199.96875 381.441406 199.585938 380.996094 C 195.972656 377.882812 194.164062 373.882812 194.164062 368.996094 Z M 214.71875 379.28125 L 215.292969 378.902344 C 215.671875 378.644531 215.957031 378.457031 216.148438 378.328125 C 216.339844 378.203125 216.65625 377.980469 217.101562 377.664062 C 217.542969 377.34375 217.925781 377.027344 218.242188 376.710938 C 218.558594 376.390625 218.910156 376.011719 219.289062 375.566406 C 219.667969 375.121094 220.019531 374.710938 220.335938 374.328125 C 220.652344 373.949219 220.96875 373.441406 221.289062 372.804688 C 221.605469 372.167969 221.890625 371.628906 222.144531 371.183594 C 222.398438 370.742188 222.558594 370.105469 222.621094 369.28125 C 222.683594 368.453125 222.746094 367.757812 222.8125 367.183594 C 222.8125 364.453125 221.890625 362.136719 220.050781 360.230469 C 218.210938 358.328125 216.085938 357.121094 213.671875 356.613281 C 213.230469 356.546875 212.183594 356.515625 210.53125 356.515625 C 207.929688 356.515625 205.488281 357.34375 203.203125 358.992188 C 200.921875 360.644531 199.746094 362.707031 199.683594 365.183594 C 199.683594 366.644531 200.09375 367.980469 200.921875 369.183594 C 201.746094 370.390625 202.570312 371.3125 203.394531 371.945312 C 204.21875 372.582031 205.804688 373.597656 208.152344 374.996094 C 208.597656 375.3125 208.945312 375.535156 209.199219 375.660156 Z M 211.292969 414.046875 C 214.972656 414.046875 218.148438 412.96875 220.8125 410.808594 C 223.476562 408.648438 224.808594 406.046875 224.808594 403 C 224.808594 401.917969 224.652344 400.902344 224.332031 399.949219 C 224.015625 398.996094 223.636719 398.203125 223.191406 397.570312 C 222.746094 396.933594 222.050781 396.234375 221.097656 395.472656 C 220.144531 394.710938 219.414062 394.140625 218.910156 393.757812 C 218.402344 393.378906 217.480469 392.773438 216.148438 391.949219 C 214.816406 391.125 213.960938 390.585938 213.578125 390.332031 C 212.691406 389.757812 211.738281 389.15625 210.722656 388.519531 C 209.707031 387.886719 208.882812 387.347656 208.25 386.902344 L 207.488281 386.425781 C 207.105469 386.425781 206.1875 386.964844 204.726562 388.042969 C 203.269531 389.125 201.746094 390.871094 200.160156 393.28125 C 198.570312 395.695312 197.746094 398.300781 197.683594 401.09375 C 197.683594 404.839844 199.046875 407.917969 201.777344 410.332031 C 204.503906 412.746094 207.675781 413.984375 211.292969 414.046875 Z M 211.292969 414.046875 " fill-opacity="1" fill-rule="nonzero"/></g><path fill="#000000" d="M 242.511719 410.332031 C 242.511719 408.808594 243.050781 407.476562 244.128906 406.332031 C 245.207031 405.1875 246.574219 404.617188 248.222656 404.617188 C 249.746094 404.617188 251.078125 405.125 252.21875 406.140625 C 253.363281 407.15625 253.964844 408.523438 254.027344 410.238281 C 254.027344 411.824219 253.488281 413.191406 252.410156 414.332031 C 251.332031 415.476562 249.96875 416.046875 248.316406 416.046875 C 246.667969 416.046875 245.304688 415.507812 244.226562 414.429688 C 243.148438 413.347656 242.574219 411.984375 242.511719 410.332031 Z M 242.511719 410.332031 " fill-opacity="1" fill-rule="nonzero"/><g clip-path="url(#6ddf51cfeb)"><path fill="#000000" d="M 295.050781 388.710938 C 292.003906 393.535156 288.195312 395.949219 283.628906 395.949219 C 278.679688 395.949219 274.617188 394.078125 271.445312 390.332031 C 268.273438 386.582031 266.371094 382.582031 265.734375 378.328125 C 265.609375 377.3125 265.546875 376.042969 265.546875 374.519531 L 265.546875 373.757812 C 265.546875 367.851562 267.734375 362.707031 272.113281 358.328125 C 275.917969 354.515625 280.105469 352.613281 284.675781 352.613281 C 284.800781 352.613281 284.992188 352.613281 285.246094 352.613281 C 285.5 352.613281 285.753906 352.644531 286.007812 352.707031 L 286.390625 352.707031 C 287.148438 352.707031 287.945312 352.769531 288.769531 352.898438 C 289.59375 353.023438 290.765625 353.40625 292.289062 354.039062 C 293.8125 354.675781 295.304688 355.691406 296.761719 357.089844 C 298.222656 358.484375 299.585938 360.359375 300.855469 362.707031 C 303.585938 368.296875 304.949219 375.472656 304.949219 384.234375 C 304.949219 393.125 303.042969 400.648438 299.238281 406.808594 C 297.015625 410.363281 294.351562 413.125 291.242188 415.09375 C 288.132812 417.0625 284.835938 418.078125 281.34375 418.144531 C 277.472656 418.144531 274.300781 417.222656 271.828125 415.378906 C 269.351562 413.539062 268.082031 410.808594 268.019531 407.1875 C 267.957031 403.570312 269.636719 401.792969 273.0625 401.855469 C 274.460938 401.855469 275.632812 402.300781 276.585938 403.1875 C 277.539062 404.078125 278.011719 405.316406 278.011719 406.902344 C 278.011719 408.046875 277.726562 409.03125 277.15625 409.855469 C 276.585938 410.683594 276.078125 411.191406 275.632812 411.378906 C 275.191406 411.570312 274.777344 411.730469 274.398438 411.855469 L 274.015625 411.953125 C 274.015625 412.078125 274.238281 412.269531 274.683594 412.523438 C 275.125 412.777344 275.949219 413.09375 277.15625 413.476562 C 278.363281 413.855469 279.695312 414.015625 281.152344 413.953125 L 281.726562 413.953125 C 285.53125 413.953125 288.738281 411.921875 291.339844 407.855469 C 293.8125 404.300781 295.050781 398.140625 295.050781 389.378906 Z M 284.769531 392.425781 C 287.816406 392.425781 290.257812 390.871094 292.097656 387.757812 C 293.941406 384.648438 294.890625 380.425781 294.953125 375.089844 C 294.953125 370.136719 294.699219 366.582031 294.191406 364.421875 C 294.066406 363.789062 293.875 363.152344 293.621094 362.519531 C 293.367188 361.882812 292.925781 361.058594 292.289062 360.042969 C 291.65625 359.023438 290.703125 358.167969 289.433594 357.46875 C 288.164062 356.769531 286.675781 356.453125 284.960938 356.515625 C 282.550781 356.515625 280.488281 357.375 278.773438 359.089844 C 277.441406 360.484375 276.585938 362.136719 276.203125 364.042969 C 275.824219 365.945312 275.601562 369.28125 275.539062 374.042969 C 275.539062 379.3125 275.699219 382.871094 276.015625 384.710938 C 276.332031 386.550781 276.964844 388.042969 277.917969 389.1875 C 279.503906 391.347656 281.789062 392.425781 284.769531 392.425781 Z M 284.769531 392.425781 " fill-opacity="1" fill-rule="nonzero"/></g><path fill="#000000" d="M 390.246094 413.285156 C 390.246094 414.554688 389.578125 415.191406 388.246094 415.191406 C 387.929688 415.191406 387.230469 414.683594 386.152344 413.667969 C 385.074219 412.648438 382.09375 409.699219 377.207031 404.808594 L 367.308594 394.902344 L 357.316406 404.902344 C 350.589844 411.507812 347.128906 414.871094 346.941406 415 C 346.6875 415.125 346.464844 415.191406 346.273438 415.191406 C 345.765625 415.191406 345.324219 415 344.941406 414.617188 C 344.5625 414.238281 344.339844 413.792969 344.277344 413.285156 C 344.277344 412.839844 344.71875 412.140625 345.609375 411.191406 C 346.496094 410.238281 349.476562 407.222656 354.554688 402.140625 L 364.453125 392.234375 L 354.554688 382.328125 C 349.414062 377.1875 346.433594 374.167969 345.609375 373.28125 C 344.78125 372.390625 344.339844 371.691406 344.277344 371.183594 C 344.277344 370.613281 344.464844 370.167969 344.847656 369.851562 C 345.226562 369.535156 345.703125 369.375 346.273438 369.375 C 346.589844 369.375 346.8125 369.40625 346.941406 369.472656 C 347.128906 369.597656 350.589844 372.964844 357.316406 379.566406 L 367.308594 389.566406 L 377.207031 379.664062 C 382.09375 374.773438 385.074219 371.820312 386.152344 370.804688 C 387.230469 369.789062 387.929688 369.28125 388.246094 369.28125 C 389.578125 369.28125 390.246094 369.914062 390.246094 371.183594 C 390.246094 371.628906 389.929688 372.203125 389.292969 372.898438 C 388.660156 373.597656 385.550781 376.710938 379.964844 382.234375 L 370.066406 392.234375 L 379.964844 402.238281 C 385.296875 407.570312 388.34375 410.648438 389.105469 411.476562 C 389.863281 412.300781 390.246094 412.90625 390.246094 413.285156 Z M 390.246094 413.285156 " fill-opacity="1" fill-rule="nonzero"/><path fill="#000000" d="M 445.753906 360.992188 L 444.515625 361.46875 C 443.628906 361.789062 442.359375 362.105469 440.707031 362.421875 C 439.058594 362.738281 437.21875 362.960938 435.1875 363.089844 L 433.378906 363.089844 L 433.378906 358.707031 L 435.1875 358.707031 C 438.171875 358.582031 440.929688 358.105469 443.46875 357.277344 C 446.007812 356.453125 447.785156 355.691406 448.796875 354.992188 C 449.8125 354.292969 450.703125 353.597656 451.464844 352.898438 C 451.589844 352.707031 451.972656 352.613281 452.605469 352.613281 C 453.175781 352.613281 453.714844 352.800781 454.222656 353.183594 L 454.222656 381.664062 L 454.320312 410.238281 C 454.761719 410.683594 455.144531 410.96875 455.460938 411.09375 C 455.777344 411.222656 456.539062 411.347656 457.746094 411.476562 C 458.949219 411.601562 460.917969 411.667969 463.644531 411.667969 L 466.121094 411.667969 L 466.121094 416.046875 L 465.074219 416.046875 C 463.742188 415.855469 458.695312 415.761719 449.941406 415.761719 C 441.3125 415.761719 436.332031 415.855469 434.996094 416.046875 L 433.855469 416.046875 L 433.855469 411.667969 L 436.332031 411.667969 C 437.726562 411.667969 438.933594 411.667969 439.945312 411.667969 C 440.960938 411.667969 441.753906 411.632812 442.328125 411.570312 C 442.898438 411.507812 443.40625 411.410156 443.847656 411.285156 C 444.292969 411.15625 444.546875 411.09375 444.609375 411.09375 C 444.675781 411.09375 444.863281 410.9375 445.183594 410.617188 C 445.5 410.300781 445.691406 410.175781 445.753906 410.238281 Z M 445.753906 360.992188 " fill-opacity="1" fill-rule="nonzero"/><g clip-path="url(#c21d16f3a6)"><path fill="#000000" d="M 482.207031 360.328125 C 485.757812 355.183594 490.613281 352.613281 496.769531 352.613281 C 499.8125 352.613281 502.859375 353.4375 505.90625 355.089844 C 508.949219 356.738281 511.425781 359.660156 513.328125 363.851562 C 515.675781 369.121094 516.851562 376.359375 516.851562 385.566406 C 516.851562 395.410156 515.484375 402.933594 512.757812 408.140625 C 511.488281 410.808594 509.742188 412.9375 507.523438 414.523438 C 505.300781 416.109375 503.367188 417.09375 501.71875 417.476562 C 500.066406 417.855469 498.449219 418.078125 496.863281 418.144531 C 495.214844 418.144531 493.5625 417.953125 491.914062 417.570312 C 490.265625 417.191406 488.328125 416.175781 486.109375 414.523438 C 483.886719 412.871094 482.140625 410.746094 480.875 408.140625 C 478.144531 402.933594 476.78125 395.410156 476.78125 385.566406 C 476.78125 374.519531 478.589844 366.105469 482.207031 360.328125 Z M 503.621094 359.183594 C 501.71875 357.152344 499.464844 356.136719 496.863281 356.136719 C 494.199219 356.136719 491.914062 357.152344 490.011719 359.183594 C 488.425781 360.835938 487.378906 363.121094 486.871094 366.042969 C 486.363281 368.960938 486.109375 375.058594 486.109375 384.328125 C 486.109375 394.363281 486.363281 400.964844 486.871094 404.140625 C 487.378906 407.316406 488.519531 409.824219 490.296875 411.667969 C 492.074219 413.570312 494.261719 414.523438 496.863281 414.523438 C 499.402344 414.523438 501.558594 413.570312 503.335938 411.667969 C 505.175781 409.761719 506.316406 407.09375 506.761719 403.664062 C 507.207031 400.234375 507.460938 393.792969 507.523438 384.328125 C 507.523438 375.121094 507.269531 369.058594 506.761719 366.136719 C 506.253906 363.214844 505.207031 360.898438 503.621094 359.183594 Z M 503.621094 359.183594 " fill-opacity="1" fill-rule="nonzero"/></g><g clip-path="url(#b3e6211797)"><path fill="#000000" d="M 531.132812 347.820312 C 529.921875 347.820312 528.957031 347.417969 528.238281 346.609375 C 527.523438 345.800781 527.164062 344.8125 527.164062 343.644531 C 527.164062 340.457031 528.351562 337.695312 530.730469 335.363281 C 533.105469 333.027344 536.066406 331.859375 539.609375 331.859375 C 543.695312 331.859375 547.101562 333.117188 549.839844 335.632812 C 552.574219 338.144531 553.964844 341.402344 554.011719 345.394531 C 554.011719 347.328125 553.5625 349.167969 552.664062 350.917969 C 551.769531 352.667969 550.691406 354.195312 549.4375 355.496094 C 548.179688 356.800781 546.386719 358.460938 544.050781 360.480469 C 542.4375 361.871094 540.195312 363.9375 537.324219 366.675781 L 533.351562 370.445312 L 538.46875 370.515625 C 545.511719 370.515625 549.257812 370.402344 549.703125 370.175781 C 550.019531 370.085938 550.558594 368.089844 551.320312 364.183594 L 551.320312 363.980469 L 554.011719 363.980469 L 554.011719 364.183594 C 553.964844 364.320312 553.675781 366.363281 553.136719 370.3125 C 552.597656 374.261719 552.261719 376.328125 552.128906 376.507812 L 552.128906 376.710938 L 527.164062 376.710938 L 527.164062 374.621094 C 527.164062 374.308594 527.296875 373.972656 527.566406 373.613281 C 527.835938 373.253906 528.507812 372.46875 529.585938 371.253906 C 530.886719 369.820312 532.007812 368.5625 532.949219 367.484375 C 533.351562 367.035156 534.117188 366.203125 535.238281 364.992188 C 536.359375 363.78125 537.121094 362.949219 537.523438 362.5 C 537.929688 362.050781 538.578125 361.3125 539.476562 360.277344 C 540.375 359.246094 541 358.484375 541.359375 357.988281 C 541.71875 357.496094 542.234375 356.820312 542.910156 355.96875 C 543.582031 355.117188 544.050781 354.398438 544.320312 353.8125 C 544.589844 353.230469 544.925781 352.578125 545.332031 351.859375 C 545.734375 351.140625 546.027344 350.425781 546.207031 349.707031 C 546.386719 348.988281 546.542969 348.3125 546.675781 347.6875 C 546.8125 347.058594 546.878906 346.316406 546.878906 345.464844 C 546.878906 342.636719 546.117188 340.1875 544.589844 338.125 C 543.066406 336.058594 540.890625 335.027344 538.0625 335.027344 C 536.582031 335.027344 535.28125 335.40625 534.160156 336.171875 C 533.039062 336.933594 532.253906 337.675781 531.804688 338.394531 C 531.355469 339.109375 531.132812 339.539062 531.132812 339.671875 C 531.132812 339.71875 531.246094 339.738281 531.46875 339.738281 C 532.277344 339.738281 533.105469 340.054688 533.957031 340.683594 C 534.8125 341.3125 535.238281 342.34375 535.238281 343.78125 C 535.238281 344.902344 534.878906 345.84375 534.160156 346.609375 C 533.441406 347.371094 532.433594 347.777344 531.132812 347.820312 Z M 531.132812 347.820312 " fill-opacity="1" fill-rule="nonzero"/></g></svg>