<svg xmlns="http://www.w3.org/2000/svg" xmlns:xlink="http://www.w3.org/1999/xlink" width="1000" zoomAndPan="magnify" viewBox="0 0 750 749.999995" height="1000" preserveAspectRatio="xMidYMid meet" version="1.0"><defs><clipPath id="385ed8f31b"><path d="M 82 340 L 102 340 L 102 420.96875 L 82 420.96875 Z M 82 340 " clip-rule="nonzero"/></clipPath><clipPath id="bffd6fcd71"><path d="M 474 329.03125 L 499 329.03125 L 499 369 L 474 369 Z M 474 329.03125 " clip-rule="nonzero"/></clipPath><clipPath id="b07d0dd732"><path d="M 509 340 L 529 340 L 529 420.96875 L 509 420.96875 Z M 509 340 " clip-rule="nonzero"/></clipPath></defs><rect x="-75" width="900" fill="#ffffff" y="-74.999999" height="899.999994" fill-opacity="1"/><rect x="-75" width="900" fill="#ffffff" y="-74.999999" height="899.999994" fill-opacity="1"/><g clip-path="url(#385ed8f31b)"><path fill="#000000" d="M 82.585938 380.371094 C 82.585938 376.660156 82.855469 373.140625 83.394531 369.804688 C 83.933594 366.46875 84.550781 363.59375 85.25 361.171875 C 85.949219 358.753906 86.945312 356.386719 88.238281 354.074219 C 89.53125 351.761719 90.550781 349.960938 91.304688 348.667969 C 92.058594 347.378906 93.1875 345.980469 94.695312 344.472656 C 96.203125 342.96875 97.089844 342.054688 97.359375 341.730469 C 97.628906 341.40625 98.300781 340.84375 99.378906 340.035156 L 100.75 340.035156 C 101.503906 340.035156 101.878906 340.277344 101.878906 340.761719 C 101.878906 340.925781 101.421875 341.488281 100.507812 342.457031 C 99.59375 343.425781 98.488281 344.851562 97.199219 346.730469 C 95.90625 348.613281 94.585938 350.925781 93.242188 353.671875 C 91.898438 356.414062 90.765625 360.125 89.851562 364.804688 C 88.9375 369.480469 88.480469 374.671875 88.480469 380.371094 C 88.480469 386.074219 88.9375 391.238281 89.851562 395.863281 C 90.765625 400.488281 91.871094 404.226562 93.160156 407.074219 C 94.453125 409.925781 95.773438 412.238281 97.117188 414.011719 C 98.460938 415.789062 99.59375 417.214844 100.507812 418.289062 C 101.421875 419.363281 101.878906 419.929688 101.878906 419.984375 C 101.878906 420.46875 101.476562 420.710938 100.667969 420.710938 L 99.378906 420.710938 L 97.117188 418.773438 C 92.058594 414.203125 88.371094 408.5 86.058594 401.671875 C 83.746094 394.839844 82.585938 387.742188 82.585938 380.371094 Z M 82.585938 380.371094 " fill-opacity="1" fill-rule="nonzero"/></g><path fill="#000000" d="M 114.148438 353.347656 C 117.164062 348.992188 121.277344 346.8125 126.5 346.8125 C 129.082031 346.8125 131.664062 347.511719 134.246094 348.910156 C 136.832031 350.308594 138.929688 352.78125 140.542969 356.332031 C 142.535156 360.796875 143.53125 366.925781 143.53125 374.726562 C 143.53125 383.0625 142.375 389.433594 140.058594 393.84375 C 138.984375 396.105469 137.503906 397.90625 135.621094 399.25 C 133.738281 400.59375 132.09375 401.429688 130.695312 401.75 C 129.296875 402.074219 127.925781 402.261719 126.578125 402.316406 C 125.179688 402.316406 123.78125 402.15625 122.382812 401.832031 C 120.984375 401.507812 119.339844 400.648438 117.457031 399.25 C 115.574219 397.851562 114.09375 396.050781 113.019531 393.84375 C 110.703125 389.433594 109.546875 383.0625 109.546875 374.726562 C 109.546875 365.367188 111.082031 358.242188 114.148438 353.347656 Z M 132.308594 352.378906 C 130.695312 350.660156 128.785156 349.796875 126.578125 349.796875 C 124.320312 349.796875 122.382812 350.660156 120.769531 352.378906 C 119.421875 353.777344 118.535156 355.714844 118.105469 358.1875 C 117.671875 360.660156 117.457031 365.824219 117.457031 373.675781 C 117.457031 382.175781 117.671875 387.769531 118.105469 390.457031 C 118.535156 393.144531 119.503906 395.269531 121.011719 396.828125 C 122.515625 398.445312 124.375 399.25 126.578125 399.25 C 128.730469 399.25 130.5625 398.445312 132.066406 396.828125 C 133.628906 395.214844 134.597656 392.957031 134.972656 390.054688 C 135.351562 387.148438 135.566406 381.691406 135.621094 373.675781 C 135.621094 365.878906 135.40625 360.742188 134.972656 358.269531 C 134.542969 355.792969 133.65625 353.832031 132.308594 352.378906 Z M 132.308594 352.378906 " fill-opacity="1" fill-rule="nonzero"/><path fill="#000000" d="M 153.054688 395.699219 C 153.054688 394.410156 153.511719 393.28125 154.425781 392.3125 C 155.34375 391.34375 156.5 390.859375 157.898438 390.859375 C 159.191406 390.859375 160.320312 391.289062 161.289062 392.152344 C 162.257812 393.011719 162.769531 394.167969 162.820312 395.621094 C 162.820312 396.964844 162.363281 398.121094 161.449219 399.089844 C 160.535156 400.058594 159.378906 400.539062 157.980469 400.539062 C 156.578125 400.539062 155.421875 400.082031 154.507812 399.167969 C 153.59375 398.253906 153.109375 397.097656 153.054688 395.699219 Z M 153.054688 395.699219 " fill-opacity="1" fill-rule="nonzero"/><path fill="#000000" d="M 206.492188 400.539062 C 205.523438 400.378906 202.050781 400.300781 196.078125 400.300781 C 189.835938 400.300781 186.230469 400.378906 185.261719 400.539062 L 184.535156 400.539062 L 184.535156 396.828125 L 187.039062 396.828125 C 188.113281 396.828125 188.839844 396.828125 189.21875 396.828125 C 189.59375 396.828125 190.050781 396.777344 190.589844 396.667969 C 191.128906 396.5625 191.503906 396.425781 191.71875 396.265625 C 191.933594 396.105469 192.125 395.890625 192.285156 395.621094 C 192.339844 395.511719 192.367188 394.058594 192.367188 391.261719 L 192.367188 387.230469 L 171.460938 387.230469 L 171.460938 383.519531 L 183.648438 364.882812 C 191.882812 352.40625 196.050781 346.140625 196.160156 346.085938 C 196.265625 345.980469 196.832031 345.925781 197.855469 345.925781 L 199.308594 345.925781 L 199.792969 346.410156 L 199.792969 383.519531 L 207.21875 383.519531 L 207.21875 387.230469 L 199.792969 387.230469 L 199.792969 391.34375 C 199.792969 393.550781 199.792969 394.839844 199.792969 395.214844 C 199.792969 395.59375 199.953125 395.914062 200.277344 396.183594 C 200.707031 396.5625 202.238281 396.777344 204.875 396.828125 L 207.21875 396.828125 L 207.21875 400.539062 Z M 192.847656 383.519531 L 192.847656 356.574219 L 175.171875 383.4375 L 183.96875 383.519531 Z M 192.847656 383.519531 " fill-opacity="1" fill-rule="nonzero"/><path fill="#000000" d="M 246.851562 400.539062 C 245.882812 400.378906 242.410156 400.300781 236.4375 400.300781 C 230.195312 400.300781 226.589844 400.378906 225.621094 400.539062 L 224.894531 400.539062 L 224.894531 396.828125 L 227.398438 396.828125 C 228.472656 396.828125 229.199219 396.828125 229.578125 396.828125 C 229.953125 396.828125 230.410156 396.777344 230.949219 396.667969 C 231.488281 396.5625 231.863281 396.425781 232.078125 396.265625 C 232.292969 396.105469 232.484375 395.890625 232.644531 395.621094 C 232.699219 395.511719 232.726562 394.058594 232.726562 391.261719 L 232.726562 387.230469 L 211.820312 387.230469 L 211.820312 383.519531 L 224.007812 364.882812 C 232.242188 352.40625 236.410156 346.140625 236.519531 346.085938 C 236.625 345.980469 237.191406 345.925781 238.214844 345.925781 L 239.667969 345.925781 L 240.152344 346.410156 L 240.152344 383.519531 L 247.578125 383.519531 L 247.578125 387.230469 L 240.152344 387.230469 L 240.152344 391.34375 C 240.152344 393.550781 240.152344 394.839844 240.152344 395.214844 C 240.152344 395.59375 240.3125 395.914062 240.636719 396.183594 C 241.066406 396.5625 242.597656 396.777344 245.234375 396.828125 L 247.578125 396.828125 L 247.578125 400.539062 Z M 233.210938 383.519531 L 233.210938 356.574219 L 215.53125 383.4375 L 224.328125 383.519531 Z M 233.210938 383.519531 " fill-opacity="1" fill-rule="nonzero"/><path fill="#000000" d="M 263.15625 387.875 C 263.15625 389.167969 262.726562 390.242188 261.863281 391.101562 C 261.003906 391.960938 259.953125 392.394531 258.714844 392.394531 L 258.152344 392.394531 C 260.625 396.640625 263.910156 398.765625 268 398.765625 C 271.765625 398.765625 274.511719 397.152344 276.230469 393.925781 C 277.253906 392.152344 277.765625 388.710938 277.765625 383.601562 C 277.765625 378.058594 277.039062 374.324219 275.585938 372.386719 C 274.1875 370.613281 272.625 369.722656 270.90625 369.722656 L 270.421875 369.722656 C 266.222656 369.722656 263.046875 371.550781 260.894531 375.210938 C 260.679688 375.585938 260.492188 375.800781 260.332031 375.855469 C 260.167969 375.910156 259.765625 375.960938 259.121094 376.015625 C 258.203125 376.015625 257.695312 375.855469 257.585938 375.53125 C 257.480469 375.316406 257.425781 370.613281 257.425781 361.414062 L 257.425781 351.007812 C 257.425781 348.320312 257.558594 346.972656 257.828125 346.972656 C 257.9375 346.867188 258.042969 346.8125 258.152344 346.8125 C 258.203125 346.8125 258.769531 347.027344 259.847656 347.457031 C 260.921875 347.890625 262.402344 348.320312 264.285156 348.75 C 266.167969 349.179688 268.1875 349.394531 270.339844 349.394531 C 274.160156 349.394531 277.820312 348.640625 281.316406 347.136719 C 281.746094 346.921875 282.097656 346.8125 282.367188 346.8125 C 282.796875 346.8125 283.011719 347.296875 283.011719 348.265625 L 283.011719 349.3125 C 278.601562 354.53125 273.085938 357.140625 266.464844 357.140625 C 264.796875 357.140625 263.289062 356.976562 261.945312 356.65625 L 261.136719 356.492188 L 261.136719 370.371094 C 262.160156 369.617188 262.96875 369.023438 263.558594 368.59375 C 264.152344 368.164062 265.121094 367.734375 266.464844 367.304688 C 267.8125 366.875 269.183594 366.660156 270.582031 366.660156 C 274.941406 366.660156 278.625 368.40625 281.640625 371.902344 C 284.652344 375.398438 286.160156 379.539062 286.160156 384.324219 C 286.160156 389.273438 284.4375 393.496094 280.996094 396.992188 C 277.550781 400.488281 273.351562 402.261719 268.402344 402.316406 C 264.042969 402.316406 260.546875 400.863281 257.910156 397.960938 C 255.273438 395.054688 253.953125 391.773438 253.953125 388.117188 C 253.953125 386.828125 254.25 385.804688 254.839844 385.050781 C 255.433594 384.300781 256.050781 383.816406 256.699219 383.601562 C 257.34375 383.382812 257.960938 383.277344 258.554688 383.277344 C 259.898438 383.277344 261.003906 383.734375 261.863281 384.648438 C 262.726562 385.5625 263.15625 386.636719 263.15625 387.875 Z M 263.15625 387.875 " fill-opacity="1" fill-rule="nonzero"/><path fill="#000000" d="M 359.066406 398.203125 C 359.066406 399.277344 358.5 399.816406 357.371094 399.816406 C 357.101562 399.816406 356.511719 399.382812 355.59375 398.523438 C 354.679688 397.664062 352.152344 395.164062 348.007812 391.023438 L 339.613281 382.632812 L 331.136719 391.101562 C 325.433594 396.695312 322.5 399.546875 322.339844 399.652344 C 322.125 399.761719 321.933594 399.816406 321.773438 399.816406 C 321.34375 399.816406 320.964844 399.652344 320.644531 399.332031 C 320.320312 399.007812 320.132812 398.632812 320.078125 398.203125 C 320.078125 397.824219 320.457031 397.234375 321.207031 396.425781 C 321.960938 395.621094 324.492188 393.066406 328.796875 388.761719 L 337.191406 380.371094 L 328.796875 371.984375 C 324.4375 367.625 321.910156 365.070312 321.207031 364.320312 C 320.507812 363.566406 320.132812 362.972656 320.078125 362.542969 C 320.078125 362.058594 320.238281 361.683594 320.5625 361.414062 C 320.886719 361.144531 321.289062 361.011719 321.773438 361.011719 C 322.042969 361.011719 322.230469 361.039062 322.339844 361.09375 C 322.5 361.199219 325.433594 364.050781 331.136719 369.644531 L 339.613281 378.113281 L 348.007812 369.722656 C 352.152344 365.582031 354.679688 363.082031 355.59375 362.222656 C 356.511719 361.359375 357.101562 360.929688 357.371094 360.929688 C 358.5 360.929688 359.066406 361.46875 359.066406 362.542969 C 359.066406 362.921875 358.796875 363.40625 358.257812 363.996094 C 357.71875 364.589844 355.082031 367.222656 350.347656 371.902344 L 341.953125 380.371094 L 350.347656 388.84375 C 354.867188 393.359375 357.453125 395.96875 358.097656 396.667969 C 358.742188 397.367188 359.066406 397.878906 359.066406 398.203125 Z M 359.066406 398.203125 " fill-opacity="1" fill-rule="nonzero"/><path fill="#000000" d="M 406.140625 353.914062 L 405.09375 354.316406 C 404.339844 354.585938 403.261719 354.851562 401.863281 355.121094 C 400.464844 355.390625 398.902344 355.578125 397.179688 355.6875 L 395.648438 355.6875 L 395.648438 351.976562 L 397.179688 351.976562 C 399.710938 351.867188 402.050781 351.464844 404.203125 350.765625 C 406.355469 350.066406 407.863281 349.421875 408.722656 348.828125 C 409.585938 348.238281 410.339844 347.648438 410.984375 347.054688 C 411.09375 346.894531 411.414062 346.8125 411.953125 346.8125 C 412.4375 346.8125 412.894531 346.972656 413.324219 347.296875 L 413.324219 371.417969 L 413.40625 395.621094 C 413.78125 395.996094 414.105469 396.238281 414.375 396.347656 C 414.644531 396.453125 415.289062 396.5625 416.3125 396.667969 C 417.335938 396.777344 419.003906 396.828125 421.316406 396.828125 L 423.414062 396.828125 L 423.414062 400.539062 L 422.527344 400.539062 C 421.398438 400.378906 417.117188 400.300781 409.691406 400.300781 C 402.375 400.300781 398.148438 400.378906 397.019531 400.539062 L 396.050781 400.539062 L 396.050781 396.828125 L 398.148438 396.828125 C 399.332031 396.828125 400.355469 396.828125 401.21875 396.828125 C 402.078125 396.828125 402.75 396.804688 403.234375 396.75 C 403.71875 396.695312 404.148438 396.613281 404.527344 396.507812 C 404.902344 396.398438 405.117188 396.347656 405.171875 396.347656 C 405.226562 396.347656 405.386719 396.210938 405.65625 395.941406 C 405.925781 395.671875 406.085938 395.566406 406.140625 395.621094 Z M 406.140625 353.914062 " fill-opacity="1" fill-rule="nonzero"/><path fill="#000000" d="M 437.054688 353.347656 C 440.070312 348.992188 444.1875 346.8125 449.40625 346.8125 C 451.988281 346.8125 454.574219 347.511719 457.15625 348.910156 C 459.738281 350.308594 461.835938 352.78125 463.453125 356.332031 C 465.441406 360.796875 466.4375 366.925781 466.4375 374.726562 C 466.4375 383.0625 465.28125 389.433594 462.96875 393.84375 C 461.890625 396.105469 460.410156 397.90625 458.527344 399.25 C 456.644531 400.59375 455.003906 401.429688 453.605469 401.75 C 452.203125 402.074219 450.832031 402.261719 449.488281 402.316406 C 448.089844 402.316406 446.6875 402.15625 445.289062 401.832031 C 443.890625 401.507812 442.25 400.648438 440.367188 399.25 C 438.484375 397.851562 437.003906 396.050781 435.925781 393.84375 C 433.613281 389.433594 432.457031 383.0625 432.457031 374.726562 C 432.457031 365.367188 433.988281 358.242188 437.054688 353.347656 Z M 455.21875 352.378906 C 453.605469 350.660156 451.695312 349.796875 449.488281 349.796875 C 447.226562 349.796875 445.289062 350.660156 443.675781 352.378906 C 442.332031 353.777344 441.441406 355.714844 441.011719 358.1875 C 440.582031 360.660156 440.367188 365.824219 440.367188 373.675781 C 440.367188 382.175781 440.582031 387.769531 441.011719 390.457031 C 441.441406 393.144531 442.410156 395.269531 443.917969 396.828125 C 445.425781 398.445312 447.28125 399.25 449.488281 399.25 C 451.640625 399.25 453.46875 398.445312 454.976562 396.828125 C 456.535156 395.214844 457.503906 392.957031 457.882812 390.054688 C 458.257812 387.148438 458.472656 381.691406 458.527344 373.675781 C 458.527344 365.878906 458.3125 360.742188 457.882812 358.269531 C 457.453125 355.792969 456.5625 353.832031 455.21875 352.378906 Z M 455.21875 352.378906 " fill-opacity="1" fill-rule="nonzero"/><g clip-path="url(#bffd6fcd71)"><path fill="#000000" d="M 479.578125 340.816406 C 478.550781 340.816406 477.753906 340.492188 477.179688 339.847656 C 476.609375 339.199219 476.304688 338.363281 476.269531 337.335938 C 476.269531 335.246094 477.179688 333.382812 479.007812 331.746094 C 480.832031 330.113281 483.039062 329.292969 485.628906 329.292969 C 486.960938 329.292969 487.796875 329.3125 488.136719 329.351562 C 490.953125 329.808594 493.105469 330.816406 494.585938 332.375 C 496.070312 333.933594 496.832031 335.625 496.871094 337.449219 C 496.871094 339.429688 496.222656 341.347656 494.929688 343.210938 C 493.636719 345.074219 491.847656 346.425781 489.566406 347.261719 L 489.394531 347.375 C 489.394531 347.414062 489.566406 347.46875 489.90625 347.546875 C 490.25 347.621094 490.800781 347.792969 491.5625 348.058594 C 492.324219 348.324219 493.046875 348.726562 493.730469 349.257812 C 496.851562 351.273438 498.410156 353.933594 498.410156 357.242188 C 498.410156 360.246094 497.230469 362.871094 494.871094 365.113281 C 492.515625 367.355469 489.527344 368.476562 485.914062 368.476562 C 482.871094 368.476562 480.246094 367.660156 478.039062 366.027344 C 475.832031 364.390625 474.726562 362.316406 474.726562 359.808594 C 474.726562 358.742188 475.070312 357.886719 475.753906 357.242188 C 476.441406 356.59375 477.296875 356.253906 478.324219 356.214844 C 479.386719 356.214844 480.261719 356.558594 480.949219 357.242188 C 481.632812 357.925781 481.976562 358.78125 481.976562 359.808594 C 481.976562 360.226562 481.917969 360.605469 481.804688 360.949219 C 481.691406 361.292969 481.558594 361.59375 481.40625 361.863281 C 481.253906 362.128906 481.042969 362.355469 480.777344 362.546875 C 480.511719 362.738281 480.28125 362.886719 480.09375 363.003906 C 479.902344 363.117188 479.710938 363.191406 479.519531 363.230469 C 479.332031 363.269531 479.179688 363.324219 479.066406 363.402344 L 478.835938 363.457031 C 480.777344 365.167969 483.136719 366.027344 485.914062 366.027344 C 488.003906 366.027344 489.585938 365.019531 490.648438 363.003906 C 491.296875 361.746094 491.621094 359.828125 491.621094 357.242188 L 491.621094 356.101562 C 491.621094 352.488281 490.402344 350.074219 487.96875 348.859375 C 487.398438 348.628906 486.234375 348.496094 484.484375 348.457031 L 482.089844 348.402344 L 481.917969 348.289062 C 481.84375 348.171875 481.804688 347.867188 481.804688 347.375 C 481.804688 346.691406 481.957031 346.347656 482.261719 346.347656 C 483.324219 346.347656 484.429688 346.253906 485.570312 346.0625 C 486.863281 345.871094 488.042969 345.074219 489.109375 343.667969 C 490.175781 342.261719 490.707031 340.132812 490.707031 337.28125 L 490.707031 336.824219 C 490.707031 334.65625 490.039062 333.152344 488.710938 332.316406 C 487.871094 331.785156 486.976562 331.519531 486.027344 331.519531 C 484.808594 331.519531 483.6875 331.726562 482.660156 332.144531 C 481.632812 332.566406 480.910156 333 480.492188 333.457031 C 480.074219 333.914062 479.863281 334.144531 479.863281 334.144531 L 480.035156 334.144531 C 480.148438 334.179688 480.300781 334.21875 480.492188 334.257812 C 480.683594 334.292969 480.871094 334.390625 481.0625 334.542969 C 481.253906 334.695312 481.480469 334.828125 481.746094 334.941406 C 482.011719 335.054688 482.203125 335.265625 482.316406 335.570312 C 482.433594 335.871094 482.582031 336.15625 482.773438 336.425781 C 482.964844 336.691406 483.019531 337.070312 482.945312 337.566406 C 482.945312 338.402344 482.679688 339.144531 482.144531 339.789062 C 481.613281 340.433594 480.757812 340.777344 479.578125 340.816406 Z M 479.578125 340.816406 " fill-opacity="1" fill-rule="nonzero"/></g><g clip-path="url(#b07d0dd732)"><path fill="#000000" d="M 509.753906 340.117188 L 510.074219 340.035156 C 510.34375 340.035156 510.613281 340.035156 510.882812 340.035156 L 511.851562 340.035156 L 514.109375 341.972656 C 519.167969 346.542969 522.855469 352.246094 525.167969 359.074219 C 527.484375 365.90625 528.640625 373.003906 528.640625 380.371094 C 528.640625 384.03125 528.371094 387.550781 527.832031 390.941406 C 527.296875 394.328125 526.675781 397.207031 525.976562 399.574219 C 525.277344 401.9375 524.28125 404.304688 522.988281 406.671875 C 521.699219 409.039062 520.675781 410.839844 519.921875 412.078125 C 519.167969 413.3125 518.066406 414.683594 516.613281 416.191406 C 515.160156 417.699219 514.300781 418.585938 514.03125 418.855469 C 513.761719 419.121094 513.140625 419.632812 512.171875 420.386719 C 512.011719 420.546875 511.90625 420.65625 511.851562 420.710938 L 510.882812 420.710938 C 510.453125 420.710938 510.15625 420.710938 509.996094 420.710938 C 509.832031 420.710938 509.699219 420.628906 509.589844 420.46875 C 509.484375 420.304688 509.402344 420.0625 509.347656 419.742188 C 509.402344 419.6875 509.699219 419.335938 510.238281 418.691406 C 518.578125 410.035156 522.746094 397.261719 522.746094 380.371094 C 522.746094 363.484375 518.578125 350.710938 510.238281 342.054688 C 509.699219 341.40625 509.402344 341.058594 509.347656 341.003906 C 509.347656 340.574219 509.484375 340.277344 509.753906 340.117188 Z M 509.753906 340.117188 " fill-opacity="1" fill-rule="nonzero"/></g><path fill="#000000" d="M 605.097656 398.203125 C 605.097656 399.277344 604.53125 399.816406 603.402344 399.816406 C 603.132812 399.816406 602.542969 399.382812 601.625 398.523438 C 600.710938 397.664062 598.183594 395.164062 594.039062 391.023438 L 585.644531 382.632812 L 577.167969 391.101562 C 571.464844 396.695312 568.53125 399.546875 568.371094 399.652344 C 568.15625 399.761719 567.964844 399.816406 567.804688 399.816406 C 567.375 399.816406 566.996094 399.652344 566.675781 399.332031 C 566.351562 399.007812 566.164062 398.632812 566.109375 398.203125 C 566.109375 397.824219 566.488281 397.234375 567.238281 396.425781 C 567.992188 395.621094 570.523438 393.066406 574.828125 388.761719 L 583.222656 380.371094 L 574.828125 371.984375 C 570.46875 367.625 567.941406 365.070312 567.238281 364.320312 C 566.539062 363.566406 566.164062 362.972656 566.109375 362.542969 C 566.109375 362.058594 566.269531 361.683594 566.59375 361.414062 C 566.917969 361.144531 567.320312 361.011719 567.804688 361.011719 C 568.074219 361.011719 568.261719 361.039062 568.371094 361.09375 C 568.53125 361.199219 571.464844 364.050781 577.167969 369.644531 L 585.644531 378.113281 L 594.039062 369.722656 C 598.183594 365.582031 600.710938 363.082031 601.625 362.222656 C 602.542969 361.359375 603.132812 360.929688 603.402344 360.929688 C 604.53125 360.929688 605.097656 361.46875 605.097656 362.542969 C 605.097656 362.921875 604.828125 363.40625 604.289062 363.996094 C 603.75 364.589844 601.113281 367.222656 596.378906 371.902344 L 587.984375 380.371094 L 596.378906 388.84375 C 600.898438 393.359375 603.484375 395.96875 604.128906 396.667969 C 604.773438 397.367188 605.097656 397.878906 605.097656 398.203125 Z M 605.097656 398.203125 " fill-opacity="1" fill-rule="nonzero"/><path fill="#000000" d="M 643.777344 365.933594 C 642.324219 365.933594 641.167969 365.449219 640.308594 364.480469 C 639.445312 363.511719 639.015625 362.328125 639.015625 360.929688 C 639.015625 357.113281 640.441406 353.804688 643.292969 351.007812 C 646.144531 348.210938 649.695312 346.8125 653.949219 346.8125 C 658.84375 346.8125 662.933594 348.320312 666.21875 351.332031 C 669.5 354.34375 671.167969 358.242188 671.222656 363.027344 C 671.222656 365.339844 670.683594 367.546875 669.609375 369.644531 C 668.53125 371.742188 667.238281 373.570312 665.734375 375.128906 C 664.226562 376.6875 662.074219 378.679688 659.277344 381.097656 C 657.339844 382.765625 654.648438 385.238281 651.203125 388.519531 L 646.441406 393.039062 L 652.574219 393.117188 C 661.023438 393.117188 665.519531 392.984375 666.054688 392.714844 C 666.433594 392.609375 667.078125 390.214844 667.992188 385.535156 L 667.992188 385.292969 L 671.222656 385.292969 L 671.222656 385.535156 C 671.167969 385.695312 670.820312 388.144531 670.171875 392.878906 C 669.527344 397.609375 669.125 400.082031 668.960938 400.300781 L 668.960938 400.539062 L 639.015625 400.539062 L 639.015625 398.039062 C 639.015625 397.664062 639.175781 397.261719 639.5 396.828125 C 639.824219 396.398438 640.628906 395.457031 641.921875 394.007812 C 643.480469 392.285156 644.828125 390.78125 645.957031 389.488281 C 646.441406 388.949219 647.355469 387.957031 648.703125 386.503906 C 650.046875 385.050781 650.960938 384.058594 651.445312 383.519531 C 651.929688 382.980469 652.710938 382.09375 653.785156 380.855469 C 654.863281 379.621094 655.617188 378.707031 656.046875 378.113281 C 656.476562 377.523438 657.097656 376.714844 657.902344 375.695312 C 658.710938 374.671875 659.277344 373.8125 659.597656 373.113281 C 659.921875 372.414062 660.324219 371.632812 660.808594 370.773438 C 661.292969 369.914062 661.644531 369.050781 661.859375 368.191406 C 662.074219 367.332031 662.261719 366.523438 662.421875 365.769531 C 662.585938 365.019531 662.664062 364.128906 662.664062 363.109375 C 662.664062 359.71875 661.75 356.789062 659.921875 354.316406 C 658.089844 351.839844 655.480469 350.605469 652.089844 350.605469 C 650.316406 350.605469 648.753906 351.0625 647.410156 351.976562 C 646.066406 352.890625 645.121094 353.777344 644.585938 354.636719 C 644.046875 355.5 643.777344 356.007812 643.777344 356.171875 C 643.777344 356.226562 643.910156 356.25 644.179688 356.25 C 645.148438 356.25 646.144531 356.628906 647.167969 357.382812 C 648.191406 358.132812 648.703125 359.371094 648.703125 361.09375 C 648.703125 362.4375 648.269531 363.566406 647.410156 364.480469 C 646.550781 365.394531 645.339844 365.878906 643.777344 365.933594 Z M 643.777344 365.933594 " fill-opacity="1" fill-rule="nonzero"/></svg>