<svg xmlns="http://www.w3.org/2000/svg" xmlns:xlink="http://www.w3.org/1999/xlink" width="1000" zoomAndPan="magnify" viewBox="0 0 750 749.999995" height="1000" preserveAspectRatio="xMidYMid meet" version="1.0"><defs><clipPath id="d7bdcdac0d"><path d="M 45 340 L 65 340 L 65 420.804688 L 45 420.804688 Z M 45 340 " clip-rule="nonzero"/></clipPath><clipPath id="9c8f9f549a"><path d="M 512 329.195312 L 539 329.195312 L 539 368 L 512 368 Z M 512 329.195312 " clip-rule="nonzero"/></clipPath><clipPath id="4cbfa6b58b"><path d="M 548 340 L 568 340 L 568 420.804688 L 548 420.804688 Z M 548 340 " clip-rule="nonzero"/></clipPath></defs><rect x="-75" width="900" fill="#ffffff" y="-74.999999" height="899.999994" fill-opacity="1"/><rect x="-75" width="900" fill="#ffffff" y="-74.999999" height="899.999994" fill-opacity="1"/><g clip-path="url(#d7bdcdac0d)"><path fill="#000000" d="M 45.023438 380.667969 C 45.023438 376.988281 45.289062 373.496094 45.820312 370.1875 C 46.355469 366.882812 46.96875 364.027344 47.664062 361.628906 C 48.355469 359.226562 49.34375 356.882812 50.621094 354.589844 C 51.902344 352.292969 52.917969 350.507812 53.664062 349.226562 C 54.410156 347.949219 55.53125 346.5625 57.023438 345.066406 C 58.519531 343.574219 59.398438 342.667969 59.664062 342.347656 C 59.933594 342.027344 60.597656 341.46875 61.664062 340.667969 L 63.027344 340.667969 C 63.773438 340.667969 64.144531 340.910156 64.144531 341.386719 C 64.144531 341.546875 63.691406 342.109375 62.785156 343.066406 C 61.878906 344.027344 60.785156 345.441406 59.503906 347.308594 C 58.226562 349.175781 56.917969 351.46875 55.585938 354.1875 C 54.25 356.90625 53.128906 360.589844 52.222656 365.226562 C 51.316406 369.867188 50.863281 375.015625 50.863281 380.667969 C 50.863281 386.320312 51.316406 391.441406 52.222656 396.027344 C 53.128906 400.613281 54.222656 404.320312 55.503906 407.148438 C 56.785156 409.972656 58.089844 412.269531 59.425781 414.027344 C 60.757812 415.789062 61.878906 417.199219 62.785156 418.269531 C 63.691406 419.335938 64.144531 419.894531 64.144531 419.949219 C 64.144531 420.425781 63.746094 420.667969 62.945312 420.667969 L 61.664062 420.667969 L 59.425781 418.746094 C 54.410156 414.214844 50.757812 408.5625 48.460938 401.789062 C 46.167969 395.015625 45.023438 387.972656 45.023438 380.667969 Z M 45.023438 380.667969 " fill-opacity="1" fill-rule="nonzero"/></g><path fill="#000000" d="M 76.308594 353.867188 C 79.296875 349.546875 83.378906 347.386719 88.550781 347.386719 C 91.113281 347.386719 93.671875 348.082031 96.234375 349.46875 C 98.792969 350.855469 100.875 353.308594 102.476562 356.828125 C 104.449219 361.253906 105.433594 367.335938 105.433594 375.066406 C 105.433594 383.335938 104.289062 389.65625 101.996094 394.027344 C 100.925781 396.269531 99.460938 398.054688 97.59375 399.386719 C 95.726562 400.722656 94.097656 401.546875 92.710938 401.867188 C 91.324219 402.1875 89.964844 402.375 88.632812 402.429688 C 87.246094 402.429688 85.859375 402.269531 84.46875 401.949219 C 83.082031 401.628906 81.457031 400.773438 79.589844 399.386719 C 77.722656 398 76.253906 396.214844 75.1875 394.027344 C 72.894531 389.65625 71.746094 383.335938 71.746094 375.066406 C 71.746094 365.789062 73.269531 358.722656 76.308594 353.867188 Z M 94.3125 352.90625 C 92.710938 351.203125 90.820312 350.347656 88.632812 350.347656 C 86.390625 350.347656 84.46875 351.203125 82.871094 352.90625 C 81.535156 354.292969 80.65625 356.214844 80.230469 358.667969 C 79.804688 361.121094 79.589844 366.242188 79.589844 374.027344 C 79.589844 382.453125 79.804688 388 80.230469 390.667969 C 80.65625 393.335938 81.617188 395.441406 83.109375 396.988281 C 84.605469 398.585938 86.445312 399.386719 88.632812 399.386719 C 90.765625 399.386719 92.578125 398.585938 94.074219 396.988281 C 95.621094 395.386719 96.578125 393.148438 96.953125 390.269531 C 97.328125 387.386719 97.539062 381.976562 97.59375 374.027344 C 97.59375 366.292969 97.378906 361.203125 96.953125 358.75 C 96.527344 356.292969 95.644531 354.347656 94.3125 352.90625 Z M 94.3125 352.90625 " fill-opacity="1" fill-rule="nonzero"/><path fill="#000000" d="M 114.878906 395.867188 C 114.878906 394.585938 115.332031 393.46875 116.238281 392.507812 C 117.144531 391.546875 118.292969 391.066406 119.679688 391.066406 C 120.957031 391.066406 122.078125 391.496094 123.039062 392.347656 C 124 393.203125 124.507812 394.347656 124.558594 395.789062 C 124.558594 397.121094 124.105469 398.269531 123.199219 399.226562 C 122.292969 400.1875 121.144531 400.667969 119.757812 400.667969 C 118.371094 400.667969 117.226562 400.214844 116.316406 399.308594 C 115.410156 398.402344 114.929688 397.253906 114.878906 395.867188 Z M 114.878906 395.867188 " fill-opacity="1" fill-rule="nonzero"/><path fill="#000000" d="M 138.5625 353.867188 C 141.550781 349.546875 145.632812 347.386719 150.804688 347.386719 C 153.367188 347.386719 155.925781 348.082031 158.488281 349.46875 C 161.046875 350.855469 163.128906 353.308594 164.730469 356.828125 C 166.703125 361.253906 167.6875 367.335938 167.6875 375.066406 C 167.6875 383.335938 166.542969 389.65625 164.25 394.027344 C 163.183594 396.269531 161.714844 398.054688 159.847656 399.386719 C 157.980469 400.722656 156.355469 401.546875 154.964844 401.867188 C 153.578125 402.1875 152.21875 402.375 150.886719 402.429688 C 149.5 402.429688 148.113281 402.269531 146.726562 401.949219 C 145.335938 401.628906 143.710938 400.773438 141.84375 399.386719 C 139.976562 398 138.507812 396.214844 137.441406 394.027344 C 135.148438 389.65625 134 383.335938 134 375.066406 C 134 365.789062 135.523438 358.722656 138.5625 353.867188 Z M 156.566406 352.90625 C 154.964844 351.203125 153.074219 350.347656 150.886719 350.347656 C 148.644531 350.347656 146.726562 351.203125 145.125 352.90625 C 143.789062 354.292969 142.910156 356.214844 142.484375 358.667969 C 142.058594 361.121094 141.84375 366.242188 141.84375 374.027344 C 141.84375 382.453125 142.058594 388 142.484375 390.667969 C 142.910156 393.335938 143.871094 395.441406 145.363281 396.988281 C 146.859375 398.585938 148.699219 399.386719 150.886719 399.386719 C 153.019531 399.386719 154.832031 398.585938 156.328125 396.988281 C 157.875 395.386719 158.835938 393.148438 159.207031 390.269531 C 159.582031 387.386719 159.792969 381.976562 159.847656 374.027344 C 159.847656 366.292969 159.632812 361.203125 159.207031 358.75 C 158.78125 356.292969 157.902344 354.347656 156.566406 352.90625 Z M 156.566406 352.90625 " fill-opacity="1" fill-rule="nonzero"/><path fill="#000000" d="M 179.613281 366.347656 C 178.171875 366.347656 177.023438 365.867188 176.171875 364.90625 C 175.316406 363.949219 174.890625 362.773438 174.890625 361.386719 C 174.890625 357.601562 176.304688 354.320312 179.132812 351.546875 C 181.960938 348.773438 185.480469 347.386719 189.695312 347.386719 C 194.546875 347.386719 198.601562 348.882812 201.855469 351.867188 C 205.109375 354.855469 206.765625 358.722656 206.816406 363.46875 C 206.816406 365.761719 206.285156 367.949219 205.21875 370.027344 C 204.152344 372.109375 202.871094 373.921875 201.378906 375.46875 C 199.882812 377.015625 197.75 378.988281 194.976562 381.386719 C 193.054688 383.042969 190.386719 385.496094 186.972656 388.746094 L 182.253906 393.226562 L 188.335938 393.308594 C 196.710938 393.308594 201.164062 393.175781 201.695312 392.90625 C 202.070312 392.800781 202.710938 390.429688 203.617188 385.789062 L 203.617188 385.546875 L 206.816406 385.546875 L 206.816406 385.789062 C 206.765625 385.949219 206.417969 388.375 205.777344 393.066406 C 205.136719 397.761719 204.738281 400.214844 204.578125 400.429688 L 204.578125 400.667969 L 174.890625 400.667969 L 174.890625 398.1875 C 174.890625 397.816406 175.050781 397.414062 175.371094 396.988281 C 175.691406 396.5625 176.492188 395.628906 177.773438 394.1875 C 179.320312 392.480469 180.652344 390.988281 181.773438 389.707031 C 182.253906 389.175781 183.160156 388.1875 184.492188 386.746094 C 185.828125 385.308594 186.734375 384.320312 187.214844 383.789062 C 187.695312 383.253906 188.46875 382.375 189.535156 381.148438 C 190.601562 379.921875 191.347656 379.015625 191.773438 378.429688 C 192.203125 377.839844 192.816406 377.042969 193.617188 376.027344 C 194.414062 375.015625 194.976562 374.160156 195.296875 373.46875 C 195.617188 372.773438 196.015625 372 196.496094 371.148438 C 196.976562 370.292969 197.324219 369.441406 197.535156 368.589844 C 197.75 367.734375 197.9375 366.933594 198.097656 366.1875 C 198.257812 365.441406 198.335938 364.5625 198.335938 363.546875 C 198.335938 360.1875 197.429688 357.28125 195.617188 354.828125 C 193.800781 352.375 191.214844 351.148438 187.855469 351.148438 C 186.09375 351.148438 184.546875 351.601562 183.214844 352.507812 C 181.878906 353.414062 180.945312 354.292969 180.414062 355.148438 C 179.878906 356 179.613281 356.507812 179.613281 356.667969 C 179.613281 356.722656 179.746094 356.75 180.011719 356.75 C 180.972656 356.75 181.960938 357.121094 182.972656 357.867188 C 183.988281 358.613281 184.492188 359.839844 184.492188 361.546875 C 184.492188 362.882812 184.066406 364 183.214844 364.90625 C 182.359375 365.816406 181.160156 366.292969 179.613281 366.347656 Z M 179.613281 366.347656 " fill-opacity="1" fill-rule="nonzero"/><path fill="#000000" d="M 219.621094 366.347656 C 218.179688 366.347656 217.035156 365.867188 216.179688 364.90625 C 215.328125 363.949219 214.898438 362.773438 214.898438 361.386719 C 214.898438 357.601562 216.3125 354.320312 219.140625 351.546875 C 221.96875 348.773438 225.488281 347.386719 229.703125 347.386719 C 234.558594 347.386719 238.613281 348.882812 241.867188 351.867188 C 245.121094 354.855469 246.773438 358.722656 246.828125 363.46875 C 246.828125 365.761719 246.292969 367.949219 245.226562 370.027344 C 244.160156 372.109375 242.878906 373.921875 241.386719 375.46875 C 239.890625 377.015625 237.757812 378.988281 234.984375 381.386719 C 233.0625 383.042969 230.398438 385.496094 226.984375 388.746094 L 222.261719 393.226562 L 228.34375 393.308594 C 236.71875 393.308594 241.171875 393.175781 241.707031 392.90625 C 242.078125 392.800781 242.71875 390.429688 243.625 385.789062 L 243.625 385.546875 L 246.828125 385.546875 L 246.828125 385.789062 C 246.773438 385.949219 246.425781 388.375 245.785156 393.066406 C 245.148438 397.761719 244.746094 400.214844 244.585938 400.429688 L 244.585938 400.667969 L 214.898438 400.667969 L 214.898438 398.1875 C 214.898438 397.816406 215.058594 397.414062 215.378906 396.988281 C 215.699219 396.5625 216.5 395.628906 217.78125 394.1875 C 219.328125 392.480469 220.660156 390.988281 221.78125 389.707031 C 222.261719 389.175781 223.167969 388.1875 224.503906 386.746094 C 225.835938 385.308594 226.742188 384.320312 227.222656 383.789062 C 227.703125 383.253906 228.476562 382.375 229.542969 381.148438 C 230.609375 379.921875 231.355469 379.015625 231.785156 378.429688 C 232.210938 377.839844 232.824219 377.042969 233.625 376.027344 C 234.425781 375.015625 234.984375 374.160156 235.304688 373.46875 C 235.625 372.773438 236.023438 372 236.503906 371.148438 C 236.984375 370.292969 237.332031 369.441406 237.546875 368.589844 C 237.757812 367.734375 237.945312 366.933594 238.105469 366.1875 C 238.265625 365.441406 238.34375 364.5625 238.34375 363.546875 C 238.34375 360.1875 237.4375 357.28125 235.625 354.828125 C 233.8125 352.375 231.222656 351.148438 227.863281 351.148438 C 226.101562 351.148438 224.554688 351.601562 223.222656 352.507812 C 221.886719 353.414062 220.953125 354.292969 220.421875 355.148438 C 219.886719 356 219.621094 356.507812 219.621094 356.667969 C 219.621094 356.722656 219.753906 356.75 220.019531 356.75 C 220.980469 356.75 221.96875 357.121094 222.980469 357.867188 C 223.996094 358.613281 224.503906 359.839844 224.503906 361.546875 C 224.503906 362.882812 224.074219 364 223.222656 364.90625 C 222.367188 365.816406 221.167969 366.292969 219.621094 366.347656 Z M 219.621094 366.347656 " fill-opacity="1" fill-rule="nonzero"/><path fill="#000000" d="M 259.628906 366.347656 C 258.191406 366.347656 257.042969 365.867188 256.1875 364.90625 C 255.335938 363.949219 254.910156 362.773438 254.910156 361.386719 C 254.910156 357.601562 256.324219 354.320312 259.148438 351.546875 C 261.976562 348.773438 265.5 347.386719 269.710938 347.386719 C 274.566406 347.386719 278.621094 348.882812 281.875 351.867188 C 285.128906 354.855469 286.78125 358.722656 286.835938 363.46875 C 286.835938 365.761719 286.304688 367.949219 285.234375 370.027344 C 284.167969 372.109375 282.890625 373.921875 281.394531 375.46875 C 279.902344 377.015625 277.769531 378.988281 274.992188 381.386719 C 273.074219 383.042969 270.40625 385.496094 266.992188 388.746094 L 262.269531 393.226562 L 268.351562 393.308594 C 276.726562 393.308594 281.183594 393.175781 281.714844 392.90625 C 282.089844 392.800781 282.730469 390.429688 283.636719 385.789062 L 283.636719 385.546875 L 286.835938 385.546875 L 286.835938 385.789062 C 286.78125 385.949219 286.4375 388.375 285.796875 393.066406 C 285.15625 397.761719 284.757812 400.214844 284.597656 400.429688 L 284.597656 400.667969 L 254.910156 400.667969 L 254.910156 398.1875 C 254.910156 397.816406 255.070312 397.414062 255.390625 396.988281 C 255.710938 396.5625 256.507812 395.628906 257.789062 394.1875 C 259.335938 392.480469 260.671875 390.988281 261.789062 389.707031 C 262.269531 389.175781 263.175781 388.1875 264.511719 386.746094 C 265.84375 385.308594 266.75 384.320312 267.230469 383.789062 C 267.710938 383.253906 268.484375 382.375 269.550781 381.148438 C 270.621094 379.921875 271.367188 379.015625 271.792969 378.429688 C 272.21875 377.839844 272.832031 377.042969 273.632812 376.027344 C 274.433594 375.015625 274.992188 374.160156 275.3125 373.46875 C 275.632812 372.773438 276.035156 372 276.515625 371.148438 C 276.992188 370.292969 277.339844 369.441406 277.554688 368.589844 C 277.769531 367.734375 277.953125 366.933594 278.113281 366.1875 C 278.273438 365.441406 278.355469 364.5625 278.355469 363.546875 C 278.355469 360.1875 277.449219 357.28125 275.632812 354.828125 C 273.820312 352.375 271.234375 351.148438 267.871094 351.148438 C 266.113281 351.148438 264.566406 351.601562 263.230469 352.507812 C 261.898438 353.414062 260.964844 354.292969 260.429688 355.148438 C 259.898438 356 259.628906 356.507812 259.628906 356.667969 C 259.628906 356.722656 259.761719 356.75 260.03125 356.75 C 260.992188 356.75 261.976562 357.121094 262.992188 357.867188 C 264.003906 358.613281 264.511719 359.839844 264.511719 361.546875 C 264.511719 362.882812 264.085938 364 263.230469 364.90625 C 262.378906 365.816406 261.175781 366.292969 259.628906 366.347656 Z M 259.628906 366.347656 " fill-opacity="1" fill-rule="nonzero"/><path fill="#000000" d="M 304.039062 388.109375 C 304.039062 389.386719 303.613281 390.453125 302.761719 391.308594 C 301.90625 392.160156 300.867188 392.585938 299.640625 392.585938 L 299.078125 392.585938 C 301.53125 396.800781 304.785156 398.90625 308.839844 398.90625 C 312.574219 398.90625 315.296875 397.308594 317.003906 394.109375 C 318.015625 392.347656 318.523438 388.933594 318.523438 383.867188 C 318.523438 378.375 317.804688 374.667969 316.363281 372.746094 C 314.976562 370.988281 313.429688 370.109375 311.722656 370.109375 L 311.242188 370.109375 C 307.082031 370.109375 303.933594 371.921875 301.800781 375.546875 C 301.585938 375.921875 301.398438 376.132812 301.238281 376.1875 C 301.078125 376.242188 300.679688 376.292969 300.039062 376.347656 C 299.132812 376.347656 298.625 376.1875 298.519531 375.867188 C 298.414062 375.65625 298.359375 370.988281 298.359375 361.867188 L 298.359375 351.546875 C 298.359375 348.882812 298.492188 347.546875 298.757812 347.546875 C 298.867188 347.441406 298.972656 347.386719 299.078125 347.386719 C 299.132812 347.386719 299.691406 347.601562 300.757812 348.027344 C 301.828125 348.453125 303.292969 348.882812 305.160156 349.308594 C 307.027344 349.734375 309.027344 349.949219 311.160156 349.949219 C 314.949219 349.949219 318.578125 349.203125 322.042969 347.707031 C 322.472656 347.496094 322.816406 347.386719 323.085938 347.386719 C 323.511719 347.386719 323.726562 347.867188 323.726562 348.828125 L 323.726562 349.867188 C 319.351562 355.042969 313.882812 357.628906 307.320312 357.628906 C 305.667969 357.628906 304.171875 357.46875 302.839844 357.148438 L 302.039062 356.988281 L 302.039062 370.746094 C 303.054688 370 303.851562 369.414062 304.441406 368.988281 C 305.027344 368.5625 305.988281 368.132812 307.320312 367.707031 C 308.65625 367.28125 310.015625 367.066406 311.402344 367.066406 C 315.722656 367.066406 319.378906 368.800781 322.363281 372.269531 C 325.351562 375.734375 326.84375 379.839844 326.84375 384.589844 C 326.84375 389.496094 325.136719 393.679688 321.722656 397.148438 C 318.308594 400.613281 314.148438 402.375 309.242188 402.429688 C 304.921875 402.429688 301.453125 400.988281 298.839844 398.109375 C 296.226562 395.226562 294.917969 391.972656 294.917969 388.347656 C 294.917969 387.066406 295.210938 386.054688 295.796875 385.308594 C 296.386719 384.5625 297 384.082031 297.640625 383.867188 C 298.277344 383.65625 298.890625 383.546875 299.480469 383.546875 C 300.8125 383.546875 301.90625 384 302.761719 384.90625 C 303.613281 385.816406 304.039062 386.882812 304.039062 388.109375 Z M 304.039062 388.109375 " fill-opacity="1" fill-rule="nonzero"/><path fill="#000000" d="M 399.117188 398.347656 C 399.117188 399.414062 398.558594 399.949219 397.4375 399.949219 C 397.171875 399.949219 396.582031 399.519531 395.675781 398.667969 C 394.769531 397.816406 392.261719 395.335938 388.15625 391.226562 L 379.832031 382.90625 L 371.429688 391.308594 C 365.777344 396.855469 362.871094 399.679688 362.710938 399.789062 C 362.496094 399.894531 362.308594 399.949219 362.148438 399.949219 C 361.722656 399.949219 361.347656 399.789062 361.027344 399.46875 C 360.710938 399.148438 360.523438 398.773438 360.46875 398.347656 C 360.46875 397.972656 360.84375 397.386719 361.589844 396.585938 C 362.335938 395.789062 364.84375 393.253906 369.109375 388.988281 L 377.433594 380.667969 L 369.109375 372.347656 C 364.789062 368.027344 362.28125 365.496094 361.589844 364.75 C 360.894531 364 360.523438 363.414062 360.46875 362.988281 C 360.46875 362.507812 360.628906 362.132812 360.949219 361.867188 C 361.269531 361.601562 361.667969 361.46875 362.148438 361.46875 C 362.417969 361.46875 362.601562 361.496094 362.710938 361.546875 C 362.871094 361.65625 365.777344 364.480469 371.429688 370.027344 L 379.832031 378.429688 L 388.15625 370.109375 C 392.261719 366 394.769531 363.519531 395.675781 362.667969 C 396.582031 361.816406 397.171875 361.386719 397.4375 361.386719 C 398.558594 361.386719 399.117188 361.921875 399.117188 362.988281 C 399.117188 363.363281 398.851562 363.839844 398.316406 364.429688 C 397.785156 365.015625 395.171875 367.628906 390.476562 372.269531 L 382.152344 380.667969 L 390.476562 389.066406 C 394.957031 393.546875 397.515625 396.132812 398.15625 396.828125 C 398.796875 397.519531 399.117188 398.027344 399.117188 398.347656 Z M 399.117188 398.347656 " fill-opacity="1" fill-rule="nonzero"/><path fill="#000000" d="M 445.785156 354.429688 L 444.742188 354.828125 C 443.996094 355.09375 442.929688 355.363281 441.542969 355.628906 C 440.15625 355.894531 438.609375 356.082031 436.902344 356.1875 L 435.382812 356.1875 L 435.382812 352.507812 L 436.902344 352.507812 C 439.410156 352.402344 441.730469 352 443.863281 351.308594 C 445.996094 350.613281 447.492188 349.976562 448.34375 349.386719 C 449.199219 348.800781 449.945312 348.214844 450.585938 347.628906 C 450.691406 347.46875 451.011719 347.386719 451.546875 347.386719 C 452.027344 347.386719 452.480469 347.546875 452.90625 347.867188 L 452.90625 371.789062 L 452.984375 395.789062 C 453.359375 396.160156 453.679688 396.402344 453.945312 396.507812 C 454.210938 396.613281 454.851562 396.722656 455.867188 396.828125 C 456.878906 396.933594 458.535156 396.988281 460.828125 396.988281 L 462.90625 396.988281 L 462.90625 400.667969 L 462.027344 400.667969 C 460.90625 400.507812 456.667969 400.429688 449.304688 400.429688 C 442.050781 400.429688 437.863281 400.507812 436.742188 400.667969 L 435.78125 400.667969 L 435.78125 396.988281 L 437.863281 396.988281 C 439.035156 396.988281 440.050781 396.988281 440.902344 396.988281 C 441.757812 396.988281 442.421875 396.960938 442.902344 396.90625 C 443.382812 396.855469 443.808594 396.773438 444.183594 396.667969 C 444.558594 396.5625 444.769531 396.507812 444.824219 396.507812 C 444.878906 396.507812 445.039062 396.375 445.304688 396.109375 C 445.570312 395.839844 445.730469 395.734375 445.785156 395.789062 Z M 445.785156 354.429688 " fill-opacity="1" fill-rule="nonzero"/><path fill="#000000" d="M 476.429688 353.867188 C 479.417969 349.546875 483.5 347.386719 488.675781 347.386719 C 491.234375 347.386719 493.796875 348.082031 496.355469 349.46875 C 498.917969 350.855469 500.996094 353.308594 502.597656 356.828125 C 504.570312 361.253906 505.558594 367.335938 505.558594 375.066406 C 505.558594 383.335938 504.410156 389.65625 502.117188 394.027344 C 501.050781 396.269531 499.582031 398.054688 497.714844 399.386719 C 495.847656 400.722656 494.222656 401.546875 492.835938 401.867188 C 491.449219 402.1875 490.085938 402.375 488.753906 402.429688 C 487.367188 402.429688 485.980469 402.269531 484.59375 401.949219 C 483.207031 401.628906 481.578125 400.773438 479.710938 399.386719 C 477.84375 398 476.378906 396.214844 475.3125 394.027344 C 473.015625 389.65625 471.871094 383.335938 471.871094 375.066406 C 471.871094 365.789062 473.390625 358.722656 476.429688 353.867188 Z M 494.433594 352.90625 C 492.835938 351.203125 490.941406 350.347656 488.753906 350.347656 C 486.511719 350.347656 484.59375 351.203125 482.992188 352.90625 C 481.660156 354.292969 480.777344 356.214844 480.351562 358.667969 C 479.925781 361.121094 479.710938 366.242188 479.710938 374.027344 C 479.710938 382.453125 479.925781 388 480.351562 390.667969 C 480.777344 393.335938 481.738281 395.441406 483.234375 396.988281 C 484.726562 398.585938 486.566406 399.386719 488.753906 399.386719 C 490.886719 399.386719 492.703125 398.585938 494.195312 396.988281 C 495.742188 395.386719 496.703125 393.148438 497.074219 390.269531 C 497.449219 387.386719 497.664062 381.976562 497.714844 374.027344 C 497.714844 366.292969 497.503906 361.203125 497.074219 358.75 C 496.648438 356.292969 495.769531 354.347656 494.433594 352.90625 Z M 494.433594 352.90625 " fill-opacity="1" fill-rule="nonzero"/><g clip-path="url(#9c8f9f549a)"><path fill="#000000" d="M 537.535156 367.628906 C 536.855469 367.515625 534.425781 367.457031 530.238281 367.457031 C 525.863281 367.457031 523.335938 367.515625 522.65625 367.628906 L 522.148438 367.628906 L 522.148438 365.027344 L 523.902344 365.027344 C 524.65625 365.027344 525.164062 365.027344 525.429688 365.027344 C 525.691406 365.027344 526.015625 364.988281 526.390625 364.914062 C 526.769531 364.835938 527.03125 364.742188 527.183594 364.628906 C 527.332031 364.515625 527.464844 364.367188 527.578125 364.179688 C 527.617188 364.101562 527.636719 363.085938 527.636719 361.125 L 527.636719 358.296875 L 512.984375 358.296875 L 512.984375 355.695312 L 521.527344 342.628906 C 527.296875 333.878906 530.21875 329.488281 530.292969 329.449219 C 530.371094 329.375 530.765625 329.335938 531.480469 329.335938 L 532.5 329.335938 L 532.839844 329.675781 L 532.839844 355.695312 L 538.042969 355.695312 L 538.042969 358.296875 L 532.839844 358.296875 L 532.839844 361.179688 C 532.839844 362.726562 532.839844 363.632812 532.839844 363.894531 C 532.839844 364.160156 532.953125 364.386719 533.179688 364.574219 C 533.480469 364.835938 534.554688 364.988281 536.402344 365.027344 L 538.042969 365.027344 L 538.042969 367.628906 Z M 527.976562 355.695312 L 527.976562 336.804688 L 515.585938 355.636719 L 521.75 355.695312 Z M 527.976562 355.695312 " fill-opacity="1" fill-rule="nonzero"/></g><g clip-path="url(#4cbfa6b58b)"><path fill="#000000" d="M 548.496094 340.75 L 548.816406 340.667969 C 549.082031 340.667969 549.347656 340.667969 549.617188 340.667969 L 550.574219 340.667969 L 552.816406 342.589844 C 557.832031 347.121094 561.484375 352.773438 563.777344 359.546875 C 566.074219 366.320312 567.21875 373.363281 567.21875 380.667969 C 567.21875 384.292969 566.953125 387.789062 566.417969 391.148438 C 565.886719 394.507812 565.273438 397.359375 564.578125 399.707031 C 563.886719 402.054688 562.898438 404.402344 561.617188 406.746094 C 560.339844 409.09375 559.324219 410.882812 558.578125 412.109375 C 557.832031 413.335938 556.738281 414.695312 555.296875 416.1875 C 553.855469 417.679688 553.003906 418.5625 552.738281 418.828125 C 552.46875 419.09375 551.855469 419.601562 550.894531 420.347656 C 550.734375 420.507812 550.628906 420.613281 550.574219 420.667969 L 549.617188 420.667969 C 549.1875 420.667969 548.894531 420.667969 548.734375 420.667969 C 548.574219 420.667969 548.441406 420.585938 548.335938 420.425781 C 548.230469 420.269531 548.148438 420.027344 548.09375 419.707031 C 548.148438 419.65625 548.441406 419.308594 548.976562 418.667969 C 557.242188 410.082031 561.378906 397.414062 561.378906 380.667969 C 561.378906 363.921875 557.242188 351.253906 548.976562 342.667969 C 548.441406 342.027344 548.148438 341.679688 548.09375 341.628906 C 548.09375 341.203125 548.230469 340.910156 548.496094 340.75 Z M 548.496094 340.75 " fill-opacity="1" fill-rule="nonzero"/></g><path fill="#000000" d="M 643.011719 398.347656 C 643.011719 399.414062 642.453125 399.949219 641.332031 399.949219 C 641.066406 399.949219 640.480469 399.519531 639.570312 398.667969 C 638.664062 397.816406 636.15625 395.335938 632.050781 391.226562 L 623.726562 382.90625 L 615.328125 391.308594 C 609.671875 396.855469 606.765625 399.679688 606.605469 399.789062 C 606.390625 399.894531 606.203125 399.949219 606.042969 399.949219 C 605.617188 399.949219 605.246094 399.789062 604.925781 399.46875 C 604.605469 399.148438 604.417969 398.773438 604.363281 398.347656 C 604.363281 397.972656 604.738281 397.386719 605.484375 396.585938 C 606.230469 395.789062 608.738281 393.253906 613.007812 388.988281 L 621.328125 380.667969 L 613.007812 372.347656 C 608.683594 368.027344 606.179688 365.496094 605.484375 364.75 C 604.789062 364 604.417969 363.414062 604.363281 362.988281 C 604.363281 362.507812 604.523438 362.132812 604.84375 361.867188 C 605.164062 361.601562 605.5625 361.46875 606.042969 361.46875 C 606.3125 361.46875 606.496094 361.496094 606.605469 361.546875 C 606.765625 361.65625 609.671875 364.480469 615.328125 370.027344 L 623.726562 378.429688 L 632.050781 370.109375 C 636.15625 366 638.664062 363.519531 639.570312 362.667969 C 640.480469 361.816406 641.066406 361.386719 641.332031 361.386719 C 642.453125 361.386719 643.011719 361.921875 643.011719 362.988281 C 643.011719 363.363281 642.746094 363.839844 642.210938 364.429688 C 641.679688 365.015625 639.066406 367.628906 634.371094 372.269531 L 626.050781 380.667969 L 634.371094 389.066406 C 638.851562 393.546875 641.414062 396.132812 642.050781 396.828125 C 642.691406 397.519531 643.011719 398.027344 643.011719 398.347656 Z M 643.011719 398.347656 " fill-opacity="1" fill-rule="nonzero"/><path fill="#000000" d="M 709.605469 400.667969 C 708.644531 400.507812 705.203125 400.429688 699.28125 400.429688 C 693.09375 400.429688 689.519531 400.507812 688.558594 400.667969 L 687.839844 400.667969 L 687.839844 396.988281 L 690.320312 396.988281 C 691.386719 396.988281 692.105469 396.988281 692.480469 396.988281 C 692.851562 396.988281 693.308594 396.933594 693.839844 396.828125 C 694.375 396.722656 694.746094 396.585938 694.960938 396.429688 C 695.175781 396.269531 695.359375 396.054688 695.519531 395.789062 C 695.574219 395.679688 695.601562 394.242188 695.601562 391.46875 L 695.601562 387.46875 L 674.875 387.46875 L 674.875 383.789062 L 686.957031 365.308594 C 695.121094 352.933594 699.253906 346.722656 699.363281 346.667969 C 699.46875 346.5625 700.027344 346.507812 701.042969 346.507812 L 702.480469 346.507812 L 702.960938 346.988281 L 702.960938 383.789062 L 710.324219 383.789062 L 710.324219 387.46875 L 702.960938 387.46875 L 702.960938 391.546875 C 702.960938 393.734375 702.960938 395.015625 702.960938 395.386719 C 702.960938 395.761719 703.121094 396.082031 703.441406 396.347656 C 703.871094 396.722656 705.390625 396.933594 708.003906 396.988281 L 710.324219 396.988281 L 710.324219 400.667969 Z M 696.082031 383.789062 L 696.082031 357.066406 L 678.558594 383.707031 L 687.277344 383.789062 Z M 696.082031 383.789062 " fill-opacity="1" fill-rule="nonzero"/></svg>