<svg xmlns="http://www.w3.org/2000/svg" xmlns:xlink="http://www.w3.org/1999/xlink" width="1000" zoomAndPan="magnify" viewBox="0 0 750 749.999995" height="1000" preserveAspectRatio="xMidYMid meet" version="1.0"><defs><clipPath id="f2607d76bd"><path d="M 125.734375 140 L 623 140 L 623 637.5 L 125.734375 637.5 Z M 125.734375 140 " clip-rule="nonzero"/></clipPath></defs><rect x="-75" width="900" fill="#ffffff" y="-74.999999" height="899.999994" fill-opacity="1"/><rect x="-75" width="900" fill="#ffffff" y="-74.999999" height="899.999994" fill-opacity="1"/><path fill="#fefefe" d="M 612.652344 327.40625 C 612.652344 327.40625 617.050781 398.667969 617.050781 398.667969 C 618.507812 422.242188 594.542969 517.464844 533.929688 571.613281 C 477.816406 621.742188 385.082031 631.933594 377.6875 631.644531 C 187.085938 624.253906 130.203125 463.785156 129.460938 385.011719 C 128.6875 303.554688 169.40625 247.703125 250.949219 177.566406 C 389.558594 112.503906 490.636719 174.902344 490.636719 174.902344 C 550.675781 211.96875 371.035156 386.59375 371.035156 386.59375 Z M 612.652344 327.40625 " fill-opacity="1" fill-rule="nonzero"/><path fill="#6d5764" d="M 370.222656 389.621094 C 424.070312 482.722656 465.574219 563.222656 490.300781 599.886719 C 501.929688 617.136719 624.152344 495.628906 618.957031 383.476562 C 612.394531 241.808594 487.28125 174.324219 487.28125 174.324219 Z M 370.222656 389.621094 " fill-opacity="1" fill-rule="nonzero"/><path fill="#00010d" d="M 132.113281 385.089844 L 613.597656 382.484375 C 616.207031 382.46875 618.335938 384.574219 618.351562 387.183594 C 618.363281 389.792969 616.257812 391.921875 613.648438 391.9375 L 132.164062 394.542969 C 129.550781 394.558594 127.425781 392.453125 127.410156 389.84375 C 127.394531 387.230469 129.5 385.105469 132.113281 385.089844 Z M 132.113281 385.089844 " fill-opacity="1" fill-rule="nonzero"/><path fill="#00010d" d="M 246.773438 595.941406 L 483.351562 172.660156 C 484.625 170.378906 487.503906 169.566406 489.78125 170.839844 C 492.0625 172.113281 492.875 174.992188 491.601562 177.273438 L 255.027344 600.554688 C 253.753906 602.835938 250.871094 603.648438 248.59375 602.375 C 246.316406 601.101562 245.5 598.222656 246.773438 595.941406 Z M 246.773438 595.941406 " fill-opacity="1" fill-rule="nonzero"/><path fill="#00010d" d="M 255.246094 177.824219 L 495.476562 600.199219 C 496.769531 602.46875 495.976562 605.355469 493.707031 606.644531 C 491.4375 607.9375 488.550781 607.144531 487.257812 604.875 L 247.027344 182.496094 C 245.734375 180.230469 246.527344 177.34375 248.796875 176.050781 C 251.066406 174.761719 253.953125 175.554688 255.246094 177.824219 Z M 255.246094 177.824219 " fill-opacity="1" fill-rule="nonzero"/><g clip-path="url(#f2607d76bd)"><path fill="#00010d" d="M 622.988281 388.925781 C 622.988281 526.214844 511.691406 637.511719 374.402344 637.511719 C 237.113281 637.511719 125.816406 526.214844 125.816406 388.925781 C 125.816406 251.636719 237.113281 140.339844 374.402344 140.339844 C 511.691406 140.339844 622.988281 251.636719 622.988281 388.925781 M 612.015625 388.925781 C 612.015625 257.695312 505.632812 151.308594 374.402344 151.308594 C 243.171875 151.308594 136.785156 257.695312 136.785156 388.925781 C 136.785156 520.15625 243.171875 626.539062 374.402344 626.539062 C 505.632812 626.539062 612.015625 520.15625 612.015625 388.925781 Z M 612.015625 388.925781 " fill-opacity="1" fill-rule="nonzero"/></g><path fill="#6d5764" d="M 497.980469 256.078125 C 497.011719 256.078125 496.183594 256.492188 495.496094 257.320312 C 494.738281 258.195312 494.253906 259.207031 494.046875 260.359375 C 494.023438 260.566406 494 260.851562 493.976562 261.21875 C 493.953125 261.589844 493.929688 261.851562 493.910156 262.011719 C 493.792969 262.816406 493.574219 263.382812 493.253906 263.703125 C 492.910156 264.027344 492.34375 264.199219 491.5625 264.222656 C 490.851562 264.265625 490.183594 264.289062 489.5625 264.289062 C 488.710938 264.289062 487.898438 264.253906 487.117188 264.1875 L 487.113281 264.1875 C 487.433594 264.441406 487.835938 264.578125 488.320312 264.601562 C 489.109375 264.652344 489.929688 264.679688 490.785156 264.679688 C 491.429688 264.679688 492.089844 264.664062 492.769531 264.636719 C 493.4375 264.613281 493.910156 264.472656 494.183594 264.222656 C 494.4375 263.96875 494.609375 263.484375 494.703125 262.773438 C 494.726562 262.632812 494.746094 262.359375 494.769531 261.945312 C 494.792969 261.597656 494.816406 261.324219 494.839844 261.117188 C 495.070312 259.898438 495.574219 258.816406 496.359375 257.875 C 497.046875 257.070312 497.886719 256.632812 498.875 256.5625 C 498.785156 256.449219 498.667969 256.320312 498.53125 256.183594 C 498.253906 256.113281 498.070312 256.078125 497.980469 256.078125 Z M 508.203125 252.648438 C 510.308594 255.613281 511.039062 259.226562 510.398438 263.496094 C 509.847656 267.128906 508.511719 270.523438 506.394531 273.671875 C 504.878906 275.949219 502.464844 279.570312 499.152344 284.539062 L 498.667969 285.265625 C 498.1875 285.953125 497.851562 286.484375 497.667969 286.851562 C 497.667969 286.851562 497.65625 286.875 497.632812 286.917969 C 498.023438 286.941406 498.417969 286.953125 498.808594 286.953125 C 499.015625 286.609375 499.300781 286.160156 499.667969 285.609375 C 503.210938 280.320312 505.742188 276.546875 507.257812 274.292969 C 509.328125 271.1875 510.640625 267.84375 511.191406 264.253906 C 511.902344 259.597656 510.90625 255.726562 508.207031 252.648438 Z M 495.9375 246.613281 C 493.511719 246.613281 491.664062 247.023438 490.390625 247.835938 C 490.136719 247.996094 489.90625 248.15625 489.699219 248.320312 C 485.929688 251.078125 483.996094 255.195312 483.90625 260.667969 C 483.90625 261.886719 484.527344 262.542969 485.765625 262.632812 C 486.554688 262.6875 487.378906 262.714844 488.234375 262.714844 C 488.875 262.714844 489.539062 262.699219 490.21875 262.667969 C 490.90625 262.644531 491.378906 262.496094 491.632812 262.21875 C 491.886719 261.992188 492.058594 261.519531 492.148438 260.804688 C 492.171875 260.644531 492.195312 260.367188 492.21875 259.976562 C 492.242188 259.609375 492.277344 259.335938 492.320312 259.148438 C 492.527344 257.910156 493.035156 256.828125 493.839844 255.90625 C 494.609375 254.984375 495.523438 254.523438 496.585938 254.523438 C 496.636719 254.523438 496.6875 254.527344 496.738281 254.527344 C 497.863281 254.574219 498.808594 255.089844 499.566406 256.078125 C 500.09375 256.769531 500.394531 257.539062 500.460938 258.390625 C 500.601562 259.910156 500.519531 261.195312 500.222656 262.253906 C 499.578125 264.394531 498.796875 266.269531 497.875 267.878906 C 497.023438 269.347656 494.691406 272.8125 490.871094 278.261719 C 488.089844 282.195312 486.226562 284.851562 485.285156 286.230469 C 484.386719 287.539062 483.929688 288.734375 483.90625 289.816406 C 483.859375 291.816406 483.859375 293.300781 483.90625 294.265625 C 483.949219 294.933594 484.101562 295.394531 484.351562 295.648438 C 484.628906 295.898438 485.125 296.050781 485.835938 296.09375 C 486.113281 296.117188 486.664062 296.128906 487.492188 296.128906 L 503.914062 296.128906 C 505.246094 296.128906 506.179688 296.105469 506.707031 296.0625 C 507.605469 295.992188 508.097656 295.542969 508.191406 294.714844 C 508.375 292.945312 508.375 291.1875 508.191406 289.4375 C 508.097656 288.5625 507.613281 288.070312 506.742188 287.953125 C 506.210938 287.863281 505.566406 287.816406 504.808594 287.816406 L 499.253906 287.816406 C 498.175781 287.792969 497.4375 287.757812 497.046875 287.714844 C 496.402344 287.644531 495.976562 287.414062 495.769531 287.023438 C 495.585938 286.609375 495.65625 286.101562 495.976562 285.503906 C 496.164062 285.160156 496.554688 284.539062 497.152344 283.640625 C 500.625 278.398438 503.140625 274.617188 504.707031 272.292969 C 506.796875 269.210938 508.109375 265.875 508.636719 262.289062 C 509.535156 256.402344 507.71875 251.757812 503.1875 248.351562 C 501.738281 247.273438 499.578125 246.695312 496.703125 246.628906 C 496.441406 246.621094 496.1875 246.613281 495.9375 246.613281 Z M 509.8125 290.09375 C 509.878906 290.324219 509.914062 290.472656 509.914062 290.542969 C 510.121094 292.335938 510.132812 294.117188 509.949219 295.886719 C 509.835938 296.945312 509.203125 297.53125 508.050781 297.648438 C 507.5 297.695312 506.660156 297.71875 505.535156 297.71875 L 488.320312 297.71875 C 487.8125 297.71875 487.421875 297.707031 487.148438 297.683594 C 487.101562 297.683594 487.066406 297.671875 487.042969 297.648438 L 486.941406 297.648438 C 487.195312 297.878906 487.664062 298.027344 488.355469 298.097656 C 488.628906 298.121094 489.195312 298.128906 490.046875 298.128906 L 506.429688 298.128906 C 507.765625 298.128906 508.695312 298.109375 509.226562 298.0625 C 510.144531 297.96875 510.640625 297.511719 510.707031 296.683594 C 510.914062 294.933594 510.914062 293.175781 510.707031 291.402344 C 510.640625 290.785156 510.339844 290.347656 509.816406 290.09375 Z M 508.363281 322.898438 C 509.835938 324.945312 510.5 327.234375 510.363281 329.765625 C 510.269531 331.210938 509.511719 331.972656 508.085938 332.039062 C 507.582031 332.0625 506.996094 332.074219 506.328125 332.074219 L 503.5 332.074219 C 503.863281 332.351562 504.351562 332.492188 504.972656 332.492188 C 505.023438 332.492188 505.070312 332.492188 505.121094 332.488281 L 507.191406 332.488281 C 507.472656 332.496094 507.738281 332.5 507.988281 332.5 C 508.484375 332.5 508.90625 332.484375 509.257812 332.453125 C 509.925781 332.429688 510.398438 332.269531 510.671875 331.972656 C 510.949219 331.695312 511.097656 331.234375 511.121094 330.589844 C 511.28125 327.695312 510.398438 325.152344 508.464844 322.96875 C 508.441406 322.96875 508.429688 322.957031 508.429688 322.933594 C 508.410156 322.910156 508.386719 322.898438 508.367188 322.898438 Z M 498.628906 327.175781 C 497.988281 327.179688 497.414062 327.429688 496.910156 327.933594 C 496.425781 328.394531 496.09375 328.957031 495.910156 329.625 C 495.449219 331.28125 495.359375 333.246094 495.632812 335.523438 C 495.769531 335.5 495.828125 335.488281 495.804688 335.488281 C 495.875 335.488281 495.957031 335.480469 496.046875 335.457031 C 496.183594 335.457031 496.265625 335.445312 496.289062 335.421875 C 496.128906 333.535156 496.265625 331.84375 496.703125 330.351562 C 496.910156 329.589844 497.277344 328.957031 497.808594 328.453125 C 498.152344 328.132812 498.542969 327.902344 498.980469 327.761719 C 498.980469 327.738281 498.96875 327.707031 498.945312 327.660156 C 498.945312 327.613281 498.933594 327.589844 498.910156 327.589844 C 498.863281 327.476562 498.785156 327.347656 498.667969 327.210938 C 498.578125 327.1875 498.566406 327.175781 498.632812 327.175781 Z M 498.359375 344.492188 L 498.289062 344.769531 C 497.230469 344.816406 496.519531 345.320312 496.152344 346.289062 C 495.988281 346.746094 495.875 347.171875 495.804688 347.5625 C 495.390625 349.910156 495.347656 352.886719 495.667969 356.5 C 495.714844 356.914062 495.816406 357.304688 495.976562 357.671875 C 496.164062 357.832031 496.371094 357.945312 496.597656 358.015625 C 496.507812 357.71875 496.460938 357.5 496.460938 357.359375 C 496.140625 353.726562 496.183594 350.714844 496.597656 348.324219 C 496.667969 347.886719 496.785156 347.4375 496.945312 346.976562 C 497.3125 346.035156 497.980469 345.472656 498.945312 345.285156 C 498.910156 345.21875 498.894531 345.183594 498.898438 345.175781 L 498.902344 345.175781 C 498.902344 345.175781 498.90625 345.179688 498.90625 345.179688 L 498.910156 345.179688 C 498.863281 345.089844 498.78125 344.960938 498.667969 344.804688 C 498.394531 344.78125 498.300781 344.769531 498.394531 344.769531 L 498.394531 344.527344 C 498.394531 344.527344 498.382812 344.515625 498.359375 344.492188 Z M 497.054688 343.214844 C 498.257812 343.214844 499.117188 343.757812 499.636719 344.839844 C 500.070312 345.710938 500.300781 346.691406 500.324219 347.769531 C 500.324219 347.929688 500.324219 349.035156 500.324219 351.082031 C 500.324219 353.449219 500.324219 354.738281 500.324219 354.945312 C 500.277344 356.257812 499.808594 357.316406 498.910156 358.121094 C 498.335938 358.652344 497.722656 358.917969 497.066406 358.917969 C 497.015625 358.917969 496.960938 358.917969 496.910156 358.914062 C 496.21875 358.867188 495.585938 358.535156 495.011719 357.914062 C 494.390625 357.222656 494.035156 356.382812 493.941406 355.394531 C 493.621094 351.761719 493.667969 348.75 494.082031 346.355469 C 494.148438 345.917969 494.265625 345.472656 494.425781 345.011719 C 494.863281 343.859375 495.714844 343.261719 496.980469 343.21875 C 497.003906 343.214844 497.03125 343.214844 497.054688 343.214844 Z M 497.425781 317.242188 C 494.046875 317.242188 491.242188 318.378906 489.011719 320.65625 C 487.03125 322.703125 486.03125 325.199219 486.007812 328.140625 C 486.007812 328.992188 486.007812 333.683594 486.007812 342.214844 C 486.007812 350.726562 486.007812 355.507812 486.007812 356.566406 C 486.03125 359.695312 487.148438 362.328125 489.355469 364.464844 C 491.429688 366.496094 494.113281 367.511719 497.40625 367.511719 C 497.585938 367.511719 497.765625 367.507812 497.945312 367.503906 C 500.910156 367.410156 503.40625 366.375 505.429688 364.398438 C 507.453125 362.421875 508.511719 359.949219 508.605469 356.980469 C 508.648438 355.808594 508.660156 351.945312 508.636719 345.390625 C 508.617188 343.621094 508.097656 341.882812 507.085938 340.179688 C 505.476562 337.515625 503.222656 336.144531 500.324219 336.078125 C 500.035156 336.066406 499.753906 336.0625 499.472656 336.0625 C 498.210938 336.0625 497.035156 336.148438 495.945312 336.316406 C 495.78125 336.34375 495.625 336.355469 495.480469 336.355469 C 494.617188 336.355469 494.117188 335.882812 493.976562 334.9375 C 493.585938 332.429688 493.65625 330.246094 494.183594 328.382812 C 494.390625 327.625 494.757812 326.992188 495.289062 326.488281 C 495.902344 325.910156 496.5625 325.625 497.273438 325.625 C 497.414062 325.625 497.558594 325.636719 497.703125 325.660156 C 498.554688 325.796875 499.210938 326.3125 499.667969 327.210938 C 499.898438 327.695312 500.070312 328.210938 500.1875 328.761719 C 500.453125 329.9375 501.210938 330.523438 502.457031 330.523438 C 502.503906 330.523438 502.554688 330.523438 502.601562 330.523438 L 504.671875 330.523438 C 505.523438 330.523438 506.210938 330.511719 506.742188 330.488281 C 507.40625 330.464844 507.878906 330.304688 508.15625 330.003906 C 508.429688 329.730469 508.582031 329.269531 508.605469 328.625 C 508.765625 325.726562 507.878906 323.1875 505.949219 321 C 503.738281 318.496094 500.898438 317.242188 497.425781 317.242188 Z M 508.304688 340.4375 C 508.527344 340.75 508.675781 340.976562 508.742188 341.113281 C 509.824219 342.859375 510.363281 344.664062 510.363281 346.527344 C 510.363281 347.035156 510.375 348.046875 510.398438 349.566406 C 510.421875 353.359375 510.398438 356.222656 510.328125 358.152344 C 510.238281 361.210938 509.144531 363.765625 507.050781 365.8125 C 504.957031 367.882812 502.359375 368.960938 499.253906 369.054688 L 498.667969 369.054688 C 497.476562 369.054688 496.351562 368.929688 495.296875 368.675781 L 495.292969 368.675781 C 496.652344 369.210938 498.179688 369.480469 499.871094 369.480469 C 500.066406 369.480469 500.261719 369.476562 500.460938 369.46875 C 503.429688 369.375 505.914062 368.34375 507.914062 366.363281 C 509.960938 364.386719 511.03125 361.914062 511.121094 358.949219 C 511.167969 357.820312 511.167969 353.96875 511.121094 347.390625 C 511.121094 345.597656 510.617188 343.851562 509.605469 342.148438 C 509.21875 341.507812 508.785156 340.9375 508.304688 340.4375 Z M 508.304688 340.4375 " fill-opacity="1" fill-rule="nonzero"/><path fill="#6d5764" d="M 471.9375 302.578125 C 470.769531 302.621094 470.089844 302.910156 469.902344 303.445312 C 470.207031 303.355469 470.636719 303.296875 471.199219 303.277344 C 471.363281 303.277344 471.621094 303.277344 471.972656 303.28125 L 485.828125 303.339844 C 504.09375 303.414062 517.785156 303.472656 526.90625 303.511719 C 528.660156 303.519531 529.738281 303.722656 530.132812 304.121094 C 530.527344 304.542969 530.722656 305.65625 530.714844 307.457031 L 530.714844 307.804688 C 530.710938 308.578125 530.683594 309.234375 530.636719 309.769531 C 530.847656 309.5625 530.976562 309.257812 531.023438 308.859375 C 531.074219 308.300781 531.101562 307.46875 531.105469 306.371094 C 531.113281 304.6875 530.953125 303.679688 530.628906 303.351562 C 530.300781 303 529.320312 302.820312 527.683594 302.8125 C 522.46875 302.789062 504.214844 302.714844 472.921875 302.582031 C 472.40625 302.582031 472.078125 302.578125 471.9375 302.578125 Z M 470.175781 304.816406 C 469.242188 304.859375 468.644531 305.007812 468.386719 305.265625 C 468.101562 305.519531 467.9375 306.09375 467.886719 306.980469 C 467.886719 307.214844 467.882812 307.789062 467.878906 308.699219 C 467.871094 310.429688 468.007812 311.449219 468.289062 311.753906 C 468.589844 312.058594 469.582031 312.214844 471.265625 312.222656 L 525.503906 312.449219 C 525.605469 312.449219 525.707031 312.449219 525.804688 312.449219 C 526.753906 312.449219 527.484375 312.429688 527.992188 312.390625 C 528.742188 312.300781 529.152344 311.871094 529.226562 311.097656 C 529.300781 310.535156 529.335938 309.71875 529.34375 308.644531 C 529.324219 306.957031 529.15625 305.941406 528.828125 305.589844 C 528.503906 305.234375 527.519531 305.058594 525.882812 305.050781 C 519.804688 305.023438 501.5625 304.949219 471.15625 304.820312 C 470.644531 304.820312 470.316406 304.816406 470.175781 304.816406 Z M 470.175781 304.816406 " fill-opacity="1" fill-rule="nonzero"/></svg>