<svg xmlns="http://www.w3.org/2000/svg" xmlns:xlink="http://www.w3.org/1999/xlink" width="1000" zoomAndPan="magnify" viewBox="0 0 750 749.999995" height="1000" preserveAspectRatio="xMidYMid meet" version="1.0"><defs><clipPath id="c25037aba7"><path d="M 171 292.5 L 273 292.5 L 273 457.5 L 171 457.5 Z M 171 292.5 " clip-rule="nonzero"/></clipPath><clipPath id="96d7764233"><path d="M 358 292.5 L 459 292.5 L 459 457.5 L 358 457.5 Z M 358 292.5 " clip-rule="nonzero"/></clipPath><clipPath id="454d713f3b"><path d="M 478 292.5 L 579 292.5 L 579 457.5 L 478 457.5 Z M 478 292.5 " clip-rule="nonzero"/></clipPath></defs><rect x="-75" width="900" fill="#ffffff" y="-74.999999" height="899.999994" fill-opacity="1"/><rect x="-75" width="900" fill="#ffffff" y="-74.999999" height="899.999994" fill-opacity="1"/><g clip-path="url(#c25037aba7)"><path fill="#000000" d="M 184.847656 311.925781 C 193.808594 298.976562 206.054688 292.5 221.578125 292.5 C 229.261719 292.5 236.941406 294.578125 244.625 298.734375 C 252.308594 302.890625 258.550781 310.246094 263.351562 320.800781 C 269.273438 334.070312 272.234375 352.296875 272.234375 375.480469 C 272.234375 400.261719 268.792969 419.207031 261.910156 432.316406 C 258.710938 439.035156 254.308594 444.390625 248.707031 448.386719 C 243.105469 452.382812 238.222656 454.863281 234.0625 455.820312 C 229.902344 456.78125 225.820312 457.339844 221.820312 457.5 C 217.65625 457.5 213.496094 457.019531 209.335938 456.0625 C 205.171875 455.101562 200.292969 452.542969 194.691406 448.386719 C 189.089844 444.230469 184.6875 438.875 181.484375 432.316406 C 174.605469 419.207031 171.164062 400.261719 171.164062 375.480469 C 171.164062 347.660156 175.722656 326.476562 184.847656 311.925781 Z M 238.863281 309.046875 C 234.0625 303.933594 228.378906 301.375 221.820312 301.375 C 215.097656 301.375 209.335938 303.933594 204.53125 309.046875 C 200.53125 313.203125 197.890625 318.960938 196.609375 326.316406 C 195.332031 333.671875 194.691406 349.019531 194.691406 372.363281 C 194.691406 397.625 195.332031 414.25 196.609375 422.246094 C 197.890625 430.238281 200.773438 436.554688 205.253906 441.191406 C 209.734375 445.988281 215.257812 448.386719 221.820312 448.386719 C 228.21875 448.386719 233.660156 445.988281 238.144531 441.191406 C 242.785156 436.394531 245.664062 429.679688 246.785156 421.046875 C 247.90625 412.414062 248.546875 396.183594 248.707031 372.363281 C 248.707031 349.179688 248.066406 333.910156 246.785156 326.554688 C 245.503906 319.199219 242.863281 313.363281 238.863281 309.046875 Z M 238.863281 309.046875 " fill-opacity="1" fill-rule="nonzero"/></g><path fill="#000000" d="M 300.5625 437.835938 C 300.5625 433.996094 301.921875 430.640625 304.644531 427.761719 C 307.363281 424.882812 310.804688 423.445312 314.964844 423.445312 C 318.808594 423.445312 322.167969 424.722656 325.050781 427.28125 C 327.929688 429.839844 329.449219 433.277344 329.609375 437.59375 C 329.609375 441.589844 328.25 445.027344 325.53125 447.90625 C 322.808594 450.785156 319.367188 452.222656 315.207031 452.222656 C 311.046875 452.222656 307.605469 450.863281 304.882812 448.148438 C 302.164062 445.429688 300.722656 441.992188 300.5625 437.835938 Z M 300.5625 437.835938 " fill-opacity="1" fill-rule="nonzero"/><g clip-path="url(#96d7764233)"><path fill="#000000" d="M 379.066406 341.183594 C 374.746094 341.183594 371.382812 339.824219 368.984375 337.109375 C 366.582031 334.390625 365.300781 330.871094 365.140625 326.554688 C 365.140625 317.761719 368.984375 309.925781 376.664062 303.050781 C 384.347656 296.175781 393.628906 292.738281 404.515625 292.738281 C 410.117188 292.738281 413.636719 292.820312 415.078125 292.980469 C 426.921875 294.898438 435.964844 299.136719 442.207031 305.691406 C 448.445312 312.246094 451.648438 319.359375 451.808594 327.035156 C 451.808594 335.347656 449.085938 343.421875 443.644531 351.257812 C 438.203125 359.089844 430.683594 364.765625 421.078125 368.285156 L 420.359375 368.765625 C 420.359375 368.925781 421.078125 369.164062 422.519531 369.484375 C 423.960938 369.804688 426.28125 370.523438 429.480469 371.640625 C 432.683594 372.761719 435.722656 374.441406 438.605469 376.679688 C 451.726562 385.152344 458.289062 396.34375 458.289062 410.253906 C 458.289062 422.886719 453.328125 433.917969 443.40625 443.351562 C 433.484375 452.785156 420.917969 457.5 405.714844 457.5 C 392.910156 457.5 381.867188 454.0625 372.585938 447.1875 C 363.300781 440.3125 358.660156 431.597656 358.660156 421.046875 C 358.660156 416.570312 360.101562 412.972656 362.980469 410.253906 C 365.863281 407.535156 369.464844 406.097656 373.785156 405.9375 C 378.265625 405.9375 381.945312 407.375 384.828125 410.253906 C 387.707031 413.132812 389.148438 416.730469 389.148438 421.046875 C 389.148438 422.804688 388.910156 424.402344 388.429688 425.84375 C 387.949219 427.28125 387.390625 428.5625 386.75 429.679688 C 386.109375 430.800781 385.226562 431.757812 384.109375 432.558594 C 382.988281 433.359375 382.027344 433.996094 381.226562 434.476562 C 380.425781 434.957031 379.625 435.277344 378.824219 435.4375 C 378.027344 435.597656 377.386719 435.835938 376.90625 436.15625 L 375.945312 436.394531 C 384.109375 443.589844 394.03125 447.1875 405.714844 447.1875 C 414.515625 447.1875 421.160156 442.949219 425.640625 434.476562 C 428.359375 429.199219 429.722656 421.125 429.722656 410.253906 L 429.722656 405.457031 C 429.722656 390.269531 424.601562 380.117188 414.355469 375 C 411.957031 374.039062 407.074219 373.480469 399.710938 373.320312 L 389.628906 373.082031 L 388.910156 372.601562 C 388.589844 372.121094 388.429688 370.84375 388.429688 368.765625 C 388.429688 365.886719 389.070312 364.449219 390.347656 364.449219 C 394.832031 364.449219 399.472656 364.046875 404.273438 363.25 C 409.714844 362.449219 414.675781 359.089844 419.160156 353.175781 C 423.640625 347.261719 425.878906 338.308594 425.878906 326.316406 L 425.878906 324.398438 C 425.878906 315.285156 423.078125 308.96875 417.476562 305.449219 C 413.957031 303.210938 410.195312 302.09375 406.195312 302.09375 C 401.074219 302.09375 396.351562 302.972656 392.03125 304.730469 C 387.707031 306.488281 384.667969 308.328125 382.90625 310.246094 C 381.148438 312.164062 380.265625 313.125 380.265625 313.125 L 380.988281 313.125 C 381.46875 313.285156 382.105469 313.445312 382.90625 313.605469 C 383.707031 313.765625 384.507812 314.164062 385.308594 314.804688 C 386.109375 315.441406 387.070312 316.003906 388.1875 316.484375 C 389.308594 316.960938 390.109375 317.839844 390.589844 319.121094 C 391.070312 320.398438 391.710938 321.597656 392.511719 322.71875 C 393.308594 323.835938 393.550781 325.4375 393.230469 327.515625 C 393.230469 331.03125 392.109375 334.148438 389.871094 336.867188 C 387.628906 339.585938 384.027344 341.023438 379.066406 341.183594 Z M 379.066406 341.183594 " fill-opacity="1" fill-rule="nonzero"/></g><g clip-path="url(#454d713f3b)"><path fill="#000000" d="M 499.101562 341.183594 C 494.78125 341.183594 491.421875 339.824219 489.019531 337.109375 C 486.617188 334.390625 485.339844 330.871094 485.179688 326.554688 C 485.179688 317.761719 489.019531 309.925781 496.703125 303.050781 C 504.382812 296.175781 513.667969 292.738281 524.550781 292.738281 C 530.152344 292.738281 533.671875 292.820312 535.113281 292.980469 C 546.957031 294.898438 556 299.136719 562.242188 305.691406 C 568.484375 312.246094 571.683594 319.359375 571.84375 327.035156 C 571.84375 335.347656 569.125 343.421875 563.683594 351.257812 C 558.242188 359.089844 550.71875 364.765625 541.117188 368.285156 L 540.394531 368.765625 C 540.394531 368.925781 541.117188 369.164062 542.554688 369.484375 C 543.996094 369.804688 546.316406 370.523438 549.519531 371.640625 C 552.71875 372.761719 555.761719 374.441406 558.640625 376.679688 C 571.765625 385.152344 578.328125 396.34375 578.328125 410.253906 C 578.328125 422.886719 573.363281 433.917969 563.441406 443.351562 C 553.519531 452.785156 540.957031 457.5 525.75 457.5 C 512.945312 457.5 501.902344 454.0625 492.621094 447.1875 C 483.335938 440.3125 478.695312 431.597656 478.695312 421.046875 C 478.695312 416.570312 480.136719 412.972656 483.019531 410.253906 C 485.898438 407.535156 489.5 406.097656 493.820312 405.9375 C 498.300781 405.9375 501.984375 407.375 504.863281 410.253906 C 507.746094 413.132812 509.1875 416.730469 509.1875 421.046875 C 509.1875 422.804688 508.945312 424.402344 508.464844 425.84375 C 507.984375 427.28125 507.425781 428.5625 506.785156 429.679688 C 506.144531 430.800781 505.265625 431.757812 504.144531 432.558594 C 503.023438 433.359375 502.0625 433.996094 501.261719 434.476562 C 500.464844 434.957031 499.664062 435.277344 498.863281 435.4375 C 498.0625 435.597656 497.421875 435.835938 496.941406 436.15625 L 495.980469 436.394531 C 504.144531 443.589844 514.066406 447.1875 525.75 447.1875 C 534.554688 447.1875 541.195312 442.949219 545.675781 434.476562 C 548.398438 429.199219 549.757812 421.125 549.757812 410.253906 L 549.757812 405.457031 C 549.757812 390.269531 544.636719 380.117188 534.394531 375 C 531.992188 374.039062 527.109375 373.480469 519.75 373.320312 L 509.664062 373.082031 L 508.945312 372.601562 C 508.625 372.121094 508.464844 370.84375 508.464844 368.765625 C 508.464844 365.886719 509.105469 364.449219 510.386719 364.449219 C 514.867188 364.449219 519.507812 364.046875 524.308594 363.25 C 529.75 362.449219 534.714844 359.089844 539.195312 353.175781 C 543.675781 347.261719 545.917969 338.308594 545.917969 326.316406 L 545.917969 324.398438 C 545.917969 315.285156 543.117188 308.96875 537.515625 305.449219 C 533.992188 303.210938 530.230469 302.09375 526.230469 302.09375 C 521.109375 302.09375 516.386719 302.972656 512.066406 304.730469 C 507.746094 306.488281 504.703125 308.328125 502.945312 310.246094 C 501.183594 312.164062 500.304688 313.125 500.304688 313.125 L 501.023438 313.125 C 501.503906 313.285156 502.144531 313.445312 502.945312 313.605469 C 503.742188 313.765625 504.542969 314.164062 505.34375 314.804688 C 506.144531 315.441406 507.105469 316.003906 508.226562 316.484375 C 509.347656 316.960938 510.144531 317.839844 510.625 319.121094 C 511.105469 320.398438 511.746094 321.597656 512.546875 322.71875 C 513.347656 323.835938 513.585938 325.4375 513.265625 327.515625 C 513.265625 331.03125 512.148438 334.148438 509.90625 336.867188 C 507.664062 339.585938 504.0625 341.023438 499.101562 341.183594 Z M 499.101562 341.183594 " fill-opacity="1" fill-rule="nonzero"/></g></svg>