<svg xmlns="http://www.w3.org/2000/svg" xmlns:xlink="http://www.w3.org/1999/xlink" width="1000" zoomAndPan="magnify" viewBox="0 0 750 749.999995" height="1000" preserveAspectRatio="xMidYMid meet" version="1.0"><defs><clipPath id="e561d54fe8"><path d="M 147 159 L 617 159 L 617 602 L 147 602 Z M 147 159 " clip-rule="nonzero"/></clipPath><clipPath id="376c11c187"><path d="M 29.386719 474.828125 L 252.964844 36.5625 L 720.625 275.140625 L 497.046875 713.40625 Z M 29.386719 474.828125 " clip-rule="nonzero"/></clipPath><clipPath id="b1a4b5062f"><path d="M 29.386719 474.828125 L 252.964844 36.5625 L 720.625 275.140625 L 497.046875 713.40625 Z M 29.386719 474.828125 " clip-rule="nonzero"/></clipPath><clipPath id="12e78d5dca"><path d="M 144 135 L 483 135 L 483 388 L 144 388 Z M 144 135 " clip-rule="nonzero"/></clipPath><clipPath id="5e743ccdea"><path d="M 29.386719 474.828125 L 252.964844 36.5625 L 720.625 275.140625 L 497.046875 713.40625 Z M 29.386719 474.828125 " clip-rule="nonzero"/></clipPath><clipPath id="013e3db816"><path d="M 29.386719 474.828125 L 252.964844 36.5625 L 720.625 275.140625 L 497.046875 713.40625 Z M 29.386719 474.828125 " clip-rule="nonzero"/></clipPath><clipPath id="ce337bcccd"><path d="M 377 160 L 491 160 L 491 373 L 377 373 Z M 377 160 " clip-rule="nonzero"/></clipPath><clipPath id="37ab6fb98a"><path d="M 29.386719 474.828125 L 252.964844 36.5625 L 720.625 275.140625 L 497.046875 713.40625 Z M 29.386719 474.828125 " clip-rule="nonzero"/></clipPath><clipPath id="1bbbaff8e2"><path d="M 29.386719 474.828125 L 252.964844 36.5625 L 720.625 275.140625 L 497.046875 713.40625 Z M 29.386719 474.828125 " clip-rule="nonzero"/></clipPath><clipPath id="d3d95b8698"><path d="M 378 367 L 509 367 L 509 575 L 378 575 Z M 378 367 " clip-rule="nonzero"/></clipPath><clipPath id="2ccf86f994"><path d="M 29.386719 474.828125 L 252.964844 36.5625 L 720.625 275.140625 L 497.046875 713.40625 Z M 29.386719 474.828125 " clip-rule="nonzero"/></clipPath><clipPath id="097ace2984"><path d="M 29.386719 474.828125 L 252.964844 36.5625 L 720.625 275.140625 L 497.046875 713.40625 Z M 29.386719 474.828125 " clip-rule="nonzero"/></clipPath><clipPath id="280ce45122"><path d="M 144 365 L 386 365 L 386 391 L 144 391 Z M 144 365 " clip-rule="nonzero"/></clipPath><clipPath id="207b73148c"><path d="M 29.386719 474.828125 L 252.964844 36.5625 L 720.625 275.140625 L 497.046875 713.40625 Z M 29.386719 474.828125 " clip-rule="nonzero"/></clipPath><clipPath id="d015fb3b11"><path d="M 29.386719 474.828125 L 252.964844 36.5625 L 720.625 275.140625 L 497.046875 713.40625 Z M 29.386719 474.828125 " clip-rule="nonzero"/></clipPath><clipPath id="685423fe1b"><path d="M 141 131 L 622 131 L 622 611 L 141 611 Z M 141 131 " clip-rule="nonzero"/></clipPath><clipPath id="b1ed80971f"><path d="M 29.386719 474.828125 L 252.964844 36.5625 L 720.625 275.140625 L 497.046875 713.40625 Z M 29.386719 474.828125 " clip-rule="nonzero"/></clipPath><clipPath id="90993dc06b"><path d="M 29.386719 474.828125 L 252.964844 36.5625 L 720.625 275.140625 L 497.046875 713.40625 Z M 29.386719 474.828125 " clip-rule="nonzero"/></clipPath><clipPath id="8d7c3db1d1"><path d="M 275 230 L 382 230 L 382 297 L 275 297 Z M 275 230 " clip-rule="nonzero"/></clipPath><clipPath id="a867622c72"><path d="M 29.386719 474.828125 L 252.964844 36.5625 L 720.625 275.140625 L 497.046875 713.40625 Z M 29.386719 474.828125 " clip-rule="nonzero"/></clipPath><clipPath id="7724cb901b"><path d="M 29.386719 474.828125 L 252.964844 36.5625 L 720.625 275.140625 L 497.046875 713.40625 Z M 29.386719 474.828125 " clip-rule="nonzero"/></clipPath><clipPath id="d9ba1b650c"><path d="M 310 233 L 345 233 L 345 291 L 310 291 Z M 310 233 " clip-rule="nonzero"/></clipPath><clipPath id="555813b508"><path d="M 29.386719 474.828125 L 252.964844 36.5625 L 720.625 275.140625 L 497.046875 713.40625 Z M 29.386719 474.828125 " clip-rule="nonzero"/></clipPath><clipPath id="eeeb379d7f"><path d="M 29.386719 474.828125 L 252.964844 36.5625 L 720.625 275.140625 L 497.046875 713.40625 Z M 29.386719 474.828125 " clip-rule="nonzero"/></clipPath></defs><rect x="-75" width="900" fill="#ffffff" y="-74.999999" height="899.999994" fill-opacity="1"/><rect x="-75" width="900" fill="#ffffff" y="-74.999999" height="899.999994" fill-opacity="1"/><g clip-path="url(#e561d54fe8)"><g clip-path="url(#376c11c187)"><g clip-path="url(#b1a4b5062f)"><path fill="#fefefe" d="M 382.074219 369.210938 C 261.496094 364.011719 173.765625 361.148438 147.253906 381.761719 C 167.699219 485.097656 215.683594 569.878906 300.855469 591.53125 C 477.859375 636.527344 592.09375 526.875 613.75 404.648438 C 626.835938 330.789062 594.464844 235.003906 483.398438 159.519531 Z M 382.074219 369.210938 " fill-opacity="1" fill-rule="nonzero"/></g></g></g><g clip-path="url(#12e78d5dca)"><g clip-path="url(#5e743ccdea)"><g clip-path="url(#013e3db816)"><path fill="#6d5764" d="M 379.535156 370.003906 C 439.179688 250.84375 499.046875 163.011719 478.757812 155.152344 C 274.695312 76.121094 142.324219 253.609375 144.03125 387.949219 Z M 379.535156 370.003906 " fill-opacity="1" fill-rule="nonzero"/></g></g></g><g clip-path="url(#ce337bcccd)"><g clip-path="url(#37ab6fb98a)"><g clip-path="url(#1bbbaff8e2)"><path fill="#00010d" d="M 377.648438 366.21875 L 481.480469 162.789062 C 482.625 160.546875 485.367188 159.65625 487.609375 160.800781 C 489.851562 161.945312 490.738281 164.6875 489.597656 166.929688 L 385.761719 370.359375 C 384.617188 372.601562 381.875 373.492188 379.632812 372.347656 C 377.390625 371.203125 376.503906 368.460938 377.648438 366.21875 Z M 377.648438 366.21875 " fill-opacity="1" fill-rule="nonzero"/></g></g></g><g clip-path="url(#d3d95b8698)"><g clip-path="url(#2ccf86f994)"><g clip-path="url(#097ace2984)"><path fill="#00010d" d="M 499.996094 572.722656 L 379.113281 374.683594 C 377.800781 372.539062 378.480469 369.734375 380.628906 368.421875 C 382.777344 367.113281 385.578125 367.789062 386.890625 369.9375 L 507.773438 567.972656 C 509.085938 570.121094 508.40625 572.925781 506.257812 574.238281 C 504.113281 575.546875 501.308594 574.871094 499.996094 572.722656 Z M 499.996094 572.722656 " fill-opacity="1" fill-rule="nonzero"/></g></g></g><g clip-path="url(#280ce45122)"><g clip-path="url(#207b73148c)"><g clip-path="url(#d015fb3b11)"><path fill="#00010d" d="M 149.085938 381.378906 L 380.65625 365.410156 C 383.167969 365.234375 385.339844 367.128906 385.515625 369.640625 C 385.6875 372.152344 383.792969 374.324219 381.28125 374.5 L 149.714844 390.46875 C 147.203125 390.640625 145.027344 388.746094 144.855469 386.238281 C 144.683594 383.726562 146.578125 381.550781 149.085938 381.378906 Z M 149.085938 381.378906 " fill-opacity="1" fill-rule="nonzero"/></g></g></g><g clip-path="url(#685423fe1b)"><g clip-path="url(#b1ed80971f)"><g clip-path="url(#90993dc06b)"><path fill="#00010d" d="M 490.429688 157.746094 C 608.324219 217.886719 655.140625 362.214844 594.996094 480.109375 C 534.851562 598.003906 390.523438 644.820312 272.628906 584.675781 C 154.738281 524.53125 107.921875 380.203125 168.066406 262.308594 C 228.207031 144.417969 372.535156 97.601562 490.429688 157.746094 M 485.625 167.164062 C 372.933594 109.675781 234.976562 154.425781 177.484375 267.117188 C 119.996094 379.808594 164.746094 517.765625 277.4375 575.253906 C 390.128906 632.746094 528.085938 587.996094 585.574219 475.304688 C 643.066406 362.613281 598.316406 224.65625 485.625 167.164062 Z M 485.625 167.164062 " fill-opacity="1" fill-rule="nonzero"/></g></g></g><g clip-path="url(#8d7c3db1d1)"><g clip-path="url(#a867622c72)"><g clip-path="url(#7724cb901b)"><path fill="#6d5764" d="M 283.875 247.304688 C 284.183594 247.1875 284.464844 246.933594 284.714844 246.539062 C 284.886719 246.25 285.105469 245.867188 285.378906 245.382812 L 285.347656 245.367188 C 285.277344 245.355469 285.160156 245.347656 284.992188 245.335938 C 284.859375 245.589844 284.734375 245.8125 284.613281 246 C 284.351562 246.511719 284.105469 246.945312 283.875 247.300781 Z M 275.429688 234.78125 C 274.863281 235.894531 274.902344 236.972656 275.546875 238.015625 C 276.566406 239.679688 276.898438 241.753906 276.550781 244.242188 C 276.550781 244.339844 276.527344 244.511719 276.472656 244.761719 C 276.433594 244.988281 276.40625 245.160156 276.394531 245.28125 C 276.289062 246.121094 276.570312 246.738281 277.242188 247.132812 C 278.257812 247.722656 279.125 248.175781 279.835938 248.492188 C 280.695312 248.855469 281.386719 248.648438 281.90625 247.867188 C 282.089844 247.5625 282.308594 247.175781 282.570312 246.714844 C 282.914062 246.089844 283.128906 245.691406 283.21875 245.515625 C 283.722656 244.675781 284.480469 244.363281 285.488281 244.582031 C 286.179688 244.734375 287.25 245.179688 288.691406 245.914062 C 290.742188 246.964844 294.722656 248.992188 300.628906 252.003906 C 305.605469 254.542969 309.578125 256.558594 312.550781 258.050781 C 313.460938 258.515625 314.273438 258.890625 314.996094 259.1875 C 315.679688 259.460938 316.226562 259.289062 316.636719 258.679688 C 317.007812 258.097656 317.410156 257.40625 317.84375 256.605469 C 318.6875 254.949219 319.039062 253.894531 318.894531 253.445312 C 318.777344 252.988281 317.910156 252.347656 316.292969 251.523438 C 314.296875 250.503906 308.332031 247.460938 298.398438 242.394531 C 287.578125 236.875 281.386719 233.714844 279.828125 232.917969 C 278.574219 232.304688 277.722656 232.070312 277.273438 232.214844 C 276.855469 232.351562 276.367188 232.964844 275.808594 234.058594 C 275.773438 234.132812 275.734375 234.207031 275.695312 234.285156 L 275.574219 234.519531 C 275.523438 234.609375 275.476562 234.695312 275.429688 234.78125 Z M 279.632812 231.179688 C 280.128906 231.28125 280.769531 231.535156 281.558594 231.9375 C 284.375 233.347656 288.863281 235.625 295.023438 238.769531 L 304.605469 243.695312 C 310.207031 246.527344 314.679688 248.808594 318.027344 250.539062 C 319.683594 251.386719 320.609375 252.058594 320.804688 252.554688 C 321.039062 253.121094 320.765625 254.167969 319.992188 255.6875 L 319.765625 256.132812 C 319.421875 256.800781 319.082031 257.398438 318.742188 257.921875 L 318.738281 257.921875 C 319.039062 257.824219 319.265625 257.644531 319.429688 257.378906 C 319.820312 256.804688 320.226562 256.105469 320.648438 255.277344 C 321.496094 253.617188 321.855469 252.570312 321.730469 252.132812 C 321.585938 251.683594 320.703125 251.046875 319.085938 250.222656 L 301.222656 241.109375 C 290.480469 235.628906 284.277344 232.464844 282.617188 231.617188 C 281.160156 230.875 280.164062 230.726562 279.636719 231.175781 Z M 343.648438 271.078125 C 343.09375 272.164062 343.3125 273.246094 344.304688 274.324219 C 344.503906 274.523438 344.808594 274.804688 345.222656 275.164062 C 345.527344 275.445312 345.738281 275.640625 345.855469 275.75 C 346.652344 276.53125 346.816406 277.410156 346.339844 278.386719 C 345.9375 279.226562 345.613281 279.882812 345.371094 280.355469 C 345.050781 280.988281 344.734375 281.558594 344.421875 282.074219 C 344.75 281.96875 345.03125 281.710938 345.261719 281.308594 C 345.5625 280.804688 345.917969 280.152344 346.324219 279.355469 C 346.597656 278.824219 346.890625 278.226562 347.210938 277.5625 C 347.59375 276.761719 347.457031 276.03125 346.796875 275.371094 C 346.679688 275.261719 346.414062 275.027344 346 274.667969 C 345.675781 274.375 345.421875 274.136719 345.246094 273.945312 C 344.15625 272.765625 343.890625 271.574219 344.457031 270.371094 C 344.308594 270.367188 344.175781 270.386719 344.054688 270.425781 C 343.90625 270.625 343.824219 270.730469 343.816406 270.75 Z M 344.710938 261.269531 C 346.867188 260.984375 348.9375 261.382812 350.917969 262.464844 C 351.152344 262.585938 351.519531 262.773438 352.011719 263.023438 L 352.902344 263.476562 L 352.886719 263.507812 L 353.195312 263.628906 C 353.808594 263.941406 354.296875 264.203125 354.664062 264.414062 C 356.921875 265.644531 358.40625 267.320312 359.113281 269.449219 C 359.238281 269.835938 359.359375 270.132812 359.476562 270.34375 C 359.75 270.878906 360.097656 271.15625 360.511719 271.167969 L 360.796875 271.128906 C 361.042969 271.078125 361.496094 271 362.152344 270.886719 C 361.328125 270.988281 360.726562 270.65625 360.34375 269.890625 C 360.226562 269.628906 360.097656 269.300781 359.953125 268.902344 C 359.292969 266.875 357.875 265.269531 355.691406 264.082031 L 353.589844 263.007812 L 351.929688 262.160156 C 349.664062 260.90625 347.257812 260.609375 344.710938 261.265625 Z M 362.859375 270.78125 C 362.898438 270.777344 362.933594 270.769531 362.972656 270.761719 C 362.925781 270.769531 362.886719 270.773438 362.859375 270.78125 Z M 359.875 282.003906 C 360.136719 281.839844 360.515625 281.433594 361.015625 280.796875 C 361.074219 280.726562 361.148438 280.628906 361.242188 280.5 C 361.171875 280.539062 361.121094 280.5625 361.089844 280.574219 C 360.863281 280.78125 360.746094 280.882812 360.746094 280.882812 C 360.667969 280.992188 360.53125 281.160156 360.339844 281.386719 L 360.101562 281.707031 C 360.113281 281.699219 360.117188 281.695312 360.113281 281.703125 C 360.105469 281.71875 360.027344 281.820312 359.878906 282.003906 Z M 366.285156 287.515625 L 366.789062 287.625 C 367.34375 287.707031 367.75 287.765625 368.007812 287.796875 C 368.027344 287.808594 368.050781 287.808594 368.082031 287.796875 C 368.132812 287.800781 368.15625 287.800781 368.15625 287.800781 C 368.316406 287.730469 368.390625 287.707031 368.378906 287.726562 C 368.519531 287.648438 368.660156 287.570312 368.796875 287.492188 C 368.570312 287.449219 368.101562 287.371094 367.386719 287.257812 C 366.933594 287.175781 366.566406 287.261719 366.289062 287.515625 Z M 334.550781 269.203125 C 333.15625 271.933594 333.132812 274.746094 334.476562 277.636719 C 335.726562 280.3125 337.726562 282.195312 340.484375 283.277344 C 341.355469 283.621094 342.03125 283.394531 342.515625 282.59375 C 342.753906 282.171875 343.035156 281.644531 343.355469 281.015625 C 343.675781 280.390625 344.035156 279.664062 344.433594 278.832031 C 344.816406 278.03125 344.671875 277.3125 344.003906 276.671875 C 343.898438 276.542969 343.644531 276.304688 343.25 275.953125 C 342.925781 275.664062 342.675781 275.421875 342.5 275.234375 C 341.351562 274 341.101562 272.746094 341.753906 271.46875 C 341.804688 271.367188 341.859375 271.269531 341.921875 271.167969 C 342.796875 269.796875 344.089844 269.3125 345.800781 269.710938 C 347.085938 270.019531 348.433594 270.820312 349.839844 272.109375 C 351.703125 273.828125 352.359375 275.90625 351.8125 278.34375 C 351.515625 279.660156 351.460938 280.5 351.644531 280.867188 C 351.808594 281.226562 352.519531 281.738281 353.773438 282.402344 C 354.328125 282.683594 354.71875 282.871094 354.945312 282.960938 C 355.8125 283.355469 356.421875 283.503906 356.769531 283.410156 C 357.117188 283.3125 357.617188 282.871094 358.269531 282.082031 C 358.679688 281.574219 358.894531 281.300781 358.917969 281.257812 C 358.917969 281.253906 358.917969 281.25 358.917969 281.253906 L 358.917969 281.25 C 360.558594 279.453125 362.472656 278.964844 364.667969 279.785156 C 366.398438 280.441406 367.957031 281.238281 369.347656 282.171875 C 370.519531 282.945312 371.023438 284.035156 370.851562 285.441406 C 370.804688 285.953125 370.675781 286.410156 370.46875 286.816406 C 370.117188 287.503906 369.539062 288.042969 368.730469 288.429688 C 367.976562 288.789062 367.210938 288.921875 366.4375 288.828125 C 366.367188 288.816406 365.757812 288.714844 364.609375 288.527344 C 363.960938 288.425781 363.496094 288.640625 363.222656 289.183594 C 363.195312 289.234375 363.171875 289.292969 363.148438 289.351562 C 362.5 290.960938 362.128906 291.855469 362.039062 292.03125 C 361.40625 293.328125 361.175781 294.21875 361.347656 294.703125 C 361.535156 295.171875 362.332031 295.730469 363.746094 296.375 C 364.355469 296.636719 364.863281 296.796875 365.257812 296.847656 C 369.753906 297.449219 373.394531 296.144531 376.175781 292.933594 C 376.535156 292.523438 377.148438 291.464844 378.015625 289.769531 C 378.027344 289.742188 378.042969 289.71875 378.054688 289.691406 C 379.320312 287.214844 379.492188 284.507812 378.574219 281.578125 C 377.644531 278.617188 375.90625 276.484375 373.359375 275.183594 C 370.171875 273.582031 368.375 272.664062 367.96875 272.433594 C 366.410156 271.589844 364.699219 271.300781 362.84375 271.574219 C 362.449219 271.621094 361.886719 271.722656 361.160156 271.875 C 360.367188 272.015625 359.804688 272.117188 359.480469 272.171875 C 358.613281 272.304688 357.976562 271.96875 357.566406 271.160156 C 357.453125 270.902344 357.320312 270.574219 357.175781 270.175781 C 356.507812 268.167969 355.082031 266.570312 352.902344 265.382812 L 350.8125 264.28125 L 349.183594 263.449219 C 346.636719 262.050781 343.917969 261.84375 341.023438 262.832031 C 338.429688 263.722656 336.546875 265.3125 335.378906 267.605469 L 334.773438 268.789062 C 334.695312 268.925781 334.621094 269.066406 334.550781 269.203125 Z M 363 270.757812 C 363.070312 270.769531 363.117188 270.769531 363.148438 270.757812 C 363.753906 270.644531 364.152344 270.574219 364.339844 270.546875 C 366.277344 270.265625 368.0625 270.566406 369.703125 271.453125 C 370.5625 271.914062 371.839844 272.578125 373.539062 273.445312 L 375.078125 274.230469 C 377.714844 275.550781 379.519531 277.742188 380.496094 280.804688 C 381.453125 283.855469 381.273438 286.675781 379.953125 289.261719 L 379.332031 290.476562 C 378.871094 291.386719 378.429688 292.082031 378.007812 292.5625 C 377.976562 292.621094 377.921875 292.683594 377.84375 292.742188 C 377.753906 292.816406 377.699219 292.875 377.679688 292.914062 L 377.679688 292.917969 C 378.136719 292.503906 378.550781 292.082031 378.921875 291.648438 C 379.28125 291.234375 379.90625 290.183594 380.792969 288.496094 C 380.804688 288.472656 380.820312 288.445312 380.832031 288.421875 C 382.09375 285.941406 382.269531 283.238281 381.351562 280.304688 C 380.402344 277.332031 378.664062 275.203125 376.136719 273.914062 C 372.957031 272.292969 371.148438 271.371094 370.714844 271.148438 C 369.175781 270.3125 367.484375 270.019531 365.636719 270.273438 C 365.53125 270.292969 364.652344 270.453125 363.003906 270.757812 Z M 363 270.757812 " fill-opacity="1" fill-rule="nonzero"/></g></g></g><g clip-path="url(#d9ba1b650c)"><g clip-path="url(#555813b508)"><g clip-path="url(#eeeb379d7f)"><path fill="#6d5764" d="M 311.140625 283.347656 C 310.664062 284.371094 310.617188 285.082031 310.996094 285.476562 C 311.050781 285.175781 311.191406 284.78125 311.417969 284.289062 C 311.492188 284.148438 311.605469 283.925781 311.757812 283.628906 L 317.878906 271.753906 C 325.945312 256.101562 331.996094 244.367188 336.023438 236.550781 C 336.796875 235.050781 337.441406 234.214844 337.960938 234.050781 C 338.496094 233.894531 339.535156 234.214844 341.078125 235.011719 L 341.378906 235.167969 C 342.039062 235.507812 342.589844 235.816406 343.03125 236.09375 C 342.945312 235.820312 342.742188 235.578125 342.421875 235.359375 C 341.960938 235.074219 341.257812 234.6875 340.316406 234.199219 C 338.875 233.457031 337.941406 233.152344 337.515625 233.289062 C 337.070312 233.414062 336.484375 234.179688 335.761719 235.582031 C 333.460938 240.050781 325.398438 255.691406 311.574219 282.503906 C 311.347656 282.945312 311.203125 283.226562 311.140625 283.347656 Z M 312.292969 285.84375 C 311.917969 286.664062 311.785156 287.242188 311.890625 287.578125 C 311.988281 287.929688 312.40625 288.324219 313.148438 288.757812 C 313.347656 288.859375 313.839844 289.113281 314.621094 289.515625 C 316.105469 290.28125 317.039062 290.609375 317.421875 290.503906 C 317.816406 290.375 318.386719 289.59375 319.128906 288.148438 L 343.085938 241.675781 C 343.128906 241.585938 343.175781 241.5 343.21875 241.417969 C 343.632812 240.601562 343.9375 239.964844 344.125 239.511719 C 344.375 238.828125 344.183594 238.285156 343.554688 237.886719 C 343.105469 237.578125 342.417969 237.1875 341.496094 236.710938 C 340.042969 235.988281 339.09375 235.6875 338.648438 235.8125 C 338.203125 235.9375 337.621094 236.703125 336.894531 238.105469 C 334.210938 243.316406 326.152344 258.949219 312.726562 285 C 312.496094 285.441406 312.351562 285.722656 312.292969 285.84375 Z M 312.292969 285.84375 " fill-opacity="1" fill-rule="nonzero"/></g></g></g></svg>