<svg xmlns="http://www.w3.org/2000/svg" xmlns:xlink="http://www.w3.org/1999/xlink" width="1000" zoomAndPan="magnify" viewBox="0 0 750 749.999995" height="1000" preserveAspectRatio="xMidYMid meet" version="1.0"><defs><g/></defs><rect x="-75" width="900" fill="#ffffff" y="-74.999999" height="899.999994" fill-opacity="1"/><rect x="-75" width="900" fill="#ffffff" y="-74.999999" height="899.999994" fill-opacity="1"/><g fill="#000000" fill-opacity="1"><g transform="translate(260.869395, 508.382215)"><g><path d="M 202.15625 0 L 150.4375 0 L 150.4375 -110.75 C 150.4375 -124.425781 148.003906 -134.679688 143.140625 -141.515625 C 138.273438 -148.359375 130.53125 -151.78125 119.90625 -151.78125 C 105.425781 -151.78125 94.960938 -146.945312 88.515625 -137.28125 C 82.078125 -127.613281 78.859375 -111.585938 78.859375 -89.203125 L 78.859375 0 L 27.140625 0 L 27.140625 -189.609375 L 66.65625 -189.609375 L 73.609375 -165.359375 L 76.484375 -165.359375 C 82.253906 -174.515625 90.195312 -181.4375 100.3125 -186.125 C 110.4375 -190.820312 121.941406 -193.171875 134.828125 -193.171875 C 156.867188 -193.171875 173.597656 -187.207031 185.015625 -175.28125 C 196.441406 -163.351562 202.15625 -146.140625 202.15625 -123.640625 Z M 202.15625 0 "/></g></g></g></svg>