<svg xmlns="http://www.w3.org/2000/svg" xmlns:xlink="http://www.w3.org/1999/xlink" width="1000" zoomAndPan="magnify" viewBox="0 0 750 749.999995" height="1000" preserveAspectRatio="xMidYMid meet" version="1.0"><defs><g/><clipPath id="e6ddfb2188"><path d="M 103.128906 137.113281 L 646.871094 137.113281 L 646.871094 612.886719 L 103.128906 612.886719 Z M 103.128906 137.113281 " clip-rule="nonzero"/></clipPath><clipPath id="821a362744"><path d="M 375 137.113281 L 646.871094 612.886719 L 103.128906 612.886719 L 375 137.113281 " clip-rule="nonzero"/></clipPath><clipPath id="975618cb27"><path d="M 103.128906 137.113281 L 646.878906 137.113281 L 646.878906 612.613281 L 103.128906 612.613281 Z M 103.128906 137.113281 " clip-rule="nonzero"/></clipPath><clipPath id="c1875b2a44"><path d="M 375.003906 137.113281 L 646.878906 612.613281 L 103.128906 612.613281 L 375.003906 137.113281 " clip-rule="nonzero"/></clipPath></defs><rect x="-75" width="900" fill="#ffffff" y="-74.999999" height="899.999994" fill-opacity="1"/><rect x="-75" width="900" fill="#ffffff" y="-74.999999" height="899.999994" fill-opacity="1"/><g clip-path="url(#e6ddfb2188)"><g clip-path="url(#821a362744)"><path fill="#ffffff" d="M 103.128906 137.113281 L 646.871094 137.113281 L 646.871094 612.886719 L 103.128906 612.886719 Z M 103.128906 137.113281 " fill-opacity="1" fill-rule="nonzero"/></g></g><g clip-path="url(#975618cb27)"><g clip-path="url(#c1875b2a44)"><path stroke-linecap="butt" transform="matrix(0.750016, 0, 0, 0.749575, 103.128828, 137.111965)" fill="none" stroke-linejoin="miter" d="M 362.492292 0.00175557 L 724.98448 634.361189 L 0.000104299 634.361189 L 362.492292 0.00175557 " stroke="#000000" stroke-width="8" stroke-opacity="1" stroke-miterlimit="4"/></g></g><g fill="#000000" fill-opacity="1"><g transform="translate(147.540963, 682.490664)"><g><path d="M 16.296875 0 L 9.546875 0 L 9.546875 -26.21875 L 0.890625 -26.21875 L 0.890625 -31.84375 L 24.9375 -31.84375 L 24.9375 -26.21875 L 16.296875 -26.21875 Z M 16.296875 0 "/></g></g></g><g fill="#000000" fill-opacity="1"><g transform="translate(173.37071, 682.490664)"><g><path d="M 17.078125 -24.8125 C 17.972656 -24.8125 18.722656 -24.742188 19.328125 -24.609375 L 18.8125 -18.390625 C 18.28125 -18.535156 17.628906 -18.609375 16.859375 -18.609375 C 14.734375 -18.609375 13.078125 -18.0625 11.890625 -16.96875 C 10.710938 -15.875 10.125 -14.347656 10.125 -12.390625 L 10.125 0 L 3.484375 0 L 3.484375 -24.359375 L 8.515625 -24.359375 L 9.5 -20.25 L 9.828125 -20.25 C 10.578125 -21.625 11.59375 -22.726562 12.875 -23.5625 C 14.164062 -24.394531 15.566406 -24.8125 17.078125 -24.8125 Z M 17.078125 -24.8125 "/></g></g></g><g fill="#000000" fill-opacity="1"><g transform="translate(193.625064, 682.490664)"><g><path d="M 3.203125 -30.640625 C 3.203125 -32.804688 4.40625 -33.890625 6.8125 -33.890625 C 9.226562 -33.890625 10.4375 -32.804688 10.4375 -30.640625 C 10.4375 -29.609375 10.132812 -28.804688 9.53125 -28.234375 C 8.925781 -27.660156 8.019531 -27.375 6.8125 -27.375 C 4.40625 -27.375 3.203125 -28.460938 3.203125 -30.640625 Z M 10.125 0 L 3.484375 0 L 3.484375 -24.359375 L 10.125 -24.359375 Z M 10.125 0 "/></g></g></g><g fill="#000000" fill-opacity="1"><g transform="translate(207.236868, 682.490664)"><g><path d="M 18.953125 0 L 17.671875 -3.3125 L 17.484375 -3.3125 C 16.367188 -1.90625 15.21875 -0.925781 14.03125 -0.375 C 12.851562 0.164062 11.3125 0.4375 9.40625 0.4375 C 7.070312 0.4375 5.234375 -0.226562 3.890625 -1.5625 C 2.546875 -2.90625 1.875 -4.8125 1.875 -7.28125 C 1.875 -9.863281 2.773438 -11.765625 4.578125 -12.984375 C 6.390625 -14.210938 9.117188 -14.894531 12.765625 -15.03125 L 16.984375 -15.15625 L 16.984375 -16.234375 C 16.984375 -18.703125 15.722656 -19.9375 13.203125 -19.9375 C 11.253906 -19.9375 8.96875 -19.347656 6.34375 -18.171875 L 4.140625 -22.65625 C 6.941406 -24.125 10.050781 -24.859375 13.46875 -24.859375 C 16.726562 -24.859375 19.226562 -24.144531 20.96875 -22.71875 C 22.71875 -21.289062 23.59375 -19.128906 23.59375 -16.234375 L 23.59375 0 Z M 16.984375 -11.28125 L 14.421875 -11.203125 C 12.484375 -11.140625 11.039062 -10.785156 10.09375 -10.140625 C 9.15625 -9.503906 8.6875 -8.535156 8.6875 -7.234375 C 8.6875 -5.359375 9.765625 -4.421875 11.921875 -4.421875 C 13.453125 -4.421875 14.675781 -4.863281 15.59375 -5.75 C 16.519531 -6.632812 16.984375 -7.8125 16.984375 -9.28125 Z M 9.609375 -27.03125 L 9.609375 -27.625 C 12.109375 -30.519531 13.8125 -32.703125 14.71875 -34.171875 L 22.171875 -34.171875 L 22.171875 -33.71875 C 21.421875 -32.957031 20.132812 -31.832031 18.3125 -30.34375 C 16.488281 -28.863281 15.0625 -27.757812 14.03125 -27.03125 Z M 9.609375 -27.03125 "/></g></g></g><g fill="#000000" fill-opacity="1"><g transform="translate(234.177343, 682.490664)"><g><path d="M 25.96875 0 L 19.328125 0 L 19.328125 -14.21875 C 19.328125 -15.976562 19.015625 -17.296875 18.390625 -18.171875 C 17.765625 -19.054688 16.769531 -19.5 15.40625 -19.5 C 13.539062 -19.5 12.191406 -18.875 11.359375 -17.625 C 10.535156 -16.382812 10.125 -14.328125 10.125 -11.453125 L 10.125 0 L 3.484375 0 L 3.484375 -24.359375 L 8.5625 -24.359375 L 9.453125 -21.234375 L 9.828125 -21.234375 C 10.566406 -22.410156 11.582031 -23.300781 12.875 -23.90625 C 14.175781 -24.507812 15.65625 -24.8125 17.3125 -24.8125 C 20.144531 -24.8125 22.296875 -24.046875 23.765625 -22.515625 C 25.234375 -20.984375 25.96875 -18.769531 25.96875 -15.875 Z M 25.96875 0 "/></g></g></g><g fill="#000000" fill-opacity="1"><g transform="translate(263.491709, 682.490664)"><g><path d="M 24.671875 -24.359375 L 24.671875 -20.96875 L 20.859375 -20 C 21.554688 -18.90625 21.90625 -17.6875 21.90625 -16.34375 C 21.90625 -13.726562 20.992188 -11.6875 19.171875 -10.21875 C 17.359375 -8.757812 14.832031 -8.03125 11.59375 -8.03125 L 10.390625 -8.109375 L 9.40625 -8.21875 C 8.726562 -7.6875 8.390625 -7.101562 8.390625 -6.46875 C 8.390625 -5.507812 9.609375 -5.03125 12.046875 -5.03125 L 16.1875 -5.03125 C 18.851562 -5.03125 20.882812 -4.457031 22.28125 -3.3125 C 23.6875 -2.164062 24.390625 -0.476562 24.390625 1.75 C 24.390625 4.59375 23.203125 6.796875 20.828125 8.359375 C 18.453125 9.929688 15.046875 10.71875 10.609375 10.71875 C 7.210938 10.71875 4.613281 10.125 2.8125 8.9375 C 1.019531 7.757812 0.125 6.101562 0.125 3.96875 C 0.125 2.5 0.582031 1.269531 1.5 0.28125 C 2.414062 -0.707031 3.757812 -1.410156 5.53125 -1.828125 C 4.851562 -2.117188 4.257812 -2.59375 3.75 -3.25 C 3.238281 -3.914062 2.984375 -4.617188 2.984375 -5.359375 C 2.984375 -6.285156 3.25 -7.054688 3.78125 -7.671875 C 4.320312 -8.296875 5.101562 -8.90625 6.125 -9.5 C 4.84375 -10.050781 3.828125 -10.9375 3.078125 -12.15625 C 2.328125 -13.375 1.953125 -14.8125 1.953125 -16.46875 C 1.953125 -19.125 2.816406 -21.175781 4.546875 -22.625 C 6.273438 -24.082031 8.742188 -24.8125 11.953125 -24.8125 C 12.640625 -24.8125 13.453125 -24.75 14.390625 -24.625 C 15.328125 -24.5 15.925781 -24.410156 16.1875 -24.359375 Z M 5.875 3.4375 C 5.875 4.351562 6.3125 5.070312 7.1875 5.59375 C 8.070312 6.113281 9.304688 6.375 10.890625 6.375 C 13.273438 6.375 15.140625 6.046875 16.484375 5.390625 C 17.835938 4.742188 18.515625 3.851562 18.515625 2.71875 C 18.515625 1.800781 18.113281 1.171875 17.3125 0.828125 C 16.519531 0.484375 15.285156 0.3125 13.609375 0.3125 L 10.171875 0.3125 C 8.953125 0.3125 7.929688 0.597656 7.109375 1.171875 C 6.285156 1.742188 5.875 2.5 5.875 3.4375 Z M 8.296875 -16.375 C 8.296875 -15.050781 8.597656 -14.003906 9.203125 -13.234375 C 9.804688 -12.472656 10.722656 -12.09375 11.953125 -12.09375 C 13.203125 -12.09375 14.117188 -12.472656 14.703125 -13.234375 C 15.285156 -14.003906 15.578125 -15.050781 15.578125 -16.375 C 15.578125 -19.3125 14.367188 -20.78125 11.953125 -20.78125 C 9.515625 -20.78125 8.296875 -19.3125 8.296875 -16.375 Z M 8.296875 -16.375 "/></g></g></g><g fill="#000000" fill-opacity="1"><g transform="translate(288.689875, 682.490664)"><g><path d="M 20.734375 0 L 19.84375 -3.109375 L 19.5 -3.109375 C 18.78125 -1.984375 17.765625 -1.109375 16.453125 -0.484375 C 15.148438 0.128906 13.664062 0.4375 12 0.4375 C 9.132812 0.4375 6.976562 -0.328125 5.53125 -1.859375 C 4.082031 -3.390625 3.359375 -5.59375 3.359375 -8.46875 L 3.359375 -24.359375 L 10 -24.359375 L 10 -10.125 C 10 -8.375 10.3125 -7.054688 10.9375 -6.171875 C 11.5625 -5.296875 12.554688 -4.859375 13.921875 -4.859375 C 15.773438 -4.859375 17.113281 -5.476562 17.9375 -6.71875 C 18.769531 -7.957031 19.1875 -10.015625 19.1875 -12.890625 L 19.1875 -24.359375 L 25.828125 -24.359375 L 25.828125 0 Z M 20.734375 0 "/></g></g></g><g fill="#000000" fill-opacity="1"><g transform="translate(318.004241, 682.490664)"><g><path d="M 10.125 0 L 3.484375 0 L 3.484375 -33.890625 L 10.125 -33.890625 Z M 10.125 0 "/></g></g></g><g fill="#000000" fill-opacity="1"><g transform="translate(331.616045, 682.490664)"><g><path d="M 8.78125 -12.21875 C 8.78125 -9.8125 9.175781 -7.988281 9.96875 -6.75 C 10.757812 -5.519531 12.046875 -4.90625 13.828125 -4.90625 C 15.597656 -4.90625 16.867188 -5.515625 17.640625 -6.734375 C 18.421875 -7.960938 18.8125 -9.789062 18.8125 -12.21875 C 18.8125 -14.625 18.421875 -16.429688 17.640625 -17.640625 C 16.859375 -18.847656 15.570312 -19.453125 13.78125 -19.453125 C 12.007812 -19.453125 10.734375 -18.851562 9.953125 -17.65625 C 9.171875 -16.457031 8.78125 -14.644531 8.78125 -12.21875 Z M 25.609375 -12.21875 C 25.609375 -8.25 24.5625 -5.144531 22.46875 -2.90625 C 20.382812 -0.675781 17.476562 0.4375 13.75 0.4375 C 11.40625 0.4375 9.335938 -0.0703125 7.546875 -1.09375 C 5.765625 -2.125 4.394531 -3.597656 3.4375 -5.515625 C 2.476562 -7.429688 2 -9.664062 2 -12.21875 C 2 -16.195312 3.035156 -19.289062 5.109375 -21.5 C 7.191406 -23.707031 10.113281 -24.8125 13.875 -24.8125 C 16.207031 -24.8125 18.265625 -24.300781 20.046875 -23.28125 C 21.835938 -22.269531 23.210938 -20.8125 24.171875 -18.90625 C 25.128906 -17 25.609375 -14.769531 25.609375 -12.21875 Z M 25.609375 -12.21875 "/></g></g></g><g fill="#000000" fill-opacity="1"><g transform="translate(359.23166, 682.490664)"><g/></g></g><g fill="#000000" fill-opacity="1"><g transform="translate(370.818021, 682.490664)"><g><path d="M 13.5625 -20.078125 C 12.15625 -20.078125 11.050781 -19.628906 10.25 -18.734375 C 9.457031 -17.847656 9.003906 -16.582031 8.890625 -14.9375 L 18.203125 -14.9375 C 18.179688 -16.582031 17.753906 -17.847656 16.921875 -18.734375 C 16.097656 -19.628906 14.976562 -20.078125 13.5625 -20.078125 Z M 14.5 0.4375 C 10.582031 0.4375 7.519531 -0.644531 5.3125 -2.8125 C 3.101562 -4.976562 2 -8.039062 2 -12 C 2 -16.082031 3.019531 -19.238281 5.0625 -21.46875 C 7.101562 -23.695312 9.925781 -24.8125 13.53125 -24.8125 C 16.96875 -24.8125 19.644531 -23.828125 21.5625 -21.859375 C 23.476562 -19.898438 24.4375 -17.195312 24.4375 -13.75 L 24.4375 -10.515625 L 8.734375 -10.515625 C 8.804688 -8.628906 9.363281 -7.15625 10.40625 -6.09375 C 11.457031 -5.039062 12.925781 -4.515625 14.8125 -4.515625 C 16.28125 -4.515625 17.664062 -4.664062 18.96875 -4.96875 C 20.28125 -5.269531 21.644531 -5.753906 23.0625 -6.421875 L 23.0625 -1.28125 C 21.90625 -0.695312 20.664062 -0.265625 19.34375 0.015625 C 18.019531 0.296875 16.40625 0.4375 14.5 0.4375 Z M 14.5 0.4375 "/></g></g></g><g fill="#000000" fill-opacity="1"><g transform="translate(397.170448, 682.490664)"><g><path d="M 13.5625 -4.765625 C 15.25 -4.765625 16.484375 -5.25 17.265625 -6.21875 C 18.054688 -7.1875 18.488281 -8.875 18.5625 -11.28125 L 18.5625 -12.09375 C 18.5625 -14.707031 18.15625 -16.578125 17.34375 -17.703125 C 16.539062 -18.835938 15.25 -19.40625 13.46875 -19.40625 C 10.34375 -19.40625 8.78125 -16.953125 8.78125 -12.046875 C 8.78125 -9.609375 9.164062 -7.785156 9.9375 -6.578125 C 10.71875 -5.367188 11.925781 -4.765625 13.5625 -4.765625 Z M 11.203125 0.4375 C 8.328125 0.4375 6.070312 -0.664062 4.4375 -2.875 C 2.8125 -5.09375 2 -8.175781 2 -12.125 C 2 -16.101562 2.828125 -19.210938 4.484375 -21.453125 C 6.148438 -23.691406 8.429688 -24.8125 11.328125 -24.8125 C 12.867188 -24.8125 14.210938 -24.519531 15.359375 -23.9375 C 16.503906 -23.351562 17.515625 -22.453125 18.390625 -21.234375 L 18.5625 -21.234375 L 19.140625 -24.359375 L 24.765625 -24.359375 L 24.765625 10.71875 L 18.09375 10.71875 L 18.09375 0.5 C 18.09375 -0.382812 18.191406 -1.601562 18.390625 -3.15625 L 18.09375 -3.15625 C 17.382812 -1.976562 16.441406 -1.082031 15.265625 -0.46875 C 14.085938 0.132812 12.734375 0.4375 11.203125 0.4375 Z M 11.203125 0.4375 "/></g></g></g><g fill="#000000" fill-opacity="1"><g transform="translate(425.395871, 682.490664)"><g><path d="M 20.734375 0 L 19.84375 -3.109375 L 19.5 -3.109375 C 18.78125 -1.984375 17.765625 -1.109375 16.453125 -0.484375 C 15.148438 0.128906 13.664062 0.4375 12 0.4375 C 9.132812 0.4375 6.976562 -0.328125 5.53125 -1.859375 C 4.082031 -3.390625 3.359375 -5.59375 3.359375 -8.46875 L 3.359375 -24.359375 L 10 -24.359375 L 10 -10.125 C 10 -8.375 10.3125 -7.054688 10.9375 -6.171875 C 11.5625 -5.296875 12.554688 -4.859375 13.921875 -4.859375 C 15.773438 -4.859375 17.113281 -5.476562 17.9375 -6.71875 C 18.769531 -7.957031 19.1875 -10.015625 19.1875 -12.890625 L 19.1875 -24.359375 L 25.828125 -24.359375 L 25.828125 0 Z M 20.734375 0 "/></g></g></g><g fill="#000000" fill-opacity="1"><g transform="translate(454.710225, 682.490664)"><g><path d="M 3.203125 -30.640625 C 3.203125 -32.804688 4.40625 -33.890625 6.8125 -33.890625 C 9.226562 -33.890625 10.4375 -32.804688 10.4375 -30.640625 C 10.4375 -29.609375 10.132812 -28.804688 9.53125 -28.234375 C 8.925781 -27.660156 8.019531 -27.375 6.8125 -27.375 C 4.40625 -27.375 3.203125 -28.460938 3.203125 -30.640625 Z M 10.125 0 L 3.484375 0 L 3.484375 -24.359375 L 10.125 -24.359375 Z M 10.125 0 "/></g></g></g><g fill="#000000" fill-opacity="1"><g transform="translate(468.322041, 682.490664)"><g><path d="M 10.125 0 L 3.484375 0 L 3.484375 -33.890625 L 10.125 -33.890625 Z M 10.125 0 "/></g></g></g><g fill="#000000" fill-opacity="1"><g transform="translate(481.933857, 682.490664)"><g><path d="M 18.953125 0 L 17.671875 -3.3125 L 17.484375 -3.3125 C 16.367188 -1.90625 15.21875 -0.925781 14.03125 -0.375 C 12.851562 0.164062 11.3125 0.4375 9.40625 0.4375 C 7.070312 0.4375 5.234375 -0.226562 3.890625 -1.5625 C 2.546875 -2.90625 1.875 -4.8125 1.875 -7.28125 C 1.875 -9.863281 2.773438 -11.765625 4.578125 -12.984375 C 6.390625 -14.210938 9.117188 -14.894531 12.765625 -15.03125 L 16.984375 -15.15625 L 16.984375 -16.234375 C 16.984375 -18.703125 15.722656 -19.9375 13.203125 -19.9375 C 11.253906 -19.9375 8.96875 -19.347656 6.34375 -18.171875 L 4.140625 -22.65625 C 6.941406 -24.125 10.050781 -24.859375 13.46875 -24.859375 C 16.726562 -24.859375 19.226562 -24.144531 20.96875 -22.71875 C 22.71875 -21.289062 23.59375 -19.128906 23.59375 -16.234375 L 23.59375 0 Z M 16.984375 -11.28125 L 14.421875 -11.203125 C 12.484375 -11.140625 11.039062 -10.785156 10.09375 -10.140625 C 9.15625 -9.503906 8.6875 -8.535156 8.6875 -7.234375 C 8.6875 -5.359375 9.765625 -4.421875 11.921875 -4.421875 C 13.453125 -4.421875 14.675781 -4.863281 15.59375 -5.75 C 16.519531 -6.632812 16.984375 -7.8125 16.984375 -9.28125 Z M 16.984375 -11.28125 "/></g></g></g><g fill="#000000" fill-opacity="1"><g transform="translate(508.87432, 682.490664)"><g><path d="M 13.75 -4.859375 C 14.90625 -4.859375 16.296875 -5.113281 17.921875 -5.625 L 17.921875 -0.671875 C 16.265625 0.0664062 14.234375 0.4375 11.828125 0.4375 C 9.171875 0.4375 7.234375 -0.234375 6.015625 -1.578125 C 4.804688 -2.921875 4.203125 -4.9375 4.203125 -7.625 L 4.203125 -19.359375 L 1.03125 -19.359375 L 1.03125 -22.171875 L 4.6875 -24.390625 L 6.59375 -29.53125 L 10.84375 -29.53125 L 10.84375 -24.359375 L 17.671875 -24.359375 L 17.671875 -19.359375 L 10.84375 -19.359375 L 10.84375 -7.625 C 10.84375 -6.675781 11.109375 -5.976562 11.640625 -5.53125 C 12.171875 -5.082031 12.875 -4.859375 13.75 -4.859375 Z M 13.75 -4.859375 "/></g></g></g><g fill="#000000" fill-opacity="1"><g transform="translate(528.23576, 682.490664)"><g><path d="M 13.5625 -20.078125 C 12.15625 -20.078125 11.050781 -19.628906 10.25 -18.734375 C 9.457031 -17.847656 9.003906 -16.582031 8.890625 -14.9375 L 18.203125 -14.9375 C 18.179688 -16.582031 17.753906 -17.847656 16.921875 -18.734375 C 16.097656 -19.628906 14.976562 -20.078125 13.5625 -20.078125 Z M 14.5 0.4375 C 10.582031 0.4375 7.519531 -0.644531 5.3125 -2.8125 C 3.101562 -4.976562 2 -8.039062 2 -12 C 2 -16.082031 3.019531 -19.238281 5.0625 -21.46875 C 7.101562 -23.695312 9.925781 -24.8125 13.53125 -24.8125 C 16.96875 -24.8125 19.644531 -23.828125 21.5625 -21.859375 C 23.476562 -19.898438 24.4375 -17.195312 24.4375 -13.75 L 24.4375 -10.515625 L 8.734375 -10.515625 C 8.804688 -8.628906 9.363281 -7.15625 10.40625 -6.09375 C 11.457031 -5.039062 12.925781 -4.515625 14.8125 -4.515625 C 16.28125 -4.515625 17.664062 -4.664062 18.96875 -4.96875 C 20.28125 -5.269531 21.644531 -5.753906 23.0625 -6.421875 L 23.0625 -1.28125 C 21.90625 -0.695312 20.664062 -0.265625 19.34375 0.015625 C 18.019531 0.296875 16.40625 0.4375 14.5 0.4375 Z M 14.5 0.4375 "/></g></g></g><g fill="#000000" fill-opacity="1"><g transform="translate(554.588186, 682.490664)"><g><path d="M 17.078125 -24.8125 C 17.972656 -24.8125 18.722656 -24.742188 19.328125 -24.609375 L 18.8125 -18.390625 C 18.28125 -18.535156 17.628906 -18.609375 16.859375 -18.609375 C 14.734375 -18.609375 13.078125 -18.0625 11.890625 -16.96875 C 10.710938 -15.875 10.125 -14.347656 10.125 -12.390625 L 10.125 0 L 3.484375 0 L 3.484375 -24.359375 L 8.515625 -24.359375 L 9.5 -20.25 L 9.828125 -20.25 C 10.578125 -21.625 11.59375 -22.726562 12.875 -23.5625 C 14.164062 -24.394531 15.566406 -24.8125 17.078125 -24.8125 Z M 17.078125 -24.8125 "/></g></g></g><g fill="#000000" fill-opacity="1"><g transform="translate(574.842528, 682.490664)"><g><path d="M 8.78125 -12.21875 C 8.78125 -9.8125 9.175781 -7.988281 9.96875 -6.75 C 10.757812 -5.519531 12.046875 -4.90625 13.828125 -4.90625 C 15.597656 -4.90625 16.867188 -5.515625 17.640625 -6.734375 C 18.421875 -7.960938 18.8125 -9.789062 18.8125 -12.21875 C 18.8125 -14.625 18.421875 -16.429688 17.640625 -17.640625 C 16.859375 -18.847656 15.570312 -19.453125 13.78125 -19.453125 C 12.007812 -19.453125 10.734375 -18.851562 9.953125 -17.65625 C 9.171875 -16.457031 8.78125 -14.644531 8.78125 -12.21875 Z M 25.609375 -12.21875 C 25.609375 -8.25 24.5625 -5.144531 22.46875 -2.90625 C 20.382812 -0.675781 17.476562 0.4375 13.75 0.4375 C 11.40625 0.4375 9.335938 -0.0703125 7.546875 -1.09375 C 5.765625 -2.125 4.394531 -3.597656 3.4375 -5.515625 C 2.476562 -7.429688 2 -9.664062 2 -12.21875 C 2 -16.195312 3.035156 -19.289062 5.109375 -21.5 C 7.191406 -23.707031 10.113281 -24.8125 13.875 -24.8125 C 16.207031 -24.8125 18.265625 -24.300781 20.046875 -23.28125 C 21.835938 -22.269531 23.210938 -20.8125 24.171875 -18.90625 C 25.128906 -17 25.609375 -14.769531 25.609375 -12.21875 Z M 25.609375 -12.21875 "/></g></g></g><g fill="#000000" fill-opacity="1"><g transform="translate(505.937297, 348.128117)"><g><path d="M 14.1875 24.75 L 10.5625 18.421875 L 24.140625 10.640625 C 25.804688 9.679688 26.882812 8.664062 27.375 7.59375 C 27.875 6.53125 27.75 5.347656 27 4.046875 C 25.988281 2.273438 24.660156 1.332031 23.015625 1.21875 C 21.378906 1.101562 19.191406 1.828125 16.453125 3.390625 L 5.53125 9.65625 L 1.90625 3.328125 L 25.125 -9.96875 L 27.890625 -5.140625 L 25.421875 -2.59375 L 25.609375 -2.234375 C 27.140625 -2.171875 28.546875 -1.679688 29.828125 -0.765625 C 31.109375 0.140625 32.203125 1.382812 33.109375 2.96875 C 34.660156 5.664062 35.109375 8.128906 34.453125 10.359375 C 33.796875 12.585938 32.085938 14.492188 29.328125 16.078125 Z M 14.1875 24.75 "/></g></g></g><g fill="#000000" fill-opacity="1"><g transform="translate(521.953859, 376.087098)"><g><path d="M 40.328125 -0.015625 L 3.46875 6.046875 L 0.15625 0.28125 L 37.03125 -5.765625 Z M 40.328125 -0.015625 "/></g></g></g><g fill="#000000" fill-opacity="1"><g transform="translate(532.020732, 393.660128)"><g><path d="M 36.03125 8.25 C 34.132812 9.332031 32.191406 9.675781 30.203125 9.28125 C 28.222656 8.894531 26.390625 7.804688 24.703125 6.015625 L 24.578125 6.09375 C 25.671875 8.71875 25.984375 11 25.515625 12.9375 C 25.054688 14.875 23.828125 16.414062 21.828125 17.5625 C 18.890625 19.238281 16 19.484375 13.15625 18.296875 C 10.320312 17.109375 7.78125 14.550781 5.53125 10.625 C 3.632812 7.320312 2.507812 4.085938 2.15625 0.921875 L 7.625 -2.203125 C 7.695312 -0.679688 7.945312 0.890625 8.375 2.515625 C 8.8125 4.140625 9.429688 5.644531 10.234375 7.03125 C 11.441406 9.144531 12.695312 10.5 14 11.09375 C 15.300781 11.695312 16.75 11.546875 18.34375 10.640625 C 19.769531 9.816406 20.445312 8.648438 20.375 7.140625 C 20.300781 5.640625 19.535156 3.613281 18.078125 1.0625 L 16.765625 -1.234375 L 21.6875 -4.0625 L 23.03125 -1.71875 C 24.375 0.632812 25.664062 2.175781 26.90625 2.90625 C 28.144531 3.644531 29.515625 3.582031 31.015625 2.71875 C 33.304688 1.40625 33.628906 -0.679688 31.984375 -3.546875 C 31.398438 -4.554688 30.648438 -5.484375 29.734375 -6.328125 C 28.816406 -7.171875 27.585938 -7.976562 26.046875 -8.75 L 28.78125 -14.265625 C 32.34375 -12.640625 35.222656 -9.910156 37.421875 -6.078125 C 39.222656 -2.929688 40.007812 -0.0820312 39.78125 2.46875 C 39.550781 5.019531 38.300781 6.945312 36.03125 8.25 Z M 36.03125 8.25 "/></g></g></g></svg>