<svg xmlns="http://www.w3.org/2000/svg" xmlns:xlink="http://www.w3.org/1999/xlink" width="1000" zoomAndPan="magnify" viewBox="0 0 750 749.999995" height="1000" preserveAspectRatio="xMidYMid meet" version="1.0"><defs><g/><clipPath id="e70cc8a74d"><path d="M 112.085938 112.359375 L 637.914062 112.359375 L 637.914062 637.640625 L 112.085938 637.640625 Z M 112.085938 112.359375 " clip-rule="nonzero"/></clipPath><clipPath id="98a98558c7"><path d="M 112.085938 112.359375 L 637.835938 112.359375 L 637.835938 637.355469 L 112.085938 637.355469 Z M 112.085938 112.359375 " clip-rule="nonzero"/></clipPath></defs><rect x="-75" width="900" fill="#ffffff" y="-74.999999" height="899.999994" fill-opacity="1"/><rect x="-75" width="900" fill="#ffffff" y="-74.999999" height="899.999994" fill-opacity="1"/><g clip-path="url(#e70cc8a74d)"><path fill="#ffffff" d="M 112.085938 112.359375 L 637.671875 112.359375 L 637.671875 637.359375 L 112.085938 637.359375 Z M 112.085938 112.359375 " fill-opacity="1" fill-rule="nonzero"/></g><g clip-path="url(#98a98558c7)"><path stroke-linecap="butt" transform="matrix(0.7499, 0, 0, 0.749598, 112.087476, 112.358422)" fill="none" stroke-linejoin="miter" d="M -0.00205106 0.00127172 L 701.091694 0.00127172 L 701.091694 700.371092 L -0.00205106 700.371092 L -0.00205106 0.00127172 " stroke="#000000" stroke-width="8" stroke-opacity="1" stroke-miterlimit="4"/></g><g fill="#000000" fill-opacity="1"><g transform="translate(319.460349, 88.552456)"><g><path d="M 39.390625 0 L 29.3125 0 L 29.3125 -21.578125 C 29.3125 -24.242188 28.835938 -26.242188 27.890625 -27.578125 C 26.941406 -28.910156 25.429688 -29.578125 23.359375 -29.578125 C 20.535156 -29.578125 18.492188 -28.632812 17.234375 -26.75 C 15.984375 -24.863281 15.359375 -21.738281 15.359375 -17.375 L 15.359375 0 L 5.28125 0 L 5.28125 -36.9375 L 12.984375 -36.9375 L 14.34375 -32.21875 L 14.90625 -32.21875 C 16.03125 -34 17.578125 -35.347656 19.546875 -36.265625 C 21.515625 -37.179688 23.753906 -37.640625 26.265625 -37.640625 C 30.566406 -37.640625 33.828125 -36.472656 36.046875 -34.140625 C 38.273438 -31.816406 39.390625 -28.46875 39.390625 -24.09375 Z M 39.390625 0 "/></g></g></g><g fill="#000000" fill-opacity="1"><g transform="translate(363.937953, 88.552456)"><g><path d="M 27.625 -48.3125 L 9.609375 0 L 0.46875 0 L 18.46875 -48.3125 Z M 27.625 -48.3125 "/></g></g></g><g fill="#000000" fill-opacity="1"><g transform="translate(391.893417, 88.552456)"><g><path d="M 37.5625 -10.015625 L 31.75 -10.015625 L 31.75 0 L 21.78125 0 L 21.78125 -10.015625 L 1.15625 -10.015625 L 1.15625 -17.109375 L 22.34375 -48.3125 L 31.75 -48.3125 L 31.75 -17.9375 L 37.5625 -17.9375 Z M 21.78125 -17.9375 L 21.78125 -26.140625 C 21.78125 -27.503906 21.832031 -29.484375 21.9375 -32.078125 C 22.050781 -34.679688 22.140625 -36.191406 22.203125 -36.609375 L 21.9375 -36.609375 C 21.125 -34.804688 20.144531 -33.046875 19 -31.328125 L 10.140625 -17.9375 Z M 21.78125 -17.9375 "/></g></g></g><g fill="#000000" fill-opacity="1"><g transform="translate(258.239112, 693.089538)"><g><path d="M 18.953125 -28.84375 C 16.210938 -28.84375 14.085938 -27.8125 12.578125 -25.75 C 11.066406 -23.6875 10.3125 -20.8125 10.3125 -17.125 C 10.3125 -9.445312 13.191406 -5.609375 18.953125 -5.609375 C 21.378906 -5.609375 24.3125 -6.210938 27.75 -7.421875 L 27.75 -1.296875 C 24.914062 -0.117188 21.757812 0.46875 18.28125 0.46875 C 13.269531 0.46875 9.4375 -1.046875 6.78125 -4.078125 C 4.125 -7.117188 2.796875 -11.484375 2.796875 -17.171875 C 2.796875 -20.753906 3.445312 -23.890625 4.75 -26.578125 C 6.0625 -29.273438 7.9375 -31.335938 10.375 -32.765625 C 12.8125 -34.203125 15.671875 -34.921875 18.953125 -34.921875 C 22.296875 -34.921875 25.660156 -34.113281 29.046875 -32.5 L 26.6875 -26.5625 C 25.394531 -27.175781 24.097656 -27.707031 22.796875 -28.15625 C 21.492188 -28.613281 20.210938 -28.84375 18.953125 -28.84375 Z M 18.953125 -28.84375 "/></g></g></g><g fill="#000000" fill-opacity="1"><g transform="translate(288.973821, 693.089538)"><g><path d="M 22.421875 0 L 21.453125 -3.375 L 21.078125 -3.375 C 20.304688 -2.144531 19.210938 -1.195312 17.796875 -0.53125 C 16.390625 0.132812 14.785156 0.46875 12.984375 0.46875 C 9.890625 0.46875 7.554688 -0.359375 5.984375 -2.015625 C 4.410156 -3.671875 3.625 -6.050781 3.625 -9.15625 L 3.625 -26.328125 L 10.8125 -26.328125 L 10.8125 -10.953125 C 10.8125 -9.054688 11.144531 -7.628906 11.8125 -6.671875 C 12.488281 -5.722656 13.566406 -5.25 15.046875 -5.25 C 17.054688 -5.25 18.507812 -5.921875 19.40625 -7.265625 C 20.300781 -8.609375 20.75 -10.832031 20.75 -13.9375 L 20.75 -26.328125 L 27.9375 -26.328125 L 27.9375 0 Z M 22.421875 0 "/></g></g></g><g fill="#000000" fill-opacity="1"><g transform="translate(320.674135, 693.089538)"><g><path d="M 20.484375 0 L 19.09375 -3.578125 L 18.90625 -3.578125 C 17.695312 -2.054688 16.453125 -1 15.171875 -0.40625 C 13.898438 0.175781 12.234375 0.46875 10.171875 0.46875 C 7.640625 0.46875 5.648438 -0.25 4.203125 -1.6875 C 2.753906 -3.132812 2.03125 -5.191406 2.03125 -7.859375 C 2.03125 -10.660156 3.003906 -12.722656 4.953125 -14.046875 C 6.910156 -15.367188 9.859375 -16.101562 13.796875 -16.25 L 18.375 -16.390625 L 18.375 -17.546875 C 18.375 -20.210938 17.003906 -21.546875 14.265625 -21.546875 C 12.160156 -21.546875 9.691406 -20.910156 6.859375 -19.640625 L 4.46875 -24.5 C 7.5 -26.082031 10.863281 -26.875 14.5625 -26.875 C 18.09375 -26.875 20.796875 -26.101562 22.671875 -24.5625 C 24.554688 -23.019531 25.5 -20.679688 25.5 -17.546875 L 25.5 0 Z M 18.375 -12.203125 L 15.59375 -12.109375 C 13.5 -12.046875 11.941406 -11.664062 10.921875 -10.96875 C 9.898438 -10.28125 9.390625 -9.226562 9.390625 -7.8125 C 9.390625 -5.789062 10.554688 -4.78125 12.890625 -4.78125 C 14.546875 -4.78125 15.875 -5.257812 16.875 -6.21875 C 17.875 -7.175781 18.375 -8.445312 18.375 -10.03125 Z M 18.375 -12.203125 "/></g></g></g><g fill="#000000" fill-opacity="1"><g transform="translate(349.807342, 693.089538)"><g><path d="M 12.109375 0.46875 C 9.015625 0.46875 6.582031 -0.726562 4.8125 -3.125 C 3.050781 -5.53125 2.171875 -8.863281 2.171875 -13.125 C 2.171875 -17.4375 3.066406 -20.796875 4.859375 -23.203125 C 6.660156 -25.617188 9.140625 -26.828125 12.296875 -26.828125 C 15.609375 -26.828125 18.132812 -25.539062 19.875 -22.96875 L 20.109375 -22.96875 C 19.753906 -24.925781 19.578125 -26.675781 19.578125 -28.21875 L 19.578125 -36.640625 L 26.78125 -36.640625 L 26.78125 0 L 21.265625 0 L 19.875 -3.421875 L 19.578125 -3.421875 C 17.941406 -0.828125 15.453125 0.46875 12.109375 0.46875 Z M 14.625 -5.25 C 16.457031 -5.25 17.800781 -5.78125 18.65625 -6.84375 C 19.519531 -7.914062 19.988281 -9.734375 20.0625 -12.296875 L 20.0625 -13.078125 C 20.0625 -15.898438 19.625 -17.921875 18.75 -19.140625 C 17.882812 -20.367188 16.472656 -20.984375 14.515625 -20.984375 C 12.910156 -20.984375 11.660156 -20.300781 10.765625 -18.9375 C 9.878906 -17.582031 9.4375 -15.613281 9.4375 -13.03125 C 9.4375 -10.4375 9.882812 -8.488281 10.78125 -7.1875 C 11.675781 -5.894531 12.957031 -5.25 14.625 -5.25 Z M 14.625 -5.25 "/></g></g></g><g fill="#000000" fill-opacity="1"><g transform="translate(380.330081, 693.089538)"><g><path d="M 18.46875 -26.828125 C 19.4375 -26.828125 20.242188 -26.753906 20.890625 -26.609375 L 20.34375 -19.875 C 19.769531 -20.03125 19.066406 -20.109375 18.234375 -20.109375 C 15.941406 -20.109375 14.15625 -19.519531 12.875 -18.34375 C 11.59375 -17.164062 10.953125 -15.519531 10.953125 -13.40625 L 10.953125 0 L 3.765625 0 L 3.765625 -26.328125 L 9.203125 -26.328125 L 10.265625 -21.90625 L 10.625 -21.90625 C 11.4375 -23.382812 12.535156 -24.570312 13.921875 -25.46875 C 15.316406 -26.375 16.832031 -26.828125 18.46875 -26.828125 Z M 18.46875 -26.828125 "/></g></g></g><g fill="#000000" fill-opacity="1"><g transform="translate(402.232973, 693.089538)"><g><path d="M 20.484375 0 L 19.09375 -3.578125 L 18.90625 -3.578125 C 17.695312 -2.054688 16.453125 -1 15.171875 -0.40625 C 13.898438 0.175781 12.234375 0.46875 10.171875 0.46875 C 7.640625 0.46875 5.648438 -0.25 4.203125 -1.6875 C 2.753906 -3.132812 2.03125 -5.191406 2.03125 -7.859375 C 2.03125 -10.660156 3.003906 -12.722656 4.953125 -14.046875 C 6.910156 -15.367188 9.859375 -16.101562 13.796875 -16.25 L 18.375 -16.390625 L 18.375 -17.546875 C 18.375 -20.210938 17.003906 -21.546875 14.265625 -21.546875 C 12.160156 -21.546875 9.691406 -20.910156 6.859375 -19.640625 L 4.46875 -24.5 C 7.5 -26.082031 10.863281 -26.875 14.5625 -26.875 C 18.09375 -26.875 20.796875 -26.101562 22.671875 -24.5625 C 24.554688 -23.019531 25.5 -20.679688 25.5 -17.546875 L 25.5 0 Z M 18.375 -12.203125 L 15.59375 -12.109375 C 13.5 -12.046875 11.941406 -11.664062 10.921875 -10.96875 C 9.898438 -10.28125 9.390625 -9.226562 9.390625 -7.8125 C 9.390625 -5.789062 10.554688 -4.78125 12.890625 -4.78125 C 14.546875 -4.78125 15.875 -5.257812 16.875 -6.21875 C 17.875 -7.175781 18.375 -8.445312 18.375 -10.03125 Z M 18.375 -12.203125 "/></g></g></g><g fill="#000000" fill-opacity="1"><g transform="translate(431.36618, 693.089538)"><g><path d="M 12.109375 0.46875 C 9.015625 0.46875 6.582031 -0.726562 4.8125 -3.125 C 3.050781 -5.53125 2.171875 -8.863281 2.171875 -13.125 C 2.171875 -17.4375 3.066406 -20.796875 4.859375 -23.203125 C 6.660156 -25.617188 9.140625 -26.828125 12.296875 -26.828125 C 15.609375 -26.828125 18.132812 -25.539062 19.875 -22.96875 L 20.109375 -22.96875 C 19.753906 -24.925781 19.578125 -26.675781 19.578125 -28.21875 L 19.578125 -36.640625 L 26.78125 -36.640625 L 26.78125 0 L 21.265625 0 L 19.875 -3.421875 L 19.578125 -3.421875 C 17.941406 -0.828125 15.453125 0.46875 12.109375 0.46875 Z M 14.625 -5.25 C 16.457031 -5.25 17.800781 -5.78125 18.65625 -6.84375 C 19.519531 -7.914062 19.988281 -9.734375 20.0625 -12.296875 L 20.0625 -13.078125 C 20.0625 -15.898438 19.625 -17.921875 18.75 -19.140625 C 17.882812 -20.367188 16.472656 -20.984375 14.515625 -20.984375 C 12.910156 -20.984375 11.660156 -20.300781 10.765625 -18.9375 C 9.878906 -17.582031 9.4375 -15.613281 9.4375 -13.03125 C 9.4375 -10.4375 9.882812 -8.488281 10.78125 -7.1875 C 11.675781 -5.894531 12.957031 -5.25 14.625 -5.25 Z M 14.625 -5.25 "/></g></g></g><g fill="#000000" fill-opacity="1"><g transform="translate(461.888919, 693.089538)"><g><path d="M 9.484375 -13.21875 C 9.484375 -10.601562 9.910156 -8.628906 10.765625 -7.296875 C 11.628906 -5.960938 13.023438 -5.296875 14.953125 -5.296875 C 16.867188 -5.296875 18.242188 -5.957031 19.078125 -7.28125 C 19.921875 -8.613281 20.34375 -10.59375 20.34375 -13.21875 C 20.34375 -15.820312 19.921875 -17.773438 19.078125 -19.078125 C 18.234375 -20.378906 16.84375 -21.03125 14.90625 -21.03125 C 12.988281 -21.03125 11.601562 -20.378906 10.75 -19.078125 C 9.90625 -17.785156 9.484375 -15.832031 9.484375 -13.21875 Z M 27.703125 -13.21875 C 27.703125 -8.925781 26.570312 -5.570312 24.3125 -3.15625 C 22.050781 -0.738281 18.898438 0.46875 14.859375 0.46875 C 12.328125 0.46875 10.097656 -0.0820312 8.171875 -1.1875 C 6.242188 -2.289062 4.757812 -3.878906 3.71875 -5.953125 C 2.6875 -8.023438 2.171875 -10.445312 2.171875 -13.21875 C 2.171875 -17.519531 3.289062 -20.863281 5.53125 -23.25 C 7.78125 -25.632812 10.9375 -26.828125 15 -26.828125 C 17.53125 -26.828125 19.757812 -26.273438 21.6875 -25.171875 C 23.625 -24.078125 25.109375 -22.5 26.140625 -20.4375 C 27.179688 -18.382812 27.703125 -15.976562 27.703125 -13.21875 Z M 27.703125 -13.21875 "/></g></g></g></svg>