<svg xmlns="http://www.w3.org/2000/svg" xmlns:xlink="http://www.w3.org/1999/xlink" width="1000" zoomAndPan="magnify" viewBox="0 0 750 749.999995" height="1000" preserveAspectRatio="xMidYMid meet" version="1.0"><defs><clipPath id="a2296fc59e"><path d="M 112.5 378 L 371 378 L 371 561 L 112.5 561 Z M 112.5 378 " clip-rule="nonzero"/></clipPath><clipPath id="6506996256"><path d="M 190 112.5 L 374 112.5 L 374 371 L 190 371 Z M 190 112.5 " clip-rule="nonzero"/></clipPath><clipPath id="dfa6be2eaa"><path d="M 378 112.5 L 561 112.5 L 561 371 L 378 371 Z M 378 112.5 " clip-rule="nonzero"/></clipPath><clipPath id="d423d35baa"><path d="M 112.5 190 L 371 190 L 371 374 L 112.5 374 Z M 112.5 190 " clip-rule="nonzero"/></clipPath><clipPath id="09c21fac35"><path d="M 192 381 L 374 381 L 374 637.5 L 192 637.5 Z M 192 381 " clip-rule="nonzero"/></clipPath><clipPath id="e7201e1462"><path d="M 381 192 L 637.5 192 L 637.5 374 L 381 374 Z M 381 192 " clip-rule="nonzero"/></clipPath><clipPath id="c67bcd8fb4"><path d="M 378 381 L 559 381 L 559 637.5 L 378 637.5 Z M 378 381 " clip-rule="nonzero"/></clipPath><clipPath id="4632a9c120"><path d="M 381 378 L 637.5 378 L 637.5 559 L 381 559 Z M 381 378 " clip-rule="nonzero"/></clipPath></defs><rect x="-75" width="900" fill="#ffffff" y="-74.999999" height="899.999994" fill-opacity="1"/><rect x="-75" width="900" fill="#ffffff" y="-74.999999" height="899.999994" fill-opacity="1"/><g clip-path="url(#a2296fc59e)"><path fill="#cf4a49" d="M 370.589844 378.371094 L 112.496094 378.371094 C 113.398438 449.273438 142.351562 513.402344 188.839844 560.125 Z M 370.589844 378.371094 " fill-opacity="1" fill-rule="evenodd"/></g><g clip-path="url(#6506996256)"><path fill="#cf4a49" d="M 373.796875 112.484375 C 302.570312 112.785156 238.0625 141.460938 190.941406 187.78125 L 373.796875 370.640625 Z M 373.796875 112.484375 " fill-opacity="1" fill-rule="evenodd"/></g><g clip-path="url(#dfa6be2eaa)"><path fill="#cf4a49" d="M 378.324219 112.539062 L 378.324219 370.636719 L 560.082031 188.886719 C 513.359375 142.398438 449.226562 113.441406 378.324219 112.539062 " fill-opacity="1" fill-rule="evenodd"/></g><g clip-path="url(#d423d35baa)"><path fill="#cf4a49" d="M 370.589844 373.839844 L 187.734375 190.984375 C 141.410156 238.109375 112.742188 302.613281 112.4375 373.839844 Z M 370.589844 373.839844 " fill-opacity="1" fill-rule="evenodd"/></g><g clip-path="url(#09c21fac35)"><path fill="#cf4a49" d="M 373.796875 381.574219 L 192.097656 563.273438 C 239.117188 608.9375 303.144531 637.167969 373.796875 637.464844 Z M 373.796875 381.574219 " fill-opacity="1" fill-rule="evenodd"/></g><g clip-path="url(#e7201e1462)"><path fill="#cf4a49" d="M 381.53125 373.839844 L 637.421875 373.839844 C 637.125 303.1875 608.890625 239.160156 563.230469 192.140625 Z M 381.53125 373.839844 " fill-opacity="1" fill-rule="evenodd"/></g><g clip-path="url(#c67bcd8fb4)"><path fill="#cf4a49" d="M 378.324219 381.574219 L 378.324219 637.410156 C 448.652344 636.515625 512.296875 608 558.917969 562.167969 Z M 378.324219 381.574219 " fill-opacity="1" fill-rule="evenodd"/></g><g clip-path="url(#4632a9c120)"><path fill="#cf4a49" d="M 381.53125 378.371094 L 562.117188 558.96875 C 607.949219 512.347656 636.472656 448.699219 637.363281 378.371094 Z M 381.53125 378.371094 " fill-opacity="1" fill-rule="evenodd"/></g></svg>