<svg xmlns="http://www.w3.org/2000/svg" xmlns:xlink="http://www.w3.org/1999/xlink" width="1000" zoomAndPan="magnify" viewBox="0 0 750 749.999995" height="1000" preserveAspectRatio="xMidYMid meet" version="1.0"><rect x="-75" width="900" fill="#ffffff" y="-74.999999" height="899.999994" fill-opacity="1"/><rect x="-75" width="900" fill="#ffffff" y="-74.999999" height="899.999994" fill-opacity="1"/><path fill="#000000" d="M 366.664062 169.527344 L 363.785156 170.636719 C 361.714844 171.375 358.757812 172.117188 354.917969 172.855469 C 351.074219 173.59375 346.789062 174.113281 342.058594 174.410156 L 337.847656 174.410156 L 337.847656 164.203125 L 342.058594 164.203125 C 349.003906 163.90625 355.433594 162.796875 361.34375 160.871094 C 367.257812 158.949219 371.394531 157.175781 373.757812 155.546875 C 376.125 153.921875 378.191406 152.292969 379.964844 150.664062 C 380.261719 150.222656 381.148438 150 382.625 150 C 383.957031 150 385.210938 150.445312 386.394531 151.332031 L 386.394531 217.675781 L 386.617188 284.246094 C 387.652344 285.28125 388.539062 285.945312 389.277344 286.242188 C 390.015625 286.539062 391.789062 286.835938 394.597656 287.128906 C 397.40625 287.425781 401.984375 287.574219 408.339844 287.574219 L 414.105469 287.574219 L 414.105469 297.78125 L 411.664062 297.78125 C 408.5625 297.335938 396.8125 297.117188 376.417969 297.117188 C 356.320312 297.117188 344.71875 297.335938 341.617188 297.78125 L 338.957031 297.78125 L 338.957031 287.574219 L 344.71875 287.574219 C 347.972656 287.574219 350.777344 287.574219 353.144531 287.574219 C 355.507812 287.574219 357.355469 287.5 358.683594 287.351562 C 360.015625 287.203125 361.199219 286.980469 362.230469 286.6875 C 363.265625 286.390625 363.859375 286.242188 364.003906 286.242188 C 364.152344 286.242188 364.597656 285.871094 365.335938 285.132812 C 366.074219 284.394531 366.519531 284.097656 366.664062 284.246094 Z M 366.664062 169.527344 " fill-opacity="1" fill-rule="nonzero"/><path fill="#000000" d="M 366.664062 471.746094 L 363.785156 472.855469 C 361.714844 473.59375 358.757812 474.335938 354.917969 475.074219 C 351.074219 475.8125 346.789062 476.332031 342.058594 476.628906 L 337.847656 476.628906 L 337.847656 466.421875 L 342.058594 466.421875 C 349.003906 466.125 355.433594 465.015625 361.34375 463.089844 C 367.257812 461.167969 371.394531 459.394531 373.757812 457.765625 C 376.125 456.140625 378.191406 454.511719 379.964844 452.882812 C 380.261719 452.441406 381.148438 452.21875 382.625 452.21875 C 383.957031 452.21875 385.210938 452.664062 386.394531 453.550781 L 386.394531 519.894531 L 386.617188 586.464844 C 387.652344 587.5 388.539062 588.164062 389.277344 588.460938 C 390.015625 588.757812 391.789062 589.054688 394.597656 589.347656 C 397.40625 589.644531 401.984375 589.792969 408.339844 589.792969 L 414.105469 589.792969 L 414.105469 600 L 411.664062 600 C 408.5625 599.554688 396.8125 599.335938 376.417969 599.335938 C 356.320312 599.335938 344.71875 599.554688 341.617188 600 L 338.957031 600 L 338.957031 589.792969 L 344.71875 589.792969 C 347.972656 589.792969 350.777344 589.792969 353.144531 589.792969 C 355.507812 589.792969 357.355469 589.71875 358.683594 589.570312 C 360.015625 589.421875 361.199219 589.203125 362.230469 588.90625 C 363.265625 588.609375 363.859375 588.460938 364.003906 588.460938 C 364.152344 588.460938 364.597656 588.089844 365.335938 587.351562 C 366.074219 586.613281 366.519531 586.316406 366.664062 586.464844 Z M 366.664062 471.746094 " fill-opacity="1" fill-rule="nonzero"/><path fill="#000000" d="M 297.28125 398.964844 L 452.453125 398.964844 L 452.453125 385.652344 L 297.28125 385.652344 Z M 297.28125 398.964844 " fill-opacity="1" fill-rule="nonzero"/></svg>