<svg xmlns="http://www.w3.org/2000/svg" xmlns:xlink="http://www.w3.org/1999/xlink" width="1000" zoomAndPan="magnify" viewBox="0 0 750 749.999995" height="1000" preserveAspectRatio="xMidYMid meet" version="1.0"><rect x="-75" width="900" fill="#ffffff" y="-74.999999" height="899.999994" fill-opacity="1"/><rect x="-75" width="900" fill="#ffffff" y="-74.999999" height="899.999994" fill-opacity="1"/><path fill="#000000" d="M 343.613281 202.589844 C 339.621094 202.589844 336.445312 201.257812 334.078125 198.59375 C 331.714844 195.933594 330.53125 192.675781 330.53125 188.832031 C 330.53125 178.328125 334.449219 169.230469 342.28125 161.539062 C 350.113281 153.847656 359.867188 150 371.542969 150 C 384.992188 150 396.222656 154.140625 405.238281 162.425781 C 414.25 170.710938 418.832031 181.433594 418.980469 194.601562 C 418.980469 200.960938 417.503906 207.027344 414.546875 212.796875 C 411.589844 218.566406 408.042969 223.59375 403.90625 227.882812 C 399.769531 232.175781 393.859375 237.648438 386.171875 244.304688 C 380.851562 248.890625 373.464844 255.695312 364.003906 264.71875 L 350.925781 277.144531 L 367.773438 277.367188 C 390.976562 277.367188 403.316406 276.996094 404.792969 276.257812 C 405.828125 275.960938 407.601562 269.378906 410.113281 256.507812 L 410.113281 255.84375 L 418.980469 255.84375 L 418.980469 256.507812 C 418.832031 256.953125 417.871094 263.683594 416.097656 276.703125 C 414.324219 289.71875 413.21875 296.523438 412.773438 297.117188 L 412.773438 297.78125 L 330.53125 297.78125 L 330.53125 290.902344 C 330.53125 289.867188 330.976562 288.757812 331.863281 287.574219 C 332.75 286.390625 334.964844 283.800781 338.511719 279.808594 C 342.800781 275.074219 346.492188 270.933594 349.597656 267.382812 C 350.925781 265.902344 353.4375 263.164062 357.132812 259.171875 C 360.828125 255.175781 363.339844 252.441406 364.671875 250.960938 C 366 249.480469 368.144531 247.042969 371.097656 243.640625 C 374.054688 240.238281 376.125 237.722656 377.304688 236.09375 C 378.488281 234.46875 380.1875 232.25 382.40625 229.4375 C 384.621094 226.628906 386.171875 224.261719 387.058594 222.335938 C 387.945312 220.414062 389.054688 218.269531 390.382812 215.902344 C 391.714844 213.535156 392.675781 211.167969 393.265625 208.800781 C 393.859375 206.433594 394.375 204.214844 394.816406 202.144531 C 395.261719 200.074219 395.484375 197.632812 395.484375 194.824219 C 395.484375 185.503906 392.972656 177.441406 387.945312 170.636719 C 382.921875 163.832031 375.753906 160.429688 366.445312 160.429688 C 361.566406 160.429688 357.28125 161.6875 353.585938 164.203125 C 349.890625 166.714844 347.304688 169.15625 345.828125 171.523438 C 344.351562 173.890625 343.613281 175.296875 343.613281 175.738281 C 343.613281 175.886719 343.980469 175.960938 344.71875 175.960938 C 347.378906 175.960938 350.113281 176.996094 352.921875 179.066406 C 355.730469 181.140625 357.132812 184.542969 357.132812 189.273438 C 357.132812 192.972656 355.953125 196.078125 353.585938 198.59375 C 351.222656 201.109375 347.898438 202.441406 343.613281 202.589844 Z M 343.613281 202.589844 " fill-opacity="1" fill-rule="nonzero"/><path fill="#000000" d="M 343.613281 504.808594 C 339.621094 504.808594 336.445312 503.476562 334.078125 500.8125 C 331.714844 498.152344 330.53125 494.894531 330.53125 491.050781 C 330.53125 480.546875 334.449219 471.449219 342.28125 463.757812 C 350.113281 456.066406 359.867188 452.21875 371.542969 452.21875 C 384.992188 452.21875 396.222656 456.359375 405.238281 464.644531 C 414.25 472.929688 418.832031 483.652344 418.980469 496.820312 C 418.980469 503.179688 417.503906 509.246094 414.546875 515.015625 C 411.589844 520.785156 408.042969 525.8125 403.90625 530.105469 C 399.769531 534.394531 393.859375 539.867188 386.171875 546.523438 C 380.851562 551.109375 373.464844 557.914062 364.003906 566.9375 L 350.925781 579.363281 L 367.773438 579.585938 C 390.976562 579.585938 403.316406 579.214844 404.792969 578.476562 C 405.828125 578.179688 407.601562 571.597656 410.113281 558.726562 L 410.113281 558.0625 L 418.980469 558.0625 L 418.980469 558.726562 C 418.832031 559.171875 417.871094 565.902344 416.097656 578.921875 C 414.324219 591.9375 413.21875 598.742188 412.773438 599.335938 L 412.773438 600 L 330.53125 600 L 330.53125 593.121094 C 330.53125 592.085938 330.976562 590.976562 331.863281 589.792969 C 332.75 588.609375 334.964844 586.019531 338.511719 582.027344 C 342.800781 577.292969 346.492188 573.152344 349.597656 569.601562 C 350.925781 568.121094 353.4375 565.382812 357.132812 561.390625 C 360.828125 557.394531 363.339844 554.660156 364.671875 553.179688 C 366 551.703125 368.144531 549.261719 371.097656 545.859375 C 374.054688 542.457031 376.125 539.941406 377.304688 538.3125 C 378.488281 536.6875 380.1875 534.46875 382.40625 531.65625 C 384.621094 528.847656 386.171875 526.480469 387.058594 524.554688 C 387.945312 522.632812 389.054688 520.488281 390.382812 518.121094 C 391.714844 515.753906 392.675781 513.386719 393.265625 511.019531 C 393.859375 508.652344 394.375 506.433594 394.816406 504.363281 C 395.261719 502.292969 395.484375 499.851562 395.484375 497.042969 C 395.484375 487.722656 392.972656 479.660156 387.945312 472.855469 C 382.921875 466.050781 375.753906 462.648438 366.445312 462.648438 C 361.566406 462.648438 357.28125 463.90625 353.585938 466.421875 C 349.890625 468.933594 347.304688 471.375 345.828125 473.742188 C 344.351562 476.109375 343.613281 477.515625 343.613281 477.957031 C 343.613281 478.105469 343.980469 478.179688 344.71875 478.179688 C 347.378906 478.179688 350.113281 479.214844 352.921875 481.285156 C 355.730469 483.359375 357.132812 486.761719 357.132812 491.492188 C 357.132812 495.191406 355.953125 498.296875 353.585938 500.8125 C 351.222656 503.328125 347.898438 504.660156 343.613281 504.808594 Z M 343.613281 504.808594 " fill-opacity="1" fill-rule="nonzero"/><path fill="#000000" d="M 297.28125 398.964844 L 452.453125 398.964844 L 452.453125 385.652344 L 297.28125 385.652344 Z M 297.28125 398.964844 " fill-opacity="1" fill-rule="nonzero"/></svg>