<svg xmlns="http://www.w3.org/2000/svg" xmlns:xlink="http://www.w3.org/1999/xlink" width="1000" zoomAndPan="magnify" viewBox="0 0 750 749.999995" height="1000" preserveAspectRatio="xMidYMid meet" version="1.0"><defs><clipPath id="b3b724b8f2"><path d="M 126.5 140 L 623.75 140 L 623.75 637.5 L 126.5 637.5 Z M 126.5 140 " clip-rule="nonzero"/></clipPath></defs><rect x="-75" width="900" fill="#ffffff" y="-74.999999" height="899.999994" fill-opacity="1"/><rect x="-75" width="900" fill="#ffffff" y="-74.999999" height="899.999994" fill-opacity="1"/><path fill="#6d5764" d="M 613.160156 327.421875 C 613.160156 327.421875 617.5625 398.660156 617.5625 398.660156 C 619.015625 422.226562 595.058594 517.414062 534.46875 571.542969 C 478.375 621.65625 385.667969 631.84375 378.277344 631.558594 C 187.742188 624.167969 130.878906 463.757812 130.136719 385.007812 C 129.367188 303.578125 170.070312 247.746094 251.582031 177.632812 C 390.144531 112.59375 491.1875 174.972656 491.1875 174.972656 C 551.210938 212.023438 371.628906 386.589844 371.628906 386.589844 Z M 613.160156 327.421875 " fill-opacity="1" fill-rule="nonzero"/><path fill="#6d5764" d="M 370.816406 389.617188 C 506.082031 385.300781 620.398438 397.363281 619.464844 383.472656 C 609.949219 242.023438 487.832031 174.390625 487.832031 174.390625 Z M 370.816406 389.617188 " fill-opacity="1" fill-rule="nonzero"/><path fill="#00010d" d="M 132.785156 385.085938 L 614.109375 382.480469 C 616.71875 382.464844 618.84375 384.570312 618.859375 387.179688 C 618.871094 389.789062 616.769531 391.917969 614.160156 391.929688 L 132.839844 394.535156 C 130.226562 394.550781 128.101562 392.445312 128.085938 389.835938 C 128.074219 387.226562 130.175781 385.101562 132.785156 385.085938 Z M 132.785156 385.085938 " fill-opacity="1" fill-rule="nonzero"/><path fill="#00010d" d="M 247.410156 595.867188 L 483.90625 172.730469 C 485.179688 170.449219 488.058594 169.636719 490.335938 170.910156 C 492.613281 172.183594 493.429688 175.0625 492.15625 177.339844 L 255.660156 600.476562 C 254.386719 602.757812 251.507812 603.570312 249.230469 602.296875 C 246.949219 601.023438 246.136719 598.144531 247.410156 595.867188 Z M 247.410156 595.867188 " fill-opacity="1" fill-rule="nonzero"/><path fill="#00010d" d="M 255.878906 177.890625 L 496.027344 600.125 C 497.316406 602.390625 496.523438 605.277344 494.257812 606.566406 C 491.988281 607.855469 489.101562 607.0625 487.8125 604.796875 L 247.660156 182.5625 C 246.371094 180.296875 247.164062 177.410156 249.433594 176.121094 C 251.703125 174.828125 254.585938 175.621094 255.878906 177.890625 Z M 255.878906 177.890625 " fill-opacity="1" fill-rule="nonzero"/><g clip-path="url(#b3b724b8f2)"><path fill="#00010d" d="M 623.492188 388.921875 C 623.492188 526.164062 512.234375 637.421875 374.992188 637.421875 C 237.75 637.421875 126.492188 526.164062 126.492188 388.921875 C 126.492188 251.675781 237.75 140.421875 374.992188 140.421875 C 512.238281 140.421875 623.492188 251.675781 623.492188 388.921875 M 612.527344 388.921875 C 612.527344 257.734375 506.179688 151.386719 374.992188 151.386719 C 243.808594 151.386719 137.460938 257.734375 137.460938 388.921875 C 137.460938 520.105469 243.808594 626.453125 374.992188 626.453125 C 506.179688 626.453125 612.527344 520.105469 612.527344 388.921875 Z M 612.527344 388.921875 " fill-opacity="1" fill-rule="nonzero"/></g><path fill="#6d5764" d="M 492.941406 260.429688 C 493.195312 260.660156 493.5625 260.800781 494.046875 260.84375 C 494.390625 260.867188 494.851562 260.890625 495.425781 260.914062 L 495.425781 260.878906 C 495.402344 260.8125 495.355469 260.695312 495.289062 260.535156 C 494.988281 260.535156 494.722656 260.523438 494.492188 260.5 C 493.898438 260.5 493.382812 260.476562 492.945312 260.429688 Z M 500.527344 246.730469 C 499.234375 246.730469 498.257812 247.273438 497.597656 248.363281 C 496.539062 250.085938 494.78125 251.375 492.320312 252.222656 C 492.230469 252.269531 492.058594 252.328125 491.804688 252.394531 C 491.574219 252.464844 491.402344 252.523438 491.285156 252.570312 C 490.460938 252.867188 490.023438 253.417969 489.976562 254.222656 C 489.90625 255.441406 489.894531 256.453125 489.941406 257.257812 C 490.011719 258.222656 490.527344 258.765625 491.492188 258.878906 C 491.863281 258.902344 492.320312 258.925781 492.875 258.949219 C 493.609375 258.972656 494.082031 258.984375 494.285156 258.984375 C 495.296875 259.050781 495.941406 259.605469 496.21875 260.636719 C 496.402344 261.351562 496.492188 262.546875 496.492188 264.222656 C 496.492188 266.617188 496.492188 271.246094 496.492188 278.121094 C 496.492188 283.914062 496.503906 288.535156 496.527344 291.984375 C 496.527344 293.042969 496.5625 293.972656 496.632812 294.777344 C 496.699219 295.535156 497.113281 295.960938 497.875 296.054688 C 498.585938 296.121094 499.414062 296.167969 500.355469 296.191406 C 502.289062 296.191406 503.425781 296.019531 503.769531 295.675781 C 504.136719 295.351562 504.320312 294.25 504.320312 292.363281 C 504.320312 290.042969 504.320312 283.097656 504.320312 271.535156 C 504.320312 258.9375 504.320312 251.730469 504.320312 249.914062 C 504.300781 248.464844 504.113281 247.570312 503.769531 247.222656 C 503.445312 246.902344 502.648438 246.738281 501.375 246.738281 C 501.292969 246.738281 501.203125 246.738281 501.113281 246.742188 L 500.839844 246.742188 C 500.734375 246.734375 500.628906 246.730469 500.527344 246.730469 Z M 505.839844 248.914062 C 505.976562 249.421875 506.046875 250.132812 506.046875 251.050781 C 506.070312 254.316406 506.082031 259.535156 506.082031 266.707031 L 506.046875 277.878906 C 506.070312 284.386719 506.070312 289.59375 506.046875 293.5 C 506.046875 295.433594 505.863281 296.605469 505.496094 297.019531 C 505.082031 297.5 503.988281 297.742188 502.21875 297.742188 L 501.703125 297.742188 C 500.921875 297.742188 500.210938 297.707031 499.566406 297.640625 L 499.5625 297.640625 C 499.792969 297.871094 500.070312 297.996094 500.390625 298.019531 C 501.101562 298.109375 501.941406 298.15625 502.90625 298.15625 C 504.839844 298.15625 505.976562 297.996094 506.320312 297.675781 C 506.667969 297.328125 506.839844 296.214844 506.839844 294.328125 L 506.839844 273.535156 C 506.839844 261.027344 506.839844 253.808594 506.839844 251.878906 C 506.839844 250.179688 506.507812 249.191406 505.84375 248.914062 Z M 508.910156 322.917969 C 510.378906 324.964844 511.046875 327.25 510.910156 329.777344 C 510.816406 331.226562 510.058594 331.984375 508.632812 332.054688 C 508.125 332.078125 507.539062 332.089844 506.875 332.089844 L 504.046875 332.089844 C 504.410156 332.367188 504.902344 332.507812 505.519531 332.507812 C 505.570312 332.507812 505.617188 332.503906 505.667969 332.503906 L 507.734375 332.503906 C 508.019531 332.511719 508.285156 332.515625 508.53125 332.515625 C 509.027344 332.515625 509.453125 332.5 509.804688 332.46875 C 510.472656 332.445312 510.941406 332.285156 511.21875 331.984375 C 511.496094 331.710938 511.644531 331.25 511.667969 330.605469 C 511.828125 327.710938 510.941406 325.167969 509.011719 322.984375 C 508.988281 322.984375 508.976562 322.972656 508.976562 322.953125 C 508.957031 322.929688 508.933594 322.917969 508.910156 322.917969 Z M 499.175781 327.191406 C 498.535156 327.195312 497.964844 327.449219 497.460938 327.953125 C 496.976562 328.410156 496.644531 328.972656 496.460938 329.640625 C 496 331.296875 495.90625 333.261719 496.183594 335.539062 C 496.320312 335.515625 496.378906 335.503906 496.355469 335.503906 C 496.425781 335.503906 496.503906 335.492188 496.597656 335.46875 C 496.734375 335.46875 496.816406 335.457031 496.839844 335.433594 C 496.679688 333.550781 496.816406 331.859375 497.253906 330.367188 C 497.460938 329.605469 497.828125 328.972656 498.355469 328.46875 C 498.699219 328.148438 499.09375 327.917969 499.527344 327.777344 C 499.527344 327.757812 499.515625 327.722656 499.496094 327.675781 C 499.496094 327.628906 499.484375 327.605469 499.460938 327.605469 C 499.414062 327.492188 499.332031 327.367188 499.21875 327.226562 C 499.128906 327.203125 499.117188 327.191406 499.179688 327.191406 Z M 498.90625 344.503906 L 498.839844 344.78125 C 497.78125 344.824219 497.070312 345.332031 496.699219 346.296875 C 496.539062 346.757812 496.425781 347.183594 496.355469 347.574219 C 495.941406 349.917969 495.894531 352.894531 496.21875 356.503906 C 496.265625 356.917969 496.367188 357.308594 496.527344 357.675781 C 496.710938 357.835938 496.917969 357.953125 497.148438 358.023438 C 497.058594 357.722656 497.011719 357.503906 497.011719 357.367188 C 496.691406 353.734375 496.734375 350.722656 497.148438 348.332031 C 497.21875 347.894531 497.332031 347.445312 497.492188 346.988281 C 497.863281 346.042969 498.527344 345.480469 499.496094 345.296875 C 499.460938 345.230469 499.445312 345.191406 499.449219 345.1875 L 499.453125 345.1875 C 499.453125 345.1875 499.453125 345.1875 499.457031 345.191406 C 499.410156 345.097656 499.332031 344.972656 499.21875 344.8125 C 498.941406 344.792969 498.851562 344.78125 498.941406 344.78125 L 498.941406 344.539062 C 498.941406 344.539062 498.929688 344.527344 498.90625 344.503906 Z M 497.605469 343.226562 C 498.804688 343.226562 499.664062 343.769531 500.183594 344.847656 C 500.621094 345.722656 500.851562 346.699219 500.875 347.78125 C 500.875 347.941406 500.875 349.042969 500.875 351.089844 C 500.875 353.457031 500.875 354.746094 500.875 354.953125 C 500.828125 356.261719 500.355469 357.320312 499.460938 358.125 C 498.886719 358.65625 498.269531 358.921875 497.617188 358.921875 C 497.566406 358.921875 497.511719 358.921875 497.460938 358.917969 C 496.769531 358.871094 496.136719 358.539062 495.5625 357.917969 C 494.941406 357.230469 494.585938 356.390625 494.492188 355.402344 C 494.171875 351.769531 494.21875 348.757812 494.632812 346.367188 C 494.699219 345.929688 494.816406 345.480469 494.976562 345.019531 C 495.414062 343.871094 496.265625 343.273438 497.527344 343.226562 C 497.554688 343.226562 497.578125 343.226562 497.605469 343.226562 Z M 497.976562 317.261719 C 494.597656 317.261719 491.792969 318.398438 489.5625 320.675781 C 487.585938 322.722656 486.585938 325.214844 486.5625 328.160156 C 486.5625 329.007812 486.5625 333.699219 486.5625 342.226562 C 486.5625 350.734375 486.5625 355.515625 486.5625 356.574219 C 486.585938 359.699219 487.699219 362.332031 489.90625 364.46875 C 491.980469 366.5 494.664062 367.515625 497.957031 367.515625 C 498.132812 367.515625 498.3125 367.511719 498.496094 367.503906 C 501.460938 367.414062 503.953125 366.378906 505.976562 364.402344 C 508 362.425781 509.058594 359.953125 509.148438 356.988281 C 509.195312 355.816406 509.207031 351.953125 509.183594 345.402344 C 509.160156 343.628906 508.644531 341.894531 507.632812 340.195312 C 506.023438 337.527344 503.769531 336.160156 500.875 336.089844 C 500.585938 336.082031 500.300781 336.078125 500.019531 336.078125 C 498.761719 336.078125 497.585938 336.160156 496.492188 336.332031 C 496.328125 336.359375 496.175781 336.371094 496.03125 336.371094 C 495.167969 336.371094 494.667969 335.898438 494.527344 334.953125 C 494.136719 332.445312 494.207031 330.261719 494.734375 328.398438 C 494.941406 327.640625 495.308594 327.007812 495.839844 326.503906 C 496.453125 325.929688 497.113281 325.640625 497.820312 325.640625 C 497.964844 325.640625 498.105469 325.652344 498.253906 325.675781 C 499.101562 325.8125 499.757812 326.332031 500.21875 327.226562 C 500.449219 327.710938 500.621094 328.226562 500.734375 328.777344 C 501 329.953125 501.757812 330.539062 503.007812 330.539062 C 503.054688 330.539062 503.101562 330.539062 503.148438 330.539062 L 505.21875 330.539062 C 506.070312 330.539062 506.757812 330.527344 507.289062 330.503906 C 507.953125 330.480469 508.425781 330.320312 508.703125 330.019531 C 508.976562 329.746094 509.125 329.285156 509.148438 328.640625 C 509.3125 325.746094 508.425781 323.203125 506.496094 321.019531 C 504.289062 318.515625 501.449219 317.261719 497.976562 317.261719 Z M 508.847656 340.449219 C 509.074219 340.761719 509.21875 340.988281 509.289062 341.125 C 510.367188 342.871094 510.910156 344.675781 510.910156 346.539062 C 510.910156 347.042969 510.921875 348.054688 510.941406 349.574219 C 510.964844 353.367188 510.941406 356.230469 510.875 358.160156 C 510.78125 361.21875 509.691406 363.769531 507.597656 365.816406 C 505.507812 367.882812 502.90625 368.964844 499.804688 369.058594 L 499.21875 369.058594 C 498.027344 369.058594 496.902344 368.929688 495.847656 368.679688 L 495.84375 368.679688 C 497.203125 369.214844 498.726562 369.480469 500.417969 369.480469 C 500.613281 369.480469 500.8125 369.476562 501.011719 369.46875 C 503.976562 369.378906 506.460938 368.34375 508.460938 366.367188 C 510.507812 364.390625 511.574219 361.917969 511.667969 358.953125 C 511.714844 357.828125 511.714844 353.976562 511.667969 347.402344 C 511.667969 345.609375 511.160156 343.859375 510.148438 342.160156 C 509.761719 341.519531 509.328125 340.949219 508.851562 340.449219 Z M 508.847656 340.449219 " fill-opacity="1" fill-rule="nonzero"/><path fill="#6d5764" d="M 472.496094 302.601562 C 471.328125 302.644531 470.648438 302.933594 470.460938 303.472656 C 470.765625 303.378906 471.195312 303.324219 471.757812 303.300781 C 471.921875 303.300781 472.179688 303.304688 472.53125 303.304688 L 486.382812 303.363281 C 504.640625 303.441406 518.328125 303.496094 527.449219 303.535156 C 529.199219 303.542969 530.277344 303.746094 530.671875 304.144531 C 531.066406 304.566406 531.261719 305.679688 531.253906 307.480469 L 531.253906 307.828125 C 531.25 308.601562 531.222656 309.253906 531.171875 309.792969 C 531.386719 309.582031 531.515625 309.28125 531.5625 308.882812 C 531.613281 308.320312 531.640625 307.492188 531.644531 306.394531 C 531.652344 304.710938 531.492188 303.703125 531.164062 303.375 C 530.839844 303.023438 529.859375 302.84375 528.222656 302.835938 C 523.007812 302.816406 504.761719 302.738281 473.480469 302.609375 C 472.964844 302.605469 472.636719 302.605469 472.496094 302.601562 Z M 470.734375 304.839844 C 469.800781 304.882812 469.203125 305.03125 468.945312 305.289062 C 468.664062 305.546875 468.496094 306.117188 468.445312 307.003906 C 468.445312 307.238281 468.441406 307.8125 468.4375 308.722656 C 468.433594 310.453125 468.566406 311.472656 468.847656 311.777344 C 469.148438 312.082031 470.144531 312.238281 471.824219 312.246094 L 526.042969 312.472656 C 526.144531 312.472656 526.246094 312.472656 526.34375 312.472656 C 527.292969 312.472656 528.023438 312.453125 528.53125 312.410156 C 529.28125 312.320312 529.691406 311.890625 529.765625 311.121094 C 529.835938 310.558594 529.875 309.742188 529.882812 308.664062 C 529.863281 306.980469 529.695312 305.964844 529.367188 305.613281 C 529.042969 305.261719 528.0625 305.082031 526.425781 305.074219 C 520.34375 305.046875 502.109375 304.972656 471.71875 304.84375 C 471.203125 304.84375 470.875 304.839844 470.734375 304.839844 Z M 470.734375 304.839844 " fill-opacity="1" fill-rule="nonzero"/></svg>