<svg xmlns="http://www.w3.org/2000/svg" xmlns:xlink="http://www.w3.org/1999/xlink" width="1000" zoomAndPan="magnify" viewBox="0 0 750 749.999995" height="1000" preserveAspectRatio="xMidYMid meet" version="1.0"><rect x="-75" width="900" fill="#ffffff" y="-74.999999" height="899.999994" fill-opacity="1"/><rect x="-75" width="900" fill="#ffffff" y="-74.999999" height="899.999994" fill-opacity="1"/><path fill="#000000" d="M 421.609375 299.410156 C 418.964844 298.96875 409.484375 298.75 393.167969 298.75 C 376.117188 298.75 366.269531 298.96875 363.625 299.410156 L 361.640625 299.410156 L 361.640625 289.257812 L 368.472656 289.257812 C 371.414062 289.257812 373.398438 289.257812 374.425781 289.257812 C 375.457031 289.257812 376.703125 289.113281 378.175781 288.816406 C 379.644531 288.523438 380.671875 288.15625 381.261719 287.714844 C 381.847656 287.273438 382.363281 286.683594 382.804688 285.949219 C 382.953125 285.65625 383.023438 281.683594 383.023438 274.03125 L 383.023438 262.996094 L 325.921875 262.996094 L 325.921875 252.84375 L 359.214844 201.863281 C 381.703125 167.730469 393.09375 150.589844 393.386719 150.441406 C 393.679688 150.148438 395.226562 150 398.019531 150 L 401.984375 150 L 403.308594 151.324219 L 403.308594 252.84375 L 423.59375 252.84375 L 423.59375 262.996094 L 403.308594 262.996094 L 403.308594 274.253906 C 403.308594 280.285156 403.308594 283.816406 403.308594 284.84375 C 403.308594 285.875 403.75 286.757812 404.632812 287.492188 C 405.808594 288.523438 409.996094 289.113281 417.199219 289.257812 L 423.59375 289.257812 L 423.59375 299.410156 Z M 384.347656 252.84375 L 384.347656 179.132812 L 336.0625 252.625 L 360.09375 252.84375 Z M 384.347656 252.84375 " fill-opacity="1" fill-rule="nonzero"/><path fill="#000000" d="M 421.609375 600 C 418.964844 599.558594 409.484375 599.339844 393.167969 599.339844 C 376.117188 599.339844 366.269531 599.558594 363.625 600 L 361.640625 600 L 361.640625 589.847656 L 368.472656 589.847656 C 371.414062 589.847656 373.398438 589.847656 374.425781 589.847656 C 375.457031 589.847656 376.703125 589.699219 378.175781 589.40625 C 379.644531 589.113281 380.671875 588.746094 381.261719 588.304688 C 381.847656 587.863281 382.363281 587.273438 382.804688 586.539062 C 382.953125 586.242188 383.023438 582.269531 383.023438 574.621094 L 383.023438 563.585938 L 325.921875 563.585938 L 325.921875 553.433594 L 359.214844 502.453125 C 381.703125 468.316406 393.09375 451.175781 393.386719 451.03125 C 393.679688 450.734375 395.226562 450.589844 398.019531 450.589844 L 401.984375 450.589844 L 403.308594 451.914062 L 403.308594 553.433594 L 423.59375 553.433594 L 423.59375 563.585938 L 403.308594 563.585938 L 403.308594 574.839844 C 403.308594 580.871094 403.308594 584.402344 403.308594 585.433594 C 403.308594 586.464844 403.75 587.347656 404.632812 588.082031 C 405.808594 589.113281 409.996094 589.699219 417.199219 589.847656 L 423.59375 589.847656 L 423.59375 600 Z M 384.347656 553.433594 L 384.347656 479.71875 L 336.0625 553.210938 L 360.09375 553.433594 Z M 384.347656 553.433594 " fill-opacity="1" fill-rule="nonzero"/><path fill="#000000" d="M 297.699219 400.050781 L 452.035156 400.050781 L 452.035156 386.808594 L 297.699219 386.808594 Z M 297.699219 400.050781 " fill-opacity="1" fill-rule="nonzero"/></svg>