<svg xmlns="http://www.w3.org/2000/svg" xmlns:xlink="http://www.w3.org/1999/xlink" width="1000" zoomAndPan="magnify" viewBox="0 0 750 749.999995" height="1000" preserveAspectRatio="xMidYMid meet" version="1.0"><defs><clipPath id="8aedd2f156"><path d="M 112.5 124 L 619 124 L 619 630.890625 L 112.5 630.890625 Z M 112.5 124 " clip-rule="nonzero"/></clipPath></defs><rect x="-75" width="900" fill="#ffffff" y="-74.999999" height="899.999994" fill-opacity="1"/><rect x="-75" width="900" fill="#ffffff" y="-74.999999" height="899.999994" fill-opacity="1"/><path fill="#6d5764" d="M 602.773438 450.640625 L 574.328125 512.730469 C 506.070312 617.847656 368.714844 624.621094 368.714844 624.621094 C 174.859375 617.101562 117.007812 453.898438 116.25 373.777344 C 115.46875 290.929688 180.875 137.035156 367.617188 128.203125 C 554.363281 119.375 610.816406 391.855469 610.816406 391.855469 Z M 602.773438 450.640625 " fill-opacity="1" fill-rule="nonzero"/><path fill="#6d5764" d="M 368.777344 373.964844 L 368.777344 373.96875 C 509.917969 376.996094 604.761719 386.3125 612.238281 374.871094 C 637.445312 336.300781 548.21875 163.855469 440.972656 141.191406 Z M 368.777344 373.964844 " fill-opacity="1" fill-rule="nonzero"/><path fill="#00010d" d="M 361.785156 374.179688 L 434.980469 144.136719 C 435.785156 141.609375 438.488281 140.210938 441.015625 141.015625 C 443.546875 141.820312 444.941406 144.523438 444.136719 147.050781 L 370.941406 377.097656 C 370.136719 379.625 367.433594 381.023438 364.90625 380.21875 C 362.375 379.414062 360.980469 376.710938 361.785156 374.179688 Z M 361.785156 374.179688 " fill-opacity="1" fill-rule="nonzero"/><path fill="#00010d" d="M 368.589844 371.429688 L 611.15625 372.285156 C 613.808594 372.296875 615.953125 374.457031 615.945312 377.109375 C 615.933594 379.765625 613.777344 381.910156 611.121094 381.898438 L 368.558594 381.042969 C 365.902344 381.035156 363.757812 378.875 363.769531 376.21875 C 363.777344 373.566406 365.9375 371.421875 368.589844 371.429688 Z M 368.589844 371.429688 " fill-opacity="1" fill-rule="nonzero"/><path fill="#00010d" d="M 371.125 377.710938 L 445.574219 609.152344 C 446.390625 611.679688 445 614.386719 442.472656 615.199219 C 439.945312 616.011719 437.238281 614.621094 436.425781 612.09375 L 361.972656 380.652344 C 361.160156 378.128906 362.550781 375.417969 365.078125 374.605469 C 367.605469 373.792969 370.3125 375.183594 371.125 377.710938 Z M 371.125 377.710938 " fill-opacity="1" fill-rule="nonzero"/><path fill="#00010d" d="M 165.5 516.867188 L 362.503906 374.722656 C 364.65625 373.171875 367.660156 373.65625 369.214844 375.808594 C 370.765625 377.960938 370.28125 380.964844 368.128906 382.519531 L 171.125 524.664062 C 168.972656 526.214844 165.96875 525.730469 164.417969 523.578125 C 162.863281 521.425781 163.347656 518.421875 165.5 516.867188 Z M 165.5 516.867188 " fill-opacity="1" fill-rule="nonzero"/><path fill="#00010d" d="M 169.835938 228.792969 L 366.851562 372.394531 C 369 373.960938 369.46875 376.964844 367.90625 379.109375 C 366.34375 381.253906 363.335938 381.726562 361.191406 380.164062 L 164.171875 236.5625 C 162.027344 235 161.558594 231.992188 163.121094 229.847656 C 164.683594 227.703125 167.691406 227.230469 169.835938 228.792969 Z M 169.835938 228.792969 " fill-opacity="1" fill-rule="nonzero"/><g clip-path="url(#8aedd2f156)"><path fill="#00010d" d="M 618.195312 377.757812 C 618.195312 517.390625 505 630.585938 365.371094 630.585938 C 225.738281 630.585938 112.546875 517.390625 112.546875 377.757812 C 112.546875 238.128906 225.738281 124.933594 365.371094 124.933594 C 505 124.933594 618.195312 238.128906 618.195312 377.757812 M 607.039062 377.757812 C 607.039062 244.289062 498.839844 136.09375 365.371094 136.09375 C 231.902344 136.09375 123.703125 244.289062 123.703125 377.757812 C 123.703125 511.226562 231.902344 619.425781 365.371094 619.425781 C 498.839844 619.425781 607.039062 511.226562 607.039062 377.757812 Z M 607.039062 377.757812 " fill-opacity="1" fill-rule="nonzero"/></g><path fill="#6d5764" d="M 475.597656 240.691406 C 475.855469 240.925781 476.230469 241.066406 476.722656 241.113281 C 477.070312 241.136719 477.539062 241.160156 478.125 241.183594 L 478.125 241.148438 C 478.101562 241.078125 478.054688 240.960938 477.984375 240.796875 C 477.679688 240.796875 477.410156 240.785156 477.175781 240.761719 C 476.570312 240.761719 476.046875 240.738281 475.601562 240.691406 Z M 483.316406 226.75 C 482 226.75 481.007812 227.304688 480.335938 228.410156 C 479.257812 230.164062 477.46875 231.476562 474.964844 232.339844 C 474.871094 232.386719 474.699219 232.445312 474.441406 232.515625 C 474.207031 232.585938 474.03125 232.644531 473.914062 232.691406 C 473.070312 232.996094 472.628906 233.558594 472.582031 234.375 C 472.511719 235.613281 472.5 236.644531 472.546875 237.460938 C 472.617188 238.445312 473.140625 238.996094 474.125 239.113281 C 474.5 239.136719 474.964844 239.160156 475.527344 239.183594 C 476.277344 239.207031 476.753906 239.21875 476.964844 239.21875 C 477.996094 239.289062 478.652344 239.847656 478.929688 240.902344 C 479.117188 241.625 479.210938 242.84375 479.210938 244.550781 C 479.210938 246.984375 479.210938 251.695312 479.210938 258.6875 C 479.210938 264.582031 479.222656 269.285156 479.246094 272.792969 C 479.246094 273.867188 479.28125 274.816406 479.351562 275.632812 C 479.421875 276.40625 479.84375 276.839844 480.613281 276.933594 C 481.339844 277.003906 482.183594 277.050781 483.140625 277.074219 C 485.105469 277.074219 486.265625 276.898438 486.613281 276.546875 C 486.988281 276.21875 487.175781 275.097656 487.175781 273.179688 C 487.175781 270.816406 487.175781 263.753906 487.175781 251.988281 C 487.175781 239.171875 487.175781 231.835938 487.175781 229.988281 C 487.152344 228.515625 486.964844 227.605469 486.613281 227.253906 C 486.285156 226.925781 485.472656 226.761719 484.179688 226.761719 C 484.09375 226.761719 484.003906 226.761719 483.914062 226.761719 L 483.632812 226.761719 C 483.523438 226.753906 483.421875 226.75 483.316406 226.75 Z M 488.71875 228.972656 C 488.859375 229.488281 488.929688 230.214844 488.929688 231.148438 C 488.953125 234.46875 488.964844 239.777344 488.964844 247.074219 L 488.929688 258.441406 C 488.953125 265.0625 488.953125 270.359375 488.929688 274.335938 C 488.929688 276.300781 488.742188 277.496094 488.367188 277.914062 C 487.949219 278.40625 486.835938 278.652344 485.035156 278.652344 L 484.507812 278.652344 C 483.714844 278.652344 482.992188 278.617188 482.335938 278.546875 C 482.570312 278.78125 482.847656 278.910156 483.175781 278.933594 C 483.902344 279.027344 484.753906 279.074219 485.738281 279.074219 C 487.703125 279.074219 488.859375 278.910156 489.210938 278.582031 C 489.5625 278.230469 489.738281 277.097656 489.738281 275.179688 L 489.738281 254.023438 C 489.738281 241.296875 489.738281 233.953125 489.738281 231.988281 C 489.738281 230.261719 489.398438 229.257812 488.722656 228.972656 Z M 493.316406 300.933594 C 493.386719 301.1875 493.421875 301.410156 493.421875 301.597656 C 493.492188 303.304688 493.492188 305 493.421875 306.683594 C 493.375 307.902344 492.707031 308.566406 491.421875 308.683594 C 490.953125 308.730469 490.238281 308.753906 489.28125 308.753906 L 484.859375 308.753906 C 483.433594 308.753906 482.21875 308.765625 481.210938 308.789062 C 480.441406 308.8125 479.914062 308.941406 479.632812 309.175781 C 479.351562 309.433594 479.140625 309.960938 479 310.753906 C 478.835938 311.785156 478.8125 312.707031 478.929688 313.527344 C 479.140625 313.503906 479.386719 313.46875 479.667969 313.421875 C 479.644531 312.8125 479.691406 312.179688 479.808594 311.527344 C 479.972656 310.636719 480.230469 310.039062 480.578125 309.738281 C 480.929688 309.410156 481.550781 309.234375 482.441406 309.210938 C 482.394531 309.210938 484.929688 309.199219 490.054688 309.175781 C 491.339844 309.175781 492.179688 309.152344 492.578125 309.105469 C 493.632812 309.011719 494.179688 308.484375 494.226562 307.527344 C 494.296875 305.84375 494.296875 304.148438 494.226562 302.4375 C 494.203125 301.667969 493.902344 301.167969 493.320312 300.933594 Z M 481.84375 322.894531 C 480.90625 322.894531 480.253906 323.28125 479.878906 324.050781 C 479.714844 324.378906 479.503906 324.894531 479.246094 325.59375 C 479.105469 325.921875 479 326.179688 478.929688 326.367188 C 478.535156 327.371094 477.84375 327.886719 476.859375 327.910156 C 476.019531 327.933594 475.257812 327.945312 474.582031 327.945312 C 473.808594 327.945312 473.027344 327.921875 472.234375 327.875 L 472.230469 327.875 C 472.488281 328.132812 472.839844 328.273438 473.28125 328.296875 C 474.027344 328.339844 474.894531 328.359375 475.894531 328.359375 C 476.558594 328.359375 477.277344 328.351562 478.054688 328.332031 C 478.871094 328.308594 479.445312 327.886719 479.773438 327.070312 C 480.359375 325.546875 480.660156 324.765625 480.683594 324.71875 C 481.058594 323.945312 481.65625 323.488281 482.476562 323.347656 L 482.441406 323.347656 L 482.441406 323.316406 C 482.371094 323.199219 482.277344 323.058594 482.160156 322.894531 Z M 478.125 337.316406 C 478.195312 337.523438 478.253906 337.804688 478.300781 338.15625 C 478.371094 338.507812 478.429688 338.75 478.476562 338.890625 C 478.523438 339.03125 478.582031 339.195312 478.652344 339.382812 C 478.859375 339.546875 479.058594 339.675781 479.246094 339.769531 C 478.847656 338.367188 478.59375 337.617188 478.476562 337.523438 C 478.359375 337.429688 478.242188 337.363281 478.128906 337.316406 Z M 477.746094 298.703125 C 474.921875 298.703125 473.023438 298.707031 472.054688 298.71875 C 470.792969 298.71875 469.996094 298.882812 469.667969 299.210938 C 469.339844 299.5625 469.175781 300.394531 469.175781 301.703125 C 469.152344 302.242188 469.140625 305.820312 469.140625 312.4375 C 469.140625 318.355469 469.140625 321.734375 469.140625 322.578125 C 469.140625 323.558594 469.175781 324.308594 469.246094 324.824219 C 469.363281 325.757812 469.855469 326.25 470.722656 326.296875 C 471.546875 326.328125 472.53125 326.34375 473.667969 326.34375 C 474.238281 326.34375 474.84375 326.339844 475.492188 326.332031 C 476.3125 326.308594 476.871094 325.875 477.175781 325.035156 C 477.785156 323.535156 478.101562 322.753906 478.125 322.683594 C 478.59375 321.746094 479.390625 321.277344 480.523438 321.277344 C 480.574219 321.277344 480.628906 321.277344 480.683594 321.28125 C 481.761719 321.351562 482.589844 321.886719 483.175781 322.894531 C 483.597656 323.617188 483.808594 324.53125 483.808594 325.628906 C 483.832031 329.089844 483.832031 332.566406 483.808594 336.050781 C 483.808594 336.542969 483.773438 337.007812 483.703125 337.453125 C 483.515625 338.390625 483.105469 339.171875 482.476562 339.804688 C 481.867188 340.4375 481.164062 340.773438 480.371094 340.820312 C 480.28125 340.828125 480.191406 340.832031 480.105469 340.832031 C 479.429688 340.832031 478.792969 340.597656 478.195312 340.121094 C 477.515625 339.558594 477.023438 338.808594 476.722656 337.875 C 476.183594 336.308594 475.914062 335.523438 475.914062 335.523438 C 475.613281 335.285156 475.242188 335.164062 474.804688 335.164062 C 474.730469 335.164062 474.65625 335.167969 474.582031 335.171875 C 473.542969 335.308594 473.074219 335.378906 473.164062 335.382812 C 472.957031 335.378906 472.757812 335.375 472.558594 335.375 C 471.753906 335.375 471.023438 335.414062 470.371094 335.488281 C 469.503906 335.558594 468.910156 335.769531 468.582031 336.121094 C 468.253906 336.496094 468.089844 337.125 468.089844 338.015625 C 468.089844 339.324219 468.347656 340.609375 468.863281 341.875 C 470.40625 345.6875 472.875 348.097656 476.265625 349.101562 C 477.523438 349.472656 478.773438 349.660156 480.007812 349.660156 C 481.730469 349.660156 483.429688 349.296875 485.105469 348.574219 C 486.320312 348.0625 487.410156 347.335938 488.367188 346.398438 C 490.917969 343.921875 492.214844 340.890625 492.261719 337.3125 C 492.332031 334.085938 492.332031 330.144531 492.261719 325.488281 C 492.238281 323.246094 491.84375 321.128906 491.070312 319.140625 C 489.878906 316.027344 487.609375 314.308594 484.265625 313.980469 C 483.796875 313.941406 483.339844 313.921875 482.890625 313.921875 C 481.996094 313.921875 481.144531 314 480.335938 314.15625 C 479.609375 314.296875 479.140625 314.367188 478.929688 314.367188 C 478.886719 314.371094 478.839844 314.371094 478.796875 314.371094 C 477.988281 314.371094 477.480469 313.960938 477.28125 313.140625 C 477.023438 312.109375 477.011719 310.90625 477.246094 309.527344 C 477.410156 308.636719 477.667969 308.03125 478.019531 307.703125 C 478.371094 307.398438 478.988281 307.234375 479.878906 307.210938 C 479.832031 307.210938 482.371094 307.1875 487.492188 307.140625 C 488.753906 307.140625 489.597656 307.128906 490.019531 307.105469 C 491.070312 307.011719 491.621094 306.484375 491.667969 305.527344 C 491.738281 303.820312 491.738281 302.125 491.667969 300.4375 C 491.621094 299.457031 491.105469 298.894531 490.121094 298.753906 C 489.820312 298.730469 489.445312 298.71875 489 298.71875 C 484.324219 298.707031 480.570312 298.703125 477.746094 298.703125 Z M 491.816406 318.238281 C 492.230469 318.84375 492.570312 319.484375 492.824219 320.15625 C 493.621094 322.191406 494.027344 324.355469 494.050781 326.648438 C 494.097656 331.300781 494.097656 335.253906 494.050781 338.507812 C 493.980469 342.179688 492.636719 345.300781 490.019531 347.875 C 489.035156 348.832031 487.902344 349.59375 486.613281 350.152344 C 484.90625 350.878906 483.152344 351.242188 481.351562 351.242188 C 480.230469 351.242188 479.089844 351.078125 477.921875 350.753906 L 477.917969 350.753906 C 478.335938 350.9375 478.640625 351.054688 478.824219 351.101562 C 480.109375 351.476562 481.375 351.664062 482.628906 351.664062 C 484.339844 351.664062 486.019531 351.3125 487.667969 350.609375 C 488.90625 350.070312 489.996094 349.347656 490.929688 348.433594 C 493.480469 345.933594 494.789062 342.902344 494.859375 339.347656 C 494.90625 336.097656 494.90625 332.144531 494.859375 327.488281 C 494.835938 325.265625 494.425781 323.152344 493.632812 321.140625 C 493.1875 320 492.585938 319.03125 491.816406 318.238281 Z M 491.816406 318.238281 " fill-opacity="1" fill-rule="nonzero"/><path fill="#6d5764" d="M 454.796875 283.597656 C 453.609375 283.640625 452.917969 283.933594 452.726562 284.480469 C 453.035156 284.386719 453.472656 284.328125 454.046875 284.308594 C 454.210938 284.308594 454.472656 284.308594 454.832031 284.308594 L 468.921875 284.371094 C 487.5 284.449219 501.425781 284.503906 510.703125 284.542969 C 512.488281 284.550781 513.582031 284.757812 513.984375 285.164062 C 514.386719 285.59375 514.582031 286.726562 514.574219 288.558594 L 514.574219 288.914062 C 514.570312 289.699219 514.542969 290.363281 514.496094 290.910156 C 514.710938 290.699219 514.84375 290.390625 514.890625 289.984375 C 514.941406 289.414062 514.96875 288.570312 514.972656 287.453125 C 514.980469 285.738281 514.816406 284.714844 514.488281 284.382812 C 514.15625 284.023438 513.15625 283.839844 511.492188 283.835938 C 506.1875 283.8125 487.621094 283.734375 455.796875 283.601562 C 455.273438 283.597656 454.941406 283.597656 454.796875 283.597656 Z M 453.003906 285.871094 C 452.050781 285.917969 451.445312 286.070312 451.183594 286.328125 C 450.894531 286.589844 450.726562 287.171875 450.675781 288.074219 C 450.675781 288.3125 450.671875 288.894531 450.667969 289.824219 C 450.660156 291.582031 450.800781 292.617188 451.082031 292.929688 C 451.390625 293.238281 452.402344 293.398438 454.113281 293.40625 L 509.273438 293.636719 C 509.378906 293.636719 509.480469 293.636719 509.582031 293.636719 C 510.546875 293.636719 511.289062 293.617188 511.808594 293.574219 C 512.570312 293.484375 512.988281 293.046875 513.0625 292.261719 C 513.136719 291.691406 513.175781 290.859375 513.179688 289.765625 C 513.164062 288.050781 512.988281 287.015625 512.65625 286.65625 C 512.324219 286.300781 511.328125 286.117188 509.664062 286.109375 C 503.476562 286.085938 484.925781 286.007812 454.003906 285.878906 C 453.480469 285.875 453.148438 285.875 453.003906 285.871094 Z M 453.003906 285.871094 " fill-opacity="1" fill-rule="nonzero"/></svg>