<svg xmlns="http://www.w3.org/2000/svg" xmlns:xlink="http://www.w3.org/1999/xlink" width="1000" zoomAndPan="magnify" viewBox="0 0 750 749.999995" height="1000" preserveAspectRatio="xMidYMid meet" version="1.0"><rect x="-75" width="900" fill="#ffffff" y="-74.999999" height="899.999994" fill-opacity="1"/><rect x="-75" width="900" fill="#ffffff" y="-74.999999" height="899.999994" fill-opacity="1"/><path fill="#000000" d="M 347.882812 194.363281 C 343.933594 194.363281 340.859375 193.117188 338.667969 190.628906 C 336.472656 188.140625 335.300781 184.917969 335.15625 180.964844 C 335.15625 172.914062 338.667969 165.738281 345.6875 159.445312 C 352.707031 153.148438 361.191406 150 371.136719 150 C 376.257812 150 379.476562 150.074219 380.792969 150.21875 C 391.613281 151.976562 399.878906 155.855469 405.582031 161.859375 C 411.289062 167.863281 414.214844 174.378906 414.359375 181.40625 C 414.359375 189.019531 411.875 196.414062 406.898438 203.585938 C 401.925781 210.761719 395.050781 215.960938 386.277344 219.179688 L 385.617188 219.621094 C 385.617188 219.765625 386.277344 219.984375 387.59375 220.277344 C 388.910156 220.570312 391.03125 221.230469 393.957031 222.253906 C 396.878906 223.28125 399.660156 224.816406 402.292969 226.867188 C 414.285156 234.625 420.285156 244.875 420.285156 257.613281 C 420.285156 269.179688 415.75 279.28125 406.679688 287.921875 C 397.613281 296.558594 386.128906 300.878906 372.234375 300.878906 C 360.535156 300.878906 350.441406 297.730469 341.957031 291.433594 C 333.472656 285.140625 329.230469 277.160156 329.230469 267.496094 C 329.230469 263.398438 330.546875 260.101562 333.179688 257.613281 C 335.8125 255.125 339.105469 253.808594 343.054688 253.660156 C 347.148438 253.660156 350.515625 254.976562 353.148438 257.613281 C 355.78125 260.25 357.097656 263.542969 357.097656 267.496094 C 357.097656 269.105469 356.875 270.570312 356.4375 271.890625 C 356 273.207031 355.488281 274.378906 354.902344 275.402344 C 354.316406 276.425781 353.511719 277.304688 352.488281 278.039062 C 351.464844 278.769531 350.585938 279.355469 349.855469 279.796875 C 349.125 280.234375 348.394531 280.527344 347.660156 280.671875 C 346.929688 280.820312 346.34375 281.039062 345.90625 281.332031 L 345.027344 281.550781 C 352.488281 288.140625 361.558594 291.433594 372.234375 291.433594 C 380.28125 291.433594 386.347656 287.554688 390.445312 279.796875 C 392.929688 274.964844 394.175781 267.570312 394.175781 257.613281 L 394.175781 253.222656 C 394.175781 239.3125 389.496094 230.015625 380.132812 225.328125 C 377.9375 224.449219 373.476562 223.9375 366.75 223.792969 L 357.535156 223.574219 L 356.875 223.132812 C 356.585938 222.695312 356.4375 221.523438 356.4375 219.621094 C 356.4375 216.984375 357.023438 215.667969 358.191406 215.667969 C 362.289062 215.667969 366.53125 215.300781 370.917969 214.566406 C 375.890625 213.835938 380.425781 210.761719 384.519531 205.34375 C 388.617188 199.925781 390.664062 191.726562 390.664062 180.746094 L 390.664062 178.988281 C 390.664062 170.644531 388.105469 164.859375 382.984375 161.640625 C 379.765625 159.589844 376.332031 158.566406 372.671875 158.566406 C 367.992188 158.566406 363.679688 159.371094 359.730469 160.980469 C 355.78125 162.589844 353 164.273438 351.390625 166.03125 C 349.78125 167.789062 348.976562 168.667969 348.976562 168.667969 L 349.636719 168.667969 C 350.074219 168.8125 350.660156 168.960938 351.390625 169.105469 C 352.125 169.253906 352.855469 169.621094 353.585938 170.203125 C 354.316406 170.789062 355.195312 171.304688 356.21875 171.742188 C 357.242188 172.179688 357.972656 172.988281 358.414062 174.15625 C 358.851562 175.328125 359.4375 176.425781 360.167969 177.453125 C 360.898438 178.476562 361.117188 179.941406 360.824219 181.84375 C 360.824219 185.066406 359.800781 187.921875 357.753906 190.410156 C 355.707031 192.898438 352.414062 194.214844 347.882812 194.363281 Z M 347.882812 194.363281 " fill-opacity="1" fill-rule="nonzero"/><path fill="#000000" d="M 347.882812 493.484375 C 343.933594 493.484375 340.859375 492.238281 338.667969 489.75 C 336.472656 487.261719 335.300781 484.039062 335.15625 480.085938 C 335.15625 472.035156 338.667969 464.859375 345.6875 458.566406 C 352.707031 452.269531 361.191406 449.121094 371.136719 449.121094 C 376.257812 449.121094 379.476562 449.195312 380.792969 449.339844 C 391.613281 451.097656 399.878906 454.976562 405.582031 460.980469 C 411.289062 466.984375 414.214844 473.5 414.359375 480.527344 C 414.359375 488.140625 411.875 495.535156 406.898438 502.707031 C 401.925781 509.882812 395.050781 515.082031 386.277344 518.300781 L 385.617188 518.742188 C 385.617188 518.886719 386.277344 519.105469 387.59375 519.398438 C 388.910156 519.691406 391.03125 520.351562 393.957031 521.375 C 396.878906 522.402344 399.660156 523.9375 402.292969 525.988281 C 414.285156 533.75 420.285156 543.996094 420.285156 556.734375 C 420.285156 568.300781 415.75 578.402344 406.679688 587.042969 C 397.613281 595.679688 386.128906 600 372.234375 600 C 360.535156 600 350.441406 596.851562 341.957031 590.554688 C 333.472656 584.261719 329.230469 576.28125 329.230469 566.617188 C 329.230469 562.519531 330.546875 559.222656 333.179688 556.734375 C 335.8125 554.246094 339.105469 552.929688 343.054688 552.78125 C 347.148438 552.78125 350.515625 554.097656 353.148438 556.734375 C 355.78125 559.371094 357.097656 562.664062 357.097656 566.617188 C 357.097656 568.226562 356.875 569.691406 356.4375 571.011719 C 356 572.328125 355.488281 573.5 354.902344 574.523438 C 354.316406 575.550781 353.511719 576.425781 352.488281 577.160156 C 351.464844 577.890625 350.585938 578.476562 349.855469 578.917969 C 349.125 579.355469 348.394531 579.648438 347.660156 579.796875 C 346.929688 579.941406 346.34375 580.160156 345.90625 580.453125 L 345.027344 580.671875 C 352.488281 587.261719 361.558594 590.554688 372.234375 590.554688 C 380.28125 590.554688 386.347656 586.675781 390.445312 578.917969 C 392.929688 574.085938 394.175781 566.691406 394.175781 556.734375 L 394.175781 552.34375 C 394.175781 538.433594 389.496094 529.136719 380.132812 524.449219 C 377.9375 523.574219 373.476562 523.058594 366.75 522.914062 L 357.535156 522.695312 L 356.875 522.253906 C 356.585938 521.816406 356.4375 520.644531 356.4375 518.742188 C 356.4375 516.105469 357.023438 514.789062 358.191406 514.789062 C 362.289062 514.789062 366.53125 514.421875 370.917969 513.691406 C 375.890625 512.957031 380.425781 509.882812 384.519531 504.464844 C 388.617188 499.046875 390.664062 490.847656 390.664062 479.867188 L 390.664062 478.109375 C 390.664062 469.765625 388.105469 463.984375 382.984375 460.761719 C 379.765625 458.710938 376.332031 457.6875 372.671875 457.6875 C 367.992188 457.6875 363.679688 458.492188 359.730469 460.101562 C 355.78125 461.714844 353 463.398438 351.390625 465.152344 C 349.78125 466.910156 348.976562 467.789062 348.976562 467.789062 L 349.636719 467.789062 C 350.074219 467.9375 350.660156 468.082031 351.390625 468.226562 C 352.125 468.375 352.855469 468.742188 353.585938 469.328125 C 354.316406 469.914062 355.195312 470.425781 356.21875 470.863281 C 357.242188 471.304688 357.972656 472.109375 358.414062 473.28125 C 358.851562 474.449219 359.4375 475.550781 360.167969 476.574219 C 360.898438 477.597656 361.117188 479.0625 360.824219 480.964844 C 360.824219 484.1875 359.800781 487.042969 357.753906 489.53125 C 355.707031 492.019531 352.414062 493.339844 347.882812 493.484375 Z M 347.882812 493.484375 " fill-opacity="1" fill-rule="nonzero"/><path fill="#000000" d="M 298.078125 396.191406 L 451.65625 396.191406 L 451.65625 383.015625 L 298.078125 383.015625 Z M 298.078125 396.191406 " fill-opacity="1" fill-rule="nonzero"/></svg>