<svg xmlns="http://www.w3.org/2000/svg" xmlns:xlink="http://www.w3.org/1999/xlink" width="1000" zoomAndPan="magnify" viewBox="0 0 750 749.999995" height="1000" preserveAspectRatio="xMidYMid meet" version="1.0"><rect x="-75" width="900" fill="#ffffff" y="-74.999999" height="899.999994" fill-opacity="1"/><rect x="-75" width="900" fill="#ffffff" y="-74.999999" height="899.999994" fill-opacity="1"/><path fill="#000000" d="M 356.007812 261.730469 C 356.007812 265.242188 354.839844 268.171875 352.5 270.511719 C 350.160156 272.855469 347.308594 274.023438 343.945312 274.023438 L 342.414062 274.023438 C 349.136719 285.585938 358.054688 291.367188 369.164062 291.367188 C 379.398438 291.367188 386.855469 286.976562 391.535156 278.195312 C 394.3125 273.367188 395.699219 264 395.699219 250.097656 C 395.699219 235.023438 393.726562 224.855469 389.78125 219.585938 C 385.976562 214.757812 381.738281 212.339844 377.0625 212.339844 L 375.746094 212.339844 C 364.339844 212.339844 355.714844 217.316406 349.867188 227.269531 C 349.285156 228.292969 348.773438 228.878906 348.332031 229.023438 C 347.894531 229.171875 346.796875 229.316406 345.042969 229.464844 C 342.558594 229.464844 341.167969 229.023438 340.878906 228.144531 C 340.585938 227.5625 340.4375 214.757812 340.4375 189.730469 L 340.4375 161.414062 C 340.4375 154.097656 340.804688 150.4375 341.535156 150.4375 C 341.828125 150.144531 342.121094 150 342.414062 150 C 342.558594 150 344.09375 150.585938 347.015625 151.757812 C 349.941406 152.925781 353.960938 154.097656 359.078125 155.269531 C 364.195312 156.4375 369.675781 157.023438 375.527344 157.023438 C 385.90625 157.023438 395.847656 154.976562 405.347656 150.878906 C 406.519531 150.292969 407.46875 150 408.199219 150 C 409.371094 150 409.953125 151.316406 409.953125 153.953125 L 409.953125 156.804688 C 397.964844 171 382.980469 178.097656 365 178.097656 C 360.46875 178.097656 356.375 177.660156 352.71875 176.78125 L 350.527344 176.339844 L 350.527344 214.097656 C 353.304688 212.046875 355.496094 210.4375 357.105469 209.269531 C 358.714844 208.097656 361.34375 206.925781 365 205.757812 C 368.65625 204.585938 372.382812 204 376.183594 204 C 388.023438 204 398.039062 208.757812 406.226562 218.269531 C 414.414062 227.78125 418.507812 239.046875 418.507812 252.074219 C 418.507812 265.535156 413.828125 277.023438 404.472656 286.535156 C 395.117188 296.046875 383.710938 300.878906 370.261719 301.023438 C 358.421875 301.023438 348.917969 297.074219 341.753906 289.171875 C 334.589844 281.269531 331.007812 272.339844 331.007812 262.390625 C 331.007812 258.878906 331.8125 256.097656 333.421875 254.046875 C 335.03125 252 336.710938 250.683594 338.464844 250.097656 C 340.21875 249.511719 341.902344 249.21875 343.507812 249.21875 C 347.164062 249.21875 350.160156 250.464844 352.5 252.953125 C 354.839844 255.4375 356.007812 258.367188 356.007812 261.730469 Z M 356.007812 261.730469 " fill-opacity="1" fill-rule="nonzero"/><path fill="#000000" d="M 356.007812 560.707031 C 356.007812 564.21875 354.839844 567.144531 352.5 569.488281 C 350.160156 571.828125 347.308594 573 343.945312 573 L 342.414062 573 C 349.136719 584.5625 358.054688 590.339844 369.164062 590.339844 C 379.398438 590.339844 386.855469 585.953125 391.535156 577.171875 C 394.3125 572.339844 395.699219 562.976562 395.699219 549.074219 C 395.699219 534 393.726562 523.828125 389.78125 518.5625 C 385.976562 513.730469 381.738281 511.316406 377.0625 511.316406 L 375.746094 511.316406 C 364.339844 511.316406 355.714844 516.292969 349.867188 526.242188 C 349.285156 527.269531 348.773438 527.855469 348.332031 528 C 347.894531 528.144531 346.796875 528.292969 345.042969 528.4375 C 342.558594 528.4375 341.167969 528 340.878906 527.121094 C 340.585938 526.535156 340.4375 513.730469 340.4375 488.707031 L 340.4375 460.390625 C 340.4375 453.074219 340.804688 449.414062 341.535156 449.414062 C 341.828125 449.121094 342.121094 448.976562 342.414062 448.976562 C 342.558594 448.976562 344.09375 449.5625 347.015625 450.730469 C 349.941406 451.902344 353.960938 453.074219 359.078125 454.242188 C 364.195312 455.414062 369.675781 456 375.527344 456 C 385.90625 456 395.847656 453.953125 405.347656 449.855469 C 406.519531 449.269531 407.46875 448.976562 408.199219 448.976562 C 409.371094 448.976562 409.953125 450.292969 409.953125 452.925781 L 409.953125 455.78125 C 397.964844 469.976562 382.980469 477.074219 365 477.074219 C 360.46875 477.074219 356.375 476.632812 352.71875 475.757812 L 350.527344 475.316406 L 350.527344 513.074219 C 353.304688 511.023438 355.496094 509.414062 357.105469 508.242188 C 358.714844 507.074219 361.34375 505.902344 365 504.730469 C 368.65625 503.5625 372.382812 502.976562 376.183594 502.976562 C 388.023438 502.976562 398.039062 507.730469 406.226562 517.242188 C 414.414062 526.757812 418.507812 538.023438 418.507812 551.046875 C 418.507812 564.511719 413.828125 576 404.472656 585.511719 C 395.117188 595.023438 383.710938 599.855469 370.261719 600 C 358.421875 600 348.917969 596.046875 341.753906 588.144531 C 334.589844 580.242188 331.007812 571.316406 331.007812 561.367188 C 331.007812 557.855469 331.8125 555.074219 333.421875 553.023438 C 335.03125 550.976562 336.710938 549.660156 338.464844 549.074219 C 340.21875 548.488281 341.902344 548.195312 343.507812 548.195312 C 347.164062 548.195312 350.160156 549.4375 352.5 551.925781 C 354.839844 554.414062 356.007812 557.339844 356.007812 560.707031 Z M 356.007812 560.707031 " fill-opacity="1" fill-rule="nonzero"/><path fill="#000000" d="M 298.113281 396.292969 L 451.621094 396.292969 L 451.621094 383.121094 L 298.113281 383.121094 Z M 298.113281 396.292969 " fill-opacity="1" fill-rule="nonzero"/></svg>