<svg xmlns="http://www.w3.org/2000/svg" xmlns:xlink="http://www.w3.org/1999/xlink" width="1000" zoomAndPan="magnify" viewBox="0 0 750 749.999995" height="1000" preserveAspectRatio="xMidYMid meet" version="1.0"><rect x="-75" width="900" fill="#ffffff" y="-74.999999" height="899.999994" fill-opacity="1"/><rect x="-75" width="900" fill="#ffffff" y="-74.999999" height="899.999994" fill-opacity="1"/><path fill="#000000" d="M 329.253906 227.488281 C 329.253906 203.632812 335.175781 184.757812 347.015625 170.855469 C 358.859375 156.953125 372.015625 150 386.488281 150 C 396.578125 150 403.8125 152.632812 408.199219 157.902344 C 412.585938 163.171875 414.777344 169.023438 414.777344 175.464844 C 414.777344 179.121094 413.753906 182.046875 411.707031 184.242188 C 409.664062 186.4375 406.8125 187.535156 403.15625 187.535156 C 399.792969 187.535156 397.015625 186.511719 394.824219 184.464844 C 392.628906 182.414062 391.535156 179.5625 391.535156 175.902344 C 391.535156 169.464844 394.96875 165.585938 401.839844 164.269531 C 398.625 161.046875 394.09375 159.21875 388.246094 158.78125 C 377.863281 158.78125 369.3125 163.171875 362.585938 171.953125 C 355.714844 181.609375 352.28125 196.390625 352.28125 216.292969 L 352.5 217.171875 C 353.230469 216.292969 353.816406 215.339844 354.253906 214.316406 C 360.25 205.535156 368.070312 201.144531 377.71875 201.144531 L 378.59375 201.144531 C 385.320312 201.144531 391.242188 202.535156 396.359375 205.316406 C 399.867188 207.367188 403.375 210.292969 406.882812 214.097656 C 410.394531 217.902344 413.242188 222.074219 415.4375 226.609375 C 418.507812 233.78125 420.042969 241.609375 420.042969 250.097656 L 420.042969 254.046875 C 420.042969 257.414062 419.675781 260.5625 418.945312 263.488281 C 417.335938 272.121094 412.660156 280.535156 404.910156 288.730469 C 397.164062 296.925781 387.367188 301.023438 375.527344 301.023438 C 371.433594 301.023438 367.484375 300.4375 363.683594 299.269531 C 359.882812 298.097656 355.789062 295.902344 351.402344 292.683594 C 347.015625 289.464844 343.289062 285.144531 340.21875 279.730469 C 337.148438 274.316406 334.519531 267.21875 332.324219 258.4375 C 330.132812 249.660156 329.109375 239.339844 329.253906 227.488281 Z M 376.402344 209.046875 C 372.015625 209.046875 368.214844 210.292969 365 212.78125 C 361.78125 215.269531 359.296875 218.5625 357.542969 222.660156 C 355.789062 226.757812 354.546875 230.925781 353.816406 235.171875 C 353.085938 239.414062 352.644531 243.953125 352.5 248.78125 C 352.5 260.925781 353.375 269.632812 355.132812 274.902344 C 356.886719 280.171875 359.664062 284.414062 363.464844 287.632812 C 366.972656 290.269531 370.847656 291.585938 375.085938 291.585938 C 382.542969 291.585938 388.246094 288.804688 392.191406 283.242188 C 394.09375 280.609375 395.40625 277.316406 396.140625 273.367188 C 396.871094 269.414062 397.234375 261.730469 397.234375 250.316406 C 397.234375 238.609375 396.871094 230.78125 396.140625 226.828125 C 395.40625 222.878906 394.09375 219.585938 392.191406 216.953125 C 388.246094 211.683594 382.980469 209.046875 376.402344 209.046875 Z M 376.402344 209.046875 " fill-opacity="1" fill-rule="nonzero"/><path fill="#000000" d="M 329.253906 526.464844 C 329.253906 502.609375 335.175781 483.730469 347.015625 469.828125 C 358.859375 455.925781 372.015625 448.976562 386.488281 448.976562 C 396.578125 448.976562 403.8125 451.609375 408.199219 456.878906 C 412.585938 462.144531 414.777344 468 414.777344 474.4375 C 414.777344 478.097656 413.753906 481.023438 411.707031 483.21875 C 409.664062 485.414062 406.8125 486.511719 403.15625 486.511719 C 399.792969 486.511719 397.015625 485.488281 394.824219 483.4375 C 392.628906 481.390625 391.535156 478.535156 391.535156 474.878906 C 391.535156 468.4375 394.96875 464.5625 401.839844 463.242188 C 398.625 460.023438 394.09375 458.195312 388.246094 457.757812 C 377.863281 457.757812 369.3125 462.144531 362.585938 470.925781 C 355.714844 480.585938 352.28125 495.367188 352.28125 515.269531 L 352.5 516.144531 C 353.230469 515.269531 353.816406 514.316406 354.253906 513.292969 C 360.25 504.511719 368.070312 500.121094 377.71875 500.121094 L 378.59375 500.121094 C 385.320312 500.121094 391.242188 501.511719 396.359375 504.292969 C 399.867188 506.339844 403.375 509.269531 406.882812 513.074219 C 410.394531 516.878906 413.242188 521.046875 415.4375 525.585938 C 418.507812 532.757812 420.042969 540.585938 420.042969 549.074219 L 420.042969 553.023438 C 420.042969 556.390625 419.675781 559.535156 418.945312 562.464844 C 417.335938 571.097656 412.660156 579.511719 404.910156 587.707031 C 397.164062 595.902344 387.367188 600 375.527344 600 C 371.433594 600 367.484375 599.414062 363.683594 598.242188 C 359.882812 597.074219 355.789062 594.878906 351.402344 591.660156 C 347.015625 588.4375 343.289062 584.121094 340.21875 578.707031 C 337.148438 573.292969 334.519531 566.195312 332.324219 557.414062 C 330.132812 548.632812 329.109375 538.316406 329.253906 526.464844 Z M 376.402344 508.023438 C 372.015625 508.023438 368.214844 509.269531 365 511.757812 C 361.78125 514.242188 359.296875 517.535156 357.542969 521.632812 C 355.789062 525.730469 354.546875 529.902344 353.816406 534.144531 C 353.085938 538.390625 352.644531 542.925781 352.5 547.757812 C 352.5 559.902344 353.375 568.609375 355.132812 573.878906 C 356.886719 579.144531 359.664062 583.390625 363.464844 586.609375 C 366.972656 589.242188 370.847656 590.5625 375.085938 590.5625 C 382.542969 590.5625 388.246094 587.78125 392.191406 582.21875 C 394.09375 579.585938 395.40625 576.292969 396.140625 572.339844 C 396.871094 568.390625 397.234375 560.707031 397.234375 549.292969 C 397.234375 537.585938 396.871094 529.757812 396.140625 525.804688 C 395.40625 521.855469 394.09375 518.5625 392.191406 515.925781 C 388.246094 510.660156 382.980469 508.023438 376.402344 508.023438 Z M 376.402344 508.023438 " fill-opacity="1" fill-rule="nonzero"/><path fill="#000000" d="M 298.113281 396.292969 L 451.621094 396.292969 L 451.621094 383.121094 L 298.113281 383.121094 Z M 298.113281 396.292969 " fill-opacity="1" fill-rule="nonzero"/></svg>