<svg xmlns="http://www.w3.org/2000/svg" xmlns:xlink="http://www.w3.org/1999/xlink" width="1000" zoomAndPan="magnify" viewBox="0 0 750 749.999995" height="1000" preserveAspectRatio="xMidYMid meet" version="1.0"><defs><clipPath id="7f728c8e89"><path d="M 113.59375 112.5 L 636.34375 112.5 L 636.34375 636 L 113.59375 636 Z M 113.59375 112.5 " clip-rule="nonzero"/></clipPath></defs><rect x="-75" width="900" fill="#ffffff" y="-74.999999" height="899.999994" fill-opacity="1"/><rect x="-75" width="900" fill="#ffffff" y="-74.999999" height="899.999994" fill-opacity="1"/><path fill="#6d5764" d="M 629.957031 373.4375 L 627.632812 407.964844 C 616.625 477.527344 584.414062 533.160156 530.996094 574.867188 C 477.210938 616.539062 413.875 633.433594 340.988281 625.558594 C 271.425781 614.550781 215.792969 582.335938 174.085938 528.921875 C 160.722656 511.65625 149.71875 492.839844 141.066406 472.480469 L 130.160156 441.078125 C 124.167969 419.472656 121.136719 396.925781 121.070312 373.4375 C 122.890625 301.359375 147.730469 241.386719 195.597656 193.519531 C 243.460938 145.65625 303.433594 120.816406 375.515625 118.996094 C 447.59375 120.816406 507.566406 145.65625 555.433594 193.519531 C 603.296875 241.386719 628.136719 301.359375 629.957031 373.4375 " fill-opacity="1" fill-rule="nonzero"/><path fill="#6d5764" d="M 625.613281 329.652344 C 623.441406 259.625 537.414062 174.59375 537.414062 174.59375 L 375.085938 374.109375 C 323.949219 406.917969 191.78125 486.5625 159.417969 506.582031 C 207.382812 582.066406 288.5625 613.171875 288.5625 613.171875 C 329.617188 628.902344 417.285156 633.984375 464.71875 611.734375 C 470.585938 608.984375 556.054688 582.378906 591.203125 504.410156 C 595.976562 493.820312 621.609375 458.164062 627.855469 411.59375 C 633.726562 367.8125 625.613281 329.652344 625.613281 329.652344 Z M 625.613281 329.652344 " fill-opacity="1" fill-rule="nonzero"/><path fill="#00010d" d="M 379.773438 118.472656 L 380.203125 373.511719 C 380.207031 376.253906 377.988281 378.476562 375.25 378.480469 C 372.511719 378.488281 370.285156 376.269531 370.28125 373.527344 L 369.851562 118.492188 C 369.847656 115.75 372.0625 113.527344 374.804688 113.519531 C 377.542969 113.515625 379.769531 115.734375 379.773438 118.472656 Z M 379.773438 118.472656 " fill-opacity="1" fill-rule="nonzero"/><path fill="#00010d" d="M 373.613281 371.394531 L 531.816406 172.472656 C 533.523438 170.328125 536.644531 169.972656 538.789062 171.679688 C 540.933594 173.386719 541.289062 176.507812 539.582031 178.648438 L 381.378906 377.570312 C 379.671875 379.714844 376.550781 380.070312 374.40625 378.367188 C 372.261719 376.660156 371.90625 373.539062 373.613281 371.394531 Z M 373.613281 371.394531 " fill-opacity="1" fill-rule="nonzero"/><path fill="#00010d" d="M 377.058594 372.105469 L 623.492188 324.886719 C 626.183594 324.371094 628.785156 326.136719 629.300781 328.828125 C 629.816406 331.519531 628.050781 334.117188 625.359375 334.632812 L 378.925781 381.851562 C 376.234375 382.367188 373.636719 380.601562 373.121094 377.910156 C 372.605469 375.222656 374.367188 372.621094 377.058594 372.105469 Z M 377.058594 372.105469 " fill-opacity="1" fill-rule="nonzero"/><path fill="#00010d" d="M 378.820312 371.960938 L 591.871094 499.65625 C 594.222656 501.066406 594.984375 504.113281 593.574219 506.464844 C 592.167969 508.8125 589.121094 509.578125 586.769531 508.167969 L 373.71875 380.46875 C 371.371094 379.0625 370.605469 376.015625 372.015625 373.664062 C 373.425781 371.316406 376.472656 370.550781 378.820312 371.960938 Z M 378.820312 371.960938 " fill-opacity="1" fill-rule="nonzero"/><path fill="#00010d" d="M 378.914062 376.878906 L 466.539062 608.402344 C 467.507812 610.964844 466.21875 613.828125 463.65625 614.796875 C 461.09375 615.769531 458.230469 614.476562 457.261719 611.914062 L 369.632812 380.394531 C 368.664062 377.832031 369.953125 374.964844 372.515625 373.996094 C 375.078125 373.027344 377.941406 374.316406 378.914062 376.878906 Z M 378.914062 376.878906 " fill-opacity="1" fill-rule="nonzero"/><path fill="#00010d" d="M 379.257812 384.125 L 294.085938 613.101562 C 293.132812 615.671875 290.277344 616.976562 287.707031 616.023438 C 285.140625 615.066406 283.832031 612.210938 284.789062 609.644531 L 369.957031 380.664062 C 370.910156 378.097656 373.769531 376.789062 376.335938 377.746094 C 378.902344 378.699219 380.210938 381.554688 379.257812 384.125 Z M 379.257812 384.125 " fill-opacity="1" fill-rule="nonzero"/><path fill="#00010d" d="M 158.960938 499.976562 L 371.972656 374.199219 C 374.332031 372.808594 377.375 373.589844 378.765625 375.949219 C 380.160156 378.308594 379.375 381.351562 377.015625 382.742188 L 164.007812 508.519531 C 161.648438 509.914062 158.605469 509.128906 157.210938 506.769531 C 155.820312 504.410156 156.601562 501.371094 158.960938 499.976562 Z M 158.960938 499.976562 " fill-opacity="1" fill-rule="nonzero"/><path fill="#00010d" d="M 129.824219 325.527344 L 374.507812 371.074219 C 377.203125 371.574219 378.980469 374.164062 378.480469 376.859375 C 377.976562 379.550781 375.386719 381.328125 372.695312 380.828125 L 128.011719 335.28125 C 125.316406 334.78125 123.539062 332.191406 124.039062 329.496094 C 124.542969 326.804688 127.132812 325.027344 129.824219 325.527344 Z M 129.824219 325.527344 " fill-opacity="1" fill-rule="nonzero"/><path fill="#00010d" d="M 218.542969 177.863281 L 376.339844 371.519531 C 378.070312 373.644531 377.75 376.769531 375.628906 378.5 C 373.503906 380.230469 370.378906 379.910156 368.648438 377.785156 L 210.851562 184.132812 C 209.121094 182.007812 209.441406 178.882812 211.566406 177.152344 C 213.6875 175.421875 216.8125 175.738281 218.542969 177.863281 Z M 218.542969 177.863281 " fill-opacity="1" fill-rule="nonzero"/><g clip-path="url(#7f728c8e89)"><path fill="#00010d" d="M 636.402344 374.035156 C 636.402344 518.40625 519.367188 635.441406 374.996094 635.441406 C 230.625 635.441406 113.585938 518.40625 113.585938 374.035156 C 113.585938 229.660156 230.625 112.625 374.996094 112.625 C 519.367188 112.625 636.402344 229.660156 636.402344 374.035156 M 624.867188 374.035156 C 624.867188 236.03125 512.996094 124.160156 374.996094 124.160156 C 236.996094 124.160156 125.125 236.03125 125.125 374.035156 C 125.125 512.035156 236.996094 623.90625 374.996094 623.90625 C 512.996094 623.90625 624.867188 512.035156 624.867188 374.035156 Z M 624.867188 374.035156 " fill-opacity="1" fill-rule="nonzero"/></g><path fill="#6d5764" d="M 512.878906 256.257812 C 512.921875 256.410156 512.941406 256.539062 512.941406 256.652344 C 512.984375 257.664062 512.984375 258.667969 512.941406 259.667969 C 512.914062 260.390625 512.519531 260.785156 511.753906 260.855469 C 511.476562 260.882812 511.054688 260.894531 510.484375 260.894531 L 507.863281 260.894531 C 507.015625 260.894531 506.296875 260.902344 505.699219 260.917969 C 505.242188 260.929688 504.929688 261.007812 504.761719 261.144531 C 504.597656 261.296875 504.472656 261.609375 504.386719 262.082031 C 504.289062 262.691406 504.277344 263.242188 504.347656 263.726562 C 504.472656 263.710938 504.617188 263.691406 504.785156 263.664062 C 504.769531 263.304688 504.796875 262.929688 504.867188 262.539062 C 504.964844 262.011719 505.117188 261.660156 505.324219 261.480469 C 505.53125 261.285156 505.898438 261.179688 506.425781 261.167969 C 506.398438 261.167969 507.90625 261.160156 510.941406 261.144531 C 511.707031 261.144531 512.207031 261.132812 512.441406 261.105469 C 513.066406 261.050781 513.390625 260.738281 513.417969 260.167969 C 513.460938 259.167969 513.460938 258.164062 513.417969 257.152344 C 513.40625 256.695312 513.226562 256.394531 512.882812 256.257812 Z M 506.074219 269.28125 C 505.519531 269.28125 505.128906 269.511719 504.910156 269.96875 C 504.8125 270.164062 504.6875 270.46875 504.535156 270.886719 C 504.449219 271.078125 504.386719 271.230469 504.347656 271.34375 C 504.109375 271.9375 503.703125 272.246094 503.117188 272.257812 C 502.617188 272.273438 502.167969 272.277344 501.765625 272.277344 C 501.308594 272.277344 500.84375 272.265625 500.375 272.238281 L 500.371094 272.238281 C 500.523438 272.390625 500.734375 272.472656 500.996094 272.488281 C 501.4375 272.511719 501.953125 272.523438 502.542969 272.523438 C 502.9375 272.523438 503.367188 272.519531 503.824219 272.507812 C 504.3125 272.496094 504.652344 272.246094 504.847656 271.757812 C 505.191406 270.855469 505.371094 270.390625 505.386719 270.363281 C 505.609375 269.90625 505.960938 269.636719 506.449219 269.554688 L 506.425781 269.554688 L 506.425781 269.53125 C 506.386719 269.464844 506.332031 269.378906 506.261719 269.28125 Z M 503.867188 277.835938 C 503.910156 277.960938 503.945312 278.128906 503.972656 278.335938 C 504.011719 278.542969 504.046875 278.6875 504.074219 278.773438 C 504.105469 278.855469 504.136719 278.953125 504.179688 279.0625 C 504.304688 279.160156 504.421875 279.238281 504.535156 279.292969 C 504.296875 278.460938 504.144531 278.015625 504.074219 277.960938 C 504.007812 277.90625 503.941406 277.863281 503.871094 277.835938 Z M 503.644531 254.933594 C 501.96875 254.933594 500.84375 254.9375 500.269531 254.945312 C 499.519531 254.945312 499.046875 255.042969 498.851562 255.234375 C 498.660156 255.445312 498.5625 255.9375 498.5625 256.714844 C 498.546875 257.03125 498.539062 259.15625 498.539062 263.082031 C 498.539062 266.589844 498.539062 268.597656 498.539062 269.09375 C 498.539062 269.679688 498.5625 270.121094 498.601562 270.425781 C 498.671875 270.980469 498.964844 271.273438 499.476562 271.300781 C 499.96875 271.320312 500.550781 271.328125 501.226562 271.328125 C 501.5625 271.328125 501.921875 271.328125 502.308594 271.320312 C 502.792969 271.308594 503.125 271.050781 503.304688 270.550781 C 503.667969 269.664062 503.855469 269.199219 503.867188 269.15625 C 504.144531 268.601562 504.621094 268.324219 505.289062 268.324219 C 505.320312 268.324219 505.355469 268.324219 505.386719 268.324219 C 506.023438 268.367188 506.515625 268.6875 506.863281 269.28125 C 507.113281 269.710938 507.238281 270.253906 507.238281 270.90625 C 507.253906 272.960938 507.253906 275.019531 507.238281 277.085938 C 507.238281 277.378906 507.21875 277.65625 507.175781 277.917969 C 507.066406 278.472656 506.824219 278.9375 506.449219 279.3125 C 506.085938 279.6875 505.671875 279.890625 505.199219 279.917969 C 505.148438 279.921875 505.09375 279.921875 505.042969 279.921875 C 504.644531 279.921875 504.265625 279.78125 503.910156 279.5 C 503.507812 279.167969 503.214844 278.722656 503.035156 278.167969 C 502.714844 277.238281 502.558594 276.773438 502.558594 276.773438 C 502.378906 276.632812 502.160156 276.558594 501.898438 276.558594 C 501.855469 276.558594 501.8125 276.5625 501.765625 276.566406 C 501.152344 276.644531 500.871094 276.6875 500.925781 276.691406 C 500.804688 276.6875 500.683594 276.6875 500.566406 276.6875 C 500.089844 276.6875 499.65625 276.710938 499.269531 276.753906 C 498.753906 276.796875 498.402344 276.917969 498.207031 277.128906 C 498.011719 277.351562 497.917969 277.722656 497.917969 278.25 C 497.917969 279.027344 498.070312 279.792969 498.375 280.539062 C 499.289062 282.800781 500.753906 284.230469 502.765625 284.828125 C 503.511719 285.046875 504.253906 285.15625 504.984375 285.15625 C 506.007812 285.15625 507.015625 284.945312 508.007812 284.515625 C 508.730469 284.210938 509.375 283.78125 509.945312 283.226562 C 511.457031 281.753906 512.226562 279.957031 512.253906 277.835938 C 512.296875 275.921875 512.296875 273.582031 512.253906 270.824219 C 512.242188 269.492188 512.003906 268.234375 511.546875 267.054688 C 510.839844 265.210938 509.492188 264.191406 507.507812 263.996094 C 507.230469 263.972656 506.960938 263.960938 506.695312 263.960938 C 506.164062 263.960938 505.660156 264.007812 505.179688 264.101562 C 504.75 264.183594 504.472656 264.226562 504.347656 264.226562 C 504.320312 264.226562 504.292969 264.226562 504.265625 264.226562 C 503.785156 264.226562 503.488281 263.984375 503.367188 263.496094 C 503.214844 262.886719 503.207031 262.171875 503.347656 261.355469 C 503.445312 260.828125 503.597656 260.464844 503.804688 260.273438 C 504.011719 260.089844 504.382812 259.996094 504.910156 259.980469 C 504.878906 259.980469 506.386719 259.964844 509.425781 259.9375 C 510.171875 259.9375 510.671875 259.933594 510.921875 259.917969 C 511.546875 259.863281 511.871094 259.550781 511.898438 258.980469 C 511.941406 257.96875 511.941406 256.964844 511.898438 255.964844 C 511.871094 255.382812 511.566406 255.046875 510.984375 254.964844 C 510.804688 254.953125 510.582031 254.945312 510.320312 254.945312 C 507.542969 254.9375 505.320312 254.933594 503.644531 254.933594 Z M 511.992188 266.527344 C 512.238281 266.882812 512.4375 267.261719 512.585938 267.660156 C 513.058594 268.867188 513.300781 270.148438 513.316406 271.507812 C 513.34375 274.269531 513.34375 276.613281 513.316406 278.542969 C 513.273438 280.722656 512.476562 282.574219 510.921875 284.097656 C 510.339844 284.667969 509.667969 285.117188 508.902344 285.453125 C 507.890625 285.882812 506.851562 286.097656 505.78125 286.097656 C 505.117188 286.097656 504.441406 286 503.75 285.808594 C 503.996094 285.917969 504.171875 285.984375 504.285156 286.015625 C 505.046875 286.238281 505.796875 286.347656 506.539062 286.347656 C 507.554688 286.347656 508.550781 286.140625 509.527344 285.722656 C 510.261719 285.402344 510.910156 284.972656 511.464844 284.433594 C 512.976562 282.949219 513.753906 281.152344 513.792969 279.042969 C 513.820312 277.113281 513.820312 274.769531 513.792969 272.007812 C 513.78125 270.691406 513.539062 269.433594 513.066406 268.242188 C 512.804688 267.566406 512.449219 266.996094 511.996094 266.527344 Z M 506.140625 303.496094 C 505.851562 303.496094 505.574219 303.628906 505.3125 303.890625 C 504.816406 304.375 504.550781 304.957031 504.523438 305.636719 C 504.507812 305.984375 504.507812 306.519531 504.523438 307.238281 L 504.523438 308.195312 L 504.503906 308.195312 L 504.503906 308.613281 C 504.503906 309.28125 504.503906 309.777344 504.503906 310.113281 C 504.515625 310.597656 504.605469 311.035156 504.773438 311.421875 C 504.871094 311.492188 504.980469 311.539062 505.105469 311.570312 C 505.035156 311.25 504.996094 310.929688 504.980469 310.609375 L 504.980469 308.445312 C 504.980469 307.019531 504.988281 306.246094 505 306.136719 C 505.03125 305.386719 505.3125 304.742188 505.855469 304.203125 C 506.050781 304.019531 506.257812 303.898438 506.480469 303.828125 C 506.425781 303.703125 506.355469 303.597656 506.269531 303.515625 C 506.152344 303.5 506.109375 303.496094 506.140625 303.496094 Z M 505.332031 302.558594 C 505.59375 302.558594 505.863281 302.644531 506.144531 302.808594 C 506.5625 303.042969 506.855469 303.363281 507.019531 303.765625 C 507.199219 304.207031 507.296875 304.527344 507.3125 304.722656 C 507.507812 306.941406 507.476562 308.757812 507.230469 310.175781 C 507.171875 310.492188 507.082031 310.8125 506.957031 311.132812 C 506.722656 311.726562 506.25 312.046875 505.542969 312.089844 C 505.492188 312.089844 505.445312 312.09375 505.398438 312.09375 C 504.765625 312.09375 504.292969 311.835938 503.980469 311.320312 C 503.664062 310.792969 503.488281 310.160156 503.460938 309.425781 C 503.460938 309.328125 503.460938 308.605469 503.460938 307.261719 C 503.460938 305.816406 503.46875 305.046875 503.484375 304.949219 C 503.511719 304.203125 503.792969 303.554688 504.335938 303.015625 C 504.648438 302.710938 504.980469 302.558594 505.332031 302.558594 Z M 506.792969 317.167969 L 506.75 317.1875 C 506.015625 317.3125 505.371094 317.375 504.816406 317.375 C 504.675781 317.375 504.53125 317.367188 504.378906 317.355469 C 504.003906 317.324219 503.613281 317.265625 503.199219 317.167969 L 503.195312 317.167969 C 503.789062 317.417969 504.433594 317.5625 505.125 317.601562 C 505.253906 317.609375 505.386719 317.613281 505.523438 317.613281 C 505.933594 317.613281 506.375 317.582031 506.855469 317.519531 C 506.855469 317.507812 506.855469 317.472656 506.855469 317.417969 C 506.839844 317.359375 506.832031 317.320312 506.832031 317.292969 C 506.832031 317.261719 506.828125 317.222656 506.8125 317.167969 Z M 504.441406 321.101562 L 504.566406 321.453125 C 504.605469 321.578125 504.660156 321.730469 504.730469 321.910156 C 504.816406 321.964844 504.890625 322.015625 504.960938 322.058594 L 505.0625 322.097656 C 505.035156 321.988281 504.988281 321.847656 504.917969 321.683594 C 504.835938 321.421875 504.675781 321.226562 504.445312 321.101562 Z M 505.449219 297.324219 C 504.597656 297.324219 503.714844 297.480469 502.796875 297.792969 C 500.007812 298.75 498.558594 300.78125 498.445312 303.890625 C 498.445312 303.917969 498.441406 306.03125 498.425781 310.238281 C 498.425781 310.972656 498.566406 311.789062 498.84375 312.691406 C 499.5625 315.035156 501.152344 316.277344 503.609375 316.417969 C 503.746094 316.425781 503.886719 316.429688 504.035156 316.429688 C 504.582031 316.429688 505.210938 316.371094 505.917969 316.25 C 506.039062 316.230469 506.152344 316.21875 506.261719 316.21875 C 506.867188 316.21875 507.226562 316.554688 507.332031 317.230469 C 507.5 318.378906 507.492188 319.539062 507.3125 320.703125 C 507.214844 321.371094 506.875 321.925781 506.292969 322.367188 C 506.011719 322.578125 505.722656 322.683594 505.429688 322.683594 C 505.199219 322.683594 504.96875 322.621094 504.730469 322.492188 C 504.238281 322.246094 503.90625 321.898438 503.738281 321.445312 C 503.734375 321.445312 503.621094 321.128906 503.398438 320.496094 C 503.246094 320.050781 502.960938 319.824219 502.546875 319.808594 C 501.878906 319.796875 501.285156 319.789062 500.757812 319.789062 C 500.230469 319.789062 499.773438 319.796875 499.382812 319.808594 C 498.828125 319.835938 498.515625 320.164062 498.445312 320.789062 C 498.378906 321.621094 498.46875 322.390625 498.71875 323.097656 C 499.246094 324.59375 500.078125 325.753906 501.214844 326.574219 C 502.355469 327.378906 503.710938 327.78125 505.28125 327.78125 C 505.332031 327.78125 505.386719 327.78125 505.4375 327.78125 C 507.367188 327.738281 508.957031 327.101562 510.203125 325.863281 C 511.453125 324.617188 512.085938 323.042969 512.097656 321.140625 C 512.097656 320.933594 512.105469 318.101562 512.117188 312.652344 C 512.117188 307.851562 512.113281 305.019531 512.097656 304.160156 C 512.097656 303.273438 512.042969 302.660156 511.929688 302.328125 C 511.292969 300.304688 510.121094 298.867188 508.414062 298.019531 C 507.476562 297.554688 506.488281 297.324219 505.449219 297.324219 Z M 511.878906 300.703125 C 512.347656 301.375 512.710938 302.128906 512.972656 302.953125 C 513.082031 303.3125 513.144531 303.882812 513.160156 304.660156 L 513.160156 304.847656 C 513.160156 306.316406 513.160156 308.414062 513.160156 311.132812 C 513.160156 313.808594 513.160156 315.453125 513.160156 316.0625 C 513.171875 318.628906 513.171875 320.550781 513.160156 321.828125 C 513.132812 323.785156 512.464844 325.40625 511.160156 326.699219 C 509.871094 328 508.234375 328.675781 506.25 328.714844 L 506.042969 328.714844 C 505.339844 328.714844 504.65625 328.625 503.992188 328.449219 L 503.988281 328.449219 C 504.828125 328.792969 505.742188 328.96875 506.734375 328.96875 C 506.808594 328.96875 506.882812 328.96875 506.957031 328.964844 C 508.886719 328.925781 510.46875 328.285156 511.703125 327.050781 C 512.964844 325.800781 513.601562 324.226562 513.617188 322.328125 C 513.617188 322.132812 513.625 319.304688 513.636719 313.835938 C 513.636719 309.078125 513.632812 306.246094 513.617188 305.347656 C 513.617188 304.457031 513.5625 303.855469 513.449219 303.535156 C 513.121094 302.449219 512.597656 301.503906 511.882812 300.703125 Z M 511.878906 300.703125 " fill-opacity="1" fill-rule="nonzero"/><path fill="#6d5764" d="M 490.203125 287.785156 C 489.496094 287.804688 489.085938 287.976562 488.96875 288.296875 C 489.152344 288.246094 489.414062 288.214844 489.753906 288.203125 C 489.851562 288.207031 490.007812 288.207031 490.21875 288.210938 L 498.578125 288.328125 C 509.59375 288.488281 517.855469 288.605469 523.355469 288.683594 C 524.414062 288.699219 525.0625 288.828125 525.296875 289.074219 C 525.535156 289.328125 525.644531 290 525.628906 291.085938 L 525.625 291.300781 C 525.617188 291.765625 525.597656 292.160156 525.566406 292.484375 C 525.695312 292.359375 525.773438 292.175781 525.808594 291.9375 C 525.839844 291.597656 525.859375 291.097656 525.871094 290.433594 C 525.886719 289.417969 525.796875 288.8125 525.601562 288.609375 C 525.40625 288.398438 524.816406 288.28125 523.828125 288.269531 C 520.683594 288.222656 509.671875 288.066406 490.796875 287.796875 C 490.484375 287.789062 490.289062 287.789062 490.203125 287.785156 Z M 489.125 289.125 C 488.5625 289.144531 488.199219 289.234375 488.042969 289.386719 C 487.871094 289.539062 487.765625 289.882812 487.730469 290.417969 C 487.730469 290.558594 487.726562 290.90625 487.71875 291.457031 C 487.703125 292.5 487.777344 293.113281 487.945312 293.300781 C 488.125 293.484375 488.722656 293.585938 489.738281 293.601562 L 522.453125 294.070312 C 522.644531 294.070312 522.824219 294.074219 522.988281 294.074219 C 523.390625 294.074219 523.714844 294.066406 523.957031 294.046875 C 524.410156 294 524.660156 293.742188 524.707031 293.277344 C 524.753906 292.9375 524.785156 292.445312 524.792969 291.796875 C 524.792969 290.78125 524.695312 290.164062 524.503906 289.949219 C 524.308594 289.734375 523.714844 289.621094 522.730469 289.605469 C 519.0625 289.554688 508.058594 289.398438 489.71875 289.132812 C 489.40625 289.128906 489.210938 289.128906 489.125 289.125 Z M 489.125 289.125 " fill-opacity="1" fill-rule="nonzero"/></svg>