<svg xmlns="http://www.w3.org/2000/svg" xmlns:xlink="http://www.w3.org/1999/xlink" width="1000" zoomAndPan="magnify" viewBox="0 0 750 749.999995" height="1000" preserveAspectRatio="xMidYMid meet" version="1.0"><rect x="-75" width="900" fill="#ffffff" y="-74.999999" height="899.999994" fill-opacity="1"/><rect x="-75" width="900" fill="#ffffff" y="-74.999999" height="899.999994" fill-opacity="1"/><path fill="#000000" d="M 197.550781 332.011719 L 195.128906 332.941406 C 193.394531 333.5625 190.910156 334.179688 187.6875 334.800781 C 184.460938 335.421875 180.863281 335.855469 176.890625 336.105469 L 173.355469 336.105469 L 173.355469 327.542969 L 176.890625 327.542969 C 182.722656 327.296875 188.121094 326.363281 193.082031 324.75 C 198.046875 323.140625 201.519531 321.648438 203.503906 320.285156 C 205.488281 318.921875 207.226562 317.554688 208.714844 316.191406 C 208.964844 315.820312 209.707031 315.632812 210.949219 315.632812 C 212.066406 315.632812 213.121094 316.003906 214.113281 316.75 L 214.113281 372.394531 L 214.300781 428.226562 C 215.167969 429.09375 215.910156 429.652344 216.53125 429.902344 C 217.152344 430.148438 218.640625 430.398438 221 430.644531 C 223.355469 430.894531 227.203125 431.015625 232.539062 431.015625 L 237.375 431.015625 L 237.375 439.578125 L 235.328125 439.578125 C 232.722656 439.207031 222.859375 439.019531 205.738281 439.019531 C 188.863281 439.019531 179.125 439.207031 176.519531 439.578125 L 174.285156 439.578125 L 174.285156 431.015625 L 179.125 431.015625 C 181.855469 431.015625 184.210938 431.015625 186.195312 431.015625 C 188.183594 431.015625 189.734375 430.957031 190.851562 430.832031 C 191.964844 430.707031 192.960938 430.519531 193.828125 430.273438 C 194.695312 430.023438 195.191406 429.902344 195.316406 429.902344 C 195.441406 429.902344 195.8125 429.589844 196.433594 428.96875 C 197.054688 428.351562 197.425781 428.101562 197.550781 428.226562 Z M 197.550781 332.011719 " fill-opacity="1" fill-rule="nonzero"/><path fill="#000000" d="M 268.828125 330.707031 C 275.777344 320.65625 285.265625 315.632812 297.300781 315.632812 C 303.257812 315.632812 309.210938 317.246094 315.167969 320.472656 C 321.121094 323.699219 325.960938 329.40625 329.683594 337.59375 C 334.273438 347.890625 336.570312 362.035156 336.570312 380.023438 C 336.570312 399.253906 333.902344 413.957031 328.566406 424.132812 C 326.085938 429.34375 322.671875 433.5 318.332031 436.601562 C 313.988281 439.703125 310.203125 441.625 306.980469 442.371094 C 303.753906 443.113281 300.589844 443.546875 297.488281 443.671875 C 294.261719 443.671875 291.035156 443.300781 287.808594 442.554688 C 284.585938 441.8125 280.800781 439.828125 276.457031 436.601562 C 272.117188 433.375 268.703125 429.21875 266.222656 424.132812 C 260.886719 413.957031 258.21875 399.253906 258.21875 380.023438 C 258.21875 358.4375 261.753906 341.996094 268.828125 330.707031 Z M 310.699219 328.472656 C 306.980469 324.503906 302.574219 322.519531 297.488281 322.519531 C 292.277344 322.519531 287.808594 324.503906 284.089844 328.472656 C 280.988281 331.699219 278.9375 336.167969 277.945312 341.875 C 276.953125 347.582031 276.457031 359.492188 276.457031 377.605469 C 276.457031 397.207031 276.953125 410.113281 277.945312 416.316406 C 278.9375 422.519531 281.171875 427.417969 284.644531 431.015625 C 288.121094 434.738281 292.402344 436.601562 297.488281 436.601562 C 302.449219 436.601562 306.667969 434.738281 310.144531 431.015625 C 313.742188 427.296875 315.972656 422.085938 316.84375 415.382812 C 317.710938 408.683594 318.207031 396.09375 318.332031 377.605469 C 318.332031 359.617188 317.835938 347.765625 316.84375 342.058594 C 315.851562 336.351562 313.800781 331.824219 310.699219 328.472656 Z M 310.699219 328.472656 " fill-opacity="1" fill-rule="nonzero"/><path fill="#000000" d="M 361.878906 330.707031 C 368.828125 320.65625 378.320312 315.632812 390.355469 315.632812 C 396.308594 315.632812 402.265625 317.246094 408.21875 320.472656 C 414.175781 323.699219 419.011719 329.40625 422.734375 337.59375 C 427.328125 347.890625 429.621094 362.035156 429.621094 380.023438 C 429.621094 399.253906 426.953125 413.957031 421.617188 424.132812 C 419.136719 429.34375 415.726562 433.5 411.382812 436.601562 C 407.039062 439.703125 403.257812 441.625 400.03125 442.371094 C 396.804688 443.113281 393.640625 443.546875 390.539062 443.671875 C 387.3125 443.671875 384.089844 443.300781 380.863281 442.554688 C 377.636719 441.8125 373.851562 439.828125 369.511719 436.601562 C 365.167969 433.375 361.753906 429.21875 359.273438 424.132812 C 353.9375 413.957031 351.273438 399.253906 351.273438 380.023438 C 351.273438 358.4375 354.808594 341.996094 361.878906 330.707031 Z M 403.753906 328.472656 C 400.03125 324.503906 395.625 322.519531 390.539062 322.519531 C 385.328125 322.519531 380.863281 324.503906 377.140625 328.472656 C 374.039062 331.699219 371.992188 336.167969 371 341.875 C 370.007812 347.582031 369.511719 359.492188 369.511719 377.605469 C 369.511719 397.207031 370.007812 410.113281 371 416.316406 C 371.992188 422.519531 374.222656 427.417969 377.699219 431.015625 C 381.171875 434.738281 385.453125 436.601562 390.539062 436.601562 C 395.503906 436.601562 399.722656 434.738281 403.195312 431.015625 C 406.792969 427.296875 409.027344 422.085938 409.894531 415.382812 C 410.761719 408.683594 411.257812 396.09375 411.382812 377.605469 C 411.382812 359.617188 410.886719 347.765625 409.894531 342.058594 C 408.902344 336.351562 406.855469 331.824219 403.753906 328.472656 Z M 403.753906 328.472656 " fill-opacity="1" fill-rule="nonzero"/><path fill="#000000" d="M 523.605469 326.984375 C 519.011719 326.984375 514.609375 326.425781 510.390625 325.308594 C 506.171875 324.195312 502.824219 323.078125 500.339844 321.960938 C 497.859375 320.84375 496.558594 320.285156 496.433594 320.285156 C 498.046875 324.378906 498.851562 330.148438 498.851562 337.59375 C 498.851562 348.757812 496.433594 357.753906 491.59375 364.578125 C 486.753906 371.402344 481.109375 374.875 474.660156 375 C 467.585938 375 461.320312 371.589844 455.863281 364.765625 C 450.402344 357.941406 447.613281 348.882812 447.488281 337.59375 C 447.488281 326.550781 450.277344 317.554688 455.863281 310.609375 C 461.445312 303.660156 467.710938 300.125 474.660156 300 C 479.496094 300 483.839844 301.921875 487.6875 305.769531 C 498.480469 315.324219 510.390625 320.097656 523.417969 320.097656 C 537.808594 320.097656 549.347656 314.515625 558.035156 303.351562 C 559.523438 301.363281 560.640625 300.308594 561.382812 300.1875 C 561.632812 300.0625 561.941406 300 562.3125 300 C 563.429688 300 564.359375 300.433594 565.105469 301.304688 C 565.851562 302.171875 566.160156 303.226562 566.035156 304.464844 C 502.140625 400.371094 469.695312 448.636719 468.703125 449.253906 C 468.207031 449.75 467.585938 450 466.84375 450 C 465.230469 450 464.113281 449.316406 463.492188 447.953125 C 462.871094 446.835938 462.871094 445.71875 463.492188 444.601562 C 463.617188 444.230469 477.328125 423.699219 504.621094 383.003906 C 517.773438 363.398438 527.824219 348.386719 534.769531 337.964844 C 541.71875 327.542969 545.191406 322.332031 545.191406 322.332031 C 538.617188 325.433594 531.421875 326.984375 523.605469 326.984375 Z M 475.589844 367.929688 C 479.0625 367.929688 482.539062 365.324219 486.011719 360.113281 C 489.484375 354.902344 491.285156 347.394531 491.40625 337.59375 C 491.40625 329.03125 489.855469 321.835938 486.753906 316.003906 C 483.652344 310.171875 479.496094 307.195312 474.285156 307.070312 C 473.417969 307.070312 472.550781 307.257812 471.679688 307.628906 C 470.8125 308.003906 469.632812 308.683594 468.144531 309.675781 C 466.65625 310.671875 465.414062 312.53125 464.421875 315.261719 C 463.429688 317.988281 462.625 321.277344 462.003906 325.125 C 461.753906 327.605469 461.632812 331.761719 461.632812 337.59375 L 461.632812 341.5 C 461.632812 352.792969 463.679688 360.484375 467.773438 364.578125 C 470.007812 366.8125 472.363281 367.929688 474.84375 367.929688 Z M 530.117188 412.40625 C 530.117188 401.488281 532.847656 392.554688 538.304688 385.609375 C 543.765625 378.660156 550.15625 375.125 557.476562 375 C 563.925781 375 569.511719 378.410156 574.222656 385.234375 C 578.9375 392.058594 581.359375 401.117188 581.484375 412.40625 C 581.605469 423.699219 579.1875 432.753906 574.222656 439.578125 C 569.261719 446.402344 563.617188 449.875 557.289062 450 C 550.339844 450 544.074219 446.527344 538.492188 439.578125 C 532.910156 432.628906 530.117188 423.574219 530.117188 412.40625 Z M 558.21875 442.929688 C 561.695312 442.929688 565.167969 440.324219 568.640625 435.113281 C 572.117188 429.902344 573.914062 422.332031 574.039062 412.40625 C 574.039062 403.847656 572.488281 396.648438 569.386719 390.820312 C 566.285156 384.988281 562.128906 382.070312 556.917969 382.070312 C 556.046875 382.070312 555.179688 382.257812 554.3125 382.628906 C 553.441406 383.003906 552.265625 383.683594 550.777344 384.675781 C 549.285156 385.671875 548.046875 387.53125 547.054688 390.261719 C 546.0625 392.988281 545.253906 396.277344 544.632812 400.125 C 544.511719 401.613281 544.449219 405.707031 544.449219 412.40625 L 544.449219 416.5 C 544.449219 434.117188 548.789062 442.929688 557.476562 442.929688 Z M 558.21875 442.929688 " fill-opacity="1" fill-rule="nonzero"/></svg>