<svg xmlns="http://www.w3.org/2000/svg" xmlns:xlink="http://www.w3.org/1999/xlink" width="1000" zoomAndPan="magnify" viewBox="0 0 750 749.999995" height="1000" preserveAspectRatio="xMidYMid meet" version="1.0"><defs><clipPath id="14f708a503"><path d="M 161 187 L 596.546875 187 L 596.546875 623 L 161 623 Z M 161 187 " clip-rule="nonzero"/></clipPath></defs><rect x="-75" width="900" fill="#ffffff" y="-74.999999" height="899.999994" fill-opacity="1"/><rect x="-75" width="900" fill="#ffffff" y="-74.999999" height="899.999994" fill-opacity="1"/><path fill="#6d5764" d="M 590.085938 404.695312 C 593.40625 522.824219 495.332031 635.238281 329.894531 611.074219 C 237.460938 597.570312 173.972656 494.664062 164.875 401.511719 C 153.347656 283.472656 315.789062 112.488281 511.367188 238.339844 Z M 590.085938 404.695312 " fill-opacity="1" fill-rule="nonzero"/><path fill="#6d5764" d="M 384.125 403.0625 L 384.125 403.066406 C 313.988281 436.433594 225.382812 475.941406 188.117188 495.011719 C 174.039062 502.214844 247.164062 595.097656 334.183594 610.519531 C 344.160156 612.289062 424.957031 637.488281 516.425781 568.066406 C 580.324219 519.570312 594.011719 449.785156 593.019531 400.304688 C 591.078125 303.378906 510.519531 239.746094 510.519531 239.746094 Z M 384.125 403.0625 " fill-opacity="1" fill-rule="nonzero"/><path fill="#00010d" d="M 383.054688 400.160156 L 588.386719 399.484375 C 590.675781 399.476562 592.539062 401.324219 592.546875 403.613281 C 592.554688 405.902344 590.703125 407.761719 588.414062 407.769531 L 383.082031 408.449219 C 380.792969 408.457031 378.933594 406.605469 378.925781 404.316406 C 378.917969 402.03125 380.765625 400.167969 383.054688 400.160156 Z M 383.054688 400.160156 " fill-opacity="1" fill-rule="nonzero"/><path fill="#00010d" d="M 379.011719 399.386719 L 506.613281 237.269531 C 508.027344 235.472656 510.632812 235.160156 512.429688 236.578125 C 514.230469 237.992188 514.539062 240.597656 513.125 242.394531 L 385.523438 404.511719 C 384.109375 406.3125 381.503906 406.621094 379.707031 405.207031 C 377.90625 403.792969 377.597656 401.1875 379.011719 399.386719 Z M 379.011719 399.386719 " fill-opacity="1" fill-rule="nonzero"/><path fill="#00010d" d="M 340.96875 196.996094 L 385.484375 400.738281 C 385.972656 402.976562 384.554688 405.183594 382.320312 405.671875 C 380.085938 406.160156 377.875 404.746094 377.386719 402.507812 L 332.871094 198.765625 C 332.382812 196.53125 333.796875 194.324219 336.035156 193.835938 C 338.269531 193.34375 340.480469 194.761719 340.96875 196.996094 Z M 340.96875 196.996094 " fill-opacity="1" fill-rule="nonzero"/><path fill="#00010d" d="M 195.589844 305.535156 L 379.730469 399.261719 C 381.773438 400.300781 382.582031 402.792969 381.546875 404.835938 C 380.507812 406.875 378.011719 407.683594 375.972656 406.648438 L 191.832031 312.917969 C 189.792969 311.882812 188.980469 309.386719 190.019531 307.347656 C 191.058594 305.308594 193.550781 304.496094 195.589844 305.535156 Z M 195.589844 305.535156 " fill-opacity="1" fill-rule="nonzero"/><path fill="#00010d" d="M 188.191406 490.425781 L 377.269531 402.046875 C 379.34375 401.078125 381.808594 401.972656 382.777344 404.046875 C 383.746094 406.117188 382.851562 408.585938 380.777344 409.554688 L 191.699219 497.933594 C 189.625 498.902344 187.160156 498.007812 186.191406 495.933594 C 185.222656 493.863281 186.117188 491.394531 188.191406 490.425781 Z M 188.191406 490.425781 " fill-opacity="1" fill-rule="nonzero"/><path fill="#00010d" d="M 328.355469 607.351562 L 376.296875 406.746094 C 376.832031 404.523438 379.066406 403.148438 381.292969 403.679688 C 383.519531 404.210938 384.890625 406.449219 384.359375 408.675781 L 336.417969 609.277344 C 335.882812 611.503906 333.648438 612.878906 331.421875 612.347656 C 329.195312 611.8125 327.824219 609.578125 328.355469 607.351562 Z M 328.355469 607.351562 " fill-opacity="1" fill-rule="nonzero"/><path fill="#00010d" d="M 385.242188 403.328125 L 514.734375 564.945312 C 516.164062 566.730469 515.875 569.339844 514.089844 570.769531 C 512.304688 572.203125 509.695312 571.914062 508.265625 570.128906 L 378.773438 408.507812 C 377.339844 406.722656 377.628906 404.117188 379.414062 402.683594 C 381.203125 401.253906 383.808594 401.542969 385.242188 403.328125 Z M 385.242188 403.328125 " fill-opacity="1" fill-rule="nonzero"/><g clip-path="url(#14f708a503)"><path fill="#00010d" d="M 596.644531 404.9375 C 596.644531 525.046875 499.277344 622.414062 379.167969 622.414062 C 259.058594 622.414062 161.6875 525.046875 161.6875 404.9375 C 161.6875 284.828125 259.058594 187.457031 379.167969 187.457031 C 499.277344 187.457031 596.644531 284.828125 596.644531 404.9375 M 587.046875 404.9375 C 587.046875 290.128906 493.976562 197.054688 379.167969 197.054688 C 264.359375 197.054688 171.285156 290.128906 171.285156 404.9375 C 171.285156 519.746094 264.359375 612.816406 379.167969 612.816406 C 493.976562 612.816406 587.046875 519.746094 587.046875 404.9375 Z M 587.046875 404.9375 " fill-opacity="1" fill-rule="nonzero"/></g><path fill="#6d5764" d="M 510.902344 305.683594 C 510.398438 306.933594 509.996094 307.949219 509.695312 308.734375 C 510.136719 308.671875 510.429688 308.472656 510.570312 308.128906 C 510.789062 307.605469 510.902344 306.800781 510.902344 305.714844 Z M 519.804688 284.683594 C 519.882812 284.902344 519.925781 285.054688 519.925781 285.132812 C 519.964844 285.535156 519.984375 286.140625 519.984375 286.945312 L 519.984375 299.195312 C 519.984375 302.355469 519.996094 304.730469 520.015625 306.320312 C 520.015625 307.0625 520.085938 307.867188 520.226562 308.734375 L 520.378906 308.734375 C 520.398438 308.734375 520.539062 308.742188 520.800781 308.761719 C 520.738281 308.121094 520.707031 307.546875 520.707031 307.042969 C 520.6875 306.078125 520.679688 302.839844 520.679688 297.324219 C 520.679688 292.417969 520.679688 289.257812 520.679688 287.847656 C 520.679688 286.945312 520.660156 286.300781 520.617188 285.917969 C 520.539062 285.277344 520.269531 284.863281 519.808594 284.683594 Z M 510.558594 303.085938 C 510.582031 303.085938 510.605469 303.089844 510.628906 303.089844 C 510.890625 303.109375 511.082031 303.230469 511.203125 303.453125 C 511.445312 303.894531 511.585938 304.648438 511.625 305.714844 C 511.625 306.882812 511.503906 307.777344 511.261719 308.402344 C 511.042969 308.925781 510.628906 309.265625 510.027344 309.425781 C 509.855469 309.46875 509.691406 309.488281 509.535156 309.488281 C 509.128906 309.488281 508.757812 309.355469 508.425781 309.09375 C 508.023438 308.773438 507.921875 308.339844 508.125 307.796875 C 508.386719 307.074219 508.917969 305.726562 509.722656 303.753906 C 509.742188 303.714844 509.835938 303.582031 509.996094 303.363281 C 510.140625 303.179688 510.328125 303.085938 510.558594 303.085938 Z M 502.691406 318.121094 C 502.933594 318.339844 503.335938 318.460938 503.898438 318.480469 C 503.65625 318.480469 505.519531 318.5 509.480469 318.542969 C 510.085938 318.542969 510.507812 318.550781 510.75 318.570312 C 510.730469 318.449219 510.6875 318.339844 510.628906 318.238281 C 510.226562 318.199219 509.652344 318.179688 508.910156 318.179688 L 506.464844 318.179688 C 504.855469 318.179688 503.648438 318.160156 502.84375 318.121094 Z M 513.042969 282.777344 C 511.910156 282.777344 511.132812 283.332031 510.71875 284.4375 C 510.558594 284.820312 509.742188 286.761719 508.273438 290.261719 C 504.152344 300.101562 501.847656 305.542969 501.363281 306.589844 C 500.316406 308.882812 499.875 311.722656 500.035156 315.101562 C 500.078125 315.703125 500.21875 316.128906 500.457031 316.367188 C 500.679688 316.609375 501.09375 316.742188 501.695312 316.761719 C 501.625 316.757812 501.6875 316.753906 501.886719 316.753906 C 502.480469 316.753906 504.277344 316.777344 507.277344 316.820312 C 508.527344 316.820312 509.332031 316.851562 509.695312 316.910156 C 510.78125 317.054688 511.402344 317.6875 511.566406 318.8125 C 511.605469 319.09375 511.625 319.738281 511.625 320.746094 C 511.660156 323.039062 511.671875 324.1875 511.660156 324.1875 L 511.65625 324.1875 C 511.699219 324.894531 511.851562 325.367188 512.109375 325.605469 C 512.371094 325.84375 512.871094 325.984375 513.617188 326.027344 C 514.050781 326.042969 514.480469 326.050781 514.90625 326.050781 C 515.542969 326.050781 516.171875 326.03125 516.785156 325.996094 C 517.367188 325.957031 517.78125 325.816406 518.023438 325.574219 C 518.265625 325.332031 518.394531 324.917969 518.414062 324.335938 C 518.457031 323.792969 518.476562 323.019531 518.476562 322.011719 C 518.476562 320.945312 518.476562 320.179688 518.476562 319.71875 C 518.515625 318.671875 518.6875 317.976562 518.988281 317.636719 C 519.269531 317.292969 519.925781 317.023438 520.949219 316.820312 C 521.011719 316.800781 521.089844 316.792969 521.191406 316.792969 C 521.292969 316.769531 521.371094 316.761719 521.433594 316.761719 C 521.917969 316.660156 522.25 316.507812 522.429688 316.308594 C 522.609375 316.105469 522.722656 315.765625 522.761719 315.28125 C 522.78125 314.921875 522.800781 313.953125 522.820312 312.386719 C 522.820312 311.21875 522.710938 310.472656 522.488281 310.152344 C 522.1875 309.6875 521.484375 309.457031 520.378906 309.457031 C 519.429688 309.457031 518.878906 308.953125 518.71875 307.949219 C 518.578125 307.042969 518.496094 306.167969 518.476562 305.324219 C 518.476562 304.398438 518.476562 301.160156 518.476562 295.605469 L 518.476562 286.128906 C 518.476562 285.203125 518.457031 284.558594 518.414062 284.199219 C 518.316406 283.332031 517.832031 282.878906 516.964844 282.839844 C 516.484375 282.800781 515.839844 282.777344 515.035156 282.777344 L 513.105469 282.777344 C 513.082031 282.777344 513.0625 282.777344 513.042969 282.777344 Z M 524.179688 311.453125 C 524.300781 311.855469 524.351562 312.496094 524.332031 313.382812 L 524.332031 314.046875 C 524.332031 315.050781 524.308594 315.804688 524.269531 316.308594 C 524.210938 317.292969 523.675781 317.898438 522.671875 318.121094 C 522.609375 318.140625 522.507812 318.148438 522.367188 318.148438 C 522.289062 318.148438 522.226562 318.160156 522.1875 318.179688 C 521.242188 318.359375 520.648438 318.59375 520.40625 318.875 C 520.1875 319.15625 520.054688 319.777344 520.015625 320.746094 C 519.996094 321.1875 519.984375 321.890625 519.984375 322.855469 C 519.984375 323.964844 519.972656 324.800781 519.953125 325.363281 C 519.894531 326.609375 519.230469 327.273438 517.960938 327.355469 C 517.378906 327.394531 516.796875 327.414062 516.210938 327.414062 C 515.730469 327.414062 515.246094 327.40625 514.761719 327.382812 C 514.664062 327.382812 514.523438 327.375 514.34375 327.355469 L 514.339844 327.355469 C 514.601562 327.574219 515.105469 327.707031 515.851562 327.746094 C 516.285156 327.761719 516.710938 327.769531 517.132812 327.769531 C 517.765625 327.769531 518.386719 327.753906 518.988281 327.714844 C 519.59375 327.695312 520.003906 327.566406 520.226562 327.324219 C 520.46875 327.082031 520.609375 326.660156 520.648438 326.054688 C 520.667969 325.511719 520.679688 324.75 520.679688 323.761719 C 520.679688 322.695312 520.6875 321.921875 520.707031 321.4375 C 520.75 320.394531 520.910156 319.699219 521.191406 319.355469 C 521.492188 319.015625 522.148438 318.742188 523.152344 318.542969 C 523.214844 318.542969 523.292969 318.53125 523.394531 318.511719 C 523.515625 318.511719 523.597656 318.5 523.636719 318.480469 C 524.121094 318.378906 524.453125 318.230469 524.632812 318.027344 C 524.8125 317.828125 524.925781 317.496094 524.964844 317.03125 C 525.003906 316.652344 525.023438 315.675781 525.023438 314.105469 C 525.042969 312.621094 524.765625 311.734375 524.183594 311.453125 Z M 504.398438 353.398438 C 504.617188 353.621094 505.042969 353.75 505.664062 353.792969 C 505.886719 353.8125 506.367188 353.820312 507.113281 353.820312 L 513.300781 353.820312 C 513.300781 353.800781 513.308594 353.769531 513.332031 353.730469 C 513.332031 353.691406 513.332031 353.660156 513.332031 353.640625 C 513.332031 353.640625 513.332031 353.601562 513.332031 353.519531 C 512.949219 353.480469 512.546875 353.460938 512.121094 353.460938 L 505.574219 353.460938 C 505.171875 353.460938 504.839844 353.449219 504.578125 353.429688 L 504.402344 353.398438 Z M 505.753906 344.859375 C 504.488281 344.859375 503.671875 344.867188 503.3125 344.886719 C 502.324219 344.96875 501.8125 345.460938 501.769531 346.367188 C 501.710938 347.753906 501.710938 349.125 501.769531 350.472656 C 501.792969 351.054688 501.921875 351.457031 502.164062 351.679688 C 502.40625 351.898438 502.835938 352.03125 503.460938 352.070312 C 503.683594 352.089844 504.164062 352.101562 504.910156 352.101562 L 510.945312 352.101562 C 511.789062 352.101562 512.433594 352.140625 512.878906 352.222656 C 513.804688 352.34375 514.195312 352.84375 514.054688 353.730469 C 513.992188 354.152344 513.832031 354.867188 513.570312 355.875 C 512.6875 359.414062 511.5 364.183594 510.011719 370.179688 C 508.238281 377.242188 507.054688 382.007812 506.449219 384.484375 C 506.1875 385.488281 506.027344 386.195312 505.964844 386.597656 C 505.824219 387.402344 506.167969 387.824219 506.992188 387.863281 C 507.835938 387.902344 508.882812 387.925781 510.132812 387.925781 C 511.398438 387.902344 512.191406 387.773438 512.515625 387.53125 C 512.835938 387.269531 513.148438 386.546875 513.449219 385.359375 C 516.449219 373.367188 519.023438 363.046875 521.175781 354.394531 C 521.480469 353.167969 521.578125 350.441406 521.480469 346.214844 C 521.457031 345.472656 521.046875 345.050781 520.242188 344.949219 C 519.839844 344.886719 519.277344 344.859375 518.550781 344.859375 Z M 522.898438 346.789062 C 522.957031 346.992188 522.988281 347.121094 522.988281 347.183594 C 522.988281 347.585938 523.007812 348.117188 523.046875 348.78125 C 523.167969 351.757812 523.046875 353.992188 522.6875 355.480469 C 520.574219 364.03125 517.996094 374.351562 514.960938 386.445312 C 514.636719 387.710938 514.285156 388.496094 513.902344 388.800781 C 513.5 389.101562 512.636719 389.261719 511.308594 389.28125 L 510.34375 389.28125 C 509.679688 389.28125 508.996094 389.261719 508.292969 389.222656 L 508.289062 389.222656 C 508.472656 389.441406 508.773438 389.5625 509.195312 389.582031 C 509.828125 389.628906 510.578125 389.652344 511.4375 389.652344 C 511.722656 389.652344 512.023438 389.648438 512.335938 389.644531 C 513.601562 389.625 514.394531 389.492188 514.71875 389.25 C 515.039062 388.992188 515.351562 388.265625 515.652344 387.078125 C 518.589844 375.390625 521.167969 365.066406 523.378906 356.113281 C 523.679688 354.886719 523.773438 352.160156 523.652344 347.9375 C 523.652344 347.355469 523.402344 346.972656 522.902344 346.789062 Z M 522.898438 346.789062 " fill-opacity="1" fill-rule="nonzero"/><path fill="#6d5764" d="M 489.085938 330.449219 C 488.0625 330.488281 487.46875 330.738281 487.300781 331.210938 C 487.570312 331.128906 487.949219 331.078125 488.4375 331.0625 C 488.582031 331.0625 488.808594 331.0625 489.113281 331.0625 L 501.238281 331.113281 C 517.214844 331.183594 529.195312 331.230469 537.175781 331.265625 C 538.710938 331.273438 539.652344 331.449219 539.996094 331.800781 C 540.34375 332.167969 540.511719 333.140625 540.507812 334.71875 L 540.503906 335.023438 C 540.503906 335.699219 540.480469 336.273438 540.4375 336.742188 C 540.621094 336.558594 540.734375 336.292969 540.777344 335.945312 C 540.820312 335.453125 540.84375 334.730469 540.847656 333.765625 C 540.855469 332.292969 540.714844 331.414062 540.429688 331.125 C 540.144531 330.816406 539.285156 330.660156 537.851562 330.65625 C 533.289062 330.636719 517.320312 330.570312 489.945312 330.453125 C 489.496094 330.453125 489.207031 330.449219 489.085938 330.449219 Z M 487.542969 332.40625 C 486.722656 332.445312 486.203125 332.578125 485.976562 332.800781 C 485.730469 333.023438 485.585938 333.523438 485.539062 334.300781 C 485.539062 334.507812 485.539062 335.007812 485.535156 335.804688 C 485.527344 337.320312 485.648438 338.210938 485.890625 338.476562 C 486.15625 338.746094 487.023438 338.882812 488.496094 338.886719 L 535.945312 339.085938 C 536.035156 339.085938 536.125 339.085938 536.210938 339.085938 C 537.042969 339.085938 537.679688 339.070312 538.125 339.035156 C 538.78125 338.957031 539.140625 338.578125 539.203125 337.902344 C 539.269531 337.414062 539.300781 336.695312 539.304688 335.753906 C 539.289062 334.28125 539.140625 333.390625 538.855469 333.082031 C 538.570312 332.773438 537.710938 332.617188 536.28125 332.613281 C 530.960938 332.589844 515 332.523438 488.402344 332.410156 C 487.953125 332.410156 487.664062 332.410156 487.542969 332.40625 Z M 487.542969 332.40625 " fill-opacity="1" fill-rule="nonzero"/></svg>