<svg xmlns="http://www.w3.org/2000/svg" xmlns:xlink="http://www.w3.org/1999/xlink" width="1000" zoomAndPan="magnify" viewBox="0 0 750 749.999995" height="1000" preserveAspectRatio="xMidYMid meet" version="1.0"><defs><clipPath id="d426901b56"><path d="M 501 309.375 L 620 309.375 L 620 440.625 L 501 440.625 Z M 501 309.375 " clip-rule="nonzero"/></clipPath></defs><rect x="-75" width="900" fill="#ffffff" y="-74.999999" height="899.999994" fill-opacity="1"/><rect x="-75" width="900" fill="#ffffff" y="-74.999999" height="899.999994" fill-opacity="1"/><path fill="#000000" d="M 142.382812 356.109375 C 139.449219 356.109375 137.171875 355.1875 135.542969 353.34375 C 133.914062 351.496094 133.046875 349.109375 132.9375 346.175781 C 132.9375 340.207031 135.542969 334.886719 140.753906 330.21875 C 145.964844 325.550781 152.261719 323.214844 159.640625 323.214844 C 163.441406 323.214844 165.832031 323.269531 166.808594 323.378906 C 174.839844 324.683594 180.976562 327.558594 185.207031 332.011719 C 189.441406 336.460938 191.613281 341.292969 191.722656 346.503906 C 191.722656 352.148438 189.875 357.628906 186.1875 362.949219 C 182.496094 368.269531 177.390625 372.125 170.878906 374.511719 L 170.390625 374.835938 C 170.390625 374.945312 170.878906 375.109375 171.855469 375.324219 C 172.832031 375.542969 174.40625 376.03125 176.578125 376.792969 C 178.75 377.550781 180.8125 378.691406 182.765625 380.210938 C 191.667969 385.964844 196.117188 393.5625 196.117188 403.007812 C 196.117188 411.585938 192.753906 419.074219 186.023438 425.480469 C 179.292969 431.886719 170.769531 435.089844 160.457031 435.089844 C 151.773438 435.089844 144.28125 432.753906 137.984375 428.085938 C 131.6875 423.417969 128.539062 417.5 128.539062 410.335938 C 128.539062 407.296875 129.515625 404.855469 131.472656 403.007812 C 133.425781 401.164062 135.867188 400.1875 138.800781 400.078125 C 141.839844 400.078125 144.335938 401.054688 146.289062 403.007812 C 148.242188 404.960938 149.21875 407.40625 149.21875 410.335938 C 149.21875 411.53125 149.058594 412.617188 148.730469 413.59375 C 148.40625 414.570312 148.027344 415.4375 147.59375 416.199219 C 147.15625 416.957031 146.5625 417.609375 145.800781 418.152344 C 145.042969 418.695312 144.390625 419.128906 143.847656 419.457031 C 143.304688 419.78125 142.761719 420 142.21875 420.105469 C 141.675781 420.214844 141.242188 420.378906 140.914062 420.59375 L 140.265625 420.757812 C 145.800781 425.644531 152.53125 428.085938 160.457031 428.085938 C 166.425781 428.085938 170.933594 425.210938 173.972656 419.457031 C 175.816406 415.875 176.742188 410.390625 176.742188 403.007812 L 176.742188 399.75 C 176.742188 389.4375 173.265625 382.546875 166.320312 379.070312 C 164.691406 378.417969 161.378906 378.039062 156.386719 377.929688 L 149.546875 377.769531 L 149.058594 377.441406 C 148.839844 377.117188 148.730469 376.25 148.730469 374.835938 C 148.730469 372.882812 149.167969 371.90625 150.035156 371.90625 C 153.074219 371.90625 156.222656 371.632812 159.480469 371.09375 C 163.171875 370.550781 166.535156 368.269531 169.574219 364.253906 C 172.617188 360.234375 174.136719 354.15625 174.136719 346.015625 L 174.136719 344.710938 C 174.136719 338.523438 172.234375 334.234375 168.4375 331.847656 C 166.046875 330.328125 163.496094 329.566406 160.78125 329.566406 C 157.308594 329.566406 154.105469 330.164062 151.175781 331.359375 C 148.242188 332.550781 146.179688 333.800781 144.988281 335.105469 C 143.792969 336.40625 143.195312 337.058594 143.195312 337.058594 L 143.683594 337.058594 C 144.011719 337.167969 144.445312 337.273438 144.988281 337.382812 C 145.53125 337.492188 146.074219 337.761719 146.613281 338.199219 C 147.15625 338.632812 147.808594 339.011719 148.570312 339.335938 C 149.328125 339.664062 149.871094 340.261719 150.199219 341.128906 C 150.523438 341.996094 150.957031 342.8125 151.5 343.570312 C 152.042969 344.332031 152.207031 345.417969 151.988281 346.828125 C 151.988281 349.21875 151.230469 351.332031 149.710938 353.179688 C 148.1875 355.023438 145.746094 356 142.382812 356.109375 Z M 142.382812 356.109375 " fill-opacity="1" fill-rule="nonzero"/><path fill="#000000" d="M 223.800781 356.109375 C 220.871094 356.109375 218.589844 355.1875 216.960938 353.34375 C 215.335938 351.496094 214.464844 349.109375 214.355469 346.175781 C 214.355469 340.207031 216.960938 334.886719 222.171875 330.21875 C 227.382812 325.550781 233.679688 323.214844 241.0625 323.214844 C 244.863281 323.214844 247.25 323.269531 248.226562 323.378906 C 256.261719 324.683594 262.394531 327.558594 266.628906 332.011719 C 270.863281 336.460938 273.035156 341.292969 273.144531 346.503906 C 273.144531 352.148438 271.296875 357.628906 267.605469 362.949219 C 263.914062 368.269531 258.8125 372.125 252.300781 374.511719 L 251.8125 374.835938 C 251.8125 374.945312 252.300781 375.109375 253.277344 375.324219 C 254.253906 375.542969 255.828125 376.03125 258 376.792969 C 260.167969 377.550781 262.234375 378.691406 264.1875 380.210938 C 273.089844 385.964844 277.539062 393.5625 277.539062 403.007812 C 277.539062 411.585938 274.175781 419.074219 267.445312 425.480469 C 260.710938 431.886719 252.191406 435.089844 241.878906 435.089844 C 233.191406 435.089844 225.703125 432.753906 219.40625 428.085938 C 213.109375 423.417969 209.960938 417.5 209.960938 410.335938 C 209.960938 407.296875 210.9375 404.855469 212.890625 403.007812 C 214.84375 401.164062 217.289062 400.1875 220.21875 400.078125 C 223.257812 400.078125 225.757812 401.054688 227.710938 403.007812 C 229.664062 404.960938 230.640625 407.40625 230.640625 410.335938 C 230.640625 411.53125 230.476562 412.617188 230.152344 413.59375 C 229.828125 414.570312 229.445312 415.4375 229.011719 416.199219 C 228.578125 416.957031 227.980469 417.609375 227.222656 418.152344 C 226.460938 418.695312 225.808594 419.128906 225.265625 419.457031 C 224.726562 419.78125 224.183594 420 223.640625 420.105469 C 223.097656 420.214844 222.660156 420.378906 222.335938 420.59375 L 221.683594 420.757812 C 227.222656 425.644531 233.953125 428.085938 241.878906 428.085938 C 247.847656 428.085938 252.351562 425.210938 255.394531 419.457031 C 257.238281 415.875 258.160156 410.390625 258.160156 403.007812 L 258.160156 399.75 C 258.160156 389.4375 254.6875 382.546875 247.738281 379.070312 C 246.109375 378.417969 242.800781 378.039062 237.804688 377.929688 L 230.96875 377.769531 L 230.476562 377.441406 C 230.261719 377.117188 230.152344 376.25 230.152344 374.835938 C 230.152344 372.882812 230.585938 371.90625 231.457031 371.90625 C 234.496094 371.90625 237.644531 371.632812 240.898438 371.09375 C 244.589844 370.550781 247.957031 368.269531 250.996094 364.253906 C 254.035156 360.234375 255.554688 354.15625 255.554688 346.015625 L 255.554688 344.710938 C 255.554688 338.523438 253.65625 334.234375 249.855469 331.847656 C 247.46875 330.328125 244.917969 329.566406 242.203125 329.566406 C 238.730469 329.566406 235.527344 330.164062 232.59375 331.359375 C 229.664062 332.550781 227.601562 333.800781 226.40625 335.105469 C 225.214844 336.40625 224.617188 337.058594 224.617188 337.058594 L 225.105469 337.058594 C 225.429688 337.167969 225.863281 337.273438 226.40625 337.382812 C 226.949219 337.492188 227.492188 337.761719 228.035156 338.199219 C 228.578125 338.632812 229.230469 339.011719 229.988281 339.335938 C 230.75 339.664062 231.292969 340.261719 231.617188 341.128906 C 231.945312 341.996094 232.378906 342.8125 232.921875 343.570312 C 233.464844 344.332031 233.625 345.417969 233.410156 346.828125 C 233.410156 349.21875 232.648438 351.332031 231.128906 353.179688 C 229.609375 355.023438 227.167969 356 223.800781 356.109375 Z M 223.800781 356.109375 " fill-opacity="1" fill-rule="nonzero"/><path fill="#000000" d="M 297.242188 421.734375 C 297.242188 419.128906 298.167969 416.851562 300.011719 414.894531 C 301.855469 412.941406 304.191406 411.964844 307.015625 411.964844 C 309.621094 411.964844 311.898438 412.832031 313.851562 414.570312 C 315.808594 416.308594 316.839844 418.640625 316.945312 421.574219 C 316.945312 424.285156 316.023438 426.621094 314.179688 428.574219 C 312.332031 430.527344 310 431.507812 307.175781 431.507812 C 304.355469 431.507812 302.019531 430.582031 300.175781 428.738281 C 298.328125 426.890625 297.351562 424.558594 297.242188 421.734375 Z M 297.242188 421.734375 " fill-opacity="1" fill-rule="nonzero"/><path fill="#000000" d="M 350.492188 356.109375 C 347.5625 356.109375 345.28125 355.1875 343.652344 353.34375 C 342.023438 351.496094 341.15625 349.109375 341.046875 346.175781 C 341.046875 340.207031 343.652344 334.886719 348.863281 330.21875 C 354.074219 325.550781 360.371094 323.214844 367.753906 323.214844 C 371.554688 323.214844 373.941406 323.269531 374.917969 323.378906 C 382.953125 324.683594 389.085938 327.558594 393.320312 332.011719 C 397.554688 336.460938 399.726562 341.292969 399.832031 346.503906 C 399.832031 352.148438 397.988281 357.628906 394.296875 362.949219 C 390.605469 368.269531 385.503906 372.125 378.988281 374.511719 L 378.5 374.835938 C 378.5 374.945312 378.988281 375.109375 379.964844 375.324219 C 380.945312 375.542969 382.519531 376.03125 384.6875 376.792969 C 386.859375 377.550781 388.921875 378.691406 390.878906 380.210938 C 399.777344 385.964844 404.230469 393.5625 404.230469 403.007812 C 404.230469 411.585938 400.863281 419.074219 394.132812 425.480469 C 387.402344 431.886719 378.882812 435.089844 368.566406 435.089844 C 359.882812 435.089844 352.390625 432.753906 346.09375 428.085938 C 339.800781 423.417969 336.652344 417.5 336.652344 410.335938 C 336.652344 407.296875 337.628906 404.855469 339.582031 403.007812 C 341.535156 401.164062 343.980469 400.1875 346.910156 400.078125 C 349.949219 400.078125 352.445312 401.054688 354.402344 403.007812 C 356.355469 404.960938 357.332031 407.40625 357.332031 410.335938 C 357.332031 411.53125 357.167969 412.617188 356.84375 413.59375 C 356.515625 414.570312 356.136719 415.4375 355.703125 416.199219 C 355.269531 416.957031 354.671875 417.609375 353.910156 418.152344 C 353.152344 418.695312 352.5 419.128906 351.957031 419.457031 C 351.414062 419.78125 350.871094 420 350.328125 420.105469 C 349.785156 420.214844 349.351562 420.378906 349.027344 420.59375 L 348.375 420.757812 C 353.910156 425.644531 360.644531 428.085938 368.566406 428.085938 C 374.539062 428.085938 379.042969 425.210938 382.082031 419.457031 C 383.929688 415.875 384.851562 410.390625 384.851562 403.007812 L 384.851562 399.75 C 384.851562 389.4375 381.378906 382.546875 374.429688 379.070312 C 372.800781 378.417969 369.492188 378.039062 364.496094 377.929688 L 357.65625 377.769531 L 357.167969 377.441406 C 356.953125 377.117188 356.84375 376.25 356.84375 374.835938 C 356.84375 372.882812 357.277344 371.90625 358.144531 371.90625 C 361.1875 371.90625 364.332031 371.632812 367.589844 371.09375 C 371.28125 370.550781 374.648438 368.269531 377.6875 364.253906 C 380.726562 360.234375 382.246094 354.15625 382.246094 346.015625 L 382.246094 344.710938 C 382.246094 338.523438 380.347656 334.234375 376.546875 331.847656 C 374.160156 330.328125 371.609375 329.566406 368.894531 329.566406 C 365.417969 329.566406 362.21875 330.164062 359.285156 331.359375 C 356.355469 332.550781 354.292969 333.800781 353.097656 335.105469 C 351.902344 336.40625 351.304688 337.058594 351.304688 337.058594 L 351.796875 337.058594 C 352.121094 337.167969 352.554688 337.273438 353.097656 337.382812 C 353.640625 337.492188 354.183594 337.761719 354.726562 338.199219 C 355.269531 338.632812 355.921875 339.011719 356.679688 339.335938 C 357.441406 339.664062 357.984375 340.261719 358.308594 341.128906 C 358.632812 341.996094 359.070312 342.8125 359.613281 343.570312 C 360.152344 344.332031 360.316406 345.417969 360.101562 346.828125 C 360.101562 349.21875 359.339844 351.332031 357.820312 353.179688 C 356.300781 355.023438 353.859375 356 350.492188 356.109375 Z M 350.492188 356.109375 " fill-opacity="1" fill-rule="nonzero"/><path fill="#000000" d="M 431.914062 356.109375 C 428.980469 356.109375 426.703125 355.1875 425.074219 353.34375 C 423.445312 351.496094 422.578125 349.109375 422.46875 346.175781 C 422.46875 340.207031 425.074219 334.886719 430.285156 330.21875 C 435.496094 325.550781 441.792969 323.214844 449.175781 323.214844 C 452.972656 323.214844 455.363281 323.269531 456.339844 323.378906 C 464.371094 324.683594 470.507812 327.558594 474.738281 332.011719 C 478.972656 336.460938 481.144531 341.292969 481.253906 346.503906 C 481.253906 352.148438 479.410156 357.628906 475.71875 362.949219 C 472.027344 368.269531 466.921875 372.125 460.410156 374.511719 L 459.921875 374.835938 C 459.921875 374.945312 460.410156 375.109375 461.386719 375.324219 C 462.363281 375.542969 463.9375 376.03125 466.109375 376.792969 C 468.28125 377.550781 470.34375 378.691406 472.296875 380.210938 C 481.199219 385.964844 485.652344 393.5625 485.652344 403.007812 C 485.652344 411.585938 482.285156 419.074219 475.554688 425.480469 C 468.824219 431.886719 460.300781 435.089844 449.988281 435.089844 C 441.304688 435.089844 433.8125 432.753906 427.515625 428.085938 C 421.21875 423.417969 418.070312 417.5 418.070312 410.335938 C 418.070312 407.296875 419.046875 404.855469 421.003906 403.007812 C 422.957031 401.164062 425.398438 400.1875 428.332031 400.078125 C 431.371094 400.078125 433.867188 401.054688 435.820312 403.007812 C 437.773438 404.960938 438.753906 407.40625 438.753906 410.335938 C 438.753906 411.53125 438.589844 412.617188 438.265625 413.59375 C 437.9375 414.570312 437.558594 415.4375 437.125 416.199219 C 436.691406 416.957031 436.09375 417.609375 435.332031 418.152344 C 434.574219 418.695312 433.921875 419.128906 433.378906 419.457031 C 432.835938 419.78125 432.292969 420 431.75 420.105469 C 431.207031 420.214844 430.773438 420.378906 430.449219 420.59375 L 429.796875 420.757812 C 435.332031 425.644531 442.0625 428.085938 449.988281 428.085938 C 455.960938 428.085938 460.464844 425.210938 463.503906 419.457031 C 465.351562 415.875 466.273438 410.390625 466.273438 403.007812 L 466.273438 399.75 C 466.273438 389.4375 462.796875 382.546875 455.851562 379.070312 C 454.222656 378.417969 450.910156 378.039062 445.917969 377.929688 L 439.078125 377.769531 L 438.589844 377.441406 C 438.371094 377.117188 438.265625 376.25 438.265625 374.835938 C 438.265625 372.882812 438.699219 371.90625 439.566406 371.90625 C 442.605469 371.90625 445.753906 371.632812 449.011719 371.09375 C 452.703125 370.550781 456.066406 368.269531 459.109375 364.253906 C 462.148438 360.234375 463.667969 354.15625 463.667969 346.015625 L 463.667969 344.710938 C 463.667969 338.523438 461.765625 334.234375 457.96875 331.847656 C 455.578125 330.328125 453.027344 329.566406 450.3125 329.566406 C 446.839844 329.566406 443.636719 330.164062 440.707031 331.359375 C 437.773438 332.550781 435.710938 333.800781 434.519531 335.105469 C 433.324219 336.40625 432.726562 337.058594 432.726562 337.058594 L 433.214844 337.058594 C 433.542969 337.167969 433.976562 337.273438 434.519531 337.382812 C 435.0625 337.492188 435.605469 337.761719 436.148438 338.199219 C 436.691406 338.632812 437.339844 339.011719 438.101562 339.335938 C 438.859375 339.664062 439.402344 340.261719 439.730469 341.128906 C 440.054688 341.996094 440.488281 342.8125 441.03125 343.570312 C 441.574219 344.332031 441.738281 345.417969 441.519531 346.828125 C 441.519531 349.21875 440.761719 351.332031 439.242188 353.179688 C 437.722656 355.023438 435.277344 356 431.914062 356.109375 Z M 431.914062 356.109375 " fill-opacity="1" fill-rule="nonzero"/><g clip-path="url(#d426901b56)"><path fill="#000000" d="M 568.375 332.988281 C 564.355469 332.988281 560.503906 332.5 556.8125 331.519531 C 553.121094 330.542969 550.191406 329.566406 548.019531 328.589844 C 545.847656 327.613281 544.707031 327.125 544.597656 327.125 C 546.011719 330.707031 546.714844 335.753906 546.714844 342.269531 C 546.714844 352.039062 544.597656 359.910156 540.363281 365.882812 C 536.132812 371.851562 531.191406 374.890625 525.546875 375 C 519.359375 375 513.875 372.015625 509.101562 366.042969 C 504.324219 360.074219 501.878906 352.148438 501.773438 342.269531 C 501.773438 332.605469 504.214844 324.738281 509.101562 318.65625 C 513.984375 312.578125 519.46875 309.484375 525.546875 309.375 C 529.78125 309.375 533.582031 311.058594 536.945312 314.421875 C 546.390625 322.78125 556.8125 326.960938 568.210938 326.960938 C 580.804688 326.960938 590.898438 322.078125 598.5 312.304688 C 599.800781 310.570312 600.777344 309.644531 601.429688 309.539062 C 601.648438 309.429688 601.917969 309.375 602.246094 309.375 C 603.222656 309.375 604.035156 309.753906 604.6875 310.515625 C 605.339844 311.273438 605.609375 312.199219 605.5 313.28125 C 549.59375 397.199219 521.203125 439.429688 520.335938 439.972656 C 519.902344 440.40625 519.359375 440.625 518.707031 440.625 C 517.296875 440.625 516.320312 440.027344 515.777344 438.832031 C 515.234375 437.855469 515.234375 436.878906 515.777344 435.902344 C 515.882812 435.578125 527.878906 417.609375 551.765625 382.003906 C 563.273438 364.847656 572.066406 351.714844 578.144531 342.59375 C 584.222656 333.476562 587.261719 328.914062 587.261719 328.914062 C 581.507812 331.628906 575.214844 332.988281 568.375 332.988281 Z M 526.359375 368.8125 C 529.402344 368.8125 532.441406 366.53125 535.480469 361.972656 C 538.519531 357.414062 540.09375 350.84375 540.203125 342.269531 C 540.203125 334.777344 538.84375 328.480469 536.132812 323.378906 C 533.417969 318.277344 529.78125 315.671875 525.222656 315.5625 C 524.460938 315.5625 523.699219 315.726562 522.941406 316.050781 C 522.179688 316.378906 521.148438 316.972656 519.847656 317.84375 C 518.542969 318.710938 517.457031 320.339844 516.589844 322.726562 C 515.722656 325.117188 515.015625 327.992188 514.472656 331.359375 C 514.257812 333.53125 514.148438 337.167969 514.148438 342.269531 L 514.148438 345.6875 C 514.148438 355.566406 515.9375 362.296875 519.523438 365.882812 C 521.476562 367.835938 523.539062 368.8125 525.710938 368.8125 Z M 574.074219 407.730469 C 574.074219 398.175781 576.460938 390.363281 581.238281 384.28125 C 586.015625 378.203125 591.605469 375.109375 598.011719 375 C 603.65625 375 608.542969 377.984375 612.667969 383.957031 C 616.792969 389.925781 618.910156 397.851562 619.015625 407.730469 C 619.125 417.609375 617.007812 425.535156 612.667969 431.507812 C 608.324219 437.476562 603.382812 440.515625 597.847656 440.625 C 591.769531 440.625 586.285156 437.585938 581.402344 431.507812 C 576.515625 425.425781 574.074219 417.5 574.074219 407.730469 Z M 598.664062 434.4375 C 601.703125 434.4375 604.742188 432.15625 607.78125 427.597656 C 610.820312 423.039062 612.394531 416.414062 612.503906 407.730469 C 612.503906 400.242188 611.148438 393.945312 608.433594 388.839844 C 605.71875 383.738281 602.082031 381.1875 597.523438 381.1875 C 596.761719 381.1875 596.003906 381.351562 595.242188 381.675781 C 594.484375 382.003906 593.453125 382.597656 592.148438 383.46875 C 590.847656 384.335938 589.761719 385.964844 588.890625 388.351562 C 588.023438 390.742188 587.316406 393.617188 586.773438 396.984375 C 586.667969 398.285156 586.613281 401.867188 586.613281 407.730469 L 586.613281 411.3125 C 586.613281 426.730469 590.410156 434.4375 598.011719 434.4375 Z M 598.664062 434.4375 " fill-opacity="1" fill-rule="nonzero"/></g></svg>