<svg xmlns="http://www.w3.org/2000/svg" xmlns:xlink="http://www.w3.org/1999/xlink" width="1000" zoomAndPan="magnify" viewBox="0 0 750 749.999995" height="1000" preserveAspectRatio="xMidYMid meet" version="1.0"><rect x="-75" width="900" fill="#ffffff" y="-74.999999" height="899.999994" fill-opacity="1"/><rect x="-75" width="900" fill="#ffffff" y="-74.999999" height="899.999994" fill-opacity="1"/><path fill="#000000" d="M 293.558594 194.5625 C 289.585938 194.5625 286.492188 193.316406 284.285156 190.828125 C 282.074219 188.339844 280.898438 185.121094 280.75 181.171875 C 280.75 173.121094 284.285156 165.953125 291.351562 159.660156 C 298.417969 153.367188 306.957031 150.21875 316.964844 150.21875 C 322.117188 150.21875 325.359375 150.292969 326.683594 150.4375 C 337.578125 152.195312 345.894531 156.074219 351.636719 162.074219 C 357.378906 168.074219 360.320312 174.585938 360.46875 181.609375 C 360.46875 189.21875 357.964844 196.609375 352.960938 203.78125 C 347.957031 210.953125 341.035156 216.144531 332.203125 219.367188 L 331.539062 219.804688 C 331.539062 219.953125 332.203125 220.171875 333.527344 220.464844 C 334.851562 220.757812 336.988281 221.414062 339.933594 222.4375 C 342.875 223.464844 345.671875 225 348.324219 227.046875 C 360.394531 234.804688 366.429688 245.046875 366.429688 257.78125 C 366.429688 269.339844 361.867188 279.4375 352.738281 288.074219 C 343.613281 296.707031 332.054688 301.023438 318.070312 301.023438 C 306.292969 301.023438 296.136719 297.878906 287.597656 291.585938 C 279.058594 285.292969 274.789062 277.316406 274.789062 267.660156 C 274.789062 263.5625 276.113281 260.269531 278.765625 257.78125 C 281.414062 255.292969 284.726562 253.976562 288.699219 253.828125 C 292.824219 253.828125 296.207031 255.144531 298.859375 257.78125 C 301.507812 260.414062 302.832031 263.707031 302.832031 267.660156 C 302.832031 269.269531 302.613281 270.730469 302.171875 272.046875 C 301.730469 273.367188 301.214844 274.535156 300.625 275.5625 C 300.035156 276.585938 299.226562 277.464844 298.195312 278.195312 C 297.164062 278.925781 296.28125 279.511719 295.546875 279.953125 C 294.808594 280.390625 294.074219 280.683594 293.339844 280.828125 C 292.601562 280.976562 292.011719 281.195312 291.570312 281.488281 L 290.6875 281.707031 C 298.195312 288.292969 307.324219 291.585938 318.070312 291.585938 C 326.167969 291.585938 332.277344 287.707031 336.398438 279.953125 C 338.902344 275.121094 340.152344 267.730469 340.152344 257.78125 L 340.152344 253.390625 C 340.152344 239.488281 335.441406 230.195312 326.019531 225.511719 C 323.8125 224.632812 319.320312 224.121094 312.550781 223.976562 L 303.273438 223.757812 L 302.613281 223.316406 C 302.320312 222.878906 302.171875 221.707031 302.171875 219.804688 C 302.171875 217.171875 302.761719 215.855469 303.9375 215.855469 C 308.058594 215.855469 312.328125 215.488281 316.746094 214.757812 C 321.75 214.023438 326.316406 210.953125 330.4375 205.535156 C 334.558594 200.121094 336.621094 191.925781 336.621094 180.953125 L 336.621094 179.195312 C 336.621094 170.855469 334.042969 165.074219 328.890625 161.855469 C 325.652344 159.804688 322.191406 158.78125 318.511719 158.78125 C 313.800781 158.78125 309.457031 159.585938 305.484375 161.195312 C 301.507812 162.804688 298.710938 164.488281 297.09375 166.242188 C 295.472656 168 294.664062 168.878906 294.664062 168.878906 L 295.324219 168.878906 C 295.765625 169.023438 296.355469 169.171875 297.09375 169.316406 C 297.828125 169.464844 298.5625 169.828125 299.300781 170.414062 C 300.035156 171 300.917969 171.511719 301.949219 171.953125 C 302.980469 172.390625 303.71875 173.195312 304.160156 174.367188 C 304.601562 175.535156 305.1875 176.632812 305.925781 177.660156 C 306.660156 178.683594 306.882812 180.144531 306.585938 182.046875 C 306.585938 185.269531 305.558594 188.121094 303.496094 190.609375 C 301.433594 193.097656 298.121094 194.414062 293.558594 194.5625 Z M 293.558594 194.5625 " fill-opacity="1" fill-rule="nonzero"/><path fill="#000000" d="M 412.140625 261.730469 C 412.140625 265.242188 410.964844 268.171875 408.609375 270.511719 C 406.253906 272.855469 403.382812 274.023438 399.996094 274.023438 L 398.449219 274.023438 C 405.222656 285.585938 414.203125 291.367188 425.390625 291.367188 C 435.695312 291.367188 443.203125 286.976562 447.914062 278.195312 C 450.710938 273.367188 452.109375 264 452.109375 250.097656 C 452.109375 235.023438 450.125 224.855469 446.148438 219.585938 C 442.320312 214.757812 438.050781 212.339844 433.339844 212.339844 L 432.015625 212.339844 C 420.53125 212.339844 411.847656 217.316406 405.957031 227.269531 C 405.371094 228.292969 404.855469 228.878906 404.414062 229.023438 C 403.972656 229.171875 402.867188 229.316406 401.101562 229.464844 C 398.597656 229.464844 397.199219 229.023438 396.90625 228.144531 C 396.609375 227.5625 396.464844 214.757812 396.464844 189.730469 L 396.464844 161.414062 C 396.464844 154.097656 396.832031 150.4375 397.566406 150.4375 C 397.863281 150.144531 398.15625 150 398.449219 150 C 398.597656 150 400.144531 150.585938 403.085938 151.757812 C 406.03125 152.925781 410.082031 154.097656 415.234375 155.269531 C 420.386719 156.4375 425.90625 157.023438 431.796875 157.023438 C 442.246094 157.023438 452.257812 154.976562 461.828125 150.878906 C 463.003906 150.292969 463.960938 150 464.699219 150 C 465.875 150 466.464844 151.316406 466.464844 153.953125 L 466.464844 156.804688 C 454.394531 171 439.304688 178.097656 421.195312 178.097656 C 416.632812 178.097656 412.507812 177.660156 408.828125 176.78125 L 406.621094 176.339844 L 406.621094 214.097656 C 409.417969 212.046875 411.625 210.4375 413.246094 209.269531 C 414.863281 208.097656 417.515625 206.925781 421.195312 205.757812 C 424.875 204.585938 428.628906 204 432.457031 204 C 444.382812 204 454.464844 208.757812 462.710938 218.269531 C 470.953125 227.78125 475.078125 239.046875 475.078125 252.074219 C 475.078125 265.535156 470.367188 277.023438 460.945312 286.535156 C 451.523438 296.046875 440.039062 300.878906 426.496094 301.023438 C 414.570312 301.023438 405 297.074219 397.789062 289.171875 C 390.574219 281.269531 386.96875 272.339844 386.96875 262.390625 C 386.96875 258.878906 387.777344 256.097656 389.398438 254.046875 C 391.015625 252 392.710938 250.683594 394.476562 250.097656 C 396.242188 249.511719 397.933594 249.21875 399.554688 249.21875 C 403.234375 249.21875 406.253906 250.464844 408.609375 252.953125 C 410.964844 255.4375 412.140625 258.367188 412.140625 261.730469 Z M 412.140625 261.730469 " fill-opacity="1" fill-rule="nonzero"/><path fill="#000000" d="M 274.789062 526.464844 C 274.789062 502.609375 280.75 483.730469 292.675781 469.828125 C 304.601562 455.925781 317.851562 448.976562 332.425781 448.976562 C 342.582031 448.976562 349.871094 451.609375 354.285156 456.878906 C 358.703125 462.144531 360.910156 468 360.910156 474.4375 C 360.910156 478.097656 359.878906 481.023438 357.820312 483.21875 C 355.757812 485.414062 352.886719 486.511719 349.207031 486.511719 C 345.820312 486.511719 343.023438 485.488281 340.816406 483.4375 C 338.605469 481.390625 337.503906 478.535156 337.503906 474.878906 C 337.503906 468.4375 340.960938 464.5625 347.882812 463.242188 C 344.644531 460.023438 340.078125 458.195312 334.191406 457.757812 C 323.738281 457.757812 315.125 462.144531 308.355469 470.925781 C 301.433594 480.585938 297.976562 495.367188 297.976562 515.269531 L 298.195312 516.144531 C 298.933594 515.269531 299.519531 514.316406 299.964844 513.292969 C 306 504.511719 313.875 500.121094 323.589844 500.121094 L 324.472656 500.121094 C 331.246094 500.121094 337.207031 501.511719 342.359375 504.292969 C 345.894531 506.339844 349.425781 509.269531 352.960938 513.074219 C 356.492188 516.878906 359.363281 521.046875 361.574219 525.585938 C 364.664062 532.757812 366.210938 540.585938 366.210938 549.074219 L 366.210938 553.023438 C 366.210938 556.390625 365.84375 559.535156 365.105469 562.464844 C 363.488281 571.097656 358.777344 579.511719 350.972656 587.707031 C 343.171875 595.902344 333.308594 600 321.382812 600 C 317.261719 600 313.285156 599.414062 309.457031 598.242188 C 305.628906 597.074219 301.507812 594.878906 297.09375 591.660156 C 292.675781 588.4375 288.921875 584.121094 285.832031 578.707031 C 282.738281 573.292969 280.089844 566.195312 277.878906 557.414062 C 275.671875 548.632812 274.640625 538.316406 274.789062 526.464844 Z M 322.265625 508.023438 C 317.851562 508.023438 314.023438 509.269531 310.785156 511.757812 C 307.542969 514.242188 305.042969 517.535156 303.273438 521.632812 C 301.507812 525.730469 300.257812 529.902344 299.519531 534.144531 C 298.785156 538.390625 298.34375 542.925781 298.195312 547.757812 C 298.195312 559.902344 299.078125 568.609375 300.847656 573.878906 C 302.613281 579.144531 305.410156 583.390625 309.238281 586.609375 C 312.769531 589.242188 316.671875 590.5625 320.941406 590.5625 C 328.449219 590.5625 334.191406 587.78125 338.164062 582.21875 C 340.078125 579.585938 341.402344 576.292969 342.140625 572.339844 C 342.875 568.390625 343.246094 560.707031 343.246094 549.292969 C 343.246094 537.585938 342.875 529.757812 342.140625 525.804688 C 341.402344 521.855469 340.078125 518.5625 338.164062 515.925781 C 334.191406 510.660156 328.890625 508.023438 322.265625 508.023438 Z M 322.265625 508.023438 " fill-opacity="1" fill-rule="nonzero"/><path fill="#000000" d="M 403.972656 493.535156 C 399.996094 493.535156 396.90625 492.292969 394.695312 489.804688 C 392.488281 487.316406 391.3125 484.097656 391.164062 480.144531 C 391.164062 472.097656 394.695312 464.925781 401.761719 458.632812 C 408.828125 452.339844 417.367188 449.195312 427.378906 449.195312 C 432.53125 449.195312 435.769531 449.269531 437.09375 449.414062 C 447.988281 451.171875 456.304688 455.046875 462.046875 461.046875 C 467.789062 467.046875 470.734375 473.5625 470.882812 480.585938 C 470.882812 488.195312 468.378906 495.585938 463.371094 502.757812 C 458.367188 509.925781 451.449219 515.121094 442.617188 518.339844 L 441.953125 518.78125 C 441.953125 518.925781 442.617188 519.144531 443.941406 519.4375 C 445.265625 519.730469 447.398438 520.390625 450.34375 521.414062 C 453.289062 522.4375 456.085938 523.976562 458.734375 526.023438 C 470.808594 533.78125 476.84375 544.023438 476.84375 556.757812 C 476.84375 568.316406 472.28125 578.414062 463.152344 587.046875 C 454.023438 595.683594 442.46875 600 428.484375 600 C 416.707031 600 406.546875 596.855469 398.007812 590.5625 C 389.46875 584.269531 385.199219 576.292969 385.199219 566.632812 C 385.199219 562.535156 386.527344 559.242188 389.175781 556.757812 C 391.824219 554.269531 395.136719 552.953125 399.113281 552.804688 C 403.234375 552.804688 406.621094 554.121094 409.269531 556.757812 C 411.921875 559.390625 413.246094 562.683594 413.246094 566.632812 C 413.246094 568.242188 413.023438 569.707031 412.582031 571.023438 C 412.140625 572.339844 411.625 573.511719 411.039062 574.535156 C 410.449219 575.5625 409.640625 576.4375 408.609375 577.171875 C 407.578125 577.902344 406.695312 578.488281 405.957031 578.925781 C 405.222656 579.367188 404.488281 579.660156 403.75 579.804688 C 403.015625 579.953125 402.425781 580.171875 401.984375 580.464844 L 401.101562 580.683594 C 408.609375 587.269531 417.734375 590.5625 428.484375 590.5625 C 436.578125 590.5625 442.6875 586.683594 446.8125 578.925781 C 449.3125 574.097656 450.566406 566.707031 450.566406 556.757812 L 450.566406 552.367188 C 450.566406 538.464844 445.855469 529.171875 436.433594 524.488281 C 434.222656 523.609375 429.734375 523.097656 422.960938 522.953125 L 413.6875 522.730469 L 413.023438 522.292969 C 412.730469 521.855469 412.582031 520.683594 412.582031 518.78125 C 412.582031 516.144531 413.171875 514.828125 414.351562 514.828125 C 418.472656 514.828125 422.742188 514.464844 427.15625 513.730469 C 432.164062 513 436.726562 509.925781 440.847656 504.511719 C 444.972656 499.097656 447.03125 490.902344 447.03125 479.925781 L 447.03125 478.171875 C 447.03125 469.828125 444.457031 464.046875 439.304688 460.828125 C 436.0625 458.78125 432.605469 457.757812 428.925781 457.757812 C 424.214844 457.757812 419.871094 458.5625 415.894531 460.171875 C 411.921875 461.78125 409.125 463.464844 407.503906 465.21875 C 405.886719 466.976562 405.074219 467.855469 405.074219 467.855469 L 405.738281 467.855469 C 406.179688 468 406.769531 468.144531 407.503906 468.292969 C 408.242188 468.4375 408.976562 468.804688 409.710938 469.390625 C 410.449219 469.976562 411.332031 470.488281 412.363281 470.925781 C 413.394531 471.367188 414.128906 472.171875 414.570312 473.339844 C 415.011719 474.511719 415.601562 475.609375 416.335938 476.632812 C 417.074219 477.660156 417.292969 479.121094 417 481.023438 C 417 484.242188 415.96875 487.097656 413.910156 489.585938 C 411.847656 492.074219 408.535156 493.390625 403.972656 493.535156 Z M 403.972656 493.535156 " fill-opacity="1" fill-rule="nonzero"/><path fill="#000000" d="M 243.433594 396.292969 L 508.421875 396.292969 L 508.421875 383.121094 L 243.433594 383.121094 Z M 243.433594 396.292969 " fill-opacity="1" fill-rule="nonzero"/></svg>