<svg xmlns="http://www.w3.org/2000/svg" xmlns:xlink="http://www.w3.org/1999/xlink" width="1000" zoomAndPan="magnify" viewBox="0 0 750 749.999995" height="1000" preserveAspectRatio="xMidYMid meet" version="1.0"><rect x="-75" width="900" fill="#ffffff" y="-74.999999" height="899.999994" fill-opacity="1"/><rect x="-75" width="900" fill="#ffffff" y="-74.999999" height="899.999994" fill-opacity="1"/><path fill="#000000" d="M 312.550781 169.316406 L 309.679688 170.414062 C 307.617188 171.144531 304.671875 171.878906 300.847656 172.609375 C 297.019531 173.339844 292.75 173.855469 288.039062 174.144531 L 283.84375 174.144531 L 283.84375 164.046875 L 288.039062 164.046875 C 294.957031 163.757812 301.363281 162.660156 307.25 160.757812 C 313.140625 158.855469 317.261719 157.097656 319.617188 155.488281 C 321.972656 153.878906 324.03125 152.269531 325.800781 150.660156 C 326.09375 150.21875 326.976562 150 328.449219 150 C 329.773438 150 331.027344 150.4375 332.203125 151.316406 L 332.203125 216.953125 L 332.425781 282.804688 C 333.453125 283.828125 334.335938 284.488281 335.074219 284.78125 C 335.808594 285.074219 337.578125 285.367188 340.375 285.660156 C 343.171875 285.953125 347.734375 286.097656 354.066406 286.097656 L 359.804688 286.097656 L 359.804688 296.195312 L 357.378906 296.195312 C 354.285156 295.757812 342.582031 295.535156 322.265625 295.535156 C 302.246094 295.535156 290.6875 295.757812 287.597656 296.195312 L 284.945312 296.195312 L 284.945312 286.097656 L 290.6875 286.097656 C 293.925781 286.097656 296.722656 286.097656 299.078125 286.097656 C 301.433594 286.097656 303.273438 286.023438 304.601562 285.878906 C 305.925781 285.730469 307.101562 285.511719 308.132812 285.21875 C 309.164062 284.925781 309.753906 284.78125 309.898438 284.78125 C 310.046875 284.78125 310.488281 284.414062 311.226562 283.683594 C 311.960938 282.953125 312.402344 282.660156 312.550781 282.804688 Z M 312.550781 169.316406 " fill-opacity="1" fill-rule="nonzero"/><path fill="#000000" d="M 397.125 167.78125 C 405.371094 155.925781 416.632812 150 430.910156 150 C 437.976562 150 445.042969 151.902344 452.109375 155.707031 C 459.175781 159.511719 464.917969 166.242188 469.335938 175.902344 C 474.78125 188.046875 477.503906 204.730469 477.503906 225.953125 C 477.503906 248.632812 474.339844 265.976562 468.011719 277.976562 C 465.066406 284.121094 461.015625 289.023438 455.863281 292.683594 C 450.710938 296.339844 446.222656 298.609375 442.394531 299.488281 C 438.566406 300.367188 434.8125 300.878906 431.132812 301.023438 C 427.304688 301.023438 423.476562 300.585938 419.648438 299.707031 C 415.820312 298.828125 411.332031 296.488281 406.179688 292.683594 C 401.027344 288.878906 396.976562 283.976562 394.035156 277.976562 C 387.703125 265.976562 384.539062 248.632812 384.539062 225.953125 C 384.539062 200.488281 388.734375 181.097656 397.125 167.78125 Z M 446.8125 165.144531 C 442.394531 160.464844 437.167969 158.121094 431.132812 158.121094 C 424.949219 158.121094 419.648438 160.464844 415.234375 165.144531 C 411.554688 168.953125 409.125 174.21875 407.945312 180.953125 C 406.769531 187.683594 406.179688 201.730469 406.179688 223.097656 C 406.179688 246.21875 406.769531 261.4375 407.945312 268.757812 C 409.125 276.074219 411.773438 281.855469 415.894531 286.097656 C 420.019531 290.488281 425.097656 292.683594 431.132812 292.683594 C 437.019531 292.683594 442.027344 290.488281 446.148438 286.097656 C 450.417969 281.707031 453.066406 275.5625 454.097656 267.660156 C 455.128906 259.757812 455.71875 244.902344 455.863281 223.097656 C 455.863281 201.878906 455.277344 187.902344 454.097656 181.171875 C 452.921875 174.4375 450.492188 169.097656 446.8125 165.144531 Z M 446.8125 165.144531 " fill-opacity="1" fill-rule="nonzero"/><path fill="#000000" d="M 312.550781 468.292969 L 309.679688 469.390625 C 307.617188 470.121094 304.671875 470.855469 300.847656 471.585938 C 297.019531 472.316406 292.75 472.828125 288.039062 473.121094 L 283.84375 473.121094 L 283.84375 463.023438 L 288.039062 463.023438 C 294.957031 462.730469 301.363281 461.632812 307.25 459.730469 C 313.140625 457.828125 317.261719 456.074219 319.617188 454.464844 C 321.972656 452.855469 324.03125 451.242188 325.800781 449.632812 C 326.09375 449.195312 326.976562 448.976562 328.449219 448.976562 C 329.773438 448.976562 331.027344 449.414062 332.203125 450.292969 L 332.203125 515.925781 L 332.425781 581.78125 C 333.453125 582.804688 334.335938 583.464844 335.074219 583.757812 C 335.808594 584.046875 337.578125 584.339844 340.375 584.632812 C 343.171875 584.925781 347.734375 585.074219 354.066406 585.074219 L 359.804688 585.074219 L 359.804688 595.171875 L 357.378906 595.171875 C 354.285156 594.730469 342.582031 594.511719 322.265625 594.511719 C 302.246094 594.511719 290.6875 594.730469 287.597656 595.171875 L 284.945312 595.171875 L 284.945312 585.074219 L 290.6875 585.074219 C 293.925781 585.074219 296.722656 585.074219 299.078125 585.074219 C 301.433594 585.074219 303.273438 585 304.601562 584.855469 C 305.925781 584.707031 307.101562 584.488281 308.132812 584.195312 C 309.164062 583.902344 309.753906 583.757812 309.898438 583.757812 C 310.046875 583.757812 310.488281 583.390625 311.226562 582.660156 C 311.960938 581.925781 312.402344 581.632812 312.550781 581.78125 Z M 312.550781 468.292969 " fill-opacity="1" fill-rule="nonzero"/><path fill="#000000" d="M 391.382812 503.632812 C 391.382812 503.632812 391.382812 498 391.382812 486.730469 C 391.382812 475.464844 395.359375 466.390625 403.308594 459.511719 C 411.257812 452.632812 420.386719 449.121094 430.691406 448.976562 C 441.144531 448.976562 450.417969 452.046875 458.515625 458.195312 C 466.613281 464.339844 470.660156 472.316406 470.660156 482.121094 C 470.660156 486.511719 469.851562 490.609375 468.230469 494.414062 C 466.613281 498.21875 464.699219 501.292969 462.488281 503.632812 C 460.28125 505.976562 458 508.023438 455.644531 509.78125 C 453.289062 511.535156 451.375 512.855469 449.902344 513.730469 C 448.429688 514.609375 447.621094 515.195312 447.472656 515.488281 L 450.566406 517.464844 C 452.625 518.925781 454.6875 520.390625 456.75 521.855469 C 458.808594 523.316406 459.988281 524.121094 460.28125 524.269531 C 471.324219 532.902344 476.84375 543.804688 476.84375 556.976562 C 476.84375 568.535156 472.574219 578.5625 464.035156 587.046875 C 455.496094 595.535156 444.457031 599.855469 430.910156 600 C 417.664062 600 406.769531 596.269531 398.230469 588.804688 C 389.691406 581.339844 385.421875 572.121094 385.421875 561.144531 C 385.421875 545.339844 394.917969 532.171875 413.910156 521.632812 L 409.933594 518.78125 C 406.84375 516.878906 404.855469 515.414062 403.972656 514.390625 C 395.578125 507.21875 391.382812 498 391.382812 486.730469 Z M 439.082031 510.4375 L 440.40625 509.5625 C 441.289062 508.976562 441.953125 508.535156 442.394531 508.242188 C 442.835938 507.953125 443.574219 507.4375 444.601562 506.707031 C 445.632812 505.976562 446.515625 505.242188 447.253906 504.511719 C 447.988281 503.78125 448.796875 502.902344 449.683594 501.878906 C 450.566406 500.855469 451.375 499.902344 452.109375 499.023438 C 452.847656 498.144531 453.582031 496.976562 454.320312 495.511719 C 455.054688 494.046875 455.71875 492.804688 456.304688 491.78125 C 456.894531 490.757812 457.261719 489.292969 457.410156 487.390625 C 457.558594 485.488281 457.703125 483.878906 457.851562 482.5625 C 457.851562 476.269531 455.71875 470.925781 451.449219 466.535156 C 447.179688 462.144531 442.246094 459.367188 436.652344 458.195312 C 435.621094 458.046875 433.195312 457.976562 429.367188 457.976562 C 423.332031 457.976562 417.664062 459.878906 412.363281 463.683594 C 407.0625 467.488281 404.339844 472.242188 404.191406 477.953125 C 404.191406 481.316406 405.148438 484.390625 407.0625 487.171875 C 408.976562 489.953125 410.890625 492.074219 412.804688 493.535156 C 414.71875 495 418.398438 497.339844 423.84375 500.5625 C 424.875 501.292969 425.683594 501.804688 426.273438 502.097656 Z M 431.132812 590.5625 C 439.671875 590.5625 447.03125 588.074219 453.214844 583.097656 C 459.398438 578.121094 462.488281 572.121094 462.488281 565.097656 C 462.488281 562.609375 462.121094 560.269531 461.386719 558.074219 C 460.648438 555.878906 459.765625 554.046875 458.734375 552.585938 C 457.703125 551.121094 456.085938 549.511719 453.878906 547.757812 C 451.667969 546 449.976562 544.683594 448.796875 543.804688 C 447.621094 542.925781 445.484375 541.535156 442.394531 539.632812 C 439.304688 537.730469 437.316406 536.488281 436.433594 535.902344 C 434.371094 534.585938 432.164062 533.195312 429.808594 531.730469 C 427.453125 530.269531 425.539062 529.023438 424.066406 528 L 422.300781 526.902344 C 421.417969 526.902344 419.28125 528.144531 415.894531 530.632812 C 412.507812 533.121094 408.976562 537.144531 405.296875 542.707031 C 401.617188 548.269531 399.703125 554.269531 399.554688 560.707031 C 399.554688 569.339844 402.71875 576.4375 409.050781 582 C 415.378906 587.5625 422.742188 590.414062 431.132812 590.5625 Z M 431.132812 590.5625 " fill-opacity="1" fill-rule="nonzero"/><path fill="#000000" d="M 243.433594 396.292969 L 508.421875 396.292969 L 508.421875 383.121094 L 243.433594 383.121094 Z M 243.433594 396.292969 " fill-opacity="1" fill-rule="nonzero"/></svg>