<svg xmlns="http://www.w3.org/2000/svg" xmlns:xlink="http://www.w3.org/1999/xlink" width="1000" zoomAndPan="magnify" viewBox="0 0 750 749.999995" height="1000" preserveAspectRatio="xMidYMid meet" version="1.0"><rect x="-75" width="900" fill="#ffffff" y="-74.999999" height="899.999994" fill-opacity="1"/><rect x="-75" width="900" fill="#ffffff" y="-74.999999" height="899.999994" fill-opacity="1"/><path fill="#fefefe" d="M 383.371094 378.675781 C 333.207031 268.898438 295.890625 189.453125 265.480469 175.203125 C 182.71875 240.375 129.003906 321.644531 148.421875 407.355469 C 188.777344 585.472656 338.367188 637.402344 457.082031 601.148438 C 528.824219 579.242188 599.433594 506.875 616.207031 373.636719 Z M 383.371094 378.675781 " fill-opacity="1" fill-rule="nonzero"/><path fill="#6d5764" d="M 381.507812 376.773438 C 514.757812 375.75 620.207031 389.164062 617.984375 367.519531 C 595.652344 149.832031 377.394531 112.574219 258.503906 175.144531 Z M 381.507812 376.773438 " fill-opacity="1" fill-rule="nonzero"/><path fill="#00010d" d="M 384.023438 373.367188 L 612.421875 373.417969 C 614.9375 373.417969 616.976562 375.457031 616.976562 377.972656 C 616.976562 380.488281 614.9375 382.527344 612.417969 382.527344 L 384.023438 382.480469 C 381.507812 382.480469 379.46875 380.4375 379.46875 377.921875 C 379.46875 375.40625 381.507812 373.367188 384.023438 373.367188 Z M 384.023438 373.367188 " fill-opacity="1" fill-rule="nonzero"/><path fill="#00010d" d="M 255.675781 576.199219 L 377.148438 378.523438 C 378.464844 376.378906 381.273438 375.710938 383.414062 377.027344 C 385.558594 378.34375 386.230469 381.148438 384.910156 383.292969 L 263.4375 580.96875 C 262.121094 583.113281 259.316406 583.78125 257.171875 582.464844 C 255.027344 581.148438 254.359375 578.34375 255.675781 576.199219 Z M 255.675781 576.199219 " fill-opacity="1" fill-rule="nonzero"/><path fill="#00010d" d="M 266.65625 176.660156 L 386.113281 375.683594 C 387.40625 377.839844 386.707031 380.636719 384.550781 381.933594 C 382.394531 383.226562 379.59375 382.527344 378.300781 380.371094 L 258.84375 181.351562 C 257.546875 179.191406 258.246094 176.394531 260.402344 175.097656 C 262.5625 173.804688 265.359375 174.503906 266.65625 176.660156 Z M 266.65625 176.660156 " fill-opacity="1" fill-rule="nonzero"/><path fill="#00010d" d="M 620.980469 379.097656 C 620.980469 511.445312 513.691406 618.734375 381.34375 618.734375 C 248.992188 618.734375 141.703125 511.445312 141.703125 379.097656 C 141.703125 246.746094 248.992188 139.457031 381.34375 139.457031 C 513.691406 139.457031 620.980469 246.746094 620.980469 379.097656 M 610.40625 379.097656 C 610.40625 252.589844 507.851562 150.035156 381.34375 150.035156 C 254.835938 150.035156 152.277344 252.589844 152.277344 379.097656 C 152.277344 505.605469 254.835938 608.160156 381.34375 608.160156 C 507.851562 608.160156 610.40625 505.605469 610.40625 379.097656 Z M 610.40625 379.097656 " fill-opacity="1" fill-rule="nonzero"/><path fill="#6d5764" d="M 447.339844 235.800781 C 447.582031 236.023438 447.9375 236.15625 448.402344 236.199219 C 448.734375 236.222656 449.179688 236.242188 449.730469 236.265625 L 449.730469 236.230469 C 449.710938 236.164062 449.664062 236.054688 449.597656 235.898438 C 449.3125 235.898438 449.054688 235.886719 448.835938 235.867188 C 448.257812 235.867188 447.761719 235.84375 447.339844 235.800781 Z M 454.652344 222.589844 C 453.40625 222.589844 452.464844 223.113281 451.828125 224.160156 C 450.808594 225.824219 449.113281 227.066406 446.738281 227.886719 C 446.652344 227.929688 446.484375 227.984375 446.242188 228.050781 C 446.019531 228.117188 445.851562 228.171875 445.742188 228.21875 C 444.945312 228.507812 444.523438 229.039062 444.476562 229.8125 C 444.410156 230.988281 444.398438 231.964844 444.445312 232.742188 C 444.511719 233.671875 445.011719 234.191406 445.941406 234.304688 C 446.296875 234.324219 446.738281 234.347656 447.269531 234.371094 C 447.980469 234.390625 448.433594 234.402344 448.632812 234.402344 C 449.609375 234.46875 450.230469 235 450.496094 236 C 450.675781 236.6875 450.761719 237.839844 450.761719 239.457031 C 450.761719 241.761719 450.761719 246.230469 450.761719 252.859375 C 450.761719 258.445312 450.773438 262.902344 450.796875 266.226562 C 450.796875 267.246094 450.828125 268.144531 450.894531 268.921875 C 450.960938 269.652344 451.363281 270.0625 452.09375 270.152344 C 452.78125 270.21875 453.578125 270.261719 454.488281 270.285156 C 456.351562 270.285156 457.445312 270.117188 457.78125 269.785156 C 458.132812 269.476562 458.3125 268.410156 458.3125 266.59375 C 458.3125 264.355469 458.3125 257.660156 458.3125 246.507812 C 458.3125 234.359375 458.3125 227.410156 458.3125 225.65625 C 458.289062 224.261719 458.113281 223.394531 457.78125 223.0625 C 457.46875 222.75 456.699219 222.597656 455.472656 222.597656 C 455.390625 222.597656 455.304688 222.597656 455.21875 222.597656 L 454.953125 222.597656 C 454.851562 222.589844 454.75 222.589844 454.652344 222.589844 Z M 459.777344 224.695312 C 459.910156 225.183594 459.976562 225.867188 459.976562 226.753906 C 459.996094 229.902344 460.007812 234.933594 460.007812 241.851562 L 459.976562 252.625 C 459.996094 258.902344 459.996094 263.921875 459.976562 267.691406 C 459.976562 269.554688 459.796875 270.683594 459.441406 271.082031 C 459.042969 271.546875 457.992188 271.78125 456.285156 271.78125 L 455.785156 271.78125 C 455.03125 271.78125 454.34375 271.75 453.726562 271.683594 L 453.722656 271.683594 C 453.945312 271.902344 454.210938 272.027344 454.519531 272.046875 C 455.207031 272.136719 456.015625 272.179688 456.949219 272.179688 C 458.8125 272.179688 459.90625 272.023438 460.242188 271.714844 C 460.574219 271.382812 460.738281 270.308594 460.738281 268.488281 L 460.738281 248.4375 C 460.738281 236.375 460.738281 229.414062 460.738281 227.554688 C 460.738281 225.914062 460.417969 224.960938 459.777344 224.695312 Z M 453.324219 299.847656 C 452.105469 299.847656 451.238281 300.535156 450.730469 301.910156 C 450.640625 302.175781 450.53125 302.574219 450.398438 303.105469 C 450.285156 303.507812 450.207031 303.785156 450.164062 303.9375 C 449.832031 305.003906 449.121094 305.546875 448.035156 305.566406 C 447.105469 305.589844 446.375 305.601562 445.839844 305.601562 C 445.132812 305.601562 444.480469 305.578125 443.882812 305.535156 L 443.878906 305.535156 C 444.125 305.777344 444.476562 305.910156 444.945312 305.933594 C 445.527344 305.972656 446.269531 305.992188 447.167969 305.992188 C 447.765625 305.992188 448.429688 305.984375 449.167969 305.96875 C 450.054688 305.945312 450.640625 305.492188 450.929688 304.605469 C 450.972656 304.449219 451.0625 304.105469 451.195312 303.574219 C 451.304688 303.152344 451.40625 302.820312 451.496094 302.574219 C 452.050781 301.066406 452.992188 300.292969 454.320312 300.246094 C 454.253906 300.113281 454.175781 300.003906 454.089844 299.914062 C 453.84375 299.871094 453.710938 299.847656 453.691406 299.847656 Z M 462.542969 296.335938 C 463.78125 298.128906 464.363281 300.152344 464.296875 302.410156 C 464.296875 302.675781 464.296875 303.085938 464.296875 303.640625 L 464.296875 304.636719 L 464.265625 304.636719 L 464.296875 304.96875 C 464.296875 305.65625 464.285156 306.210938 464.265625 306.632812 C 464.199219 309.203125 463.378906 311.289062 461.804688 312.882812 C 461.515625 313.171875 461.304688 313.417969 461.171875 313.617188 C 460.816406 314.105469 460.726562 314.535156 460.90625 314.914062 L 461.070312 315.144531 C 461.226562 315.34375 461.503906 315.710938 461.902344 316.242188 C 461.4375 315.554688 461.460938 314.867188 461.96875 314.179688 C 462.148438 313.960938 462.378906 313.695312 462.667969 313.382812 C 464.175781 311.875 464.960938 309.878906 465.03125 307.398438 L 465.03125 303.175781 C 465.117188 300.585938 464.289062 298.308594 462.546875 296.335938 Z M 462.316406 316.828125 C 462.339844 316.859375 462.363281 316.886719 462.386719 316.917969 C 462.359375 316.878906 462.335938 316.847656 462.320312 316.828125 Z M 450.964844 319.269531 C 451.230469 319.425781 451.761719 319.578125 452.558594 319.734375 C 452.648438 319.757812 452.769531 319.777344 452.925781 319.800781 C 452.859375 319.757812 452.8125 319.722656 452.792969 319.703125 C 452.503906 319.589844 452.359375 319.535156 452.359375 319.535156 C 452.226562 319.511719 452.015625 319.46875 451.726562 319.402344 L 451.332031 319.335938 C 451.34375 319.339844 451.347656 319.34375 451.34375 319.34375 C 451.324219 319.34375 451.195312 319.320312 450.964844 319.269531 Z M 448.96875 327.484375 L 449.101562 327.980469 C 449.277344 328.515625 449.410156 328.902344 449.5 329.144531 C 449.5 329.167969 449.511719 329.191406 449.53125 329.210938 C 449.554688 329.257812 449.566406 329.277344 449.566406 329.277344 C 449.699219 329.390625 449.753906 329.445312 449.730469 329.445312 C 449.863281 329.535156 450 329.621094 450.132812 329.710938 C 450.066406 329.488281 449.921875 329.035156 449.699219 328.347656 C 449.566406 327.90625 449.324219 327.617188 448.96875 327.484375 Z M 450.859375 290.894531 C 447.792969 290.894531 445.277344 292.148438 443.3125 294.660156 C 441.496094 296.988281 440.730469 299.625 441.019531 302.574219 C 441.109375 303.507812 441.617188 304.003906 442.550781 304.070312 C 443.035156 304.09375 443.632812 304.105469 444.335938 304.105469 C 445.039062 304.105469 445.851562 304.09375 446.773438 304.070312 C 447.660156 304.050781 448.234375 303.59375 448.5 302.707031 C 448.566406 302.554688 448.667969 302.21875 448.800781 301.710938 C 448.910156 301.289062 449.011719 300.957031 449.101562 300.714844 C 449.675781 299.128906 450.679688 298.335938 452.117188 298.335938 C 452.226562 298.335938 452.34375 298.34375 452.460938 298.351562 C 454.078125 298.507812 455.097656 299.4375 455.519531 301.144531 C 455.828125 302.429688 455.730469 303.996094 455.21875 305.835938 C 454.53125 308.273438 452.980469 309.800781 450.5625 310.421875 C 449.253906 310.757812 448.480469 311.089844 448.234375 311.421875 C 447.992188 311.730469 447.859375 312.597656 447.835938 314.015625 C 447.835938 314.636719 447.847656 315.066406 447.871094 315.3125 C 447.914062 316.265625 448.058594 316.875 448.300781 317.140625 C 448.546875 317.40625 449.167969 317.652344 450.164062 317.871094 C 450.804688 318.007812 451.148438 318.074219 451.195312 318.074219 C 451.199219 318.074219 451.199219 318.074219 451.199219 318.074219 C 453.546875 318.71875 454.855469 320.203125 455.121094 322.527344 C 455.320312 324.367188 455.320312 326.121094 455.121094 327.78125 C 454.964844 329.179688 454.222656 330.121094 452.890625 330.609375 C 452.414062 330.796875 451.949219 330.894531 451.492188 330.894531 C 450.71875 330.894531 449.976562 330.621094 449.265625 330.078125 C 448.601562 329.566406 448.136719 328.945312 447.871094 328.214844 C 447.847656 328.148438 447.660156 327.5625 447.304688 326.453125 C 447.101562 325.824219 446.699219 325.511719 446.089844 325.511719 C 446.03125 325.511719 445.96875 325.515625 445.90625 325.519531 C 444.179688 325.675781 443.214844 325.753906 443.015625 325.753906 C 441.574219 325.777344 440.675781 325.976562 440.320312 326.351562 C 439.988281 326.730469 439.855469 327.695312 439.921875 329.246094 C 439.964844 329.910156 440.054688 330.433594 440.1875 330.808594 C 441.695312 335.085938 444.511719 337.738281 448.636719 338.757812 C 449.167969 338.890625 450.386719 338.957031 452.292969 338.957031 C 452.320312 338.957031 452.351562 338.957031 452.378906 338.957031 C 455.160156 338.957031 457.648438 337.882812 459.839844 335.730469 C 462.058594 333.558594 463.167969 331.042969 463.167969 328.179688 C 463.144531 324.613281 463.144531 322.59375 463.167969 322.128906 C 463.210938 320.355469 462.691406 318.703125 461.605469 317.175781 C 461.382812 316.839844 461.039062 316.386719 460.574219 315.8125 C 460.085938 315.167969 459.742188 314.714844 459.542969 314.445312 C 459.03125 313.738281 459.042969 313.015625 459.574219 312.285156 C 459.753906 312.0625 459.984375 311.796875 460.273438 311.488281 C 461.757812 309.980469 462.535156 307.984375 462.601562 305.5 L 462.636719 303.140625 L 462.636719 301.3125 C 462.722656 298.40625 461.671875 295.890625 459.476562 293.761719 C 457.503906 291.855469 455.230469 290.902344 452.660156 290.902344 L 451.328125 290.902344 C 451.171875 290.898438 451.015625 290.894531 450.859375 290.894531 Z M 462.402344 316.941406 C 462.425781 317.007812 462.445312 317.050781 462.46875 317.074219 C 462.84375 317.5625 463.089844 317.882812 463.199219 318.039062 C 464.332031 319.636719 464.875 321.363281 464.828125 323.226562 C 464.808594 324.203125 464.796875 325.644531 464.796875 327.550781 L 464.796875 329.277344 C 464.820312 332.226562 463.6875 334.832031 461.40625 337.09375 C 459.121094 339.332031 456.527344 340.453125 453.621094 340.453125 L 452.257812 340.453125 C 451.238281 340.453125 450.417969 340.375 449.796875 340.21875 C 449.730469 340.21875 449.65625 340.199219 449.566406 340.152344 C 449.457031 340.109375 449.378906 340.085938 449.335938 340.085938 L 449.332031 340.085938 C 449.910156 340.308594 450.476562 340.484375 451.027344 340.617188 C 451.5625 340.75 452.78125 340.828125 454.6875 340.851562 C 454.714844 340.851562 454.742188 340.851562 454.773438 340.851562 C 457.554688 340.851562 460.042969 339.777344 462.234375 337.625 C 464.453125 335.429688 465.5625 332.914062 465.5625 330.078125 C 465.5625 326.507812 465.5625 324.480469 465.5625 323.992188 C 465.605469 322.238281 465.097656 320.597656 464.03125 319.070312 C 463.96875 318.984375 463.425781 318.273438 462.40625 316.941406 Z M 462.402344 316.941406 " fill-opacity="1" fill-rule="nonzero"/><path fill="#6d5764" d="M 427.621094 276.46875 C 426.496094 276.507812 425.839844 276.789062 425.65625 277.304688 C 425.949219 277.214844 426.367188 277.160156 426.910156 277.140625 C 427.066406 277.140625 427.316406 277.144531 427.652344 277.144531 L 441.011719 277.199219 C 458.621094 277.273438 471.820312 277.328125 480.613281 277.367188 C 482.304688 277.375 483.339844 277.570312 483.722656 277.953125 C 484.101562 278.363281 484.289062 279.433594 484.28125 281.167969 L 484.28125 281.507812 C 484.277344 282.253906 484.253906 282.882812 484.207031 283.402344 C 484.410156 283.199219 484.535156 282.90625 484.582031 282.523438 C 484.628906 281.984375 484.65625 281.183594 484.660156 280.121094 C 484.667969 278.5 484.511719 277.53125 484.199219 277.210938 C 483.882812 276.875 482.9375 276.699219 481.359375 276.695312 C 476.332031 276.671875 458.734375 276.597656 428.570312 276.472656 C 428.074219 276.46875 427.757812 276.46875 427.621094 276.46875 Z M 425.921875 278.625 C 425.019531 278.667969 424.445312 278.8125 424.195312 279.058594 C 423.925781 279.304688 423.765625 279.855469 423.714844 280.714844 C 423.714844 280.9375 423.710938 281.492188 423.707031 282.371094 C 423.703125 284.039062 423.832031 285.019531 424.101562 285.3125 C 424.394531 285.609375 425.351562 285.757812 426.976562 285.765625 L 479.257812 285.984375 C 479.355469 285.984375 479.453125 285.984375 479.550781 285.984375 C 480.464844 285.984375 481.167969 285.964844 481.660156 285.925781 C 482.382812 285.839844 482.777344 285.425781 482.847656 284.679688 C 482.917969 284.140625 482.953125 283.351562 482.960938 282.3125 C 482.945312 280.691406 482.777344 279.710938 482.464844 279.371094 C 482.148438 279.03125 481.203125 278.855469 479.625 278.851562 C 473.765625 278.824219 456.179688 278.753906 426.871094 278.628906 C 426.375 278.628906 426.058594 278.625 425.921875 278.625 Z M 425.921875 278.625 " fill-opacity="1" fill-rule="nonzero"/></svg>