<svg xmlns="http://www.w3.org/2000/svg" xmlns:xlink="http://www.w3.org/1999/xlink" width="1000" zoomAndPan="magnify" viewBox="0 0 750 749.999995" height="1000" preserveAspectRatio="xMidYMid meet" version="1.0"><rect x="-75" width="900" fill="#ffffff" y="-74.999999" height="899.999994" fill-opacity="1"/><rect x="-75" width="900" fill="#ffffff" y="-74.999999" height="899.999994" fill-opacity="1"/><path fill="#000000" d="M 312.550781 169.316406 L 309.679688 170.414062 C 307.617188 171.144531 304.671875 171.878906 300.847656 172.609375 C 297.019531 173.339844 292.75 173.855469 288.039062 174.144531 L 283.84375 174.144531 L 283.84375 164.046875 L 288.039062 164.046875 C 294.957031 163.757812 301.363281 162.660156 307.25 160.757812 C 313.140625 158.855469 317.261719 157.097656 319.617188 155.488281 C 321.972656 153.878906 324.03125 152.269531 325.800781 150.660156 C 326.09375 150.21875 326.976562 150 328.449219 150 C 329.773438 150 331.027344 150.4375 332.203125 151.316406 L 332.203125 216.953125 L 332.425781 282.804688 C 333.453125 283.828125 334.335938 284.488281 335.074219 284.78125 C 335.808594 285.074219 337.578125 285.367188 340.375 285.660156 C 343.171875 285.953125 347.734375 286.097656 354.066406 286.097656 L 359.804688 286.097656 L 359.804688 296.195312 L 357.378906 296.195312 C 354.285156 295.757812 342.582031 295.535156 322.265625 295.535156 C 302.246094 295.535156 290.6875 295.757812 287.597656 296.195312 L 284.945312 296.195312 L 284.945312 286.097656 L 290.6875 286.097656 C 293.925781 286.097656 296.722656 286.097656 299.078125 286.097656 C 301.433594 286.097656 303.273438 286.023438 304.601562 285.878906 C 305.925781 285.730469 307.101562 285.511719 308.132812 285.21875 C 309.164062 284.925781 309.753906 284.78125 309.898438 284.78125 C 310.046875 284.78125 310.488281 284.414062 311.226562 283.683594 C 311.960938 282.953125 312.402344 282.660156 312.550781 282.804688 Z M 312.550781 169.316406 " fill-opacity="1" fill-rule="nonzero"/><path fill="#000000" d="M 412.140625 261.730469 C 412.140625 265.242188 410.964844 268.171875 408.609375 270.511719 C 406.253906 272.855469 403.382812 274.023438 399.996094 274.023438 L 398.449219 274.023438 C 405.222656 285.585938 414.203125 291.367188 425.390625 291.367188 C 435.695312 291.367188 443.203125 286.976562 447.914062 278.195312 C 450.710938 273.367188 452.109375 264 452.109375 250.097656 C 452.109375 235.023438 450.125 224.855469 446.148438 219.585938 C 442.320312 214.757812 438.050781 212.339844 433.339844 212.339844 L 432.015625 212.339844 C 420.53125 212.339844 411.847656 217.316406 405.957031 227.269531 C 405.371094 228.292969 404.855469 228.878906 404.414062 229.023438 C 403.972656 229.171875 402.867188 229.316406 401.101562 229.464844 C 398.597656 229.464844 397.199219 229.023438 396.90625 228.144531 C 396.609375 227.5625 396.464844 214.757812 396.464844 189.730469 L 396.464844 161.414062 C 396.464844 154.097656 396.832031 150.4375 397.566406 150.4375 C 397.863281 150.144531 398.15625 150 398.449219 150 C 398.597656 150 400.144531 150.585938 403.085938 151.757812 C 406.03125 152.925781 410.082031 154.097656 415.234375 155.269531 C 420.386719 156.4375 425.90625 157.023438 431.796875 157.023438 C 442.246094 157.023438 452.257812 154.976562 461.828125 150.878906 C 463.003906 150.292969 463.960938 150 464.699219 150 C 465.875 150 466.464844 151.316406 466.464844 153.953125 L 466.464844 156.804688 C 454.394531 171 439.304688 178.097656 421.195312 178.097656 C 416.632812 178.097656 412.507812 177.660156 408.828125 176.78125 L 406.621094 176.339844 L 406.621094 214.097656 C 409.417969 212.046875 411.625 210.4375 413.246094 209.269531 C 414.863281 208.097656 417.515625 206.925781 421.195312 205.757812 C 424.875 204.585938 428.628906 204 432.457031 204 C 444.382812 204 454.464844 208.757812 462.710938 218.269531 C 470.953125 227.78125 475.078125 239.046875 475.078125 252.074219 C 475.078125 265.535156 470.367188 277.023438 460.945312 286.535156 C 451.523438 296.046875 440.039062 300.878906 426.496094 301.023438 C 414.570312 301.023438 405 297.074219 397.789062 289.171875 C 390.574219 281.269531 386.96875 272.339844 386.96875 262.390625 C 386.96875 258.878906 387.777344 256.097656 389.398438 254.046875 C 391.015625 252 392.710938 250.683594 394.476562 250.097656 C 396.242188 249.511719 397.933594 249.21875 399.554688 249.21875 C 403.234375 249.21875 406.253906 250.464844 408.609375 252.953125 C 410.964844 255.4375 412.140625 258.367188 412.140625 261.730469 Z M 412.140625 261.730469 " fill-opacity="1" fill-rule="nonzero"/><path fill="#000000" d="M 289.585938 501 C 285.609375 501 282.445312 499.683594 280.089844 497.046875 C 277.734375 494.414062 276.554688 491.195312 276.554688 487.390625 C 276.554688 477 280.457031 468 288.257812 460.390625 C 296.0625 452.78125 305.777344 448.976562 317.40625 448.976562 C 330.804688 448.976562 341.992188 453.074219 350.972656 461.269531 C 359.953125 469.464844 364.515625 480.074219 364.664062 493.097656 C 364.664062 499.390625 363.191406 505.390625 360.246094 511.097656 C 357.304688 516.804688 353.769531 521.78125 349.648438 526.023438 C 345.527344 530.269531 339.636719 535.683594 331.984375 542.269531 C 326.683594 546.804688 319.320312 553.535156 309.898438 562.464844 L 296.871094 574.757812 L 313.652344 574.976562 C 336.765625 574.976562 349.058594 574.609375 350.53125 573.878906 C 351.5625 573.585938 353.328125 567.074219 355.832031 554.339844 L 355.832031 553.683594 L 364.664062 553.683594 L 364.664062 554.339844 C 364.515625 554.78125 363.558594 561.4375 361.792969 574.316406 C 360.027344 587.195312 358.921875 593.925781 358.480469 594.511719 L 358.480469 595.171875 L 276.554688 595.171875 L 276.554688 588.367188 C 276.554688 587.339844 276.996094 586.242188 277.878906 585.074219 C 278.765625 583.902344 280.972656 581.339844 284.503906 577.390625 C 288.773438 572.707031 292.453125 568.609375 295.546875 565.097656 C 296.871094 563.632812 299.375 560.925781 303.054688 556.976562 C 306.734375 553.023438 309.238281 550.316406 310.5625 548.855469 C 311.886719 547.390625 314.023438 544.976562 316.964844 541.609375 C 319.910156 538.242188 321.972656 535.757812 323.148438 534.144531 C 324.328125 532.535156 326.019531 530.339844 328.226562 527.5625 C 330.4375 524.78125 331.984375 522.4375 332.867188 520.535156 C 333.75 518.632812 334.851562 516.511719 336.179688 514.171875 C 337.503906 511.828125 338.460938 509.488281 339.046875 507.144531 C 339.636719 504.804688 340.152344 502.609375 340.59375 500.5625 C 341.035156 498.511719 341.257812 496.097656 341.257812 493.316406 C 341.257812 484.097656 338.753906 476.121094 333.75 469.390625 C 328.742188 462.660156 321.605469 459.292969 312.328125 459.292969 C 307.472656 459.292969 303.203125 460.535156 299.519531 463.023438 C 295.839844 465.511719 293.265625 467.925781 291.792969 470.269531 C 290.320312 472.609375 289.585938 474 289.585938 474.4375 C 289.585938 474.585938 289.953125 474.660156 290.6875 474.660156 C 293.339844 474.660156 296.0625 475.683594 298.859375 477.730469 C 301.65625 479.78125 303.054688 483.144531 303.054688 487.828125 C 303.054688 491.488281 301.875 494.5625 299.519531 497.046875 C 297.164062 499.535156 293.851562 500.855469 289.585938 501 Z M 289.585938 501 " fill-opacity="1" fill-rule="nonzero"/><path fill="#000000" d="M 388.070312 494.632812 C 388.21875 494.339844 389.46875 486.367188 391.824219 470.707031 L 395.359375 447.21875 C 395.359375 446.925781 396.832031 446.78125 399.777344 446.78125 L 404.191406 446.78125 L 404.191406 447.660156 C 404.191406 449.121094 405.296875 450.367188 407.503906 451.390625 C 409.710938 452.414062 413.539062 453.074219 418.988281 453.367188 C 424.433594 453.660156 436.875 453.804688 456.304688 453.804688 L 483.027344 453.804688 L 483.027344 462.367188 L 468.011719 482.78125 C 466.683594 484.535156 464.476562 487.464844 461.386719 491.5625 C 458.292969 495.660156 456.304688 498.367188 455.421875 499.683594 C 454.539062 501 452.996094 503.339844 450.785156 506.707031 C 448.578125 510.074219 447.105469 512.707031 446.371094 514.609375 C 445.632812 516.511719 444.601562 519.21875 443.277344 522.730469 C 441.953125 526.242188 440.996094 529.609375 440.40625 532.828125 C 439.816406 536.046875 439.230469 540 438.640625 544.683594 C 438.050781 549.367188 437.609375 554.339844 437.316406 559.609375 C 437.019531 564.878906 436.800781 570.878906 436.652344 577.609375 C 436.652344 579.660156 436.652344 581.707031 436.652344 583.757812 C 436.652344 585.804688 436.578125 587.5625 436.433594 589.023438 L 436.433594 591 C 435.84375 593.488281 434.445312 595.609375 432.238281 597.367188 C 430.027344 599.121094 427.527344 600 424.730469 600 C 423.109375 600 421.5625 599.78125 420.089844 599.339844 C 418.621094 598.902344 417.074219 597.511719 415.453125 595.171875 C 413.835938 592.828125 413.023438 589.902344 413.023438 586.390625 C 413.023438 563.269531 420.164062 539.269531 434.445312 514.390625 C 437.390625 509.707031 443.574219 500.855469 452.996094 487.828125 L 463.152344 474 L 442.617188 474 C 417 474 403.53125 474.4375 402.203125 475.316406 C 401.320312 475.757812 400.511719 477.511719 399.777344 480.585938 C 399.039062 483.660156 398.304688 486.804688 397.566406 490.023438 L 396.90625 494.632812 L 396.90625 495.292969 L 388.070312 495.292969 Z M 388.070312 494.632812 " fill-opacity="1" fill-rule="nonzero"/><path fill="#000000" d="M 243.433594 396.292969 L 508.421875 396.292969 L 508.421875 383.121094 L 243.433594 383.121094 Z M 243.433594 396.292969 " fill-opacity="1" fill-rule="nonzero"/></svg>