<svg xmlns="http://www.w3.org/2000/svg" xmlns:xlink="http://www.w3.org/1999/xlink" width="1000" zoomAndPan="magnify" viewBox="0 0 750 749.999995" height="1000" preserveAspectRatio="xMidYMid meet" version="1.0"><rect x="-75" width="900" fill="#ffffff" y="-74.999999" height="899.999994" fill-opacity="1"/><rect x="-75" width="900" fill="#ffffff" y="-74.999999" height="899.999994" fill-opacity="1"/><path fill="#000000" d="M 289.585938 202.023438 C 285.609375 202.023438 282.445312 200.707031 280.089844 198.074219 C 277.734375 195.4375 276.554688 192.21875 276.554688 188.414062 C 276.554688 178.023438 280.457031 169.023438 288.257812 161.414062 C 296.0625 153.804688 305.777344 150 317.40625 150 C 330.804688 150 341.992188 154.097656 350.972656 162.292969 C 359.953125 170.488281 364.515625 181.097656 364.664062 194.121094 C 364.664062 200.414062 363.191406 206.414062 360.246094 212.121094 C 357.304688 217.828125 353.769531 222.804688 349.648438 227.046875 C 345.527344 231.292969 339.636719 236.707031 331.984375 243.292969 C 326.683594 247.828125 319.320312 254.5625 309.898438 263.488281 L 296.871094 275.78125 L 313.652344 276 C 336.765625 276 349.058594 275.632812 350.53125 274.902344 C 351.5625 274.609375 353.328125 268.097656 355.832031 255.367188 L 355.832031 254.707031 L 364.664062 254.707031 L 364.664062 255.367188 C 364.515625 255.804688 363.558594 262.464844 361.792969 275.339844 C 360.027344 288.21875 358.921875 294.953125 358.480469 295.535156 L 358.480469 296.195312 L 276.554688 296.195312 L 276.554688 289.390625 C 276.554688 288.367188 276.996094 287.269531 277.878906 286.097656 C 278.765625 284.925781 280.972656 282.367188 284.503906 278.414062 C 288.773438 273.730469 292.453125 269.632812 295.546875 266.121094 C 296.871094 264.660156 299.375 261.953125 303.054688 258 C 306.734375 254.046875 309.238281 251.339844 310.5625 249.878906 C 311.886719 248.414062 314.023438 246 316.964844 242.632812 C 319.910156 239.269531 321.972656 236.78125 323.148438 235.171875 C 324.328125 233.5625 326.019531 231.367188 328.226562 228.585938 C 330.4375 225.804688 331.984375 223.464844 332.867188 221.5625 C 333.75 219.660156 334.851562 217.535156 336.179688 215.195312 C 337.503906 212.855469 338.460938 210.511719 339.046875 208.171875 C 339.636719 205.828125 340.152344 203.632812 340.59375 201.585938 C 341.035156 199.535156 341.257812 197.121094 341.257812 194.339844 C 341.257812 185.121094 338.753906 177.144531 333.75 170.414062 C 328.742188 163.683594 321.605469 160.316406 312.328125 160.316406 C 307.472656 160.316406 303.203125 161.5625 299.519531 164.046875 C 295.839844 166.535156 293.265625 168.953125 291.792969 171.292969 C 290.320312 173.632812 289.585938 175.023438 289.585938 175.464844 C 289.585938 175.609375 289.953125 175.683594 290.6875 175.683594 C 293.339844 175.683594 296.0625 176.707031 298.859375 178.757812 C 301.65625 180.804688 303.054688 184.171875 303.054688 188.855469 C 303.054688 192.511719 301.875 195.585938 299.519531 198.074219 C 297.164062 200.5625 293.851562 201.878906 289.585938 202.023438 Z M 289.585938 202.023438 " fill-opacity="1" fill-rule="nonzero"/><path fill="#000000" d="M 397.125 167.78125 C 405.371094 155.925781 416.632812 150 430.910156 150 C 437.976562 150 445.042969 151.902344 452.109375 155.707031 C 459.175781 159.511719 464.917969 166.242188 469.335938 175.902344 C 474.78125 188.046875 477.503906 204.730469 477.503906 225.953125 C 477.503906 248.632812 474.339844 265.976562 468.011719 277.976562 C 465.066406 284.121094 461.015625 289.023438 455.863281 292.683594 C 450.710938 296.339844 446.222656 298.609375 442.394531 299.488281 C 438.566406 300.367188 434.8125 300.878906 431.132812 301.023438 C 427.304688 301.023438 423.476562 300.585938 419.648438 299.707031 C 415.820312 298.828125 411.332031 296.488281 406.179688 292.683594 C 401.027344 288.878906 396.976562 283.976562 394.035156 277.976562 C 387.703125 265.976562 384.539062 248.632812 384.539062 225.953125 C 384.539062 200.488281 388.734375 181.097656 397.125 167.78125 Z M 446.8125 165.144531 C 442.394531 160.464844 437.167969 158.121094 431.132812 158.121094 C 424.949219 158.121094 419.648438 160.464844 415.234375 165.144531 C 411.554688 168.953125 409.125 174.21875 407.945312 180.953125 C 406.769531 187.683594 406.179688 201.730469 406.179688 223.097656 C 406.179688 246.21875 406.769531 261.4375 407.945312 268.757812 C 409.125 276.074219 411.773438 281.855469 415.894531 286.097656 C 420.019531 290.488281 425.097656 292.683594 431.132812 292.683594 C 437.019531 292.683594 442.027344 290.488281 446.148438 286.097656 C 450.417969 281.707031 453.066406 275.5625 454.097656 267.660156 C 455.128906 259.757812 455.71875 244.902344 455.863281 223.097656 C 455.863281 201.878906 455.277344 187.902344 454.097656 181.171875 C 452.921875 174.4375 450.492188 169.097656 446.8125 165.144531 Z M 446.8125 165.144531 " fill-opacity="1" fill-rule="nonzero"/><path fill="#000000" d="M 293.558594 493.535156 C 289.585938 493.535156 286.492188 492.292969 284.285156 489.804688 C 282.074219 487.316406 280.898438 484.097656 280.75 480.144531 C 280.75 472.097656 284.285156 464.925781 291.351562 458.632812 C 298.417969 452.339844 306.957031 449.195312 316.964844 449.195312 C 322.117188 449.195312 325.359375 449.269531 326.683594 449.414062 C 337.578125 451.171875 345.894531 455.046875 351.636719 461.046875 C 357.378906 467.046875 360.320312 473.5625 360.46875 480.585938 C 360.46875 488.195312 357.964844 495.585938 352.960938 502.757812 C 347.957031 509.925781 341.035156 515.121094 332.203125 518.339844 L 331.539062 518.78125 C 331.539062 518.925781 332.203125 519.144531 333.527344 519.4375 C 334.851562 519.730469 336.988281 520.390625 339.933594 521.414062 C 342.875 522.4375 345.671875 523.976562 348.324219 526.023438 C 360.394531 533.78125 366.429688 544.023438 366.429688 556.757812 C 366.429688 568.316406 361.867188 578.414062 352.738281 587.046875 C 343.613281 595.683594 332.054688 600 318.070312 600 C 306.292969 600 296.136719 596.855469 287.597656 590.5625 C 279.058594 584.269531 274.789062 576.292969 274.789062 566.632812 C 274.789062 562.535156 276.113281 559.242188 278.765625 556.757812 C 281.414062 554.269531 284.726562 552.953125 288.699219 552.804688 C 292.824219 552.804688 296.207031 554.121094 298.859375 556.757812 C 301.507812 559.390625 302.832031 562.683594 302.832031 566.632812 C 302.832031 568.242188 302.613281 569.707031 302.171875 571.023438 C 301.730469 572.339844 301.214844 573.511719 300.625 574.535156 C 300.035156 575.5625 299.226562 576.4375 298.195312 577.171875 C 297.164062 577.902344 296.28125 578.488281 295.546875 578.925781 C 294.808594 579.367188 294.074219 579.660156 293.339844 579.804688 C 292.601562 579.953125 292.011719 580.171875 291.570312 580.464844 L 290.6875 580.683594 C 298.195312 587.269531 307.324219 590.5625 318.070312 590.5625 C 326.167969 590.5625 332.277344 586.683594 336.398438 578.925781 C 338.902344 574.097656 340.152344 566.707031 340.152344 556.757812 L 340.152344 552.367188 C 340.152344 538.464844 335.441406 529.171875 326.019531 524.488281 C 323.8125 523.609375 319.320312 523.097656 312.550781 522.953125 L 303.273438 522.730469 L 302.613281 522.292969 C 302.320312 521.855469 302.171875 520.683594 302.171875 518.78125 C 302.171875 516.144531 302.761719 514.828125 303.9375 514.828125 C 308.058594 514.828125 312.328125 514.464844 316.746094 513.730469 C 321.75 513 326.316406 509.925781 330.4375 504.511719 C 334.558594 499.097656 336.621094 490.902344 336.621094 479.925781 L 336.621094 478.171875 C 336.621094 469.828125 334.042969 464.046875 328.890625 460.828125 C 325.652344 458.78125 322.191406 457.757812 318.511719 457.757812 C 313.800781 457.757812 309.457031 458.5625 305.484375 460.171875 C 301.507812 461.78125 298.710938 463.464844 297.09375 465.21875 C 295.472656 466.976562 294.664062 467.855469 294.664062 467.855469 L 295.324219 467.855469 C 295.765625 468 296.355469 468.144531 297.09375 468.292969 C 297.828125 468.4375 298.5625 468.804688 299.300781 469.390625 C 300.035156 469.976562 300.917969 470.488281 301.949219 470.925781 C 302.980469 471.367188 303.71875 472.171875 304.160156 473.339844 C 304.601562 474.511719 305.1875 475.609375 305.925781 476.632812 C 306.660156 477.660156 306.882812 479.121094 306.585938 481.023438 C 306.585938 484.242188 305.558594 487.097656 303.496094 489.585938 C 301.433594 492.074219 298.121094 493.390625 293.558594 493.535156 Z M 293.558594 493.535156 " fill-opacity="1" fill-rule="nonzero"/><path fill="#000000" d="M 385.199219 526.464844 C 385.199219 502.609375 391.164062 483.730469 403.085938 469.828125 C 415.011719 455.925781 428.261719 448.976562 442.835938 448.976562 C 452.996094 448.976562 460.28125 451.609375 464.699219 456.878906 C 469.113281 462.144531 471.324219 468 471.324219 474.4375 C 471.324219 478.097656 470.292969 481.023438 468.230469 483.21875 C 466.171875 485.414062 463.300781 486.511719 459.617188 486.511719 C 456.234375 486.511719 453.4375 485.488281 451.226562 483.4375 C 449.019531 481.390625 447.914062 478.535156 447.914062 474.878906 C 447.914062 468.4375 451.375 464.5625 458.292969 463.242188 C 455.054688 460.023438 450.492188 458.195312 444.601562 457.757812 C 434.152344 457.757812 425.539062 462.144531 418.765625 470.925781 C 411.847656 480.585938 408.386719 495.367188 408.386719 515.269531 L 408.609375 516.144531 C 409.34375 515.269531 409.933594 514.316406 410.375 513.292969 C 416.410156 504.511719 424.285156 500.121094 434.003906 500.121094 L 434.886719 500.121094 C 441.660156 500.121094 447.621094 501.511719 452.773438 504.292969 C 456.304688 506.339844 459.839844 509.269531 463.371094 513.074219 C 466.90625 516.878906 469.777344 521.046875 471.984375 525.585938 C 475.078125 532.757812 476.621094 540.585938 476.621094 549.074219 L 476.621094 553.023438 C 476.621094 556.390625 476.253906 559.535156 475.519531 562.464844 C 473.898438 571.097656 469.1875 579.511719 461.386719 587.707031 C 453.582031 595.902344 443.71875 600 431.796875 600 C 427.671875 600 423.699219 599.414062 419.871094 598.242188 C 416.042969 597.074219 411.921875 594.878906 407.503906 591.660156 C 403.085938 588.4375 399.332031 584.121094 396.242188 578.707031 C 393.152344 573.292969 390.5 566.195312 388.292969 557.414062 C 386.085938 548.632812 385.054688 538.316406 385.199219 526.464844 Z M 432.679688 508.023438 C 428.261719 508.023438 424.433594 509.269531 421.195312 511.757812 C 417.957031 514.242188 415.453125 517.535156 413.6875 521.632812 C 411.921875 525.730469 410.667969 529.902344 409.933594 534.144531 C 409.199219 538.390625 408.753906 542.925781 408.609375 547.757812 C 408.609375 559.902344 409.492188 568.609375 411.257812 573.878906 C 413.023438 579.144531 415.820312 583.390625 419.648438 586.609375 C 423.183594 589.242188 427.085938 590.5625 431.351562 590.5625 C 438.863281 590.5625 444.601562 587.78125 448.578125 582.21875 C 450.492188 579.585938 451.816406 576.292969 452.550781 572.339844 C 453.289062 568.390625 453.65625 560.707031 453.65625 549.292969 C 453.65625 537.585938 453.289062 529.757812 452.550781 525.804688 C 451.816406 521.855469 450.492188 518.5625 448.578125 515.925781 C 444.601562 510.660156 439.304688 508.023438 432.679688 508.023438 Z M 432.679688 508.023438 " fill-opacity="1" fill-rule="nonzero"/><path fill="#000000" d="M 243.433594 396.292969 L 508.421875 396.292969 L 508.421875 383.121094 L 243.433594 383.121094 Z M 243.433594 396.292969 " fill-opacity="1" fill-rule="nonzero"/></svg>