<svg xmlns="http://www.w3.org/2000/svg" xmlns:xlink="http://www.w3.org/1999/xlink" width="1000" zoomAndPan="magnify" viewBox="0 0 750 749.999995" height="1000" preserveAspectRatio="xMidYMid meet" version="1.0"><rect x="-75" width="900" fill="#ffffff" y="-74.999999" height="899.999994" fill-opacity="1"/><rect x="-75" width="900" fill="#ffffff" y="-74.999999" height="899.999994" fill-opacity="1"/><path fill="#000000" d="M 289.585938 202.023438 C 285.609375 202.023438 282.445312 200.707031 280.089844 198.074219 C 277.734375 195.4375 276.554688 192.21875 276.554688 188.414062 C 276.554688 178.023438 280.457031 169.023438 288.257812 161.414062 C 296.0625 153.804688 305.777344 150 317.40625 150 C 330.804688 150 341.992188 154.097656 350.972656 162.292969 C 359.953125 170.488281 364.515625 181.097656 364.664062 194.121094 C 364.664062 200.414062 363.191406 206.414062 360.246094 212.121094 C 357.304688 217.828125 353.769531 222.804688 349.648438 227.046875 C 345.527344 231.292969 339.636719 236.707031 331.984375 243.292969 C 326.683594 247.828125 319.320312 254.5625 309.898438 263.488281 L 296.871094 275.78125 L 313.652344 276 C 336.765625 276 349.058594 275.632812 350.53125 274.902344 C 351.5625 274.609375 353.328125 268.097656 355.832031 255.367188 L 355.832031 254.707031 L 364.664062 254.707031 L 364.664062 255.367188 C 364.515625 255.804688 363.558594 262.464844 361.792969 275.339844 C 360.027344 288.21875 358.921875 294.953125 358.480469 295.535156 L 358.480469 296.195312 L 276.554688 296.195312 L 276.554688 289.390625 C 276.554688 288.367188 276.996094 287.269531 277.878906 286.097656 C 278.765625 284.925781 280.972656 282.367188 284.503906 278.414062 C 288.773438 273.730469 292.453125 269.632812 295.546875 266.121094 C 296.871094 264.660156 299.375 261.953125 303.054688 258 C 306.734375 254.046875 309.238281 251.339844 310.5625 249.878906 C 311.886719 248.414062 314.023438 246 316.964844 242.632812 C 319.910156 239.269531 321.972656 236.78125 323.148438 235.171875 C 324.328125 233.5625 326.019531 231.367188 328.226562 228.585938 C 330.4375 225.804688 331.984375 223.464844 332.867188 221.5625 C 333.75 219.660156 334.851562 217.535156 336.179688 215.195312 C 337.503906 212.855469 338.460938 210.511719 339.046875 208.171875 C 339.636719 205.828125 340.152344 203.632812 340.59375 201.585938 C 341.035156 199.535156 341.257812 197.121094 341.257812 194.339844 C 341.257812 185.121094 338.753906 177.144531 333.75 170.414062 C 328.742188 163.683594 321.605469 160.316406 312.328125 160.316406 C 307.472656 160.316406 303.203125 161.5625 299.519531 164.046875 C 295.839844 166.535156 293.265625 168.953125 291.792969 171.292969 C 290.320312 173.632812 289.585938 175.023438 289.585938 175.464844 C 289.585938 175.609375 289.953125 175.683594 290.6875 175.683594 C 293.339844 175.683594 296.0625 176.707031 298.859375 178.757812 C 301.65625 180.804688 303.054688 184.171875 303.054688 188.855469 C 303.054688 192.511719 301.875 195.585938 299.519531 198.074219 C 297.164062 200.5625 293.851562 201.878906 289.585938 202.023438 Z M 289.585938 202.023438 " fill-opacity="1" fill-rule="nonzero"/><path fill="#000000" d="M 412.140625 261.730469 C 412.140625 265.242188 410.964844 268.171875 408.609375 270.511719 C 406.253906 272.855469 403.382812 274.023438 399.996094 274.023438 L 398.449219 274.023438 C 405.222656 285.585938 414.203125 291.367188 425.390625 291.367188 C 435.695312 291.367188 443.203125 286.976562 447.914062 278.195312 C 450.710938 273.367188 452.109375 264 452.109375 250.097656 C 452.109375 235.023438 450.125 224.855469 446.148438 219.585938 C 442.320312 214.757812 438.050781 212.339844 433.339844 212.339844 L 432.015625 212.339844 C 420.53125 212.339844 411.847656 217.316406 405.957031 227.269531 C 405.371094 228.292969 404.855469 228.878906 404.414062 229.023438 C 403.972656 229.171875 402.867188 229.316406 401.101562 229.464844 C 398.597656 229.464844 397.199219 229.023438 396.90625 228.144531 C 396.609375 227.5625 396.464844 214.757812 396.464844 189.730469 L 396.464844 161.414062 C 396.464844 154.097656 396.832031 150.4375 397.566406 150.4375 C 397.863281 150.144531 398.15625 150 398.449219 150 C 398.597656 150 400.144531 150.585938 403.085938 151.757812 C 406.03125 152.925781 410.082031 154.097656 415.234375 155.269531 C 420.386719 156.4375 425.90625 157.023438 431.796875 157.023438 C 442.246094 157.023438 452.257812 154.976562 461.828125 150.878906 C 463.003906 150.292969 463.960938 150 464.699219 150 C 465.875 150 466.464844 151.316406 466.464844 153.953125 L 466.464844 156.804688 C 454.394531 171 439.304688 178.097656 421.195312 178.097656 C 416.632812 178.097656 412.507812 177.660156 408.828125 176.78125 L 406.621094 176.339844 L 406.621094 214.097656 C 409.417969 212.046875 411.625 210.4375 413.246094 209.269531 C 414.863281 208.097656 417.515625 206.925781 421.195312 205.757812 C 424.875 204.585938 428.628906 204 432.457031 204 C 444.382812 204 454.464844 208.757812 462.710938 218.269531 C 470.953125 227.78125 475.078125 239.046875 475.078125 252.074219 C 475.078125 265.535156 470.367188 277.023438 460.945312 286.535156 C 451.523438 296.046875 440.039062 300.878906 426.496094 301.023438 C 414.570312 301.023438 405 297.074219 397.789062 289.171875 C 390.574219 281.269531 386.96875 272.339844 386.96875 262.390625 C 386.96875 258.878906 387.777344 256.097656 389.398438 254.046875 C 391.015625 252 392.710938 250.683594 394.476562 250.097656 C 396.242188 249.511719 397.933594 249.21875 399.554688 249.21875 C 403.234375 249.21875 406.253906 250.464844 408.609375 252.953125 C 410.964844 255.4375 412.140625 258.367188 412.140625 261.730469 Z M 412.140625 261.730469 " fill-opacity="1" fill-rule="nonzero"/><path fill="#000000" d="M 367.535156 595.171875 C 364.886719 594.730469 355.390625 594.511719 339.046875 594.511719 C 321.972656 594.511719 312.109375 594.730469 309.457031 595.171875 L 307.472656 595.171875 L 307.472656 585.074219 L 314.316406 585.074219 C 317.261719 585.074219 319.25 585.074219 320.277344 585.074219 C 321.308594 585.074219 322.5625 584.925781 324.03125 584.632812 C 325.503906 584.339844 326.535156 583.976562 327.125 583.535156 C 327.714844 583.097656 328.226562 582.511719 328.671875 581.78125 C 328.816406 581.488281 328.890625 577.535156 328.890625 569.925781 L 328.890625 558.953125 L 271.699219 558.953125 L 271.699219 548.855469 L 305.042969 498.144531 C 327.566406 464.195312 338.976562 447.144531 339.269531 447 C 339.5625 446.707031 341.109375 446.5625 343.90625 446.5625 L 347.882812 446.5625 L 349.207031 447.878906 L 349.207031 548.855469 L 369.523438 548.855469 L 369.523438 558.953125 L 349.207031 558.953125 L 349.207031 570.144531 C 349.207031 576.144531 349.207031 579.660156 349.207031 580.683594 C 349.207031 581.707031 349.648438 582.585938 350.53125 583.316406 C 351.710938 584.339844 355.90625 584.925781 363.117188 585.074219 L 369.523438 585.074219 L 369.523438 595.171875 Z M 330.214844 548.855469 L 330.214844 475.535156 L 281.855469 548.632812 L 305.925781 548.855469 Z M 330.214844 548.855469 " fill-opacity="1" fill-rule="nonzero"/><path fill="#000000" d="M 412.140625 560.707031 C 412.140625 564.21875 410.964844 567.144531 408.609375 569.488281 C 406.253906 571.828125 403.382812 573 399.996094 573 L 398.449219 573 C 405.222656 584.5625 414.203125 590.339844 425.390625 590.339844 C 435.695312 590.339844 443.203125 585.953125 447.914062 577.171875 C 450.710938 572.339844 452.109375 562.976562 452.109375 549.074219 C 452.109375 534 450.125 523.828125 446.148438 518.5625 C 442.320312 513.730469 438.050781 511.316406 433.339844 511.316406 L 432.015625 511.316406 C 420.53125 511.316406 411.847656 516.292969 405.957031 526.242188 C 405.371094 527.269531 404.855469 527.855469 404.414062 528 C 403.972656 528.144531 402.867188 528.292969 401.101562 528.4375 C 398.597656 528.4375 397.199219 528 396.90625 527.121094 C 396.609375 526.535156 396.464844 513.730469 396.464844 488.707031 L 396.464844 460.390625 C 396.464844 453.074219 396.832031 449.414062 397.566406 449.414062 C 397.863281 449.121094 398.15625 448.976562 398.449219 448.976562 C 398.597656 448.976562 400.144531 449.5625 403.085938 450.730469 C 406.03125 451.902344 410.082031 453.074219 415.234375 454.242188 C 420.386719 455.414062 425.90625 456 431.796875 456 C 442.246094 456 452.257812 453.953125 461.828125 449.855469 C 463.003906 449.269531 463.960938 448.976562 464.699219 448.976562 C 465.875 448.976562 466.464844 450.292969 466.464844 452.925781 L 466.464844 455.78125 C 454.394531 469.976562 439.304688 477.074219 421.195312 477.074219 C 416.632812 477.074219 412.507812 476.632812 408.828125 475.757812 L 406.621094 475.316406 L 406.621094 513.074219 C 409.417969 511.023438 411.625 509.414062 413.246094 508.242188 C 414.863281 507.074219 417.515625 505.902344 421.195312 504.730469 C 424.875 503.5625 428.628906 502.976562 432.457031 502.976562 C 444.382812 502.976562 454.464844 507.730469 462.710938 517.242188 C 470.953125 526.757812 475.078125 538.023438 475.078125 551.046875 C 475.078125 564.511719 470.367188 576 460.945312 585.511719 C 451.523438 595.023438 440.039062 599.855469 426.496094 600 C 414.570312 600 405 596.046875 397.789062 588.144531 C 390.574219 580.242188 386.96875 571.316406 386.96875 561.367188 C 386.96875 557.855469 387.777344 555.074219 389.398438 553.023438 C 391.015625 550.976562 392.710938 549.660156 394.476562 549.074219 C 396.242188 548.488281 397.933594 548.195312 399.554688 548.195312 C 403.234375 548.195312 406.253906 549.4375 408.609375 551.925781 C 410.964844 554.414062 412.140625 557.339844 412.140625 560.707031 Z M 412.140625 560.707031 " fill-opacity="1" fill-rule="nonzero"/><path fill="#000000" d="M 243.433594 396.292969 L 508.421875 396.292969 L 508.421875 383.121094 L 243.433594 383.121094 Z M 243.433594 396.292969 " fill-opacity="1" fill-rule="nonzero"/></svg>