<svg xmlns="http://www.w3.org/2000/svg" xmlns:xlink="http://www.w3.org/1999/xlink" width="1000" zoomAndPan="magnify" viewBox="0 0 750 749.999995" height="1000" preserveAspectRatio="xMidYMid meet" version="1.0"><defs><clipPath id="0ab18c758d"><path d="M 111 292.5 L 213 292.5 L 213 457.5 L 111 457.5 Z M 111 292.5 " clip-rule="nonzero"/></clipPath><clipPath id="78b371d696"><path d="M 298 292.5 L 398 292.5 L 398 457.5 L 298 457.5 Z M 298 292.5 " clip-rule="nonzero"/></clipPath><clipPath id="6fef21221d"><path d="M 418 292.5 L 518 292.5 L 518 457.5 L 418 457.5 Z M 418 292.5 " clip-rule="nonzero"/></clipPath><clipPath id="107fdfe169"><path d="M 537 292.5 L 638 292.5 L 638 457.5 L 537 457.5 Z M 537 292.5 " clip-rule="nonzero"/></clipPath></defs><rect x="-75" width="900" fill="#ffffff" y="-74.999999" height="899.999994" fill-opacity="1"/><rect x="-75" width="900" fill="#ffffff" y="-74.999999" height="899.999994" fill-opacity="1"/><g clip-path="url(#0ab18c758d)"><path fill="#000000" d="M 124.828125 311.925781 C 133.773438 298.976562 145.992188 292.5 161.484375 292.5 C 169.148438 292.5 176.816406 294.578125 184.480469 298.734375 C 192.148438 302.890625 198.378906 310.246094 203.167969 320.800781 C 209.078125 334.070312 212.03125 352.296875 212.03125 375.480469 C 212.03125 400.261719 208.597656 419.207031 201.730469 432.316406 C 198.535156 439.035156 194.144531 444.390625 188.554688 448.386719 C 182.964844 452.382812 178.09375 454.863281 173.941406 455.820312 C 169.789062 456.78125 165.714844 457.339844 161.722656 457.5 C 157.570312 457.5 153.417969 457.019531 149.265625 456.0625 C 145.113281 455.101562 140.242188 452.542969 134.652344 448.386719 C 129.0625 444.230469 124.667969 438.875 121.476562 432.316406 C 114.609375 419.207031 111.171875 400.261719 111.171875 375.480469 C 111.171875 347.660156 115.726562 326.476562 124.828125 311.925781 Z M 178.730469 309.046875 C 173.941406 303.933594 168.269531 301.375 161.722656 301.375 C 155.015625 301.375 149.265625 303.933594 144.472656 309.046875 C 140.480469 313.203125 137.847656 318.960938 136.566406 326.316406 C 135.289062 333.671875 134.652344 349.019531 134.652344 372.363281 C 134.652344 397.625 135.289062 414.25 136.566406 422.246094 C 137.847656 430.238281 140.71875 436.554688 145.191406 441.191406 C 149.664062 445.988281 155.175781 448.386719 161.722656 448.386719 C 168.113281 448.386719 173.542969 445.988281 178.011719 441.191406 C 182.644531 436.394531 185.519531 429.679688 186.636719 421.046875 C 187.757812 412.414062 188.394531 396.183594 188.554688 372.363281 C 188.554688 349.179688 187.914062 333.910156 186.636719 326.554688 C 185.359375 319.199219 182.726562 313.363281 178.730469 309.046875 Z M 178.730469 309.046875 " fill-opacity="1" fill-rule="nonzero"/></g><path fill="#000000" d="M 240.300781 437.835938 C 240.300781 433.996094 241.660156 430.640625 244.375 427.761719 C 247.089844 424.882812 250.523438 423.445312 254.675781 423.445312 C 258.507812 423.445312 261.863281 424.722656 264.738281 427.28125 C 267.613281 429.839844 269.128906 433.277344 269.289062 437.59375 C 269.289062 441.589844 267.933594 445.027344 265.21875 447.90625 C 262.5 450.785156 259.066406 452.222656 254.914062 452.222656 C 250.761719 452.222656 247.328125 450.863281 244.613281 448.148438 C 241.898438 445.429688 240.460938 441.992188 240.300781 437.835938 Z M 240.300781 437.835938 " fill-opacity="1" fill-rule="nonzero"/><g clip-path="url(#78b371d696)"><path fill="#000000" d="M 318.640625 341.183594 C 314.328125 341.183594 310.972656 339.824219 308.578125 337.109375 C 306.183594 334.390625 304.90625 330.871094 304.746094 326.554688 C 304.746094 317.761719 308.578125 309.925781 316.246094 303.050781 C 323.910156 296.175781 333.175781 292.738281 344.035156 292.738281 C 349.625 292.738281 353.140625 292.820312 354.574219 292.980469 C 366.394531 294.898438 375.417969 299.136719 381.648438 305.691406 C 387.875 312.246094 391.070312 319.359375 391.230469 327.035156 C 391.230469 335.347656 388.515625 343.421875 383.085938 351.257812 C 377.65625 359.089844 370.148438 364.765625 360.566406 368.285156 L 359.847656 368.765625 C 359.847656 368.925781 360.566406 369.164062 362.003906 369.484375 C 363.441406 369.804688 365.757812 370.523438 368.949219 371.640625 C 372.144531 372.761719 375.179688 374.441406 378.054688 376.679688 C 391.152344 385.152344 397.699219 396.34375 397.699219 410.253906 C 397.699219 422.886719 392.746094 433.917969 382.84375 443.351562 C 372.941406 452.785156 360.40625 457.5 345.234375 457.5 C 332.457031 457.5 321.4375 454.0625 312.171875 447.1875 C 302.910156 440.3125 298.277344 431.597656 298.277344 421.046875 C 298.277344 416.570312 299.714844 412.972656 302.589844 410.253906 C 305.464844 407.535156 309.058594 406.097656 313.371094 405.9375 C 317.84375 405.9375 321.515625 407.375 324.390625 410.253906 C 327.265625 413.132812 328.703125 416.730469 328.703125 421.046875 C 328.703125 422.804688 328.464844 424.402344 327.984375 425.84375 C 327.503906 427.28125 326.945312 428.5625 326.308594 429.679688 C 325.667969 430.800781 324.789062 431.757812 323.671875 432.558594 C 322.554688 433.359375 321.59375 433.996094 320.796875 434.476562 C 320 434.957031 319.199219 435.277344 318.402344 435.4375 C 317.601562 435.597656 316.964844 435.835938 316.484375 436.15625 L 315.527344 436.394531 C 323.671875 443.589844 333.574219 447.1875 345.234375 447.1875 C 354.015625 447.1875 360.644531 442.949219 365.117188 434.476562 C 367.832031 429.199219 369.191406 421.125 369.191406 410.253906 L 369.191406 405.457031 C 369.191406 390.269531 364.078125 380.117188 353.859375 375 C 351.460938 374.039062 346.589844 373.480469 339.242188 373.320312 L 329.183594 373.082031 L 328.464844 372.601562 C 328.144531 372.121094 327.984375 370.84375 327.984375 368.765625 C 327.984375 365.886719 328.621094 364.449219 329.902344 364.449219 C 334.371094 364.449219 339.003906 364.046875 343.796875 363.25 C 349.226562 362.449219 354.175781 359.089844 358.648438 353.175781 C 363.121094 347.261719 365.355469 338.308594 365.355469 326.316406 L 365.355469 324.398438 C 365.355469 315.285156 362.5625 308.96875 356.972656 305.449219 C 353.457031 303.210938 349.703125 302.09375 345.710938 302.09375 C 340.601562 302.09375 335.890625 302.972656 331.578125 304.730469 C 327.265625 306.488281 324.230469 308.328125 322.472656 310.246094 C 320.71875 312.164062 319.839844 313.125 319.839844 313.125 L 320.558594 313.125 C 321.035156 313.285156 321.675781 313.445312 322.472656 313.605469 C 323.273438 313.765625 324.070312 314.164062 324.871094 314.804688 C 325.667969 315.441406 326.625 316.003906 327.746094 316.484375 C 328.863281 316.960938 329.660156 317.839844 330.140625 319.121094 C 330.621094 320.398438 331.257812 321.597656 332.054688 322.71875 C 332.855469 323.835938 333.09375 325.4375 332.773438 327.515625 C 332.773438 331.03125 331.65625 334.148438 329.421875 336.867188 C 327.183594 339.585938 323.59375 341.023438 318.640625 341.183594 Z M 318.640625 341.183594 " fill-opacity="1" fill-rule="nonzero"/></g><g clip-path="url(#6fef21221d)"><path fill="#000000" d="M 438.425781 341.183594 C 434.113281 341.183594 430.757812 339.824219 428.363281 337.109375 C 425.96875 334.390625 424.691406 330.871094 424.53125 326.554688 C 424.53125 317.761719 428.363281 309.925781 436.03125 303.050781 C 443.695312 296.175781 452.960938 292.738281 463.820312 292.738281 C 469.410156 292.738281 472.921875 292.820312 474.359375 292.980469 C 486.179688 294.898438 495.203125 299.136719 501.433594 305.691406 C 507.660156 312.246094 510.855469 319.359375 511.015625 327.035156 C 511.015625 335.347656 508.300781 343.421875 502.871094 351.257812 C 497.4375 359.089844 489.933594 364.765625 480.351562 368.285156 L 479.632812 368.765625 C 479.632812 368.925781 480.351562 369.164062 481.789062 369.484375 C 483.226562 369.804688 485.539062 370.523438 488.734375 371.640625 C 491.929688 372.761719 494.964844 374.441406 497.839844 376.679688 C 510.933594 385.152344 517.484375 396.34375 517.484375 410.253906 C 517.484375 422.886719 512.53125 433.917969 502.628906 443.351562 C 492.726562 452.785156 480.191406 457.5 465.019531 457.5 C 452.242188 457.5 441.21875 454.0625 431.957031 447.1875 C 422.695312 440.3125 418.0625 431.597656 418.0625 421.046875 C 418.0625 416.570312 419.5 412.972656 422.375 410.253906 C 425.25 407.535156 428.84375 406.097656 433.15625 405.9375 C 437.625 405.9375 441.300781 407.375 444.175781 410.253906 C 447.050781 413.132812 448.488281 416.730469 448.488281 421.046875 C 448.488281 422.804688 448.246094 424.402344 447.769531 425.84375 C 447.289062 427.28125 446.730469 428.5625 446.089844 429.679688 C 445.453125 430.800781 444.574219 431.757812 443.457031 432.558594 C 442.339844 433.359375 441.378906 433.996094 440.582031 434.476562 C 439.78125 434.957031 438.984375 435.277344 438.1875 435.4375 C 437.386719 435.597656 436.75 435.835938 436.269531 436.15625 L 435.3125 436.394531 C 443.457031 443.589844 453.359375 447.1875 465.019531 447.1875 C 473.800781 447.1875 480.429688 442.949219 484.902344 434.476562 C 487.617188 429.199219 488.972656 421.125 488.972656 410.253906 L 488.972656 405.457031 C 488.972656 390.269531 483.863281 380.117188 473.640625 375 C 471.246094 374.039062 466.375 373.480469 459.027344 373.320312 L 448.964844 373.082031 L 448.246094 372.601562 C 447.929688 372.121094 447.769531 370.84375 447.769531 368.765625 C 447.769531 365.886719 448.40625 364.449219 449.683594 364.449219 C 454.15625 364.449219 458.789062 364.046875 463.582031 363.25 C 469.011719 362.449219 473.960938 359.089844 478.433594 353.175781 C 482.90625 347.261719 485.140625 338.308594 485.140625 326.316406 L 485.140625 324.398438 C 485.140625 315.285156 482.347656 308.96875 476.757812 305.449219 C 473.242188 303.210938 469.488281 302.09375 465.496094 302.09375 C 460.386719 302.09375 455.675781 302.972656 451.363281 304.730469 C 447.050781 306.488281 444.015625 308.328125 442.257812 310.246094 C 440.5 312.164062 439.625 313.125 439.625 313.125 L 440.34375 313.125 C 440.820312 313.285156 441.460938 313.445312 442.257812 313.605469 C 443.058594 313.765625 443.855469 314.164062 444.652344 314.804688 C 445.453125 315.441406 446.410156 316.003906 447.527344 316.484375 C 448.648438 316.960938 449.445312 317.839844 449.925781 319.121094 C 450.402344 320.398438 451.042969 321.597656 451.839844 322.71875 C 452.640625 323.835938 452.878906 325.4375 452.558594 327.515625 C 452.558594 331.03125 451.441406 334.148438 449.207031 336.867188 C 446.96875 339.585938 443.375 341.023438 438.425781 341.183594 Z M 438.425781 341.183594 " fill-opacity="1" fill-rule="nonzero"/></g><g clip-path="url(#107fdfe169)"><path fill="#000000" d="M 558.210938 341.183594 C 553.898438 341.183594 550.542969 339.824219 548.148438 337.109375 C 545.753906 334.390625 544.476562 330.871094 544.316406 326.554688 C 544.316406 317.761719 548.148438 309.925781 555.8125 303.050781 C 563.480469 296.175781 572.742188 292.738281 583.605469 292.738281 C 589.195312 292.738281 592.707031 292.820312 594.144531 292.980469 C 605.964844 294.898438 614.988281 299.136719 621.21875 305.691406 C 627.445312 312.246094 630.640625 319.359375 630.800781 327.035156 C 630.800781 335.347656 628.085938 343.421875 622.652344 351.257812 C 617.222656 359.089844 609.71875 364.765625 600.132812 368.285156 L 599.417969 368.765625 C 599.417969 368.925781 600.132812 369.164062 601.570312 369.484375 C 603.007812 369.804688 605.324219 370.523438 608.519531 371.640625 C 611.714844 372.761719 614.75 374.441406 617.625 376.679688 C 630.71875 385.152344 637.269531 396.34375 637.269531 410.253906 C 637.269531 422.886719 632.316406 433.917969 622.414062 443.351562 C 612.511719 452.785156 599.976562 457.5 584.800781 457.5 C 572.023438 457.5 561.003906 454.0625 551.742188 447.1875 C 542.476562 440.3125 537.847656 431.597656 537.847656 421.046875 C 537.847656 416.570312 539.285156 412.972656 542.160156 410.253906 C 545.035156 407.535156 548.628906 406.097656 552.941406 405.9375 C 557.410156 405.9375 561.085938 407.375 563.960938 410.253906 C 566.835938 413.132812 568.273438 416.730469 568.273438 421.046875 C 568.273438 422.804688 568.03125 424.402344 567.554688 425.84375 C 567.074219 427.28125 566.515625 428.5625 565.875 429.679688 C 565.238281 430.800781 564.359375 431.757812 563.242188 432.558594 C 562.125 433.359375 561.164062 433.996094 560.367188 434.476562 C 559.566406 434.957031 558.769531 435.277344 557.96875 435.4375 C 557.171875 435.597656 556.53125 435.835938 556.054688 436.15625 L 555.097656 436.394531 C 563.242188 443.589844 573.144531 447.1875 584.800781 447.1875 C 593.585938 447.1875 600.214844 442.949219 604.6875 434.476562 C 607.402344 429.199219 608.757812 421.125 608.757812 410.253906 L 608.757812 405.457031 C 608.757812 390.269531 603.648438 380.117188 593.425781 375 C 591.03125 374.039062 586.160156 373.480469 578.8125 373.320312 L 568.75 373.082031 L 568.03125 372.601562 C 567.714844 372.121094 567.554688 370.84375 567.554688 368.765625 C 567.554688 365.886719 568.191406 364.449219 569.46875 364.449219 C 573.941406 364.449219 578.574219 364.046875 583.363281 363.25 C 588.796875 362.449219 593.746094 359.089844 598.21875 353.175781 C 602.691406 347.261719 604.925781 338.308594 604.925781 326.316406 L 604.925781 324.398438 C 604.925781 315.285156 602.132812 308.96875 596.542969 305.449219 C 593.027344 303.210938 589.273438 302.09375 585.28125 302.09375 C 580.171875 302.09375 575.460938 302.972656 571.148438 304.730469 C 566.835938 306.488281 563.800781 308.328125 562.042969 310.246094 C 560.285156 312.164062 559.40625 313.125 559.40625 313.125 L 560.125 313.125 C 560.605469 313.285156 561.246094 313.445312 562.042969 313.605469 C 562.839844 313.765625 563.640625 314.164062 564.4375 314.804688 C 565.238281 315.441406 566.195312 316.003906 567.3125 316.484375 C 568.433594 316.960938 569.230469 317.839844 569.710938 319.121094 C 570.1875 320.398438 570.828125 321.597656 571.625 322.71875 C 572.425781 323.835938 572.664062 325.4375 572.34375 327.515625 C 572.34375 331.03125 571.226562 334.148438 568.992188 336.867188 C 566.753906 339.585938 563.160156 341.023438 558.210938 341.183594 Z M 558.210938 341.183594 " fill-opacity="1" fill-rule="nonzero"/></g><path stroke-linecap="butt" transform="matrix(0.75, 0, 0, 0.75, 557.632895, 270.023503)" fill="none" stroke-linejoin="miter" d="M -0.000110633 1.999913 L 78.781143 1.999913 " stroke="#000000" stroke-width="4" stroke-opacity="1" stroke-miterlimit="4"/></svg>