<svg xmlns="http://www.w3.org/2000/svg" xmlns:xlink="http://www.w3.org/1999/xlink" width="1000" zoomAndPan="magnify" viewBox="0 0 750 749.999995" height="1000" preserveAspectRatio="xMidYMid meet" version="1.0"><defs><clipPath id="5fa3ec64bf"><path d="M 114.375 114.375 L 635.625 114.375 L 635.625 635.625 L 114.375 635.625 Z M 114.375 114.375 " clip-rule="nonzero"/></clipPath><clipPath id="d3c4ba189e"><path d="M 249 382 L 369 382 L 369 622.195312 L 249 622.195312 Z M 249 382 " clip-rule="nonzero"/></clipPath><clipPath id="8a751e986c"><path d="M 372 382 L 494 382 L 494 622.195312 L 372 622.195312 Z M 372 382 " clip-rule="nonzero"/></clipPath><clipPath id="e7d905d971"><path d="M 127.265625 376 L 363 376 L 363 495 L 127.265625 495 Z M 127.265625 376 " clip-rule="nonzero"/></clipPath><clipPath id="34b0610c24"><path d="M 127.265625 254 L 363 254 L 363 373 L 127.265625 373 Z M 127.265625 254 " clip-rule="nonzero"/></clipPath></defs><rect x="-75" width="900" fill="#ffffff" y="-74.999999" height="899.999994" fill-opacity="1"/><rect x="-75" width="900" fill="#ffffff" y="-74.999999" height="899.999994" fill-opacity="1"/><g clip-path="url(#5fa3ec64bf)"><path fill="#000000" d="M 635.625 375 C 635.625 379.265625 635.519531 383.527344 635.3125 387.789062 C 635.101562 392.046875 634.789062 396.300781 634.371094 400.546875 C 633.953125 404.789062 633.429688 409.023438 632.804688 413.242188 C 632.179688 417.460938 631.449219 421.660156 630.617188 425.84375 C 629.785156 430.027344 628.851562 434.1875 627.8125 438.328125 C 626.777344 442.464844 625.640625 446.574219 624.402344 450.65625 C 623.164062 454.738281 621.828125 458.785156 620.390625 462.800781 C 618.953125 466.816406 617.417969 470.796875 615.785156 474.738281 C 614.152344 478.675781 612.425781 482.574219 610.601562 486.429688 C 608.777344 490.289062 606.859375 494.097656 604.851562 497.859375 C 602.839844 501.621094 600.738281 505.328125 598.546875 508.988281 C 596.351562 512.644531 594.070312 516.25 591.703125 519.796875 C 589.332031 523.34375 586.875 526.828125 584.335938 530.253906 C 581.796875 533.679688 579.171875 537.042969 576.464844 540.339844 C 573.761719 543.636719 570.976562 546.863281 568.109375 550.023438 C 565.246094 553.183594 562.304688 556.273438 559.289062 559.289062 C 556.273438 562.304688 553.183594 565.246094 550.023438 568.109375 C 546.863281 570.976562 543.636719 573.761719 540.339844 576.464844 C 537.042969 579.171875 533.679688 581.796875 530.253906 584.335938 C 526.828125 586.875 523.34375 589.332031 519.796875 591.703125 C 516.25 594.070312 512.644531 596.351562 508.988281 598.546875 C 505.328125 600.738281 501.621094 602.839844 497.859375 604.851562 C 494.097656 606.859375 490.289062 608.777344 486.429688 610.601562 C 482.574219 612.425781 478.675781 614.152344 474.738281 615.785156 C 470.796875 617.417969 466.816406 618.953125 462.800781 620.390625 C 458.785156 621.828125 454.738281 623.164062 450.65625 624.402344 C 446.574219 625.640625 442.464844 626.777344 438.328125 627.8125 C 434.1875 628.851562 430.027344 629.785156 425.84375 630.617188 C 421.660156 631.449219 417.460938 632.179688 413.242188 632.804688 C 409.023438 633.429688 404.789062 633.953125 400.546875 634.371094 C 396.300781 634.789062 392.046875 635.101562 387.789062 635.3125 C 383.527344 635.519531 379.265625 635.625 375 635.625 C 370.734375 635.625 366.472656 635.519531 362.210938 635.3125 C 357.953125 635.101562 353.699219 634.789062 349.453125 634.371094 C 345.210938 633.953125 340.976562 633.429688 336.757812 632.804688 C 332.539062 632.179688 328.335938 631.449219 324.15625 630.617188 C 319.972656 629.785156 315.8125 628.851562 311.671875 627.8125 C 307.535156 626.777344 303.425781 625.640625 299.34375 624.402344 C 295.261719 623.164062 291.214844 621.828125 287.199219 620.390625 C 283.183594 618.953125 279.203125 617.417969 275.261719 615.785156 C 271.324219 614.152344 267.425781 612.425781 263.570312 610.601562 C 259.710938 608.777344 255.902344 606.859375 252.140625 604.851562 C 248.378906 602.839844 244.671875 600.738281 241.011719 598.546875 C 237.351562 596.351562 233.75 594.070312 230.203125 591.703125 C 226.65625 589.332031 223.171875 586.875 219.746094 584.335938 C 216.320312 581.796875 212.957031 579.171875 209.660156 576.464844 C 206.363281 573.761719 203.136719 570.976562 199.976562 568.109375 C 196.816406 565.246094 193.726562 562.304688 190.710938 559.289062 C 187.695312 556.273438 184.753906 553.183594 181.890625 550.023438 C 179.023438 546.863281 176.238281 543.636719 173.535156 540.339844 C 170.828125 537.042969 168.203125 533.679688 165.664062 530.253906 C 163.125 526.828125 160.667969 523.34375 158.296875 519.796875 C 155.929688 516.25 153.648438 512.644531 151.453125 508.988281 C 149.261719 505.328125 147.160156 501.621094 145.148438 497.859375 C 143.136719 494.097656 141.222656 490.289062 139.398438 486.429688 C 137.574219 482.574219 135.847656 478.675781 134.214844 474.738281 C 132.582031 470.796875 131.046875 466.816406 129.609375 462.800781 C 128.171875 458.785156 126.835938 454.738281 125.597656 450.65625 C 124.359375 446.574219 123.222656 442.464844 122.1875 438.328125 C 121.148438 434.1875 120.214844 430.027344 119.382812 425.84375 C 118.550781 421.660156 117.820312 417.460938 117.195312 413.242188 C 116.570312 409.023438 116.046875 404.789062 115.628906 400.546875 C 115.210938 396.300781 114.898438 392.046875 114.6875 387.789062 C 114.480469 383.527344 114.375 379.265625 114.375 375 C 114.375 370.734375 114.480469 366.472656 114.6875 362.210938 C 114.898438 357.953125 115.210938 353.699219 115.628906 349.453125 C 116.046875 345.210938 116.570312 340.976562 117.195312 336.757812 C 117.820312 332.539062 118.550781 328.339844 119.382812 324.15625 C 120.214844 319.972656 121.148438 315.8125 122.1875 311.671875 C 123.222656 307.535156 124.359375 303.425781 125.597656 299.34375 C 126.835938 295.261719 128.171875 291.214844 129.609375 287.199219 C 131.046875 283.183594 132.582031 279.203125 134.214844 275.261719 C 135.847656 271.324219 137.574219 267.425781 139.398438 263.570312 C 141.222656 259.710938 143.136719 255.902344 145.148438 252.140625 C 147.160156 248.378906 149.261719 244.671875 151.453125 241.011719 C 153.648438 237.351562 155.929688 233.75 158.296875 230.203125 C 160.667969 226.65625 163.125 223.171875 165.664062 219.746094 C 168.203125 216.320312 170.828125 212.957031 173.535156 209.660156 C 176.238281 206.363281 179.023438 203.136719 181.890625 199.976562 C 184.753906 196.816406 187.695312 193.726562 190.710938 190.710938 C 193.726562 187.695312 196.816406 184.753906 199.976562 181.890625 C 203.136719 179.023438 206.363281 176.238281 209.660156 173.535156 C 212.957031 170.828125 216.320312 168.203125 219.746094 165.664062 C 223.171875 163.125 226.65625 160.667969 230.203125 158.296875 C 233.75 155.929688 237.351562 153.648438 241.011719 151.453125 C 244.671875 149.261719 248.378906 147.160156 252.140625 145.148438 C 255.902344 143.136719 259.710938 141.222656 263.570312 139.398438 C 267.425781 137.574219 271.324219 135.847656 275.261719 134.214844 C 279.203125 132.582031 283.183594 131.046875 287.199219 129.609375 C 291.214844 128.171875 295.261719 126.835938 299.34375 125.597656 C 303.425781 124.359375 307.535156 123.222656 311.671875 122.1875 C 315.8125 121.148438 319.972656 120.214844 324.15625 119.382812 C 328.335938 118.550781 332.539062 117.820312 336.757812 117.195312 C 340.976562 116.570312 345.210938 116.046875 349.453125 115.628906 C 353.699219 115.210938 357.953125 114.898438 362.210938 114.6875 C 366.472656 114.480469 370.734375 114.375 375 114.375 C 379.265625 114.375 383.527344 114.480469 387.789062 114.6875 C 392.046875 114.898438 396.300781 115.210938 400.546875 115.628906 C 404.789062 116.046875 409.023438 116.570312 413.242188 117.195312 C 417.460938 117.820312 421.660156 118.550781 425.84375 119.382812 C 430.027344 120.214844 434.1875 121.148438 438.328125 122.1875 C 442.464844 123.222656 446.574219 124.359375 450.65625 125.597656 C 454.738281 126.835938 458.785156 128.171875 462.800781 129.609375 C 466.816406 131.046875 470.796875 132.582031 474.738281 134.214844 C 478.675781 135.847656 482.574219 137.574219 486.429688 139.398438 C 490.289062 141.222656 494.097656 143.136719 497.859375 145.148438 C 501.621094 147.160156 505.328125 149.261719 508.988281 151.453125 C 512.644531 153.648438 516.25 155.929688 519.796875 158.296875 C 523.34375 160.667969 526.828125 163.125 530.253906 165.664062 C 533.679688 168.203125 537.042969 170.828125 540.339844 173.535156 C 543.636719 176.238281 546.863281 179.023438 550.023438 181.890625 C 553.183594 184.753906 556.273438 187.695312 559.289062 190.710938 C 562.304688 193.726562 565.246094 196.816406 568.109375 199.976562 C 570.976562 203.136719 573.761719 206.363281 576.464844 209.660156 C 579.171875 212.957031 581.796875 216.320312 584.335938 219.746094 C 586.875 223.171875 589.332031 226.65625 591.703125 230.203125 C 594.070312 233.75 596.351562 237.351562 598.546875 241.011719 C 600.738281 244.671875 602.839844 248.378906 604.851562 252.140625 C 606.859375 255.902344 608.777344 259.710938 610.601562 263.570312 C 612.425781 267.425781 614.152344 271.324219 615.785156 275.261719 C 617.417969 279.203125 618.953125 283.183594 620.390625 287.199219 C 621.828125 291.214844 623.164062 295.261719 624.402344 299.34375 C 625.640625 303.425781 626.777344 307.535156 627.8125 311.671875 C 628.851562 315.8125 629.785156 319.972656 630.617188 324.15625 C 631.449219 328.339844 632.179688 332.539062 632.804688 336.757812 C 633.429688 340.976562 633.953125 345.210938 634.371094 349.453125 C 634.789062 353.699219 635.101562 357.953125 635.3125 362.210938 C 635.519531 366.472656 635.625 370.734375 635.625 375 Z M 635.625 375 " fill-opacity="1" fill-rule="nonzero"/></g><path fill="#ffffff" d="M 249.5625 161.113281 L 368.222656 366.640625 L 368.222656 127.144531 C 324.988281 128.308594 284.535156 140.523438 249.5625 161.113281 " fill-opacity="1" fill-rule="evenodd"/><g clip-path="url(#d3c4ba189e)"><path fill="#6d5764" d="M 368.222656 622.085938 L 368.222656 382.585938 L 249.566406 588.113281 C 284.535156 608.703125 324.992188 620.921875 368.222656 622.085938 " fill-opacity="1" fill-rule="evenodd"/></g><path fill="#ffffff" d="M 372.5 366.644531 L 493.472656 157.105469 C 458.28125 137.902344 417.921875 126.976562 375.003906 126.972656 C 374.167969 126.976562 373.335938 127.027344 372.496094 127.035156 Z M 372.5 366.644531 " fill-opacity="1" fill-rule="evenodd"/><path fill="#ffffff" d="M 378.328125 372.476562 L 622.59375 372.476562 C 622.21875 328.097656 610.15625 286.53125 589.351562 250.640625 Z M 378.328125 372.476562 " fill-opacity="1" fill-rule="evenodd"/><path fill="#ffffff" d="M 589.351562 498.582031 C 610.15625 462.691406 622.21875 421.125 622.59375 376.746094 L 378.328125 376.746094 Z M 589.351562 498.582031 " fill-opacity="1" fill-rule="evenodd"/><path fill="#ffffff" d="M 376.191406 368.777344 L 587.21875 246.9375 C 565.265625 210.527344 534.1875 180.273438 497.175781 159.230469 Z M 376.191406 368.777344 " fill-opacity="1" fill-rule="evenodd"/><g clip-path="url(#8a751e986c)"><path fill="#6d5764" d="M 372.492188 382.585938 L 372.492188 622.195312 C 373.332031 622.203125 374.164062 622.253906 375 622.253906 C 417.917969 622.253906 458.277344 611.332031 493.464844 592.125 Z M 372.492188 382.585938 " fill-opacity="1" fill-rule="evenodd"/></g><path fill="#ffffff" d="M 364.527344 368.777344 L 245.878906 163.28125 C 210.59375 184.886719 181.195312 215.097656 160.472656 250.96875 Z M 364.527344 368.777344 " fill-opacity="1" fill-rule="evenodd"/><path fill="#6d5764" d="M 376.191406 380.445312 L 497.175781 589.992188 C 534.1875 568.949219 565.265625 538.695312 587.21875 502.285156 Z M 376.191406 380.445312 " fill-opacity="1" fill-rule="evenodd"/><path fill="#6d5764" d="M 364.527344 380.445312 L 160.472656 498.253906 C 181.195312 534.125 210.59375 564.335938 245.878906 585.941406 Z M 364.527344 380.445312 " fill-opacity="1" fill-rule="evenodd"/><g clip-path="url(#e7d905d971)"><path fill="#ffffff" d="M 127.417969 376.75 C 127.78125 419.46875 138.953125 459.601562 158.34375 494.554688 L 362.390625 376.75 Z M 127.417969 376.75 " fill-opacity="1" fill-rule="evenodd"/></g><g clip-path="url(#34b0610c24)"><path fill="#ffffff" d="M 158.347656 254.671875 C 138.953125 289.625 127.78125 329.753906 127.417969 372.476562 L 362.390625 372.476562 Z M 158.347656 254.671875 " fill-opacity="1" fill-rule="evenodd"/></g></svg>