<svg xmlns="http://www.w3.org/2000/svg" xmlns:xlink="http://www.w3.org/1999/xlink" width="1000" zoomAndPan="magnify" viewBox="0 0 750 749.999995" height="1000" preserveAspectRatio="xMidYMid meet" version="1.0"><defs><clipPath id="7827ec168e"><path d="M 113.484375 112.5 L 636.234375 112.5 L 636.234375 636 L 113.484375 636 Z M 113.484375 112.5 " clip-rule="nonzero"/></clipPath><clipPath id="b9c16ff689"><path d="M 487.578125 243.804688 L 533.417969 243.804688 L 533.417969 336.625 L 487.578125 336.625 Z M 487.578125 243.804688 " clip-rule="nonzero"/></clipPath></defs><rect x="-75" width="900" fill="#ffffff" y="-74.999999" height="899.999994" fill-opacity="1"/><rect x="-75" width="900" fill="#ffffff" y="-74.999999" height="899.999994" fill-opacity="1"/><path fill="#a6a6a6" d="M 630.066406 373.4375 L 627.742188 407.980469 C 616.730469 477.570312 584.503906 533.226562 531.066406 574.949219 C 477.257812 616.640625 413.894531 633.546875 340.976562 625.664062 C 271.382812 614.652344 215.726562 582.425781 174.003906 528.988281 C 160.636719 511.714844 149.625 492.890625 140.96875 472.519531 L 130.058594 441.109375 C 124.0625 419.492188 121.03125 396.9375 120.964844 373.4375 C 122.785156 301.328125 147.636719 241.328125 195.519531 193.445312 C 243.40625 145.558594 303.402344 120.707031 375.515625 118.886719 C 447.628906 120.707031 507.625 145.558594 555.511719 193.445312 C 603.394531 241.328125 628.246094 301.328125 630.066406 373.4375 " fill-opacity="1" fill-rule="nonzero"/><path fill="#cf4a49" d="M 625.722656 329.632812 C 623.550781 259.578125 537.484375 174.507812 537.484375 174.507812 L 375.085938 374.105469 C 323.929688 406.933594 191.707031 486.609375 159.328125 506.636719 C 207.3125 582.15625 288.527344 613.273438 288.527344 613.273438 C 329.601562 629.011719 417.304688 634.09375 464.757812 611.835938 C 470.625 609.085938 556.132812 582.46875 591.296875 504.464844 C 596.074219 493.871094 621.714844 458.199219 627.964844 411.609375 C 633.839844 367.808594 625.722656 329.632812 625.722656 329.632812 Z M 625.722656 329.632812 " fill-opacity="1" fill-rule="nonzero"/><path fill="#ffffff" d="M 379.777344 118.363281 L 380.207031 373.511719 C 380.210938 376.253906 377.992188 378.480469 375.253906 378.484375 C 372.511719 378.488281 370.285156 376.269531 370.28125 373.527344 L 369.851562 118.382812 C 369.847656 115.640625 372.0625 113.414062 374.804688 113.410156 C 377.546875 113.40625 379.773438 115.625 379.777344 118.363281 Z M 379.777344 118.363281 " fill-opacity="1" fill-rule="nonzero"/><path fill="#ffffff" d="M 373.613281 371.394531 L 531.886719 172.386719 C 533.59375 170.242188 536.714844 169.886719 538.859375 171.59375 C 541.003906 173.300781 541.363281 176.421875 539.65625 178.566406 L 381.382812 377.570312 C 379.675781 379.71875 376.554688 380.074219 374.410156 378.367188 C 372.261719 376.660156 371.90625 373.539062 373.613281 371.394531 Z M 373.613281 371.394531 " fill-opacity="1" fill-rule="nonzero"/><path fill="#ffffff" d="M 377.0625 372.105469 L 623.601562 324.867188 C 626.292969 324.351562 628.894531 326.117188 629.410156 328.808594 C 629.925781 331.5 628.160156 334.101562 625.46875 334.617188 L 378.929688 381.855469 C 376.238281 382.371094 373.636719 380.605469 373.121094 377.914062 C 372.605469 375.222656 374.371094 372.621094 377.0625 372.105469 Z M 377.0625 372.105469 " fill-opacity="1" fill-rule="nonzero"/><path fill="#ffffff" d="M 378.824219 371.957031 L 591.964844 499.710938 C 594.316406 501.121094 595.082031 504.167969 593.671875 506.519531 C 592.261719 508.871094 589.214844 509.632812 586.863281 508.226562 L 373.722656 380.472656 C 371.371094 379.0625 370.605469 376.015625 372.015625 373.664062 C 373.425781 371.3125 376.472656 370.550781 378.824219 371.957031 Z M 378.824219 371.957031 " fill-opacity="1" fill-rule="nonzero"/><path fill="#ffffff" d="M 378.917969 376.882812 L 466.582031 608.5 C 467.550781 611.066406 466.257812 613.929688 463.695312 614.898438 C 461.132812 615.871094 458.265625 614.578125 457.296875 612.015625 L 369.632812 380.394531 C 368.664062 377.832031 369.953125 374.964844 372.519531 373.996094 C 375.082031 373.027344 377.945312 374.316406 378.917969 376.882812 Z M 378.917969 376.882812 " fill-opacity="1" fill-rule="nonzero"/><path fill="#ffffff" d="M 379.261719 384.128906 L 294.054688 613.203125 C 293.097656 615.773438 290.242188 617.082031 287.671875 616.125 C 285.101562 615.167969 283.796875 612.3125 284.75 609.742188 L 369.957031 380.667969 C 370.914062 378.097656 373.769531 376.789062 376.339844 377.746094 C 378.90625 378.703125 380.214844 381.558594 379.261719 384.128906 Z M 379.261719 384.128906 " fill-opacity="1" fill-rule="nonzero"/><path fill="#ffffff" d="M 158.871094 500.03125 L 371.972656 374.199219 C 374.332031 372.804688 377.375 373.589844 378.769531 375.949219 C 380.164062 378.308594 379.378906 381.355469 377.019531 382.746094 L 163.917969 508.578125 C 161.558594 509.972656 158.515625 509.1875 157.121094 506.828125 C 155.726562 504.464844 156.511719 501.421875 158.871094 500.03125 Z M 158.871094 500.03125 " fill-opacity="1" fill-rule="nonzero"/><path fill="#ffffff" d="M 129.722656 325.507812 L 374.511719 371.074219 C 377.207031 371.574219 378.984375 374.164062 378.480469 376.859375 C 377.980469 379.554688 375.390625 381.332031 372.695312 380.832031 L 127.90625 335.265625 C 125.210938 334.761719 123.433594 332.171875 123.9375 329.476562 C 124.4375 326.78125 127.027344 325.003906 129.722656 325.507812 Z M 129.722656 325.507812 " fill-opacity="1" fill-rule="nonzero"/><path fill="#ffffff" d="M 218.480469 177.78125 L 376.34375 371.519531 C 378.074219 373.644531 377.753906 376.769531 375.628906 378.5 C 373.503906 380.230469 370.378906 379.914062 368.648438 377.789062 L 210.785156 184.050781 C 209.054688 181.925781 209.371094 178.800781 211.496094 177.066406 C 213.621094 175.335938 216.75 175.65625 218.480469 177.78125 Z M 218.480469 177.78125 " fill-opacity="1" fill-rule="nonzero"/><g clip-path="url(#7827ec168e)"><path fill="#ffffff" d="M 636.515625 374.03125 C 636.515625 518.464844 519.429688 635.550781 374.996094 635.550781 C 230.5625 635.550781 113.476562 518.464844 113.476562 374.03125 C 113.476562 229.597656 230.5625 112.511719 374.996094 112.511719 C 519.429688 112.511719 636.515625 229.597656 636.515625 374.03125 M 624.976562 374.03125 C 624.976562 235.972656 513.058594 124.054688 374.996094 124.054688 C 236.9375 124.054688 125.019531 235.972656 125.019531 374.03125 C 125.019531 512.09375 236.9375 624.011719 374.996094 624.011719 C 513.054688 624.011719 624.976562 512.09375 624.976562 374.03125 Z M 624.976562 374.03125 " fill-opacity="1" fill-rule="nonzero"/></g><path fill="#ffffff" d="M 512.941406 256.207031 C 512.980469 256.359375 513 256.488281 513 256.601562 C 513.042969 257.613281 513.042969 258.621094 513 259.621094 C 512.972656 260.339844 512.578125 260.738281 511.816406 260.804688 C 511.539062 260.832031 511.113281 260.847656 510.546875 260.847656 L 507.921875 260.847656 C 507.074219 260.847656 506.351562 260.855469 505.757812 260.867188 C 505.296875 260.882812 504.988281 260.957031 504.820312 261.097656 C 504.652344 261.25 504.527344 261.5625 504.445312 262.035156 C 504.347656 262.644531 504.335938 263.191406 504.402344 263.679688 C 504.527344 263.664062 504.675781 263.644531 504.839844 263.617188 C 504.828125 263.253906 504.855469 262.882812 504.925781 262.492188 C 505.019531 261.964844 505.171875 261.609375 505.382812 261.429688 C 505.589844 261.234375 505.957031 261.132812 506.484375 261.117188 C 506.457031 261.117188 507.964844 261.113281 511.003906 261.097656 C 511.765625 261.097656 512.265625 261.082031 512.5 261.054688 C 513.125 261 513.453125 260.6875 513.480469 260.117188 C 513.523438 259.121094 513.523438 258.113281 513.480469 257.101562 C 513.464844 256.644531 513.289062 256.347656 512.941406 256.207031 Z M 506.132812 269.238281 C 505.578125 269.238281 505.1875 269.464844 504.964844 269.925781 C 504.867188 270.117188 504.742188 270.425781 504.589844 270.839844 C 504.507812 271.035156 504.445312 271.1875 504.402344 271.296875 C 504.167969 271.894531 503.757812 272.199219 503.175781 272.214844 C 502.675781 272.230469 502.222656 272.234375 501.820312 272.234375 C 501.363281 272.234375 500.902344 272.222656 500.429688 272.195312 L 500.425781 272.195312 C 500.578125 272.347656 500.789062 272.429688 501.050781 272.445312 C 501.492188 272.46875 502.007812 272.480469 502.601562 272.480469 C 502.996094 272.480469 503.421875 272.476562 503.882812 272.464844 C 504.367188 272.449219 504.707031 272.199219 504.902344 271.714844 C 505.25 270.8125 505.429688 270.347656 505.445312 270.320312 C 505.667969 269.863281 506.019531 269.589844 506.507812 269.507812 L 506.484375 269.507812 L 506.484375 269.488281 C 506.445312 269.417969 506.386719 269.335938 506.320312 269.238281 Z M 503.925781 277.796875 C 503.964844 277.921875 504 278.085938 504.027344 278.292969 C 504.070312 278.503906 504.105469 278.648438 504.132812 278.730469 C 504.160156 278.8125 504.195312 278.910156 504.238281 279.023438 C 504.363281 279.121094 504.480469 279.195312 504.589844 279.25 C 504.355469 278.417969 504.203125 277.972656 504.132812 277.917969 C 504.066406 277.863281 503.996094 277.824219 503.929688 277.796875 Z M 503.699219 254.882812 C 502.023438 254.882812 500.898438 254.886719 500.324219 254.894531 C 499.574219 254.894531 499.101562 254.992188 498.90625 255.183594 C 498.714844 255.394531 498.617188 255.886719 498.617188 256.664062 C 498.601562 256.980469 498.59375 259.105469 498.59375 263.035156 C 498.59375 266.546875 498.59375 268.550781 498.59375 269.050781 C 498.59375 269.632812 498.617188 270.078125 498.65625 270.382812 C 498.726562 270.9375 499.019531 271.230469 499.53125 271.257812 C 500.023438 271.277344 500.605469 271.285156 501.28125 271.285156 C 501.617188 271.285156 501.980469 271.28125 502.363281 271.277344 C 502.847656 271.265625 503.183594 271.007812 503.363281 270.507812 C 503.722656 269.621094 503.910156 269.15625 503.925781 269.113281 C 504.203125 268.554688 504.675781 268.277344 505.347656 268.277344 C 505.378906 268.277344 505.410156 268.277344 505.445312 268.28125 C 506.082031 268.320312 506.574219 268.640625 506.921875 269.238281 C 507.171875 269.667969 507.296875 270.210938 507.296875 270.863281 C 507.3125 272.914062 507.3125 274.976562 507.296875 277.042969 C 507.296875 277.335938 507.277344 277.613281 507.234375 277.878906 C 507.125 278.433594 506.878906 278.898438 506.507812 279.273438 C 506.144531 279.648438 505.730469 279.847656 505.257812 279.875 C 505.203125 279.878906 505.152344 279.882812 505.097656 279.882812 C 504.699219 279.882812 504.320312 279.742188 503.964844 279.460938 C 503.5625 279.125 503.273438 278.683594 503.09375 278.128906 C 502.773438 277.199219 502.613281 276.730469 502.613281 276.730469 C 502.433594 276.589844 502.214844 276.519531 501.957031 276.519531 C 501.910156 276.519531 501.867188 276.519531 501.820312 276.523438 C 501.207031 276.605469 500.925781 276.644531 500.980469 276.648438 C 500.859375 276.644531 500.738281 276.644531 500.621094 276.644531 C 500.144531 276.644531 499.710938 276.667969 499.324219 276.710938 C 498.808594 276.753906 498.457031 276.878906 498.261719 277.085938 C 498.066406 277.308594 497.96875 277.683594 497.96875 278.210938 C 497.96875 278.988281 498.125 279.75 498.429688 280.5 C 499.34375 282.761719 500.808594 284.191406 502.820312 284.789062 C 503.570312 285.007812 504.308594 285.121094 505.042969 285.121094 C 506.066406 285.121094 507.074219 284.90625 508.066406 284.476562 C 508.789062 284.171875 509.433594 283.742188 510.003906 283.1875 C 511.515625 281.714844 512.285156 279.917969 512.316406 277.792969 C 512.355469 275.878906 512.355469 273.539062 512.316406 270.777344 C 512.300781 269.445312 512.066406 268.191406 511.605469 267.011719 C 510.898438 265.164062 509.550781 264.144531 507.566406 263.949219 C 507.289062 263.925781 507.019531 263.914062 506.753906 263.914062 C 506.222656 263.914062 505.71875 263.960938 505.234375 264.054688 C 504.804688 264.136719 504.527344 264.179688 504.402344 264.179688 C 504.375 264.179688 504.351562 264.179688 504.324219 264.179688 C 503.84375 264.179688 503.542969 263.9375 503.425781 263.449219 C 503.273438 262.839844 503.265625 262.125 503.402344 261.304688 C 503.5 260.777344 503.652344 260.417969 503.863281 260.222656 C 504.070312 260.042969 504.4375 259.945312 504.964844 259.929688 C 504.9375 259.929688 506.445312 259.917969 509.484375 259.890625 C 510.234375 259.890625 510.730469 259.882812 510.980469 259.871094 C 511.605469 259.8125 511.933594 259.5 511.960938 258.933594 C 512.003906 257.917969 512.003906 256.914062 511.960938 255.914062 C 511.933594 255.332031 511.628906 254.996094 511.042969 254.914062 C 510.863281 254.898438 510.640625 254.894531 510.378906 254.894531 C 507.601562 254.886719 505.375 254.882812 503.699219 254.882812 Z M 512.050781 266.480469 C 512.296875 266.839844 512.496094 267.214844 512.648438 267.613281 C 513.121094 268.820312 513.363281 270.105469 513.375 271.464844 C 513.402344 274.226562 513.402344 276.574219 513.375 278.503906 C 513.335938 280.679688 512.535156 282.535156 510.980469 284.0625 C 510.398438 284.628906 509.726562 285.082031 508.960938 285.414062 C 507.949219 285.84375 506.910156 286.058594 505.839844 286.058594 C 505.175781 286.058594 504.5 285.960938 503.808594 285.769531 L 503.804688 285.769531 C 504.050781 285.878906 504.230469 285.949219 504.339844 285.976562 C 505.101562 286.199219 505.855469 286.308594 506.597656 286.308594 C 507.613281 286.308594 508.609375 286.101562 509.585938 285.683594 C 510.324219 285.367188 510.96875 284.933594 511.523438 284.394531 C 513.035156 282.910156 513.8125 281.109375 513.855469 279 C 513.882812 277.074219 513.882812 274.726562 513.855469 271.964844 C 513.839844 270.644531 513.597656 269.390625 513.125 268.195312 C 512.863281 267.523438 512.507812 266.949219 512.054688 266.480469 Z M 506.195312 303.464844 C 505.90625 303.464844 505.632812 303.597656 505.371094 303.859375 C 504.871094 304.34375 504.609375 304.929688 504.582031 305.609375 C 504.566406 305.957031 504.566406 306.488281 504.582031 307.210938 L 504.582031 308.167969 L 504.558594 308.167969 L 504.558594 308.585938 C 504.558594 309.25 504.558594 309.75 504.558594 310.085938 C 504.574219 310.570312 504.664062 311.007812 504.832031 311.394531 C 504.925781 311.464844 505.039062 311.515625 505.164062 311.542969 C 505.09375 311.222656 505.050781 310.902344 505.039062 310.582031 L 505.039062 308.417969 C 505.039062 306.988281 505.046875 306.21875 505.058594 306.109375 C 505.085938 305.359375 505.371094 304.710938 505.914062 304.171875 C 506.105469 303.992188 506.316406 303.867188 506.539062 303.796875 C 506.480469 303.671875 506.414062 303.566406 506.328125 303.484375 C 506.210938 303.472656 506.164062 303.464844 506.199219 303.464844 Z M 505.390625 302.53125 C 505.648438 302.53125 505.921875 302.613281 506.203125 302.777344 C 506.621094 303.011719 506.910156 303.332031 507.078125 303.734375 C 507.257812 304.179688 507.355469 304.496094 507.371094 304.691406 C 507.5625 306.914062 507.535156 308.730469 507.285156 310.148438 C 507.230469 310.464844 507.140625 310.785156 507.015625 311.105469 C 506.78125 311.699219 506.308594 312.019531 505.601562 312.0625 C 505.550781 312.066406 505.503906 312.066406 505.457031 312.066406 C 504.820312 312.066406 504.347656 311.808594 504.039062 311.292969 C 503.71875 310.765625 503.546875 310.132812 503.519531 309.398438 C 503.519531 309.300781 503.519531 308.578125 503.519531 307.230469 C 503.519531 305.789062 503.527344 305.019531 503.539062 304.921875 C 503.566406 304.171875 503.851562 303.527344 504.394531 302.984375 C 504.703125 302.679688 505.035156 302.53125 505.390625 302.53125 Z M 506.851562 317.140625 L 506.808594 317.164062 C 506.074219 317.289062 505.425781 317.351562 504.871094 317.351562 C 504.734375 317.351562 504.585938 317.34375 504.433594 317.328125 C 504.0625 317.300781 503.667969 317.238281 503.253906 317.144531 C 503.847656 317.390625 504.492188 317.539062 505.183594 317.578125 C 505.3125 317.585938 505.445312 317.589844 505.582031 317.589844 C 505.988281 317.589844 506.433594 317.558594 506.910156 317.496094 C 506.910156 317.480469 506.910156 317.445312 506.910156 317.390625 C 506.898438 317.335938 506.890625 317.292969 506.890625 317.265625 C 506.890625 317.238281 506.882812 317.195312 506.871094 317.140625 Z M 504.496094 321.078125 L 504.621094 321.429688 C 504.664062 321.554688 504.71875 321.707031 504.789062 321.886719 C 504.871094 321.945312 504.949219 321.992188 505.019531 322.035156 L 505.121094 322.074219 C 505.09375 321.964844 505.046875 321.824219 504.976562 321.660156 C 504.894531 321.398438 504.734375 321.203125 504.5 321.078125 Z M 505.507812 297.289062 C 504.65625 297.289062 503.769531 297.445312 502.851562 297.757812 C 500.0625 298.71875 498.613281 300.75 498.5 303.859375 C 498.5 303.886719 498.496094 306.003906 498.480469 310.210938 C 498.480469 310.945312 498.621094 311.761719 498.898438 312.664062 C 499.617188 315.011719 501.207031 316.253906 503.664062 316.390625 C 503.800781 316.402344 503.945312 316.40625 504.09375 316.40625 C 504.640625 316.40625 505.265625 316.34375 505.976562 316.226562 C 506.097656 316.203125 506.210938 316.195312 506.320312 316.195312 C 506.925781 316.195312 507.285156 316.53125 507.390625 317.203125 C 507.558594 318.355469 507.550781 319.515625 507.371094 320.679688 C 507.273438 321.347656 506.933594 321.902344 506.351562 322.347656 C 506.070312 322.558594 505.78125 322.664062 505.488281 322.664062 C 505.257812 322.664062 505.023438 322.597656 504.789062 322.472656 C 504.292969 322.222656 503.960938 321.875 503.792969 321.421875 C 503.792969 321.421875 503.679688 321.105469 503.457031 320.472656 C 503.304688 320.027344 503.019531 319.800781 502.601562 319.785156 C 501.9375 319.773438 501.339844 319.765625 500.8125 319.765625 C 500.285156 319.765625 499.828125 319.773438 499.4375 319.785156 C 498.882812 319.8125 498.570312 320.140625 498.5 320.765625 C 498.433594 321.597656 498.523438 322.367188 498.773438 323.074219 C 499.300781 324.574219 500.132812 325.734375 501.269531 326.550781 C 502.410156 327.359375 503.769531 327.761719 505.339844 327.761719 C 505.390625 327.761719 505.445312 327.761719 505.496094 327.757812 C 507.425781 327.71875 509.015625 327.078125 510.265625 325.84375 C 511.511719 324.59375 512.144531 323.019531 512.160156 321.117188 C 512.160156 320.910156 512.164062 318.078125 512.179688 312.625 C 512.179688 307.820312 512.171875 304.992188 512.160156 304.128906 C 512.160156 303.242188 512.101562 302.632812 511.992188 302.296875 C 511.351562 300.273438 510.179688 298.835938 508.472656 297.988281 C 507.535156 297.523438 506.546875 297.289062 505.507812 297.289062 Z M 511.941406 300.667969 C 512.40625 301.34375 512.769531 302.097656 513.03125 302.921875 C 513.144531 303.285156 513.207031 303.851562 513.21875 304.628906 L 513.21875 304.816406 C 513.21875 306.289062 513.21875 308.382812 513.21875 311.105469 C 513.21875 313.78125 513.21875 315.425781 513.21875 316.039062 C 513.234375 318.605469 513.234375 320.527344 513.21875 321.804688 C 513.191406 323.761719 512.527344 325.386719 511.222656 326.675781 C 509.929688 327.980469 508.292969 328.65625 506.308594 328.695312 L 506.101562 328.695312 C 505.394531 328.695312 504.710938 328.605469 504.046875 328.429688 C 504.882812 328.773438 505.800781 328.949219 506.792969 328.949219 C 506.867188 328.949219 506.941406 328.949219 507.015625 328.945312 C 508.945312 328.90625 510.527344 328.265625 511.761719 327.03125 C 513.027344 325.78125 513.664062 324.207031 513.679688 322.304688 C 513.679688 322.109375 513.683594 319.277344 513.699219 313.8125 C 513.699219 309.050781 513.691406 306.21875 513.679688 305.316406 C 513.679688 304.429688 513.621094 303.824219 513.511719 303.503906 C 513.179688 302.417969 512.660156 301.472656 511.945312 300.667969 Z M 511.941406 300.667969 " fill-opacity="1" fill-rule="nonzero"/><path fill="#ffffff" d="M 490.253906 287.75 C 489.546875 287.769531 489.136719 287.9375 489.019531 288.261719 C 489.203125 288.207031 489.464844 288.175781 489.804688 288.167969 C 489.902344 288.167969 490.058594 288.171875 490.269531 288.171875 L 498.632812 288.292969 C 509.652344 288.449219 517.917969 288.570312 523.421875 288.648438 C 524.480469 288.664062 525.128906 288.792969 525.363281 289.035156 C 525.601562 289.292969 525.710938 289.964844 525.695312 291.050781 L 525.691406 291.261719 C 525.683594 291.730469 525.664062 292.125 525.632812 292.449219 C 525.761719 292.324219 525.839844 292.140625 525.875 291.902344 C 525.90625 291.5625 525.925781 291.0625 525.9375 290.398438 C 525.953125 289.382812 525.863281 288.773438 525.667969 288.574219 C 525.472656 288.359375 524.882812 288.246094 523.894531 288.230469 C 520.746094 288.1875 509.730469 288.027344 490.847656 287.757812 C 490.535156 287.753906 490.339844 287.75 490.253906 287.75 Z M 489.175781 289.089844 C 488.613281 289.109375 488.25 289.195312 488.09375 289.347656 C 487.921875 289.503906 487.816406 289.847656 487.78125 290.382812 C 487.78125 290.523438 487.773438 290.867188 487.765625 291.417969 C 487.75 292.464844 487.828125 293.078125 487.996094 293.265625 C 488.175781 293.449219 488.773438 293.550781 489.789062 293.566406 L 522.519531 294.035156 C 522.710938 294.039062 522.886719 294.039062 523.050781 294.039062 C 523.457031 294.039062 523.78125 294.03125 524.023438 294.011719 C 524.472656 293.964844 524.726562 293.707031 524.773438 293.242188 C 524.820312 292.902344 524.847656 292.410156 524.859375 291.761719 C 524.859375 290.742188 524.761719 290.128906 524.566406 289.914062 C 524.375 289.699219 523.78125 289.585938 522.792969 289.570312 C 519.125 289.519531 508.117188 289.359375 489.769531 289.097656 C 489.457031 289.09375 489.261719 289.089844 489.175781 289.089844 Z M 489.175781 289.089844 " fill-opacity="1" fill-rule="nonzero"/><g clip-path="url(#b9c16ff689)"><path fill="#cf4a49" d="M 487.578125 243.804688 L 533.417969 243.804688 L 533.417969 336.558594 L 487.578125 336.558594 Z M 487.578125 243.804688 " fill-opacity="1" fill-rule="nonzero"/></g></svg>