<svg xmlns="http://www.w3.org/2000/svg" xmlns:xlink="http://www.w3.org/1999/xlink" width="1000" zoomAndPan="magnify" viewBox="0 0 750 749.999995" height="1000" preserveAspectRatio="xMidYMid meet" version="1.0"><rect x="-75" width="900" fill="#ffffff" y="-74.999999" height="899.999994" fill-opacity="1"/><rect x="-75" width="900" fill="#ffffff" y="-74.999999" height="899.999994" fill-opacity="1"/><path fill="#000000" d="M 293.558594 194.5625 C 289.585938 194.5625 286.492188 193.316406 284.285156 190.828125 C 282.074219 188.339844 280.898438 185.121094 280.75 181.171875 C 280.75 173.121094 284.285156 165.953125 291.351562 159.660156 C 298.417969 153.367188 306.957031 150.21875 316.964844 150.21875 C 322.117188 150.21875 325.359375 150.292969 326.683594 150.4375 C 337.578125 152.195312 345.894531 156.074219 351.636719 162.074219 C 357.378906 168.074219 360.320312 174.585938 360.46875 181.609375 C 360.46875 189.21875 357.964844 196.609375 352.960938 203.78125 C 347.957031 210.953125 341.035156 216.144531 332.203125 219.367188 L 331.539062 219.804688 C 331.539062 219.953125 332.203125 220.171875 333.527344 220.464844 C 334.851562 220.757812 336.988281 221.414062 339.933594 222.4375 C 342.875 223.464844 345.671875 225 348.324219 227.046875 C 360.394531 234.804688 366.429688 245.046875 366.429688 257.78125 C 366.429688 269.339844 361.867188 279.4375 352.738281 288.074219 C 343.613281 296.707031 332.054688 301.023438 318.070312 301.023438 C 306.292969 301.023438 296.136719 297.878906 287.597656 291.585938 C 279.058594 285.292969 274.789062 277.316406 274.789062 267.660156 C 274.789062 263.5625 276.113281 260.269531 278.765625 257.78125 C 281.414062 255.292969 284.726562 253.976562 288.699219 253.828125 C 292.824219 253.828125 296.207031 255.144531 298.859375 257.78125 C 301.507812 260.414062 302.832031 263.707031 302.832031 267.660156 C 302.832031 269.269531 302.613281 270.730469 302.171875 272.046875 C 301.730469 273.367188 301.214844 274.535156 300.625 275.5625 C 300.035156 276.585938 299.226562 277.464844 298.195312 278.195312 C 297.164062 278.925781 296.28125 279.511719 295.546875 279.953125 C 294.808594 280.390625 294.074219 280.683594 293.339844 280.828125 C 292.601562 280.976562 292.011719 281.195312 291.570312 281.488281 L 290.6875 281.707031 C 298.195312 288.292969 307.324219 291.585938 318.070312 291.585938 C 326.167969 291.585938 332.277344 287.707031 336.398438 279.953125 C 338.902344 275.121094 340.152344 267.730469 340.152344 257.78125 L 340.152344 253.390625 C 340.152344 239.488281 335.441406 230.195312 326.019531 225.511719 C 323.8125 224.632812 319.320312 224.121094 312.550781 223.976562 L 303.273438 223.757812 L 302.613281 223.316406 C 302.320312 222.878906 302.171875 221.707031 302.171875 219.804688 C 302.171875 217.171875 302.761719 215.855469 303.9375 215.855469 C 308.058594 215.855469 312.328125 215.488281 316.746094 214.757812 C 321.75 214.023438 326.316406 210.953125 330.4375 205.535156 C 334.558594 200.121094 336.621094 191.925781 336.621094 180.953125 L 336.621094 179.195312 C 336.621094 170.855469 334.042969 165.074219 328.890625 161.855469 C 325.652344 159.804688 322.191406 158.78125 318.511719 158.78125 C 313.800781 158.78125 309.457031 159.585938 305.484375 161.195312 C 301.507812 162.804688 298.710938 164.488281 297.09375 166.242188 C 295.472656 168 294.664062 168.878906 294.664062 168.878906 L 295.324219 168.878906 C 295.765625 169.023438 296.355469 169.171875 297.09375 169.316406 C 297.828125 169.464844 298.5625 169.828125 299.300781 170.414062 C 300.035156 171 300.917969 171.511719 301.949219 171.953125 C 302.980469 172.390625 303.71875 173.195312 304.160156 174.367188 C 304.601562 175.535156 305.1875 176.632812 305.925781 177.660156 C 306.660156 178.683594 306.882812 180.144531 306.585938 182.046875 C 306.585938 185.269531 305.558594 188.121094 303.496094 190.609375 C 301.433594 193.097656 298.121094 194.414062 293.558594 194.5625 Z M 293.558594 194.5625 " fill-opacity="1" fill-rule="nonzero"/><path fill="#000000" d="M 397.125 167.78125 C 405.371094 155.925781 416.632812 150 430.910156 150 C 437.976562 150 445.042969 151.902344 452.109375 155.707031 C 459.175781 159.511719 464.917969 166.242188 469.335938 175.902344 C 474.78125 188.046875 477.503906 204.730469 477.503906 225.953125 C 477.503906 248.632812 474.339844 265.976562 468.011719 277.976562 C 465.066406 284.121094 461.015625 289.023438 455.863281 292.683594 C 450.710938 296.339844 446.222656 298.609375 442.394531 299.488281 C 438.566406 300.367188 434.8125 300.878906 431.132812 301.023438 C 427.304688 301.023438 423.476562 300.585938 419.648438 299.707031 C 415.820312 298.828125 411.332031 296.488281 406.179688 292.683594 C 401.027344 288.878906 396.976562 283.976562 394.035156 277.976562 C 387.703125 265.976562 384.539062 248.632812 384.539062 225.953125 C 384.539062 200.488281 388.734375 181.097656 397.125 167.78125 Z M 446.8125 165.144531 C 442.394531 160.464844 437.167969 158.121094 431.132812 158.121094 C 424.949219 158.121094 419.648438 160.464844 415.234375 165.144531 C 411.554688 168.953125 409.125 174.21875 407.945312 180.953125 C 406.769531 187.683594 406.179688 201.730469 406.179688 223.097656 C 406.179688 246.21875 406.769531 261.4375 407.945312 268.757812 C 409.125 276.074219 411.773438 281.855469 415.894531 286.097656 C 420.019531 290.488281 425.097656 292.683594 431.132812 292.683594 C 437.019531 292.683594 442.027344 290.488281 446.148438 286.097656 C 450.417969 281.707031 453.066406 275.5625 454.097656 267.660156 C 455.128906 259.757812 455.71875 244.902344 455.863281 223.097656 C 455.863281 201.878906 455.277344 187.902344 454.097656 181.171875 C 452.921875 174.4375 450.492188 169.097656 446.8125 165.144531 Z M 446.8125 165.144531 " fill-opacity="1" fill-rule="nonzero"/><path fill="#000000" d="M 301.730469 560.707031 C 301.730469 564.21875 300.550781 567.144531 298.195312 569.488281 C 295.839844 571.828125 292.96875 573 289.585938 573 L 288.039062 573 C 294.808594 584.5625 303.789062 590.339844 314.980469 590.339844 C 325.285156 590.339844 332.792969 585.953125 337.503906 577.171875 C 340.300781 572.339844 341.699219 562.976562 341.699219 549.074219 C 341.699219 534 339.710938 523.828125 335.738281 518.5625 C 331.910156 513.730469 327.640625 511.316406 322.929688 511.316406 L 321.605469 511.316406 C 310.121094 511.316406 301.433594 516.292969 295.546875 526.242188 C 294.957031 527.269531 294.441406 527.855469 294 528 C 293.558594 528.144531 292.453125 528.292969 290.6875 528.4375 C 288.1875 528.4375 286.785156 528 286.492188 527.121094 C 286.199219 526.535156 286.050781 513.730469 286.050781 488.707031 L 286.050781 460.390625 C 286.050781 453.074219 286.417969 449.414062 287.15625 449.414062 C 287.449219 449.121094 287.742188 448.976562 288.039062 448.976562 C 288.1875 448.976562 289.730469 449.5625 292.675781 450.730469 C 295.621094 451.902344 299.667969 453.074219 304.820312 454.242188 C 309.972656 455.414062 315.496094 456 321.382812 456 C 331.835938 456 341.847656 453.953125 351.414062 449.855469 C 352.59375 449.269531 353.550781 448.976562 354.285156 448.976562 C 355.464844 448.976562 356.050781 450.292969 356.050781 452.925781 L 356.050781 455.78125 C 343.980469 469.976562 328.890625 477.074219 310.785156 477.074219 C 306.21875 477.074219 302.097656 476.632812 298.417969 475.757812 L 296.207031 475.316406 L 296.207031 513.074219 C 299.007812 511.023438 301.214844 509.414062 302.832031 508.242188 C 304.453125 507.074219 307.101562 505.902344 310.785156 504.730469 C 314.464844 503.5625 318.21875 502.976562 322.046875 502.976562 C 333.96875 502.976562 344.054688 507.730469 352.296875 517.242188 C 360.542969 526.757812 364.664062 538.023438 364.664062 551.046875 C 364.664062 564.511719 359.953125 576 350.53125 585.511719 C 341.109375 595.023438 329.628906 599.855469 316.082031 600 C 304.160156 600 294.589844 596.046875 287.375 588.144531 C 280.164062 580.242188 276.554688 571.316406 276.554688 561.367188 C 276.554688 557.855469 277.363281 555.074219 278.984375 553.023438 C 280.605469 550.976562 282.296875 549.660156 284.0625 549.074219 C 285.832031 548.488281 287.523438 548.195312 289.140625 548.195312 C 292.824219 548.195312 295.839844 549.4375 298.195312 551.925781 C 300.550781 554.414062 301.730469 557.339844 301.730469 560.707031 Z M 301.730469 560.707031 " fill-opacity="1" fill-rule="nonzero"/><path fill="#000000" d="M 477.949219 595.171875 C 475.296875 594.730469 465.800781 594.511719 449.460938 594.511719 C 432.382812 594.511719 422.519531 594.730469 419.871094 595.171875 L 417.882812 595.171875 L 417.882812 585.074219 L 424.730469 585.074219 C 427.671875 585.074219 429.660156 585.074219 430.691406 585.074219 C 431.722656 585.074219 432.972656 584.925781 434.445312 584.632812 C 435.917969 584.339844 436.949219 583.976562 437.535156 583.535156 C 438.125 583.097656 438.640625 582.511719 439.082031 581.78125 C 439.230469 581.488281 439.304688 577.535156 439.304688 569.925781 L 439.304688 558.953125 L 382.109375 558.953125 L 382.109375 548.855469 L 415.453125 498.144531 C 437.976562 464.195312 449.386719 447.144531 449.683594 447 C 449.976562 446.707031 451.523438 446.5625 454.320312 446.5625 L 458.292969 446.5625 L 459.617188 447.878906 L 459.617188 548.855469 L 479.933594 548.855469 L 479.933594 558.953125 L 459.617188 558.953125 L 459.617188 570.144531 C 459.617188 576.144531 459.617188 579.660156 459.617188 580.683594 C 459.617188 581.707031 460.058594 582.585938 460.945312 583.316406 C 462.121094 584.339844 466.316406 584.925781 473.53125 585.074219 L 479.933594 585.074219 L 479.933594 595.171875 Z M 440.628906 548.855469 L 440.628906 475.535156 L 392.265625 548.632812 L 416.335938 548.855469 Z M 440.628906 548.855469 " fill-opacity="1" fill-rule="nonzero"/><path fill="#000000" d="M 243.433594 396.292969 L 508.421875 396.292969 L 508.421875 383.121094 L 243.433594 383.121094 Z M 243.433594 396.292969 " fill-opacity="1" fill-rule="nonzero"/></svg>