<svg xmlns="http://www.w3.org/2000/svg" xmlns:xlink="http://www.w3.org/1999/xlink" width="1000" zoomAndPan="magnify" viewBox="0 0 750 749.999995" height="1000" preserveAspectRatio="xMidYMid meet" version="1.0"><defs><clipPath id="b03af8b4fa"><path d="M 464 306.976562 L 587 306.976562 L 587 443.023438 L 464 443.023438 Z M 464 306.976562 " clip-rule="nonzero"/></clipPath></defs><rect x="-75" width="900" fill="#ffffff" y="-74.999999" height="899.999994" fill-opacity="1"/><rect x="-75" width="900" fill="#ffffff" y="-74.999999" height="899.999994" fill-opacity="1"/><path fill="#000000" d="M 182.34375 407.070312 C 182.34375 409.769531 181.441406 412.023438 179.640625 413.820312 C 177.839844 415.621094 175.644531 416.523438 173.054688 416.523438 L 171.871094 416.523438 C 177.050781 425.414062 183.921875 429.859375 192.480469 429.859375 C 200.363281 429.859375 206.105469 426.480469 209.707031 419.730469 C 211.847656 416.015625 212.917969 408.816406 212.917969 398.125 C 212.917969 386.535156 211.398438 378.714844 208.355469 374.664062 C 205.429688 370.949219 202.164062 369.09375 198.558594 369.09375 L 197.546875 369.09375 C 188.761719 369.09375 182.117188 372.917969 177.613281 380.570312 C 177.164062 381.359375 176.769531 381.808594 176.433594 381.921875 C 176.09375 382.03125 175.25 382.144531 173.898438 382.257812 C 171.984375 382.257812 170.914062 381.921875 170.6875 381.246094 C 170.464844 380.796875 170.351562 370.949219 170.351562 351.707031 L 170.351562 329.933594 C 170.351562 324.304688 170.632812 321.492188 171.195312 321.492188 C 171.421875 321.269531 171.644531 321.15625 171.871094 321.15625 C 171.984375 321.15625 173.167969 321.605469 175.417969 322.503906 C 177.671875 323.40625 180.769531 324.304688 184.707031 325.207031 C 188.648438 326.105469 192.871094 326.554688 197.378906 326.554688 C 205.371094 326.554688 213.03125 324.980469 220.347656 321.832031 C 221.25 321.378906 221.980469 321.15625 222.546875 321.15625 C 223.445312 321.15625 223.894531 322.167969 223.894531 324.195312 L 223.894531 326.386719 C 214.664062 337.304688 203.121094 342.761719 189.269531 342.761719 C 185.777344 342.761719 182.625 342.421875 179.808594 341.746094 L 178.121094 341.410156 L 178.121094 370.441406 C 180.261719 368.867188 181.949219 367.628906 183.1875 366.730469 C 184.425781 365.828125 186.453125 364.929688 189.269531 364.027344 C 192.085938 363.128906 194.957031 362.679688 197.882812 362.679688 C 207.003906 362.679688 214.71875 366.335938 221.023438 373.648438 C 227.332031 380.964844 230.484375 389.628906 230.484375 399.644531 C 230.484375 409.996094 226.878906 418.828125 219.671875 426.144531 C 212.464844 433.457031 203.683594 437.171875 193.324219 437.285156 C 184.203125 437.285156 176.882812 434.246094 171.363281 428.167969 C 165.847656 422.09375 163.089844 415.230469 163.089844 407.578125 C 163.089844 404.875 163.707031 402.738281 164.945312 401.164062 C 166.183594 399.585938 167.480469 398.574219 168.832031 398.125 C 170.183594 397.675781 171.476562 397.449219 172.714844 397.449219 C 175.53125 397.449219 177.839844 398.40625 179.640625 400.320312 C 181.441406 402.230469 182.34375 404.480469 182.34375 407.070312 Z M 182.34375 407.070312 " fill-opacity="1" fill-rule="nonzero"/><path fill="#000000" d="M 266.800781 407.070312 C 266.800781 409.769531 265.898438 412.023438 264.097656 413.820312 C 262.296875 415.621094 260.101562 416.523438 257.511719 416.523438 L 256.328125 416.523438 C 261.507812 425.414062 268.375 429.859375 276.933594 429.859375 C 284.816406 429.859375 290.558594 426.480469 294.164062 419.730469 C 296.304688 416.015625 297.375 408.816406 297.375 398.125 C 297.375 386.535156 295.851562 378.714844 292.8125 374.664062 C 289.882812 370.949219 286.617188 369.09375 283.015625 369.09375 L 282.003906 369.09375 C 273.21875 369.09375 266.574219 372.917969 262.070312 380.570312 C 261.621094 381.359375 261.226562 381.808594 260.886719 381.921875 C 260.550781 382.03125 259.707031 382.144531 258.355469 382.257812 C 256.441406 382.257812 255.371094 381.921875 255.144531 381.246094 C 254.917969 380.796875 254.808594 370.949219 254.808594 351.707031 L 254.808594 329.933594 C 254.808594 324.304688 255.089844 321.492188 255.652344 321.492188 C 255.878906 321.269531 256.101562 321.15625 256.328125 321.15625 C 256.441406 321.15625 257.621094 321.605469 259.875 322.503906 C 262.125 323.40625 265.222656 324.304688 269.164062 325.207031 C 273.105469 326.105469 277.328125 326.554688 281.832031 326.554688 C 289.828125 326.554688 297.484375 324.980469 304.804688 321.832031 C 305.707031 321.378906 306.4375 321.15625 307 321.15625 C 307.902344 321.15625 308.351562 322.167969 308.351562 324.195312 L 308.351562 326.386719 C 299.117188 337.304688 287.578125 342.761719 273.726562 342.761719 C 270.234375 342.761719 267.082031 342.421875 264.265625 341.746094 L 262.578125 341.410156 L 262.578125 370.441406 C 264.71875 368.867188 266.40625 367.628906 267.644531 366.730469 C 268.882812 365.828125 270.910156 364.929688 273.726562 364.027344 C 276.539062 363.128906 279.414062 362.679688 282.339844 362.679688 C 291.460938 362.679688 299.175781 366.335938 305.480469 373.648438 C 311.785156 380.964844 314.941406 389.628906 314.941406 399.644531 C 314.941406 409.996094 311.335938 418.828125 304.128906 426.144531 C 296.921875 433.457031 288.140625 437.171875 277.78125 437.285156 C 268.65625 437.285156 261.339844 434.246094 255.820312 428.167969 C 250.304688 422.09375 247.542969 415.230469 247.542969 407.578125 C 247.542969 404.875 248.164062 402.738281 249.402344 401.164062 C 250.640625 399.585938 251.9375 398.574219 253.285156 398.125 C 254.636719 397.675781 255.933594 397.449219 257.171875 397.449219 C 259.988281 397.449219 262.296875 398.40625 264.097656 400.320312 C 265.898438 402.230469 266.800781 404.480469 266.800781 407.070312 Z M 266.800781 407.070312 " fill-opacity="1" fill-rule="nonzero"/><path fill="#000000" d="M 336.730469 423.445312 C 336.730469 420.742188 337.6875 418.378906 339.601562 416.355469 C 341.515625 414.328125 343.9375 413.316406 346.863281 413.316406 C 349.566406 413.316406 351.929688 414.214844 353.957031 416.015625 C 355.984375 417.816406 357.054688 420.234375 357.167969 423.273438 C 357.167969 426.085938 356.210938 428.507812 354.296875 430.53125 C 352.382812 432.558594 349.960938 433.570312 347.03125 433.570312 C 344.105469 433.570312 341.683594 432.613281 339.769531 430.703125 C 337.855469 428.789062 336.84375 426.367188 336.730469 423.445312 Z M 336.730469 423.445312 " fill-opacity="1" fill-rule="nonzero"/><path fill="#000000" d="M 398.214844 407.070312 C 398.214844 409.769531 397.3125 412.023438 395.511719 413.820312 C 393.710938 415.621094 391.511719 416.523438 388.921875 416.523438 L 387.742188 416.523438 C 392.921875 425.414062 399.789062 429.859375 408.347656 429.859375 C 416.230469 429.859375 421.972656 426.480469 425.578125 419.730469 C 427.714844 416.015625 428.785156 408.816406 428.785156 398.125 C 428.785156 386.535156 427.265625 378.714844 424.226562 374.664062 C 421.296875 370.949219 418.03125 369.09375 414.429688 369.09375 L 413.414062 369.09375 C 404.632812 369.09375 397.988281 372.917969 393.484375 380.570312 C 393.035156 381.359375 392.640625 381.808594 392.300781 381.921875 C 391.964844 382.03125 391.121094 382.144531 389.769531 382.257812 C 387.855469 382.257812 386.785156 381.921875 386.558594 381.246094 C 386.332031 380.796875 386.222656 370.949219 386.222656 351.707031 L 386.222656 329.933594 C 386.222656 324.304688 386.503906 321.492188 387.066406 321.492188 C 387.289062 321.269531 387.515625 321.15625 387.742188 321.15625 C 387.855469 321.15625 389.035156 321.605469 391.289062 322.503906 C 393.539062 323.40625 396.636719 324.304688 400.578125 325.207031 C 404.519531 326.105469 408.742188 326.554688 413.246094 326.554688 C 421.242188 326.554688 428.898438 324.980469 436.21875 321.832031 C 437.121094 321.378906 437.851562 321.15625 438.414062 321.15625 C 439.316406 321.15625 439.765625 322.167969 439.765625 324.195312 L 439.765625 326.386719 C 430.53125 337.304688 418.988281 342.761719 405.140625 342.761719 C 401.648438 342.761719 398.496094 342.421875 395.679688 341.746094 L 393.992188 341.410156 L 393.992188 370.441406 C 396.128906 368.867188 397.820312 367.628906 399.058594 366.730469 C 400.296875 365.828125 402.324219 364.929688 405.140625 364.027344 C 407.953125 363.128906 410.824219 362.679688 413.753906 362.679688 C 422.875 362.679688 430.589844 366.335938 436.894531 373.648438 C 443.199219 380.964844 446.351562 389.628906 446.351562 399.644531 C 446.351562 409.996094 442.75 418.828125 435.542969 426.144531 C 428.335938 433.457031 419.550781 437.171875 409.191406 437.285156 C 400.070312 437.285156 392.753906 434.246094 387.234375 428.167969 C 381.714844 422.09375 378.957031 415.230469 378.957031 407.578125 C 378.957031 404.875 379.578125 402.738281 380.816406 401.164062 C 382.054688 399.585938 383.347656 398.574219 384.699219 398.125 C 386.050781 397.675781 387.347656 397.449219 388.585938 397.449219 C 391.402344 397.449219 393.710938 398.40625 395.511719 400.320312 C 397.3125 402.230469 398.214844 404.480469 398.214844 407.070312 Z M 398.214844 407.070312 " fill-opacity="1" fill-rule="nonzero"/><g clip-path="url(#b03af8b4fa)"><path fill="#000000" d="M 533.511719 331.453125 C 529.34375 331.453125 525.347656 330.945312 521.519531 329.933594 C 517.691406 328.917969 514.648438 327.90625 512.398438 326.894531 C 510.144531 325.882812 508.964844 325.375 508.851562 325.375 C 510.316406 329.089844 511.046875 334.320312 511.046875 341.074219 C 511.046875 351.199219 508.851562 359.359375 504.457031 365.546875 C 500.066406 371.738281 494.945312 374.886719 489.089844 375 C 482.667969 375 476.984375 371.90625 472.027344 365.714844 C 467.074219 359.527344 464.539062 351.3125 464.425781 341.074219 C 464.425781 331.058594 466.960938 322.898438 472.027344 316.597656 C 477.09375 310.296875 482.78125 307.089844 489.089844 306.976562 C 493.480469 306.976562 497.421875 308.722656 500.910156 312.210938 C 510.707031 320.875 521.519531 325.207031 533.34375 325.207031 C 546.40625 325.207031 556.878906 320.140625 564.761719 310.015625 C 566.113281 308.214844 567.125 307.257812 567.800781 307.144531 C 568.027344 307.03125 568.308594 306.976562 568.644531 306.976562 C 569.660156 306.976562 570.503906 307.371094 571.179688 308.160156 C 571.855469 308.945312 572.136719 309.902344 572.023438 311.027344 C 514.03125 398.011719 484.582031 441.785156 483.683594 442.347656 C 483.230469 442.796875 482.667969 443.023438 481.992188 443.023438 C 480.53125 443.023438 479.515625 442.40625 478.953125 441.167969 C 478.390625 440.152344 478.390625 439.140625 478.953125 438.128906 C 479.066406 437.789062 491.507812 419.167969 516.28125 382.257812 C 528.21875 364.480469 537.339844 350.863281 543.644531 341.410156 C 549.953125 331.957031 553.105469 327.230469 553.105469 327.230469 C 547.136719 330.046875 540.605469 331.453125 533.511719 331.453125 Z M 489.933594 368.585938 C 493.085938 368.585938 496.238281 366.222656 499.390625 361.496094 C 502.542969 356.769531 504.175781 349.960938 504.289062 341.074219 C 504.289062 333.308594 502.882812 326.78125 500.066406 321.492188 C 497.253906 316.203125 493.480469 313.503906 488.75 313.390625 C 487.960938 313.390625 487.171875 313.558594 486.386719 313.898438 C 485.597656 314.234375 484.527344 314.855469 483.175781 315.753906 C 481.824219 316.652344 480.699219 318.34375 479.796875 320.816406 C 478.898438 323.292969 478.164062 326.273438 477.601562 329.765625 C 477.375 332.015625 477.265625 335.785156 477.265625 341.074219 L 477.265625 344.617188 C 477.265625 354.859375 479.121094 361.835938 482.839844 365.546875 C 484.863281 367.574219 487.003906 368.585938 489.257812 368.585938 Z M 539.421875 408.925781 C 539.421875 399.023438 541.902344 390.921875 546.855469 384.621094 C 551.8125 378.320312 557.609375 375.113281 564.253906 375 C 570.109375 375 575.175781 378.09375 579.457031 384.285156 C 583.734375 390.472656 585.929688 398.6875 586.042969 408.925781 C 586.15625 419.167969 583.960938 427.382812 579.457031 433.570312 C 574.953125 439.761719 569.828125 442.910156 564.085938 443.023438 C 557.777344 443.023438 552.09375 439.871094 547.023438 433.570312 C 541.957031 427.269531 539.421875 419.054688 539.421875 408.925781 Z M 564.929688 436.609375 C 568.082031 436.609375 571.234375 434.246094 574.386719 429.519531 C 577.542969 424.792969 579.175781 417.929688 579.285156 408.925781 C 579.285156 401.164062 577.878906 394.636719 575.0625 389.347656 C 572.25 384.058594 568.476562 381.414062 563.746094 381.414062 C 562.957031 381.414062 562.171875 381.582031 561.382812 381.921875 C 560.59375 382.257812 559.523438 382.878906 558.171875 383.777344 C 556.820312 384.675781 555.695312 386.367188 554.792969 388.839844 C 553.894531 391.316406 553.160156 394.296875 552.597656 397.785156 C 552.484375 399.136719 552.429688 402.851562 552.429688 408.925781 L 552.429688 412.640625 C 552.429688 428.621094 556.371094 436.609375 564.253906 436.609375 Z M 564.929688 436.609375 " fill-opacity="1" fill-rule="nonzero"/></g></svg>