<svg xmlns="http://www.w3.org/2000/svg" xmlns:xlink="http://www.w3.org/1999/xlink" width="1000" zoomAndPan="magnify" viewBox="0 0 750 749.999995" height="1000" preserveAspectRatio="xMidYMid meet" version="1.0"><defs><clipPath id="c3bd461fe3"><path d="M 119 131 L 604 131 L 604 620 L 119 620 Z M 119 131 " clip-rule="nonzero"/></clipPath><clipPath id="55e26c9b88"><path d="M 585.085938 80.210938 L 680.296875 569.789062 L 164.953125 670.007812 L 69.742188 180.429688 Z M 585.085938 80.210938 " clip-rule="nonzero"/></clipPath><clipPath id="3dad1b98a9"><path d="M 585.085938 80.210938 L 680.296875 569.789062 L 164.953125 670.007812 L 69.742188 180.429688 Z M 585.085938 80.210938 " clip-rule="nonzero"/></clipPath><clipPath id="29450800a1"><path d="M 175 373 L 594 373 L 594 621 L 175 621 Z M 175 373 " clip-rule="nonzero"/></clipPath><clipPath id="972f226cbc"><path d="M 585.085938 80.210938 L 680.296875 569.789062 L 164.953125 670.007812 L 69.742188 180.429688 Z M 585.085938 80.210938 " clip-rule="nonzero"/></clipPath><clipPath id="a6899e77c2"><path d="M 585.085938 80.210938 L 680.296875 569.789062 L 164.953125 670.007812 L 69.742188 180.429688 Z M 585.085938 80.210938 " clip-rule="nonzero"/></clipPath><clipPath id="78980eafb3"><path d="M 309 134 L 414 134 L 414 617 L 309 617 Z M 309 134 " clip-rule="nonzero"/></clipPath><clipPath id="a84aa3d81a"><path d="M 585.085938 80.210938 L 680.296875 569.789062 L 164.953125 670.007812 L 69.742188 180.429688 Z M 585.085938 80.210938 " clip-rule="nonzero"/></clipPath><clipPath id="58b84cbf60"><path d="M 585.085938 80.210938 L 680.296875 569.789062 L 164.953125 670.007812 L 69.742188 180.429688 Z M 585.085938 80.210938 " clip-rule="nonzero"/></clipPath><clipPath id="2491487307"><path d="M 127 291 L 598 291 L 598 452 L 127 452 Z M 127 291 " clip-rule="nonzero"/></clipPath><clipPath id="40825fc3b0"><path d="M 585.085938 80.210938 L 680.296875 569.789062 L 164.953125 670.007812 L 69.742188 180.429688 Z M 585.085938 80.210938 " clip-rule="nonzero"/></clipPath><clipPath id="0c846df5d7"><path d="M 585.085938 80.210938 L 680.296875 569.789062 L 164.953125 670.007812 L 69.742188 180.429688 Z M 585.085938 80.210938 " clip-rule="nonzero"/></clipPath><clipPath id="605534b399"><path d="M 169 211 L 548 211 L 548 538 L 169 538 Z M 169 211 " clip-rule="nonzero"/></clipPath><clipPath id="ddfe18e02d"><path d="M 585.085938 80.210938 L 680.296875 569.789062 L 164.953125 670.007812 L 69.742188 180.429688 Z M 585.085938 80.210938 " clip-rule="nonzero"/></clipPath><clipPath id="64132ab10b"><path d="M 585.085938 80.210938 L 680.296875 569.789062 L 164.953125 670.007812 L 69.742188 180.429688 Z M 585.085938 80.210938 " clip-rule="nonzero"/></clipPath><clipPath id="da7dca1702"><path d="M 112 128 L 610 128 L 610 626 L 112 626 Z M 112 128 " clip-rule="nonzero"/></clipPath><clipPath id="0734e8b9c1"><path d="M 585.085938 80.210938 L 680.296875 569.789062 L 164.953125 670.007812 L 69.742188 180.429688 Z M 585.085938 80.210938 " clip-rule="nonzero"/></clipPath><clipPath id="c4fe86c819"><path d="M 585.085938 80.210938 L 680.296875 569.789062 L 164.953125 670.007812 L 69.742188 180.429688 Z M 585.085938 80.210938 " clip-rule="nonzero"/></clipPath><clipPath id="0c25fb0098"><path d="M 403 459 L 525 459 L 525 506 L 403 506 Z M 403 459 " clip-rule="nonzero"/></clipPath><clipPath id="e4d7b4b80e"><path d="M 585.085938 80.210938 L 680.296875 569.789062 L 164.953125 670.007812 L 69.742188 180.429688 Z M 585.085938 80.210938 " clip-rule="nonzero"/></clipPath><clipPath id="570810bce9"><path d="M 585.085938 80.210938 L 680.296875 569.789062 L 164.953125 670.007812 L 69.742188 180.429688 Z M 585.085938 80.210938 " clip-rule="nonzero"/></clipPath><clipPath id="e4885bec9f"><path d="M 454 453 L 476 453 L 476 516 L 454 516 Z M 454 453 " clip-rule="nonzero"/></clipPath><clipPath id="dab0a0d51b"><path d="M 585.085938 80.210938 L 680.296875 569.789062 L 164.953125 670.007812 L 69.742188 180.429688 Z M 585.085938 80.210938 " clip-rule="nonzero"/></clipPath><clipPath id="c14e929bf5"><path d="M 585.085938 80.210938 L 680.296875 569.789062 L 164.953125 670.007812 L 69.742188 180.429688 Z M 585.085938 80.210938 " clip-rule="nonzero"/></clipPath></defs><rect x="-75" width="900" fill="#ffffff" y="-74.999999" height="899.999994" fill-opacity="1"/><rect x="-75" width="900" fill="#ffffff" y="-74.999999" height="899.999994" fill-opacity="1"/><g clip-path="url(#c3bd461fe3)"><g clip-path="url(#55e26c9b88)"><g clip-path="url(#3dad1b98a9)"><path fill="#fefefe" d="M 467.082031 599.195312 C 467.082031 599.195312 397.972656 617.121094 397.972656 617.121094 C 375.109375 623.050781 277.066406 617.703125 212.339844 568.542969 C 152.421875 523.03125 124.714844 433.945312 123.585938 426.632812 C 94.457031 238.125 241.113281 151.65625 318.296875 135.886719 C 398.113281 119.582031 460.707031 148.890625 545.121094 215.542969 C 635.445312 339.183594 593.492188 450.3125 593.492188 450.3125 C 568.570312 516.328125 362.859375 373.324219 362.859375 373.324219 Z M 467.082031 599.195312 " fill-opacity="1" fill-rule="nonzero"/></g></g></g><g clip-path="url(#29450800a1)"><g clip-path="url(#972f226cbc)"><g clip-path="url(#a6899e77c2)"><path fill="#6d5764" d="M 359.734375 373.101562 C 278.625 443.734375 207.527344 499.839844 176.257812 531.113281 C 161.546875 545.820312 304.148438 642.597656 413.25 616.089844 C 551.054688 582.605469 593.417969 446.910156 593.417969 446.910156 Z M 359.734375 373.101562 " fill-opacity="1" fill-rule="nonzero"/></g></g></g><g clip-path="url(#78980eafb3)"><g clip-path="url(#a84aa3d81a)"><g clip-path="url(#58b84cbf60)"><path fill="#00010d" d="M 318.726562 138.507812 L 413.199219 610.640625 C 413.710938 613.199219 412.054688 615.691406 409.492188 616.203125 C 406.933594 616.714844 404.441406 615.054688 403.929688 612.496094 L 309.457031 140.363281 C 308.945312 137.800781 310.605469 135.3125 313.164062 134.800781 C 315.726562 134.285156 318.214844 135.945312 318.726562 138.507812 Z M 318.726562 138.507812 " fill-opacity="1" fill-rule="nonzero"/></g></g></g><g clip-path="url(#2491487307)"><g clip-path="url(#40825fc3b0)"><g clip-path="url(#0c846df5d7)"><path fill="#00010d" d="M 133.640625 291.3125 L 594.300781 442.734375 C 596.78125 443.550781 598.132812 446.21875 597.316406 448.699219 C 596.5 451.179688 593.828125 452.53125 591.347656 451.714844 L 130.6875 300.292969 C 128.207031 299.476562 126.859375 296.804688 127.671875 294.324219 C 128.488281 291.84375 131.160156 290.496094 133.640625 291.3125 Z M 133.640625 291.3125 " fill-opacity="1" fill-rule="nonzero"/></g></g></g><g clip-path="url(#605534b399)"><g clip-path="url(#ddfe18e02d)"><g clip-path="url(#64132ab10b)"><path fill="#00010d" d="M 545.6875 219.808594 L 176.9375 536.253906 C 174.957031 537.953125 171.972656 537.726562 170.273438 535.746094 C 168.574219 533.765625 168.800781 530.78125 170.78125 529.078125 L 539.53125 212.632812 C 541.511719 210.933594 544.496094 211.160156 546.195312 213.144531 C 547.898438 215.125 547.667969 218.109375 545.6875 219.808594 Z M 545.6875 219.808594 " fill-opacity="1" fill-rule="nonzero"/></g></g></g><g clip-path="url(#da7dca1702)"><g clip-path="url(#0734e8b9c1)"><g clip-path="url(#c4fe86c819)"><path fill="#00010d" d="M 408.667969 621.085938 C 273.902344 647.292969 143.410156 559.292969 117.203125 424.527344 C 90.992188 289.761719 178.996094 159.265625 313.761719 133.058594 C 448.527344 106.851562 579.019531 194.855469 605.230469 329.617188 C 631.4375 464.382812 543.433594 594.878906 408.667969 621.085938 M 406.574219 610.316406 C 535.394531 585.265625 619.511719 460.53125 594.460938 331.714844 C 569.410156 202.894531 444.671875 118.777344 315.855469 143.828125 C 187.039062 168.878906 102.917969 293.613281 127.96875 422.433594 C 153.023438 551.25 277.757812 635.371094 406.574219 610.316406 Z M 406.574219 610.316406 " fill-opacity="1" fill-rule="nonzero"/></g></g></g><g clip-path="url(#0c25fb0098)"><g clip-path="url(#e4d7b4b80e)"><g clip-path="url(#570810bce9)"><path fill="#6d5764" d="M 515.207031 473.019531 C 515.023438 472.070312 514.457031 471.335938 513.515625 470.816406 C 512.511719 470.238281 511.425781 469.957031 510.257812 469.972656 C 510.050781 469.992188 509.765625 470.023438 509.398438 470.070312 C 509.03125 470.117188 508.769531 470.148438 508.605469 470.15625 C 507.792969 470.195312 507.199219 470.089844 506.820312 469.835938 C 506.441406 469.558594 506.164062 469.039062 505.992188 468.273438 C 505.808594 467.582031 505.660156 466.933594 505.542969 466.324219 C 505.378906 465.488281 505.257812 464.683594 505.175781 463.902344 L 505.175781 463.898438 C 504.988281 464.265625 504.929688 464.683594 505 465.164062 C 505.097656 465.949219 505.230469 466.757812 505.394531 467.601562 C 505.515625 468.230469 505.65625 468.875 505.816406 469.539062 C 505.964844 470.1875 506.191406 470.625 506.492188 470.847656 C 506.789062 471.046875 507.296875 471.125 508.011719 471.078125 C 508.152344 471.074219 508.429688 471.046875 508.839844 470.988281 C 509.183594 470.945312 509.457031 470.914062 509.664062 470.898438 C 510.90625 470.890625 512.0625 471.179688 513.136719 471.769531 C 514.058594 472.292969 514.648438 473.035156 514.90625 473.992188 C 515 473.878906 515.101562 473.742188 515.210938 473.578125 C 515.226562 473.296875 515.226562 473.109375 515.207031 473.019531 Z M 520.527344 482.398438 C 518.019531 485.03125 514.609375 486.441406 510.296875 486.625 C 506.625 486.777344 503.042969 486.113281 499.546875 484.640625 C 497.019531 483.582031 493.003906 481.90625 487.496094 479.601562 L 486.691406 479.265625 C 485.921875 478.925781 485.339844 478.699219 484.945312 478.585938 C 484.945312 478.585938 484.917969 478.582031 484.871094 478.566406 C 484.921875 478.953125 484.984375 479.339844 485.058594 479.726562 C 485.4375 479.863281 485.933594 480.058594 486.542969 480.3125 C 492.414062 482.78125 496.597656 484.542969 499.101562 485.605469 C 502.542969 487.042969 506.078125 487.691406 509.703125 487.546875 C 514.414062 487.355469 518.019531 485.640625 520.527344 482.402344 Z M 524.109375 469.207031 C 523.644531 466.824219 522.894531 465.089844 521.851562 463.996094 C 521.644531 463.777344 521.445312 463.582031 521.246094 463.410156 C 517.816406 460.234375 513.40625 459.125 508.015625 460.078125 C 506.820312 460.3125 506.296875 461.046875 506.441406 462.28125 C 506.542969 463.066406 506.671875 463.878906 506.835938 464.71875 C 506.957031 465.347656 507.101562 465.996094 507.257812 466.65625 C 507.414062 467.328125 507.648438 467.765625 507.96875 467.960938 C 508.242188 468.164062 508.738281 468.242188 509.457031 468.199219 C 509.617188 468.191406 509.894531 468.160156 510.28125 468.105469 C 510.648438 468.058594 510.925781 468.039062 511.113281 468.050781 C 512.371094 468.015625 513.53125 468.308594 514.585938 468.921875 C 515.636719 469.5 516.265625 470.308594 516.46875 471.351562 C 516.476562 471.402344 516.488281 471.453125 516.496094 471.503906 C 516.664062 472.617188 516.335938 473.640625 515.511719 474.574219 C 514.933594 475.226562 514.234375 475.667969 513.414062 475.898438 C 511.949219 476.324219 510.671875 476.488281 509.574219 476.398438 C 507.351562 476.175781 505.363281 475.765625 503.605469 475.167969 C 502 474.613281 498.15625 472.984375 492.078125 470.277344 C 487.6875 468.296875 484.722656 466.976562 483.1875 466.3125 C 481.730469 465.683594 480.46875 465.460938 479.402344 465.644531 C 477.429688 465.980469 475.976562 466.261719 475.035156 466.492188 C 474.390625 466.664062 473.96875 466.898438 473.765625 467.195312 C 473.570312 467.515625 473.519531 468.027344 473.609375 468.738281 C 473.640625 469.011719 473.734375 469.558594 473.890625 470.371094 L 477.027344 486.488281 C 477.28125 487.796875 477.480469 488.707031 477.628906 489.21875 C 477.867188 490.085938 478.402344 490.484375 479.230469 490.417969 C 481.003906 490.257812 482.730469 489.921875 484.414062 489.410156 C 485.253906 489.152344 485.644531 488.582031 485.59375 487.703125 C 485.582031 487.167969 485.503906 486.527344 485.359375 485.78125 L 484.296875 480.328125 C 484.113281 479.265625 484.007812 478.535156 483.980469 478.140625 C 483.921875 477.496094 484.066406 477.035156 484.414062 476.757812 C 484.785156 476.5 485.292969 476.46875 485.941406 476.671875 C 486.316406 476.785156 487 477.050781 487.996094 477.46875 C 493.804688 479.875 498 481.625 500.578125 482.714844 C 504 484.183594 507.523438 484.832031 511.148438 484.667969 C 517.097656 484.421875 521.3125 481.753906 523.785156 476.65625 C 524.570312 475.027344 524.722656 472.796875 524.242188 469.960938 C 524.199219 469.703125 524.15625 469.453125 524.109375 469.207031 Z M 484.078125 491.125 C 483.867188 491.238281 483.726562 491.300781 483.660156 491.3125 C 481.9375 491.859375 480.191406 492.210938 478.417969 492.367188 C 477.355469 492.457031 476.660156 491.949219 476.328125 490.839844 C 476.175781 490.308594 475.992188 489.488281 475.777344 488.382812 L 472.492188 471.484375 C 472.394531 470.988281 472.332031 470.601562 472.304688 470.328125 C 472.292969 470.28125 472.296875 470.246094 472.316406 470.21875 L 472.296875 470.117188 C 472.121094 470.410156 472.0625 470.902344 472.125 471.589844 C 472.15625 471.867188 472.253906 472.421875 472.414062 473.257812 L 475.542969 489.339844 C 475.796875 490.652344 476 491.5625 476.144531 492.070312 C 476.410156 492.957031 476.957031 493.355469 477.78125 493.265625 C 479.539062 493.132812 481.265625 492.796875 482.964844 492.257812 C 483.558594 492.070312 483.929688 491.695312 484.078125 491.128906 Z M 451.597656 495.964844 C 449.871094 497.800781 447.753906 498.894531 445.242188 499.242188 C 443.804688 499.425781 442.914062 498.828125 442.574219 497.441406 C 442.453125 496.949219 442.332031 496.375 442.203125 495.71875 L 441.664062 492.941406 C 441.460938 493.351562 441.417969 493.863281 441.535156 494.472656 C 441.546875 494.519531 441.554688 494.566406 441.566406 494.613281 L 441.960938 496.644531 C 442.007812 496.925781 442.054688 497.1875 442.101562 497.429688 C 442.199219 497.917969 442.292969 498.332031 442.390625 498.671875 C 442.542969 499.320312 442.789062 499.753906 443.136719 499.964844 C 443.457031 500.183594 443.9375 500.242188 444.574219 500.144531 C 447.449219 499.75 449.777344 498.394531 451.550781 496.082031 C 451.546875 496.058594 451.554688 496.042969 451.578125 496.039062 C 451.597656 496.015625 451.601562 495.992188 451.601562 495.96875 Z M 445.542969 487.226562 C 445.417969 486.597656 445.0625 486.085938 444.46875 485.683594 C 443.925781 485.300781 443.308594 485.078125 442.621094 485.027344 C 440.90625 484.890625 438.957031 485.175781 436.777344 485.882812 C 436.824219 486.011719 436.847656 486.066406 436.84375 486.042969 C 436.855469 486.113281 436.882812 486.1875 436.921875 486.273438 C 436.949219 486.410156 436.976562 486.488281 437.003906 486.503906 C 438.824219 485.988281 440.507812 485.800781 442.058594 485.941406 C 442.84375 486 443.535156 486.242188 444.132812 486.664062 C 444.515625 486.941406 444.816406 487.28125 445.035156 487.683594 C 445.054688 487.679688 445.089844 487.660156 445.128906 487.628906 C 445.175781 487.621094 445.195312 487.605469 445.191406 487.582031 C 445.292969 487.515625 445.402344 487.414062 445.515625 487.273438 C 445.519531 487.179688 445.53125 487.167969 445.542969 487.230469 Z M 428.492188 490.269531 L 428.207031 490.253906 C 427.960938 489.222656 427.328125 488.621094 426.308594 488.445312 C 425.828125 488.375 425.386719 488.34375 424.992188 488.347656 C 422.609375 488.390625 419.679688 488.914062 416.195312 489.917969 C 415.796875 490.042969 415.433594 490.21875 415.101562 490.449219 C 414.980469 490.660156 414.90625 490.882812 414.882812 491.121094 C 415.160156 490.976562 415.363281 490.890625 415.5 490.863281 C 419.003906 489.851562 421.972656 489.324219 424.398438 489.273438 C 424.839844 489.257812 425.300781 489.285156 425.785156 489.355469 C 426.78125 489.535156 427.460938 490.082031 427.824219 490.996094 C 427.886719 490.949219 427.917969 490.925781 427.925781 490.929688 L 427.925781 490.933594 C 427.925781 490.933594 427.925781 490.9375 427.921875 490.9375 L 427.925781 490.9375 C 428.003906 490.875 428.113281 490.773438 428.246094 490.632812 C 428.21875 490.355469 428.210938 490.265625 428.226562 490.355469 L 428.464844 490.308594 C 428.464844 490.308594 428.472656 490.296875 428.492188 490.269531 Z M 429.496094 488.746094 C 429.726562 489.925781 429.359375 490.871094 428.398438 491.585938 C 427.625 492.183594 426.707031 492.59375 425.652344 492.824219 C 425.492188 492.855469 424.410156 493.066406 422.398438 493.457031 C 420.074219 493.910156 418.8125 494.15625 418.609375 494.195312 C 417.3125 494.398438 416.183594 494.136719 415.222656 493.410156 C 414.589844 492.949219 414.210938 492.394531 414.085938 491.753906 C 414.078125 491.703125 414.070312 491.652344 414.0625 491.597656 C 413.976562 490.914062 414.183594 490.226562 414.679688 489.546875 C 415.242188 488.804688 415.996094 488.292969 416.949219 488.015625 C 420.453125 487.003906 423.421875 486.476562 425.847656 486.425781 C 426.289062 486.410156 426.75 486.4375 427.234375 486.507812 C 428.445312 486.714844 429.195312 487.4375 429.480469 488.671875 C 429.488281 488.695312 429.492188 488.71875 429.496094 488.746094 Z M 455.066406 484.152344 C 454.421875 480.832031 452.765625 478.296875 450.105469 476.542969 C 447.71875 474.992188 445.078125 474.484375 442.183594 475.023438 C 441.351562 475.1875 436.746094 476.082031 428.371094 477.710938 C 420.015625 479.335938 415.320312 480.25 414.285156 480.449219 C 411.21875 481.070312 408.847656 482.667969 407.167969 485.242188 C 405.570312 487.664062 405.085938 490.496094 405.714844 493.730469 C 405.75 493.902344 405.789062 494.078125 405.828125 494.253906 C 406.484375 497.148438 407.976562 499.402344 410.304688 501.011719 C 412.632812 502.617188 415.261719 503.183594 418.191406 502.710938 C 419.351562 502.53125 423.144531 501.804688 429.574219 500.53125 C 431.308594 500.167969 432.914062 499.332031 434.390625 498.011719 C 436.703125 495.921875 437.617188 493.449219 437.128906 490.59375 C 437.082031 490.308594 437.03125 490.027344 436.980469 489.753906 C 436.738281 488.515625 436.429688 487.375 436.058594 486.335938 C 436 486.179688 435.957031 486.03125 435.929688 485.890625 C 435.765625 485.042969 436.132812 484.460938 437.035156 484.144531 C 439.421875 483.28125 441.578125 482.933594 443.507812 483.097656 C 444.292969 483.152344 444.984375 483.394531 445.582031 483.816406 C 446.265625 484.308594 446.671875 484.902344 446.808594 485.601562 C 446.835938 485.738281 446.851562 485.882812 446.855469 486.03125 C 446.882812 486.890625 446.5 487.632812 445.707031 488.257812 C 445.277344 488.574219 444.800781 488.84375 444.28125 489.058594 C 443.179688 489.546875 442.75 490.402344 442.988281 491.625 C 442.996094 491.671875 443.003906 491.71875 443.015625 491.765625 L 443.410156 493.796875 C 443.574219 494.632812 443.71875 495.308594 443.839844 495.824219 C 443.992188 496.472656 444.238281 496.90625 444.585938 497.121094 C 444.910156 497.335938 445.386719 497.398438 446.023438 497.296875 C 448.898438 496.902344 451.226562 495.546875 453 493.234375 C 455.039062 490.589844 455.726562 487.5625 455.066406 484.152344 Z M 434.375 499.253906 C 434.105469 499.535156 433.914062 499.722656 433.792969 499.816406 C 432.285156 501.210938 430.613281 502.085938 428.785156 502.441406 C 428.289062 502.539062 427.296875 502.742188 425.8125 503.054688 C 422.09375 503.800781 419.277344 504.324219 417.367188 504.625 C 414.347656 505.121094 411.632812 504.535156 409.226562 502.871094 C 406.792969 501.210938 405.238281 498.867188 404.554688 495.835938 L 404.441406 495.261719 C 404.214844 494.089844 404.125 492.964844 404.167969 491.878906 L 404.167969 491.875 C 403.902344 493.3125 403.933594 494.863281 404.253906 496.523438 C 404.292969 496.714844 404.332031 496.90625 404.378906 497.101562 C 405.035156 499.996094 406.523438 502.238281 408.847656 503.824219 C 411.179688 505.453125 413.8125 506.03125 416.742188 505.554688 C 417.855469 505.386719 421.636719 504.652344 428.085938 503.351562 C 429.84375 503.007812 431.464844 502.179688 432.941406 500.859375 C 433.496094 500.355469 433.972656 499.824219 434.375 499.257812 Z M 434.375 499.253906 " fill-opacity="1" fill-rule="nonzero"/></g></g></g><g clip-path="url(#e4885bec9f)"><g clip-path="url(#dab0a0d51b)"><g clip-path="url(#c14e929bf5)"><path fill="#6d5764" d="M 464.59375 456.332031 C 464.328125 455.195312 463.914062 454.582031 463.351562 454.5 C 463.5 454.78125 463.636719 455.195312 463.765625 455.742188 C 463.796875 455.902344 463.84375 456.15625 463.910156 456.5 L 466.5 470.113281 C 469.910156 488.054688 472.46875 501.507812 474.171875 510.46875 C 474.5 512.191406 474.503906 513.285156 474.1875 513.75 C 473.847656 514.21875 472.796875 514.625 471.027344 514.960938 L 470.679688 515.023438 C 469.921875 515.167969 469.277344 515.269531 468.738281 515.324219 C 468.984375 515.492188 469.308594 515.558594 469.707031 515.53125 C 470.265625 515.472656 471.085938 515.339844 472.167969 515.136719 C 473.820312 514.820312 474.777344 514.472656 475.039062 514.089844 C 475.320312 513.703125 475.3125 512.703125 475.003906 511.097656 C 474.03125 505.972656 470.621094 488.039062 464.777344 457.296875 C 464.679688 456.792969 464.621094 456.472656 464.59375 456.332031 Z M 462.058594 455.03125 C 461.839844 454.121094 461.578125 453.5625 461.277344 453.355469 C 460.972656 453.128906 460.378906 453.074219 459.496094 453.195312 C 459.265625 453.238281 458.703125 453.347656 457.808594 453.515625 C 456.109375 453.839844 455.136719 454.167969 454.890625 454.5 C 454.648438 454.855469 454.683594 455.859375 454.996094 457.515625 L 465.128906 510.796875 C 465.148438 510.898438 465.167969 510.996094 465.183594 511.09375 C 465.367188 512.027344 465.527344 512.738281 465.664062 513.230469 C 465.894531 513.949219 466.394531 514.269531 467.167969 514.195312 C 467.730469 514.15625 468.542969 514.039062 469.597656 513.839844 C 471.25 513.5 472.214844 513.136719 472.5 512.75 C 472.78125 512.363281 472.769531 511.367188 472.464844 509.757812 C 471.328125 503.785156 467.921875 485.863281 462.242188 455.996094 C 462.148438 455.488281 462.085938 455.167969 462.058594 455.03125 Z M 462.058594 455.03125 " fill-opacity="1" fill-rule="nonzero"/></g></g></g></svg>