<svg xmlns="http://www.w3.org/2000/svg" xmlns:xlink="http://www.w3.org/1999/xlink" width="1000" zoomAndPan="magnify" viewBox="0 0 750 749.999995" height="1000" preserveAspectRatio="xMidYMid meet" version="1.0"><rect x="-75" width="900" fill="#ffffff" y="-74.999999" height="899.999994" fill-opacity="1"/><rect x="-75" width="900" fill="#ffffff" y="-74.999999" height="899.999994" fill-opacity="1"/><path fill="#000000" d="M 61.382812 355.164062 L 59.921875 355.726562 C 58.878906 356.097656 57.382812 356.472656 55.4375 356.847656 C 53.496094 357.21875 51.328125 357.480469 48.9375 357.628906 L 46.804688 357.628906 L 46.804688 352.476562 L 48.9375 352.476562 C 52.449219 352.328125 55.699219 351.769531 58.691406 350.796875 C 61.679688 349.824219 63.773438 348.929688 64.96875 348.109375 C 66.164062 347.285156 67.210938 346.464844 68.109375 345.644531 C 68.257812 345.417969 68.707031 345.308594 69.453125 345.308594 C 70.125 345.308594 70.761719 345.53125 71.359375 345.980469 L 71.359375 379.476562 L 71.472656 413.082031 C 71.996094 413.605469 72.441406 413.941406 72.816406 414.089844 C 73.191406 414.242188 74.085938 414.390625 75.507812 414.539062 C 76.929688 414.6875 79.246094 414.761719 82.460938 414.761719 L 85.375 414.761719 L 85.375 419.917969 L 84.140625 419.917969 C 82.570312 419.691406 76.628906 419.582031 66.3125 419.582031 C 56.148438 419.582031 50.28125 419.691406 48.710938 419.917969 L 47.367188 419.917969 L 47.367188 414.761719 L 50.28125 414.761719 C 51.925781 414.761719 53.347656 414.761719 54.542969 414.761719 C 55.738281 414.761719 56.671875 414.726562 57.34375 414.652344 C 58.015625 414.578125 58.617188 414.464844 59.136719 414.316406 C 59.660156 414.167969 59.960938 414.089844 60.035156 414.089844 C 60.109375 414.089844 60.335938 413.90625 60.707031 413.53125 C 61.082031 413.15625 61.304688 413.007812 61.382812 413.082031 Z M 61.382812 355.164062 " fill-opacity="1" fill-rule="nonzero"/><path fill="#000000" d="M 98.265625 384.851562 C 98.265625 372.679688 101.292969 363.046875 107.347656 355.949219 C 113.402344 348.855469 120.128906 345.308594 127.53125 345.308594 C 132.6875 345.308594 136.386719 346.652344 138.628906 349.339844 C 140.871094 352.027344 141.992188 355.015625 141.992188 358.300781 C 141.992188 360.167969 141.46875 361.664062 140.421875 362.785156 C 139.378906 363.902344 137.917969 364.464844 136.050781 364.464844 C 134.332031 364.464844 132.910156 363.941406 131.789062 362.894531 C 130.667969 361.851562 130.109375 360.394531 130.109375 358.527344 C 130.109375 355.242188 131.867188 353.261719 135.378906 352.589844 C 133.734375 350.945312 131.417969 350.011719 128.425781 349.789062 C 123.121094 349.789062 118.746094 352.027344 115.308594 356.511719 C 111.796875 361.4375 110.039062 368.980469 110.039062 379.140625 L 110.152344 379.585938 C 110.527344 379.140625 110.824219 378.652344 111.050781 378.132812 C 114.113281 373.648438 118.113281 371.410156 123.046875 371.410156 L 123.492188 371.410156 C 126.933594 371.410156 129.960938 372.117188 132.574219 373.539062 C 134.371094 374.582031 136.164062 376.078125 137.957031 378.019531 C 139.75 379.960938 141.207031 382.089844 142.328125 384.40625 C 143.898438 388.0625 144.683594 392.058594 144.683594 396.390625 L 144.683594 398.40625 C 144.683594 400.125 144.496094 401.730469 144.125 403.226562 C 143.300781 407.632812 140.910156 411.925781 136.949219 416.109375 C 132.988281 420.289062 127.980469 422.382812 121.925781 422.382812 C 119.832031 422.382812 117.8125 422.082031 115.871094 421.484375 C 113.925781 420.886719 111.832031 419.765625 109.589844 418.125 C 107.347656 416.480469 105.441406 414.277344 103.875 411.515625 C 102.304688 408.75 100.957031 405.128906 99.835938 400.648438 C 98.714844 396.167969 98.191406 390.902344 98.265625 384.851562 Z M 122.371094 375.441406 C 120.128906 375.441406 118.1875 376.078125 116.542969 377.347656 C 114.898438 378.617188 113.628906 380.296875 112.730469 382.386719 C 111.832031 384.480469 111.199219 386.609375 110.824219 388.773438 C 110.449219 390.9375 110.226562 393.253906 110.152344 395.71875 C 110.152344 401.917969 110.601562 406.363281 111.496094 409.050781 C 112.394531 411.738281 113.8125 413.90625 115.757812 415.546875 C 117.550781 416.890625 119.53125 417.5625 121.699219 417.5625 C 125.511719 417.5625 128.425781 416.144531 130.445312 413.308594 C 131.417969 411.964844 132.089844 410.28125 132.464844 408.265625 C 132.835938 406.25 133.023438 402.328125 133.023438 396.503906 C 133.023438 390.527344 132.835938 386.53125 132.464844 384.515625 C 132.089844 382.5 131.417969 380.820312 130.445312 379.476562 C 128.425781 376.785156 125.734375 375.441406 122.371094 375.441406 Z M 122.371094 375.441406 " fill-opacity="1" fill-rule="nonzero"/><path fill="#000000" d="M 155.449219 387.542969 C 155.96875 384.40625 157.988281 380.78125 161.5 376.675781 C 165.015625 372.566406 169.351562 370.476562 174.507812 370.402344 C 177.125 370.402344 179.515625 371.074219 181.683594 372.417969 C 183.851562 373.761719 185.457031 375.441406 186.503906 377.457031 C 189.644531 372.753906 193.417969 370.402344 197.828125 370.402344 C 200.59375 370.402344 202.984375 371.222656 205.003906 372.867188 C 207.019531 374.507812 208.066406 376.710938 208.140625 379.476562 C 208.140625 381.640625 207.621094 383.394531 206.574219 384.742188 C 205.527344 386.085938 204.515625 386.90625 203.546875 387.207031 C 202.574219 387.503906 201.714844 387.652344 200.96875 387.652344 C 199.546875 387.652344 198.386719 387.242188 197.492188 386.421875 C 196.59375 385.597656 196.144531 384.515625 196.144531 383.171875 C 196.144531 379.738281 198.015625 377.382812 201.75 376.113281 C 200.929688 375.144531 199.433594 374.660156 197.265625 374.660156 C 196.296875 374.660156 195.585938 374.734375 195.136719 374.882812 C 192.296875 376.078125 190.203125 378.542969 188.859375 382.277344 C 184.375 398.78125 182.132812 408.414062 182.132812 411.179688 C 182.132812 413.269531 182.730469 414.761719 183.925781 415.660156 C 185.121094 416.554688 186.429688 417.003906 187.847656 417.003906 C 190.613281 417.003906 193.34375 415.773438 196.035156 413.308594 C 198.722656 410.84375 200.554688 407.816406 201.527344 404.234375 C 201.75 403.484375 201.976562 403.074219 202.199219 403 C 202.425781 402.925781 203.023438 402.851562 203.992188 402.777344 L 204.441406 402.777344 C 205.5625 402.777344 206.125 403.074219 206.125 403.671875 C 206.125 403.746094 206.050781 404.160156 205.898438 404.90625 C 204.703125 409.164062 202.386719 412.933594 198.949219 416.21875 C 195.511719 419.507812 191.511719 421.148438 186.953125 421.148438 C 181.71875 421.148438 177.757812 418.796875 175.066406 414.089844 C 172.003906 418.722656 168.492188 421.035156 164.527344 421.035156 L 163.855469 421.035156 C 160.195312 421.035156 157.578125 420.066406 156.007812 418.125 C 154.4375 416.183594 153.617188 414.128906 153.542969 411.964844 C 153.542969 409.574219 154.25 407.632812 155.671875 406.136719 C 157.089844 404.644531 158.773438 403.898438 160.71875 403.898438 C 163.929688 403.898438 165.539062 405.464844 165.539062 408.601562 C 165.539062 410.097656 165.089844 411.402344 164.191406 412.523438 C 163.296875 413.644531 162.4375 414.390625 161.613281 414.761719 C 160.792969 415.136719 160.304688 415.324219 160.15625 415.324219 L 159.820312 415.4375 C 159.820312 415.511719 160.042969 415.660156 160.492188 415.882812 C 160.941406 416.109375 161.539062 416.371094 162.285156 416.667969 C 163.035156 416.964844 163.742188 417.078125 164.417969 417.003906 C 167.109375 417.003906 169.425781 415.324219 171.367188 411.964844 C 172.039062 410.769531 172.898438 408.230469 173.945312 404.34375 C 174.992188 400.460938 176.039062 396.429688 177.085938 392.246094 C 178.132812 388.0625 178.730469 385.597656 178.878906 384.851562 C 179.253906 382.835938 179.441406 381.378906 179.441406 380.484375 C 179.441406 378.390625 178.878906 376.898438 177.757812 376.003906 C 176.636719 375.105469 175.367188 374.660156 173.945312 374.660156 C 170.957031 374.660156 168.152344 375.851562 165.539062 378.242188 C 162.921875 380.632812 161.089844 383.695312 160.042969 387.429688 C 159.894531 388.101562 159.707031 388.476562 159.484375 388.550781 C 159.257812 388.625 158.660156 388.699219 157.691406 388.773438 L 156.121094 388.773438 C 155.671875 388.324219 155.449219 387.914062 155.449219 387.542969 Z M 155.449219 387.542969 " fill-opacity="1" fill-rule="nonzero"/><path fill="#000000" d="M 226.089844 339.671875 C 224.660156 339.671875 223.523438 339.195312 222.679688 338.246094 C 221.835938 337.296875 221.410156 336.132812 221.410156 334.761719 C 221.410156 331.011719 222.8125 327.765625 225.613281 325.019531 C 228.414062 322.273438 231.902344 320.902344 236.074219 320.902344 C 240.882812 320.902344 244.902344 322.378906 248.125 325.335938 C 251.347656 328.292969 252.984375 332.121094 253.039062 336.820312 C 253.039062 339.089844 252.511719 341.257812 251.453125 343.316406 C 250.398438 345.375 249.128906 347.171875 247.648438 348.703125 C 246.167969 350.234375 244.054688 352.1875 241.308594 354.5625 C 239.40625 356.199219 236.761719 358.628906 233.378906 361.847656 L 228.703125 366.285156 L 234.726562 366.363281 C 243.023438 366.363281 247.4375 366.230469 247.964844 365.96875 C 248.335938 365.863281 248.96875 363.511719 249.867188 358.917969 L 249.867188 358.679688 L 253.039062 358.679688 L 253.039062 358.917969 C 252.984375 359.078125 252.644531 361.480469 252.007812 366.125 C 251.375 370.773438 250.976562 373.203125 250.820312 373.414062 L 250.820312 373.648438 L 221.410156 373.648438 L 221.410156 371.195312 C 221.410156 370.824219 221.570312 370.429688 221.886719 370.007812 C 222.203125 369.585938 222.996094 368.660156 224.265625 367.234375 C 225.796875 365.546875 227.117188 364.066406 228.226562 362.800781 C 228.703125 362.269531 229.601562 361.292969 230.921875 359.867188 C 232.246094 358.441406 233.144531 357.464844 233.617188 356.9375 C 234.09375 356.410156 234.859375 355.539062 235.917969 354.324219 C 236.972656 353.109375 237.714844 352.210938 238.136719 351.632812 C 238.558594 351.050781 239.167969 350.257812 239.960938 349.253906 C 240.753906 348.253906 241.308594 347.40625 241.625 346.722656 C 241.941406 346.035156 242.339844 345.269531 242.8125 344.425781 C 243.289062 343.578125 243.632812 342.734375 243.84375 341.890625 C 244.054688 341.046875 244.242188 340.253906 244.398438 339.515625 C 244.558594 338.773438 244.636719 337.902344 244.636719 336.898438 C 244.636719 333.574219 243.738281 330.695312 241.941406 328.265625 C 240.144531 325.839844 237.582031 324.625 234.253906 324.625 C 232.507812 324.625 230.976562 325.074219 229.65625 325.96875 C 228.335938 326.867188 227.410156 327.738281 226.882812 328.585938 C 226.351562 329.429688 226.089844 329.929688 226.089844 330.089844 C 226.089844 330.140625 226.21875 330.167969 226.484375 330.167969 C 227.4375 330.167969 228.414062 330.539062 229.417969 331.277344 C 230.421875 332.015625 230.921875 333.230469 230.921875 334.921875 C 230.921875 336.242188 230.5 337.347656 229.65625 338.246094 C 228.808594 339.144531 227.621094 339.621094 226.089844 339.671875 Z M 226.089844 339.671875 " fill-opacity="1" fill-rule="nonzero"/><path fill="#000000" d="M 293.890625 393.367188 C 293.890625 393.367188 293.890625 392.882812 293.890625 391.910156 C 293.890625 390.9375 294.414062 390.191406 295.460938 389.667969 L 328.980469 389.667969 L 328.980469 372.867188 L 329.09375 356.0625 C 329.84375 355.089844 330.550781 354.605469 331.226562 354.605469 C 332.195312 354.605469 332.945312 355.164062 333.46875 356.285156 L 333.46875 389.667969 L 366.878906 389.667969 C 368 390.265625 368.558594 391.015625 368.558594 391.910156 C 368.558594 392.804688 368 393.554688 366.878906 394.152344 L 333.46875 394.152344 L 333.46875 427.535156 C 332.867188 428.578125 332.195312 429.101562 331.449219 429.101562 L 331 429.101562 C 330.101562 429.101562 329.429688 428.578125 328.980469 427.535156 L 328.980469 394.152344 L 295.460938 394.152344 C 294.414062 393.628906 293.890625 392.882812 293.890625 391.910156 Z M 293.890625 393.367188 " fill-opacity="1" fill-rule="nonzero"/><path fill="#000000" d="M 407.597656 373.203125 C 407.597656 373.203125 407.597656 370.328125 407.597656 364.574219 C 407.597656 358.824219 409.617188 354.195312 413.652344 350.683594 C 417.691406 347.175781 422.324219 345.382812 427.554688 345.308594 C 432.863281 345.308594 437.570312 346.875 441.683594 350.011719 C 445.792969 353.148438 447.847656 357.21875 447.847656 362.222656 C 447.847656 364.464844 447.4375 366.554688 446.617188 368.496094 C 445.792969 370.4375 444.820312 372.007812 443.699219 373.203125 C 442.578125 374.398438 441.421875 375.441406 440.226562 376.339844 C 439.027344 377.234375 438.058594 377.90625 437.308594 378.355469 C 436.5625 378.804688 436.152344 379.101562 436.078125 379.25 L 437.644531 380.257812 C 438.691406 381.007812 439.738281 381.753906 440.785156 382.5 C 441.832031 383.246094 442.429688 383.65625 442.578125 383.734375 C 448.183594 388.140625 450.988281 393.703125 450.988281 400.425781 C 450.988281 406.324219 448.820312 411.441406 444.484375 415.773438 C 440.148438 420.101562 434.542969 422.304688 427.667969 422.382812 C 420.941406 422.382812 415.410156 420.476562 411.074219 416.667969 C 406.738281 412.859375 404.570312 408.152344 404.570312 402.554688 C 404.570312 394.488281 409.394531 387.765625 419.035156 382.386719 L 417.015625 380.933594 C 415.445312 379.960938 414.4375 379.214844 413.988281 378.691406 C 409.730469 375.03125 407.597656 370.328125 407.597656 364.574219 Z M 431.816406 376.675781 L 432.488281 376.226562 C 432.9375 375.929688 433.273438 375.703125 433.496094 375.554688 C 433.722656 375.40625 434.097656 375.144531 434.621094 374.769531 C 435.140625 374.398438 435.589844 374.023438 435.964844 373.648438 C 436.339844 373.277344 436.75 372.828125 437.199219 372.304688 C 437.644531 371.78125 438.058594 371.296875 438.429688 370.847656 C 438.804688 370.402344 439.179688 369.804688 439.550781 369.058594 C 439.925781 368.308594 440.261719 367.675781 440.5625 367.152344 C 440.859375 366.628906 441.046875 365.882812 441.121094 364.910156 C 441.195312 363.941406 441.269531 363.121094 441.347656 362.449219 C 441.347656 359.234375 440.261719 356.511719 438.09375 354.269531 C 435.925781 352.027344 433.421875 350.609375 430.582031 350.011719 C 430.058594 349.9375 428.828125 349.902344 426.882812 349.902344 C 423.820312 349.902344 420.941406 350.871094 418.25 352.8125 C 415.558594 354.753906 414.175781 357.183594 414.101562 360.09375 C 414.101562 361.8125 414.585938 363.382812 415.558594 364.800781 C 416.53125 366.21875 417.503906 367.300781 418.472656 368.046875 C 419.445312 368.796875 421.316406 369.992188 424.082031 371.632812 C 424.601562 372.007812 425.015625 372.269531 425.3125 372.417969 Z M 427.78125 417.5625 C 432.113281 417.5625 435.851562 416.292969 438.992188 413.753906 C 442.132812 411.214844 443.699219 408.152344 443.699219 404.570312 C 443.699219 403.300781 443.515625 402.105469 443.140625 400.984375 C 442.765625 399.863281 442.316406 398.929688 441.792969 398.183594 C 441.269531 397.4375 440.449219 396.617188 439.328125 395.71875 C 438.207031 394.824219 437.347656 394.152344 436.75 393.703125 C 436.152344 393.253906 435.066406 392.546875 433.496094 391.574219 C 431.929688 390.601562 430.917969 389.96875 430.472656 389.667969 C 429.425781 388.996094 428.304688 388.289062 427.105469 387.542969 C 425.910156 386.792969 424.941406 386.160156 424.191406 385.636719 L 423.296875 385.078125 C 422.847656 385.078125 421.761719 385.710938 420.042969 386.980469 C 418.324219 388.25 416.53125 390.304688 414.664062 393.144531 C 412.792969 395.980469 411.820312 399.042969 411.746094 402.328125 C 411.746094 406.734375 413.355469 410.355469 416.566406 413.195312 C 419.78125 416.03125 423.519531 417.488281 427.78125 417.5625 Z M 427.78125 417.5625 " fill-opacity="1" fill-rule="nonzero"/><path fill="#000000" d="M 461.640625 387.542969 C 462.164062 384.40625 464.179688 380.78125 467.695312 376.675781 C 471.207031 372.566406 475.542969 370.476562 480.699219 370.402344 C 483.316406 370.402344 485.707031 371.074219 487.875 372.417969 C 490.042969 373.761719 491.648438 375.441406 492.695312 377.457031 C 495.835938 372.753906 499.609375 370.402344 504.019531 370.402344 C 506.785156 370.402344 509.175781 371.222656 511.195312 372.867188 C 513.214844 374.507812 514.257812 376.710938 514.335938 379.476562 C 514.335938 381.640625 513.8125 383.394531 512.765625 384.742188 C 511.71875 386.085938 510.710938 386.90625 509.738281 387.207031 C 508.765625 387.503906 507.90625 387.652344 507.160156 387.652344 C 505.738281 387.652344 504.582031 387.242188 503.683594 386.421875 C 502.785156 385.597656 502.339844 384.515625 502.339844 383.171875 C 502.339844 379.738281 504.207031 377.382812 507.945312 376.113281 C 507.121094 375.144531 505.625 374.660156 503.460938 374.660156 C 502.488281 374.660156 501.777344 374.734375 501.328125 374.882812 C 498.488281 376.078125 496.394531 378.542969 495.050781 382.277344 C 490.566406 398.78125 488.324219 408.414062 488.324219 411.179688 C 488.324219 413.269531 488.921875 414.761719 490.117188 415.660156 C 491.3125 416.554688 492.621094 417.003906 494.042969 417.003906 C 496.808594 417.003906 499.535156 415.773438 502.226562 413.308594 C 504.917969 410.84375 506.746094 407.816406 507.71875 404.234375 C 507.945312 403.484375 508.167969 403.074219 508.390625 403 C 508.617188 402.925781 509.214844 402.851562 510.1875 402.777344 L 510.632812 402.777344 C 511.753906 402.777344 512.316406 403.074219 512.316406 403.671875 C 512.316406 403.746094 512.242188 404.160156 512.09375 404.90625 C 510.894531 409.164062 508.578125 412.933594 505.140625 416.21875 C 501.703125 419.507812 497.703125 421.148438 493.144531 421.148438 C 487.914062 421.148438 483.949219 418.796875 481.261719 414.089844 C 478.195312 418.722656 474.683594 421.035156 470.722656 421.035156 L 470.046875 421.035156 C 466.386719 421.035156 463.769531 420.066406 462.199219 418.125 C 460.628906 416.183594 459.808594 414.128906 459.734375 411.964844 C 459.734375 409.574219 460.445312 407.632812 461.863281 406.136719 C 463.285156 404.644531 464.964844 403.898438 466.910156 403.898438 C 470.121094 403.898438 471.730469 405.464844 471.730469 408.601562 C 471.730469 410.097656 471.28125 411.402344 470.382812 412.523438 C 469.488281 413.644531 468.628906 414.390625 467.804688 414.761719 C 466.984375 415.136719 466.496094 415.324219 466.347656 415.324219 L 466.011719 415.4375 C 466.011719 415.511719 466.234375 415.660156 466.683594 415.882812 C 467.132812 416.109375 467.730469 416.371094 468.480469 416.667969 C 469.226562 416.964844 469.9375 417.078125 470.609375 417.003906 C 473.300781 417.003906 475.617188 415.324219 477.558594 411.964844 C 478.234375 410.769531 479.09375 408.230469 480.140625 404.34375 C 481.183594 400.460938 482.230469 396.429688 483.277344 392.246094 C 484.324219 388.0625 484.921875 385.597656 485.070312 384.851562 C 485.445312 382.835938 485.632812 381.378906 485.632812 380.484375 C 485.632812 378.390625 485.070312 376.898438 483.949219 376.003906 C 482.828125 375.105469 481.558594 374.660156 480.140625 374.660156 C 477.148438 374.660156 474.347656 375.851562 471.730469 378.242188 C 469.113281 380.632812 467.28125 383.695312 466.234375 387.429688 C 466.085938 388.101562 465.898438 388.476562 465.675781 388.550781 C 465.453125 388.625 464.851562 388.699219 463.882812 388.773438 L 462.3125 388.773438 C 461.863281 388.324219 461.640625 387.914062 461.640625 387.542969 Z M 461.640625 387.542969 " fill-opacity="1" fill-rule="nonzero"/><path fill="#000000" d="M 551.132812 393.367188 C 551.132812 393.367188 551.132812 392.882812 551.132812 391.910156 C 551.132812 390.9375 551.65625 390.191406 552.699219 389.667969 L 586.222656 389.667969 L 586.222656 372.867188 L 586.335938 356.0625 C 587.082031 355.089844 587.792969 354.605469 588.464844 354.605469 C 589.4375 354.605469 590.1875 355.164062 590.707031 356.285156 L 590.707031 389.667969 L 624.121094 389.667969 C 625.242188 390.265625 625.800781 391.015625 625.800781 391.910156 C 625.800781 392.804688 625.242188 393.554688 624.121094 394.152344 L 590.707031 394.152344 L 590.707031 427.535156 C 590.109375 428.578125 589.4375 429.101562 588.691406 429.101562 L 588.242188 429.101562 C 587.34375 429.101562 586.671875 428.578125 586.222656 427.535156 L 586.222656 394.152344 L 552.699219 394.152344 C 551.65625 393.628906 551.132812 392.882812 551.132812 391.910156 Z M 551.132812 393.367188 " fill-opacity="1" fill-rule="nonzero"/><path fill="#000000" d="M 680.875 355.164062 L 679.414062 355.726562 C 678.371094 356.097656 676.875 356.472656 674.929688 356.847656 C 672.988281 357.21875 670.820312 357.480469 668.429688 357.628906 L 666.296875 357.628906 L 666.296875 352.476562 L 668.429688 352.476562 C 671.941406 352.328125 675.191406 351.769531 678.183594 350.796875 C 681.171875 349.824219 683.265625 348.929688 684.460938 348.109375 C 685.65625 347.285156 686.703125 346.464844 687.601562 345.644531 C 687.75 345.417969 688.199219 345.308594 688.945312 345.308594 C 689.617188 345.308594 690.253906 345.53125 690.851562 345.980469 L 690.851562 379.476562 L 690.964844 413.082031 C 691.488281 413.605469 691.9375 413.941406 692.308594 414.089844 C 692.683594 414.242188 693.578125 414.390625 695 414.539062 C 696.421875 414.6875 698.738281 414.761719 701.953125 414.761719 L 704.867188 414.761719 L 704.867188 419.917969 L 703.632812 419.917969 C 702.0625 419.691406 696.121094 419.582031 685.804688 419.582031 C 675.640625 419.582031 669.773438 419.691406 668.203125 419.917969 L 666.859375 419.917969 L 666.859375 414.761719 L 669.773438 414.761719 C 671.417969 414.761719 672.839844 414.761719 674.035156 414.761719 C 675.230469 414.761719 676.164062 414.726562 676.835938 414.652344 C 677.511719 414.578125 678.109375 414.464844 678.632812 414.316406 C 679.152344 414.167969 679.453125 414.089844 679.527344 414.089844 C 679.601562 414.089844 679.828125 413.90625 680.199219 413.53125 C 680.574219 413.15625 680.796875 413.007812 680.875 413.082031 Z M 680.875 355.164062 " fill-opacity="1" fill-rule="nonzero"/></svg>