<svg xmlns="http://www.w3.org/2000/svg" xmlns:xlink="http://www.w3.org/1999/xlink" width="1000" zoomAndPan="magnify" viewBox="0 0 750 749.999995" height="1000" preserveAspectRatio="xMidYMid meet" version="1.0"><rect x="-75" width="900" fill="#ffffff" y="-74.999999" height="899.999994" fill-opacity="1"/><rect x="-75" width="900" fill="#ffffff" y="-74.999999" height="899.999994" fill-opacity="1"/><path fill="#000000" d="M 59.847656 408.242188 C 59.847656 410.421875 59.121094 412.242188 57.667969 413.695312 C 56.214844 415.148438 54.441406 415.875 52.351562 415.875 L 51.398438 415.875 C 55.578125 423.050781 61.121094 426.640625 68.023438 426.640625 C 74.382812 426.640625 79.015625 423.914062 81.925781 418.464844 C 83.648438 415.464844 84.511719 409.652344 84.511719 401.019531 C 84.511719 391.664062 83.285156 385.351562 80.832031 382.078125 C 78.472656 379.082031 75.835938 377.582031 72.929688 377.582031 L 72.113281 377.582031 C 65.027344 377.582031 59.667969 380.671875 56.03125 386.847656 C 55.667969 387.484375 55.351562 387.847656 55.078125 387.9375 C 54.804688 388.03125 54.125 388.121094 53.035156 388.210938 C 51.492188 388.210938 50.628906 387.9375 50.445312 387.394531 C 50.265625 387.03125 50.171875 379.082031 50.171875 363.546875 L 50.171875 345.96875 C 50.171875 341.425781 50.398438 339.152344 50.855469 339.152344 C 51.035156 338.972656 51.21875 338.882812 51.398438 338.882812 C 51.492188 338.882812 52.445312 339.246094 54.261719 339.972656 C 56.078125 340.699219 58.578125 341.425781 61.757812 342.152344 C 64.9375 342.878906 68.34375 343.242188 71.976562 343.242188 C 78.425781 343.242188 84.605469 341.96875 90.507812 339.425781 C 91.234375 339.0625 91.828125 338.882812 92.28125 338.882812 C 93.007812 338.882812 93.371094 339.699219 93.371094 341.335938 L 93.371094 343.105469 C 85.921875 351.917969 76.609375 356.324219 65.433594 356.324219 C 62.617188 356.324219 60.074219 356.050781 57.804688 355.507812 L 56.441406 355.234375 L 56.441406 378.671875 C 58.167969 377.402344 59.53125 376.402344 60.53125 375.675781 C 61.527344 374.949219 63.164062 374.222656 65.433594 373.496094 C 67.707031 372.765625 70.023438 372.402344 72.386719 372.402344 C 79.742188 372.402344 85.964844 375.355469 91.054688 381.261719 C 96.140625 387.167969 98.683594 394.160156 98.683594 402.246094 C 98.683594 410.605469 95.777344 417.738281 89.964844 423.640625 C 84.148438 429.546875 77.0625 432.542969 68.707031 432.636719 C 61.347656 432.636719 55.441406 430.183594 50.992188 425.277344 C 46.539062 420.371094 44.3125 414.828125 44.3125 408.652344 C 44.3125 406.472656 44.8125 404.746094 45.8125 403.472656 C 46.8125 402.203125 47.855469 401.382812 48.945312 401.019531 C 50.035156 400.65625 51.082031 400.476562 52.082031 400.476562 C 54.351562 400.476562 56.214844 401.246094 57.667969 402.792969 C 59.121094 404.335938 59.847656 406.152344 59.847656 408.242188 Z M 59.847656 408.242188 " fill-opacity="1" fill-rule="nonzero"/><path fill="#000000" d="M 112.722656 390.253906 C 113.355469 386.441406 115.808594 382.035156 120.078125 377.039062 C 124.347656 372.039062 129.617188 369.496094 135.886719 369.40625 C 139.066406 369.40625 141.972656 370.222656 144.609375 371.859375 C 147.242188 373.496094 149.195312 375.539062 150.46875 377.992188 C 154.285156 372.269531 158.871094 369.40625 164.230469 369.40625 C 167.59375 369.40625 170.5 370.40625 172.953125 372.402344 C 175.40625 374.402344 176.675781 377.082031 176.769531 380.445312 C 176.769531 383.078125 176.132812 385.214844 174.859375 386.847656 C 173.589844 388.484375 172.363281 389.484375 171.179688 389.847656 C 170 390.210938 168.957031 390.390625 168.046875 390.390625 C 166.320312 390.390625 164.914062 389.890625 163.824219 388.894531 C 162.730469 387.894531 162.1875 386.574219 162.1875 384.941406 C 162.1875 380.761719 164.457031 377.898438 169 376.355469 C 168 375.175781 166.183594 374.585938 163.550781 374.585938 C 162.367188 374.585938 161.503906 374.675781 160.960938 374.855469 C 157.507812 376.308594 154.964844 379.308594 153.328125 383.851562 C 147.878906 403.929688 145.152344 415.648438 145.152344 419.007812 C 145.152344 421.550781 145.878906 423.367188 147.332031 424.460938 C 148.789062 425.550781 150.378906 426.09375 152.101562 426.09375 C 155.464844 426.09375 158.78125 424.59375 162.050781 421.597656 C 165.320312 418.597656 167.546875 414.921875 168.726562 410.558594 C 169 409.652344 169.273438 409.152344 169.546875 409.0625 C 169.816406 408.96875 170.546875 408.878906 171.726562 408.789062 L 172.269531 408.789062 C 173.632812 408.789062 174.316406 409.152344 174.316406 409.878906 C 174.316406 409.96875 174.222656 410.46875 174.042969 411.378906 C 172.589844 416.554688 169.773438 421.144531 165.59375 425.140625 C 161.414062 429.136719 156.554688 431.136719 151.011719 431.136719 C 144.652344 431.136719 139.839844 428.273438 136.566406 422.550781 C 132.84375 428.183594 128.574219 431 123.757812 431 L 122.941406 431 C 118.488281 431 115.308594 429.820312 113.402344 427.457031 C 111.496094 425.09375 110.496094 422.597656 110.40625 419.960938 C 110.40625 417.054688 111.265625 414.691406 112.992188 412.875 C 114.71875 411.058594 116.765625 410.152344 119.125 410.152344 C 123.03125 410.152344 124.984375 412.058594 124.984375 415.875 C 124.984375 417.691406 124.441406 419.28125 123.351562 420.644531 C 122.261719 422.007812 121.214844 422.914062 120.214844 423.367188 C 119.214844 423.824219 118.625 424.050781 118.445312 424.050781 L 118.035156 424.1875 C 118.035156 424.277344 118.308594 424.460938 118.851562 424.730469 C 119.398438 425.003906 120.125 425.320312 121.035156 425.6875 C 121.941406 426.050781 122.804688 426.183594 123.621094 426.09375 C 126.894531 426.09375 129.710938 424.050781 132.070312 419.960938 C 132.890625 418.507812 133.933594 415.421875 135.207031 410.695312 C 136.476562 405.972656 137.75 401.066406 139.019531 395.980469 C 140.292969 390.890625 141.019531 387.894531 141.203125 386.984375 C 141.65625 384.53125 141.882812 382.761719 141.882812 381.671875 C 141.882812 379.125 141.203125 377.308594 139.839844 376.21875 C 138.476562 375.128906 136.933594 374.585938 135.207031 374.585938 C 131.570312 374.585938 128.164062 376.039062 124.984375 378.945312 C 121.804688 381.851562 119.578125 385.578125 118.308594 390.121094 C 118.125 390.9375 117.898438 391.390625 117.625 391.480469 C 117.355469 391.574219 116.628906 391.664062 115.445312 391.753906 L 113.539062 391.753906 C 112.992188 391.210938 112.722656 390.710938 112.722656 390.253906 Z M 112.722656 390.253906 " fill-opacity="1" fill-rule="nonzero"/><path fill="#000000" d="M 198.578125 332.027344 C 196.84375 332.027344 195.464844 331.449219 194.4375 330.292969 C 193.410156 329.136719 192.894531 327.722656 192.894531 326.054688 C 192.894531 321.492188 194.597656 317.542969 198 314.203125 C 201.40625 310.863281 205.644531 309.195312 210.71875 309.195312 C 216.5625 309.195312 221.445312 310.992188 225.363281 314.589844 C 229.28125 318.1875 231.273438 322.84375 231.335938 328.558594 C 231.335938 331.320312 230.695312 333.953125 229.410156 336.457031 C 228.125 338.964844 226.582031 341.148438 224.785156 343.011719 C 222.988281 344.871094 220.417969 347.25 217.078125 350.140625 C 214.765625 352.128906 211.554688 355.085938 207.441406 359.003906 L 201.757812 364.398438 L 209.082031 364.496094 C 219.164062 364.496094 224.527344 364.332031 225.171875 364.011719 C 225.621094 363.882812 226.390625 361.027344 227.484375 355.4375 L 227.484375 355.148438 L 231.335938 355.148438 L 231.335938 355.4375 C 231.273438 355.628906 230.855469 358.554688 230.082031 364.207031 C 229.3125 369.859375 228.832031 372.8125 228.640625 373.070312 L 228.640625 373.359375 L 192.894531 373.359375 L 192.894531 370.371094 C 192.894531 369.921875 193.089844 369.441406 193.472656 368.925781 C 193.859375 368.414062 194.824219 367.289062 196.363281 365.554688 C 198.226562 363.5 199.832031 361.699219 201.179688 360.160156 C 201.757812 359.515625 202.851562 358.328125 204.457031 356.59375 C 206.0625 354.859375 207.152344 353.671875 207.730469 353.03125 C 208.308594 352.386719 209.242188 351.328125 210.527344 349.851562 C 211.8125 348.371094 212.710938 347.28125 213.222656 346.574219 C 213.738281 345.867188 214.476562 344.90625 215.441406 343.683594 C 216.402344 342.464844 217.078125 341.4375 217.464844 340.601562 C 217.847656 339.765625 218.328125 338.835938 218.90625 337.808594 C 219.484375 336.78125 219.902344 335.753906 220.160156 334.722656 C 220.417969 333.695312 220.640625 332.734375 220.835938 331.835938 C 221.027344 330.933594 221.125 329.875 221.125 328.65625 C 221.125 324.609375 220.03125 321.109375 217.847656 318.152344 C 215.664062 315.199219 212.550781 313.722656 208.503906 313.722656 C 206.382812 313.722656 204.519531 314.269531 202.914062 315.359375 C 201.308594 316.453125 200.183594 317.511719 199.542969 318.539062 C 198.902344 319.566406 198.578125 320.175781 198.578125 320.371094 C 198.578125 320.433594 198.742188 320.464844 199.0625 320.464844 C 200.21875 320.464844 201.40625 320.914062 202.625 321.816406 C 203.847656 322.714844 204.457031 324.191406 204.457031 326.246094 C 204.457031 327.851562 203.941406 329.199219 202.914062 330.292969 C 201.886719 331.382812 200.441406 331.960938 198.578125 332.027344 Z M 198.578125 332.027344 " fill-opacity="1" fill-rule="nonzero"/><path fill="#000000" d="M 280.988281 397.339844 C 280.988281 397.339844 280.988281 396.75 280.988281 395.570312 C 280.988281 394.390625 281.625 393.480469 282.894531 392.84375 L 323.640625 392.84375 L 323.640625 372.402344 L 323.777344 351.964844 C 324.683594 350.78125 325.546875 350.191406 326.363281 350.191406 C 327.546875 350.191406 328.453125 350.875 329.089844 352.234375 L 329.089844 392.84375 L 369.699219 392.84375 C 371.0625 393.570312 371.742188 394.480469 371.742188 395.570312 C 371.742188 396.660156 371.0625 397.570312 369.699219 398.296875 L 329.089844 398.296875 L 329.089844 438.902344 C 328.363281 440.175781 327.546875 440.8125 326.636719 440.8125 L 326.09375 440.8125 C 325.003906 440.8125 324.183594 440.175781 323.640625 438.902344 L 323.640625 398.296875 L 282.894531 398.296875 C 281.625 397.660156 280.988281 396.75 280.988281 395.570312 Z M 280.988281 397.339844 " fill-opacity="1" fill-rule="nonzero"/><path fill="#000000" d="M 422.734375 349.917969 C 427.824219 342.5625 434.773438 338.882812 443.585938 338.882812 C 447.945312 338.882812 452.304688 340.0625 456.667969 342.425781 C 461.027344 344.785156 464.570312 348.964844 467.296875 354.960938 C 470.65625 362.5 472.335938 372.859375 472.335938 386.03125 C 472.335938 400.113281 470.382812 410.878906 466.476562 418.328125 C 464.660156 422.144531 462.164062 425.1875 458.984375 427.457031 C 455.804688 429.726562 453.03125 431.136719 450.671875 431.679688 C 448.308594 432.226562 445.992188 432.542969 443.722656 432.636719 C 441.359375 432.636719 438.996094 432.363281 436.636719 431.816406 C 434.273438 431.273438 431.503906 429.820312 428.324219 427.457031 C 425.144531 425.09375 422.644531 422.050781 420.828125 418.328125 C 416.921875 410.878906 414.96875 400.113281 414.96875 386.03125 C 414.96875 370.222656 417.558594 358.1875 422.734375 349.917969 Z M 453.394531 348.285156 C 450.671875 345.378906 447.445312 343.921875 443.722656 343.921875 C 439.90625 343.921875 436.636719 345.378906 433.910156 348.285156 C 431.636719 350.644531 430.140625 353.917969 429.414062 358.09375 C 428.6875 362.273438 428.324219 370.996094 428.324219 384.257812 C 428.324219 398.613281 428.6875 408.0625 429.414062 412.605469 C 430.140625 417.144531 431.773438 420.734375 434.316406 423.367188 C 436.863281 426.09375 439.996094 427.457031 443.722656 427.457031 C 447.355469 427.457031 450.445312 426.09375 452.988281 423.367188 C 455.621094 420.644531 457.257812 416.828125 457.894531 411.921875 C 458.527344 407.015625 458.890625 397.796875 458.984375 384.257812 C 458.984375 371.085938 458.621094 362.410156 457.894531 358.230469 C 457.167969 354.054688 455.667969 350.738281 453.394531 348.285156 Z M 453.394531 348.285156 " fill-opacity="1" fill-rule="nonzero"/><path fill="#000000" d="M 515.699219 397.339844 C 515.699219 397.339844 515.699219 396.75 515.699219 395.570312 C 515.699219 394.390625 516.335938 393.480469 517.605469 392.84375 L 558.351562 392.84375 L 558.351562 372.402344 L 558.488281 351.964844 C 559.394531 350.78125 560.257812 350.191406 561.078125 350.191406 C 562.257812 350.191406 563.167969 350.875 563.800781 352.234375 L 563.800781 392.84375 L 604.410156 392.84375 C 605.773438 393.570312 606.453125 394.480469 606.453125 395.570312 C 606.453125 396.660156 605.773438 397.570312 604.410156 398.296875 L 563.800781 398.296875 L 563.800781 438.902344 C 563.074219 440.175781 562.257812 440.8125 561.347656 440.8125 L 560.804688 440.8125 C 559.714844 440.8125 558.894531 440.175781 558.351562 438.902344 L 558.351562 398.296875 L 517.605469 398.296875 C 516.335938 397.660156 515.699219 396.75 515.699219 395.570312 Z M 515.699219 397.339844 " fill-opacity="1" fill-rule="nonzero"/><path fill="#000000" d="M 657.445312 349.917969 C 662.535156 342.5625 669.484375 338.882812 678.296875 338.882812 C 682.65625 338.882812 687.015625 340.0625 691.378906 342.425781 C 695.738281 344.785156 699.28125 348.964844 702.007812 354.960938 C 705.367188 362.5 707.050781 372.859375 707.050781 386.03125 C 707.050781 400.113281 705.097656 410.878906 701.191406 418.328125 C 699.371094 422.144531 696.875 425.1875 693.695312 427.457031 C 690.515625 429.726562 687.746094 431.136719 685.382812 431.679688 C 683.019531 432.226562 680.703125 432.542969 678.433594 432.636719 C 676.070312 432.636719 673.707031 432.363281 671.347656 431.816406 C 668.984375 431.273438 666.214844 429.820312 663.035156 427.457031 C 659.855469 425.09375 657.355469 422.050781 655.539062 418.328125 C 651.632812 410.878906 649.679688 400.113281 649.679688 386.03125 C 649.679688 370.222656 652.269531 358.1875 657.445312 349.917969 Z M 688.109375 348.285156 C 685.382812 345.378906 682.15625 343.921875 678.433594 343.921875 C 674.617188 343.921875 671.347656 345.378906 668.621094 348.285156 C 666.351562 350.644531 664.851562 353.917969 664.125 358.09375 C 663.398438 362.273438 663.035156 370.996094 663.035156 384.257812 C 663.035156 398.613281 663.398438 408.0625 664.125 412.605469 C 664.851562 417.144531 666.484375 420.734375 669.03125 423.367188 C 671.574219 426.09375 674.707031 427.457031 678.433594 427.457031 C 682.066406 427.457031 685.15625 426.09375 687.699219 423.367188 C 690.332031 420.644531 691.96875 416.828125 692.605469 411.921875 C 693.242188 407.015625 693.605469 397.796875 693.695312 384.257812 C 693.695312 371.085938 693.332031 362.410156 692.605469 358.230469 C 691.878906 354.054688 690.378906 350.738281 688.109375 348.285156 Z M 688.109375 348.285156 " fill-opacity="1" fill-rule="nonzero"/></svg>