<svg xmlns="http://www.w3.org/2000/svg" xmlns:xlink="http://www.w3.org/1999/xlink" width="1000" zoomAndPan="magnify" viewBox="0 0 750 749.999995" height="1000" preserveAspectRatio="xMidYMid meet" version="1.0"><defs><clipPath id="3a34c2343c"><path d="M 459 287.5 L 616 287.5 L 616 462.5 L 459 462.5 Z M 459 287.5 " clip-rule="nonzero"/></clipPath></defs><rect x="-75" width="900" fill="#ffffff" y="-74.999999" height="899.999994" fill-opacity="1"/><rect x="-75" width="900" fill="#ffffff" y="-74.999999" height="899.999994" fill-opacity="1"/><path fill="#000000" d="M 167.972656 324.84375 L 165.152344 325.929688 C 163.125 326.652344 160.230469 327.378906 156.46875 328.101562 C 152.703125 328.824219 148.507812 329.332031 143.875 329.621094 L 139.75 329.621094 L 139.75 319.632812 L 143.875 319.632812 C 150.675781 319.34375 156.972656 318.257812 162.761719 316.378906 C 168.554688 314.496094 172.605469 312.757812 174.921875 311.167969 C 177.238281 309.574219 179.265625 307.980469 181 306.390625 C 181.292969 305.957031 182.160156 305.738281 183.605469 305.738281 C 184.910156 305.738281 186.140625 306.171875 187.296875 307.039062 L 187.296875 371.960938 L 187.515625 437.097656 C 188.527344 438.109375 189.398438 438.761719 190.121094 439.050781 C 190.84375 439.339844 192.582031 439.628906 195.332031 439.917969 C 198.082031 440.207031 202.570312 440.355469 208.792969 440.355469 L 214.4375 440.355469 L 214.4375 450.339844 L 212.050781 450.339844 C 209.011719 449.90625 197.503906 449.691406 177.527344 449.691406 C 157.84375 449.691406 146.480469 449.90625 143.441406 450.339844 L 140.835938 450.339844 L 140.835938 440.355469 L 146.480469 440.355469 C 149.664062 440.355469 152.414062 440.355469 154.730469 440.355469 C 157.046875 440.355469 158.855469 440.28125 160.15625 440.136719 C 161.460938 439.992188 162.617188 439.773438 163.632812 439.484375 C 164.644531 439.195312 165.222656 439.050781 165.367188 439.050781 C 165.515625 439.050781 165.949219 438.6875 166.671875 437.964844 C 167.394531 437.242188 167.828125 436.953125 167.972656 437.097656 Z M 167.972656 324.84375 " fill-opacity="1" fill-rule="nonzero"/><path fill="#000000" d="M 251.132812 323.324219 C 259.238281 311.601562 270.3125 305.738281 284.351562 305.738281 C 291.300781 305.738281 298.246094 307.621094 305.195312 311.382812 C 312.144531 315.148438 317.789062 321.804688 322.132812 331.359375 C 327.488281 343.371094 330.164062 359.875 330.164062 380.863281 C 330.164062 403.296875 327.050781 420.449219 320.828125 432.320312 C 317.933594 438.398438 313.953125 443.25 308.886719 446.867188 C 303.820312 450.484375 299.40625 452.730469 295.640625 453.597656 C 291.878906 454.464844 288.1875 454.972656 284.570312 455.117188 C 280.804688 455.117188 277.042969 454.683594 273.277344 453.816406 C 269.515625 452.945312 265.101562 450.628906 260.035156 446.867188 C 254.96875 443.105469 250.988281 438.253906 248.09375 432.320312 C 241.867188 420.449219 238.757812 403.296875 238.757812 380.863281 C 238.757812 355.675781 242.882812 336.496094 251.132812 323.324219 Z M 299.984375 320.71875 C 295.640625 316.085938 290.503906 313.773438 284.570312 313.773438 C 278.488281 313.773438 273.277344 316.085938 268.9375 320.71875 C 265.316406 324.484375 262.929688 329.695312 261.769531 336.351562 C 260.613281 343.011719 260.035156 356.90625 260.035156 378.039062 C 260.035156 400.910156 260.613281 415.964844 261.769531 423.199219 C 262.929688 430.4375 265.535156 436.15625 269.585938 440.355469 C 273.640625 444.695312 278.632812 446.867188 284.570312 446.867188 C 290.359375 446.867188 295.28125 444.695312 299.332031 440.355469 C 303.53125 436.011719 306.136719 429.933594 307.148438 422.117188 C 308.164062 414.300781 308.742188 399.605469 308.886719 378.039062 C 308.886719 357.050781 308.308594 343.226562 307.148438 336.570312 C 305.992188 329.910156 303.601562 324.628906 299.984375 320.71875 Z M 299.984375 320.71875 " fill-opacity="1" fill-rule="nonzero"/><path fill="#000000" d="M 359.691406 323.324219 C 367.796875 311.601562 378.871094 305.738281 392.914062 305.738281 C 399.859375 305.738281 406.808594 307.621094 413.757812 311.382812 C 420.703125 315.148438 426.347656 321.804688 430.691406 331.359375 C 436.046875 343.371094 438.726562 359.875 438.726562 380.863281 C 438.726562 403.296875 435.613281 420.449219 429.390625 432.320312 C 426.492188 438.398438 422.511719 443.25 417.445312 446.867188 C 412.382812 450.484375 407.964844 452.730469 404.203125 453.597656 C 400.4375 454.464844 396.75 454.972656 393.128906 455.117188 C 389.367188 455.117188 385.601562 454.683594 381.839844 453.816406 C 378.074219 452.945312 373.660156 450.628906 368.59375 446.867188 C 363.527344 443.105469 359.546875 438.253906 356.652344 432.320312 C 350.429688 420.449219 347.316406 403.296875 347.316406 380.863281 C 347.316406 355.675781 351.441406 336.496094 359.691406 323.324219 Z M 408.546875 320.71875 C 404.203125 316.085938 399.0625 313.773438 393.128906 313.773438 C 387.050781 313.773438 381.839844 316.085938 377.496094 320.71875 C 373.878906 324.484375 371.488281 329.695312 370.332031 336.351562 C 369.175781 343.011719 368.59375 356.90625 368.59375 378.039062 C 368.59375 400.910156 369.175781 415.964844 370.332031 423.199219 C 371.488281 430.4375 374.09375 436.15625 378.148438 440.355469 C 382.203125 444.695312 387.195312 446.867188 393.128906 446.867188 C 398.917969 446.867188 403.839844 444.695312 407.894531 440.355469 C 412.089844 436.011719 414.695312 429.933594 415.710938 422.117188 C 416.722656 414.300781 417.300781 399.605469 417.445312 378.039062 C 417.445312 357.050781 416.867188 343.226562 415.710938 336.570312 C 414.550781 329.910156 412.164062 324.628906 408.546875 320.71875 Z M 408.546875 320.71875 " fill-opacity="1" fill-rule="nonzero"/><g clip-path="url(#3a34c2343c)"><path fill="#000000" d="M 548.371094 318.984375 C 543.015625 318.984375 537.878906 318.332031 532.957031 317.027344 C 528.035156 315.726562 524.125 314.421875 521.230469 313.121094 C 518.335938 311.816406 516.816406 311.167969 516.671875 311.167969 C 518.554688 315.941406 519.496094 322.671875 519.496094 331.359375 C 519.496094 344.386719 516.671875 354.878906 511.027344 362.839844 C 505.382812 370.800781 498.796875 374.855469 491.269531 375 C 483.019531 375 475.707031 371.019531 469.339844 363.058594 C 462.96875 355.097656 459.714844 344.53125 459.570312 331.359375 C 459.570312 318.476562 462.824219 307.980469 469.339844 299.875 C 475.851562 291.769531 483.164062 287.644531 491.269531 287.5 C 496.914062 287.5 501.980469 289.742188 506.46875 294.230469 C 519.058594 305.375 532.957031 310.949219 548.15625 310.949219 C 564.945312 310.949219 578.40625 304.433594 588.539062 291.40625 C 590.277344 289.09375 591.578125 287.863281 592.445312 287.71875 C 592.738281 287.574219 593.097656 287.5 593.53125 287.5 C 594.835938 287.5 595.921875 288.007812 596.789062 289.019531 C 597.65625 290.03125 598.019531 291.261719 597.875 292.710938 C 523.332031 404.601562 485.480469 460.90625 484.320312 461.632812 C 483.742188 462.210938 483.019531 462.5 482.148438 462.5 C 480.269531 462.5 478.964844 461.703125 478.242188 460.113281 C 477.515625 458.808594 477.515625 457.507812 478.242188 456.203125 C 478.386719 455.769531 494.378906 431.8125 526.226562 384.335938 C 541.570312 361.464844 553.292969 343.953125 561.398438 331.792969 C 569.503906 319.632812 573.558594 313.554688 573.558594 313.554688 C 565.886719 317.171875 557.492188 318.984375 548.371094 318.984375 Z M 492.355469 366.75 C 496.40625 366.75 500.460938 363.710938 504.511719 357.628906 C 508.566406 351.550781 510.664062 342.792969 510.808594 331.359375 C 510.808594 321.371094 509 312.976562 505.382812 306.171875 C 501.761719 299.371094 496.914062 295.894531 490.835938 295.75 C 489.820312 295.75 488.808594 295.96875 487.792969 296.402344 C 486.78125 296.835938 485.40625 297.632812 483.667969 298.789062 C 481.933594 299.949219 480.484375 302.121094 479.328125 305.304688 C 478.167969 308.488281 477.226562 312.324219 476.503906 316.8125 C 476.214844 319.707031 476.070312 324.554688 476.070312 331.359375 L 476.070312 335.917969 C 476.070312 349.089844 478.457031 358.066406 483.234375 362.839844 C 485.839844 365.445312 488.589844 366.75 491.484375 366.75 Z M 555.972656 418.640625 C 555.972656 405.902344 559.15625 395.480469 565.523438 387.375 C 571.894531 379.269531 579.347656 375.144531 587.886719 375 C 595.414062 375 601.929688 378.980469 607.429688 386.941406 C 612.929688 394.902344 615.75 405.46875 615.894531 418.640625 C 616.042969 431.8125 613.21875 442.378906 607.429688 450.339844 C 601.640625 458.300781 595.050781 462.355469 587.671875 462.5 C 579.566406 462.5 572.253906 458.445312 565.742188 450.339844 C 559.226562 442.234375 555.972656 431.667969 555.972656 418.640625 Z M 588.757812 454.25 C 592.808594 454.25 596.863281 451.210938 600.914062 445.128906 C 604.96875 439.050781 607.066406 430.222656 607.210938 418.640625 C 607.210938 408.652344 605.402344 400.257812 601.785156 393.457031 C 598.164062 386.652344 593.316406 383.25 587.234375 383.25 C 586.222656 383.25 585.210938 383.46875 584.195312 383.902344 C 583.183594 384.335938 581.808594 385.132812 580.070312 386.289062 C 578.335938 387.449219 576.886719 389.621094 575.730469 392.804688 C 574.570312 395.988281 573.628906 399.824219 572.90625 404.3125 C 572.761719 406.046875 572.6875 410.824219 572.6875 418.640625 L 572.6875 423.417969 C 572.6875 443.972656 577.753906 454.25 587.886719 454.25 Z M 588.757812 454.25 " fill-opacity="1" fill-rule="nonzero"/></g></svg>