<svg xmlns="http://www.w3.org/2000/svg" xmlns:xlink="http://www.w3.org/1999/xlink" width="1000" zoomAndPan="magnify" viewBox="0 0 750 749.999995" height="1000" preserveAspectRatio="xMidYMid meet" version="1.0"><defs><clipPath id="9ae53b8b81"><path d="M 112.5 112.5 L 637.5 112.5 L 637.5 637.5 L 112.5 637.5 Z M 112.5 112.5 " clip-rule="nonzero"/></clipPath></defs><rect x="-75" width="900" fill="#ffffff" y="-74.999999" height="899.999994" fill-opacity="1"/><rect x="-75" width="900" fill="#ffffff" y="-74.999999" height="899.999994" fill-opacity="1"/><path fill="#6d5764" d="M 632.195312 373.515625 C 632.195312 377.738281 632.089844 381.960938 631.882812 386.179688 C 631.675781 390.402344 631.367188 394.613281 630.953125 398.816406 C 630.539062 403.023438 630.019531 407.214844 629.402344 411.394531 C 628.78125 415.570312 628.058594 419.734375 627.234375 423.878906 C 626.410156 428.019531 625.484375 432.140625 624.457031 436.238281 C 623.433594 440.339844 622.304688 444.410156 621.078125 448.453125 C 619.851562 452.496094 618.527344 456.503906 617.105469 460.484375 C 615.679688 464.460938 614.160156 468.402344 612.542969 472.304688 C 610.925781 476.207031 609.214844 480.070312 607.410156 483.886719 C 605.601562 487.707031 603.703125 491.480469 601.710938 495.207031 C 599.722656 498.929688 597.640625 502.605469 595.46875 506.230469 C 593.296875 509.855469 591.035156 513.421875 588.6875 516.933594 C 586.339844 520.449219 583.910156 523.902344 581.394531 527.292969 C 578.875 530.6875 576.277344 534.015625 573.597656 537.28125 C 570.917969 540.546875 568.160156 543.746094 565.320312 546.878906 C 562.484375 550.007812 559.570312 553.066406 556.585938 556.054688 C 553.597656 559.042969 550.539062 561.953125 547.40625 564.789062 C 544.277344 567.628906 541.078125 570.386719 537.8125 573.066406 C 534.546875 575.746094 531.21875 578.34375 527.824219 580.863281 C 524.429688 583.378906 520.976562 585.8125 517.464844 588.15625 C 513.953125 590.503906 510.382812 592.765625 506.761719 594.9375 C 503.136719 597.109375 499.460938 599.191406 495.734375 601.183594 C 492.011719 603.171875 488.238281 605.074219 484.417969 606.878906 C 480.597656 608.683594 476.738281 610.398438 472.835938 612.015625 C 468.929688 613.628906 464.992188 615.152344 461.011719 616.574219 C 457.035156 617.996094 453.023438 619.320312 448.980469 620.546875 C 444.9375 621.773438 440.867188 622.902344 436.769531 623.929688 C 432.671875 624.953125 428.550781 625.878906 424.40625 626.703125 C 420.265625 627.527344 416.101562 628.25 411.921875 628.871094 C 407.746094 629.488281 403.550781 630.007812 399.347656 630.421875 C 395.144531 630.835938 390.929688 631.144531 386.710938 631.351562 C 382.492188 631.5625 378.269531 631.664062 374.046875 631.664062 C 369.820312 631.664062 365.597656 631.5625 361.378906 631.351562 C 357.160156 631.144531 352.945312 630.835938 348.742188 630.421875 C 344.539062 630.007812 340.347656 629.488281 336.167969 628.871094 C 331.988281 628.25 327.824219 627.527344 323.683594 626.703125 C 319.539062 625.878906 315.417969 624.953125 311.320312 623.929688 C 307.222656 622.902344 303.152344 621.773438 299.109375 620.546875 C 295.066406 619.320312 291.054688 617.996094 287.078125 616.574219 C 283.097656 615.152344 279.160156 613.628906 275.253906 612.015625 C 271.351562 610.398438 267.492188 608.683594 263.671875 606.878906 C 259.851562 605.074219 256.078125 603.175781 252.355469 601.183594 C 248.628906 599.191406 244.953125 597.109375 241.328125 594.9375 C 237.707031 592.765625 234.136719 590.503906 230.625 588.15625 C 227.113281 585.8125 223.660156 583.378906 220.265625 580.863281 C 216.871094 578.34375 213.542969 575.746094 210.277344 573.066406 C 207.011719 570.386719 203.8125 567.628906 200.683594 564.789062 C 197.550781 561.953125 194.492188 559.042969 191.503906 556.054688 C 188.519531 553.066406 185.605469 550.007812 182.769531 546.878906 C 179.929688 543.746094 177.171875 540.546875 174.492188 537.28125 C 171.8125 534.015625 169.214844 530.6875 166.695312 527.292969 C 164.179688 523.902344 161.75 520.449219 159.402344 516.933594 C 157.054688 513.421875 154.792969 509.855469 152.621094 506.230469 C 150.449219 502.605469 148.367188 498.929688 146.378906 495.207031 C 144.386719 491.480469 142.488281 487.707031 140.679688 483.886719 C 138.875 480.070312 137.164062 476.207031 135.546875 472.304688 C 133.929688 468.402344 132.410156 464.460938 130.984375 460.484375 C 129.5625 456.503906 128.238281 452.496094 127.011719 448.453125 C 125.785156 444.410156 124.660156 440.339844 123.632812 436.238281 C 122.605469 432.140625 121.679688 428.019531 120.855469 423.878906 C 120.03125 419.734375 119.308594 415.570312 118.6875 411.394531 C 118.070312 407.214844 117.550781 403.023438 117.136719 398.816406 C 116.722656 394.613281 116.414062 390.402344 116.207031 386.179688 C 116 381.960938 115.894531 377.738281 115.894531 373.515625 C 115.894531 369.289062 116 365.066406 116.207031 360.847656 C 116.414062 356.628906 116.722656 352.414062 117.136719 348.210938 C 117.550781 344.007812 118.070312 339.816406 118.6875 335.636719 C 119.308594 331.457031 120.03125 327.296875 120.855469 323.152344 C 121.679688 319.007812 122.605469 314.886719 123.632812 310.789062 C 124.660156 306.691406 125.785156 302.621094 127.011719 298.578125 C 128.238281 294.535156 129.5625 290.523438 130.984375 286.546875 C 132.410156 282.570312 133.929688 278.628906 135.546875 274.726562 C 137.164062 270.820312 138.875 266.960938 140.679688 263.140625 C 142.488281 259.320312 144.386719 255.550781 146.378906 251.824219 C 148.367188 248.097656 150.449219 244.421875 152.621094 240.800781 C 154.792969 237.175781 157.054688 233.605469 159.402344 230.09375 C 161.75 226.582031 164.179688 223.128906 166.695312 219.734375 C 169.214844 216.339844 171.8125 213.011719 174.492188 209.746094 C 177.171875 206.480469 179.929688 203.28125 182.769531 200.152344 C 185.605469 197.019531 188.519531 193.960938 191.503906 190.976562 C 194.492188 187.988281 197.550781 185.074219 200.683594 182.238281 C 203.8125 179.402344 207.011719 176.640625 210.277344 173.960938 C 213.542969 171.28125 216.871094 168.683594 220.265625 166.167969 C 223.660156 163.648438 227.113281 161.21875 230.625 158.871094 C 234.136719 156.523438 237.707031 154.265625 241.328125 152.09375 C 244.953125 149.921875 248.628906 147.839844 252.355469 145.847656 C 256.078125 143.855469 259.851562 141.957031 263.671875 140.148438 C 267.492188 138.34375 271.351562 136.632812 275.253906 135.015625 C 279.160156 133.398438 283.097656 131.878906 287.078125 130.457031 C 291.054688 129.03125 295.066406 127.707031 299.109375 126.480469 C 303.152344 125.253906 307.222656 124.128906 311.320312 123.101562 C 315.417969 122.074219 319.539062 121.148438 323.683594 120.324219 C 327.824219 119.5 331.988281 118.777344 336.167969 118.160156 C 340.347656 117.539062 344.539062 117.023438 348.742188 116.609375 C 352.945312 116.195312 357.160156 115.882812 361.378906 115.675781 C 365.597656 115.46875 369.820312 115.363281 374.046875 115.363281 C 378.269531 115.363281 382.492188 115.46875 386.710938 115.675781 C 390.929688 115.882812 395.144531 116.195312 399.347656 116.609375 C 403.550781 117.023438 407.746094 117.539062 411.921875 118.160156 C 416.101562 118.777344 420.265625 119.5 424.40625 120.324219 C 428.550781 121.148438 432.671875 122.074219 436.769531 123.101562 C 440.867188 124.128906 444.9375 125.253906 448.980469 126.480469 C 453.023438 127.707031 457.035156 129.03125 461.011719 130.457031 C 464.992188 131.878906 468.929688 133.398438 472.835938 135.015625 C 476.738281 136.632812 480.597656 138.34375 484.417969 140.148438 C 488.238281 141.957031 492.011719 143.855469 495.734375 145.847656 C 499.460938 147.839844 503.136719 149.921875 506.761719 152.09375 C 510.382812 154.265625 513.953125 156.523438 517.464844 158.871094 C 520.976562 161.21875 524.429688 163.648438 527.824219 166.167969 C 531.21875 168.683594 534.546875 171.28125 537.8125 173.960938 C 541.078125 176.640625 544.277344 179.402344 547.40625 182.238281 C 550.539062 185.074219 553.597656 187.988281 556.585938 190.976562 C 559.570312 193.960938 562.484375 197.019531 565.320312 200.152344 C 568.160156 203.28125 570.917969 206.480469 573.597656 209.746094 C 576.277344 213.011719 578.875 216.339844 581.394531 219.734375 C 583.910156 223.128906 586.339844 226.582031 588.6875 230.09375 C 591.035156 233.605469 593.296875 237.175781 595.46875 240.800781 C 597.640625 244.421875 599.722656 248.097656 601.710938 251.824219 C 603.703125 255.550781 605.601562 259.320312 607.410156 263.140625 C 609.214844 266.960938 610.925781 270.820312 612.542969 274.726562 C 614.160156 278.628906 615.679688 282.570312 617.105469 286.546875 C 618.527344 290.523438 619.851562 294.535156 621.078125 298.578125 C 622.304688 302.621094 623.433594 306.691406 624.457031 310.789062 C 625.484375 314.886719 626.410156 319.007812 627.234375 323.152344 C 628.058594 327.296875 628.78125 331.457031 629.402344 335.636719 C 630.019531 339.816406 630.539062 344.007812 630.953125 348.210938 C 631.367188 352.414062 631.675781 356.628906 631.882812 360.847656 C 632.089844 365.066406 632.195312 369.289062 632.195312 373.515625 Z M 632.195312 373.515625 " fill-opacity="1" fill-rule="nonzero"/><path fill="#6d5764" d="M 634.527344 376.804688 L 373.9375 376.804688 L 373.9375 116.320312 C 443.011719 116.320312 509.328125 143.800781 558.132812 192.609375 C 607.046875 241.414062 634.527344 307.730469 634.527344 376.804688 Z M 634.527344 376.804688 " fill-opacity="1" fill-rule="nonzero"/><g clip-path="url(#9ae53b8b81)"><path fill="#00010d" d="M 637.394531 370.753906 C 636.863281 337.652344 630.179688 305.289062 617.445312 274.519531 C 604.183594 242.476562 585.085938 213.828125 560.574219 189.320312 C 536.066406 164.808594 507.417969 145.710938 475.375 132.449219 C 444.710938 119.714844 412.347656 113.03125 379.242188 112.5 L 370.753906 112.5 C 337.652344 113.03125 305.289062 119.714844 274.519531 132.449219 C 242.476562 145.710938 213.828125 164.808594 189.320312 189.320312 C 164.808594 213.828125 145.710938 242.476562 132.449219 274.519531 C 119.714844 305.289062 113.03125 337.546875 112.5 370.753906 L 112.5 379.242188 C 113.03125 412.347656 119.714844 444.710938 132.449219 475.480469 C 145.710938 507.523438 164.808594 536.171875 189.320312 560.679688 C 213.828125 585.191406 242.476562 604.289062 274.519531 617.550781 C 305.183594 630.285156 337.546875 636.96875 370.753906 637.5 L 379.242188 637.5 C 412.347656 636.96875 444.710938 630.285156 475.480469 617.550781 C 507.523438 604.289062 536.171875 585.191406 560.679688 560.679688 C 585.191406 536.171875 604.289062 507.523438 617.550781 475.480469 C 630.285156 444.816406 636.96875 412.453125 637.5 379.242188 L 637.5 375 Z M 472.191406 140.300781 C 503.171875 153.136719 530.867188 171.707031 554.632812 195.367188 C 578.398438 219.027344 596.863281 246.828125 609.699219 277.808594 C 622.007812 307.519531 628.480469 338.710938 629.011719 370.753906 L 379.242188 370.753906 L 379.242188 120.988281 C 411.289062 121.519531 442.480469 127.992188 472.191406 140.300781 Z M 140.300781 277.808594 C 153.136719 246.828125 171.707031 219.132812 195.367188 195.367188 C 219.027344 171.601562 246.828125 153.136719 277.808594 140.300781 C 307.519531 127.992188 338.710938 121.519531 370.753906 120.988281 L 370.753906 370.753906 L 120.988281 370.753906 C 121.519531 338.710938 127.992188 307.410156 140.300781 277.808594 Z M 277.808594 609.59375 C 246.828125 596.757812 219.132812 578.1875 195.367188 554.527344 C 171.601562 530.867188 153.136719 503.171875 140.300781 472.191406 C 127.992188 442.480469 121.519531 411.289062 120.988281 379.242188 L 370.753906 379.242188 L 370.753906 629.011719 C 338.710938 628.375 307.410156 621.902344 277.808594 609.59375 Z M 609.59375 472.191406 C 596.757812 503.171875 578.1875 530.867188 554.527344 554.632812 C 530.867188 578.398438 503.066406 596.863281 472.085938 609.699219 C 442.375 622.007812 411.179688 628.480469 379.136719 629.011719 L 379.136719 379.242188 L 628.90625 379.242188 C 628.375 411.289062 621.902344 442.480469 609.59375 472.191406 Z M 609.59375 472.191406 " fill-opacity="1" fill-rule="nonzero"/></g></svg>