<svg xmlns="http://www.w3.org/2000/svg" xmlns:xlink="http://www.w3.org/1999/xlink" width="1000" zoomAndPan="magnify" viewBox="0 0 750 749.999995" height="1000" preserveAspectRatio="xMidYMid meet" version="1.0"><rect x="-75" width="900" fill="#ffffff" y="-74.999999" height="899.999994" fill-opacity="1"/><rect x="-75" width="900" fill="#ffffff" y="-74.999999" height="899.999994" fill-opacity="1"/><path fill="#000000" d="M 355.253906 241.378906 L 348.136719 244.105469 C 343.027344 245.925781 335.726562 247.742188 326.238281 249.558594 C 316.746094 251.378906 306.160156 252.652344 294.480469 253.378906 L 284.078125 253.378906 L 284.078125 228.289062 L 294.480469 228.289062 C 311.636719 227.5625 327.515625 224.835938 342.113281 220.109375 C 356.714844 215.382812 366.933594 211.019531 372.773438 207.019531 C 378.613281 203.019531 383.722656 199.019531 388.105469 195.019531 C 388.832031 193.929688 391.023438 193.386719 394.675781 193.386719 C 397.957031 193.386719 401.0625 194.476562 403.980469 196.65625 L 403.980469 359.730469 L 404.527344 523.347656 C 407.082031 525.890625 409.273438 527.527344 411.097656 528.253906 C 412.925781 528.980469 417.304688 529.710938 424.238281 530.4375 C 431.175781 531.164062 442.488281 531.527344 458.183594 531.527344 L 472.417969 531.527344 L 472.417969 556.613281 L 466.394531 556.613281 C 458.730469 555.523438 429.714844 554.980469 379.34375 554.980469 C 329.703125 554.980469 301.050781 555.523438 293.386719 556.613281 L 286.816406 556.613281 L 286.816406 531.527344 L 301.050781 531.527344 C 309.082031 531.527344 316.015625 531.527344 321.855469 531.527344 C 327.695312 531.527344 332.257812 531.34375 335.542969 530.980469 C 338.828125 530.617188 341.75 530.074219 344.304688 529.34375 C 346.859375 528.617188 348.320312 528.253906 348.683594 528.253906 C 349.050781 528.253906 350.144531 527.347656 351.96875 525.527344 C 353.792969 523.710938 354.890625 522.984375 355.253906 523.347656 Z M 355.253906 241.378906 " fill-opacity="1" fill-rule="nonzero"/></svg>