<svg xmlns="http://www.w3.org/2000/svg" xmlns:xlink="http://www.w3.org/1999/xlink" width="1000" zoomAndPan="magnify" viewBox="0 0 750 749.999995" height="1000" preserveAspectRatio="xMidYMid meet" version="1.0"><defs><clipPath id="11aa09f169"><path d="M 121.25 112.5 L 629 112.5 L 629 621 L 121.25 621 Z M 121.25 112.5 " clip-rule="nonzero"/></clipPath></defs><rect x="-75" width="900" fill="#ffffff" y="-74.999999" height="899.999994" fill-opacity="1"/><rect x="-75" width="900" fill="#ffffff" y="-74.999999" height="899.999994" fill-opacity="1"/><path fill="#6d5764" d="M 624.34375 367.359375 L 622.074219 401.109375 C 611.3125 469.105469 579.824219 523.488281 527.609375 564.257812 C 475.03125 604.992188 413.121094 621.507812 341.871094 613.808594 C 273.875 603.046875 219.492188 571.558594 178.722656 519.34375 C 165.660156 502.46875 154.902344 484.074219 146.445312 464.171875 L 135.785156 433.480469 C 129.925781 412.359375 126.964844 390.320312 126.898438 367.359375 C 128.679688 296.898438 152.960938 238.273438 199.75 191.484375 C 246.535156 144.699219 305.160156 120.414062 375.621094 118.636719 C 446.082031 120.414062 504.707031 144.699219 551.496094 191.484375 C 598.28125 238.273438 622.566406 296.898438 624.34375 367.359375 " fill-opacity="1" fill-rule="nonzero"/><path fill="#6d5764" d="M 612.386719 445.878906 L 612.386719 445.882812 L 624.015625 366.152344 C 624.941406 300.78125 571.003906 212.753906 571.003906 212.753906 L 373.824219 364.007812 C 267.804688 445.332031 214.148438 485.933594 180.128906 516.277344 C 231.890625 579.496094 300.480469 601.621094 300.480469 601.621094 C 411.195312 637.335938 449.308594 602.5 449.308594 602.5 C 553.378906 562.515625 573.488281 514.128906 573.488281 514.128906 Z M 612.386719 445.878906 " fill-opacity="1" fill-rule="nonzero"/><path fill="#00010d" d="M 127.878906 362.386719 L 617.484375 360.140625 C 620.144531 360.128906 622.308594 362.277344 622.320312 364.933594 C 622.332031 367.59375 620.1875 369.757812 617.527344 369.769531 L 127.921875 372.011719 C 125.265625 372.023438 123.097656 369.878906 123.085938 367.222656 C 123.074219 364.5625 125.21875 362.398438 127.878906 362.386719 Z M 127.878906 362.386719 " fill-opacity="1" fill-rule="nonzero"/><path fill="#00010d" d="M 178.726562 508.414062 L 567.78125 211.195312 C 569.894531 209.582031 572.914062 209.984375 574.53125 212.097656 C 576.144531 214.210938 575.738281 217.234375 573.625 218.847656 L 184.570312 516.0625 C 182.457031 517.675781 179.4375 517.273438 177.824219 515.160156 C 176.207031 513.046875 176.613281 510.027344 178.726562 508.414062 Z M 178.726562 508.414062 " fill-opacity="1" fill-rule="nonzero"/><path fill="#00010d" d="M 302.917969 130.109375 L 454.652344 600.210938 C 455.46875 602.742188 454.078125 605.457031 451.550781 606.273438 C 449.019531 607.089844 446.304688 605.699219 445.488281 603.167969 L 293.753906 133.066406 C 292.9375 130.535156 294.328125 127.824219 296.859375 127.007812 C 299.386719 126.191406 302.101562 127.578125 302.917969 130.109375 Z M 302.917969 130.109375 " fill-opacity="1" fill-rule="nonzero"/><path fill="#00010d" d="M 179.042969 217.175781 L 574.871094 508.292969 C 577.011719 509.871094 577.472656 512.882812 575.894531 515.023438 C 574.320312 517.167969 571.308594 517.625 569.164062 516.050781 L 173.339844 224.929688 C 171.195312 223.355469 170.738281 220.34375 172.3125 218.199219 C 173.886719 216.058594 176.902344 215.597656 179.042969 217.175781 Z M 179.042969 217.175781 " fill-opacity="1" fill-rule="nonzero"/><path fill="#00010d" d="M 454.152344 130.21875 L 306 601.140625 C 305.203125 603.675781 302.5 605.085938 299.964844 604.285156 C 297.425781 603.488281 296.019531 600.785156 296.816406 598.25 L 444.96875 127.332031 C 445.765625 124.792969 448.46875 123.386719 451.003906 124.183594 C 453.542969 124.980469 454.949219 127.683594 454.152344 130.21875 Z M 454.152344 130.21875 " fill-opacity="1" fill-rule="nonzero"/><g clip-path="url(#11aa09f169)"><path fill="#00010d" d="M 628.742188 366.433594 C 628.742188 506.574219 515.136719 620.183594 374.992188 620.183594 C 234.851562 620.183594 121.242188 506.574219 121.242188 366.433594 C 121.242188 226.289062 234.851562 112.679688 374.992188 112.679688 C 515.136719 112.679688 628.742188 226.289062 628.742188 366.433594 M 617.546875 366.433594 C 617.546875 232.472656 508.953125 123.878906 374.992188 123.878906 C 241.035156 123.878906 132.441406 232.472656 132.441406 366.433594 C 132.441406 500.390625 241.035156 608.984375 374.992188 608.984375 C 508.949219 608.984375 617.546875 500.390625 617.546875 366.433594 Z M 617.546875 366.433594 " fill-opacity="1" fill-rule="nonzero"/></g><path fill="#6d5764" d="M 551.417969 259.855469 C 551.472656 260.054688 551.5 260.226562 551.5 260.371094 C 551.554688 261.695312 551.554688 263.011719 551.5 264.316406 C 551.464844 265.257812 550.949219 265.773438 549.949219 265.867188 C 549.589844 265.902344 549.035156 265.921875 548.292969 265.921875 L 544.863281 265.921875 C 543.757812 265.921875 542.816406 265.929688 542.035156 265.949219 C 541.4375 265.964844 541.03125 266.066406 540.8125 266.246094 C 540.59375 266.445312 540.429688 266.855469 540.324219 267.46875 C 540.195312 268.269531 540.175781 268.984375 540.269531 269.617188 C 540.429688 269.601562 540.621094 269.574219 540.839844 269.539062 C 540.820312 269.066406 540.859375 268.578125 540.949219 268.070312 C 541.074219 267.378906 541.273438 266.917969 541.546875 266.683594 C 541.820312 266.429688 542.300781 266.292969 542.988281 266.273438 C 542.953125 266.273438 544.917969 266.265625 548.890625 266.246094 C 549.886719 266.246094 550.539062 266.226562 550.847656 266.191406 C 551.664062 266.121094 552.089844 265.710938 552.125 264.96875 C 552.179688 263.664062 552.179688 262.347656 552.125 261.023438 C 552.109375 260.429688 551.875 260.039062 551.421875 259.855469 Z M 542.527344 276.878906 C 541.800781 276.878906 541.292969 277.179688 541.003906 277.777344 C 540.875 278.03125 540.710938 278.429688 540.511719 278.976562 C 540.40625 279.230469 540.324219 279.429688 540.269531 279.574219 C 539.960938 280.351562 539.425781 280.75 538.664062 280.769531 C 538.011719 280.789062 537.421875 280.796875 536.894531 280.796875 C 536.296875 280.796875 535.691406 280.777344 535.078125 280.742188 L 535.074219 280.742188 C 535.273438 280.941406 535.546875 281.050781 535.890625 281.070312 C 536.464844 281.101562 537.140625 281.117188 537.914062 281.117188 C 538.429688 281.117188 538.988281 281.109375 539.589844 281.097656 C 540.222656 281.078125 540.667969 280.75 540.921875 280.117188 C 541.375 278.9375 541.609375 278.332031 541.628906 278.296875 C 541.917969 277.695312 542.378906 277.34375 543.015625 277.234375 L 542.988281 277.234375 L 542.988281 277.207031 C 542.933594 277.117188 542.859375 277.007812 542.769531 276.878906 Z M 539.644531 288.058594 C 539.699219 288.222656 539.742188 288.441406 539.777344 288.710938 C 539.832031 288.984375 539.878906 289.175781 539.914062 289.28125 C 539.949219 289.390625 539.996094 289.519531 540.050781 289.664062 C 540.214844 289.789062 540.367188 289.890625 540.511719 289.960938 C 540.203125 288.875 540.003906 288.292969 539.914062 288.222656 C 539.824219 288.152344 539.734375 288.097656 539.648438 288.058594 Z M 539.351562 258.128906 C 537.160156 258.128906 535.691406 258.132812 534.9375 258.140625 C 533.957031 258.140625 533.34375 258.269531 533.089844 258.523438 C 532.835938 258.792969 532.707031 259.4375 532.707031 260.453125 C 532.6875 260.871094 532.679688 263.644531 532.679688 268.777344 C 532.679688 273.363281 532.679688 275.984375 532.679688 276.636719 C 532.679688 277.398438 532.707031 277.976562 532.761719 278.375 C 532.851562 279.101562 533.234375 279.484375 533.902344 279.519531 C 534.542969 279.542969 535.304688 279.554688 536.1875 279.554688 C 536.628906 279.554688 537.101562 279.550781 537.601562 279.546875 C 538.238281 279.527344 538.671875 279.191406 538.910156 278.539062 C 539.378906 277.378906 539.625 276.773438 539.644531 276.71875 C 540.007812 275.992188 540.625 275.628906 541.5 275.628906 C 541.542969 275.628906 541.585938 275.628906 541.628906 275.628906 C 542.460938 275.683594 543.105469 276.101562 543.558594 276.878906 C 543.886719 277.441406 544.046875 278.148438 544.046875 279.003906 C 544.066406 281.6875 544.066406 284.378906 544.046875 287.078125 C 544.046875 287.460938 544.023438 287.824219 543.96875 288.167969 C 543.820312 288.894531 543.503906 289.5 543.015625 289.988281 C 542.542969 290.480469 542 290.742188 541.382812 290.777344 C 541.3125 290.785156 541.246094 290.789062 541.179688 290.789062 C 540.65625 290.789062 540.164062 290.601562 539.699219 290.234375 C 539.171875 289.800781 538.789062 289.21875 538.554688 288.492188 C 538.136719 287.277344 537.929688 286.671875 537.929688 286.671875 C 537.695312 286.484375 537.410156 286.390625 537.070312 286.390625 C 537.011719 286.390625 536.957031 286.394531 536.894531 286.398438 C 536.09375 286.503906 535.726562 286.558594 535.796875 286.5625 C 535.636719 286.558594 535.480469 286.558594 535.328125 286.558594 C 534.707031 286.558594 534.140625 286.585938 533.632812 286.644531 C 532.960938 286.699219 532.5 286.863281 532.246094 287.132812 C 531.992188 287.425781 531.863281 287.914062 531.863281 288.601562 C 531.863281 289.617188 532.0625 290.617188 532.460938 291.59375 C 533.660156 294.550781 535.574219 296.417969 538.203125 297.195312 C 539.179688 297.484375 540.144531 297.628906 541.101562 297.628906 C 542.4375 297.628906 543.757812 297.347656 545.054688 296.789062 C 545.996094 296.390625 546.839844 295.828125 547.585938 295.101562 C 549.5625 293.179688 550.566406 290.832031 550.601562 288.058594 C 550.65625 285.554688 550.65625 282.5 550.601562 278.894531 C 550.585938 277.152344 550.277344 275.511719 549.679688 273.96875 C 548.753906 271.558594 546.996094 270.226562 544.402344 269.972656 C 544.039062 269.941406 543.683594 269.925781 543.339844 269.925781 C 542.644531 269.925781 541.984375 269.988281 541.355469 270.109375 C 540.792969 270.21875 540.429688 270.273438 540.269531 270.273438 C 540.234375 270.273438 540.199219 270.273438 540.164062 270.273438 C 539.535156 270.273438 539.144531 269.957031 538.988281 269.320312 C 538.789062 268.523438 538.78125 267.589844 538.964844 266.519531 C 539.089844 265.828125 539.289062 265.359375 539.5625 265.105469 C 539.832031 264.867188 540.3125 264.742188 541.003906 264.722656 C 540.964844 264.722656 542.933594 264.707031 546.90625 264.667969 C 547.882812 264.667969 548.535156 264.660156 548.863281 264.640625 C 549.679688 264.570312 550.105469 264.160156 550.140625 263.417969 C 550.195312 262.09375 550.195312 260.78125 550.140625 259.472656 C 550.105469 258.714844 549.707031 258.277344 548.945312 258.167969 C 548.707031 258.152344 548.417969 258.140625 548.074219 258.140625 C 544.449219 258.132812 541.539062 258.128906 539.351562 258.128906 Z M 550.257812 273.277344 C 550.582031 273.746094 550.839844 274.238281 551.039062 274.757812 C 551.65625 276.335938 551.972656 278.015625 551.992188 279.789062 C 552.027344 283.398438 552.027344 286.464844 551.992188 288.984375 C 551.9375 291.832031 550.894531 294.25 548.863281 296.246094 C 548.101562 296.988281 547.222656 297.578125 546.222656 298.011719 C 544.902344 298.574219 543.542969 298.855469 542.144531 298.855469 C 541.277344 298.855469 540.390625 298.730469 539.488281 298.476562 L 539.484375 298.476562 C 539.808594 298.621094 540.042969 298.710938 540.1875 298.746094 C 541.183594 299.039062 542.164062 299.183594 543.132812 299.183594 C 544.460938 299.183594 545.761719 298.910156 547.039062 298.367188 C 548 297.949219 548.84375 297.386719 549.570312 296.679688 C 551.546875 294.738281 552.5625 292.390625 552.617188 289.636719 C 552.652344 287.117188 552.652344 284.050781 552.617188 280.445312 C 552.597656 278.722656 552.28125 277.082031 551.664062 275.519531 C 551.320312 274.640625 550.855469 273.890625 550.261719 273.277344 Z M 525.460938 324.558594 C 525.660156 324.738281 525.949219 324.847656 526.328125 324.882812 C 526.601562 324.902344 526.964844 324.921875 527.417969 324.9375 L 527.417969 324.910156 C 527.398438 324.855469 527.363281 324.765625 527.308594 324.640625 C 527.074219 324.640625 526.863281 324.628906 526.683594 324.613281 C 526.214844 324.613281 525.808594 324.59375 525.464844 324.558594 Z M 550.863281 321.347656 C 550.191406 321.347656 549.621094 321.601562 549.148438 322.109375 C 548.730469 322.5625 548.476562 323.089844 548.386719 323.6875 C 548.242188 324.574219 548.167969 325.347656 548.167969 326 C 548.152344 330.949219 548.152344 336.296875 548.167969 342.046875 C 548.167969 342.859375 548.222656 343.558594 548.332031 344.140625 C 548.386719 344.449219 548.496094 344.773438 548.660156 345.117188 C 548.785156 345.226562 548.929688 345.308594 549.09375 345.363281 C 549.019531 345.128906 548.976562 344.964844 548.957031 344.875 C 548.832031 344.257812 548.765625 343.53125 548.765625 342.699219 C 548.765625 336.933594 548.765625 331.582031 548.765625 326.652344 C 548.785156 325.980469 548.859375 325.191406 548.984375 324.285156 C 549.09375 323.632812 549.375 323.050781 549.828125 322.542969 C 550.300781 322.039062 550.863281 321.757812 551.515625 321.703125 C 551.460938 321.628906 551.371094 321.53125 551.242188 321.402344 C 551.042969 321.367188 550.917969 321.347656 550.863281 321.347656 Z M 549.875 320.117188 C 550.496094 320.117188 551.050781 320.335938 551.542969 320.777344 C 552.304688 321.449219 552.71875 322.265625 552.792969 323.226562 C 552.828125 323.75 552.847656 324.476562 552.847656 325.402344 L 552.847656 341.664062 C 552.847656 342.734375 552.746094 343.59375 552.546875 344.25 C 552.183594 345.390625 551.476562 346.023438 550.425781 346.152344 C 550.257812 346.171875 550.09375 346.179688 549.9375 346.179688 C 548.898438 346.179688 548.117188 345.761719 547.597656 344.929688 C 547.308594 344.4375 547.097656 343.902344 546.972656 343.324219 C 546.863281 342.707031 546.808594 341.980469 546.808594 341.148438 C 546.792969 335.398438 546.792969 330.050781 546.808594 325.101562 C 546.808594 324.429688 546.882812 323.640625 547.027344 322.734375 C 547.117188 322.082031 547.398438 321.503906 547.871094 320.996094 C 548.359375 320.449219 548.957031 320.160156 549.664062 320.125 C 549.734375 320.117188 549.804688 320.117188 549.875 320.117188 Z M 531.441406 313.753906 C 530.421875 313.753906 529.652344 314.179688 529.132812 315.039062 C 528.296875 316.398438 526.910156 317.414062 524.96875 318.085938 C 524.898438 318.121094 524.761719 318.167969 524.5625 318.21875 C 524.378906 318.273438 524.246094 318.320312 524.152344 318.355469 C 523.5 318.59375 523.15625 319.027344 523.121094 319.660156 C 523.066406 320.621094 523.058594 321.421875 523.09375 322.054688 C 523.148438 322.816406 523.554688 323.242188 524.316406 323.332031 C 524.605469 323.351562 524.96875 323.371094 525.40625 323.386719 C 525.984375 323.40625 526.355469 323.414062 526.519531 323.414062 C 527.316406 323.46875 527.824219 323.90625 528.042969 324.71875 C 528.1875 325.28125 528.261719 326.226562 528.261719 327.550781 C 528.261719 329.433594 528.261719 333.089844 528.261719 338.507812 C 528.261719 343.078125 528.269531 346.722656 528.289062 349.441406 C 528.289062 350.277344 528.316406 351.011719 528.371094 351.644531 C 528.425781 352.242188 528.75 352.578125 529.347656 352.652344 C 529.910156 352.707031 530.5625 352.742188 531.308594 352.761719 C 532.828125 352.761719 533.726562 352.625 534 352.351562 C 534.289062 352.097656 534.433594 351.230469 534.433594 349.742188 C 534.433594 347.910156 534.433594 342.433594 534.433594 333.316406 C 534.433594 323.378906 534.433594 317.695312 534.433594 316.261719 C 534.417969 315.121094 534.269531 314.414062 534 314.140625 C 533.746094 313.886719 533.113281 313.757812 532.109375 313.757812 C 532.042969 313.757812 531.976562 313.757812 531.90625 313.761719 L 531.6875 313.761719 C 531.605469 313.753906 531.523438 313.753906 531.441406 313.753906 Z M 549.261719 313.566406 C 546.257812 313.566406 543.664062 315.28125 541.480469 318.710938 C 540.953125 319.542969 540.691406 320.875 540.691406 322.707031 C 540.707031 334.222656 540.699219 341.300781 540.664062 343.949219 C 540.609375 347.25 542.058594 349.824219 545.015625 351.671875 C 546.679688 352.726562 548.347656 353.253906 550.019531 353.253906 C 551.574219 353.253906 553.132812 352.796875 554.695312 351.890625 C 557.871094 350.042969 559.4375 347.375 559.402344 343.894531 C 559.382812 343.351562 559.375 339.804688 559.375 333.261719 C 559.375 326.914062 559.375 323.296875 559.375 322.410156 C 559.390625 321.121094 559.058594 319.816406 558.367188 318.492188 C 558.058594 317.894531 557.28125 316.953125 556.027344 315.664062 C 554.835938 314.414062 553.289062 313.726562 551.390625 313.597656 L 551.386719 313.597656 C 551.441406 313.601562 551.410156 313.605469 551.296875 313.605469 C 551.054688 313.605469 550.4375 313.59375 549.449219 313.570312 C 549.386719 313.566406 549.324219 313.566406 549.261719 313.566406 Z M 535.632812 315.476562 C 535.738281 315.875 535.792969 316.433594 535.792969 317.160156 C 535.8125 319.734375 535.820312 323.851562 535.820312 329.507812 L 535.792969 338.320312 C 535.8125 343.449219 535.8125 347.558594 535.792969 350.640625 C 535.792969 352.164062 535.648438 353.085938 535.359375 353.414062 C 535.03125 353.792969 534.171875 353.984375 532.777344 353.984375 L 532.367188 353.984375 C 531.753906 353.984375 531.191406 353.957031 530.683594 353.902344 C 530.863281 354.085938 531.082031 354.183594 531.335938 354.203125 C 531.894531 354.273438 532.558594 354.3125 533.320312 354.3125 C 534.84375 354.3125 535.738281 354.183594 536.011719 353.929688 C 536.285156 353.660156 536.421875 352.777344 536.421875 351.292969 L 536.421875 334.890625 C 536.421875 325.027344 536.421875 319.335938 536.421875 317.8125 C 536.421875 316.472656 536.160156 315.695312 535.636719 315.476562 Z M 559.25 318.484375 C 559.425781 318.75 559.578125 318.996094 559.699219 319.226562 C 560.40625 320.605469 560.761719 321.964844 560.761719 323.304688 C 560.742188 324.972656 560.734375 327.578125 560.734375 331.113281 L 560.734375 334.15625 C 560.734375 334.882812 560.734375 335.960938 560.734375 337.394531 C 560.714844 340.640625 560.726562 343.105469 560.761719 344.792969 C 560.796875 348.398438 559.175781 351.15625 555.894531 353.058594 C 554.316406 353.984375 552.703125 354.445312 551.050781 354.445312 C 550.347656 354.445312 549.589844 354.339844 548.78125 354.125 L 548.777344 354.125 C 549.875 354.546875 550.964844 354.757812 552.046875 354.757812 C 553.605469 354.757812 555.152344 354.316406 556.683594 353.441406 C 559.855469 351.589844 561.414062 348.925781 561.359375 345.445312 C 561.359375 344.9375 561.359375 341.390625 561.359375 334.8125 C 561.359375 328.429688 561.359375 324.8125 561.359375 323.960938 C 561.378906 322.671875 561.035156 321.367188 560.328125 320.042969 C 560.074219 319.539062 559.71875 319.019531 559.253906 318.484375 Z M 559.25 318.484375 " fill-opacity="1" fill-rule="nonzero"/><path fill="#6d5764" d="M 521.5625 302.117188 C 520.640625 302.148438 520.105469 302.378906 519.953125 302.800781 C 520.195312 302.726562 520.535156 302.683594 520.976562 302.667969 C 521.105469 302.667969 521.308594 302.667969 521.585938 302.667969 L 532.511719 302.714844 C 546.914062 302.777344 557.707031 302.820312 564.898438 302.851562 C 566.28125 302.855469 567.128906 303.015625 567.441406 303.332031 C 567.753906 303.664062 567.90625 304.542969 567.902344 305.960938 L 567.898438 306.238281 C 567.898438 306.847656 567.875 307.363281 567.839844 307.785156 C 568.003906 307.621094 568.105469 307.382812 568.144531 307.070312 C 568.183594 306.625 568.207031 305.972656 568.207031 305.105469 C 568.214844 303.777344 568.089844 302.984375 567.832031 302.726562 C 567.574219 302.449219 566.800781 302.304688 565.511719 302.300781 C 561.398438 302.285156 547.007812 302.222656 522.335938 302.121094 C 521.929688 302.117188 521.671875 302.117188 521.5625 302.117188 Z M 520.171875 303.878906 C 519.433594 303.914062 518.960938 304.03125 518.757812 304.234375 C 518.535156 304.4375 518.40625 304.886719 518.367188 305.589844 C 518.367188 305.773438 518.363281 306.222656 518.359375 306.941406 C 518.355469 308.308594 518.460938 309.109375 518.683594 309.351562 C 518.921875 309.589844 519.703125 309.714844 521.03125 309.71875 L 563.792969 309.898438 C 563.871094 309.898438 563.953125 309.898438 564.03125 309.898438 C 564.777344 309.898438 565.355469 309.882812 565.753906 309.851562 C 566.34375 309.78125 566.667969 309.441406 566.726562 308.832031 C 566.785156 308.390625 566.816406 307.746094 566.820312 306.898438 C 566.804688 305.570312 566.671875 304.765625 566.414062 304.488281 C 566.15625 304.210938 565.382812 304.070312 564.09375 304.066406 C 559.296875 304.042969 544.914062 303.984375 520.945312 303.882812 C 520.539062 303.882812 520.28125 303.882812 520.171875 303.878906 Z M 520.171875 303.878906 " fill-opacity="1" fill-rule="nonzero"/></svg>