<svg xmlns="http://www.w3.org/2000/svg" xmlns:xlink="http://www.w3.org/1999/xlink" width="1000" zoomAndPan="magnify" viewBox="0 0 750 749.999995" height="1000" preserveAspectRatio="xMidYMid meet" version="1.0"><defs><clipPath id="da9f43b05f"><path d="M 168 351 L 211 351 L 211 420.257812 L 168 420.257812 Z M 168 351 " clip-rule="nonzero"/></clipPath><clipPath id="2974662dfd"><path d="M 268 351 L 311 351 L 311 420.257812 L 268 420.257812 Z M 268 351 " clip-rule="nonzero"/></clipPath><clipPath id="0f27deed62"><path d="M 490 351 L 533 351 L 533 420.257812 L 490 420.257812 Z M 490 351 " clip-rule="nonzero"/></clipPath><clipPath id="4b3509efe6"><path d="M 597 329.742188 L 628 329.742188 L 628 379 L 597 379 Z M 597 329.742188 " clip-rule="nonzero"/></clipPath></defs><rect x="-75" width="900" fill="#ffffff" y="-74.999999" height="899.999994" fill-opacity="1"/><rect x="-75" width="900" fill="#ffffff" y="-74.999999" height="899.999994" fill-opacity="1"/><path fill="#000000" d="M 125.644531 375.195312 C 123.847656 375.195312 122.414062 374.59375 121.347656 373.394531 C 120.28125 372.195312 119.75 370.730469 119.75 369 C 119.75 364.269531 121.515625 360.171875 125.046875 356.710938 C 128.578125 353.246094 132.972656 351.515625 138.234375 351.515625 C 144.296875 351.515625 149.359375 353.378906 153.421875 357.109375 C 157.488281 360.839844 159.550781 365.667969 159.617188 371.597656 C 159.617188 374.460938 158.953125 377.191406 157.621094 379.792969 C 156.289062 382.390625 154.6875 384.652344 152.824219 386.585938 C 150.957031 388.515625 148.292969 390.980469 144.828125 393.980469 C 142.433594 396.042969 139.101562 399.109375 134.839844 403.171875 L 128.941406 408.769531 L 136.535156 408.867188 C 146.996094 408.867188 152.558594 408.703125 153.222656 408.367188 C 153.691406 408.234375 154.488281 405.269531 155.621094 399.476562 L 155.621094 399.175781 L 159.617188 399.175781 L 159.617188 399.476562 C 159.550781 399.675781 159.117188 402.707031 158.320312 408.566406 C 157.519531 414.429688 157.019531 417.496094 156.820312 417.761719 L 156.820312 418.058594 L 119.75 418.058594 L 119.75 414.960938 C 119.75 414.496094 119.949219 413.996094 120.351562 413.464844 C 120.75 412.929688 121.75 411.765625 123.347656 409.96875 C 125.277344 407.835938 126.945312 405.96875 128.34375 404.371094 C 128.941406 403.707031 130.074219 402.472656 131.742188 400.675781 C 133.40625 398.875 134.539062 397.644531 135.136719 396.976562 C 135.738281 396.3125 136.703125 395.210938 138.035156 393.679688 C 139.367188 392.148438 140.300781 391.015625 140.832031 390.28125 C 141.367188 389.550781 142.132812 388.550781 143.132812 387.285156 C 144.128906 386.019531 144.828125 384.953125 145.230469 384.085938 C 145.628906 383.222656 146.128906 382.253906 146.726562 381.191406 C 147.328125 380.125 147.761719 379.058594 148.027344 377.992188 C 148.292969 376.925781 148.527344 375.925781 148.726562 374.996094 C 148.925781 374.0625 149.027344 372.964844 149.027344 371.699219 C 149.027344 367.5 147.894531 363.871094 145.628906 360.804688 C 143.363281 357.742188 140.132812 356.210938 135.9375 356.210938 C 133.738281 356.210938 131.808594 356.777344 130.140625 357.910156 C 128.476562 359.042969 127.3125 360.140625 126.644531 361.207031 C 125.976562 362.273438 125.644531 362.90625 125.644531 363.105469 C 125.644531 363.171875 125.8125 363.203125 126.144531 363.203125 C 127.34375 363.203125 128.578125 363.671875 129.84375 364.601562 C 131.109375 365.535156 131.742188 367.066406 131.742188 369.199219 C 131.742188 370.863281 131.207031 372.265625 130.140625 373.394531 C 129.074219 374.527344 127.578125 375.128906 125.644531 375.195312 Z M 125.644531 375.195312 " fill-opacity="1" fill-rule="nonzero"/><g clip-path="url(#da9f43b05f)"><path fill="#000000" d="M 177.402344 371.796875 C 175.605469 371.796875 174.207031 371.230469 173.207031 370.097656 C 172.207031 368.964844 171.675781 367.5 171.609375 365.703125 C 171.609375 362.039062 173.207031 358.773438 176.40625 355.910156 C 179.601562 353.046875 183.464844 351.613281 187.996094 351.613281 C 190.328125 351.613281 191.792969 351.648438 192.390625 351.714844 C 197.320312 352.511719 201.085938 354.277344 203.683594 357.007812 C 206.28125 359.742188 207.613281 362.703125 207.679688 365.902344 C 207.679688 369.367188 206.546875 372.730469 204.28125 375.996094 C 202.015625 379.257812 198.886719 381.621094 194.890625 383.089844 L 194.589844 383.289062 C 194.589844 383.355469 194.890625 383.453125 195.488281 383.589844 C 196.089844 383.722656 197.054688 384.019531 198.386719 384.488281 C 199.71875 384.953125 200.984375 385.652344 202.183594 386.585938 C 207.644531 390.117188 210.378906 394.777344 210.378906 400.574219 C 210.378906 405.835938 208.3125 410.433594 204.183594 414.363281 C 200.050781 418.292969 194.824219 420.257812 188.496094 420.257812 C 183.164062 420.257812 178.570312 418.828125 174.707031 415.960938 C 170.84375 413.097656 168.910156 409.46875 168.910156 405.070312 C 168.910156 403.207031 169.511719 401.707031 170.710938 400.574219 C 171.910156 399.441406 173.40625 398.84375 175.207031 398.777344 C 177.070312 398.777344 178.601562 399.375 179.800781 400.574219 C 181 401.773438 181.601562 403.273438 181.601562 405.070312 C 181.601562 405.804688 181.5 406.46875 181.300781 407.070312 C 181.101562 407.667969 180.867188 408.203125 180.601562 408.667969 C 180.335938 409.132812 179.96875 409.535156 179.503906 409.867188 C 179.035156 410.199219 178.636719 410.464844 178.304688 410.667969 C 177.96875 410.867188 177.636719 411 177.304688 411.066406 C 176.972656 411.132812 176.703125 411.234375 176.503906 411.367188 L 176.105469 411.464844 C 179.503906 414.464844 183.632812 415.960938 188.496094 415.960938 C 192.160156 415.960938 194.921875 414.195312 196.789062 410.667969 C 197.921875 408.46875 198.488281 405.105469 198.488281 400.574219 L 198.488281 398.574219 C 198.488281 392.246094 196.355469 388.019531 192.09375 385.886719 C 191.09375 385.488281 189.0625 385.253906 185.996094 385.1875 L 181.800781 385.085938 L 181.5 384.886719 C 181.367188 384.6875 181.300781 384.15625 181.300781 383.289062 C 181.300781 382.089844 181.566406 381.488281 182.101562 381.488281 C 183.964844 381.488281 185.898438 381.324219 187.894531 380.988281 C 190.160156 380.65625 192.226562 379.257812 194.089844 376.792969 C 195.957031 374.328125 196.886719 370.597656 196.886719 365.601562 L 196.886719 364.804688 C 196.886719 361.007812 195.722656 358.375 193.390625 356.910156 C 191.925781 355.976562 190.359375 355.511719 188.695312 355.511719 C 186.5625 355.511719 184.597656 355.878906 182.800781 356.609375 C 181 357.34375 179.734375 358.109375 179.003906 358.90625 C 178.269531 359.707031 177.902344 360.105469 177.902344 360.105469 L 178.203125 360.105469 C 178.402344 360.171875 178.667969 360.238281 179.003906 360.308594 C 179.335938 360.375 179.667969 360.539062 180 360.804688 C 180.335938 361.074219 180.734375 361.304688 181.199219 361.503906 C 181.667969 361.707031 182 362.070312 182.199219 362.605469 C 182.398438 363.136719 182.667969 363.636719 183 364.105469 C 183.332031 364.570312 183.433594 365.234375 183.300781 366.101562 C 183.300781 367.566406 182.832031 368.867188 181.898438 370 C 180.96875 371.132812 179.46875 371.730469 177.402344 371.796875 Z M 177.402344 371.796875 " fill-opacity="1" fill-rule="nonzero"/></g><path fill="#000000" d="M 260.835938 418.058594 C 259.636719 417.859375 255.339844 417.761719 247.945312 417.761719 C 240.21875 417.761719 235.757812 417.859375 234.558594 418.058594 L 233.660156 418.058594 L 233.660156 413.464844 L 236.757812 413.464844 C 238.089844 413.464844 238.988281 413.464844 239.453125 413.464844 C 239.921875 413.464844 240.488281 413.398438 241.152344 413.265625 C 241.820312 413.132812 242.285156 412.964844 242.550781 412.765625 C 242.816406 412.566406 243.050781 412.296875 243.25 411.964844 C 243.316406 411.832031 243.351562 410.035156 243.351562 406.570312 L 243.351562 401.574219 L 217.472656 401.574219 L 217.472656 396.976562 L 232.558594 373.894531 C 242.75 358.441406 247.914062 350.679688 248.046875 350.613281 C 248.179688 350.480469 248.878906 350.414062 250.144531 350.414062 L 251.945312 350.414062 L 252.542969 351.015625 L 252.542969 396.976562 L 261.734375 396.976562 L 261.734375 401.574219 L 252.542969 401.574219 L 252.542969 406.667969 C 252.542969 409.402344 252.542969 411 252.542969 411.464844 C 252.542969 411.933594 252.742188 412.332031 253.144531 412.664062 C 253.675781 413.132812 255.574219 413.398438 258.839844 413.464844 L 261.734375 413.464844 L 261.734375 418.058594 Z M 243.949219 396.976562 L 243.949219 363.605469 L 222.066406 396.878906 L 232.960938 396.976562 Z M 243.949219 396.976562 " fill-opacity="1" fill-rule="nonzero"/><g clip-path="url(#2974662dfd)"><path fill="#000000" d="M 274.226562 359.605469 C 277.957031 354.210938 283.050781 351.515625 289.515625 351.515625 C 292.710938 351.515625 295.910156 352.378906 299.105469 354.113281 C 302.304688 355.84375 304.902344 358.90625 306.898438 363.304688 C 309.363281 368.832031 310.597656 376.425781 310.597656 386.085938 C 310.597656 396.410156 309.164062 404.304688 306.300781 409.765625 C 304.96875 412.566406 303.136719 414.796875 300.804688 416.460938 C 298.472656 418.128906 296.441406 419.160156 294.710938 419.558594 C 292.976562 419.957031 291.277344 420.191406 289.613281 420.257812 C 287.882812 420.257812 286.148438 420.058594 284.417969 419.660156 C 282.6875 419.257812 280.652344 418.195312 278.324219 416.460938 C 275.992188 414.730469 274.160156 412.5 272.828125 409.765625 C 269.960938 404.304688 268.53125 396.410156 268.53125 386.085938 C 268.53125 374.496094 270.429688 365.667969 274.226562 359.605469 Z M 296.707031 358.410156 C 294.710938 356.277344 292.34375 355.210938 289.613281 355.210938 C 286.816406 355.210938 284.417969 356.277344 282.417969 358.410156 C 280.753906 360.140625 279.65625 362.539062 279.121094 365.601562 C 278.589844 368.667969 278.324219 375.0625 278.324219 384.789062 C 278.324219 395.3125 278.589844 402.238281 279.121094 405.570312 C 279.65625 408.902344 280.855469 411.53125 282.71875 413.464844 C 284.585938 415.460938 286.882812 416.460938 289.613281 416.460938 C 292.277344 416.460938 294.542969 415.460938 296.40625 413.464844 C 298.339844 411.464844 299.539062 408.667969 300.003906 405.070312 C 300.472656 401.472656 300.738281 394.710938 300.804688 384.789062 C 300.804688 375.128906 300.539062 368.765625 300.003906 365.703125 C 299.472656 362.636719 298.375 360.207031 296.707031 358.410156 Z M 296.707031 358.410156 " fill-opacity="1" fill-rule="nonzero"/></g><path fill="#000000" d="M 399.746094 415.164062 C 399.746094 416.496094 399.046875 417.160156 397.648438 417.160156 C 397.3125 417.160156 396.582031 416.628906 395.449219 415.5625 C 394.316406 414.496094 391.183594 411.398438 386.054688 406.269531 L 375.664062 395.878906 L 365.171875 406.371094 C 358.113281 413.296875 354.480469 416.828125 354.28125 416.960938 C 354.015625 417.09375 353.78125 417.160156 353.582031 417.160156 C 353.050781 417.160156 352.582031 416.960938 352.183594 416.5625 C 351.785156 416.160156 351.550781 415.695312 351.484375 415.164062 C 351.484375 414.695312 351.949219 413.964844 352.882812 412.964844 C 353.816406 411.964844 356.945312 408.800781 362.273438 403.472656 L 372.667969 393.082031 L 362.273438 382.6875 C 356.878906 377.292969 353.75 374.128906 352.882812 373.195312 C 352.015625 372.265625 351.550781 371.53125 351.484375 371 C 351.484375 370.398438 351.683594 369.933594 352.082031 369.597656 C 352.484375 369.265625 352.984375 369.101562 353.582031 369.101562 C 353.914062 369.101562 354.148438 369.132812 354.28125 369.199219 C 354.480469 369.332031 358.113281 372.863281 365.171875 379.792969 L 375.664062 390.28125 L 386.054688 379.890625 C 391.183594 374.761719 394.316406 371.664062 395.449219 370.597656 C 396.582031 369.53125 397.3125 369 397.648438 369 C 399.046875 369 399.746094 369.664062 399.746094 371 C 399.746094 371.464844 399.410156 372.0625 398.746094 372.796875 C 398.078125 373.53125 394.816406 376.792969 388.953125 382.589844 L 378.5625 393.082031 L 388.953125 403.570312 C 394.550781 409.167969 397.746094 412.398438 398.546875 413.265625 C 399.34375 414.128906 399.746094 414.761719 399.746094 415.164062 Z M 399.746094 415.164062 " fill-opacity="1" fill-rule="nonzero"/><path fill="#000000" d="M 458.019531 360.308594 L 456.71875 360.804688 C 455.785156 361.140625 454.453125 361.472656 452.722656 361.804688 C 450.992188 362.140625 449.058594 362.371094 446.925781 362.503906 L 445.027344 362.503906 L 445.027344 357.910156 L 446.925781 357.910156 C 450.058594 357.777344 452.957031 357.277344 455.621094 356.410156 C 458.285156 355.542969 460.148438 354.746094 461.214844 354.011719 C 462.28125 353.277344 463.214844 352.546875 464.011719 351.8125 C 464.148438 351.613281 464.546875 351.515625 465.210938 351.515625 C 465.8125 351.515625 466.378906 351.714844 466.910156 352.113281 L 466.910156 381.988281 L 467.011719 411.964844 C 467.476562 412.429688 467.878906 412.730469 468.210938 412.863281 C 468.542969 412.996094 469.34375 413.132812 470.609375 413.265625 C 471.875 413.398438 473.9375 413.464844 476.804688 413.464844 L 479.402344 413.464844 L 479.402344 418.058594 L 478.300781 418.058594 C 476.902344 417.859375 471.605469 417.761719 462.414062 417.761719 C 453.355469 417.761719 448.125 417.859375 446.726562 418.058594 L 445.527344 418.058594 L 445.527344 413.464844 L 448.125 413.464844 C 449.589844 413.464844 450.855469 413.464844 451.921875 413.464844 C 452.988281 413.464844 453.820312 413.429688 454.421875 413.363281 C 455.019531 413.296875 455.554688 413.199219 456.019531 413.0625 C 456.484375 412.929688 456.753906 412.863281 456.820312 412.863281 C 456.886719 412.863281 457.085938 412.699219 457.417969 412.363281 C 457.75 412.03125 457.953125 411.898438 458.019531 411.964844 Z M 458.019531 360.308594 " fill-opacity="1" fill-rule="nonzero"/><g clip-path="url(#0f27deed62)"><path fill="#000000" d="M 496.289062 359.605469 C 500.019531 354.210938 505.113281 351.515625 511.574219 351.515625 C 514.773438 351.515625 517.96875 352.378906 521.167969 354.113281 C 524.363281 355.84375 526.960938 358.90625 528.960938 363.304688 C 531.425781 368.832031 532.660156 376.425781 532.660156 386.085938 C 532.660156 396.410156 531.226562 404.304688 528.363281 409.765625 C 527.03125 412.566406 525.199219 414.796875 522.867188 416.460938 C 520.535156 418.128906 518.503906 419.160156 516.769531 419.558594 C 515.039062 419.957031 513.339844 420.191406 511.675781 420.257812 C 509.941406 420.257812 508.210938 420.058594 506.480469 419.660156 C 504.746094 419.257812 502.714844 418.195312 500.382812 416.460938 C 498.050781 414.730469 496.222656 412.5 494.886719 409.765625 C 492.023438 404.304688 490.59375 396.410156 490.59375 386.085938 C 490.59375 374.496094 492.492188 365.667969 496.289062 359.605469 Z M 518.769531 358.410156 C 516.769531 356.277344 514.40625 355.210938 511.675781 355.210938 C 508.878906 355.210938 506.480469 356.277344 504.480469 358.410156 C 502.816406 360.140625 501.714844 362.539062 501.183594 365.601562 C 500.652344 368.667969 500.382812 375.0625 500.382812 384.789062 C 500.382812 395.3125 500.652344 402.238281 501.183594 405.570312 C 501.714844 408.902344 502.914062 411.53125 504.78125 413.464844 C 506.644531 415.460938 508.945312 416.460938 511.675781 416.460938 C 514.339844 416.460938 516.605469 415.460938 518.46875 413.464844 C 520.402344 411.464844 521.601562 408.667969 522.066406 405.070312 C 522.53125 401.472656 522.800781 394.710938 522.867188 384.789062 C 522.867188 375.128906 522.601562 368.765625 522.066406 365.703125 C 521.535156 362.636719 520.433594 360.207031 518.769531 358.410156 Z M 518.769531 358.410156 " fill-opacity="1" fill-rule="nonzero"/></g><path fill="#000000" d="M 545.886719 360.050781 C 545.886719 360.050781 545.886719 359.746094 545.886719 359.132812 C 545.886719 358.519531 546.214844 358.050781 546.875 357.71875 L 587.917969 357.71875 C 588.625 358.097656 588.980469 358.566406 588.980469 359.132812 C 588.980469 359.699219 588.625 360.167969 587.917969 360.546875 L 546.875 360.546875 C 546.214844 360.214844 545.886719 359.746094 545.886719 359.132812 Z M 545.886719 360.050781 " fill-opacity="1" fill-rule="nonzero"/><g clip-path="url(#4b3509efe6)"><path fill="#000000" d="M 597.878906 354.683594 C 597.878906 347.003906 599.789062 340.929688 603.601562 336.457031 C 607.417969 331.980469 611.65625 329.746094 616.316406 329.746094 C 619.566406 329.746094 621.898438 330.59375 623.3125 332.289062 C 624.722656 333.984375 625.429688 335.867188 625.429688 337.941406 C 625.429688 339.117188 625.101562 340.058594 624.441406 340.765625 C 623.78125 341.472656 622.863281 341.824219 621.6875 341.824219 C 620.601562 341.824219 619.707031 341.496094 619.003906 340.835938 C 618.296875 340.175781 617.941406 339.257812 617.941406 338.082031 C 617.941406 336.007812 619.050781 334.761719 621.261719 334.335938 C 620.226562 333.300781 618.765625 332.710938 616.882812 332.570312 C 613.539062 332.570312 610.785156 333.984375 608.617188 336.808594 C 606.402344 339.917969 605.296875 344.675781 605.296875 351.078125 L 605.367188 351.363281 C 605.601562 351.078125 605.792969 350.773438 605.933594 350.445312 C 607.863281 347.617188 610.382812 346.203125 613.492188 346.203125 L 613.773438 346.203125 C 615.941406 346.203125 617.847656 346.652344 619.496094 347.546875 C 620.625 348.207031 621.757812 349.148438 622.886719 350.371094 C 624.019531 351.597656 624.9375 352.941406 625.640625 354.398438 C 626.632812 356.707031 627.125 359.226562 627.125 361.957031 L 627.125 363.230469 C 627.125 364.3125 627.007812 365.324219 626.773438 366.269531 C 626.253906 369.046875 624.746094 371.753906 622.25 374.390625 C 619.753906 377.027344 616.601562 378.347656 612.785156 378.347656 C 611.46875 378.347656 610.195312 378.160156 608.972656 377.78125 C 607.746094 377.40625 606.425781 376.699219 605.015625 375.664062 C 603.601562 374.628906 602.402344 373.238281 601.410156 371.496094 C 600.421875 369.753906 599.574219 367.46875 598.867188 364.644531 C 598.164062 361.816406 597.832031 358.496094 597.878906 354.683594 Z M 613.066406 348.75 C 611.65625 348.75 610.429688 349.148438 609.394531 349.949219 C 608.359375 350.75 607.558594 351.808594 606.992188 353.128906 C 606.425781 354.445312 606.027344 355.789062 605.792969 357.15625 C 605.554688 358.519531 605.414062 359.980469 605.367188 361.535156 C 605.367188 365.445312 605.652344 368.246094 606.214844 369.941406 C 606.78125 371.636719 607.675781 373.003906 608.898438 374.039062 C 610.03125 374.886719 611.277344 375.308594 612.644531 375.308594 C 615.046875 375.308594 616.882812 374.414062 618.15625 372.625 C 618.765625 371.777344 619.191406 370.71875 619.425781 369.445312 C 619.660156 368.175781 619.777344 365.703125 619.777344 362.027344 C 619.777344 358.261719 619.660156 355.742188 619.425781 354.46875 C 619.191406 353.199219 618.765625 352.140625 618.15625 351.292969 C 616.882812 349.597656 615.1875 348.75 613.066406 348.75 Z M 613.066406 348.75 " fill-opacity="1" fill-rule="nonzero"/></g></svg>