<svg xmlns="http://www.w3.org/2000/svg" xmlns:xlink="http://www.w3.org/1999/xlink" width="1000" zoomAndPan="magnify" viewBox="0 0 750 749.999995" height="1000" preserveAspectRatio="xMidYMid meet" version="1.0"><rect x="-75" width="900" fill="#ffffff" y="-74.999999" height="899.999994" fill-opacity="1"/><rect x="-75" width="900" fill="#ffffff" y="-74.999999" height="899.999994" fill-opacity="1"/><path fill="#000000" d="M 45.445312 380.65625 C 45.445312 376.769531 45.726562 373.082031 46.289062 369.585938 C 46.851562 366.09375 47.5 363.082031 48.230469 360.546875 C 48.964844 358.011719 50.007812 355.53125 51.359375 353.109375 C 52.710938 350.6875 53.78125 348.800781 54.570312 347.445312 C 55.359375 346.09375 56.542969 344.628906 58.121094 343.050781 C 59.695312 341.476562 60.625 340.515625 60.90625 340.179688 C 61.191406 339.839844 61.894531 339.25 63.019531 338.40625 L 64.457031 338.40625 C 65.246094 338.40625 65.640625 338.660156 65.640625 339.164062 C 65.640625 339.335938 65.160156 339.925781 64.203125 340.941406 C 63.246094 341.953125 62.089844 343.445312 60.738281 345.417969 C 59.386719 347.390625 58.007812 349.8125 56.597656 352.6875 C 55.191406 355.558594 54.007812 359.445312 53.050781 364.347656 C 52.089844 369.25 51.613281 374.6875 51.613281 380.65625 C 51.613281 386.628906 52.089844 392.039062 53.050781 396.882812 C 54.007812 401.726562 55.160156 405.644531 56.515625 408.628906 C 57.867188 411.613281 59.246094 414.039062 60.65625 415.898438 C 62.0625 417.753906 63.246094 419.25 64.203125 420.375 C 65.160156 421.503906 65.640625 422.09375 65.640625 422.148438 C 65.640625 422.65625 65.21875 422.910156 64.371094 422.910156 L 63.019531 422.910156 L 60.65625 420.882812 C 55.359375 416.09375 51.5 410.121094 49.078125 402.96875 C 46.65625 395.8125 45.445312 388.375 45.445312 380.65625 Z M 45.445312 380.65625 " fill-opacity="1" fill-rule="nonzero"/><path fill="#000000" d="M 78.484375 352.347656 C 81.640625 347.785156 85.949219 345.503906 91.414062 345.503906 C 94.117188 345.503906 96.824219 346.234375 99.527344 347.699219 C 102.230469 349.164062 104.429688 351.757812 106.117188 355.476562 C 108.203125 360.152344 109.246094 366.574219 109.246094 374.742188 C 109.246094 383.472656 108.035156 390.152344 105.613281 394.769531 C 104.484375 397.136719 102.9375 399.023438 100.964844 400.433594 C 98.992188 401.839844 97.273438 402.714844 95.808594 403.050781 C 94.34375 403.390625 92.90625 403.585938 91.5 403.644531 C 90.035156 403.644531 88.570312 403.472656 87.105469 403.136719 C 85.640625 402.796875 83.921875 401.898438 81.949219 400.433594 C 79.976562 398.96875 78.429688 397.078125 77.300781 394.769531 C 74.878906 390.152344 73.667969 383.472656 73.667969 374.742188 C 73.667969 364.941406 75.273438 357.476562 78.484375 352.347656 Z M 97.5 351.335938 C 95.808594 349.53125 93.808594 348.628906 91.5 348.628906 C 89.132812 348.628906 87.105469 349.53125 85.414062 351.335938 C 84.007812 352.800781 83.078125 354.828125 82.625 357.417969 C 82.175781 360.011719 81.949219 365.417969 81.949219 373.644531 C 81.949219 382.546875 82.175781 388.402344 82.625 391.222656 C 83.078125 394.039062 84.089844 396.261719 85.667969 397.898438 C 87.246094 399.585938 89.191406 400.433594 91.5 400.433594 C 93.753906 400.433594 95.667969 399.585938 97.246094 397.898438 C 98.878906 396.207031 99.894531 393.839844 100.289062 390.796875 C 100.683594 387.757812 100.90625 382.039062 100.964844 373.644531 C 100.964844 365.476562 100.738281 360.09375 100.289062 357.503906 C 99.835938 354.910156 98.90625 352.855469 97.5 351.335938 Z M 97.5 351.335938 " fill-opacity="1" fill-rule="nonzero"/><path fill="#000000" d="M 119.21875 396.714844 C 119.21875 395.363281 119.695312 394.179688 120.652344 393.164062 C 121.613281 392.152344 122.824219 391.644531 124.289062 391.644531 C 125.640625 391.644531 126.824219 392.09375 127.835938 392.996094 C 128.851562 393.898438 129.386719 395.109375 129.441406 396.628906 C 129.441406 398.039062 128.964844 399.25 128.007812 400.261719 C 127.046875 401.277344 125.835938 401.785156 124.371094 401.785156 C 122.90625 401.785156 121.695312 401.304688 120.738281 400.347656 C 119.78125 399.390625 119.273438 398.179688 119.21875 396.714844 Z M 119.21875 396.714844 " fill-opacity="1" fill-rule="nonzero"/><path fill="#000000" d="M 144.230469 352.347656 C 147.386719 347.785156 151.695312 345.503906 157.160156 345.503906 C 159.863281 345.503906 162.570312 346.234375 165.273438 347.699219 C 167.976562 349.164062 170.175781 351.757812 171.863281 355.476562 C 173.949219 360.152344 174.992188 366.574219 174.992188 374.742188 C 174.992188 383.472656 173.78125 390.152344 171.359375 394.769531 C 170.230469 397.136719 168.679688 399.023438 166.710938 400.433594 C 164.738281 401.839844 163.019531 402.714844 161.554688 403.050781 C 160.089844 403.390625 158.652344 403.585938 157.246094 403.644531 C 155.78125 403.644531 154.316406 403.472656 152.851562 403.136719 C 151.386719 402.796875 149.667969 401.898438 147.695312 400.433594 C 145.722656 398.96875 144.175781 397.078125 143.046875 394.769531 C 140.625 390.152344 139.414062 383.472656 139.414062 374.742188 C 139.414062 364.941406 141.019531 357.476562 144.230469 352.347656 Z M 163.246094 351.335938 C 161.554688 349.53125 159.554688 348.628906 157.246094 348.628906 C 154.878906 348.628906 152.851562 349.53125 151.160156 351.335938 C 149.753906 352.800781 148.824219 354.828125 148.371094 357.417969 C 147.921875 360.011719 147.695312 365.417969 147.695312 373.644531 C 147.695312 382.546875 147.921875 388.402344 148.371094 391.222656 C 148.824219 394.039062 149.835938 396.261719 151.414062 397.898438 C 152.992188 399.585938 154.933594 400.433594 157.246094 400.433594 C 159.5 400.433594 161.414062 399.585938 162.992188 397.898438 C 164.625 396.207031 165.640625 393.839844 166.035156 390.796875 C 166.429688 387.757812 166.652344 382.039062 166.710938 373.644531 C 166.710938 365.476562 166.484375 360.09375 166.035156 357.503906 C 165.582031 354.910156 164.652344 352.855469 163.246094 351.335938 Z M 163.246094 351.335938 " fill-opacity="1" fill-rule="nonzero"/><path fill="#000000" d="M 189.105469 362.65625 C 187.582031 362.65625 186.398438 362.179688 185.554688 361.222656 C 184.710938 360.261719 184.257812 359.023438 184.203125 357.503906 C 184.203125 354.40625 185.554688 351.644531 188.257812 349.222656 C 190.960938 346.800781 194.230469 345.585938 198.0625 345.585938 C 200.03125 345.585938 201.273438 345.617188 201.78125 345.671875 C 205.949219 346.347656 209.132812 347.839844 211.328125 350.152344 C 213.527344 352.460938 214.652344 354.96875 214.710938 357.671875 C 214.710938 360.601562 213.75 363.445312 211.835938 366.207031 C 209.921875 368.96875 207.273438 370.96875 203.890625 372.207031 L 203.640625 372.375 C 203.640625 372.433594 203.890625 372.515625 204.398438 372.628906 C 204.90625 372.742188 205.722656 372.996094 206.851562 373.390625 C 207.976562 373.785156 209.046875 374.375 210.0625 375.164062 C 214.679688 378.152344 216.992188 382.09375 216.992188 386.996094 C 216.992188 391.445312 215.246094 395.332031 211.75 398.65625 C 208.257812 401.980469 203.835938 403.644531 198.484375 403.644531 C 193.976562 403.644531 190.089844 402.433594 186.820312 400.007812 C 183.554688 397.585938 181.921875 394.515625 181.921875 390.796875 C 181.921875 389.222656 182.429688 387.953125 183.441406 386.996094 C 184.457031 386.039062 185.722656 385.53125 187.246094 385.472656 C 188.820312 385.472656 190.117188 385.980469 191.132812 386.996094 C 192.144531 388.007812 192.652344 389.277344 192.652344 390.796875 C 192.652344 391.417969 192.570312 391.980469 192.398438 392.488281 C 192.230469 392.996094 192.035156 393.445312 191.808594 393.839844 C 191.582031 394.234375 191.273438 394.574219 190.878906 394.855469 C 190.484375 395.136719 190.144531 395.363281 189.863281 395.53125 C 189.582031 395.699219 189.300781 395.8125 189.019531 395.867188 C 188.738281 395.925781 188.511719 396.007812 188.34375 396.121094 L 188.003906 396.207031 C 190.878906 398.742188 194.371094 400.007812 198.484375 400.007812 C 201.582031 400.007812 203.921875 398.515625 205.496094 395.53125 C 206.457031 393.671875 206.933594 390.828125 206.933594 386.996094 L 206.933594 385.304688 C 206.933594 379.953125 205.132812 376.375 201.527344 374.574219 C 200.679688 374.234375 198.960938 374.039062 196.371094 373.980469 L 192.820312 373.898438 L 192.570312 373.726562 C 192.457031 373.558594 192.398438 373.109375 192.398438 372.375 C 192.398438 371.363281 192.625 370.855469 193.074219 370.855469 C 194.652344 370.855469 196.285156 370.714844 197.976562 370.433594 C 199.890625 370.152344 201.640625 368.96875 203.214844 366.882812 C 204.792969 364.796875 205.582031 361.644531 205.582031 357.417969 L 205.582031 356.742188 C 205.582031 353.53125 204.597656 351.304688 202.625 350.066406 C 201.386719 349.277344 200.0625 348.882812 198.652344 348.882812 C 196.851562 348.882812 195.1875 349.191406 193.667969 349.8125 C 192.144531 350.433594 191.074219 351.082031 190.457031 351.757812 C 189.835938 352.433594 189.527344 352.769531 189.527344 352.769531 L 189.78125 352.769531 C 189.949219 352.828125 190.175781 352.882812 190.457031 352.941406 C 190.738281 352.996094 191.019531 353.136719 191.300781 353.363281 C 191.582031 353.585938 191.921875 353.785156 192.316406 353.953125 C 192.710938 354.121094 192.992188 354.433594 193.160156 354.882812 C 193.328125 355.335938 193.554688 355.757812 193.835938 356.152344 C 194.117188 356.546875 194.203125 357.109375 194.089844 357.839844 C 194.089844 359.082031 193.695312 360.179688 192.90625 361.136719 C 192.117188 362.09375 190.851562 362.601562 189.105469 362.65625 Z M 189.105469 362.65625 " fill-opacity="1" fill-rule="nonzero"/><path fill="#000000" d="M 250.371094 377.53125 C 247.667969 381.8125 244.285156 383.953125 240.230469 383.953125 C 235.835938 383.953125 232.230469 382.292969 229.414062 378.96875 C 226.597656 375.644531 224.90625 372.09375 224.34375 368.320312 C 224.230469 367.417969 224.171875 366.292969 224.171875 364.941406 L 224.171875 364.261719 C 224.171875 359.023438 226.117188 354.460938 230.003906 350.574219 C 233.386719 347.191406 237.101562 345.503906 241.160156 345.503906 C 241.273438 345.503906 241.441406 345.503906 241.667969 345.503906 C 241.890625 345.503906 242.117188 345.53125 242.34375 345.585938 L 242.679688 345.585938 C 243.355469 345.585938 244.0625 345.644531 244.792969 345.757812 C 245.527344 345.871094 246.566406 346.207031 247.917969 346.769531 C 249.273438 347.335938 250.597656 348.234375 251.890625 349.476562 C 253.1875 350.714844 254.398438 352.375 255.527344 354.460938 C 257.949219 359.417969 259.160156 365.785156 259.160156 373.558594 C 259.160156 381.445312 257.46875 388.121094 254.089844 393.585938 C 252.117188 396.742188 249.75 399.191406 246.992188 400.9375 C 244.230469 402.6875 241.300781 403.585938 238.203125 403.644531 C 234.765625 403.644531 231.949219 402.828125 229.75 401.191406 C 227.554688 399.558594 226.425781 397.136719 226.371094 393.925781 C 226.316406 390.714844 227.808594 389.136719 230.851562 389.191406 C 232.089844 389.191406 233.132812 389.585938 233.976562 390.375 C 234.820312 391.164062 235.242188 392.261719 235.242188 393.671875 C 235.242188 394.6875 234.992188 395.558594 234.484375 396.292969 C 233.976562 397.023438 233.527344 397.472656 233.132812 397.644531 C 232.738281 397.8125 232.371094 397.953125 232.03125 398.066406 L 231.695312 398.152344 C 231.695312 398.261719 231.890625 398.433594 232.285156 398.65625 C 232.679688 398.882812 233.414062 399.164062 234.484375 399.503906 C 235.554688 399.839844 236.738281 399.980469 238.03125 399.925781 L 238.539062 399.925781 C 241.921875 399.925781 244.765625 398.121094 247.074219 394.515625 C 249.273438 391.363281 250.371094 385.898438 250.371094 378.121094 Z M 241.242188 380.828125 C 243.949219 380.828125 246.117188 379.445312 247.75 376.6875 C 249.382812 373.925781 250.230469 370.179688 250.285156 365.445312 C 250.285156 361.050781 250.0625 357.898438 249.609375 355.980469 C 249.496094 355.417969 249.328125 354.855469 249.101562 354.292969 C 248.878906 353.726562 248.484375 352.996094 247.917969 352.09375 C 247.355469 351.191406 246.511719 350.433594 245.382812 349.8125 C 244.257812 349.191406 242.933594 348.910156 241.414062 348.96875 C 239.273438 348.96875 237.441406 349.726562 235.921875 351.25 C 234.738281 352.488281 233.976562 353.953125 233.636719 355.644531 C 233.300781 357.335938 233.101562 360.292969 233.046875 364.515625 C 233.046875 369.191406 233.1875 372.347656 233.46875 373.980469 C 233.75 375.617188 234.3125 376.9375 235.160156 377.953125 C 236.566406 379.867188 238.597656 380.828125 241.242188 380.828125 Z M 241.242188 380.828125 " fill-opacity="1" fill-rule="nonzero"/><path fill="#000000" d="M 334.894531 399.332031 C 334.894531 400.460938 334.300781 401.023438 333.117188 401.023438 C 332.835938 401.023438 332.21875 400.574219 331.257812 399.671875 C 330.300781 398.769531 327.652344 396.152344 323.316406 391.8125 L 314.527344 383.023438 L 305.65625 391.898438 C 299.683594 397.757812 296.613281 400.742188 296.441406 400.855469 C 296.21875 400.96875 296.019531 401.023438 295.851562 401.023438 C 295.402344 401.023438 295.007812 400.855469 294.667969 400.515625 C 294.332031 400.179688 294.132812 399.785156 294.078125 399.332031 C 294.078125 398.9375 294.472656 398.320312 295.261719 397.472656 C 296.050781 396.628906 298.695312 393.953125 303.203125 389.445312 L 311.992188 380.65625 L 303.203125 371.867188 C 298.640625 367.304688 295.992188 364.628906 295.261719 363.839844 C 294.527344 363.050781 294.132812 362.433594 294.078125 361.980469 C 294.078125 361.476562 294.246094 361.082031 294.585938 360.796875 C 294.921875 360.515625 295.34375 360.375 295.851562 360.375 C 296.132812 360.375 296.332031 360.40625 296.441406 360.460938 C 296.613281 360.574219 299.683594 363.558594 305.65625 369.417969 L 314.527344 378.292969 L 323.316406 369.503906 C 327.652344 365.164062 330.300781 362.546875 331.257812 361.644531 C 332.21875 360.742188 332.835938 360.292969 333.117188 360.292969 C 334.300781 360.292969 334.894531 360.855469 334.894531 361.980469 C 334.894531 362.375 334.613281 362.882812 334.046875 363.503906 C 333.484375 364.121094 330.722656 366.882812 325.765625 371.785156 L 316.976562 380.65625 L 325.765625 389.53125 C 330.5 394.261719 333.203125 396.996094 333.878906 397.726562 C 334.554688 398.460938 334.894531 398.996094 334.894531 399.332031 Z M 334.894531 399.332031 " fill-opacity="1" fill-rule="nonzero"/><path fill="#000000" d="M 384.175781 352.941406 L 383.078125 353.363281 C 382.289062 353.644531 381.164062 353.925781 379.699219 354.207031 C 378.234375 354.488281 376.601562 354.6875 374.796875 354.800781 L 373.191406 354.800781 L 373.191406 350.910156 L 374.796875 350.910156 C 377.445312 350.800781 379.894531 350.375 382.148438 349.644531 C 384.402344 348.910156 385.980469 348.234375 386.882812 347.617188 C 387.78125 346.996094 388.570312 346.375 389.246094 345.757812 C 389.359375 345.585938 389.699219 345.503906 390.261719 345.503906 C 390.769531 345.503906 391.246094 345.671875 391.699219 346.011719 L 391.699219 371.277344 L 391.78125 396.628906 C 392.175781 397.023438 392.515625 397.277344 392.796875 397.390625 C 393.078125 397.503906 393.753906 397.613281 394.824219 397.726562 C 395.894531 397.839844 397.640625 397.898438 400.0625 397.898438 L 402.261719 397.898438 L 402.261719 401.785156 L 401.332031 401.785156 C 400.148438 401.613281 395.671875 401.53125 387.894531 401.53125 C 380.234375 401.53125 375.8125 401.613281 374.628906 401.785156 L 373.613281 401.785156 L 373.613281 397.898438 L 375.8125 397.898438 C 377.050781 397.898438 378.121094 397.898438 379.023438 397.898438 C 379.925781 397.898438 380.628906 397.867188 381.136719 397.8125 C 381.640625 397.757812 382.09375 397.671875 382.488281 397.558594 C 382.882812 397.445312 383.105469 397.390625 383.164062 397.390625 C 383.21875 397.390625 383.386719 397.25 383.671875 396.96875 C 383.953125 396.6875 384.121094 396.574219 384.175781 396.628906 Z M 384.175781 352.941406 " fill-opacity="1" fill-rule="nonzero"/><path fill="#000000" d="M 416.542969 352.347656 C 419.699219 347.785156 424.007812 345.503906 429.472656 345.503906 C 432.175781 345.503906 434.882812 346.234375 437.585938 347.699219 C 440.289062 349.164062 442.488281 351.757812 444.175781 355.476562 C 446.261719 360.152344 447.304688 366.574219 447.304688 374.742188 C 447.304688 383.472656 446.09375 390.152344 443.667969 394.769531 C 442.542969 397.136719 440.992188 399.023438 439.023438 400.433594 C 437.050781 401.839844 435.332031 402.714844 433.867188 403.050781 C 432.402344 403.390625 430.964844 403.585938 429.558594 403.644531 C 428.09375 403.644531 426.628906 403.472656 425.164062 403.136719 C 423.699219 402.796875 421.980469 401.898438 420.007812 400.433594 C 418.035156 398.96875 416.488281 397.078125 415.359375 394.769531 C 412.9375 390.152344 411.726562 383.472656 411.726562 374.742188 C 411.726562 364.941406 413.332031 357.476562 416.542969 352.347656 Z M 435.558594 351.335938 C 433.867188 349.53125 431.867188 348.628906 429.558594 348.628906 C 427.191406 348.628906 425.164062 349.53125 423.472656 351.335938 C 422.0625 352.800781 421.132812 354.828125 420.683594 357.417969 C 420.234375 360.011719 420.007812 365.417969 420.007812 373.644531 C 420.007812 382.546875 420.234375 388.402344 420.683594 391.222656 C 421.132812 394.039062 422.148438 396.261719 423.726562 397.898438 C 425.304688 399.585938 427.246094 400.433594 429.558594 400.433594 C 431.808594 400.433594 433.726562 399.585938 435.304688 397.898438 C 436.9375 396.207031 437.953125 393.839844 438.34375 390.796875 C 438.738281 387.757812 438.964844 382.039062 439.023438 373.644531 C 439.023438 365.476562 438.796875 360.09375 438.34375 357.503906 C 437.894531 354.910156 436.964844 352.855469 435.558594 351.335938 Z M 435.558594 351.335938 " fill-opacity="1" fill-rule="nonzero"/><path fill="#000000" d="M 458.492188 352.722656 C 458.492188 352.722656 458.492188 352.464844 458.492188 351.945312 C 458.492188 351.429688 458.769531 351.03125 459.328125 350.75 L 494.039062 350.75 C 494.636719 351.070312 494.9375 351.46875 494.9375 351.945312 C 494.9375 352.425781 494.636719 352.824219 494.039062 353.140625 L 459.328125 353.140625 C 458.769531 352.863281 458.492188 352.464844 458.492188 351.945312 Z M 458.492188 352.722656 " fill-opacity="1" fill-rule="nonzero"/><path fill="#000000" d="M 506.464844 341.253906 C 505.390625 341.253906 504.535156 340.894531 503.898438 340.175781 C 503.261719 339.460938 502.941406 338.582031 502.941406 337.546875 C 502.941406 334.71875 503.996094 332.269531 506.109375 330.199219 C 508.21875 328.128906 510.847656 327.09375 513.996094 327.09375 C 517.621094 327.09375 520.644531 328.207031 523.074219 330.4375 C 525.503906 332.667969 526.742188 335.554688 526.78125 339.101562 C 526.78125 340.8125 526.382812 342.445312 525.585938 344 C 524.789062 345.554688 523.832031 346.910156 522.71875 348.0625 C 521.601562 349.21875 520.007812 350.691406 517.9375 352.484375 C 516.503906 353.71875 514.511719 355.550781 511.964844 357.980469 L 508.4375 361.328125 L 512.980469 361.386719 C 519.230469 361.386719 522.558594 361.285156 522.957031 361.085938 C 523.234375 361.007812 523.714844 359.234375 524.390625 355.769531 L 524.390625 355.589844 L 526.78125 355.589844 L 526.78125 355.769531 C 526.742188 355.890625 526.480469 357.703125 526.003906 361.207031 C 525.527344 364.710938 525.226562 366.542969 525.105469 366.703125 L 525.105469 366.882812 L 502.941406 366.882812 L 502.941406 365.03125 C 502.941406 364.753906 503.0625 364.453125 503.300781 364.136719 C 503.539062 363.816406 504.136719 363.121094 505.09375 362.042969 C 506.246094 360.769531 507.242188 359.652344 508.078125 358.699219 C 508.4375 358.300781 509.117188 357.5625 510.109375 356.488281 C 511.105469 355.410156 511.785156 354.675781 512.140625 354.277344 C 512.5 353.878906 513.078125 353.222656 513.875 352.304688 C 514.671875 351.390625 515.230469 350.710938 515.546875 350.273438 C 515.867188 349.835938 516.324219 349.238281 516.921875 348.480469 C 517.519531 347.726562 517.9375 347.085938 518.175781 346.570312 C 518.414062 346.050781 518.714844 345.472656 519.074219 344.835938 C 519.429688 344.199219 519.691406 343.5625 519.851562 342.925781 C 520.007812 342.289062 520.148438 341.691406 520.269531 341.132812 C 520.386719 340.574219 520.445312 339.917969 520.445312 339.160156 C 520.445312 336.652344 519.769531 334.480469 518.414062 332.648438 C 517.0625 330.816406 515.128906 329.902344 512.621094 329.902344 C 511.304688 329.902344 510.152344 330.238281 509.15625 330.917969 C 508.160156 331.59375 507.460938 332.25 507.0625 332.886719 C 506.664062 333.523438 506.464844 333.902344 506.464844 334.023438 C 506.464844 334.0625 506.566406 334.082031 506.765625 334.082031 C 507.480469 334.082031 508.21875 334.363281 508.976562 334.917969 C 509.734375 335.476562 510.109375 336.394531 510.109375 337.667969 C 510.109375 338.664062 509.792969 339.5 509.15625 340.175781 C 508.519531 340.855469 507.621094 341.210938 506.464844 341.253906 Z M 506.464844 341.253906 " fill-opacity="1" fill-rule="nonzero"/><path fill="#000000" d="M 539.136719 338.488281 L 539.472656 338.40625 C 539.753906 338.40625 540.039062 338.40625 540.320312 338.40625 L 541.332031 338.40625 L 543.699219 340.433594 C 548.996094 345.222656 552.855469 351.191406 555.277344 358.347656 C 557.699219 365.503906 558.910156 372.941406 558.910156 380.65625 C 558.910156 384.488281 558.628906 388.179688 558.066406 391.726562 C 557.5 395.277344 556.855469 398.292969 556.121094 400.769531 C 555.390625 403.25 554.347656 405.726562 552.996094 408.207031 C 551.644531 410.683594 550.574219 412.574219 549.785156 413.867188 C 548.996094 415.164062 547.839844 416.601562 546.320312 418.179688 C 544.796875 419.753906 543.894531 420.683594 543.613281 420.96875 C 543.332031 421.25 542.683594 421.785156 541.671875 422.574219 C 541.503906 422.742188 541.390625 422.855469 541.332031 422.910156 L 540.320312 422.910156 C 539.867188 422.910156 539.558594 422.910156 539.390625 422.910156 C 539.21875 422.910156 539.078125 422.824219 538.96875 422.65625 C 538.855469 422.488281 538.769531 422.234375 538.714844 421.898438 C 538.769531 421.839844 539.078125 421.472656 539.644531 420.796875 C 548.375 411.726562 552.742188 398.347656 552.742188 380.65625 C 552.742188 362.96875 548.375 349.585938 539.644531 340.515625 C 539.078125 339.839844 538.769531 339.476562 538.714844 339.417969 C 538.714844 338.96875 538.855469 338.660156 539.136719 338.488281 Z M 539.136719 338.488281 " fill-opacity="1" fill-rule="nonzero"/><path fill="#000000" d="M 638.953125 399.332031 C 638.953125 400.460938 638.363281 401.023438 637.179688 401.023438 C 636.898438 401.023438 636.277344 400.574219 635.320312 399.671875 C 634.363281 398.769531 631.714844 396.152344 627.378906 391.8125 L 618.589844 383.023438 L 609.714844 391.898438 C 603.742188 397.757812 600.671875 400.742188 600.503906 400.855469 C 600.277344 400.96875 600.082031 401.023438 599.914062 401.023438 C 599.460938 401.023438 599.066406 400.855469 598.730469 400.515625 C 598.390625 400.179688 598.195312 399.785156 598.136719 399.332031 C 598.136719 398.9375 598.53125 398.320312 599.320312 397.472656 C 600.109375 396.628906 602.757812 393.953125 607.265625 389.445312 L 616.054688 380.65625 L 607.265625 371.867188 C 602.703125 367.304688 600.054688 364.628906 599.320312 363.839844 C 598.589844 363.050781 598.195312 362.433594 598.136719 361.980469 C 598.136719 361.476562 598.308594 361.082031 598.644531 360.796875 C 598.984375 360.515625 599.40625 360.375 599.914062 360.375 C 600.195312 360.375 600.390625 360.40625 600.503906 360.460938 C 600.671875 360.574219 603.742188 363.558594 609.714844 369.417969 L 618.589844 378.292969 L 627.378906 369.503906 C 631.714844 365.164062 634.363281 362.546875 635.320312 361.644531 C 636.277344 360.742188 636.898438 360.292969 637.179688 360.292969 C 638.363281 360.292969 638.953125 360.855469 638.953125 361.980469 C 638.953125 362.375 638.671875 362.882812 638.109375 363.503906 C 637.546875 364.121094 634.785156 366.882812 629.828125 371.785156 L 621.039062 380.65625 L 629.828125 389.53125 C 634.558594 394.261719 637.265625 396.996094 637.941406 397.726562 C 638.617188 398.460938 638.953125 398.996094 638.953125 399.332031 Z M 638.953125 399.332031 " fill-opacity="1" fill-rule="nonzero"/><path fill="#000000" d="M 673.796875 375.332031 C 673.796875 366.152344 676.078125 358.882812 680.640625 353.53125 C 685.203125 348.179688 690.273438 345.503906 695.851562 345.503906 C 699.738281 345.503906 702.527344 346.515625 704.21875 348.546875 C 705.910156 350.574219 706.753906 352.828125 706.753906 355.304688 C 706.753906 356.714844 706.359375 357.839844 705.570312 358.6875 C 704.78125 359.53125 703.683594 359.953125 702.273438 359.953125 C 700.980469 359.953125 699.910156 359.558594 699.0625 358.769531 C 698.21875 357.980469 697.796875 356.882812 697.796875 355.476562 C 697.796875 352.996094 699.121094 351.503906 701.769531 350.996094 C 700.527344 349.757812 698.78125 349.050781 696.527344 348.882812 C 692.527344 348.882812 689.234375 350.574219 686.640625 353.953125 C 683.992188 357.671875 682.667969 363.363281 682.667969 371.023438 L 682.753906 371.363281 C 683.035156 371.023438 683.261719 370.65625 683.429688 370.261719 C 685.738281 366.882812 688.753906 365.191406 692.472656 365.191406 L 692.808594 365.191406 C 695.402344 365.191406 697.683594 365.726562 699.65625 366.796875 C 701.007812 367.585938 702.359375 368.714844 703.710938 370.179688 C 705.0625 371.644531 706.160156 373.25 707.007812 374.996094 C 708.191406 377.757812 708.78125 380.769531 708.78125 384.039062 L 708.78125 385.558594 C 708.78125 386.855469 708.640625 388.066406 708.359375 389.191406 C 707.738281 392.515625 705.9375 395.757812 702.949219 398.910156 C 699.964844 402.066406 696.191406 403.644531 691.628906 403.644531 C 690.050781 403.644531 688.527344 403.417969 687.0625 402.96875 C 685.597656 402.515625 684.019531 401.671875 682.332031 400.433594 C 680.640625 399.191406 679.203125 397.53125 678.023438 395.445312 C 676.839844 393.363281 675.824219 390.628906 674.980469 387.25 C 674.132812 383.867188 673.738281 379.898438 673.796875 375.332031 Z M 691.964844 368.234375 C 690.273438 368.234375 688.808594 368.714844 687.570312 369.671875 C 686.332031 370.628906 685.375 371.898438 684.699219 373.476562 C 684.019531 375.050781 683.542969 376.65625 683.261719 378.292969 C 682.980469 379.925781 682.808594 381.671875 682.753906 383.53125 C 682.753906 388.207031 683.09375 391.558594 683.769531 393.585938 C 684.445312 395.613281 685.515625 397.25 686.980469 398.488281 C 688.332031 399.503906 689.824219 400.007812 691.457031 400.007812 C 694.332031 400.007812 696.527344 398.9375 698.050781 396.796875 C 698.78125 395.785156 699.289062 394.515625 699.570312 392.996094 C 699.851562 391.472656 699.992188 388.515625 699.992188 384.121094 C 699.992188 379.617188 699.851562 376.601562 699.570312 375.082031 C 699.289062 373.558594 698.78125 372.292969 698.050781 371.277344 C 696.527344 369.25 694.5 368.234375 691.964844 368.234375 Z M 691.964844 368.234375 " fill-opacity="1" fill-rule="nonzero"/></svg>