<svg xmlns="http://www.w3.org/2000/svg" xmlns:xlink="http://www.w3.org/1999/xlink" width="1000" zoomAndPan="magnify" viewBox="0 0 750 749.999995" height="1000" preserveAspectRatio="xMidYMid meet" version="1.0"><rect x="-75" width="900" fill="#ffffff" y="-74.999999" height="899.999994" fill-opacity="1"/><rect x="-75" width="900" fill="#ffffff" y="-74.999999" height="899.999994" fill-opacity="1"/><path fill="#000000" d="M 45.445312 380.628906 C 45.445312 376.742188 45.726562 373.050781 46.289062 369.558594 C 46.851562 366.066406 47.5 363.050781 48.230469 360.515625 C 48.964844 357.980469 50.007812 355.5 51.359375 353.078125 C 52.710938 350.65625 53.78125 348.769531 54.570312 347.417969 C 55.359375 346.066406 56.542969 344.601562 58.121094 343.023438 C 59.695312 341.445312 60.625 340.488281 60.90625 340.148438 C 61.191406 339.8125 61.894531 339.21875 63.019531 338.375 L 64.457031 338.375 C 65.246094 338.375 65.640625 338.628906 65.640625 339.136719 C 65.640625 339.304688 65.160156 339.894531 64.203125 340.910156 C 63.246094 341.925781 62.089844 343.417969 60.738281 345.390625 C 59.386719 347.359375 58.007812 349.785156 56.597656 352.65625 C 55.191406 355.53125 54.007812 359.417969 53.050781 364.320312 C 52.089844 369.21875 51.613281 374.65625 51.613281 380.628906 C 51.613281 386.601562 52.089844 392.007812 53.050781 396.851562 C 54.007812 401.699219 55.160156 405.613281 56.515625 408.597656 C 57.867188 411.585938 59.246094 414.007812 60.65625 415.867188 C 62.0625 417.726562 63.246094 419.21875 64.203125 420.347656 C 65.160156 421.472656 65.640625 422.0625 65.640625 422.121094 C 65.640625 422.628906 65.21875 422.882812 64.371094 422.882812 L 63.019531 422.882812 L 60.65625 420.851562 C 55.359375 416.0625 51.5 410.09375 49.078125 402.9375 C 46.65625 395.78125 45.445312 388.347656 45.445312 380.628906 Z M 45.445312 380.628906 " fill-opacity="1" fill-rule="nonzero"/><path fill="#000000" d="M 78.484375 352.320312 C 81.640625 347.753906 85.949219 345.472656 91.414062 345.472656 C 94.117188 345.472656 96.824219 346.207031 99.527344 347.671875 C 102.230469 349.136719 104.429688 351.726562 106.117188 355.445312 C 108.203125 360.121094 109.246094 366.542969 109.246094 374.710938 C 109.246094 383.445312 108.035156 390.121094 105.613281 394.742188 C 104.484375 397.105469 102.9375 398.992188 100.964844 400.402344 C 98.992188 401.8125 97.273438 402.683594 95.808594 403.023438 C 94.34375 403.359375 92.90625 403.558594 91.5 403.613281 C 90.035156 403.613281 88.570312 403.445312 87.105469 403.105469 C 85.640625 402.769531 83.921875 401.867188 81.949219 400.402344 C 79.976562 398.9375 78.429688 397.050781 77.300781 394.742188 C 74.878906 390.121094 73.667969 383.445312 73.667969 374.710938 C 73.667969 364.910156 75.273438 357.445312 78.484375 352.320312 Z M 97.5 351.304688 C 95.808594 349.5 93.808594 348.601562 91.5 348.601562 C 89.132812 348.601562 87.105469 349.5 85.414062 351.304688 C 84.007812 352.769531 83.078125 354.796875 82.625 357.390625 C 82.175781 359.980469 81.949219 365.390625 81.949219 373.613281 C 81.949219 382.515625 82.175781 388.375 82.625 391.191406 C 83.078125 394.007812 84.089844 396.234375 85.667969 397.867188 C 87.246094 399.558594 89.191406 400.402344 91.5 400.402344 C 93.753906 400.402344 95.667969 399.558594 97.246094 397.867188 C 98.878906 396.175781 99.894531 393.8125 100.289062 390.769531 C 100.683594 387.726562 100.90625 382.007812 100.964844 373.613281 C 100.964844 365.445312 100.738281 360.066406 100.289062 357.472656 C 99.835938 354.882812 98.90625 352.824219 97.5 351.304688 Z M 97.5 351.304688 " fill-opacity="1" fill-rule="nonzero"/><path fill="#000000" d="M 119.21875 396.683594 C 119.21875 395.332031 119.695312 394.148438 120.652344 393.136719 C 121.613281 392.121094 122.824219 391.613281 124.289062 391.613281 C 125.640625 391.613281 126.824219 392.066406 127.835938 392.964844 C 128.851562 393.867188 129.386719 395.078125 129.441406 396.601562 C 129.441406 398.007812 128.964844 399.21875 128.007812 400.234375 C 127.046875 401.246094 125.835938 401.753906 124.371094 401.753906 C 122.90625 401.753906 121.695312 401.277344 120.738281 400.316406 C 119.78125 399.359375 119.273438 398.148438 119.21875 396.683594 Z M 119.21875 396.683594 " fill-opacity="1" fill-rule="nonzero"/><path fill="#000000" d="M 154.117188 352.910156 L 153.019531 353.332031 C 152.230469 353.613281 151.105469 353.894531 149.640625 354.179688 C 148.175781 354.460938 146.539062 354.65625 144.738281 354.769531 L 143.132812 354.769531 L 143.132812 350.882812 L 144.738281 350.882812 C 147.386719 350.769531 149.835938 350.347656 152.089844 349.613281 C 154.34375 348.882812 155.921875 348.207031 156.824219 347.585938 C 157.722656 346.964844 158.511719 346.347656 159.1875 345.726562 C 159.300781 345.558594 159.640625 345.472656 160.203125 345.472656 C 160.710938 345.472656 161.1875 345.644531 161.640625 345.980469 L 161.640625 371.246094 L 161.722656 396.601562 C 162.117188 396.992188 162.457031 397.246094 162.738281 397.359375 C 163.019531 397.472656 163.695312 397.585938 164.765625 397.699219 C 165.835938 397.8125 167.582031 397.867188 170.003906 397.867188 L 172.203125 397.867188 L 172.203125 401.753906 L 171.273438 401.753906 C 170.089844 401.585938 165.609375 401.5 157.835938 401.5 C 150.175781 401.5 145.753906 401.585938 144.570312 401.753906 L 143.554688 401.753906 L 143.554688 397.867188 L 145.753906 397.867188 C 146.992188 397.867188 148.0625 397.867188 148.964844 397.867188 C 149.863281 397.867188 150.570312 397.839844 151.074219 397.78125 C 151.582031 397.726562 152.035156 397.640625 152.429688 397.53125 C 152.824219 397.417969 153.046875 397.359375 153.105469 397.359375 C 153.160156 397.359375 153.328125 397.21875 153.609375 396.9375 C 153.894531 396.65625 154.0625 396.542969 154.117188 396.601562 Z M 154.117188 352.910156 " fill-opacity="1" fill-rule="nonzero"/><path fill="#000000" d="M 184.285156 366.515625 C 184.285156 366.515625 184.285156 364.347656 184.285156 360.007812 C 184.285156 355.671875 185.808594 352.179688 188.851562 349.53125 C 191.890625 346.882812 195.386719 345.53125 199.328125 345.472656 C 203.328125 345.472656 206.878906 346.65625 209.976562 349.023438 C 213.074219 351.390625 214.625 354.460938 214.625 358.234375 C 214.625 359.925781 214.316406 361.5 213.695312 362.964844 C 213.074219 364.429688 212.34375 365.613281 211.496094 366.515625 C 210.652344 367.417969 209.78125 368.207031 208.878906 368.882812 C 207.976562 369.558594 207.246094 370.066406 206.679688 370.402344 C 206.117188 370.742188 205.808594 370.964844 205.75 371.078125 L 206.933594 371.839844 C 207.722656 372.402344 208.511719 372.964844 209.300781 373.53125 C 210.089844 374.09375 210.539062 374.402344 210.652344 374.460938 C 214.878906 377.78125 216.992188 381.980469 216.992188 387.050781 C 216.992188 391.5 215.355469 395.359375 212.089844 398.628906 C 208.820312 401.894531 204.597656 403.558594 199.414062 403.613281 C 194.34375 403.613281 190.175781 402.175781 186.90625 399.304688 C 183.640625 396.429688 182.003906 392.882812 182.003906 388.65625 C 182.003906 382.570312 185.640625 377.5 192.90625 373.445312 L 191.386719 372.347656 C 190.203125 371.613281 189.441406 371.050781 189.105469 370.65625 C 185.890625 367.894531 184.285156 364.347656 184.285156 360.007812 Z M 202.539062 369.136719 L 203.046875 368.796875 C 203.386719 368.570312 203.640625 368.402344 203.808594 368.289062 C 203.976562 368.175781 204.257812 367.980469 204.652344 367.699219 C 205.046875 367.417969 205.386719 367.136719 205.667969 366.855469 C 205.949219 366.570312 206.257812 366.234375 206.597656 365.839844 C 206.933594 365.445312 207.246094 365.078125 207.527344 364.742188 C 207.808594 364.402344 208.089844 363.953125 208.371094 363.390625 C 208.652344 362.824219 208.90625 362.347656 209.132812 361.953125 C 209.355469 361.558594 209.496094 360.996094 209.554688 360.261719 C 209.609375 359.53125 209.667969 358.910156 209.722656 358.402344 C 209.722656 355.980469 208.90625 353.925781 207.273438 352.234375 C 205.640625 350.542969 203.75 349.472656 201.609375 349.023438 C 201.214844 348.964844 200.285156 348.9375 198.820312 348.9375 C 196.511719 348.9375 194.34375 349.671875 192.316406 351.136719 C 190.285156 352.601562 189.246094 354.429688 189.1875 356.628906 C 189.1875 357.925781 189.554688 359.105469 190.285156 360.175781 C 191.019531 361.25 191.75 362.066406 192.484375 362.628906 C 193.214844 363.191406 194.625 364.09375 196.710938 365.332031 C 197.105469 365.613281 197.414062 365.8125 197.640625 365.925781 Z M 199.496094 399.980469 C 202.765625 399.980469 205.582031 399.023438 207.949219 397.105469 C 210.316406 395.191406 211.496094 392.882812 211.496094 390.175781 C 211.496094 389.21875 211.355469 388.316406 211.074219 387.472656 C 210.792969 386.628906 210.457031 385.921875 210.0625 385.359375 C 209.667969 384.796875 209.046875 384.175781 208.203125 383.5 C 207.355469 382.824219 206.710938 382.316406 206.257812 381.980469 C 205.808594 381.640625 204.992188 381.105469 203.808594 380.375 C 202.625 379.640625 201.863281 379.164062 201.527344 378.9375 C 200.738281 378.429688 199.890625 377.894531 198.992188 377.332031 C 198.089844 376.769531 197.355469 376.289062 196.792969 375.894531 L 196.117188 375.472656 C 195.78125 375.472656 194.960938 375.953125 193.667969 376.910156 C 192.371094 377.867188 191.019531 379.417969 189.609375 381.558594 C 188.203125 383.699219 187.46875 386.007812 187.414062 388.488281 C 187.414062 391.8125 188.625 394.542969 191.046875 396.683594 C 193.46875 398.824219 196.285156 399.921875 199.496094 399.980469 Z M 199.496094 399.980469 " fill-opacity="1" fill-rule="nonzero"/><path fill="#000000" d="M 292.640625 399.304688 C 292.640625 400.429688 292.050781 400.992188 290.867188 400.992188 C 290.585938 400.992188 289.964844 400.542969 289.007812 399.640625 C 288.050781 398.742188 285.402344 396.121094 281.0625 391.78125 L 272.273438 382.996094 L 263.402344 391.867188 C 257.429688 397.726562 254.359375 400.710938 254.191406 400.824219 C 253.964844 400.9375 253.769531 400.992188 253.597656 400.992188 C 253.148438 400.992188 252.753906 400.824219 252.414062 400.488281 C 252.078125 400.148438 251.878906 399.753906 251.824219 399.304688 C 251.824219 398.910156 252.21875 398.289062 253.007812 397.445312 C 253.796875 396.601562 256.445312 393.921875 260.949219 389.417969 L 269.738281 380.628906 L 260.949219 371.839844 C 256.386719 367.277344 253.738281 364.601562 253.007812 363.8125 C 252.273438 363.023438 251.878906 362.402344 251.824219 361.953125 C 251.824219 361.445312 251.992188 361.050781 252.332031 360.769531 C 252.667969 360.488281 253.089844 360.347656 253.597656 360.347656 C 253.878906 360.347656 254.078125 360.375 254.191406 360.429688 C 254.359375 360.542969 257.429688 363.53125 263.402344 369.390625 L 272.273438 378.261719 L 281.0625 369.472656 C 285.402344 365.136719 288.050781 362.515625 289.007812 361.613281 C 289.964844 360.710938 290.585938 360.261719 290.867188 360.261719 C 292.050781 360.261719 292.640625 360.824219 292.640625 361.953125 C 292.640625 362.347656 292.359375 362.855469 291.796875 363.472656 C 291.230469 364.09375 288.472656 366.855469 283.515625 371.753906 L 274.726562 380.628906 L 283.515625 389.5 C 288.246094 394.234375 290.949219 396.964844 291.625 397.699219 C 292.300781 398.429688 292.640625 398.964844 292.640625 399.304688 Z M 292.640625 399.304688 " fill-opacity="1" fill-rule="nonzero"/><path fill="#000000" d="M 341.925781 352.910156 L 340.824219 353.332031 C 340.035156 353.613281 338.910156 353.894531 337.445312 354.179688 C 335.980469 354.460938 334.347656 354.65625 332.542969 354.769531 L 330.9375 354.769531 L 330.9375 350.882812 L 332.542969 350.882812 C 335.191406 350.769531 337.644531 350.347656 339.894531 349.613281 C 342.148438 348.882812 343.726562 348.207031 344.628906 347.585938 C 345.53125 346.964844 346.320312 346.347656 346.996094 345.726562 C 347.105469 345.558594 347.445312 345.472656 348.007812 345.472656 C 348.515625 345.472656 348.996094 345.644531 349.445312 345.980469 L 349.445312 371.246094 L 349.53125 396.601562 C 349.925781 396.992188 350.261719 397.246094 350.542969 397.359375 C 350.824219 397.472656 351.5 397.585938 352.570312 397.699219 C 353.640625 397.8125 355.390625 397.867188 357.8125 397.867188 L 360.007812 397.867188 L 360.007812 401.753906 L 359.078125 401.753906 C 357.894531 401.585938 353.417969 401.5 345.644531 401.5 C 337.980469 401.5 333.558594 401.585938 332.375 401.753906 L 331.359375 401.753906 L 331.359375 397.867188 L 333.558594 397.867188 C 334.796875 397.867188 335.867188 397.867188 336.769531 397.867188 C 337.671875 397.867188 338.375 397.839844 338.882812 397.78125 C 339.390625 397.726562 339.839844 397.640625 340.234375 397.53125 C 340.628906 397.417969 340.855469 397.359375 340.910156 397.359375 C 340.964844 397.359375 341.136719 397.21875 341.417969 396.9375 C 341.699219 396.65625 341.867188 396.542969 341.925781 396.601562 Z M 341.925781 352.910156 " fill-opacity="1" fill-rule="nonzero"/><path fill="#000000" d="M 374.289062 352.320312 C 377.445312 347.753906 381.753906 345.472656 387.21875 345.472656 C 389.921875 345.472656 392.628906 346.207031 395.332031 347.671875 C 398.035156 349.136719 400.234375 351.726562 401.921875 355.445312 C 404.007812 360.121094 405.050781 366.542969 405.050781 374.710938 C 405.050781 383.445312 403.839844 390.121094 401.417969 394.742188 C 400.289062 397.105469 398.742188 398.992188 396.769531 400.402344 C 394.796875 401.8125 393.078125 402.683594 391.613281 403.023438 C 390.148438 403.359375 388.710938 403.558594 387.304688 403.613281 C 385.839844 403.613281 384.375 403.445312 382.910156 403.105469 C 381.445312 402.769531 379.726562 401.867188 377.753906 400.402344 C 375.78125 398.9375 374.234375 397.050781 373.105469 394.742188 C 370.683594 390.121094 369.472656 383.445312 369.472656 374.710938 C 369.472656 364.910156 371.078125 357.445312 374.289062 352.320312 Z M 393.304688 351.304688 C 391.613281 349.5 389.613281 348.601562 387.304688 348.601562 C 384.9375 348.601562 382.910156 349.5 381.21875 351.304688 C 379.8125 352.769531 378.882812 354.796875 378.429688 357.390625 C 377.980469 359.980469 377.753906 365.390625 377.753906 373.613281 C 377.753906 382.515625 377.980469 388.375 378.429688 391.191406 C 378.882812 394.007812 379.894531 396.234375 381.472656 397.867188 C 383.050781 399.558594 384.996094 400.402344 387.304688 400.402344 C 389.558594 400.402344 391.472656 399.558594 393.050781 397.867188 C 394.683594 396.175781 395.699219 393.8125 396.09375 390.769531 C 396.488281 387.726562 396.710938 382.007812 396.769531 373.613281 C 396.769531 365.445312 396.542969 360.066406 396.09375 357.472656 C 395.640625 354.882812 394.710938 352.824219 393.304688 351.304688 Z M 393.304688 351.304688 " fill-opacity="1" fill-rule="nonzero"/><path fill="#000000" d="M 416.238281 352.695312 C 416.238281 352.695312 416.238281 352.433594 416.238281 351.917969 C 416.238281 351.398438 416.515625 351 417.074219 350.722656 L 451.785156 350.722656 C 452.382812 351.039062 452.683594 351.4375 452.683594 351.917969 C 452.683594 352.394531 452.382812 352.792969 451.785156 353.113281 L 417.074219 353.113281 C 416.515625 352.832031 416.238281 352.433594 416.238281 351.917969 Z M 416.238281 352.695312 " fill-opacity="1" fill-rule="nonzero"/><path fill="#000000" d="M 465.289062 339.191406 C 464.214844 339.191406 463.378906 338.851562 462.78125 338.175781 C 462.183594 337.5 461.863281 336.621094 461.824219 335.546875 C 461.824219 333.355469 462.78125 331.40625 464.691406 329.691406 C 466.601562 327.980469 468.914062 327.121094 471.621094 327.121094 C 473.015625 327.121094 473.890625 327.144531 474.25 327.183594 C 477.199219 327.660156 479.449219 328.714844 481.003906 330.347656 C 482.554688 331.980469 483.351562 333.753906 483.390625 335.667969 C 483.390625 337.738281 482.714844 339.75 481.359375 341.699219 C 480.007812 343.652344 478.132812 345.066406 475.746094 345.941406 L 475.566406 346.0625 C 475.566406 346.101562 475.746094 346.160156 476.101562 346.242188 C 476.460938 346.320312 477.039062 346.5 477.835938 346.777344 C 478.632812 347.058594 479.390625 347.476562 480.105469 348.035156 C 483.371094 350.144531 485.003906 352.933594 485.003906 356.398438 C 485.003906 359.542969 483.769531 362.292969 481.300781 364.644531 C 478.832031 366.992188 475.703125 368.167969 471.921875 368.167969 C 468.734375 368.167969 465.984375 367.3125 463.675781 365.597656 C 461.367188 363.886719 460.210938 361.714844 460.210938 359.085938 C 460.210938 357.972656 460.570312 357.074219 461.285156 356.398438 C 462.003906 355.722656 462.898438 355.363281 463.976562 355.324219 C 465.089844 355.324219 466.007812 355.679688 466.722656 356.398438 C 467.441406 357.113281 467.796875 358.011719 467.796875 359.085938 C 467.796875 359.523438 467.738281 359.921875 467.621094 360.28125 C 467.5 360.640625 467.359375 360.957031 467.199219 361.238281 C 467.042969 361.515625 466.824219 361.753906 466.542969 361.953125 C 466.265625 362.152344 466.027344 362.3125 465.828125 362.433594 C 465.628906 362.550781 465.429688 362.632812 465.230469 362.671875 C 465.03125 362.710938 464.871094 362.769531 464.75 362.851562 L 464.511719 362.910156 C 466.542969 364.703125 469.011719 365.597656 471.921875 365.597656 C 474.113281 365.597656 475.765625 364.542969 476.878906 362.433594 C 477.558594 361.117188 477.894531 359.105469 477.894531 356.398438 L 477.894531 355.203125 C 477.894531 351.417969 476.621094 348.890625 474.070312 347.617188 C 473.472656 347.375 472.257812 347.238281 470.425781 347.199219 L 467.917969 347.136719 L 467.738281 347.019531 C 467.660156 346.898438 467.621094 346.578125 467.621094 346.0625 C 467.621094 345.34375 467.777344 344.988281 468.097656 344.988281 C 469.210938 344.988281 470.367188 344.886719 471.5625 344.6875 C 472.917969 344.488281 474.152344 343.652344 475.265625 342.179688 C 476.382812 340.703125 476.941406 338.472656 476.941406 335.488281 L 476.941406 335.007812 C 476.941406 332.738281 476.242188 331.164062 474.847656 330.289062 C 473.972656 329.730469 473.035156 329.453125 472.039062 329.453125 C 470.765625 329.453125 469.589844 329.671875 468.515625 330.109375 C 467.441406 330.546875 466.683594 331.007812 466.246094 331.484375 C 465.808594 331.960938 465.585938 332.199219 465.585938 332.199219 L 465.765625 332.199219 C 465.886719 332.242188 466.046875 332.28125 466.246094 332.320312 C 466.445312 332.359375 466.644531 332.460938 466.84375 332.621094 C 467.042969 332.777344 467.28125 332.917969 467.558594 333.039062 C 467.839844 333.15625 468.039062 333.375 468.15625 333.695312 C 468.277344 334.011719 468.4375 334.3125 468.636719 334.589844 C 468.835938 334.871094 468.894531 335.269531 468.8125 335.785156 C 468.8125 336.664062 468.535156 337.4375 467.976562 338.117188 C 467.421875 338.792969 466.523438 339.152344 465.289062 339.191406 Z M 465.289062 339.191406 " fill-opacity="1" fill-rule="nonzero"/><path fill="#000000" d="M 496.882812 338.460938 L 497.222656 338.375 C 497.503906 338.375 497.785156 338.375 498.066406 338.375 L 499.082031 338.375 L 501.445312 340.402344 C 506.742188 345.191406 510.601562 351.164062 513.023438 358.320312 C 515.445312 365.472656 516.65625 372.910156 516.65625 380.628906 C 516.65625 384.460938 516.375 388.148438 515.8125 391.699219 C 515.25 395.246094 514.601562 398.261719 513.867188 400.742188 C 513.136719 403.21875 512.09375 405.699219 510.742188 408.175781 C 509.390625 410.65625 508.320312 412.542969 507.53125 413.839844 C 506.742188 415.132812 505.585938 416.570312 504.066406 418.148438 C 502.542969 419.726562 501.644531 420.65625 501.363281 420.9375 C 501.078125 421.21875 500.433594 421.753906 499.417969 422.542969 C 499.25 422.710938 499.136719 422.824219 499.082031 422.882812 L 498.066406 422.882812 C 497.617188 422.882812 497.304688 422.882812 497.136719 422.882812 C 496.96875 422.882812 496.828125 422.796875 496.714844 422.628906 C 496.601562 422.457031 496.515625 422.203125 496.460938 421.867188 C 496.515625 421.8125 496.828125 421.445312 497.390625 420.769531 C 506.121094 411.699219 510.488281 398.316406 510.488281 380.628906 C 510.488281 362.9375 506.121094 349.558594 497.390625 340.488281 C 496.828125 339.8125 496.515625 339.445312 496.460938 339.390625 C 496.460938 338.9375 496.601562 338.628906 496.882812 338.460938 Z M 496.882812 338.460938 " fill-opacity="1" fill-rule="nonzero"/><path fill="#000000" d="M 596.703125 399.304688 C 596.703125 400.429688 596.109375 400.992188 594.925781 400.992188 C 594.644531 400.992188 594.023438 400.542969 593.066406 399.640625 C 592.109375 398.742188 589.460938 396.121094 585.125 391.78125 L 576.335938 382.996094 L 567.460938 391.867188 C 561.492188 397.726562 558.421875 400.710938 558.25 400.824219 C 558.027344 400.9375 557.828125 400.992188 557.660156 400.992188 C 557.207031 400.992188 556.816406 400.824219 556.476562 400.488281 C 556.136719 400.148438 555.941406 399.753906 555.886719 399.304688 C 555.886719 398.910156 556.28125 398.289062 557.066406 397.445312 C 557.855469 396.601562 560.503906 393.921875 565.011719 389.417969 L 573.800781 380.628906 L 565.011719 371.839844 C 560.449219 367.277344 557.800781 364.601562 557.066406 363.8125 C 556.335938 363.023438 555.941406 362.402344 555.886719 361.953125 C 555.886719 361.445312 556.054688 361.050781 556.390625 360.769531 C 556.730469 360.488281 557.152344 360.347656 557.660156 360.347656 C 557.941406 360.347656 558.136719 360.375 558.25 360.429688 C 558.421875 360.542969 561.492188 363.53125 567.460938 369.390625 L 576.335938 378.261719 L 585.125 369.472656 C 589.460938 365.136719 592.109375 362.515625 593.066406 361.613281 C 594.023438 360.710938 594.644531 360.261719 594.925781 360.261719 C 596.109375 360.261719 596.703125 360.824219 596.703125 361.953125 C 596.703125 362.347656 596.417969 362.855469 595.855469 363.472656 C 595.292969 364.09375 592.53125 366.855469 587.574219 371.753906 L 578.785156 380.628906 L 587.574219 389.5 C 592.308594 394.234375 595.011719 396.964844 595.6875 397.699219 C 596.363281 398.429688 596.703125 398.964844 596.703125 399.304688 Z M 596.703125 399.304688 " fill-opacity="1" fill-rule="nonzero"/><path fill="#000000" d="M 645.992188 352.910156 L 644.894531 353.332031 C 644.105469 353.613281 642.980469 353.894531 641.515625 354.179688 C 640.050781 354.460938 638.417969 354.65625 636.613281 354.769531 L 635.007812 354.769531 L 635.007812 350.882812 L 636.613281 350.882812 C 639.261719 350.769531 641.710938 350.347656 643.964844 349.613281 C 646.21875 348.882812 647.796875 348.207031 648.699219 347.585938 C 649.597656 346.964844 650.386719 346.347656 651.0625 345.726562 C 651.175781 345.558594 651.515625 345.472656 652.078125 345.472656 C 652.585938 345.472656 653.0625 345.644531 653.515625 345.980469 L 653.515625 371.246094 L 653.597656 396.601562 C 653.992188 396.992188 654.332031 397.246094 654.613281 397.359375 C 654.894531 397.472656 655.570312 397.585938 656.640625 397.699219 C 657.710938 397.8125 659.457031 397.867188 661.878906 397.867188 L 664.078125 397.867188 L 664.078125 401.753906 L 663.148438 401.753906 C 661.964844 401.585938 657.488281 401.5 649.710938 401.5 C 642.050781 401.5 637.628906 401.585938 636.445312 401.753906 L 635.429688 401.753906 L 635.429688 397.867188 L 637.628906 397.867188 C 638.867188 397.867188 639.9375 397.867188 640.839844 397.867188 C 641.742188 397.867188 642.445312 397.839844 642.953125 397.78125 C 643.457031 397.726562 643.910156 397.640625 644.304688 397.53125 C 644.699219 397.417969 644.921875 397.359375 644.980469 397.359375 C 645.035156 397.359375 645.203125 397.21875 645.488281 396.9375 C 645.769531 396.65625 645.9375 396.542969 645.992188 396.601562 Z M 645.992188 352.910156 " fill-opacity="1" fill-rule="nonzero"/><path fill="#000000" d="M 680.980469 362.628906 C 679.457031 362.628906 678.273438 362.148438 677.429688 361.191406 C 676.585938 360.234375 676.132812 358.996094 676.078125 357.472656 C 676.078125 354.375 677.429688 351.613281 680.132812 349.191406 C 682.839844 346.769531 686.105469 345.558594 689.9375 345.558594 C 691.910156 345.558594 693.148438 345.585938 693.65625 345.644531 C 697.824219 346.320312 701.007812 347.8125 703.203125 350.121094 C 705.402344 352.429688 706.527344 354.9375 706.585938 357.640625 C 706.585938 360.570312 705.625 363.417969 703.710938 366.175781 C 701.796875 368.9375 699.148438 370.9375 695.769531 372.175781 L 695.515625 372.347656 C 695.515625 372.402344 695.769531 372.488281 696.273438 372.601562 C 696.78125 372.710938 697.597656 372.964844 698.726562 373.359375 C 699.851562 373.753906 700.921875 374.347656 701.9375 375.136719 C 706.554688 378.121094 708.867188 382.066406 708.867188 386.964844 C 708.867188 391.417969 707.121094 395.304688 703.625 398.628906 C 700.132812 401.953125 695.710938 403.613281 690.359375 403.613281 C 685.851562 403.613281 681.964844 402.402344 678.699219 399.980469 C 675.429688 397.558594 673.796875 394.488281 673.796875 390.769531 C 673.796875 389.191406 674.304688 387.921875 675.316406 386.964844 C 676.332031 386.007812 677.597656 385.5 679.121094 385.445312 C 680.699219 385.445312 681.992188 385.953125 683.007812 386.964844 C 684.019531 387.980469 684.527344 389.246094 684.527344 390.769531 C 684.527344 391.386719 684.445312 391.953125 684.273438 392.457031 C 684.105469 392.964844 683.910156 393.417969 683.683594 393.8125 C 683.457031 394.207031 683.148438 394.542969 682.753906 394.824219 C 682.359375 395.105469 682.019531 395.332031 681.738281 395.5 C 681.457031 395.671875 681.175781 395.78125 680.894531 395.839844 C 680.613281 395.894531 680.386719 395.980469 680.21875 396.09375 L 679.878906 396.175781 C 682.753906 398.710938 686.246094 399.980469 690.359375 399.980469 C 693.457031 399.980469 695.796875 398.488281 697.375 395.5 C 698.332031 393.640625 698.808594 390.796875 698.808594 386.964844 L 698.808594 385.277344 C 698.808594 379.925781 697.007812 376.347656 693.402344 374.542969 C 692.554688 374.207031 690.839844 374.007812 688.246094 373.953125 L 684.699219 373.867188 L 684.445312 373.699219 C 684.332031 373.53125 684.273438 373.078125 684.273438 372.347656 C 684.273438 371.332031 684.5 370.824219 684.949219 370.824219 C 686.527344 370.824219 688.164062 370.683594 689.851562 370.402344 C 691.769531 370.121094 693.515625 368.9375 695.089844 366.855469 C 696.667969 364.769531 697.457031 361.613281 697.457031 357.390625 L 697.457031 356.714844 C 697.457031 353.5 696.472656 351.277344 694.5 350.035156 C 693.261719 349.25 691.9375 348.855469 690.527344 348.855469 C 688.726562 348.855469 687.0625 349.164062 685.542969 349.785156 C 684.019531 350.402344 682.949219 351.050781 682.332031 351.726562 C 681.710938 352.402344 681.402344 352.742188 681.402344 352.742188 L 681.65625 352.742188 C 681.824219 352.796875 682.050781 352.855469 682.332031 352.910156 C 682.613281 352.964844 682.894531 353.105469 683.175781 353.332031 C 683.457031 353.558594 683.796875 353.753906 684.191406 353.925781 C 684.585938 354.09375 684.867188 354.402344 685.035156 354.855469 C 685.203125 355.304688 685.429688 355.726562 685.710938 356.121094 C 685.992188 356.515625 686.078125 357.078125 685.964844 357.8125 C 685.964844 359.050781 685.570312 360.148438 684.78125 361.105469 C 683.992188 362.066406 682.726562 362.570312 680.980469 362.628906 Z M 680.980469 362.628906 " fill-opacity="1" fill-rule="nonzero"/></svg>