<svg xmlns="http://www.w3.org/2000/svg" xmlns:xlink="http://www.w3.org/1999/xlink" width="1000" zoomAndPan="magnify" viewBox="0 0 750 749.999995" height="1000" preserveAspectRatio="xMidYMid meet" version="1.0"><defs><clipPath id="a0bfdc47e5"><path d="M 44 340 L 64 340 L 64 420.480469 L 44 420.480469 Z M 44 340 " clip-rule="nonzero"/></clipPath><clipPath id="5720652d39"><path d="M 517 329.519531 L 537 329.519531 L 537 368 L 517 368 Z M 517 329.519531 " clip-rule="nonzero"/></clipPath><clipPath id="2eab7fa56d"><path d="M 548 340 L 568 340 L 568 420.480469 L 548 420.480469 Z M 548 340 " clip-rule="nonzero"/></clipPath></defs><rect x="-75" width="900" fill="#ffffff" y="-74.999999" height="899.999994" fill-opacity="1"/><rect x="-75" width="900" fill="#ffffff" y="-74.999999" height="899.999994" fill-opacity="1"/><g clip-path="url(#a0bfdc47e5)"><path fill="#000000" d="M 44.972656 380.324219 C 44.972656 376.667969 45.238281 373.195312 45.769531 369.90625 C 46.300781 366.621094 46.910156 363.78125 47.597656 361.398438 C 48.289062 359.011719 49.269531 356.679688 50.539062 354.398438 C 51.8125 352.117188 52.820312 350.34375 53.5625 349.070312 C 54.304688 347.796875 55.417969 346.417969 56.902344 344.933594 C 58.386719 343.449219 59.261719 342.550781 59.527344 342.230469 C 59.792969 341.914062 60.453125 341.355469 61.515625 340.5625 L 62.867188 340.5625 C 63.609375 340.5625 63.980469 340.800781 63.980469 341.277344 C 63.980469 341.4375 63.527344 341.992188 62.628906 342.945312 C 61.726562 343.902344 60.640625 345.304688 59.367188 347.160156 C 58.09375 349.015625 56.796875 351.296875 55.472656 354 C 54.144531 356.703125 53.03125 360.363281 52.132812 364.976562 C 51.230469 369.589844 50.777344 374.703125 50.777344 380.324219 C 50.777344 385.945312 51.230469 391.035156 52.132812 395.59375 C 53.03125 400.152344 54.117188 403.835938 55.390625 406.648438 C 56.664062 409.457031 57.960938 411.738281 59.289062 413.488281 C 60.613281 415.238281 61.726562 416.640625 62.628906 417.703125 C 63.527344 418.761719 63.980469 419.320312 63.980469 419.371094 C 63.980469 419.847656 63.582031 420.085938 62.785156 420.085938 L 61.515625 420.085938 L 59.289062 418.179688 C 54.304688 413.671875 50.671875 408.050781 48.394531 401.320312 C 46.113281 394.585938 44.972656 387.585938 44.972656 380.324219 Z M 44.972656 380.324219 " fill-opacity="1" fill-rule="nonzero"/></g><path fill="#000000" d="M 76.066406 353.683594 C 79.035156 349.386719 83.089844 347.242188 88.230469 347.242188 C 90.777344 347.242188 93.320312 347.929688 95.863281 349.308594 C 98.410156 350.6875 100.476562 353.125 102.066406 356.625 C 104.027344 361.027344 105.007812 367.070312 105.007812 374.757812 C 105.007812 382.976562 103.871094 389.257812 101.589844 393.605469 C 100.53125 395.832031 99.074219 397.609375 97.21875 398.933594 C 95.363281 400.257812 93.746094 401.082031 92.367188 401.398438 C 90.988281 401.71875 89.636719 401.902344 88.3125 401.957031 C 86.933594 401.957031 85.554688 401.796875 84.175781 401.476562 C 82.796875 401.160156 81.179688 400.3125 79.324219 398.933594 C 77.46875 397.554688 76.011719 395.777344 74.953125 393.605469 C 72.671875 389.257812 71.53125 382.976562 71.53125 374.757812 C 71.53125 365.53125 73.042969 358.507812 76.066406 353.683594 Z M 93.957031 352.730469 C 92.367188 351.03125 90.484375 350.183594 88.3125 350.183594 C 86.085938 350.183594 84.175781 351.03125 82.585938 352.730469 C 81.261719 354.105469 80.386719 356.015625 79.960938 358.453125 C 79.539062 360.894531 79.324219 365.984375 79.324219 373.722656 C 79.324219 382.101562 79.539062 387.613281 79.960938 390.265625 C 80.386719 392.914062 81.339844 395.011719 82.824219 396.546875 C 84.308594 398.136719 86.136719 398.933594 88.3125 398.933594 C 90.429688 398.933594 92.234375 398.136719 93.71875 396.546875 C 95.253906 394.957031 96.210938 392.730469 96.582031 389.867188 C 96.953125 387.003906 97.164062 381.625 97.21875 373.722656 C 97.21875 366.035156 97.003906 360.972656 96.582031 358.535156 C 96.15625 356.09375 95.28125 354.160156 93.957031 352.730469 Z M 93.957031 352.730469 " fill-opacity="1" fill-rule="nonzero"/><path fill="#000000" d="M 114.390625 395.433594 C 114.390625 394.160156 114.84375 393.046875 115.746094 392.09375 C 116.644531 391.140625 117.785156 390.664062 119.164062 390.664062 C 120.4375 390.664062 121.550781 391.085938 122.503906 391.933594 C 123.457031 392.785156 123.960938 393.921875 124.015625 395.355469 C 124.015625 396.679688 123.5625 397.820312 122.664062 398.773438 C 121.761719 399.730469 120.621094 400.207031 119.242188 400.207031 C 117.863281 400.207031 116.726562 399.753906 115.824219 398.855469 C 114.921875 397.953125 114.445312 396.8125 114.390625 395.433594 Z M 114.390625 395.433594 " fill-opacity="1" fill-rule="nonzero"/><path fill="#000000" d="M 137.929688 353.683594 C 140.898438 349.386719 144.953125 347.242188 150.09375 347.242188 C 152.640625 347.242188 155.183594 347.929688 157.730469 349.308594 C 160.273438 350.6875 162.339844 353.125 163.929688 356.625 C 165.894531 361.027344 166.875 367.070312 166.875 374.757812 C 166.875 382.976562 165.734375 389.257812 163.453125 393.605469 C 162.394531 395.832031 160.9375 397.609375 159.082031 398.933594 C 157.226562 400.257812 155.609375 401.082031 154.230469 401.398438 C 152.851562 401.71875 151.5 401.902344 150.175781 401.957031 C 148.796875 401.957031 147.417969 401.796875 146.039062 401.476562 C 144.660156 401.160156 143.042969 400.3125 141.191406 398.933594 C 139.335938 397.554688 137.875 395.777344 136.816406 393.605469 C 134.535156 389.257812 133.398438 382.976562 133.398438 374.757812 C 133.398438 365.53125 134.90625 358.507812 137.929688 353.683594 Z M 155.820312 352.730469 C 154.230469 351.03125 152.347656 350.183594 150.175781 350.183594 C 147.949219 350.183594 146.039062 351.03125 144.449219 352.730469 C 143.125 354.105469 142.25 356.015625 141.824219 358.453125 C 141.402344 360.894531 141.191406 365.984375 141.191406 373.722656 C 141.191406 382.101562 141.402344 387.613281 141.824219 390.265625 C 142.25 392.914062 143.203125 395.011719 144.6875 396.546875 C 146.171875 398.136719 148 398.933594 150.175781 398.933594 C 152.296875 398.933594 154.097656 398.136719 155.582031 396.546875 C 157.121094 394.957031 158.074219 392.730469 158.445312 389.867188 C 158.816406 387.003906 159.027344 381.625 159.082031 373.722656 C 159.082031 366.035156 158.867188 360.972656 158.445312 358.535156 C 158.019531 356.09375 157.144531 354.160156 155.820312 352.730469 Z M 155.820312 352.730469 " fill-opacity="1" fill-rule="nonzero"/><path fill="#000000" d="M 177.6875 353.683594 C 180.65625 349.386719 184.710938 347.242188 189.855469 347.242188 C 192.398438 347.242188 194.941406 347.929688 197.488281 349.308594 C 200.03125 350.6875 202.097656 353.125 203.691406 356.625 C 205.652344 361.027344 206.632812 367.070312 206.632812 374.757812 C 206.632812 382.976562 205.492188 389.257812 203.210938 393.605469 C 202.152344 395.832031 200.695312 397.609375 198.839844 398.933594 C 196.984375 400.257812 195.367188 401.082031 193.988281 401.398438 C 192.609375 401.71875 191.257812 401.902344 189.933594 401.957031 C 188.554688 401.957031 187.175781 401.796875 185.796875 401.476562 C 184.421875 401.160156 182.804688 400.3125 180.949219 398.933594 C 179.09375 397.554688 177.632812 395.777344 176.574219 393.605469 C 174.292969 389.257812 173.15625 382.976562 173.15625 374.757812 C 173.15625 365.53125 174.664062 358.507812 177.6875 353.683594 Z M 195.578125 352.730469 C 193.988281 351.03125 192.105469 350.183594 189.933594 350.183594 C 187.707031 350.183594 185.796875 351.03125 184.207031 352.730469 C 182.882812 354.105469 182.007812 356.015625 181.582031 358.453125 C 181.160156 360.894531 180.949219 365.984375 180.949219 373.722656 C 180.949219 382.101562 181.160156 387.613281 181.582031 390.265625 C 182.007812 392.914062 182.960938 395.011719 184.445312 396.546875 C 185.929688 398.136719 187.757812 398.933594 189.933594 398.933594 C 192.054688 398.933594 193.855469 398.136719 195.339844 396.546875 C 196.878906 394.957031 197.832031 392.730469 198.203125 389.867188 C 198.574219 387.003906 198.785156 381.625 198.839844 373.722656 C 198.839844 366.035156 198.625 360.972656 198.203125 358.535156 C 197.777344 356.09375 196.902344 354.160156 195.578125 352.730469 Z M 195.578125 352.730469 " fill-opacity="1" fill-rule="nonzero"/><path fill="#000000" d="M 218.480469 366.089844 C 217.046875 366.089844 215.910156 365.613281 215.058594 364.65625 C 214.210938 363.703125 213.789062 362.535156 213.789062 361.160156 C 213.789062 357.394531 215.191406 354.132812 218.003906 351.375 C 220.8125 348.621094 224.3125 347.242188 228.5 347.242188 C 233.324219 347.242188 237.351562 348.726562 240.585938 351.695312 C 243.820312 354.664062 245.460938 358.507812 245.515625 363.226562 C 245.515625 365.503906 244.984375 367.679688 243.925781 369.746094 C 242.863281 371.816406 241.59375 373.617188 240.109375 375.15625 C 238.625 376.691406 236.503906 378.652344 233.746094 381.039062 C 231.839844 382.683594 229.1875 385.121094 225.796875 388.355469 L 221.105469 392.808594 L 227.148438 392.890625 C 235.46875 392.890625 239.894531 392.757812 240.425781 392.492188 C 240.796875 392.386719 241.433594 390.027344 242.335938 385.414062 L 242.335938 385.175781 L 245.515625 385.175781 L 245.515625 385.414062 C 245.460938 385.574219 245.117188 387.984375 244.480469 392.652344 C 243.84375 397.316406 243.449219 399.753906 243.289062 399.96875 L 243.289062 400.207031 L 213.789062 400.207031 L 213.789062 397.742188 C 213.789062 397.371094 213.945312 396.972656 214.265625 396.546875 C 214.582031 396.125 215.378906 395.195312 216.652344 393.765625 C 218.1875 392.066406 219.511719 390.582031 220.625 389.3125 C 221.105469 388.78125 222.003906 387.800781 223.328125 386.367188 C 224.65625 384.9375 225.554688 383.957031 226.035156 383.425781 C 226.511719 382.894531 227.28125 382.019531 228.339844 380.800781 C 229.398438 379.582031 230.140625 378.679688 230.566406 378.097656 C 230.988281 377.515625 231.601562 376.71875 232.394531 375.710938 C 233.191406 374.703125 233.746094 373.855469 234.066406 373.167969 C 234.382812 372.476562 234.78125 371.707031 235.257812 370.859375 C 235.734375 370.011719 236.078125 369.164062 236.292969 368.316406 C 236.503906 367.46875 236.6875 366.671875 236.847656 365.929688 C 237.007812 365.1875 237.085938 364.3125 237.085938 363.304688 C 237.085938 359.964844 236.183594 357.074219 234.382812 354.636719 C 232.582031 352.199219 230.007812 350.980469 226.667969 350.980469 C 224.921875 350.980469 223.382812 351.429688 222.058594 352.332031 C 220.734375 353.230469 219.804688 354.105469 219.273438 354.957031 C 218.746094 355.804688 218.480469 356.308594 218.480469 356.464844 C 218.480469 356.519531 218.613281 356.546875 218.878906 356.546875 C 219.832031 356.546875 220.8125 356.917969 221.820312 357.660156 C 222.828125 358.402344 223.328125 359.621094 223.328125 361.316406 C 223.328125 362.644531 222.90625 363.757812 222.058594 364.65625 C 221.210938 365.558594 220.015625 366.035156 218.480469 366.089844 Z M 218.480469 366.089844 " fill-opacity="1" fill-rule="nonzero"/><path fill="#000000" d="M 252.910156 375.3125 C 252.910156 366.671875 255.058594 359.832031 259.351562 354.796875 C 263.644531 349.757812 268.414062 347.242188 273.664062 347.242188 C 277.320312 347.242188 279.945312 348.195312 281.535156 350.105469 C 283.125 352.011719 283.921875 354.132812 283.921875 356.464844 C 283.921875 357.792969 283.550781 358.851562 282.808594 359.648438 C 282.066406 360.441406 281.03125 360.839844 279.707031 360.839844 C 278.488281 360.839844 277.480469 360.46875 276.6875 359.726562 C 275.890625 358.984375 275.492188 357.949219 275.492188 356.625 C 275.492188 354.292969 276.738281 352.886719 279.230469 352.410156 C 278.0625 351.242188 276.421875 350.582031 274.300781 350.421875 C 270.535156 350.421875 267.433594 352.011719 264.996094 355.195312 C 262.503906 358.691406 261.257812 364.046875 261.257812 371.257812 L 261.339844 371.578125 C 261.605469 371.257812 261.816406 370.914062 261.976562 370.542969 C 264.148438 367.363281 266.984375 365.769531 270.484375 365.769531 L 270.800781 365.769531 C 273.238281 365.769531 275.386719 366.273438 277.242188 367.28125 C 278.515625 368.023438 279.785156 369.085938 281.058594 370.464844 C 282.332031 371.839844 283.363281 373.351562 284.160156 374.996094 C 285.273438 377.59375 285.828125 380.429688 285.828125 383.503906 L 285.828125 384.9375 C 285.828125 386.15625 285.699219 387.296875 285.433594 388.355469 C 284.847656 391.484375 283.152344 394.53125 280.34375 397.503906 C 277.535156 400.472656 273.980469 401.957031 269.6875 401.957031 C 268.203125 401.957031 266.773438 401.742188 265.394531 401.320312 C 264.015625 400.894531 262.53125 400.101562 260.941406 398.933594 C 259.351562 397.765625 258 396.203125 256.886719 394.242188 C 255.773438 392.28125 254.820312 389.707031 254.023438 386.527344 C 253.226562 383.347656 252.855469 379.609375 252.910156 375.3125 Z M 270.007812 368.632812 C 268.414062 368.632812 267.039062 369.085938 265.871094 369.984375 C 264.707031 370.886719 263.804688 372.078125 263.167969 373.566406 C 262.53125 375.050781 262.082031 376.558594 261.816406 378.097656 C 261.550781 379.636719 261.390625 381.277344 261.339844 383.027344 C 261.339844 387.429688 261.65625 390.582031 262.292969 392.492188 C 262.929688 394.402344 263.9375 395.9375 265.316406 397.105469 C 266.585938 398.058594 267.992188 398.535156 269.527344 398.535156 C 272.234375 398.535156 274.300781 397.527344 275.730469 395.515625 C 276.421875 394.558594 276.898438 393.367188 277.164062 391.933594 C 277.429688 390.503906 277.558594 387.71875 277.558594 383.585938 C 277.558594 379.34375 277.429688 376.507812 277.164062 375.074219 C 276.898438 373.644531 276.421875 372.449219 275.730469 371.496094 C 274.300781 369.589844 272.390625 368.632812 270.007812 368.632812 Z M 270.007812 368.632812 " fill-opacity="1" fill-rule="nonzero"/><path fill="#000000" d="M 357.09375 397.898438 C 357.09375 398.960938 356.535156 399.488281 355.421875 399.488281 C 355.15625 399.488281 354.574219 399.066406 353.671875 398.21875 C 352.773438 397.371094 350.28125 394.902344 346.199219 390.820312 L 337.929688 382.550781 L 329.578125 390.902344 C 323.960938 396.414062 321.070312 399.226562 320.914062 399.332031 C 320.699219 399.4375 320.515625 399.488281 320.355469 399.488281 C 319.933594 399.488281 319.5625 399.332031 319.242188 399.011719 C 318.925781 398.695312 318.738281 398.324219 318.6875 397.898438 C 318.6875 397.527344 319.058594 396.945312 319.800781 396.148438 C 320.542969 395.355469 323.03125 392.835938 327.273438 388.59375 L 335.542969 380.324219 L 327.273438 372.054688 C 322.980469 367.757812 320.488281 365.242188 319.800781 364.5 C 319.109375 363.757812 318.738281 363.171875 318.6875 362.75 C 318.6875 362.273438 318.84375 361.902344 319.164062 361.636719 C 319.480469 361.371094 319.878906 361.238281 320.355469 361.238281 C 320.621094 361.238281 320.808594 361.265625 320.914062 361.316406 C 321.070312 361.421875 323.960938 364.234375 329.578125 369.746094 L 337.929688 378.097656 L 346.199219 369.828125 C 350.28125 365.746094 352.773438 363.277344 353.671875 362.429688 C 354.574219 361.582031 355.15625 361.160156 355.421875 361.160156 C 356.535156 361.160156 357.09375 361.6875 357.09375 362.75 C 357.09375 363.121094 356.828125 363.597656 356.296875 364.179688 C 355.765625 364.761719 353.171875 367.363281 348.503906 371.972656 L 340.234375 380.324219 L 348.503906 388.675781 C 352.957031 393.128906 355.503906 395.699219 356.136719 396.386719 C 356.773438 397.078125 357.09375 397.582031 357.09375 397.898438 Z M 357.09375 397.898438 " fill-opacity="1" fill-rule="nonzero"/><path fill="#000000" d="M 403.464844 354.238281 L 402.433594 354.636719 C 401.691406 354.902344 400.628906 355.167969 399.253906 355.433594 C 397.875 355.699219 396.335938 355.882812 394.640625 355.988281 L 393.128906 355.988281 L 393.128906 352.332031 L 394.640625 352.332031 C 397.132812 352.226562 399.4375 351.828125 401.558594 351.136719 C 403.679688 350.449219 405.164062 349.8125 406.011719 349.230469 C 406.859375 348.644531 407.601562 348.0625 408.238281 347.480469 C 408.34375 347.320312 408.660156 347.242188 409.191406 347.242188 C 409.667969 347.242188 410.121094 347.398438 410.542969 347.71875 L 410.542969 371.496094 L 410.625 395.355469 C 410.996094 395.726562 411.3125 395.964844 411.578125 396.070312 C 411.84375 396.175781 412.480469 396.28125 413.484375 396.386719 C 414.492188 396.496094 416.136719 396.546875 418.414062 396.546875 L 420.484375 396.546875 L 420.484375 400.207031 L 419.609375 400.207031 C 418.496094 400.046875 414.28125 399.96875 406.964844 399.96875 C 399.757812 399.96875 395.59375 400.046875 394.480469 400.207031 L 393.527344 400.207031 L 393.527344 396.546875 L 395.59375 396.546875 C 396.761719 396.546875 397.769531 396.546875 398.617188 396.546875 C 399.464844 396.546875 400.128906 396.519531 400.605469 396.46875 C 401.082031 396.414062 401.503906 396.335938 401.875 396.230469 C 402.246094 396.125 402.460938 396.070312 402.511719 396.070312 C 402.566406 396.070312 402.722656 395.9375 402.988281 395.671875 C 403.253906 395.40625 403.414062 395.300781 403.464844 395.355469 Z M 403.464844 354.238281 " fill-opacity="1" fill-rule="nonzero"/><path fill="#000000" d="M 433.921875 353.683594 C 436.890625 349.386719 440.945312 347.242188 446.085938 347.242188 C 448.632812 347.242188 451.175781 347.929688 453.722656 349.308594 C 456.265625 350.6875 458.332031 353.125 459.921875 356.625 C 461.886719 361.027344 462.867188 367.070312 462.867188 374.757812 C 462.867188 382.976562 461.726562 389.257812 459.445312 393.605469 C 458.386719 395.832031 456.929688 397.609375 455.074219 398.933594 C 453.21875 400.257812 451.601562 401.082031 450.222656 401.398438 C 448.84375 401.71875 447.492188 401.902344 446.167969 401.957031 C 444.789062 401.957031 443.410156 401.796875 442.03125 401.476562 C 440.652344 401.160156 439.039062 400.3125 437.183594 398.933594 C 435.328125 397.554688 433.867188 395.777344 432.808594 393.605469 C 430.527344 389.257812 429.390625 382.976562 429.390625 374.757812 C 429.390625 365.53125 430.898438 358.507812 433.921875 353.683594 Z M 451.8125 352.730469 C 450.222656 351.03125 448.339844 350.183594 446.167969 350.183594 C 443.941406 350.183594 442.03125 351.03125 440.441406 352.730469 C 439.117188 354.105469 438.242188 356.015625 437.816406 358.453125 C 437.394531 360.894531 437.183594 365.984375 437.183594 373.722656 C 437.183594 382.101562 437.394531 387.613281 437.816406 390.265625 C 438.242188 392.914062 439.195312 395.011719 440.679688 396.546875 C 442.164062 398.136719 443.992188 398.933594 446.167969 398.933594 C 448.289062 398.933594 450.089844 398.136719 451.574219 396.546875 C 453.113281 394.957031 454.066406 392.730469 454.4375 389.867188 C 454.808594 387.003906 455.019531 381.625 455.074219 373.722656 C 455.074219 366.035156 454.859375 360.972656 454.4375 358.535156 C 454.011719 356.09375 453.136719 354.160156 451.8125 352.730469 Z M 451.8125 352.730469 " fill-opacity="1" fill-rule="nonzero"/><path fill="#000000" d="M 473.394531 354.035156 C 473.394531 354.035156 473.394531 353.792969 473.394531 353.304688 C 473.394531 352.816406 473.65625 352.441406 474.179688 352.179688 L 506.84375 352.179688 C 507.40625 352.480469 507.6875 352.855469 507.6875 353.304688 C 507.6875 353.753906 507.40625 354.128906 506.84375 354.429688 L 474.179688 354.429688 C 473.65625 354.167969 473.394531 353.792969 473.394531 353.304688 Z M 473.394531 354.035156 " fill-opacity="1" fill-rule="nonzero"/><g clip-path="url(#5720652d39)"><path fill="#000000" d="M 524.382812 334.863281 L 523.652344 335.144531 C 523.125 335.332031 522.378906 335.519531 521.402344 335.707031 C 520.429688 335.894531 519.339844 336.023438 518.140625 336.101562 L 517.074219 336.101562 L 517.074219 333.515625 L 518.140625 333.515625 C 519.902344 333.4375 521.535156 333.15625 523.035156 332.671875 C 524.53125 332.183594 525.582031 331.734375 526.179688 331.320312 C 526.78125 330.910156 527.304688 330.496094 527.753906 330.085938 C 527.832031 329.972656 528.054688 329.914062 528.429688 329.914062 C 528.765625 329.914062 529.085938 330.027344 529.386719 330.253906 L 529.386719 347.0625 L 529.441406 363.933594 C 529.703125 364.195312 529.929688 364.363281 530.117188 364.4375 C 530.304688 364.511719 530.753906 364.585938 531.464844 364.664062 C 532.179688 364.738281 533.339844 364.773438 534.953125 364.773438 L 536.414062 364.773438 L 536.414062 367.363281 L 535.792969 367.363281 C 535.007812 367.25 532.027344 367.191406 526.855469 367.191406 C 521.757812 367.191406 518.816406 367.25 518.03125 367.363281 L 517.355469 367.363281 L 517.355469 364.773438 L 518.816406 364.773438 C 519.640625 364.773438 520.351562 364.773438 520.953125 364.773438 C 521.554688 364.773438 522.019531 364.757812 522.359375 364.71875 C 522.695312 364.679688 522.996094 364.625 523.257812 364.550781 C 523.519531 364.476562 523.671875 364.4375 523.707031 364.4375 C 523.746094 364.4375 523.859375 364.34375 524.046875 364.15625 C 524.234375 363.96875 524.34375 363.894531 524.382812 363.933594 Z M 524.382812 334.863281 " fill-opacity="1" fill-rule="nonzero"/></g><g clip-path="url(#2eab7fa56d)"><path fill="#000000" d="M 549.277344 340.640625 L 549.59375 340.5625 C 549.859375 340.5625 550.125 340.5625 550.390625 340.5625 L 551.34375 340.5625 L 553.570312 342.46875 C 558.554688 346.976562 562.183594 352.597656 564.464844 359.328125 C 566.742188 366.0625 567.882812 373.0625 567.882812 380.324219 C 567.882812 383.929688 567.617188 387.402344 567.085938 390.742188 C 566.558594 394.082031 565.949219 396.917969 565.257812 399.25 C 564.570312 401.585938 563.589844 403.917969 562.316406 406.25 C 561.042969 408.582031 560.039062 410.359375 559.296875 411.578125 C 558.554688 412.796875 557.464844 414.148438 556.035156 415.632812 C 554.605469 417.117188 553.753906 417.992188 553.492188 418.257812 C 553.226562 418.523438 552.617188 419.027344 551.660156 419.769531 C 551.503906 419.929688 551.398438 420.035156 551.34375 420.085938 L 550.390625 420.085938 C 549.964844 420.085938 549.671875 420.085938 549.515625 420.085938 C 549.355469 420.085938 549.222656 420.007812 549.117188 419.847656 C 549.011719 419.691406 548.929688 419.453125 548.878906 419.132812 C 548.929688 419.082031 549.222656 418.734375 549.753906 418.097656 C 557.96875 409.5625 562.078125 396.972656 562.078125 380.324219 C 562.078125 363.675781 557.96875 351.085938 549.753906 342.550781 C 549.222656 341.914062 548.929688 341.566406 548.878906 341.515625 C 548.878906 341.089844 549.011719 340.800781 549.277344 340.640625 Z M 549.277344 340.640625 " fill-opacity="1" fill-rule="nonzero"/></g><path fill="#000000" d="M 643.199219 397.898438 C 643.199219 398.960938 642.644531 399.488281 641.53125 399.488281 C 641.265625 399.488281 640.683594 399.066406 639.78125 398.21875 C 638.878906 397.371094 636.390625 394.902344 632.308594 390.820312 L 624.039062 382.550781 L 615.6875 390.902344 C 610.070312 396.414062 607.179688 399.226562 607.019531 399.332031 C 606.808594 399.4375 606.625 399.488281 606.464844 399.488281 C 606.039062 399.488281 605.667969 399.332031 605.351562 399.011719 C 605.03125 398.695312 604.847656 398.324219 604.792969 397.898438 C 604.792969 397.527344 605.164062 396.945312 605.90625 396.148438 C 606.648438 395.355469 609.140625 392.835938 613.382812 388.59375 L 621.652344 380.324219 L 613.382812 372.054688 C 609.089844 367.757812 606.597656 365.242188 605.90625 364.5 C 605.21875 363.757812 604.847656 363.171875 604.792969 362.75 C 604.792969 362.273438 604.953125 361.902344 605.273438 361.636719 C 605.589844 361.371094 605.988281 361.238281 606.464844 361.238281 C 606.730469 361.238281 606.914062 361.265625 607.019531 361.316406 C 607.179688 361.421875 610.070312 364.234375 615.6875 369.746094 L 624.039062 378.097656 L 632.308594 369.828125 C 636.390625 365.746094 638.878906 363.277344 639.78125 362.429688 C 640.683594 361.582031 641.265625 361.160156 641.53125 361.160156 C 642.644531 361.160156 643.199219 361.6875 643.199219 362.75 C 643.199219 363.121094 642.9375 363.597656 642.40625 364.179688 C 641.875 364.761719 639.277344 367.363281 634.613281 371.972656 L 626.34375 380.324219 L 634.613281 388.675781 C 639.066406 393.128906 641.609375 395.699219 642.246094 396.386719 C 642.882812 397.078125 643.199219 397.582031 643.199219 397.898438 Z M 643.199219 397.898438 " fill-opacity="1" fill-rule="nonzero"/><path fill="#000000" d="M 700.636719 377.382812 C 698.089844 381.410156 694.910156 383.425781 691.09375 383.425781 C 686.960938 383.425781 683.566406 381.863281 680.914062 378.734375 C 678.265625 375.605469 676.675781 372.265625 676.144531 368.714844 C 676.039062 367.863281 675.984375 366.804688 675.984375 365.53125 L 675.984375 364.894531 C 675.984375 359.964844 677.816406 355.671875 681.472656 352.011719 C 684.652344 348.832031 688.152344 347.242188 691.96875 347.242188 C 692.074219 347.242188 692.234375 347.242188 692.445312 347.242188 C 692.65625 347.242188 692.871094 347.269531 693.082031 347.320312 L 693.398438 347.320312 C 694.035156 347.320312 694.699219 347.375 695.386719 347.480469 C 696.078125 347.585938 697.058594 347.902344 698.328125 348.433594 C 699.601562 348.964844 700.847656 349.8125 702.066406 350.980469 C 703.285156 352.144531 704.425781 353.710938 705.488281 355.671875 C 707.765625 360.335938 708.90625 366.328125 708.90625 373.644531 C 708.90625 381.066406 707.316406 387.347656 704.132812 392.492188 C 702.277344 395.460938 700.050781 397.765625 697.457031 399.410156 C 694.859375 401.054688 692.101562 401.902344 689.183594 401.957031 C 685.953125 401.957031 683.300781 401.1875 681.234375 399.648438 C 679.167969 398.113281 678.105469 395.832031 678.054688 392.808594 C 678 389.789062 679.40625 388.304688 682.265625 388.355469 C 683.433594 388.355469 684.414062 388.726562 685.210938 389.46875 C 686.003906 390.210938 686.402344 391.246094 686.402344 392.570312 C 686.402344 393.527344 686.164062 394.347656 685.6875 395.035156 C 685.210938 395.726562 684.785156 396.148438 684.414062 396.308594 C 684.042969 396.46875 683.699219 396.601562 683.378906 396.707031 L 683.0625 396.785156 C 683.0625 396.890625 683.25 397.050781 683.621094 397.261719 C 683.992188 397.476562 684.679688 397.742188 685.6875 398.058594 C 686.695312 398.375 687.808594 398.507812 689.027344 398.457031 L 689.503906 398.457031 C 692.683594 398.457031 695.359375 396.761719 697.535156 393.367188 C 699.601562 390.398438 700.636719 385.253906 700.636719 377.9375 Z M 692.046875 380.484375 C 694.59375 380.484375 696.632812 379.183594 698.171875 376.585938 C 699.707031 373.988281 700.503906 370.464844 700.554688 366.007812 C 700.554688 361.875 700.34375 358.90625 699.921875 357.101562 C 699.8125 356.574219 699.65625 356.042969 699.441406 355.511719 C 699.230469 354.980469 698.859375 354.292969 698.328125 353.445312 C 697.800781 352.597656 697.003906 351.878906 695.945312 351.296875 C 694.882812 350.714844 693.636719 350.449219 692.207031 350.5 C 690.191406 350.5 688.46875 351.21875 687.039062 352.648438 C 685.925781 353.816406 685.210938 355.195312 684.890625 356.785156 C 684.574219 358.375 684.386719 361.160156 684.335938 365.132812 C 684.335938 369.535156 684.46875 372.503906 684.734375 374.042969 C 684.996094 375.578125 685.527344 376.824219 686.324219 377.78125 C 687.648438 379.582031 689.554688 380.484375 692.046875 380.484375 Z M 692.046875 380.484375 " fill-opacity="1" fill-rule="nonzero"/></svg>