<svg xmlns="http://www.w3.org/2000/svg" xmlns:xlink="http://www.w3.org/1999/xlink" width="1000" zoomAndPan="magnify" viewBox="0 0 750 749.999995" height="1000" preserveAspectRatio="xMidYMid meet" version="1.0"><rect x="-75" width="900" fill="#ffffff" y="-74.999999" height="899.999994" fill-opacity="1"/><rect x="-75" width="900" fill="#ffffff" y="-74.999999" height="899.999994" fill-opacity="1"/><path fill="#fefefe" d="M 604.773438 319.648438 C 604.773438 319.648438 609.015625 388.316406 609.015625 388.316406 C 610.417969 411.03125 587.324219 502.785156 528.921875 554.964844 C 474.851562 603.265625 385.488281 613.085938 378.367188 612.8125 C 194.703125 605.6875 139.894531 451.0625 139.175781 375.15625 C 138.433594 296.664062 177.667969 242.847656 256.242188 175.261719 C 389.804688 112.570312 487.203125 172.695312 487.203125 172.695312 C 545.058594 208.410156 371.953125 376.679688 371.953125 376.679688 Z M 604.773438 319.648438 " fill-opacity="1" fill-rule="nonzero"/><path fill="#6d5764" d="M 371.171875 379.597656 C 322.296875 291.074219 287.558594 225.757812 255.410156 179.058594 C 243.507812 161.769531 134.15625 278.746094 140.820312 380.507812 C 141.875 396.613281 161.277344 527.933594 258.65625 580.75 C 274.886719 589.554688 387.730469 637.4375 486.878906 582.210938 C 528.875 558.816406 615.855469 481.746094 610.851562 373.675781 C 604.527344 237.167969 483.96875 172.136719 483.96875 172.136719 Z M 371.171875 379.597656 " fill-opacity="1" fill-rule="nonzero"/><path fill="#000000" d="M 141.730469 375.230469 L 605.6875 372.71875 C 608.203125 372.707031 610.253906 374.734375 610.265625 377.25 C 610.28125 379.765625 608.253906 381.816406 605.738281 381.828125 L 141.78125 384.339844 C 139.265625 384.355469 137.214844 382.328125 137.199219 379.8125 C 137.1875 377.296875 139.214844 375.246094 141.730469 375.230469 Z M 141.730469 375.230469 " fill-opacity="1" fill-rule="nonzero"/><path fill="#000000" d="M 252.21875 578.40625 L 480.179688 170.535156 C 481.410156 168.339844 484.183594 167.554688 486.378906 168.78125 C 488.574219 170.007812 489.359375 172.785156 488.132812 174.980469 L 260.171875 582.851562 C 258.941406 585.046875 256.167969 585.832031 253.972656 584.605469 C 251.777344 583.378906 250.992188 580.605469 252.21875 578.40625 Z M 252.21875 578.40625 " fill-opacity="1" fill-rule="nonzero"/><path fill="#000000" d="M 260.378906 175.511719 L 491.867188 582.511719 C 493.109375 584.695312 492.347656 587.476562 490.160156 588.722656 C 487.972656 589.964844 485.191406 589.199219 483.949219 587.015625 L 252.460938 180.015625 C 251.21875 177.828125 251.980469 175.046875 254.167969 173.804688 C 256.355469 172.558594 259.136719 173.324219 260.378906 175.511719 Z M 260.378906 175.511719 " fill-opacity="1" fill-rule="nonzero"/><path fill="#000000" d="M 614.734375 378.925781 C 614.734375 511.21875 507.492188 618.460938 375.199219 618.460938 C 242.90625 618.460938 135.664062 511.21875 135.664062 378.925781 C 135.664062 246.636719 242.90625 139.390625 375.199219 139.390625 C 507.492188 139.390625 614.734375 246.636719 614.734375 378.925781 M 604.164062 378.925781 C 604.164062 252.472656 501.652344 149.964844 375.199219 149.964844 C 248.746094 149.964844 146.234375 252.472656 146.234375 378.925781 C 146.234375 505.378906 248.746094 607.890625 375.199219 607.890625 C 501.652344 607.890625 604.164062 505.378906 604.164062 378.925781 Z M 604.164062 378.925781 " fill-opacity="1" fill-rule="nonzero"/><path fill="#6d5764" d="M 505.679688 244.074219 C 505.746094 244.316406 505.777344 244.527344 505.777344 244.703125 C 505.84375 246.320312 505.84375 247.925781 505.777344 249.523438 C 505.734375 250.675781 505.101562 251.304688 503.882812 251.417969 C 503.441406 251.460938 502.765625 251.484375 501.855469 251.484375 L 497.667969 251.484375 C 496.316406 251.484375 495.164062 251.496094 494.210938 251.515625 C 493.480469 251.539062 492.980469 251.660156 492.714844 251.882812 C 492.449219 252.125 492.25 252.625 492.117188 253.378906 C 491.960938 254.351562 491.941406 255.230469 492.050781 256.003906 C 492.25 255.980469 492.484375 255.949219 492.75 255.90625 C 492.726562 255.328125 492.769531 254.730469 492.882812 254.109375 C 493.035156 253.265625 493.28125 252.703125 493.613281 252.414062 C 493.945312 252.105469 494.53125 251.9375 495.375 251.914062 C 495.332031 251.914062 497.734375 251.90625 502.589844 251.882812 C 503.808594 251.882812 504.605469 251.859375 504.980469 251.816406 C 505.976562 251.726562 506.5 251.230469 506.542969 250.320312 C 506.609375 248.726562 506.609375 247.117188 506.542969 245.5 C 506.519531 244.769531 506.234375 244.292969 505.683594 244.074219 Z M 494.808594 264.878906 C 493.921875 264.878906 493.304688 265.246094 492.949219 265.976562 C 492.792969 266.285156 492.59375 266.773438 492.351562 267.4375 C 492.21875 267.75 492.117188 267.992188 492.050781 268.171875 C 491.675781 269.125 491.019531 269.609375 490.089844 269.632812 C 489.292969 269.65625 488.570312 269.667969 487.929688 269.667969 C 487.199219 269.667969 486.457031 269.644531 485.703125 269.601562 C 485.945312 269.84375 486.277344 269.976562 486.699219 270 C 487.402344 270.039062 488.226562 270.058594 489.171875 270.058594 C 489.800781 270.058594 490.484375 270.050781 491.21875 270.03125 C 491.996094 270.007812 492.539062 269.609375 492.847656 268.835938 C 493.402344 267.394531 493.691406 266.652344 493.710938 266.609375 C 494.066406 265.875 494.632812 265.445312 495.40625 265.3125 L 495.375 265.3125 L 495.375 265.277344 C 495.308594 265.167969 495.21875 265.035156 495.109375 264.878906 Z M 491.285156 278.542969 C 491.351562 278.742188 491.410156 279.007812 491.453125 279.339844 C 491.519531 279.671875 491.574219 279.902344 491.617188 280.035156 C 491.664062 280.171875 491.71875 280.324219 491.785156 280.503906 C 491.984375 280.65625 492.171875 280.78125 492.351562 280.867188 C 491.972656 279.539062 491.730469 278.828125 491.617188 278.742188 C 491.507812 278.652344 491.398438 278.585938 491.289062 278.542969 Z M 490.929688 241.960938 C 488.253906 241.960938 486.457031 241.964844 485.535156 241.976562 C 484.339844 241.976562 483.585938 242.132812 483.277344 242.441406 C 482.964844 242.773438 482.808594 243.5625 482.808594 244.800781 C 482.789062 245.3125 482.777344 248.703125 482.777344 254.972656 C 482.777344 260.582031 482.777344 263.78125 482.777344 264.582031 C 482.777344 265.511719 482.808594 266.21875 482.875 266.707031 C 482.988281 267.59375 483.453125 268.058594 484.273438 268.105469 C 485.054688 268.132812 485.984375 268.148438 487.066406 268.148438 C 487.605469 268.148438 488.179688 268.144531 488.792969 268.136719 C 489.570312 268.113281 490.101562 267.703125 490.390625 266.90625 C 490.964844 265.488281 491.265625 264.746094 491.285156 264.679688 C 491.730469 263.792969 492.488281 263.347656 493.558594 263.347656 C 493.609375 263.347656 493.660156 263.347656 493.710938 263.351562 C 494.730469 263.417969 495.519531 263.925781 496.074219 264.878906 C 496.472656 265.566406 496.671875 266.429688 496.671875 267.472656 C 496.695312 270.75 496.695312 274.042969 496.671875 277.34375 C 496.671875 277.808594 496.636719 278.253906 496.570312 278.675781 C 496.394531 279.5625 496.007812 280.304688 495.40625 280.902344 C 494.832031 281.5 494.167969 281.820312 493.414062 281.863281 C 493.328125 281.871094 493.246094 281.875 493.164062 281.875 C 492.523438 281.875 491.921875 281.652344 491.351562 281.199219 C 490.710938 280.667969 490.246094 279.960938 489.957031 279.074219 C 489.445312 277.589844 489.191406 276.847656 489.191406 276.847656 C 488.90625 276.617188 488.558594 276.503906 488.140625 276.503906 C 488.074219 276.503906 488 276.507812 487.929688 276.511719 C 486.949219 276.640625 486.5 276.707031 486.585938 276.710938 C 486.390625 276.707031 486.199219 276.707031 486.015625 276.707031 C 485.253906 276.707031 484.5625 276.742188 483.941406 276.8125 C 483.121094 276.878906 482.554688 277.078125 482.246094 277.410156 C 481.933594 277.765625 481.78125 278.363281 481.78125 279.207031 C 481.78125 280.445312 482.023438 281.664062 482.511719 282.863281 C 483.972656 286.472656 486.3125 288.757812 489.523438 289.710938 C 490.71875 290.0625 491.902344 290.238281 493.070312 290.238281 C 494.703125 290.238281 496.3125 289.894531 497.902344 289.210938 C 499.054688 288.722656 500.082031 288.035156 500.992188 287.152344 C 503.40625 284.800781 504.636719 281.933594 504.683594 278.542969 C 504.75 275.484375 504.75 271.75 504.683594 267.339844 C 504.660156 265.210938 504.285156 263.207031 503.550781 261.324219 C 502.421875 258.375 500.273438 256.746094 497.101562 256.4375 C 496.660156 256.398438 496.226562 256.382812 495.804688 256.382812 C 494.957031 256.382812 494.148438 256.453125 493.378906 256.601562 C 492.695312 256.734375 492.25 256.800781 492.050781 256.800781 C 492.007812 256.804688 491.964844 256.804688 491.921875 256.804688 C 491.15625 256.804688 490.675781 256.417969 490.488281 255.640625 C 490.246094 254.664062 490.234375 253.523438 490.457031 252.214844 C 490.609375 251.371094 490.855469 250.796875 491.1875 250.488281 C 491.519531 250.199219 492.105469 250.042969 492.949219 250.019531 C 492.902344 250.019531 495.308594 250 500.160156 249.953125 C 501.359375 249.953125 502.15625 249.945312 502.554688 249.921875 C 503.550781 249.832031 504.074219 249.335938 504.117188 248.425781 C 504.183594 246.808594 504.183594 245.203125 504.117188 243.605469 C 504.074219 242.675781 503.585938 242.144531 502.65625 242.011719 C 502.367188 241.988281 502.011719 241.976562 501.589844 241.976562 C 497.160156 241.964844 493.605469 241.960938 490.929688 241.960938 Z M 504.257812 260.46875 C 504.652344 261.042969 504.972656 261.648438 505.214844 262.285156 C 505.96875 264.214844 506.355469 266.265625 506.378906 268.4375 C 506.421875 272.847656 506.421875 276.589844 506.378906 279.671875 C 506.3125 283.152344 505.035156 286.109375 502.554688 288.546875 C 501.625 289.453125 500.550781 290.175781 499.332031 290.707031 C 497.710938 291.394531 496.050781 291.738281 494.34375 291.738281 C 493.285156 291.738281 492.199219 291.582031 491.09375 291.273438 C 491.488281 291.449219 491.773438 291.558594 491.949219 291.605469 C 493.167969 291.960938 494.367188 292.136719 495.550781 292.136719 C 497.175781 292.136719 498.765625 291.804688 500.328125 291.140625 C 501.503906 290.628906 502.53125 289.941406 503.417969 289.078125 C 505.835938 286.707031 507.074219 283.835938 507.140625 280.46875 C 507.1875 277.390625 507.1875 273.644531 507.140625 269.234375 C 507.121094 267.128906 506.730469 265.125 505.976562 263.21875 C 505.558594 262.136719 504.988281 261.222656 504.261719 260.46875 Z M 504.285156 315.304688 C 505.703125 317.277344 506.34375 319.480469 506.210938 321.917969 C 506.121094 323.316406 505.390625 324.046875 504.015625 324.113281 C 503.53125 324.136719 502.964844 324.148438 502.320312 324.148438 L 499.597656 324.148438 C 499.945312 324.414062 500.421875 324.546875 501.019531 324.546875 C 501.0625 324.546875 501.109375 324.546875 501.160156 324.546875 L 503.152344 324.546875 C 503.425781 324.554688 503.683594 324.558594 503.921875 324.558594 C 504.398438 324.558594 504.808594 324.542969 505.148438 324.511719 C 505.789062 324.492188 506.246094 324.335938 506.511719 324.046875 C 506.777344 323.78125 506.921875 323.339844 506.941406 322.71875 C 507.097656 319.925781 506.246094 317.476562 504.382812 315.371094 C 504.359375 315.371094 504.351562 315.359375 504.351562 315.339844 C 504.328125 315.316406 504.308594 315.304688 504.285156 315.304688 Z M 494.902344 319.425781 C 494.285156 319.429688 493.734375 319.671875 493.246094 320.15625 C 492.78125 320.601562 492.460938 321.144531 492.285156 321.785156 C 491.839844 323.382812 491.75 325.277344 492.015625 327.472656 C 492.152344 327.449219 492.207031 327.4375 492.183594 327.4375 C 492.25 327.4375 492.328125 327.425781 492.417969 327.40625 C 492.550781 327.40625 492.628906 327.394531 492.648438 327.371094 C 492.492188 325.554688 492.628906 323.925781 493.046875 322.484375 C 493.246094 321.753906 493.601562 321.144531 494.113281 320.65625 C 494.445312 320.347656 494.820312 320.125 495.242188 319.992188 C 495.242188 319.96875 495.230469 319.9375 495.207031 319.890625 C 495.207031 319.847656 495.199219 319.824219 495.175781 319.824219 C 495.132812 319.714844 495.054688 319.59375 494.941406 319.460938 C 494.855469 319.4375 494.84375 319.425781 494.90625 319.425781 Z M 494.644531 336.113281 L 494.578125 336.378906 C 493.558594 336.421875 492.871094 336.910156 492.515625 337.839844 C 492.359375 338.285156 492.25 338.695312 492.183594 339.070312 C 491.785156 341.332031 491.742188 344.203125 492.050781 347.679688 C 492.09375 348.078125 492.195312 348.457031 492.351562 348.8125 C 492.527344 348.964844 492.726562 349.078125 492.949219 349.144531 C 492.859375 348.855469 492.816406 348.644531 492.816406 348.511719 C 492.503906 345.011719 492.550781 342.109375 492.949219 339.804688 C 493.015625 339.382812 493.125 338.949219 493.28125 338.507812 C 493.636719 337.597656 494.277344 337.054688 495.207031 336.878906 C 495.175781 336.8125 495.160156 336.777344 495.164062 336.773438 L 495.167969 336.773438 C 495.167969 336.773438 495.171875 336.773438 495.171875 336.773438 C 495.128906 336.6875 495.050781 336.566406 494.941406 336.414062 C 494.675781 336.390625 494.589844 336.378906 494.675781 336.378906 L 494.675781 336.144531 C 494.675781 336.144531 494.664062 336.136719 494.644531 336.113281 Z M 493.386719 334.882812 C 494.546875 334.882812 495.375 335.402344 495.875 336.445312 C 496.292969 337.289062 496.515625 338.230469 496.539062 339.269531 C 496.539062 339.425781 496.539062 340.488281 496.539062 342.460938 C 496.539062 344.746094 496.539062 345.984375 496.539062 346.183594 C 496.492188 347.449219 496.039062 348.46875 495.175781 349.242188 C 494.621094 349.757812 494.03125 350.011719 493.398438 350.011719 C 493.347656 350.011719 493.296875 350.011719 493.246094 350.007812 C 492.582031 349.964844 491.972656 349.640625 491.417969 349.042969 C 490.820312 348.378906 490.476562 347.570312 490.390625 346.617188 C 490.078125 343.117188 490.121094 340.210938 490.523438 337.910156 C 490.589844 337.488281 490.699219 337.054688 490.855469 336.613281 C 491.273438 335.503906 492.09375 334.925781 493.3125 334.882812 C 493.339844 334.882812 493.363281 334.882812 493.386719 334.882812 Z M 493.746094 309.851562 C 490.488281 309.851562 487.785156 310.949219 485.636719 313.144531 C 483.730469 315.117188 482.765625 317.519531 482.742188 320.355469 C 482.742188 321.175781 482.742188 325.699219 482.742188 333.917969 C 482.742188 342.117188 482.742188 346.726562 482.742188 347.746094 C 482.765625 350.761719 483.839844 353.296875 485.96875 355.359375 C 487.964844 357.316406 490.550781 358.292969 493.726562 358.292969 C 493.898438 358.292969 494.070312 358.289062 494.246094 358.285156 C 497.101562 358.195312 499.507812 357.199219 501.457031 355.292969 C 503.40625 353.386719 504.425781 351.003906 504.515625 348.144531 C 504.558594 347.015625 504.570312 343.292969 504.550781 336.976562 C 504.527344 335.269531 504.027344 333.597656 503.054688 331.957031 C 501.503906 329.386719 499.332031 328.070312 496.539062 328.003906 C 496.261719 327.996094 495.984375 327.992188 495.714844 327.992188 C 494.5 327.992188 493.367188 328.070312 492.316406 328.234375 C 492.160156 328.261719 492.011719 328.273438 491.871094 328.273438 C 491.039062 328.273438 490.554688 327.816406 490.421875 326.90625 C 490.046875 324.492188 490.113281 322.386719 490.621094 320.589844 C 490.820312 319.859375 491.175781 319.25 491.683594 318.761719 C 492.277344 318.207031 492.914062 317.929688 493.597656 317.929688 C 493.734375 317.929688 493.871094 317.941406 494.011719 317.964844 C 494.832031 318.097656 495.464844 318.59375 495.90625 319.460938 C 496.128906 319.925781 496.292969 320.425781 496.40625 320.957031 C 496.660156 322.085938 497.390625 322.652344 498.59375 322.652344 C 498.640625 322.652344 498.683594 322.652344 498.730469 322.652344 L 500.726562 322.652344 C 501.546875 322.652344 502.210938 322.640625 502.722656 322.617188 C 503.363281 322.59375 503.816406 322.441406 504.082031 322.152344 C 504.351562 321.886719 504.492188 321.441406 504.515625 320.824219 C 504.671875 318.03125 503.816406 315.582031 501.957031 313.476562 C 499.828125 311.0625 497.09375 309.851562 493.746094 309.851562 Z M 504.226562 332.203125 C 504.441406 332.507812 504.582031 332.722656 504.648438 332.855469 C 505.691406 334.539062 506.210938 336.28125 506.210938 338.074219 C 506.210938 338.5625 506.222656 339.535156 506.246094 341 C 506.265625 344.65625 506.246094 347.414062 506.179688 349.277344 C 506.089844 352.222656 505.035156 354.683594 503.019531 356.65625 C 501.003906 358.648438 498.5 359.691406 495.507812 359.78125 L 494.941406 359.78125 C 493.792969 359.78125 492.710938 359.660156 491.691406 359.417969 C 493 359.933594 494.46875 360.191406 496.101562 360.191406 C 496.289062 360.191406 496.480469 360.1875 496.671875 360.179688 C 499.53125 360.089844 501.921875 359.09375 503.851562 357.1875 C 505.824219 355.28125 506.855469 352.898438 506.941406 350.039062 C 506.988281 348.953125 506.988281 345.242188 506.941406 338.90625 C 506.941406 337.175781 506.453125 335.492188 505.480469 333.851562 C 505.105469 333.238281 504.691406 332.6875 504.230469 332.203125 Z M 504.226562 332.203125 " fill-opacity="1" fill-rule="nonzero"/><path fill="#6d5764" d="M 469.1875 295.722656 C 468.058594 295.765625 467.40625 296.042969 467.222656 296.5625 C 467.515625 296.472656 467.933594 296.417969 468.472656 296.398438 C 468.632812 296.398438 468.878906 296.398438 469.21875 296.402344 L 482.570312 296.457031 C 500.167969 296.53125 513.363281 296.585938 522.152344 296.621094 C 523.84375 296.628906 524.878906 296.824219 525.261719 297.210938 C 525.640625 297.617188 525.828125 298.6875 525.820312 300.421875 L 525.820312 300.761719 C 525.816406 301.503906 525.792969 302.136719 525.746094 302.65625 C 525.949219 302.453125 526.074219 302.160156 526.121094 301.777344 C 526.167969 301.238281 526.195312 300.4375 526.199219 299.378906 C 526.207031 297.753906 526.050781 296.785156 525.738281 296.46875 C 525.421875 296.128906 524.476562 295.957031 522.898438 295.949219 C 517.875 295.929688 500.285156 295.855469 470.132812 295.726562 C 469.636719 295.726562 469.320312 295.726562 469.1875 295.722656 Z M 467.488281 297.878906 C 466.585938 297.921875 466.011719 298.066406 465.761719 298.3125 C 465.488281 298.558594 465.328125 299.109375 465.28125 299.96875 C 465.28125 300.191406 465.277344 300.746094 465.273438 301.625 C 465.265625 303.292969 465.398438 304.273438 465.667969 304.566406 C 465.957031 304.859375 466.917969 305.011719 468.539062 305.019531 L 520.800781 305.238281 C 520.898438 305.238281 520.996094 305.238281 521.089844 305.238281 C 522.007812 305.238281 522.710938 305.21875 523.199219 305.179688 C 523.921875 305.09375 524.316406 304.675781 524.386719 303.933594 C 524.457031 303.394531 524.496094 302.605469 524.5 301.566406 C 524.484375 299.945312 524.316406 298.964844 524.003906 298.625 C 523.691406 298.285156 522.746094 298.113281 521.167969 298.105469 C 515.308594 298.082031 497.730469 298.007812 468.433594 297.882812 C 467.9375 297.882812 467.621094 297.882812 467.488281 297.878906 Z M 467.488281 297.878906 " fill-opacity="1" fill-rule="nonzero"/></svg>