<svg xmlns="http://www.w3.org/2000/svg" xmlns:xlink="http://www.w3.org/1999/xlink" width="1000" zoomAndPan="magnify" viewBox="0 0 750 749.999995" height="1000" preserveAspectRatio="xMidYMid meet" version="1.0"><defs><clipPath id="7474c5c1d9"><path d="M 142 149 L 612 149 L 612 610 L 142 610 Z M 142 149 " clip-rule="nonzero"/></clipPath><clipPath id="bf6b72e999"><path d="M 25.949219 446.246094 L 273.941406 33.519531 L 723.953125 303.914062 L 475.960938 716.640625 Z M 25.949219 446.246094 " clip-rule="nonzero"/></clipPath><clipPath id="4a67137daf"><path d="M 25.949219 446.246094 L 273.941406 33.519531 L 723.953125 303.914062 L 475.960938 716.640625 Z M 25.949219 446.246094 " clip-rule="nonzero"/></clipPath><clipPath id="2965efc428"><path d="M 140 144 L 611 144 L 611 607 L 140 607 Z M 140 144 " clip-rule="nonzero"/></clipPath><clipPath id="96f22e5469"><path d="M 25.949219 446.246094 L 273.941406 33.519531 L 723.953125 303.914062 L 475.960938 716.640625 Z M 25.949219 446.246094 " clip-rule="nonzero"/></clipPath><clipPath id="e61656e2b2"><path d="M 25.949219 446.246094 L 273.941406 33.519531 L 723.953125 303.914062 L 475.960938 716.640625 Z M 25.949219 446.246094 " clip-rule="nonzero"/></clipPath><clipPath id="86d88361b7"><path d="M 254 173 L 501 173 L 501 582 L 254 582 Z M 254 173 " clip-rule="nonzero"/></clipPath><clipPath id="54e7d78e1f"><path d="M 25.949219 446.246094 L 273.941406 33.519531 L 723.953125 303.914062 L 475.960938 716.640625 Z M 25.949219 446.246094 " clip-rule="nonzero"/></clipPath><clipPath id="8908745fe9"><path d="M 25.949219 446.246094 L 273.941406 33.519531 L 723.953125 303.914062 L 475.960938 716.640625 Z M 25.949219 446.246094 " clip-rule="nonzero"/></clipPath><clipPath id="9f85251b9f"><path d="M 253 172 L 495 172 L 495 588 L 253 588 Z M 253 172 " clip-rule="nonzero"/></clipPath><clipPath id="c6d46105ed"><path d="M 25.949219 446.246094 L 273.941406 33.519531 L 723.953125 303.914062 L 475.960938 716.640625 Z M 25.949219 446.246094 " clip-rule="nonzero"/></clipPath><clipPath id="6f14d41ed4"><path d="M 25.949219 446.246094 L 273.941406 33.519531 L 723.953125 303.914062 L 475.960938 716.640625 Z M 25.949219 446.246094 " clip-rule="nonzero"/></clipPath><clipPath id="c01c4ab708"><path d="M 140 370 L 618 370 L 618 391 L 140 391 Z M 140 370 " clip-rule="nonzero"/></clipPath><clipPath id="4ebf4f514a"><path d="M 25.949219 446.246094 L 273.941406 33.519531 L 723.953125 303.914062 L 475.960938 716.640625 Z M 25.949219 446.246094 " clip-rule="nonzero"/></clipPath><clipPath id="7f1fe4d296"><path d="M 25.949219 446.246094 L 273.941406 33.519531 L 723.953125 303.914062 L 475.960938 716.640625 Z M 25.949219 446.246094 " clip-rule="nonzero"/></clipPath><clipPath id="c207919812"><path d="M 138 137 L 619 137 L 619 617 L 138 617 Z M 138 137 " clip-rule="nonzero"/></clipPath><clipPath id="b787bff921"><path d="M 25.949219 446.246094 L 273.941406 33.519531 L 723.953125 303.914062 L 475.960938 716.640625 Z M 25.949219 446.246094 " clip-rule="nonzero"/></clipPath><clipPath id="39606bd200"><path d="M 25.949219 446.246094 L 273.941406 33.519531 L 723.953125 303.914062 L 475.960938 716.640625 Z M 25.949219 446.246094 " clip-rule="nonzero"/></clipPath><clipPath id="e35e62aec8"><path d="M 317 195 L 427 195 L 427 271 L 317 271 Z M 317 195 " clip-rule="nonzero"/></clipPath><clipPath id="8845bf2760"><path d="M 25.949219 446.246094 L 273.941406 33.519531 L 723.953125 303.914062 L 475.960938 716.640625 Z M 25.949219 446.246094 " clip-rule="nonzero"/></clipPath><clipPath id="e6e54c5b71"><path d="M 25.949219 446.246094 L 273.941406 33.519531 L 723.953125 303.914062 L 475.960938 716.640625 Z M 25.949219 446.246094 " clip-rule="nonzero"/></clipPath><clipPath id="bf7618f192"><path d="M 355 205 L 392 205 L 392 262 L 355 262 Z M 355 205 " clip-rule="nonzero"/></clipPath><clipPath id="cab1ffcbae"><path d="M 25.949219 446.246094 L 273.941406 33.519531 L 723.953125 303.914062 L 475.960938 716.640625 Z M 25.949219 446.246094 " clip-rule="nonzero"/></clipPath><clipPath id="0a5a629992"><path d="M 25.949219 446.246094 L 273.941406 33.519531 L 723.953125 303.914062 L 475.960938 716.640625 Z M 25.949219 446.246094 " clip-rule="nonzero"/></clipPath></defs><rect x="-75" width="900" fill="#ffffff" y="-74.999999" height="899.999994" fill-opacity="1"/><rect x="-75" width="900" fill="#ffffff" y="-74.999999" height="899.999994" fill-opacity="1"/><g clip-path="url(#7474c5c1d9)"><g clip-path="url(#bf6b72e999)"><g clip-path="url(#4a67137daf)"><path fill="#fefefe" d="M 445.898438 149.535156 C 445.898438 149.535156 506.941406 181.269531 506.941406 181.269531 C 527.136719 191.765625 593.890625 258.816406 608.535156 335.753906 C 622.089844 406.976562 584.484375 488.632812 580.578125 494.597656 C 479.875 648.355469 319.109375 615.703125 253.675781 577.222656 C 186.011719 537.429688 160.089844 476.082031 142.625 373.921875 C 157.679688 227.148438 259.382812 174.628906 259.382812 174.628906 C 319.792969 143.433594 374.871094 378.476562 374.871094 378.476562 Z M 445.898438 149.535156 " fill-opacity="1" fill-rule="nonzero"/></g></g></g><g clip-path="url(#2965efc428)"><g clip-path="url(#96f22e5469)"><g clip-path="url(#e61656e2b2)"><path fill="#6d5764" d="M 376.96875 380.648438 C 275.917969 376.949219 202.039062 373.085938 145.453125 376.589844 C 124.503906 377.886719 168.449219 531.867188 259.109375 578.566406 C 273.457031 585.957031 396.015625 636.960938 491.441406 580.695312 C 507.347656 571.316406 606.511719 499.253906 610.234375 385.824219 C 611.8125 337.777344 590.550781 223.523438 495.339844 172.15625 C 375.070312 107.269531 257.234375 177.113281 257.234375 177.113281 Z M 376.96875 380.648438 " fill-opacity="1" fill-rule="nonzero"/></g></g></g><g clip-path="url(#86d88361b7)"><g clip-path="url(#54e7d78e1f)"><g clip-path="url(#8908745fe9)"><path fill="#000000" d="M 255.054688 575.070312 L 491.859375 176.089844 C 493.140625 173.925781 495.9375 173.210938 498.101562 174.496094 C 500.261719 175.78125 500.976562 178.574219 499.691406 180.738281 L 262.890625 579.71875 C 261.605469 581.882812 258.8125 582.59375 256.648438 581.3125 C 254.484375 580.027344 253.773438 577.234375 255.054688 575.070312 Z M 255.054688 575.070312 " fill-opacity="1" fill-rule="nonzero"/></g></g></g><g clip-path="url(#9f85251b9f)"><g clip-path="url(#c6d46105ed)"><g clip-path="url(#6f14d41ed4)"><path fill="#000000" d="M 486.117188 585.007812 L 253.910156 179.535156 C 252.660156 177.351562 253.417969 174.566406 255.601562 173.316406 C 257.785156 172.066406 260.566406 172.824219 261.816406 175.007812 L 494.023438 580.480469 C 495.273438 582.664062 494.515625 585.445312 492.332031 586.695312 C 490.152344 587.945312 487.367188 587.191406 486.117188 585.007812 Z M 486.117188 585.007812 " fill-opacity="1" fill-rule="nonzero"/></g></g></g><g clip-path="url(#c01c4ab708)"><g clip-path="url(#4ebf4f514a)"><g clip-path="url(#7f1fe4d296)"><path fill="#000000" d="M 144.972656 370.503906 L 613.0625 381.699219 C 615.578125 381.761719 617.566406 383.847656 617.507812 386.363281 C 617.445312 388.878906 615.359375 390.867188 612.84375 390.808594 L 144.753906 379.609375 C 142.238281 379.550781 140.25 377.464844 140.308594 374.949219 C 140.367188 372.433594 142.457031 370.445312 144.972656 370.503906 Z M 144.972656 370.503906 " fill-opacity="1" fill-rule="nonzero"/></g></g></g><g clip-path="url(#c207919812)"><g clip-path="url(#b787bff921)"><g clip-path="url(#39606bd200)"><path fill="#000000" d="M 501.839844 171.53125 C 615.234375 239.664062 651.925781 386.824219 583.789062 500.222656 C 515.65625 613.617188 368.496094 650.308594 255.097656 582.171875 C 141.703125 514.039062 105.011719 366.878906 173.148438 253.480469 C 241.28125 140.085938 388.441406 103.394531 501.839844 171.53125 M 496.394531 180.589844 C 388.003906 115.464844 247.335938 150.535156 182.207031 258.925781 C 117.082031 367.316406 152.152344 507.984375 260.542969 573.113281 C 368.933594 638.238281 509.601562 603.167969 574.730469 494.777344 C 639.855469 386.386719 604.785156 245.71875 496.394531 180.589844 Z M 496.394531 180.589844 " fill-opacity="1" fill-rule="nonzero"/></g></g></g><g clip-path="url(#e35e62aec8)"><g clip-path="url(#8845bf2760)"><g clip-path="url(#e6e54c5b71)"><path fill="#6d5764" d="M 330.078125 195.554688 C 330.320312 195.621094 330.519531 195.703125 330.667969 195.792969 C 332.089844 196.570312 333.46875 197.394531 334.800781 198.273438 C 335.765625 198.90625 335.980469 199.773438 335.449219 200.875 C 335.257812 201.277344 334.929688 201.867188 334.460938 202.648438 L 332.304688 206.238281 C 331.609375 207.394531 331.023438 208.390625 330.554688 209.21875 C 330.195312 209.855469 330.042969 210.347656 330.097656 210.6875 C 330.167969 211.042969 330.492188 211.46875 331.070312 211.972656 C 331.824219 212.605469 332.566406 213.074219 333.285156 213.378906 C 333.371094 213.199219 333.460938 212.980469 333.5625 212.730469 C 333.054688 212.453125 332.566406 212.105469 332.089844 211.691406 C 331.449219 211.125 331.089844 210.625 331.015625 210.191406 C 330.917969 209.746094 331.078125 209.160156 331.492188 208.425781 C 331.472656 208.464844 332.699219 206.398438 335.179688 202.226562 C 335.808594 201.179688 336.199219 200.484375 336.355469 200.140625 C 336.792969 199.238281 336.632812 198.535156 335.878906 198.03125 C 334.546875 197.152344 333.167969 196.324219 331.746094 195.546875 C 331.109375 195.191406 330.554688 195.191406 330.078125 195.550781 Z M 342.316406 215.585938 C 341.859375 216.347656 341.851562 217.066406 342.296875 217.746094 C 342.484375 218.039062 342.796875 218.460938 343.242188 219.011719 C 343.441406 219.289062 343.597656 219.5 343.714844 219.644531 C 344.335938 220.460938 344.417969 221.273438 343.957031 222.082031 C 343.566406 222.777344 343.203125 223.398438 342.875 223.949219 C 342.496094 224.574219 342.097656 225.199219 341.671875 225.820312 L 341.671875 225.824219 C 342.003906 225.742188 342.289062 225.523438 342.527344 225.175781 C 342.921875 224.59375 343.363281 223.894531 343.851562 223.085938 C 344.175781 222.546875 344.519531 221.957031 344.882812 221.316406 C 345.261719 220.640625 345.199219 219.96875 344.695312 219.304688 C 343.746094 218.089844 343.257812 217.460938 343.230469 217.417969 C 342.789062 216.738281 342.707031 216.03125 342.992188 215.296875 L 342.976562 215.324219 L 342.949219 215.308594 C 342.820312 215.308594 342.660156 215.316406 342.46875 215.332031 Z M 352.210938 225.644531 C 352.417969 225.6875 352.671875 225.777344 352.980469 225.910156 C 353.300781 226.027344 353.527344 226.097656 353.664062 226.128906 C 353.800781 226.160156 353.960938 226.191406 354.148438 226.226562 C 354.382812 226.136719 354.585938 226.035156 354.753906 225.929688 C 353.417969 225.566406 352.6875 225.410156 352.554688 225.460938 C 352.421875 225.511719 352.308594 225.570312 352.214844 225.640625 Z M 320.671875 207.109375 C 319.292969 209.402344 318.371094 210.945312 317.90625 211.742188 C 317.289062 212.765625 317.035156 213.492188 317.140625 213.917969 C 317.265625 214.355469 317.863281 214.894531 318.925781 215.53125 C 319.351562 215.8125 322.25 217.570312 327.625 220.800781 C 332.433594 223.6875 335.175781 225.335938 335.859375 225.746094 C 336.660156 226.226562 337.285156 226.5625 337.734375 226.757812 C 338.554688 227.117188 339.191406 226.960938 339.652344 226.28125 C 340.082031 225.625 340.574219 224.832031 341.128906 223.910156 C 341.40625 223.445312 341.699219 222.949219 342.007812 222.421875 C 342.390625 221.746094 342.3125 221.078125 341.777344 220.421875 C 340.855469 219.195312 340.375 218.558594 340.328125 218.503906 C 339.796875 217.664062 339.804688 216.789062 340.355469 215.871094 C 340.382812 215.828125 340.410156 215.785156 340.4375 215.738281 C 341.019531 214.898438 341.863281 214.488281 342.964844 214.503906 C 343.761719 214.515625 344.601562 214.789062 345.496094 215.328125 C 348.320312 216.996094 351.140625 218.691406 353.957031 220.410156 C 354.355469 220.652344 354.71875 220.90625 355.046875 221.179688 C 355.714844 221.789062 356.152344 222.503906 356.355469 223.324219 C 356.574219 224.128906 356.503906 224.863281 356.15625 225.53125 C 356.117188 225.609375 356.078125 225.683594 356.035156 225.753906 C 355.707031 226.300781 355.203125 226.699219 354.523438 226.957031 C 353.738281 227.234375 352.890625 227.265625 351.980469 227.058594 C 350.445312 226.730469 349.679688 226.566406 349.679688 226.566406 C 349.335938 226.691406 349.058594 226.933594 348.84375 227.289062 C 348.808594 227.347656 348.777344 227.410156 348.742188 227.476562 C 348.347656 228.382812 348.175781 228.800781 348.222656 228.730469 C 348.117188 228.894531 348.019531 229.058594 347.921875 229.21875 C 347.53125 229.871094 347.203125 230.480469 346.945312 231.050781 C 346.582031 231.785156 346.460938 232.375 346.585938 232.8125 C 346.730469 233.257812 347.164062 233.699219 347.882812 234.132812 C 348.949219 234.773438 350.117188 235.191406 351.394531 235.390625 C 355.246094 235.996094 358.40625 235.167969 360.875 232.90625 C 361.792969 232.0625 362.550781 231.140625 363.15625 230.136719 C 363.996094 228.738281 364.53125 227.183594 364.761719 225.46875 C 364.9375 224.230469 364.882812 222.992188 364.589844 221.757812 C 363.820312 218.476562 361.992188 215.945312 359.109375 214.160156 C 356.523438 212.527344 353.324219 210.605469 349.507812 208.390625 C 347.671875 207.316406 345.761719 206.605469 343.769531 206.261719 C 340.660156 205.710938 338.15625 206.714844 336.257812 209.273438 C 336 209.632812 335.761719 209.996094 335.542969 210.359375 C 335.105469 211.085938 334.753906 211.8125 334.484375 212.550781 C 334.246094 213.207031 334.074219 213.621094 333.96875 213.792969 C 333.949219 213.828125 333.929688 213.867188 333.90625 213.902344 C 333.511719 214.558594 332.933594 214.769531 332.167969 214.53125 C 331.207031 214.238281 330.222656 213.660156 329.214844 212.796875 C 328.574219 212.230469 328.207031 211.722656 328.113281 211.28125 C 328.035156 210.847656 328.207031 210.261719 328.621094 209.53125 C 328.597656 209.566406 329.816406 207.496094 332.277344 203.3125 C 332.894531 202.285156 333.296875 201.597656 333.480469 201.242188 C 333.921875 200.34375 333.761719 199.640625 333.003906 199.132812 C 331.652344 198.246094 330.273438 197.417969 328.875 196.652344 C 328.054688 196.210938 327.347656 196.355469 326.753906 197.082031 C 326.585938 197.320312 326.394531 197.617188 326.175781 197.980469 C 323.882812 201.773438 322.050781 204.816406 320.671875 207.109375 Z M 343.402344 205.21875 C 344.097656 205.171875 344.777344 205.210938 345.449219 205.332031 C 347.492188 205.679688 349.449219 206.402344 351.320312 207.503906 C 355.125 209.738281 358.335938 211.664062 360.953125 213.289062 C 363.898438 215.136719 365.78125 217.753906 366.589844 221.136719 C 366.890625 222.402344 366.953125 223.695312 366.78125 225.015625 C 366.539062 226.753906 365.976562 228.355469 365.097656 229.820312 C 364.550781 230.726562 363.859375 231.578125 363.027344 232.367188 L 363.023438 232.367188 C 363.378906 232.117188 363.621094 231.929688 363.75 231.800781 C 364.683594 230.941406 365.453125 230.003906 366.0625 228.988281 C 366.898438 227.597656 367.433594 226.0625 367.664062 224.382812 C 367.832031 223.113281 367.777344 221.875 367.492188 220.671875 C 366.703125 217.378906 364.882812 214.835938 362.03125 213.046875 C 359.410156 211.421875 356.203125 209.492188 352.398438 207.257812 C 350.582031 206.195312 348.664062 205.492188 346.644531 205.15625 C 345.5 204.960938 344.421875 204.980469 343.402344 205.214844 Z M 390.417969 233.4375 C 392.839844 233.238281 395.058594 233.824219 397.082031 235.191406 C 398.230469 235.988281 398.480469 236.988281 397.832031 238.203125 C 397.597656 238.632812 397.316406 239.121094 396.984375 239.671875 L 395.582031 242.007812 C 395.992188 241.847656 396.351562 241.507812 396.660156 240.996094 C 396.683594 240.957031 396.707031 240.917969 396.730469 240.875 L 397.757812 239.164062 C 397.902344 238.933594 398.039062 238.71875 398.160156 238.511719 C 398.40625 238.101562 398.605469 237.746094 398.753906 237.4375 C 399.066406 236.875 399.167969 236.40625 399.058594 236.03125 C 398.964844 235.667969 398.660156 235.3125 398.140625 234.976562 C 395.828125 233.40625 393.289062 232.875 390.527344 233.386719 C 390.515625 233.40625 390.5 233.410156 390.480469 233.398438 C 390.449219 233.40625 390.429688 233.417969 390.417969 233.433594 Z M 389.121094 243.601562 C 388.800781 244.128906 388.726562 244.730469 388.894531 245.394531 C 389.035156 246.023438 389.332031 246.578125 389.792969 247.0625 C 390.933594 248.261719 392.511719 249.316406 394.527344 250.21875 C 394.578125 250.089844 394.597656 250.039062 394.585938 250.058594 C 394.621094 250 394.648438 249.929688 394.675781 249.839844 C 394.746094 249.726562 394.777344 249.65625 394.769531 249.625 C 393.128906 248.820312 391.804688 247.867188 390.785156 246.765625 C 390.261719 246.21875 389.921875 245.601562 389.765625 244.914062 C 389.671875 244.46875 389.675781 244.03125 389.777344 243.601562 C 389.757812 243.589844 389.726562 243.582031 389.675781 243.578125 C 389.636719 243.554688 389.613281 243.554688 389.601562 243.574219 C 389.484375 243.554688 389.339844 243.558594 389.167969 243.582031 C 389.105469 243.648438 389.089844 243.652344 389.121094 243.597656 Z M 403.289062 252.417969 L 403.480469 252.609375 C 402.996094 253.507812 403.058594 254.347656 403.675781 255.132812 C 403.972656 255.492188 404.269531 255.796875 404.558594 256.050781 C 406.289062 257.554688 408.726562 259.070312 411.867188 260.597656 C 412.234375 260.765625 412.609375 260.875 412.992188 260.921875 C 413.214844 260.851562 413.414062 260.738281 413.585938 260.582031 C 413.292969 260.507812 413.089844 260.4375 412.976562 260.371094 C 409.8125 258.832031 407.347656 257.300781 405.578125 255.769531 C 405.25 255.496094 404.9375 255.179688 404.636719 254.816406 C 404.042969 254.046875 403.90625 253.214844 404.234375 252.328125 C 404.160156 252.320312 404.125 252.316406 404.121094 252.308594 L 404.125 252.308594 C 404.125 252.304688 404.125 252.304688 404.128906 252.304688 C 404.03125 252.296875 403.886719 252.300781 403.699219 252.316406 C 403.542969 252.53125 403.488281 252.601562 403.535156 252.527344 L 403.335938 252.40625 C 403.335938 252.40625 403.320312 252.410156 403.289062 252.417969 Z M 401.585938 252.859375 C 402.183594 251.867188 403.058594 251.425781 404.207031 251.535156 C 405.144531 251.605469 406.066406 251.902344 406.972656 252.417969 C 407.105469 252.5 408.015625 253.046875 409.707031 254.0625 C 411.664062 255.238281 412.726562 255.878906 412.898438 255.980469 C 413.957031 256.667969 414.597656 257.582031 414.816406 258.722656 C 414.972656 259.460938 414.886719 260.101562 414.5625 260.640625 C 414.535156 260.6875 414.507812 260.726562 414.480469 260.769531 C 414.097656 261.316406 413.507812 261.675781 412.710938 261.839844 C 411.832031 262.011719 410.964844 261.890625 410.101562 261.472656 C 406.941406 259.9375 404.472656 258.402344 402.703125 256.875 C 402.378906 256.601562 402.0625 256.285156 401.765625 255.921875 C 401.03125 254.992188 400.960938 253.992188 401.550781 252.921875 C 401.5625 252.902344 401.574219 252.882812 401.585938 252.859375 Z M 380.316406 239.660156 C 378.640625 242.453125 378.1875 245.335938 378.960938 248.308594 C 379.667969 250.957031 381.234375 253.023438 383.652344 254.503906 C 384.355469 254.925781 388.230469 257.253906 395.277344 261.488281 C 402.308594 265.710938 406.257812 268.085938 407.132812 268.609375 C 409.726562 270.144531 412.457031 270.527344 415.316406 269.765625 C 418.023438 269.0625 420.191406 267.347656 421.828125 264.625 C 421.917969 264.480469 422.003906 264.332031 422.085938 264.179688 C 423.484375 261.683594 423.867188 259.109375 423.238281 256.453125 C 422.609375 253.800781 421.09375 251.699219 418.6875 250.152344 C 417.742188 249.53125 414.554688 247.605469 409.132812 244.371094 C 407.65625 243.511719 405.964844 243.078125 404.058594 243.070312 C 401.054688 243.074219 398.808594 244.257812 397.3125 246.617188 C 397.164062 246.851562 397.019531 247.082031 396.878906 247.3125 C 396.253906 248.355469 395.738281 249.367188 395.335938 250.355469 C 395.277344 250.503906 395.210938 250.636719 395.140625 250.757812 C 394.710938 251.46875 394.070312 251.648438 393.222656 251.292969 C 390.957031 250.371094 389.1875 249.230469 387.910156 247.871094 C 387.386719 247.320312 387.046875 246.703125 386.890625 246.015625 C 386.722656 245.226562 386.8125 244.535156 387.164062 243.949219 C 387.234375 243.832031 387.316406 243.71875 387.40625 243.609375 C 387.941406 242.976562 388.695312 242.691406 389.664062 242.757812 C 390.175781 242.808594 390.691406 242.921875 391.203125 243.101562 C 392.304688 243.464844 393.167969 243.128906 393.785156 242.097656 C 393.808594 242.058594 393.832031 242.019531 393.855469 241.980469 L 394.882812 240.269531 C 395.304688 239.566406 395.636719 238.992188 395.878906 238.542969 C 396.191406 237.980469 396.292969 237.511719 396.183594 237.136719 C 396.09375 236.769531 395.789062 236.417969 395.265625 236.078125 C 392.953125 234.507812 390.414062 233.980469 387.652344 234.492188 C 384.484375 235.070312 382.039062 236.792969 380.316406 239.660156 Z M 404.871094 242.191406 C 405.246094 242.160156 405.503906 242.152344 405.648438 242.164062 C 407.628906 242.136719 409.390625 242.585938 410.925781 243.511719 C 411.34375 243.761719 412.1875 244.253906 413.453125 244.988281 C 416.597656 246.855469 418.949219 248.292969 420.511719 249.308594 C 422.992188 250.902344 424.558594 253.074219 425.210938 255.816406 C 425.882812 258.574219 425.484375 261.257812 424.019531 263.867188 L 423.730469 264.351562 C 423.136719 265.335938 422.476562 266.203125 421.742188 266.949219 L 421.742188 266.953125 C 422.859375 266.09375 423.835938 264.964844 424.675781 263.570312 C 424.773438 263.40625 424.867188 263.242188 424.960938 263.074219 C 426.359375 260.578125 426.734375 258.011719 426.09375 255.378906 C 425.476562 252.707031 423.964844 250.597656 421.5625 249.046875 C 420.652344 248.449219 417.472656 246.539062 412.015625 243.3125 C 410.535156 242.421875 408.839844 241.972656 406.933594 241.964844 C 406.210938 241.96875 405.527344 242.042969 404.875 242.1875 Z M 404.871094 242.191406 " fill-opacity="1" fill-rule="nonzero"/></g></g></g><g clip-path="url(#bf7618f192)"><g clip-path="url(#cab1ffcbae)"><g clip-path="url(#0a5a629992)"><path fill="#6d5764" d="M 355.558594 253.4375 C 355.011719 254.421875 354.914062 255.128906 355.261719 255.550781 C 355.335938 255.253906 355.503906 254.867188 355.765625 254.394531 C 355.847656 254.257812 355.976562 254.046875 356.152344 253.757812 L 363.078125 242.34375 C 372.207031 227.292969 379.046875 216.011719 383.605469 208.496094 C 384.484375 207.050781 385.183594 206.265625 385.710938 206.136719 C 386.257812 206.019531 387.269531 206.410156 388.753906 207.308594 L 389.042969 207.484375 C 389.679688 207.871094 390.207031 208.21875 390.628906 208.523438 C 390.558594 208.246094 390.371094 207.988281 390.070312 207.75 C 389.628906 207.433594 388.957031 207 388.050781 206.449219 C 386.664062 205.609375 385.753906 205.238281 385.320312 205.347656 C 384.867188 205.441406 384.234375 206.160156 383.414062 207.511719 C 380.808594 211.808594 371.6875 226.847656 356.046875 252.628906 C 355.789062 253.050781 355.628906 253.320312 355.558594 253.4375 Z M 356.53125 256.003906 C 356.101562 256.796875 355.929688 257.367188 356.011719 257.707031 C 356.082031 258.066406 356.472656 258.488281 357.183594 258.96875 C 357.375 259.085938 357.847656 259.371094 358.597656 259.828125 C 360.023438 260.691406 360.933594 261.085938 361.324219 261.007812 C 361.726562 260.910156 362.347656 260.164062 363.191406 258.777344 L 390.292969 214.09375 C 390.34375 214.011719 390.394531 213.925781 390.445312 213.84375 C 390.914062 213.0625 391.261719 212.449219 391.480469 212.007812 C 391.777344 211.34375 391.625 210.792969 391.023438 210.347656 C 390.597656 210.007812 389.941406 209.570312 389.054688 209.035156 C 387.65625 208.210938 386.730469 207.847656 386.277344 207.941406 C 385.824219 208.035156 385.1875 208.757812 384.371094 210.105469 C 381.332031 215.117188 372.214844 230.144531 357.019531 255.195312 C 356.765625 255.617188 356.601562 255.886719 356.53125 256.003906 Z M 356.53125 256.003906 " fill-opacity="1" fill-rule="nonzero"/></g></g></g></svg>