<svg xmlns="http://www.w3.org/2000/svg" xmlns:xlink="http://www.w3.org/1999/xlink" width="1000" zoomAndPan="magnify" viewBox="0 0 750 749.999995" height="1000" preserveAspectRatio="xMidYMid meet" version="1.0"><rect x="-75" width="900" fill="#ffffff" y="-74.999999" height="899.999994" fill-opacity="1"/><rect x="-75" width="900" fill="#ffffff" y="-74.999999" height="899.999994" fill-opacity="1"/><path fill="#fefefe" d="M 610.609375 360.765625 C 605.898438 372.148438 625.917969 465.519531 536.097656 536.65625 C 479.097656 581.800781 410.183594 596.882812 373.59375 598.972656 C 318.679688 602.105469 165.121094 579.152344 134.949219 359.792969 C 124.105469 280.984375 197.308594 137.535156 376.304688 124 Z M 610.609375 360.765625 " fill-opacity="1" fill-rule="nonzero"/><path fill="#6d5764" d="M 375.15625 359.148438 L 135.589844 363.210938 C 148.621094 470.417969 183.933594 542.691406 285.585938 581.195312 C 434.261719 637.515625 544.003906 532.722656 565.828125 502.652344 C 610.734375 440.78125 618.125 350.953125 607.375 315.535156 C 545.761719 112.503906 374.046875 126.734375 374.046875 126.734375 Z M 375.15625 359.148438 " fill-opacity="1" fill-rule="nonzero"/><path fill="#00010d" d="M 138.121094 358.15625 L 610.835938 357.789062 C 613.382812 357.785156 615.449219 359.847656 615.449219 362.394531 C 615.453125 364.941406 613.390625 367.007812 610.84375 367.007812 L 138.128906 367.375 C 135.582031 367.378906 133.515625 365.316406 133.511719 362.769531 C 133.511719 360.222656 135.574219 358.15625 138.121094 358.15625 Z M 138.121094 358.15625 " fill-opacity="1" fill-rule="nonzero"/><path fill="#00010d" d="M 379.5625 127.457031 L 379.714844 598.0625 C 379.714844 600.609375 377.652344 602.675781 375.105469 602.675781 C 372.558594 602.675781 370.492188 600.613281 370.492188 598.066406 L 370.339844 127.460938 C 370.339844 124.914062 372.402344 122.851562 374.949219 122.847656 C 377.496094 122.847656 379.5625 124.910156 379.5625 127.457031 Z M 379.5625 127.457031 " fill-opacity="1" fill-rule="nonzero"/><path fill="#00010d" d="M 616.898438 363.613281 C 616.898438 497.683594 508.214844 606.367188 374.144531 606.367188 C 240.074219 606.367188 131.390625 497.683594 131.390625 363.613281 C 131.390625 229.542969 240.074219 120.859375 374.144531 120.859375 C 508.214844 120.859375 616.898438 229.542969 616.898438 363.613281 M 606.1875 363.613281 C 606.1875 235.460938 502.296875 131.570312 374.144531 131.570312 C 245.992188 131.570312 142.101562 235.460938 142.101562 363.613281 C 142.101562 491.765625 245.992188 595.65625 374.144531 595.65625 C 502.296875 595.65625 606.1875 491.765625 606.1875 363.613281 Z M 606.1875 363.613281 " fill-opacity="1" fill-rule="nonzero"/><path fill="#6d5764" d="M 475.28125 220.949219 C 474.046875 220.949219 473.171875 221.648438 472.652344 223.039062 C 472.5625 223.308594 472.453125 223.714844 472.316406 224.253906 C 472.203125 224.65625 472.125 224.9375 472.082031 225.09375 C 471.746094 226.171875 471.027344 226.722656 469.925781 226.746094 C 468.980469 226.765625 468.242188 226.777344 467.703125 226.777344 C 466.984375 226.777344 466.324219 226.757812 465.71875 226.710938 L 465.714844 226.710938 C 465.960938 226.957031 466.320312 227.09375 466.792969 227.117188 C 467.386719 227.15625 468.136719 227.175781 469.042969 227.175781 C 469.648438 227.175781 470.324219 227.167969 471.070312 227.148438 C 471.96875 227.125 472.5625 226.667969 472.855469 225.769531 C 472.902344 225.609375 472.992188 225.261719 473.125 224.722656 C 473.238281 224.296875 473.339844 223.960938 473.429688 223.714844 C 473.992188 222.1875 474.945312 221.398438 476.292969 221.355469 C 476.226562 221.21875 476.144531 221.109375 476.054688 221.019531 C 475.808594 220.972656 475.675781 220.949219 475.652344 220.949219 Z M 484.625 217.394531 C 485.875 219.210938 486.464844 221.261719 486.398438 223.542969 C 486.398438 223.8125 486.398438 224.230469 486.398438 224.792969 L 486.398438 225.800781 L 486.363281 225.800781 L 486.398438 226.140625 C 486.398438 226.835938 486.386719 227.394531 486.363281 227.824219 C 486.296875 230.429688 485.464844 232.539062 483.871094 234.15625 C 483.578125 234.449219 483.367188 234.695312 483.230469 234.898438 C 482.871094 235.390625 482.78125 235.828125 482.960938 236.210938 L 483.132812 236.445312 C 483.289062 236.648438 483.570312 237.019531 483.972656 237.558594 C 483.5 236.863281 483.523438 236.167969 484.039062 235.46875 C 484.21875 235.246094 484.457031 234.976562 484.746094 234.660156 C 486.273438 233.132812 487.070312 231.113281 487.140625 228.597656 L 487.140625 224.320312 C 487.230469 221.699219 486.390625 219.390625 484.625 217.394531 Z M 484.394531 238.152344 C 484.417969 238.183594 484.441406 238.214844 484.464844 238.242188 C 484.4375 238.203125 484.414062 238.175781 484.398438 238.152344 Z M 472.890625 240.625 C 473.160156 240.78125 473.699219 240.9375 474.507812 241.097656 C 474.597656 241.117188 474.71875 241.140625 474.878906 241.164062 C 474.808594 241.117188 474.765625 241.085938 474.742188 241.0625 C 474.449219 240.949219 474.304688 240.894531 474.304688 240.894531 C 474.171875 240.871094 473.957031 240.828125 473.664062 240.757812 L 473.265625 240.691406 L 473.261719 240.691406 C 473.277344 240.699219 473.28125 240.699219 473.273438 240.699219 C 473.253906 240.699219 473.128906 240.675781 472.894531 240.625 Z M 470.867188 248.945312 L 471.003906 249.449219 C 471.183594 249.988281 471.316406 250.382812 471.40625 250.628906 C 471.40625 250.652344 471.417969 250.675781 471.441406 250.695312 C 471.464844 250.742188 471.476562 250.765625 471.476562 250.765625 C 471.609375 250.875 471.667969 250.933594 471.644531 250.933594 C 471.777344 251.023438 471.914062 251.113281 472.046875 251.203125 C 471.980469 250.976562 471.835938 250.515625 471.609375 249.820312 C 471.476562 249.371094 471.230469 249.082031 470.871094 248.945312 Z M 472.785156 211.878906 C 469.679688 211.878906 467.128906 213.152344 465.140625 215.695312 C 463.300781 218.054688 462.527344 220.726562 462.816406 223.714844 C 462.90625 224.65625 463.425781 225.160156 464.367188 225.230469 C 464.859375 225.25 465.464844 225.261719 466.179688 225.261719 C 466.890625 225.261719 467.714844 225.25 468.644531 225.230469 C 469.542969 225.207031 470.128906 224.746094 470.398438 223.847656 C 470.464844 223.691406 470.566406 223.355469 470.699219 222.835938 C 470.8125 222.410156 470.914062 222.074219 471.003906 221.828125 C 471.585938 220.222656 472.605469 219.421875 474.058594 219.421875 C 474.171875 219.421875 474.289062 219.425781 474.40625 219.433594 C 476.046875 219.59375 477.078125 220.535156 477.503906 222.265625 C 477.820312 223.566406 477.71875 225.152344 477.203125 227.015625 C 476.503906 229.484375 474.933594 231.035156 472.484375 231.664062 C 471.160156 232 470.375 232.335938 470.128906 232.675781 C 469.878906 232.988281 469.746094 233.863281 469.722656 235.300781 C 469.722656 235.929688 469.734375 236.367188 469.757812 236.617188 C 469.800781 237.582031 469.949219 238.199219 470.195312 238.46875 C 470.441406 238.738281 471.070312 238.984375 472.082031 239.210938 C 472.730469 239.347656 473.078125 239.414062 473.125 239.414062 C 473.128906 239.414062 473.132812 239.414062 473.128906 239.414062 L 473.132812 239.414062 C 475.507812 240.066406 476.832031 241.570312 477.101562 243.925781 C 477.304688 245.789062 477.304688 247.5625 477.101562 249.246094 C 476.945312 250.664062 476.191406 251.617188 474.84375 252.113281 C 474.359375 252.304688 473.886719 252.398438 473.425781 252.398438 C 472.644531 252.398438 471.890625 252.125 471.171875 251.574219 C 470.5 251.054688 470.027344 250.425781 469.757812 249.6875 C 469.734375 249.617188 469.542969 249.023438 469.183594 247.902344 C 468.980469 247.265625 468.570312 246.949219 467.953125 246.949219 C 467.894531 246.949219 467.832031 246.953125 467.769531 246.957031 C 466.019531 247.113281 465.039062 247.191406 464.839844 247.191406 C 463.378906 247.214844 462.46875 247.417969 462.109375 247.800781 C 461.773438 248.179688 461.636719 249.160156 461.707031 250.730469 C 461.75 251.402344 461.839844 251.933594 461.976562 252.3125 C 463.503906 256.648438 466.355469 259.332031 470.53125 260.363281 C 471.070312 260.5 472.304688 260.566406 474.238281 260.566406 C 474.265625 260.566406 474.296875 260.566406 474.324219 260.566406 C 477.140625 260.566406 479.660156 259.476562 481.882812 257.300781 C 484.128906 255.097656 485.253906 252.550781 485.253906 249.652344 C 485.230469 246.035156 485.230469 243.992188 485.253906 243.519531 C 485.296875 241.726562 484.769531 240.050781 483.667969 238.5 C 483.445312 238.164062 483.097656 237.703125 482.625 237.121094 C 482.132812 236.46875 481.785156 236.007812 481.582031 235.738281 C 481.066406 235.019531 481.074219 234.289062 481.613281 233.550781 C 481.792969 233.324219 482.03125 233.054688 482.324219 232.742188 C 483.828125 231.214844 484.613281 229.191406 484.679688 226.675781 L 484.714844 224.285156 L 484.714844 222.433594 C 484.804688 219.492188 483.738281 216.941406 481.515625 214.785156 C 479.515625 212.855469 477.214844 211.890625 474.609375 211.890625 L 473.261719 211.890625 C 473.101562 211.882812 472.941406 211.878906 472.785156 211.878906 Z M 484.480469 238.269531 C 484.5 238.335938 484.523438 238.378906 484.546875 238.402344 C 484.925781 238.894531 485.175781 239.21875 485.285156 239.378906 C 486.433594 240.996094 486.980469 242.746094 486.9375 244.632812 C 486.914062 245.621094 486.902344 247.082031 486.902344 249.011719 L 486.902344 250.765625 C 486.925781 253.75 485.78125 256.390625 483.46875 258.679688 C 481.15625 260.949219 478.527344 262.082031 475.585938 262.082031 L 474.203125 262.082031 C 473.171875 262.082031 472.339844 262.003906 471.710938 261.847656 C 471.644531 261.847656 471.566406 261.824219 471.476562 261.78125 C 471.363281 261.734375 471.289062 261.714844 471.242188 261.710938 L 471.238281 261.710938 C 471.824219 261.9375 472.394531 262.117188 472.957031 262.25 C 473.496094 262.386719 474.730469 262.464844 476.664062 262.488281 C 476.691406 262.488281 476.71875 262.488281 476.75 262.488281 C 479.566406 262.488281 482.085938 261.398438 484.308594 259.21875 C 486.554688 256.996094 487.679688 254.445312 487.679688 251.574219 C 487.679688 247.957031 487.679688 245.902344 487.679688 245.40625 C 487.722656 243.632812 487.207031 241.972656 486.128906 240.421875 C 486.0625 240.335938 485.515625 239.617188 484.480469 238.269531 Z M 473.226562 306.144531 C 472.664062 307.539062 472.214844 308.671875 471.878906 309.546875 C 472.375 309.480469 472.699219 309.257812 472.855469 308.875 C 473.101562 308.289062 473.226562 307.390625 473.226562 306.179688 Z M 483.164062 282.699219 C 483.253906 282.945312 483.300781 283.113281 483.300781 283.203125 C 483.34375 283.652344 483.367188 284.328125 483.367188 285.226562 L 483.367188 298.902344 C 483.367188 302.429688 483.378906 305.078125 483.398438 306.851562 C 483.398438 307.683594 483.480469 308.582031 483.636719 309.546875 L 483.804688 309.546875 C 483.828125 309.546875 483.984375 309.558594 484.277344 309.582031 C 484.207031 308.863281 484.175781 308.222656 484.175781 307.660156 C 484.152344 306.582031 484.140625 302.96875 484.140625 296.8125 C 484.140625 291.335938 484.140625 287.808594 484.140625 286.238281 C 484.140625 285.226562 484.117188 284.507812 484.074219 284.082031 C 483.984375 283.363281 483.683594 282.902344 483.167969 282.699219 Z M 472.84375 303.246094 C 472.871094 303.246094 472.898438 303.246094 472.921875 303.25 C 473.214844 303.269531 473.429688 303.40625 473.5625 303.652344 C 473.832031 304.148438 473.992188 304.988281 474.035156 306.179688 C 474.035156 307.480469 473.902344 308.480469 473.632812 309.175781 C 473.382812 309.761719 472.921875 310.144531 472.25 310.324219 C 472.0625 310.367188 471.878906 310.390625 471.703125 310.390625 C 471.25 310.390625 470.835938 310.242188 470.464844 309.953125 C 470.015625 309.59375 469.902344 309.109375 470.128906 308.503906 C 470.417969 307.695312 471.015625 306.191406 471.914062 303.988281 C 471.933594 303.945312 472.035156 303.796875 472.214844 303.550781 C 472.378906 303.347656 472.589844 303.246094 472.84375 303.246094 Z M 464.0625 320.023438 C 464.332031 320.273438 464.78125 320.40625 465.410156 320.429688 C 465.140625 320.429688 467.21875 320.453125 471.644531 320.496094 C 472.316406 320.496094 472.789062 320.507812 473.058594 320.53125 C 473.035156 320.394531 472.992188 320.273438 472.921875 320.160156 C 472.472656 320.113281 471.835938 320.09375 471.003906 320.09375 L 468.273438 320.09375 C 466.476562 320.09375 465.128906 320.070312 464.234375 320.023438 Z M 475.617188 280.578125 C 474.351562 280.578125 473.488281 281.195312 473.023438 282.429688 C 472.84375 282.855469 471.933594 285.023438 470.296875 288.929688 C 465.691406 299.914062 463.121094 305.988281 462.582031 307.15625 C 461.414062 309.714844 460.917969 312.882812 461.097656 316.65625 C 461.144531 317.328125 461.300781 317.800781 461.570312 318.070312 C 461.816406 318.339844 462.277344 318.484375 462.953125 318.507812 C 462.875 318.503906 462.945312 318.5 463.164062 318.5 C 463.828125 318.5 465.832031 318.527344 469.183594 318.574219 C 470.578125 318.574219 471.476562 318.609375 471.878906 318.675781 C 473.09375 318.835938 473.789062 319.542969 473.96875 320.800781 C 474.011719 321.113281 474.035156 321.832031 474.035156 322.957031 C 474.078125 325.515625 474.089844 326.796875 474.074219 326.796875 L 474.070312 326.796875 C 474.117188 327.585938 474.285156 328.113281 474.574219 328.378906 C 474.867188 328.648438 475.429688 328.804688 476.257812 328.851562 C 476.742188 328.867188 477.222656 328.878906 477.699219 328.878906 C 478.410156 328.878906 479.109375 328.855469 479.796875 328.816406 C 480.445312 328.773438 480.90625 328.613281 481.175781 328.34375 C 481.445312 328.074219 481.59375 327.617188 481.613281 326.964844 C 481.660156 326.359375 481.683594 325.492188 481.683594 324.371094 C 481.683594 323.179688 481.683594 322.328125 481.683594 321.808594 C 481.726562 320.640625 481.917969 319.867188 482.253906 319.484375 C 482.570312 319.105469 483.300781 318.800781 484.445312 318.574219 C 484.511719 318.554688 484.601562 318.542969 484.714844 318.542969 C 484.828125 318.519531 484.917969 318.507812 484.984375 318.507812 C 485.523438 318.394531 485.894531 318.226562 486.09375 318.003906 C 486.296875 317.777344 486.421875 317.398438 486.464844 316.859375 C 486.488281 316.453125 486.511719 315.375 486.535156 313.625 C 486.535156 312.320312 486.410156 311.492188 486.164062 311.132812 C 485.824219 310.613281 485.039062 310.355469 483.804688 310.355469 C 482.75 310.355469 482.132812 309.792969 481.953125 308.671875 C 481.792969 307.660156 481.703125 306.683594 481.683594 305.742188 C 481.683594 304.707031 481.683594 301.09375 481.683594 294.894531 L 481.683594 284.316406 C 481.683594 283.28125 481.660156 282.566406 481.613281 282.160156 C 481.503906 281.195312 480.964844 280.6875 479.996094 280.644531 C 479.457031 280.597656 478.742188 280.578125 477.84375 280.578125 L 475.6875 280.578125 C 475.664062 280.578125 475.640625 280.578125 475.617188 280.578125 Z M 488.050781 312.582031 C 488.183594 313.03125 488.238281 313.75 488.21875 314.734375 L 488.21875 315.476562 C 488.21875 316.601562 488.195312 317.441406 488.148438 318.003906 C 488.082031 319.105469 487.488281 319.777344 486.363281 320.023438 C 486.296875 320.046875 486.183594 320.058594 486.027344 320.058594 C 485.9375 320.058594 485.871094 320.070312 485.824219 320.09375 C 484.769531 320.292969 484.109375 320.550781 483.839844 320.867188 C 483.589844 321.179688 483.445312 321.878906 483.398438 322.957031 C 483.378906 323.449219 483.367188 324.234375 483.367188 325.3125 C 483.367188 326.546875 483.355469 327.480469 483.332031 328.109375 C 483.265625 329.5 482.523438 330.242188 481.109375 330.332031 C 480.457031 330.378906 479.808594 330.398438 479.15625 330.398438 C 478.617188 330.398438 478.078125 330.390625 477.539062 330.367188 C 477.425781 330.367188 477.269531 330.355469 477.070312 330.332031 L 477.066406 330.332031 C 477.359375 330.578125 477.921875 330.726562 478.75 330.769531 C 479.238281 330.789062 479.714844 330.796875 480.183594 330.796875 C 480.890625 330.796875 481.582031 330.777344 482.253906 330.738281 C 482.929688 330.714844 483.390625 330.570312 483.636719 330.300781 C 483.90625 330.03125 484.0625 329.558594 484.109375 328.882812 C 484.128906 328.277344 484.140625 327.425781 484.140625 326.324219 C 484.140625 325.132812 484.152344 324.269531 484.175781 323.730469 C 484.21875 322.5625 484.398438 321.789062 484.714844 321.40625 C 485.050781 321.023438 485.78125 320.722656 486.902344 320.496094 C 486.972656 320.496094 487.0625 320.484375 487.171875 320.460938 C 487.308594 320.460938 487.398438 320.453125 487.441406 320.429688 C 487.980469 320.316406 488.351562 320.148438 488.554688 319.921875 C 488.757812 319.699219 488.878906 319.328125 488.925781 318.8125 C 488.96875 318.386719 488.992188 317.296875 488.992188 315.542969 C 489.015625 313.886719 488.703125 312.898438 488.050781 312.582031 Z M 488.050781 312.582031 " fill-opacity="1" fill-rule="nonzero"/><path fill="#6d5764" d="M 449.246094 266.257812 C 448.105469 266.296875 447.441406 266.582031 447.253906 267.105469 C 447.554688 267.015625 447.976562 266.960938 448.523438 266.941406 C 448.683594 266.941406 448.933594 266.941406 449.277344 266.941406 L 462.808594 267 C 480.644531 267.074219 494.019531 267.128906 502.925781 267.167969 C 504.636719 267.175781 505.6875 267.375 506.074219 267.761719 C 506.460938 268.175781 506.652344 269.261719 506.644531 271.019531 L 506.640625 271.363281 C 506.640625 272.117188 506.613281 272.757812 506.566406 273.28125 C 506.773438 273.078125 506.898438 272.78125 506.945312 272.390625 C 506.996094 271.84375 507.019531 271.035156 507.023438 269.960938 C 507.03125 268.316406 506.875 267.332031 506.558594 267.011719 C 506.238281 266.667969 505.28125 266.492188 503.683594 266.484375 C 498.589844 266.464844 480.761719 266.390625 450.207031 266.261719 C 449.703125 266.261719 449.382812 266.257812 449.246094 266.257812 Z M 447.523438 268.441406 C 446.609375 268.484375 446.027344 268.632812 445.773438 268.882812 C 445.5 269.132812 445.335938 269.691406 445.289062 270.558594 C 445.289062 270.785156 445.285156 271.347656 445.28125 272.238281 C 445.273438 273.925781 445.40625 274.921875 445.679688 275.21875 C 445.976562 275.515625 446.945312 275.667969 448.589844 275.675781 L 501.554688 275.898438 C 501.652344 275.898438 501.753906 275.898438 501.847656 275.898438 C 502.777344 275.898438 503.488281 275.878906 503.984375 275.839844 C 504.714844 275.75 505.117188 275.332031 505.191406 274.578125 C 505.261719 274.03125 505.296875 273.230469 505.300781 272.179688 C 505.285156 270.535156 505.121094 269.539062 504.800781 269.195312 C 504.484375 268.851562 503.523438 268.679688 501.925781 268.671875 C 495.988281 268.644531 478.171875 268.570312 448.484375 268.445312 C 447.980469 268.445312 447.660156 268.445312 447.523438 268.441406 Z M 447.523438 268.441406 " fill-opacity="1" fill-rule="nonzero"/></svg>