<svg xmlns="http://www.w3.org/2000/svg" xmlns:xlink="http://www.w3.org/1999/xlink" width="1000" zoomAndPan="magnify" viewBox="0 0 750 749.999995" height="1000" preserveAspectRatio="xMidYMid meet" version="1.0"><defs><clipPath id="1b70a91f0d"><path d="M 123.328125 134 L 626.578125 134 L 626.578125 637.5 L 123.328125 637.5 Z M 123.328125 134 " clip-rule="nonzero"/></clipPath></defs><rect x="-75" width="900" fill="#ffffff" y="-74.999999" height="899.999994" fill-opacity="1"/><rect x="-75" width="900" fill="#ffffff" y="-74.999999" height="899.999994" fill-opacity="1"/><path fill="#fefefe" d="M 601.15625 492.679688 L 542.015625 569.390625 C 464.988281 624.230469 378.324219 631.574219 378.324219 631.574219 C 185.371094 624.089844 127.789062 461.644531 127.035156 381.898438 C 126.628906 338.851562 162.878906 195.902344 285.335938 156.855469 C 424.417969 112.503906 527.492188 180.152344 549.570312 213.804688 L 620.679688 384.433594 Z M 601.15625 492.679688 " fill-opacity="1" fill-rule="nonzero"/><path fill="#6d5764" d="M 623.417969 384.589844 L 623.417969 384.59375 C 626.175781 402.441406 623.417969 384.589844 623.417969 384.589844 C 603.398438 254.925781 547.769531 212.585938 547.769531 212.585938 L 375.035156 384.5 C 344.773438 353.519531 252.980469 259.769531 207.292969 210.140625 C 187.15625 188.269531 130.925781 326.277344 130.800781 383.660156 C 130.703125 427.328125 153.46875 509.019531 204.066406 561.832031 C 247.886719 607.570312 329.042969 634.425781 376.054688 630.746094 C 429.058594 626.597656 510.347656 598.492188 545.410156 559.320312 C 550.203125 553.960938 589.730469 515.914062 608.574219 460.796875 C 616.59375 437.34375 623.417969 384.589844 623.417969 384.589844 Z M 623.417969 384.589844 " fill-opacity="1" fill-rule="nonzero"/><path fill="#00010d" d="M 380.332031 139.398438 L 381.042969 628.109375 C 381.046875 630.746094 378.914062 632.886719 376.277344 632.890625 C 373.640625 632.894531 371.5 630.761719 371.496094 628.125 L 370.78125 139.414062 C 370.777344 136.777344 372.910156 134.636719 375.550781 134.632812 C 378.1875 134.628906 380.328125 136.761719 380.332031 139.398438 Z M 380.332031 139.398438 " fill-opacity="1" fill-rule="nonzero"/><path fill="#00010d" d="M 130.292969 378.128906 L 615.789062 381.125 C 618.425781 381.140625 620.550781 383.289062 620.535156 385.925781 C 620.519531 388.566406 618.367188 390.6875 615.730469 390.671875 L 130.234375 387.679688 C 127.597656 387.664062 125.472656 385.511719 125.488281 382.875 C 125.503906 380.238281 127.65625 378.113281 130.292969 378.128906 Z M 130.292969 378.128906 " fill-opacity="1" fill-rule="nonzero"/><path fill="#00010d" d="M 551.019531 216.027344 L 207.257812 567.007812 C 205.414062 568.890625 202.390625 568.921875 200.507812 567.078125 C 198.625 565.230469 198.59375 562.207031 200.4375 560.324219 L 544.195312 209.34375 C 546.039062 207.460938 549.0625 207.429688 550.949219 209.273438 C 552.832031 211.121094 552.863281 214.144531 551.019531 216.027344 Z M 551.019531 216.027344 " fill-opacity="1" fill-rule="nonzero"/><path fill="#00010d" d="M 207.75 206.464844 L 550.175781 559.527344 C 552.011719 561.421875 551.964844 564.441406 550.074219 566.277344 C 548.179688 568.113281 545.15625 568.070312 543.320312 566.175781 L 200.898438 213.113281 C 199.0625 211.222656 199.105469 208.199219 201 206.363281 C 202.894531 204.527344 205.914062 204.574219 207.75 206.464844 Z M 207.75 206.464844 " fill-opacity="1" fill-rule="nonzero"/><g clip-path="url(#1b70a91f0d)"><path fill="#00010d" d="M 626.644531 385.859375 C 626.644531 524.84375 513.980469 637.511719 374.996094 637.511719 C 236.015625 637.511719 123.347656 524.84375 123.347656 385.859375 C 123.347656 246.878906 236.015625 134.210938 374.996094 134.210938 C 513.980469 134.210938 626.644531 246.878906 626.644531 385.859375 M 615.539062 385.859375 C 615.539062 253.011719 507.847656 145.316406 374.996094 145.316406 C 242.148438 145.316406 134.453125 253.011719 134.453125 385.859375 C 134.453125 518.710938 242.148438 626.40625 374.996094 626.40625 C 507.847656 626.40625 615.539062 518.710938 615.539062 385.859375 Z M 615.539062 385.859375 " fill-opacity="1" fill-rule="nonzero"/></g><path fill="#6d5764" d="M 545.304688 289.039062 C 546.167969 290.238281 546.558594 291.578125 546.476562 293.058594 C 546.421875 293.90625 545.980469 294.351562 545.144531 294.390625 C 544.847656 294.40625 544.503906 294.410156 544.113281 294.410156 L 542.457031 294.410156 C 542.671875 294.574219 542.957031 294.65625 543.320312 294.65625 C 543.351562 294.65625 543.378906 294.65625 543.40625 294.652344 L 544.617188 294.652344 C 544.785156 294.65625 544.941406 294.660156 545.085938 294.660156 C 545.375 294.660156 545.625 294.652344 545.832031 294.632812 C 546.222656 294.621094 546.496094 294.527344 546.660156 294.351562 C 546.820312 294.1875 546.90625 293.917969 546.921875 293.542969 C 547.015625 291.847656 546.496094 290.359375 545.367188 289.078125 C 545.351562 289.078125 545.347656 289.074219 545.347656 289.058594 C 545.332031 289.046875 545.320312 289.039062 545.308594 289.039062 Z M 539.601562 291.542969 C 539.226562 291.546875 538.894531 291.695312 538.601562 291.988281 C 538.316406 292.257812 538.121094 292.585938 538.015625 292.976562 C 537.746094 293.945312 537.691406 295.097656 537.851562 296.429688 C 537.933594 296.417969 537.96875 296.410156 537.953125 296.410156 C 537.996094 296.410156 538.042969 296.402344 538.09375 296.390625 C 538.175781 296.390625 538.222656 296.382812 538.238281 296.371094 C 538.140625 295.265625 538.222656 294.277344 538.480469 293.402344 C 538.601562 292.957031 538.816406 292.585938 539.125 292.289062 C 539.328125 292.101562 539.554688 291.96875 539.8125 291.886719 C 539.8125 291.875 539.804688 291.851562 539.792969 291.824219 C 539.792969 291.800781 539.785156 291.785156 539.773438 291.785156 C 539.746094 291.71875 539.699219 291.644531 539.628906 291.5625 C 539.578125 291.550781 539.570312 291.542969 539.605469 291.542969 Z M 539.449219 301.683594 L 539.40625 301.84375 C 538.789062 301.871094 538.371094 302.167969 538.15625 302.730469 C 538.0625 303 537.996094 303.25 537.953125 303.480469 C 537.710938 304.851562 537.683594 306.597656 537.875 308.710938 C 537.898438 308.953125 537.960938 309.179688 538.054688 309.398438 C 538.164062 309.492188 538.285156 309.558594 538.417969 309.597656 C 538.363281 309.421875 538.335938 309.296875 538.335938 309.214844 C 538.148438 307.085938 538.175781 305.324219 538.417969 303.921875 C 538.457031 303.667969 538.527344 303.40625 538.621094 303.136719 C 538.835938 302.582031 539.226562 302.253906 539.792969 302.144531 C 539.773438 302.109375 539.765625 302.089844 539.765625 302.082031 L 539.769531 302.082031 C 539.742188 302.03125 539.695312 301.957031 539.628906 301.863281 C 539.46875 301.851562 539.414062 301.84375 539.46875 301.84375 L 539.46875 301.703125 C 539.46875 301.703125 539.460938 301.695312 539.449219 301.683594 Z M 538.683594 300.933594 C 539.390625 300.933594 539.890625 301.25 540.195312 301.882812 C 540.453125 302.394531 540.585938 302.96875 540.601562 303.601562 C 540.601562 303.695312 540.601562 304.339844 540.601562 305.539062 C 540.601562 306.925781 540.601562 307.679688 540.601562 307.800781 C 540.574219 308.570312 540.296875 309.1875 539.773438 309.660156 C 539.433594 309.972656 539.074219 310.125 538.691406 310.125 C 538.660156 310.125 538.632812 310.125 538.601562 310.125 C 538.195312 310.097656 537.824219 309.902344 537.488281 309.539062 C 537.125 309.132812 536.917969 308.644531 536.863281 308.0625 C 536.675781 305.9375 536.703125 304.171875 536.945312 302.773438 C 536.984375 302.515625 537.050781 302.253906 537.144531 301.984375 C 537.402344 301.3125 537.898438 300.960938 538.640625 300.933594 C 538.65625 300.933594 538.671875 300.933594 538.683594 300.933594 Z M 538.902344 285.726562 C 536.925781 285.726562 535.28125 286.394531 533.976562 287.726562 C 532.816406 288.925781 532.230469 290.386719 532.21875 292.109375 C 532.21875 292.605469 532.21875 295.355469 532.21875 300.347656 C 532.21875 305.332031 532.21875 308.132812 532.21875 308.75 C 532.230469 310.582031 532.886719 312.125 534.175781 313.375 C 535.390625 314.5625 536.960938 315.15625 538.890625 315.15625 C 538.996094 315.15625 539.101562 315.15625 539.207031 315.152344 C 540.941406 315.097656 542.402344 314.492188 543.589844 313.335938 C 544.773438 312.175781 545.394531 310.730469 545.445312 308.992188 C 545.472656 308.304688 545.480469 306.042969 545.46875 302.207031 C 545.453125 301.171875 545.152344 300.152344 544.558594 299.15625 C 543.617188 297.59375 542.296875 296.792969 540.601562 296.753906 C 540.429688 296.75 540.265625 296.746094 540.101562 296.746094 C 539.363281 296.746094 538.671875 296.796875 538.035156 296.894531 C 537.9375 296.910156 537.847656 296.917969 537.765625 296.917969 C 537.257812 296.917969 536.964844 296.640625 536.882812 296.085938 C 536.65625 294.621094 536.695312 293.339844 537.003906 292.25 C 537.125 291.804688 537.339844 291.4375 537.652344 291.140625 C 538.011719 290.804688 538.398438 290.632812 538.8125 290.632812 C 538.894531 290.632812 538.980469 290.640625 539.066406 290.65625 C 539.5625 290.734375 539.945312 291.039062 540.214844 291.5625 C 540.351562 291.847656 540.453125 292.148438 540.519531 292.472656 C 540.675781 293.160156 541.117188 293.503906 541.847656 293.503906 C 541.875 293.503906 541.902344 293.503906 541.933594 293.503906 L 543.144531 293.503906 C 543.640625 293.503906 544.046875 293.496094 544.355469 293.480469 C 544.746094 293.46875 545.023438 293.375 545.183594 293.199219 C 545.347656 293.039062 545.433594 292.769531 545.445312 292.390625 C 545.539062 290.695312 545.023438 289.207031 543.890625 287.929688 C 542.597656 286.460938 540.9375 285.726562 538.902344 285.726562 Z M 545.277344 299.316406 C 545.40625 299.496094 545.488281 299.625 545.527344 299.703125 C 546.160156 300.726562 546.476562 301.78125 546.476562 302.875 C 546.476562 303.167969 546.484375 303.761719 546.496094 304.652344 C 546.511719 306.871094 546.496094 308.546875 546.457031 309.679688 C 546.402344 311.46875 545.761719 312.964844 544.539062 314.164062 C 543.3125 315.375 541.792969 316.007812 539.972656 316.0625 L 539.628906 316.0625 C 538.933594 316.0625 538.277344 315.988281 537.660156 315.839844 L 537.65625 315.839844 C 538.453125 316.152344 539.34375 316.308594 540.332031 316.308594 C 540.449219 316.308594 540.5625 316.308594 540.679688 316.304688 C 542.417969 316.25 543.871094 315.644531 545.042969 314.484375 C 546.242188 313.328125 546.867188 311.878906 546.921875 310.144531 C 546.949219 309.484375 546.949219 307.230469 546.921875 303.378906 C 546.921875 302.328125 546.625 301.304688 546.03125 300.308594 C 545.808594 299.9375 545.558594 299.609375 545.28125 299.316406 Z M 539.601562 332.542969 C 539.503906 332.542969 539.410156 332.546875 539.316406 332.5625 C 538.457031 332.667969 537.890625 333.054688 537.621094 333.710938 C 537.09375 335.019531 537.09375 336.3125 537.621094 337.589844 C 537.714844 337.65625 537.824219 337.71875 537.945312 337.773438 C 537.539062 336.558594 537.59375 335.339844 538.105469 334.117188 C 538.402344 333.363281 539.027344 332.925781 539.984375 332.804688 L 540.066406 332.804688 C 539.984375 332.683594 539.921875 332.609375 539.882812 332.582031 C 539.734375 332.554688 539.640625 332.542969 539.601562 332.542969 Z M 538.8125 331.632812 C 539.511719 331.632812 540.097656 331.96875 540.570312 332.640625 C 540.917969 333.140625 541.101562 334.0625 541.113281 335.410156 C 540.980469 336.230469 540.914062 336.660156 540.914062 336.703125 C 540.5625 337.832031 539.800781 338.398438 538.628906 338.398438 C 537.703125 338.382812 537.054688 337.980469 536.691406 337.1875 C 536.074219 335.785156 536.050781 334.378906 536.632812 332.964844 C 536.941406 332.210938 537.566406 331.773438 538.507812 331.652344 C 538.613281 331.640625 538.710938 331.632812 538.8125 331.632812 Z M 545.289062 330.140625 C 545.457031 330.386719 545.601562 330.601562 545.71875 330.785156 C 546.324219 331.78125 546.621094 332.84375 546.609375 333.976562 C 546.609375 334.230469 546.609375 334.539062 546.609375 334.902344 L 546.609375 335.671875 C 546.609375 336.074219 546.609375 336.378906 546.609375 336.582031 C 546.527344 338.15625 546.089844 339.453125 545.296875 340.476562 C 545.027344 340.800781 544.804688 341.097656 544.628906 341.367188 C 544.507812 341.554688 544.46875 341.742188 544.507812 341.933594 L 544.609375 342.035156 C 544.714844 342.167969 544.835938 342.316406 544.972656 342.476562 C 544.90625 342.222656 544.957031 341.964844 545.132812 341.710938 C 545.308594 341.453125 545.53125 341.152344 545.800781 340.800781 C 546.554688 339.820312 546.972656 338.566406 547.050781 337.042969 C 547.050781 337.003906 547.050781 336.574219 547.050781 335.753906 C 547.050781 334.984375 547.050781 334.554688 547.050781 334.460938 C 547.066406 333.382812 546.78125 332.359375 546.203125 331.390625 C 545.925781 330.925781 545.625 330.511719 545.292969 330.140625 Z M 545.699219 343.496094 C 545.703125 343.5 545.707031 343.503906 545.714844 343.507812 C 545.710938 343.503906 545.707031 343.5 545.703125 343.496094 Z M 539.378906 344.921875 C 538.746094 344.921875 538.265625 345.25 537.945312 345.910156 C 537.136719 347.511719 537.0625 349.066406 537.722656 350.578125 C 537.816406 350.644531 537.917969 350.699219 538.023438 350.738281 C 537.527344 349.296875 537.660156 347.816406 538.429688 346.292969 C 538.765625 345.609375 539.257812 345.238281 539.902344 345.183594 C 539.808594 345.074219 539.75 345.007812 539.722656 344.980469 C 539.574219 344.941406 539.457031 344.921875 539.378906 344.921875 Z M 538.605469 344.015625 C 539.105469 344.015625 539.585938 344.214844 540.042969 344.617188 C 540.609375 345.128906 540.933594 345.730469 541.011719 346.414062 C 541.027344 346.511719 541.0625 346.996094 541.113281 347.871094 C 541.0625 348.636719 541.027344 349.0625 541.011719 349.140625 C 540.945312 349.679688 540.691406 350.199219 540.246094 350.699219 C 539.875 351.132812 539.363281 351.347656 538.71875 351.347656 C 538.664062 351.347656 538.605469 351.347656 538.550781 351.34375 C 537.753906 351.304688 537.183594 350.933594 536.832031 350.234375 C 536.023438 348.605469 536.066406 346.90625 536.953125 345.144531 C 537.277344 344.496094 537.742188 344.125 538.347656 344.03125 C 538.433594 344.019531 538.519531 344.015625 538.605469 344.015625 Z M 539.640625 327.089844 C 538.628906 327.089844 537.984375 327.09375 537.703125 327.109375 C 536.097656 327.164062 534.71875 327.820312 533.5625 329.085938 C 532.457031 330.285156 531.945312 331.59375 532.027344 333.003906 C 532.066406 333.855469 532.066406 334.714844 532.027344 335.589844 C 531.917969 337.460938 532.402344 338.941406 533.480469 340.035156 C 533.574219 340.128906 533.667969 340.261719 533.761719 340.4375 C 533.992188 340.855469 533.972656 341.257812 533.703125 341.648438 C 533.648438 341.730469 533.566406 341.839844 533.460938 341.972656 C 533.3125 342.132812 533.226562 342.234375 533.199219 342.277344 C 532.390625 343.300781 531.878906 344.464844 531.664062 345.769531 C 531.421875 347.183594 531.414062 348.839844 531.644531 350.738281 C 531.84375 352.273438 532.578125 353.625 533.84375 354.796875 C 535.09375 355.933594 536.464844 356.5 537.953125 356.5 C 538.039062 356.5 538.121094 356.496094 538.207031 356.492188 C 538.328125 356.480469 538.703125 356.472656 539.335938 356.472656 C 539.355469 356.472656 539.371094 356.472656 539.390625 356.472656 C 541.105469 356.472656 542.621094 355.808594 543.941406 354.472656 C 545.289062 353.128906 545.949219 351.585938 545.921875 349.847656 C 545.90625 349.457031 545.90625 348.921875 545.921875 348.234375 C 545.921875 347.464844 545.921875 346.925781 545.921875 346.617188 C 545.90625 345.003906 545.347656 343.582031 544.246094 342.355469 C 543.910156 341.992188 543.734375 341.789062 543.71875 341.75 C 543.410156 341.359375 543.390625 340.964844 543.660156 340.558594 C 543.835938 340.304688 544.054688 340 544.324219 339.648438 C 545.078125 338.667969 545.496094 337.414062 545.578125 335.894531 C 545.578125 335.851562 545.585938 335.421875 545.597656 334.601562 C 545.597656 333.832031 545.597656 333.402344 545.597656 333.308594 C 545.597656 332.230469 545.308594 331.207031 544.730469 330.238281 C 543.476562 328.152344 541.78125 327.101562 539.640625 327.089844 Z M 545.714844 343.507812 C 546.511719 344.632812 546.917969 345.890625 546.929688 347.285156 C 546.929688 347.554688 546.929688 348.03125 546.929688 348.71875 C 546.929688 349.539062 546.929688 350.136719 546.929688 350.515625 C 546.957031 352.304688 546.285156 353.894531 544.910156 355.28125 C 543.523438 356.683594 541.929688 357.382812 540.125 357.382812 L 539.457031 357.382812 C 539.269531 357.382812 539.117188 357.390625 538.992188 357.402344 L 538.75 357.402344 C 538.285156 357.402344 537.804688 357.335938 537.308594 357.203125 L 537.304688 357.203125 C 538.023438 357.5 538.753906 357.648438 539.496094 357.648438 C 539.554688 357.648438 539.617188 357.648438 539.679688 357.644531 C 539.789062 357.632812 540.164062 357.625 540.8125 357.625 C 540.828125 357.625 540.847656 357.625 540.863281 357.625 C 542.566406 357.625 544.082031 356.957031 545.417969 355.625 C 546.75 354.277344 547.410156 352.738281 547.394531 351 C 547.382812 350.609375 547.375 350.070312 547.375 349.382812 C 547.390625 348.605469 547.390625 348.066406 547.375 347.769531 C 547.375 346.152344 546.824219 344.734375 545.71875 343.507812 Z M 545.714844 343.507812 " fill-opacity="1" fill-rule="nonzero"/><path fill="#6d5764" d="M 522.03125 318.945312 C 521.34375 318.96875 520.949219 319.140625 520.835938 319.453125 C 521.015625 319.398438 521.269531 319.367188 521.597656 319.355469 C 521.691406 319.355469 521.84375 319.355469 522.050781 319.355469 L 530.160156 319.390625 C 540.855469 319.433594 548.871094 319.46875 554.210938 319.492188 C 555.238281 319.496094 555.867188 319.613281 556.101562 319.847656 C 556.332031 320.09375 556.445312 320.746094 556.441406 321.800781 L 556.441406 322.007812 C 556.4375 322.457031 556.421875 322.839844 556.394531 323.15625 C 556.519531 323.03125 556.59375 322.855469 556.621094 322.621094 C 556.652344 322.292969 556.667969 321.808594 556.667969 321.164062 C 556.671875 320.179688 556.582031 319.589844 556.390625 319.398438 C 556.199219 319.191406 555.625 319.085938 554.664062 319.082031 C 551.613281 319.070312 540.925781 319.023438 522.605469 318.949219 C 522.304688 318.945312 522.113281 318.945312 522.03125 318.945312 Z M 520.996094 320.253906 C 520.449219 320.28125 520.101562 320.367188 519.949219 320.519531 C 519.785156 320.667969 519.6875 321.003906 519.65625 321.523438 C 519.65625 321.660156 519.65625 321.996094 519.652344 322.53125 C 519.648438 323.542969 519.730469 324.140625 519.890625 324.316406 C 520.070312 324.496094 520.652344 324.585938 521.636719 324.59375 L 553.390625 324.726562 C 553.449219 324.726562 553.507812 324.726562 553.566406 324.726562 C 554.121094 324.726562 554.550781 324.714844 554.847656 324.691406 C 555.285156 324.636719 555.527344 324.382812 555.570312 323.933594 C 555.613281 323.605469 555.632812 323.125 555.636719 322.496094 C 555.628906 321.507812 555.527344 320.914062 555.335938 320.707031 C 555.144531 320.5 554.570312 320.394531 553.613281 320.390625 C 550.050781 320.378906 539.371094 320.332031 521.574219 320.257812 C 521.273438 320.257812 521.082031 320.257812 520.996094 320.253906 Z M 520.996094 320.253906 " fill-opacity="1" fill-rule="nonzero"/></svg>