<svg xmlns="http://www.w3.org/2000/svg" xmlns:xlink="http://www.w3.org/1999/xlink" width="1000" zoomAndPan="magnify" viewBox="0 0 750 749.999995" height="1000" preserveAspectRatio="xMidYMid meet" version="1.0"><defs><clipPath id="4a13dc36e9"><path d="M 134 123.421875 L 637.5 123.421875 L 637.5 626.671875 L 134 626.671875 Z M 134 123.421875 " clip-rule="nonzero"/></clipPath></defs><rect x="-75" width="900" fill="#ffffff" y="-74.999999" height="899.999994" fill-opacity="1"/><rect x="-75" width="900" fill="#ffffff" y="-74.999999" height="899.999994" fill-opacity="1"/><path fill="#fefefe" d="M 492.679688 148.84375 L 569.390625 207.984375 C 624.230469 285.011719 631.574219 371.675781 631.574219 371.675781 C 624.089844 564.628906 461.644531 622.210938 381.898438 622.964844 C 338.851562 623.371094 195.902344 587.121094 156.855469 464.664062 C 112.503906 325.582031 180.152344 222.507812 213.804688 200.429688 L 384.433594 129.320312 Z M 492.679688 148.84375 " fill-opacity="1" fill-rule="nonzero"/><path fill="#6d5764" d="M 384.589844 126.582031 L 384.59375 126.582031 C 402.441406 123.824219 384.589844 126.582031 384.589844 126.582031 C 254.925781 146.601562 212.585938 202.230469 212.585938 202.230469 L 384.5 374.964844 C 353.519531 405.226562 259.769531 497.019531 210.140625 542.707031 C 188.269531 562.84375 326.277344 619.074219 383.660156 619.199219 C 427.328125 619.296875 509.019531 596.53125 561.832031 545.933594 C 607.570312 502.113281 634.425781 420.957031 630.746094 373.945312 C 626.597656 320.941406 598.492188 239.652344 559.320312 204.589844 C 553.960938 199.796875 515.914062 160.269531 460.796875 141.425781 C 437.34375 133.40625 384.589844 126.582031 384.589844 126.582031 Z M 384.589844 126.582031 " fill-opacity="1" fill-rule="nonzero"/><path fill="#00010d" d="M 139.398438 369.667969 L 628.109375 368.957031 C 630.746094 368.953125 632.886719 371.085938 632.890625 373.722656 C 632.894531 376.359375 630.761719 378.5 628.125 378.503906 L 139.414062 379.21875 C 136.777344 379.222656 134.636719 377.089844 134.632812 374.449219 C 134.628906 371.8125 136.761719 369.671875 139.398438 369.667969 Z M 139.398438 369.667969 " fill-opacity="1" fill-rule="nonzero"/><path fill="#00010d" d="M 378.128906 619.707031 L 381.125 134.210938 C 381.140625 131.574219 383.289062 129.449219 385.925781 129.464844 C 388.566406 129.480469 390.6875 131.632812 390.671875 134.269531 L 387.679688 619.765625 C 387.664062 622.402344 385.511719 624.527344 382.875 624.511719 C 380.238281 624.496094 378.113281 622.34375 378.128906 619.707031 Z M 378.128906 619.707031 " fill-opacity="1" fill-rule="nonzero"/><path fill="#00010d" d="M 216.027344 198.980469 L 567.007812 542.742188 C 568.890625 544.585938 568.921875 547.609375 567.078125 549.492188 C 565.230469 551.375 562.207031 551.40625 560.324219 549.5625 L 209.34375 205.804688 C 207.460938 203.960938 207.429688 200.9375 209.273438 199.050781 C 211.121094 197.167969 214.144531 197.136719 216.027344 198.980469 Z M 216.027344 198.980469 " fill-opacity="1" fill-rule="nonzero"/><path fill="#00010d" d="M 206.464844 542.25 L 559.527344 199.824219 C 561.421875 197.988281 564.441406 198.035156 566.277344 199.925781 C 568.113281 201.820312 568.070312 204.84375 566.175781 206.679688 L 213.113281 549.101562 C 211.222656 550.9375 208.199219 550.894531 206.363281 549 C 204.527344 547.105469 204.574219 544.085938 206.464844 542.25 Z M 206.464844 542.25 " fill-opacity="1" fill-rule="nonzero"/><g clip-path="url(#4a13dc36e9)"><path fill="#00010d" d="M 385.859375 123.351562 C 524.84375 123.351562 637.511719 236.019531 637.511719 375.003906 C 637.511719 513.984375 524.84375 626.652344 385.859375 626.652344 C 246.878906 626.652344 134.210938 513.984375 134.210938 375.003906 C 134.210938 236.019531 246.878906 123.351562 385.859375 123.351562 M 385.859375 134.460938 C 253.011719 134.460938 145.316406 242.152344 145.316406 375.003906 C 145.316406 507.851562 253.011719 615.546875 385.859375 615.546875 C 518.710938 615.546875 626.40625 507.851562 626.40625 375.003906 C 626.40625 242.152344 518.710938 134.460938 385.859375 134.460938 Z M 385.859375 134.460938 " fill-opacity="1" fill-rule="nonzero"/></g><path fill="#6d5764" d="M 289.039062 204.695312 C 290.238281 203.832031 291.578125 203.441406 293.058594 203.523438 C 293.90625 203.578125 294.351562 204.019531 294.390625 204.855469 C 294.40625 205.152344 294.410156 205.496094 294.410156 205.886719 L 294.410156 207.542969 C 294.574219 207.328125 294.65625 207.042969 294.65625 206.679688 C 294.65625 206.648438 294.65625 206.621094 294.652344 206.59375 L 294.652344 205.382812 C 294.65625 205.214844 294.660156 205.058594 294.660156 204.914062 C 294.660156 204.625 294.652344 204.375 294.632812 204.167969 C 294.621094 203.777344 294.527344 203.503906 294.351562 203.339844 C 294.1875 203.179688 293.917969 203.09375 293.542969 203.078125 C 291.847656 202.984375 290.359375 203.503906 289.078125 204.632812 C 289.078125 204.648438 289.074219 204.652344 289.058594 204.652344 C 289.046875 204.667969 289.039062 204.679688 289.039062 204.691406 Z M 291.542969 210.398438 C 291.546875 210.773438 291.695312 211.105469 291.988281 211.398438 C 292.257812 211.683594 292.585938 211.878906 292.976562 211.984375 C 293.945312 212.253906 295.097656 212.308594 296.429688 212.148438 C 296.417969 212.066406 296.410156 212.03125 296.410156 212.046875 C 296.410156 212.003906 296.402344 211.957031 296.390625 211.90625 C 296.390625 211.824219 296.382812 211.777344 296.371094 211.761719 C 295.265625 211.859375 294.277344 211.777344 293.402344 211.519531 C 292.957031 211.398438 292.585938 211.183594 292.289062 210.875 C 292.101562 210.671875 291.96875 210.445312 291.886719 210.1875 C 291.875 210.1875 291.851562 210.195312 291.824219 210.207031 C 291.800781 210.207031 291.785156 210.214844 291.785156 210.226562 C 291.71875 210.253906 291.644531 210.300781 291.5625 210.371094 C 291.550781 210.421875 291.542969 210.429688 291.542969 210.394531 Z M 301.683594 210.550781 L 301.84375 210.59375 C 301.871094 211.210938 302.167969 211.628906 302.730469 211.84375 C 303 211.9375 303.25 212.003906 303.480469 212.046875 C 304.851562 212.289062 306.597656 212.316406 308.710938 212.125 C 308.953125 212.101562 309.179688 212.039062 309.398438 211.945312 C 309.492188 211.835938 309.558594 211.714844 309.597656 211.582031 C 309.421875 211.636719 309.296875 211.664062 309.214844 211.664062 C 307.085938 211.851562 305.324219 211.824219 303.921875 211.582031 C 303.667969 211.542969 303.40625 211.472656 303.136719 211.378906 C 302.582031 211.164062 302.253906 210.773438 302.144531 210.207031 C 302.109375 210.226562 302.089844 210.234375 302.082031 210.234375 L 302.082031 210.230469 C 302.03125 210.257812 301.957031 210.304688 301.863281 210.371094 C 301.851562 210.53125 301.84375 210.585938 301.84375 210.53125 L 301.703125 210.53125 C 301.703125 210.53125 301.695312 210.539062 301.683594 210.550781 Z M 300.933594 211.316406 C 300.933594 210.609375 301.25 210.109375 301.882812 209.804688 C 302.394531 209.546875 302.96875 209.414062 303.601562 209.398438 C 303.695312 209.398438 304.339844 209.398438 305.539062 209.398438 C 306.925781 209.398438 307.679688 209.398438 307.800781 209.398438 C 308.570312 209.425781 309.1875 209.703125 309.660156 210.226562 C 309.972656 210.566406 310.125 210.925781 310.125 211.308594 C 310.125 211.339844 310.125 211.367188 310.125 211.398438 C 310.097656 211.804688 309.902344 212.175781 309.539062 212.511719 C 309.132812 212.875 308.644531 213.082031 308.0625 213.136719 C 305.9375 213.324219 304.171875 213.296875 302.773438 213.054688 C 302.515625 213.015625 302.253906 212.949219 301.984375 212.855469 C 301.3125 212.597656 300.960938 212.101562 300.933594 211.359375 C 300.933594 211.34375 300.933594 211.328125 300.933594 211.316406 Z M 285.726562 211.097656 C 285.726562 213.074219 286.394531 214.71875 287.726562 216.023438 C 288.925781 217.183594 290.386719 217.769531 292.109375 217.78125 C 292.605469 217.78125 295.355469 217.78125 300.347656 217.78125 C 305.332031 217.78125 308.132812 217.78125 308.75 217.78125 C 310.582031 217.769531 312.125 217.113281 313.375 215.824219 C 314.5625 214.609375 315.15625 213.039062 315.15625 211.109375 C 315.15625 211.003906 315.15625 210.898438 315.152344 210.792969 C 315.097656 209.058594 314.492188 207.597656 313.335938 206.410156 C 312.175781 205.226562 310.730469 204.605469 308.992188 204.554688 C 308.304688 204.527344 306.042969 204.519531 302.207031 204.53125 C 301.171875 204.546875 300.152344 204.847656 299.15625 205.441406 C 297.59375 206.382812 296.792969 207.703125 296.753906 209.398438 C 296.75 209.570312 296.746094 209.734375 296.746094 209.898438 C 296.746094 210.636719 296.796875 211.328125 296.894531 211.964844 C 296.910156 212.0625 296.917969 212.152344 296.917969 212.234375 C 296.917969 212.742188 296.640625 213.035156 296.085938 213.117188 C 294.621094 213.34375 293.339844 213.304688 292.25 212.996094 C 291.804688 212.875 291.4375 212.660156 291.140625 212.347656 C 290.804688 211.988281 290.632812 211.601562 290.632812 211.1875 C 290.632812 211.105469 290.640625 211.019531 290.65625 210.933594 C 290.734375 210.4375 291.039062 210.054688 291.5625 209.785156 C 291.847656 209.648438 292.148438 209.546875 292.472656 209.480469 C 293.160156 209.324219 293.503906 208.882812 293.503906 208.152344 C 293.503906 208.125 293.503906 208.097656 293.503906 208.066406 L 293.503906 206.855469 C 293.503906 206.359375 293.496094 205.953125 293.480469 205.644531 C 293.46875 205.253906 293.375 204.976562 293.199219 204.816406 C 293.039062 204.652344 292.769531 204.566406 292.390625 204.554688 C 290.695312 204.460938 289.207031 204.976562 287.929688 206.109375 C 286.460938 207.402344 285.726562 209.0625 285.726562 211.097656 Z M 299.316406 204.722656 C 299.496094 204.59375 299.625 204.511719 299.703125 204.472656 C 300.726562 203.839844 301.78125 203.523438 302.875 203.523438 C 303.167969 203.523438 303.761719 203.515625 304.652344 203.503906 C 306.871094 203.488281 308.546875 203.503906 309.679688 203.542969 C 311.46875 203.597656 312.964844 204.238281 314.164062 205.460938 C 315.375 206.6875 316.007812 208.207031 316.0625 210.027344 L 316.0625 210.371094 C 316.0625 211.066406 315.988281 211.722656 315.839844 212.339844 L 315.839844 212.34375 C 316.152344 211.546875 316.308594 210.65625 316.308594 209.667969 C 316.308594 209.550781 316.308594 209.4375 316.304688 209.320312 C 316.25 207.582031 315.644531 206.128906 314.484375 204.957031 C 313.328125 203.757812 311.878906 203.132812 310.144531 203.078125 C 309.484375 203.050781 307.230469 203.050781 303.378906 203.078125 C 302.328125 203.078125 301.304688 203.375 300.308594 203.96875 C 299.9375 204.191406 299.609375 204.441406 299.316406 204.71875 Z M 332.542969 210.398438 C 332.542969 210.496094 332.546875 210.589844 332.5625 210.683594 C 332.667969 211.542969 333.054688 212.109375 333.710938 212.378906 C 335.019531 212.90625 336.3125 212.90625 337.589844 212.378906 C 337.65625 212.285156 337.71875 212.175781 337.773438 212.054688 C 336.558594 212.460938 335.339844 212.40625 334.117188 211.894531 C 333.363281 211.597656 332.925781 210.972656 332.804688 210.015625 L 332.804688 209.933594 C 332.683594 210.015625 332.609375 210.078125 332.582031 210.117188 C 332.554688 210.265625 332.542969 210.359375 332.542969 210.398438 Z M 331.632812 211.1875 C 331.632812 210.488281 331.96875 209.902344 332.640625 209.429688 C 333.140625 209.082031 334.0625 208.898438 335.410156 208.886719 C 336.230469 209.019531 336.660156 209.085938 336.703125 209.085938 C 337.832031 209.4375 338.398438 210.199219 338.398438 211.371094 C 338.382812 212.296875 337.980469 212.945312 337.1875 213.308594 C 335.785156 213.925781 334.378906 213.949219 332.964844 213.367188 C 332.210938 213.058594 331.773438 212.433594 331.652344 211.492188 C 331.640625 211.386719 331.632812 211.289062 331.632812 211.1875 Z M 330.140625 204.710938 C 330.386719 204.542969 330.601562 204.398438 330.785156 204.28125 C 331.78125 203.675781 332.84375 203.378906 333.976562 203.390625 C 334.230469 203.390625 334.539062 203.390625 334.902344 203.390625 L 335.671875 203.390625 C 336.074219 203.390625 336.378906 203.390625 336.582031 203.390625 C 338.15625 203.472656 339.453125 203.910156 340.476562 204.703125 C 340.800781 204.972656 341.097656 205.195312 341.367188 205.371094 C 341.554688 205.492188 341.742188 205.53125 341.933594 205.492188 L 342.035156 205.390625 C 342.167969 205.285156 342.316406 205.164062 342.476562 205.027344 C 342.222656 205.09375 341.964844 205.042969 341.710938 204.867188 C 341.453125 204.691406 341.152344 204.46875 340.800781 204.199219 C 339.820312 203.445312 338.566406 203.027344 337.042969 202.949219 C 337.003906 202.949219 336.574219 202.949219 335.753906 202.949219 C 334.984375 202.949219 334.554688 202.949219 334.460938 202.949219 C 333.382812 202.933594 332.359375 203.21875 331.390625 203.796875 C 330.925781 204.074219 330.511719 204.375 330.140625 204.707031 Z M 343.496094 204.300781 C 343.5 204.296875 343.503906 204.292969 343.507812 204.285156 C 343.503906 204.289062 343.5 204.292969 343.496094 204.296875 Z M 344.921875 210.621094 C 344.921875 211.253906 345.25 211.734375 345.910156 212.054688 C 347.511719 212.863281 349.066406 212.9375 350.574219 212.277344 C 350.644531 212.183594 350.699219 212.082031 350.738281 211.976562 C 349.296875 212.472656 347.816406 212.339844 346.292969 211.570312 C 345.609375 211.234375 345.238281 210.742188 345.183594 210.097656 C 345.074219 210.191406 345.007812 210.25 344.980469 210.277344 C 344.941406 210.425781 344.921875 210.542969 344.921875 210.621094 Z M 344.015625 211.394531 C 344.015625 210.894531 344.214844 210.414062 344.617188 209.957031 C 345.128906 209.390625 345.730469 209.066406 346.414062 208.984375 C 346.511719 208.972656 346.996094 208.9375 347.871094 208.886719 C 348.636719 208.9375 349.0625 208.972656 349.140625 208.984375 C 349.679688 209.054688 350.199219 209.308594 350.699219 209.753906 C 351.132812 210.125 351.347656 210.636719 351.347656 211.28125 C 351.347656 211.335938 351.347656 211.394531 351.34375 211.449219 C 351.304688 212.246094 350.933594 212.816406 350.234375 213.167969 C 348.605469 213.976562 346.90625 213.933594 345.144531 213.046875 C 344.496094 212.722656 344.125 212.257812 344.03125 211.652344 C 344.019531 211.566406 344.015625 211.480469 344.015625 211.394531 Z M 327.089844 210.359375 C 327.089844 211.371094 327.09375 212.015625 327.109375 212.296875 C 327.164062 213.902344 327.820312 215.28125 329.085938 216.4375 C 330.285156 217.542969 331.59375 218.054688 333.003906 217.972656 C 333.855469 217.933594 334.714844 217.933594 335.589844 217.972656 C 337.460938 218.082031 338.941406 217.597656 340.035156 216.519531 C 340.128906 216.425781 340.261719 216.332031 340.4375 216.238281 C 340.855469 216.007812 341.257812 216.027344 341.648438 216.296875 C 341.730469 216.351562 341.839844 216.433594 341.972656 216.539062 C 342.132812 216.6875 342.234375 216.773438 342.277344 216.800781 C 343.300781 217.609375 344.464844 218.121094 345.769531 218.335938 C 347.183594 218.578125 348.839844 218.585938 350.738281 218.355469 C 352.273438 218.15625 353.625 217.421875 354.796875 216.15625 C 355.933594 214.90625 356.5 213.535156 356.5 212.046875 C 356.5 211.960938 356.496094 211.878906 356.492188 211.792969 C 356.480469 211.671875 356.472656 211.296875 356.472656 210.664062 C 356.472656 210.644531 356.472656 210.628906 356.472656 210.609375 C 356.472656 208.894531 355.808594 207.378906 354.472656 206.058594 C 353.128906 204.710938 351.585938 204.050781 349.847656 204.078125 C 349.457031 204.09375 348.921875 204.09375 348.234375 204.078125 C 347.464844 204.078125 346.925781 204.078125 346.617188 204.078125 C 345.003906 204.09375 343.582031 204.652344 342.355469 205.753906 C 341.992188 206.089844 341.789062 206.265625 341.75 206.28125 C 341.359375 206.589844 340.964844 206.609375 340.558594 206.339844 C 340.304688 206.164062 340 205.945312 339.648438 205.675781 C 338.667969 204.921875 337.414062 204.503906 335.894531 204.421875 C 335.851562 204.421875 335.421875 204.414062 334.601562 204.402344 C 333.832031 204.402344 333.402344 204.402344 333.308594 204.402344 C 332.230469 204.402344 331.207031 204.691406 330.238281 205.269531 C 328.152344 206.523438 327.101562 208.21875 327.089844 210.359375 Z M 343.507812 204.285156 C 344.632812 203.488281 345.890625 203.082031 347.285156 203.070312 C 347.554688 203.070312 348.03125 203.070312 348.71875 203.070312 C 349.539062 203.070312 350.136719 203.070312 350.515625 203.070312 C 352.304688 203.042969 353.894531 203.714844 355.28125 205.089844 C 356.683594 206.476562 357.382812 208.070312 357.382812 209.875 L 357.382812 210.542969 C 357.382812 210.730469 357.390625 210.882812 357.402344 211.007812 L 357.402344 211.25 C 357.402344 211.714844 357.335938 212.195312 357.203125 212.691406 L 357.203125 212.695312 C 357.5 211.976562 357.648438 211.246094 357.648438 210.503906 C 357.648438 210.445312 357.648438 210.382812 357.644531 210.320312 C 357.632812 210.210938 357.625 209.835938 357.625 209.1875 C 357.625 209.171875 357.625 209.152344 357.625 209.136719 C 357.625 207.433594 356.957031 205.917969 355.625 204.582031 C 354.277344 203.25 352.738281 202.589844 351 202.605469 C 350.609375 202.617188 350.070312 202.625 349.382812 202.625 C 348.605469 202.609375 348.066406 202.609375 347.769531 202.625 C 346.152344 202.625 344.734375 203.175781 343.507812 204.28125 Z M 343.507812 204.285156 " fill-opacity="1" fill-rule="nonzero"/><path fill="#6d5764" d="M 318.945312 227.96875 C 318.96875 228.65625 319.140625 229.050781 319.453125 229.164062 C 319.398438 228.984375 319.367188 228.730469 319.355469 228.402344 C 319.355469 228.308594 319.355469 228.15625 319.355469 227.949219 L 319.390625 219.839844 C 319.433594 209.144531 319.46875 201.128906 319.492188 195.789062 C 319.496094 194.761719 319.613281 194.132812 319.847656 193.898438 C 320.09375 193.667969 320.746094 193.554688 321.800781 193.558594 L 322.007812 193.558594 C 322.457031 193.5625 322.839844 193.578125 323.15625 193.605469 C 323.03125 193.480469 322.855469 193.40625 322.621094 193.378906 C 322.292969 193.347656 321.808594 193.332031 321.164062 193.332031 C 320.179688 193.328125 319.589844 193.417969 319.398438 193.609375 C 319.191406 193.800781 319.085938 194.375 319.082031 195.335938 C 319.070312 198.386719 319.023438 209.074219 318.949219 227.394531 C 318.945312 227.695312 318.945312 227.886719 318.945312 227.96875 Z M 320.253906 229.003906 C 320.28125 229.550781 320.367188 229.898438 320.519531 230.050781 C 320.667969 230.214844 321.003906 230.3125 321.523438 230.34375 C 321.660156 230.34375 321.996094 230.34375 322.53125 230.347656 C 323.542969 230.351562 324.140625 230.269531 324.316406 230.109375 C 324.496094 229.929688 324.585938 229.347656 324.59375 228.363281 L 324.726562 196.609375 C 324.726562 196.550781 324.726562 196.492188 324.726562 196.433594 C 324.726562 195.878906 324.714844 195.449219 324.691406 195.152344 C 324.636719 194.714844 324.382812 194.472656 323.933594 194.429688 C 323.605469 194.386719 323.125 194.367188 322.496094 194.363281 C 321.507812 194.371094 320.914062 194.472656 320.707031 194.664062 C 320.5 194.855469 320.394531 195.429688 320.390625 196.386719 C 320.378906 199.949219 320.332031 210.628906 320.257812 228.425781 C 320.257812 228.726562 320.253906 228.917969 320.253906 229.003906 Z M 320.253906 229.003906 " fill-opacity="1" fill-rule="nonzero"/></svg>