<svg xmlns="http://www.w3.org/2000/svg" xmlns:xlink="http://www.w3.org/1999/xlink" width="1000" zoomAndPan="magnify" viewBox="0 0 750 749.999995" height="1000" preserveAspectRatio="xMidYMid meet" version="1.0"><rect x="-75" width="900" fill="#ffffff" y="-74.999999" height="899.999994" fill-opacity="1"/><rect x="-75" width="900" fill="#ffffff" y="-74.999999" height="899.999994" fill-opacity="1"/><path fill="#000000" d="M 174.296875 309.703125 C 183.746094 296.035156 196.652344 289.203125 213.019531 289.203125 C 221.121094 289.203125 229.21875 291.394531 237.316406 295.78125 C 245.417969 300.167969 251.996094 307.929688 257.058594 319.066406 C 263.300781 333.070312 266.421875 352.304688 266.421875 376.773438 C 266.421875 402.925781 262.796875 422.917969 255.539062 436.753906 C 252.164062 443.839844 247.523438 449.492188 241.621094 453.710938 C 235.714844 457.929688 230.566406 460.546875 226.179688 461.558594 C 221.792969 462.570312 217.492188 463.160156 213.273438 463.328125 C 208.886719 463.328125 204.5 462.824219 200.113281 461.8125 C 195.726562 460.796875 190.578125 458.097656 184.671875 453.710938 C 178.769531 449.324219 174.128906 443.671875 170.753906 436.753906 C 163.5 422.917969 159.871094 402.925781 159.871094 376.773438 C 159.871094 347.414062 164.679688 325.054688 174.296875 309.703125 Z M 231.242188 306.664062 C 226.179688 301.265625 220.191406 298.566406 213.273438 298.566406 C 206.1875 298.566406 200.113281 301.265625 195.050781 306.664062 C 190.832031 311.050781 188.046875 317.125 186.699219 324.886719 C 185.347656 332.648438 184.671875 348.847656 184.671875 373.480469 C 184.671875 400.140625 185.347656 417.6875 186.699219 426.125 C 188.046875 434.5625 191.085938 441.226562 195.808594 446.121094 C 200.535156 451.179688 206.355469 453.710938 213.273438 453.710938 C 220.023438 453.710938 225.757812 451.179688 230.484375 446.121094 C 235.375 441.058594 238.414062 433.972656 239.59375 424.859375 C 240.777344 415.75 241.449219 398.621094 241.621094 373.480469 C 241.621094 349.015625 240.945312 332.902344 239.59375 325.140625 C 238.246094 317.378906 235.460938 311.21875 231.242188 306.664062 Z M 231.242188 306.664062 " fill-opacity="1" fill-rule="nonzero"/><path fill="#000000" d="M 296.289062 442.574219 C 296.289062 438.527344 297.722656 434.984375 300.589844 431.945312 C 303.457031 428.910156 307.085938 427.390625 311.472656 427.390625 C 315.523438 427.390625 319.066406 428.738281 322.101562 431.441406 C 325.140625 434.140625 326.742188 437.765625 326.914062 442.324219 C 326.914062 446.542969 325.476562 450.167969 322.609375 453.207031 C 319.742188 456.242188 316.113281 457.761719 311.726562 457.761719 C 307.339844 457.761719 303.710938 456.328125 300.84375 453.457031 C 297.976562 450.589844 296.457031 446.964844 296.289062 442.574219 Z M 296.289062 442.574219 " fill-opacity="1" fill-rule="nonzero"/><path fill="#000000" d="M 360.828125 341.84375 C 360.996094 341.507812 362.429688 332.3125 365.128906 314.257812 L 369.179688 287.175781 C 369.179688 286.839844 370.867188 286.671875 374.242188 286.671875 L 379.300781 286.671875 L 379.300781 287.683594 C 379.300781 289.371094 380.566406 290.804688 383.097656 291.984375 C 385.628906 293.167969 390.015625 293.925781 396.261719 294.261719 C 402.503906 294.601562 416.761719 294.769531 439.03125 294.769531 L 469.65625 294.769531 L 469.65625 304.640625 L 452.445312 328.179688 C 450.929688 330.203125 448.398438 333.578125 444.855469 338.300781 C 441.308594 343.027344 439.03125 346.148438 438.019531 347.664062 C 437.007812 349.183594 435.234375 351.882812 432.707031 355.765625 C 430.175781 359.644531 428.488281 362.683594 427.644531 364.875 C 426.800781 367.070312 425.617188 370.191406 424.101562 374.242188 C 422.582031 378.289062 421.484375 382.171875 420.808594 385.882812 C 420.136719 389.59375 419.460938 394.152344 418.785156 399.550781 C 418.109375 404.949219 417.605469 410.6875 417.265625 416.761719 C 416.929688 422.835938 416.675781 429.753906 416.507812 437.515625 C 416.507812 439.875 416.507812 442.238281 416.507812 444.601562 C 416.507812 446.964844 416.421875 448.988281 416.253906 450.675781 L 416.253906 452.953125 C 415.578125 455.820312 413.976562 458.269531 411.445312 460.292969 C 408.914062 462.316406 406.046875 463.328125 402.839844 463.328125 C 400.984375 463.328125 399.210938 463.078125 397.523438 462.570312 C 395.839844 462.0625 394.066406 460.460938 392.210938 457.761719 C 390.355469 455.0625 389.425781 451.6875 389.425781 447.636719 C 389.425781 420.980469 397.609375 393.308594 413.976562 364.625 C 417.351562 359.222656 424.4375 349.015625 435.234375 334 L 446.878906 318.054688 L 423.339844 318.054688 C 393.980469 318.054688 378.542969 318.558594 377.023438 319.574219 C 376.011719 320.078125 375.085938 322.105469 374.242188 325.648438 C 373.398438 329.191406 372.554688 332.816406 371.710938 336.53125 L 370.949219 341.84375 L 370.949219 342.605469 L 360.828125 342.605469 Z M 360.828125 341.84375 " fill-opacity="1" fill-rule="nonzero"/><path fill="#000000" d="M 514.960938 418.027344 C 514.960938 422.074219 513.609375 425.449219 510.910156 428.148438 C 508.210938 430.847656 504.921875 432.199219 501.039062 432.199219 L 499.269531 432.199219 C 507.03125 445.527344 517.324219 452.195312 530.144531 452.195312 C 541.957031 452.195312 550.5625 447.132812 555.960938 437.007812 C 559.167969 431.441406 560.769531 420.640625 560.769531 404.613281 C 560.769531 387.234375 558.492188 375.507812 553.9375 369.433594 C 549.550781 363.863281 544.65625 361.078125 539.257812 361.078125 L 537.738281 361.078125 C 524.578125 361.078125 514.625 366.816406 507.875 378.289062 C 507.199219 379.472656 506.609375 380.144531 506.101562 380.316406 C 505.597656 380.484375 504.332031 380.652344 502.304688 380.820312 C 499.4375 380.820312 497.835938 380.316406 497.496094 379.300781 C 497.160156 378.628906 496.992188 363.863281 496.992188 335.011719 L 496.992188 302.363281 C 496.992188 293.925781 497.414062 289.707031 498.257812 289.707031 C 498.59375 289.371094 498.929688 289.203125 499.269531 289.203125 C 499.4375 289.203125 501.210938 289.875 504.582031 291.226562 C 507.957031 292.574219 512.597656 293.925781 518.503906 295.277344 C 524.410156 296.625 530.738281 297.300781 537.484375 297.300781 C 549.464844 297.300781 560.9375 294.9375 571.90625 290.214844 C 573.257812 289.539062 574.351562 289.203125 575.195312 289.203125 C 576.546875 289.203125 577.222656 290.71875 577.222656 293.757812 L 577.222656 297.046875 C 563.386719 313.414062 546.089844 321.597656 525.335938 321.597656 C 520.105469 321.597656 515.382812 321.089844 511.164062 320.078125 L 508.632812 319.574219 L 508.632812 363.105469 C 511.839844 360.742188 514.371094 358.886719 516.226562 357.535156 C 518.082031 356.1875 521.121094 354.835938 525.335938 353.488281 C 529.554688 352.136719 533.859375 351.460938 538.246094 351.460938 C 551.914062 351.460938 563.46875 356.945312 572.917969 367.914062 C 582.367188 378.878906 587.09375 391.871094 587.09375 406.890625 C 587.09375 422.414062 581.691406 435.65625 570.894531 446.625 C 560.09375 457.59375 546.933594 463.160156 531.410156 463.328125 C 517.746094 463.328125 506.777344 458.773438 498.507812 449.664062 C 490.242188 440.550781 486.109375 430.257812 486.109375 418.785156 C 486.109375 414.734375 487.035156 411.53125 488.890625 409.167969 C 490.746094 406.804688 492.6875 405.285156 494.714844 404.613281 C 496.738281 403.9375 498.679688 403.597656 500.535156 403.597656 C 504.753906 403.597656 508.210938 405.035156 510.910156 407.902344 C 513.609375 410.769531 514.960938 414.144531 514.960938 418.027344 Z M 514.960938 418.027344 " fill-opacity="1" fill-rule="nonzero"/></svg>