<svg xmlns="http://www.w3.org/2000/svg" xmlns:xlink="http://www.w3.org/1999/xlink" width="1000" zoomAndPan="magnify" viewBox="0 0 750 749.999995" height="1000" preserveAspectRatio="xMidYMid meet" version="1.0"><rect x="-75" width="900" fill="#ffffff" y="-74.999999" height="899.999994" fill-opacity="1"/><rect x="-75" width="900" fill="#ffffff" y="-74.999999" height="899.999994" fill-opacity="1"/><path fill="#000000" d="M 366.753906 169.316406 L 363.902344 170.414062 C 361.855469 171.144531 358.933594 171.878906 355.132812 172.609375 C 351.332031 173.339844 347.089844 173.855469 342.414062 174.144531 L 338.246094 174.144531 L 338.246094 164.046875 L 342.414062 164.046875 C 349.285156 163.757812 355.644531 162.660156 361.492188 160.757812 C 367.339844 158.855469 371.433594 157.097656 373.769531 155.488281 C 376.109375 153.878906 378.15625 152.269531 379.910156 150.660156 C 380.203125 150.21875 381.082031 150 382.542969 150 C 383.859375 150 385.101562 150.4375 386.269531 151.316406 L 386.269531 216.953125 L 386.488281 282.804688 C 387.511719 283.828125 388.390625 284.488281 389.121094 284.78125 C 389.851562 285.074219 391.605469 285.367188 394.382812 285.660156 C 397.164062 285.953125 401.695312 286.097656 407.980469 286.097656 L 413.683594 286.097656 L 413.683594 296.195312 L 411.269531 296.195312 C 408.199219 295.757812 396.578125 295.535156 376.402344 295.535156 C 356.519531 295.535156 345.042969 295.757812 341.972656 296.195312 L 339.34375 296.195312 L 339.34375 286.097656 L 345.042969 286.097656 C 348.261719 286.097656 351.039062 286.097656 353.375 286.097656 C 355.714844 286.097656 357.542969 286.023438 358.859375 285.878906 C 360.175781 285.730469 361.34375 285.511719 362.367188 285.21875 C 363.390625 284.925781 363.976562 284.78125 364.121094 284.78125 C 364.269531 284.78125 364.707031 284.414062 365.4375 283.683594 C 366.167969 282.953125 366.609375 282.660156 366.753906 282.804688 Z M 366.753906 169.316406 " fill-opacity="1" fill-rule="nonzero"/><path fill="#000000" d="M 347.894531 493.535156 C 343.945312 493.535156 340.878906 492.292969 338.683594 489.804688 C 336.492188 487.316406 335.320312 484.097656 335.175781 480.144531 C 335.175781 472.097656 338.683594 464.925781 345.703125 458.632812 C 352.71875 452.339844 361.199219 449.195312 371.140625 449.195312 C 376.257812 449.195312 379.472656 449.269531 380.789062 449.414062 C 391.605469 451.171875 399.867188 455.046875 405.570312 461.046875 C 411.269531 467.046875 414.195312 473.5625 414.339844 480.585938 C 414.339844 488.195312 411.855469 495.585938 406.882812 502.757812 C 401.914062 509.925781 395.042969 515.121094 386.269531 518.339844 L 385.613281 518.78125 C 385.613281 518.925781 386.269531 519.144531 387.585938 519.4375 C 388.902344 519.730469 391.023438 520.390625 393.945312 521.414062 C 396.871094 522.4375 399.648438 523.976562 402.28125 526.023438 C 414.265625 533.78125 420.261719 544.023438 420.261719 556.757812 C 420.261719 568.316406 415.730469 578.414062 406.664062 587.046875 C 397.601562 595.683594 386.125 600 372.234375 600 C 360.539062 600 350.453125 596.855469 341.972656 590.5625 C 333.496094 584.269531 329.253906 576.292969 329.253906 566.632812 C 329.253906 562.535156 330.570312 559.242188 333.203125 556.757812 C 335.832031 554.269531 339.121094 552.953125 343.070312 552.804688 C 347.164062 552.804688 350.527344 554.121094 353.15625 556.757812 C 355.789062 559.390625 357.105469 562.683594 357.105469 566.632812 C 357.105469 568.242188 356.886719 569.707031 356.445312 571.023438 C 356.007812 572.339844 355.496094 573.511719 354.910156 574.535156 C 354.328125 575.5625 353.523438 576.4375 352.5 577.171875 C 351.476562 577.902344 350.597656 578.488281 349.867188 578.925781 C 349.136719 579.367188 348.40625 579.660156 347.675781 579.804688 C 346.945312 579.953125 346.359375 580.171875 345.921875 580.464844 L 345.042969 580.683594 C 352.5 587.269531 361.5625 590.5625 372.234375 590.5625 C 380.277344 590.5625 386.34375 586.683594 390.4375 578.925781 C 392.921875 574.097656 394.164062 566.707031 394.164062 556.757812 L 394.164062 552.367188 C 394.164062 538.464844 389.488281 529.171875 380.128906 524.488281 C 377.9375 523.609375 373.480469 523.097656 366.753906 522.953125 L 357.542969 522.730469 L 356.886719 522.292969 C 356.59375 521.855469 356.445312 520.683594 356.445312 518.78125 C 356.445312 516.144531 357.03125 514.828125 358.203125 514.828125 C 362.292969 514.828125 366.535156 514.464844 370.921875 513.730469 C 375.890625 513 380.421875 509.925781 384.515625 504.511719 C 388.609375 499.097656 390.65625 490.902344 390.65625 479.925781 L 390.65625 478.171875 C 390.65625 469.828125 388.097656 464.046875 382.980469 460.828125 C 379.765625 458.78125 376.328125 457.757812 372.675781 457.757812 C 367.996094 457.757812 363.683594 458.5625 359.738281 460.171875 C 355.789062 461.78125 353.011719 463.464844 351.402344 465.21875 C 349.796875 466.976562 348.992188 467.855469 348.992188 467.855469 L 349.648438 467.855469 C 350.085938 468 350.671875 468.144531 351.402344 468.292969 C 352.132812 468.4375 352.863281 468.804688 353.597656 469.390625 C 354.328125 469.976562 355.203125 470.488281 356.226562 470.925781 C 357.25 471.367188 357.980469 472.171875 358.421875 473.339844 C 358.859375 474.511719 359.445312 475.609375 360.175781 476.632812 C 360.90625 477.660156 361.125 479.121094 360.832031 481.023438 C 360.832031 484.242188 359.808594 487.097656 357.761719 489.585938 C 355.714844 492.074219 352.425781 493.390625 347.894531 493.535156 Z M 347.894531 493.535156 " fill-opacity="1" fill-rule="nonzero"/><path fill="#000000" d="M 298.113281 396.292969 L 451.621094 396.292969 L 451.621094 383.121094 L 298.113281 383.121094 Z M 298.113281 396.292969 " fill-opacity="1" fill-rule="nonzero"/></svg>