<svg xmlns="http://www.w3.org/2000/svg" xmlns:xlink="http://www.w3.org/1999/xlink" width="1000" zoomAndPan="magnify" viewBox="0 0 750 749.999995" height="1000" preserveAspectRatio="xMidYMid meet" version="1.0"><rect x="-75" width="900" fill="#ffffff" y="-74.999999" height="899.999994" fill-opacity="1"/><rect x="-75" width="900" fill="#ffffff" y="-74.999999" height="899.999994" fill-opacity="1"/><path fill="#000000" d="M 343.945312 202.023438 C 340 202.023438 336.855469 200.707031 334.519531 198.074219 C 332.179688 195.4375 331.007812 192.21875 331.007812 188.414062 C 331.007812 178.023438 334.882812 169.023438 342.632812 161.414062 C 350.378906 153.804688 360.027344 150 371.578125 150 C 384.882812 150 395.992188 154.097656 404.910156 162.292969 C 413.828125 170.488281 418.359375 181.097656 418.507812 194.121094 C 418.507812 200.414062 417.046875 206.414062 414.121094 212.121094 C 411.195312 217.828125 407.6875 222.804688 403.59375 227.046875 C 399.5 231.292969 393.652344 236.707031 386.050781 243.292969 C 380.789062 247.828125 373.480469 254.5625 364.121094 263.488281 L 351.183594 275.78125 L 367.851562 276 C 390.804688 276 403.011719 275.632812 404.472656 274.902344 C 405.496094 274.609375 407.25 268.097656 409.734375 255.367188 L 409.734375 254.707031 L 418.507812 254.707031 L 418.507812 255.367188 C 418.359375 255.804688 417.410156 262.464844 415.65625 275.339844 C 413.902344 288.21875 412.804688 294.953125 412.367188 295.535156 L 412.367188 296.195312 L 331.007812 296.195312 L 331.007812 289.390625 C 331.007812 288.367188 331.449219 287.269531 332.324219 286.097656 C 333.203125 284.925781 335.394531 282.367188 338.902344 278.414062 C 343.144531 273.730469 346.796875 269.632812 349.867188 266.121094 C 351.183594 264.660156 353.667969 261.953125 357.324219 258 C 360.980469 254.046875 363.464844 251.339844 364.78125 249.878906 C 366.097656 248.414062 368.214844 246 371.140625 242.632812 C 374.0625 239.269531 376.109375 236.78125 377.28125 235.171875 C 378.449219 233.5625 380.128906 231.367188 382.324219 228.585938 C 384.515625 225.804688 386.050781 223.464844 386.929688 221.5625 C 387.804688 219.660156 388.902344 217.535156 390.21875 215.195312 C 391.535156 212.855469 392.484375 210.511719 393.070312 208.171875 C 393.652344 205.828125 394.164062 203.632812 394.605469 201.585938 C 395.042969 199.535156 395.261719 197.121094 395.261719 194.339844 C 395.261719 185.121094 392.777344 177.144531 387.804688 170.414062 C 382.835938 163.683594 375.746094 160.316406 366.535156 160.316406 C 361.710938 160.316406 357.46875 161.5625 353.816406 164.046875 C 350.160156 166.535156 347.601562 168.953125 346.140625 171.292969 C 344.679688 173.632812 343.945312 175.023438 343.945312 175.464844 C 343.945312 175.609375 344.3125 175.683594 345.042969 175.683594 C 347.675781 175.683594 350.378906 176.707031 353.15625 178.757812 C 355.933594 180.804688 357.324219 184.171875 357.324219 188.855469 C 357.324219 192.511719 356.15625 195.585938 353.816406 198.074219 C 351.476562 200.5625 348.1875 201.878906 343.945312 202.023438 Z M 343.945312 202.023438 " fill-opacity="1" fill-rule="nonzero"/><path fill="#000000" d="M 329.253906 526.464844 C 329.253906 502.609375 335.175781 483.730469 347.015625 469.828125 C 358.859375 455.925781 372.015625 448.976562 386.488281 448.976562 C 396.578125 448.976562 403.8125 451.609375 408.199219 456.878906 C 412.585938 462.144531 414.777344 468 414.777344 474.4375 C 414.777344 478.097656 413.753906 481.023438 411.707031 483.21875 C 409.664062 485.414062 406.8125 486.511719 403.15625 486.511719 C 399.792969 486.511719 397.015625 485.488281 394.824219 483.4375 C 392.628906 481.390625 391.535156 478.535156 391.535156 474.878906 C 391.535156 468.4375 394.96875 464.5625 401.839844 463.242188 C 398.625 460.023438 394.09375 458.195312 388.246094 457.757812 C 377.863281 457.757812 369.3125 462.144531 362.585938 470.925781 C 355.714844 480.585938 352.28125 495.367188 352.28125 515.269531 L 352.5 516.144531 C 353.230469 515.269531 353.816406 514.316406 354.253906 513.292969 C 360.25 504.511719 368.070312 500.121094 377.71875 500.121094 L 378.59375 500.121094 C 385.320312 500.121094 391.242188 501.511719 396.359375 504.292969 C 399.867188 506.339844 403.375 509.269531 406.882812 513.074219 C 410.394531 516.878906 413.242188 521.046875 415.4375 525.585938 C 418.507812 532.757812 420.042969 540.585938 420.042969 549.074219 L 420.042969 553.023438 C 420.042969 556.390625 419.675781 559.535156 418.945312 562.464844 C 417.335938 571.097656 412.660156 579.511719 404.910156 587.707031 C 397.164062 595.902344 387.367188 600 375.527344 600 C 371.433594 600 367.484375 599.414062 363.683594 598.242188 C 359.882812 597.074219 355.789062 594.878906 351.402344 591.660156 C 347.015625 588.4375 343.289062 584.121094 340.21875 578.707031 C 337.148438 573.292969 334.519531 566.195312 332.324219 557.414062 C 330.132812 548.632812 329.109375 538.316406 329.253906 526.464844 Z M 376.402344 508.023438 C 372.015625 508.023438 368.214844 509.269531 365 511.757812 C 361.78125 514.242188 359.296875 517.535156 357.542969 521.632812 C 355.789062 525.730469 354.546875 529.902344 353.816406 534.144531 C 353.085938 538.390625 352.644531 542.925781 352.5 547.757812 C 352.5 559.902344 353.375 568.609375 355.132812 573.878906 C 356.886719 579.144531 359.664062 583.390625 363.464844 586.609375 C 366.972656 589.242188 370.847656 590.5625 375.085938 590.5625 C 382.542969 590.5625 388.246094 587.78125 392.191406 582.21875 C 394.09375 579.585938 395.40625 576.292969 396.140625 572.339844 C 396.871094 568.390625 397.234375 560.707031 397.234375 549.292969 C 397.234375 537.585938 396.871094 529.757812 396.140625 525.804688 C 395.40625 521.855469 394.09375 518.5625 392.191406 515.925781 C 388.246094 510.660156 382.980469 508.023438 376.402344 508.023438 Z M 376.402344 508.023438 " fill-opacity="1" fill-rule="nonzero"/><path fill="#000000" d="M 298.113281 396.292969 L 451.621094 396.292969 L 451.621094 383.121094 L 298.113281 383.121094 Z M 298.113281 396.292969 " fill-opacity="1" fill-rule="nonzero"/></svg>