<svg xmlns="http://www.w3.org/2000/svg" xmlns:xlink="http://www.w3.org/1999/xlink" width="1000" zoomAndPan="magnify" viewBox="0 0 750 749.999995" height="1000" preserveAspectRatio="xMidYMid meet" version="1.0"><rect x="-75" width="900" fill="#ffffff" y="-74.999999" height="899.999994" fill-opacity="1"/><rect x="-75" width="900" fill="#ffffff" y="-74.999999" height="899.999994" fill-opacity="1"/><path fill="#000000" d="M 347.882812 194.363281 C 343.933594 194.363281 340.859375 193.117188 338.667969 190.628906 C 336.472656 188.140625 335.300781 184.917969 335.15625 180.964844 C 335.15625 172.914062 338.667969 165.738281 345.6875 159.445312 C 352.707031 153.148438 361.191406 150 371.136719 150 C 376.257812 150 379.476562 150.074219 380.792969 150.21875 C 391.613281 151.976562 399.878906 155.855469 405.582031 161.859375 C 411.289062 167.863281 414.214844 174.378906 414.359375 181.40625 C 414.359375 189.019531 411.875 196.414062 406.898438 203.585938 C 401.925781 210.761719 395.050781 215.960938 386.277344 219.179688 L 385.617188 219.621094 C 385.617188 219.765625 386.277344 219.984375 387.59375 220.277344 C 388.910156 220.570312 391.03125 221.230469 393.957031 222.253906 C 396.878906 223.28125 399.660156 224.816406 402.292969 226.867188 C 414.285156 234.625 420.285156 244.875 420.285156 257.613281 C 420.285156 269.179688 415.75 279.28125 406.679688 287.921875 C 397.613281 296.558594 386.128906 300.878906 372.234375 300.878906 C 360.535156 300.878906 350.441406 297.730469 341.957031 291.433594 C 333.472656 285.140625 329.230469 277.160156 329.230469 267.496094 C 329.230469 263.398438 330.546875 260.101562 333.179688 257.613281 C 335.8125 255.125 339.105469 253.808594 343.054688 253.660156 C 347.148438 253.660156 350.515625 254.976562 353.148438 257.613281 C 355.78125 260.25 357.097656 263.542969 357.097656 267.496094 C 357.097656 269.105469 356.875 270.570312 356.4375 271.890625 C 356 273.207031 355.488281 274.378906 354.902344 275.402344 C 354.316406 276.425781 353.511719 277.304688 352.488281 278.039062 C 351.464844 278.769531 350.585938 279.355469 349.855469 279.796875 C 349.125 280.234375 348.394531 280.527344 347.660156 280.671875 C 346.929688 280.820312 346.34375 281.039062 345.90625 281.332031 L 345.027344 281.550781 C 352.488281 288.140625 361.558594 291.433594 372.234375 291.433594 C 380.28125 291.433594 386.347656 287.554688 390.445312 279.796875 C 392.929688 274.964844 394.175781 267.570312 394.175781 257.613281 L 394.175781 253.222656 C 394.175781 239.3125 389.496094 230.015625 380.132812 225.328125 C 377.9375 224.449219 373.476562 223.9375 366.75 223.792969 L 357.535156 223.574219 L 356.875 223.132812 C 356.585938 222.695312 356.4375 221.523438 356.4375 219.621094 C 356.4375 216.984375 357.023438 215.667969 358.191406 215.667969 C 362.289062 215.667969 366.53125 215.300781 370.917969 214.566406 C 375.890625 213.835938 380.425781 210.761719 384.519531 205.34375 C 388.617188 199.925781 390.664062 191.726562 390.664062 180.746094 L 390.664062 178.988281 C 390.664062 170.644531 388.105469 164.859375 382.984375 161.640625 C 379.765625 159.589844 376.332031 158.566406 372.671875 158.566406 C 367.992188 158.566406 363.679688 159.371094 359.730469 160.980469 C 355.78125 162.589844 353 164.273438 351.390625 166.03125 C 349.78125 167.789062 348.976562 168.667969 348.976562 168.667969 L 349.636719 168.667969 C 350.074219 168.8125 350.660156 168.960938 351.390625 169.105469 C 352.125 169.253906 352.855469 169.621094 353.585938 170.203125 C 354.316406 170.789062 355.195312 171.304688 356.21875 171.742188 C 357.242188 172.179688 357.972656 172.988281 358.414062 174.15625 C 358.851562 175.328125 359.4375 176.425781 360.167969 177.453125 C 360.898438 178.476562 361.117188 179.941406 360.824219 181.84375 C 360.824219 185.066406 359.800781 187.921875 357.753906 190.410156 C 355.707031 192.898438 352.414062 194.214844 347.882812 194.363281 Z M 347.882812 194.363281 " fill-opacity="1" fill-rule="nonzero"/><path fill="#000000" d="M 397.246094 532.136719 C 390.226562 543.265625 381.449219 548.828125 370.917969 548.828125 C 359.507812 548.828125 350.148438 544.507812 342.835938 535.871094 C 335.523438 527.234375 331.132812 518.007812 329.671875 508.199219 C 329.378906 505.855469 329.230469 502.929688 329.230469 499.414062 L 329.230469 497.65625 C 329.230469 484.039062 334.277344 472.179688 344.371094 462.078125 C 353.148438 453.292969 362.800781 448.902344 373.332031 448.902344 C 373.625 448.902344 374.0625 448.902344 374.648438 448.902344 C 375.234375 448.902344 375.816406 448.976562 376.402344 449.121094 L 377.28125 449.121094 C 379.035156 449.121094 380.863281 449.269531 382.765625 449.5625 C 384.667969 449.855469 387.375 450.730469 390.882812 452.195312 C 394.394531 453.660156 397.832031 456.003906 401.195312 459.222656 C 404.558594 462.445312 407.703125 466.765625 410.628906 472.179688 C 416.917969 485.066406 420.0625 501.609375 420.0625 521.816406 C 420.0625 542.3125 415.675781 559.664062 406.898438 573.867188 C 401.78125 582.0625 395.636719 588.433594 388.46875 592.972656 C 381.304688 597.511719 373.699219 599.855469 365.652344 600 C 356.730469 600 349.417969 597.878906 343.710938 593.632812 C 338.007812 589.386719 335.082031 583.089844 334.9375 574.742188 C 334.789062 566.398438 338.667969 562.296875 346.566406 562.445312 C 349.78125 562.445312 352.488281 563.46875 354.683594 565.519531 C 356.875 567.570312 357.972656 570.425781 357.972656 574.085938 C 357.972656 576.71875 357.316406 578.988281 356 580.894531 C 354.683594 582.796875 353.511719 583.96875 352.488281 584.40625 C 351.464844 584.847656 350.515625 585.210938 349.636719 585.503906 L 348.757812 585.726562 C 348.757812 586.015625 349.269531 586.457031 350.292969 587.042969 C 351.320312 587.628906 353.21875 588.359375 356 589.238281 C 358.777344 590.117188 361.851562 590.484375 365.214844 590.335938 L 366.53125 590.335938 C 375.304688 590.335938 382.691406 585.652344 388.691406 576.28125 C 394.394531 568.082031 397.246094 553.878906 397.246094 533.675781 Z M 373.550781 540.703125 C 380.570312 540.703125 386.203125 537.117188 390.445312 529.941406 C 394.6875 522.765625 396.878906 513.03125 397.027344 500.730469 C 397.027344 489.3125 396.441406 481.113281 395.273438 476.132812 C 394.980469 474.671875 394.539062 473.207031 393.957031 471.742188 C 393.371094 470.277344 392.347656 468.375 390.882812 466.03125 C 389.421875 463.691406 387.226562 461.714844 384.300781 460.101562 C 381.375 458.492188 377.9375 457.761719 373.988281 457.90625 C 368.433594 457.90625 363.679688 459.882812 359.730469 463.835938 C 356.65625 467.058594 354.683594 470.863281 353.804688 475.257812 C 352.925781 479.648438 352.414062 487.335938 352.269531 498.316406 C 352.269531 510.46875 352.636719 518.667969 353.367188 522.914062 C 354.097656 527.160156 355.558594 530.601562 357.753906 533.234375 C 361.410156 538.214844 366.675781 540.703125 373.550781 540.703125 Z M 373.550781 540.703125 " fill-opacity="1" fill-rule="nonzero"/><path fill="#000000" d="M 298.078125 396.191406 L 451.65625 396.191406 L 451.65625 383.015625 L 298.078125 383.015625 Z M 298.078125 396.191406 " fill-opacity="1" fill-rule="nonzero"/></svg>