<svg xmlns="http://www.w3.org/2000/svg" xmlns:xlink="http://www.w3.org/1999/xlink" width="1000" zoomAndPan="magnify" viewBox="0 0 750 749.999995" height="1000" preserveAspectRatio="xMidYMid meet" version="1.0"><rect x="-75" width="900" fill="#ffffff" y="-74.999999" height="899.999994" fill-opacity="1"/><rect x="-75" width="900" fill="#ffffff" y="-74.999999" height="899.999994" fill-opacity="1"/><path fill="#000000" d="M 422.964844 299.460938 C 420.300781 299.019531 410.761719 298.796875 394.34375 298.796875 C 377.183594 298.796875 367.273438 299.019531 364.609375 299.460938 L 362.613281 299.460938 L 362.613281 289.3125 L 369.492188 289.3125 C 372.449219 289.3125 374.449219 289.3125 375.484375 289.3125 C 376.519531 289.3125 377.777344 289.167969 379.253906 288.871094 C 380.734375 288.578125 381.769531 288.210938 382.359375 287.769531 C 382.953125 287.328125 383.46875 286.742188 383.914062 286.003906 C 384.0625 285.710938 384.136719 281.742188 384.136719 274.09375 L 384.136719 263.066406 L 326.671875 263.066406 L 326.671875 252.921875 L 360.171875 201.972656 C 382.804688 167.859375 394.269531 150.730469 394.5625 150.582031 C 394.859375 150.289062 396.414062 150.140625 399.222656 150.140625 L 403.21875 150.140625 L 404.546875 151.464844 L 404.546875 252.921875 L 424.960938 252.921875 L 424.960938 263.066406 L 404.546875 263.066406 L 404.546875 274.316406 C 404.546875 280.34375 404.546875 283.875 404.546875 284.902344 C 404.546875 285.933594 404.992188 286.8125 405.878906 287.550781 C 407.0625 288.578125 411.277344 289.167969 418.527344 289.3125 L 424.960938 289.3125 L 424.960938 299.460938 Z M 385.46875 252.921875 L 385.46875 179.257812 L 336.875 252.703125 L 361.0625 252.921875 Z M 385.46875 252.921875 " fill-opacity="1" fill-rule="nonzero"/><path fill="#000000" d="M 312.25 472.375 L 309.363281 473.480469 C 307.292969 474.214844 304.335938 474.949219 300.488281 475.683594 C 296.644531 476.417969 292.355469 476.933594 287.621094 477.226562 L 283.40625 477.226562 L 283.40625 467.082031 L 287.621094 467.082031 C 294.574219 466.789062 301.007812 465.6875 306.921875 463.773438 C 312.839844 461.863281 316.980469 460.097656 319.347656 458.480469 C 321.714844 456.863281 323.785156 455.246094 325.5625 453.628906 C 325.855469 453.1875 326.746094 452.964844 328.222656 452.964844 C 329.554688 452.964844 330.8125 453.40625 331.996094 454.289062 L 331.996094 520.238281 L 332.21875 586.402344 C 333.253906 587.433594 334.140625 588.09375 334.878906 588.386719 C 335.621094 588.683594 337.394531 588.976562 340.203125 589.269531 C 343.015625 589.566406 347.601562 589.710938 353.960938 589.710938 L 359.730469 589.710938 L 359.730469 599.859375 L 357.289062 599.859375 C 354.183594 599.417969 342.421875 599.195312 322.011719 599.195312 C 301.894531 599.195312 290.28125 599.417969 287.175781 599.859375 L 284.515625 599.859375 L 284.515625 589.710938 L 290.28125 589.710938 C 293.535156 589.710938 296.347656 589.710938 298.714844 589.710938 C 301.082031 589.710938 302.929688 589.636719 304.261719 589.492188 C 305.59375 589.34375 306.777344 589.125 307.8125 588.828125 C 308.847656 588.535156 309.4375 588.386719 309.585938 588.386719 C 309.734375 588.386719 310.175781 588.019531 310.917969 587.285156 C 311.65625 586.550781 312.101562 586.257812 312.25 586.402344 Z M 312.25 472.375 " fill-opacity="1" fill-rule="nonzero"/><path fill="#000000" d="M 400.109375 505.238281 C 396.117188 505.238281 392.9375 503.914062 390.570312 501.269531 C 388.203125 498.621094 387.019531 495.386719 387.019531 491.5625 C 387.019531 481.125 390.941406 472.082031 398.78125 464.4375 C 406.621094 456.789062 416.382812 452.964844 428.066406 452.964844 C 441.527344 452.964844 452.769531 457.082031 461.792969 465.316406 C 470.816406 473.550781 475.402344 484.210938 475.546875 497.296875 C 475.546875 503.621094 474.070312 509.648438 471.109375 515.382812 C 468.152344 521.117188 464.601562 526.117188 460.460938 530.382812 C 456.320312 534.644531 450.402344 540.085938 442.710938 546.703125 C 437.386719 551.261719 429.988281 558.023438 420.523438 566.996094 L 407.433594 579.347656 L 424.296875 579.566406 C 447.519531 579.566406 459.871094 579.199219 461.347656 578.464844 C 462.382812 578.167969 464.160156 571.625 466.671875 558.832031 L 466.671875 558.171875 L 475.546875 558.171875 L 475.546875 558.832031 C 475.402344 559.273438 474.4375 565.964844 472.664062 578.90625 C 470.890625 591.84375 469.78125 598.609375 469.335938 599.195312 L 469.335938 599.859375 L 387.019531 599.859375 L 387.019531 593.019531 C 387.019531 591.992188 387.464844 590.886719 388.351562 589.710938 C 389.238281 588.535156 391.457031 585.960938 395.007812 581.992188 C 399.296875 577.289062 402.996094 573.171875 406.101562 569.640625 C 407.433594 568.171875 409.949219 565.449219 413.644531 561.480469 C 417.34375 557.511719 419.859375 554.789062 421.1875 553.320312 C 422.519531 551.851562 424.664062 549.421875 427.625 546.042969 C 430.582031 542.660156 432.652344 540.160156 433.835938 538.542969 C 435.019531 536.925781 436.71875 534.71875 438.9375 531.925781 C 441.15625 529.132812 442.710938 526.78125 443.597656 524.867188 C 444.484375 522.957031 445.59375 520.824219 446.925781 518.472656 C 448.257812 516.121094 449.21875 513.765625 449.8125 511.414062 C 450.402344 509.0625 450.921875 506.855469 451.363281 504.796875 C 451.808594 502.738281 452.03125 500.3125 452.03125 497.519531 C 452.03125 488.253906 449.515625 480.242188 444.484375 473.480469 C 439.457031 466.714844 432.28125 463.332031 422.964844 463.332031 C 418.082031 463.332031 413.792969 464.582031 410.09375 467.082031 C 406.398438 469.582031 403.808594 472.007812 402.328125 474.359375 C 400.851562 476.714844 400.109375 478.109375 400.109375 478.550781 C 400.109375 478.699219 400.480469 478.773438 401.21875 478.773438 C 403.882812 478.773438 406.621094 479.800781 409.429688 481.859375 C 412.238281 483.917969 413.644531 487.300781 413.644531 492.003906 C 413.644531 495.679688 412.460938 498.769531 410.09375 501.269531 C 407.730469 503.769531 404.402344 505.089844 400.109375 505.238281 Z M 400.109375 505.238281 " fill-opacity="1" fill-rule="nonzero"/><path fill="#000000" d="M 242.800781 400.03125 L 509.050781 400.03125 L 509.050781 386.800781 L 242.800781 386.800781 Z M 242.800781 400.03125 " fill-opacity="1" fill-rule="nonzero"/></svg>