<svg xmlns="http://www.w3.org/2000/svg" xmlns:xlink="http://www.w3.org/1999/xlink" width="1000" zoomAndPan="magnify" viewBox="0 0 750 749.999995" height="1000" preserveAspectRatio="xMidYMid meet" version="1.0"><defs><clipPath id="3c66ab97eb"><path d="M 148 112.5 L 374 112.5 L 374 373 L 148 373 Z M 148 112.5 " clip-rule="nonzero"/></clipPath><clipPath id="35e2ee8102"><path d="M 378 112.5 L 603 112.5 L 603 373 L 378 373 Z M 378 112.5 " clip-rule="nonzero"/></clipPath><clipPath id="5d6e39e0e9"><path d="M 378 380 L 602 380 L 602 637.5 L 378 637.5 Z M 378 380 " clip-rule="nonzero"/></clipPath><clipPath id="114211a0f0"><path d="M 149 380 L 374 380 L 374 637.5 L 149 637.5 Z M 149 380 " clip-rule="nonzero"/></clipPath></defs><rect x="-75" width="900" fill="#ffffff" y="-74.999999" height="899.999994" fill-opacity="1"/><rect x="-75" width="900" fill="#ffffff" y="-74.999999" height="899.999994" fill-opacity="1"/><g clip-path="url(#3c66ab97eb)"><path fill="#a6a6a6" d="M 373.671875 372.1875 L 373.671875 112.496094 C 277.785156 113.109375 194.140625 165.125 148.828125 242.375 Z M 373.671875 372.1875 " fill-opacity="1" fill-rule="evenodd"/></g><g clip-path="url(#35e2ee8102)"><path fill="#a6a6a6" d="M 378.195312 372.1875 L 602.1875 242.867188 C 557.121094 165.652344 473.808594 113.542969 378.195312 112.527344 Z M 378.195312 372.1875 " fill-opacity="1" fill-rule="evenodd"/></g><path fill="#a6a6a6" d="M 371.402344 376.109375 L 146.566406 246.300781 C 125.132812 284.332031 112.84375 328.207031 112.847656 374.976562 C 112.847656 422.449219 125.507812 466.933594 147.550781 505.351562 Z M 371.402344 376.109375 " fill-opacity="1" fill-rule="evenodd"/><g clip-path="url(#5d6e39e0e9)"><path fill="#cf4a49" d="M 378.195312 380.035156 L 378.195312 637.425781 C 473.105469 636.417969 555.914062 585.074219 601.207031 508.792969 Z M 378.195312 380.035156 " fill-opacity="1" fill-rule="evenodd"/></g><g clip-path="url(#114211a0f0)"><path fill="#cf4a49" d="M 373.671875 380.039062 L 149.804688 509.285156 C 195.347656 585.597656 278.484375 636.847656 373.671875 637.457031 Z M 373.671875 380.039062 " fill-opacity="1" fill-rule="evenodd"/></g><path fill="#a6a6a6" d="M 380.460938 376.101562 L 603.46875 504.863281 C 625.332031 466.546875 637.886719 422.238281 637.882812 374.96875 C 637.882812 328.40625 625.710938 284.699219 604.445312 246.785156 Z M 380.460938 376.101562 " fill-opacity="1" fill-rule="evenodd"/></svg>