<svg xmlns="http://www.w3.org/2000/svg" xmlns:xlink="http://www.w3.org/1999/xlink" width="1000" zoomAndPan="magnify" viewBox="0 0 750 749.999995" height="1000" preserveAspectRatio="xMidYMid meet" version="1.0"><rect x="-75" width="900" fill="#ffffff" y="-74.999999" height="899.999994" fill-opacity="1"/><rect x="-75" width="900" fill="#ffffff" y="-74.999999" height="899.999994" fill-opacity="1"/><path fill="#000000" d="M 356.9375 261.730469 C 356.9375 265.242188 355.757812 268.171875 353.402344 270.511719 C 351.046875 272.855469 348.175781 274.023438 344.789062 274.023438 L 343.246094 274.023438 C 350.015625 285.585938 358.996094 291.367188 370.183594 291.367188 C 380.488281 291.367188 388 286.976562 392.710938 278.195312 C 395.507812 273.367188 396.90625 264 396.90625 250.097656 C 396.90625 235.023438 394.917969 224.855469 390.941406 219.585938 C 387.113281 214.757812 382.84375 212.339844 378.132812 212.339844 L 376.808594 212.339844 C 365.328125 212.339844 356.640625 217.316406 350.753906 227.269531 C 350.164062 228.292969 349.648438 228.878906 349.207031 229.023438 C 348.765625 229.171875 347.660156 229.316406 345.894531 229.464844 C 343.390625 229.464844 341.992188 229.023438 341.699219 228.144531 C 341.402344 227.5625 341.257812 214.757812 341.257812 189.730469 L 341.257812 161.414062 C 341.257812 154.097656 341.625 150.4375 342.359375 150.4375 C 342.65625 150.144531 342.949219 150 343.246094 150 C 343.390625 150 344.9375 150.585938 347.882812 151.757812 C 350.824219 152.925781 354.875 154.097656 360.027344 155.269531 C 365.179688 156.4375 370.699219 157.023438 376.589844 157.023438 C 387.042969 157.023438 397.050781 154.976562 406.621094 150.878906 C 407.796875 150.292969 408.753906 150 409.492188 150 C 410.667969 150 411.257812 151.316406 411.257812 153.953125 L 411.257812 156.804688 C 399.1875 171 384.097656 178.097656 365.988281 178.097656 C 361.425781 178.097656 357.304688 177.660156 353.625 176.78125 L 351.414062 176.339844 L 351.414062 214.097656 C 354.210938 212.046875 356.421875 210.4375 358.039062 209.269531 C 359.660156 208.097656 362.308594 206.925781 365.988281 205.757812 C 369.667969 204.585938 373.421875 204 377.25 204 C 389.175781 204 399.261719 208.757812 407.503906 218.269531 C 415.75 227.78125 419.871094 239.046875 419.871094 252.074219 C 419.871094 265.535156 415.160156 277.023438 405.738281 286.535156 C 396.316406 296.046875 384.832031 300.878906 371.289062 301.023438 C 359.363281 301.023438 349.796875 297.074219 342.582031 289.171875 C 335.367188 281.269531 331.761719 272.339844 331.761719 262.390625 C 331.761719 258.878906 332.570312 256.097656 334.191406 254.046875 C 335.808594 252 337.503906 250.683594 339.269531 250.097656 C 341.035156 249.511719 342.730469 249.21875 344.347656 249.21875 C 348.027344 249.21875 351.046875 250.464844 353.402344 252.953125 C 355.757812 255.4375 356.9375 258.367188 356.9375 261.730469 Z M 356.9375 261.730469 " fill-opacity="1" fill-rule="nonzero"/><path fill="#000000" d="M 312.550781 468.292969 L 309.679688 469.390625 C 307.617188 470.121094 304.671875 470.855469 300.847656 471.585938 C 297.019531 472.316406 292.75 472.828125 288.039062 473.121094 L 283.84375 473.121094 L 283.84375 463.023438 L 288.039062 463.023438 C 294.957031 462.730469 301.363281 461.632812 307.25 459.730469 C 313.140625 457.828125 317.261719 456.074219 319.617188 454.464844 C 321.972656 452.855469 324.03125 451.242188 325.800781 449.632812 C 326.09375 449.195312 326.976562 448.976562 328.449219 448.976562 C 329.773438 448.976562 331.027344 449.414062 332.203125 450.292969 L 332.203125 515.925781 L 332.425781 581.78125 C 333.453125 582.804688 334.335938 583.464844 335.074219 583.757812 C 335.808594 584.046875 337.578125 584.339844 340.375 584.632812 C 343.171875 584.925781 347.734375 585.074219 354.066406 585.074219 L 359.804688 585.074219 L 359.804688 595.171875 L 357.378906 595.171875 C 354.285156 594.730469 342.582031 594.511719 322.265625 594.511719 C 302.246094 594.511719 290.6875 594.730469 287.597656 595.171875 L 284.945312 595.171875 L 284.945312 585.074219 L 290.6875 585.074219 C 293.925781 585.074219 296.722656 585.074219 299.078125 585.074219 C 301.433594 585.074219 303.273438 585 304.601562 584.855469 C 305.925781 584.707031 307.101562 584.488281 308.132812 584.195312 C 309.164062 583.902344 309.753906 583.757812 309.898438 583.757812 C 310.046875 583.757812 310.488281 583.390625 311.226562 582.660156 C 311.960938 581.925781 312.402344 581.632812 312.550781 581.78125 Z M 312.550781 468.292969 " fill-opacity="1" fill-rule="nonzero"/><path fill="#000000" d="M 412.140625 560.707031 C 412.140625 564.21875 410.964844 567.144531 408.609375 569.488281 C 406.253906 571.828125 403.382812 573 399.996094 573 L 398.449219 573 C 405.222656 584.5625 414.203125 590.339844 425.390625 590.339844 C 435.695312 590.339844 443.203125 585.953125 447.914062 577.171875 C 450.710938 572.339844 452.109375 562.976562 452.109375 549.074219 C 452.109375 534 450.125 523.828125 446.148438 518.5625 C 442.320312 513.730469 438.050781 511.316406 433.339844 511.316406 L 432.015625 511.316406 C 420.53125 511.316406 411.847656 516.292969 405.957031 526.242188 C 405.371094 527.269531 404.855469 527.855469 404.414062 528 C 403.972656 528.144531 402.867188 528.292969 401.101562 528.4375 C 398.597656 528.4375 397.199219 528 396.90625 527.121094 C 396.609375 526.535156 396.464844 513.730469 396.464844 488.707031 L 396.464844 460.390625 C 396.464844 453.074219 396.832031 449.414062 397.566406 449.414062 C 397.863281 449.121094 398.15625 448.976562 398.449219 448.976562 C 398.597656 448.976562 400.144531 449.5625 403.085938 450.730469 C 406.03125 451.902344 410.082031 453.074219 415.234375 454.242188 C 420.386719 455.414062 425.90625 456 431.796875 456 C 442.246094 456 452.257812 453.953125 461.828125 449.855469 C 463.003906 449.269531 463.960938 448.976562 464.699219 448.976562 C 465.875 448.976562 466.464844 450.292969 466.464844 452.925781 L 466.464844 455.78125 C 454.394531 469.976562 439.304688 477.074219 421.195312 477.074219 C 416.632812 477.074219 412.507812 476.632812 408.828125 475.757812 L 406.621094 475.316406 L 406.621094 513.074219 C 409.417969 511.023438 411.625 509.414062 413.246094 508.242188 C 414.863281 507.074219 417.515625 505.902344 421.195312 504.730469 C 424.875 503.5625 428.628906 502.976562 432.457031 502.976562 C 444.382812 502.976562 454.464844 507.730469 462.710938 517.242188 C 470.953125 526.757812 475.078125 538.023438 475.078125 551.046875 C 475.078125 564.511719 470.367188 576 460.945312 585.511719 C 451.523438 595.023438 440.039062 599.855469 426.496094 600 C 414.570312 600 405 596.046875 397.789062 588.144531 C 390.574219 580.242188 386.96875 571.316406 386.96875 561.367188 C 386.96875 557.855469 387.777344 555.074219 389.398438 553.023438 C 391.015625 550.976562 392.710938 549.660156 394.476562 549.074219 C 396.242188 548.488281 397.933594 548.195312 399.554688 548.195312 C 403.234375 548.195312 406.253906 549.4375 408.609375 551.925781 C 410.964844 554.414062 412.140625 557.339844 412.140625 560.707031 Z M 412.140625 560.707031 " fill-opacity="1" fill-rule="nonzero"/><path fill="#000000" d="M 243.433594 396.292969 L 508.421875 396.292969 L 508.421875 383.121094 L 243.433594 383.121094 Z M 243.433594 396.292969 " fill-opacity="1" fill-rule="nonzero"/></svg>