<svg xmlns="http://www.w3.org/2000/svg" xmlns:xlink="http://www.w3.org/1999/xlink" width="1000" zoomAndPan="magnify" viewBox="0 0 750 749.999995" height="1000" preserveAspectRatio="xMidYMid meet" version="1.0"><rect x="-75" width="900" fill="#ffffff" y="-74.999999" height="899.999994" fill-opacity="1"/><rect x="-75" width="900" fill="#ffffff" y="-74.999999" height="899.999994" fill-opacity="1"/><path fill="#000000" d="M 329.996094 227.488281 C 329.996094 203.632812 335.957031 184.757812 347.882812 170.855469 C 359.804688 156.953125 373.054688 150 387.628906 150 C 397.789062 150 405.074219 152.632812 409.492188 157.902344 C 413.910156 163.171875 416.117188 169.023438 416.117188 175.464844 C 416.117188 179.121094 415.085938 182.046875 413.023438 184.242188 C 410.964844 186.4375 408.09375 187.535156 404.414062 187.535156 C 401.027344 187.535156 398.230469 186.511719 396.019531 184.464844 C 393.8125 182.414062 392.710938 179.5625 392.710938 175.902344 C 392.710938 169.464844 396.167969 165.585938 403.085938 164.269531 C 399.847656 161.046875 395.285156 159.21875 389.398438 158.78125 C 378.945312 158.78125 370.332031 163.171875 363.558594 171.953125 C 356.640625 181.609375 353.179688 196.390625 353.179688 216.292969 L 353.402344 217.171875 C 354.136719 216.292969 354.726562 215.339844 355.167969 214.316406 C 361.203125 205.535156 369.082031 201.144531 378.796875 201.144531 L 379.679688 201.144531 C 386.453125 201.144531 392.414062 202.535156 397.566406 205.316406 C 401.101562 207.367188 404.632812 210.292969 408.167969 214.097656 C 411.699219 217.902344 414.570312 222.074219 416.777344 226.609375 C 419.871094 233.78125 421.417969 241.609375 421.417969 250.097656 L 421.417969 254.046875 C 421.417969 257.414062 421.046875 260.5625 420.3125 263.488281 C 418.691406 272.121094 413.980469 280.535156 406.179688 288.730469 C 398.375 296.925781 388.511719 301.023438 376.589844 301.023438 C 372.46875 301.023438 368.492188 300.4375 364.664062 299.269531 C 360.835938 298.097656 356.714844 295.902344 352.296875 292.683594 C 347.882812 289.464844 344.128906 285.144531 341.035156 279.730469 C 337.945312 274.316406 335.292969 267.21875 333.085938 258.4375 C 330.878906 249.660156 329.847656 239.339844 329.996094 227.488281 Z M 377.472656 209.046875 C 373.054688 209.046875 369.226562 210.292969 365.988281 212.78125 C 362.75 215.269531 360.246094 218.5625 358.480469 222.660156 C 356.714844 226.757812 355.464844 230.925781 354.726562 235.171875 C 353.992188 239.414062 353.550781 243.953125 353.402344 248.78125 C 353.402344 260.925781 354.285156 269.632812 356.050781 274.902344 C 357.820312 280.171875 360.617188 284.414062 364.445312 287.632812 C 367.976562 290.269531 371.878906 291.585938 376.148438 291.585938 C 383.65625 291.585938 389.398438 288.804688 393.371094 283.242188 C 395.285156 280.609375 396.609375 277.316406 397.347656 273.367188 C 398.082031 269.414062 398.449219 261.730469 398.449219 250.316406 C 398.449219 238.609375 398.082031 230.78125 397.347656 226.828125 C 396.609375 222.878906 395.285156 219.585938 393.371094 216.953125 C 389.398438 211.683594 384.097656 209.046875 377.472656 209.046875 Z M 377.472656 209.046875 " fill-opacity="1" fill-rule="nonzero"/><path fill="#000000" d="M 312.550781 468.292969 L 309.679688 469.390625 C 307.617188 470.121094 304.671875 470.855469 300.847656 471.585938 C 297.019531 472.316406 292.75 472.828125 288.039062 473.121094 L 283.84375 473.121094 L 283.84375 463.023438 L 288.039062 463.023438 C 294.957031 462.730469 301.363281 461.632812 307.25 459.730469 C 313.140625 457.828125 317.261719 456.074219 319.617188 454.464844 C 321.972656 452.855469 324.03125 451.242188 325.800781 449.632812 C 326.09375 449.195312 326.976562 448.976562 328.449219 448.976562 C 329.773438 448.976562 331.027344 449.414062 332.203125 450.292969 L 332.203125 515.925781 L 332.425781 581.78125 C 333.453125 582.804688 334.335938 583.464844 335.074219 583.757812 C 335.808594 584.046875 337.578125 584.339844 340.375 584.632812 C 343.171875 584.925781 347.734375 585.074219 354.066406 585.074219 L 359.804688 585.074219 L 359.804688 595.171875 L 357.378906 595.171875 C 354.285156 594.730469 342.582031 594.511719 322.265625 594.511719 C 302.246094 594.511719 290.6875 594.730469 287.597656 595.171875 L 284.945312 595.171875 L 284.945312 585.074219 L 290.6875 585.074219 C 293.925781 585.074219 296.722656 585.074219 299.078125 585.074219 C 301.433594 585.074219 303.273438 585 304.601562 584.855469 C 305.925781 584.707031 307.101562 584.488281 308.132812 584.195312 C 309.164062 583.902344 309.753906 583.757812 309.898438 583.757812 C 310.046875 583.757812 310.488281 583.390625 311.226562 582.660156 C 311.960938 581.925781 312.402344 581.632812 312.550781 581.78125 Z M 312.550781 468.292969 " fill-opacity="1" fill-rule="nonzero"/><path fill="#000000" d="M 391.382812 503.632812 C 391.382812 503.632812 391.382812 498 391.382812 486.730469 C 391.382812 475.464844 395.359375 466.390625 403.308594 459.511719 C 411.257812 452.632812 420.386719 449.121094 430.691406 448.976562 C 441.144531 448.976562 450.417969 452.046875 458.515625 458.195312 C 466.613281 464.339844 470.660156 472.316406 470.660156 482.121094 C 470.660156 486.511719 469.851562 490.609375 468.230469 494.414062 C 466.613281 498.21875 464.699219 501.292969 462.488281 503.632812 C 460.28125 505.976562 458 508.023438 455.644531 509.78125 C 453.289062 511.535156 451.375 512.855469 449.902344 513.730469 C 448.429688 514.609375 447.621094 515.195312 447.472656 515.488281 L 450.566406 517.464844 C 452.625 518.925781 454.6875 520.390625 456.75 521.855469 C 458.808594 523.316406 459.988281 524.121094 460.28125 524.269531 C 471.324219 532.902344 476.84375 543.804688 476.84375 556.976562 C 476.84375 568.535156 472.574219 578.5625 464.035156 587.046875 C 455.496094 595.535156 444.457031 599.855469 430.910156 600 C 417.664062 600 406.769531 596.269531 398.230469 588.804688 C 389.691406 581.339844 385.421875 572.121094 385.421875 561.144531 C 385.421875 545.339844 394.917969 532.171875 413.910156 521.632812 L 409.933594 518.78125 C 406.84375 516.878906 404.855469 515.414062 403.972656 514.390625 C 395.578125 507.21875 391.382812 498 391.382812 486.730469 Z M 439.082031 510.4375 L 440.40625 509.5625 C 441.289062 508.976562 441.953125 508.535156 442.394531 508.242188 C 442.835938 507.953125 443.574219 507.4375 444.601562 506.707031 C 445.632812 505.976562 446.515625 505.242188 447.253906 504.511719 C 447.988281 503.78125 448.796875 502.902344 449.683594 501.878906 C 450.566406 500.855469 451.375 499.902344 452.109375 499.023438 C 452.847656 498.144531 453.582031 496.976562 454.320312 495.511719 C 455.054688 494.046875 455.71875 492.804688 456.304688 491.78125 C 456.894531 490.757812 457.261719 489.292969 457.410156 487.390625 C 457.558594 485.488281 457.703125 483.878906 457.851562 482.5625 C 457.851562 476.269531 455.71875 470.925781 451.449219 466.535156 C 447.179688 462.144531 442.246094 459.367188 436.652344 458.195312 C 435.621094 458.046875 433.195312 457.976562 429.367188 457.976562 C 423.332031 457.976562 417.664062 459.878906 412.363281 463.683594 C 407.0625 467.488281 404.339844 472.242188 404.191406 477.953125 C 404.191406 481.316406 405.148438 484.390625 407.0625 487.171875 C 408.976562 489.953125 410.890625 492.074219 412.804688 493.535156 C 414.71875 495 418.398438 497.339844 423.84375 500.5625 C 424.875 501.292969 425.683594 501.804688 426.273438 502.097656 Z M 431.132812 590.5625 C 439.671875 590.5625 447.03125 588.074219 453.214844 583.097656 C 459.398438 578.121094 462.488281 572.121094 462.488281 565.097656 C 462.488281 562.609375 462.121094 560.269531 461.386719 558.074219 C 460.648438 555.878906 459.765625 554.046875 458.734375 552.585938 C 457.703125 551.121094 456.085938 549.511719 453.878906 547.757812 C 451.667969 546 449.976562 544.683594 448.796875 543.804688 C 447.621094 542.925781 445.484375 541.535156 442.394531 539.632812 C 439.304688 537.730469 437.316406 536.488281 436.433594 535.902344 C 434.371094 534.585938 432.164062 533.195312 429.808594 531.730469 C 427.453125 530.269531 425.539062 529.023438 424.066406 528 L 422.300781 526.902344 C 421.417969 526.902344 419.28125 528.144531 415.894531 530.632812 C 412.507812 533.121094 408.976562 537.144531 405.296875 542.707031 C 401.617188 548.269531 399.703125 554.269531 399.554688 560.707031 C 399.554688 569.339844 402.71875 576.4375 409.050781 582 C 415.378906 587.5625 422.742188 590.414062 431.132812 590.5625 Z M 431.132812 590.5625 " fill-opacity="1" fill-rule="nonzero"/><path fill="#000000" d="M 243.433594 396.292969 L 508.421875 396.292969 L 508.421875 383.121094 L 243.433594 383.121094 Z M 243.433594 396.292969 " fill-opacity="1" fill-rule="nonzero"/></svg>