<svg xmlns="http://www.w3.org/2000/svg" xmlns:xlink="http://www.w3.org/1999/xlink" width="1000" zoomAndPan="magnify" viewBox="0 0 750 749.999995" height="1000" preserveAspectRatio="xMidYMid meet" version="1.0"><defs><clipPath id="fbf0e68412"><path d="M 127 148 L 597 148 L 597 606 L 127 606 Z M 127 148 " clip-rule="nonzero"/></clipPath><clipPath id="4308689c23"><path d="M 43.996094 524.503906 L 210.753906 51.277344 L 705.910156 225.761719 L 539.152344 698.988281 Z M 43.996094 524.503906 " clip-rule="nonzero"/></clipPath><clipPath id="c8245af742"><path d="M 43.996094 524.503906 L 210.753906 51.277344 L 705.910156 225.761719 L 539.152344 698.988281 Z M 43.996094 524.503906 " clip-rule="nonzero"/></clipPath><clipPath id="70e58cbe44"><path d="M 140 135 L 597 135 L 597 608 L 140 608 Z M 140 135 " clip-rule="nonzero"/></clipPath><clipPath id="314d4f83a0"><path d="M 43.996094 524.503906 L 210.753906 51.277344 L 705.910156 225.761719 L 539.152344 698.988281 Z M 43.996094 524.503906 " clip-rule="nonzero"/></clipPath><clipPath id="f295c556a0"><path d="M 43.996094 524.503906 L 210.753906 51.277344 L 705.910156 225.761719 L 539.152344 698.988281 Z M 43.996094 524.503906 " clip-rule="nonzero"/></clipPath><clipPath id="337c8e9682"><path d="M 280 143 L 447 143 L 447 599 L 280 599 Z M 280 143 " clip-rule="nonzero"/></clipPath><clipPath id="52f5455267"><path d="M 43.996094 524.503906 L 210.753906 51.277344 L 705.910156 225.761719 L 539.152344 698.988281 Z M 43.996094 524.503906 " clip-rule="nonzero"/></clipPath><clipPath id="d9b36d9005"><path d="M 43.996094 524.503906 L 210.753906 51.277344 L 705.910156 225.761719 L 539.152344 698.988281 Z M 43.996094 524.503906 " clip-rule="nonzero"/></clipPath><clipPath id="6e039b39dc"><path d="M 136 288 L 591 288 L 591 454 L 136 454 Z M 136 288 " clip-rule="nonzero"/></clipPath><clipPath id="f809f98c6d"><path d="M 43.996094 524.503906 L 210.753906 51.277344 L 705.910156 225.761719 L 539.152344 698.988281 Z M 43.996094 524.503906 " clip-rule="nonzero"/></clipPath><clipPath id="d374aa4ef8"><path d="M 43.996094 524.503906 L 210.753906 51.277344 L 705.910156 225.761719 L 539.152344 698.988281 Z M 43.996094 524.503906 " clip-rule="nonzero"/></clipPath><clipPath id="48140655ce"><path d="M 121 129 L 607 129 L 607 615 L 121 615 Z M 121 129 " clip-rule="nonzero"/></clipPath><clipPath id="1c25558ddf"><path d="M 43.996094 524.503906 L 210.753906 51.277344 L 705.910156 225.761719 L 539.152344 698.988281 Z M 43.996094 524.503906 " clip-rule="nonzero"/></clipPath><clipPath id="b8e37c48b2"><path d="M 43.996094 524.503906 L 210.753906 51.277344 L 705.910156 225.761719 L 539.152344 698.988281 Z M 43.996094 524.503906 " clip-rule="nonzero"/></clipPath><clipPath id="2ada1b7246"><path d="M 253 218 L 370 218 L 370 275 L 253 275 Z M 253 218 " clip-rule="nonzero"/></clipPath><clipPath id="b39b4c6878"><path d="M 43.996094 524.503906 L 210.753906 51.277344 L 705.910156 225.761719 L 539.152344 698.988281 Z M 43.996094 524.503906 " clip-rule="nonzero"/></clipPath><clipPath id="49156ef497"><path d="M 43.996094 524.503906 L 210.753906 51.277344 L 705.910156 225.761719 L 539.152344 698.988281 Z M 43.996094 524.503906 " clip-rule="nonzero"/></clipPath><clipPath id="8a18c94cdd"><path d="M 296 214 L 325 214 L 325 276 L 296 276 Z M 296 214 " clip-rule="nonzero"/></clipPath><clipPath id="b4bd33ed1a"><path d="M 43.996094 524.503906 L 210.753906 51.277344 L 705.910156 225.761719 L 539.152344 698.988281 Z M 43.996094 524.503906 " clip-rule="nonzero"/></clipPath><clipPath id="16ba848515"><path d="M 43.996094 524.503906 L 210.753906 51.277344 L 705.910156 225.761719 L 539.152344 698.988281 Z M 43.996094 524.503906 " clip-rule="nonzero"/></clipPath></defs><rect x="-75" width="900" fill="#ffffff" y="-74.999999" height="899.999994" fill-opacity="1"/><rect x="-75" width="900" fill="#ffffff" y="-74.999999" height="899.999994" fill-opacity="1"/><g clip-path="url(#fbf0e68412)"><g clip-path="url(#4308689c23)"><g clip-path="url(#c8245af742)"><path fill="#fefefe" d="M 439.878906 148.050781 C 449.050781 156.277344 543.765625 168.429688 581.007812 276.785156 C 604.644531 345.546875 595.960938 415.558594 585.773438 450.765625 C 570.480469 503.597656 497.792969 640.796875 280.875 596.351562 C 202.941406 580.386719 91.980469 463.667969 138.699219 290.351562 Z M 439.878906 148.050781 " fill-opacity="1" fill-rule="nonzero"/></g></g></g><g clip-path="url(#70e58cbe44)"><g clip-path="url(#314d4f83a0)"><g clip-path="url(#f295c556a0)"><path fill="#6d5764" d="M 360.097656 369.585938 L 360.101562 369.585938 L 284.3125 596.882812 C 389.757812 620.222656 469.65625 610.9375 539.757812 527.863281 C 642.289062 406.351562 579.925781 268.023438 558.820312 237.445312 C 515.390625 174.527344 433.121094 137.703125 396.148438 136.070312 C 184.179688 126.703125 140.53125 293.386719 140.53125 293.386719 L 360.097656 369.585938 L 360.101562 369.585938 Z M 360.097656 369.585938 " fill-opacity="1" fill-rule="nonzero"/></g></g></g><g clip-path="url(#337c8e9682)"><g clip-path="url(#52f5455267)"><g clip-path="url(#d9b36d9005)"><path fill="#00010d" d="M 280.386719 592.816406 L 437.144531 146.847656 C 437.992188 144.445312 440.621094 143.183594 443.023438 144.027344 C 445.429688 144.871094 446.691406 147.503906 445.847656 149.90625 L 289.085938 595.875 C 288.242188 598.277344 285.609375 599.539062 283.207031 598.695312 C 280.804688 597.851562 279.539062 595.21875 280.386719 592.816406 Z M 280.386719 592.816406 " fill-opacity="1" fill-rule="nonzero"/></g></g></g><g clip-path="url(#6e039b39dc)"><g clip-path="url(#f809f98c6d)"><g clip-path="url(#d374aa4ef8)"><path fill="#00010d" d="M 143.046875 288.425781 L 586.949219 444.6875 C 589.351562 445.535156 590.613281 448.167969 589.769531 450.570312 C 588.921875 452.972656 586.289062 454.234375 583.886719 453.386719 L 139.984375 297.125 C 137.582031 296.277344 136.320312 293.644531 137.164062 291.242188 C 138.011719 288.84375 140.644531 287.582031 143.046875 288.425781 Z M 143.046875 288.425781 " fill-opacity="1" fill-rule="nonzero"/></g></g></g><g clip-path="url(#48140655ce)"><g clip-path="url(#1c25558ddf)"><g clip-path="url(#b8e37c48b2)"><path fill="#00010d" d="M 444.65625 143.066406 C 571.105469 187.625 637.492188 326.253906 592.933594 452.703125 C 548.375 579.152344 409.746094 645.535156 283.296875 600.976562 C 156.847656 556.421875 90.460938 417.792969 135.019531 291.34375 C 179.578125 164.894531 318.207031 98.507812 444.65625 143.066406 M 441.097656 153.171875 C 320.226562 110.578125 187.71875 174.035156 145.125 294.902344 C 102.535156 415.773438 165.988281 548.28125 286.859375 590.875 C 407.726562 633.464844 540.238281 570.011719 582.828125 449.140625 C 625.421875 328.273438 561.964844 195.761719 441.097656 153.171875 Z M 441.097656 153.171875 " fill-opacity="1" fill-rule="nonzero"/></g></g></g><g clip-path="url(#2ada1b7246)"><g clip-path="url(#b39b4c6878)"><g clip-path="url(#49156ef497)"><path fill="#6d5764" d="M 263.035156 229.21875 C 262.625 230.386719 262.992188 231.441406 264.132812 232.394531 C 264.355469 232.566406 264.699219 232.808594 265.164062 233.113281 C 265.507812 233.355469 265.746094 233.519531 265.878906 233.617188 C 266.785156 234.292969 267.066406 235.152344 266.722656 236.199219 C 266.429688 237.09375 266.191406 237.796875 266.015625 238.304688 C 265.773438 238.984375 265.535156 239.597656 265.289062 240.15625 C 265.605469 240.007812 265.851562 239.714844 266.027344 239.277344 C 266.265625 238.730469 266.53125 238.027344 266.835938 237.171875 C 267.035156 236.601562 267.253906 235.960938 267.484375 235.253906 C 267.761719 234.398438 267.523438 233.683594 266.773438 233.109375 C 266.640625 233.015625 266.339844 232.8125 265.878906 232.507812 C 265.511719 232.261719 265.230469 232.054688 265.027344 231.886719 C 263.773438 230.847656 263.347656 229.6875 263.753906 228.402344 C 263.605469 228.421875 263.472656 228.457031 263.355469 228.511719 C 263.234375 228.730469 263.167969 228.851562 263.160156 228.871094 Z M 262.789062 219.226562 C 264.914062 218.652344 267.046875 218.773438 269.175781 219.597656 C 269.429688 219.6875 269.824219 219.824219 270.351562 220.011719 L 271.304688 220.347656 L 271.292969 220.378906 L 271.625 220.460938 C 272.28125 220.691406 272.804688 220.886719 273.203125 221.050781 C 275.636719 221.980469 277.351562 223.464844 278.347656 225.507812 C 278.523438 225.878906 278.6875 226.164062 278.832031 226.355469 C 279.179688 226.859375 279.5625 227.089844 279.980469 227.046875 L 280.261719 226.96875 C 280.503906 226.886719 280.945312 226.746094 281.589844 226.542969 C 280.773438 226.757812 280.125 226.503906 279.640625 225.785156 C 279.488281 225.539062 279.3125 225.230469 279.113281 224.847656 C 278.179688 222.902344 276.539062 221.476562 274.191406 220.578125 L 271.933594 219.78125 L 270.15625 219.15625 C 267.710938 218.199219 265.257812 218.222656 262.789062 219.226562 Z M 282.289062 226.34375 C 282.324219 226.332031 282.363281 226.320312 282.398438 226.308594 C 282.351562 226.320312 282.316406 226.332031 282.289062 226.339844 Z M 280.796875 238.011719 C 281.035156 237.8125 281.363281 237.355469 281.777344 236.644531 C 281.828125 236.570312 281.890625 236.460938 281.964844 236.320312 C 281.902344 236.367188 281.855469 236.398438 281.824219 236.414062 C 281.621094 236.652344 281.519531 236.769531 281.519531 236.769531 C 281.453125 236.890625 281.339844 237.074219 281.179688 237.328125 L 280.984375 237.683594 C 280.996094 237.671875 280.996094 237.671875 280.996094 237.675781 C 280.988281 237.695312 280.921875 237.808594 280.796875 238.011719 Z M 287.972656 242.6875 L 288.492188 242.726562 C 289.0625 242.738281 289.476562 242.742188 289.738281 242.738281 C 289.761719 242.746094 289.785156 242.742188 289.816406 242.726562 C 289.863281 242.722656 289.890625 242.71875 289.890625 242.71875 C 290.039062 242.628906 290.113281 242.59375 290.105469 242.617188 C 290.234375 242.519531 290.363281 242.421875 290.492188 242.324219 C 290.257812 242.3125 289.777344 242.296875 289.042969 242.277344 C 288.578125 242.257812 288.222656 242.390625 287.972656 242.683594 Z M 253.652344 228.558594 C 252.617188 231.492188 252.972656 234.316406 254.710938 237.039062 C 256.320312 239.558594 258.585938 241.175781 261.5 241.894531 C 262.417969 242.121094 263.066406 241.804688 263.445312 240.9375 C 263.628906 240.476562 263.839844 239.914062 264.078125 239.238281 C 264.3125 238.566406 264.578125 237.789062 264.867188 236.902344 C 265.144531 236.046875 264.902344 235.34375 264.144531 234.789062 C 264.019531 234.675781 263.734375 234.46875 263.292969 234.167969 C 262.929688 233.921875 262.644531 233.714844 262.441406 233.546875 C 261.121094 232.464844 260.703125 231.234375 261.1875 229.867188 C 261.222656 229.757812 261.265625 229.652344 261.316406 229.542969 C 262.007812 228.046875 263.242188 227.386719 265.015625 227.558594 C 266.347656 227.695312 267.808594 228.316406 269.394531 229.425781 C 271.492188 230.902344 272.429688 232.898438 272.210938 235.417969 C 272.089844 236.78125 272.144531 237.632812 272.378906 237.976562 C 272.59375 238.316406 273.375 238.734375 274.722656 239.230469 C 275.316406 239.441406 275.734375 239.578125 275.972656 239.636719 C 276.898438 239.914062 277.53125 239.984375 277.867188 239.839844 C 278.203125 239.695312 278.644531 239.183594 279.191406 238.308594 C 279.539062 237.742188 279.71875 237.4375 279.734375 237.390625 C 279.734375 237.386719 279.734375 237.386719 279.734375 237.386719 L 279.734375 237.382812 C 281.140625 235.359375 282.996094 234.609375 285.308594 235.140625 C 287.132812 235.570312 288.808594 236.160156 290.328125 236.910156 C 291.613281 237.527344 292.261719 238.554688 292.28125 239.988281 C 292.300781 240.507812 292.234375 240.988281 292.078125 241.421875 C 291.820312 242.160156 291.308594 242.777344 290.550781 243.273438 C 289.839844 243.738281 289.089844 243.972656 288.300781 243.980469 C 288.230469 243.980469 287.605469 243.960938 286.425781 243.929688 C 285.761719 243.910156 285.324219 244.191406 285.121094 244.773438 C 285.101562 244.828125 285.082031 244.886719 285.066406 244.949219 C 284.632812 246.652344 284.382812 247.601562 284.316406 247.792969 C 283.851562 249.175781 283.742188 250.101562 283.980469 250.566406 C 284.230469 251.011719 285.105469 251.460938 286.609375 251.921875 C 287.261719 252.101562 287.789062 252.195312 288.195312 252.195312 C 292.789062 252.195312 296.269531 250.394531 298.632812 246.800781 C 298.9375 246.335938 299.410156 245.191406 300.054688 243.371094 C 300.0625 243.34375 300.074219 243.316406 300.082031 243.289062 C 301.019531 240.632812 300.828125 237.894531 299.511719 235.074219 C 298.183594 232.222656 296.152344 230.316406 293.421875 229.355469 C 290.003906 228.175781 288.074219 227.496094 287.636719 227.316406 C 285.957031 226.675781 284.203125 226.621094 282.378906 227.140625 C 281.984375 227.242188 281.433594 227.417969 280.726562 227.667969 C 279.949219 227.917969 279.398438 228.09375 279.078125 228.195312 C 278.226562 228.441406 277.542969 228.1875 277.023438 227.433594 C 276.871094 227.191406 276.695312 226.878906 276.496094 226.5 C 275.554688 224.570312 273.910156 223.160156 271.5625 222.257812 L 269.316406 221.433594 L 267.570312 220.816406 C 264.824219 219.753906 262.066406 219.914062 259.292969 221.292969 C 256.808594 222.535156 255.132812 224.386719 254.265625 226.84375 L 253.816406 228.113281 C 253.757812 228.261719 253.703125 228.410156 253.652344 228.558594 Z M 282.425781 226.300781 C 282.496094 226.300781 282.542969 226.296875 282.574219 226.28125 C 283.164062 226.085938 283.554688 225.960938 283.742188 225.910156 C 285.648438 225.367188 287.480469 225.429688 289.246094 226.097656 C 290.171875 226.449219 291.542969 226.941406 293.363281 227.585938 L 295.015625 228.167969 C 297.84375 229.140625 299.949219 231.097656 301.339844 234.039062 C 302.710938 236.976562 302.910156 239.828125 301.929688 242.605469 L 301.472656 243.90625 C 301.128906 244.882812 300.777344 245.640625 300.421875 246.179688 C 300.398438 246.242188 300.351562 246.308594 300.277344 246.378906 C 300.199219 246.46875 300.152344 246.535156 300.136719 246.578125 C 300.542969 246.105469 300.902344 245.625 301.214844 245.140625 C 301.523438 244.675781 302.007812 243.535156 302.671875 241.722656 C 302.679688 241.695312 302.691406 241.667969 302.699219 241.640625 C 303.636719 238.984375 303.445312 236.246094 302.128906 233.425781 C 300.78125 230.566406 298.75 228.660156 296.039062 227.707031 C 292.628906 226.503906 290.6875 225.820312 290.222656 225.65625 C 288.566406 225.023438 286.824219 224.960938 285.003906 225.460938 C 284.902344 225.492188 284.042969 225.773438 282.425781 226.296875 Z M 342.707031 259.472656 C 343.832031 260.464844 344.753906 261.265625 345.464844 261.875 C 345.566406 261.386719 345.464844 261.003906 345.15625 260.730469 C 344.6875 260.300781 343.878906 259.886719 342.738281 259.484375 Z M 323.894531 242.308594 C 324.15625 242.304688 324.332031 242.320312 324.414062 242.347656 C 324.855469 242.457031 325.496094 242.660156 326.34375 242.957031 L 339.242188 247.503906 C 342.570312 248.675781 345.074219 249.542969 346.753906 250.113281 C 347.539062 250.390625 348.410156 250.613281 349.375 250.785156 L 349.429688 250.628906 C 349.4375 250.605469 349.5 250.460938 349.617188 250.195312 C 348.917969 250.019531 348.304688 249.835938 347.773438 249.652344 C 346.75 249.3125 343.335938 248.121094 337.53125 246.078125 C 332.363281 244.257812 329.039062 243.085938 327.554688 242.5625 C 326.601562 242.226562 325.917969 242.007812 325.5 241.910156 C 324.792969 241.753906 324.257812 241.886719 323.898438 242.304688 Z M 339.84375 258.867188 C 339.851562 258.84375 339.859375 258.820312 339.871094 258.796875 C 339.988281 258.527344 340.1875 258.371094 340.464844 258.328125 C 341.019531 258.238281 341.867188 258.367188 343.003906 258.722656 C 344.234375 259.15625 345.132812 259.613281 345.699219 260.097656 C 346.167969 260.527344 346.375 261.085938 346.320312 261.78125 C 346.300781 261.976562 346.257812 262.15625 346.199219 262.320312 C 346.050781 262.75 345.777344 263.089844 345.378906 263.34375 C 344.890625 263.648438 344.394531 263.59375 343.898438 263.179688 C 343.234375 262.636719 342.011719 261.574219 340.234375 259.996094 C 340.199219 259.960938 340.097656 259.816406 339.921875 259.5625 C 339.785156 259.34375 339.757812 259.109375 339.84375 258.867188 Z M 352.75 272.726562 C 353.074219 272.554688 353.347656 272.175781 353.578125 271.589844 C 353.488281 271.84375 354.199219 269.894531 355.714844 265.734375 C 355.9375 265.101562 356.105469 264.660156 356.214844 264.414062 C 356.082031 264.390625 355.949219 264.390625 355.820312 264.417969 C 355.628906 264.824219 355.394531 265.421875 355.121094 266.203125 L 354.214844 268.777344 C 353.617188 270.472656 353.148438 271.738281 352.804688 272.570312 Z M 319.382812 248.71875 C 318.964844 249.914062 319.257812 250.933594 320.269531 251.78125 C 320.613281 252.09375 322.355469 253.671875 325.496094 256.515625 C 334.324219 264.507812 339.199219 268.953125 340.121094 269.847656 C 342.148438 271.800781 344.96875 273.320312 348.585938 274.402344 C 349.238281 274.585938 349.734375 274.59375 350.078125 274.429688 C 350.414062 274.285156 350.707031 273.898438 350.949219 273.273438 C 350.917969 273.34375 350.941406 273.277344 351.011719 273.070312 C 351.234375 272.445312 351.925781 270.5625 353.085938 267.417969 C 353.546875 266.105469 353.878906 265.265625 354.078125 264.910156 C 354.628906 263.816406 355.527344 263.394531 356.773438 263.644531 C 357.082031 263.707031 357.769531 263.925781 358.828125 264.296875 C 361.257812 265.109375 362.46875 265.523438 362.464844 265.539062 C 363.222656 265.757812 363.777344 265.773438 364.121094 265.589844 C 364.472656 265.40625 364.808594 264.929688 365.128906 264.160156 C 365.304688 263.707031 365.472656 263.257812 365.632812 262.8125 C 365.867188 262.140625 366.082031 261.472656 366.269531 260.8125 C 366.445312 260.183594 366.449219 259.695312 366.285156 259.351562 C 366.121094 259.007812 365.734375 258.71875 365.128906 258.480469 C 364.570312 258.238281 363.761719 257.929688 362.703125 257.554688 C 361.582031 257.160156 360.777344 256.875 360.289062 256.703125 C 359.203125 256.273438 358.535156 255.835938 358.289062 255.390625 C 358.03125 254.96875 357.988281 254.179688 358.15625 253.023438 C 358.160156 252.953125 358.175781 252.863281 358.214844 252.757812 C 358.230469 252.644531 358.25 252.558594 358.273438 252.492188 C 358.347656 251.949219 358.308594 251.542969 358.164062 251.277344 C 358.019531 251.011719 357.703125 250.769531 357.207031 250.546875 C 356.835938 250.390625 355.824219 250.011719 354.179688 249.410156 C 352.953125 248.976562 352.128906 248.816406 351.707031 248.929688 C 351.109375 249.074219 350.601562 249.730469 350.191406 250.894531 C 349.839844 251.890625 349.105469 252.289062 347.988281 252.082031 C 346.980469 251.894531 346.03125 251.65625 345.132812 251.363281 C 344.160156 251.019531 340.75 249.820312 334.902344 247.757812 L 324.925781 244.242188 C 323.953125 243.898438 323.265625 243.683594 322.871094 243.589844 C 321.921875 243.375 321.265625 243.714844 320.902344 244.613281 C 320.683594 245.105469 320.421875 245.773438 320.125 246.621094 L 319.40625 248.65625 C 319.398438 248.675781 319.390625 248.699219 319.382812 248.71875 Z M 353.703125 247.632812 C 354.167969 247.652344 354.867188 247.839844 355.789062 248.1875 L 356.488281 248.4375 C 357.546875 248.808594 358.335938 249.109375 358.847656 249.339844 C 359.863281 249.769531 360.300781 250.554688 360.160156 251.695312 C 360.160156 251.765625 360.132812 251.875 360.082031 252.023438 C 360.050781 252.109375 360.039062 252.175781 360.046875 252.226562 C 359.886719 253.289062 359.910156 254 360.117188 254.355469 C 360.332031 254.695312 360.9375 255.0625 361.941406 255.464844 C 362.398438 255.648438 363.136719 255.921875 364.152344 256.28125 C 365.320312 256.691406 366.195312 257.011719 366.777344 257.242188 C 368.070312 257.765625 368.523438 258.710938 368.136719 260.078125 C 367.964844 260.707031 367.769531 261.328125 367.550781 261.941406 C 367.371094 262.449219 367.183594 262.953125 366.980469 263.457031 C 366.945312 263.5625 366.882812 263.703125 366.796875 263.886719 L 366.792969 263.890625 C 367.125 263.695312 367.449219 263.214844 367.765625 262.445312 C 367.945312 261.996094 368.113281 261.546875 368.269531 261.101562 C 368.503906 260.4375 368.714844 259.78125 368.898438 259.132812 C 369.101562 258.488281 369.117188 258.003906 368.945312 257.683594 C 368.78125 257.339844 368.386719 257.035156 367.765625 256.769531 C 367.203125 256.546875 366.402344 256.25 365.363281 255.886719 C 364.242188 255.488281 363.429688 255.191406 362.929688 254.992188 C 361.84375 254.5625 361.171875 254.132812 360.914062 253.710938 C 360.667969 253.265625 360.625 252.476562 360.785156 251.34375 C 360.808594 251.28125 360.828125 251.191406 360.84375 251.078125 C 360.886719 250.949219 360.90625 250.863281 360.902344 250.8125 C 360.972656 250.265625 360.9375 249.859375 360.792969 249.59375 C 360.648438 249.332031 360.339844 249.089844 359.867188 248.875 C 359.480469 248.691406 358.460938 248.308594 356.808594 247.726562 C 355.253906 247.15625 354.214844 247.121094 353.703125 247.628906 Z M 353.703125 247.632812 " fill-opacity="1" fill-rule="nonzero"/></g></g></g><g clip-path="url(#8a18c94cdd)"><g clip-path="url(#b4bd33ed1a)"><g clip-path="url(#16ba848515)"><path fill="#6d5764" d="M 297.113281 268.832031 C 296.773438 269.925781 296.820312 270.644531 297.253906 270.992188 C 297.265625 270.683594 297.355469 270.265625 297.519531 269.742188 C 297.570312 269.589844 297.65625 269.355469 297.773438 269.03125 L 302.324219 256.289062 C 308.320312 239.488281 312.816406 226.898438 315.8125 218.507812 C 316.390625 216.894531 316.925781 215.972656 317.421875 215.734375 C 317.941406 215.507812 319.027344 215.691406 320.683594 216.28125 L 321.003906 216.398438 C 321.714844 216.652344 322.308594 216.886719 322.789062 217.105469 C 322.664062 216.84375 322.425781 216.625 322.078125 216.453125 C 321.574219 216.226562 320.820312 215.929688 319.808594 215.570312 C 318.261719 215.015625 317.28125 214.835938 316.875 215.03125 C 316.441406 215.214844 315.960938 216.0625 315.421875 217.566406 C 313.707031 222.363281 307.714844 239.152344 297.4375 267.929688 C 297.269531 268.402344 297.160156 268.703125 297.113281 268.832031 Z M 298.605469 271.183594 C 298.339844 272.058594 298.285156 272.660156 298.433594 272.980469 C 298.578125 273.320312 299.054688 273.660156 299.855469 273.996094 C 300.070312 274.074219 300.597656 274.261719 301.4375 274.558594 C 303.027344 275.128906 304.007812 275.332031 304.382812 275.175781 C 304.761719 274.996094 305.226562 274.132812 305.78125 272.582031 L 323.589844 222.703125 C 323.625 222.609375 323.65625 222.515625 323.691406 222.425781 C 324 221.550781 324.214844 220.871094 324.34375 220.390625 C 324.503906 219.671875 324.242188 219.152344 323.554688 218.835938 C 323.0625 218.585938 322.320312 218.285156 321.332031 217.933594 C 319.773438 217.398438 318.78125 217.226562 318.351562 217.414062 C 317.921875 217.597656 317.4375 218.445312 316.898438 219.949219 C 314.902344 225.542969 308.910156 242.320312 298.925781 270.28125 C 298.757812 270.753906 298.648438 271.054688 298.605469 271.183594 Z M 298.605469 271.183594 " fill-opacity="1" fill-rule="nonzero"/></g></g></g></svg>