<svg xmlns="http://www.w3.org/2000/svg" xmlns:xlink="http://www.w3.org/1999/xlink" width="1000" zoomAndPan="magnify" viewBox="0 0 750 749.999995" height="1000" preserveAspectRatio="xMidYMid meet" version="1.0"><defs><clipPath id="217a6dc754"><path d="M 123.421875 112.5 L 626.671875 112.5 L 626.671875 616 L 123.421875 616 Z M 123.421875 112.5 " clip-rule="nonzero"/></clipPath></defs><rect x="-75" width="900" fill="#ffffff" y="-74.999999" height="899.999994" fill-opacity="1"/><rect x="-75" width="900" fill="#ffffff" y="-74.999999" height="899.999994" fill-opacity="1"/><path fill="#fefefe" d="M 148.84375 257.320312 L 207.984375 180.609375 C 285.011719 125.769531 371.675781 118.425781 371.675781 118.425781 C 564.628906 125.910156 622.210938 288.355469 622.964844 368.101562 C 623.371094 411.148438 587.121094 554.097656 464.664062 593.144531 C 325.582031 637.496094 222.507812 569.847656 200.429688 536.195312 L 129.320312 365.566406 Z M 148.84375 257.320312 " fill-opacity="1" fill-rule="nonzero"/><path fill="#6d5764" d="M 126.582031 365.410156 L 126.582031 365.40625 C 123.824219 347.558594 126.582031 365.410156 126.582031 365.410156 C 146.601562 495.074219 202.230469 537.414062 202.230469 537.414062 L 374.964844 365.5 C 405.226562 396.480469 497.019531 490.230469 542.707031 539.859375 C 562.84375 561.730469 619.074219 423.722656 619.199219 366.339844 C 619.296875 322.671875 596.53125 240.980469 545.933594 188.167969 C 502.113281 142.429688 420.957031 115.574219 373.945312 119.253906 C 320.941406 123.402344 239.652344 151.507812 204.589844 190.679688 C 199.796875 196.039062 160.269531 234.085938 141.425781 289.203125 C 133.40625 312.65625 126.582031 365.410156 126.582031 365.410156 Z M 126.582031 365.410156 " fill-opacity="1" fill-rule="nonzero"/><path fill="#00010d" d="M 369.667969 610.601562 L 368.957031 121.890625 C 368.953125 119.253906 371.085938 117.113281 373.722656 117.109375 C 376.359375 117.105469 378.5 119.238281 378.503906 121.875 L 379.21875 610.585938 C 379.222656 613.222656 377.085938 615.363281 374.449219 615.367188 C 371.8125 615.371094 369.671875 613.238281 369.667969 610.601562 Z M 369.667969 610.601562 " fill-opacity="1" fill-rule="nonzero"/><path fill="#00010d" d="M 619.707031 371.871094 L 134.210938 368.875 C 131.574219 368.859375 129.449219 366.710938 129.464844 364.074219 C 129.480469 361.433594 131.632812 359.3125 134.269531 359.328125 L 619.765625 362.320312 C 622.402344 362.335938 624.527344 364.488281 624.511719 367.125 C 624.496094 369.761719 622.34375 371.886719 619.707031 371.871094 Z M 619.707031 371.871094 " fill-opacity="1" fill-rule="nonzero"/><path fill="#00010d" d="M 198.980469 533.972656 L 542.742188 182.992188 C 544.585938 181.109375 547.609375 181.078125 549.492188 182.921875 C 551.375 184.769531 551.40625 187.792969 549.5625 189.675781 L 205.804688 540.65625 C 203.960938 542.539062 200.9375 542.570312 199.050781 540.726562 C 197.167969 538.878906 197.136719 535.855469 198.980469 533.972656 Z M 198.980469 533.972656 " fill-opacity="1" fill-rule="nonzero"/><path fill="#00010d" d="M 542.25 543.535156 L 199.824219 190.472656 C 197.988281 188.578125 198.035156 185.558594 199.925781 183.722656 C 201.820312 181.886719 204.84375 181.929688 206.679688 183.824219 L 549.101562 536.886719 C 550.9375 538.777344 550.894531 541.800781 549 543.636719 C 547.105469 545.472656 544.085938 545.425781 542.25 543.535156 Z M 542.25 543.535156 " fill-opacity="1" fill-rule="nonzero"/><g clip-path="url(#217a6dc754)"><path fill="#00010d" d="M 123.351562 364.140625 C 123.351562 225.15625 236.019531 112.488281 375.003906 112.488281 C 513.984375 112.488281 626.652344 225.15625 626.652344 364.140625 C 626.652344 503.121094 513.984375 615.789062 375.003906 615.789062 C 236.019531 615.789062 123.351562 503.121094 123.351562 364.140625 M 134.460938 364.140625 C 134.460938 496.988281 242.152344 604.683594 375.003906 604.683594 C 507.851562 604.683594 615.546875 496.988281 615.546875 364.140625 C 615.546875 231.289062 507.851562 123.59375 375.003906 123.59375 C 242.152344 123.59375 134.460938 231.289062 134.460938 364.140625 Z M 134.460938 364.140625 " fill-opacity="1" fill-rule="nonzero"/></g><path fill="#6d5764" d="M 204.695312 460.960938 C 203.832031 459.761719 203.441406 458.421875 203.523438 456.941406 C 203.578125 456.09375 204.019531 455.648438 204.855469 455.609375 C 205.152344 455.59375 205.496094 455.589844 205.886719 455.589844 L 207.542969 455.589844 C 207.328125 455.425781 207.042969 455.34375 206.679688 455.34375 C 206.648438 455.34375 206.621094 455.34375 206.59375 455.347656 L 205.382812 455.347656 C 205.214844 455.34375 205.058594 455.339844 204.914062 455.339844 C 204.625 455.339844 204.375 455.347656 204.167969 455.367188 C 203.777344 455.378906 203.503906 455.472656 203.339844 455.648438 C 203.179688 455.8125 203.09375 456.082031 203.078125 456.457031 C 202.984375 458.152344 203.503906 459.640625 204.632812 460.921875 C 204.648438 460.921875 204.652344 460.925781 204.652344 460.941406 C 204.667969 460.953125 204.679688 460.960938 204.691406 460.960938 Z M 210.398438 458.457031 C 210.773438 458.453125 211.105469 458.304688 211.398438 458.011719 C 211.683594 457.742188 211.878906 457.414062 211.984375 457.023438 C 212.253906 456.054688 212.308594 454.902344 212.148438 453.570312 C 212.066406 453.582031 212.03125 453.589844 212.046875 453.589844 C 212.003906 453.589844 211.957031 453.597656 211.90625 453.609375 C 211.824219 453.609375 211.777344 453.617188 211.761719 453.628906 C 211.859375 454.734375 211.777344 455.722656 211.519531 456.597656 C 211.398438 457.042969 211.183594 457.414062 210.875 457.710938 C 210.671875 457.898438 210.445312 458.03125 210.1875 458.113281 C 210.1875 458.125 210.195312 458.148438 210.207031 458.175781 C 210.207031 458.199219 210.214844 458.214844 210.226562 458.214844 C 210.253906 458.28125 210.300781 458.355469 210.371094 458.4375 C 210.421875 458.449219 210.429688 458.457031 210.394531 458.457031 Z M 210.550781 448.316406 L 210.59375 448.15625 C 211.210938 448.128906 211.628906 447.832031 211.84375 447.269531 C 211.9375 447 212.003906 446.75 212.046875 446.519531 C 212.289062 445.148438 212.316406 443.402344 212.125 441.289062 C 212.101562 441.046875 212.039062 440.820312 211.945312 440.601562 C 211.835938 440.507812 211.714844 440.441406 211.582031 440.402344 C 211.636719 440.578125 211.664062 440.703125 211.664062 440.785156 C 211.851562 442.914062 211.824219 444.675781 211.582031 446.078125 C 211.542969 446.332031 211.472656 446.59375 211.378906 446.863281 C 211.164062 447.417969 210.773438 447.746094 210.207031 447.855469 C 210.226562 447.890625 210.234375 447.910156 210.234375 447.917969 L 210.230469 447.917969 C 210.257812 447.96875 210.304688 448.042969 210.371094 448.136719 C 210.53125 448.148438 210.585938 448.15625 210.53125 448.15625 L 210.53125 448.296875 C 210.53125 448.296875 210.539062 448.304688 210.550781 448.316406 Z M 211.316406 449.066406 C 210.609375 449.066406 210.109375 448.75 209.804688 448.117188 C 209.546875 447.605469 209.414062 447.03125 209.398438 446.398438 C 209.398438 446.304688 209.398438 445.660156 209.398438 444.460938 C 209.398438 443.074219 209.398438 442.320312 209.398438 442.199219 C 209.425781 441.429688 209.703125 440.8125 210.226562 440.339844 C 210.566406 440.027344 210.925781 439.875 211.308594 439.875 C 211.339844 439.875 211.367188 439.875 211.398438 439.875 C 211.804688 439.902344 212.175781 440.097656 212.511719 440.460938 C 212.875 440.867188 213.082031 441.355469 213.136719 441.9375 C 213.324219 444.0625 213.296875 445.828125 213.054688 447.226562 C 213.015625 447.484375 212.949219 447.746094 212.855469 448.015625 C 212.597656 448.6875 212.101562 449.039062 211.359375 449.066406 C 211.34375 449.066406 211.328125 449.066406 211.316406 449.066406 Z M 211.097656 464.273438 C 213.074219 464.273438 214.71875 463.605469 216.023438 462.273438 C 217.183594 461.074219 217.769531 459.613281 217.78125 457.890625 C 217.78125 457.394531 217.78125 454.644531 217.78125 449.652344 C 217.78125 444.667969 217.78125 441.867188 217.78125 441.25 C 217.769531 439.417969 217.113281 437.875 215.824219 436.625 C 214.609375 435.4375 213.039062 434.84375 211.109375 434.84375 C 211.003906 434.84375 210.898438 434.84375 210.792969 434.847656 C 209.058594 434.902344 207.597656 435.507812 206.410156 436.664062 C 205.226562 437.824219 204.605469 439.269531 204.554688 441.007812 C 204.527344 441.695312 204.519531 443.957031 204.53125 447.792969 C 204.546875 448.828125 204.847656 449.847656 205.441406 450.84375 C 206.382812 452.40625 207.703125 453.207031 209.398438 453.246094 C 209.570312 453.25 209.734375 453.253906 209.898438 453.253906 C 210.636719 453.253906 211.328125 453.203125 211.964844 453.105469 C 212.0625 453.089844 212.152344 453.082031 212.234375 453.082031 C 212.742188 453.082031 213.035156 453.359375 213.117188 453.914062 C 213.34375 455.378906 213.304688 456.660156 212.996094 457.75 C 212.875 458.195312 212.660156 458.5625 212.347656 458.859375 C 211.988281 459.195312 211.601562 459.367188 211.1875 459.367188 C 211.105469 459.367188 211.019531 459.359375 210.933594 459.34375 C 210.4375 459.265625 210.054688 458.960938 209.785156 458.4375 C 209.648438 458.152344 209.546875 457.851562 209.480469 457.527344 C 209.324219 456.839844 208.882812 456.496094 208.152344 456.496094 C 208.125 456.496094 208.097656 456.496094 208.066406 456.496094 L 206.855469 456.496094 C 206.355469 456.496094 205.953125 456.503906 205.644531 456.519531 C 205.253906 456.53125 204.976562 456.625 204.816406 456.800781 C 204.652344 456.960938 204.566406 457.230469 204.554688 457.609375 C 204.460938 459.304688 204.976562 460.792969 206.109375 462.070312 C 207.402344 463.539062 209.0625 464.273438 211.097656 464.273438 Z M 204.722656 450.683594 C 204.59375 450.503906 204.511719 450.375 204.472656 450.296875 C 203.839844 449.273438 203.523438 448.21875 203.523438 447.125 C 203.523438 446.832031 203.515625 446.238281 203.503906 445.347656 C 203.488281 443.128906 203.503906 441.453125 203.542969 440.320312 C 203.597656 438.53125 204.238281 437.035156 205.460938 435.835938 C 206.6875 434.625 208.207031 433.992188 210.027344 433.9375 L 210.371094 433.9375 C 211.066406 433.9375 211.722656 434.011719 212.339844 434.160156 L 212.34375 434.160156 C 211.546875 433.847656 210.65625 433.691406 209.667969 433.691406 C 209.550781 433.691406 209.4375 433.691406 209.320312 433.695312 C 207.582031 433.75 206.128906 434.355469 204.957031 435.515625 C 203.757812 436.671875 203.132812 438.121094 203.078125 439.855469 C 203.050781 440.515625 203.050781 442.769531 203.078125 446.621094 C 203.078125 447.671875 203.375 448.695312 203.96875 449.691406 C 204.191406 450.0625 204.441406 450.390625 204.71875 450.683594 Z M 210.398438 417.457031 C 210.496094 417.457031 210.589844 417.453125 210.683594 417.4375 C 211.542969 417.332031 212.109375 416.945312 212.378906 416.289062 C 212.902344 414.980469 212.902344 413.6875 212.378906 412.410156 C 212.285156 412.34375 212.175781 412.28125 212.054688 412.226562 C 212.460938 413.441406 212.40625 414.660156 211.894531 415.882812 C 211.597656 416.636719 210.972656 417.074219 210.015625 417.195312 L 209.933594 417.195312 C 210.015625 417.316406 210.078125 417.390625 210.117188 417.417969 C 210.265625 417.445312 210.359375 417.457031 210.398438 417.457031 Z M 211.1875 418.367188 C 210.488281 418.367188 209.902344 418.03125 209.429688 417.359375 C 209.082031 416.859375 208.898438 415.9375 208.886719 414.589844 C 209.019531 413.769531 209.085938 413.339844 209.085938 413.296875 C 209.4375 412.167969 210.199219 411.601562 211.371094 411.601562 C 212.296875 411.617188 212.945312 412.019531 213.308594 412.8125 C 213.925781 414.214844 213.949219 415.621094 213.367188 417.035156 C 213.058594 417.789062 212.433594 418.226562 211.492188 418.347656 C 211.386719 418.359375 211.289062 418.367188 211.1875 418.367188 Z M 204.710938 419.859375 C 204.542969 419.613281 204.398438 419.398438 204.28125 419.214844 C 203.675781 418.21875 203.378906 417.15625 203.390625 416.023438 C 203.390625 415.769531 203.390625 415.460938 203.390625 415.097656 L 203.390625 414.328125 C 203.390625 413.925781 203.390625 413.621094 203.390625 413.417969 C 203.472656 411.84375 203.910156 410.546875 204.703125 409.523438 C 204.972656 409.199219 205.195312 408.902344 205.371094 408.632812 C 205.492188 408.445312 205.53125 408.257812 205.492188 408.066406 L 205.390625 407.964844 C 205.285156 407.832031 205.164062 407.683594 205.027344 407.523438 C 205.09375 407.777344 205.042969 408.035156 204.867188 408.289062 C 204.691406 408.546875 204.46875 408.847656 204.199219 409.199219 C 203.445312 410.179688 203.027344 411.433594 202.949219 412.957031 C 202.949219 412.996094 202.949219 413.425781 202.949219 414.246094 C 202.949219 415.015625 202.949219 415.445312 202.949219 415.539062 C 202.933594 416.617188 203.21875 417.640625 203.796875 418.609375 C 204.074219 419.074219 204.375 419.488281 204.707031 419.859375 Z M 204.300781 406.503906 C 204.296875 406.5 204.292969 406.496094 204.285156 406.492188 C 204.289062 406.496094 204.292969 406.5 204.296875 406.503906 Z M 210.621094 405.078125 C 211.253906 405.078125 211.734375 404.75 212.054688 404.089844 C 212.863281 402.488281 212.9375 400.933594 212.277344 399.425781 C 212.183594 399.355469 212.082031 399.300781 211.976562 399.261719 C 212.472656 400.703125 212.339844 402.183594 211.570312 403.707031 C 211.234375 404.390625 210.742188 404.761719 210.097656 404.816406 C 210.191406 404.925781 210.25 404.992188 210.277344 405.019531 C 210.425781 405.058594 210.542969 405.078125 210.621094 405.078125 Z M 211.394531 405.984375 C 210.894531 405.984375 210.414062 405.785156 209.957031 405.382812 C 209.390625 404.871094 209.066406 404.269531 208.984375 403.585938 C 208.972656 403.488281 208.9375 403.003906 208.886719 402.128906 C 208.9375 401.363281 208.972656 400.9375 208.984375 400.859375 C 209.054688 400.320312 209.308594 399.800781 209.753906 399.300781 C 210.125 398.867188 210.636719 398.652344 211.28125 398.652344 C 211.335938 398.652344 211.394531 398.652344 211.449219 398.65625 C 212.246094 398.695312 212.816406 399.066406 213.167969 399.765625 C 213.976562 401.394531 213.933594 403.09375 213.046875 404.855469 C 212.722656 405.503906 212.257812 405.875 211.652344 405.96875 C 211.566406 405.980469 211.480469 405.984375 211.394531 405.984375 Z M 210.359375 422.910156 C 211.371094 422.910156 212.015625 422.90625 212.296875 422.890625 C 213.902344 422.835938 215.28125 422.179688 216.4375 420.914062 C 217.542969 419.714844 218.054688 418.40625 217.972656 416.996094 C 217.933594 416.144531 217.933594 415.285156 217.972656 414.410156 C 218.082031 412.539062 217.597656 411.058594 216.519531 409.964844 C 216.425781 409.871094 216.332031 409.738281 216.238281 409.5625 C 216.007812 409.144531 216.027344 408.742188 216.296875 408.351562 C 216.351562 408.269531 216.433594 408.160156 216.539062 408.027344 C 216.6875 407.867188 216.773438 407.765625 216.800781 407.722656 C 217.609375 406.699219 218.121094 405.535156 218.335938 404.230469 C 218.578125 402.816406 218.585938 401.160156 218.355469 399.261719 C 218.15625 397.726562 217.421875 396.375 216.15625 395.203125 C 214.90625 394.066406 213.535156 393.5 212.046875 393.5 C 211.960938 393.5 211.878906 393.503906 211.792969 393.507812 C 211.671875 393.519531 211.296875 393.527344 210.664062 393.527344 C 210.644531 393.527344 210.628906 393.527344 210.609375 393.527344 C 208.894531 393.527344 207.378906 394.191406 206.058594 395.527344 C 204.710938 396.871094 204.050781 398.414062 204.078125 400.152344 C 204.09375 400.542969 204.09375 401.078125 204.078125 401.765625 C 204.078125 402.535156 204.078125 403.074219 204.078125 403.382812 C 204.09375 404.996094 204.652344 406.417969 205.753906 407.644531 C 206.089844 408.007812 206.265625 408.210938 206.28125 408.25 C 206.589844 408.640625 206.609375 409.035156 206.339844 409.441406 C 206.164062 409.695312 205.945312 410 205.675781 410.351562 C 204.921875 411.332031 204.503906 412.585938 204.421875 414.105469 C 204.421875 414.148438 204.414062 414.578125 204.402344 415.398438 C 204.402344 416.167969 204.402344 416.597656 204.402344 416.691406 C 204.402344 417.769531 204.691406 418.792969 205.269531 419.761719 C 206.523438 421.847656 208.21875 422.898438 210.359375 422.910156 Z M 204.285156 406.492188 C 203.488281 405.367188 203.082031 404.109375 203.070312 402.714844 C 203.070312 402.445312 203.070312 401.96875 203.070312 401.28125 C 203.070312 400.460938 203.070312 399.863281 203.070312 399.484375 C 203.042969 397.695312 203.714844 396.105469 205.089844 394.71875 C 206.476562 393.316406 208.070312 392.617188 209.875 392.617188 L 210.542969 392.617188 C 210.730469 392.617188 210.882812 392.609375 211.007812 392.597656 L 211.25 392.597656 C 211.714844 392.597656 212.195312 392.664062 212.691406 392.796875 L 212.695312 392.796875 C 211.976562 392.5 211.246094 392.351562 210.503906 392.351562 C 210.445312 392.351562 210.382812 392.351562 210.320312 392.355469 C 210.210938 392.367188 209.835938 392.375 209.1875 392.375 C 209.171875 392.375 209.152344 392.375 209.136719 392.375 C 207.433594 392.375 205.917969 393.042969 204.582031 394.375 C 203.25 395.722656 202.589844 397.261719 202.605469 399 C 202.617188 399.390625 202.625 399.929688 202.625 400.617188 C 202.609375 401.394531 202.609375 401.933594 202.625 402.230469 C 202.625 403.847656 203.175781 405.265625 204.28125 406.492188 Z M 204.285156 406.492188 " fill-opacity="1" fill-rule="nonzero"/><path fill="#6d5764" d="M 227.96875 431.054688 C 228.652344 431.03125 229.050781 430.859375 229.164062 430.546875 C 228.984375 430.601562 228.730469 430.632812 228.402344 430.644531 C 228.308594 430.644531 228.15625 430.644531 227.949219 430.644531 L 219.839844 430.609375 C 209.144531 430.566406 201.128906 430.53125 195.789062 430.507812 C 194.761719 430.503906 194.132812 430.386719 193.898438 430.152344 C 193.667969 429.90625 193.554688 429.253906 193.558594 428.199219 L 193.558594 427.992188 C 193.5625 427.542969 193.578125 427.160156 193.605469 426.84375 C 193.480469 426.96875 193.40625 427.144531 193.378906 427.378906 C 193.347656 427.707031 193.332031 428.191406 193.332031 428.835938 C 193.328125 429.820312 193.417969 430.410156 193.609375 430.601562 C 193.800781 430.808594 194.375 430.914062 195.335938 430.917969 C 198.386719 430.929688 209.074219 430.976562 227.394531 431.050781 C 227.695312 431.054688 227.886719 431.054688 227.96875 431.054688 Z M 229.003906 429.746094 C 229.550781 429.71875 229.898438 429.632812 230.050781 429.480469 C 230.214844 429.332031 230.3125 428.996094 230.34375 428.476562 C 230.34375 428.339844 230.34375 428.003906 230.347656 427.46875 C 230.351562 426.457031 230.269531 425.859375 230.109375 425.683594 C 229.929688 425.503906 229.347656 425.414062 228.363281 425.40625 L 196.609375 425.273438 C 196.550781 425.273438 196.492188 425.273438 196.433594 425.273438 C 195.878906 425.273438 195.449219 425.285156 195.152344 425.308594 C 194.714844 425.363281 194.472656 425.617188 194.429688 426.066406 C 194.386719 426.394531 194.367188 426.875 194.363281 427.503906 C 194.371094 428.492188 194.472656 429.085938 194.664062 429.292969 C 194.855469 429.5 195.429688 429.605469 196.386719 429.609375 C 199.945312 429.621094 210.628906 429.667969 228.425781 429.742188 C 228.726562 429.742188 228.917969 429.746094 229.003906 429.746094 Z M 229.003906 429.746094 " fill-opacity="1" fill-rule="nonzero"/></svg>