<svg xmlns="http://www.w3.org/2000/svg" xmlns:xlink="http://www.w3.org/1999/xlink" width="1000" zoomAndPan="magnify" viewBox="0 0 750 749.999995" height="1000" preserveAspectRatio="xMidYMid meet" version="1.0"><defs><clipPath id="9d7d3cf51d"><path d="M 464 306.976562 L 587 306.976562 L 587 443.023438 L 464 443.023438 Z M 464 306.976562 " clip-rule="nonzero"/></clipPath></defs><rect x="-75" width="900" fill="#ffffff" y="-74.999999" height="899.999994" fill-opacity="1"/><rect x="-75" width="900" fill="#ffffff" y="-74.999999" height="899.999994" fill-opacity="1"/><path fill="#000000" d="M 176.09375 355.421875 C 173.054688 355.421875 170.6875 354.464844 169 352.550781 C 167.3125 350.636719 166.410156 348.160156 166.296875 345.125 C 166.296875 338.933594 169 333.421875 174.40625 328.582031 C 179.808594 323.742188 186.339844 321.324219 194 321.324219 C 197.941406 321.324219 200.417969 321.378906 201.429688 321.492188 C 209.765625 322.84375 216.125 325.824219 220.519531 330.4375 C 224.910156 335.050781 227.160156 340.058594 227.273438 345.460938 C 227.273438 351.3125 225.359375 356.996094 221.53125 362.507812 C 217.703125 368.023438 212.410156 372.019531 205.652344 374.492188 L 205.148438 374.832031 C 205.148438 374.945312 205.652344 375.113281 206.667969 375.335938 C 207.679688 375.5625 209.3125 376.070312 211.566406 376.855469 C 213.816406 377.644531 215.957031 378.824219 217.984375 380.402344 C 227.21875 386.367188 231.835938 394.242188 231.835938 404.03125 C 231.835938 412.921875 228.34375 420.6875 221.363281 427.324219 C 214.382812 433.964844 205.542969 437.285156 194.84375 437.285156 C 185.835938 437.285156 178.066406 434.863281 171.535156 430.027344 C 165.003906 425.1875 161.738281 419.054688 161.738281 411.628906 C 161.738281 408.476562 162.75 405.945312 164.777344 404.03125 C 166.804688 402.121094 169.339844 401.105469 172.378906 400.992188 C 175.53125 400.992188 178.121094 402.007812 180.148438 404.03125 C 182.175781 406.058594 183.1875 408.589844 183.1875 411.628906 C 183.1875 412.867188 183.019531 413.992188 182.683594 415.003906 C 182.34375 416.015625 181.949219 416.917969 181.5 417.703125 C 181.050781 418.492188 180.429688 419.167969 179.640625 419.730469 C 178.851562 420.292969 178.175781 420.742188 177.613281 421.082031 C 177.050781 421.417969 176.488281 421.644531 175.925781 421.753906 C 175.363281 421.867188 174.910156 422.035156 174.574219 422.261719 L 173.898438 422.429688 C 179.640625 427.496094 186.625 430.027344 194.84375 430.027344 C 201.035156 430.027344 205.710938 427.042969 208.863281 421.082031 C 210.777344 417.367188 211.734375 411.683594 211.734375 404.03125 L 211.734375 400.65625 C 211.734375 389.964844 208.132812 382.820312 200.925781 379.21875 C 199.234375 378.542969 195.800781 378.152344 190.621094 378.039062 L 183.527344 377.871094 L 183.019531 377.53125 C 182.792969 377.195312 182.683594 376.292969 182.683594 374.832031 C 182.683594 372.804688 183.132812 371.792969 184.035156 371.792969 C 187.1875 371.792969 190.453125 371.511719 193.832031 370.949219 C 197.660156 370.386719 201.148438 368.023438 204.300781 363.859375 C 207.457031 359.695312 209.03125 353.394531 209.03125 344.953125 L 209.03125 343.605469 C 209.03125 337.191406 207.0625 332.746094 203.121094 330.269531 C 200.644531 328.695312 197.996094 327.90625 195.179688 327.90625 C 191.578125 327.90625 188.257812 328.527344 185.214844 329.765625 C 182.175781 331 180.035156 332.296875 178.796875 333.644531 C 177.558594 334.996094 176.9375 335.671875 176.9375 335.671875 L 177.445312 335.671875 C 177.785156 335.785156 178.234375 335.894531 178.796875 336.007812 C 179.359375 336.121094 179.921875 336.402344 180.484375 336.851562 C 181.050781 337.304688 181.726562 337.695312 182.511719 338.035156 C 183.300781 338.371094 183.863281 338.992188 184.203125 339.890625 C 184.539062 340.792969 184.992188 341.636719 185.554688 342.421875 C 186.117188 343.210938 186.285156 344.335938 186.058594 345.800781 C 186.058594 348.273438 185.273438 350.46875 183.695312 352.382812 C 182.117188 354.292969 179.585938 355.308594 176.09375 355.421875 Z M 176.09375 355.421875 " fill-opacity="1" fill-rule="nonzero"/><path fill="#000000" d="M 260.550781 355.421875 C 257.511719 355.421875 255.144531 354.464844 253.457031 352.550781 C 251.765625 350.636719 250.867188 348.160156 250.753906 345.125 C 250.753906 338.933594 253.457031 333.421875 258.859375 328.582031 C 264.265625 323.742188 270.796875 321.324219 278.453125 321.324219 C 282.394531 321.324219 284.875 321.378906 285.886719 321.492188 C 294.21875 322.84375 300.582031 325.824219 304.972656 330.4375 C 309.367188 335.050781 311.617188 340.058594 311.730469 345.460938 C 311.730469 351.3125 309.816406 356.996094 305.988281 362.507812 C 302.160156 368.023438 296.867188 372.019531 290.109375 374.492188 L 289.601562 374.832031 C 289.601562 374.945312 290.109375 375.113281 291.125 375.335938 C 292.136719 375.5625 293.769531 376.070312 296.023438 376.855469 C 298.273438 377.644531 300.414062 378.824219 302.441406 380.402344 C 311.675781 386.367188 316.292969 394.242188 316.292969 404.03125 C 316.292969 412.921875 312.800781 420.6875 305.820312 427.324219 C 298.835938 433.964844 289.996094 437.285156 279.300781 437.285156 C 270.289062 437.285156 262.519531 434.863281 255.988281 430.027344 C 249.457031 425.1875 246.191406 419.054688 246.191406 411.628906 C 246.191406 408.476562 247.207031 405.945312 249.234375 404.03125 C 251.261719 402.121094 253.792969 401.105469 256.835938 400.992188 C 259.988281 400.992188 262.578125 402.007812 264.605469 404.03125 C 266.632812 406.058594 267.644531 408.589844 267.644531 411.628906 C 267.644531 412.867188 267.476562 413.992188 267.136719 415.003906 C 266.800781 416.015625 266.40625 416.917969 265.957031 417.703125 C 265.503906 418.492188 264.886719 419.167969 264.097656 419.730469 C 263.308594 420.292969 262.632812 420.742188 262.070312 421.082031 C 261.507812 421.417969 260.945312 421.644531 260.382812 421.753906 C 259.816406 421.867188 259.367188 422.035156 259.03125 422.261719 L 258.355469 422.429688 C 264.097656 427.496094 271.078125 430.027344 279.300781 430.027344 C 285.492188 430.027344 290.167969 427.042969 293.320312 421.082031 C 295.234375 417.367188 296.191406 411.683594 296.191406 404.03125 L 296.191406 400.65625 C 296.191406 389.964844 292.585938 382.820312 285.378906 379.21875 C 283.691406 378.542969 280.257812 378.152344 275.078125 378.039062 L 267.984375 377.871094 L 267.476562 377.53125 C 267.25 377.195312 267.136719 376.292969 267.136719 374.832031 C 267.136719 372.804688 267.589844 371.792969 268.488281 371.792969 C 271.640625 371.792969 274.90625 371.511719 278.285156 370.949219 C 282.113281 370.386719 285.605469 368.023438 288.757812 363.859375 C 291.910156 359.695312 293.488281 353.394531 293.488281 344.953125 L 293.488281 343.605469 C 293.488281 337.191406 291.515625 332.746094 287.578125 330.269531 C 285.097656 328.695312 282.453125 327.90625 279.636719 327.90625 C 276.035156 327.90625 272.710938 328.527344 269.671875 329.765625 C 266.632812 331 264.492188 332.296875 263.253906 333.644531 C 262.015625 334.996094 261.394531 335.671875 261.394531 335.671875 L 261.902344 335.671875 C 262.238281 335.785156 262.691406 335.894531 263.253906 336.007812 C 263.816406 336.121094 264.378906 336.402344 264.941406 336.851562 C 265.503906 337.304688 266.179688 337.695312 266.96875 338.035156 C 267.757812 338.371094 268.320312 338.992188 268.65625 339.890625 C 268.996094 340.792969 269.445312 341.636719 270.007812 342.421875 C 270.574219 343.210938 270.742188 344.335938 270.515625 345.800781 C 270.515625 348.273438 269.726562 350.46875 268.152344 352.382812 C 266.574219 354.292969 264.042969 355.308594 260.550781 355.421875 Z M 260.550781 355.421875 " fill-opacity="1" fill-rule="nonzero"/><path fill="#000000" d="M 336.730469 423.445312 C 336.730469 420.742188 337.6875 418.378906 339.601562 416.355469 C 341.515625 414.328125 343.9375 413.316406 346.863281 413.316406 C 349.566406 413.316406 351.929688 414.214844 353.957031 416.015625 C 355.984375 417.816406 357.054688 420.234375 357.167969 423.273438 C 357.167969 426.085938 356.210938 428.507812 354.296875 430.53125 C 352.382812 432.558594 349.960938 433.570312 347.03125 433.570312 C 344.105469 433.570312 341.683594 432.613281 339.769531 430.703125 C 337.855469 428.789062 336.84375 426.367188 336.730469 423.445312 Z M 336.730469 423.445312 " fill-opacity="1" fill-rule="nonzero"/><path fill="#000000" d="M 391.964844 355.421875 C 388.921875 355.421875 386.558594 354.464844 384.871094 352.550781 C 383.179688 350.636719 382.28125 348.160156 382.167969 345.125 C 382.167969 338.933594 384.871094 333.421875 390.273438 328.582031 C 395.679688 323.742188 402.210938 321.324219 409.867188 321.324219 C 413.808594 321.324219 416.285156 321.378906 417.300781 321.492188 C 425.632812 322.84375 431.996094 325.824219 436.386719 330.4375 C 440.777344 335.050781 443.03125 340.058594 443.144531 345.460938 C 443.144531 351.3125 441.230469 356.996094 437.402344 362.507812 C 433.574219 368.023438 428.28125 372.019531 421.523438 374.492188 L 421.015625 374.832031 C 421.015625 374.945312 421.523438 375.113281 422.535156 375.335938 C 423.550781 375.5625 425.183594 376.070312 427.433594 376.855469 C 429.6875 377.644531 431.828125 378.824219 433.855469 380.402344 C 443.085938 386.367188 447.703125 394.242188 447.703125 404.03125 C 447.703125 412.921875 444.214844 420.6875 437.230469 427.324219 C 430.25 433.964844 421.410156 437.285156 410.714844 437.285156 C 401.703125 437.285156 393.933594 434.863281 387.402344 430.027344 C 380.871094 425.1875 377.605469 419.054688 377.605469 411.628906 C 377.605469 408.476562 378.621094 405.945312 380.648438 404.03125 C 382.671875 402.121094 385.207031 401.105469 388.246094 400.992188 C 391.402344 400.992188 393.992188 402.007812 396.019531 404.03125 C 398.042969 406.058594 399.058594 408.589844 399.058594 411.628906 C 399.058594 412.867188 398.890625 413.992188 398.550781 415.003906 C 398.214844 416.015625 397.820312 416.917969 397.367188 417.703125 C 396.917969 418.492188 396.300781 419.167969 395.511719 419.730469 C 394.722656 420.292969 394.046875 420.742188 393.484375 421.082031 C 392.921875 421.417969 392.359375 421.644531 391.792969 421.753906 C 391.230469 421.867188 390.78125 422.035156 390.445312 422.261719 L 389.769531 422.429688 C 395.511719 427.496094 402.492188 430.027344 410.714844 430.027344 C 416.90625 430.027344 421.578125 427.042969 424.734375 421.082031 C 426.648438 417.367188 427.605469 411.683594 427.605469 404.03125 L 427.605469 400.65625 C 427.605469 389.964844 424 382.820312 416.792969 379.21875 C 415.105469 378.542969 411.671875 378.152344 406.488281 378.039062 L 399.394531 377.871094 L 398.890625 377.53125 C 398.664062 377.195312 398.550781 376.292969 398.550781 374.832031 C 398.550781 372.804688 399 371.792969 399.902344 371.792969 C 403.054688 371.792969 406.320312 371.511719 409.699219 370.949219 C 413.527344 370.386719 417.019531 368.023438 420.171875 363.859375 C 423.324219 359.695312 424.902344 353.394531 424.902344 344.953125 L 424.902344 343.605469 C 424.902344 337.191406 422.929688 332.746094 418.988281 330.269531 C 416.511719 328.695312 413.867188 327.90625 411.050781 327.90625 C 407.449219 327.90625 404.125 328.527344 401.085938 329.765625 C 398.042969 331 395.90625 332.296875 394.667969 333.644531 C 393.425781 334.996094 392.808594 335.671875 392.808594 335.671875 L 393.316406 335.671875 C 393.652344 335.785156 394.101562 335.894531 394.667969 336.007812 C 395.230469 336.121094 395.792969 336.402344 396.355469 336.851562 C 396.917969 337.304688 397.59375 337.695312 398.382812 338.035156 C 399.171875 338.371094 399.734375 338.992188 400.070312 339.890625 C 400.410156 340.792969 400.859375 341.636719 401.421875 342.421875 C 401.984375 343.210938 402.15625 344.335938 401.929688 345.800781 C 401.929688 348.273438 401.140625 350.46875 399.566406 352.382812 C 397.988281 354.292969 395.453125 355.308594 391.964844 355.421875 Z M 391.964844 355.421875 " fill-opacity="1" fill-rule="nonzero"/><g clip-path="url(#9d7d3cf51d)"><path fill="#000000" d="M 533.511719 331.453125 C 529.34375 331.453125 525.347656 330.945312 521.519531 329.933594 C 517.691406 328.917969 514.648438 327.90625 512.398438 326.894531 C 510.144531 325.882812 508.964844 325.375 508.851562 325.375 C 510.316406 329.089844 511.046875 334.320312 511.046875 341.074219 C 511.046875 351.199219 508.851562 359.359375 504.457031 365.546875 C 500.066406 371.738281 494.945312 374.886719 489.089844 375 C 482.667969 375 476.984375 371.90625 472.027344 365.714844 C 467.074219 359.527344 464.539062 351.3125 464.425781 341.074219 C 464.425781 331.058594 466.960938 322.898438 472.027344 316.597656 C 477.09375 310.296875 482.78125 307.089844 489.089844 306.976562 C 493.480469 306.976562 497.421875 308.722656 500.910156 312.210938 C 510.707031 320.875 521.519531 325.207031 533.34375 325.207031 C 546.40625 325.207031 556.878906 320.140625 564.761719 310.015625 C 566.113281 308.214844 567.125 307.257812 567.800781 307.144531 C 568.027344 307.03125 568.308594 306.976562 568.644531 306.976562 C 569.660156 306.976562 570.503906 307.371094 571.179688 308.160156 C 571.855469 308.945312 572.136719 309.902344 572.023438 311.027344 C 514.03125 398.011719 484.582031 441.785156 483.683594 442.347656 C 483.230469 442.796875 482.667969 443.023438 481.992188 443.023438 C 480.53125 443.023438 479.515625 442.40625 478.953125 441.167969 C 478.390625 440.152344 478.390625 439.140625 478.953125 438.128906 C 479.066406 437.789062 491.507812 419.167969 516.28125 382.257812 C 528.21875 364.480469 537.339844 350.863281 543.644531 341.410156 C 549.953125 331.957031 553.105469 327.230469 553.105469 327.230469 C 547.136719 330.046875 540.605469 331.453125 533.511719 331.453125 Z M 489.933594 368.585938 C 493.085938 368.585938 496.238281 366.222656 499.390625 361.496094 C 502.542969 356.769531 504.175781 349.960938 504.289062 341.074219 C 504.289062 333.308594 502.882812 326.78125 500.066406 321.492188 C 497.253906 316.203125 493.480469 313.503906 488.75 313.390625 C 487.960938 313.390625 487.171875 313.558594 486.386719 313.898438 C 485.597656 314.234375 484.527344 314.855469 483.175781 315.753906 C 481.824219 316.652344 480.699219 318.34375 479.796875 320.816406 C 478.898438 323.292969 478.164062 326.273438 477.601562 329.765625 C 477.375 332.015625 477.265625 335.785156 477.265625 341.074219 L 477.265625 344.617188 C 477.265625 354.859375 479.121094 361.835938 482.839844 365.546875 C 484.863281 367.574219 487.003906 368.585938 489.257812 368.585938 Z M 539.421875 408.925781 C 539.421875 399.023438 541.902344 390.921875 546.855469 384.621094 C 551.8125 378.320312 557.609375 375.113281 564.253906 375 C 570.109375 375 575.175781 378.09375 579.457031 384.285156 C 583.734375 390.472656 585.929688 398.6875 586.042969 408.925781 C 586.15625 419.167969 583.960938 427.382812 579.457031 433.570312 C 574.953125 439.761719 569.828125 442.910156 564.085938 443.023438 C 557.777344 443.023438 552.09375 439.871094 547.023438 433.570312 C 541.957031 427.269531 539.421875 419.054688 539.421875 408.925781 Z M 564.929688 436.609375 C 568.082031 436.609375 571.234375 434.246094 574.386719 429.519531 C 577.542969 424.792969 579.175781 417.929688 579.285156 408.925781 C 579.285156 401.164062 577.878906 394.636719 575.0625 389.347656 C 572.25 384.058594 568.476562 381.414062 563.746094 381.414062 C 562.957031 381.414062 562.171875 381.582031 561.382812 381.921875 C 560.59375 382.257812 559.523438 382.878906 558.171875 383.777344 C 556.820312 384.675781 555.695312 386.367188 554.792969 388.839844 C 553.894531 391.316406 553.160156 394.296875 552.597656 397.785156 C 552.484375 399.136719 552.429688 402.851562 552.429688 408.925781 L 552.429688 412.640625 C 552.429688 428.621094 556.371094 436.609375 564.253906 436.609375 Z M 564.929688 436.609375 " fill-opacity="1" fill-rule="nonzero"/></g></svg>